<svg xmlns="http://www.w3.org/2000/svg" xmlns:xlink="http://www.w3.org/1999/xlink" width="800" height="600" version="1.1" viewBox="0 0 800 600"><g fill="none" fill-rule="evenodd" stroke="none" stroke-width="1"><path fill="#692297" stroke="#63DA14" stroke-opacity=".88" stroke-width="5" d="M 485,316 C 373,192 220,407 615,419 C 202,392 192,325 407,329 C 547,408 199,284 351,386 C 355,434 121,271 601,136 C 117,421 398,289 515,368 C 315,108 111,447 651,192 Z" opacity=".179" transform="rotate(-102.0 400 300)"/><path fill="#176CAD" stroke="#A11AB4" stroke-opacity=".737" stroke-width="5" d="M 427,182 C 252,295 317,440 679,197 C 435,430 337,335 675,220 C 357,281 616,364 161,305 C 585,486 441,157 681,161 C 173,208 270,227 596,218 C 281,325 639,308 397,138 C 376,210 569,367 311,130 Z" opacity=".777" transform="rotate(112.0 400 300)"/><path fill="#96A451" stroke="#035DD3" stroke-opacity=".836" stroke-width="7" d="M 539,477 C 368,332 518,325 134,112 C 383,180 366,492 163,202 C 446,481 247,349 162,347 C 675,271 496,158 421,332 C 147,181 689,367 352,488 C 218,217 209,376 140,403 C 631,120 148,414 232,498 C 215,150 230,146 461,297 C 523,116 143,392 529,127 Z" opacity=".177" transform="rotate(61.0 400 300)"/><path fill="#AC2964" stroke="#03054A" stroke-opacity=".954" stroke-width="5" d="M 206,318 C 176,285 641,482 637,358 C 359,202 681,495 580,200 C 403,149 601,421 516,422 C 327,263 475,474 522,214 C 533,317 594,418 218,148 C 232,276 602,185 583,350 C 410,276 350,156 543,114 C 201,294 446,235 330,269 C 208,183 415,351 110,361 C 467,118 667,225 266,276 Z" opacity=".052" transform="rotate(-22.0 400 300)"/><path fill="#5B25BA" stroke="#92A20C" stroke-opacity=".77" stroke-width="3" d="M 512,315 C 165,460 466,244 198,294 C 682,315 163,232 519,432 C 156,417 285,113 217,165 C 341,482 465,208 567,415 C 524,384 359,389 471,109 C 318,484 134,221 610,459 C 310,460 504,306 508,191 C 132,369 661,192 189,316 C 396,236 502,383 132,426 Z" opacity=".95" transform="rotate(-94.0 400 300)"/><path fill="#C176BC" stroke="#1CADA8" stroke-opacity=".34" stroke-width="5" d="M 264,497 C 657,162 152,259 514,419 C 599,499 602,140 174,328 C 357,420 645,299 396,400 C 547,252 125,235 304,193 C 257,234 363,256 431,278 C 675,162 188,124 655,251 C 476,210 405,291 360,145 C 142,359 105,370 393,188 C 423,120 411,489 566,454 Z" opacity=".786" transform="rotate(1.0 400 300)"/><path fill="#A23753" stroke="#46735A" stroke-opacity=".494" stroke-width="7" d="M 335,171 C 175,410 233,242 352,473 C 232,269 442,428 637,254 C 591,443 652,236 483,479 C 576,466 343,314 575,239 C 654,214 553,188 650,295 C 140,345 220,343 431,240 C 413,185 295,210 422,315 C 340,155 186,270 265,444 C 284,138 500,311 149,401 Z" opacity=".898" transform="rotate(-143.0 400 300)"/><path fill="#D3A2B3" stroke="#B69B98" stroke-opacity=".819" stroke-width="7" d="M 112,284 C 489,383 244,194 334,405 C 436,445 461,452 117,269 C 297,463 345,318 592,226 C 104,358 638,161 195,245 C 631,415 408,399 696,128 C 675,463 199,256 537,416 C 201,496 145,283 169,330 C 291,308 695,213 583,394 Z" opacity=".39" transform="rotate(-50.0 400 300)"/><path fill="#C90501" stroke="#DA4440" stroke-opacity=".742" stroke-width="6" d="M 422,105 C 241,456 148,387 676,302 C 364,220 409,106 588,428 C 235,101 668,415 688,236 C 652,163 111,174 275,204 C 133,279 250,396 126,192 C 662,224 244,268 662,110 C 678,476 110,192 226,407 C 700,154 561,480 570,139 C 246,128 419,473 321,182 C 698,201 246,384 288,394 Z" opacity=".791" transform="rotate(-24.0 400 300)"/></g></svg>