<svg xmlns="http://www.w3.org/2000/svg" xmlns:xlink="http://www.w3.org/1999/xlink" width="800" height="600" version="1.1" viewBox="0 0 800 600"><g fill="none" fill-rule="evenodd" stroke="none" stroke-width="1"><path fill="#919C32" stroke="#2D52A6" stroke-opacity=".624" stroke-width="5" d="M 673,264 C 147,273 508,189 443,213 C 123,357 596,445 516,307 C 537,277 402,168 122,268 C 379,285 338,231 499,473 C 177,292 215,247 147,136 Z" opacity=".078" transform="rotate(144.0 400 300)"/><path fill="#659176" stroke="#8579B2" stroke-opacity=".715" stroke-width="4" d="M 639,183 C 364,145 166,254 219,397 C 358,269 404,170 639,491 C 589,479 363,371 648,133 C 171,329 309,350 652,125 C 594,353 631,219 106,111 C 492,383 645,348 649,319 C 465,224 346,295 231,182 C 483,172 115,399 580,330 Z" opacity=".78" transform="rotate(144.0 400 300)"/><path fill="#6B37D4" stroke="#06CA68" stroke-opacity=".118" stroke-width="4" d="M 313,267 C 553,209 335,297 533,487 C 320,409 237,414 123,285 C 482,495 373,441 689,387 C 339,450 507,264 339,495 C 423,320 427,310 665,353 C 551,470 347,432 286,392 C 657,183 641,276 662,190 C 340,269 142,148 526,436 C 256,475 202,356 568,166 C 595,281 512,165 465,123 Z" opacity=".426" transform="rotate(-85.0 400 300)"/><path fill="#C91BCB" stroke="#80CC17" stroke-opacity=".17" stroke-width="2" d="M 573,180 C 313,449 655,176 205,183 C 456,280 616,218 607,407 C 204,385 162,161 657,252 C 456,235 260,210 536,102 C 538,405 533,459 427,276 C 132,243 612,118 244,453 C 374,298 505,428 267,236 C 135,174 387,112 112,115 Z" opacity=".645" transform="rotate(-110.0 400 300)"/><path fill="#745240" stroke="#A0902C" stroke-opacity=".063" stroke-width="4" d="M 563,128 C 290,259 280,202 212,133 C 289,434 102,396 640,346 C 155,169 473,182 520,487 C 453,356 684,166 661,229 C 449,299 437,105 106,300 C 555,229 215,430 220,159 C 354,349 691,101 179,164 C 361,396 567,336 336,181 Z" opacity=".163" transform="rotate(114.0 400 300)"/><path fill="#7687A1" stroke="#0378BB" stroke-opacity=".951" stroke-width="6" d="M 691,273 C 255,400 574,250 411,486 C 497,212 394,105 292,179 C 206,494 292,202 292,325 C 254,428 494,248 590,293 C 410,112 420,162 307,268 C 405,361 630,166 297,461 C 315,304 216,420 446,480 C 651,376 579,111 645,411 C 367,318 390,331 677,482 Z" opacity=".506" transform="rotate(-149.0 400 300)"/><path fill="#12D587" stroke="#780082" stroke-opacity=".158" stroke-width="3" d="M 464,143 C 223,364 196,326 662,446 C 611,320 572,350 657,391 C 348,168 355,117 241,209 C 558,121 216,458 264,182 Z" opacity=".181" transform="rotate(73.0 400 300)"/><path fill="#670720" stroke="#751319" stroke-opacity=".008" stroke-width="1" d="M 657,220 C 266,153 445,124 295,220 C 361,151 447,314 651,454 C 599,360 147,382 391,177 C 600,325 402,488 690,283 Z" opacity=".981" transform="rotate(-31.0 400 300)"/></g></svg>