<?xml version="1.0" encoding="UTF-8"?>
<svg width="800px" height="600px" viewBox="0 0 800 600" version="1.1" xmlns="http://www.w3.org/2000/svg" xmlns:xlink="http://www.w3.org/1999/xlink">
  <defs></defs>
  <g stroke="none" stroke-width="1" fill="none" fill-rule="evenodd">
    
    <path stroke="#2D52A6" stroke-width="5" fill="#919C32" opacity="0.0776485376168561" stroke-opacity="0.6238102434250268" transform="rotate(144.0 400 300)" d="M 673,264  C 147,273 508,189 443,213 C 123,357 596,445 516,307 C 537,277 402,168 122,268 C 379,285 338,231 499,473 C 177,292 215,247 147,136 Z"></path>
<path stroke="#8579B2" stroke-width="4" fill="#659176" opacity="0.7804405379267566" stroke-opacity="0.7147375987761339" transform="rotate(144.0 400 300)" d="M 639,183  C 364,145 166,254 219,397 C 358,269 404,170 639,491 C 589,479 363,371 648,133 C 171,329 309,350 652,125 C 594,353 631,219 106,111 C 492,383 645,348 649,319 C 465,224 346,295 231,182 C 483,172 115,399 580,330 Z"></path>
<path stroke="#06CA68" stroke-width="4" fill="#6B37D4" opacity="0.4258438914830164" stroke-opacity="0.11811723738664068" transform="rotate(-85.0 400 300)" d="M 313,267  C 553,209 335,297 533,487 C 320,409 237,414 123,285 C 482,495 373,441 689,387 C 339,450 507,264 339,495 C 423,320 427,310 665,353 C 551,470 347,432 286,392 C 657,183 641,276 662,190 C 340,269 142,148 526,436 C 256,475 202,356 568,166 C 595,281 512,165 465,123 Z"></path>
<path stroke="#80CC17" stroke-width="2" fill="#C91BCB" opacity="0.6451282750069308" stroke-opacity="0.1700016229802838" transform="rotate(-110.0 400 300)" d="M 573,180  C 313,449 655,176 205,183 C 456,280 616,218 607,407 C 204,385 162,161 657,252 C 456,235 260,210 536,102 C 538,405 533,459 427,276 C 132,243 612,118 244,453 C 374,298 505,428 267,236 C 135,174 387,112 112,115 Z"></path>
<path stroke="#A0902C" stroke-width="4" fill="#745240" opacity="0.1629107304217026" stroke-opacity="0.06262147367269953" transform="rotate(114.0 400 300)" d="M 563,128  C 290,259 280,202 212,133 C 289,434 102,396 640,346 C 155,169 473,182 520,487 C 453,356 684,166 661,229 C 449,299 437,105 106,300 C 555,229 215,430 220,159 C 354,349 691,101 179,164 C 361,396 567,336 336,181 Z"></path>
<path stroke="#0378BB" stroke-width="6" fill="#7687A1" opacity="0.5060401876813673" stroke-opacity="0.9505981928951889" transform="rotate(-149.0 400 300)" d="M 691,273  C 255,400 574,250 411,486 C 497,212 394,105 292,179 C 206,494 292,202 292,325 C 254,428 494,248 590,293 C 410,112 420,162 307,268 C 405,361 630,166 297,461 C 315,304 216,420 446,480 C 651,376 579,111 645,411 C 367,318 390,331 677,482 Z"></path>
<path stroke="#780082" stroke-width="3" fill="#12D587" opacity="0.1806366975237595" stroke-opacity="0.1579726761170866" transform="rotate(73.0 400 300)" d="M 464,143  C 223,364 196,326 662,446 C 611,320 572,350 657,391 C 348,168 355,117 241,209 C 558,121 216,458 264,182 Z"></path>
<path stroke="#751319" stroke-width="1" fill="#670720" opacity="0.9812642144695258" stroke-opacity="0.007700721310572616" transform="rotate(-31.0 400 300)" d="M 657,220  C 266,153 445,124 295,220 C 361,151 447,314 651,454 C 599,360 147,382 391,177 C 600,325 402,488 690,283 Z"></path>

  </g>
</svg>
