<?xml version="1.0" encoding="UTF-8"?>
<svg width="800px" height="600px" viewBox="0 0 800 600" version="1.1" xmlns="http://www.w3.org/2000/svg" xmlns:xlink="http://www.w3.org/1999/xlink">
  <defs></defs>
  <g stroke="none" stroke-width="1" fill="none" fill-rule="evenodd">
    
    <path stroke="#3975BB" stroke-width="6" fill="#C3955C" opacity="0.8917778242920951" stroke-opacity="0.8683604854551997" transform="rotate(-137.0 400 300)" d="M 303,144  C 557,460 314,319 328,453 C 255,108 440,361 463,247 C 696,131 641,193 541,403 C 394,288 519,313 354,496 C 131,373 420,352 451,327 C 616,388 265,132 450,211 C 349,309 647,329 629,155 C 114,156 485,230 350,321 C 527,331 134,377 181,231 C 473,307 477,117 661,409 C 603,300 483,111 370,349 Z"></path>
<path stroke="#5126A9" stroke-width="1" fill="#D47374" opacity="0.22722458733881915" stroke-opacity="0.5512985714243482" transform="rotate(11.0 400 300)" d="M 535,196  C 253,225 201,128 445,458 C 122,337 295,177 488,343 C 305,124 457,134 313,351 C 594,345 659,245 490,493 Z"></path>
<path stroke="#089DB7" stroke-width="5" fill="#3A8C5D" opacity="0.8196085104962882" stroke-opacity="0.4060455405185326" transform="rotate(123.0 400 300)" d="M 362,290  C 648,436 374,277 316,146 C 641,196 162,277 154,414 C 671,337 273,292 591,414 C 189,106 625,402 442,182 C 566,373 128,128 424,487 C 410,458 173,223 377,361 C 192,252 179,264 116,226 C 240,367 585,484 672,439 C 547,217 175,457 595,121 C 628,232 259,275 145,159 Z"></path>
<path stroke="#515420" stroke-width="5" fill="#D420A0" opacity="0.8966386255627865" stroke-opacity="0.41270732951982136" transform="rotate(-1.0 400 300)" d="M 559,411  C 450,210 301,414 132,334 C 488,190 395,392 391,102 C 625,115 201,248 660,326 C 679,475 681,326 416,349 C 566,492 512,470 571,445 Z"></path>
<path stroke="#4B2B02" stroke-width="3" fill="#63787A" opacity="0.13345352065337718" stroke-opacity="0.03472041393590233" transform="rotate(19.0 400 300)" d="M 281,448  C 429,267 227,185 693,101 C 188,358 614,271 587,494 C 569,361 285,459 400,186 C 104,106 157,145 612,148 C 543,247 330,381 467,413 C 374,239 181,284 269,199 C 269,192 450,484 261,298 C 432,445 378,292 340,294 C 350,131 327,152 168,344 C 333,243 652,446 691,289 Z"></path>
<path stroke="#631CDB" stroke-width="5" fill="#0082A8" opacity="0.6659436606310439" stroke-opacity="0.006670334971748177" transform="rotate(25.0 400 300)" d="M 271,246  C 420,371 383,476 621,287 C 425,465 389,232 343,492 C 456,248 520,379 383,496 C 459,427 497,406 501,375 C 491,273 616,359 406,269 C 471,366 252,319 599,390 C 163,432 566,321 176,357 C 547,145 667,431 476,145 C 478,396 492,426 466,274 C 260,354 620,351 386,344 C 149,304 579,261 181,419 Z"></path>

  </g>
</svg>
