<svg xmlns="http://www.w3.org/2000/svg" xmlns:xlink="http://www.w3.org/1999/xlink" width="800" height="600" version="1.1" viewBox="0 0 800 600"><g fill="none" fill-rule="evenodd" stroke="none" stroke-width="1"><path fill="#3223B1" stroke="#377662" stroke-opacity=".945" stroke-width="3" d="M 659,439 C 630,471 567,208 626,203 C 102,106 624,419 170,150 C 330,283 594,461 154,186 C 554,260 166,473 508,151 C 490,427 600,399 493,346 Z" opacity=".408" transform="rotate(29.0 400 300)"/><rect width="272" height="112" x="437" y="300" fill="#85C10D" stroke="#5A2491" stroke-opacity=".077" stroke-width="7" opacity=".986" transform="rotate(42.0 400 300)"/><path fill="#1A20D9" stroke="#5D1DCC" stroke-opacity=".08" stroke-width="3" d="M 421,189 C 573,461 265,295 226,258 C 340,218 700,123 495,256 C 539,359 389,358 411,352 C 697,225 167,107 218,166 C 196,294 464,273 237,287 C 384,391 631,297 614,428 C 568,317 478,133 175,492 C 417,311 520,185 496,174 Z" opacity=".592" transform="rotate(14.0 400 300)"/><ellipse cx="230" cy="521" fill="#DC8188" stroke="#D666B3" stroke-opacity=".75" stroke-width="4" opacity=".449" rx="73" ry="301" transform="rotate(-52.0 400 300)"/><ellipse cx="763" cy="458" fill="#D61713" stroke="#08DA34" stroke-opacity=".541" stroke-width="2" opacity=".62" rx="119" ry="284" transform="rotate(70.0 400 300)"/><rect width="260" height="57" x="774" y="41" fill="#90B94C" stroke="#802DA6" stroke-opacity=".458" stroke-width="2" opacity=".111" transform="rotate(-114.0 400 300)"/></g></svg>