<?xml version="1.0" encoding="UTF-8"?>
<svg width="800px" height="600px" viewBox="0 0 800 600" version="1.1" xmlns="http://www.w3.org/2000/svg" xmlns:xlink="http://www.w3.org/1999/xlink">
  <defs></defs>
  <g stroke="none" stroke-width="1" fill="none" fill-rule="evenodd">
    
    <path stroke="#377662" stroke-width="3" fill="#3223B1" opacity="0.40835736540435863" stroke-opacity="0.9454928078920076" transform="rotate(29.0 400 300)" d="M 659,439  C 630,471 567,208 626,203 C 102,106 624,419 170,150 C 330,283 594,461 154,186 C 554,260 166,473 508,151 C 490,427 600,399 493,346 Z"></path>
<rect stroke="#5A2491" stroke-width="7" fill="#85C10D" opacity="0.9857414582947561" stroke-opacity="0.07706887525896788" transform="rotate(42.0 400 300)" x="437" y="300" width="272" height="112"></rect>
<path stroke="#5D1DCC" stroke-width="3" fill="#1A20D9" opacity="0.5922153490485812" stroke-opacity="0.07995337424928968" transform="rotate(14.0 400 300)" d="M 421,189  C 573,461 265,295 226,258 C 340,218 700,123 495,256 C 539,359 389,358 411,352 C 697,225 167,107 218,166 C 196,294 464,273 237,287 C 384,391 631,297 614,428 C 568,317 478,133 175,492 C 417,311 520,185 496,174 Z"></path>
<ellipse stroke="#D666B3" stroke-width="4" fill="#DC8188" opacity="0.44945543245862307" stroke-opacity="0.7500488938301876" transform="rotate(-52.0 400 300)" cx="230" rx="73" cy="521" ry="301"></ellipse>
<ellipse stroke="#08DA34" stroke-width="2" fill="#D61713" opacity="0.6204438342692518" stroke-opacity="0.5414371668154857" transform="rotate(70.0 400 300)" cx="763" rx="119" cy="458" ry="284"></ellipse>
<rect stroke="#802DA6" stroke-width="2" fill="#90B94C" opacity="0.11050791281190299" stroke-opacity="0.4583539460216467" transform="rotate(-114.0 400 300)" x="774" y="41" width="260" height="57"></rect>

  </g>
</svg>
