<svg xmlns="http://www.w3.org/2000/svg" xmlns:xlink="http://www.w3.org/1999/xlink" width="800" height="600" version="1.1" viewBox="0 0 800 600"><g fill="none" fill-rule="evenodd" stroke="none" stroke-width="1"><path fill="#2b55f7" stroke="#ed2b2c" stroke-opacity=".83" stroke-width="4" d="M 273,185 C 631,381 291,108 478,283 C 398,469 589,317 133,485 C 173,442 483,183 106,377 C 336,131 434,235 423,486 C 418,406 285,293 537,278 C 482,251 655,431 428,227 Z" opacity=".804" transform="rotate(-124.0 400 300)"/><path fill="#f9d84b" stroke="#31a06b" stroke-opacity=".189" stroke-width="5" d="M 289,126 C 310,466 303,406 171,231 C 590,160 391,443 509,484 C 606,170 221,411 671,333 C 498,190 519,231 195,137 C 278,238 251,279 368,302 C 513,193 189,205 571,357 C 249,195 312,252 315,160 C 526,176 450,352 291,389 C 207,203 565,174 532,390 C 210,500 306,441 390,493 C 631,264 353,477 261,164 Z" opacity=".865" transform="rotate(-122.0 400 300)"/><path fill="#f27630" stroke="#31a06b" stroke-opacity=".177" stroke-width="5" d="M 293,216 C 368,242 580,445 171,161 C 641,423 171,158 663,141 C 286,424 543,362 495,464 C 109,113 534,497 489,282 C 632,134 226,306 383,253 C 510,241 133,408 518,347 C 543,339 269,156 167,317 C 695,148 687,337 637,258 C 654,470 636,266 557,260 Z" opacity=".8" transform="rotate(124.0 400 300)"/><path fill="#31a06b" stroke="#f27630" stroke-opacity=".192" stroke-width="1" d="M 653,251 C 424,476 335,392 700,372 C 170,350 159,153 336,327 C 625,291 537,284 504,326 C 482,405 210,303 638,475 C 123,158 444,463 636,185 C 476,114 419,463 473,105 C 607,215 251,214 299,292 C 306,362 331,213 198,272 C 380,435 601,211 594,152 C 472,256 558,114 648,484 Z" opacity=".357" transform="rotate(-144.0 400 300)"/><path fill="#f27630" stroke="#f27630" stroke-opacity=".49" stroke-width="1" d="M 242,313 C 577,451 321,363 568,277 C 688,308 144,325 678,391 C 661,186 494,437 635,249 C 646,202 500,380 382,473 C 360,298 493,180 388,113 C 201,141 638,354 625,500 C 186,347 400,302 656,435 C 233,118 612,200 122,496 C 390,120 535,330 441,488 C 344,177 634,370 573,373 Z" opacity=".026" transform="rotate(-39.0 400 300)"/><path fill="#ed2b2c" stroke="#f27630" stroke-opacity=".975" stroke-width="3" d="M 667,227 C 538,430 542,396 614,409 C 349,120 527,436 141,178 C 688,208 490,148 401,288 C 404,127 155,339 454,500 Z" opacity=".123" transform="rotate(-147.0 400 300)"/><path fill="#ed2b2c" stroke="#f27630" stroke-opacity=".95" stroke-width="6" d="M 292,404 C 289,229 388,230 473,249 C 686,331 566,167 382,296 C 115,407 698,377 697,108 C 109,405 553,496 281,108 Z" opacity=".94" transform="rotate(-149.0 400 300)"/><path fill="#f9d84b" stroke="#2b55f7" stroke-opacity=".937" stroke-width="5" d="M 513,262 C 477,336 557,366 369,190 C 686,493 524,213 566,211 C 652,347 560,381 183,369 C 219,237 215,445 410,441 C 149,239 300,235 204,156 C 582,110 421,291 124,326 Z" opacity=".81" transform="rotate(-133.0 400 300)"/><path fill="#ed2b2c" stroke="#ed2b2c" stroke-opacity=".215" stroke-width="2" d="M 636,416 C 499,360 252,440 448,436 C 341,344 176,377 410,398 C 616,387 569,307 547,119 C 569,441 672,204 603,154 C 111,460 660,348 428,295 Z" opacity=".778" transform="rotate(146.0 400 300)"/></g></svg>