<svg xmlns="http://www.w3.org/2000/svg" xmlns:xlink="http://www.w3.org/1999/xlink" width="800" height="600" version="1.1" viewBox="0 0 800 600"><g fill="none" fill-rule="evenodd" stroke="none" stroke-width="1"><path fill="#02eb6b" stroke="#fe9225" stroke-opacity=".145" stroke-width="7" d="M 405,187 C 197,153 521,116 589,178 C 327,266 555,141 640,436 C 375,318 239,404 495,327 C 697,135 240,492 383,306 C 510,158 682,334 150,154 C 684,172 616,375 530,299 C 465,132 325,210 631,442 C 595,464 130,495 568,469 C 285,493 292,403 204,129 Z" opacity=".33" transform="rotate(42.0 400 300)"/><path fill="#fe9225" stroke="#f559a0" stroke-opacity=".048" stroke-width="4" d="M 170,256 C 685,348 128,353 338,231 C 256,114 133,489 186,254 C 173,199 609,497 213,219 C 279,148 288,477 672,469 C 215,326 205,309 622,252 C 146,327 570,483 689,133 Z" opacity=".741" transform="rotate(23.0 400 300)"/><polygon fill="#02eb6b" stroke="#fe9225" stroke-opacity=".566" stroke-width="7" points="700 451 461 243 404 252 148 159 254 5" opacity=".165" transform="rotate(-146.0 400 300)"/><ellipse cx="655" cy="351" fill="#2cd3f3" stroke="#2cd3f3" stroke-opacity=".588" stroke-width="3" opacity=".318" rx="102" ry="89" transform="rotate(138.0 400 300)"/><path fill="#f559a0" stroke="#0fa6d8" stroke-opacity=".635" stroke-width="5" d="M 483,364 C 433,418 607,474 463,421 C 276,136 647,456 249,455 C 155,200 125,183 519,285 C 186,446 287,221 601,180 C 195,498 475,438 294,214 C 445,188 547,461 566,262 Z" opacity=".612" transform="rotate(31.0 400 300)"/><path fill="#fe9225" stroke="#0fa6d8" stroke-opacity=".347" stroke-width="1" d="M 209,385 C 501,328 119,374 108,108 C 132,269 560,441 176,482 C 388,230 543,412 273,101 C 477,112 145,455 321,428 C 231,334 104,417 339,249 C 251,403 490,177 596,486 C 127,282 579,234 366,307 C 613,447 656,125 187,245 Z" opacity=".164" transform="rotate(17.0 400 300)"/><rect width="314" height="362" x="210" y="90" fill="#f559a0" stroke="#2cd3f3" stroke-opacity=".985" stroke-width="2" opacity=".208" transform="rotate(-37.0 400 300)"/><polygon fill="#fe9225" stroke="#fe9225" stroke-opacity=".86" stroke-width="7" points="251 75 25 237 398 387 738 560 726 75" opacity=".765" transform="rotate(-159.0 400 300)"/></g></svg>