<svg xmlns="http://www.w3.org/2000/svg" xmlns:xlink="http://www.w3.org/1999/xlink" width="800" height="600" version="1.1" viewBox="0 0 800 600"><g fill="none" fill-rule="evenodd" stroke="none" stroke-width="1"><ellipse cx="689" cy="418" fill="#C11BDD" stroke="#C4548A" stroke-opacity=".385" stroke-width="6" opacity=".478" rx="426" ry="160" transform="rotate(-33.0 400 300)"/><rect width="306" height="117" x="662" y="502" fill="#641491" stroke="#AA5B41" stroke-opacity=".171" stroke-width="5" opacity=".206" transform="rotate(43.0 400 300)"/><polygon fill="#DB43C3" stroke="#C31158" stroke-opacity=".242" stroke-width="6" points="168 434 670 332 67 188 506 93 770 160 16 469" opacity=".284" transform="rotate(169.0 400 300)"/><path fill="#056C9B" stroke="#634382" stroke-opacity=".474" stroke-width="4" d="M 614,380 C 198,422 648,483 604,334 C 378,412 187,394 600,217 C 127,284 446,363 106,179 C 254,337 494,499 231,151 C 553,302 667,340 219,418 C 545,476 135,182 220,261 C 671,348 496,347 616,376 Z" opacity=".28" transform="rotate(-94.0 400 300)"/><ellipse cx="580" cy="457" fill="#6275CC" stroke="#B95D8C" stroke-opacity=".745" stroke-width="3" opacity=".536" rx="399" ry="152" transform="rotate(74.0 400 300)"/><rect width="225" height="396" x="643" y="386" fill="#8120D4" stroke="#B3B762" stroke-opacity=".277" stroke-width="2" opacity=".79" transform="rotate(-69.0 400 300)"/><ellipse cx="475" cy="72" fill="#180BCD" stroke="#854255" stroke-opacity=".499" stroke-width="6" opacity=".759" rx="236" ry="159" transform="rotate(-58.0 400 300)"/><polygon fill="#45A233" stroke="#30BB14" stroke-opacity=".06" stroke-width="3" points="299 126 788 214 2 137 568 400 307 564 356 443" opacity=".754" transform="rotate(74.0 400 300)"/><rect width="234" height="186" x="769" y="593" fill="#132433" stroke="#4D0879" stroke-opacity=".7" stroke-width="4" opacity=".042" transform="rotate(57.0 400 300)"/><polygon fill="#3401A5" stroke="#4B3A92" stroke-opacity=".78" stroke-width="1" points="133 512 80 557 345 509 60 330 515 598 323 312 424 378 2 70" opacity=".525" transform="rotate(105.0 400 300)"/></g></svg>