<svg xmlns="http://www.w3.org/2000/svg" xmlns:xlink="http://www.w3.org/1999/xlink" width="800" height="600" version="1.1" viewBox="0 0 800 600"><g fill="none" fill-rule="evenodd" stroke="none" stroke-width="1"><path fill="#C32730" stroke="#9D8CB5" stroke-opacity=".051" stroke-width="5" d="M 694,122 C 242,429 473,460 177,125 C 303,115 566,111 527,164 C 302,333 551,235 559,233 C 497,426 407,112 548,379 C 591,446 480,212 278,182 C 531,225 546,475 506,193 C 594,283 668,163 517,235 C 489,125 579,182 350,173 C 431,198 666,165 685,150 C 468,449 148,205 287,208 C 563,284 692,297 565,356 Z" opacity=".833" transform="rotate(-117.0 400 300)"/><path fill="#94D9C2" stroke="#B08367" stroke-opacity=".146" stroke-width="3" d="M 410,409 C 463,254 451,462 142,494 C 387,363 515,407 179,493 C 685,500 396,409 386,421 C 632,428 479,130 347,221 C 163,247 442,420 506,430 C 175,455 609,417 465,303 C 220,458 239,165 245,354 C 638,300 664,337 326,380 C 116,179 207,276 599,197 C 106,235 666,184 577,288 Z" opacity=".164" transform="rotate(-81.0 400 300)"/><path fill="#B1B168" stroke="#3779D3" stroke-opacity=".546" stroke-width="2" d="M 419,212 C 374,181 641,281 488,424 C 122,225 430,475 282,361 C 637,483 499,321 132,443 C 696,315 395,302 233,311 C 458,439 547,432 172,205 Z" opacity=".263" transform="rotate(-139.0 400 300)"/><path fill="#44C2A4" stroke="#4A5AA3" stroke-opacity=".055" stroke-width="3" d="M 627,430 C 597,313 216,181 475,280 C 375,436 313,119 156,340 C 645,374 658,104 596,289 C 419,426 327,399 262,159 C 628,217 291,270 241,247 C 636,375 494,451 470,474 C 188,170 525,189 381,452 Z" opacity=".078" transform="rotate(147.0 400 300)"/><path fill="#D6B090" stroke="#ABC49D" stroke-opacity=".434" stroke-width="3" d="M 314,243 C 169,471 575,269 453,159 C 508,439 568,455 497,236 C 391,368 482,171 392,164 C 585,255 533,192 566,181 Z" opacity=".849" transform="rotate(40.0 400 300)"/><path fill="#D18CB2" stroke="#C810CB" stroke-opacity=".942" stroke-width="2" d="M 636,406 C 543,343 476,102 438,107 C 205,456 185,166 146,127 C 224,166 679,336 570,407 C 277,471 578,188 667,481 C 392,156 634,341 400,355 Z" opacity=".868" transform="rotate(-78.0 400 300)"/><path fill="#38D4B7" stroke="#07A6B2" stroke-opacity=".116" stroke-width="7" d="M 230,484 C 249,281 403,142 599,186 C 441,457 439,180 686,450 C 237,230 344,140 137,298 C 111,365 155,421 175,203 C 459,350 438,482 525,142 C 549,298 337,363 238,138 Z" opacity=".121" transform="rotate(113.0 400 300)"/><path fill="#3B6600" stroke="#A91B5A" stroke-opacity=".859" stroke-width="7" d="M 579,198 C 161,349 608,222 660,116 C 294,143 405,117 219,185 C 618,333 493,204 191,280 C 546,244 519,277 567,460 C 392,315 469,103 335,206 C 174,137 471,229 453,370 C 555,446 420,135 141,469 C 613,357 158,142 505,369 Z" opacity=".507" transform="rotate(162.0 400 300)"/><path fill="#401424" stroke="#7464C7" stroke-opacity=".464" stroke-width="1" d="M 649,223 C 338,370 204,252 668,406 C 258,408 676,233 321,237 C 538,483 463,374 202,473 C 241,295 428,330 392,237 C 576,488 137,146 118,179 C 344,422 457,222 368,451 Z" opacity=".286" transform="rotate(97.0 400 300)"/></g></svg>