<svg xmlns="http://www.w3.org/2000/svg" xmlns:xlink="http://www.w3.org/1999/xlink" width="800" height="600" version="1.1" viewBox="0 0 800 600"><g fill="none" fill-rule="evenodd" stroke="none" stroke-width="1"><path fill="#f559a0" stroke="#02eb6b" stroke-opacity=".781" stroke-width="1" d="M 588,244 C 576,320 594,456 220,185 C 376,246 686,426 673,319 C 355,410 101,160 139,442 C 483,432 517,286 573,113 C 485,295 208,243 437,263 C 108,251 666,120 111,402 C 357,178 404,233 322,105 C 422,319 237,184 490,230 C 276,155 680,108 636,146 Z" opacity=".609" transform="rotate(-54.0 400 300)"/><path fill="#0fa6d8" stroke="#02eb6b" stroke-opacity=".352" stroke-width="1" d="M 526,117 C 544,399 135,312 698,363 C 277,495 650,442 406,323 C 630,449 207,358 372,444 C 441,187 639,253 513,218 C 194,441 629,408 250,462 C 245,275 347,117 288,214 C 618,301 460,249 212,134 C 202,379 183,310 289,138 C 541,321 110,317 235,418 C 372,241 110,382 698,303 C 251,408 677,117 295,199 Z" opacity=".6" transform="rotate(75.0 400 300)"/><path fill="#f559a0" stroke="#0fa6d8" stroke-opacity=".2" stroke-width="3" d="M 215,183 C 167,357 557,191 390,351 C 295,217 306,152 685,392 C 188,117 349,229 562,185 C 573,181 692,305 240,496 C 594,313 110,350 593,178 C 261,448 476,291 470,307 C 494,476 425,405 549,214 Z" opacity=".942" transform="rotate(88.0 400 300)"/><path fill="#0fa6d8" stroke="#2cd3f3" stroke-opacity=".587" stroke-width="5" d="M 642,160 C 301,402 152,324 108,221 C 632,457 698,431 527,378 C 316,345 483,395 654,448 C 508,148 527,383 243,355 C 422,130 595,173 410,344 Z" opacity=".379" transform="rotate(-24.0 400 300)"/><path fill="#fe9225" stroke="#f559a0" stroke-opacity=".87" stroke-width="3" d="M 227,224 C 191,124 218,108 504,436 C 377,335 458,124 393,478 C 210,297 400,299 382,277 C 509,344 253,270 190,457 C 546,193 660,448 606,184 C 492,114 134,479 194,247 C 173,302 142,223 618,298 C 386,261 658,476 675,218 Z" opacity=".002" transform="rotate(133.0 400 300)"/><path fill="#2cd3f3" stroke="#fe9225" stroke-opacity=".119" stroke-width="1" d="M 393,464 C 114,175 268,280 165,274 C 465,464 464,423 157,333 C 392,115 189,211 658,147 C 142,397 386,215 136,318 C 425,480 205,404 370,135 C 530,264 392,134 239,176 C 478,338 151,154 519,475 C 542,469 113,154 600,125 C 389,168 621,215 634,222 C 130,382 325,462 466,445 C 695,103 616,439 217,273 Z" opacity=".067" transform="rotate(153.0 400 300)"/><path fill="#f559a0" stroke="#2cd3f3" stroke-opacity=".772" stroke-width="7" d="M 462,218 C 614,334 195,141 334,468 C 539,479 552,197 577,185 C 620,329 256,433 266,250 C 411,162 530,271 165,178 C 418,159 351,279 451,473 C 498,370 147,388 402,271 Z" opacity=".373" transform="rotate(21.0 400 300)"/></g></svg>