<?xml version="1.0" encoding="UTF-8"?>
<svg width="800px" height="600px" viewBox="0 0 800 600" version="1.1" xmlns="http://www.w3.org/2000/svg" xmlns:xlink="http://www.w3.org/1999/xlink">
  <defs></defs>
  <g stroke="none" stroke-width="1" fill="none" fill-rule="evenodd">
    
    <path stroke="#ed2b2c" stroke-width="3" fill="#31a06b" opacity="0.06312046386198615" stroke-opacity="0.6450528303971627" transform="rotate(62.0 400 300)" d="M 331,104  C 106,310 385,127 668,280 C 189,346 594,175 244,490 C 459,254 409,467 545,387 C 430,122 167,363 552,164 C 640,208 145,449 698,448 C 370,120 112,291 273,468 C 684,333 299,288 432,181 C 618,122 229,264 337,469 C 673,424 320,431 525,382 C 476,123 553,314 259,222 C 200,127 182,356 375,338 Z"></path>
<path stroke="#ed2b2c" stroke-width="5" fill="#f9d84b" opacity="0.49860604696618244" stroke-opacity="0.43193645518530666" transform="rotate(-133.0 400 300)" d="M 596,488  C 197,150 153,276 110,259 C 308,344 159,429 562,382 C 211,141 364,325 256,224 C 654,291 418,498 197,250 C 224,417 141,408 589,349 C 669,311 553,175 607,336 C 611,161 258,455 422,405 Z"></path>
<path stroke="#31a06b" stroke-width="6" fill="#31a06b" opacity="0.5906412506964326" stroke-opacity="0.12050428058592848" transform="rotate(-61.0 400 300)" d="M 458,265  C 530,391 275,326 417,130 C 512,110 592,382 429,432 C 307,296 616,473 182,397 C 104,331 485,391 472,219 C 683,292 597,404 137,437 C 275,323 331,411 108,206 C 554,377 262,110 360,265 C 628,277 563,210 288,144 C 164,421 595,103 148,362 Z"></path>
<path stroke="#ed2b2c" stroke-width="1" fill="#f9d84b" opacity="0.402195875796822" stroke-opacity="0.03956271334243454" transform="rotate(40.0 400 300)" d="M 473,340  C 571,474 462,476 271,207 C 482,410 624,153 700,372 C 554,161 181,369 389,274 C 302,438 434,304 286,476 C 335,260 260,463 654,434 C 203,409 317,481 233,356 C 692,252 627,287 435,408 C 664,282 215,362 700,225 C 281,327 243,101 679,222 C 575,193 358,338 473,139 C 366,232 572,427 403,168 Z"></path>
<path stroke="#ed2b2c" stroke-width="6" fill="#31a06b" opacity="0.8505462223500128" stroke-opacity="0.21667376966705973" transform="rotate(-118.0 400 300)" d="M 272,103  C 451,304 225,415 102,249 C 578,411 316,309 583,227 C 212,421 584,465 671,331 C 172,335 599,322 637,155 C 188,423 199,221 549,348 C 454,438 622,244 248,298 C 472,359 222,181 655,217 C 640,292 463,423 558,206 C 132,309 289,254 450,412 C 114,178 230,217 440,171 Z"></path>
<path stroke="#2b55f7" stroke-width="4" fill="#f9d84b" opacity="0.2612702496922923" stroke-opacity="0.4316287392997073" transform="rotate(-153.0 400 300)" d="M 229,491  C 699,440 462,327 195,372 C 597,164 420,171 152,232 C 643,101 184,375 325,454 C 269,138 457,122 608,241 C 583,180 351,474 495,275 C 553,172 650,424 277,287 C 624,284 640,283 519,330 C 196,223 347,101 632,472 C 267,293 288,466 377,264 C 327,204 229,198 646,327 C 656,119 163,434 331,120 Z"></path>
<path stroke="#2b55f7" stroke-width="7" fill="#31a06b" opacity="0.18937556810309442" stroke-opacity="0.20450212489648611" transform="rotate(-145.0 400 300)" d="M 417,285  C 651,477 147,279 335,140 C 206,262 546,260 161,160 C 376,145 164,154 241,389 C 169,279 224,478 235,470 C 415,381 672,194 477,248 C 569,377 174,287 229,428 C 457,474 679,293 644,469 Z"></path>
<path stroke="#31a06b" stroke-width="6" fill="#ed2b2c" opacity="0.8437245890857328" stroke-opacity="0.7533225832520942" transform="rotate(-70.0 400 300)" d="M 645,171  C 574,141 528,477 644,159 C 645,271 573,102 167,441 C 420,209 147,408 649,222 C 568,117 555,244 531,193 C 281,173 156,143 143,103 C 483,473 328,343 394,246 C 519,237 611,204 407,329 C 379,173 404,137 634,436 C 257,149 467,175 188,276 C 561,108 640,268 622,135 Z"></path>
<path stroke="#2b55f7" stroke-width="6" fill="#2b55f7" opacity="0.7466254202398558" stroke-opacity="0.9840747011946305" transform="rotate(44.0 400 300)" d="M 122,387  C 370,430 216,225 379,222 C 263,310 376,480 237,447 C 596,495 335,108 219,415 C 127,282 205,161 304,147 C 314,261 486,215 171,393 C 401,454 642,104 650,274 C 147,421 483,112 671,196 Z"></path>
<path stroke="#ed2b2c" stroke-width="5" fill="#2b55f7" opacity="0.5933383965923194" stroke-opacity="0.6647572598877021" transform="rotate(82.0 400 300)" d="M 612,162  C 577,466 678,184 190,283 C 235,353 174,429 241,299 C 645,140 339,193 317,337 C 578,326 136,404 238,500 Z"></path>

  </g>
</svg>
