<svg xmlns="http://www.w3.org/2000/svg" xmlns:xlink="http://www.w3.org/1999/xlink" width="800" height="600" version="1.1" viewBox="0 0 800 600"><g fill="none" fill-rule="evenodd" stroke="none" stroke-width="1"><ellipse cx="26" cy="577" fill="#31a06b" stroke="#f27630" stroke-opacity=".377" stroke-width="4" opacity=".882" rx="66" ry="276" transform="rotate(23.0 400 300)"/><ellipse cx="68" cy="113" fill="#31a06b" stroke="#31a06b" stroke-opacity=".046" stroke-width="4" opacity=".706" rx="215" ry="326" transform="rotate(69.0 400 300)"/><ellipse cx="191" cy="560" fill="#f9d84b" stroke="#f9d84b" stroke-opacity=".86" stroke-width="4" opacity=".572" rx="214" ry="263" transform="rotate(-140.0 400 300)"/><rect width="283" height="195" x="327" y="255" fill="#2b55f7" stroke="#f9d84b" stroke-opacity=".472" stroke-width="1" opacity=".696" transform="rotate(68.0 400 300)"/><rect width="341" height="251" x="110" y="455" fill="#ed2b2c" stroke="#2b55f7" stroke-opacity=".625" stroke-width="4" opacity=".058" transform="rotate(179.0 400 300)"/><path fill="#f9d84b" stroke="#2b55f7" stroke-opacity=".698" stroke-width="3" d="M 536,223 C 504,247 619,383 553,369 C 278,129 132,240 377,321 C 474,116 605,192 575,203 C 210,382 343,287 673,231 C 430,215 494,132 332,165 C 323,309 251,474 439,336 C 505,328 442,412 274,447 C 191,212 287,452 573,128 Z" opacity=".817" transform="rotate(65.0 400 300)"/><polygon fill="#2b55f7" stroke="#f9d84b" stroke-opacity=".398" stroke-width="1" points="447 581 216 194 631 120 547 559 268 512 125 117 750 107" opacity=".202" transform="rotate(-42.0 400 300)"/><polygon fill="#f27630" stroke="#2b55f7" stroke-opacity=".873" stroke-width="2" points="272 250 389 26 280 305 424 235 376 293" opacity=".713" transform="rotate(53.0 400 300)"/><rect width="175" height="235" x="344" y="511" fill="#f27630" stroke="#ed2b2c" stroke-opacity=".834" stroke-width="1" opacity=".672" transform="rotate(21.0 400 300)"/><rect width="368" height="33" x="95" y="56" fill="#ed2b2c" stroke="#f9d84b" stroke-opacity=".72" stroke-width="6" opacity=".965" transform="rotate(141.0 400 300)"/><ellipse cx="312" cy="342" fill="#ed2b2c" stroke="#f9d84b" stroke-opacity=".078" stroke-width="7" opacity=".768" rx="271" ry="226" transform="rotate(7.0 400 300)"/></g></svg>