<?xml version="1.0" encoding="UTF-8"?>
<svg width="800px" height="600px" viewBox="0 0 800 600" version="1.1" xmlns="http://www.w3.org/2000/svg" xmlns:xlink="http://www.w3.org/1999/xlink">
  <defs></defs>
  <g stroke="none" stroke-width="1" fill="none" fill-rule="evenodd">
    
    <ellipse stroke="#f27630" stroke-width="4" fill="#31a06b" opacity="0.881916939106101" stroke-opacity="0.37721633171506147" transform="rotate(23.0 400 300)" cx="26" rx="66" cy="577" ry="276"></ellipse>
<ellipse stroke="#31a06b" stroke-width="4" fill="#31a06b" opacity="0.7064156217289411" stroke-opacity="0.04572456701524915" transform="rotate(69.0 400 300)" cx="68" rx="215" cy="113" ry="326"></ellipse>
<ellipse stroke="#f9d84b" stroke-width="4" fill="#f9d84b" opacity="0.5723361542122376" stroke-opacity="0.8599634041048811" transform="rotate(-140.0 400 300)" cx="191" rx="214" cy="560" ry="263"></ellipse>
<rect stroke="#f9d84b" stroke-width="1" fill="#2b55f7" opacity="0.6961830070704398" stroke-opacity="0.47235012934228254" transform="rotate(68.0 400 300)" x="327" y="255" width="283" height="195"></rect>
<rect stroke="#2b55f7" stroke-width="4" fill="#ed2b2c" opacity="0.05841443051522972" stroke-opacity="0.6252118766033049" transform="rotate(179.0 400 300)" x="110" y="455" width="341" height="251"></rect>
<path stroke="#2b55f7" stroke-width="3" fill="#f9d84b" opacity="0.8173553996177494" stroke-opacity="0.6983450869092523" transform="rotate(65.0 400 300)" d="M 536,223  C 504,247 619,383 553,369 C 278,129 132,240 377,321 C 474,116 605,192 575,203 C 210,382 343,287 673,231 C 430,215 494,132 332,165 C 323,309 251,474 439,336 C 505,328 442,412 274,447 C 191,212 287,452 573,128 Z"></path>
<polygon stroke="#f9d84b" stroke-width="1" fill="#2b55f7" opacity="0.2022542023611831" stroke-opacity="0.3975582896012484" transform="rotate(-42.0 400 300)" points="447 581 216 194 631 120 547 559 268 512 125 117 750 107 "></polygon>
<polygon stroke="#2b55f7" stroke-width="2" fill="#f27630" opacity="0.7131189241990894" stroke-opacity="0.8729888825871723" transform="rotate(53.0 400 300)" points="272 250 389 26 280 305 424 235 376 293 "></polygon>
<rect stroke="#ed2b2c" stroke-width="1" fill="#f27630" opacity="0.6719908946430693" stroke-opacity="0.8341328907642428" transform="rotate(21.0 400 300)" x="344" y="511" width="175" height="235"></rect>
<rect stroke="#f9d84b" stroke-width="6" fill="#ed2b2c" opacity="0.9650309882762886" stroke-opacity="0.7202677141999405" transform="rotate(141.0 400 300)" x="95" y="56" width="368" height="33"></rect>
<ellipse stroke="#f9d84b" stroke-width="7" fill="#ed2b2c" opacity="0.7680199068093" stroke-opacity="0.07814856075648295" transform="rotate(7.0 400 300)" cx="312" rx="271" cy="342" ry="226"></ellipse>

  </g>
</svg>
