<?xml version="1.0" encoding="UTF-8"?>
<svg width="800px" height="600px" viewBox="0 0 800 600" version="1.1" xmlns="http://www.w3.org/2000/svg" xmlns:xlink="http://www.w3.org/1999/xlink">
  <defs></defs>
  <g stroke="none" stroke-width="1" fill="none" fill-rule="evenodd">
    
    <path stroke="#f559a0" stroke-width="5" fill="#0fa6d8" opacity="0.06128270664903524" stroke-opacity="0.41654615055001043" transform="rotate(49.0 400 300)" d="M 409,330  C 431,308 673,368 272,121 C 343,386 490,387 508,163 C 505,137 376,451 393,302 C 343,470 419,469 559,136 C 310,128 391,101 283,240 C 203,305 642,184 449,106 C 291,399 349,299 197,430 Z"></path>
<path stroke="#0fa6d8" stroke-width="5" fill="#02eb6b" opacity="0.5901971139980261" stroke-opacity="0.9016583705634112" transform="rotate(178.0 400 300)" d="M 191,446  C 545,438 426,166 504,326 C 222,370 549,237 506,306 C 483,331 577,135 140,462 C 111,302 571,390 485,170 C 473,463 575,344 585,429 Z"></path>
<path stroke="#fe9225" stroke-width="1" fill="#2cd3f3" opacity="0.05129775605309831" stroke-opacity="0.22939429694001545" transform="rotate(-50.0 400 300)" d="M 468,175  C 616,318 204,215 557,142 C 196,440 395,157 567,424 C 266,476 132,481 586,301 C 624,478 206,212 109,288 C 438,361 326,315 132,347 Z"></path>
<path stroke="#02eb6b" stroke-width="4" fill="#0fa6d8" opacity="0.8383483869851716" stroke-opacity="0.41964267367112856" transform="rotate(53.0 400 300)" d="M 287,495  C 402,117 690,181 630,304 C 604,414 592,110 440,154 C 188,329 307,382 199,125 C 622,286 395,159 542,494 C 204,426 241,188 259,288 C 670,289 183,119 446,446 Z"></path>
<path stroke="#0fa6d8" stroke-width="6" fill="#02eb6b" opacity="0.654401386145876" stroke-opacity="0.9452252480800606" transform="rotate(5.0 400 300)" d="M 532,190  C 657,498 421,280 486,441 C 379,257 186,283 311,178 C 506,151 382,338 355,237 C 399,463 421,310 338,168 Z"></path>
<path stroke="#f559a0" stroke-width="7" fill="#f559a0" opacity="0.7746617605473086" stroke-opacity="0.01716217980497684" transform="rotate(58.0 400 300)" d="M 349,477  C 156,361 267,426 407,206 C 492,362 416,345 664,321 C 188,432 313,428 173,383 C 511,311 276,250 365,264 C 185,116 514,223 193,187 C 432,489 688,157 183,492 C 345,429 328,445 469,131 C 370,231 463,360 487,434 C 207,384 114,151 456,141 Z"></path>
<path stroke="#02eb6b" stroke-width="1" fill="#f559a0" opacity="0.8886316403376516" stroke-opacity="0.7667705658082602" transform="rotate(-161.0 400 300)" d="M 261,112  C 678,332 505,133 133,465 C 537,221 358,272 563,393 C 247,206 412,401 485,164 C 549,224 531,230 529,238 C 468,418 177,250 587,209 C 451,323 137,298 208,490 C 500,125 583,299 636,411 C 534,197 654,482 124,369 C 304,327 680,375 588,418 C 603,485 332,445 445,281 C 222,292 530,447 438,113 Z"></path>
<path stroke="#fe9225" stroke-width="2" fill="#0fa6d8" opacity="0.8279312164334626" stroke-opacity="0.3719073635809214" transform="rotate(-93.0 400 300)" d="M 631,363  C 453,345 517,218 403,228 C 562,275 343,150 669,311 C 365,179 169,287 581,384 C 194,226 560,474 171,302 C 521,346 450,300 222,227 C 688,232 421,381 653,134 C 365,432 431,211 669,465 C 407,487 156,328 483,126 Z"></path>
<path stroke="#02eb6b" stroke-width="4" fill="#f559a0" opacity="0.5491507415642172" stroke-opacity="0.8155728500991876" transform="rotate(-13.0 400 300)" d="M 448,333  C 382,215 387,380 407,251 C 599,139 266,425 274,418 C 166,291 493,467 136,327 C 205,107 663,108 648,130 Z"></path>
<path stroke="#2cd3f3" stroke-width="1" fill="#fe9225" opacity="0.10583750365971502" stroke-opacity="0.5904681265093922" transform="rotate(108.0 400 300)" d="M 387,165  C 478,231 592,429 340,246 C 267,266 187,111 562,103 C 379,187 430,157 211,223 C 563,452 309,472 127,280 C 225,351 250,494 252,396 C 240,297 250,253 661,229 Z"></path>
<path stroke="#02eb6b" stroke-width="3" fill="#02eb6b" opacity="0.2649732450484968" stroke-opacity="0.02270554445256919" transform="rotate(142.0 400 300)" d="M 502,274  C 326,455 519,114 533,223 C 488,470 471,196 659,163 C 533,297 245,402 594,444 C 506,272 345,172 218,277 C 607,387 398,151 322,401 C 167,332 697,115 361,259 Z"></path>

  </g>
</svg>
