<svg xmlns="http://www.w3.org/2000/svg" xmlns:xlink="http://www.w3.org/1999/xlink" width="800" height="600" version="1.1" viewBox="0 0 800 600"><g fill="none" fill-rule="evenodd" stroke="none" stroke-width="1"><path fill="#fe9225" stroke="#f559a0" stroke-opacity=".345" stroke-width="7" d="M 647,261 C 191,396 321,467 221,442 C 139,353 498,262 616,442 C 195,483 229,296 137,474 C 263,302 350,134 490,370 C 601,413 688,308 235,338 C 271,299 123,473 404,365 C 376,439 329,195 448,395 C 515,414 436,226 576,363 C 226,189 472,445 328,192 Z" opacity=".668" transform="rotate(-109.0 400 300)"/><path fill="#0fa6d8" stroke="#fe9225" stroke-opacity=".096" stroke-width="4" d="M 630,293 C 180,111 533,248 165,215 C 375,210 561,448 669,341 C 434,310 224,332 319,226 C 619,264 597,292 241,193 C 173,278 643,305 298,372 C 541,276 157,335 671,382 C 430,452 288,140 131,270 C 375,342 296,363 283,256 Z" opacity=".196" transform="rotate(-14.0 400 300)"/><path fill="#0fa6d8" stroke="#02eb6b" stroke-opacity=".273" stroke-width="2" d="M 293,373 C 693,388 279,318 633,416 C 684,269 565,139 308,389 C 190,222 148,243 438,455 C 639,131 512,272 260,365 Z" opacity=".962" transform="rotate(45.0 400 300)"/><path fill="#0fa6d8" stroke="#2cd3f3" stroke-opacity=".249" stroke-width="6" d="M 667,196 C 578,211 697,280 452,115 C 187,149 697,214 175,176 C 641,297 316,320 396,411 C 493,330 683,215 495,397 C 430,280 676,185 257,258 Z" opacity=".103" transform="rotate(-89.0 400 300)"/><path fill="#0fa6d8" stroke="#f559a0" stroke-opacity=".197" stroke-width="3" d="M 346,452 C 489,467 165,370 587,123 C 112,334 536,319 260,352 C 323,230 326,136 697,207 C 105,107 560,493 550,170 C 188,350 326,111 464,270 Z" opacity=".018" transform="rotate(48.0 400 300)"/><path fill="#2cd3f3" stroke="#f559a0" stroke-opacity=".52" stroke-width="5" d="M 498,485 C 198,145 275,218 528,455 C 400,415 540,105 105,328 C 312,402 221,139 272,290 C 668,491 564,134 695,427 Z" opacity=".373" transform="rotate(-71.0 400 300)"/><path fill="#fe9225" stroke="#fe9225" stroke-opacity=".416" stroke-width="1" d="M 698,211 C 434,335 187,267 503,219 C 429,254 294,270 264,384 C 262,489 162,358 548,279 C 482,254 127,233 262,332 C 255,394 346,132 219,129 C 660,163 553,158 692,334 C 416,204 327,252 261,405 C 524,396 433,267 398,228 C 621,239 577,286 247,252 Z" opacity=".244" transform="rotate(122.0 400 300)"/></g></svg>