<svg xmlns="http://www.w3.org/2000/svg" xmlns:xlink="http://www.w3.org/1999/xlink" width="800" height="600" version="1.1" viewBox="0 0 800 600"><g fill="none" fill-rule="evenodd" stroke="none" stroke-width="1"><ellipse cx="780" cy="104" fill="#C402DD" stroke="#6B8AAA" stroke-opacity=".111" stroke-width="5" opacity=".564" rx="222" ry="116" transform="rotate(-19.0 400 300)"/><rect width="148" height="194" x="440" y="271" fill="#B96B4B" stroke="#8D8990" stroke-opacity=".395" stroke-width="5" opacity=".2" transform="rotate(12.0 400 300)"/><polygon fill="#DD0269" stroke="#80CAA1" stroke-opacity=".009" stroke-width="6" points="582 309 175 354 459 472 442 65 123 86 477 446" opacity=".689" transform="rotate(52.0 400 300)"/><path fill="#63AAB6" stroke="#285541" stroke-opacity=".85" stroke-width="6" d="M 279,166 C 373,334 595,177 252,281 C 602,465 243,216 114,260 C 253,364 302,304 570,381 C 504,203 639,393 184,311 C 257,499 172,167 243,263 C 500,360 345,469 635,292 C 504,194 264,382 162,332 C 271,468 250,391 198,334 Z" opacity=".467" transform="rotate(-168.0 400 300)"/><rect width="118" height="133" x="251" y="164" fill="#81A041" stroke="#61361A" stroke-opacity=".34" stroke-width="3" opacity=".686" transform="rotate(-48.0 400 300)"/><rect width="105" height="359" x="356" y="385" fill="#C97265" stroke="#C99690" stroke-opacity=".905" stroke-width="4" opacity=".12" transform="rotate(58.0 400 300)"/><ellipse cx="2" cy="289" fill="#CD5AA0" stroke="#C7521A" stroke-opacity=".974" stroke-width="7" opacity=".669" rx="298" ry="48" transform="rotate(73.0 400 300)"/></g></svg>