<svg xmlns="http://www.w3.org/2000/svg" xmlns:xlink="http://www.w3.org/1999/xlink" width="800" height="600" version="1.1" viewBox="0 0 800 600"><g fill="none" fill-rule="evenodd" stroke="none" stroke-width="1"><path fill="#fe9225" stroke="#02eb6b" stroke-opacity=".262" stroke-width="7" d="M 312,295 C 401,202 152,372 532,369 C 334,408 260,232 411,228 C 693,200 634,164 252,134 C 512,214 478,384 579,138 C 353,160 225,108 440,489 Z" opacity=".173" transform="rotate(132.0 400 300)"/><path fill="#0fa6d8" stroke="#2cd3f3" stroke-opacity=".399" stroke-width="4" d="M 629,293 C 554,270 130,396 372,472 C 211,295 441,166 271,490 C 181,480 102,293 507,390 C 177,150 447,260 494,350 Z" opacity=".942" transform="rotate(-119.0 400 300)"/><ellipse cx="637" cy="338" fill="#f559a0" stroke="#0fa6d8" stroke-opacity=".172" stroke-width="6" opacity=".038" rx="86" ry="215" transform="rotate(136.0 400 300)"/><ellipse cx="67" cy="27" fill="#02eb6b" stroke="#f559a0" stroke-opacity=".355" stroke-width="2" opacity=".667" rx="401" ry="339" transform="rotate(-57.0 400 300)"/><ellipse cx="350" cy="187" fill="#2cd3f3" stroke="#02eb6b" stroke-opacity=".03" stroke-width="2" opacity=".465" rx="443" ry="202" transform="rotate(-58.0 400 300)"/><rect width="117" height="183" x="496" y="157" fill="#0fa6d8" stroke="#0fa6d8" stroke-opacity=".481" stroke-width="4" opacity=".167" transform="rotate(156.0 400 300)"/></g></svg>