<svg xmlns="http://www.w3.org/2000/svg" xmlns:xlink="http://www.w3.org/1999/xlink" width="800" height="600" version="1.1" viewBox="0 0 800 600"><g fill="none" fill-rule="evenodd" stroke="none" stroke-width="1"><ellipse cx="39" cy="530" fill="#082985" stroke="#C6B560" stroke-opacity=".751" stroke-width="3" opacity=".106" rx="416" ry="314" transform="rotate(-97.0 400 300)"/><polygon fill="#377185" stroke="#B8198C" stroke-opacity=".718" stroke-width="7" points="519 183 296 415 453 444 512 208 515 207 87 44 540 393" opacity=".381" transform="rotate(-16.0 400 300)"/><rect width="395" height="87" x="376" y="189" fill="#CA2A41" stroke="#BC5334" stroke-opacity=".225" stroke-width="6" opacity=".085" transform="rotate(-136.0 400 300)"/><ellipse cx="643" cy="91" fill="#7684C2" stroke="#B9537B" stroke-opacity=".318" stroke-width="5" opacity=".414" rx="281" ry="83" transform="rotate(-38.0 400 300)"/><path fill="#79B069" stroke="#146C42" stroke-opacity=".515" stroke-width="5" d="M 316,373 C 661,425 691,344 593,323 C 652,333 488,224 659,132 C 232,292 372,224 337,476 C 466,123 409,366 431,204 C 595,149 640,144 599,128 C 392,187 128,265 377,116 C 169,369 533,452 240,263 C 457,276 247,224 168,123 Z" opacity=".339" transform="rotate(129.0 400 300)"/><ellipse cx="471" cy="519" fill="#852C20" stroke="#09C151" stroke-opacity=".078" stroke-width="7" opacity=".185" rx="123" ry="299" transform="rotate(148.0 400 300)"/></g></svg>