<?xml version="1.0" encoding="UTF-8"?>
<svg width="800px" height="600px" viewBox="0 0 800 600" version="1.1" xmlns="http://www.w3.org/2000/svg" xmlns:xlink="http://www.w3.org/1999/xlink">
  <defs></defs>
  <g stroke="none" stroke-width="1" fill="none" fill-rule="evenodd">
    
    <path stroke="#2cd3f3" stroke-width="6" fill="#2cd3f3" opacity="0.14558780220027884" stroke-opacity="0.09606027467780823" transform="rotate(80.0 400 300)" d="M 658,193  C 607,263 406,149 107,318 C 528,341 305,347 180,272 C 618,438 382,144 191,259 C 556,337 301,223 246,103 Z"></path>
<path stroke="#f559a0" stroke-width="6" fill="#02eb6b" opacity="0.6932413604983736" stroke-opacity="0.5554518836332749" transform="rotate(130.0 400 300)" d="M 401,300  C 639,119 566,423 441,222 C 683,130 404,138 387,388 C 604,304 496,483 523,155 C 325,316 527,432 146,339 C 458,177 522,432 275,326 C 687,288 683,405 499,343 C 248,265 110,389 637,278 C 411,439 149,261 529,483 Z"></path>
<path stroke="#02eb6b" stroke-width="1" fill="#fe9225" opacity="0.1081506170823031" stroke-opacity="0.35068942018220334" transform="rotate(-26.0 400 300)" d="M 669,177  C 391,317 255,315 453,496 C 288,164 692,318 577,380 C 224,233 147,194 355,434 C 468,441 209,320 116,409 C 211,277 560,384 489,186 C 482,382 180,377 687,121 C 227,163 378,147 251,312 C 344,246 157,452 332,412 C 114,394 348,398 668,225 C 520,452 346,493 635,480 C 594,187 585,461 129,344 Z"></path>
<path stroke="#f559a0" stroke-width="2" fill="#f559a0" opacity="0.75599521146461" stroke-opacity="0.33241594158406773" transform="rotate(172.0 400 300)" d="M 558,322  C 423,104 306,378 206,216 C 605,345 366,133 688,442 C 250,203 662,218 628,275 C 305,497 658,359 554,416 C 328,275 439,297 222,393 C 205,143 623,321 675,276 C 319,281 126,210 594,272 C 124,196 140,126 607,325 Z"></path>
<path stroke="#02eb6b" stroke-width="2" fill="#2cd3f3" opacity="0.19887918639350147" stroke-opacity="0.751949254332341" transform="rotate(8.0 400 300)" d="M 479,402  C 363,295 598,206 453,314 C 690,423 262,194 199,240 C 279,145 354,482 330,447 C 548,152 483,396 302,118 Z"></path>
<path stroke="#02eb6b" stroke-width="7" fill="#02eb6b" opacity="0.39017716854102674" stroke-opacity="0.6065413410668878" transform="rotate(-150.0 400 300)" d="M 300,281  C 406,195 194,438 450,455 C 435,243 330,131 611,475 C 328,156 158,255 517,446 C 207,214 170,289 118,357 C 498,403 611,256 359,390 C 126,312 698,356 698,350 C 550,469 643,260 570,117 C 680,206 689,238 484,234 Z"></path>
<path stroke="#2cd3f3" stroke-width="4" fill="#f559a0" opacity="0.47420714682027093" stroke-opacity="0.9247708765872112" transform="rotate(50.0 400 300)" d="M 174,490  C 334,314 384,131 454,315 C 158,441 611,409 227,429 C 557,433 638,386 250,399 C 461,394 384,118 322,481 C 439,377 626,391 581,199 C 303,111 190,336 108,288 C 164,320 194,238 164,269 C 521,459 156,285 613,401 C 359,259 492,464 406,309 Z"></path>
<path stroke="#fe9225" stroke-width="1" fill="#2cd3f3" opacity="0.24334080216495949" stroke-opacity="0.604293377349002" transform="rotate(-167.0 400 300)" d="M 637,384  C 320,434 275,235 501,452 C 151,258 123,152 231,322 C 501,139 344,379 122,248 C 607,303 362,367 437,217 C 500,112 334,431 317,313 C 153,431 411,464 433,293 C 320,169 427,280 444,171 Z"></path>
<path stroke="#02eb6b" stroke-width="3" fill="#fe9225" opacity="0.811042023125928" stroke-opacity="0.8890039188763372" transform="rotate(45.0 400 300)" d="M 495,462  C 683,177 321,420 135,225 C 183,413 694,246 279,119 C 130,169 249,422 263,234 C 168,361 287,325 154,187 C 246,418 632,368 251,436 C 269,158 655,338 643,480 Z"></path>
<path stroke="#fe9225" stroke-width="6" fill="#0fa6d8" opacity="0.2907419794280869" stroke-opacity="0.057178671742887446" transform="rotate(61.0 400 300)" d="M 661,365  C 103,270 165,383 284,311 C 130,205 450,281 171,354 C 437,496 566,208 523,372 C 671,226 279,280 292,294 C 696,436 158,431 248,172 C 648,227 460,354 344,281 Z"></path>

  </g>
</svg>
