<?xml version="1.0" encoding="UTF-8"?>
<svg width="800px" height="600px" viewBox="0 0 800 600" version="1.1" xmlns="http://www.w3.org/2000/svg" xmlns:xlink="http://www.w3.org/1999/xlink">
  <defs></defs>
  <g stroke="none" stroke-width="1" fill="none" fill-rule="evenodd">
    
    <path stroke="#31a06b" stroke-width="5" fill="#31a06b" opacity="0.2878293190241323" stroke-opacity="0.5029447817421501" transform="rotate(17.0 400 300)" d="M 615,275  C 202,468 582,324 412,217 C 596,115 273,393 532,253 C 318,414 472,142 268,257 C 675,323 210,307 409,370 C 158,379 609,122 204,321 C 511,385 680,395 520,119 Z"></path>
<path stroke="#31a06b" stroke-width="3" fill="#f9d84b" opacity="0.5544799352469263" stroke-opacity="0.6128606066912705" transform="rotate(-176.0 400 300)" d="M 410,232  C 647,106 195,148 309,182 C 174,376 102,323 288,173 C 564,237 496,389 638,309 C 295,368 610,102 208,347 C 627,244 132,461 550,289 Z"></path>
<path stroke="#f27630" stroke-width="4" fill="#f9d84b" opacity="0.21566402854913608" stroke-opacity="0.6302123678946531" transform="rotate(-11.0 400 300)" d="M 586,319  C 282,362 379,110 557,189 C 245,286 694,140 272,317 C 190,226 601,302 424,385 C 372,410 251,176 549,416 C 377,409 633,347 160,325 C 643,340 640,185 320,350 C 695,365 632,267 419,421 Z"></path>
<path stroke="#f27630" stroke-width="3" fill="#f27630" opacity="0.5874843935014527" stroke-opacity="0.401485990473852" transform="rotate(-170.0 400 300)" d="M 429,224  C 520,302 447,267 587,418 C 546,327 382,424 293,206 C 479,440 621,410 671,210 C 343,197 585,483 669,363 C 147,407 518,391 266,205 Z"></path>
<path stroke="#2b55f7" stroke-width="1" fill="#f27630" opacity="0.9536761421674498" stroke-opacity="0.4813806653331877" transform="rotate(-108.0 400 300)" d="M 151,284  C 624,101 603,209 261,319 C 160,414 686,418 500,191 C 192,234 632,429 474,170 C 299,171 347,139 646,199 C 590,448 130,261 425,415 C 104,302 607,489 692,357 Z"></path>
<path stroke="#2b55f7" stroke-width="4" fill="#31a06b" opacity="0.6044185227018926" stroke-opacity="0.6795132886780901" transform="rotate(4.0 400 300)" d="M 129,431  C 175,456 594,128 688,126 C 549,461 253,435 430,412 C 509,242 441,467 288,134 C 454,447 180,167 202,144 C 600,453 208,494 689,322 C 153,112 541,459 186,237 C 648,378 381,256 373,161 Z"></path>
<path stroke="#f9d84b" stroke-width="4" fill="#f27630" opacity="0.883768931613239" stroke-opacity="0.07906284584711588" transform="rotate(131.0 400 300)" d="M 223,214  C 600,293 137,210 390,488 C 201,104 676,267 636,479 C 249,296 598,361 499,152 C 678,261 601,258 361,404 C 548,366 474,156 314,236 C 582,426 267,397 265,225 Z"></path>
<path stroke="#f9d84b" stroke-width="6" fill="#2b55f7" opacity="0.18678982361012889" stroke-opacity="0.6636741206323734" transform="rotate(6.0 400 300)" d="M 671,314  C 136,444 639,468 257,302 C 306,434 696,149 625,192 C 541,229 361,206 181,177 C 382,136 274,378 114,292 C 378,370 128,331 562,189 C 340,114 326,101 398,105 C 667,406 577,107 197,262 C 495,290 409,330 278,103 Z"></path>

  </g>
</svg>
