<?xml version="1.0" encoding="UTF-8"?>
<svg width="800px" height="600px" viewBox="0 0 800 600" version="1.1" xmlns="http://www.w3.org/2000/svg" xmlns:xlink="http://www.w3.org/1999/xlink">
  <defs></defs>
  <g stroke="none" stroke-width="1" fill="none" fill-rule="evenodd">
    
    <path stroke="#f559a0" stroke-width="6" fill="#fe9225" opacity="0.9495772889834131" stroke-opacity="0.9894010223853659" transform="rotate(170.0 400 300)" d="M 295,112  C 255,482 114,145 485,388 C 465,495 404,314 690,468 C 353,173 113,374 341,114 C 173,445 168,458 344,469 C 498,464 564,314 240,477 C 407,315 380,359 166,437 C 547,172 195,304 455,262 C 223,428 428,438 333,152 C 690,365 695,341 227,491 Z"></path>
<path stroke="#02eb6b" stroke-width="6" fill="#f559a0" opacity="0.7030625646442996" stroke-opacity="0.1745166717876993" transform="rotate(-12.0 400 300)" d="M 169,105  C 619,490 425,378 587,221 C 244,462 352,168 172,154 C 490,258 373,464 541,256 C 320,397 486,373 580,246 C 459,231 364,299 610,472 C 628,486 244,315 563,454 C 162,487 387,110 434,300 C 510,396 163,208 561,442 Z"></path>
<path stroke="#02eb6b" stroke-width="4" fill="#02eb6b" opacity="0.9278793931757173" stroke-opacity="0.4442934854776719" transform="rotate(-68.0 400 300)" d="M 213,376  C 432,291 565,367 113,293 C 173,485 506,259 224,185 C 167,128 415,143 385,204 C 550,500 202,127 352,480 C 172,360 667,463 556,471 C 634,466 658,229 373,360 C 551,243 462,373 466,188 C 297,374 637,491 260,196 C 258,390 550,267 621,180 Z"></path>
<path stroke="#0fa6d8" stroke-width="7" fill="#02eb6b" opacity="0.34450498057346157" stroke-opacity="0.8961367439956296" transform="rotate(130.0 400 300)" d="M 477,452  C 450,204 315,308 499,448 C 305,127 406,321 105,123 C 153,101 219,498 619,180 C 486,255 240,130 585,486 C 298,441 213,310 466,232 C 287,324 391,213 528,463 C 443,445 564,385 657,438 Z"></path>
<path stroke="#0fa6d8" stroke-width="5" fill="#0fa6d8" opacity="0.7081654187522326" stroke-opacity="0.1538364492296959" transform="rotate(48.0 400 300)" d="M 456,385  C 506,191 676,324 330,293 C 688,350 488,444 653,108 C 271,427 364,277 579,261 C 402,212 461,261 253,114 C 382,337 222,305 208,472 C 483,236 633,251 302,465 C 518,106 244,426 597,276 C 503,435 473,279 640,263 Z"></path>
<path stroke="#fe9225" stroke-width="7" fill="#02eb6b" opacity="0.4777255250808494" stroke-opacity="0.5795165141049801" transform="rotate(134.0 400 300)" d="M 629,307  C 153,342 442,187 690,413 C 513,382 698,147 691,213 C 615,215 649,322 555,423 C 115,297 594,181 139,469 C 633,437 289,432 460,187 C 468,338 451,181 303,481 C 231,307 486,485 253,343 C 611,274 527,176 210,133 C 166,458 379,357 237,156 C 447,404 560,381 684,185 C 111,286 142,403 255,483 Z"></path>
<path stroke="#2cd3f3" stroke-width="6" fill="#fe9225" opacity="0.4851762437953112" stroke-opacity="0.32260268067705866" transform="rotate(87.0 400 300)" d="M 251,158  C 200,452 400,269 507,110 C 125,336 136,240 620,166 C 112,271 154,196 122,479 C 151,446 224,179 344,174 C 125,330 196,375 270,471 C 301,345 232,212 154,281 C 546,118 509,321 622,141 C 567,439 209,459 667,149 C 682,428 148,162 354,400 Z"></path>
<path stroke="#fe9225" stroke-width="5" fill="#f559a0" opacity="0.27783270154290746" stroke-opacity="0.0528025323100467" transform="rotate(-16.0 400 300)" d="M 675,157  C 198,354 458,203 286,334 C 198,302 633,213 559,105 C 347,252 305,221 203,452 C 446,240 419,308 470,113 C 637,476 392,235 486,167 Z"></path>
<path stroke="#0fa6d8" stroke-width="7" fill="#2cd3f3" opacity="0.9527485108832252" stroke-opacity="0.43209569046081703" transform="rotate(-156.0 400 300)" d="M 411,202  C 525,138 696,392 463,240 C 188,449 276,160 621,464 C 230,116 478,288 396,125 C 439,445 490,194 569,137 C 268,315 449,220 384,417 C 572,177 277,287 681,363 C 525,451 170,339 531,347 C 329,263 615,440 444,269 C 389,340 691,422 680,339 C 253,421 624,173 358,316 Z"></path>
<path stroke="#fe9225" stroke-width="7" fill="#0fa6d8" opacity="0.7840972622882962" stroke-opacity="0.3225783236869197" transform="rotate(154.0 400 300)" d="M 234,255  C 402,406 194,155 168,197 C 572,154 153,148 446,392 C 199,103 654,336 527,499 C 157,417 294,237 658,131 C 332,399 656,425 234,358 C 553,245 480,202 579,294 C 547,152 286,360 349,366 C 244,243 290,157 459,416 Z"></path>
<path stroke="#0fa6d8" stroke-width="2" fill="#f559a0" opacity="0.4126105848597086" stroke-opacity="0.02150590861796056" transform="rotate(132.0 400 300)" d="M 444,125  C 447,398 624,415 447,181 C 634,497 391,499 593,230 C 582,423 356,448 528,331 C 199,248 477,378 270,109 C 222,315 183,139 357,197 C 354,143 231,402 613,233 C 153,280 541,184 121,248 C 375,320 576,215 631,264 C 356,357 384,453 149,212 Z"></path>

  </g>
</svg>
