<svg xmlns="http://www.w3.org/2000/svg" xmlns:xlink="http://www.w3.org/1999/xlink" width="800" height="600" version="1.1" viewBox="0 0 800 600"><g fill="none" fill-rule="evenodd" stroke="none" stroke-width="1"><rect width="21" height="136" x="793" y="248" fill="#fe9225" stroke="#0fa6d8" stroke-opacity=".54" stroke-width="5" opacity=".755" transform="rotate(145.0 400 300)"/><ellipse cx="141" cy="272" fill="#fe9225" stroke="#fe9225" stroke-opacity=".531" stroke-width="1" opacity=".897" rx="305" ry="36" transform="rotate(140.0 400 300)"/><rect width="312" height="377" x="104" y="147" fill="#2cd3f3" stroke="#02eb6b" stroke-opacity=".166" stroke-width="3" opacity=".851" transform="rotate(154.0 400 300)"/><ellipse cx="305" cy="331" fill="#0fa6d8" stroke="#02eb6b" stroke-opacity=".779" stroke-width="6" opacity=".394" rx="303" ry="51" transform="rotate(48.0 400 300)"/><polygon fill="#2cd3f3" stroke="#2cd3f3" stroke-opacity=".727" stroke-width="7" points="256 103 143 89 418 285 366 526 446 245 344 73 327 177 646 465" opacity=".098" transform="rotate(160.0 400 300)"/><polygon fill="#f559a0" stroke="#02eb6b" stroke-opacity=".731" stroke-width="4" points="409 134 274 567 79 141 666 318 447 396 528 364 752 233" opacity=".94" transform="rotate(128.0 400 300)"/></g></svg>