<svg xmlns="http://www.w3.org/2000/svg" xmlns:xlink="http://www.w3.org/1999/xlink" width="800" height="600" version="1.1" viewBox="0 0 800 600"><g fill="none" fill-rule="evenodd" stroke="none" stroke-width="1"><path fill="#02eb6b" stroke="#fe9225" stroke-opacity=".179" stroke-width="3" d="M 139,306 C 297,388 618,499 282,384 C 190,461 262,390 265,287 C 597,150 319,344 599,273 C 209,389 686,408 122,104 C 238,135 523,120 161,101 C 270,371 187,407 183,353 C 694,351 103,239 415,267 C 372,425 191,358 686,397 Z" opacity=".428" transform="rotate(47.0 400 300)"/><path fill="#2cd3f3" stroke="#f559a0" stroke-opacity=".239" stroke-width="4" d="M 418,149 C 115,491 128,190 260,251 C 365,445 570,145 327,249 C 351,373 417,256 561,411 C 179,132 276,195 225,226 C 378,247 145,193 346,161 C 690,248 413,124 532,191 C 636,379 598,309 596,373 C 205,153 389,441 351,493 C 199,283 327,264 439,128 Z" opacity=".076" transform="rotate(110.0 400 300)"/><path fill="#0fa6d8" stroke="#fe9225" stroke-opacity=".537" stroke-width="6" d="M 685,306 C 208,394 355,119 181,380 C 322,369 544,486 237,159 C 595,300 643,399 455,273 C 499,313 138,146 420,398 C 541,201 661,293 186,267 C 399,485 459,329 382,203 C 356,374 483,378 193,437 Z" opacity=".834" transform="rotate(-35.0 400 300)"/><path fill="#f559a0" stroke="#2cd3f3" stroke-opacity=".505" stroke-width="5" d="M 208,145 C 194,457 641,155 517,238 C 145,291 351,246 396,161 C 310,359 685,395 186,396 C 677,146 442,322 406,204 C 418,394 230,369 539,255 Z" opacity=".136" transform="rotate(-137.0 400 300)"/><path fill="#f559a0" stroke="#02eb6b" stroke-opacity=".089" stroke-width="6" d="M 575,131 C 272,200 197,477 333,464 C 667,306 665,277 347,474 C 321,353 559,471 418,142 C 373,153 372,186 209,325 C 274,257 278,124 143,468 C 505,409 245,156 289,498 C 281,167 285,270 521,459 Z" opacity=".101" transform="rotate(9.0 400 300)"/><path fill="#fe9225" stroke="#2cd3f3" stroke-opacity=".318" stroke-width="5" d="M 654,181 C 389,425 148,376 298,193 C 615,326 152,169 210,487 C 143,288 624,311 101,470 C 323,297 481,376 595,435 C 500,409 105,411 466,419 C 251,477 662,222 686,153 C 500,221 600,269 113,248 C 165,401 139,171 324,339 C 560,447 107,382 203,358 C 206,437 544,357 427,265 C 344,479 481,245 460,283 Z" opacity=".723" transform="rotate(4.0 400 300)"/><path fill="#f559a0" stroke="#f559a0" stroke-opacity=".788" stroke-width="1" d="M 567,225 C 687,382 657,287 112,229 C 558,414 559,402 595,200 C 641,123 460,189 196,494 C 374,253 420,219 152,144 C 197,256 146,493 515,128 C 209,232 367,323 693,436 C 288,318 391,414 566,456 C 324,495 343,410 664,300 Z" opacity=".866" transform="rotate(96.0 400 300)"/><path fill="#02eb6b" stroke="#f559a0" stroke-opacity=".462" stroke-width="5" d="M 238,157 C 352,296 569,137 457,235 C 146,366 179,351 463,372 C 101,347 485,227 568,117 C 200,232 275,345 606,480 C 156,427 622,105 494,254 C 174,369 347,134 152,374 C 116,145 164,441 604,243 C 518,464 330,155 667,293 C 509,196 522,389 293,313 C 636,343 363,420 414,122 Z" opacity=".359" transform="rotate(-85.0 400 300)"/><path fill="#2cd3f3" stroke="#02eb6b" stroke-opacity=".552" stroke-width="7" d="M 568,248 C 589,120 582,218 171,281 C 618,275 408,140 131,473 C 666,359 309,204 592,138 C 496,197 101,149 264,180 C 102,282 624,235 382,451 C 167,156 119,479 345,175 Z" opacity=".831" transform="rotate(-45.0 400 300)"/><path fill="#0fa6d8" stroke="#f559a0" stroke-opacity=".461" stroke-width="2" d="M 302,296 C 602,323 666,172 217,181 C 598,389 123,497 345,336 C 501,452 295,147 477,472 C 439,412 206,286 341,144 C 388,123 607,213 287,462 Z" opacity=".562" transform="rotate(-83.0 400 300)"/><path fill="#2cd3f3" stroke="#02eb6b" stroke-opacity=".963" stroke-width="7" d="M 481,105 C 245,486 614,173 698,367 C 118,167 619,201 449,453 C 112,453 167,240 592,278 C 563,369 690,116 354,261 C 687,118 530,154 216,120 C 493,438 582,188 321,464 Z" opacity=".938" transform="rotate(31.0 400 300)"/></g></svg>