<?xml version="1.0" encoding="UTF-8"?>
<svg width="800px" height="600px" viewBox="0 0 800 600" version="1.1" xmlns="http://www.w3.org/2000/svg" xmlns:xlink="http://www.w3.org/1999/xlink">
  <defs></defs>
  <g stroke="none" stroke-width="1" fill="none" fill-rule="evenodd">
    
    <path stroke="#f559a0" stroke-width="1" fill="#0fa6d8" opacity="0.5714280364809249" stroke-opacity="0.8453746499031933" transform="rotate(-81.0 400 300)" d="M 140,129  C 143,284 452,112 491,123 C 467,180 200,358 159,325 C 492,210 432,204 650,402 C 203,221 334,210 552,281 C 180,304 491,434 496,150 C 206,105 126,425 483,105 C 530,174 503,385 351,138 C 499,167 271,134 431,431 C 627,216 243,380 237,150 C 181,277 281,331 377,133 Z"></path>
<path stroke="#fe9225" stroke-width="7" fill="#02eb6b" opacity="0.2725572221757462" stroke-opacity="0.16867632510128472" transform="rotate(83.0 400 300)" d="M 379,146  C 579,418 628,347 601,300 C 260,150 248,454 351,371 C 525,428 499,395 241,498 C 111,164 510,142 121,353 C 565,372 434,147 267,340 Z"></path>
<path stroke="#02eb6b" stroke-width="5" fill="#f559a0" opacity="0.18024141808164243" stroke-opacity="0.239482200483379" transform="rotate(-27.0 400 300)" d="M 372,297  C 229,156 156,412 392,472 C 379,233 189,120 608,276 C 267,121 417,273 625,296 C 505,170 285,173 678,447 C 389,462 169,493 317,404 C 210,419 277,359 486,499 C 273,195 154,215 242,243 Z"></path>
<path stroke="#02eb6b" stroke-width="6" fill="#02eb6b" opacity="0.06328760638022163" stroke-opacity="0.43755817566067223" transform="rotate(-161.0 400 300)" d="M 224,462  C 119,240 559,302 359,325 C 659,138 250,296 317,422 C 227,341 267,315 426,498 C 536,279 684,163 513,398 C 610,228 587,146 513,440 C 291,272 637,101 280,200 C 583,461 413,403 576,146 C 436,461 251,199 586,334 C 345,102 514,175 542,157 Z"></path>
<path stroke="#2cd3f3" stroke-width="4" fill="#2cd3f3" opacity="0.39192459406980823" stroke-opacity="0.20506141889885252" transform="rotate(-53.0 400 300)" d="M 390,250  C 358,280 579,340 362,296 C 696,289 257,165 452,316 C 407,106 594,421 345,412 C 278,272 246,387 598,432 C 660,222 150,370 657,492 C 535,287 440,286 596,419 C 348,490 558,218 555,333 C 225,392 558,226 494,469 C 419,337 262,321 514,372 C 589,205 588,396 245,200 Z"></path>
<path stroke="#02eb6b" stroke-width="3" fill="#02eb6b" opacity="0.03731715981783759" stroke-opacity="0.6786870203032835" transform="rotate(-127.0 400 300)" d="M 107,105  C 364,127 680,226 335,451 C 227,276 625,216 560,305 C 193,444 365,322 410,490 C 483,404 346,190 625,292 C 597,242 679,159 320,207 Z"></path>
<path stroke="#02eb6b" stroke-width="4" fill="#fe9225" opacity="0.20146919801723426" stroke-opacity="0.29525816762573837" transform="rotate(130.0 400 300)" d="M 599,191  C 297,442 643,496 351,487 C 283,389 547,410 327,478 C 324,218 296,312 280,392 C 588,123 166,368 510,257 C 386,337 375,238 105,182 C 618,211 192,479 501,348 C 129,156 625,259 135,291 Z"></path>

  </g>
</svg>
