<svg xmlns="http://www.w3.org/2000/svg" xmlns:xlink="http://www.w3.org/1999/xlink" width="800" height="600" version="1.1" viewBox="0 0 800 600"><g fill="none" fill-rule="evenodd" stroke="none" stroke-width="1"><polygon fill="#0fa6d8" stroke="#f559a0" stroke-opacity=".086" stroke-width="4" points="280 256 698 355 539 183 37 191 642 219 429 33 166 280 632 547" opacity=".433" transform="rotate(-154.0 400 300)"/><path fill="#f559a0" stroke="#2cd3f3" stroke-opacity=".243" stroke-width="5" d="M 586,301 C 187,328 421,473 561,224 C 542,330 694,377 666,441 C 370,283 563,185 664,292 C 528,293 140,352 267,154 C 423,411 358,355 452,498 C 260,161 141,229 281,423 C 204,324 515,452 177,245 C 617,362 404,434 103,419 C 656,123 669,245 673,453 Z" opacity=".662" transform="rotate(-90.0 400 300)"/><ellipse cx="58" cy="340" fill="#f559a0" stroke="#fe9225" stroke-opacity=".143" stroke-width="3" opacity=".807" rx="313" ry="193" transform="rotate(-54.0 400 300)"/><polygon fill="#02eb6b" stroke="#f559a0" stroke-opacity=".488" stroke-width="6" points="522 129 549 58 628 18 321 461 251 344 350 446" opacity=".64" transform="rotate(10.0 400 300)"/><rect width="118" height="103" x="70" y="62" fill="#2cd3f3" stroke="#fe9225" stroke-opacity=".382" stroke-width="3" opacity=".868" transform="rotate(-12.0 400 300)"/><path fill="#f559a0" stroke="#f559a0" stroke-opacity=".214" stroke-width="4" d="M 417,381 C 376,421 613,350 619,226 C 237,321 435,366 395,353 C 613,174 238,271 379,154 C 510,203 200,447 599,462 C 237,422 514,325 288,217 C 276,139 335,460 339,398 C 409,113 427,222 146,185 C 538,151 511,481 384,122 Z" opacity=".793" transform="rotate(-176.0 400 300)"/></g></svg>