<?xml version="1.0" encoding="UTF-8"?>
<svg width="800px" height="600px" viewBox="0 0 800 600" version="1.1" xmlns="http://www.w3.org/2000/svg" xmlns:xlink="http://www.w3.org/1999/xlink">
  <defs></defs>
  <g stroke="none" stroke-width="1" fill="none" fill-rule="evenodd">
    
    <path stroke="#2cd3f3" stroke-width="7" fill="#fe9225" opacity="0.015753506150472114" stroke-opacity="0.13417261726944313" transform="rotate(-121.0 400 300)" d="M 271,401  C 109,425 492,177 328,318 C 382,360 288,149 452,219 C 580,335 252,435 678,272 C 672,264 247,324 164,432 C 251,479 253,276 329,215 Z"></path>
<path stroke="#2cd3f3" stroke-width="6" fill="#0fa6d8" opacity="0.824784679426997" stroke-opacity="0.7179952138585407" transform="rotate(-82.0 400 300)" d="M 183,436  C 367,445 661,391 125,161 C 379,109 636,498 249,188 C 165,390 119,270 640,267 C 182,440 406,215 691,435 C 699,481 439,328 470,289 Z"></path>
<path stroke="#f559a0" stroke-width="3" fill="#2cd3f3" opacity="0.6884011978576483" stroke-opacity="0.6097193208660517" transform="rotate(-25.0 400 300)" d="M 356,135  C 659,444 564,493 605,225 C 492,334 520,285 533,458 C 630,458 109,406 683,448 C 395,277 389,244 416,174 C 577,454 223,451 103,277 C 361,418 226,224 429,252 C 165,196 304,162 209,474 C 472,221 457,293 176,415 C 198,375 337,152 249,442 C 243,358 591,500 484,115 Z"></path>
<path stroke="#f559a0" stroke-width="5" fill="#0fa6d8" opacity="0.02004409727294112" stroke-opacity="0.5448638224991291" transform="rotate(-89.0 400 300)" d="M 502,172  C 303,169 311,306 154,156 C 408,427 537,322 536,381 C 137,385 264,122 644,149 C 260,373 111,104 145,103 C 577,253 522,457 462,200 C 508,484 662,232 454,174 C 377,113 681,165 666,169 C 354,302 214,288 105,495 C 383,228 111,281 547,279 Z"></path>
<path stroke="#fe9225" stroke-width="1" fill="#f559a0" opacity="0.3539830877777119" stroke-opacity="0.5440401340459526" transform="rotate(89.0 400 300)" d="M 318,316  C 153,119 216,253 519,191 C 344,338 265,228 410,185 C 633,138 529,290 192,341 C 181,116 112,434 501,303 C 447,234 528,341 689,185 C 410,263 298,432 576,258 C 692,148 566,213 250,156 C 525,395 443,133 221,297 C 510,394 315,350 367,405 C 533,177 364,338 472,163 Z"></path>
<path stroke="#2cd3f3" stroke-width="7" fill="#f559a0" opacity="0.7408917218546444" stroke-opacity="0.7901416876741365" transform="rotate(-132.0 400 300)" d="M 215,416  C 507,149 454,115 643,264 C 554,346 441,428 490,396 C 373,120 384,166 182,457 C 446,293 664,439 604,250 C 520,185 509,470 221,285 C 260,115 101,197 660,196 C 596,122 414,285 416,376 C 198,126 182,160 504,371 Z"></path>
<path stroke="#0fa6d8" stroke-width="2" fill="#02eb6b" opacity="0.3587528190316811" stroke-opacity="0.5635567828017196" transform="rotate(-54.0 400 300)" d="M 561,209  C 592,131 313,458 465,331 C 192,403 287,102 220,347 C 655,330 586,319 452,289 C 536,296 401,164 538,407 Z"></path>
<path stroke="#02eb6b" stroke-width="4" fill="#0fa6d8" opacity="0.973816633190903" stroke-opacity="0.6031883500376772" transform="rotate(-129.0 400 300)" d="M 423,187  C 304,323 351,381 444,151 C 446,356 660,449 120,211 C 597,116 212,461 175,468 C 258,470 695,222 338,184 C 393,403 300,436 302,132 C 216,413 208,290 319,345 C 601,105 335,377 236,276 C 672,243 463,487 164,352 C 233,491 272,165 358,342 Z"></path>

  </g>
</svg>
