<svg xmlns="http://www.w3.org/2000/svg" xmlns:xlink="http://www.w3.org/1999/xlink" width="800" height="600" version="1.1" viewBox="0 0 800 600"><g fill="none" fill-rule="evenodd" stroke="none" stroke-width="1"><rect width="209" height="396" x="542" y="188" fill="#B0015C" stroke="#64A598" stroke-opacity=".27" stroke-width="6" opacity=".957" transform="rotate(-163.0 400 300)"/><rect width="254" height="111" x="209" y="221" fill="#708004" stroke="#50B71B" stroke-opacity=".007" stroke-width="4" opacity=".619" transform="rotate(123.0 400 300)"/><ellipse cx="161" cy="65" fill="#9781CD" stroke="#72960D" stroke-opacity=".448" stroke-width="4" opacity=".428" rx="414" ry="245" transform="rotate(54.0 400 300)"/><polygon fill="#A128D0" stroke="#766393" stroke-opacity=".905" stroke-width="4" points="765 109 754 210 469 108 491 411 264 190" opacity=".565" transform="rotate(80.0 400 300)"/><path fill="#0234D7" stroke="#0258A2" stroke-opacity=".612" stroke-width="7" d="M 508,214 C 581,462 209,489 226,162 C 456,351 673,398 470,196 C 218,151 219,379 265,358 C 495,116 466,392 655,362 C 340,382 260,226 661,482 C 621,330 451,141 274,326 C 440,170 443,306 284,359 C 379,233 389,159 592,141 C 248,224 403,297 535,135 C 581,263 241,207 199,179 C 264,419 210,333 513,176 Z" opacity=".611" transform="rotate(22.0 400 300)"/><ellipse cx="796" cy="56" fill="#33C8D9" stroke="#A8B073" stroke-opacity=".174" stroke-width="5" opacity=".574" rx="436" ry="89" transform="rotate(42.0 400 300)"/><ellipse cx="343" cy="545" fill="#3089A3" stroke="#237DBC" stroke-opacity=".554" stroke-width="5" opacity=".183" rx="260" ry="118" transform="rotate(-11.0 400 300)"/><path fill="#1D33C5" stroke="#628CBA" stroke-opacity=".101" stroke-width="4" d="M 683,314 C 177,305 676,115 188,210 C 202,192 329,457 537,465 C 686,457 600,466 312,373 C 685,497 215,219 374,232 C 360,437 351,330 232,296 Z" opacity=".987" transform="rotate(55.0 400 300)"/><polygon fill="#5C120A" stroke="#872950" stroke-opacity=".872" stroke-width="6" points="276 416 23 245 89 600 176 590 757 11 702 482 586 498" opacity=".624" transform="rotate(114.0 400 300)"/><polygon fill="#999C26" stroke="#643BD8" stroke-opacity=".007" stroke-width="4" points="282 305 412 526 752 180 473 299 109 437 796 71 8 137 234 527" opacity=".622" transform="rotate(5.0 400 300)"/><polygon fill="#4C5247" stroke="#C2043A" stroke-opacity=".239" stroke-width="1" points="472 363 361 582 387 373 16 22 532 182 710 162" opacity=".653" transform="rotate(143.0 400 300)"/></g></svg>