<svg xmlns="http://www.w3.org/2000/svg" xmlns:xlink="http://www.w3.org/1999/xlink" width="800" height="600" version="1.1" viewBox="0 0 800 600"><g fill="none" fill-rule="evenodd" stroke="none" stroke-width="1"><polygon fill="#31a06b" stroke="#2b55f7" stroke-opacity=".397" stroke-width="7" points="190 174 33 483 20 93 213 450 645 204 611 482 417 213" opacity=".205" transform="rotate(-13.0 400 300)"/><rect width="256" height="115" x="460" y="49" fill="#31a06b" stroke="#2b55f7" stroke-opacity=".359" stroke-width="6" opacity=".108" transform="rotate(149.0 400 300)"/><polygon fill="#f27630" stroke="#f9d84b" stroke-opacity=".578" stroke-width="4" points="244 543 481 551 692 304 456 365 751 237 245 28 163 216 376 294" opacity=".682" transform="rotate(69.0 400 300)"/><ellipse cx="246" cy="497" fill="#ed2b2c" stroke="#f27630" stroke-opacity=".01" stroke-width="5" opacity=".379" rx="279" ry="45" transform="rotate(-175.0 400 300)"/><polygon fill="#ed2b2c" stroke="#f27630" stroke-opacity=".322" stroke-width="5" points="516 315 214 16 206 3 176 298 699 181 627 11 466 448 667 119" opacity=".627" transform="rotate(-69.0 400 300)"/><polygon fill="#ed2b2c" stroke="#31a06b" stroke-opacity=".825" stroke-width="7" points="374 106 647 361 671 287 695 202 489 58 38 94" opacity=".28" transform="rotate(-6.0 400 300)"/><rect width="244" height="85" x="639" y="23" fill="#f27630" stroke="#f9d84b" stroke-opacity=".814" stroke-width="2" opacity=".659" transform="rotate(136.0 400 300)"/><polygon fill="#ed2b2c" stroke="#ed2b2c" stroke-opacity=".985" stroke-width="6" points="168 214 551 83 381 434 394 296 581 98" opacity=".51" transform="rotate(-178.0 400 300)"/><path fill="#2b55f7" stroke="#f27630" stroke-opacity=".991" stroke-width="3" d="M 600,382 C 558,112 198,217 154,330 C 672,361 258,349 159,309 C 322,201 399,286 462,163 C 462,208 404,132 440,499 C 115,483 520,453 539,258 C 644,169 144,369 551,189 C 144,159 251,331 700,213 C 565,224 106,467 511,278 C 204,459 597,186 500,128 C 351,129 612,190 431,229 Z" opacity=".735" transform="rotate(114.0 400 300)"/><path fill="#f9d84b" stroke="#f9d84b" stroke-opacity=".456" stroke-width="6" d="M 133,324 C 633,220 370,290 680,266 C 194,235 666,284 611,292 C 132,124 575,465 510,277 C 334,484 480,491 107,121 C 316,287 612,362 397,350 C 169,435 634,239 697,368 C 306,300 268,357 561,140 C 132,371 565,202 666,209 Z" opacity=".823" transform="rotate(-95.0 400 300)"/><rect width="142" height="302" x="26" y="480" fill="#31a06b" stroke="#f27630" stroke-opacity=".864" stroke-width="6" opacity=".901" transform="rotate(-52.0 400 300)"/></g></svg>