<?xml version="1.0" encoding="UTF-8"?>
<svg width="800px" height="600px" viewBox="0 0 800 600" version="1.1" xmlns="http://www.w3.org/2000/svg" xmlns:xlink="http://www.w3.org/1999/xlink">
  <defs></defs>
  <g stroke="none" stroke-width="1" fill="none" fill-rule="evenodd">
    
    <polygon stroke="#2b55f7" stroke-width="7" fill="#31a06b" opacity="0.20462829899535714" stroke-opacity="0.39748766399690505" transform="rotate(-13.0 400 300)" points="190 174 33 483 20 93 213 450 645 204 611 482 417 213 "></polygon>
<rect stroke="#2b55f7" stroke-width="6" fill="#31a06b" opacity="0.10755293095473832" stroke-opacity="0.35919120481626005" transform="rotate(149.0 400 300)" x="460" y="49" width="256" height="115"></rect>
<polygon stroke="#f9d84b" stroke-width="4" fill="#f27630" opacity="0.6822288945763209" stroke-opacity="0.5779629093063758" transform="rotate(69.0 400 300)" points="244 543 481 551 692 304 456 365 751 237 245 28 163 216 376 294 "></polygon>
<ellipse stroke="#f27630" stroke-width="5" fill="#ed2b2c" opacity="0.37918784745312867" stroke-opacity="0.009744272420981616" transform="rotate(-175.0 400 300)" cx="246" rx="279" cy="497" ry="45"></ellipse>
<polygon stroke="#f27630" stroke-width="5" fill="#ed2b2c" opacity="0.626510767678238" stroke-opacity="0.3220161060390298" transform="rotate(-69.0 400 300)" points="516 315 214 16 206 3 176 298 699 181 627 11 466 448 667 119 "></polygon>
<polygon stroke="#31a06b" stroke-width="7" fill="#ed2b2c" opacity="0.27997110733659314" stroke-opacity="0.8250977002272972" transform="rotate(-6.0 400 300)" points="374 106 647 361 671 287 695 202 489 58 38 94 "></polygon>
<rect stroke="#f9d84b" stroke-width="2" fill="#f27630" opacity="0.658742812555381" stroke-opacity="0.8141812829864022" transform="rotate(136.0 400 300)" x="639" y="23" width="244" height="85"></rect>
<polygon stroke="#ed2b2c" stroke-width="6" fill="#ed2b2c" opacity="0.5095333716199757" stroke-opacity="0.9850204403401908" transform="rotate(-178.0 400 300)" points="168 214 551 83 381 434 394 296 581 98 "></polygon>
<path stroke="#f27630" stroke-width="3" fill="#2b55f7" opacity="0.7347036260732329" stroke-opacity="0.9907883864559675" transform="rotate(114.0 400 300)" d="M 600,382  C 558,112 198,217 154,330 C 672,361 258,349 159,309 C 322,201 399,286 462,163 C 462,208 404,132 440,499 C 115,483 520,453 539,258 C 644,169 144,369 551,189 C 144,159 251,331 700,213 C 565,224 106,467 511,278 C 204,459 597,186 500,128 C 351,129 612,190 431,229 Z"></path>
<path stroke="#f9d84b" stroke-width="6" fill="#f9d84b" opacity="0.8232417060197824" stroke-opacity="0.45562865218300863" transform="rotate(-95.0 400 300)" d="M 133,324  C 633,220 370,290 680,266 C 194,235 666,284 611,292 C 132,124 575,465 510,277 C 334,484 480,491 107,121 C 316,287 612,362 397,350 C 169,435 634,239 697,368 C 306,300 268,357 561,140 C 132,371 565,202 666,209 Z"></path>
<rect stroke="#f27630" stroke-width="6" fill="#31a06b" opacity="0.9014083658655203" stroke-opacity="0.8643857664539992" transform="rotate(-52.0 400 300)" x="26" y="480" width="142" height="302"></rect>

  </g>
</svg>
