<svg xmlns="http://www.w3.org/2000/svg" xmlns:xlink="http://www.w3.org/1999/xlink" width="800" height="600" version="1.1" viewBox="0 0 800 600"><g fill="none" fill-rule="evenodd" stroke="none" stroke-width="1"><ellipse cx="76" cy="265" fill="#162389" stroke="#626C00" stroke-opacity=".56" stroke-width="7" opacity=".417" rx="170" ry="276" transform="rotate(-111.0 400 300)"/><path fill="#291A9B" stroke="#B27BB3" stroke-opacity=".448" stroke-width="1" d="M 204,242 C 535,499 476,286 271,334 C 623,489 415,278 681,167 C 538,468 112,246 664,271 C 273,445 464,362 602,107 C 207,350 210,494 479,363 C 208,233 436,109 424,330 C 601,467 414,479 260,450 C 216,191 187,250 471,184 C 172,299 526,137 196,388 C 677,174 279,133 329,189 Z" opacity=".911" transform="rotate(-104.0 400 300)"/><ellipse cx="741" cy="131" fill="#02AAC9" stroke="#539878" stroke-opacity=".072" stroke-width="2" opacity=".384" rx="83" ry="250" transform="rotate(37.0 400 300)"/><ellipse cx="588" cy="463" fill="#547A42" stroke="#C8131A" stroke-opacity=".079" stroke-width="1" opacity=".501" rx="98" ry="74" transform="rotate(156.0 400 300)"/><ellipse cx="246" cy="109" fill="#24A4C3" stroke="#826544" stroke-opacity=".921" stroke-width="7" opacity=".582" rx="319" ry="350" transform="rotate(31.0 400 300)"/><rect width="228" height="233" x="112" y="482" fill="#BB37D0" stroke="#05B66B" stroke-opacity=".005" stroke-width="7" opacity=".141" transform="rotate(103.0 400 300)"/><path fill="#9AA52D" stroke="#560702" stroke-opacity=".82" stroke-width="7" d="M 586,128 C 518,341 208,352 308,173 C 523,461 112,405 537,261 C 125,238 384,208 451,324 C 190,141 579,244 530,121 C 158,157 283,178 563,350 C 595,371 388,260 269,411 C 501,376 418,121 285,343 C 281,181 255,429 358,147 C 668,106 316,341 367,393 C 573,480 648,357 390,113 C 612,261 481,199 327,308 Z" opacity=".597" transform="rotate(-156.0 400 300)"/><ellipse cx="266" cy="44" fill="#D185B2" stroke="#05ABA9" stroke-opacity=".436" stroke-width="2" opacity=".735" rx="137" ry="233" transform="rotate(58.0 400 300)"/><path fill="#51A79A" stroke="#7B339B" stroke-opacity=".349" stroke-width="7" d="M 559,106 C 391,305 485,103 557,156 C 389,426 383,426 185,218 C 299,153 599,376 472,307 C 353,122 377,103 648,132 C 670,197 452,456 331,388 C 231,166 331,351 661,407 Z" opacity=".91" transform="rotate(-44.0 400 300)"/><polygon fill="#BC0011" stroke="#170B10" stroke-opacity=".859" stroke-width="7" points="298 244 70 457 119 405 771 289 678 510" opacity=".754" transform="rotate(-7.0 400 300)"/></g></svg>