<?xml version="1.0" encoding="UTF-8"?>
<svg width="800px" height="600px" viewBox="0 0 800 600" version="1.1" xmlns="http://www.w3.org/2000/svg" xmlns:xlink="http://www.w3.org/1999/xlink">
  <defs></defs>
  <g stroke="none" stroke-width="1" fill="none" fill-rule="evenodd">
    
    <ellipse stroke="#626C00" stroke-width="7" fill="#162389" opacity="0.41712603476601384" stroke-opacity="0.5602930567354867" transform="rotate(-111.0 400 300)" cx="76" rx="170" cy="265" ry="276"></ellipse>
<path stroke="#B27BB3" stroke-width="1" fill="#291A9B" opacity="0.9113086198732777" stroke-opacity="0.44757906119489504" transform="rotate(-104.0 400 300)" d="M 204,242  C 535,499 476,286 271,334 C 623,489 415,278 681,167 C 538,468 112,246 664,271 C 273,445 464,362 602,107 C 207,350 210,494 479,363 C 208,233 436,109 424,330 C 601,467 414,479 260,450 C 216,191 187,250 471,184 C 172,299 526,137 196,388 C 677,174 279,133 329,189 Z"></path>
<ellipse stroke="#539878" stroke-width="2" fill="#02AAC9" opacity="0.3842263451806568" stroke-opacity="0.07196452941439233" transform="rotate(37.0 400 300)" cx="741" rx="83" cy="131" ry="250"></ellipse>
<ellipse stroke="#C8131A" stroke-width="1" fill="#547A42" opacity="0.5005956335101919" stroke-opacity="0.07934318393714875" transform="rotate(156.0 400 300)" cx="588" rx="98" cy="463" ry="74"></ellipse>
<ellipse stroke="#826544" stroke-width="7" fill="#24A4C3" opacity="0.5822305677904231" stroke-opacity="0.9207626406286984" transform="rotate(31.0 400 300)" cx="246" rx="319" cy="109" ry="350"></ellipse>
<rect stroke="#05B66B" stroke-width="7" fill="#BB37D0" opacity="0.14078618860788497" stroke-opacity="0.005089636828848649" transform="rotate(103.0 400 300)" x="112" y="482" width="228" height="233"></rect>
<path stroke="#560702" stroke-width="7" fill="#9AA52D" opacity="0.5971725217605566" stroke-opacity="0.8202561297273202" transform="rotate(-156.0 400 300)" d="M 586,128  C 518,341 208,352 308,173 C 523,461 112,405 537,261 C 125,238 384,208 451,324 C 190,141 579,244 530,121 C 158,157 283,178 563,350 C 595,371 388,260 269,411 C 501,376 418,121 285,343 C 281,181 255,429 358,147 C 668,106 316,341 367,393 C 573,480 648,357 390,113 C 612,261 481,199 327,308 Z"></path>
<ellipse stroke="#05ABA9" stroke-width="2" fill="#D185B2" opacity="0.7346282569708157" stroke-opacity="0.43614125069844967" transform="rotate(58.0 400 300)" cx="266" rx="137" cy="44" ry="233"></ellipse>
<path stroke="#7B339B" stroke-width="7" fill="#51A79A" opacity="0.9099908060601379" stroke-opacity="0.34906526185176917" transform="rotate(-44.0 400 300)" d="M 559,106  C 391,305 485,103 557,156 C 389,426 383,426 185,218 C 299,153 599,376 472,307 C 353,122 377,103 648,132 C 670,197 452,456 331,388 C 231,166 331,351 661,407 Z"></path>
<polygon stroke="#170B10" stroke-width="7" fill="#BC0011" opacity="0.7535159045873147" stroke-opacity="0.8589221336640619" transform="rotate(-7.0 400 300)" points="298 244 70 457 119 405 771 289 678 510 "></polygon>

  </g>
</svg>
