<?xml version="1.0" encoding="UTF-8"?>
<svg width="800px" height="600px" viewBox="0 0 800 600" version="1.1" xmlns="http://www.w3.org/2000/svg" xmlns:xlink="http://www.w3.org/1999/xlink">
  <defs></defs>
  <g stroke="none" stroke-width="1" fill="none" fill-rule="evenodd">
    
    <path stroke="#11738C" stroke-width="6" fill="#C33A41" opacity="0.6513066277271623" stroke-opacity="0.023613190341221054" transform="rotate(132.0 400 300)" d="M 407,307  C 301,441 164,464 549,341 C 451,294 405,107 469,381 C 545,433 373,121 223,220 C 312,169 112,386 253,289 C 299,419 391,142 393,413 C 208,293 544,433 165,148 C 505,448 553,117 241,364 C 432,355 572,141 309,223 C 141,294 327,479 368,420 C 654,447 629,163 190,118 Z"></path>
<path stroke="#DBB89D" stroke-width="6" fill="#A7B528" opacity="0.6624231005723912" stroke-opacity="0.7144177012651006" transform="rotate(-77.0 400 300)" d="M 602,173  C 486,456 632,387 152,463 C 348,362 360,225 617,486 C 336,483 631,407 573,187 C 602,228 431,349 475,255 C 454,220 432,470 687,455 C 135,298 461,275 230,248 C 142,168 161,113 272,471 C 334,120 267,421 186,441 C 648,178 558,463 519,448 C 398,434 130,426 255,113 C 554,105 572,435 601,315 Z"></path>
<path stroke="#3B08C8" stroke-width="7" fill="#984242" opacity="0.8188925431143806" stroke-opacity="0.8282483219039838" transform="rotate(8.0 400 300)" d="M 466,373  C 365,478 417,239 423,138 C 209,410 248,376 552,253 C 540,364 608,414 686,317 C 196,378 369,118 508,347 C 368,476 295,296 332,423 C 635,454 521,129 489,500 C 411,353 531,303 523,354 C 487,217 645,186 476,311 C 153,371 554,455 405,331 C 323,466 148,180 214,184 Z"></path>
<path stroke="#2DB19C" stroke-width="3" fill="#D5D772" opacity="0.03370157097443294" stroke-opacity="0.6019957020163365" transform="rotate(-69.0 400 300)" d="M 305,361  C 700,196 123,174 108,126 C 516,207 639,259 278,126 C 599,233 680,458 607,101 C 495,163 402,380 576,364 C 510,352 323,359 570,317 C 505,243 160,120 228,256 C 234,250 139,173 275,314 Z"></path>
<path stroke="#DC5BB1" stroke-width="7" fill="#3B7B06" opacity="0.8005984354840483" stroke-opacity="0.7802775171019315" transform="rotate(-103.0 400 300)" d="M 391,264  C 590,485 219,215 546,379 C 700,299 310,181 315,415 C 320,186 554,145 556,136 C 480,270 602,195 425,303 C 137,426 554,357 597,179 C 248,333 155,392 204,285 C 195,404 696,382 103,483 C 640,277 102,384 104,246 C 384,272 515,265 316,186 C 161,130 302,416 411,324 Z"></path>
<path stroke="#C42867" stroke-width="6" fill="#A53055" opacity="0.428903802133016" stroke-opacity="0.6116857165646373" transform="rotate(-104.0 400 300)" d="M 116,196  C 371,177 473,162 244,208 C 118,258 424,156 622,145 C 192,253 603,486 404,430 C 305,218 340,396 399,203 C 597,363 611,349 633,267 C 191,376 607,492 531,276 C 130,150 504,479 226,155 C 513,467 569,217 696,206 Z"></path>

  </g>
</svg>
