<svg xmlns="http://www.w3.org/2000/svg" xmlns:xlink="http://www.w3.org/1999/xlink" width="800" height="600" version="1.1" viewBox="0 0 800 600"><g fill="none" fill-rule="evenodd" stroke="none" stroke-width="1"><path fill="#2b55f7" stroke="#2b55f7" stroke-opacity=".396" stroke-width="4" d="M 302,103 C 371,286 579,488 556,351 C 324,167 380,281 316,103 C 500,436 550,105 370,215 C 213,163 394,497 626,240 C 303,419 473,310 516,345 C 373,115 381,318 239,219 C 520,377 176,296 111,418 Z" opacity=".394" transform="rotate(103.0 400 300)"/><path fill="#31a06b" stroke="#31a06b" stroke-opacity=".168" stroke-width="6" d="M 120,316 C 220,396 638,410 329,118 C 233,173 277,346 565,384 C 250,405 317,381 335,202 C 166,351 364,105 541,225 C 498,498 203,365 295,357 C 449,140 431,337 684,134 Z" opacity=".107" transform="rotate(173.0 400 300)"/><path fill="#31a06b" stroke="#ed2b2c" stroke-opacity=".055" stroke-width="1" d="M 541,225 C 682,406 268,130 587,279 C 409,171 220,284 189,484 C 118,373 692,200 299,277 C 559,241 254,367 114,203 C 369,294 588,461 698,316 C 139,456 584,292 229,337 C 421,428 465,495 185,244 C 302,335 476,122 530,456 Z" opacity=".084" transform="rotate(74.0 400 300)"/><path fill="#31a06b" stroke="#f27630" stroke-opacity=".004" stroke-width="2" d="M 226,322 C 480,500 444,221 255,228 C 338,264 542,106 141,432 C 454,287 541,271 446,259 C 650,412 122,151 169,185 C 147,422 682,315 424,269 C 582,363 257,274 207,117 C 314,215 375,391 533,350 C 503,353 544,234 458,215 C 310,113 460,239 623,227 Z" opacity=".065" transform="rotate(-124.0 400 300)"/><path fill="#31a06b" stroke="#31a06b" stroke-opacity=".767" stroke-width="1" d="M 257,448 C 643,292 313,399 461,429 C 200,358 295,164 577,157 C 567,270 203,255 160,394 C 479,165 403,295 127,343 C 408,253 409,283 425,435 C 589,286 402,352 141,487 C 319,143 393,468 264,382 C 410,194 606,477 203,239 C 351,287 592,353 243,147 C 627,168 243,162 184,378 Z" opacity=".688" transform="rotate(74.0 400 300)"/><path fill="#f27630" stroke="#f9d84b" stroke-opacity=".624" stroke-width="7" d="M 471,317 C 152,393 318,348 400,163 C 165,170 299,296 244,262 C 151,280 599,145 570,334 C 356,273 284,159 673,284 C 162,119 620,318 467,252 C 337,401 591,115 331,243 Z" opacity=".985" transform="rotate(-57.0 400 300)"/><path fill="#f9d84b" stroke="#f9d84b" stroke-opacity=".735" stroke-width="6" d="M 269,437 C 373,161 250,421 138,369 C 198,314 311,127 304,145 C 323,312 361,251 616,334 C 675,232 287,484 180,230 C 326,127 414,423 544,486 C 425,455 427,329 112,331 C 401,306 645,301 331,199 C 116,445 348,439 576,183 C 660,167 208,315 142,359 Z" opacity=".015" transform="rotate(145.0 400 300)"/><path fill="#2b55f7" stroke="#f9d84b" stroke-opacity=".57" stroke-width="1" d="M 251,239 C 224,433 225,435 123,355 C 418,317 253,198 189,136 C 369,298 202,198 677,320 C 335,319 283,482 522,375 C 471,184 216,244 550,222 C 267,484 662,486 198,312 C 478,105 128,389 224,174 C 384,356 639,120 377,261 C 334,455 560,447 242,499 Z" opacity=".399" transform="rotate(-82.0 400 300)"/><path fill="#f9d84b" stroke="#f27630" stroke-opacity=".479" stroke-width="7" d="M 363,210 C 412,461 168,178 526,349 C 209,121 660,477 445,418 C 455,364 185,313 663,354 C 396,219 632,167 620,266 C 301,498 408,119 506,202 C 475,438 687,276 358,233 C 276,291 336,126 452,437 C 463,331 499,294 471,412 C 474,192 384,182 532,280 C 214,293 365,230 245,192 C 493,345 197,224 574,205 Z" opacity=".938" transform="rotate(70.0 400 300)"/><path fill="#ed2b2c" stroke="#2b55f7" stroke-opacity=".972" stroke-width="6" d="M 278,339 C 279,414 495,179 212,235 C 362,485 623,320 513,109 C 246,312 391,320 136,144 C 375,438 298,354 597,345 C 528,390 391,114 555,212 C 594,343 360,492 217,243 C 623,295 310,249 362,379 C 508,116 247,252 491,268 C 661,315 304,296 634,341 Z" opacity=".157" transform="rotate(-48.0 400 300)"/><path fill="#ed2b2c" stroke="#ed2b2c" stroke-opacity=".137" stroke-width="6" d="M 144,145 C 605,500 616,214 491,357 C 404,296 119,476 341,420 C 297,382 284,267 270,471 C 324,485 396,375 628,385 C 544,145 136,414 289,488 C 572,374 252,225 192,475 C 664,254 247,172 694,459 C 551,318 466,364 370,410 Z" opacity=".184" transform="rotate(63.0 400 300)"/></g></svg>