<?xml version="1.0" encoding="UTF-8"?>
<svg width="800px" height="600px" viewBox="0 0 800 600" version="1.1" xmlns="http://www.w3.org/2000/svg" xmlns:xlink="http://www.w3.org/1999/xlink">
  <defs></defs>
  <g stroke="none" stroke-width="1" fill="none" fill-rule="evenodd">
    
    <polygon stroke="#D4A5DD" stroke-width="6" fill="#B50A53" opacity="0.0173262181346338" stroke-opacity="0.39577435664017635" transform="rotate(46.0 400 300)" points="721 158 289 359 236 184 760 576 786 403 "></polygon>
<ellipse stroke="#569787" stroke-width="7" fill="#DD6146" opacity="0.6395090354160572" stroke-opacity="0.4835441823163506" transform="rotate(84.0 400 300)" cx="290" rx="390" cy="15" ry="348"></ellipse>
<rect stroke="#889DCB" stroke-width="1" fill="#262986" opacity="0.020445265396408393" stroke-opacity="0.8101580660658864" transform="rotate(22.0 400 300)" x="468" y="482" width="341" height="357"></rect>
<ellipse stroke="#CB4943" stroke-width="3" fill="#C0DC2B" opacity="0.9966979449276571" stroke-opacity="0.5609180077395238" transform="rotate(149.0 400 300)" cx="421" rx="87" cy="147" ry="150"></ellipse>
<polygon stroke="#713CDC" stroke-width="7" fill="#998643" opacity="0.9166675400969007" stroke-opacity="0.06920169936164038" transform="rotate(-94.0 400 300)" points="78 363 427 38 445 299 735 226 556 596 163 426 259 333 "></polygon>
<ellipse stroke="#56DAA6" stroke-width="4" fill="#037530" opacity="0.7330836071076194" stroke-opacity="0.4377133654185028" transform="rotate(153.0 400 300)" cx="140" rx="289" cy="157" ry="149"></ellipse>
<path stroke="#261890" stroke-width="2" fill="#47122D" opacity="0.9280883014072259" stroke-opacity="0.04444941273084545" transform="rotate(69.0 400 300)" d="M 294,351  C 192,194 598,174 416,243 C 293,258 221,498 564,130 C 133,228 121,375 599,264 C 223,269 163,159 326,155 C 526,294 193,411 625,123 Z"></path>
<path stroke="#219A42" stroke-width="6" fill="#87C036" opacity="0.12165487804622395" stroke-opacity="0.8849861976540552" transform="rotate(-11.0 400 300)" d="M 115,378  C 250,435 156,104 386,349 C 595,284 145,128 568,441 C 190,213 417,456 440,348 C 248,354 195,415 414,143 C 541,480 211,243 242,482 C 424,155 563,370 235,320 C 398,103 380,133 192,211 Z"></path>
<polygon stroke="#2CB316" stroke-width="6" fill="#96461C" opacity="0.9538513386855341" stroke-opacity="0.6274262689022533" transform="rotate(86.0 400 300)" points="546 46 223 223 765 341 316 560 314 570 55 205 20 32 475 190 "></polygon>
<path stroke="#76C722" stroke-width="3" fill="#51DCC5" opacity="0.25456349631947617" stroke-opacity="0.5935291768262493" transform="rotate(-13.0 400 300)" d="M 320,473  C 643,115 607,149 637,454 C 367,398 195,231 382,222 C 641,208 566,471 142,102 C 268,298 118,105 640,118 C 630,227 390,321 662,152 C 396,460 651,307 114,492 C 266,407 672,222 558,276 C 314,452 199,141 402,196 C 125,403 237,440 454,159 C 631,330 419,314 364,137 Z"></path>
<rect stroke="#8B1A31" stroke-width="3" fill="#DD113D" opacity="0.21411318675016047" stroke-opacity="0.5997430669502387" transform="rotate(-53.0 400 300)" x="576" y="373" width="190" height="154"></rect>

  </g>
</svg>
