<svg xmlns="http://www.w3.org/2000/svg" xmlns:xlink="http://www.w3.org/1999/xlink" width="800" height="600" version="1.1" viewBox="0 0 800 600"><g fill="none" fill-rule="evenodd" stroke="none" stroke-width="1"><polygon fill="#B50A53" stroke="#D4A5DD" stroke-opacity=".396" stroke-width="6" points="721 158 289 359 236 184 760 576 786 403" opacity=".017" transform="rotate(46.0 400 300)"/><ellipse cx="290" cy="15" fill="#DD6146" stroke="#569787" stroke-opacity=".484" stroke-width="7" opacity=".64" rx="390" ry="348" transform="rotate(84.0 400 300)"/><rect width="341" height="357" x="468" y="482" fill="#262986" stroke="#889DCB" stroke-opacity=".81" stroke-width="1" opacity=".02" transform="rotate(22.0 400 300)"/><ellipse cx="421" cy="147" fill="#C0DC2B" stroke="#CB4943" stroke-opacity=".561" stroke-width="3" opacity=".997" rx="87" ry="150" transform="rotate(149.0 400 300)"/><polygon fill="#998643" stroke="#713CDC" stroke-opacity=".069" stroke-width="7" points="78 363 427 38 445 299 735 226 556 596 163 426 259 333" opacity=".917" transform="rotate(-94.0 400 300)"/><ellipse cx="140" cy="157" fill="#037530" stroke="#56DAA6" stroke-opacity=".438" stroke-width="4" opacity=".733" rx="289" ry="149" transform="rotate(153.0 400 300)"/><path fill="#47122D" stroke="#261890" stroke-opacity=".044" stroke-width="2" d="M 294,351 C 192,194 598,174 416,243 C 293,258 221,498 564,130 C 133,228 121,375 599,264 C 223,269 163,159 326,155 C 526,294 193,411 625,123 Z" opacity=".928" transform="rotate(69.0 400 300)"/><path fill="#87C036" stroke="#219A42" stroke-opacity=".885" stroke-width="6" d="M 115,378 C 250,435 156,104 386,349 C 595,284 145,128 568,441 C 190,213 417,456 440,348 C 248,354 195,415 414,143 C 541,480 211,243 242,482 C 424,155 563,370 235,320 C 398,103 380,133 192,211 Z" opacity=".122" transform="rotate(-11.0 400 300)"/><polygon fill="#96461C" stroke="#2CB316" stroke-opacity=".627" stroke-width="6" points="546 46 223 223 765 341 316 560 314 570 55 205 20 32 475 190" opacity=".954" transform="rotate(86.0 400 300)"/><path fill="#51DCC5" stroke="#76C722" stroke-opacity=".594" stroke-width="3" d="M 320,473 C 643,115 607,149 637,454 C 367,398 195,231 382,222 C 641,208 566,471 142,102 C 268,298 118,105 640,118 C 630,227 390,321 662,152 C 396,460 651,307 114,492 C 266,407 672,222 558,276 C 314,452 199,141 402,196 C 125,403 237,440 454,159 C 631,330 419,314 364,137 Z" opacity=".255" transform="rotate(-13.0 400 300)"/><rect width="190" height="154" x="576" y="373" fill="#DD113D" stroke="#8B1A31" stroke-opacity=".6" stroke-width="3" opacity=".214" transform="rotate(-53.0 400 300)"/></g></svg>