<svg xmlns="http://www.w3.org/2000/svg" xmlns:xlink="http://www.w3.org/1999/xlink" width="800" height="600" version="1.1" viewBox="0 0 800 600"><g fill="none" fill-rule="evenodd" stroke="none" stroke-width="1"><path fill="#D8070A" stroke="#CD7A41" stroke-opacity=".002" stroke-width="7" d="M 361,122 C 505,350 484,480 211,471 C 165,204 301,401 565,282 C 317,300 491,448 262,119 C 358,449 296,305 237,381 C 564,374 215,391 145,405 C 156,251 426,403 159,119 C 346,465 158,244 677,345 C 569,432 129,254 576,356 C 489,336 379,248 153,251 C 189,277 471,308 523,163 C 211,448 420,350 593,432 Z" opacity=".224" transform="rotate(-150.0 400 300)"/><path fill="#050A54" stroke="#928B1B" stroke-opacity=".907" stroke-width="5" d="M 289,366 C 418,277 490,403 247,402 C 578,270 637,149 256,495 C 366,110 500,147 648,442 C 232,190 357,187 225,394 C 365,375 675,383 104,195 Z" opacity=".213" transform="rotate(-39.0 400 300)"/><path fill="#4D0CC4" stroke="#DDD917" stroke-opacity=".765" stroke-width="7" d="M 298,465 C 245,264 544,265 579,190 C 684,143 638,413 372,307 C 689,378 174,423 616,321 C 144,423 477,246 642,259 C 371,162 480,490 184,326 C 653,111 246,147 471,380 Z" opacity=".666" transform="rotate(152.0 400 300)"/><path fill="#5637B4" stroke="#0D4368" stroke-opacity=".35" stroke-width="1" d="M 627,483 C 329,442 608,363 415,396 C 218,111 563,346 572,205 C 146,143 114,130 457,392 C 159,416 356,161 657,191 Z" opacity=".322" transform="rotate(57.0 400 300)"/><path fill="#D43642" stroke="#AD20A3" stroke-opacity=".528" stroke-width="1" d="M 649,302 C 275,462 611,404 407,247 C 379,443 317,449 140,305 C 481,320 695,182 470,136 C 380,474 545,495 367,341 C 496,382 514,452 524,389 C 301,311 449,499 485,313 C 296,189 688,255 283,151 C 585,263 266,226 306,236 Z" opacity=".164" transform="rotate(97.0 400 300)"/><path fill="#091A66" stroke="#746997" stroke-opacity=".017" stroke-width="4" d="M 671,468 C 385,427 642,254 629,318 C 204,166 241,132 341,324 C 101,123 500,423 359,375 C 640,241 648,162 251,391 C 449,254 392,284 388,133 C 123,378 254,495 334,440 Z" opacity=".206" transform="rotate(-152.0 400 300)"/></g></svg>