<?xml version="1.0" encoding="UTF-8"?>
<svg width="800px" height="600px" viewBox="0 0 800 600" version="1.1" xmlns="http://www.w3.org/2000/svg" xmlns:xlink="http://www.w3.org/1999/xlink">
  <defs></defs>
  <g stroke="none" stroke-width="1" fill="none" fill-rule="evenodd">
    
    <path stroke="#2cd3f3" stroke-width="4" fill="#2cd3f3" opacity="0.14800881589380546" stroke-opacity="0.3575163818731938" transform="rotate(91.0 400 300)" d="M 146,128  C 118,307 281,302 273,159 C 249,368 660,357 366,173 C 655,460 575,277 384,201 C 214,441 174,240 258,329 Z"></path>
<path stroke="#2cd3f3" stroke-width="2" fill="#02eb6b" opacity="0.24357566972030956" stroke-opacity="0.6408972190662335" transform="rotate(30.0 400 300)" d="M 428,348  C 333,375 339,155 158,434 C 474,146 366,330 267,440 C 310,463 187,284 442,109 C 478,210 174,143 140,439 C 196,274 120,196 562,310 C 418,340 293,427 196,366 C 181,380 110,152 633,162 C 230,314 102,295 572,470 C 659,452 355,226 568,371 Z"></path>
<path stroke="#f559a0" stroke-width="5" fill="#02eb6b" opacity="0.38025303180334324" stroke-opacity="0.44084230347001346" transform="rotate(122.0 400 300)" d="M 347,474  C 129,129 376,118 135,484 C 280,446 672,490 636,421 C 326,104 301,399 110,143 C 558,453 481,289 117,432 Z"></path>
<path stroke="#0fa6d8" stroke-width="2" fill="#fe9225" opacity="0.08365767959779342" stroke-opacity="0.5357143529153087" transform="rotate(72.0 400 300)" d="M 396,401  C 572,418 685,347 228,151 C 566,157 549,320 392,243 C 578,358 365,493 667,163 C 360,277 350,497 312,392 Z"></path>
<path stroke="#f559a0" stroke-width="6" fill="#2cd3f3" opacity="0.04628673835394833" stroke-opacity="0.22016323519286207" transform="rotate(85.0 400 300)" d="M 174,416  C 530,355 239,335 171,219 C 112,324 156,450 583,448 C 225,357 523,469 261,351 C 423,264 103,236 197,399 C 319,460 146,105 104,480 C 125,277 194,402 617,376 Z"></path>
<path stroke="#0fa6d8" stroke-width="5" fill="#2cd3f3" opacity="0.390867268438404" stroke-opacity="0.0020267868212761127" transform="rotate(46.0 400 300)" d="M 586,129  C 564,333 458,499 490,181 C 638,302 474,178 600,446 C 576,114 275,219 492,304 C 210,381 622,255 432,415 C 598,344 622,233 179,407 C 351,307 136,458 315,313 C 334,114 425,467 476,303 C 519,431 517,356 135,403 Z"></path>
<path stroke="#fe9225" stroke-width="7" fill="#2cd3f3" opacity="0.27435047803094537" stroke-opacity="0.7681624562807908" transform="rotate(123.0 400 300)" d="M 259,163  C 515,258 231,250 338,125 C 386,398 384,258 136,124 C 177,454 603,171 501,365 C 182,386 458,226 190,168 C 660,406 354,300 633,368 C 564,244 317,263 678,416 Z"></path>
<path stroke="#f559a0" stroke-width="5" fill="#fe9225" opacity="0.7367981756179045" stroke-opacity="0.6114581795427063" transform="rotate(-91.0 400 300)" d="M 298,385  C 577,341 577,488 644,301 C 669,203 327,147 589,182 C 127,266 604,349 601,485 C 621,246 301,179 281,328 Z"></path>

  </g>
</svg>
