<svg xmlns="http://www.w3.org/2000/svg" xmlns:xlink="http://www.w3.org/1999/xlink" width="800" height="600" version="1.1" viewBox="0 0 800 600"><g fill="none" fill-rule="evenodd" stroke="none" stroke-width="1"><path fill="#2cd3f3" stroke="#2cd3f3" stroke-opacity=".358" stroke-width="4" d="M 146,128 C 118,307 281,302 273,159 C 249,368 660,357 366,173 C 655,460 575,277 384,201 C 214,441 174,240 258,329 Z" opacity=".148" transform="rotate(91.0 400 300)"/><path fill="#02eb6b" stroke="#2cd3f3" stroke-opacity=".641" stroke-width="2" d="M 428,348 C 333,375 339,155 158,434 C 474,146 366,330 267,440 C 310,463 187,284 442,109 C 478,210 174,143 140,439 C 196,274 120,196 562,310 C 418,340 293,427 196,366 C 181,380 110,152 633,162 C 230,314 102,295 572,470 C 659,452 355,226 568,371 Z" opacity=".244" transform="rotate(30.0 400 300)"/><path fill="#02eb6b" stroke="#f559a0" stroke-opacity=".441" stroke-width="5" d="M 347,474 C 129,129 376,118 135,484 C 280,446 672,490 636,421 C 326,104 301,399 110,143 C 558,453 481,289 117,432 Z" opacity=".38" transform="rotate(122.0 400 300)"/><path fill="#fe9225" stroke="#0fa6d8" stroke-opacity=".536" stroke-width="2" d="M 396,401 C 572,418 685,347 228,151 C 566,157 549,320 392,243 C 578,358 365,493 667,163 C 360,277 350,497 312,392 Z" opacity=".084" transform="rotate(72.0 400 300)"/><path fill="#2cd3f3" stroke="#f559a0" stroke-opacity=".22" stroke-width="6" d="M 174,416 C 530,355 239,335 171,219 C 112,324 156,450 583,448 C 225,357 523,469 261,351 C 423,264 103,236 197,399 C 319,460 146,105 104,480 C 125,277 194,402 617,376 Z" opacity=".046" transform="rotate(85.0 400 300)"/><path fill="#2cd3f3" stroke="#0fa6d8" stroke-opacity=".002" stroke-width="5" d="M 586,129 C 564,333 458,499 490,181 C 638,302 474,178 600,446 C 576,114 275,219 492,304 C 210,381 622,255 432,415 C 598,344 622,233 179,407 C 351,307 136,458 315,313 C 334,114 425,467 476,303 C 519,431 517,356 135,403 Z" opacity=".391" transform="rotate(46.0 400 300)"/><path fill="#2cd3f3" stroke="#fe9225" stroke-opacity=".768" stroke-width="7" d="M 259,163 C 515,258 231,250 338,125 C 386,398 384,258 136,124 C 177,454 603,171 501,365 C 182,386 458,226 190,168 C 660,406 354,300 633,368 C 564,244 317,263 678,416 Z" opacity=".274" transform="rotate(123.0 400 300)"/><path fill="#fe9225" stroke="#f559a0" stroke-opacity=".611" stroke-width="5" d="M 298,385 C 577,341 577,488 644,301 C 669,203 327,147 589,182 C 127,266 604,349 601,485 C 621,246 301,179 281,328 Z" opacity=".737" transform="rotate(-91.0 400 300)"/></g></svg>