<svg xmlns="http://www.w3.org/2000/svg" xmlns:xlink="http://www.w3.org/1999/xlink" width="800" height="600" version="1.1" viewBox="0 0 800 600"><g fill="none" fill-rule="evenodd" stroke="none" stroke-width="1"><path fill="#ed2b2c" stroke="#f9d84b" stroke-opacity=".168" stroke-width="1" d="M 539,265 C 552,179 481,390 247,360 C 582,371 586,258 208,181 C 569,170 692,212 327,176 C 526,137 553,122 426,403 C 660,334 148,477 433,342 Z" opacity=".695" transform="rotate(-159.0 400 300)"/><path fill="#2b55f7" stroke="#2b55f7" stroke-opacity=".467" stroke-width="2" d="M 313,259 C 516,454 560,277 657,350 C 506,306 323,101 383,243 C 310,170 596,211 191,454 C 244,335 411,248 365,301 C 244,195 362,103 131,197 C 396,373 202,408 302,470 C 491,265 697,102 354,139 C 327,321 117,138 576,356 C 164,207 371,434 594,377 C 146,196 519,110 317,280 C 429,467 372,360 177,262 Z" opacity=".709" transform="rotate(48.0 400 300)"/><path fill="#f27630" stroke="#f27630" stroke-opacity=".81" stroke-width="6" d="M 465,370 C 175,379 174,390 613,288 C 678,281 648,493 187,464 C 618,417 398,389 399,255 C 526,223 533,443 130,131 Z" opacity=".554" transform="rotate(40.0 400 300)"/><path fill="#ed2b2c" stroke="#2b55f7" stroke-opacity=".439" stroke-width="5" d="M 664,291 C 490,101 600,161 616,435 C 291,276 502,364 618,112 C 469,147 604,170 403,313 C 153,302 334,315 496,406 Z" opacity=".433" transform="rotate(-30.0 400 300)"/><path fill="#ed2b2c" stroke="#2b55f7" stroke-opacity=".92" stroke-width="2" d="M 671,330 C 124,233 223,454 172,219 C 546,209 356,399 168,473 C 283,132 493,134 132,352 C 391,206 444,376 460,482 C 221,376 396,219 568,329 C 322,269 343,225 584,438 C 201,270 279,392 492,422 C 557,172 294,351 666,371 C 478,195 540,464 128,174 Z" opacity=".143" transform="rotate(-174.0 400 300)"/><path fill="#f9d84b" stroke="#2b55f7" stroke-opacity=".56" stroke-width="7" d="M 518,169 C 360,400 641,318 531,321 C 549,393 549,211 252,314 C 405,240 596,104 169,409 C 697,486 222,180 157,342 C 474,116 564,481 597,498 Z" opacity=".826" transform="rotate(-103.0 400 300)"/></g></svg>