<svg xmlns="http://www.w3.org/2000/svg" xmlns:xlink="http://www.w3.org/1999/xlink" width="800" height="600" version="1.1" viewBox="0 0 800 600"><g fill="none" fill-rule="evenodd" stroke="none" stroke-width="1"><path fill="#f9d84b" stroke="#f27630" stroke-opacity=".976" stroke-width="3" d="M 168,120 C 462,256 421,465 302,234 C 282,407 264,259 393,177 C 315,352 425,449 503,204 C 290,207 567,483 334,217 C 617,366 300,206 195,406 C 621,133 474,492 517,456 C 515,221 278,378 509,139 Z" opacity=".613" transform="rotate(-35.0 400 300)"/><path fill="#31a06b" stroke="#ed2b2c" stroke-opacity=".129" stroke-width="2" d="M 538,189 C 179,167 616,364 318,489 C 348,124 679,496 169,433 C 450,424 427,271 697,432 C 695,327 181,395 241,107 C 461,129 571,218 472,426 C 444,322 466,404 663,431 C 521,475 190,174 253,139 C 637,331 312,167 268,447 C 295,289 317,434 493,187 Z" opacity=".356" transform="rotate(53.0 400 300)"/><path fill="#ed2b2c" stroke="#f9d84b" stroke-opacity=".095" stroke-width="5" d="M 427,154 C 616,420 579,410 443,357 C 684,444 449,141 182,278 C 647,302 251,476 485,237 C 205,333 372,267 658,332 C 417,389 264,347 598,153 C 191,429 157,160 385,399 C 134,467 340,498 371,336 C 565,471 475,156 331,447 C 152,183 617,298 331,123 Z" opacity=".043" transform="rotate(-70.0 400 300)"/><path fill="#ed2b2c" stroke="#f27630" stroke-opacity=".42" stroke-width="5" d="M 564,241 C 548,462 198,118 458,116 C 357,172 543,376 173,133 C 186,281 620,446 475,486 C 412,393 300,439 203,294 C 564,233 235,280 293,181 C 282,457 459,126 527,344 C 119,370 477,449 308,282 Z" opacity=".297" transform="rotate(-113.0 400 300)"/><path fill="#31a06b" stroke="#f27630" stroke-opacity=".404" stroke-width="1" d="M 372,256 C 598,204 613,204 518,114 C 489,396 588,378 369,217 C 274,107 321,390 543,232 C 441,103 523,194 399,182 C 157,368 674,456 183,277 C 247,310 205,383 325,282 C 101,401 398,427 692,303 C 333,343 548,297 190,446 C 508,158 123,351 194,450 Z" opacity=".653" transform="rotate(52.0 400 300)"/><path fill="#2b55f7" stroke="#2b55f7" stroke-opacity=".212" stroke-width="2" d="M 617,106 C 125,451 575,193 583,329 C 174,297 184,293 264,371 C 117,383 422,348 444,300 C 526,182 318,243 157,257 C 313,112 508,243 267,120 C 569,429 154,449 200,339 C 120,154 501,189 599,194 C 378,224 309,418 425,481 Z" opacity=".515" transform="rotate(32.0 400 300)"/><path fill="#ed2b2c" stroke="#f9d84b" stroke-opacity=".153" stroke-width="6" d="M 561,277 C 295,490 479,240 415,214 C 336,439 171,359 589,197 C 654,117 175,462 550,238 C 413,218 605,252 576,254 C 653,132 496,453 338,467 C 161,441 299,137 314,113 C 367,199 430,379 609,241 C 581,235 197,390 339,210 Z" opacity=".464" transform="rotate(115.0 400 300)"/></g></svg>