<?xml version="1.0" encoding="UTF-8"?>
<svg width="800px" height="600px" viewBox="0 0 800 600" version="1.1" xmlns="http://www.w3.org/2000/svg" xmlns:xlink="http://www.w3.org/1999/xlink">
  <defs></defs>
  <g stroke="none" stroke-width="1" fill="none" fill-rule="evenodd">
    
    <path stroke="#f559a0" stroke-width="2" fill="#fe9225" opacity="0.9918350094816645" stroke-opacity="0.04407858071013021" transform="rotate(160.0 400 300)" d="M 498,102  C 427,280 210,423 268,312 C 143,104 428,237 414,235 C 212,122 675,186 123,357 C 328,142 643,335 614,134 C 214,466 514,285 207,495 C 224,183 569,216 634,225 C 564,451 520,297 531,261 C 356,457 191,174 200,319 C 500,360 165,306 518,187 C 367,373 642,307 683,276 C 222,405 223,179 500,127 Z"></path>
<path stroke="#0fa6d8" stroke-width="4" fill="#f559a0" opacity="0.5469134298738848" stroke-opacity="0.046511817180593135" transform="rotate(134.0 400 300)" d="M 469,212  C 339,247 158,250 282,109 C 512,463 643,397 330,179 C 140,357 644,154 309,113 C 478,370 637,389 285,229 C 297,149 329,262 254,104 C 529,439 687,147 452,217 C 264,192 404,449 363,139 Z"></path>
<path stroke="#f559a0" stroke-width="7" fill="#02eb6b" opacity="0.43428204791189207" stroke-opacity="0.7077516682977161" transform="rotate(-172.0 400 300)" d="M 554,111  C 421,444 639,164 135,478 C 213,286 485,373 166,115 C 481,202 284,222 133,226 C 627,339 227,285 416,338 C 418,311 636,241 581,209 C 183,453 373,198 201,489 C 659,179 448,278 203,381 C 684,398 634,457 194,280 C 189,431 265,384 592,117 C 674,322 561,184 276,302 Z"></path>
<path stroke="#02eb6b" stroke-width="3" fill="#f559a0" opacity="0.18710668412142842" stroke-opacity="0.036411051817891345" transform="rotate(-155.0 400 300)" d="M 457,111  C 495,180 269,180 247,379 C 472,400 213,397 253,260 C 233,241 626,420 680,220 C 363,304 179,140 148,109 Z"></path>
<path stroke="#fe9225" stroke-width="6" fill="#0fa6d8" opacity="0.6575567348116558" stroke-opacity="0.052753518294740884" transform="rotate(-80.0 400 300)" d="M 218,145  C 183,179 343,230 275,201 C 187,149 210,378 539,318 C 339,300 604,320 616,500 C 621,261 447,114 280,277 C 654,387 207,119 221,176 Z"></path>
<path stroke="#fe9225" stroke-width="1" fill="#2cd3f3" opacity="0.7448585384748047" stroke-opacity="0.5012940761437877" transform="rotate(-110.0 400 300)" d="M 577,180  C 300,226 157,316 528,388 C 645,454 554,451 518,277 C 255,305 581,379 143,425 C 616,476 528,330 609,379 C 485,164 510,180 216,342 C 234,397 534,344 697,294 C 133,205 364,129 308,465 C 148,317 289,187 174,376 C 603,169 534,338 101,102 C 265,288 299,336 322,399 C 644,128 536,201 692,340 Z"></path>
<path stroke="#f559a0" stroke-width="2" fill="#0fa6d8" opacity="0.7534288917476543" stroke-opacity="0.2289015401501733" transform="rotate(104.0 400 300)" d="M 383,214  C 452,442 660,198 482,131 C 180,368 669,156 648,192 C 413,479 119,478 471,369 C 199,242 478,375 627,187 C 419,436 137,350 425,346 C 677,365 670,437 617,198 C 467,238 591,113 354,282 C 676,362 567,465 390,157 Z"></path>
<path stroke="#0fa6d8" stroke-width="4" fill="#02eb6b" opacity="0.18641623687757664" stroke-opacity="0.36254498401216806" transform="rotate(-152.0 400 300)" d="M 149,367  C 481,344 131,351 618,429 C 303,426 599,484 551,446 C 236,139 109,483 165,309 C 187,125 323,445 299,176 C 227,324 217,112 616,489 C 336,139 615,441 675,228 C 585,459 567,139 655,331 C 674,136 505,127 559,393 Z"></path>

  </g>
</svg>
