<?xml version="1.0" encoding="UTF-8"?>
<svg width="800px" height="600px" viewBox="0 0 800 600" version="1.1" xmlns="http://www.w3.org/2000/svg" xmlns:xlink="http://www.w3.org/1999/xlink">
  <defs></defs>
  <g stroke="none" stroke-width="1" fill="none" fill-rule="evenodd">
    
    <path stroke="#fe9225" stroke-width="1" fill="#2cd3f3" opacity="0.5005263458315296" stroke-opacity="0.1554776022727041" transform="rotate(79.0 400 300)" d="M 514,117  C 488,313 229,137 448,114 C 388,328 230,481 581,433 C 148,479 132,379 539,146 C 610,241 484,453 651,113 Z"></path>
<path stroke="#fe9225" stroke-width="3" fill="#fe9225" opacity="0.12543112408323084" stroke-opacity="0.621055027144097" transform="rotate(-120.0 400 300)" d="M 586,173  C 693,376 227,113 364,140 C 559,243 479,302 177,120 C 420,348 212,388 280,242 C 353,446 347,271 363,430 C 390,356 678,200 373,413 Z"></path>
<path stroke="#0fa6d8" stroke-width="4" fill="#f559a0" opacity="0.4357601794955421" stroke-opacity="0.34174655506265045" transform="rotate(88.0 400 300)" d="M 372,206  C 592,204 670,176 498,473 C 485,399 234,461 607,481 C 335,327 182,153 694,432 C 540,465 459,357 482,216 C 507,117 509,195 274,247 C 581,261 494,241 423,294 Z"></path>
<path stroke="#fe9225" stroke-width="6" fill="#f559a0" opacity="0.6501205551471427" stroke-opacity="0.7206294247290257" transform="rotate(176.0 400 300)" d="M 568,334  C 461,198 523,393 537,420 C 515,217 116,237 536,463 C 490,489 315,270 579,394 C 444,205 423,395 577,197 C 446,269 483,241 390,231 C 357,205 203,451 271,173 C 323,352 114,336 330,363 C 151,378 425,102 257,218 C 695,227 183,173 677,310 C 417,477 549,477 157,219 C 451,404 118,421 386,374 Z"></path>
<path stroke="#f559a0" stroke-width="3" fill="#f559a0" opacity="0.8348213179775406" stroke-opacity="0.7170691284761365" transform="rotate(-112.0 400 300)" d="M 607,289  C 624,346 237,468 146,269 C 382,420 337,299 672,326 C 183,385 411,274 496,207 C 267,321 110,331 687,485 C 273,383 355,160 680,203 Z"></path>
<path stroke="#f559a0" stroke-width="7" fill="#2cd3f3" opacity="0.44066859939131553" stroke-opacity="0.8253302075771708" transform="rotate(123.0 400 300)" d="M 485,120  C 403,268 671,364 655,389 C 469,341 520,227 288,163 C 120,405 322,252 361,334 C 144,467 581,486 568,439 C 404,140 604,414 371,242 C 243,162 286,387 497,243 C 280,430 540,265 512,106 Z"></path>
<path stroke="#02eb6b" stroke-width="5" fill="#fe9225" opacity="0.5463033532890657" stroke-opacity="0.16963538296563627" transform="rotate(-123.0 400 300)" d="M 676,272  C 149,462 629,134 294,471 C 167,220 324,290 688,182 C 654,404 431,129 632,262 C 552,374 283,425 286,315 Z"></path>
<path stroke="#f559a0" stroke-width="3" fill="#0fa6d8" opacity="0.3677733112034231" stroke-opacity="0.8241480425161081" transform="rotate(-70.0 400 300)" d="M 383,203  C 700,220 691,346 565,328 C 368,339 274,261 141,154 C 636,349 266,123 471,150 C 174,121 412,110 304,325 C 389,116 697,317 327,296 C 115,380 287,404 398,306 C 257,128 129,290 638,479 C 436,436 152,349 539,229 C 105,433 131,327 388,474 C 509,129 336,309 220,489 C 510,412 357,337 498,188 Z"></path>
<path stroke="#f559a0" stroke-width="1" fill="#2cd3f3" opacity="0.4595663691447863" stroke-opacity="0.6824049203210041" transform="rotate(-106.0 400 300)" d="M 433,450  C 648,428 616,125 471,297 C 301,474 698,417 339,142 C 259,209 181,268 602,452 C 570,446 537,476 608,326 C 164,287 115,333 186,232 C 434,151 387,360 284,107 C 319,261 144,335 679,335 C 269,150 656,353 563,379 C 112,177 382,389 333,288 C 623,125 252,274 182,322 Z"></path>

  </g>
</svg>
