<svg xmlns="http://www.w3.org/2000/svg" xmlns:xlink="http://www.w3.org/1999/xlink" width="800" height="600" version="1.1" viewBox="0 0 800 600"><g fill="none" fill-rule="evenodd" stroke="none" stroke-width="1"><path fill="#2b55f7" stroke="#f9d84b" stroke-opacity=".43" stroke-width="4" d="M 297,427 C 618,190 437,136 560,382 C 367,192 151,245 607,175 C 192,455 604,335 269,102 C 514,248 533,462 358,293 C 457,230 582,238 398,326 C 333,255 452,300 667,375 C 373,327 305,414 114,313 C 676,427 404,320 608,452 C 336,193 448,168 292,294 Z" opacity=".991" transform="rotate(170.0 400 300)"/><path fill="#2b55f7" stroke="#31a06b" stroke-opacity=".151" stroke-width="1" d="M 264,185 C 340,462 595,474 214,326 C 676,347 296,366 385,106 C 563,373 455,259 151,473 C 472,156 301,460 115,315 C 679,301 607,433 263,194 Z" opacity=".587" transform="rotate(-103.0 400 300)"/><path fill="#2b55f7" stroke="#f9d84b" stroke-opacity=".567" stroke-width="6" d="M 482,457 C 538,173 211,417 232,138 C 213,287 309,480 398,205 C 525,129 371,244 566,386 C 418,232 518,262 593,457 Z" opacity=".129" transform="rotate(-42.0 400 300)"/><path fill="#31a06b" stroke="#ed2b2c" stroke-opacity=".458" stroke-width="6" d="M 308,407 C 257,318 591,336 427,145 C 474,466 628,199 452,492 C 121,438 444,302 233,144 C 356,156 323,191 170,351 Z" opacity=".346" transform="rotate(84.0 400 300)"/><path fill="#2b55f7" stroke="#2b55f7" stroke-opacity=".804" stroke-width="1" d="M 444,117 C 229,178 464,110 127,470 C 349,142 302,419 562,429 C 296,356 270,360 599,373 C 548,367 127,487 435,469 C 582,459 157,413 333,417 C 437,328 612,338 366,120 C 303,343 580,319 130,211 C 477,269 453,487 385,294 C 354,380 250,216 480,297 C 198,136 617,466 119,330 C 506,409 184,295 384,356 Z" opacity=".387" transform="rotate(-145.0 400 300)"/><path fill="#31a06b" stroke="#31a06b" stroke-opacity=".87" stroke-width="6" d="M 656,320 C 442,156 197,404 368,149 C 551,397 544,172 395,355 C 404,372 238,499 403,436 C 158,389 379,343 654,157 C 114,481 175,500 563,448 C 403,242 485,164 307,244 Z" opacity=".795" transform="rotate(-149.0 400 300)"/><path fill="#31a06b" stroke="#ed2b2c" stroke-opacity=".964" stroke-width="3" d="M 666,259 C 218,427 686,330 131,495 C 397,382 326,377 645,158 C 523,220 261,435 545,426 C 419,131 681,500 495,405 C 314,430 674,183 259,211 C 379,247 681,285 243,156 Z" opacity=".99" transform="rotate(132.0 400 300)"/><path fill="#f27630" stroke="#f27630" stroke-opacity=".705" stroke-width="2" d="M 640,214 C 321,193 135,468 487,484 C 200,108 653,416 607,275 C 168,315 272,323 472,484 C 381,333 106,256 400,159 C 696,427 316,298 585,222 C 687,112 656,208 687,191 Z" opacity=".229" transform="rotate(48.0 400 300)"/><path fill="#f27630" stroke="#f27630" stroke-opacity=".23" stroke-width="5" d="M 188,352 C 123,176 341,105 583,338 C 127,433 378,421 427,275 C 166,495 287,206 239,181 C 253,225 548,216 699,460 C 258,492 465,131 629,195 Z" opacity=".547" transform="rotate(54.0 400 300)"/><path fill="#f9d84b" stroke="#2b55f7" stroke-opacity=".759" stroke-width="3" d="M 377,487 C 114,288 191,458 411,242 C 449,215 503,426 669,119 C 667,495 576,187 396,248 C 555,233 284,161 183,115 C 272,103 362,265 543,281 C 514,255 458,195 506,259 C 202,187 132,330 165,474 C 148,233 366,476 503,114 C 318,281 384,222 646,354 C 186,490 125,228 502,225 Z" opacity=".164" transform="rotate(-117.0 400 300)"/><path fill="#31a06b" stroke="#f27630" stroke-opacity=".846" stroke-width="3" d="M 581,267 C 667,382 366,346 147,239 C 462,359 654,153 165,277 C 477,145 635,415 356,457 C 541,198 509,217 349,480 C 464,414 146,231 432,211 C 534,417 584,227 247,212 C 544,442 244,340 420,339 C 249,303 250,355 434,273 C 267,493 575,491 465,297 C 434,107 517,214 433,455 C 122,185 587,363 615,488 Z" opacity=".405" transform="rotate(74.0 400 300)"/></g></svg>