<svg xmlns="http://www.w3.org/2000/svg" xmlns:xlink="http://www.w3.org/1999/xlink" width="800" height="600" version="1.1" viewBox="0 0 800 600"><g fill="none" fill-rule="evenodd" stroke="none" stroke-width="1"><path fill="#2cd3f3" stroke="#02eb6b" stroke-opacity=".338" stroke-width="7" d="M 610,339 C 397,492 279,236 199,280 C 273,311 103,331 562,229 C 290,464 115,356 557,295 C 331,204 389,152 336,180 C 583,248 522,101 567,124 C 679,290 265,342 407,196 Z" opacity=".27" transform="rotate(97.0 400 300)"/><rect width="239" height="394" x="268" y="430" fill="#fe9225" stroke="#0fa6d8" stroke-opacity=".548" stroke-width="2" opacity=".97" transform="rotate(99.0 400 300)"/><polygon fill="#fe9225" stroke="#2cd3f3" stroke-opacity=".935" stroke-width="6" points="305 460 117 30 676 534 645 526 775 127 278 286 638 111 434 255" opacity=".933" transform="rotate(-175.0 400 300)"/><path fill="#2cd3f3" stroke="#02eb6b" stroke-opacity=".171" stroke-width="4" d="M 269,320 C 269,431 507,415 528,281 C 211,389 211,216 526,204 C 470,341 280,219 246,345 C 632,103 194,388 657,381 C 628,297 665,328 452,255 C 321,153 236,462 350,200 C 592,428 596,375 674,303 C 313,155 518,350 529,210 C 565,421 421,248 565,130 C 680,269 540,248 666,455 C 619,433 333,336 323,377 Z" opacity=".6" transform="rotate(-143.0 400 300)"/><path fill="#2cd3f3" stroke="#fe9225" stroke-opacity=".258" stroke-width="1" d="M 593,209 C 356,125 303,240 628,116 C 403,116 319,360 486,269 C 558,285 460,475 111,392 C 491,148 411,257 425,455 C 362,484 499,127 589,311 C 164,133 569,455 423,124 C 607,400 445,396 651,197 C 570,439 695,259 229,157 C 697,131 510,151 547,442 C 425,210 566,194 213,231 C 620,231 377,367 359,300 Z" opacity=".297" transform="rotate(175.0 400 300)"/><polygon fill="#02eb6b" stroke="#f559a0" stroke-opacity=".228" stroke-width="4" points="304 380 372 17 172 498 441 149 196 476" opacity=".552" transform="rotate(157.0 400 300)"/></g></svg>