<?xml version="1.0" encoding="UTF-8"?>
<svg width="800px" height="600px" viewBox="0 0 800 600" version="1.1" xmlns="http://www.w3.org/2000/svg" xmlns:xlink="http://www.w3.org/1999/xlink">
  <defs></defs>
  <g stroke="none" stroke-width="1" fill="none" fill-rule="evenodd">
    
    <rect stroke="#C31600" stroke-width="2" fill="#874CC5" opacity="0.46316652961497107" stroke-opacity="0.13515473475360712" transform="rotate(-157.0 400 300)" x="415" y="371" width="45" height="21"></rect>
<ellipse stroke="#677410" stroke-width="7" fill="#3292D4" opacity="0.09980081021063858" stroke-opacity="0.3346369422150542" transform="rotate(112.0 400 300)" cx="786" rx="378" cy="49" ry="243"></ellipse>
<rect stroke="#024D07" stroke-width="6" fill="#6A62D5" opacity="0.042196176538560795" stroke-opacity="0.6073787146402239" transform="rotate(-83.0 400 300)" x="332" y="156" width="318" height="314"></rect>
<polygon stroke="#DAC164" stroke-width="6" fill="#3A3D7A" opacity="0.34244282422601174" stroke-opacity="0.18897266937009718" transform="rotate(134.0 400 300)" points="358 458 156 189 239 189 505 118 146 246 95 524 286 425 239 62 "></polygon>
<path stroke="#45983D" stroke-width="2" fill="#6BB357" opacity="0.5008357363632082" stroke-opacity="0.2964776363721423" transform="rotate(135.0 400 300)" d="M 522,313  C 339,492 191,203 295,103 C 564,299 345,258 463,347 C 265,199 141,394 307,449 C 177,462 548,331 277,196 C 156,400 618,361 333,439 C 188,303 467,285 271,251 C 199,367 453,209 506,113 C 546,283 126,380 535,255 C 407,137 315,339 274,291 C 281,421 421,332 254,438 Z"></path>
<path stroke="#653A75" stroke-width="6" fill="#173945" opacity="0.2422487245014829" stroke-opacity="0.9331866224755122" transform="rotate(-68.0 400 300)" d="M 188,477  C 691,160 380,274 205,421 C 277,294 390,262 175,487 C 334,146 260,114 502,462 C 217,405 629,367 635,484 C 594,122 305,388 319,243 C 407,221 344,454 302,346 C 311,465 287,471 612,435 Z"></path>
<rect stroke="#1201C3" stroke-width="6" fill="#1680CC" opacity="0.15633921030016587" stroke-opacity="0.5995234498345926" transform="rotate(27.0 400 300)" x="191" y="390" width="212" height="102"></rect>

  </g>
</svg>
