<svg xmlns="http://www.w3.org/2000/svg" xmlns:xlink="http://www.w3.org/1999/xlink" width="800" height="600" version="1.1" viewBox="0 0 800 600"><g fill="none" fill-rule="evenodd" stroke="none" stroke-width="1"><rect width="45" height="21" x="415" y="371" fill="#874CC5" stroke="#C31600" stroke-opacity=".135" stroke-width="2" opacity=".463" transform="rotate(-157.0 400 300)"/><ellipse cx="786" cy="49" fill="#3292D4" stroke="#677410" stroke-opacity=".335" stroke-width="7" opacity=".1" rx="378" ry="243" transform="rotate(112.0 400 300)"/><rect width="318" height="314" x="332" y="156" fill="#6A62D5" stroke="#024D07" stroke-opacity=".607" stroke-width="6" opacity=".042" transform="rotate(-83.0 400 300)"/><polygon fill="#3A3D7A" stroke="#DAC164" stroke-opacity=".189" stroke-width="6" points="358 458 156 189 239 189 505 118 146 246 95 524 286 425 239 62" opacity=".342" transform="rotate(134.0 400 300)"/><path fill="#6BB357" stroke="#45983D" stroke-opacity=".296" stroke-width="2" d="M 522,313 C 339,492 191,203 295,103 C 564,299 345,258 463,347 C 265,199 141,394 307,449 C 177,462 548,331 277,196 C 156,400 618,361 333,439 C 188,303 467,285 271,251 C 199,367 453,209 506,113 C 546,283 126,380 535,255 C 407,137 315,339 274,291 C 281,421 421,332 254,438 Z" opacity=".501" transform="rotate(135.0 400 300)"/><path fill="#173945" stroke="#653A75" stroke-opacity=".933" stroke-width="6" d="M 188,477 C 691,160 380,274 205,421 C 277,294 390,262 175,487 C 334,146 260,114 502,462 C 217,405 629,367 635,484 C 594,122 305,388 319,243 C 407,221 344,454 302,346 C 311,465 287,471 612,435 Z" opacity=".242" transform="rotate(-68.0 400 300)"/><rect width="212" height="102" x="191" y="390" fill="#1680CC" stroke="#1201C3" stroke-opacity=".6" stroke-width="6" opacity=".156" transform="rotate(27.0 400 300)"/></g></svg>