<svg xmlns="http://www.w3.org/2000/svg" xmlns:xlink="http://www.w3.org/1999/xlink" width="800" height="600" version="1.1" viewBox="0 0 800 600"><g fill="none" fill-rule="evenodd" stroke="none" stroke-width="1"><polygon fill="#D7BA75" stroke="#49D5B5" stroke-opacity=".718" stroke-width="2" points="785 531 246 93 403 298 191 404 528 147 541 367 308 302" opacity=".4" transform="rotate(-144.0 400 300)"/><rect width="46" height="117" x="428" y="555" fill="#329D60" stroke="#4A0522" stroke-opacity=".636" stroke-width="6" opacity=".714" transform="rotate(60.0 400 300)"/><polygon fill="#4725C7" stroke="#413634" stroke-opacity=".235" stroke-width="7" points="310 562 465 316 25 419 280 299 730 303 609 265" opacity=".833" transform="rotate(76.0 400 300)"/><path fill="#4C5A63" stroke="#4D91D7" stroke-opacity=".294" stroke-width="7" d="M 106,124 C 690,465 553,246 607,476 C 548,257 362,371 426,405 C 119,386 690,288 387,453 C 192,257 663,395 126,356 C 387,185 294,261 428,442 C 158,189 231,105 590,158 C 658,285 162,218 283,123 Z" opacity=".994" transform="rotate(123.0 400 300)"/><rect width="189" height="111" x="125" y="565" fill="#A911C8" stroke="#11B6D3" stroke-opacity=".22" stroke-width="4" opacity=".981" transform="rotate(30.0 400 300)"/><path fill="#BD6198" stroke="#892DDC" stroke-opacity=".754" stroke-width="4" d="M 177,419 C 621,391 326,239 401,476 C 169,319 331,114 603,352 C 555,343 573,197 280,473 C 403,293 374,342 111,378 Z" opacity=".961" transform="rotate(-109.0 400 300)"/><ellipse cx="601" cy="325" fill="#7DBC00" stroke="#1C6301" stroke-opacity=".898" stroke-width="3" opacity=".859" rx="106" ry="346" transform="rotate(-113.0 400 300)"/></g></svg>