<svg xmlns="http://www.w3.org/2000/svg" xmlns:xlink="http://www.w3.org/1999/xlink" width="800" height="600" version="1.1" viewBox="0 0 800 600"><g fill="none" fill-rule="evenodd" stroke="none" stroke-width="1"><rect width="116" height="214" x="624" y="539" fill="#B3A901" stroke="#9A580A" stroke-opacity=".243" stroke-width="7" opacity=".369" transform="rotate(149.0 400 300)"/><ellipse cx="177" cy="116" fill="#5754CD" stroke="#066D95" stroke-opacity=".333" stroke-width="7" opacity=".911" rx="367" ry="349" transform="rotate(119.0 400 300)"/><path fill="#B53184" stroke="#3630DC" stroke-opacity=".528" stroke-width="4" d="M 473,422 C 582,383 249,220 508,333 C 680,264 663,357 178,397 C 223,296 430,109 581,140 C 208,235 551,147 326,238 C 172,113 283,342 453,293 C 317,183 451,319 357,170 C 320,271 460,466 589,361 C 123,352 261,345 381,474 C 260,263 147,317 111,448 Z" opacity=".811" transform="rotate(-101.0 400 300)"/><polygon fill="#D46A64" stroke="#7329C7" stroke-opacity=".629" stroke-width="3" points="591 258 248 357 57 75 530 548 219 48 346 52 346 28" opacity=".926" transform="rotate(61.0 400 300)"/><rect width="60" height="180" x="461" y="222" fill="#3C41D4" stroke="#A97433" stroke-opacity=".276" stroke-width="3" opacity=".38" transform="rotate(168.0 400 300)"/><path fill="#029CCD" stroke="#7A9B14" stroke-opacity=".671" stroke-width="3" d="M 480,299 C 614,117 204,154 628,383 C 352,440 671,133 487,346 C 236,175 676,148 678,223 C 483,335 278,405 694,450 C 267,399 247,145 522,408 C 647,364 669,336 107,242 C 475,412 429,149 582,153 C 149,218 110,390 300,407 C 132,186 546,217 514,416 C 549,132 460,200 240,370 Z" opacity=".417" transform="rotate(-122.0 400 300)"/><ellipse cx="738" cy="108" fill="#177762" stroke="#367A16" stroke-opacity=".42" stroke-width="6" opacity=".485" rx="178" ry="154" transform="rotate(-26.0 400 300)"/><ellipse cx="58" cy="287" fill="#C6C598" stroke="#B56198" stroke-opacity=".45" stroke-width="2" opacity=".499" rx="437" ry="222" transform="rotate(-92.0 400 300)"/><path fill="#158B5C" stroke="#C47B93" stroke-opacity=".164" stroke-width="1" d="M 417,248 C 611,355 112,486 168,270 C 348,198 303,212 381,153 C 318,187 431,207 626,201 C 168,175 640,416 616,413 C 161,232 483,477 145,317 C 146,481 633,136 547,409 C 547,153 600,400 339,355 C 493,496 457,233 489,454 C 325,451 269,362 455,317 Z" opacity=".582" transform="rotate(52.0 400 300)"/></g></svg>