<?xml version="1.0" encoding="UTF-8"?>
<svg width="800px" height="600px" viewBox="0 0 800 600" version="1.1" xmlns="http://www.w3.org/2000/svg" xmlns:xlink="http://www.w3.org/1999/xlink">
  <defs></defs>
  <g stroke="none" stroke-width="1" fill="none" fill-rule="evenodd">
    
    <rect stroke="#9A580A" stroke-width="7" fill="#B3A901" opacity="0.36905804631933925" stroke-opacity="0.24263382880142334" transform="rotate(149.0 400 300)" x="624" y="539" width="116" height="214"></rect>
<ellipse stroke="#066D95" stroke-width="7" fill="#5754CD" opacity="0.9112202910500966" stroke-opacity="0.33270125905540043" transform="rotate(119.0 400 300)" cx="177" rx="367" cy="116" ry="349"></ellipse>
<path stroke="#3630DC" stroke-width="4" fill="#B53184" opacity="0.811320361072104" stroke-opacity="0.5281806800252569" transform="rotate(-101.0 400 300)" d="M 473,422  C 582,383 249,220 508,333 C 680,264 663,357 178,397 C 223,296 430,109 581,140 C 208,235 551,147 326,238 C 172,113 283,342 453,293 C 317,183 451,319 357,170 C 320,271 460,466 589,361 C 123,352 261,345 381,474 C 260,263 147,317 111,448 Z"></path>
<polygon stroke="#7329C7" stroke-width="3" fill="#D46A64" opacity="0.9256573570590307" stroke-opacity="0.6293574922520511" transform="rotate(61.0 400 300)" points="591 258 248 357 57 75 530 548 219 48 346 52 346 28 "></polygon>
<rect stroke="#A97433" stroke-width="3" fill="#3C41D4" opacity="0.3802031548206464" stroke-opacity="0.2761149321928252" transform="rotate(168.0 400 300)" x="461" y="222" width="60" height="180"></rect>
<path stroke="#7A9B14" stroke-width="3" fill="#029CCD" opacity="0.4171446872199087" stroke-opacity="0.671221189562667" transform="rotate(-122.0 400 300)" d="M 480,299  C 614,117 204,154 628,383 C 352,440 671,133 487,346 C 236,175 676,148 678,223 C 483,335 278,405 694,450 C 267,399 247,145 522,408 C 647,364 669,336 107,242 C 475,412 429,149 582,153 C 149,218 110,390 300,407 C 132,186 546,217 514,416 C 549,132 460,200 240,370 Z"></path>
<ellipse stroke="#367A16" stroke-width="6" fill="#177762" opacity="0.4851490116604731" stroke-opacity="0.42035520088621625" transform="rotate(-26.0 400 300)" cx="738" rx="178" cy="108" ry="154"></ellipse>
<ellipse stroke="#B56198" stroke-width="2" fill="#C6C598" opacity="0.4990322481715043" stroke-opacity="0.45027399337382684" transform="rotate(-92.0 400 300)" cx="58" rx="437" cy="287" ry="222"></ellipse>
<path stroke="#C47B93" stroke-width="1" fill="#158B5C" opacity="0.5819824872759911" stroke-opacity="0.16388295942428036" transform="rotate(52.0 400 300)" d="M 417,248  C 611,355 112,486 168,270 C 348,198 303,212 381,153 C 318,187 431,207 626,201 C 168,175 640,416 616,413 C 161,232 483,477 145,317 C 146,481 633,136 547,409 C 547,153 600,400 339,355 C 493,496 457,233 489,454 C 325,451 269,362 455,317 Z"></path>

  </g>
</svg>
