<?xml version="1.0" encoding="UTF-8"?>
<svg width="800px" height="600px" viewBox="0 0 800 600" version="1.1" xmlns="http://www.w3.org/2000/svg" xmlns:xlink="http://www.w3.org/1999/xlink">
  <defs></defs>
  <g stroke="none" stroke-width="1" fill="none" fill-rule="evenodd">
    
    <path stroke="#13B439" stroke-width="1" fill="#CAD9C3" opacity="0.14504224713214728" stroke-opacity="0.2959713327331076" transform="rotate(99.0 400 300)" d="M 187,279  C 294,494 590,467 210,158 C 495,236 654,462 529,346 C 148,146 168,254 533,125 C 173,394 113,267 569,488 C 464,334 653,261 104,182 C 405,408 503,471 602,460 C 352,340 400,290 594,451 Z"></path>
<rect stroke="#9A76D7" stroke-width="5" fill="#97A849" opacity="0.924016296209463" stroke-opacity="0.33901499401021856" transform="rotate(147.0 400 300)" x="210" y="586" width="287" height="333"></rect>
<ellipse stroke="#CD8371" stroke-width="7" fill="#20DBD9" opacity="0.6940669457356622" stroke-opacity="0.49828267538432497" transform="rotate(149.0 400 300)" cx="571" rx="134" cy="175" ry="81"></ellipse>
<polygon stroke="#2A1052" stroke-width="5" fill="#9DA91D" opacity="0.39115881369763145" stroke-opacity="0.6238252297238731" transform="rotate(-76.0 400 300)" points="138 440 189 530 67 577 750 503 198 203 "></polygon>
<polygon stroke="#8ADD27" stroke-width="5" fill="#9A72AC" opacity="0.3933551757379755" stroke-opacity="0.3814650834392409" transform="rotate(-146.0 400 300)" points="421 197 566 267 620 328 592 273 63 207 591 149 368 58 566 13 "></polygon>
<rect stroke="#38CC04" stroke-width="1" fill="#840355" opacity="0.5602899683785301" stroke-opacity="0.7191228813626807" transform="rotate(137.0 400 300)" x="402" y="414" width="181" height="203"></rect>
<path stroke="#424757" stroke-width="7" fill="#723392" opacity="0.6862401664908009" stroke-opacity="0.10086412251463184" transform="rotate(-34.0 400 300)" d="M 405,288  C 494,311 375,145 671,149 C 187,490 220,298 318,448 C 427,355 175,476 135,107 C 258,354 257,142 462,388 C 365,297 494,356 496,411 C 488,480 625,106 523,170 C 523,131 543,439 507,317 C 152,280 203,192 572,309 C 171,450 685,441 697,184 C 305,309 620,368 356,154 C 248,411 221,411 691,434 Z"></path>
<polygon stroke="#A10774" stroke-width="7" fill="#91B23B" opacity="0.2283237426719635" stroke-opacity="0.7111195553052704" transform="rotate(130.0 400 300)" points="632 417 649 276 552 491 717 190 778 110 463 455 "></polygon>
<path stroke="#9A8308" stroke-width="4" fill="#D02CA5" opacity="0.5893946044228578" stroke-opacity="0.5221200352356912" transform="rotate(97.0 400 300)" d="M 631,461  C 663,324 297,156 232,455 C 673,286 450,326 440,379 C 699,285 176,283 183,132 C 588,327 361,331 601,317 C 640,482 262,303 558,236 C 285,394 427,437 528,131 C 194,112 541,178 360,139 C 214,433 209,413 544,119 C 540,452 109,482 263,160 Z"></path>
<rect stroke="#501795" stroke-width="7" fill="#569015" opacity="0.8926070298997546" stroke-opacity="0.9780503947607352" transform="rotate(-160.0 400 300)" x="759" y="117" width="308" height="171"></rect>

  </g>
</svg>
