<svg xmlns="http://www.w3.org/2000/svg" xmlns:xlink="http://www.w3.org/1999/xlink" width="800" height="600" version="1.1" viewBox="0 0 800 600"><g fill="none" fill-rule="evenodd" stroke="none" stroke-width="1"><path fill="#CAD9C3" stroke="#13B439" stroke-opacity=".296" stroke-width="1" d="M 187,279 C 294,494 590,467 210,158 C 495,236 654,462 529,346 C 148,146 168,254 533,125 C 173,394 113,267 569,488 C 464,334 653,261 104,182 C 405,408 503,471 602,460 C 352,340 400,290 594,451 Z" opacity=".145" transform="rotate(99.0 400 300)"/><rect width="287" height="333" x="210" y="586" fill="#97A849" stroke="#9A76D7" stroke-opacity=".339" stroke-width="5" opacity=".924" transform="rotate(147.0 400 300)"/><ellipse cx="571" cy="175" fill="#20DBD9" stroke="#CD8371" stroke-opacity=".498" stroke-width="7" opacity=".694" rx="134" ry="81" transform="rotate(149.0 400 300)"/><polygon fill="#9DA91D" stroke="#2A1052" stroke-opacity=".624" stroke-width="5" points="138 440 189 530 67 577 750 503 198 203" opacity=".391" transform="rotate(-76.0 400 300)"/><polygon fill="#9A72AC" stroke="#8ADD27" stroke-opacity=".381" stroke-width="5" points="421 197 566 267 620 328 592 273 63 207 591 149 368 58 566 13" opacity=".393" transform="rotate(-146.0 400 300)"/><rect width="181" height="203" x="402" y="414" fill="#840355" stroke="#38CC04" stroke-opacity=".719" stroke-width="1" opacity=".56" transform="rotate(137.0 400 300)"/><path fill="#723392" stroke="#424757" stroke-opacity=".101" stroke-width="7" d="M 405,288 C 494,311 375,145 671,149 C 187,490 220,298 318,448 C 427,355 175,476 135,107 C 258,354 257,142 462,388 C 365,297 494,356 496,411 C 488,480 625,106 523,170 C 523,131 543,439 507,317 C 152,280 203,192 572,309 C 171,450 685,441 697,184 C 305,309 620,368 356,154 C 248,411 221,411 691,434 Z" opacity=".686" transform="rotate(-34.0 400 300)"/><polygon fill="#91B23B" stroke="#A10774" stroke-opacity=".711" stroke-width="7" points="632 417 649 276 552 491 717 190 778 110 463 455" opacity=".228" transform="rotate(130.0 400 300)"/><path fill="#D02CA5" stroke="#9A8308" stroke-opacity=".522" stroke-width="4" d="M 631,461 C 663,324 297,156 232,455 C 673,286 450,326 440,379 C 699,285 176,283 183,132 C 588,327 361,331 601,317 C 640,482 262,303 558,236 C 285,394 427,437 528,131 C 194,112 541,178 360,139 C 214,433 209,413 544,119 C 540,452 109,482 263,160 Z" opacity=".589" transform="rotate(97.0 400 300)"/><rect width="308" height="171" x="759" y="117" fill="#569015" stroke="#501795" stroke-opacity=".978" stroke-width="7" opacity=".893" transform="rotate(-160.0 400 300)"/></g></svg>