<?xml version="1.0" encoding="UTF-8"?>
<svg width="800px" height="600px" viewBox="0 0 800 600" version="1.1" xmlns="http://www.w3.org/2000/svg" xmlns:xlink="http://www.w3.org/1999/xlink">
  <defs></defs>
  <g stroke="none" stroke-width="1" fill="none" fill-rule="evenodd">
    
    <polygon stroke="#31a06b" stroke-width="3" fill="#2b55f7" opacity="0.916850537690253" stroke-opacity="0.32039208073374414" transform="rotate(22.0 400 300)" points="404 87 493 563 114 12 745 54 622 314 71 342 "></polygon>
<rect stroke="#2b55f7" stroke-width="6" fill="#f9d84b" opacity="0.94390118643006" stroke-opacity="0.44699737777516296" transform="rotate(70.0 400 300)" x="307" y="529" width="152" height="319"></rect>
<ellipse stroke="#f9d84b" stroke-width="5" fill="#f27630" opacity="0.07266760119074653" stroke-opacity="0.5042379800144704" transform="rotate(-95.0 400 300)" cx="326" rx="420" cy="74" ry="114"></ellipse>
<rect stroke="#f27630" stroke-width="2" fill="#ed2b2c" opacity="0.48506727992574206" stroke-opacity="0.04688381686178514" transform="rotate(45.0 400 300)" x="5" y="11" width="334" height="170"></rect>
<path stroke="#ed2b2c" stroke-width="4" fill="#2b55f7" opacity="0.22487420676557418" stroke-opacity="0.7607710812062227" transform="rotate(-129.0 400 300)" d="M 644,436  C 185,417 110,204 226,346 C 450,220 387,246 164,459 C 364,133 503,321 122,443 C 106,334 540,113 576,335 Z"></path>
<ellipse stroke="#2b55f7" stroke-width="1" fill="#ed2b2c" opacity="0.6960963240647616" stroke-opacity="0.8750795390492564" transform="rotate(-17.0 400 300)" cx="209" rx="52" cy="319" ry="102"></ellipse>
<polygon stroke="#2b55f7" stroke-width="1" fill="#f27630" opacity="0.2448963837388336" stroke-opacity="0.36280011411291985" transform="rotate(71.0 400 300)" points="409 79 106 153 130 497 137 516 627 189 "></polygon>
<polygon stroke="#ed2b2c" stroke-width="3" fill="#31a06b" opacity="0.6941241791313996" stroke-opacity="0.5594998944873641" transform="rotate(-16.0 400 300)" points="464 517 354 378 386 457 104 234 663 268 785 235 480 163 "></polygon>
<rect stroke="#f27630" stroke-width="1" fill="#2b55f7" opacity="0.2466275517810527" stroke-opacity="0.06918631442391204" transform="rotate(-19.0 400 300)" x="645" y="107" width="124" height="221"></rect>

  </g>
</svg>
