<svg xmlns="http://www.w3.org/2000/svg" xmlns:xlink="http://www.w3.org/1999/xlink" width="800" height="600" version="1.1" viewBox="0 0 800 600"><g fill="none" fill-rule="evenodd" stroke="none" stroke-width="1"><polygon fill="#2b55f7" stroke="#31a06b" stroke-opacity=".32" stroke-width="3" points="404 87 493 563 114 12 745 54 622 314 71 342" opacity=".917" transform="rotate(22.0 400 300)"/><rect width="152" height="319" x="307" y="529" fill="#f9d84b" stroke="#2b55f7" stroke-opacity=".447" stroke-width="6" opacity=".944" transform="rotate(70.0 400 300)"/><ellipse cx="326" cy="74" fill="#f27630" stroke="#f9d84b" stroke-opacity=".504" stroke-width="5" opacity=".073" rx="420" ry="114" transform="rotate(-95.0 400 300)"/><rect width="334" height="170" x="5" y="11" fill="#ed2b2c" stroke="#f27630" stroke-opacity=".047" stroke-width="2" opacity=".485" transform="rotate(45.0 400 300)"/><path fill="#2b55f7" stroke="#ed2b2c" stroke-opacity=".761" stroke-width="4" d="M 644,436 C 185,417 110,204 226,346 C 450,220 387,246 164,459 C 364,133 503,321 122,443 C 106,334 540,113 576,335 Z" opacity=".225" transform="rotate(-129.0 400 300)"/><ellipse cx="209" cy="319" fill="#ed2b2c" stroke="#2b55f7" stroke-opacity=".875" stroke-width="1" opacity=".696" rx="52" ry="102" transform="rotate(-17.0 400 300)"/><polygon fill="#f27630" stroke="#2b55f7" stroke-opacity=".363" stroke-width="1" points="409 79 106 153 130 497 137 516 627 189" opacity=".245" transform="rotate(71.0 400 300)"/><polygon fill="#31a06b" stroke="#ed2b2c" stroke-opacity=".559" stroke-width="3" points="464 517 354 378 386 457 104 234 663 268 785 235 480 163" opacity=".694" transform="rotate(-16.0 400 300)"/><rect width="124" height="221" x="645" y="107" fill="#2b55f7" stroke="#f27630" stroke-opacity=".069" stroke-width="1" opacity=".247" transform="rotate(-19.0 400 300)"/></g></svg>