<svg xmlns="http://www.w3.org/2000/svg" xmlns:xlink="http://www.w3.org/1999/xlink" width="800" height="600" version="1.1" viewBox="0 0 800 600"><g fill="none" fill-rule="evenodd" stroke="none" stroke-width="1"><path fill="#D21D00" stroke="#897AD2" stroke-opacity=".571" stroke-width="2" d="M 524,366 C 268,128 268,264 492,264 C 560,294 621,314 101,236 C 264,191 660,239 534,254 C 132,490 333,307 434,134 C 199,497 628,494 610,329 C 487,148 196,175 191,472 Z" opacity=".225" transform="rotate(-168.0 400 300)"/><path fill="#7DC752" stroke="#88225A" stroke-opacity=".631" stroke-width="2" d="M 102,268 C 664,113 346,385 277,370 C 282,129 384,425 653,368 C 209,404 447,163 494,442 C 191,346 289,483 628,271 C 334,493 349,473 431,349 C 451,497 313,305 377,431 C 569,401 160,352 192,375 C 370,148 483,217 583,227 C 395,155 407,450 502,199 Z" opacity=".277" transform="rotate(129.0 400 300)"/><path fill="#6C5938" stroke="#4A284C" stroke-opacity=".558" stroke-width="1" d="M 421,304 C 358,459 295,485 536,401 C 153,300 364,172 491,279 C 103,324 286,281 371,136 C 591,302 396,216 139,348 C 158,130 211,245 693,478 C 421,383 448,399 377,429 C 397,267 399,383 212,499 C 664,328 341,194 695,473 C 178,135 152,186 630,302 C 107,256 441,172 277,498 C 393,455 388,138 614,111 Z" opacity=".877" transform="rotate(145.0 400 300)"/><path fill="#C6DD07" stroke="#48DAAC" stroke-opacity=".857" stroke-width="6" d="M 333,500 C 274,489 172,499 676,453 C 571,414 114,229 675,363 C 635,471 211,474 111,322 C 654,200 469,462 369,353 C 123,414 553,469 478,486 C 527,218 593,498 384,419 C 535,465 317,367 171,278 C 557,359 307,113 464,106 Z" opacity=".734" transform="rotate(71.0 400 300)"/><path fill="#0DA551" stroke="#0A3A57" stroke-opacity=".164" stroke-width="6" d="M 678,334 C 528,170 685,156 445,320 C 164,406 345,409 620,187 C 489,282 218,229 356,267 C 496,414 281,358 283,266 C 230,126 432,218 262,412 Z" opacity=".152" transform="rotate(68.0 400 300)"/><path fill="#5A4546" stroke="#71B26C" stroke-opacity=".669" stroke-width="7" d="M 173,294 C 661,313 387,279 388,240 C 314,160 277,305 443,361 C 557,255 634,402 405,427 C 139,101 246,471 586,268 C 180,351 419,477 644,246 Z" opacity=".646" transform="rotate(143.0 400 300)"/><path fill="#D58856" stroke="#121780" stroke-opacity=".649" stroke-width="1" d="M 441,496 C 255,101 490,267 390,110 C 323,415 326,400 120,487 C 445,171 418,348 246,178 C 167,246 553,210 277,264 C 254,447 480,139 611,157 Z" opacity=".17" transform="rotate(95.0 400 300)"/><path fill="#AB7D3B" stroke="#46B473" stroke-opacity=".067" stroke-width="7" d="M 500,180 C 586,280 395,440 433,231 C 599,394 497,493 524,198 C 314,244 148,211 629,210 C 327,494 652,169 542,376 C 517,177 418,377 201,496 Z" opacity=".224" transform="rotate(33.0 400 300)"/><path fill="#178B88" stroke="#762B52" stroke-opacity=".537" stroke-width="6" d="M 622,264 C 138,320 546,489 405,217 C 533,384 610,417 647,421 C 651,117 434,486 169,455 C 509,232 398,403 313,200 C 243,480 353,209 118,215 C 196,153 374,199 573,174 C 527,233 289,282 407,443 C 481,318 690,367 125,274 C 183,434 389,236 437,426 Z" opacity=".19" transform="rotate(-131.0 400 300)"/><path fill="#B09872" stroke="#39ABC3" stroke-opacity=".452" stroke-width="2" d="M 587,438 C 493,210 415,478 166,132 C 624,265 460,476 163,224 C 287,388 240,441 144,405 C 451,214 643,239 218,229 C 697,168 385,253 281,224 C 144,345 279,495 689,336 C 430,400 499,293 111,378 C 225,121 645,110 356,391 Z" opacity=".239" transform="rotate(6.0 400 300)"/></g></svg>