<?xml version="1.0" encoding="UTF-8"?>
<svg width="800px" height="600px" viewBox="0 0 800 600" version="1.1" xmlns="http://www.w3.org/2000/svg" xmlns:xlink="http://www.w3.org/1999/xlink">
  <defs></defs>
  <g stroke="none" stroke-width="1" fill="none" fill-rule="evenodd">
    
    <path stroke="#f559a0" stroke-width="7" fill="#2cd3f3" opacity="0.0023967126239692613" stroke-opacity="0.4818533545779642" transform="rotate(11.0 400 300)" d="M 587,376  C 208,180 239,235 234,126 C 225,355 328,349 119,434 C 367,247 418,203 251,199 C 491,395 506,302 170,188 Z"></path>
<path stroke="#2cd3f3" stroke-width="1" fill="#f559a0" opacity="0.6698398869290997" stroke-opacity="0.10610522100328623" transform="rotate(-98.0 400 300)" d="M 583,323  C 144,348 320,240 503,372 C 158,401 316,220 573,381 C 250,390 148,249 656,469 C 429,364 287,405 362,139 C 646,243 443,270 395,500 C 696,261 668,475 418,163 C 206,244 110,209 464,449 C 532,394 675,225 632,427 Z"></path>
<path stroke="#0fa6d8" stroke-width="7" fill="#0fa6d8" opacity="0.5075519216581389" stroke-opacity="0.8923390065954019" transform="rotate(-128.0 400 300)" d="M 194,327  C 224,460 413,419 562,329 C 638,291 615,317 626,116 C 386,113 191,194 342,476 C 510,418 273,145 222,322 C 581,395 142,361 278,275 C 245,154 484,330 389,357 C 689,308 176,151 592,473 C 326,434 689,386 395,110 C 534,209 644,499 595,170 Z"></path>
<path stroke="#02eb6b" stroke-width="6" fill="#2cd3f3" opacity="0.5405809262811129" stroke-opacity="0.589353410875611" transform="rotate(-153.0 400 300)" d="M 464,159  C 241,431 201,468 246,437 C 477,206 247,373 507,309 C 509,393 647,113 570,169 C 355,345 345,184 209,354 C 107,266 507,353 693,477 C 290,446 280,470 523,374 Z"></path>
<path stroke="#fe9225" stroke-width="1" fill="#2cd3f3" opacity="0.4409825480306912" stroke-opacity="0.22600374608587018" transform="rotate(-159.0 400 300)" d="M 432,337  C 423,392 416,371 572,329 C 478,147 201,263 116,354 C 465,204 398,397 246,127 C 662,335 309,202 167,387 C 629,328 114,346 571,124 C 667,346 162,264 136,109 C 328,495 357,449 273,238 C 678,270 645,259 275,415 Z"></path>
<path stroke="#f559a0" stroke-width="6" fill="#2cd3f3" opacity="0.2088029466893918" stroke-opacity="0.046123531391336035" transform="rotate(125.0 400 300)" d="M 125,450  C 216,405 558,385 506,152 C 136,418 377,351 360,145 C 364,251 251,387 162,325 C 614,325 369,472 188,387 C 450,495 434,234 214,297 C 630,401 671,148 666,236 C 294,437 637,225 448,468 C 296,268 568,316 192,121 Z"></path>
<path stroke="#02eb6b" stroke-width="2" fill="#fe9225" opacity="0.8257696120697727" stroke-opacity="0.5348996257419271" transform="rotate(113.0 400 300)" d="M 372,321  C 668,339 383,345 642,474 C 578,425 155,439 283,227 C 152,421 458,415 330,257 C 570,476 658,155 604,429 Z"></path>
<path stroke="#0fa6d8" stroke-width="6" fill="#2cd3f3" opacity="0.481516067055455" stroke-opacity="0.11887046234875909" transform="rotate(-140.0 400 300)" d="M 569,318  C 563,126 419,433 169,461 C 406,325 685,403 296,258 C 224,255 314,277 187,479 C 679,389 262,328 484,398 C 155,435 686,285 350,362 C 151,380 475,170 255,155 Z"></path>
<path stroke="#2cd3f3" stroke-width="4" fill="#2cd3f3" opacity="0.6261106211495965" stroke-opacity="0.4634980305329381" transform="rotate(-129.0 400 300)" d="M 659,451  C 119,468 536,395 169,424 C 370,430 523,494 679,295 C 667,403 166,159 121,160 C 364,348 109,470 437,244 C 368,194 394,214 402,216 C 625,203 207,214 493,390 C 618,328 553,230 652,276 C 186,460 619,388 547,338 C 102,130 415,498 664,178 Z"></path>

  </g>
</svg>
