<svg xmlns="http://www.w3.org/2000/svg" xmlns:xlink="http://www.w3.org/1999/xlink" width="800" height="600" version="1.1" viewBox="0 0 800 600"><g fill="none" fill-rule="evenodd" stroke="none" stroke-width="1"><path fill="#ed2b2c" stroke="#2b55f7" stroke-opacity=".578" stroke-width="3" d="M 518,281 C 186,329 506,263 248,392 C 347,326 340,208 655,184 C 246,468 516,490 153,404 C 176,443 129,444 268,304 C 614,415 543,200 305,167 C 637,177 609,138 564,440 C 463,390 519,177 294,358 C 200,192 180,216 565,434 Z" opacity=".669" transform="rotate(108.0 400 300)"/><path fill="#31a06b" stroke="#31a06b" stroke-opacity=".503" stroke-width="7" d="M 417,477 C 620,167 158,321 154,217 C 362,242 656,459 330,232 C 301,192 569,431 670,117 C 517,467 336,499 255,307 C 335,436 192,219 502,420 C 262,267 262,281 529,448 Z" opacity=".465" transform="rotate(66.0 400 300)"/><path fill="#2b55f7" stroke="#f27630" stroke-opacity=".522" stroke-width="6" d="M 502,256 C 205,163 549,224 257,254 C 665,157 362,220 325,107 C 670,134 576,465 310,192 C 152,327 142,106 478,478 C 138,325 582,493 280,366 C 697,323 254,297 453,235 Z" opacity=".685" transform="rotate(95.0 400 300)"/><path fill="#f27630" stroke="#f27630" stroke-opacity=".107" stroke-width="2" d="M 694,109 C 660,425 136,266 624,435 C 131,133 138,458 378,353 C 589,309 439,463 516,400 C 190,427 111,359 464,273 C 412,350 495,388 648,299 Z" opacity=".542" transform="rotate(154.0 400 300)"/><path fill="#ed2b2c" stroke="#31a06b" stroke-opacity=".12" stroke-width="4" d="M 241,125 C 175,249 371,209 428,119 C 331,292 680,219 216,312 C 513,317 270,414 117,482 C 578,199 393,254 230,342 C 441,404 271,275 595,396 C 668,378 348,242 380,243 C 514,131 353,500 169,247 C 635,311 169,479 432,207 Z" opacity=".918" transform="rotate(-22.0 400 300)"/><path fill="#ed2b2c" stroke="#2b55f7" stroke-opacity=".485" stroke-width="5" d="M 641,234 C 355,174 160,469 471,137 C 520,260 104,377 635,303 C 479,257 506,426 526,285 C 535,148 285,232 513,187 C 619,172 514,292 133,197 C 664,159 359,298 629,241 C 167,191 245,192 531,233 C 504,179 296,290 617,109 C 130,353 558,313 644,166 C 369,305 441,406 405,237 C 394,427 167,178 569,151 Z" opacity=".937" transform="rotate(12.0 400 300)"/><path fill="#2b55f7" stroke="#ed2b2c" stroke-opacity=".279" stroke-width="4" d="M 468,223 C 284,257 507,108 107,440 C 621,252 567,421 609,334 C 659,355 363,497 591,292 C 410,483 557,176 205,191 C 665,471 142,389 301,481 C 526,148 217,154 118,238 C 383,197 678,302 189,376 C 435,331 420,388 685,240 Z" opacity=".151" transform="rotate(-89.0 400 300)"/></g></svg>