<svg xmlns="http://www.w3.org/2000/svg" xmlns:xlink="http://www.w3.org/1999/xlink" width="800" height="600" version="1.1" viewBox="0 0 800 600"><g fill="none" fill-rule="evenodd" stroke="none" stroke-width="1"><path fill="#31a06b" stroke="#f9d84b" stroke-opacity=".074" stroke-width="6" d="M 293,352 C 333,271 516,278 194,123 C 297,441 357,330 377,341 C 220,445 553,262 652,142 C 171,173 603,189 407,200 C 468,384 277,388 507,183 Z" opacity=".419" transform="rotate(-81.0 400 300)"/><ellipse cx="581" cy="80" fill="#f27630" stroke="#2b55f7" stroke-opacity=".805" stroke-width="3" opacity=".102" rx="333" ry="284" transform="rotate(-135.0 400 300)"/><path fill="#2b55f7" stroke="#ed2b2c" stroke-opacity=".24" stroke-width="7" d="M 268,488 C 557,169 527,430 299,351 C 163,499 125,376 488,267 C 377,153 608,205 666,237 C 645,216 164,230 655,309 C 244,244 631,214 590,351 C 138,113 293,327 145,218 C 551,244 358,433 111,140 C 555,347 101,152 643,395 C 326,368 500,189 160,456 C 569,135 561,208 256,184 Z" opacity=".202" transform="rotate(68.0 400 300)"/><rect width="188" height="47" x="737" y="258" fill="#f27630" stroke="#ed2b2c" stroke-opacity=".313" stroke-width="3" opacity=".212" transform="rotate(-171.0 400 300)"/><path fill="#ed2b2c" stroke="#f27630" stroke-opacity=".466" stroke-width="3" d="M 329,226 C 546,466 608,430 603,324 C 646,307 360,454 396,277 C 696,460 644,335 247,255 C 112,258 175,193 534,417 C 403,439 550,157 501,194 C 128,397 488,188 412,402 Z" opacity=".992" transform="rotate(49.0 400 300)"/><polygon fill="#ed2b2c" stroke="#f9d84b" stroke-opacity=".473" stroke-width="7" points="424 13 314 527 783 222 531 149 131 203 494 349 7 160" opacity=".087" transform="rotate(107.0 400 300)"/><rect width="134" height="335" x="121" y="440" fill="#f27630" stroke="#ed2b2c" stroke-opacity=".898" stroke-width="3" opacity=".677" transform="rotate(84.0 400 300)"/><rect width="107" height="344" x="372" y="323" fill="#f9d84b" stroke="#ed2b2c" stroke-opacity=".305" stroke-width="3" opacity=".256" transform="rotate(-74.0 400 300)"/><polygon fill="#f9d84b" stroke="#f27630" stroke-opacity=".524" stroke-width="6" points="700 158 672 409 658 338 39 577 313 252 439 550" opacity=".587" transform="rotate(-140.0 400 300)"/><path fill="#ed2b2c" stroke="#f9d84b" stroke-opacity=".964" stroke-width="4" d="M 600,429 C 102,179 253,318 681,212 C 456,165 180,204 128,276 C 658,438 676,466 453,153 C 274,320 591,381 611,188 Z" opacity=".377" transform="rotate(-114.0 400 300)"/></g></svg>