<svg xmlns="http://www.w3.org/2000/svg" xmlns:xlink="http://www.w3.org/1999/xlink" width="800" height="600" version="1.1" viewBox="0 0 800 600"><g fill="none" fill-rule="evenodd" stroke="none" stroke-width="1"><ellipse cx="175" cy="31" fill="#2cd3f3" stroke="#f559a0" stroke-opacity=".116" stroke-width="4" opacity=".751" rx="246" ry="312" transform="rotate(-63.0 400 300)"/><polygon fill="#f559a0" stroke="#02eb6b" stroke-opacity=".577" stroke-width="2" points="690 420 379 433 55 248 277 58 467 456 798 370 420 257" opacity=".062" transform="rotate(114.0 400 300)"/><ellipse cx="656" cy="403" fill="#02eb6b" stroke="#2cd3f3" stroke-opacity=".073" stroke-width="7" opacity=".369" rx="103" ry="192" transform="rotate(30.0 400 300)"/><ellipse cx="270" cy="321" fill="#02eb6b" stroke="#f559a0" stroke-opacity=".115" stroke-width="7" opacity=".115" rx="292" ry="103" transform="rotate(-30.0 400 300)"/><polygon fill="#f559a0" stroke="#fe9225" stroke-opacity=".051" stroke-width="3" points="167 330 787 116 227 353 544 471 766 434 519 471 540 298" opacity=".634" transform="rotate(25.0 400 300)"/><ellipse cx="794" cy="147" fill="#2cd3f3" stroke="#f559a0" stroke-opacity=".715" stroke-width="7" opacity=".304" rx="362" ry="232" transform="rotate(30.0 400 300)"/><rect width="58" height="43" x="467" y="96" fill="#0fa6d8" stroke="#0fa6d8" stroke-opacity=".334" stroke-width="5" opacity=".689" transform="rotate(-150.0 400 300)"/><ellipse cx="316" cy="279" fill="#2cd3f3" stroke="#fe9225" stroke-opacity=".737" stroke-width="7" opacity=".648" rx="403" ry="252" transform="rotate(30.0 400 300)"/></g></svg>