<?xml version="1.0" encoding="UTF-8"?>
<svg width="800px" height="600px" viewBox="0 0 800 600" version="1.1" xmlns="http://www.w3.org/2000/svg" xmlns:xlink="http://www.w3.org/1999/xlink">
  <defs></defs>
  <g stroke="none" stroke-width="1" fill="none" fill-rule="evenodd">
    
    <ellipse stroke="#f559a0" stroke-width="4" fill="#2cd3f3" opacity="0.7505017468546278" stroke-opacity="0.11555141569493398" transform="rotate(-63.0 400 300)" cx="175" rx="246" cy="31" ry="312"></ellipse>
<polygon stroke="#02eb6b" stroke-width="2" fill="#f559a0" opacity="0.062207054823151114" stroke-opacity="0.5772191985647762" transform="rotate(114.0 400 300)" points="690 420 379 433 55 248 277 58 467 456 798 370 420 257 "></polygon>
<ellipse stroke="#2cd3f3" stroke-width="7" fill="#02eb6b" opacity="0.3694578866342625" stroke-opacity="0.07277876819311653" transform="rotate(30.0 400 300)" cx="656" rx="103" cy="403" ry="192"></ellipse>
<ellipse stroke="#f559a0" stroke-width="7" fill="#02eb6b" opacity="0.11461441232203934" stroke-opacity="0.11453406779628023" transform="rotate(-30.0 400 300)" cx="270" rx="292" cy="321" ry="103"></ellipse>
<polygon stroke="#fe9225" stroke-width="3" fill="#f559a0" opacity="0.6335772174574416" stroke-opacity="0.05053401783998758" transform="rotate(25.0 400 300)" points="167 330 787 116 227 353 544 471 766 434 519 471 540 298 "></polygon>
<ellipse stroke="#f559a0" stroke-width="7" fill="#2cd3f3" opacity="0.3040430346493843" stroke-opacity="0.7152344870844556" transform="rotate(30.0 400 300)" cx="794" rx="362" cy="147" ry="232"></ellipse>
<rect stroke="#0fa6d8" stroke-width="5" fill="#0fa6d8" opacity="0.6887206216259366" stroke-opacity="0.33411335302658224" transform="rotate(-150.0 400 300)" x="467" y="96" width="58" height="43"></rect>
<ellipse stroke="#fe9225" stroke-width="7" fill="#2cd3f3" opacity="0.647948677479678" stroke-opacity="0.7369658027773239" transform="rotate(30.0 400 300)" cx="316" rx="403" cy="279" ry="252"></ellipse>

  </g>
</svg>
