<svg xmlns="http://www.w3.org/2000/svg" xmlns:xlink="http://www.w3.org/1999/xlink" width="800" height="600" version="1.1" viewBox="0 0 800 600"><g fill="none" fill-rule="evenodd" stroke="none" stroke-width="1"><rect width="108" height="206" x="137" y="149" fill="#B95DBA" stroke="#902222" stroke-opacity=".177" stroke-width="2" opacity=".734" transform="rotate(93.0 400 300)"/><path fill="#A5536A" stroke="#25AA70" stroke-opacity=".319" stroke-width="1" d="M 128,162 C 325,390 665,497 207,241 C 675,250 458,308 180,293 C 115,105 243,375 342,273 C 553,281 622,475 330,311 C 138,345 183,146 500,235 C 668,297 378,204 187,163 C 628,388 538,259 692,348 C 299,230 441,251 636,352 Z" opacity=".632" transform="rotate(-145.0 400 300)"/><rect width="256" height="316" x="474" y="482" fill="#2A731C" stroke="#BB898D" stroke-opacity=".328" stroke-width="6" opacity=".261" transform="rotate(167.0 400 300)"/><path fill="#1120A7" stroke="#728117" stroke-opacity=".584" stroke-width="6" d="M 507,110 C 613,328 240,239 264,427 C 410,267 212,406 553,452 C 250,132 311,172 548,460 C 260,294 673,470 595,125 C 652,146 219,150 125,322 C 447,315 306,366 162,283 C 315,396 231,500 477,248 Z" opacity=".869" transform="rotate(-165.0 400 300)"/><ellipse cx="232" cy="578" fill="#226769" stroke="#B8ADB0" stroke-opacity=".655" stroke-width="6" opacity=".626" rx="216" ry="65" transform="rotate(-166.0 400 300)"/><polygon fill="#558785" stroke="#81BD5B" stroke-opacity=".17" stroke-width="3" points="63 180 732 473 326 266 129 89 216 561" opacity=".824" transform="rotate(14.0 400 300)"/></g></svg>