<svg xmlns="http://www.w3.org/2000/svg" xmlns:xlink="http://www.w3.org/1999/xlink" width="800" height="600" version="1.1" viewBox="0 0 800 600"><g fill="none" fill-rule="evenodd" stroke="none" stroke-width="1"><path fill="#0fa6d8" stroke="#0fa6d8" stroke-opacity=".752" stroke-width="2" d="M 656,451 C 129,247 108,261 488,158 C 456,473 570,367 286,230 C 279,131 228,115 559,491 C 529,192 623,462 399,477 C 351,212 663,307 288,237 C 288,379 531,149 324,341 C 234,414 484,258 509,280 C 396,119 276,319 616,166 C 398,138 625,287 298,329 Z" opacity=".527" transform="rotate(-20.0 400 300)"/><path fill="#f559a0" stroke="#2cd3f3" stroke-opacity=".694" stroke-width="6" d="M 664,378 C 415,367 219,112 153,116 C 448,261 414,322 317,193 C 376,235 220,406 328,308 C 227,159 196,223 658,440 C 129,256 466,107 277,187 Z" opacity=".335" transform="rotate(-134.0 400 300)"/><path fill="#fe9225" stroke="#0fa6d8" stroke-opacity=".27" stroke-width="2" d="M 695,446 C 278,286 667,391 390,407 C 691,307 355,134 456,370 C 328,497 468,252 260,107 C 528,500 495,267 183,181 C 202,221 390,406 400,454 Z" opacity=".48" transform="rotate(66.0 400 300)"/><path fill="#0fa6d8" stroke="#0fa6d8" stroke-opacity=".274" stroke-width="7" d="M 623,355 C 194,489 581,221 263,324 C 205,126 218,336 563,350 C 651,258 565,199 253,142 C 700,295 481,381 269,286 C 343,238 145,439 477,222 C 700,257 198,157 175,299 C 572,471 198,398 187,299 C 318,461 629,185 593,170 C 120,383 670,450 439,165 C 457,206 352,293 550,127 Z" opacity=".886" transform="rotate(77.0 400 300)"/><path fill="#fe9225" stroke="#0fa6d8" stroke-opacity=".887" stroke-width="3" d="M 488,249 C 197,122 410,452 465,251 C 665,258 177,156 426,259 C 665,180 160,221 625,141 C 361,289 575,422 259,185 C 611,472 506,334 451,307 C 304,226 144,430 454,156 C 364,430 115,453 435,128 C 360,463 656,436 134,489 C 232,109 201,312 519,154 Z" opacity=".385" transform="rotate(-101.0 400 300)"/><path fill="#02eb6b" stroke="#fe9225" stroke-opacity=".316" stroke-width="3" d="M 435,266 C 359,109 616,343 601,370 C 465,384 155,480 552,286 C 604,396 610,458 251,482 C 576,146 452,346 689,252 C 112,481 302,356 330,389 C 598,145 430,239 582,479 C 167,394 382,136 198,189 C 415,126 526,203 683,172 C 222,261 235,282 313,140 C 614,170 469,127 518,352 C 672,111 333,322 142,488 Z" opacity=".78" transform="rotate(-23.0 400 300)"/><path fill="#f559a0" stroke="#fe9225" stroke-opacity=".129" stroke-width="2" d="M 649,393 C 313,286 231,268 391,108 C 541,407 359,230 327,185 C 480,429 117,143 104,405 C 159,338 333,108 633,312 C 576,242 330,218 239,435 C 163,202 629,315 495,383 C 408,185 694,383 540,198 C 200,154 274,249 681,217 C 569,299 414,392 441,463 C 209,103 688,232 532,191 C 309,417 650,349 494,187 Z" opacity=".336" transform="rotate(-140.0 400 300)"/><path fill="#f559a0" stroke="#02eb6b" stroke-opacity=".597" stroke-width="2" d="M 172,160 C 478,225 271,241 289,253 C 366,346 500,362 498,278 C 674,323 238,162 372,299 C 288,114 132,498 514,275 C 397,212 651,406 351,334 C 119,349 120,445 166,283 Z" opacity=".133" transform="rotate(-141.0 400 300)"/></g></svg>