<?xml version="1.0" encoding="UTF-8"?>
<svg width="800px" height="600px" viewBox="0 0 800 600" version="1.1" xmlns="http://www.w3.org/2000/svg" xmlns:xlink="http://www.w3.org/1999/xlink">
  <defs></defs>
  <g stroke="none" stroke-width="1" fill="none" fill-rule="evenodd">
    
    <path stroke="#8A8535" stroke-width="7" fill="#3414C7" opacity="0.1435225521563431" stroke-opacity="0.33734892720091025" transform="rotate(-143.0 400 300)" d="M 313,140  C 615,463 449,121 563,119 C 296,382 259,180 140,146 C 600,107 510,426 189,250 C 647,118 559,491 687,268 C 685,291 329,245 309,161 C 173,374 297,184 464,173 Z"></path>
<path stroke="#730ADA" stroke-width="2" fill="#2494A4" opacity="0.8677244325385481" stroke-opacity="0.16045502415655313" transform="rotate(39.0 400 300)" d="M 266,336  C 468,219 456,371 243,260 C 109,253 234,323 438,494 C 112,449 428,419 665,372 C 521,136 626,152 393,492 Z"></path>
<path stroke="#C392C0" stroke-width="4" fill="#8578B2" opacity="0.6429344300929449" stroke-opacity="0.23255320986989766" transform="rotate(142.0 400 300)" d="M 239,280  C 677,187 462,216 349,244 C 227,247 380,258 655,375 C 147,141 485,163 392,215 C 176,216 387,343 121,267 C 591,430 200,499 246,176 C 449,169 488,219 386,385 Z"></path>
<path stroke="#90A287" stroke-width="2" fill="#2548C7" opacity="0.8163867563061886" stroke-opacity="0.25011255840067576" transform="rotate(-177.0 400 300)" d="M 663,471  C 413,221 631,131 594,294 C 335,290 600,124 326,245 C 283,289 423,437 208,362 C 410,354 647,306 547,374 Z"></path>
<path stroke="#BC9844" stroke-width="3" fill="#153D9A" opacity="0.5443349157269889" stroke-opacity="0.29016979063155185" transform="rotate(106.0 400 300)" d="M 549,184  C 407,307 637,378 259,370 C 103,390 209,481 153,484 C 586,423 139,483 420,110 C 141,333 225,296 378,126 Z"></path>
<path stroke="#BBB847" stroke-width="7" fill="#810ADA" opacity="0.7708571091506479" stroke-opacity="0.9429672834912096" transform="rotate(-161.0 400 300)" d="M 479,135  C 563,154 195,321 160,491 C 194,225 115,109 501,195 C 568,492 344,472 120,341 C 472,272 311,481 215,326 C 203,454 278,295 457,189 Z"></path>
<path stroke="#23A597" stroke-width="3" fill="#615519" opacity="0.7189309018036437" stroke-opacity="0.5295097148756311" transform="rotate(-15.0 400 300)" d="M 650,342  C 622,431 261,277 544,305 C 611,434 139,313 104,200 C 680,124 542,117 584,249 C 693,340 575,216 403,433 C 149,413 470,185 651,298 C 561,410 624,312 456,170 C 422,220 650,369 160,450 C 541,253 686,461 605,422 C 388,239 177,158 294,170 C 112,205 467,262 656,165 C 671,454 613,371 237,408 Z"></path>
<path stroke="#3D0318" stroke-width="2" fill="#9179B1" opacity="0.9080569229045499" stroke-opacity="0.09160004172537958" transform="rotate(105.0 400 300)" d="M 432,478  C 630,230 455,480 680,111 C 178,428 206,203 334,408 C 687,486 422,199 431,387 C 572,244 292,448 590,325 C 224,358 272,244 146,169 C 257,374 628,270 443,342 C 177,323 412,262 145,375 C 516,242 176,424 137,428 C 180,237 446,447 328,428 Z"></path>
<path stroke="#788032" stroke-width="1" fill="#3B7A90" opacity="0.8281223037351872" stroke-opacity="0.7254450739349251" transform="rotate(118.0 400 300)" d="M 155,148  C 440,276 508,231 369,259 C 360,252 381,494 350,344 C 318,327 303,162 495,405 C 689,455 336,470 300,109 C 220,222 177,355 220,445 Z"></path>

  </g>
</svg>
