<?xml version="1.0" encoding="UTF-8"?>
<svg width="800px" height="600px" viewBox="0 0 800 600" version="1.1" xmlns="http://www.w3.org/2000/svg" xmlns:xlink="http://www.w3.org/1999/xlink">
  <defs></defs>
  <g stroke="none" stroke-width="1" fill="none" fill-rule="evenodd">
    
    <path stroke="#372652" stroke-width="5" fill="#D7356B" opacity="0.6872587849081864" stroke-opacity="0.5885511807490356" transform="rotate(172.0 400 300)" d="M 564,177  C 246,444 117,352 453,439 C 361,160 164,124 507,477 C 465,354 535,292 583,373 C 617,312 504,345 157,285 C 328,340 494,419 595,456 Z"></path>
<path stroke="#BBC909" stroke-width="3" fill="#8B1447" opacity="0.3318725613372632" stroke-opacity="0.7110492154733615" transform="rotate(-135.0 400 300)" d="M 592,277  C 102,228 369,342 327,365 C 146,248 599,430 472,157 C 451,283 422,158 267,392 C 415,383 604,302 475,131 C 219,102 245,376 591,395 C 431,104 425,231 408,243 C 541,341 685,472 443,247 C 572,205 223,361 363,105 C 413,354 352,148 366,490 C 394,397 471,465 631,436 C 556,436 415,255 175,398 Z"></path>
<path stroke="#72CA2B" stroke-width="7" fill="#CA1124" opacity="0.9915926354029219" stroke-opacity="0.06045370912238671" transform="rotate(163.0 400 300)" d="M 318,335  C 212,433 118,349 622,176 C 374,259 358,494 474,151 C 451,476 508,206 144,158 C 493,329 671,380 302,391 C 132,413 244,271 334,423 C 239,179 467,380 591,295 C 339,326 473,445 201,181 C 411,199 655,208 328,343 C 433,474 573,451 277,423 C 422,363 274,309 235,391 Z"></path>
<path stroke="#693089" stroke-width="1" fill="#D1DBD9" opacity="0.6197505847720518" stroke-opacity="0.0018848026663329564" transform="rotate(152.0 400 300)" d="M 334,191  C 254,195 631,409 447,323 C 296,179 356,109 661,413 C 415,294 610,281 430,288 C 307,419 640,323 624,179 Z"></path>
<path stroke="#1D0B68" stroke-width="3" fill="#D49BBD" opacity="0.11182441160342448" stroke-opacity="0.3997573549587471" transform="rotate(20.0 400 300)" d="M 363,194  C 505,104 388,292 255,478 C 624,360 537,483 156,184 C 182,142 329,341 224,224 C 541,468 396,491 461,439 C 178,334 438,364 567,341 C 524,500 588,338 325,150 C 239,476 295,457 569,424 C 679,296 165,484 511,476 C 222,215 539,120 318,438 C 656,270 219,391 149,103 Z"></path>
<path stroke="#188122" stroke-width="1" fill="#CC1B60" opacity="0.5046545594085908" stroke-opacity="0.011003305688904291" transform="rotate(23.0 400 300)" d="M 445,489  C 570,490 683,439 473,185 C 290,368 614,255 526,402 C 652,193 522,426 372,250 C 256,358 552,325 139,324 C 202,469 330,456 549,142 C 203,421 111,145 655,493 C 295,412 406,106 669,140 C 557,382 501,312 455,193 Z"></path>

  </g>
</svg>
