<?xml version="1.0" encoding="UTF-8"?>
<svg width="800px" height="600px" viewBox="0 0 800 600" version="1.1" xmlns="http://www.w3.org/2000/svg" xmlns:xlink="http://www.w3.org/1999/xlink">
  <defs></defs>
  <g stroke="none" stroke-width="1" fill="none" fill-rule="evenodd">
    
    <path stroke="#f27630" stroke-width="2" fill="#2b55f7" opacity="0.9354878769533116" stroke-opacity="0.18944494851875765" transform="rotate(127.0 400 300)" d="M 208,114  C 140,343 231,445 329,351 C 476,359 609,126 313,390 C 671,394 323,333 325,159 C 352,434 269,128 543,197 C 121,437 374,499 262,351 C 415,266 644,209 691,495 Z"></path>
<path stroke="#31a06b" stroke-width="2" fill="#f27630" opacity="0.4196265043648732" stroke-opacity="0.01388743607403578" transform="rotate(105.0 400 300)" d="M 192,131  C 621,157 452,400 592,153 C 290,116 677,498 440,167 C 522,453 445,358 454,247 C 503,449 456,434 504,152 C 502,396 431,317 485,389 C 320,474 280,128 172,385 C 114,149 693,284 475,116 C 692,458 341,194 493,421 Z"></path>
<path stroke="#f9d84b" stroke-width="6" fill="#31a06b" opacity="0.2243819795041416" stroke-opacity="0.8276331865927736" transform="rotate(4.0 400 300)" d="M 500,301  C 480,261 405,317 257,408 C 159,107 250,364 313,448 C 516,460 275,324 233,376 C 670,277 382,364 636,487 C 221,245 486,176 434,303 C 192,164 449,246 108,338 C 129,463 580,322 581,430 C 151,212 289,337 213,416 Z"></path>
<path stroke="#2b55f7" stroke-width="7" fill="#f27630" opacity="0.9314540548937718" stroke-opacity="0.3299172534694069" transform="rotate(-9.0 400 300)" d="M 622,194  C 556,202 273,225 252,252 C 556,278 390,484 372,383 C 613,472 335,450 569,187 C 674,195 339,221 500,210 C 215,463 489,208 407,148 C 455,249 613,310 281,313 C 299,397 302,361 118,289 Z"></path>
<path stroke="#f9d84b" stroke-width="5" fill="#ed2b2c" opacity="0.314872624203229" stroke-opacity="0.060351640028835175" transform="rotate(-89.0 400 300)" d="M 631,229  C 585,413 656,181 658,266 C 178,331 127,115 279,470 C 380,176 296,417 367,367 C 508,172 393,448 172,229 C 677,112 601,176 143,316 C 616,429 689,443 560,167 C 522,128 107,464 612,220 C 678,308 504,317 624,253 Z"></path>
<path stroke="#ed2b2c" stroke-width="4" fill="#ed2b2c" opacity="0.17747541870516928" stroke-opacity="0.42576127518413637" transform="rotate(-137.0 400 300)" d="M 576,464  C 174,167 455,372 111,253 C 404,193 260,108 452,474 C 408,336 574,174 618,374 C 431,118 254,371 358,208 Z"></path>
<path stroke="#2b55f7" stroke-width="3" fill="#2b55f7" opacity="0.8971235177554432" stroke-opacity="0.6643921622899209" transform="rotate(159.0 400 300)" d="M 312,304  C 265,111 163,344 428,150 C 219,337 101,411 451,219 C 573,377 611,113 374,137 C 451,405 666,170 154,421 Z"></path>
<path stroke="#f9d84b" stroke-width="2" fill="#f9d84b" opacity="0.17184731946706616" stroke-opacity="0.1496938140406714" transform="rotate(123.0 400 300)" d="M 607,411  C 502,357 522,314 576,317 C 317,284 576,194 221,166 C 557,218 135,261 166,198 C 446,405 223,250 400,371 C 165,196 628,312 140,116 Z"></path>
<path stroke="#f27630" stroke-width="7" fill="#2b55f7" opacity="0.5795751053559343" stroke-opacity="0.5822118576219406" transform="rotate(-127.0 400 300)" d="M 354,351  C 295,165 391,197 584,210 C 586,357 621,485 666,182 C 358,347 144,204 282,434 C 410,240 453,391 626,424 C 368,385 193,234 435,426 C 201,123 112,126 327,473 C 244,233 461,472 336,261 Z"></path>
<path stroke="#f27630" stroke-width="1" fill="#f27630" opacity="0.5310022930743276" stroke-opacity="0.8087999249363137" transform="rotate(108.0 400 300)" d="M 339,175  C 566,138 536,302 608,383 C 477,285 105,123 361,223 C 251,183 699,396 692,268 C 564,209 310,332 161,249 Z"></path>

  </g>
</svg>
