<svg xmlns="http://www.w3.org/2000/svg" xmlns:xlink="http://www.w3.org/1999/xlink" width="800" height="600" version="1.1" viewBox="0 0 800 600"><g fill="none" fill-rule="evenodd" stroke="none" stroke-width="1"><ellipse cx="675" cy="70" fill="#ed2b2c" stroke="#ed2b2c" stroke-opacity=".649" stroke-width="7" opacity=".73" rx="248" ry="259" transform="rotate(77.0 400 300)"/><ellipse cx="348" cy="520" fill="#ed2b2c" stroke="#f27630" stroke-opacity=".128" stroke-width="5" opacity=".664" rx="353" ry="240" transform="rotate(173.0 400 300)"/><ellipse cx="268" cy="285" fill="#2b55f7" stroke="#2b55f7" stroke-opacity=".064" stroke-width="7" opacity=".656" rx="336" ry="140" transform="rotate(59.0 400 300)"/><ellipse cx="303" cy="485" fill="#2b55f7" stroke="#f9d84b" stroke-opacity=".253" stroke-width="2" opacity=".466" rx="192" ry="207" transform="rotate(-116.0 400 300)"/><ellipse cx="431" cy="566" fill="#2b55f7" stroke="#ed2b2c" stroke-opacity=".257" stroke-width="4" opacity=".88" rx="382" ry="337" transform="rotate(80.0 400 300)"/><ellipse cx="739" cy="141" fill="#f27630" stroke="#ed2b2c" stroke-opacity=".431" stroke-width="3" opacity=".389" rx="399" ry="177" transform="rotate(-19.0 400 300)"/><rect width="76" height="96" x="684" y="420" fill="#31a06b" stroke="#f9d84b" stroke-opacity=".203" stroke-width="2" opacity=".225" transform="rotate(-138.0 400 300)"/><path fill="#f27630" stroke="#2b55f7" stroke-opacity=".36" stroke-width="5" d="M 516,174 C 124,163 696,443 445,300 C 657,399 588,342 391,446 C 649,431 463,461 383,265 C 532,240 298,497 694,477 C 643,236 510,298 400,392 C 155,200 495,247 642,413 C 259,249 626,406 414,348 Z" opacity=".498" transform="rotate(67.0 400 300)"/><rect width="109" height="178" x="674" y="47" fill="#f9d84b" stroke="#ed2b2c" stroke-opacity=".873" stroke-width="2" opacity=".685" transform="rotate(102.0 400 300)"/><path fill="#ed2b2c" stroke="#f27630" stroke-opacity=".903" stroke-width="1" d="M 660,458 C 155,491 321,414 447,471 C 195,275 252,141 342,197 C 242,364 257,340 406,245 C 480,422 192,213 580,211 C 453,288 548,272 525,148 C 581,494 373,359 417,243 C 140,291 448,134 450,384 C 407,130 241,142 380,290 C 127,150 368,367 682,164 C 367,101 476,187 136,332 Z" opacity=".135" transform="rotate(139.0 400 300)"/><ellipse cx="154" cy="199" fill="#2b55f7" stroke="#2b55f7" stroke-opacity=".446" stroke-width="2" opacity=".955" rx="127" ry="260" transform="rotate(35.0 400 300)"/></g></svg>