<?xml version="1.0" encoding="UTF-8"?>
<svg width="800px" height="600px" viewBox="0 0 800 600" version="1.1" xmlns="http://www.w3.org/2000/svg" xmlns:xlink="http://www.w3.org/1999/xlink">
  <defs></defs>
  <g stroke="none" stroke-width="1" fill="none" fill-rule="evenodd">
    
    <rect stroke="#0A7811" stroke-width="1" fill="#AAA46D" opacity="0.5076852850182629" stroke-opacity="0.024412376248600855" transform="rotate(-3.0 400 300)" x="83" y="503" width="31" height="302"></rect>
<ellipse stroke="#2AC017" stroke-width="1" fill="#512C69" opacity="0.9925120800216983" stroke-opacity="0.26948301333379854" transform="rotate(-44.0 400 300)" cx="601" rx="401" cy="398" ry="169"></ellipse>
<ellipse stroke="#885563" stroke-width="7" fill="#74C698" opacity="0.630123840493094" stroke-opacity="0.27318572653424705" transform="rotate(47.0 400 300)" cx="655" rx="172" cy="80" ry="90"></ellipse>
<rect stroke="#54DAC9" stroke-width="1" fill="#4816D3" opacity="0.5187780345349544" stroke-opacity="0.8171930868482343" transform="rotate(154.0 400 300)" x="378" y="539" width="151" height="305"></rect>
<path stroke="#A811A1" stroke-width="2" fill="#6C7281" opacity="0.6115938956904587" stroke-opacity="0.8322575359341648" transform="rotate(8.0 400 300)" d="M 200,137  C 354,375 452,106 157,240 C 368,496 478,231 582,239 C 646,462 308,428 134,211 C 177,106 432,473 688,340 C 544,475 647,138 528,201 C 634,382 390,381 312,158 C 359,262 109,253 214,152 C 486,459 400,459 683,410 C 655,314 565,177 448,434 C 562,302 519,391 696,166 C 654,389 162,461 409,471 Z"></path>
<ellipse stroke="#12A80C" stroke-width="5" fill="#B335D4" opacity="0.6114761540913859" stroke-opacity="0.467819732582978" transform="rotate(-92.0 400 300)" cx="741" rx="181" cy="81" ry="264"></ellipse>
<polygon stroke="#A912A2" stroke-width="1" fill="#91562A" opacity="0.527322927533989" stroke-opacity="0.5037914484248407" transform="rotate(-118.0 400 300)" points="610 384 66 66 82 67 702 524 664 182 709 98 "></polygon>

  </g>
</svg>
