<svg xmlns="http://www.w3.org/2000/svg" xmlns:xlink="http://www.w3.org/1999/xlink" width="800" height="600" version="1.1" viewBox="0 0 800 600"><g fill="none" fill-rule="evenodd" stroke="none" stroke-width="1"><rect width="31" height="302" x="83" y="503" fill="#AAA46D" stroke="#0A7811" stroke-opacity=".024" stroke-width="1" opacity=".508" transform="rotate(-3.0 400 300)"/><ellipse cx="601" cy="398" fill="#512C69" stroke="#2AC017" stroke-opacity=".269" stroke-width="1" opacity=".993" rx="401" ry="169" transform="rotate(-44.0 400 300)"/><ellipse cx="655" cy="80" fill="#74C698" stroke="#885563" stroke-opacity=".273" stroke-width="7" opacity=".63" rx="172" ry="90" transform="rotate(47.0 400 300)"/><rect width="151" height="305" x="378" y="539" fill="#4816D3" stroke="#54DAC9" stroke-opacity=".817" stroke-width="1" opacity=".519" transform="rotate(154.0 400 300)"/><path fill="#6C7281" stroke="#A811A1" stroke-opacity=".832" stroke-width="2" d="M 200,137 C 354,375 452,106 157,240 C 368,496 478,231 582,239 C 646,462 308,428 134,211 C 177,106 432,473 688,340 C 544,475 647,138 528,201 C 634,382 390,381 312,158 C 359,262 109,253 214,152 C 486,459 400,459 683,410 C 655,314 565,177 448,434 C 562,302 519,391 696,166 C 654,389 162,461 409,471 Z" opacity=".612" transform="rotate(8.0 400 300)"/><ellipse cx="741" cy="81" fill="#B335D4" stroke="#12A80C" stroke-opacity=".468" stroke-width="5" opacity=".611" rx="181" ry="264" transform="rotate(-92.0 400 300)"/><polygon fill="#91562A" stroke="#A912A2" stroke-opacity=".504" stroke-width="1" points="610 384 66 66 82 67 702 524 664 182 709 98" opacity=".527" transform="rotate(-118.0 400 300)"/></g></svg>