<svg xmlns="http://www.w3.org/2000/svg" xmlns:xlink="http://www.w3.org/1999/xlink" width="800" height="600" version="1.1" viewBox="0 0 800 600"><g fill="none" fill-rule="evenodd" stroke="none" stroke-width="1"><path fill="#fe9225" stroke="#2cd3f3" stroke-opacity=".508" stroke-width="5" d="M 689,270 C 621,407 417,181 447,242 C 436,241 462,482 183,410 C 405,162 657,453 229,367 C 333,409 473,207 397,172 C 292,409 651,383 521,483 Z" opacity=".623" transform="rotate(-86.0 400 300)"/><path fill="#0fa6d8" stroke="#f559a0" stroke-opacity=".714" stroke-width="1" d="M 300,291 C 162,403 107,419 212,276 C 548,197 231,487 288,409 C 407,327 337,463 508,453 C 624,368 629,226 423,465 C 622,238 294,382 516,199 Z" opacity=".01" transform="rotate(-15.0 400 300)"/><path fill="#2cd3f3" stroke="#fe9225" stroke-opacity=".524" stroke-width="1" d="M 227,423 C 399,401 303,166 282,413 C 371,119 130,145 161,324 C 112,132 686,344 652,167 C 328,139 217,391 240,363 C 263,216 619,309 595,471 C 459,214 462,401 436,370 C 454,409 172,120 144,131 C 519,279 199,469 162,427 C 184,331 245,352 362,134 C 425,130 108,146 562,447 Z" opacity=".064" transform="rotate(64.0 400 300)"/><path fill="#f559a0" stroke="#f559a0" stroke-opacity=".872" stroke-width="6" d="M 413,219 C 271,412 631,202 386,405 C 516,401 498,202 603,500 C 430,264 432,418 456,168 C 135,330 275,317 201,249 Z" opacity=".302" transform="rotate(-44.0 400 300)"/><path fill="#0fa6d8" stroke="#2cd3f3" stroke-opacity=".621" stroke-width="6" d="M 699,330 C 357,398 641,321 370,383 C 239,339 144,461 293,114 C 320,112 109,142 339,458 C 199,349 541,110 672,309 C 163,352 521,207 502,107 Z" opacity=".978" transform="rotate(140.0 400 300)"/><path fill="#2cd3f3" stroke="#2cd3f3" stroke-opacity=".494" stroke-width="2" d="M 555,406 C 448,476 661,329 599,458 C 104,291 299,170 571,384 C 563,286 613,308 680,377 C 440,245 576,379 315,307 C 300,112 415,254 325,404 C 679,482 172,378 136,478 Z" opacity=".631" transform="rotate(-147.0 400 300)"/><path fill="#0fa6d8" stroke="#f559a0" stroke-opacity=".719" stroke-width="3" d="M 212,416 C 614,470 458,348 502,233 C 688,409 276,316 138,123 C 183,446 359,114 112,246 C 645,315 530,320 144,246 C 133,284 320,107 529,319 C 572,200 591,443 392,234 C 175,226 478,281 325,308 C 586,414 347,289 642,469 C 476,168 405,274 331,373 Z" opacity=".327" transform="rotate(131.0 400 300)"/><path fill="#fe9225" stroke="#0fa6d8" stroke-opacity=".606" stroke-width="3" d="M 429,410 C 375,438 159,382 655,145 C 184,394 639,131 438,483 C 495,126 194,120 528,271 C 178,120 695,373 116,317 C 571,329 305,246 319,140 C 255,329 347,149 130,234 C 699,363 597,237 507,411 C 564,499 615,320 693,499 Z" opacity=".644" transform="rotate(100.0 400 300)"/><path fill="#02eb6b" stroke="#f559a0" stroke-opacity=".397" stroke-width="4" d="M 146,222 C 188,231 686,443 441,393 C 148,172 109,182 147,126 C 568,116 454,146 341,130 C 564,462 395,227 409,262 C 635,487 217,295 342,471 C 439,453 451,109 541,247 C 235,226 401,322 587,225 C 620,186 436,141 635,471 C 381,257 184,286 234,239 C 229,358 178,243 165,261 C 327,335 107,444 344,185 Z" opacity=".452" transform="rotate(21.0 400 300)"/></g></svg>