<svg xmlns="http://www.w3.org/2000/svg" xmlns:xlink="http://www.w3.org/1999/xlink" width="800" height="600" version="1.1" viewBox="0 0 800 600"><g fill="none" fill-rule="evenodd" stroke="none" stroke-width="1"><path fill="#02eb6b" stroke="#2cd3f3" stroke-opacity=".438" stroke-width="6" d="M 660,413 C 463,154 670,165 478,355 C 540,305 296,194 368,417 C 369,342 393,184 665,280 C 479,223 256,112 189,423 C 353,168 608,437 554,450 Z" opacity=".3" transform="rotate(179.0 400 300)"/><path fill="#2cd3f3" stroke="#02eb6b" stroke-opacity=".448" stroke-width="6" d="M 361,402 C 297,219 416,415 213,283 C 345,487 404,316 255,104 C 181,449 576,393 420,396 C 216,459 658,409 243,370 C 250,410 355,267 104,184 C 625,331 475,411 222,233 C 157,426 403,206 555,286 C 347,261 311,310 524,362 C 532,181 693,355 229,427 Z" opacity=".535" transform="rotate(-152.0 400 300)"/><path fill="#0fa6d8" stroke="#fe9225" stroke-opacity=".356" stroke-width="6" d="M 601,484 C 167,499 569,466 421,226 C 228,379 569,104 644,185 C 640,267 450,361 102,500 C 360,101 349,343 259,263 C 176,288 127,101 254,471 C 175,297 193,494 350,443 C 223,396 397,125 663,206 C 488,399 257,117 188,396 C 631,357 241,261 150,235 C 131,107 308,109 225,302 Z" opacity=".367" transform="rotate(-114.0 400 300)"/><path fill="#0fa6d8" stroke="#2cd3f3" stroke-opacity=".441" stroke-width="7" d="M 402,286 C 275,264 220,185 556,142 C 410,377 248,435 120,490 C 365,254 166,370 469,116 C 608,415 627,246 548,350 C 111,144 421,427 128,210 C 474,230 467,145 190,323 C 674,480 354,251 132,407 C 322,351 466,148 162,278 C 344,109 679,438 536,102 C 525,311 594,354 442,397 Z" opacity=".684" transform="rotate(-64.0 400 300)"/><path fill="#f559a0" stroke="#0fa6d8" stroke-opacity=".44" stroke-width="7" d="M 476,180 C 455,223 347,408 426,383 C 228,167 558,253 453,414 C 275,172 337,480 429,292 C 580,452 573,223 678,255 C 616,257 388,418 258,441 C 390,491 230,327 327,193 C 529,485 683,358 265,125 C 366,375 185,303 165,101 Z" opacity=".307" transform="rotate(83.0 400 300)"/><path fill="#02eb6b" stroke="#2cd3f3" stroke-opacity=".789" stroke-width="7" d="M 517,180 C 536,231 501,217 153,454 C 586,462 418,264 284,412 C 468,405 606,462 652,320 C 217,199 482,243 502,495 C 143,164 478,479 672,229 C 439,123 564,374 460,282 C 154,495 494,300 479,459 Z" opacity=".71" transform="rotate(-7.0 400 300)"/></g></svg>