<?xml version="1.0" encoding="UTF-8"?>
<svg width="800px" height="600px" viewBox="0 0 800 600" version="1.1" xmlns="http://www.w3.org/2000/svg" xmlns:xlink="http://www.w3.org/1999/xlink">
  <defs></defs>
  <g stroke="none" stroke-width="1" fill="none" fill-rule="evenodd">
    
    <ellipse stroke="#f559a0" stroke-width="4" fill="#2cd3f3" opacity="0.7000177387340769" stroke-opacity="0.14355043344036464" transform="rotate(115.0 400 300)" cx="230" rx="177" cy="157" ry="301"></ellipse>
<ellipse stroke="#2cd3f3" stroke-width="2" fill="#02eb6b" opacity="0.3474402134612923" stroke-opacity="0.7501284776171615" transform="rotate(28.0 400 300)" cx="700" rx="178" cy="12" ry="347"></ellipse>
<ellipse stroke="#02eb6b" stroke-width="6" fill="#fe9225" opacity="0.4430760377321152" stroke-opacity="0.1841506402384969" transform="rotate(-74.0 400 300)" cx="629" rx="83" cy="421" ry="222"></ellipse>
<polygon stroke="#2cd3f3" stroke-width="5" fill="#02eb6b" opacity="0.03935823511737325" stroke-opacity="0.6695784779881788" transform="rotate(-28.0 400 300)" points="103 256 758 413 539 370 151 242 753 442 162 213 724 220 451 205 "></polygon>
<rect stroke="#02eb6b" stroke-width="7" fill="#02eb6b" opacity="0.5408326503676169" stroke-opacity="0.03865910224645287" transform="rotate(35.0 400 300)" x="699" y="269" width="64" height="348"></rect>
<path stroke="#2cd3f3" stroke-width="2" fill="#f559a0" opacity="0.33431781622112644" stroke-opacity="0.2995795064995109" transform="rotate(64.0 400 300)" d="M 290,329  C 137,497 468,433 320,343 C 527,283 513,145 577,241 C 335,422 609,395 273,412 C 615,169 465,248 433,308 C 233,119 318,184 203,300 Z"></path>
<ellipse stroke="#02eb6b" stroke-width="4" fill="#02eb6b" opacity="0.558702809783908" stroke-opacity="0.7746504145658841" transform="rotate(-71.0 400 300)" cx="702" rx="440" cy="530" ry="347"></ellipse>
<polygon stroke="#02eb6b" stroke-width="4" fill="#02eb6b" opacity="0.09717062573127289" stroke-opacity="0.04996774960632211" transform="rotate(119.0 400 300)" points="125 490 262 544 205 411 98 289 447 563 "></polygon>
<rect stroke="#2cd3f3" stroke-width="7" fill="#f559a0" opacity="0.3074796327238777" stroke-opacity="0.16046654347491138" transform="rotate(-93.0 400 300)" x="408" y="498" width="200" height="155"></rect>

  </g>
</svg>
