<svg xmlns="http://www.w3.org/2000/svg" xmlns:xlink="http://www.w3.org/1999/xlink" width="800" height="600" version="1.1" viewBox="0 0 800 600"><g fill="none" fill-rule="evenodd" stroke="none" stroke-width="1"><ellipse cx="230" cy="157" fill="#2cd3f3" stroke="#f559a0" stroke-opacity=".144" stroke-width="4" opacity=".7" rx="177" ry="301" transform="rotate(115.0 400 300)"/><ellipse cx="700" cy="12" fill="#02eb6b" stroke="#2cd3f3" stroke-opacity=".75" stroke-width="2" opacity=".347" rx="178" ry="347" transform="rotate(28.0 400 300)"/><ellipse cx="629" cy="421" fill="#fe9225" stroke="#02eb6b" stroke-opacity=".184" stroke-width="6" opacity=".443" rx="83" ry="222" transform="rotate(-74.0 400 300)"/><polygon fill="#02eb6b" stroke="#2cd3f3" stroke-opacity=".67" stroke-width="5" points="103 256 758 413 539 370 151 242 753 442 162 213 724 220 451 205" opacity=".039" transform="rotate(-28.0 400 300)"/><rect width="64" height="348" x="699" y="269" fill="#02eb6b" stroke="#02eb6b" stroke-opacity=".039" stroke-width="7" opacity=".541" transform="rotate(35.0 400 300)"/><path fill="#f559a0" stroke="#2cd3f3" stroke-opacity=".3" stroke-width="2" d="M 290,329 C 137,497 468,433 320,343 C 527,283 513,145 577,241 C 335,422 609,395 273,412 C 615,169 465,248 433,308 C 233,119 318,184 203,300 Z" opacity=".334" transform="rotate(64.0 400 300)"/><ellipse cx="702" cy="530" fill="#02eb6b" stroke="#02eb6b" stroke-opacity=".775" stroke-width="4" opacity=".559" rx="440" ry="347" transform="rotate(-71.0 400 300)"/><polygon fill="#02eb6b" stroke="#02eb6b" stroke-opacity=".05" stroke-width="4" points="125 490 262 544 205 411 98 289 447 563" opacity=".097" transform="rotate(119.0 400 300)"/><rect width="200" height="155" x="408" y="498" fill="#f559a0" stroke="#2cd3f3" stroke-opacity=".16" stroke-width="7" opacity=".307" transform="rotate(-93.0 400 300)"/></g></svg>