<svg xmlns="http://www.w3.org/2000/svg" xmlns:xlink="http://www.w3.org/1999/xlink" width="800" height="600" version="1.1" viewBox="0 0 800 600"><g fill="none" fill-rule="evenodd" stroke="none" stroke-width="1"><path fill="#31a06b" stroke="#f27630" stroke-opacity=".9" stroke-width="4" d="M 628,264 C 366,328 271,323 225,430 C 529,408 624,431 378,384 C 252,407 120,361 442,296 C 373,102 510,491 598,449 C 425,468 632,390 455,386 C 503,304 645,329 467,326 C 175,427 678,283 662,461 C 238,262 554,289 327,457 C 544,158 493,211 428,388 C 261,302 630,470 113,452 Z" opacity=".825" transform="rotate(15.0 400 300)"/><path fill="#ed2b2c" stroke="#31a06b" stroke-opacity=".055" stroke-width="3" d="M 357,204 C 586,353 690,411 284,343 C 491,454 692,470 226,323 C 178,413 239,322 259,448 C 631,137 618,390 621,216 C 543,487 666,339 240,476 C 110,324 563,160 291,231 C 291,460 410,270 437,422 C 345,355 584,170 290,177 C 348,264 141,326 532,254 C 684,178 595,219 468,419 C 404,479 488,115 310,193 Z" opacity=".282" transform="rotate(-99.0 400 300)"/><path fill="#31a06b" stroke="#f9d84b" stroke-opacity=".719" stroke-width="1" d="M 378,427 C 358,340 508,471 531,237 C 669,278 547,447 175,219 C 493,128 205,314 611,498 C 497,136 103,327 373,169 Z" opacity=".313" transform="rotate(-84.0 400 300)"/><path fill="#f9d84b" stroke="#31a06b" stroke-opacity=".232" stroke-width="4" d="M 452,380 C 674,393 108,321 608,167 C 609,496 586,212 404,300 C 643,284 338,494 394,175 C 113,162 642,185 120,136 C 149,491 425,321 304,183 C 625,500 131,191 485,392 C 314,145 533,323 369,422 C 436,216 264,227 487,122 C 143,331 136,388 610,263 C 119,104 589,125 634,262 C 537,155 207,361 273,414 Z" opacity=".233" transform="rotate(-154.0 400 300)"/><path fill="#ed2b2c" stroke="#31a06b" stroke-opacity=".314" stroke-width="7" d="M 660,123 C 403,373 151,336 493,468 C 570,488 587,114 594,422 C 650,293 692,373 177,348 C 308,458 271,120 630,404 C 529,410 215,252 626,395 Z" opacity=".959" transform="rotate(26.0 400 300)"/><path fill="#ed2b2c" stroke="#31a06b" stroke-opacity=".791" stroke-width="1" d="M 243,184 C 316,142 146,117 554,244 C 223,255 224,451 622,221 C 244,374 133,500 688,429 C 211,237 187,134 273,437 C 201,426 672,148 413,203 C 271,337 194,429 255,270 C 272,223 617,399 396,376 C 464,229 221,423 513,189 Z" opacity=".886" transform="rotate(158.0 400 300)"/><path fill="#f27630" stroke="#f9d84b" stroke-opacity=".604" stroke-width="7" d="M 108,163 C 573,433 102,153 403,221 C 206,353 320,385 694,455 C 637,418 104,350 214,282 C 230,192 407,208 688,108 C 549,470 514,162 652,291 C 392,426 392,498 166,394 C 299,312 611,205 692,339 C 348,364 356,142 408,153 C 694,111 459,131 505,104 C 315,174 513,458 231,420 Z" opacity=".324" transform="rotate(149.0 400 300)"/><path fill="#f27630" stroke="#ed2b2c" stroke-opacity=".879" stroke-width="7" d="M 244,331 C 139,284 545,289 582,277 C 148,184 379,482 512,181 C 436,267 430,160 668,189 C 604,349 495,492 438,341 C 351,451 446,401 336,442 C 252,165 596,123 498,330 C 348,356 521,178 460,105 C 441,448 637,169 298,311 C 527,300 666,148 335,340 C 292,453 133,208 602,473 Z" opacity=".025" transform="rotate(-55.0 400 300)"/><path fill="#f9d84b" stroke="#2b55f7" stroke-opacity=".523" stroke-width="4" d="M 522,290 C 309,490 137,273 283,257 C 182,409 256,356 657,322 C 317,375 553,293 138,161 C 362,386 625,358 363,144 C 203,334 125,299 337,449 C 247,344 254,330 161,287 C 168,353 521,243 343,321 C 662,303 644,340 678,306 C 449,148 147,327 532,325 C 247,356 330,106 151,428 Z" opacity=".603" transform="rotate(-121.0 400 300)"/></g></svg>