<svg xmlns="http://www.w3.org/2000/svg" xmlns:xlink="http://www.w3.org/1999/xlink" width="800" height="600" version="1.1" viewBox="0 0 800 600"><g fill="none" fill-rule="evenodd" stroke="none" stroke-width="1"><path fill="#1C8CBC" stroke="#05C106" stroke-opacity=".486" stroke-width="1" d="M 542,301 C 249,287 118,321 535,190 C 425,121 198,205 133,488 C 339,197 206,270 459,478 C 372,432 179,347 368,310 C 163,496 211,458 589,391 C 376,243 552,476 223,151 C 161,492 609,447 533,200 C 572,277 578,411 390,440 C 395,245 520,271 329,278 Z" opacity=".289" transform="rotate(-167.0 400 300)"/><polygon fill="#D1336D" stroke="#30702B" stroke-opacity=".687" stroke-width="2" points="373 167 331 87 171 212 443 258 30 199 436 359 256 177 135 256" opacity=".016" transform="rotate(-68.0 400 300)"/><rect width="266" height="175" x="114" y="46" fill="#92531C" stroke="#DA8845" stroke-opacity=".573" stroke-width="2" opacity=".385" transform="rotate(158.0 400 300)"/><polygon fill="#72A360" stroke="#6C1AB3" stroke-opacity=".041" stroke-width="4" points="199 454 546 499 348 531 54 186 235 543 455 308" opacity=".155" transform="rotate(-64.0 400 300)"/><path fill="#36B790" stroke="#348A50" stroke-opacity=".447" stroke-width="4" d="M 215,298 C 483,467 105,456 361,118 C 500,134 399,306 398,437 C 256,283 118,238 253,169 C 392,101 452,333 486,473 C 680,267 590,200 313,323 C 284,198 700,485 168,305 C 106,479 217,103 286,344 C 616,163 637,280 240,270 C 657,242 217,323 557,344 Z" opacity=".814" transform="rotate(33.0 400 300)"/><polygon fill="#6CC117" stroke="#9C3C89" stroke-opacity=".024" stroke-width="1" points="443 95 776 575 423 383 402 460 453 165 186 61 107 126" opacity=".794" transform="rotate(42.0 400 300)"/><path fill="#5C76A1" stroke="#82C207" stroke-opacity=".483" stroke-width="4" d="M 613,205 C 678,117 482,459 196,346 C 319,479 620,177 571,468 C 431,115 147,356 333,204 C 385,172 643,183 525,282 C 550,284 282,345 388,319 C 260,387 541,400 244,199 C 659,497 135,314 212,401 C 356,109 173,255 402,159 C 664,479 634,266 503,191 C 610,291 418,202 627,278 Z" opacity=".55" transform="rotate(-60.0 400 300)"/><ellipse cx="375" cy="342" fill="#8D11C1" stroke="#BCBA17" stroke-opacity=".911" stroke-width="4" opacity=".603" rx="340" ry="335" transform="rotate(-101.0 400 300)"/><polygon fill="#C14714" stroke="#C77869" stroke-opacity=".188" stroke-width="5" points="705 388 709 182 320 286 40 151 666 338" opacity=".633" transform="rotate(107.0 400 300)"/><path fill="#506DD3" stroke="#B26278" stroke-opacity=".759" stroke-width="5" d="M 698,300 C 261,237 322,261 294,101 C 177,478 115,389 241,481 C 268,496 280,154 686,163 C 545,494 366,354 472,121 C 519,442 617,493 513,194 C 176,415 606,400 693,309 Z" opacity=".689" transform="rotate(155.0 400 300)"/></g></svg>