<?xml version="1.0" encoding="UTF-8"?>
<svg width="800px" height="600px" viewBox="0 0 800 600" version="1.1" xmlns="http://www.w3.org/2000/svg" xmlns:xlink="http://www.w3.org/1999/xlink">
  <defs></defs>
  <g stroke="none" stroke-width="1" fill="none" fill-rule="evenodd">
    
    <path stroke="#05C106" stroke-width="1" fill="#1C8CBC" opacity="0.28856356403958927" stroke-opacity="0.4864498913752921" transform="rotate(-167.0 400 300)" d="M 542,301  C 249,287 118,321 535,190 C 425,121 198,205 133,488 C 339,197 206,270 459,478 C 372,432 179,347 368,310 C 163,496 211,458 589,391 C 376,243 552,476 223,151 C 161,492 609,447 533,200 C 572,277 578,411 390,440 C 395,245 520,271 329,278 Z"></path>
<polygon stroke="#30702B" stroke-width="2" fill="#D1336D" opacity="0.016391673797005304" stroke-opacity="0.6870570709927116" transform="rotate(-68.0 400 300)" points="373 167 331 87 171 212 443 258 30 199 436 359 256 177 135 256 "></polygon>
<rect stroke="#DA8845" stroke-width="2" fill="#92531C" opacity="0.3854375467462176" stroke-opacity="0.5726006863694684" transform="rotate(158.0 400 300)" x="114" y="46" width="266" height="175"></rect>
<polygon stroke="#6C1AB3" stroke-width="4" fill="#72A360" opacity="0.15509983821004836" stroke-opacity="0.041333796656011425" transform="rotate(-64.0 400 300)" points="199 454 546 499 348 531 54 186 235 543 455 308 "></polygon>
<path stroke="#348A50" stroke-width="4" fill="#36B790" opacity="0.8141508813798465" stroke-opacity="0.4470977264604218" transform="rotate(33.0 400 300)" d="M 215,298  C 483,467 105,456 361,118 C 500,134 399,306 398,437 C 256,283 118,238 253,169 C 392,101 452,333 486,473 C 680,267 590,200 313,323 C 284,198 700,485 168,305 C 106,479 217,103 286,344 C 616,163 637,280 240,270 C 657,242 217,323 557,344 Z"></path>
<polygon stroke="#9C3C89" stroke-width="1" fill="#6CC117" opacity="0.7936752155682467" stroke-opacity="0.024196984312055303" transform="rotate(42.0 400 300)" points="443 95 776 575 423 383 402 460 453 165 186 61 107 126 "></polygon>
<path stroke="#82C207" stroke-width="4" fill="#5C76A1" opacity="0.5495997617112479" stroke-opacity="0.4834929725577123" transform="rotate(-60.0 400 300)" d="M 613,205  C 678,117 482,459 196,346 C 319,479 620,177 571,468 C 431,115 147,356 333,204 C 385,172 643,183 525,282 C 550,284 282,345 388,319 C 260,387 541,400 244,199 C 659,497 135,314 212,401 C 356,109 173,255 402,159 C 664,479 634,266 503,191 C 610,291 418,202 627,278 Z"></path>
<ellipse stroke="#BCBA17" stroke-width="4" fill="#8D11C1" opacity="0.6026938351907069" stroke-opacity="0.9114872562342744" transform="rotate(-101.0 400 300)" cx="375" rx="340" cy="342" ry="335"></ellipse>
<polygon stroke="#C77869" stroke-width="5" fill="#C14714" opacity="0.6332677605867517" stroke-opacity="0.18840665988444938" transform="rotate(107.0 400 300)" points="705 388 709 182 320 286 40 151 666 338 "></polygon>
<path stroke="#B26278" stroke-width="5" fill="#506DD3" opacity="0.6886882597879381" stroke-opacity="0.7585900851218023" transform="rotate(155.0 400 300)" d="M 698,300  C 261,237 322,261 294,101 C 177,478 115,389 241,481 C 268,496 280,154 686,163 C 545,494 366,354 472,121 C 519,442 617,493 513,194 C 176,415 606,400 693,309 Z"></path>

  </g>
</svg>
