<?xml version="1.0" encoding="UTF-8"?>
<svg width="800px" height="600px" viewBox="0 0 800 600" version="1.1" xmlns="http://www.w3.org/2000/svg" xmlns:xlink="http://www.w3.org/1999/xlink">
  <defs></defs>
  <g stroke="none" stroke-width="1" fill="none" fill-rule="evenodd">
    
    <path stroke="#23B997" stroke-width="7" fill="#0D6456" opacity="0.20592525693054953" stroke-opacity="0.22994394817977518" transform="rotate(87.0 400 300)" d="M 144,114  C 516,423 431,464 572,261 C 564,452 673,148 306,361 C 424,351 470,117 572,187 C 285,238 274,271 418,457 C 186,380 343,392 531,478 C 460,353 126,374 203,119 C 330,329 440,250 532,321 C 606,411 669,172 493,462 C 637,420 541,267 596,181 C 267,279 371,214 373,466 Z"></path>
<path stroke="#5B3797" stroke-width="3" fill="#96BD89" opacity="0.32678729643514787" stroke-opacity="0.36690864462422007" transform="rotate(-124.0 400 300)" d="M 466,304  C 408,486 225,155 246,285 C 458,428 188,213 169,414 C 153,278 105,294 386,350 C 536,306 276,492 330,476 C 396,426 139,334 445,449 C 371,186 472,370 602,289 C 672,190 244,356 615,179 Z"></path>
<path stroke="#3D9CD2" stroke-width="5" fill="#3ADACD" opacity="0.9820832080195101" stroke-opacity="0.3516846656277175" transform="rotate(-73.0 400 300)" d="M 135,207  C 343,170 318,358 124,408 C 170,128 689,188 155,152 C 315,223 319,217 599,355 C 220,484 429,255 655,291 C 600,379 329,496 363,426 Z"></path>
<path stroke="#00C592" stroke-width="2" fill="#06D36C" opacity="0.10767438339056755" stroke-opacity="0.9917917349087799" transform="rotate(78.0 400 300)" d="M 346,242  C 280,199 298,338 174,420 C 560,118 669,349 395,114 C 180,197 332,357 266,183 C 485,441 512,121 522,142 Z"></path>
<path stroke="#2C5B80" stroke-width="6" fill="#D22DB2" opacity="0.005065675029136191" stroke-opacity="0.11980851510079904" transform="rotate(-117.0 400 300)" d="M 149,353  C 369,232 385,129 230,347 C 310,406 652,200 185,113 C 616,355 256,321 683,410 C 250,106 404,181 145,473 C 288,136 586,436 552,216 C 225,109 193,177 409,455 Z"></path>
<path stroke="#27A0B5" stroke-width="5" fill="#521BBB" opacity="0.6641163884200034" stroke-opacity="0.9519553188822294" transform="rotate(52.0 400 300)" d="M 363,237  C 182,474 538,439 546,495 C 678,152 360,212 382,303 C 523,119 510,449 374,223 C 684,196 583,131 247,181 C 134,303 424,136 297,281 Z"></path>
<path stroke="#01D7C0" stroke-width="2" fill="#266B15" opacity="0.1543877594807602" stroke-opacity="0.12552153038057226" transform="rotate(-15.0 400 300)" d="M 614,268  C 650,261 392,130 303,287 C 505,151 165,246 253,241 C 562,325 339,286 280,447 C 272,140 148,275 683,232 C 680,383 224,234 359,181 C 643,441 589,192 277,141 C 399,120 556,411 276,181 Z"></path>
<path stroke="#B6D2A5" stroke-width="5" fill="#DBB8A6" opacity="0.4219822961398212" stroke-opacity="0.9635350778644924" transform="rotate(87.0 400 300)" d="M 436,393  C 264,126 488,292 599,422 C 294,288 579,140 135,351 C 541,131 357,199 593,176 C 405,371 502,343 405,259 C 356,159 366,344 676,238 C 347,249 446,227 598,339 C 173,393 160,451 500,419 C 641,198 613,441 482,285 C 594,261 469,339 410,315 Z"></path>
<path stroke="#279369" stroke-width="3" fill="#4C169D" opacity="0.5672896971743129" stroke-opacity="0.4290070721263184" transform="rotate(19.0 400 300)" d="M 315,343  C 277,367 250,430 249,110 C 686,491 294,291 217,168 C 267,388 514,407 469,256 C 542,221 355,108 581,467 C 334,448 317,154 429,419 C 363,184 524,387 524,217 C 221,172 266,117 128,258 C 290,498 253,291 114,259 Z"></path>
<path stroke="#6089B0" stroke-width="4" fill="#B12028" opacity="0.29411161789748674" stroke-opacity="0.4146849868825991" transform="rotate(-90.0 400 300)" d="M 233,315  C 444,483 511,183 520,439 C 648,382 208,332 350,339 C 251,132 226,229 258,249 C 353,343 382,228 626,444 C 508,189 313,241 341,333 C 323,178 517,119 351,419 C 211,161 224,194 153,286 C 320,449 550,165 677,195 C 371,328 618,240 578,374 C 425,232 102,370 305,167 C 292,153 222,107 415,492 Z"></path>

  </g>
</svg>
