<?xml version="1.0" encoding="UTF-8"?>
<svg width="800px" height="600px" viewBox="0 0 800 600" version="1.1" xmlns="http://www.w3.org/2000/svg" xmlns:xlink="http://www.w3.org/1999/xlink">
  <defs></defs>
  <g stroke="none" stroke-width="1" fill="none" fill-rule="evenodd">
    
    <path stroke="#ed2b2c" stroke-width="2" fill="#f9d84b" opacity="0.9153350048529182" stroke-opacity="0.9156503351176412" transform="rotate(26.0 400 300)" d="M 158,115  C 551,445 381,117 348,454 C 442,304 570,242 129,126 C 264,361 631,394 284,225 C 449,153 182,229 673,401 C 536,402 393,179 183,102 C 621,143 690,313 355,186 C 119,208 330,499 260,227 C 377,424 546,171 623,187 C 505,188 123,279 399,360 Z"></path>
<path stroke="#31a06b" stroke-width="6" fill="#f9d84b" opacity="0.020017705193331407" stroke-opacity="0.45513308272919084" transform="rotate(-171.0 400 300)" d="M 592,180  C 402,140 661,280 426,487 C 496,268 480,108 228,190 C 664,277 279,237 250,143 C 561,174 402,350 149,316 C 121,160 491,206 628,112 C 218,302 173,141 694,306 Z"></path>
<path stroke="#f9d84b" stroke-width="2" fill="#ed2b2c" opacity="0.15356898284433732" stroke-opacity="0.8001133036751495" transform="rotate(-20.0 400 300)" d="M 585,143  C 249,305 555,111 352,414 C 549,237 634,495 511,218 C 119,220 351,262 245,296 C 651,285 484,491 294,129 C 154,301 411,218 512,267 C 219,179 279,309 508,134 C 127,490 311,497 237,143 Z"></path>
<path stroke="#f9d84b" stroke-width="7" fill="#31a06b" opacity="0.04090920859224583" stroke-opacity="0.1683335304835669" transform="rotate(80.0 400 300)" d="M 511,282  C 675,310 478,277 442,374 C 451,486 133,257 646,267 C 268,386 339,112 517,316 C 167,261 217,416 306,206 C 322,411 600,378 648,217 C 242,445 140,385 261,156 C 673,351 280,154 335,405 C 554,155 521,437 570,246 C 544,483 519,265 224,152 C 355,133 255,205 465,315 C 202,220 506,132 400,162 Z"></path>
<path stroke="#f9d84b" stroke-width="4" fill="#f27630" opacity="0.5660076205646987" stroke-opacity="0.44801114324333996" transform="rotate(4.0 400 300)" d="M 110,181  C 135,366 301,255 472,105 C 402,368 185,299 155,403 C 138,325 649,499 471,288 C 463,329 329,268 409,365 Z"></path>
<path stroke="#31a06b" stroke-width="6" fill="#2b55f7" opacity="0.6990866997505983" stroke-opacity="0.27371172177137204" transform="rotate(44.0 400 300)" d="M 237,201  C 659,273 465,128 247,190 C 476,389 640,226 413,368 C 219,161 350,209 143,267 C 579,422 652,120 585,119 C 601,128 511,395 405,427 C 462,366 588,189 523,318 Z"></path>
<path stroke="#2b55f7" stroke-width="2" fill="#31a06b" opacity="0.8875932714935226" stroke-opacity="0.5584071094671449" transform="rotate(47.0 400 300)" d="M 347,342  C 612,144 599,215 182,215 C 418,222 370,486 454,200 C 434,106 469,111 337,188 C 200,382 510,432 550,185 Z"></path>
<path stroke="#ed2b2c" stroke-width="3" fill="#f27630" opacity="0.1345021136317695" stroke-opacity="0.7319645040027278" transform="rotate(30.0 400 300)" d="M 652,197  C 623,354 537,191 521,468 C 223,299 558,483 663,351 C 329,105 215,200 584,420 C 389,280 486,190 357,335 C 608,102 130,353 216,301 C 630,227 266,265 235,325 C 629,469 320,484 244,185 C 151,238 431,396 555,467 C 582,484 405,465 557,114 C 566,495 189,365 351,327 C 570,191 342,301 279,442 Z"></path>
<path stroke="#ed2b2c" stroke-width="5" fill="#ed2b2c" opacity="0.2947249833802953" stroke-opacity="0.057913650997046186" transform="rotate(-98.0 400 300)" d="M 340,445  C 520,183 691,387 228,254 C 363,304 351,107 562,403 C 301,342 325,196 382,346 C 470,409 687,287 351,321 C 583,136 460,344 459,212 Z"></path>
<path stroke="#2b55f7" stroke-width="1" fill="#31a06b" opacity="0.39970608229449034" stroke-opacity="0.4510360438692129" transform="rotate(-139.0 400 300)" d="M 542,400  C 611,451 234,490 116,459 C 218,242 113,315 556,375 C 600,377 193,415 634,113 C 422,299 145,141 354,328 C 183,473 300,426 582,172 C 485,258 101,210 577,447 C 291,244 561,428 229,450 Z"></path>
<path stroke="#f9d84b" stroke-width="2" fill="#ed2b2c" opacity="0.17897994447499924" stroke-opacity="0.33147648955441134" transform="rotate(25.0 400 300)" d="M 291,315  C 105,287 312,299 458,383 C 473,289 107,464 640,212 C 110,485 525,327 197,344 C 657,456 218,366 285,218 C 529,361 281,417 153,347 C 376,184 586,317 641,317 Z"></path>

  </g>
</svg>
