<svg xmlns="http://www.w3.org/2000/svg" xmlns:xlink="http://www.w3.org/1999/xlink" width="800" height="600" version="1.1" viewBox="0 0 800 600"><g fill="none" fill-rule="evenodd" stroke="none" stroke-width="1"><path fill="#f9d84b" stroke="#ed2b2c" stroke-opacity=".916" stroke-width="2" d="M 158,115 C 551,445 381,117 348,454 C 442,304 570,242 129,126 C 264,361 631,394 284,225 C 449,153 182,229 673,401 C 536,402 393,179 183,102 C 621,143 690,313 355,186 C 119,208 330,499 260,227 C 377,424 546,171 623,187 C 505,188 123,279 399,360 Z" opacity=".915" transform="rotate(26.0 400 300)"/><path fill="#f9d84b" stroke="#31a06b" stroke-opacity=".455" stroke-width="6" d="M 592,180 C 402,140 661,280 426,487 C 496,268 480,108 228,190 C 664,277 279,237 250,143 C 561,174 402,350 149,316 C 121,160 491,206 628,112 C 218,302 173,141 694,306 Z" opacity=".02" transform="rotate(-171.0 400 300)"/><path fill="#ed2b2c" stroke="#f9d84b" stroke-opacity=".8" stroke-width="2" d="M 585,143 C 249,305 555,111 352,414 C 549,237 634,495 511,218 C 119,220 351,262 245,296 C 651,285 484,491 294,129 C 154,301 411,218 512,267 C 219,179 279,309 508,134 C 127,490 311,497 237,143 Z" opacity=".154" transform="rotate(-20.0 400 300)"/><path fill="#31a06b" stroke="#f9d84b" stroke-opacity=".168" stroke-width="7" d="M 511,282 C 675,310 478,277 442,374 C 451,486 133,257 646,267 C 268,386 339,112 517,316 C 167,261 217,416 306,206 C 322,411 600,378 648,217 C 242,445 140,385 261,156 C 673,351 280,154 335,405 C 554,155 521,437 570,246 C 544,483 519,265 224,152 C 355,133 255,205 465,315 C 202,220 506,132 400,162 Z" opacity=".041" transform="rotate(80.0 400 300)"/><path fill="#f27630" stroke="#f9d84b" stroke-opacity=".448" stroke-width="4" d="M 110,181 C 135,366 301,255 472,105 C 402,368 185,299 155,403 C 138,325 649,499 471,288 C 463,329 329,268 409,365 Z" opacity=".566" transform="rotate(4.0 400 300)"/><path fill="#2b55f7" stroke="#31a06b" stroke-opacity=".274" stroke-width="6" d="M 237,201 C 659,273 465,128 247,190 C 476,389 640,226 413,368 C 219,161 350,209 143,267 C 579,422 652,120 585,119 C 601,128 511,395 405,427 C 462,366 588,189 523,318 Z" opacity=".699" transform="rotate(44.0 400 300)"/><path fill="#31a06b" stroke="#2b55f7" stroke-opacity=".558" stroke-width="2" d="M 347,342 C 612,144 599,215 182,215 C 418,222 370,486 454,200 C 434,106 469,111 337,188 C 200,382 510,432 550,185 Z" opacity=".888" transform="rotate(47.0 400 300)"/><path fill="#f27630" stroke="#ed2b2c" stroke-opacity=".732" stroke-width="3" d="M 652,197 C 623,354 537,191 521,468 C 223,299 558,483 663,351 C 329,105 215,200 584,420 C 389,280 486,190 357,335 C 608,102 130,353 216,301 C 630,227 266,265 235,325 C 629,469 320,484 244,185 C 151,238 431,396 555,467 C 582,484 405,465 557,114 C 566,495 189,365 351,327 C 570,191 342,301 279,442 Z" opacity=".135" transform="rotate(30.0 400 300)"/><path fill="#ed2b2c" stroke="#ed2b2c" stroke-opacity=".058" stroke-width="5" d="M 340,445 C 520,183 691,387 228,254 C 363,304 351,107 562,403 C 301,342 325,196 382,346 C 470,409 687,287 351,321 C 583,136 460,344 459,212 Z" opacity=".295" transform="rotate(-98.0 400 300)"/><path fill="#31a06b" stroke="#2b55f7" stroke-opacity=".451" stroke-width="1" d="M 542,400 C 611,451 234,490 116,459 C 218,242 113,315 556,375 C 600,377 193,415 634,113 C 422,299 145,141 354,328 C 183,473 300,426 582,172 C 485,258 101,210 577,447 C 291,244 561,428 229,450 Z" opacity=".4" transform="rotate(-139.0 400 300)"/><path fill="#ed2b2c" stroke="#f9d84b" stroke-opacity=".331" stroke-width="2" d="M 291,315 C 105,287 312,299 458,383 C 473,289 107,464 640,212 C 110,485 525,327 197,344 C 657,456 218,366 285,218 C 529,361 281,417 153,347 C 376,184 586,317 641,317 Z" opacity=".179" transform="rotate(25.0 400 300)"/></g></svg>