<?xml version="1.0" encoding="UTF-8"?>
<svg width="800px" height="600px" viewBox="0 0 800 600" version="1.1" xmlns="http://www.w3.org/2000/svg" xmlns:xlink="http://www.w3.org/1999/xlink">
  <defs></defs>
  <g stroke="none" stroke-width="1" fill="none" fill-rule="evenodd">
    
    <path stroke="#0fa6d8" stroke-width="1" fill="#0fa6d8" opacity="0.7880167762265687" stroke-opacity="0.9799194129134555" transform="rotate(16.0 400 300)" d="M 153,447  C 455,400 574,175 507,177 C 494,358 282,222 360,119 C 349,244 258,303 226,247 C 525,452 151,358 195,483 C 248,455 568,306 356,395 C 642,251 430,119 105,404 C 569,296 547,182 281,500 C 281,155 619,478 583,147 C 432,206 666,103 458,126 C 253,356 583,173 318,345 C 684,201 387,354 450,352 Z"></path>
<path stroke="#fe9225" stroke-width="6" fill="#2cd3f3" opacity="0.7863041751119276" stroke-opacity="0.6179193976598469" transform="rotate(73.0 400 300)" d="M 560,389  C 454,289 283,297 257,265 C 421,403 682,186 619,423 C 107,383 378,452 579,291 C 602,121 261,360 122,363 C 652,110 144,304 112,326 C 402,182 604,108 678,491 C 328,335 258,302 620,344 C 543,317 512,389 353,127 C 186,136 177,216 589,488 Z"></path>
<path stroke="#f559a0" stroke-width="7" fill="#0fa6d8" opacity="0.7130906437263379" stroke-opacity="0.26244892742991754" transform="rotate(-7.0 400 300)" d="M 104,466  C 351,368 497,272 575,319 C 310,343 367,475 687,294 C 327,264 186,234 589,326 C 164,302 612,399 524,232 C 632,270 692,276 219,199 C 698,474 480,284 263,451 C 353,331 163,143 128,473 Z"></path>
<path stroke="#2cd3f3" stroke-width="7" fill="#f559a0" opacity="0.3252467937527395" stroke-opacity="0.2593283831123924" transform="rotate(-36.0 400 300)" d="M 635,299  C 605,359 435,286 660,237 C 650,200 447,487 567,258 C 215,387 358,433 186,455 C 484,350 513,328 611,457 C 273,113 522,105 201,427 C 350,107 141,361 246,379 C 505,280 315,385 243,130 C 452,436 573,441 406,321 Z"></path>
<path stroke="#02eb6b" stroke-width="3" fill="#fe9225" opacity="0.8833797403624606" stroke-opacity="0.6430566352812798" transform="rotate(-29.0 400 300)" d="M 334,154  C 339,394 580,185 255,124 C 135,129 390,191 347,332 C 685,447 648,254 411,280 C 208,110 584,152 650,154 C 613,114 528,479 447,153 C 568,243 187,160 619,113 C 673,154 268,483 160,102 Z"></path>
<path stroke="#2cd3f3" stroke-width="2" fill="#02eb6b" opacity="0.3845401037261248" stroke-opacity="0.266803101949791" transform="rotate(-144.0 400 300)" d="M 150,101  C 247,311 605,328 585,270 C 591,393 112,308 464,489 C 578,106 155,338 385,343 C 217,144 425,278 201,380 C 343,140 394,208 662,283 C 473,462 548,390 593,166 C 365,479 415,354 167,364 Z"></path>
<path stroke="#02eb6b" stroke-width="3" fill="#fe9225" opacity="0.794643944155704" stroke-opacity="0.3719997437898494" transform="rotate(-53.0 400 300)" d="M 166,233  C 357,412 664,222 332,269 C 330,137 534,494 542,339 C 299,416 518,464 665,209 C 197,343 695,474 668,192 C 104,452 409,315 692,150 C 152,148 302,101 610,479 C 623,105 103,412 261,326 C 277,170 685,468 104,354 C 402,144 285,469 451,211 C 589,461 532,275 225,134 C 658,361 104,316 571,438 Z"></path>
<path stroke="#f559a0" stroke-width="4" fill="#0fa6d8" opacity="0.019702659883822905" stroke-opacity="0.7313895417673068" transform="rotate(-124.0 400 300)" d="M 530,440  C 559,455 699,468 436,281 C 135,362 429,289 316,352 C 574,363 220,368 464,162 C 344,231 228,254 181,341 C 411,413 549,113 380,477 C 406,115 247,121 660,104 C 107,124 127,385 638,308 C 413,122 546,394 221,106 C 210,242 169,367 699,381 Z"></path>
<path stroke="#fe9225" stroke-width="5" fill="#fe9225" opacity="0.7653022354101445" stroke-opacity="0.9481954078450844" transform="rotate(-120.0 400 300)" d="M 250,298  C 378,429 214,452 384,170 C 265,102 567,145 453,161 C 663,213 505,367 266,148 C 128,293 612,497 107,481 C 410,444 593,485 696,106 C 535,483 334,254 407,347 C 180,235 630,498 161,426 C 339,154 455,345 587,133 C 472,319 458,290 512,399 C 281,137 357,136 518,408 Z"></path>
<path stroke="#0fa6d8" stroke-width="6" fill="#0fa6d8" opacity="0.9556572758032601" stroke-opacity="0.17994033236078102" transform="rotate(120.0 400 300)" d="M 156,464  C 678,125 225,453 571,177 C 461,310 650,263 657,453 C 429,482 670,404 679,159 C 312,291 629,440 317,334 C 545,403 637,492 640,168 C 636,395 238,386 362,313 C 509,299 621,377 536,203 C 147,286 339,433 354,111 C 673,345 153,111 553,219 Z"></path>

  </g>
</svg>
