<svg xmlns="http://www.w3.org/2000/svg" xmlns:xlink="http://www.w3.org/1999/xlink" width="800" height="600" version="1.1" viewBox="0 0 800 600"><g fill="none" fill-rule="evenodd" stroke="none" stroke-width="1"><path fill="#2A22BC" stroke="#5766A1" stroke-opacity=".068" stroke-width="5" d="M 473,331 C 642,350 679,367 297,387 C 648,256 209,121 444,448 C 568,235 437,220 483,167 C 654,414 371,348 676,358 C 139,236 442,476 144,140 C 485,211 526,104 182,346 C 193,136 443,433 321,348 Z" opacity=".014" transform="rotate(-132.0 400 300)"/><rect width="347" height="155" x="565" y="292" fill="#B27043" stroke="#989717" stroke-opacity=".157" stroke-width="2" opacity=".913" transform="rotate(-109.0 400 300)"/><rect width="386" height="367" x="728" y="566" fill="#CA2727" stroke="#563B3C" stroke-opacity=".697" stroke-width="3" opacity=".387" transform="rotate(67.0 400 300)"/><path fill="#A5CC91" stroke="#84A263" stroke-opacity=".321" stroke-width="3" d="M 559,365 C 101,257 335,479 213,416 C 108,484 252,200 463,164 C 170,216 481,374 320,438 C 272,468 321,116 189,202 Z" opacity=".645" transform="rotate(-28.0 400 300)"/><rect width="95" height="400" x="231" y="389" fill="#B78210" stroke="#897BB3" stroke-opacity=".528" stroke-width="4" opacity=".311" transform="rotate(30.0 400 300)"/><polygon fill="#BD891A" stroke="#67A524" stroke-opacity=".297" stroke-width="3" points="134 10 279 320 413 31 478 312 594 450 487 119" opacity=".901" transform="rotate(100.0 400 300)"/><polygon fill="#03C140" stroke="#238C5A" stroke-opacity=".376" stroke-width="4" points="567 214 599 259 192 541 219 82 766 468 192 597 35 483 769 580" opacity=".26" transform="rotate(-34.0 400 300)"/><ellipse cx="220" cy="389" fill="#A852CA" stroke="#A86872" stroke-opacity=".121" stroke-width="4" opacity=".022" rx="71" ry="219" transform="rotate(6.0 400 300)"/><rect width="326" height="268" x="659" y="313" fill="#88D877" stroke="#9D27DC" stroke-opacity=".047" stroke-width="4" opacity=".393" transform="rotate(23.0 400 300)"/></g></svg>