<?xml version="1.0" encoding="UTF-8"?>
<svg width="800px" height="600px" viewBox="0 0 800 600" version="1.1" xmlns="http://www.w3.org/2000/svg" xmlns:xlink="http://www.w3.org/1999/xlink">
  <defs></defs>
  <g stroke="none" stroke-width="1" fill="none" fill-rule="evenodd">
    
    <path stroke="#5766A1" stroke-width="5" fill="#2A22BC" opacity="0.0138602844494969" stroke-opacity="0.0677129766410322" transform="rotate(-132.0 400 300)" d="M 473,331  C 642,350 679,367 297,387 C 648,256 209,121 444,448 C 568,235 437,220 483,167 C 654,414 371,348 676,358 C 139,236 442,476 144,140 C 485,211 526,104 182,346 C 193,136 443,433 321,348 Z"></path>
<rect stroke="#989717" stroke-width="2" fill="#B27043" opacity="0.9134013421238739" stroke-opacity="0.15710514370800044" transform="rotate(-109.0 400 300)" x="565" y="292" width="347" height="155"></rect>
<rect stroke="#563B3C" stroke-width="3" fill="#CA2727" opacity="0.3869501107432436" stroke-opacity="0.6966798699965036" transform="rotate(67.0 400 300)" x="728" y="566" width="386" height="367"></rect>
<path stroke="#84A263" stroke-width="3" fill="#A5CC91" opacity="0.6449659486812132" stroke-opacity="0.3206953413330542" transform="rotate(-28.0 400 300)" d="M 559,365  C 101,257 335,479 213,416 C 108,484 252,200 463,164 C 170,216 481,374 320,438 C 272,468 321,116 189,202 Z"></path>
<rect stroke="#897BB3" stroke-width="4" fill="#B78210" opacity="0.31143534745310725" stroke-opacity="0.5275031680733454" transform="rotate(30.0 400 300)" x="231" y="389" width="95" height="400"></rect>
<polygon stroke="#67A524" stroke-width="3" fill="#BD891A" opacity="0.9009038236772123" stroke-opacity="0.29650002295293243" transform="rotate(100.0 400 300)" points="134 10 279 320 413 31 478 312 594 450 487 119 "></polygon>
<polygon stroke="#238C5A" stroke-width="4" fill="#03C140" opacity="0.25978155592441265" stroke-opacity="0.37616425137313786" transform="rotate(-34.0 400 300)" points="567 214 599 259 192 541 219 82 766 468 192 597 35 483 769 580 "></polygon>
<ellipse stroke="#A86872" stroke-width="4" fill="#A852CA" opacity="0.021784792889487807" stroke-opacity="0.1211931903209605" transform="rotate(6.0 400 300)" cx="220" rx="71" cy="389" ry="219"></ellipse>
<rect stroke="#9D27DC" stroke-width="4" fill="#88D877" opacity="0.39269546465362026" stroke-opacity="0.04699364164904166" transform="rotate(23.0 400 300)" x="659" y="313" width="326" height="268"></rect>

  </g>
</svg>
