<?xml version="1.0" encoding="UTF-8"?>
<svg width="800px" height="600px" viewBox="0 0 800 600" version="1.1" xmlns="http://www.w3.org/2000/svg" xmlns:xlink="http://www.w3.org/1999/xlink">
  <defs></defs>
  <g stroke="none" stroke-width="1" fill="none" fill-rule="evenodd">
    
    <path stroke="#771996" stroke-width="4" fill="#7B2673" opacity="0.3175795741324642" stroke-opacity="0.53243285117237" transform="rotate(-47.0 400 300)" d="M 374,411  C 437,425 516,370 199,235 C 517,494 606,351 614,498 C 228,454 539,439 606,314 C 321,347 677,134 473,301 C 363,288 253,349 135,408 Z"></path>
<path stroke="#6A32A3" stroke-width="5" fill="#AC732C" opacity="0.1373420605723167" stroke-opacity="0.0020967892877523328" transform="rotate(83.0 400 300)" d="M 317,181  C 242,373 521,243 463,400 C 660,455 339,484 439,340 C 134,472 524,327 143,190 C 195,406 189,132 323,421 C 350,257 127,215 477,204 C 178,275 565,189 516,133 Z"></path>
<path stroke="#B3272C" stroke-width="5" fill="#9B2627" opacity="0.8776668575479644" stroke-opacity="0.30039506180136377" transform="rotate(-86.0 400 300)" d="M 207,248  C 476,447 225,261 341,292 C 335,252 264,214 695,314 C 328,258 581,429 459,463 C 645,102 389,212 221,213 C 590,481 662,190 531,326 C 695,437 463,174 675,443 C 623,417 470,200 266,309 C 532,273 174,342 423,261 C 553,118 429,373 664,226 C 315,288 382,395 671,290 C 626,246 463,379 549,155 Z"></path>
<path stroke="#C9DC61" stroke-width="4" fill="#A78558" opacity="0.30563575218352895" stroke-opacity="0.14060031781857527" transform="rotate(126.0 400 300)" d="M 429,340  C 232,422 522,399 194,106 C 332,426 486,133 547,194 C 503,448 207,367 201,421 C 529,287 132,255 205,394 C 271,362 625,224 261,204 Z"></path>
<path stroke="#360077" stroke-width="4" fill="#365B55" opacity="0.003300891563173934" stroke-opacity="0.5870091248450665" transform="rotate(-61.0 400 300)" d="M 179,494  C 106,167 363,149 690,228 C 458,492 279,210 314,148 C 441,476 499,255 237,408 C 521,479 566,352 562,339 Z"></path>
<path stroke="#621087" stroke-width="3" fill="#C49420" opacity="0.9248705406144551" stroke-opacity="0.6975735064871701" transform="rotate(81.0 400 300)" d="M 511,290  C 421,117 485,114 578,105 C 609,485 109,367 157,487 C 121,434 344,251 487,358 C 387,449 460,162 619,427 C 650,275 520,160 499,328 C 509,296 515,347 285,402 C 115,468 440,467 450,144 C 121,202 599,243 597,262 C 232,449 196,267 552,140 C 194,166 448,385 494,423 Z"></path>
<path stroke="#35B483" stroke-width="5" fill="#D1B793" opacity="0.5905417138102685" stroke-opacity="0.23962663307197135" transform="rotate(123.0 400 300)" d="M 629,334  C 336,274 571,173 357,183 C 540,439 467,452 361,329 C 593,194 308,491 670,388 C 134,381 242,382 158,139 Z"></path>
<path stroke="#A2A198" stroke-width="1" fill="#C3589C" opacity="0.6220927942704222" stroke-opacity="0.8773532555045207" transform="rotate(-154.0 400 300)" d="M 679,129  C 327,353 259,262 621,149 C 203,144 116,253 650,205 C 615,252 448,401 520,318 C 256,245 218,173 178,273 C 529,347 592,188 441,385 Z"></path>
<path stroke="#27A5D6" stroke-width="1" fill="#DA45A6" opacity="0.7933808726760424" stroke-opacity="0.8573582533928142" transform="rotate(-91.0 400 300)" d="M 543,487  C 403,450 220,364 697,360 C 463,327 314,264 535,403 C 453,162 569,264 573,221 C 221,236 164,283 664,320 C 518,327 208,369 557,161 C 357,189 416,183 492,191 Z"></path>
<path stroke="#8DA286" stroke-width="7" fill="#7501DD" opacity="0.057922908279305574" stroke-opacity="0.21938999326872238" transform="rotate(162.0 400 300)" d="M 210,151  C 550,405 171,348 433,289 C 531,169 319,228 613,309 C 561,324 692,490 113,226 C 374,402 169,457 468,239 Z"></path>
<path stroke="#996337" stroke-width="6" fill="#A90000" opacity="0.03943466918363032" stroke-opacity="0.26383135565960175" transform="rotate(33.0 400 300)" d="M 239,395  C 402,195 233,382 208,260 C 523,441 111,253 664,197 C 110,482 108,330 597,136 C 689,283 662,307 114,306 Z"></path>

  </g>
</svg>
