<?xml version="1.0" encoding="UTF-8"?>
<svg width="800px" height="600px" viewBox="0 0 800 600" version="1.1" xmlns="http://www.w3.org/2000/svg" xmlns:xlink="http://www.w3.org/1999/xlink">
  <defs></defs>
  <g stroke="none" stroke-width="1" fill="none" fill-rule="evenodd">
    
    <path stroke="#ed2b2c" stroke-width="7" fill="#ed2b2c" opacity="0.5910180580854653" stroke-opacity="0.4537842465571074" transform="rotate(-88.0 400 300)" d="M 632,141  C 367,397 644,481 233,396 C 536,335 527,135 237,490 C 388,125 507,173 543,225 C 373,128 212,166 179,199 Z"></path>
<path stroke="#2b55f7" stroke-width="3" fill="#31a06b" opacity="0.5991068239257076" stroke-opacity="0.8957567978950388" transform="rotate(169.0 400 300)" d="M 368,189  C 277,122 290,223 654,462 C 639,262 277,183 404,452 C 120,339 463,404 174,177 C 538,355 122,168 336,344 C 469,339 181,476 558,462 C 303,394 222,223 199,442 C 517,289 651,331 111,443 C 309,373 693,293 505,279 C 154,335 492,461 250,200 C 550,288 109,124 424,271 Z"></path>
<path stroke="#ed2b2c" stroke-width="6" fill="#f9d84b" opacity="0.9104011089066714" stroke-opacity="0.9289385064440859" transform="rotate(-71.0 400 300)" d="M 646,255  C 448,131 645,408 648,408 C 176,486 245,230 418,253 C 588,102 435,332 112,308 C 236,447 585,203 284,234 C 513,441 386,427 604,175 C 179,193 468,219 215,403 C 189,173 478,260 497,299 C 493,261 660,436 221,446 C 359,299 561,402 391,266 Z"></path>
<path stroke="#31a06b" stroke-width="1" fill="#f27630" opacity="0.8351671905000925" stroke-opacity="0.20317600731288793" transform="rotate(-97.0 400 300)" d="M 266,183  C 628,216 501,290 415,168 C 336,288 135,177 512,410 C 483,111 398,238 230,311 C 630,199 209,154 230,191 C 207,168 414,366 649,222 C 116,246 629,179 385,184 C 670,229 105,456 378,221 Z"></path>
<path stroke="#2b55f7" stroke-width="5" fill="#31a06b" opacity="0.38049990910552345" stroke-opacity="0.8828189295335064" transform="rotate(128.0 400 300)" d="M 170,500  C 683,157 187,266 315,258 C 113,291 284,344 319,166 C 576,202 539,255 305,393 C 577,307 386,398 655,192 Z"></path>
<path stroke="#31a06b" stroke-width="3" fill="#f27630" opacity="0.2112728917382308" stroke-opacity="0.6619642658637328" transform="rotate(-96.0 400 300)" d="M 546,467  C 485,150 388,356 118,207 C 412,402 109,351 372,425 C 386,194 204,198 333,244 C 569,441 450,316 668,406 C 583,127 530,497 234,381 C 190,488 443,484 310,252 C 114,121 222,168 346,173 Z"></path>
<path stroke="#f27630" stroke-width="2" fill="#f27630" opacity="0.8570949377160333" stroke-opacity="0.4007234683495218" transform="rotate(26.0 400 300)" d="M 625,292  C 450,296 213,211 258,141 C 205,103 300,120 478,256 C 151,272 549,353 392,130 C 682,439 520,474 686,215 C 670,388 269,233 698,396 C 566,429 561,147 548,167 C 624,315 308,220 590,498 Z"></path>
<path stroke="#f9d84b" stroke-width="4" fill="#31a06b" opacity="0.9867808875183809" stroke-opacity="0.23524279758729208" transform="rotate(43.0 400 300)" d="M 544,177  C 518,197 497,317 692,255 C 370,215 626,365 324,485 C 416,499 259,182 147,432 C 415,123 600,312 112,328 C 606,164 287,372 493,166 C 510,409 408,171 452,292 C 144,448 215,333 499,449 C 629,407 498,175 403,411 Z"></path>
<path stroke="#f27630" stroke-width="5" fill="#2b55f7" opacity="0.1902813788726681" stroke-opacity="0.717266685646892" transform="rotate(-151.0 400 300)" d="M 467,453  C 352,193 416,432 503,158 C 287,118 537,468 143,142 C 237,404 640,191 172,239 C 687,297 630,413 319,187 Z"></path>

  </g>
</svg>
