<?xml version="1.0" encoding="UTF-8"?>
<svg width="800px" height="600px" viewBox="0 0 800 600" version="1.1" xmlns="http://www.w3.org/2000/svg" xmlns:xlink="http://www.w3.org/1999/xlink">
  <defs></defs>
  <g stroke="none" stroke-width="1" fill="none" fill-rule="evenodd">
    
    <path stroke="#f9d84b" stroke-width="6" fill="#31a06b" opacity="0.30603263344253084" stroke-opacity="0.07919552057952099" transform="rotate(118.0 400 300)" d="M 588,238  C 127,280 674,253 624,448 C 249,478 321,235 494,183 C 332,451 218,248 598,224 C 173,136 139,447 447,229 C 657,259 427,278 595,152 Z"></path>
<path stroke="#31a06b" stroke-width="2" fill="#31a06b" opacity="0.183912380884794" stroke-opacity="0.8287876735822451" transform="rotate(157.0 400 300)" d="M 526,489  C 371,172 342,346 628,465 C 452,130 344,163 464,103 C 648,222 330,149 647,198 C 584,153 253,485 520,212 C 144,469 636,327 292,148 C 419,123 173,372 272,208 C 264,477 150,455 454,239 C 491,272 548,117 480,399 Z"></path>
<path stroke="#f9d84b" stroke-width="4" fill="#31a06b" opacity="0.12564425702546086" stroke-opacity="0.2558707063239096" transform="rotate(47.0 400 300)" d="M 469,192  C 162,144 533,400 235,242 C 145,387 180,303 661,272 C 134,106 399,162 579,356 C 557,314 411,361 432,217 C 211,455 488,312 428,433 C 407,213 125,299 237,120 C 610,145 212,495 612,432 C 565,144 383,388 675,179 C 293,126 172,418 105,396 Z"></path>
<path stroke="#f9d84b" stroke-width="4" fill="#f27630" opacity="0.9140985738626893" stroke-opacity="0.5929283678752936" transform="rotate(-34.0 400 300)" d="M 398,150  C 580,431 403,321 255,336 C 136,317 270,324 525,317 C 346,152 485,368 407,359 C 125,145 575,186 394,254 C 664,251 484,336 497,450 C 468,322 388,425 549,476 C 425,116 301,368 278,380 C 447,172 686,308 471,439 Z"></path>
<path stroke="#31a06b" stroke-width="3" fill="#f27630" opacity="0.9976805866616142" stroke-opacity="0.029744614094039012" transform="rotate(92.0 400 300)" d="M 411,181  C 357,332 203,360 686,488 C 497,351 478,209 508,409 C 383,220 619,404 550,180 C 385,447 128,245 673,371 C 625,256 377,397 184,170 C 617,360 600,487 214,432 C 290,324 204,247 278,448 C 179,177 527,149 391,438 C 145,257 468,243 398,232 C 653,260 458,127 407,396 C 373,438 489,348 207,360 Z"></path>
<path stroke="#f27630" stroke-width="3" fill="#f27630" opacity="0.5598895297515974" stroke-opacity="0.12602333019656145" transform="rotate(-162.0 400 300)" d="M 607,155  C 597,455 530,202 236,353 C 616,251 610,419 405,162 C 128,428 433,219 187,280 C 408,480 552,265 457,337 C 471,173 367,393 231,421 C 113,381 619,470 665,384 C 395,381 240,258 280,468 C 430,112 228,431 183,298 C 273,192 596,286 372,333 C 112,347 369,317 521,238 Z"></path>
<path stroke="#2b55f7" stroke-width="7" fill="#31a06b" opacity="0.06577670163179507" stroke-opacity="0.5839147675639144" transform="rotate(154.0 400 300)" d="M 553,397  C 173,461 319,499 188,382 C 321,207 203,260 142,247 C 560,151 300,408 214,355 C 255,311 571,305 597,417 C 491,374 339,242 669,233 C 102,162 415,321 315,432 C 523,279 545,229 183,251 C 426,274 314,154 221,373 C 276,123 379,109 203,467 Z"></path>
<path stroke="#31a06b" stroke-width="6" fill="#f9d84b" opacity="0.7311699311662697" stroke-opacity="0.16830573786925282" transform="rotate(104.0 400 300)" d="M 418,220  C 437,163 321,174 249,114 C 474,309 533,483 325,259 C 411,157 533,408 627,237 C 106,383 667,490 267,388 C 594,337 447,387 156,431 Z"></path>
<path stroke="#f27630" stroke-width="2" fill="#f9d84b" opacity="0.9453756699355242" stroke-opacity="0.9079416724891771" transform="rotate(-43.0 400 300)" d="M 224,452  C 335,484 502,124 277,251 C 330,231 247,149 233,482 C 345,455 370,400 669,300 C 634,350 356,417 662,455 C 105,407 609,204 120,104 C 485,298 558,233 244,160 C 472,271 468,277 445,309 C 299,208 119,320 243,415 C 454,500 409,410 604,393 Z"></path>

  </g>
</svg>
