<svg xmlns="http://www.w3.org/2000/svg" xmlns:xlink="http://www.w3.org/1999/xlink" width="800" height="600" version="1.1" viewBox="0 0 800 600"><g fill="none" fill-rule="evenodd" stroke="none" stroke-width="1"><rect width="244" height="47" x="606" y="355" fill="#ed2b2c" stroke="#31a06b" stroke-opacity=".728" stroke-width="7" opacity=".539" transform="rotate(-144.0 400 300)"/><path fill="#31a06b" stroke="#31a06b" stroke-opacity=".494" stroke-width="6" d="M 194,149 C 463,233 675,267 378,308 C 304,195 542,113 348,258 C 408,481 408,206 358,339 C 277,362 471,169 218,185 C 220,109 471,160 689,412 C 560,143 601,231 578,421 C 109,274 387,373 197,125 C 695,195 533,423 124,388 C 185,499 640,477 583,368 C 332,351 462,130 128,387 Z" opacity=".574" transform="rotate(88.0 400 300)"/><polygon fill="#2b55f7" stroke="#f27630" stroke-opacity=".468" stroke-width="3" points="359 269 793 144 367 139 283 396 11 546 794 65 280 295 87 349" opacity=".96" transform="rotate(50.0 400 300)"/><rect width="31" height="69" x="662" y="258" fill="#f27630" stroke="#ed2b2c" stroke-opacity=".159" stroke-width="2" opacity=".952" transform="rotate(-120.0 400 300)"/><ellipse cx="74" cy="516" fill="#ed2b2c" stroke="#f27630" stroke-opacity=".288" stroke-width="1" opacity=".14" rx="270" ry="128" transform="rotate(-137.0 400 300)"/><rect width="386" height="185" x="167" y="19" fill="#2b55f7" stroke="#f9d84b" stroke-opacity=".86" stroke-width="6" opacity=".017" transform="rotate(-178.0 400 300)"/><polygon fill="#31a06b" stroke="#2b55f7" stroke-opacity=".382" stroke-width="6" points="800 245 628 518 506 385 448 102 326 145 487 56 668 562" opacity=".1" transform="rotate(-31.0 400 300)"/><rect width="375" height="202" x="798" y="481" fill="#2b55f7" stroke="#f27630" stroke-opacity=".639" stroke-width="1" opacity=".916" transform="rotate(-143.0 400 300)"/></g></svg>