<?xml version="1.0" encoding="UTF-8"?>
<svg width="800px" height="600px" viewBox="0 0 800 600" version="1.1" xmlns="http://www.w3.org/2000/svg" xmlns:xlink="http://www.w3.org/1999/xlink">
  <defs></defs>
  <g stroke="none" stroke-width="1" fill="none" fill-rule="evenodd">
    
    <rect stroke="#31a06b" stroke-width="7" fill="#ed2b2c" opacity="0.5389547984202273" stroke-opacity="0.7280944150783075" transform="rotate(-144.0 400 300)" x="606" y="355" width="244" height="47"></rect>
<path stroke="#31a06b" stroke-width="6" fill="#31a06b" opacity="0.5740424133716343" stroke-opacity="0.4936232080036189" transform="rotate(88.0 400 300)" d="M 194,149  C 463,233 675,267 378,308 C 304,195 542,113 348,258 C 408,481 408,206 358,339 C 277,362 471,169 218,185 C 220,109 471,160 689,412 C 560,143 601,231 578,421 C 109,274 387,373 197,125 C 695,195 533,423 124,388 C 185,499 640,477 583,368 C 332,351 462,130 128,387 Z"></path>
<polygon stroke="#f27630" stroke-width="3" fill="#2b55f7" opacity="0.9603243824123621" stroke-opacity="0.46785522628145426" transform="rotate(50.0 400 300)" points="359 269 793 144 367 139 283 396 11 546 794 65 280 295 87 349 "></polygon>
<rect stroke="#ed2b2c" stroke-width="2" fill="#f27630" opacity="0.9520066568797916" stroke-opacity="0.1587416879523174" transform="rotate(-120.0 400 300)" x="662" y="258" width="31" height="69"></rect>
<ellipse stroke="#f27630" stroke-width="1" fill="#ed2b2c" opacity="0.13995634181763175" stroke-opacity="0.28791552297277645" transform="rotate(-137.0 400 300)" cx="74" rx="270" cy="516" ry="128"></ellipse>
<rect stroke="#f9d84b" stroke-width="6" fill="#2b55f7" opacity="0.016960386690080976" stroke-opacity="0.8601095169665129" transform="rotate(-178.0 400 300)" x="167" y="19" width="386" height="185"></rect>
<polygon stroke="#2b55f7" stroke-width="6" fill="#31a06b" opacity="0.09987626960481269" stroke-opacity="0.38173418627190925" transform="rotate(-31.0 400 300)" points="800 245 628 518 506 385 448 102 326 145 487 56 668 562 "></polygon>
<rect stroke="#f27630" stroke-width="1" fill="#2b55f7" opacity="0.9163008329304843" stroke-opacity="0.6391970240556303" transform="rotate(-143.0 400 300)" x="798" y="481" width="375" height="202"></rect>

  </g>
</svg>
