<svg xmlns="http://www.w3.org/2000/svg" xmlns:xlink="http://www.w3.org/1999/xlink" width="800" height="600" version="1.1" viewBox="0 0 800 600"><g fill="none" fill-rule="evenodd" stroke="none" stroke-width="1"><path fill="#C08B8A" stroke="#C097A4" stroke-opacity=".446" stroke-width="3" d="M 403,459 C 555,136 153,127 141,362 C 341,434 179,462 669,346 C 359,355 470,263 104,267 C 459,104 414,153 536,226 C 628,491 537,285 628,150 C 280,142 502,282 106,247 C 501,108 690,305 628,453 Z" opacity=".464" transform="rotate(4.0 400 300)"/><ellipse cx="798" cy="537" fill="#9BAD30" stroke="#0912DB" stroke-opacity=".967" stroke-width="5" opacity=".468" rx="397" ry="201" transform="rotate(-120.0 400 300)"/><rect width="43" height="274" x="117" y="186" fill="#62D5A7" stroke="#792703" stroke-opacity=".643" stroke-width="2" opacity=".51" transform="rotate(178.0 400 300)"/><ellipse cx="639" cy="320" fill="#A951BC" stroke="#D060B2" stroke-opacity=".479" stroke-width="7" opacity=".24" rx="41" ry="192" transform="rotate(25.0 400 300)"/><ellipse cx="79" cy="305" fill="#182214" stroke="#A6D263" stroke-opacity=".223" stroke-width="2" opacity=".097" rx="139" ry="219" transform="rotate(-65.0 400 300)"/><path fill="#98B924" stroke="#07727A" stroke-opacity=".09" stroke-width="6" d="M 380,407 C 339,408 280,155 548,152 C 169,179 533,212 175,496 C 482,484 101,317 179,135 C 290,333 395,416 201,260 C 436,364 149,343 246,311 C 604,211 149,108 111,376 C 196,221 165,234 327,178 C 486,172 558,107 239,121 C 519,173 291,196 210,349 Z" opacity=".696" transform="rotate(-151.0 400 300)"/></g></svg>