<svg xmlns="http://www.w3.org/2000/svg" xmlns:xlink="http://www.w3.org/1999/xlink" width="800" height="600" version="1.1" viewBox="0 0 800 600"><g fill="none" fill-rule="evenodd" stroke="none" stroke-width="1"><path fill="#2cd3f3" stroke="#0fa6d8" stroke-opacity=".06" stroke-width="4" d="M 257,158 C 259,325 673,292 684,227 C 551,101 682,251 407,102 C 393,332 447,422 239,407 C 296,486 623,348 597,271 C 273,313 414,227 657,375 C 658,107 330,282 228,365 Z" opacity=".842" transform="rotate(31.0 400 300)"/><path fill="#02eb6b" stroke="#0fa6d8" stroke-opacity=".756" stroke-width="2" d="M 558,114 C 241,368 472,212 204,431 C 573,161 373,357 326,416 C 549,340 512,500 331,495 C 673,339 540,183 144,156 C 668,467 539,138 383,298 C 650,329 418,427 300,176 C 128,305 430,299 418,291 C 201,149 200,392 185,213 C 499,321 370,375 404,255 C 238,187 571,454 632,192 Z" opacity=".439" transform="rotate(-82.0 400 300)"/><path fill="#f559a0" stroke="#2cd3f3" stroke-opacity=".486" stroke-width="4" d="M 178,286 C 154,308 327,438 190,466 C 334,241 529,275 293,103 C 231,314 633,381 678,446 C 104,336 692,133 464,280 C 374,249 528,398 357,277 C 502,339 352,404 149,350 C 421,454 631,500 103,323 C 502,464 311,152 158,108 C 535,307 684,133 642,261 Z" opacity=".463" transform="rotate(90.0 400 300)"/><path fill="#0fa6d8" stroke="#2cd3f3" stroke-opacity=".831" stroke-width="3" d="M 557,451 C 291,471 346,225 149,294 C 362,128 180,224 523,314 C 554,222 215,336 231,300 C 326,258 426,420 392,118 C 260,262 510,172 588,135 C 568,443 498,256 495,488 C 264,215 369,492 298,155 Z" opacity=".431" transform="rotate(-45.0 400 300)"/><path fill="#02eb6b" stroke="#0fa6d8" stroke-opacity=".922" stroke-width="7" d="M 437,496 C 164,378 287,230 583,146 C 345,434 377,307 187,406 C 632,389 446,205 681,301 C 568,338 522,217 650,444 C 144,312 588,368 509,388 C 651,251 386,195 419,427 C 428,453 695,342 580,436 C 356,129 616,396 390,368 Z" opacity=".607" transform="rotate(87.0 400 300)"/><path fill="#02eb6b" stroke="#02eb6b" stroke-opacity=".533" stroke-width="2" d="M 510,147 C 690,139 275,101 525,426 C 325,470 485,419 439,429 C 631,149 185,349 246,183 C 431,423 647,303 432,293 C 357,107 326,302 402,331 C 633,435 187,245 579,496 C 677,232 193,369 585,339 C 257,451 671,161 315,431 Z" opacity=".431" transform="rotate(-24.0 400 300)"/><path fill="#2cd3f3" stroke="#0fa6d8" stroke-opacity=".163" stroke-width="1" d="M 679,303 C 103,471 686,329 633,151 C 185,246 409,176 402,141 C 502,283 654,447 208,106 C 348,455 189,433 467,235 Z" opacity=".005" transform="rotate(-41.0 400 300)"/></g></svg>