<?xml version="1.0" encoding="UTF-8"?>
<svg width="800px" height="600px" viewBox="0 0 800 600" version="1.1" xmlns="http://www.w3.org/2000/svg" xmlns:xlink="http://www.w3.org/1999/xlink">
  <defs></defs>
  <g stroke="none" stroke-width="1" fill="none" fill-rule="evenodd">
    
    <path stroke="#ed2b2c" stroke-width="4" fill="#f27630" opacity="0.28841605134322573" stroke-opacity="0.3181973978347202" transform="rotate(-87.0 400 300)" d="M 281,169  C 289,152 454,188 194,118 C 416,253 219,147 452,439 C 628,200 534,154 207,306 C 261,497 329,343 151,245 C 680,321 373,484 634,248 C 339,102 571,474 308,455 C 320,115 178,473 554,399 C 380,304 426,205 106,484 C 654,479 150,315 421,318 C 204,437 215,131 311,189 Z"></path>
<path stroke="#2b55f7" stroke-width="2" fill="#2b55f7" opacity="0.35057177023813524" stroke-opacity="0.186527965086043" transform="rotate(-113.0 400 300)" d="M 213,497  C 595,374 611,371 633,381 C 112,117 395,161 281,142 C 289,333 324,151 451,393 C 375,266 696,406 563,210 C 348,398 224,223 683,261 C 574,348 339,482 314,405 C 427,281 629,428 514,396 C 366,122 278,491 172,232 Z"></path>
<path stroke="#31a06b" stroke-width="2" fill="#f27630" opacity="0.8647612875639771" stroke-opacity="0.1691338691617332" transform="rotate(6.0 400 300)" d="M 162,178  C 583,365 687,369 643,264 C 409,423 452,451 554,469 C 371,319 161,354 150,346 C 268,214 681,342 532,273 C 178,123 567,123 229,302 C 242,296 624,475 212,267 C 578,447 589,267 684,210 C 166,183 215,249 563,206 C 594,193 493,300 439,241 C 478,156 433,340 695,134 C 313,434 484,366 182,128 Z"></path>
<path stroke="#ed2b2c" stroke-width="1" fill="#f9d84b" opacity="0.7054570286067336" stroke-opacity="0.0702675964655758" transform="rotate(-163.0 400 300)" d="M 544,334  C 588,471 602,173 187,151 C 404,390 272,446 104,302 C 259,163 489,329 150,171 C 268,192 347,223 302,443 C 434,236 330,123 281,390 Z"></path>
<path stroke="#f9d84b" stroke-width="2" fill="#ed2b2c" opacity="0.08785864547526125" stroke-opacity="0.07693640849106302" transform="rotate(-61.0 400 300)" d="M 412,484  C 623,291 591,114 143,216 C 274,431 203,128 454,367 C 312,368 641,339 537,222 C 190,381 101,401 673,350 C 213,231 424,387 117,401 C 115,122 630,407 226,101 C 670,207 278,422 502,269 C 113,113 108,460 233,163 C 604,480 145,157 251,173 C 554,233 538,121 392,288 C 508,432 468,313 487,358 Z"></path>
<path stroke="#31a06b" stroke-width="5" fill="#f9d84b" opacity="0.8167597202409691" stroke-opacity="0.75415389543641" transform="rotate(158.0 400 300)" d="M 154,176  C 206,325 589,102 363,285 C 201,136 365,353 389,427 C 258,455 589,258 623,224 C 608,431 430,288 467,493 C 117,188 111,365 342,435 C 368,323 456,136 469,246 C 543,154 555,353 546,146 C 357,409 586,310 351,403 C 434,311 484,355 391,492 C 649,464 655,475 318,112 C 315,268 610,395 643,284 Z"></path>
<path stroke="#2b55f7" stroke-width="3" fill="#ed2b2c" opacity="0.06697039628961542" stroke-opacity="0.7118489318122819" transform="rotate(84.0 400 300)" d="M 441,275  C 297,167 419,285 632,416 C 679,316 422,265 585,261 C 134,317 156,410 355,141 C 393,310 226,245 667,184 C 122,327 304,181 189,450 C 427,311 489,158 672,412 C 623,276 383,110 167,309 C 609,165 152,414 324,179 C 611,404 285,479 488,252 C 184,404 293,131 132,304 Z"></path>
<path stroke="#31a06b" stroke-width="5" fill="#2b55f7" opacity="0.6987024660632734" stroke-opacity="0.6573191319725509" transform="rotate(43.0 400 300)" d="M 388,301  C 515,418 443,281 327,116 C 685,457 564,321 231,135 C 485,293 301,427 141,147 C 598,436 559,226 634,408 C 116,185 656,415 498,342 Z"></path>
<path stroke="#f27630" stroke-width="1" fill="#2b55f7" opacity="0.023902431046926326" stroke-opacity="0.2140985269304999" transform="rotate(23.0 400 300)" d="M 194,120  C 598,356 534,297 361,329 C 672,410 447,486 583,356 C 650,272 451,258 128,343 C 140,154 427,361 695,462 C 371,313 245,154 464,245 C 670,203 556,108 422,288 C 169,391 385,448 644,286 C 523,358 528,457 605,459 C 493,462 488,469 385,454 Z"></path>
<path stroke="#31a06b" stroke-width="6" fill="#f9d84b" opacity="0.2712364330493048" stroke-opacity="0.6383595772814322" transform="rotate(-75.0 400 300)" d="M 574,294  C 450,192 634,359 285,223 C 391,473 442,205 196,490 C 556,484 540,335 531,270 C 141,116 279,298 433,365 C 562,334 204,420 494,240 C 532,297 148,207 374,376 C 495,207 182,120 168,319 Z"></path>

  </g>
</svg>
