<?xml version="1.0" encoding="UTF-8"?>
<svg width="800px" height="600px" viewBox="0 0 800 600" version="1.1" xmlns="http://www.w3.org/2000/svg" xmlns:xlink="http://www.w3.org/1999/xlink">
  <defs></defs>
  <g stroke="none" stroke-width="1" fill="none" fill-rule="evenodd">
    
    <path stroke="#2b55f7" stroke-width="5" fill="#f9d84b" opacity="0.5402300601889819" stroke-opacity="0.07246886197291987" transform="rotate(-69.0 400 300)" d="M 596,255  C 253,448 294,180 570,118 C 517,188 681,186 474,271 C 489,316 373,354 507,185 C 121,212 227,223 250,374 C 373,492 680,124 242,387 Z"></path>
<path stroke="#f9d84b" stroke-width="3" fill="#2b55f7" opacity="0.6760141763747232" stroke-opacity="0.6533868098430035" transform="rotate(-169.0 400 300)" d="M 653,208  C 235,214 517,182 147,298 C 319,483 554,437 642,171 C 133,289 547,428 169,450 C 533,277 487,407 116,261 C 627,120 415,397 597,149 C 253,358 455,444 205,376 C 237,142 394,119 334,424 C 249,125 108,286 315,153 C 550,297 458,419 511,170 C 543,195 215,382 295,164 C 158,320 411,111 420,394 Z"></path>
<path stroke="#f27630" stroke-width="5" fill="#ed2b2c" opacity="0.2259060934074889" stroke-opacity="0.9433645970901823" transform="rotate(-178.0 400 300)" d="M 507,279  C 548,190 623,159 327,143 C 534,145 164,442 462,186 C 331,469 541,252 700,296 C 465,389 673,194 335,292 C 265,137 674,109 402,295 C 371,261 412,488 272,279 C 232,357 414,134 643,276 C 484,321 541,475 666,120 C 436,339 196,446 252,417 C 408,305 140,240 606,224 Z"></path>
<path stroke="#31a06b" stroke-width="7" fill="#2b55f7" opacity="0.29123588248871185" stroke-opacity="0.027111366489775544" transform="rotate(85.0 400 300)" d="M 560,172  C 681,303 629,274 386,397 C 423,366 515,227 538,214 C 494,278 443,266 304,458 C 235,195 619,236 330,174 C 409,298 333,134 633,243 C 357,453 604,495 616,239 C 332,437 196,359 174,110 C 342,302 594,109 524,365 Z"></path>
<path stroke="#f27630" stroke-width="4" fill="#f9d84b" opacity="0.25956396487967864" stroke-opacity="0.8612827537064065" transform="rotate(-92.0 400 300)" d="M 267,442  C 204,151 262,266 179,190 C 278,215 140,376 337,381 C 298,430 294,212 624,367 C 381,404 400,336 470,104 Z"></path>
<path stroke="#31a06b" stroke-width="5" fill="#f9d84b" opacity="0.14481096316526532" stroke-opacity="0.556303266551216" transform="rotate(-146.0 400 300)" d="M 467,265  C 592,417 581,488 379,436 C 444,170 683,274 251,495 C 218,245 318,387 261,254 C 295,181 646,186 283,293 C 415,199 231,275 408,235 C 494,332 124,411 550,264 C 260,157 233,473 403,158 C 630,298 325,325 642,150 Z"></path>
<path stroke="#f9d84b" stroke-width="7" fill="#f9d84b" opacity="0.40644769685494087" stroke-opacity="0.8731869184535326" transform="rotate(-69.0 400 300)" d="M 179,298  C 170,387 489,424 494,241 C 148,245 262,240 229,301 C 589,349 594,265 110,487 C 660,115 219,382 459,105 C 522,447 145,403 508,168 C 399,448 643,424 372,434 C 196,283 425,349 627,150 C 197,373 645,251 524,395 C 217,238 554,371 289,158 C 136,251 208,314 697,120 C 447,494 364,419 682,259 Z"></path>
<path stroke="#f9d84b" stroke-width="1" fill="#2b55f7" opacity="0.7518858509966677" stroke-opacity="0.3618374879434352" transform="rotate(-115.0 400 300)" d="M 515,470  C 537,295 519,481 428,407 C 351,166 382,205 487,441 C 498,494 567,491 530,172 C 321,178 389,453 615,239 C 117,216 191,310 268,236 C 289,435 600,425 375,492 C 254,110 580,159 196,343 C 107,103 412,248 489,194 C 685,314 383,170 183,219 Z"></path>
<path stroke="#f27630" stroke-width="1" fill="#31a06b" opacity="0.2687259007470861" stroke-opacity="0.7448551877499933" transform="rotate(-69.0 400 300)" d="M 636,449  C 245,422 541,448 144,231 C 388,380 617,183 525,200 C 185,194 659,120 227,289 C 345,221 402,103 414,134 C 657,210 400,123 555,120 C 393,338 190,160 559,123 Z"></path>

  </g>
</svg>
