<svg xmlns="http://www.w3.org/2000/svg" xmlns:xlink="http://www.w3.org/1999/xlink" width="800" height="600" version="1.1" viewBox="0 0 800 600"><g fill="none" fill-rule="evenodd" stroke="none" stroke-width="1"><ellipse cx="352" cy="545" fill="#2b55f7" stroke="#2b55f7" stroke-opacity=".345" stroke-width="3" opacity=".495" rx="144" ry="76" transform="rotate(-41.0 400 300)"/><path fill="#ed2b2c" stroke="#f27630" stroke-opacity=".033" stroke-width="3" d="M 531,182 C 403,241 631,147 362,409 C 642,332 653,317 293,312 C 554,109 354,355 144,164 C 494,334 464,248 479,139 C 454,393 490,166 563,212 C 171,436 626,181 139,117 C 498,203 281,401 626,456 C 188,488 515,414 567,167 C 387,485 284,341 554,253 Z" opacity=".3" transform="rotate(-50.0 400 300)"/><polygon fill="#f9d84b" stroke="#ed2b2c" stroke-opacity=".57" stroke-width="2" points="551 376 722 238 142 505 587 227 374 499 480 246" opacity=".882" transform="rotate(19.0 400 300)"/><ellipse cx="441" cy="536" fill="#f9d84b" stroke="#31a06b" stroke-opacity=".086" stroke-width="7" opacity=".092" rx="332" ry="73" transform="rotate(114.0 400 300)"/><ellipse cx="135" cy="256" fill="#2b55f7" stroke="#f27630" stroke-opacity=".414" stroke-width="6" opacity=".383" rx="195" ry="68" transform="rotate(-149.0 400 300)"/><ellipse cx="229" cy="530" fill="#ed2b2c" stroke="#ed2b2c" stroke-opacity=".422" stroke-width="6" opacity=".596" rx="297" ry="163" transform="rotate(12.0 400 300)"/></g></svg>