<?xml version="1.0" encoding="UTF-8"?>
<svg width="800px" height="600px" viewBox="0 0 800 600" version="1.1" xmlns="http://www.w3.org/2000/svg" xmlns:xlink="http://www.w3.org/1999/xlink">
  <defs></defs>
  <g stroke="none" stroke-width="1" fill="none" fill-rule="evenodd">
    
    <ellipse stroke="#2b55f7" stroke-width="3" fill="#2b55f7" opacity="0.49498869747680013" stroke-opacity="0.345189808055776" transform="rotate(-41.0 400 300)" cx="352" rx="144" cy="545" ry="76"></ellipse>
<path stroke="#f27630" stroke-width="3" fill="#ed2b2c" opacity="0.2996375745964445" stroke-opacity="0.03308937339607888" transform="rotate(-50.0 400 300)" d="M 531,182  C 403,241 631,147 362,409 C 642,332 653,317 293,312 C 554,109 354,355 144,164 C 494,334 464,248 479,139 C 454,393 490,166 563,212 C 171,436 626,181 139,117 C 498,203 281,401 626,456 C 188,488 515,414 567,167 C 387,485 284,341 554,253 Z"></path>
<polygon stroke="#ed2b2c" stroke-width="2" fill="#f9d84b" opacity="0.8821838723530132" stroke-opacity="0.5702057348975564" transform="rotate(19.0 400 300)" points="551 376 722 238 142 505 587 227 374 499 480 246 "></polygon>
<ellipse stroke="#31a06b" stroke-width="7" fill="#f9d84b" opacity="0.09218020504243794" stroke-opacity="0.0863127904406906" transform="rotate(114.0 400 300)" cx="441" rx="332" cy="536" ry="73"></ellipse>
<ellipse stroke="#f27630" stroke-width="6" fill="#2b55f7" opacity="0.38269810094032664" stroke-opacity="0.4141367897222764" transform="rotate(-149.0 400 300)" cx="135" rx="195" cy="256" ry="68"></ellipse>
<ellipse stroke="#ed2b2c" stroke-width="6" fill="#ed2b2c" opacity="0.5955076950306402" stroke-opacity="0.42226878662417244" transform="rotate(12.0 400 300)" cx="229" rx="297" cy="530" ry="163"></ellipse>

  </g>
</svg>
