<svg xmlns="http://www.w3.org/2000/svg" xmlns:xlink="http://www.w3.org/1999/xlink" width="800" height="600" version="1.1" viewBox="0 0 800 600"><g fill="none" fill-rule="evenodd" stroke="none" stroke-width="1"><path fill="#0fa6d8" stroke="#f559a0" stroke-opacity=".77" stroke-width="5" d="M 660,363 C 133,377 447,307 441,364 C 459,106 210,172 308,334 C 210,286 442,341 163,190 C 326,478 510,110 227,362 C 571,473 574,148 230,396 C 665,104 484,108 502,148 C 554,241 317,429 215,361 Z" opacity=".472" transform="rotate(65.0 400 300)"/><path fill="#2cd3f3" stroke="#f559a0" stroke-opacity=".633" stroke-width="7" d="M 509,119 C 580,173 246,273 400,307 C 450,495 300,194 599,346 C 120,471 653,445 699,436 C 512,178 667,464 314,259 C 236,123 474,197 602,278 C 374,328 408,215 432,365 C 626,438 257,219 177,338 Z" opacity=".285" transform="rotate(33.0 400 300)"/><path fill="#fe9225" stroke="#0fa6d8" stroke-opacity=".905" stroke-width="6" d="M 518,187 C 438,465 544,169 163,359 C 162,372 654,470 600,266 C 689,118 194,200 626,229 C 513,220 639,375 425,232 Z" opacity=".585" transform="rotate(2.0 400 300)"/><path fill="#02eb6b" stroke="#f559a0" stroke-opacity=".737" stroke-width="1" d="M 605,202 C 478,267 262,136 648,434 C 117,347 523,292 501,443 C 265,333 136,187 459,300 C 344,336 659,454 229,295 C 309,435 296,213 592,148 Z" opacity=".504" transform="rotate(-75.0 400 300)"/><path fill="#fe9225" stroke="#f559a0" stroke-opacity=".733" stroke-width="4" d="M 490,266 C 547,476 504,263 686,288 C 444,454 410,452 536,142 C 483,399 381,245 218,127 C 532,199 308,114 235,429 Z" opacity=".463" transform="rotate(126.0 400 300)"/><path fill="#fe9225" stroke="#02eb6b" stroke-opacity=".625" stroke-width="1" d="M 195,273 C 131,499 519,310 656,239 C 593,427 265,374 473,151 C 630,306 654,177 287,279 C 522,485 214,451 551,375 C 595,285 404,120 429,312 Z" opacity=".341" transform="rotate(57.0 400 300)"/><path fill="#02eb6b" stroke="#0fa6d8" stroke-opacity=".079" stroke-width="1" d="M 605,488 C 414,418 274,472 601,153 C 427,151 302,170 210,421 C 345,335 162,149 179,110 C 658,405 109,191 652,212 C 447,252 606,179 180,193 Z" opacity=".084" transform="rotate(-33.0 400 300)"/></g></svg>