<?xml version="1.0" encoding="UTF-8"?>
<svg width="800px" height="600px" viewBox="0 0 800 600" version="1.1" xmlns="http://www.w3.org/2000/svg" xmlns:xlink="http://www.w3.org/1999/xlink">
  <defs></defs>
  <g stroke="none" stroke-width="1" fill="none" fill-rule="evenodd">
    
    <path stroke="#f559a0" stroke-width="5" fill="#0fa6d8" opacity="0.47213100792605406" stroke-opacity="0.7697010708379027" transform="rotate(65.0 400 300)" d="M 660,363  C 133,377 447,307 441,364 C 459,106 210,172 308,334 C 210,286 442,341 163,190 C 326,478 510,110 227,362 C 571,473 574,148 230,396 C 665,104 484,108 502,148 C 554,241 317,429 215,361 Z"></path>
<path stroke="#f559a0" stroke-width="7" fill="#2cd3f3" opacity="0.28542928009394963" stroke-opacity="0.633410973732368" transform="rotate(33.0 400 300)" d="M 509,119  C 580,173 246,273 400,307 C 450,495 300,194 599,346 C 120,471 653,445 699,436 C 512,178 667,464 314,259 C 236,123 474,197 602,278 C 374,328 408,215 432,365 C 626,438 257,219 177,338 Z"></path>
<path stroke="#0fa6d8" stroke-width="6" fill="#fe9225" opacity="0.5850855115696868" stroke-opacity="0.9054920155687517" transform="rotate(2.0 400 300)" d="M 518,187  C 438,465 544,169 163,359 C 162,372 654,470 600,266 C 689,118 194,200 626,229 C 513,220 639,375 425,232 Z"></path>
<path stroke="#f559a0" stroke-width="1" fill="#02eb6b" opacity="0.5040935585777667" stroke-opacity="0.7370902198489783" transform="rotate(-75.0 400 300)" d="M 605,202  C 478,267 262,136 648,434 C 117,347 523,292 501,443 C 265,333 136,187 459,300 C 344,336 659,454 229,295 C 309,435 296,213 592,148 Z"></path>
<path stroke="#f559a0" stroke-width="4" fill="#fe9225" opacity="0.4634990735072363" stroke-opacity="0.7330358353680549" transform="rotate(126.0 400 300)" d="M 490,266  C 547,476 504,263 686,288 C 444,454 410,452 536,142 C 483,399 381,245 218,127 C 532,199 308,114 235,429 Z"></path>
<path stroke="#02eb6b" stroke-width="1" fill="#fe9225" opacity="0.3414244671400146" stroke-opacity="0.6253242996589767" transform="rotate(57.0 400 300)" d="M 195,273  C 131,499 519,310 656,239 C 593,427 265,374 473,151 C 630,306 654,177 287,279 C 522,485 214,451 551,375 C 595,285 404,120 429,312 Z"></path>
<path stroke="#0fa6d8" stroke-width="1" fill="#02eb6b" opacity="0.083523989010946" stroke-opacity="0.07931136261917288" transform="rotate(-33.0 400 300)" d="M 605,488  C 414,418 274,472 601,153 C 427,151 302,170 210,421 C 345,335 162,149 179,110 C 658,405 109,191 652,212 C 447,252 606,179 180,193 Z"></path>

  </g>
</svg>
