<?xml version="1.0" encoding="UTF-8"?>
<svg width="800px" height="600px" viewBox="0 0 800 600" version="1.1" xmlns="http://www.w3.org/2000/svg" xmlns:xlink="http://www.w3.org/1999/xlink">
  <defs></defs>
  <g stroke="none" stroke-width="1" fill="none" fill-rule="evenodd">
    
    <path stroke="#2cd3f3" stroke-width="4" fill="#2cd3f3" opacity="0.004199712278660068" stroke-opacity="0.39382362392201525" transform="rotate(51.0 400 300)" d="M 308,339  C 503,349 158,287 481,158 C 699,183 334,145 594,380 C 207,489 657,366 323,381 C 247,272 128,249 240,333 C 626,168 130,448 549,189 C 107,447 204,303 137,465 C 478,495 641,216 407,111 Z"></path>
<path stroke="#2cd3f3" stroke-width="6" fill="#02eb6b" opacity="0.9697560494539904" stroke-opacity="0.42779271885151815" transform="rotate(37.0 400 300)" d="M 415,350  C 462,429 216,105 433,392 C 517,107 695,131 281,133 C 610,438 540,311 193,140 C 337,254 634,277 646,197 C 447,352 382,311 299,335 C 687,358 635,250 351,401 C 404,215 261,405 575,406 C 344,128 694,120 321,465 C 495,274 369,367 406,298 C 172,223 361,434 212,192 C 496,120 644,180 609,116 Z"></path>
<path stroke="#0fa6d8" stroke-width="7" fill="#f559a0" opacity="0.8937193347198245" stroke-opacity="0.5268559042442109" transform="rotate(54.0 400 300)" d="M 513,480  C 249,155 405,489 667,146 C 561,310 550,378 106,259 C 272,358 258,305 460,262 C 338,195 599,467 626,341 C 526,264 390,343 305,445 C 132,254 170,454 647,220 C 645,190 386,414 536,225 C 669,457 333,206 217,252 C 434,148 470,180 435,476 C 515,439 105,238 181,317 C 275,298 161,187 252,127 Z"></path>
<path stroke="#2cd3f3" stroke-width="1" fill="#f559a0" opacity="0.8133805869492873" stroke-opacity="0.4912552079729344" transform="rotate(-92.0 400 300)" d="M 279,233  C 632,140 234,141 257,459 C 496,383 183,163 430,289 C 629,464 294,165 147,209 C 108,495 269,297 448,470 Z"></path>
<path stroke="#02eb6b" stroke-width="6" fill="#fe9225" opacity="0.7365178214988191" stroke-opacity="0.3327259805417074" transform="rotate(-37.0 400 300)" d="M 235,499  C 626,254 369,363 235,193 C 498,154 506,334 510,150 C 655,178 648,406 627,148 C 636,193 249,324 430,498 C 433,395 520,490 309,490 C 617,327 546,279 206,405 C 595,498 326,387 234,196 C 220,441 178,431 678,147 C 519,328 524,294 125,296 Z"></path>
<path stroke="#0fa6d8" stroke-width="1" fill="#fe9225" opacity="0.03438986967185877" stroke-opacity="0.06283699610524286" transform="rotate(-156.0 400 300)" d="M 332,391  C 623,374 589,417 329,243 C 596,106 456,151 318,202 C 554,431 331,365 616,273 C 467,405 472,403 358,291 C 516,271 279,130 382,419 C 605,125 529,313 257,114 Z"></path>
<path stroke="#f559a0" stroke-width="5" fill="#02eb6b" opacity="0.03413806068709042" stroke-opacity="0.5807376776196368" transform="rotate(139.0 400 300)" d="M 332,376  C 242,348 161,461 512,230 C 326,400 445,212 308,205 C 450,457 490,194 523,441 C 487,416 622,344 149,149 C 184,339 126,227 288,101 C 328,235 398,326 214,187 Z"></path>

  </g>
</svg>
