<?xml version="1.0" encoding="UTF-8"?>
<svg width="800px" height="600px" viewBox="0 0 800 600" version="1.1" xmlns="http://www.w3.org/2000/svg" xmlns:xlink="http://www.w3.org/1999/xlink">
  <defs></defs>
  <g stroke="none" stroke-width="1" fill="none" fill-rule="evenodd">
    
    <polygon stroke="#2cd3f3" stroke-width="4" fill="#fe9225" opacity="0.4879041801145308" stroke-opacity="0.9127736453140998" transform="rotate(30.0 400 300)" points="374 9 248 414 191 117 417 145 223 282 131 119 137 343 662 63 "></polygon>
<path stroke="#0fa6d8" stroke-width="2" fill="#0fa6d8" opacity="0.7553732873682709" stroke-opacity="0.05577986621990167" transform="rotate(77.0 400 300)" d="M 118,309  C 379,298 427,112 361,354 C 361,133 567,152 177,193 C 198,429 337,265 628,419 C 522,264 181,297 689,182 C 622,283 455,198 339,198 C 399,122 476,278 138,156 C 636,107 625,384 341,391 Z"></path>
<ellipse stroke="#0fa6d8" stroke-width="1" fill="#02eb6b" opacity="0.5172834306091767" stroke-opacity="0.11802426274565905" transform="rotate(-37.0 400 300)" cx="760" rx="355" cy="355" ry="340"></ellipse>
<path stroke="#0fa6d8" stroke-width="3" fill="#2cd3f3" opacity="0.9206515143942053" stroke-opacity="0.8214865837525963" transform="rotate(-153.0 400 300)" d="M 461,342  C 354,244 332,423 541,316 C 659,263 281,360 458,186 C 321,465 471,451 354,207 C 672,441 115,233 578,475 C 618,319 149,400 339,480 C 223,293 426,125 686,411 Z"></path>
<rect stroke="#fe9225" stroke-width="1" fill="#02eb6b" opacity="0.08505510469776086" stroke-opacity="0.9671386214348721" transform="rotate(4.0 400 300)" x="525" y="593" width="252" height="59"></rect>
<ellipse stroke="#0fa6d8" stroke-width="4" fill="#fe9225" opacity="0.2502669564130919" stroke-opacity="0.6014691574718152" transform="rotate(-165.0 400 300)" cx="259" rx="148" cy="438" ry="277"></ellipse>

  </g>
</svg>
