<svg xmlns="http://www.w3.org/2000/svg" xmlns:xlink="http://www.w3.org/1999/xlink" width="800" height="600" version="1.1" viewBox="0 0 800 600"><g fill="none" fill-rule="evenodd" stroke="none" stroke-width="1"><polygon fill="#fe9225" stroke="#2cd3f3" stroke-opacity=".913" stroke-width="4" points="374 9 248 414 191 117 417 145 223 282 131 119 137 343 662 63" opacity=".488" transform="rotate(30.0 400 300)"/><path fill="#0fa6d8" stroke="#0fa6d8" stroke-opacity=".056" stroke-width="2" d="M 118,309 C 379,298 427,112 361,354 C 361,133 567,152 177,193 C 198,429 337,265 628,419 C 522,264 181,297 689,182 C 622,283 455,198 339,198 C 399,122 476,278 138,156 C 636,107 625,384 341,391 Z" opacity=".755" transform="rotate(77.0 400 300)"/><ellipse cx="760" cy="355" fill="#02eb6b" stroke="#0fa6d8" stroke-opacity=".118" stroke-width="1" opacity=".517" rx="355" ry="340" transform="rotate(-37.0 400 300)"/><path fill="#2cd3f3" stroke="#0fa6d8" stroke-opacity=".821" stroke-width="3" d="M 461,342 C 354,244 332,423 541,316 C 659,263 281,360 458,186 C 321,465 471,451 354,207 C 672,441 115,233 578,475 C 618,319 149,400 339,480 C 223,293 426,125 686,411 Z" opacity=".921" transform="rotate(-153.0 400 300)"/><rect width="252" height="59" x="525" y="593" fill="#02eb6b" stroke="#fe9225" stroke-opacity=".967" stroke-width="1" opacity=".085" transform="rotate(4.0 400 300)"/><ellipse cx="259" cy="438" fill="#fe9225" stroke="#0fa6d8" stroke-opacity=".601" stroke-width="4" opacity=".25" rx="148" ry="277" transform="rotate(-165.0 400 300)"/></g></svg>