<svg xmlns="http://www.w3.org/2000/svg" xmlns:xlink="http://www.w3.org/1999/xlink" width="800" height="600" version="1.1" viewBox="0 0 800 600"><g fill="none" fill-rule="evenodd" stroke="none" stroke-width="1"><polygon fill="#f27630" stroke="#ed2b2c" stroke-opacity=".87" stroke-width="5" points="145 565 111 401 728 356 443 326 486 193 486 44" opacity=".331" transform="rotate(-148.0 400 300)"/><rect width="165" height="327" x="86" y="212" fill="#31a06b" stroke="#f27630" stroke-opacity=".07" stroke-width="4" opacity=".867" transform="rotate(-158.0 400 300)"/><rect width="202" height="306" x="242" y="245" fill="#f9d84b" stroke="#f9d84b" stroke-opacity=".449" stroke-width="4" opacity=".503" transform="rotate(-17.0 400 300)"/><rect width="185" height="162" x="334" y="257" fill="#2b55f7" stroke="#ed2b2c" stroke-opacity=".842" stroke-width="2" opacity=".781" transform="rotate(158.0 400 300)"/><rect width="44" height="345" x="596" y="127" fill="#ed2b2c" stroke="#f9d84b" stroke-opacity=".065" stroke-width="2" opacity=".974" transform="rotate(-38.0 400 300)"/><path fill="#2b55f7" stroke="#f27630" stroke-opacity=".192" stroke-width="3" d="M 690,294 C 562,422 614,342 185,254 C 651,168 504,148 403,165 C 323,263 267,445 508,348 C 381,124 347,188 298,283 C 499,457 269,434 197,113 C 457,175 305,185 103,436 C 686,252 573,119 507,201 Z" opacity=".285" transform="rotate(-112.0 400 300)"/><path fill="#f27630" stroke="#f9d84b" stroke-opacity=".511" stroke-width="2" d="M 200,223 C 419,466 571,119 560,191 C 346,337 234,297 670,407 C 267,331 281,258 458,102 C 449,248 118,387 509,373 C 494,113 558,342 664,250 C 648,161 326,380 623,168 C 160,395 293,103 568,307 C 477,387 310,427 291,217 C 171,145 691,351 425,212 Z" opacity=".59" transform="rotate(-24.0 400 300)"/></g></svg>