<svg xmlns="http://www.w3.org/2000/svg" xmlns:xlink="http://www.w3.org/1999/xlink" width="800" height="600" version="1.1" viewBox="0 0 800 600"><g fill="none" fill-rule="evenodd" stroke="none" stroke-width="1"><path fill="#052C90" stroke="#CDBC51" stroke-opacity=".493" stroke-width="7" d="M 139,418 C 139,279 133,177 286,131 C 110,158 359,150 539,312 C 572,209 516,490 373,462 C 434,435 690,137 335,272 C 318,453 342,386 356,469 Z" opacity=".295" transform="rotate(71.0 400 300)"/><path fill="#D1D249" stroke="#D66B94" stroke-opacity=".095" stroke-width="5" d="M 314,454 C 687,169 164,497 120,360 C 160,236 397,343 371,484 C 614,221 548,141 385,268 C 420,271 257,287 533,306 C 372,306 229,487 638,497 Z" opacity=".931" transform="rotate(-30.0 400 300)"/><path fill="#D22D44" stroke="#31AD09" stroke-opacity=".681" stroke-width="6" d="M 487,454 C 140,442 486,172 199,460 C 114,464 645,261 195,286 C 476,432 478,425 552,435 C 233,137 247,428 212,175 C 241,177 496,103 330,291 C 662,350 697,242 663,143 C 467,462 684,431 403,242 C 492,497 330,120 410,166 C 485,156 366,383 504,246 C 509,351 336,218 146,377 C 276,470 660,394 531,293 Z" opacity=".236" transform="rotate(-122.0 400 300)"/><path fill="#CD2B13" stroke="#163B38" stroke-opacity=".434" stroke-width="1" d="M 378,420 C 247,466 199,465 419,469 C 593,117 639,479 536,303 C 135,186 608,452 365,206 C 667,285 669,485 426,301 C 317,229 608,238 293,221 C 388,356 113,141 343,215 C 426,135 279,422 320,461 C 288,319 174,357 126,323 C 200,403 514,111 175,144 Z" opacity=".983" transform="rotate(68.0 400 300)"/><path fill="#2A2B22" stroke="#10955A" stroke-opacity=".812" stroke-width="4" d="M 360,262 C 174,380 367,180 242,239 C 337,313 280,279 364,374 C 303,214 576,202 551,427 C 606,155 597,121 112,347 C 678,313 464,242 208,196 C 661,261 568,452 334,214 Z" opacity=".65" transform="rotate(137.0 400 300)"/><path fill="#6358B6" stroke="#87BC61" stroke-opacity=".781" stroke-width="1" d="M 321,318 C 401,362 604,118 465,455 C 418,289 638,138 525,469 C 486,422 259,383 584,234 C 345,487 155,423 631,294 C 670,159 244,344 338,283 C 199,178 211,424 539,207 Z" opacity=".141" transform="rotate(-106.0 400 300)"/><path fill="#78BB62" stroke="#20BD45" stroke-opacity=".717" stroke-width="1" d="M 157,438 C 463,130 357,335 248,175 C 640,130 399,298 335,386 C 544,369 579,471 215,316 C 105,375 245,337 205,351 C 515,265 509,302 320,373 Z" opacity=".229" transform="rotate(90.0 400 300)"/><path fill="#9B235A" stroke="#A82723" stroke-opacity=".125" stroke-width="4" d="M 247,115 C 599,386 254,404 536,347 C 283,316 433,369 676,102 C 509,129 535,346 455,342 C 259,436 210,366 141,215 C 642,412 367,438 399,294 Z" opacity=".43" transform="rotate(-176.0 400 300)"/><path fill="#464073" stroke="#92D80D" stroke-opacity=".226" stroke-width="4" d="M 125,263 C 645,336 468,164 698,486 C 409,119 638,359 332,350 C 378,319 617,116 600,376 C 371,348 396,263 463,247 C 347,368 481,458 163,433 C 524,216 697,344 201,124 C 675,252 293,148 645,447 C 455,155 330,458 383,318 C 280,477 677,156 151,383 C 136,356 295,294 289,118 C 623,315 675,273 483,332 Z" opacity=".817" transform="rotate(135.0 400 300)"/></g></svg>