<svg xmlns="http://www.w3.org/2000/svg" xmlns:xlink="http://www.w3.org/1999/xlink" width="800" height="600" version="1.1" viewBox="0 0 800 600"><g fill="none" fill-rule="evenodd" stroke="none" stroke-width="1"><polygon fill="#2cd3f3" stroke="#fe9225" stroke-opacity=".367" stroke-width="3" points="129 468 176 126 553 268 721 53 671 71 548 23 795 552 629 392" opacity=".339" transform="rotate(-162.0 400 300)"/><rect width="60" height="246" x="547" y="387" fill="#2cd3f3" stroke="#fe9225" stroke-opacity=".46" stroke-width="7" opacity=".841" transform="rotate(-50.0 400 300)"/><rect width="218" height="239" x="639" y="537" fill="#f559a0" stroke="#f559a0" stroke-opacity=".238" stroke-width="6" opacity=".203" transform="rotate(-88.0 400 300)"/><ellipse cx="501" cy="393" fill="#fe9225" stroke="#0fa6d8" stroke-opacity=".763" stroke-width="7" opacity=".088" rx="379" ry="326" transform="rotate(-135.0 400 300)"/><rect width="291" height="96" x="725" y="456" fill="#0fa6d8" stroke="#fe9225" stroke-opacity=".55" stroke-width="1" opacity=".518" transform="rotate(-132.0 400 300)"/><rect width="136" height="397" x="39" y="150" fill="#02eb6b" stroke="#f559a0" stroke-opacity=".787" stroke-width="4" opacity=".552" transform="rotate(-85.0 400 300)"/><polygon fill="#0fa6d8" stroke="#0fa6d8" stroke-opacity=".069" stroke-width="4" points="198 245 669 598 658 306 476 109 267 272 477 588 554 54" opacity=".457" transform="rotate(-138.0 400 300)"/></g></svg>