<?xml version="1.0" encoding="UTF-8"?>
<svg width="800px" height="600px" viewBox="0 0 800 600" version="1.1" xmlns="http://www.w3.org/2000/svg" xmlns:xlink="http://www.w3.org/1999/xlink">
  <defs></defs>
  <g stroke="none" stroke-width="1" fill="none" fill-rule="evenodd">
    
    <path stroke="#02eb6b" stroke-width="5" fill="#02eb6b" opacity="0.778258523480756" stroke-opacity="0.22914809976414136" transform="rotate(-134.0 400 300)" d="M 645,410  C 101,233 135,490 310,255 C 125,416 279,430 366,290 C 425,106 425,127 668,401 C 182,192 643,212 454,459 C 426,398 465,110 422,435 C 206,260 625,167 627,291 C 280,390 463,313 461,406 Z"></path>
<path stroke="#fe9225" stroke-width="1" fill="#fe9225" opacity="0.9989566213746349" stroke-opacity="0.9936805796230301" transform="rotate(-42.0 400 300)" d="M 506,260  C 451,373 563,131 394,284 C 532,154 295,262 667,193 C 574,225 245,342 111,372 C 477,410 134,438 148,231 C 411,443 158,273 116,163 C 695,410 193,266 358,477 Z"></path>
<path stroke="#f559a0" stroke-width="5" fill="#fe9225" opacity="0.116573628836363" stroke-opacity="0.3905872619497453" transform="rotate(-143.0 400 300)" d="M 493,172  C 207,435 578,215 541,498 C 236,322 626,378 196,257 C 534,258 648,343 200,123 C 690,261 619,280 634,346 C 385,447 136,263 394,194 C 294,312 280,279 429,172 C 159,200 318,483 538,179 C 223,241 582,339 435,105 Z"></path>
<path stroke="#02eb6b" stroke-width="5" fill="#0fa6d8" opacity="0.15225602316001555" stroke-opacity="0.5767079692035538" transform="rotate(97.0 400 300)" d="M 567,222  C 158,204 670,420 337,174 C 190,227 101,139 526,186 C 571,322 185,468 196,229 C 201,357 532,422 629,305 C 124,409 692,193 629,293 C 309,248 165,457 584,360 C 473,366 178,494 433,461 Z"></path>
<path stroke="#f559a0" stroke-width="1" fill="#02eb6b" opacity="0.5620049724103926" stroke-opacity="0.6390428008486533" transform="rotate(155.0 400 300)" d="M 470,460  C 340,369 443,414 251,451 C 306,299 660,202 343,403 C 667,198 222,418 109,205 C 654,435 682,444 639,406 C 137,107 392,265 346,194 C 419,431 627,101 436,275 Z"></path>
<path stroke="#02eb6b" stroke-width="5" fill="#02eb6b" opacity="0.3455345210578337" stroke-opacity="0.8555364509485349" transform="rotate(110.0 400 300)" d="M 642,407  C 291,499 147,389 603,448 C 220,109 272,444 174,353 C 112,167 276,384 343,277 C 680,350 112,349 131,432 C 289,469 680,336 140,150 C 332,201 449,267 408,437 C 116,135 214,490 668,230 C 629,256 340,365 178,280 C 645,231 320,345 580,364 C 103,439 274,408 482,369 C 272,137 679,452 153,470 Z"></path>
<path stroke="#fe9225" stroke-width="3" fill="#2cd3f3" opacity="0.04345996337162443" stroke-opacity="0.31772010972928355" transform="rotate(116.0 400 300)" d="M 152,359  C 273,482 563,273 343,459 C 635,286 335,471 331,209 C 334,293 441,277 225,162 C 498,351 591,332 597,175 C 643,323 359,213 674,140 C 603,133 556,491 426,128 C 342,293 506,207 365,262 C 104,209 593,119 353,131 C 682,458 458,180 489,255 Z"></path>
<path stroke="#fe9225" stroke-width="3" fill="#f559a0" opacity="0.9424461992442253" stroke-opacity="0.051716904707891274" transform="rotate(112.0 400 300)" d="M 490,113  C 267,434 680,270 650,328 C 323,443 359,120 139,456 C 384,446 276,165 333,364 C 348,438 477,264 389,145 C 315,493 547,419 157,422 C 456,126 317,184 451,206 Z"></path>
<path stroke="#0fa6d8" stroke-width="6" fill="#f559a0" opacity="0.5408878624254292" stroke-opacity="0.07632920405845753" transform="rotate(-7.0 400 300)" d="M 164,391  C 359,359 283,317 659,458 C 211,195 373,276 541,192 C 314,117 137,165 523,326 C 395,483 625,208 254,411 C 379,370 434,135 153,346 C 245,224 408,480 276,454 C 416,292 293,245 503,245 C 631,415 210,206 220,151 C 672,451 517,280 182,200 C 131,382 366,127 402,227 C 239,134 677,319 604,435 Z"></path>
<path stroke="#2cd3f3" stroke-width="6" fill="#02eb6b" opacity="0.9392241356712595" stroke-opacity="0.8931160852012534" transform="rotate(-175.0 400 300)" d="M 366,117  C 645,108 373,338 651,360 C 456,461 124,368 261,433 C 153,334 605,497 349,208 C 242,401 467,349 595,208 C 479,263 560,488 661,395 C 528,278 628,234 523,381 C 240,500 644,371 594,339 C 463,211 472,236 649,306 Z"></path>

  </g>
</svg>
