<svg xmlns="http://www.w3.org/2000/svg" xmlns:xlink="http://www.w3.org/1999/xlink" width="800" height="600" version="1.1" viewBox="0 0 800 600"><g fill="none" fill-rule="evenodd" stroke="none" stroke-width="1"><rect width="270" height="381" x="303" y="520" fill="#21D233" stroke="#79398C" stroke-opacity=".127" stroke-width="1" opacity=".007" transform="rotate(43.0 400 300)"/><polygon fill="#5366D3" stroke="#0A8DA9" stroke-opacity=".255" stroke-width="2" points="715 418 626 166 571 389 443 141 262 511 636 600 163 256" opacity=".912" transform="rotate(-38.0 400 300)"/><ellipse cx="628" cy="441" fill="#6C01AB" stroke="#8ABC39" stroke-opacity=".457" stroke-width="2" opacity=".853" rx="325" ry="169" transform="rotate(169.0 400 300)"/><rect width="276" height="362" x="620" y="369" fill="#A84310" stroke="#30C6C1" stroke-opacity=".578" stroke-width="6" opacity=".712" transform="rotate(-97.0 400 300)"/><path fill="#1C81DC" stroke="#812933" stroke-opacity=".156" stroke-width="1" d="M 633,403 C 434,112 246,231 497,218 C 655,173 474,407 665,242 C 387,265 246,106 678,496 C 544,411 273,271 179,140 C 501,346 546,205 220,114 Z" opacity=".646" transform="rotate(-82.0 400 300)"/><ellipse cx="604" cy="203" fill="#834226" stroke="#A2A8BA" stroke-opacity=".049" stroke-width="5" opacity=".321" rx="378" ry="308" transform="rotate(179.0 400 300)"/><polygon fill="#24D00C" stroke="#B647C9" stroke-opacity=".616" stroke-width="5" points="19 165 667 203 378 436 249 136 151 143 137 427 110 101" opacity=".726" transform="rotate(-159.0 400 300)"/><ellipse cx="528" cy="186" fill="#915A47" stroke="#DD8522" stroke-opacity=".192" stroke-width="1" opacity=".509" rx="143" ry="244" transform="rotate(-104.0 400 300)"/><polygon fill="#D4AC43" stroke="#596D21" stroke-opacity=".407" stroke-width="3" points="579 520 217 109 787 289 422 154 206 41 523 554" opacity=".585" transform="rotate(-36.0 400 300)"/></g></svg>