<?xml version="1.0" encoding="UTF-8"?>
<svg width="800px" height="600px" viewBox="0 0 800 600" version="1.1" xmlns="http://www.w3.org/2000/svg" xmlns:xlink="http://www.w3.org/1999/xlink">
  <defs></defs>
  <g stroke="none" stroke-width="1" fill="none" fill-rule="evenodd">
    
    <rect stroke="#79398C" stroke-width="1" fill="#21D233" opacity="0.006938454337103654" stroke-opacity="0.12738580544501263" transform="rotate(43.0 400 300)" x="303" y="520" width="270" height="381"></rect>
<polygon stroke="#0A8DA9" stroke-width="2" fill="#5366D3" opacity="0.9120711798376058" stroke-opacity="0.2547173507360019" transform="rotate(-38.0 400 300)" points="715 418 626 166 571 389 443 141 262 511 636 600 163 256 "></polygon>
<ellipse stroke="#8ABC39" stroke-width="2" fill="#6C01AB" opacity="0.8525759454312084" stroke-opacity="0.45696450846793263" transform="rotate(169.0 400 300)" cx="628" rx="325" cy="441" ry="169"></ellipse>
<rect stroke="#30C6C1" stroke-width="6" fill="#A84310" opacity="0.711743482099164" stroke-opacity="0.5782519528698583" transform="rotate(-97.0 400 300)" x="620" y="369" width="276" height="362"></rect>
<path stroke="#812933" stroke-width="1" fill="#1C81DC" opacity="0.6463638092889834" stroke-opacity="0.1555481598195119" transform="rotate(-82.0 400 300)" d="M 633,403  C 434,112 246,231 497,218 C 655,173 474,407 665,242 C 387,265 246,106 678,496 C 544,411 273,271 179,140 C 501,346 546,205 220,114 Z"></path>
<ellipse stroke="#A2A8BA" stroke-width="5" fill="#834226" opacity="0.3212912859951305" stroke-opacity="0.04941270347174047" transform="rotate(179.0 400 300)" cx="604" rx="378" cy="203" ry="308"></ellipse>
<polygon stroke="#B647C9" stroke-width="5" fill="#24D00C" opacity="0.7259669459012512" stroke-opacity="0.6161924007857964" transform="rotate(-159.0 400 300)" points="19 165 667 203 378 436 249 136 151 143 137 427 110 101 "></polygon>
<ellipse stroke="#DD8522" stroke-width="1" fill="#915A47" opacity="0.5093120085214836" stroke-opacity="0.19201701505367705" transform="rotate(-104.0 400 300)" cx="528" rx="143" cy="186" ry="244"></ellipse>
<polygon stroke="#596D21" stroke-width="3" fill="#D4AC43" opacity="0.5849914253442626" stroke-opacity="0.40697562309775376" transform="rotate(-36.0 400 300)" points="579 520 217 109 787 289 422 154 206 41 523 554 "></polygon>

  </g>
</svg>
