<svg xmlns="http://www.w3.org/2000/svg" xmlns:xlink="http://www.w3.org/1999/xlink" width="800" height="600" version="1.1" viewBox="0 0 800 600"><g fill="none" fill-rule="evenodd" stroke="none" stroke-width="1"><path fill="#fe9225" stroke="#2cd3f3" stroke-opacity=".863" stroke-width="5" d="M 585,454 C 353,338 689,230 203,446 C 495,153 125,162 365,336 C 287,140 340,139 283,253 C 205,216 563,277 253,426 C 186,474 366,316 331,103 C 534,259 576,301 343,445 C 237,276 153,266 319,396 C 338,146 471,298 593,282 C 154,339 116,396 270,360 C 245,256 127,368 335,172 C 176,306 421,157 321,183 Z" opacity=".628" transform="rotate(-149.0 400 300)"/><path fill="#2cd3f3" stroke="#2cd3f3" stroke-opacity=".375" stroke-width="4" d="M 148,271 C 508,427 418,273 483,344 C 102,116 200,110 262,186 C 459,303 402,149 559,446 C 624,488 255,123 169,356 Z" opacity=".082" transform="rotate(20.0 400 300)"/><path fill="#02eb6b" stroke="#0fa6d8" stroke-opacity=".693" stroke-width="7" d="M 644,389 C 273,207 696,435 151,304 C 599,457 366,264 653,486 C 343,400 421,134 416,206 C 120,242 610,300 648,210 C 664,130 546,172 144,354 C 505,146 103,450 524,329 C 182,483 211,113 577,235 C 585,454 560,145 341,207 Z" opacity=".001" transform="rotate(153.0 400 300)"/><path fill="#fe9225" stroke="#2cd3f3" stroke-opacity=".293" stroke-width="6" d="M 408,388 C 297,252 331,134 427,365 C 165,124 429,143 319,222 C 498,225 202,146 650,248 C 586,473 201,466 236,329 Z" opacity=".196" transform="rotate(162.0 400 300)"/><path fill="#fe9225" stroke="#2cd3f3" stroke-opacity=".326" stroke-width="3" d="M 363,232 C 576,356 532,337 364,391 C 147,198 528,336 554,119 C 467,476 120,313 482,396 C 523,237 285,248 361,229 C 153,261 536,121 370,251 C 126,219 570,355 304,335 C 688,479 462,472 493,473 C 505,312 101,356 151,267 C 357,158 345,173 539,349 Z" opacity=".556" transform="rotate(-70.0 400 300)"/><path fill="#f559a0" stroke="#f559a0" stroke-opacity=".328" stroke-width="2" d="M 501,464 C 433,201 174,268 448,287 C 345,357 274,195 473,498 C 622,421 238,226 195,171 C 410,200 407,304 271,458 C 583,435 640,359 372,218 C 341,461 630,347 669,395 C 205,193 339,487 519,147 C 663,257 457,111 361,208 C 663,246 563,497 224,268 C 372,191 442,136 670,123 Z" opacity=".913" transform="rotate(69.0 400 300)"/><path fill="#2cd3f3" stroke="#02eb6b" stroke-opacity=".825" stroke-width="2" d="M 145,280 C 490,202 115,319 153,379 C 619,424 177,485 377,141 C 475,158 349,187 291,359 C 487,344 662,474 320,228 C 463,461 551,136 244,391 Z" opacity=".581" transform="rotate(133.0 400 300)"/><path fill="#0fa6d8" stroke="#fe9225" stroke-opacity=".565" stroke-width="1" d="M 260,148 C 241,168 485,235 312,495 C 392,373 483,295 608,430 C 489,254 235,247 240,218 C 298,486 344,448 134,106 C 199,237 582,232 137,219 C 405,316 309,116 333,311 Z" opacity=".179" transform="rotate(-47.0 400 300)"/></g></svg>