<svg xmlns="http://www.w3.org/2000/svg" xmlns:xlink="http://www.w3.org/1999/xlink" width="800" height="600" version="1.1" viewBox="0 0 800 600"><g fill="none" fill-rule="evenodd" stroke="none" stroke-width="1"><polygon fill="#84C1C8" stroke="#585A21" stroke-opacity=".22" stroke-width="6" points="766 355 582 233 307 223 725 540 614 175 77 40 266 514" opacity=".397" transform="rotate(168.0 400 300)"/><ellipse cx="706" cy="121" fill="#63D709" stroke="#76BBA7" stroke-opacity=".946" stroke-width="3" opacity=".407" rx="187" ry="178" transform="rotate(-162.0 400 300)"/><rect width="72" height="73" x="197" y="363" fill="#1B5295" stroke="#16399A" stroke-opacity=".114" stroke-width="7" opacity=".622" transform="rotate(155.0 400 300)"/><path fill="#260991" stroke="#6ABB17" stroke-opacity=".737" stroke-width="1" d="M 624,384 C 666,109 202,163 256,301 C 194,126 230,266 525,133 C 299,461 516,325 452,130 C 675,140 212,276 388,335 C 350,374 495,306 511,400 C 317,406 521,433 282,151 C 591,253 295,330 547,197 Z" opacity=".315" transform="rotate(126.0 400 300)"/><polygon fill="#DA55C1" stroke="#85D982" stroke-opacity=".187" stroke-width="1" points="541 69 71 94 155 436 571 525 474 323" opacity=".198" transform="rotate(-136.0 400 300)"/><rect width="121" height="200" x="752" y="98" fill="#2A5C22" stroke="#594487" stroke-opacity=".249" stroke-width="6" opacity=".306" transform="rotate(-76.0 400 300)"/><ellipse cx="235" cy="128" fill="#667AAC" stroke="#CA3CA4" stroke-opacity=".649" stroke-width="4" opacity=".875" rx="259" ry="290" transform="rotate(-38.0 400 300)"/><polygon fill="#D24729" stroke="#54C112" stroke-opacity=".653" stroke-width="6" points="402 595 701 559 332 455 356 216 539 277 191 361" opacity=".171" transform="rotate(101.0 400 300)"/></g></svg>