<svg xmlns="http://www.w3.org/2000/svg" xmlns:xlink="http://www.w3.org/1999/xlink" width="800" height="600" version="1.1" viewBox="0 0 800 600"><g fill="none" fill-rule="evenodd" stroke="none" stroke-width="1"><ellipse cx="77" cy="101" fill="#2b55f7" stroke="#ed2b2c" stroke-opacity=".881" stroke-width="5" opacity=".439" rx="40" ry="289" transform="rotate(61.0 400 300)"/><rect width="67" height="290" x="359" y="378" fill="#31a06b" stroke="#f27630" stroke-opacity=".998" stroke-width="3" opacity=".502" transform="rotate(-1.0 400 300)"/><polygon fill="#f27630" stroke="#f9d84b" stroke-opacity=".781" stroke-width="6" points="173 353 464 394 576 405 111 310 386 170 58 92 399 212" opacity=".815" transform="rotate(114.0 400 300)"/><rect width="212" height="196" x="152" y="303" fill="#f27630" stroke="#31a06b" stroke-opacity=".016" stroke-width="7" opacity=".339" transform="rotate(-69.0 400 300)"/><rect width="188" height="368" x="205" y="202" fill="#2b55f7" stroke="#31a06b" stroke-opacity=".522" stroke-width="4" opacity=".628" transform="rotate(73.0 400 300)"/><ellipse cx="165" cy="440" fill="#2b55f7" stroke="#2b55f7" stroke-opacity=".707" stroke-width="7" opacity=".289" rx="335" ry="291" transform="rotate(-42.0 400 300)"/><ellipse cx="324" cy="450" fill="#f9d84b" stroke="#2b55f7" stroke-opacity=".946" stroke-width="3" opacity=".327" rx="253" ry="275" transform="rotate(-1.0 400 300)"/><rect width="311" height="144" x="563" y="346" fill="#ed2b2c" stroke="#f27630" stroke-opacity=".979" stroke-width="2" opacity=".507" transform="rotate(95.0 400 300)"/><rect width="152" height="122" x="328" y="262" fill="#f27630" stroke="#31a06b" stroke-opacity=".205" stroke-width="3" opacity=".62" transform="rotate(-101.0 400 300)"/><path fill="#31a06b" stroke="#31a06b" stroke-opacity=".199" stroke-width="2" d="M 294,326 C 458,101 265,242 189,488 C 423,128 438,293 590,223 C 309,390 338,151 391,160 C 208,484 390,442 485,101 C 128,452 685,222 273,471 C 402,382 235,357 345,181 Z" opacity=".133" transform="rotate(-65.0 400 300)"/><ellipse cx="732" cy="6" fill="#f9d84b" stroke="#ed2b2c" stroke-opacity=".956" stroke-width="2" opacity=".811" rx="180" ry="110" transform="rotate(-156.0 400 300)"/></g></svg>