<?xml version="1.0" encoding="UTF-8"?>
<svg width="800px" height="600px" viewBox="0 0 800 600" version="1.1" xmlns="http://www.w3.org/2000/svg" xmlns:xlink="http://www.w3.org/1999/xlink">
  <defs></defs>
  <g stroke="none" stroke-width="1" fill="none" fill-rule="evenodd">
    
    <rect stroke="#6DC748" stroke-width="4" fill="#3439AA" opacity="0.6834020093671428" stroke-opacity="0.9368804907832753" transform="rotate(19.0 400 300)" x="398" y="393" width="215" height="30"></rect>
<polygon stroke="#42C864" stroke-width="2" fill="#DC52DC" opacity="0.7035792398462112" stroke-opacity="0.5864426310895391" transform="rotate(141.0 400 300)" points="434 590 729 283 532 505 773 207 301 463 250 18 412 217 "></polygon>
<path stroke="#2B95D1" stroke-width="7" fill="#466789" opacity="0.47298160793291955" stroke-opacity="0.9635008216341049" transform="rotate(149.0 400 300)" d="M 648,365  C 652,492 637,296 108,220 C 189,455 631,324 258,222 C 161,368 551,443 221,164 C 651,134 641,352 383,214 C 465,233 451,149 606,253 C 650,498 679,312 542,317 C 413,160 173,219 289,202 C 552,215 185,305 469,147 C 285,475 306,432 521,325 C 136,214 179,476 643,238 C 216,469 108,447 400,166 Z"></path>
<ellipse stroke="#9D033B" stroke-width="4" fill="#11BCC2" opacity="0.404153707168898" stroke-opacity="0.7351107766604501" transform="rotate(13.0 400 300)" cx="225" rx="50" cy="522" ry="265"></ellipse>
<path stroke="#BBC291" stroke-width="2" fill="#230060" opacity="0.029240246669819014" stroke-opacity="0.30347138443405053" transform="rotate(-55.0 400 300)" d="M 536,151  C 527,119 669,248 406,277 C 202,264 212,420 557,222 C 248,338 603,419 592,202 C 558,292 561,343 305,362 Z"></path>
<polygon stroke="#C6C177" stroke-width="7" fill="#7D40CB" opacity="0.43676723848136506" stroke-opacity="0.4397981558567415" transform="rotate(45.0 400 300)" points="175 48 380 327 292 392 538 178 193 203 495 129 "></polygon>

  </g>
</svg>
