<svg xmlns="http://www.w3.org/2000/svg" xmlns:xlink="http://www.w3.org/1999/xlink" width="800" height="600" version="1.1" viewBox="0 0 800 600"><g fill="none" fill-rule="evenodd" stroke="none" stroke-width="1"><rect width="215" height="30" x="398" y="393" fill="#3439AA" stroke="#6DC748" stroke-opacity=".937" stroke-width="4" opacity=".683" transform="rotate(19.0 400 300)"/><polygon fill="#DC52DC" stroke="#42C864" stroke-opacity=".586" stroke-width="2" points="434 590 729 283 532 505 773 207 301 463 250 18 412 217" opacity=".704" transform="rotate(141.0 400 300)"/><path fill="#466789" stroke="#2B95D1" stroke-opacity=".964" stroke-width="7" d="M 648,365 C 652,492 637,296 108,220 C 189,455 631,324 258,222 C 161,368 551,443 221,164 C 651,134 641,352 383,214 C 465,233 451,149 606,253 C 650,498 679,312 542,317 C 413,160 173,219 289,202 C 552,215 185,305 469,147 C 285,475 306,432 521,325 C 136,214 179,476 643,238 C 216,469 108,447 400,166 Z" opacity=".473" transform="rotate(149.0 400 300)"/><ellipse cx="225" cy="522" fill="#11BCC2" stroke="#9D033B" stroke-opacity=".735" stroke-width="4" opacity=".404" rx="50" ry="265" transform="rotate(13.0 400 300)"/><path fill="#230060" stroke="#BBC291" stroke-opacity=".303" stroke-width="2" d="M 536,151 C 527,119 669,248 406,277 C 202,264 212,420 557,222 C 248,338 603,419 592,202 C 558,292 561,343 305,362 Z" opacity=".029" transform="rotate(-55.0 400 300)"/><polygon fill="#7D40CB" stroke="#C6C177" stroke-opacity=".44" stroke-width="7" points="175 48 380 327 292 392 538 178 193 203 495 129" opacity=".437" transform="rotate(45.0 400 300)"/></g></svg>