<svg xmlns="http://www.w3.org/2000/svg" xmlns:xlink="http://www.w3.org/1999/xlink" width="800" height="600" version="1.1" viewBox="0 0 800 600"><g fill="none" fill-rule="evenodd" stroke="none" stroke-width="1"><path fill="#02eb6b" stroke="#fe9225" stroke-opacity=".664" stroke-width="3" d="M 210,307 C 403,199 509,395 122,138 C 608,446 620,140 415,429 C 399,189 287,446 480,364 C 353,433 159,115 123,368 C 561,193 665,237 395,366 C 494,110 269,491 363,428 C 132,264 687,119 243,133 Z" opacity=".412" transform="rotate(34.0 400 300)"/><path fill="#fe9225" stroke="#2cd3f3" stroke-opacity=".085" stroke-width="1" d="M 288,286 C 241,121 180,236 412,231 C 533,212 447,274 201,495 C 578,110 216,465 186,101 C 440,422 605,476 403,256 C 555,423 358,213 392,483 C 300,283 321,128 242,338 C 265,477 217,259 527,279 Z" opacity=".242" transform="rotate(-32.0 400 300)"/><rect width="244" height="167" x="519" y="106" fill="#0fa6d8" stroke="#f559a0" stroke-opacity=".667" stroke-width="7" opacity=".62" transform="rotate(78.0 400 300)"/><polygon fill="#0fa6d8" stroke="#02eb6b" stroke-opacity=".919" stroke-width="7" points="341 165 736 566 468 261 226 410 721 502 457 62 203 597 238 485" opacity=".999" transform="rotate(148.0 400 300)"/><path fill="#fe9225" stroke="#0fa6d8" stroke-opacity=".235" stroke-width="2" d="M 289,368 C 112,323 438,414 375,355 C 217,350 658,251 130,444 C 367,239 169,365 421,354 C 202,180 327,445 147,262 C 179,425 472,332 448,483 C 558,111 212,384 698,421 C 175,364 683,386 189,476 C 375,187 485,310 229,207 Z" opacity=".602" transform="rotate(56.0 400 300)"/><polygon fill="#f559a0" stroke="#f559a0" stroke-opacity=".64" stroke-width="2" points="279 270 605 10 45 197 213 308 705 297 721 396" opacity=".041" transform="rotate(-120.0 400 300)"/><ellipse cx="203" cy="389" fill="#02eb6b" stroke="#02eb6b" stroke-opacity=".194" stroke-width="7" opacity=".393" rx="103" ry="332" transform="rotate(157.0 400 300)"/><path fill="#fe9225" stroke="#02eb6b" stroke-opacity=".424" stroke-width="4" d="M 604,450 C 490,411 201,481 310,478 C 591,384 459,137 696,296 C 585,458 560,329 572,436 C 691,405 590,367 192,428 C 488,316 399,312 268,338 C 451,213 389,461 196,407 C 490,211 226,371 610,109 C 267,457 217,342 668,106 C 332,119 448,198 359,117 C 186,136 338,208 419,429 C 606,473 124,125 301,121 Z" opacity=".43" transform="rotate(128.0 400 300)"/></g></svg>