<?xml version="1.0" encoding="UTF-8"?>
<svg width="800px" height="600px" viewBox="0 0 800 600" version="1.1" xmlns="http://www.w3.org/2000/svg" xmlns:xlink="http://www.w3.org/1999/xlink">
  <defs></defs>
  <g stroke="none" stroke-width="1" fill="none" fill-rule="evenodd">
    
    <path stroke="#fe9225" stroke-width="3" fill="#02eb6b" opacity="0.41201575884688174" stroke-opacity="0.6637320007291585" transform="rotate(34.0 400 300)" d="M 210,307  C 403,199 509,395 122,138 C 608,446 620,140 415,429 C 399,189 287,446 480,364 C 353,433 159,115 123,368 C 561,193 665,237 395,366 C 494,110 269,491 363,428 C 132,264 687,119 243,133 Z"></path>
<path stroke="#2cd3f3" stroke-width="1" fill="#fe9225" opacity="0.24192534840436275" stroke-opacity="0.08514728780890136" transform="rotate(-32.0 400 300)" d="M 288,286  C 241,121 180,236 412,231 C 533,212 447,274 201,495 C 578,110 216,465 186,101 C 440,422 605,476 403,256 C 555,423 358,213 392,483 C 300,283 321,128 242,338 C 265,477 217,259 527,279 Z"></path>
<rect stroke="#f559a0" stroke-width="7" fill="#0fa6d8" opacity="0.6198172463064215" stroke-opacity="0.6674578613212889" transform="rotate(78.0 400 300)" x="519" y="106" width="244" height="167"></rect>
<polygon stroke="#02eb6b" stroke-width="7" fill="#0fa6d8" opacity="0.998928068442493" stroke-opacity="0.919012844593737" transform="rotate(148.0 400 300)" points="341 165 736 566 468 261 226 410 721 502 457 62 203 597 238 485 "></polygon>
<path stroke="#0fa6d8" stroke-width="2" fill="#fe9225" opacity="0.6020054753653182" stroke-opacity="0.23509724464893758" transform="rotate(56.0 400 300)" d="M 289,368  C 112,323 438,414 375,355 C 217,350 658,251 130,444 C 367,239 169,365 421,354 C 202,180 327,445 147,262 C 179,425 472,332 448,483 C 558,111 212,384 698,421 C 175,364 683,386 189,476 C 375,187 485,310 229,207 Z"></path>
<polygon stroke="#f559a0" stroke-width="2" fill="#f559a0" opacity="0.041328010426704254" stroke-opacity="0.6396189670097773" transform="rotate(-120.0 400 300)" points="279 270 605 10 45 197 213 308 705 297 721 396 "></polygon>
<ellipse stroke="#02eb6b" stroke-width="7" fill="#02eb6b" opacity="0.39301334641037383" stroke-opacity="0.1936091310606727" transform="rotate(157.0 400 300)" cx="203" rx="103" cy="389" ry="332"></ellipse>
<path stroke="#02eb6b" stroke-width="4" fill="#fe9225" opacity="0.42952084093164905" stroke-opacity="0.4237539253251266" transform="rotate(128.0 400 300)" d="M 604,450  C 490,411 201,481 310,478 C 591,384 459,137 696,296 C 585,458 560,329 572,436 C 691,405 590,367 192,428 C 488,316 399,312 268,338 C 451,213 389,461 196,407 C 490,211 226,371 610,109 C 267,457 217,342 668,106 C 332,119 448,198 359,117 C 186,136 338,208 419,429 C 606,473 124,125 301,121 Z"></path>

  </g>
</svg>
