<?xml version="1.0" encoding="UTF-8"?>
<svg width="800px" height="600px" viewBox="0 0 800 600" version="1.1" xmlns="http://www.w3.org/2000/svg" xmlns:xlink="http://www.w3.org/1999/xlink">
  <defs></defs>
  <g stroke="none" stroke-width="1" fill="none" fill-rule="evenodd">
    
    <path stroke="#2cd3f3" stroke-width="6" fill="#f559a0" opacity="0.4716466631269925" stroke-opacity="0.3532142639712497" transform="rotate(12.0 400 300)" d="M 580,289  C 120,350 463,167 589,375 C 369,218 513,420 212,227 C 386,390 544,354 231,101 C 173,154 285,246 662,329 C 495,473 661,437 161,249 C 102,459 664,337 125,401 C 455,150 473,179 492,273 C 348,301 139,363 394,365 C 179,202 698,339 292,125 C 171,479 517,314 108,156 Z"></path>
<path stroke="#f559a0" stroke-width="2" fill="#02eb6b" opacity="0.5478134770354858" stroke-opacity="0.6601233615529989" transform="rotate(-103.0 400 300)" d="M 482,216  C 350,257 209,179 111,251 C 602,273 601,327 385,356 C 197,315 314,230 494,235 C 138,327 644,330 420,477 C 398,352 558,447 143,192 C 583,132 352,412 440,357 Z"></path>
<path stroke="#0fa6d8" stroke-width="6" fill="#02eb6b" opacity="0.7925627608178756" stroke-opacity="0.10948535403692353" transform="rotate(149.0 400 300)" d="M 476,295  C 688,243 453,373 387,178 C 309,148 589,152 642,144 C 504,179 593,324 628,343 C 586,175 391,380 657,161 C 150,493 594,226 217,423 C 652,226 248,167 655,359 C 139,160 217,291 640,235 C 380,294 668,199 266,135 C 640,176 174,352 106,171 Z"></path>
<path stroke="#2cd3f3" stroke-width="3" fill="#f559a0" opacity="0.29039999132382205" stroke-opacity="0.8287887484668687" transform="rotate(-77.0 400 300)" d="M 137,317  C 655,391 460,431 403,105 C 112,248 577,177 514,452 C 312,355 141,263 196,238 C 401,395 607,437 163,311 C 472,137 598,180 649,279 C 182,334 668,175 383,465 Z"></path>
<path stroke="#2cd3f3" stroke-width="7" fill="#fe9225" opacity="0.3989776440460305" stroke-opacity="0.5323733044270307" transform="rotate(123.0 400 300)" d="M 133,201  C 277,420 143,122 183,181 C 622,235 408,229 537,177 C 257,142 691,416 544,104 C 540,386 624,448 454,441 C 531,439 316,128 263,226 C 674,264 312,187 246,317 C 468,145 373,351 214,390 C 327,354 365,393 610,133 C 449,102 269,238 342,388 C 480,212 111,397 304,189 C 178,288 395,302 536,337 Z"></path>
<path stroke="#0fa6d8" stroke-width="6" fill="#0fa6d8" opacity="0.6684795801164101" stroke-opacity="0.5140221767003753" transform="rotate(118.0 400 300)" d="M 369,347  C 246,287 173,327 279,379 C 441,445 553,138 305,220 C 167,456 607,293 376,249 C 303,307 329,234 422,394 C 103,310 507,180 407,466 C 290,113 561,301 674,280 C 241,384 312,126 406,173 C 153,483 344,181 407,496 C 520,367 147,327 203,294 C 625,272 441,163 645,163 Z"></path>

  </g>
</svg>
