<svg xmlns="http://www.w3.org/2000/svg" xmlns:xlink="http://www.w3.org/1999/xlink" width="800" height="600" version="1.1" viewBox="0 0 800 600"><g fill="none" fill-rule="evenodd" stroke="none" stroke-width="1"><path fill="#f559a0" stroke="#2cd3f3" stroke-opacity=".353" stroke-width="6" d="M 580,289 C 120,350 463,167 589,375 C 369,218 513,420 212,227 C 386,390 544,354 231,101 C 173,154 285,246 662,329 C 495,473 661,437 161,249 C 102,459 664,337 125,401 C 455,150 473,179 492,273 C 348,301 139,363 394,365 C 179,202 698,339 292,125 C 171,479 517,314 108,156 Z" opacity=".472" transform="rotate(12.0 400 300)"/><path fill="#02eb6b" stroke="#f559a0" stroke-opacity=".66" stroke-width="2" d="M 482,216 C 350,257 209,179 111,251 C 602,273 601,327 385,356 C 197,315 314,230 494,235 C 138,327 644,330 420,477 C 398,352 558,447 143,192 C 583,132 352,412 440,357 Z" opacity=".548" transform="rotate(-103.0 400 300)"/><path fill="#02eb6b" stroke="#0fa6d8" stroke-opacity=".109" stroke-width="6" d="M 476,295 C 688,243 453,373 387,178 C 309,148 589,152 642,144 C 504,179 593,324 628,343 C 586,175 391,380 657,161 C 150,493 594,226 217,423 C 652,226 248,167 655,359 C 139,160 217,291 640,235 C 380,294 668,199 266,135 C 640,176 174,352 106,171 Z" opacity=".793" transform="rotate(149.0 400 300)"/><path fill="#f559a0" stroke="#2cd3f3" stroke-opacity=".829" stroke-width="3" d="M 137,317 C 655,391 460,431 403,105 C 112,248 577,177 514,452 C 312,355 141,263 196,238 C 401,395 607,437 163,311 C 472,137 598,180 649,279 C 182,334 668,175 383,465 Z" opacity=".29" transform="rotate(-77.0 400 300)"/><path fill="#fe9225" stroke="#2cd3f3" stroke-opacity=".532" stroke-width="7" d="M 133,201 C 277,420 143,122 183,181 C 622,235 408,229 537,177 C 257,142 691,416 544,104 C 540,386 624,448 454,441 C 531,439 316,128 263,226 C 674,264 312,187 246,317 C 468,145 373,351 214,390 C 327,354 365,393 610,133 C 449,102 269,238 342,388 C 480,212 111,397 304,189 C 178,288 395,302 536,337 Z" opacity=".399" transform="rotate(123.0 400 300)"/><path fill="#0fa6d8" stroke="#0fa6d8" stroke-opacity=".514" stroke-width="6" d="M 369,347 C 246,287 173,327 279,379 C 441,445 553,138 305,220 C 167,456 607,293 376,249 C 303,307 329,234 422,394 C 103,310 507,180 407,466 C 290,113 561,301 674,280 C 241,384 312,126 406,173 C 153,483 344,181 407,496 C 520,367 147,327 203,294 C 625,272 441,163 645,163 Z" opacity=".668" transform="rotate(118.0 400 300)"/></g></svg>