<svg xmlns="http://www.w3.org/2000/svg" xmlns:xlink="http://www.w3.org/1999/xlink" width="800" height="600" version="1.1" viewBox="0 0 800 600"><g fill="none" fill-rule="evenodd" stroke="none" stroke-width="1"><polygon fill="#31a06b" stroke="#f9d84b" stroke-opacity=".91" stroke-width="3" points="73 175 43 380 22 564 318 293 780 321 615 352" opacity=".698" transform="rotate(155.0 400 300)"/><rect width="347" height="219" x="437" y="561" fill="#f9d84b" stroke="#31a06b" stroke-opacity=".424" stroke-width="1" opacity=".67" transform="rotate(87.0 400 300)"/><polygon fill="#ed2b2c" stroke="#31a06b" stroke-opacity=".022" stroke-width="4" points="700 589 764 285 314 139 521 322 329 336 184 277 72 543 374 193" opacity=".772" transform="rotate(104.0 400 300)"/><path fill="#2b55f7" stroke="#f27630" stroke-opacity=".133" stroke-width="5" d="M 209,309 C 637,330 601,101 355,500 C 676,310 220,367 587,352 C 340,195 218,296 675,220 C 102,133 238,344 626,161 C 319,218 106,103 286,452 C 540,232 408,431 219,290 C 682,208 502,225 544,288 C 196,259 642,380 365,405 C 368,165 605,223 581,344 C 445,234 221,261 353,462 Z" opacity=".003" transform="rotate(24.0 400 300)"/><polygon fill="#ed2b2c" stroke="#ed2b2c" stroke-opacity=".494" stroke-width="1" points="704 446 660 593 261 82 188 406 505 131 176 600 348 469" opacity=".884" transform="rotate(112.0 400 300)"/><polygon fill="#31a06b" stroke="#2b55f7" stroke-opacity=".162" stroke-width="1" points="156 548 342 67 69 468 207 79 406 409 530 45" opacity=".926" transform="rotate(67.0 400 300)"/><polygon fill="#31a06b" stroke="#31a06b" stroke-opacity=".553" stroke-width="3" points="481 285 293 252 382 237 8 338 222 98 108 554 725 498" opacity=".344" transform="rotate(100.0 400 300)"/><ellipse cx="356" cy="501" fill="#f27630" stroke="#2b55f7" stroke-opacity=".512" stroke-width="1" opacity=".76" rx="447" ry="155" transform="rotate(126.0 400 300)"/><path fill="#2b55f7" stroke="#f9d84b" stroke-opacity=".825" stroke-width="5" d="M 479,398 C 121,492 699,419 332,420 C 505,477 651,105 107,156 C 578,168 174,370 438,374 C 498,437 680,102 398,437 C 326,124 484,302 262,289 C 636,298 392,428 418,148 C 613,297 528,466 216,204 Z" opacity=".773" transform="rotate(147.0 400 300)"/><rect width="284" height="85" x="60" y="83" fill="#f9d84b" stroke="#ed2b2c" stroke-opacity=".177" stroke-width="3" opacity=".678" transform="rotate(-12.0 400 300)"/><polygon fill="#2b55f7" stroke="#31a06b" stroke-opacity=".307" stroke-width="5" points="540 319 547 400 328 587 274 27 274 452 196 34 476 66" opacity=".987" transform="rotate(1.0 400 300)"/></g></svg>