<?xml version="1.0" encoding="UTF-8"?>
<svg width="800px" height="600px" viewBox="0 0 800 600" version="1.1" xmlns="http://www.w3.org/2000/svg" xmlns:xlink="http://www.w3.org/1999/xlink">
  <defs></defs>
  <g stroke="none" stroke-width="1" fill="none" fill-rule="evenodd">
    
    <polygon stroke="#f9d84b" stroke-width="3" fill="#31a06b" opacity="0.6976671658206143" stroke-opacity="0.9097642321919368" transform="rotate(155.0 400 300)" points="73 175 43 380 22 564 318 293 780 321 615 352 "></polygon>
<rect stroke="#31a06b" stroke-width="1" fill="#f9d84b" opacity="0.6702931409703167" stroke-opacity="0.424210474136239" transform="rotate(87.0 400 300)" x="437" y="561" width="347" height="219"></rect>
<polygon stroke="#31a06b" stroke-width="4" fill="#ed2b2c" opacity="0.7721525521438486" stroke-opacity="0.02227605772058781" transform="rotate(104.0 400 300)" points="700 589 764 285 314 139 521 322 329 336 184 277 72 543 374 193 "></polygon>
<path stroke="#f27630" stroke-width="5" fill="#2b55f7" opacity="0.002769337585143" stroke-opacity="0.13280367553707775" transform="rotate(24.0 400 300)" d="M 209,309  C 637,330 601,101 355,500 C 676,310 220,367 587,352 C 340,195 218,296 675,220 C 102,133 238,344 626,161 C 319,218 106,103 286,452 C 540,232 408,431 219,290 C 682,208 502,225 544,288 C 196,259 642,380 365,405 C 368,165 605,223 581,344 C 445,234 221,261 353,462 Z"></path>
<polygon stroke="#ed2b2c" stroke-width="1" fill="#ed2b2c" opacity="0.8842390997539541" stroke-opacity="0.4937063651264724" transform="rotate(112.0 400 300)" points="704 446 660 593 261 82 188 406 505 131 176 600 348 469 "></polygon>
<polygon stroke="#2b55f7" stroke-width="1" fill="#31a06b" opacity="0.926310364504201" stroke-opacity="0.16233703257335744" transform="rotate(67.0 400 300)" points="156 548 342 67 69 468 207 79 406 409 530 45 "></polygon>
<polygon stroke="#31a06b" stroke-width="3" fill="#31a06b" opacity="0.3442024470719025" stroke-opacity="0.552952492191457" transform="rotate(100.0 400 300)" points="481 285 293 252 382 237 8 338 222 98 108 554 725 498 "></polygon>
<ellipse stroke="#2b55f7" stroke-width="1" fill="#f27630" opacity="0.7601081149687156" stroke-opacity="0.5118029420864241" transform="rotate(126.0 400 300)" cx="356" rx="447" cy="501" ry="155"></ellipse>
<path stroke="#f9d84b" stroke-width="5" fill="#2b55f7" opacity="0.7732224265558111" stroke-opacity="0.8250314458006881" transform="rotate(147.0 400 300)" d="M 479,398  C 121,492 699,419 332,420 C 505,477 651,105 107,156 C 578,168 174,370 438,374 C 498,437 680,102 398,437 C 326,124 484,302 262,289 C 636,298 392,428 418,148 C 613,297 528,466 216,204 Z"></path>
<rect stroke="#ed2b2c" stroke-width="3" fill="#f9d84b" opacity="0.6776219017922644" stroke-opacity="0.17673464761245106" transform="rotate(-12.0 400 300)" x="60" y="83" width="284" height="85"></rect>
<polygon stroke="#31a06b" stroke-width="5" fill="#2b55f7" opacity="0.987482740436396" stroke-opacity="0.3074913091470643" transform="rotate(1.0 400 300)" points="540 319 547 400 328 587 274 27 274 452 196 34 476 66 "></polygon>

  </g>
</svg>
