<svg xmlns="http://www.w3.org/2000/svg" xmlns:xlink="http://www.w3.org/1999/xlink" width="800" height="600" version="1.1" viewBox="0 0 800 600"><g fill="none" fill-rule="evenodd" stroke="none" stroke-width="1"><rect width="332" height="37" x="234" y="280" fill="#059814" stroke="#36880A" stroke-opacity=".042" stroke-width="2" opacity=".015" transform="rotate(90.0 400 300)"/><ellipse cx="226" cy="394" fill="#B906A8" stroke="#63CD21" stroke-opacity=".67" stroke-width="5" opacity=".838" rx="205" ry="279" transform="rotate(136.0 400 300)"/><path fill="#79A7A3" stroke="#29A520" stroke-opacity=".883" stroke-width="5" d="M 624,442 C 456,122 179,285 329,478 C 145,421 597,139 653,191 C 386,273 590,129 669,198 C 491,310 638,427 255,481 C 494,221 229,101 183,165 C 418,489 290,300 214,485 C 604,497 368,477 636,320 C 667,476 621,341 595,240 C 359,209 202,408 407,364 Z" opacity=".701" transform="rotate(65.0 400 300)"/><polygon fill="#3A6584" stroke="#012A74" stroke-opacity=".419" stroke-width="1" points="606 159 437 557 726 561 309 574 742 104 374 469 93 449 279 71" opacity=".516" transform="rotate(-49.0 400 300)"/><rect width="216" height="179" x="758" y="229" fill="#217C17" stroke="#387146" stroke-opacity=".667" stroke-width="7" opacity=".275" transform="rotate(-13.0 400 300)"/><polygon fill="#11D4C1" stroke="#95A7D2" stroke-opacity=".467" stroke-width="5" points="45 166 795 357 605 353 457 424 548 510 731 495 201 280" opacity=".957" transform="rotate(7.0 400 300)"/><path fill="#78376A" stroke="#0B0635" stroke-opacity=".181" stroke-width="5" d="M 408,131 C 633,379 631,477 165,309 C 105,279 672,376 230,381 C 394,234 259,155 103,396 C 697,116 554,261 166,242 Z" opacity=".708" transform="rotate(159.0 400 300)"/></g></svg>