<?xml version="1.0" encoding="UTF-8"?>
<svg width="800px" height="600px" viewBox="0 0 800 600" version="1.1" xmlns="http://www.w3.org/2000/svg" xmlns:xlink="http://www.w3.org/1999/xlink">
  <defs></defs>
  <g stroke="none" stroke-width="1" fill="none" fill-rule="evenodd">
    
    <rect stroke="#36880A" stroke-width="2" fill="#059814" opacity="0.014596499013168496" stroke-opacity="0.04162379916521947" transform="rotate(90.0 400 300)" x="234" y="280" width="332" height="37"></rect>
<ellipse stroke="#63CD21" stroke-width="5" fill="#B906A8" opacity="0.8381391136167481" stroke-opacity="0.669722446561851" transform="rotate(136.0 400 300)" cx="226" rx="205" cy="394" ry="279"></ellipse>
<path stroke="#29A520" stroke-width="5" fill="#79A7A3" opacity="0.7012823740368042" stroke-opacity="0.8833501890812323" transform="rotate(65.0 400 300)" d="M 624,442  C 456,122 179,285 329,478 C 145,421 597,139 653,191 C 386,273 590,129 669,198 C 491,310 638,427 255,481 C 494,221 229,101 183,165 C 418,489 290,300 214,485 C 604,497 368,477 636,320 C 667,476 621,341 595,240 C 359,209 202,408 407,364 Z"></path>
<polygon stroke="#012A74" stroke-width="1" fill="#3A6584" opacity="0.5159410761888494" stroke-opacity="0.418635386364421" transform="rotate(-49.0 400 300)" points="606 159 437 557 726 561 309 574 742 104 374 469 93 449 279 71 "></polygon>
<rect stroke="#387146" stroke-width="7" fill="#217C17" opacity="0.27527939118975103" stroke-opacity="0.6670446786219077" transform="rotate(-13.0 400 300)" x="758" y="229" width="216" height="179"></rect>
<polygon stroke="#95A7D2" stroke-width="5" fill="#11D4C1" opacity="0.9568500482770002" stroke-opacity="0.467133911874645" transform="rotate(7.0 400 300)" points="45 166 795 357 605 353 457 424 548 510 731 495 201 280 "></polygon>
<path stroke="#0B0635" stroke-width="5" fill="#78376A" opacity="0.7076562117919735" stroke-opacity="0.18120345931910609" transform="rotate(159.0 400 300)" d="M 408,131  C 633,379 631,477 165,309 C 105,279 672,376 230,381 C 394,234 259,155 103,396 C 697,116 554,261 166,242 Z"></path>

  </g>
</svg>
