<?xml version="1.0" encoding="UTF-8"?>
<svg width="800px" height="600px" viewBox="0 0 800 600" version="1.1" xmlns="http://www.w3.org/2000/svg" xmlns:xlink="http://www.w3.org/1999/xlink">
  <defs></defs>
  <g stroke="none" stroke-width="1" fill="none" fill-rule="evenodd">
    
    <path stroke="#A28A86" stroke-width="7" fill="#8B633B" opacity="0.7317141833586115" stroke-opacity="0.40427852088040395" transform="rotate(34.0 400 300)" d="M 182,372  C 402,379 545,194 427,104 C 124,191 333,485 111,176 C 389,392 345,162 177,341 C 378,120 494,489 510,156 C 655,242 596,357 630,409 C 411,315 654,179 168,228 C 325,172 201,279 569,218 C 637,245 542,384 179,287 C 318,253 164,370 327,278 C 634,286 333,142 151,299 Z"></path>
<path stroke="#A63C5B" stroke-width="4" fill="#44C754" opacity="0.2624824445501293" stroke-opacity="0.1574429786438251" transform="rotate(-167.0 400 300)" d="M 365,297  C 219,280 174,465 411,491 C 271,150 653,342 115,265 C 440,233 475,366 293,428 C 162,352 236,290 240,133 C 197,461 465,183 250,369 C 189,339 492,455 146,157 Z"></path>
<path stroke="#C46503" stroke-width="5" fill="#C2138A" opacity="0.07268516285179656" stroke-opacity="0.8410378127317073" transform="rotate(121.0 400 300)" d="M 123,428  C 117,484 591,394 608,485 C 355,358 650,164 536,144 C 510,327 653,387 682,236 C 135,400 681,300 529,213 C 215,227 119,113 418,381 Z"></path>
<path stroke="#67BDBA" stroke-width="7" fill="#42BC53" opacity="0.6426696158495291" stroke-opacity="0.8034545231047274" transform="rotate(-141.0 400 300)" d="M 101,396  C 285,154 307,390 422,444 C 469,465 684,400 428,375 C 687,476 243,488 433,189 C 558,254 469,222 486,471 C 273,261 265,107 370,474 Z"></path>
<path stroke="#9B40D8" stroke-width="4" fill="#C5204B" opacity="0.2682327848472292" stroke-opacity="0.23436063711601957" transform="rotate(105.0 400 300)" d="M 430,468  C 137,299 415,187 264,423 C 369,150 164,469 455,116 C 615,139 146,248 125,401 C 469,232 289,438 308,141 C 196,285 542,374 460,470 C 582,452 204,351 518,453 C 149,152 692,106 624,457 C 663,260 466,388 661,474 C 479,114 668,313 336,355 C 507,376 607,369 554,238 C 509,334 596,265 306,237 Z"></path>
<path stroke="#783805" stroke-width="5" fill="#35363A" opacity="0.4498388683441923" stroke-opacity="0.08316918370662259" transform="rotate(-72.0 400 300)" d="M 592,291  C 179,157 287,126 465,403 C 145,447 683,259 668,167 C 234,120 654,484 339,296 C 603,452 427,172 158,165 C 458,470 309,390 597,144 C 543,390 475,258 553,195 C 209,360 363,290 242,278 Z"></path>
<path stroke="#5368D6" stroke-width="3" fill="#C01A99" opacity="0.07533496911448125" stroke-opacity="0.1647365474503338" transform="rotate(123.0 400 300)" d="M 125,164  C 545,191 554,107 687,330 C 419,302 298,378 687,189 C 682,357 148,381 224,389 C 347,496 623,104 213,263 C 312,401 501,447 451,317 Z"></path>
<path stroke="#3A4068" stroke-width="2" fill="#7D6968" opacity="0.7930631479458876" stroke-opacity="0.5374793881409867" transform="rotate(37.0 400 300)" d="M 220,476  C 589,156 588,157 397,274 C 488,110 617,436 524,289 C 183,351 578,189 162,174 C 138,281 673,124 484,431 C 688,455 555,196 404,260 C 256,279 108,463 655,408 C 104,174 242,327 412,220 C 558,274 600,359 478,447 C 218,315 201,474 528,432 C 541,158 118,258 349,137 C 688,423 258,113 149,477 Z"></path>
<path stroke="#8D77A2" stroke-width="4" fill="#D705AB" opacity="0.05080578614160694" stroke-opacity="0.1410095799062191" transform="rotate(52.0 400 300)" d="M 697,323  C 319,493 536,237 387,411 C 374,170 551,219 149,374 C 401,212 586,175 132,112 C 577,161 153,398 307,279 Z"></path>
<path stroke="#482884" stroke-width="4" fill="#D14A84" opacity="0.8296571194271145" stroke-opacity="0.08964096962123409" transform="rotate(-5.0 400 300)" d="M 276,276  C 499,443 362,113 677,166 C 668,107 268,467 644,179 C 607,216 629,121 646,121 C 661,225 683,242 501,307 C 636,481 657,158 147,360 C 412,247 196,494 313,159 C 290,143 613,434 679,499 C 213,114 599,418 653,212 C 449,374 657,403 483,177 C 695,187 629,281 426,139 C 120,323 172,101 532,495 Z"></path>
<path stroke="#01B180" stroke-width="2" fill="#10CD03" opacity="0.5905538336090093" stroke-opacity="0.3239613307643733" transform="rotate(165.0 400 300)" d="M 247,296  C 225,423 253,478 438,428 C 351,298 153,454 499,355 C 215,311 159,213 426,414 C 568,153 167,217 586,383 C 444,332 558,283 504,102 C 149,469 329,336 329,336 C 324,421 408,226 698,278 C 332,385 496,277 385,129 C 359,355 338,393 464,174 Z"></path>

  </g>
</svg>
