<svg xmlns="http://www.w3.org/2000/svg" xmlns:xlink="http://www.w3.org/1999/xlink" width="800" height="600" version="1.1" viewBox="0 0 800 600"><g fill="none" fill-rule="evenodd" stroke="none" stroke-width="1"><ellipse cx="720" cy="285" fill="#0fa6d8" stroke="#fe9225" stroke-opacity=".103" stroke-width="1" opacity=".245" rx="120" ry="309" transform="rotate(-118.0 400 300)"/><polygon fill="#02eb6b" stroke="#2cd3f3" stroke-opacity=".267" stroke-width="2" points="379 17 421 25 629 222 586 12 193 592 477 570" opacity=".696" transform="rotate(-125.0 400 300)"/><ellipse cx="745" cy="288" fill="#2cd3f3" stroke="#0fa6d8" stroke-opacity=".733" stroke-width="2" opacity=".766" rx="211" ry="50" transform="rotate(-167.0 400 300)"/><polygon fill="#0fa6d8" stroke="#2cd3f3" stroke-opacity=".494" stroke-width="7" points="645 38 303 106 240 392 1 113 516 232" opacity=".117" transform="rotate(-11.0 400 300)"/><polygon fill="#fe9225" stroke="#fe9225" stroke-opacity=".138" stroke-width="7" points="44 578 584 314 434 286 784 318 87 207 176 107" opacity=".788" transform="rotate(-105.0 400 300)"/><rect width="297" height="23" x="505" y="84" fill="#f559a0" stroke="#0fa6d8" stroke-opacity=".048" stroke-width="1" opacity=".668" transform="rotate(-90.0 400 300)"/><ellipse cx="716" cy="379" fill="#0fa6d8" stroke="#fe9225" stroke-opacity=".4" stroke-width="4" opacity=".182" rx="212" ry="220" transform="rotate(-23.0 400 300)"/><rect width="301" height="162" x="740" y="485" fill="#fe9225" stroke="#f559a0" stroke-opacity=".057" stroke-width="1" opacity=".737" transform="rotate(-141.0 400 300)"/><polygon fill="#fe9225" stroke="#f559a0" stroke-opacity=".845" stroke-width="1" points="609 345 607 456 374 324 288 354 216 113 94 179" opacity=".371" transform="rotate(21.0 400 300)"/></g></svg>