<?xml version="1.0" encoding="UTF-8"?>
<svg width="800px" height="600px" viewBox="0 0 800 600" version="1.1" xmlns="http://www.w3.org/2000/svg" xmlns:xlink="http://www.w3.org/1999/xlink">
  <defs></defs>
  <g stroke="none" stroke-width="1" fill="none" fill-rule="evenodd">
    
    <path stroke="#02eb6b" stroke-width="7" fill="#f559a0" opacity="0.8812030232185727" stroke-opacity="0.6251419873022211" transform="rotate(30.0 400 300)" d="M 239,114  C 313,365 480,208 418,176 C 407,419 360,137 693,174 C 319,482 249,276 593,183 C 613,356 141,113 236,381 C 263,146 418,104 437,299 C 571,194 633,276 330,491 C 518,419 678,143 599,375 C 392,116 308,393 288,332 C 376,427 245,223 474,422 C 603,230 495,122 469,239 C 223,181 375,114 444,165 Z"></path>
<path stroke="#2cd3f3" stroke-width="3" fill="#fe9225" opacity="0.7757863525103736" stroke-opacity="0.7524101007372479" transform="rotate(170.0 400 300)" d="M 336,381  C 486,444 512,373 697,166 C 512,279 167,138 168,415 C 126,136 193,410 390,253 C 665,151 603,462 154,303 C 149,354 260,224 680,472 C 589,250 487,255 329,413 C 460,318 234,219 224,377 C 258,118 115,198 152,116 Z"></path>
<path stroke="#0fa6d8" stroke-width="7" fill="#fe9225" opacity="0.037409080566968525" stroke-opacity="0.29432054495776816" transform="rotate(142.0 400 300)" d="M 632,101  C 652,265 548,106 340,387 C 660,246 203,228 338,405 C 380,440 205,260 504,175 C 700,432 304,369 218,243 C 163,151 408,474 672,129 C 418,370 557,101 321,161 C 463,283 543,144 640,395 Z"></path>
<path stroke="#2cd3f3" stroke-width="1" fill="#2cd3f3" opacity="0.8172344982179923" stroke-opacity="0.15497719174242636" transform="rotate(148.0 400 300)" d="M 251,343  C 640,408 313,321 650,121 C 446,153 590,498 208,320 C 355,123 588,369 343,287 C 600,103 158,463 405,102 C 534,363 499,211 358,159 C 622,275 450,160 299,210 C 181,201 672,145 126,426 C 475,149 105,330 364,202 C 636,147 654,157 218,267 C 487,383 312,166 559,193 Z"></path>
<path stroke="#f559a0" stroke-width="6" fill="#f559a0" opacity="0.13681497754322552" stroke-opacity="0.45279685515896034" transform="rotate(94.0 400 300)" d="M 173,422  C 348,364 235,325 549,293 C 239,114 271,293 256,377 C 160,369 574,442 498,355 C 467,119 547,351 661,485 C 176,408 227,320 223,465 C 158,209 343,274 175,450 C 679,276 570,244 607,114 Z"></path>
<path stroke="#0fa6d8" stroke-width="7" fill="#0fa6d8" opacity="0.2770550552690861" stroke-opacity="0.21074913318143693" transform="rotate(152.0 400 300)" d="M 664,343  C 282,236 301,378 680,182 C 250,219 385,255 167,302 C 545,476 146,442 337,112 C 285,112 594,202 237,453 C 403,470 310,349 484,229 Z"></path>
<path stroke="#2cd3f3" stroke-width="5" fill="#02eb6b" opacity="0.24048070508213137" stroke-opacity="0.012339495164100206" transform="rotate(68.0 400 300)" d="M 398,454  C 646,331 557,172 455,104 C 518,326 398,193 558,455 C 364,124 342,242 468,252 C 313,274 547,226 141,347 C 622,478 346,420 199,442 C 482,421 312,183 392,357 C 526,149 520,396 480,397 C 492,161 690,381 402,417 Z"></path>
<path stroke="#f559a0" stroke-width="5" fill="#02eb6b" opacity="0.38385741135520557" stroke-opacity="0.02918370588442262" transform="rotate(118.0 400 300)" d="M 660,395  C 673,213 115,227 116,137 C 479,187 574,181 167,180 C 439,324 523,417 153,266 C 160,270 637,275 427,150 Z"></path>
<path stroke="#0fa6d8" stroke-width="1" fill="#f559a0" opacity="0.7304554441290604" stroke-opacity="0.9580674023023498" transform="rotate(-23.0 400 300)" d="M 343,478  C 126,481 335,223 107,389 C 371,338 210,417 585,295 C 130,373 498,151 350,430 C 247,191 457,275 206,245 C 630,221 643,414 605,401 C 147,243 186,264 485,440 C 628,381 162,461 227,440 C 562,237 119,444 534,433 C 472,268 222,262 679,333 C 589,273 382,343 298,328 Z"></path>

  </g>
</svg>
