<svg xmlns="http://www.w3.org/2000/svg" xmlns:xlink="http://www.w3.org/1999/xlink" width="800" height="600" version="1.1" viewBox="0 0 800 600"><g fill="none" fill-rule="evenodd" stroke="none" stroke-width="1"><path fill="#fe9225" stroke="#02eb6b" stroke-opacity=".106" stroke-width="6" d="M 663,140 C 569,492 485,212 135,309 C 279,112 491,304 204,246 C 620,116 690,278 164,187 C 544,267 146,373 187,151 C 279,443 288,165 470,221 C 114,448 400,204 601,426 C 697,171 266,277 418,102 Z" opacity=".281" transform="rotate(-114.0 400 300)"/><path fill="#02eb6b" stroke="#02eb6b" stroke-opacity=".405" stroke-width="7" d="M 190,107 C 102,230 354,255 568,427 C 291,434 642,335 489,200 C 690,123 156,159 700,397 C 162,500 426,444 320,349 C 506,242 465,218 371,377 C 396,252 228,166 315,256 C 468,422 230,220 458,288 Z" opacity=".768" transform="rotate(155.0 400 300)"/><rect width="346" height="167" x="617" y="50" fill="#0fa6d8" stroke="#fe9225" stroke-opacity=".395" stroke-width="2" opacity=".216" transform="rotate(96.0 400 300)"/><path fill="#fe9225" stroke="#02eb6b" stroke-opacity=".256" stroke-width="2" d="M 400,450 C 602,297 236,134 320,381 C 580,333 460,139 337,288 C 315,217 135,174 546,435 C 283,265 364,234 549,250 Z" opacity=".594" transform="rotate(-16.0 400 300)"/><polygon fill="#02eb6b" stroke="#2cd3f3" stroke-opacity=".831" stroke-width="2" points="501 422 282 81 514 536 2 242 507 589 443 446 220 476 47 142" opacity=".911" transform="rotate(-59.0 400 300)"/><polygon fill="#02eb6b" stroke="#02eb6b" stroke-opacity=".01" stroke-width="5" points="204 100 245 196 8 184 90 38 182 579" opacity=".128" transform="rotate(3.0 400 300)"/><ellipse cx="205" cy="286" fill="#02eb6b" stroke="#02eb6b" stroke-opacity=".53" stroke-width="2" opacity=".215" rx="426" ry="288" transform="rotate(-122.0 400 300)"/><ellipse cx="489" cy="585" fill="#fe9225" stroke="#2cd3f3" stroke-opacity=".641" stroke-width="5" opacity=".856" rx="127" ry="326" transform="rotate(-72.0 400 300)"/><polygon fill="#f559a0" stroke="#fe9225" stroke-opacity=".469" stroke-width="1" points="346 16 627 330 730 299 529 263 611 174 370 173 669 334 767 405" opacity=".003" transform="rotate(119.0 400 300)"/><path fill="#0fa6d8" stroke="#2cd3f3" stroke-opacity=".142" stroke-width="7" d="M 181,297 C 257,456 179,411 294,369 C 379,300 344,452 607,429 C 571,311 434,467 234,138 C 645,228 359,234 199,198 Z" opacity=".808" transform="rotate(124.0 400 300)"/><path fill="#2cd3f3" stroke="#fe9225" stroke-opacity=".637" stroke-width="3" d="M 554,422 C 232,140 320,167 304,286 C 499,146 209,356 609,392 C 309,205 222,367 196,148 C 210,218 274,398 563,349 C 341,380 668,380 263,220 C 628,319 191,395 334,377 C 215,473 130,203 647,118 C 360,446 264,355 367,225 C 484,311 422,151 579,469 C 602,385 384,103 652,211 Z" opacity=".701" transform="rotate(105.0 400 300)"/></g></svg>