<?xml version="1.0" encoding="UTF-8"?>
<svg width="800px" height="600px" viewBox="0 0 800 600" version="1.1" xmlns="http://www.w3.org/2000/svg" xmlns:xlink="http://www.w3.org/1999/xlink">
  <defs></defs>
  <g stroke="none" stroke-width="1" fill="none" fill-rule="evenodd">
    
    <path stroke="#02eb6b" stroke-width="6" fill="#fe9225" opacity="0.2814456350430685" stroke-opacity="0.10597034327363121" transform="rotate(-114.0 400 300)" d="M 663,140  C 569,492 485,212 135,309 C 279,112 491,304 204,246 C 620,116 690,278 164,187 C 544,267 146,373 187,151 C 279,443 288,165 470,221 C 114,448 400,204 601,426 C 697,171 266,277 418,102 Z"></path>
<path stroke="#02eb6b" stroke-width="7" fill="#02eb6b" opacity="0.7675282332300981" stroke-opacity="0.4052060232910847" transform="rotate(155.0 400 300)" d="M 190,107  C 102,230 354,255 568,427 C 291,434 642,335 489,200 C 690,123 156,159 700,397 C 162,500 426,444 320,349 C 506,242 465,218 371,377 C 396,252 228,166 315,256 C 468,422 230,220 458,288 Z"></path>
<rect stroke="#fe9225" stroke-width="2" fill="#0fa6d8" opacity="0.21644227869162816" stroke-opacity="0.3954284222087014" transform="rotate(96.0 400 300)" x="617" y="50" width="346" height="167"></rect>
<path stroke="#02eb6b" stroke-width="2" fill="#fe9225" opacity="0.5942649047847524" stroke-opacity="0.25614935878031725" transform="rotate(-16.0 400 300)" d="M 400,450  C 602,297 236,134 320,381 C 580,333 460,139 337,288 C 315,217 135,174 546,435 C 283,265 364,234 549,250 Z"></path>
<polygon stroke="#2cd3f3" stroke-width="2" fill="#02eb6b" opacity="0.9108575001044477" stroke-opacity="0.8309255072954776" transform="rotate(-59.0 400 300)" points="501 422 282 81 514 536 2 242 507 589 443 446 220 476 47 142 "></polygon>
<polygon stroke="#02eb6b" stroke-width="5" fill="#02eb6b" opacity="0.12804790665386365" stroke-opacity="0.010437683529974165" transform="rotate(3.0 400 300)" points="204 100 245 196 8 184 90 38 182 579 "></polygon>
<ellipse stroke="#02eb6b" stroke-width="2" fill="#02eb6b" opacity="0.21475818293494398" stroke-opacity="0.5304541327607559" transform="rotate(-122.0 400 300)" cx="205" rx="426" cy="286" ry="288"></ellipse>
<ellipse stroke="#2cd3f3" stroke-width="5" fill="#fe9225" opacity="0.856267846059825" stroke-opacity="0.6413272102384434" transform="rotate(-72.0 400 300)" cx="489" rx="127" cy="585" ry="326"></ellipse>
<polygon stroke="#fe9225" stroke-width="1" fill="#f559a0" opacity="0.0027578497623183583" stroke-opacity="0.46863661750777774" transform="rotate(119.0 400 300)" points="346 16 627 330 730 299 529 263 611 174 370 173 669 334 767 405 "></polygon>
<path stroke="#2cd3f3" stroke-width="7" fill="#0fa6d8" opacity="0.8084761640826239" stroke-opacity="0.1418982405999304" transform="rotate(124.0 400 300)" d="M 181,297  C 257,456 179,411 294,369 C 379,300 344,452 607,429 C 571,311 434,467 234,138 C 645,228 359,234 199,198 Z"></path>
<path stroke="#fe9225" stroke-width="3" fill="#2cd3f3" opacity="0.7005563465811756" stroke-opacity="0.6368331167440576" transform="rotate(105.0 400 300)" d="M 554,422  C 232,140 320,167 304,286 C 499,146 209,356 609,392 C 309,205 222,367 196,148 C 210,218 274,398 563,349 C 341,380 668,380 263,220 C 628,319 191,395 334,377 C 215,473 130,203 647,118 C 360,446 264,355 367,225 C 484,311 422,151 579,469 C 602,385 384,103 652,211 Z"></path>

  </g>
</svg>
