<svg xmlns="http://www.w3.org/2000/svg" xmlns:xlink="http://www.w3.org/1999/xlink" width="800" height="600" version="1.1" viewBox="0 0 800 600"><g fill="none" fill-rule="evenodd" stroke="none" stroke-width="1"><path fill="#ed2b2c" stroke="#ed2b2c" stroke-opacity=".79" stroke-width="2" d="M 475,241 C 455,328 517,318 340,355 C 291,496 327,398 495,238 C 639,225 180,172 463,471 C 567,304 425,348 152,488 Z" opacity=".929" transform="rotate(-117.0 400 300)"/><polygon fill="#ed2b2c" stroke="#f27630" stroke-opacity=".303" stroke-width="7" points="619 50 544 61 720 122 716 431 345 434 601 231 691 502" opacity=".639" transform="rotate(-139.0 400 300)"/><ellipse cx="727" cy="179" fill="#f27630" stroke="#f27630" stroke-opacity=".66" stroke-width="3" opacity=".125" rx="237" ry="31" transform="rotate(139.0 400 300)"/><ellipse cx="462" cy="480" fill="#f9d84b" stroke="#ed2b2c" stroke-opacity=".89" stroke-width="7" opacity=".288" rx="289" ry="202" transform="rotate(73.0 400 300)"/><polygon fill="#f9d84b" stroke="#f27630" stroke-opacity=".89" stroke-width="4" points="199 251 476 13 627 133 441 40 90 53 82 444 438 189 180 58" opacity=".61" transform="rotate(-85.0 400 300)"/><path fill="#2b55f7" stroke="#ed2b2c" stroke-opacity=".538" stroke-width="1" d="M 406,132 C 466,310 631,466 598,271 C 356,271 203,206 163,333 C 591,212 408,224 645,180 C 580,258 452,469 175,143 C 383,470 405,173 165,207 C 319,268 231,130 621,337 C 624,239 261,404 671,238 C 679,331 458,327 486,167 C 268,413 500,115 626,491 C 400,279 167,352 618,174 Z" opacity=".768" transform="rotate(67.0 400 300)"/></g></svg>