<?xml version="1.0" encoding="UTF-8"?>
<svg width="800px" height="600px" viewBox="0 0 800 600" version="1.1" xmlns="http://www.w3.org/2000/svg" xmlns:xlink="http://www.w3.org/1999/xlink">
  <defs></defs>
  <g stroke="none" stroke-width="1" fill="none" fill-rule="evenodd">
    
    <path stroke="#2cd3f3" stroke-width="5" fill="#fe9225" opacity="0.6848490613214158" stroke-opacity="0.6395936623076091" transform="rotate(-27.0 400 300)" d="M 322,167  C 555,381 575,108 349,393 C 105,195 441,115 614,485 C 621,151 280,253 644,455 C 628,447 419,445 201,442 C 239,299 106,453 292,166 Z"></path>
<path stroke="#fe9225" stroke-width="1" fill="#2cd3f3" opacity="0.5878924259904827" stroke-opacity="0.4927711972216233" transform="rotate(-61.0 400 300)" d="M 417,228  C 683,483 620,416 531,189 C 176,259 374,225 579,107 C 610,290 497,307 630,304 C 459,168 527,102 130,284 C 502,410 660,123 270,186 C 150,386 329,278 479,389 C 127,468 662,219 523,488 C 246,465 280,275 351,247 C 264,188 116,262 655,243 Z"></path>
<path stroke="#2cd3f3" stroke-width="2" fill="#02eb6b" opacity="0.8565562023754509" stroke-opacity="0.16052544573855915" transform="rotate(87.0 400 300)" d="M 128,273  C 623,150 359,423 216,500 C 245,289 627,290 255,130 C 143,410 108,334 337,473 C 427,320 659,174 205,381 C 456,236 666,478 302,255 C 487,178 110,292 309,140 C 146,319 376,140 549,292 C 194,266 571,209 293,315 C 309,480 137,303 409,300 C 577,378 472,401 488,452 C 188,165 211,152 135,227 Z"></path>
<path stroke="#fe9225" stroke-width="4" fill="#fe9225" opacity="0.7909620889512605" stroke-opacity="0.29829213708857144" transform="rotate(51.0 400 300)" d="M 123,130  C 530,335 499,400 200,308 C 391,419 144,421 693,368 C 435,225 475,306 636,360 C 644,372 390,166 472,334 C 289,453 661,187 399,482 C 208,292 180,328 687,448 C 602,268 169,482 527,259 C 666,317 575,492 323,207 C 331,246 395,283 486,280 C 398,110 476,107 309,408 Z"></path>
<path stroke="#2cd3f3" stroke-width="3" fill="#02eb6b" opacity="0.7508215711207726" stroke-opacity="0.7732427125524481" transform="rotate(-29.0 400 300)" d="M 685,454  C 106,355 271,402 385,268 C 220,356 545,159 534,124 C 312,350 199,370 642,325 C 249,245 659,220 633,457 C 127,205 596,359 590,434 C 623,208 396,388 168,195 Z"></path>
<path stroke="#0fa6d8" stroke-width="6" fill="#2cd3f3" opacity="0.9413843744264242" stroke-opacity="0.19040132029139634" transform="rotate(29.0 400 300)" d="M 129,336  C 659,375 206,242 505,255 C 295,418 122,416 625,138 C 490,300 584,469 116,256 C 528,290 562,345 114,492 C 525,167 291,397 352,486 Z"></path>
<path stroke="#fe9225" stroke-width="7" fill="#0fa6d8" opacity="0.02957267483165353" stroke-opacity="0.29030630651316874" transform="rotate(143.0 400 300)" d="M 687,354  C 532,496 640,282 578,431 C 174,380 628,162 175,227 C 205,410 583,281 265,297 C 574,277 107,249 247,189 C 641,268 294,488 478,481 Z"></path>
<path stroke="#f559a0" stroke-width="6" fill="#0fa6d8" opacity="0.8913610545617024" stroke-opacity="0.4543952336066118" transform="rotate(76.0 400 300)" d="M 494,331  C 280,340 618,233 321,423 C 439,256 233,440 684,220 C 693,188 183,167 268,263 C 386,109 293,157 214,242 C 582,182 231,397 435,473 C 545,381 311,135 257,498 C 393,140 614,200 575,320 C 194,210 615,373 506,113 C 132,438 411,484 289,157 Z"></path>
<path stroke="#2cd3f3" stroke-width="5" fill="#2cd3f3" opacity="0.764521974746872" stroke-opacity="0.7322985149683837" transform="rotate(110.0 400 300)" d="M 362,416  C 337,446 613,434 270,303 C 453,234 296,447 106,335 C 330,431 237,138 258,143 C 172,312 194,184 453,114 C 241,438 226,115 228,473 C 561,349 199,331 435,481 C 274,282 589,381 413,410 C 451,224 510,242 555,247 C 546,339 210,114 660,474 C 262,364 271,246 257,142 C 660,154 171,143 449,287 Z"></path>

  </g>
</svg>
