<?xml version="1.0" encoding="UTF-8"?>
<svg width="800px" height="600px" viewBox="0 0 800 600" version="1.1" xmlns="http://www.w3.org/2000/svg" xmlns:xlink="http://www.w3.org/1999/xlink">
  <defs></defs>
  <g stroke="none" stroke-width="1" fill="none" fill-rule="evenodd">
    
    <path stroke="#f559a0" stroke-width="4" fill="#fe9225" opacity="0.6690974103829433" stroke-opacity="0.33465259444925594" transform="rotate(-169.0 400 300)" d="M 528,169  C 216,348 302,385 415,122 C 467,103 200,357 437,182 C 348,443 538,290 406,274 C 140,444 147,342 465,179 C 157,127 594,381 592,315 Z"></path>
<path stroke="#02eb6b" stroke-width="5" fill="#f559a0" opacity="0.2637035270585202" stroke-opacity="0.8264318831271665" transform="rotate(-26.0 400 300)" d="M 344,161  C 217,291 612,289 211,310 C 505,386 614,334 517,133 C 302,242 230,129 331,433 C 613,147 366,275 515,432 Z"></path>
<path stroke="#f559a0" stroke-width="7" fill="#02eb6b" opacity="0.7457220201788337" stroke-opacity="0.8015304917805598" transform="rotate(39.0 400 300)" d="M 437,288  C 362,171 584,110 186,272 C 229,354 243,196 467,165 C 293,160 349,290 534,137 C 698,262 588,442 311,364 C 136,307 674,382 324,476 C 310,456 280,365 686,309 C 199,219 292,337 394,165 C 605,207 161,462 188,402 C 527,160 190,197 638,106 C 194,101 339,420 439,102 Z"></path>
<path stroke="#0fa6d8" stroke-width="7" fill="#fe9225" opacity="0.6699235480180197" stroke-opacity="0.3603589078385391" transform="rotate(162.0 400 300)" d="M 455,487  C 643,282 126,419 302,284 C 432,454 409,161 253,382 C 193,131 274,223 228,146 C 654,343 695,148 389,393 C 524,336 551,412 345,239 C 642,370 338,146 588,383 C 235,437 560,355 282,449 C 562,397 238,187 573,184 C 602,435 622,184 475,295 Z"></path>
<path stroke="#2cd3f3" stroke-width="1" fill="#02eb6b" opacity="0.6768088946512555" stroke-opacity="0.5255085422285659" transform="rotate(-140.0 400 300)" d="M 623,171  C 481,110 452,186 136,157 C 212,477 304,437 181,326 C 282,385 249,436 221,162 C 270,437 222,436 566,150 C 256,441 689,172 170,325 C 576,249 103,244 520,245 C 386,465 494,466 236,313 Z"></path>
<path stroke="#fe9225" stroke-width="4" fill="#f559a0" opacity="0.714276756689121" stroke-opacity="0.9417202435417972" transform="rotate(104.0 400 300)" d="M 395,336  C 327,462 492,264 504,202 C 446,478 373,437 693,442 C 374,287 256,240 243,198 C 490,494 204,105 441,250 C 597,104 163,341 586,263 C 479,340 671,410 670,473 C 125,219 165,108 394,461 C 113,223 408,395 445,298 C 239,455 306,297 115,349 C 602,342 143,112 107,466 C 615,241 664,303 127,445 Z"></path>
<path stroke="#f559a0" stroke-width="2" fill="#0fa6d8" opacity="0.7484119604785816" stroke-opacity="0.25074238337755306" transform="rotate(120.0 400 300)" d="M 508,169  C 519,440 445,374 291,186 C 265,184 352,404 445,187 C 602,246 533,366 197,186 C 539,188 422,466 189,254 C 631,347 583,198 451,142 C 255,226 221,496 227,165 C 405,396 341,109 135,353 C 141,382 415,119 248,474 C 403,393 253,236 394,129 C 540,418 102,391 594,338 Z"></path>
<path stroke="#f559a0" stroke-width="7" fill="#02eb6b" opacity="0.5156547527787809" stroke-opacity="0.05113363659352373" transform="rotate(72.0 400 300)" d="M 197,396  C 607,183 329,467 338,319 C 652,406 222,443 620,170 C 154,330 421,377 228,213 C 593,210 122,371 573,391 C 575,395 593,471 261,364 C 579,116 430,195 323,176 C 123,433 468,267 439,143 C 129,205 634,186 459,337 Z"></path>
<path stroke="#02eb6b" stroke-width="6" fill="#f559a0" opacity="0.8627638768761848" stroke-opacity="0.6694938092034555" transform="rotate(-143.0 400 300)" d="M 243,331  C 138,143 199,427 575,146 C 665,183 602,346 271,383 C 414,392 421,262 498,441 C 589,279 396,362 263,178 C 389,408 125,199 135,262 C 680,381 255,346 300,177 C 121,412 103,127 344,334 C 386,368 422,355 123,348 C 243,406 350,212 636,327 C 588,141 210,460 534,114 Z"></path>

  </g>
</svg>
