<?xml version="1.0" encoding="UTF-8"?>
<svg width="800px" height="600px" viewBox="0 0 800 600" version="1.1" xmlns="http://www.w3.org/2000/svg" xmlns:xlink="http://www.w3.org/1999/xlink">
  <defs></defs>
  <g stroke="none" stroke-width="1" fill="none" fill-rule="evenodd">
    
    <path stroke="#f27630" stroke-width="6" fill="#2b55f7" opacity="0.4798136162514105" stroke-opacity="0.8490511481399519" transform="rotate(179.0 400 300)" d="M 263,425  C 117,332 322,201 528,296 C 424,456 633,235 257,195 C 469,287 455,196 575,485 C 366,328 230,467 199,262 Z"></path>
<path stroke="#f27630" stroke-width="5" fill="#f27630" opacity="0.751583271857765" stroke-opacity="0.7713792203303409" transform="rotate(-172.0 400 300)" d="M 572,191  C 687,279 324,246 429,418 C 691,207 360,156 493,252 C 277,355 172,186 156,435 C 171,427 612,273 207,187 C 670,457 637,441 650,176 C 269,195 600,194 133,350 C 534,297 629,334 137,307 C 187,154 102,333 436,264 Z"></path>
<path stroke="#ed2b2c" stroke-width="4" fill="#ed2b2c" opacity="0.1160210291439383" stroke-opacity="0.8666639273468193" transform="rotate(175.0 400 300)" d="M 587,104  C 325,437 443,222 220,195 C 558,236 627,172 280,289 C 698,309 529,166 657,115 C 119,397 170,192 409,352 C 603,489 696,353 284,386 C 610,264 168,224 540,170 C 488,142 700,270 188,313 C 579,359 666,106 316,234 C 363,194 294,111 578,334 C 595,300 176,301 650,419 C 229,459 282,354 556,319 Z"></path>
<path stroke="#f9d84b" stroke-width="4" fill="#31a06b" opacity="0.037956527816076696" stroke-opacity="0.5680572724212282" transform="rotate(33.0 400 300)" d="M 475,460  C 335,266 700,429 439,364 C 294,244 655,227 670,448 C 304,375 212,324 332,302 C 266,497 370,368 331,490 C 341,366 555,296 330,102 C 491,327 576,153 338,469 C 285,500 656,345 432,393 C 644,164 641,174 158,392 Z"></path>
<path stroke="#31a06b" stroke-width="6" fill="#f9d84b" opacity="0.1657059633713778" stroke-opacity="0.6351929478306256" transform="rotate(46.0 400 300)" d="M 600,268  C 443,418 594,101 391,409 C 214,264 242,165 467,423 C 484,217 367,382 156,265 C 545,224 527,395 175,327 C 567,106 562,108 477,384 C 455,359 398,288 303,479 C 263,106 244,296 128,128 C 157,319 112,175 326,262 C 566,427 574,143 694,114 C 373,381 577,314 303,448 Z"></path>
<path stroke="#ed2b2c" stroke-width="6" fill="#f9d84b" opacity="0.2654034231431146" stroke-opacity="0.9154147342720529" transform="rotate(29.0 400 300)" d="M 133,220  C 612,104 441,300 313,413 C 122,185 520,181 351,121 C 338,358 154,305 418,244 C 700,183 105,337 173,118 C 230,144 670,234 673,130 Z"></path>

  </g>
</svg>
