<svg xmlns="http://www.w3.org/2000/svg" xmlns:xlink="http://www.w3.org/1999/xlink" width="800" height="600" version="1.1" viewBox="0 0 800 600"><g fill="none" fill-rule="evenodd" stroke="none" stroke-width="1"><path fill="#02eb6b" stroke="#f559a0" stroke-opacity=".115" stroke-width="3" d="M 106,359 C 139,429 617,174 168,286 C 110,149 197,417 182,417 C 415,203 284,476 564,360 C 503,276 609,414 550,418 C 612,493 607,235 177,104 Z" opacity=".257" transform="rotate(81.0 400 300)"/><path fill="#f559a0" stroke="#fe9225" stroke-opacity=".614" stroke-width="4" d="M 498,186 C 604,312 290,186 676,363 C 435,362 121,328 299,217 C 143,399 345,112 399,174 C 697,104 109,117 324,139 C 435,382 587,432 609,144 Z" opacity=".764" transform="rotate(-89.0 400 300)"/><path fill="#0fa6d8" stroke="#02eb6b" stroke-opacity=".121" stroke-width="2" d="M 374,361 C 682,383 664,271 373,260 C 261,257 237,446 317,147 C 647,322 475,412 447,177 C 300,232 415,279 520,248 Z" opacity=".069" transform="rotate(90.0 400 300)"/><path fill="#2cd3f3" stroke="#fe9225" stroke-opacity=".462" stroke-width="1" d="M 252,367 C 172,399 265,307 360,461 C 319,384 515,347 488,458 C 568,218 322,187 505,336 C 479,303 317,185 433,423 C 349,223 201,439 422,202 C 431,215 343,403 228,154 Z" opacity=".186" transform="rotate(-8.0 400 300)"/><path fill="#2cd3f3" stroke="#2cd3f3" stroke-opacity=".975" stroke-width="6" d="M 699,449 C 179,410 585,460 258,332 C 235,316 527,121 328,415 C 600,147 669,299 371,377 C 428,271 197,491 188,321 C 185,451 129,225 600,224 C 114,452 203,419 197,182 C 680,499 133,253 433,272 C 497,333 488,437 592,203 C 486,448 292,409 440,399 Z" opacity=".939" transform="rotate(-124.0 400 300)"/><path fill="#f559a0" stroke="#0fa6d8" stroke-opacity=".365" stroke-width="4" d="M 574,292 C 427,377 550,168 526,492 C 565,188 698,348 555,183 C 601,231 170,472 121,224 C 187,188 694,253 583,474 C 297,122 561,162 207,495 C 224,392 257,405 243,214 C 373,466 308,189 640,440 Z" opacity=".654" transform="rotate(-145.0 400 300)"/><path fill="#0fa6d8" stroke="#fe9225" stroke-opacity=".202" stroke-width="3" d="M 457,284 C 393,356 531,415 345,203 C 287,303 605,487 486,112 C 286,219 330,155 113,476 C 288,280 439,203 412,375 C 694,130 671,273 673,358 C 349,238 390,318 450,195 Z" opacity=".665" transform="rotate(154.0 400 300)"/><path fill="#0fa6d8" stroke="#02eb6b" stroke-opacity=".793" stroke-width="3" d="M 145,426 C 668,347 614,392 658,455 C 262,161 116,194 268,299 C 651,130 148,372 480,473 C 491,405 128,277 501,300 C 255,421 677,375 624,387 C 388,101 236,273 312,461 C 163,435 132,493 318,111 C 173,139 168,105 396,286 Z" opacity=".603" transform="rotate(47.0 400 300)"/><path fill="#0fa6d8" stroke="#2cd3f3" stroke-opacity=".077" stroke-width="6" d="M 495,498 C 351,302 180,390 236,431 C 690,352 287,108 568,464 C 195,202 104,418 593,299 C 157,285 538,174 253,421 C 299,125 324,430 437,181 C 647,177 260,108 153,489 C 520,258 699,331 163,477 C 588,385 108,300 436,239 Z" opacity=".792" transform="rotate(113.0 400 300)"/><path fill="#2cd3f3" stroke="#2cd3f3" stroke-opacity=".424" stroke-width="4" d="M 698,468 C 440,195 626,384 415,198 C 608,136 266,203 579,181 C 635,103 109,134 560,181 C 112,281 380,332 335,462 Z" opacity=".62" transform="rotate(156.0 400 300)"/><path fill="#fe9225" stroke="#f559a0" stroke-opacity=".617" stroke-width="6" d="M 631,111 C 570,379 220,312 381,233 C 625,313 662,248 386,431 C 425,378 425,344 106,467 C 286,425 333,179 336,415 C 266,434 501,252 384,118 C 121,287 531,135 448,205 C 449,113 112,356 477,315 C 298,276 369,231 552,495 C 657,442 600,276 437,397 C 206,455 297,206 658,314 Z" opacity=".686" transform="rotate(-61.0 400 300)"/></g></svg>