<svg xmlns="http://www.w3.org/2000/svg" xmlns:xlink="http://www.w3.org/1999/xlink" width="800" height="600" version="1.1" viewBox="0 0 800 600"><g fill="none" fill-rule="evenodd" stroke="none" stroke-width="1"><ellipse cx="669" cy="265" fill="#02C845" stroke="#159DB8" stroke-opacity=".872" stroke-width="6" opacity=".628" rx="148" ry="105" transform="rotate(55.0 400 300)"/><ellipse cx="320" cy="528" fill="#339C90" stroke="#811277" stroke-opacity=".417" stroke-width="4" opacity=".672" rx="331" ry="49" transform="rotate(-125.0 400 300)"/><ellipse cx="176" cy="221" fill="#5032D7" stroke="#59C182" stroke-opacity=".679" stroke-width="1" opacity=".668" rx="291" ry="248" transform="rotate(149.0 400 300)"/><ellipse cx="479" cy="243" fill="#48BD8B" stroke="#2430DC" stroke-opacity=".382" stroke-width="5" opacity=".132" rx="155" ry="211" transform="rotate(-17.0 400 300)"/><polygon fill="#B67719" stroke="#310940" stroke-opacity=".423" stroke-width="7" points="213 239 115 264 518 80 329 185 442 597 570 246 137 336" opacity=".941" transform="rotate(59.0 400 300)"/><rect width="204" height="217" x="446" y="196" fill="#22D363" stroke="#57398D" stroke-opacity=".877" stroke-width="2" opacity=".161" transform="rotate(-6.0 400 300)"/><polygon fill="#314C45" stroke="#CC8786" stroke-opacity=".82" stroke-width="3" points="56 13 621 333 516 407 186 435 185 239" opacity=".849" transform="rotate(172.0 400 300)"/><rect width="173" height="73" x="220" y="135" fill="#6B7C29" stroke="#AB905C" stroke-opacity=".053" stroke-width="3" opacity=".382" transform="rotate(120.0 400 300)"/><polygon fill="#B76D17" stroke="#114490" stroke-opacity=".346" stroke-width="5" points="715 163 90 231 730 385 295 281 93 21 13 232 471 191" opacity=".554" transform="rotate(-5.0 400 300)"/><ellipse cx="463" cy="219" fill="#952A59" stroke="#5007CB" stroke-opacity=".397" stroke-width="2" opacity=".199" rx="148" ry="164" transform="rotate(32.0 400 300)"/></g></svg>