<?xml version="1.0" encoding="UTF-8"?>
<svg width="800px" height="600px" viewBox="0 0 800 600" version="1.1" xmlns="http://www.w3.org/2000/svg" xmlns:xlink="http://www.w3.org/1999/xlink">
  <defs></defs>
  <g stroke="none" stroke-width="1" fill="none" fill-rule="evenodd">
    
    <path stroke="#97C67D" stroke-width="2" fill="#C8C4C7" opacity="0.06772598594647941" stroke-opacity="0.49425111691805096" transform="rotate(-149.0 400 300)" d="M 478,408  C 442,435 209,496 205,350 C 677,482 281,324 146,468 C 318,148 419,244 474,357 C 349,118 181,247 627,106 Z"></path>
<path stroke="#375561" stroke-width="1" fill="#D6C21D" opacity="0.53581535785788" stroke-opacity="0.08071017551655457" transform="rotate(56.0 400 300)" d="M 501,349  C 290,401 593,190 334,361 C 212,132 584,317 644,372 C 593,339 460,330 239,312 C 385,195 212,500 388,241 Z"></path>
<polygon stroke="#9276A7" stroke-width="6" fill="#D2BD72" opacity="0.8333142853446677" stroke-opacity="0.5912005495470891" transform="rotate(128.0 400 300)" points="592 236 15 194 764 189 353 592 344 118 185 405 594 44 "></polygon>
<polygon stroke="#8A3442" stroke-width="7" fill="#DDC1C2" opacity="0.11439209027344259" stroke-opacity="0.8640027308015901" transform="rotate(-17.0 400 300)" points="15 155 665 519 317 22 457 373 349 435 "></polygon>
<ellipse stroke="#15D280" stroke-width="1" fill="#A70698" opacity="0.10197062228446488" stroke-opacity="0.23827923148920738" transform="rotate(-11.0 400 300)" cx="679" rx="403" cy="196" ry="232"></ellipse>
<path stroke="#0BCB32" stroke-width="3" fill="#AA469B" opacity="0.3694222529593943" stroke-opacity="0.7755664872774928" transform="rotate(-159.0 400 300)" d="M 657,155  C 192,425 324,261 155,269 C 610,306 370,367 177,422 C 131,267 693,237 455,437 C 328,240 488,111 376,346 C 553,122 534,470 590,151 C 653,269 482,183 395,424 C 198,464 149,373 295,462 C 267,410 258,130 577,109 Z"></path>
<rect stroke="#0C2963" stroke-width="6" fill="#8949B1" opacity="0.38428893744555687" stroke-opacity="0.2801539288799658" transform="rotate(71.0 400 300)" x="125" y="499" width="296" height="400"></rect>
<polygon stroke="#04613C" stroke-width="3" fill="#D5C212" opacity="0.1765228260418666" stroke-opacity="0.7640003748573299" transform="rotate(-80.0 400 300)" points="241 265 446 286 583 397 559 217 763 530 468 478 154 474 379 582 "></polygon>
<path stroke="#B14841" stroke-width="2" fill="#ADBA41" opacity="0.27561025638085046" stroke-opacity="0.37057253769275655" transform="rotate(-99.0 400 300)" d="M 486,215  C 585,224 181,140 253,279 C 584,453 417,291 123,205 C 381,328 327,165 502,142 C 497,180 481,479 563,489 C 686,120 474,395 337,237 C 164,428 444,453 219,125 C 455,309 334,436 371,233 C 440,227 589,217 683,210 C 662,434 422,398 253,133 Z"></path>
<polygon stroke="#0C2D69" stroke-width="1" fill="#742DD4" opacity="0.3671477686948137" stroke-opacity="0.06646497808321393" transform="rotate(-76.0 400 300)" points="614 440 474 368 591 48 484 495 623 152 355 579 281 156 496 183 "></polygon>

  </g>
</svg>
