<svg xmlns="http://www.w3.org/2000/svg" xmlns:xlink="http://www.w3.org/1999/xlink" width="800" height="600" version="1.1" viewBox="0 0 800 600"><g fill="none" fill-rule="evenodd" stroke="none" stroke-width="1"><path fill="#C8C4C7" stroke="#97C67D" stroke-opacity=".494" stroke-width="2" d="M 478,408 C 442,435 209,496 205,350 C 677,482 281,324 146,468 C 318,148 419,244 474,357 C 349,118 181,247 627,106 Z" opacity=".068" transform="rotate(-149.0 400 300)"/><path fill="#D6C21D" stroke="#375561" stroke-opacity=".081" stroke-width="1" d="M 501,349 C 290,401 593,190 334,361 C 212,132 584,317 644,372 C 593,339 460,330 239,312 C 385,195 212,500 388,241 Z" opacity=".536" transform="rotate(56.0 400 300)"/><polygon fill="#D2BD72" stroke="#9276A7" stroke-opacity=".591" stroke-width="6" points="592 236 15 194 764 189 353 592 344 118 185 405 594 44" opacity=".833" transform="rotate(128.0 400 300)"/><polygon fill="#DDC1C2" stroke="#8A3442" stroke-opacity=".864" stroke-width="7" points="15 155 665 519 317 22 457 373 349 435" opacity=".114" transform="rotate(-17.0 400 300)"/><ellipse cx="679" cy="196" fill="#A70698" stroke="#15D280" stroke-opacity=".238" stroke-width="1" opacity=".102" rx="403" ry="232" transform="rotate(-11.0 400 300)"/><path fill="#AA469B" stroke="#0BCB32" stroke-opacity=".776" stroke-width="3" d="M 657,155 C 192,425 324,261 155,269 C 610,306 370,367 177,422 C 131,267 693,237 455,437 C 328,240 488,111 376,346 C 553,122 534,470 590,151 C 653,269 482,183 395,424 C 198,464 149,373 295,462 C 267,410 258,130 577,109 Z" opacity=".369" transform="rotate(-159.0 400 300)"/><rect width="296" height="400" x="125" y="499" fill="#8949B1" stroke="#0C2963" stroke-opacity=".28" stroke-width="6" opacity=".384" transform="rotate(71.0 400 300)"/><polygon fill="#D5C212" stroke="#04613C" stroke-opacity=".764" stroke-width="3" points="241 265 446 286 583 397 559 217 763 530 468 478 154 474 379 582" opacity=".177" transform="rotate(-80.0 400 300)"/><path fill="#ADBA41" stroke="#B14841" stroke-opacity=".371" stroke-width="2" d="M 486,215 C 585,224 181,140 253,279 C 584,453 417,291 123,205 C 381,328 327,165 502,142 C 497,180 481,479 563,489 C 686,120 474,395 337,237 C 164,428 444,453 219,125 C 455,309 334,436 371,233 C 440,227 589,217 683,210 C 662,434 422,398 253,133 Z" opacity=".276" transform="rotate(-99.0 400 300)"/><polygon fill="#742DD4" stroke="#0C2D69" stroke-opacity=".066" stroke-width="1" points="614 440 474 368 591 48 484 495 623 152 355 579 281 156 496 183" opacity=".367" transform="rotate(-76.0 400 300)"/></g></svg>