<?xml version="1.0" encoding="UTF-8"?>
<svg width="800px" height="600px" viewBox="0 0 800 600" version="1.1" xmlns="http://www.w3.org/2000/svg" xmlns:xlink="http://www.w3.org/1999/xlink">
  <defs></defs>
  <g stroke="none" stroke-width="1" fill="none" fill-rule="evenodd">
    
    <path stroke="#0C6452" stroke-width="3" fill="#D0A03B" opacity="0.2042992920941951" stroke-opacity="0.48715494245626173" transform="rotate(33.0 400 300)" d="M 137,135  C 190,414 622,393 561,218 C 670,463 441,277 144,334 C 254,308 463,391 165,134 C 447,162 693,456 493,250 C 572,233 349,416 153,215 Z"></path>
<path stroke="#DDA369" stroke-width="3" fill="#1B5307" opacity="0.9430088653938528" stroke-opacity="0.617967021490236" transform="rotate(71.0 400 300)" d="M 310,490  C 288,300 498,376 524,122 C 341,192 327,264 463,500 C 372,250 544,448 603,400 C 453,381 696,215 600,443 C 521,190 414,353 489,242 C 562,357 676,194 564,255 C 638,400 210,274 456,255 C 188,198 339,235 224,342 C 570,174 169,330 134,271 C 173,401 548,138 347,161 C 182,206 630,426 529,344 Z"></path>
<path stroke="#9044B4" stroke-width="3" fill="#125B2C" opacity="0.10597050947679804" stroke-opacity="0.7305608336729916" transform="rotate(-25.0 400 300)" d="M 212,455  C 245,321 557,262 240,344 C 550,300 457,471 358,165 C 279,432 609,405 269,275 C 365,467 485,441 596,313 C 626,321 523,485 316,179 C 452,446 190,254 189,251 C 393,292 240,430 398,354 Z"></path>
<path stroke="#DDC826" stroke-width="6" fill="#98C618" opacity="0.05406275930613313" stroke-opacity="0.23350346902066121" transform="rotate(135.0 400 300)" d="M 385,451  C 538,450 523,200 607,155 C 206,247 194,472 673,134 C 306,280 114,373 171,290 C 359,339 249,358 355,154 C 497,391 160,115 657,256 C 503,354 677,264 177,140 C 355,334 187,153 256,119 Z"></path>
<path stroke="#B21777" stroke-width="2" fill="#54CD90" opacity="0.9676273101443315" stroke-opacity="0.16594195344555138" transform="rotate(113.0 400 300)" d="M 690,403  C 149,234 168,489 658,119 C 160,231 365,456 203,252 C 197,203 648,482 162,235 C 283,318 287,446 360,305 C 453,110 446,435 549,483 C 488,215 214,332 204,301 C 696,430 165,317 469,291 C 546,461 598,406 445,348 C 131,291 550,311 479,336 C 589,419 220,189 372,206 C 434,342 473,330 494,490 Z"></path>
<path stroke="#112108" stroke-width="7" fill="#0C7829" opacity="0.5699455099215668" stroke-opacity="0.34516157854517593" transform="rotate(-21.0 400 300)" d="M 209,367  C 315,410 260,369 209,317 C 659,173 278,390 418,272 C 213,149 498,129 264,277 C 663,396 423,125 416,235 C 407,485 165,161 432,146 C 263,126 234,434 512,462 C 520,139 165,457 647,452 C 380,465 389,172 582,119 Z"></path>
<path stroke="#67260D" stroke-width="3" fill="#A5522C" opacity="0.3839898337263906" stroke-opacity="0.4338919102735736" transform="rotate(-57.0 400 300)" d="M 107,365  C 229,258 345,325 625,162 C 435,489 170,429 143,171 C 482,127 234,206 529,197 C 210,257 523,207 604,430 Z"></path>
<path stroke="#AB5AB9" stroke-width="6" fill="#B6C6A1" opacity="0.3603988100045284" stroke-opacity="0.230377822506386" transform="rotate(-151.0 400 300)" d="M 390,499  C 686,251 685,202 436,101 C 223,138 275,257 346,204 C 485,273 179,202 492,151 C 237,282 446,314 466,263 C 249,299 400,432 399,315 C 180,340 150,381 632,245 C 444,247 387,271 625,328 C 443,252 699,465 488,341 Z"></path>
<path stroke="#577DDD" stroke-width="4" fill="#109940" opacity="0.20264094873735752" stroke-opacity="0.7935204142767239" transform="rotate(-27.0 400 300)" d="M 681,229  C 615,303 643,382 446,305 C 549,326 256,221 294,181 C 468,186 403,483 698,225 C 601,442 307,437 289,124 C 565,452 111,325 360,255 C 325,471 262,141 661,127 C 502,135 334,454 575,368 C 115,432 423,371 101,351 C 656,298 199,328 243,301 Z"></path>
<path stroke="#885315" stroke-width="4" fill="#B6DC79" opacity="0.5989064753213211" stroke-opacity="0.9904601346950678" transform="rotate(-144.0 400 300)" d="M 619,454  C 217,330 385,249 681,451 C 466,382 262,327 138,163 C 194,129 646,330 192,306 C 292,192 356,299 115,218 C 526,420 472,200 594,269 C 245,397 157,353 513,229 C 621,238 499,226 678,138 C 377,482 691,437 407,242 C 551,434 516,493 204,329 Z"></path>
<path stroke="#652C2C" stroke-width="6" fill="#A3DD7C" opacity="0.49560468522852663" stroke-opacity="0.798498642954079" transform="rotate(-6.0 400 300)" d="M 248,395  C 588,115 134,386 547,451 C 182,417 475,493 302,244 C 219,119 525,247 687,235 C 278,287 286,319 143,443 C 217,367 603,332 499,226 C 181,349 240,331 541,269 Z"></path>

  </g>
</svg>
