<?xml version="1.0" encoding="UTF-8"?>
<svg width="800px" height="600px" viewBox="0 0 800 600" version="1.1" xmlns="http://www.w3.org/2000/svg" xmlns:xlink="http://www.w3.org/1999/xlink">
  <defs></defs>
  <g stroke="none" stroke-width="1" fill="none" fill-rule="evenodd">
    
    <path stroke="#A0C6DC" stroke-width="6" fill="#226B07" opacity="0.3927248279411462" stroke-opacity="0.09448954555301037" transform="rotate(27.0 400 300)" d="M 296,373  C 292,310 277,228 450,350 C 296,450 523,137 175,330 C 468,482 664,221 689,177 C 497,173 336,431 686,367 C 131,134 135,386 297,339 C 344,462 553,421 254,164 C 611,485 123,198 304,273 C 205,434 443,398 171,203 C 190,234 108,332 152,393 C 401,469 138,300 294,240 Z"></path>
<path stroke="#3A0AC1" stroke-width="2" fill="#D87892" opacity="0.8585865887667665" stroke-opacity="0.2938589401268635" transform="rotate(-156.0 400 300)" d="M 117,348  C 491,192 304,380 340,236 C 231,136 187,210 177,389 C 309,373 339,177 206,482 C 135,386 430,124 247,333 C 218,225 229,347 294,376 C 396,464 230,301 134,359 Z"></path>
<path stroke="#266D29" stroke-width="2" fill="#4A44D4" opacity="0.06024490746565357" stroke-opacity="0.9208991978455741" transform="rotate(-34.0 400 300)" d="M 638,393  C 420,289 507,233 641,252 C 346,111 162,226 113,201 C 316,169 137,260 284,132 C 543,399 680,127 192,493 Z"></path>
<path stroke="#3D55B1" stroke-width="6" fill="#BA4D4D" opacity="0.7162428662357823" stroke-opacity="0.16619484650711577" transform="rotate(118.0 400 300)" d="M 390,401  C 396,433 484,251 413,260 C 198,472 111,122 574,464 C 650,245 577,302 141,463 C 285,231 487,402 266,443 C 593,210 209,486 149,300 C 401,114 641,183 122,273 Z"></path>
<path stroke="#43388B" stroke-width="4" fill="#9844A3" opacity="0.48165237910728453" stroke-opacity="0.6313090397184067" transform="rotate(-137.0 400 300)" d="M 204,172  C 136,466 162,151 272,258 C 393,449 481,457 168,431 C 543,170 480,143 415,165 C 625,201 503,235 233,247 C 456,136 670,173 544,455 C 165,314 370,488 210,334 C 250,500 471,249 595,241 C 495,419 499,260 327,154 C 532,230 479,465 517,196 C 385,355 450,322 251,481 Z"></path>
<path stroke="#4B256A" stroke-width="5" fill="#4B40D0" opacity="0.9511560911514668" stroke-opacity="0.027367681069698786" transform="rotate(2.0 400 300)" d="M 149,224  C 601,407 412,189 181,110 C 609,145 209,348 110,221 C 455,480 378,183 343,109 C 421,409 477,479 548,492 C 550,250 419,476 210,471 Z"></path>
<path stroke="#738CAA" stroke-width="6" fill="#43AC11" opacity="0.35522639735461436" stroke-opacity="0.649237160352121" transform="rotate(97.0 400 300)" d="M 476,148  C 256,266 318,269 355,432 C 249,128 367,402 670,497 C 417,181 354,435 559,189 C 121,211 617,108 142,240 C 320,466 130,487 137,290 C 263,211 657,310 682,118 C 276,255 501,166 313,121 Z"></path>
<path stroke="#167024" stroke-width="4" fill="#B7510A" opacity="0.6249266003156483" stroke-opacity="0.8154338983230989" transform="rotate(-71.0 400 300)" d="M 270,112  C 337,334 698,158 584,145 C 301,457 329,423 544,234 C 534,256 561,373 378,479 C 331,420 129,268 423,372 C 571,448 527,437 600,235 C 106,416 177,468 391,262 C 136,427 114,335 612,454 C 579,427 467,285 166,117 Z"></path>
<path stroke="#DC1992" stroke-width="4" fill="#713926" opacity="0.5394096675145557" stroke-opacity="0.11539477418162947" transform="rotate(-24.0 400 300)" d="M 242,128  C 630,261 618,238 400,350 C 186,371 362,345 580,218 C 551,235 372,199 479,250 C 587,476 370,476 541,498 C 434,491 388,172 340,111 C 220,378 227,436 153,158 C 170,170 159,475 204,103 C 226,404 521,287 504,413 C 646,435 260,458 137,433 C 588,407 477,247 110,392 Z"></path>

  </g>
</svg>
