<svg xmlns="http://www.w3.org/2000/svg" xmlns:xlink="http://www.w3.org/1999/xlink" width="800" height="600" version="1.1" viewBox="0 0 800 600"><g fill="none" fill-rule="evenodd" stroke="none" stroke-width="1"><path fill="#ed2b2c" stroke="#2b55f7" stroke-opacity=".493" stroke-width="1" d="M 481,331 C 309,117 305,148 642,271 C 459,356 367,107 385,492 C 295,261 463,102 636,462 C 460,319 211,480 478,387 C 556,491 693,255 415,399 C 691,483 579,138 256,487 C 310,452 511,345 222,477 C 127,334 125,117 286,182 C 404,312 663,155 266,380 C 169,453 501,414 509,194 Z" opacity=".764" transform="rotate(12.0 400 300)"/><path fill="#2b55f7" stroke="#f9d84b" stroke-opacity=".162" stroke-width="4" d="M 490,241 C 501,132 477,184 631,138 C 210,279 334,297 604,350 C 394,110 292,152 406,427 C 241,299 131,240 634,122 C 505,125 366,143 278,297 C 462,325 479,378 665,169 C 570,171 570,373 568,482 Z" opacity=".023" transform="rotate(176.0 400 300)"/><path fill="#f27630" stroke="#31a06b" stroke-opacity=".37" stroke-width="7" d="M 527,238 C 521,328 582,169 452,461 C 541,297 289,228 391,302 C 181,461 383,470 532,274 C 210,258 178,203 497,159 C 110,192 213,396 128,282 C 534,124 656,453 577,374 C 388,282 104,317 289,313 C 441,419 168,474 288,222 C 161,145 134,114 634,497 Z" opacity=".727" transform="rotate(-33.0 400 300)"/><path fill="#f27630" stroke="#f27630" stroke-opacity=".41" stroke-width="3" d="M 403,455 C 109,134 652,461 656,394 C 239,286 496,393 193,454 C 489,420 366,177 698,360 C 394,266 576,414 362,123 C 653,421 564,404 390,134 Z" opacity=".555" transform="rotate(-3.0 400 300)"/><path fill="#f27630" stroke="#2b55f7" stroke-opacity=".414" stroke-width="4" d="M 485,357 C 126,471 455,460 229,404 C 210,491 118,185 580,360 C 698,309 633,107 411,132 C 473,327 264,281 501,432 C 465,191 504,368 164,455 C 423,200 510,334 134,385 C 627,317 321,151 176,297 C 369,363 142,169 280,365 C 339,484 203,314 247,453 C 612,247 296,124 229,150 Z" opacity=".756" transform="rotate(8.0 400 300)"/><path fill="#2b55f7" stroke="#2b55f7" stroke-opacity=".205" stroke-width="6" d="M 279,489 C 375,149 633,141 684,498 C 141,347 301,357 637,374 C 608,478 156,262 347,103 C 398,449 187,226 637,400 Z" opacity=".342" transform="rotate(141.0 400 300)"/></g></svg>