<svg xmlns="http://www.w3.org/2000/svg" xmlns:xlink="http://www.w3.org/1999/xlink" width="800" height="600" version="1.1" viewBox="0 0 800 600"><g fill="none" fill-rule="evenodd" stroke="none" stroke-width="1"><path fill="#f9d84b" stroke="#ed2b2c" stroke-opacity=".025" stroke-width="4" d="M 560,449 C 236,427 357,185 405,223 C 474,319 185,136 469,378 C 266,318 490,202 176,317 C 118,498 681,305 141,141 C 138,365 661,277 619,333 C 203,250 340,277 344,261 C 677,205 194,457 486,490 Z" opacity=".79" transform="rotate(-167.0 400 300)"/><path fill="#f27630" stroke="#2b55f7" stroke-opacity=".952" stroke-width="4" d="M 546,400 C 397,260 146,357 450,376 C 157,246 530,435 485,431 C 672,395 416,316 140,180 C 667,132 656,390 632,396 C 412,139 335,432 644,256 C 483,370 297,286 266,349 C 629,317 489,103 267,113 C 415,330 394,442 413,390 C 535,374 177,273 628,328 C 331,377 152,337 595,356 Z" opacity=".957" transform="rotate(-123.0 400 300)"/><path fill="#31a06b" stroke="#f27630" stroke-opacity=".543" stroke-width="7" d="M 683,379 C 112,145 543,391 273,370 C 160,294 429,132 297,470 C 247,468 365,141 440,252 C 463,344 652,138 650,390 C 195,124 556,460 251,440 C 355,448 403,109 110,273 C 499,375 113,221 283,475 C 290,369 420,415 394,213 C 605,268 387,358 568,401 C 580,243 590,165 655,338 C 542,384 303,190 370,277 Z" opacity=".381" transform="rotate(-132.0 400 300)"/><path fill="#f27630" stroke="#f27630" stroke-opacity=".03" stroke-width="2" d="M 642,391 C 346,132 513,174 525,248 C 415,495 466,258 272,453 C 575,347 268,124 523,338 C 309,142 147,104 338,390 C 561,215 113,229 504,469 C 184,347 356,161 314,301 C 673,145 524,266 101,390 C 387,194 638,475 691,260 Z" opacity=".698" transform="rotate(-46.0 400 300)"/><path fill="#ed2b2c" stroke="#31a06b" stroke-opacity=".294" stroke-width="4" d="M 596,444 C 136,210 338,349 148,300 C 419,200 179,212 243,435 C 198,173 282,464 415,353 C 460,474 348,242 175,324 C 254,478 638,307 337,345 C 444,206 663,330 169,425 Z" opacity=".808" transform="rotate(-63.0 400 300)"/><path fill="#2b55f7" stroke="#f9d84b" stroke-opacity=".093" stroke-width="3" d="M 365,142 C 396,450 491,416 182,342 C 663,184 310,285 483,335 C 535,170 557,412 532,178 C 178,156 564,293 316,356 C 503,246 668,201 175,125 C 410,424 211,172 359,126 C 285,436 311,447 171,370 Z" opacity=".473" transform="rotate(93.0 400 300)"/><path fill="#2b55f7" stroke="#2b55f7" stroke-opacity=".307" stroke-width="6" d="M 488,485 C 503,313 488,388 210,393 C 655,152 568,196 510,463 C 129,133 116,171 635,462 C 348,362 463,207 585,351 C 138,341 558,243 541,140 C 459,471 580,261 467,136 C 241,335 130,156 308,483 C 540,225 411,459 678,383 C 509,369 204,411 339,339 Z" opacity=".722" transform="rotate(123.0 400 300)"/><path fill="#31a06b" stroke="#2b55f7" stroke-opacity=".59" stroke-width="4" d="M 357,482 C 668,422 345,473 457,362 C 135,301 604,111 412,199 C 282,439 445,104 372,326 C 262,249 620,113 563,317 C 266,335 481,135 687,458 C 308,444 634,200 454,500 C 267,365 277,240 671,158 C 149,289 560,477 255,272 C 298,449 505,401 576,394 C 507,311 528,121 432,475 C 148,382 316,149 558,245 Z" opacity=".011" transform="rotate(-8.0 400 300)"/><path fill="#f27630" stroke="#f9d84b" stroke-opacity=".061" stroke-width="3" d="M 171,449 C 575,170 274,364 405,224 C 114,199 699,345 571,126 C 504,281 108,403 400,246 C 243,206 163,114 229,311 C 479,489 507,120 459,215 C 399,183 566,342 164,376 C 198,117 299,108 218,450 C 535,140 523,439 508,332 C 123,420 586,392 223,421 C 386,263 437,305 170,446 C 428,330 110,466 439,414 Z" opacity=".906" transform="rotate(50.0 400 300)"/><path fill="#2b55f7" stroke="#ed2b2c" stroke-opacity=".479" stroke-width="6" d="M 180,240 C 199,247 502,264 612,325 C 278,391 636,316 188,318 C 123,440 413,203 432,206 C 457,344 635,495 315,177 Z" opacity=".07" transform="rotate(-85.0 400 300)"/></g></svg>