<svg xmlns="http://www.w3.org/2000/svg" xmlns:xlink="http://www.w3.org/1999/xlink" width="800" height="600" version="1.1" viewBox="0 0 800 600"><g fill="none" fill-rule="evenodd" stroke="none" stroke-width="1"><path fill="#79B987" stroke="#3845B4" stroke-opacity=".98" stroke-width="1" d="M 234,274 C 273,338 484,471 608,377 C 294,480 638,347 148,179 C 264,290 400,268 632,288 C 453,300 108,438 661,120 C 401,335 408,203 427,378 C 436,116 192,465 330,280 C 310,406 176,145 412,453 C 346,307 339,143 237,281 Z" opacity=".218" transform="rotate(-149.0 400 300)"/><path fill="#D4B924" stroke="#573BB1" stroke-opacity=".431" stroke-width="3" d="M 435,494 C 398,174 558,498 675,370 C 547,145 265,241 372,252 C 337,410 378,253 161,255 C 258,296 680,347 265,194 C 385,344 617,427 126,361 C 474,105 478,123 287,443 C 481,383 336,266 161,359 C 609,324 368,269 289,152 C 269,429 626,143 199,414 C 154,135 621,332 214,228 C 629,294 692,425 244,460 Z" opacity=".521" transform="rotate(-165.0 400 300)"/><path fill="#9DA937" stroke="#A58B1C" stroke-opacity=".549" stroke-width="7" d="M 326,440 C 191,293 115,320 366,265 C 666,180 464,320 110,455 C 333,198 441,456 395,268 C 266,276 321,156 666,233 C 338,187 512,345 578,364 C 539,154 686,436 512,387 C 338,428 526,446 342,423 Z" opacity=".531" transform="rotate(103.0 400 300)"/><path fill="#926209" stroke="#CDA28A" stroke-opacity=".276" stroke-width="1" d="M 441,245 C 538,116 326,482 132,327 C 450,297 522,422 141,487 C 534,497 496,478 314,384 C 575,496 381,291 477,318 Z" opacity=".42" transform="rotate(63.0 400 300)"/><path fill="#2B98C2" stroke="#C9C218" stroke-opacity=".706" stroke-width="4" d="M 562,466 C 596,399 549,256 552,390 C 532,450 490,391 398,133 C 133,257 442,353 619,487 C 543,101 177,343 214,375 C 552,298 592,230 301,359 C 254,452 220,403 571,323 C 241,111 370,476 323,380 Z" opacity=".406" transform="rotate(-104.0 400 300)"/><path fill="#6AB1AB" stroke="#2B5CC2" stroke-opacity=".254" stroke-width="7" d="M 637,106 C 630,230 526,216 307,228 C 350,216 197,490 526,404 C 580,173 413,165 485,398 C 606,450 336,129 656,194 C 353,422 152,343 133,317 C 125,130 377,102 108,492 C 592,280 196,427 357,479 C 631,345 330,196 603,401 C 529,420 258,371 435,495 C 456,367 362,408 656,494 Z" opacity=".143" transform="rotate(55.0 400 300)"/><path fill="#C6BD33" stroke="#70A199" stroke-opacity=".856" stroke-width="4" d="M 200,497 C 541,252 501,294 693,460 C 324,168 613,257 166,269 C 283,280 609,182 408,339 C 651,352 467,481 280,197 Z" opacity=".123" transform="rotate(-29.0 400 300)"/><path fill="#98C069" stroke="#C9A019" stroke-opacity=".236" stroke-width="4" d="M 428,223 C 548,142 539,128 380,288 C 243,386 290,315 448,456 C 170,452 392,427 605,412 C 492,346 167,381 345,412 Z" opacity=".993" transform="rotate(-75.0 400 300)"/><path fill="#360318" stroke="#AD803A" stroke-opacity=".428" stroke-width="5" d="M 240,298 C 230,126 520,122 673,149 C 373,317 139,262 546,194 C 532,369 235,359 698,252 C 595,149 693,235 423,282 C 360,110 264,420 480,220 C 410,485 596,283 621,317 C 133,497 615,404 148,203 C 407,451 289,455 548,156 C 218,237 541,290 464,287 C 351,485 288,489 264,289 Z" opacity=".481" transform="rotate(28.0 400 300)"/><path fill="#635DB6" stroke="#DAC4D7" stroke-opacity=".753" stroke-width="6" d="M 476,280 C 288,400 581,495 553,435 C 474,495 558,104 210,296 C 154,401 138,155 162,287 C 566,348 215,428 454,467 C 656,300 505,352 470,236 C 157,343 562,156 430,443 C 502,456 148,382 231,301 C 408,241 359,309 512,166 Z" opacity=".43" transform="rotate(-81.0 400 300)"/></g></svg>