<?xml version="1.0" encoding="UTF-8"?>
<svg width="800px" height="600px" viewBox="0 0 800 600" version="1.1" xmlns="http://www.w3.org/2000/svg" xmlns:xlink="http://www.w3.org/1999/xlink">
  <defs></defs>
  <g stroke="none" stroke-width="1" fill="none" fill-rule="evenodd">
    
    <path stroke="#f9d84b" stroke-width="5" fill="#ed2b2c" opacity="0.4873985891262806" stroke-opacity="0.3848574460116937" transform="rotate(66.0 400 300)" d="M 563,373  C 265,487 398,482 246,209 C 359,299 377,219 216,195 C 202,476 313,450 651,291 C 151,221 391,399 688,453 C 699,341 365,481 441,236 C 597,430 135,360 609,184 C 242,292 334,364 102,164 C 608,153 567,303 458,332 Z"></path>
<path stroke="#2b55f7" stroke-width="1" fill="#ed2b2c" opacity="0.32839542785781534" stroke-opacity="0.23515585459051416" transform="rotate(-113.0 400 300)" d="M 296,154  C 263,175 277,239 680,295 C 102,265 503,187 128,284 C 222,367 573,211 217,109 C 402,234 101,367 681,128 Z"></path>
<path stroke="#31a06b" stroke-width="6" fill="#31a06b" opacity="0.2389038142145238" stroke-opacity="0.18500869088685107" transform="rotate(58.0 400 300)" d="M 215,433  C 654,211 646,150 685,195 C 364,402 562,391 329,101 C 588,339 446,151 358,131 C 538,311 421,388 545,260 C 288,117 472,390 573,188 C 409,196 352,109 329,157 C 313,323 162,390 491,224 C 263,284 216,252 434,148 C 677,193 508,167 240,106 Z"></path>
<path stroke="#f9d84b" stroke-width="7" fill="#ed2b2c" opacity="0.5039115071954392" stroke-opacity="0.20193314837819637" transform="rotate(100.0 400 300)" d="M 139,362  C 319,272 626,284 459,242 C 649,175 414,193 120,265 C 640,174 175,253 586,400 C 118,277 344,430 420,129 C 266,112 416,424 544,490 C 547,271 153,155 127,309 C 256,145 150,217 667,488 C 459,203 463,101 202,473 Z"></path>
<path stroke="#f9d84b" stroke-width="1" fill="#2b55f7" opacity="0.7789502717858409" stroke-opacity="0.4355129238438403" transform="rotate(145.0 400 300)" d="M 105,274  C 551,477 456,497 325,438 C 160,153 349,178 324,237 C 471,359 295,343 417,291 C 315,305 622,499 231,302 C 437,153 304,124 529,156 C 666,287 126,234 365,270 C 334,464 636,148 159,494 C 652,309 472,332 603,383 C 508,136 426,213 475,296 Z"></path>
<path stroke="#ed2b2c" stroke-width="7" fill="#f27630" opacity="0.6055772919078538" stroke-opacity="0.25738419568540594" transform="rotate(-58.0 400 300)" d="M 144,298  C 346,273 189,473 355,162 C 674,359 548,478 227,372 C 540,204 648,148 232,251 C 363,293 456,314 427,130 C 339,411 140,295 420,444 C 367,114 222,153 184,380 C 597,463 333,147 232,161 Z"></path>
<path stroke="#2b55f7" stroke-width="4" fill="#f9d84b" opacity="0.2172708116681558" stroke-opacity="0.4126698694377425" transform="rotate(-136.0 400 300)" d="M 506,442  C 695,440 643,378 487,118 C 414,192 581,356 678,257 C 217,475 692,236 153,219 C 692,224 617,200 589,418 C 610,487 194,362 581,316 C 277,126 560,256 313,105 C 408,298 404,418 276,357 C 171,130 395,123 399,489 C 323,198 599,360 147,362 Z"></path>

  </g>
</svg>
