<svg xmlns="http://www.w3.org/2000/svg" xmlns:xlink="http://www.w3.org/1999/xlink" width="800" height="600" version="1.1" viewBox="0 0 800 600"><g fill="none" fill-rule="evenodd" stroke="none" stroke-width="1"><path fill="#ed2b2c" stroke="#f9d84b" stroke-opacity=".385" stroke-width="5" d="M 563,373 C 265,487 398,482 246,209 C 359,299 377,219 216,195 C 202,476 313,450 651,291 C 151,221 391,399 688,453 C 699,341 365,481 441,236 C 597,430 135,360 609,184 C 242,292 334,364 102,164 C 608,153 567,303 458,332 Z" opacity=".487" transform="rotate(66.0 400 300)"/><path fill="#ed2b2c" stroke="#2b55f7" stroke-opacity=".235" stroke-width="1" d="M 296,154 C 263,175 277,239 680,295 C 102,265 503,187 128,284 C 222,367 573,211 217,109 C 402,234 101,367 681,128 Z" opacity=".328" transform="rotate(-113.0 400 300)"/><path fill="#31a06b" stroke="#31a06b" stroke-opacity=".185" stroke-width="6" d="M 215,433 C 654,211 646,150 685,195 C 364,402 562,391 329,101 C 588,339 446,151 358,131 C 538,311 421,388 545,260 C 288,117 472,390 573,188 C 409,196 352,109 329,157 C 313,323 162,390 491,224 C 263,284 216,252 434,148 C 677,193 508,167 240,106 Z" opacity=".239" transform="rotate(58.0 400 300)"/><path fill="#ed2b2c" stroke="#f9d84b" stroke-opacity=".202" stroke-width="7" d="M 139,362 C 319,272 626,284 459,242 C 649,175 414,193 120,265 C 640,174 175,253 586,400 C 118,277 344,430 420,129 C 266,112 416,424 544,490 C 547,271 153,155 127,309 C 256,145 150,217 667,488 C 459,203 463,101 202,473 Z" opacity=".504" transform="rotate(100.0 400 300)"/><path fill="#2b55f7" stroke="#f9d84b" stroke-opacity=".436" stroke-width="1" d="M 105,274 C 551,477 456,497 325,438 C 160,153 349,178 324,237 C 471,359 295,343 417,291 C 315,305 622,499 231,302 C 437,153 304,124 529,156 C 666,287 126,234 365,270 C 334,464 636,148 159,494 C 652,309 472,332 603,383 C 508,136 426,213 475,296 Z" opacity=".779" transform="rotate(145.0 400 300)"/><path fill="#f27630" stroke="#ed2b2c" stroke-opacity=".257" stroke-width="7" d="M 144,298 C 346,273 189,473 355,162 C 674,359 548,478 227,372 C 540,204 648,148 232,251 C 363,293 456,314 427,130 C 339,411 140,295 420,444 C 367,114 222,153 184,380 C 597,463 333,147 232,161 Z" opacity=".606" transform="rotate(-58.0 400 300)"/><path fill="#f9d84b" stroke="#2b55f7" stroke-opacity=".413" stroke-width="4" d="M 506,442 C 695,440 643,378 487,118 C 414,192 581,356 678,257 C 217,475 692,236 153,219 C 692,224 617,200 589,418 C 610,487 194,362 581,316 C 277,126 560,256 313,105 C 408,298 404,418 276,357 C 171,130 395,123 399,489 C 323,198 599,360 147,362 Z" opacity=".217" transform="rotate(-136.0 400 300)"/></g></svg>