<?xml version="1.0" encoding="UTF-8"?>
<svg width="800px" height="600px" viewBox="0 0 800 600" version="1.1" xmlns="http://www.w3.org/2000/svg" xmlns:xlink="http://www.w3.org/1999/xlink">
  <defs></defs>
  <g stroke="none" stroke-width="1" fill="none" fill-rule="evenodd">
    
    <path stroke="#C3695A" stroke-width="7" fill="#4C0770" opacity="0.8603010123191871" stroke-opacity="0.5627643309110928" transform="rotate(-84.0 400 300)" d="M 635,178  C 473,498 238,240 160,126 C 613,409 406,380 551,119 C 529,435 611,397 105,182 C 590,106 254,423 385,293 C 231,195 501,393 282,262 C 474,315 577,123 315,154 C 502,281 351,101 214,482 Z"></path>
<path stroke="#66AA7D" stroke-width="7" fill="#7B57BC" opacity="0.2337308130987717" stroke-opacity="0.38093157835438346" transform="rotate(40.0 400 300)" d="M 103,128  C 634,102 501,411 579,348 C 414,302 263,439 150,261 C 254,426 386,325 570,356 C 574,252 423,461 575,391 C 430,479 304,398 276,279 C 330,199 501,199 520,112 C 430,138 475,396 643,172 C 105,373 296,397 559,440 C 283,143 686,383 176,348 C 109,429 165,160 118,495 Z"></path>
<path stroke="#A4D6C0" stroke-width="4" fill="#2CA43A" opacity="0.8906632248626806" stroke-opacity="0.211663564475415" transform="rotate(-155.0 400 300)" d="M 262,365  C 570,181 133,383 681,325 C 641,165 533,118 183,181 C 575,271 132,473 591,270 C 624,304 318,403 587,265 C 294,189 361,156 473,455 Z"></path>
<path stroke="#1C3582" stroke-width="5" fill="#7AA466" opacity="0.4157821022289316" stroke-opacity="0.5690231894370912" transform="rotate(-160.0 400 300)" d="M 263,352  C 615,221 240,406 650,374 C 115,435 475,452 652,335 C 501,200 626,219 375,127 C 623,347 593,483 305,383 C 364,276 142,154 131,266 C 506,161 395,301 141,211 C 582,136 545,229 466,413 C 405,171 577,408 537,250 Z"></path>
<path stroke="#50DC2B" stroke-width="4" fill="#595869" opacity="0.3937978783805374" stroke-opacity="0.13535136466559183" transform="rotate(71.0 400 300)" d="M 149,490  C 152,224 317,499 271,125 C 323,121 327,387 592,307 C 368,403 385,269 698,439 C 195,443 135,107 385,266 Z"></path>
<path stroke="#208519" stroke-width="6" fill="#3AAB97" opacity="0.19463120132629952" stroke-opacity="0.5112216771548679" transform="rotate(-143.0 400 300)" d="M 539,441  C 516,325 576,223 570,261 C 148,185 580,118 342,219 C 474,364 247,166 474,273 C 514,195 524,147 232,476 C 369,238 334,343 593,404 C 564,115 242,176 131,126 C 227,434 451,229 476,347 C 169,475 601,289 343,104 C 107,271 288,127 583,394 Z"></path>

  </g>
</svg>
