<?xml version="1.0" encoding="UTF-8"?>
<svg width="800px" height="600px" viewBox="0 0 800 600" version="1.1" xmlns="http://www.w3.org/2000/svg" xmlns:xlink="http://www.w3.org/1999/xlink">
  <defs></defs>
  <g stroke="none" stroke-width="1" fill="none" fill-rule="evenodd">
    
    <path stroke="#31a06b" stroke-width="2" fill="#2b55f7" opacity="0.8905495994701438" stroke-opacity="0.2389482411503919" transform="rotate(62.0 400 300)" d="M 557,238  C 217,210 402,245 273,346 C 490,329 589,155 300,221 C 338,315 602,220 119,447 C 253,189 416,236 511,423 C 270,435 425,164 606,384 C 394,192 373,103 440,364 C 536,246 475,215 125,131 C 658,282 286,315 310,232 C 565,258 109,220 143,379 C 633,235 392,188 120,254 C 393,331 373,500 626,206 Z"></path>
<path stroke="#ed2b2c" stroke-width="6" fill="#ed2b2c" opacity="0.8835441065578488" stroke-opacity="0.9100897680689701" transform="rotate(-84.0 400 300)" d="M 555,134  C 174,362 106,474 127,307 C 123,212 680,287 411,462 C 357,464 502,320 183,195 C 518,362 257,130 645,295 C 273,398 344,429 221,149 C 385,496 309,326 504,438 C 304,340 626,288 290,194 C 235,345 155,409 362,441 C 521,159 455,278 339,415 C 190,384 135,116 555,326 Z"></path>
<path stroke="#2b55f7" stroke-width="5" fill="#2b55f7" opacity="0.42311790456749004" stroke-opacity="0.023908837579332258" transform="rotate(30.0 400 300)" d="M 473,395  C 663,106 396,239 403,325 C 120,417 420,171 168,395 C 123,180 284,480 605,384 C 203,428 549,212 324,234 C 502,113 489,423 343,359 C 146,401 577,377 501,474 C 636,382 429,334 233,210 C 490,185 318,400 587,293 C 551,365 659,412 488,121 C 470,322 273,235 461,288 Z"></path>
<path stroke="#2b55f7" stroke-width="3" fill="#ed2b2c" opacity="0.3755786849726266" stroke-opacity="0.7287162999527421" transform="rotate(34.0 400 300)" d="M 677,487  C 651,103 376,240 194,468 C 539,462 452,147 136,245 C 506,390 536,118 492,294 C 499,407 326,277 597,191 C 103,147 485,463 484,474 C 658,215 535,220 254,193 C 457,484 115,193 541,228 C 228,216 533,365 309,315 C 159,325 416,254 145,381 Z"></path>
<path stroke="#ed2b2c" stroke-width="3" fill="#f27630" opacity="0.7718855761354066" stroke-opacity="0.3633951234364131" transform="rotate(-162.0 400 300)" d="M 689,167  C 252,357 487,297 294,428 C 257,256 220,119 213,367 C 322,104 565,239 329,299 C 558,387 536,387 172,423 C 119,170 397,309 461,358 C 596,323 694,252 376,252 Z"></path>
<path stroke="#f27630" stroke-width="2" fill="#ed2b2c" opacity="0.25257163010427996" stroke-opacity="0.238679721151657" transform="rotate(-73.0 400 300)" d="M 659,265  C 294,472 229,352 145,148 C 433,383 564,389 126,384 C 318,195 467,488 507,376 C 522,290 336,245 134,228 C 427,178 359,318 630,480 C 259,334 691,401 697,380 C 111,397 378,198 327,293 Z"></path>
<path stroke="#2b55f7" stroke-width="5" fill="#f9d84b" opacity="0.8236229249702839" stroke-opacity="0.49077321314411954" transform="rotate(18.0 400 300)" d="M 501,446  C 685,221 417,233 232,191 C 453,395 342,200 193,479 C 642,223 567,454 275,129 C 663,391 525,460 232,389 C 669,493 210,116 219,281 C 173,176 489,375 523,157 C 453,441 283,452 320,208 C 191,110 438,458 426,344 C 577,175 443,464 465,352 C 204,221 292,499 586,320 Z"></path>
<path stroke="#ed2b2c" stroke-width="1" fill="#2b55f7" opacity="0.6548933387495833" stroke-opacity="0.10551347063108132" transform="rotate(80.0 400 300)" d="M 102,378  C 540,349 406,282 239,171 C 330,141 646,482 664,483 C 148,102 222,322 160,119 C 161,319 349,469 589,262 C 407,449 307,300 617,250 C 131,359 125,469 695,323 C 498,309 484,222 105,117 C 363,300 667,423 204,344 C 114,268 132,415 409,310 Z"></path>
<path stroke="#ed2b2c" stroke-width="1" fill="#31a06b" opacity="0.010983471350789384" stroke-opacity="0.9137205801701459" transform="rotate(-28.0 400 300)" d="M 307,183  C 306,105 163,111 229,106 C 564,170 111,458 146,347 C 366,131 167,317 131,229 C 597,358 301,103 308,373 C 406,396 238,420 433,106 C 335,151 335,351 138,357 C 191,400 421,334 521,278 C 656,283 114,143 546,378 C 380,472 301,311 206,302 C 214,223 174,379 262,390 Z"></path>
<path stroke="#f27630" stroke-width="7" fill="#f9d84b" opacity="0.7855525531895493" stroke-opacity="0.4810008509070555" transform="rotate(143.0 400 300)" d="M 235,430  C 408,190 329,161 129,204 C 466,447 127,476 686,334 C 113,366 435,154 316,370 C 443,288 629,208 674,180 C 297,387 193,466 521,134 C 332,183 502,117 535,447 Z"></path>

  </g>
</svg>
