<?xml version="1.0" encoding="UTF-8"?>
<svg width="800px" height="600px" viewBox="0 0 800 600" version="1.1" xmlns="http://www.w3.org/2000/svg" xmlns:xlink="http://www.w3.org/1999/xlink">
  <defs></defs>
  <g stroke="none" stroke-width="1" fill="none" fill-rule="evenodd">
    
    <path stroke="#B124A0" stroke-width="3" fill="#2498CD" opacity="0.23321879284545735" stroke-opacity="0.25943933881174586" transform="rotate(61.0 400 300)" d="M 203,380  C 102,202 507,146 125,222 C 198,300 492,416 290,102 C 199,377 395,445 279,391 C 240,313 692,338 566,320 C 347,239 116,152 382,159 C 357,160 131,373 271,500 C 552,371 237,356 135,486 C 244,384 218,417 304,322 C 395,389 422,240 684,302 C 226,104 189,441 353,190 Z"></path>
<path stroke="#DC9B45" stroke-width="4" fill="#31A605" opacity="0.5848324953991548" stroke-opacity="0.35793217163399893" transform="rotate(-136.0 400 300)" d="M 259,116  C 147,320 461,401 390,342 C 363,391 266,146 329,248 C 478,215 572,161 559,364 C 269,117 348,284 646,341 C 295,401 644,325 167,230 C 432,138 494,358 358,250 C 694,238 496,169 185,172 Z"></path>
<path stroke="#13CC8D" stroke-width="6" fill="#495AA8" opacity="0.41760716275521176" stroke-opacity="0.4225361181211966" transform="rotate(52.0 400 300)" d="M 111,185  C 655,165 504,481 494,499 C 439,214 116,317 501,379 C 658,222 613,436 580,264 C 437,205 215,272 518,214 C 519,435 399,276 579,395 Z"></path>
<path stroke="#79CA6D" stroke-width="1" fill="#D47365" opacity="0.8656046940010419" stroke-opacity="0.37562388121379947" transform="rotate(149.0 400 300)" d="M 172,393  C 609,275 345,459 240,316 C 458,320 268,495 428,276 C 319,109 600,391 530,201 C 161,334 608,124 221,184 C 582,365 543,373 544,346 C 392,184 301,463 137,384 Z"></path>
<path stroke="#4D319C" stroke-width="3" fill="#A476DD" opacity="0.5186636439030701" stroke-opacity="0.4630708403027028" transform="rotate(-162.0 400 300)" d="M 461,364  C 457,190 284,441 543,264 C 334,332 621,222 670,248 C 419,209 133,491 583,143 C 427,348 253,133 140,350 C 645,298 351,476 235,324 Z"></path>
<path stroke="#0605D6" stroke-width="6" fill="#A90B00" opacity="0.9564522603426664" stroke-opacity="0.036147187779875516" transform="rotate(179.0 400 300)" d="M 519,253  C 153,157 383,178 364,163 C 532,257 578,104 693,193 C 468,480 530,313 645,329 C 324,460 278,271 241,465 C 294,155 550,466 699,130 C 510,105 661,326 541,366 C 585,265 102,286 287,461 Z"></path>
<path stroke="#C5C78C" stroke-width="5" fill="#CAB905" opacity="0.926897450355629" stroke-opacity="0.8758697951218292" transform="rotate(151.0 400 300)" d="M 227,270  C 500,150 345,500 638,330 C 295,238 366,128 667,168 C 186,308 263,283 504,408 C 202,423 414,105 477,458 C 563,120 277,357 117,360 C 200,283 387,180 621,237 C 470,211 528,199 514,120 Z"></path>
<path stroke="#71B578" stroke-width="5" fill="#852126" opacity="0.2682044068260496" stroke-opacity="0.3570880620045562" transform="rotate(-4.0 400 300)" d="M 454,434  C 616,473 238,256 201,209 C 399,290 681,101 564,450 C 174,322 498,466 347,149 C 489,183 532,237 199,284 C 394,238 113,297 300,239 C 131,268 642,323 642,366 Z"></path>

  </g>
</svg>
