<svg xmlns="http://www.w3.org/2000/svg" xmlns:xlink="http://www.w3.org/1999/xlink" width="800" height="600" version="1.1" viewBox="0 0 800 600"><g fill="none" fill-rule="evenodd" stroke="none" stroke-width="1"><path fill="#0fa6d8" stroke="#2cd3f3" stroke-opacity=".313" stroke-width="5" d="M 189,465 C 630,171 172,435 531,446 C 562,324 205,274 361,160 C 299,272 522,457 116,111 C 432,286 676,381 324,220 C 608,377 207,403 473,381 C 348,308 672,245 292,469 Z" opacity=".11" transform="rotate(-166.0 400 300)"/><path fill="#0fa6d8" stroke="#f559a0" stroke-opacity=".25" stroke-width="4" d="M 512,175 C 462,161 476,230 479,152 C 567,266 620,399 582,194 C 262,142 534,204 209,308 C 180,172 312,465 633,190 C 462,401 480,215 487,138 C 561,221 352,397 635,191 C 168,468 390,206 677,388 Z" opacity=".304" transform="rotate(176.0 400 300)"/><path fill="#2cd3f3" stroke="#f559a0" stroke-opacity=".348" stroke-width="2" d="M 614,194 C 597,279 277,194 117,186 C 301,362 681,131 572,376 C 665,126 417,331 226,235 C 325,102 547,426 604,441 C 296,171 578,390 356,333 Z" opacity=".705" transform="rotate(137.0 400 300)"/><path fill="#0fa6d8" stroke="#0fa6d8" stroke-opacity=".648" stroke-width="4" d="M 478,407 C 329,282 677,365 658,470 C 629,112 240,111 489,348 C 424,324 122,365 104,111 C 578,179 416,370 491,220 Z" opacity=".139" transform="rotate(15.0 400 300)"/><path fill="#f559a0" stroke="#0fa6d8" stroke-opacity=".192" stroke-width="3" d="M 355,424 C 573,415 687,162 296,237 C 371,138 435,174 416,367 C 577,410 128,349 137,420 C 425,286 564,288 505,436 Z" opacity=".441" transform="rotate(37.0 400 300)"/><path fill="#02eb6b" stroke="#fe9225" stroke-opacity=".329" stroke-width="4" d="M 540,132 C 202,296 646,313 322,276 C 386,243 404,418 646,396 C 131,161 241,435 266,486 C 115,229 113,395 306,476 C 447,388 427,458 599,305 C 185,321 102,250 576,291 Z" opacity=".026" transform="rotate(-168.0 400 300)"/><path fill="#0fa6d8" stroke="#0fa6d8" stroke-opacity=".741" stroke-width="2" d="M 118,360 C 625,342 145,251 126,128 C 314,273 232,468 304,142 C 647,174 470,120 130,311 C 198,387 573,389 350,252 C 147,275 467,278 154,194 C 397,363 289,481 134,297 Z" opacity=".387" transform="rotate(-17.0 400 300)"/><path fill="#fe9225" stroke="#02eb6b" stroke-opacity=".15" stroke-width="1" d="M 486,182 C 545,437 252,429 257,331 C 402,262 373,357 392,377 C 456,438 653,472 168,132 C 531,292 383,437 344,181 C 510,415 455,397 650,224 C 183,305 645,127 249,196 C 469,231 375,181 377,201 C 119,178 510,370 389,398 C 392,111 471,295 169,212 C 394,127 430,298 682,394 Z" opacity=".125" transform="rotate(7.0 400 300)"/><path fill="#02eb6b" stroke="#fe9225" stroke-opacity=".695" stroke-width="4" d="M 433,389 C 599,160 137,214 156,365 C 391,388 149,473 360,441 C 199,439 369,257 380,325 C 362,493 524,499 203,430 C 491,282 500,467 584,157 C 629,253 260,224 245,322 C 222,457 110,394 510,186 C 576,116 397,433 141,119 C 152,408 294,172 345,148 Z" opacity=".189" transform="rotate(-169.0 400 300)"/></g></svg>