<?xml version="1.0" encoding="UTF-8"?>
<svg width="800px" height="600px" viewBox="0 0 800 600" version="1.1" xmlns="http://www.w3.org/2000/svg" xmlns:xlink="http://www.w3.org/1999/xlink">
  <defs></defs>
  <g stroke="none" stroke-width="1" fill="none" fill-rule="evenodd">
    
    <path stroke="#2cd3f3" stroke-width="5" fill="#0fa6d8" opacity="0.11009108792578338" stroke-opacity="0.3129259151949773" transform="rotate(-166.0 400 300)" d="M 189,465  C 630,171 172,435 531,446 C 562,324 205,274 361,160 C 299,272 522,457 116,111 C 432,286 676,381 324,220 C 608,377 207,403 473,381 C 348,308 672,245 292,469 Z"></path>
<path stroke="#f559a0" stroke-width="4" fill="#0fa6d8" opacity="0.30382362830458065" stroke-opacity="0.24996924896922113" transform="rotate(176.0 400 300)" d="M 512,175  C 462,161 476,230 479,152 C 567,266 620,399 582,194 C 262,142 534,204 209,308 C 180,172 312,465 633,190 C 462,401 480,215 487,138 C 561,221 352,397 635,191 C 168,468 390,206 677,388 Z"></path>
<path stroke="#f559a0" stroke-width="2" fill="#2cd3f3" opacity="0.7046194127304697" stroke-opacity="0.3480922819677289" transform="rotate(137.0 400 300)" d="M 614,194  C 597,279 277,194 117,186 C 301,362 681,131 572,376 C 665,126 417,331 226,235 C 325,102 547,426 604,441 C 296,171 578,390 356,333 Z"></path>
<path stroke="#0fa6d8" stroke-width="4" fill="#0fa6d8" opacity="0.1392178746524433" stroke-opacity="0.6480007016438513" transform="rotate(15.0 400 300)" d="M 478,407  C 329,282 677,365 658,470 C 629,112 240,111 489,348 C 424,324 122,365 104,111 C 578,179 416,370 491,220 Z"></path>
<path stroke="#0fa6d8" stroke-width="3" fill="#f559a0" opacity="0.4411625317875254" stroke-opacity="0.19223772992336338" transform="rotate(37.0 400 300)" d="M 355,424  C 573,415 687,162 296,237 C 371,138 435,174 416,367 C 577,410 128,349 137,420 C 425,286 564,288 505,436 Z"></path>
<path stroke="#fe9225" stroke-width="4" fill="#02eb6b" opacity="0.026048650306943907" stroke-opacity="0.3290733095113107" transform="rotate(-168.0 400 300)" d="M 540,132  C 202,296 646,313 322,276 C 386,243 404,418 646,396 C 131,161 241,435 266,486 C 115,229 113,395 306,476 C 447,388 427,458 599,305 C 185,321 102,250 576,291 Z"></path>
<path stroke="#0fa6d8" stroke-width="2" fill="#0fa6d8" opacity="0.38708119111882905" stroke-opacity="0.7407934781937912" transform="rotate(-17.0 400 300)" d="M 118,360  C 625,342 145,251 126,128 C 314,273 232,468 304,142 C 647,174 470,120 130,311 C 198,387 573,389 350,252 C 147,275 467,278 154,194 C 397,363 289,481 134,297 Z"></path>
<path stroke="#02eb6b" stroke-width="1" fill="#fe9225" opacity="0.12516838847085365" stroke-opacity="0.15034677743137032" transform="rotate(7.0 400 300)" d="M 486,182  C 545,437 252,429 257,331 C 402,262 373,357 392,377 C 456,438 653,472 168,132 C 531,292 383,437 344,181 C 510,415 455,397 650,224 C 183,305 645,127 249,196 C 469,231 375,181 377,201 C 119,178 510,370 389,398 C 392,111 471,295 169,212 C 394,127 430,298 682,394 Z"></path>
<path stroke="#fe9225" stroke-width="4" fill="#02eb6b" opacity="0.1888263663730721" stroke-opacity="0.6951986841225438" transform="rotate(-169.0 400 300)" d="M 433,389  C 599,160 137,214 156,365 C 391,388 149,473 360,441 C 199,439 369,257 380,325 C 362,493 524,499 203,430 C 491,282 500,467 584,157 C 629,253 260,224 245,322 C 222,457 110,394 510,186 C 576,116 397,433 141,119 C 152,408 294,172 345,148 Z"></path>

  </g>
</svg>
