<svg xmlns="http://www.w3.org/2000/svg" xmlns:xlink="http://www.w3.org/1999/xlink" width="800" height="600" version="1.1" viewBox="0 0 800 600"><g fill="none" fill-rule="evenodd" stroke="none" stroke-width="1"><polygon fill="#f559a0" stroke="#0fa6d8" stroke-opacity=".786" stroke-width="7" points="539 351 279 350 391 82 68 43 267 566" opacity=".95" transform="rotate(112.0 400 300)"/><ellipse cx="554" cy="394" fill="#0fa6d8" stroke="#0fa6d8" stroke-opacity=".785" stroke-width="1" opacity=".432" rx="215" ry="101" transform="rotate(-106.0 400 300)"/><rect width="294" height="100" x="24" y="359" fill="#2cd3f3" stroke="#2cd3f3" stroke-opacity=".576" stroke-width="5" opacity=".239" transform="rotate(-76.0 400 300)"/><polygon fill="#0fa6d8" stroke="#02eb6b" stroke-opacity=".192" stroke-width="1" points="130 126 606 334 729 600 38 160 512 452 96 221" opacity=".751" transform="rotate(-177.0 400 300)"/><polygon fill="#0fa6d8" stroke="#2cd3f3" stroke-opacity=".505" stroke-width="4" points="296 305 758 47 641 462 58 157 485 49 506 157" opacity=".515" transform="rotate(98.0 400 300)"/><rect width="294" height="259" x="363" y="67" fill="#2cd3f3" stroke="#02eb6b" stroke-opacity=".807" stroke-width="7" opacity=".087" transform="rotate(85.0 400 300)"/><rect width="379" height="197" x="9" y="200" fill="#2cd3f3" stroke="#f559a0" stroke-opacity=".275" stroke-width="1" opacity=".621" transform="rotate(178.0 400 300)"/><polygon fill="#2cd3f3" stroke="#fe9225" stroke-opacity=".549" stroke-width="1" points="361 170 704 159 702 112 126 451 589 399 486 120 691 240 493 568" opacity=".526" transform="rotate(178.0 400 300)"/><path fill="#f559a0" stroke="#0fa6d8" stroke-opacity=".545" stroke-width="5" d="M 322,176 C 151,276 619,351 124,440 C 363,494 517,358 268,152 C 526,400 194,289 333,148 C 524,368 367,469 179,221 C 519,452 626,365 542,235 C 382,424 122,453 208,327 C 503,171 377,147 102,303 Z" opacity=".519" transform="rotate(111.0 400 300)"/></g></svg>