<?xml version="1.0" encoding="UTF-8"?>
<svg width="800px" height="600px" viewBox="0 0 800 600" version="1.1" xmlns="http://www.w3.org/2000/svg" xmlns:xlink="http://www.w3.org/1999/xlink">
  <defs></defs>
  <g stroke="none" stroke-width="1" fill="none" fill-rule="evenodd">
    
    <path stroke="#2cd3f3" stroke-width="1" fill="#f559a0" opacity="0.5970188999734279" stroke-opacity="0.4332371612751806" transform="rotate(5.0 400 300)" d="M 600,399  C 511,472 617,231 611,497 C 543,404 374,215 183,262 C 182,397 687,280 415,180 C 103,338 390,156 505,103 C 312,338 218,312 691,430 C 177,328 186,375 255,229 C 167,344 170,353 291,215 C 328,244 197,482 173,199 C 303,418 215,245 197,212 C 346,102 337,384 572,470 Z"></path>
<path stroke="#fe9225" stroke-width="7" fill="#0fa6d8" opacity="0.8390435446296352" stroke-opacity="0.6492553431153011" transform="rotate(-25.0 400 300)" d="M 569,360  C 498,201 463,138 544,360 C 375,191 374,195 282,357 C 138,235 246,112 281,116 C 372,407 607,147 349,294 C 332,324 357,201 365,274 C 603,324 661,302 682,101 C 678,363 390,402 404,345 C 335,224 573,412 440,204 C 514,147 535,494 554,136 Z"></path>
<path stroke="#f559a0" stroke-width="3" fill="#f559a0" opacity="0.0038805822835959714" stroke-opacity="0.07395292301936483" transform="rotate(103.0 400 300)" d="M 418,429  C 352,188 408,422 380,271 C 121,173 329,305 635,239 C 520,320 598,431 239,305 C 439,253 196,495 361,498 C 528,484 664,261 597,393 Z"></path>
<path stroke="#2cd3f3" stroke-width="1" fill="#02eb6b" opacity="0.12478537542599441" stroke-opacity="0.001871388566270686" transform="rotate(10.0 400 300)" d="M 237,325  C 520,258 173,162 408,205 C 423,432 577,173 324,185 C 312,387 583,445 524,260 C 158,163 674,399 629,419 Z"></path>
<path stroke="#0fa6d8" stroke-width="5" fill="#02eb6b" opacity="0.9607536060868098" stroke-opacity="0.8152597129334584" transform="rotate(-60.0 400 300)" d="M 675,373  C 111,438 554,417 390,291 C 410,172 359,165 645,188 C 410,166 525,324 587,206 C 264,145 547,395 306,459 C 668,267 197,122 247,306 C 430,237 570,352 319,154 C 408,350 152,300 483,320 Z"></path>
<path stroke="#2cd3f3" stroke-width="3" fill="#f559a0" opacity="0.9544256411821788" stroke-opacity="0.05163949362065395" transform="rotate(6.0 400 300)" d="M 476,216  C 409,485 105,248 427,255 C 102,326 201,448 276,377 C 420,303 309,216 598,341 C 148,457 672,423 534,442 C 380,329 674,417 650,107 C 251,111 280,105 120,282 C 482,456 416,270 586,286 C 357,225 468,410 156,442 Z"></path>
<path stroke="#f559a0" stroke-width="3" fill="#02eb6b" opacity="0.02723377522311516" stroke-opacity="0.06675716509340261" transform="rotate(60.0 400 300)" d="M 369,399  C 474,484 159,360 496,134 C 586,493 347,236 526,414 C 456,416 173,202 177,330 C 644,447 153,362 324,434 C 259,418 216,464 393,279 C 502,104 534,477 510,439 C 184,217 615,489 562,445 Z"></path>
<path stroke="#02eb6b" stroke-width="5" fill="#0fa6d8" opacity="0.4648473945047363" stroke-opacity="0.8781814598948928" transform="rotate(-134.0 400 300)" d="M 148,257  C 524,305 214,109 532,315 C 372,394 306,140 224,116 C 415,494 405,373 203,301 C 165,225 305,367 257,465 C 602,173 515,364 434,167 C 575,460 167,320 403,455 C 519,334 372,314 695,266 C 307,135 301,142 210,267 C 594,217 585,202 536,105 C 665,296 664,344 111,202 Z"></path>
<path stroke="#0fa6d8" stroke-width="5" fill="#2cd3f3" opacity="0.07661627139770967" stroke-opacity="0.8809787910890527" transform="rotate(-73.0 400 300)" d="M 660,205  C 203,297 373,135 297,473 C 229,194 311,432 293,386 C 619,204 252,252 520,434 C 692,227 182,112 567,150 C 267,327 203,385 685,284 C 312,148 625,332 363,447 C 347,437 151,153 536,187 C 622,381 162,167 565,127 C 130,346 266,325 424,329 C 443,214 409,376 264,314 Z"></path>

  </g>
</svg>
