<svg xmlns="http://www.w3.org/2000/svg" xmlns:xlink="http://www.w3.org/1999/xlink" width="800" height="600" version="1.1" viewBox="0 0 800 600"><g fill="none" fill-rule="evenodd" stroke="none" stroke-width="1"><path fill="#B680AB" stroke="#D3D056" stroke-opacity=".459" stroke-width="2" d="M 297,189 C 283,491 388,316 289,351 C 507,173 209,283 693,187 C 678,469 629,241 102,147 C 232,232 600,358 445,116 C 229,223 342,276 117,155 Z" opacity=".202" transform="rotate(-174.0 400 300)"/><path fill="#5B7343" stroke="#CD8008" stroke-opacity=".051" stroke-width="4" d="M 601,214 C 466,155 212,290 301,295 C 643,404 172,402 698,321 C 617,177 621,313 347,359 C 267,227 674,232 378,351 C 526,186 351,175 646,434 C 695,489 305,474 571,246 C 277,425 118,322 611,156 C 270,394 330,147 568,160 C 275,385 203,203 492,413 Z" opacity=".728" transform="rotate(5.0 400 300)"/><path fill="#18D464" stroke="#117946" stroke-opacity=".489" stroke-width="5" d="M 372,277 C 183,442 535,318 495,189 C 483,256 670,386 215,387 C 402,380 205,201 620,134 C 140,167 225,297 530,321 C 574,217 545,197 142,348 C 326,462 332,487 278,306 C 482,125 374,426 165,232 C 595,242 351,489 609,218 C 470,159 664,207 515,138 C 620,277 351,140 522,392 C 120,221 353,157 351,440 Z" opacity=".168" transform="rotate(1.0 400 300)"/><path fill="#8729A4" stroke="#D0D511" stroke-opacity=".247" stroke-width="4" d="M 173,339 C 535,454 393,481 153,189 C 177,235 178,169 662,465 C 369,246 202,369 632,169 C 431,313 397,400 210,479 C 519,135 557,252 607,216 C 638,286 478,225 448,130 C 659,132 599,263 200,194 C 621,408 212,312 558,135 C 483,111 131,412 520,232 Z" opacity=".63" transform="rotate(143.0 400 300)"/><path fill="#401622" stroke="#D17272" stroke-opacity=".014" stroke-width="4" d="M 525,159 C 531,347 628,409 672,446 C 163,101 346,130 120,327 C 397,421 389,416 676,498 C 147,365 611,451 116,237 C 314,349 269,451 271,395 C 241,211 455,169 375,193 C 514,450 627,195 521,403 C 695,176 399,235 288,387 C 220,482 551,115 273,424 Z" opacity=".207" transform="rotate(3.0 400 300)"/><path fill="#537536" stroke="#A02DB3" stroke-opacity=".304" stroke-width="1" d="M 162,265 C 235,328 487,448 259,244 C 626,107 648,363 260,409 C 334,336 684,385 220,336 C 678,114 420,175 419,134 Z" opacity=".976" transform="rotate(13.0 400 300)"/><path fill="#B8B7A8" stroke="#2162A4" stroke-opacity=".609" stroke-width="2" d="M 209,231 C 497,221 433,416 336,107 C 266,186 143,217 143,414 C 457,262 607,316 686,323 C 274,435 640,441 473,346 C 291,352 239,239 290,221 C 697,174 160,482 131,458 C 342,453 577,399 280,152 C 312,483 542,447 177,266 C 553,496 633,258 293,400 C 296,460 189,500 278,419 Z" opacity=".037" transform="rotate(1.0 400 300)"/><path fill="#0882B0" stroke="#748484" stroke-opacity=".428" stroke-width="1" d="M 309,179 C 609,194 129,362 310,469 C 208,242 345,435 613,167 C 523,345 617,339 410,478 C 461,190 697,392 613,431 C 161,243 204,449 160,429 C 621,193 519,178 692,427 Z" opacity=".622" transform="rotate(54.0 400 300)"/></g></svg>