<?xml version="1.0" encoding="UTF-8"?>
<svg width="800px" height="600px" viewBox="0 0 800 600" version="1.1" xmlns="http://www.w3.org/2000/svg" xmlns:xlink="http://www.w3.org/1999/xlink">
  <defs></defs>
  <g stroke="none" stroke-width="1" fill="none" fill-rule="evenodd">
    
    <path stroke="#31a06b" stroke-width="3" fill="#ed2b2c" opacity="0.37653435445874367" stroke-opacity="0.34311885983807133" transform="rotate(153.0 400 300)" d="M 288,137  C 534,462 128,396 548,319 C 271,215 302,202 353,377 C 531,242 435,123 442,400 C 682,118 499,498 132,415 Z"></path>
<path stroke="#f27630" stroke-width="3" fill="#ed2b2c" opacity="0.6439108030674194" stroke-opacity="0.7064954737621227" transform="rotate(111.0 400 300)" d="M 194,336  C 271,365 281,302 188,350 C 311,279 437,313 507,343 C 404,331 282,414 534,157 C 598,373 311,492 664,481 C 480,496 495,113 283,384 C 249,117 169,225 629,407 C 593,370 319,249 491,310 C 397,438 481,335 677,449 C 224,384 597,181 541,233 C 579,271 216,495 141,363 C 530,230 361,270 525,425 Z"></path>
<path stroke="#f9d84b" stroke-width="4" fill="#2b55f7" opacity="0.08606267783546585" stroke-opacity="0.2830807618885877" transform="rotate(13.0 400 300)" d="M 613,125  C 221,103 696,397 218,466 C 561,373 322,438 557,185 C 213,270 523,438 138,195 C 464,324 220,118 101,369 C 513,103 134,466 346,408 C 348,232 363,397 337,488 C 230,145 423,313 285,340 C 419,442 392,264 586,280 C 660,352 441,327 205,307 C 236,488 552,298 239,386 Z"></path>
<path stroke="#2b55f7" stroke-width="1" fill="#f27630" opacity="0.3502349792780415" stroke-opacity="0.9371741014699767" transform="rotate(4.0 400 300)" d="M 645,304  C 485,365 382,461 153,134 C 469,166 247,314 482,174 C 513,423 412,253 499,425 C 662,321 292,489 295,129 Z"></path>
<path stroke="#f9d84b" stroke-width="7" fill="#ed2b2c" opacity="0.7365721978415336" stroke-opacity="0.6262338818289248" transform="rotate(-8.0 400 300)" d="M 681,154  C 291,302 603,450 514,246 C 395,168 697,430 464,332 C 615,241 167,418 375,299 C 198,485 673,235 215,207 C 534,265 564,321 206,349 C 560,478 657,239 351,320 C 699,496 443,162 488,488 C 211,360 118,473 524,491 C 309,447 212,222 585,186 C 418,490 228,197 511,198 C 581,185 477,329 596,459 Z"></path>
<path stroke="#f9d84b" stroke-width="7" fill="#f27630" opacity="0.08504741798065722" stroke-opacity="0.349979052298241" transform="rotate(-49.0 400 300)" d="M 459,430  C 379,311 110,261 598,433 C 438,279 132,306 550,331 C 277,196 216,428 344,150 C 589,285 333,134 570,313 C 340,364 310,355 393,169 Z"></path>
<path stroke="#31a06b" stroke-width="5" fill="#f27630" opacity="0.24109833449815946" stroke-opacity="0.24519972227554457" transform="rotate(-56.0 400 300)" d="M 636,398  C 684,324 682,305 381,319 C 415,302 397,170 340,325 C 304,414 109,172 676,431 C 193,295 366,208 256,390 C 230,324 362,422 163,293 C 567,496 618,119 438,269 C 105,198 674,380 663,285 C 385,248 268,170 281,149 C 573,305 454,408 542,154 C 551,181 598,263 428,430 Z"></path>
<path stroke="#2b55f7" stroke-width="6" fill="#31a06b" opacity="0.428178833674467" stroke-opacity="0.6262427396392972" transform="rotate(48.0 400 300)" d="M 667,243  C 255,445 289,126 558,131 C 700,447 362,131 141,306 C 195,374 261,142 560,187 C 610,396 550,138 478,136 C 659,314 656,487 578,375 C 428,400 503,243 203,312 C 375,418 499,428 594,423 C 524,125 317,294 640,458 C 691,222 589,283 119,398 C 382,194 319,457 106,444 C 594,109 649,201 294,213 Z"></path>
<path stroke="#f9d84b" stroke-width="5" fill="#ed2b2c" opacity="0.7960535829494011" stroke-opacity="0.5705548545307775" transform="rotate(87.0 400 300)" d="M 270,392  C 485,357 355,471 556,475 C 389,238 259,107 494,373 C 582,347 444,376 577,250 C 210,169 626,194 139,357 C 166,170 308,372 574,391 C 141,433 185,210 387,137 C 351,479 143,159 589,188 C 544,140 670,124 146,202 C 420,119 379,314 216,441 C 486,155 290,379 547,345 Z"></path>

  </g>
</svg>
