<svg xmlns="http://www.w3.org/2000/svg" xmlns:xlink="http://www.w3.org/1999/xlink" width="800" height="600" version="1.1" viewBox="0 0 800 600"><g fill="none" fill-rule="evenodd" stroke="none" stroke-width="1"><path fill="#f27630" stroke="#f27630" stroke-opacity=".102" stroke-width="4" d="M 528,488 C 264,137 611,404 334,302 C 134,111 356,296 501,216 C 564,217 198,339 643,239 C 588,351 430,157 451,316 C 534,489 329,118 466,201 C 440,391 328,215 260,195 Z" opacity=".253" transform="rotate(-90.0 400 300)"/><path fill="#ed2b2c" stroke="#ed2b2c" stroke-opacity=".857" stroke-width="3" d="M 676,480 C 138,352 146,139 308,125 C 131,263 546,266 565,206 C 413,303 409,355 412,331 C 627,199 198,152 447,442 C 122,327 661,248 674,222 C 336,216 313,267 611,239 C 319,480 391,173 135,450 C 693,409 451,235 497,260 C 296,447 524,272 352,156 C 436,229 542,362 448,189 C 254,455 166,323 308,454 Z" opacity=".873" transform="rotate(-71.0 400 300)"/><path fill="#31a06b" stroke="#2b55f7" stroke-opacity=".024" stroke-width="7" d="M 619,261 C 115,290 206,238 119,168 C 656,253 420,119 553,186 C 328,450 684,390 562,472 C 163,392 187,368 538,384 C 201,149 313,447 686,186 C 356,454 534,307 673,301 C 236,464 312,317 130,254 C 466,348 176,121 435,215 C 599,400 184,123 312,296 C 284,225 445,467 212,311 Z" opacity=".187" transform="rotate(-55.0 400 300)"/><path fill="#f27630" stroke="#f27630" stroke-opacity=".97" stroke-width="2" d="M 207,368 C 456,373 604,351 341,256 C 635,104 475,305 246,284 C 481,342 696,231 265,487 C 620,435 346,357 367,277 C 301,263 674,145 330,174 C 547,375 112,259 494,264 Z" opacity=".55" transform="rotate(74.0 400 300)"/><path fill="#ed2b2c" stroke="#f27630" stroke-opacity=".259" stroke-width="2" d="M 126,188 C 629,310 445,227 459,233 C 531,271 449,279 145,119 C 101,473 670,469 492,166 C 679,389 602,121 146,420 Z" opacity=".226" transform="rotate(-72.0 400 300)"/><path fill="#ed2b2c" stroke="#31a06b" stroke-opacity=".379" stroke-width="7" d="M 408,327 C 270,370 625,359 658,205 C 314,131 609,148 130,315 C 626,421 467,263 155,199 C 492,178 137,405 628,228 C 270,460 419,303 214,471 C 435,424 423,398 350,384 C 313,279 279,256 602,451 Z" opacity=".619" transform="rotate(46.0 400 300)"/><path fill="#2b55f7" stroke="#f9d84b" stroke-opacity=".675" stroke-width="6" d="M 349,285 C 562,492 412,354 213,209 C 329,106 578,115 392,387 C 555,437 484,260 288,261 C 692,157 359,161 573,431 C 377,196 473,314 338,311 C 364,409 674,125 104,448 C 238,143 278,187 529,426 C 193,108 645,144 245,435 Z" opacity=".434" transform="rotate(37.0 400 300)"/></g></svg>