<svg xmlns="http://www.w3.org/2000/svg" xmlns:xlink="http://www.w3.org/1999/xlink" width="800" height="600" version="1.1" viewBox="0 0 800 600"><g fill="none" fill-rule="evenodd" stroke="none" stroke-width="1"><ellipse cx="21" cy="100" fill="#02eb6b" stroke="#0fa6d8" stroke-opacity=".614" stroke-width="2" opacity=".17" rx="355" ry="162" transform="rotate(75.0 400 300)"/><rect width="137" height="114" x="296" y="411" fill="#0fa6d8" stroke="#0fa6d8" stroke-opacity=".689" stroke-width="7" opacity=".858" transform="rotate(-63.0 400 300)"/><ellipse cx="460" cy="58" fill="#fe9225" stroke="#fe9225" stroke-opacity=".321" stroke-width="4" opacity=".692" rx="139" ry="225" transform="rotate(-164.0 400 300)"/><path fill="#fe9225" stroke="#fe9225" stroke-opacity=".802" stroke-width="7" d="M 694,442 C 418,217 180,376 113,164 C 470,304 194,431 467,118 C 640,271 667,253 653,330 C 286,305 415,340 469,460 C 144,333 627,169 633,266 C 529,310 471,279 197,182 C 279,339 411,328 545,322 C 576,369 696,293 185,320 C 699,460 427,477 642,133 C 434,204 414,477 488,201 Z" opacity=".401" transform="rotate(13.0 400 300)"/><polygon fill="#0fa6d8" stroke="#f559a0" stroke-opacity=".755" stroke-width="3" points="457 198 97 508 130 488 516 499 221 409 231 99 69 396" opacity=".095" transform="rotate(85.0 400 300)"/><ellipse cx="566" cy="443" fill="#0fa6d8" stroke="#02eb6b" stroke-opacity=".753" stroke-width="2" opacity=".571" rx="117" ry="121" transform="rotate(79.0 400 300)"/></g></svg>