<?xml version="1.0" encoding="UTF-8"?>
<svg width="800px" height="600px" viewBox="0 0 800 600" version="1.1" xmlns="http://www.w3.org/2000/svg" xmlns:xlink="http://www.w3.org/1999/xlink">
  <defs></defs>
  <g stroke="none" stroke-width="1" fill="none" fill-rule="evenodd">
    
    <path stroke="#f559a0" stroke-width="6" fill="#2cd3f3" opacity="0.923910416940987" stroke-opacity="0.31324344198686455" transform="rotate(176.0 400 300)" d="M 360,354  C 201,493 152,472 543,425 C 386,409 633,225 308,407 C 455,379 475,447 555,333 C 276,481 255,298 452,176 Z"></path>
<path stroke="#f559a0" stroke-width="2" fill="#02eb6b" opacity="0.9599501212649376" stroke-opacity="0.27853087139308946" transform="rotate(-111.0 400 300)" d="M 479,176  C 419,158 587,163 232,362 C 271,472 385,371 191,140 C 478,299 543,339 160,378 C 561,474 578,188 293,422 C 142,168 430,457 425,111 C 478,311 443,253 525,246 C 145,244 507,238 288,458 C 557,193 448,463 438,190 C 528,360 426,397 549,437 Z"></path>
<path stroke="#02eb6b" stroke-width="5" fill="#2cd3f3" opacity="0.17929699571249597" stroke-opacity="0.2339093046944633" transform="rotate(1.0 400 300)" d="M 679,414  C 567,132 656,336 247,467 C 298,467 196,427 384,174 C 134,424 563,376 468,241 C 622,377 410,471 498,452 Z"></path>
<path stroke="#f559a0" stroke-width="3" fill="#fe9225" opacity="0.6520730994382995" stroke-opacity="0.309955419220709" transform="rotate(125.0 400 300)" d="M 181,217  C 504,181 529,398 557,259 C 180,452 655,348 272,406 C 218,212 610,381 534,244 C 641,194 293,152 393,147 C 477,419 370,182 219,447 C 467,189 227,242 375,417 C 179,467 633,297 668,411 C 344,343 627,454 264,153 C 497,383 123,258 426,379 C 337,371 313,297 521,345 C 526,234 317,143 496,440 Z"></path>
<path stroke="#2cd3f3" stroke-width="3" fill="#0fa6d8" opacity="0.23732616675888638" stroke-opacity="0.31056898618725565" transform="rotate(2.0 400 300)" d="M 403,129  C 583,222 365,226 490,461 C 674,237 141,433 397,454 C 168,154 686,279 202,321 C 608,150 302,469 472,445 Z"></path>
<path stroke="#0fa6d8" stroke-width="3" fill="#0fa6d8" opacity="0.7680381787246364" stroke-opacity="0.6087982824555311" transform="rotate(31.0 400 300)" d="M 392,250  C 380,434 326,439 403,394 C 426,267 443,486 220,299 C 515,446 469,457 394,461 C 396,478 439,264 574,229 C 429,137 273,323 693,204 C 261,231 320,137 217,136 C 448,444 241,326 223,492 C 439,222 228,406 570,179 Z"></path>
<path stroke="#fe9225" stroke-width="1" fill="#2cd3f3" opacity="0.02873469275992081" stroke-opacity="0.26572508582269294" transform="rotate(113.0 400 300)" d="M 176,375  C 695,405 225,245 460,217 C 183,151 197,243 668,395 C 200,491 601,434 371,270 C 200,430 174,351 343,343 C 517,445 327,485 138,432 C 405,267 461,152 600,155 C 182,166 632,460 444,399 C 108,270 509,138 335,374 C 192,314 527,140 437,319 C 623,368 443,113 197,391 C 165,125 237,278 655,143 Z"></path>
<path stroke="#0fa6d8" stroke-width="2" fill="#2cd3f3" opacity="0.19870394998333896" stroke-opacity="0.9982676321615837" transform="rotate(123.0 400 300)" d="M 148,186  C 364,277 186,490 436,415 C 692,251 665,386 604,252 C 631,199 580,105 135,427 C 549,423 674,450 623,495 C 168,242 636,105 315,426 C 419,149 125,309 311,386 C 294,350 516,314 344,234 C 251,338 501,292 214,127 Z"></path>
<path stroke="#02eb6b" stroke-width="1" fill="#fe9225" opacity="0.8566503734412928" stroke-opacity="0.2914231868357264" transform="rotate(96.0 400 300)" d="M 659,458  C 587,405 563,423 588,399 C 174,308 652,139 517,247 C 171,253 426,337 673,210 C 341,233 232,112 518,255 C 366,216 308,232 230,161 C 114,482 293,475 692,119 C 361,106 188,182 432,161 Z"></path>
<path stroke="#fe9225" stroke-width="6" fill="#0fa6d8" opacity="0.6631374657640384" stroke-opacity="0.444632974672091" transform="rotate(107.0 400 300)" d="M 470,334  C 597,101 599,289 102,309 C 487,369 259,311 391,313 C 677,236 673,428 101,427 C 677,392 501,272 288,350 Z"></path>

  </g>
</svg>
