<?xml version="1.0" encoding="UTF-8"?>
<svg width="800px" height="600px" viewBox="0 0 800 600" version="1.1" xmlns="http://www.w3.org/2000/svg" xmlns:xlink="http://www.w3.org/1999/xlink">
  <defs></defs>
  <g stroke="none" stroke-width="1" fill="none" fill-rule="evenodd">
    
    <path stroke="#31a06b" stroke-width="2" fill="#f27630" opacity="0.9712073348597021" stroke-opacity="0.2974761359220704" transform="rotate(-127.0 400 300)" d="M 240,105  C 318,257 692,113 138,104 C 248,417 499,364 341,108 C 267,471 138,393 118,301 C 498,288 690,190 474,178 C 497,186 698,156 662,275 Z"></path>
<path stroke="#31a06b" stroke-width="1" fill="#2b55f7" opacity="0.8247142522504918" stroke-opacity="0.6813214606428838" transform="rotate(121.0 400 300)" d="M 173,269  C 411,460 303,471 290,323 C 389,108 343,272 286,400 C 270,187 491,272 243,190 C 396,166 595,283 528,394 C 652,162 693,273 426,128 C 658,316 172,342 271,349 C 294,162 223,283 677,296 C 640,376 699,105 442,380 C 590,126 522,104 459,363 C 447,259 249,459 588,372 C 390,423 609,482 303,143 Z"></path>
<path stroke="#2b55f7" stroke-width="6" fill="#f9d84b" opacity="0.7924602899803848" stroke-opacity="0.18092657907574036" transform="rotate(-6.0 400 300)" d="M 125,398  C 353,107 600,326 604,272 C 120,375 636,121 291,254 C 406,228 129,374 135,166 C 599,439 486,350 270,302 C 238,459 646,219 415,140 Z"></path>
<path stroke="#31a06b" stroke-width="3" fill="#ed2b2c" opacity="0.994946739286812" stroke-opacity="0.6937460275237408" transform="rotate(-16.0 400 300)" d="M 600,272  C 198,249 499,265 160,395 C 205,475 245,269 570,113 C 573,160 299,429 680,171 C 315,272 583,305 583,479 C 592,409 315,383 558,355 C 471,172 280,428 633,295 Z"></path>
<path stroke="#ed2b2c" stroke-width="1" fill="#31a06b" opacity="0.4785919028095446" stroke-opacity="0.020870452746387942" transform="rotate(-85.0 400 300)" d="M 231,410  C 124,220 571,428 323,313 C 124,382 461,159 278,431 C 465,180 355,402 135,235 C 369,314 413,464 193,333 C 151,192 635,180 500,197 C 287,466 149,283 380,374 C 658,403 378,251 371,197 C 674,400 234,312 387,122 C 353,102 662,312 267,497 C 354,101 225,292 422,375 Z"></path>
<path stroke="#31a06b" stroke-width="1" fill="#31a06b" opacity="0.963306078269709" stroke-opacity="0.8989818381422933" transform="rotate(156.0 400 300)" d="M 162,105  C 128,281 531,281 585,117 C 230,374 243,205 196,388 C 266,150 449,335 102,221 C 510,403 233,347 485,336 C 118,180 451,490 512,121 Z"></path>
<path stroke="#31a06b" stroke-width="1" fill="#31a06b" opacity="0.14838215530767837" stroke-opacity="0.821420494632664" transform="rotate(-92.0 400 300)" d="M 632,497  C 648,324 475,120 223,264 C 174,383 240,391 255,400 C 270,166 269,128 162,434 C 527,249 519,328 182,452 C 312,470 688,254 461,107 C 209,139 247,250 605,406 C 550,364 574,267 600,252 C 364,494 329,259 281,467 C 246,303 366,219 619,215 C 145,389 595,397 571,117 Z"></path>
<path stroke="#f27630" stroke-width="1" fill="#31a06b" opacity="0.6631134099507886" stroke-opacity="0.43125859462006705" transform="rotate(-150.0 400 300)" d="M 236,339  C 570,357 124,227 683,477 C 196,147 426,309 562,435 C 200,417 403,350 139,355 C 370,382 629,392 178,334 C 156,277 623,147 488,220 C 588,211 633,276 439,250 C 502,237 683,285 470,240 C 164,225 383,107 685,413 C 146,202 685,157 196,310 C 468,282 524,333 149,186 C 511,341 573,220 412,406 Z"></path>
<path stroke="#31a06b" stroke-width="5" fill="#2b55f7" opacity="0.7649437949435618" stroke-opacity="0.8909792982819451" transform="rotate(14.0 400 300)" d="M 215,120  C 658,321 335,214 102,397 C 571,162 500,433 523,364 C 447,411 139,198 579,279 C 463,232 470,235 219,345 C 692,442 461,473 610,151 C 563,336 471,487 256,421 Z"></path>
<path stroke="#ed2b2c" stroke-width="4" fill="#2b55f7" opacity="0.7171141899213719" stroke-opacity="0.25595518195162253" transform="rotate(-10.0 400 300)" d="M 537,346  C 256,480 410,268 468,140 C 398,418 430,460 340,289 C 473,350 646,382 468,475 C 359,112 490,307 481,431 Z"></path>
<path stroke="#f27630" stroke-width="7" fill="#31a06b" opacity="0.9360087528167323" stroke-opacity="0.7836989520276131" transform="rotate(-122.0 400 300)" d="M 474,241  C 533,272 191,159 251,352 C 589,291 315,494 600,271 C 455,464 531,298 251,303 C 206,450 466,294 318,118 C 206,465 558,195 131,156 C 366,221 429,434 635,427 C 470,144 579,269 526,203 C 662,415 436,185 451,441 Z"></path>

  </g>
</svg>
