<svg xmlns="http://www.w3.org/2000/svg" xmlns:xlink="http://www.w3.org/1999/xlink" width="800" height="600" version="1.1" viewBox="0 0 800 600"><g fill="none" fill-rule="evenodd" stroke="none" stroke-width="1"><rect width="183" height="194" x="104" y="236" fill="#790651" stroke="#1A63DA" stroke-opacity=".45" stroke-width="7" opacity=".427" transform="rotate(-21.0 400 300)"/><polygon fill="#525352" stroke="#1A59AC" stroke-opacity=".65" stroke-width="4" points="312 61 540 134 413 594 251 580 248 110 637 572 369 287" opacity=".273" transform="rotate(-60.0 400 300)"/><polygon fill="#348260" stroke="#1C4498" stroke-opacity=".085" stroke-width="6" points="147 350 799 406 7 488 396 67 583 239 482 490 113 400 406 168" opacity=".153" transform="rotate(-80.0 400 300)"/><path fill="#9A0649" stroke="#940238" stroke-opacity=".055" stroke-width="3" d="M 518,255 C 686,125 355,341 446,452 C 175,385 109,477 431,360 C 142,298 514,489 157,370 C 146,429 383,460 517,144 C 484,405 101,476 487,441 C 116,148 440,262 697,103 C 450,449 137,314 300,336 C 120,497 356,429 410,335 C 569,498 129,378 204,239 C 264,240 568,115 514,224 Z" opacity=".828" transform="rotate(73.0 400 300)"/><rect width="30" height="374" x="245" y="302" fill="#8B02CA" stroke="#053D93" stroke-opacity=".439" stroke-width="3" opacity=".602" transform="rotate(77.0 400 300)"/><polygon fill="#488695" stroke="#8AA582" stroke-opacity=".056" stroke-width="4" points="779 300 797 88 711 543 62 448 451 416" opacity=".81" transform="rotate(-44.0 400 300)"/><rect width="388" height="221" x="401" y="561" fill="#23A927" stroke="#11518D" stroke-opacity=".802" stroke-width="2" opacity=".184" transform="rotate(13.0 400 300)"/><ellipse cx="370" cy="147" fill="#DC9A73" stroke="#566536" stroke-opacity=".472" stroke-width="1" opacity=".789" rx="40" ry="195" transform="rotate(23.0 400 300)"/></g></svg>