<svg xmlns="http://www.w3.org/2000/svg" xmlns:xlink="http://www.w3.org/1999/xlink" width="800" height="600" version="1.1" viewBox="0 0 800 600"><g fill="none" fill-rule="evenodd" stroke="none" stroke-width="1"><ellipse cx="584" cy="51" fill="#D1B153" stroke="#DDD382" stroke-opacity=".793" stroke-width="1" opacity=".273" rx="35" ry="281" transform="rotate(-120.0 400 300)"/><polygon fill="#6C74D5" stroke="#270D39" stroke-opacity=".074" stroke-width="5" points="759 41 699 73 152 113 254 384 503 571 446 524 69 579" opacity=".567" transform="rotate(-174.0 400 300)"/><ellipse cx="1" cy="424" fill="#14C741" stroke="#889C22" stroke-opacity=".498" stroke-width="7" opacity=".722" rx="343" ry="116" transform="rotate(93.0 400 300)"/><rect width="143" height="399" x="722" y="72" fill="#B31C82" stroke="#2C2097" stroke-opacity=".937" stroke-width="5" opacity=".584" transform="rotate(-131.0 400 300)"/><polygon fill="#B06ABD" stroke="#C6104B" stroke-opacity=".036" stroke-width="1" points="12 50 754 35 201 193 428 142 227 231 557 21" opacity=".783" transform="rotate(-155.0 400 300)"/><path fill="#BD4111" stroke="#521C6D" stroke-opacity=".721" stroke-width="2" d="M 471,162 C 111,303 325,381 664,427 C 423,193 571,478 416,337 C 203,393 620,373 199,131 C 538,487 227,437 176,213 C 136,430 354,437 333,396 C 405,178 252,261 647,260 C 219,210 657,483 336,474 C 489,400 365,231 500,170 Z" opacity=".522" transform="rotate(128.0 400 300)"/><ellipse cx="465" cy="475" fill="#248902" stroke="#55A0A2" stroke-opacity=".849" stroke-width="5" opacity=".568" rx="180" ry="59" transform="rotate(-35.0 400 300)"/><ellipse cx="257" cy="124" fill="#33B693" stroke="#872B2C" stroke-opacity=".376" stroke-width="4" opacity=".059" rx="91" ry="335" transform="rotate(60.0 400 300)"/><ellipse cx="757" cy="65" fill="#8CD269" stroke="#A8DB84" stroke-opacity=".345" stroke-width="7" opacity=".893" rx="373" ry="207" transform="rotate(9.0 400 300)"/><rect width="37" height="243" x="430" y="218" fill="#D7729B" stroke="#4745C8" stroke-opacity=".983" stroke-width="7" opacity=".651" transform="rotate(61.0 400 300)"/><rect width="201" height="252" x="75" y="229" fill="#6050D0" stroke="#90AA5D" stroke-opacity=".692" stroke-width="4" opacity=".607" transform="rotate(-143.0 400 300)"/></g></svg>