<?xml version="1.0" encoding="UTF-8"?>
<svg width="800px" height="600px" viewBox="0 0 800 600" version="1.1" xmlns="http://www.w3.org/2000/svg" xmlns:xlink="http://www.w3.org/1999/xlink">
  <defs></defs>
  <g stroke="none" stroke-width="1" fill="none" fill-rule="evenodd">
    
    <path stroke="#02eb6b" stroke-width="2" fill="#0fa6d8" opacity="0.738619690582948" stroke-opacity="0.18252638504719473" transform="rotate(-74.0 400 300)" d="M 191,177  C 650,256 252,216 346,160 C 319,359 125,311 573,345 C 428,134 449,293 507,430 C 540,110 345,133 346,189 C 141,394 473,261 409,422 C 254,189 316,210 120,300 C 328,331 514,175 136,416 C 275,471 294,382 638,350 C 623,208 174,281 483,191 C 362,178 646,203 697,139 C 334,206 256,166 519,153 Z"></path>
<path stroke="#f559a0" stroke-width="5" fill="#2cd3f3" opacity="0.2709151945473046" stroke-opacity="0.6453439230461718" transform="rotate(23.0 400 300)" d="M 183,181  C 390,495 316,310 190,475 C 237,481 575,232 400,340 C 318,244 603,456 672,114 C 522,388 255,147 495,349 C 185,446 208,344 678,280 C 231,298 253,314 476,381 C 658,254 405,496 218,225 C 244,435 331,171 591,266 C 508,120 682,129 560,225 Z"></path>
<path stroke="#fe9225" stroke-width="3" fill="#fe9225" opacity="0.9273090045528034" stroke-opacity="0.7507181348200764" transform="rotate(-98.0 400 300)" d="M 664,484  C 184,202 145,163 694,460 C 507,494 629,432 494,312 C 651,310 220,174 410,218 C 134,342 291,397 365,267 C 497,330 396,385 695,125 C 323,129 331,109 490,142 C 537,393 338,301 636,370 C 267,289 477,259 409,399 C 507,151 185,273 262,382 C 632,146 622,436 535,489 C 638,258 643,216 648,219 Z"></path>
<path stroke="#2cd3f3" stroke-width="6" fill="#0fa6d8" opacity="0.21785891173065397" stroke-opacity="0.9165199133388972" transform="rotate(-70.0 400 300)" d="M 114,340  C 524,184 370,415 271,325 C 218,287 465,181 584,224 C 642,183 423,339 640,290 C 485,342 420,147 262,161 C 388,248 511,387 572,231 C 281,253 213,363 361,207 C 642,123 301,231 431,242 C 150,417 242,107 463,170 C 363,305 306,423 453,482 C 698,482 307,326 264,348 C 687,315 580,220 422,489 Z"></path>
<path stroke="#fe9225" stroke-width="2" fill="#0fa6d8" opacity="0.8143532969175592" stroke-opacity="0.2545435588190937" transform="rotate(104.0 400 300)" d="M 448,401  C 461,164 361,191 263,109 C 159,494 566,380 319,437 C 346,476 129,317 697,466 C 309,342 413,156 128,440 C 220,264 458,406 629,257 C 256,171 194,135 600,232 C 419,457 589,272 403,464 Z"></path>
<path stroke="#0fa6d8" stroke-width="4" fill="#2cd3f3" opacity="0.6026306554044288" stroke-opacity="0.7546981054876719" transform="rotate(142.0 400 300)" d="M 314,234  C 591,405 598,154 544,364 C 519,348 410,316 497,215 C 621,329 454,228 127,292 C 479,411 267,151 383,483 C 228,327 548,126 691,413 C 244,383 628,128 174,289 C 270,369 272,241 109,407 C 341,462 499,444 272,211 C 687,292 430,188 311,357 C 237,241 378,374 644,134 Z"></path>
<path stroke="#2cd3f3" stroke-width="6" fill="#0fa6d8" opacity="0.1867841782201936" stroke-opacity="0.30847768130562336" transform="rotate(-20.0 400 300)" d="M 307,375  C 276,315 130,126 310,433 C 645,454 695,395 514,492 C 210,365 347,130 530,353 C 209,464 380,232 270,439 C 268,323 305,146 526,313 Z"></path>
<path stroke="#2cd3f3" stroke-width="3" fill="#fe9225" opacity="0.8038832132042395" stroke-opacity="0.19270402314281698" transform="rotate(147.0 400 300)" d="M 651,446  C 116,363 422,226 669,395 C 698,192 246,432 221,276 C 200,321 344,142 176,242 C 517,224 587,448 148,360 C 257,341 319,222 150,435 C 368,306 278,342 386,457 Z"></path>
<path stroke="#f559a0" stroke-width="2" fill="#fe9225" opacity="0.5122221895553491" stroke-opacity="0.021697670503312626" transform="rotate(-37.0 400 300)" d="M 118,243  C 592,295 143,258 456,122 C 419,222 221,311 258,278 C 670,406 471,220 692,417 C 142,124 285,156 362,292 Z"></path>
<path stroke="#f559a0" stroke-width="7" fill="#fe9225" opacity="0.4249973312067955" stroke-opacity="0.7366634587749056" transform="rotate(-55.0 400 300)" d="M 402,203  C 342,350 573,404 342,233 C 604,299 536,246 469,216 C 101,473 413,449 442,135 C 700,466 323,174 326,269 Z"></path>

  </g>
</svg>
