<svg xmlns="http://www.w3.org/2000/svg" xmlns:xlink="http://www.w3.org/1999/xlink" width="800" height="600" version="1.1" viewBox="0 0 800 600"><g fill="none" fill-rule="evenodd" stroke="none" stroke-width="1"><path fill="#02eb6b" stroke="#2cd3f3" stroke-opacity=".194" stroke-width="2" d="M 186,421 C 356,256 172,363 467,189 C 376,310 417,265 603,303 C 230,455 267,129 696,390 C 335,420 692,131 489,194 C 456,160 136,242 694,129 C 652,192 642,224 421,231 C 555,267 469,268 213,361 Z" opacity=".3" transform="rotate(-118.0 400 300)"/><path fill="#f559a0" stroke="#f559a0" stroke-opacity=".415" stroke-width="1" d="M 143,107 C 240,412 574,471 310,436 C 260,466 243,460 256,476 C 565,109 237,152 159,432 C 213,216 602,349 614,359 C 264,239 144,375 647,478 C 680,292 333,489 554,149 C 483,156 460,168 372,106 C 400,381 237,336 507,184 C 528,219 343,297 302,466 C 682,490 613,256 324,313 C 627,198 193,261 304,201 Z" opacity=".938" transform="rotate(-48.0 400 300)"/><path fill="#fe9225" stroke="#2cd3f3" stroke-opacity=".186" stroke-width="5" d="M 594,117 C 607,414 251,276 455,148 C 136,385 564,292 356,166 C 538,222 187,303 545,229 C 535,355 675,249 492,311 C 543,284 577,362 329,156 C 387,448 531,180 391,208 C 426,140 198,262 316,223 C 421,133 111,331 645,137 Z" opacity=".601" transform="rotate(167.0 400 300)"/><path fill="#fe9225" stroke="#2cd3f3" stroke-opacity=".419" stroke-width="5" d="M 351,319 C 219,265 670,159 414,491 C 542,500 521,164 494,237 C 297,161 136,352 337,165 C 540,494 615,291 493,440 C 517,218 433,160 392,363 C 506,467 406,141 423,319 C 433,499 494,327 334,425 C 178,418 204,288 678,239 C 187,219 167,386 567,185 Z" opacity=".215" transform="rotate(-66.0 400 300)"/><path fill="#2cd3f3" stroke="#fe9225" stroke-opacity=".741" stroke-width="4" d="M 368,183 C 225,241 522,115 227,194 C 129,216 286,129 498,198 C 262,231 366,230 303,237 C 591,154 600,165 251,455 C 150,340 497,254 213,140 Z" opacity=".295" transform="rotate(127.0 400 300)"/><path fill="#0fa6d8" stroke="#0fa6d8" stroke-opacity=".885" stroke-width="6" d="M 241,284 C 684,120 646,303 607,389 C 619,252 696,295 270,348 C 138,331 623,137 244,470 C 561,490 370,415 588,157 C 374,371 254,383 531,421 C 205,389 481,360 515,317 C 403,382 215,293 559,424 C 138,230 143,206 269,380 C 276,105 329,292 420,448 C 653,454 301,266 675,425 C 615,430 451,412 607,309 Z" opacity=".692" transform="rotate(-58.0 400 300)"/><path fill="#f559a0" stroke="#02eb6b" stroke-opacity=".342" stroke-width="5" d="M 217,446 C 674,257 556,285 482,162 C 496,185 381,391 554,400 C 638,168 195,447 154,387 C 558,230 398,214 140,444 C 548,495 445,422 211,304 C 111,370 539,173 658,102 C 526,230 423,375 125,373 C 689,276 298,323 419,288 C 119,387 108,243 599,495 C 613,441 151,312 348,124 C 288,325 381,256 428,151 Z" opacity=".65" transform="rotate(-135.0 400 300)"/><path fill="#02eb6b" stroke="#2cd3f3" stroke-opacity=".389" stroke-width="7" d="M 257,240 C 313,380 194,457 602,198 C 649,470 239,406 198,268 C 306,496 328,194 674,371 C 377,113 533,394 146,456 C 484,252 239,300 428,411 C 492,380 169,273 571,330 C 119,331 291,398 235,126 C 330,121 209,407 606,203 C 423,449 674,154 418,344 C 309,283 269,369 221,111 C 602,139 666,420 648,185 Z" opacity=".378" transform="rotate(74.0 400 300)"/><path fill="#0fa6d8" stroke="#2cd3f3" stroke-opacity=".152" stroke-width="5" d="M 401,500 C 173,409 255,426 401,108 C 315,186 555,139 279,169 C 300,456 629,211 123,278 C 224,459 604,294 241,327 C 101,104 469,340 135,339 C 430,178 492,348 670,369 C 495,205 417,304 269,351 Z" opacity=".453" transform="rotate(19.0 400 300)"/><path fill="#2cd3f3" stroke="#f559a0" stroke-opacity=".635" stroke-width="5" d="M 140,490 C 238,446 260,258 125,125 C 696,400 681,271 582,353 C 240,470 312,484 582,448 C 205,179 278,462 317,481 C 332,289 255,123 549,266 C 648,400 149,432 281,279 Z" opacity=".33" transform="rotate(-153.0 400 300)"/><path fill="#02eb6b" stroke="#2cd3f3" stroke-opacity=".728" stroke-width="3" d="M 401,342 C 395,369 646,170 497,320 C 419,496 465,192 383,153 C 183,385 519,352 499,500 C 395,194 624,269 146,474 C 465,333 251,485 312,492 C 402,280 527,123 138,418 C 260,129 392,286 573,258 C 586,108 250,173 686,220 C 440,314 181,422 286,173 C 155,374 543,281 339,415 C 216,363 375,275 502,163 Z" opacity=".889" transform="rotate(-166.0 400 300)"/></g></svg>