<svg xmlns="http://www.w3.org/2000/svg" xmlns:xlink="http://www.w3.org/1999/xlink" width="800" height="600" version="1.1" viewBox="0 0 800 600"><g fill="none" fill-rule="evenodd" stroke="none" stroke-width="1"><ellipse cx="318" cy="328" fill="#f9d84b" stroke="#f9d84b" stroke-opacity=".403" stroke-width="2" opacity=".629" rx="302" ry="254" transform="rotate(102.0 400 300)"/><rect width="327" height="35" x="512" y="549" fill="#ed2b2c" stroke="#f9d84b" stroke-opacity=".832" stroke-width="3" opacity=".243" transform="rotate(-49.0 400 300)"/><path fill="#2b55f7" stroke="#f27630" stroke-opacity=".172" stroke-width="6" d="M 379,424 C 386,217 673,269 198,137 C 412,225 569,130 364,206 C 367,376 579,329 489,372 C 292,488 670,415 119,401 C 111,336 487,365 524,235 C 389,190 360,439 632,333 C 160,133 334,378 423,134 C 553,127 490,403 539,106 Z" opacity=".361" transform="rotate(-12.0 400 300)"/><polygon fill="#2b55f7" stroke="#f27630" stroke-opacity=".039" stroke-width="5" points="464 125 567 291 382 397 3 106 223 421 123 20 667 453 156 195" opacity=".96" transform="rotate(-84.0 400 300)"/><polygon fill="#f9d84b" stroke="#f27630" stroke-opacity=".057" stroke-width="4" points="457 52 522 271 645 384 77 336 799 372 366 138" opacity=".667" transform="rotate(-88.0 400 300)"/><polygon fill="#2b55f7" stroke="#2b55f7" stroke-opacity=".734" stroke-width="6" points="451 189 769 540 749 542 329 226 603 432" opacity=".889" transform="rotate(-25.0 400 300)"/><path fill="#f27630" stroke="#2b55f7" stroke-opacity=".167" stroke-width="3" d="M 676,142 C 586,371 363,500 558,211 C 267,260 352,303 698,184 C 509,468 601,169 631,346 C 127,218 341,410 308,181 C 271,383 245,102 258,383 C 193,184 294,352 257,434 C 628,482 416,197 264,446 Z" opacity=".836" transform="rotate(156.0 400 300)"/></g></svg>