<svg xmlns="http://www.w3.org/2000/svg" xmlns:xlink="http://www.w3.org/1999/xlink" width="800" height="600" version="1.1" viewBox="0 0 800 600"><g fill="none" fill-rule="evenodd" stroke="none" stroke-width="1"><polygon fill="#3ACBC2" stroke="#14C6D8" stroke-opacity=".437" stroke-width="1" points="60 369 105 212 671 190 579 315 772 252" opacity=".256" transform="rotate(178.0 400 300)"/><polygon fill="#29710D" stroke="#1AD668" stroke-opacity=".42" stroke-width="7" points="382 8 585 443 83 30 736 441 796 30 595 252 104 59 516 564" opacity=".81" transform="rotate(-49.0 400 300)"/><path fill="#1C027C" stroke="#A25889" stroke-opacity=".603" stroke-width="1" d="M 124,371 C 428,223 155,426 434,330 C 242,487 696,445 269,299 C 361,243 394,319 132,349 C 525,372 235,148 516,177 C 681,458 564,357 194,450 C 235,364 204,257 254,383 C 188,407 653,363 233,226 C 622,289 428,382 382,188 Z" opacity=".945" transform="rotate(-82.0 400 300)"/><path fill="#A93515" stroke="#A10479" stroke-opacity=".227" stroke-width="5" d="M 408,167 C 479,201 158,436 645,328 C 699,403 233,437 298,254 C 136,403 564,348 616,263 C 372,218 421,494 334,263 Z" opacity=".268" transform="rotate(151.0 400 300)"/><ellipse cx="251" cy="554" fill="#290946" stroke="#621519" stroke-opacity=".695" stroke-width="1" opacity=".222" rx="402" ry="162" transform="rotate(-68.0 400 300)"/><ellipse cx="194" cy="157" fill="#2C018C" stroke="#9B4CCD" stroke-opacity=".271" stroke-width="5" opacity=".333" rx="341" ry="239" transform="rotate(174.0 400 300)"/><rect width="308" height="254" x="562" y="245" fill="#C6C514" stroke="#951B55" stroke-opacity=".986" stroke-width="6" opacity=".935" transform="rotate(-144.0 400 300)"/><rect width="370" height="287" x="16" y="59" fill="#8D09BC" stroke="#52DCD8" stroke-opacity=".023" stroke-width="3" opacity=".135" transform="rotate(-91.0 400 300)"/></g></svg>