<svg xmlns="http://www.w3.org/2000/svg" xmlns:xlink="http://www.w3.org/1999/xlink" width="800" height="600" version="1.1" viewBox="0 0 800 600"><g fill="none" fill-rule="evenodd" stroke="none" stroke-width="1"><path fill="#2cd3f3" stroke="#f559a0" stroke-opacity=".038" stroke-width="7" d="M 265,452 C 359,263 490,493 473,483 C 379,446 195,202 513,265 C 218,165 670,152 622,158 C 637,454 562,183 142,206 C 626,103 613,135 144,458 C 304,189 327,363 292,285 C 674,396 413,113 312,319 C 597,475 208,398 445,469 C 668,476 171,148 330,109 C 298,479 416,173 513,485 C 508,215 435,144 278,425 Z" opacity=".353" transform="rotate(36.0 400 300)"/><path fill="#02eb6b" stroke="#02eb6b" stroke-opacity=".853" stroke-width="6" d="M 362,114 C 490,497 150,485 397,200 C 369,347 498,301 549,351 C 498,218 668,264 291,343 C 623,132 307,242 645,406 C 110,364 400,493 492,166 C 401,325 554,464 191,246 C 136,160 450,300 126,318 C 296,206 424,262 331,306 C 385,216 225,439 678,469 Z" opacity=".621" transform="rotate(-147.0 400 300)"/><path fill="#02eb6b" stroke="#02eb6b" stroke-opacity=".791" stroke-width="6" d="M 555,329 C 492,189 249,153 562,497 C 310,440 192,488 443,309 C 234,445 529,347 172,313 C 408,211 201,161 699,201 C 648,358 645,126 131,183 C 357,325 395,310 518,414 C 582,120 604,352 622,123 Z" opacity=".973" transform="rotate(-120.0 400 300)"/><path fill="#0fa6d8" stroke="#02eb6b" stroke-opacity=".609" stroke-width="6" d="M 652,312 C 121,405 221,114 151,438 C 149,387 530,439 692,293 C 405,433 481,200 425,111 C 615,418 362,397 109,413 C 389,435 202,157 180,290 C 271,200 668,436 384,332 C 622,154 380,196 677,150 C 191,390 272,221 507,102 C 348,351 216,387 654,163 Z" opacity=".782" transform="rotate(31.0 400 300)"/><path fill="#fe9225" stroke="#0fa6d8" stroke-opacity=".787" stroke-width="4" d="M 459,472 C 213,190 494,173 674,255 C 416,346 389,402 157,485 C 145,326 186,139 556,495 C 634,474 165,175 140,111 C 451,446 478,131 272,470 Z" opacity=".529" transform="rotate(74.0 400 300)"/><path fill="#2cd3f3" stroke="#fe9225" stroke-opacity=".281" stroke-width="1" d="M 284,127 C 184,374 275,301 586,326 C 609,436 358,115 415,290 C 532,186 587,465 114,484 C 563,234 121,178 435,308 C 355,305 553,453 496,219 C 337,488 156,235 278,207 Z" opacity=".928" transform="rotate(146.0 400 300)"/><path fill="#0fa6d8" stroke="#f559a0" stroke-opacity=".068" stroke-width="3" d="M 687,470 C 312,423 596,230 214,203 C 335,321 409,136 280,129 C 352,124 502,226 645,390 C 225,351 544,109 412,249 C 174,324 147,400 205,176 C 128,303 320,274 630,413 C 554,362 280,153 259,333 C 392,149 556,232 626,116 C 334,104 119,253 164,246 C 683,259 666,479 286,249 C 278,222 534,349 575,331 Z" opacity=".934" transform="rotate(127.0 400 300)"/><path fill="#02eb6b" stroke="#fe9225" stroke-opacity=".129" stroke-width="2" d="M 478,385 C 412,265 611,169 660,296 C 508,149 197,484 517,202 C 512,300 358,446 672,232 C 454,402 410,146 677,263 C 494,250 488,246 432,397 C 530,122 111,298 669,240 C 368,443 496,398 501,190 C 275,359 497,360 566,456 C 658,259 380,411 384,128 Z" opacity=".782" transform="rotate(-66.0 400 300)"/></g></svg>