<svg xmlns="http://www.w3.org/2000/svg" xmlns:xlink="http://www.w3.org/1999/xlink" width="800" height="600" version="1.1" viewBox="0 0 800 600"><g fill="none" fill-rule="evenodd" stroke="none" stroke-width="1"><rect width="54" height="25" x="648" y="18" fill="#A27418" stroke="#5D2268" stroke-opacity=".225" stroke-width="7" opacity=".43" transform="rotate(-134.0 400 300)"/><rect width="195" height="101" x="595" y="312" fill="#1462B5" stroke="#943B9B" stroke-opacity=".416" stroke-width="4" opacity=".813" transform="rotate(177.0 400 300)"/><polygon fill="#8C9019" stroke="#B10779" stroke-opacity=".952" stroke-width="6" points="682 66 300 580 155 255 770 417 556 103 420 503 563 87 645 312" opacity=".579" transform="rotate(6.0 400 300)"/><rect width="57" height="173" x="667" y="93" fill="#53D957" stroke="#3A1281" stroke-opacity=".009" stroke-width="3" opacity=".681" transform="rotate(5.0 400 300)"/><polygon fill="#69BB6B" stroke="#A6D2AD" stroke-opacity=".09" stroke-width="1" points="698 6 374 464 643 490 275 6 575 461" opacity=".973" transform="rotate(72.0 400 300)"/><ellipse cx="520" cy="495" fill="#128878" stroke="#42941A" stroke-opacity=".688" stroke-width="1" opacity=".262" rx="369" ry="48" transform="rotate(-106.0 400 300)"/></g></svg>