<?xml version="1.0" encoding="UTF-8"?>
<svg width="800px" height="600px" viewBox="0 0 800 600" version="1.1" xmlns="http://www.w3.org/2000/svg" xmlns:xlink="http://www.w3.org/1999/xlink">
  <defs></defs>
  <g stroke="none" stroke-width="1" fill="none" fill-rule="evenodd">
    
    <path stroke="#2cd3f3" stroke-width="2" fill="#02eb6b" opacity="0.9560969241247715" stroke-opacity="0.3283834227253184" transform="rotate(-135.0 400 300)" d="M 375,122  C 354,225 300,390 174,482 C 257,383 458,346 302,152 C 455,277 397,196 568,462 C 420,354 245,273 633,157 C 205,488 566,232 235,237 C 510,487 246,224 415,146 C 377,237 460,467 490,166 C 285,228 301,470 385,245 Z"></path>
<path stroke="#0fa6d8" stroke-width="2" fill="#2cd3f3" opacity="0.4258609738735693" stroke-opacity="0.8523376747041034" transform="rotate(4.0 400 300)" d="M 489,313  C 526,243 663,433 142,127 C 676,158 119,347 617,243 C 558,316 353,391 128,215 C 689,189 385,179 175,203 C 185,369 376,319 390,451 C 146,315 692,139 472,404 C 415,397 218,182 567,276 C 615,420 539,199 341,229 Z"></path>
<path stroke="#f559a0" stroke-width="7" fill="#02eb6b" opacity="0.47592824897956254" stroke-opacity="0.9708364243132009" transform="rotate(141.0 400 300)" d="M 200,494  C 426,466 564,346 451,124 C 242,192 284,311 666,298 C 598,200 661,343 380,248 C 252,419 425,126 337,177 C 425,105 129,237 274,191 C 332,366 271,210 156,364 C 504,252 536,217 427,265 C 474,339 525,465 572,305 C 331,140 506,133 456,207 C 353,351 603,134 232,268 C 408,253 366,202 595,495 Z"></path>
<path stroke="#fe9225" stroke-width="3" fill="#fe9225" opacity="0.12799921659565577" stroke-opacity="0.8229064423250049" transform="rotate(24.0 400 300)" d="M 122,241  C 469,391 667,425 112,237 C 499,170 321,150 278,405 C 125,216 484,422 105,486 C 421,367 415,207 569,270 C 240,190 171,390 102,305 C 530,266 434,132 202,294 C 133,176 197,400 103,375 C 300,368 365,465 648,319 C 212,371 546,443 244,295 Z"></path>
<path stroke="#02eb6b" stroke-width="1" fill="#f559a0" opacity="0.6519544572145323" stroke-opacity="0.09887305390286695" transform="rotate(27.0 400 300)" d="M 338,308  C 213,186 581,372 144,425 C 178,211 267,401 149,147 C 192,407 350,306 101,316 C 495,128 253,455 663,474 C 169,456 542,240 127,383 C 113,177 518,366 274,391 C 354,214 493,145 114,249 C 468,404 531,341 610,373 C 369,246 671,464 159,309 Z"></path>
<path stroke="#2cd3f3" stroke-width="4" fill="#f559a0" opacity="0.25345819965832567" stroke-opacity="0.7581936898146698" transform="rotate(170.0 400 300)" d="M 604,257  C 555,312 582,337 152,259 C 519,434 358,316 130,321 C 262,318 492,201 554,466 C 657,307 468,110 625,109 Z"></path>
<path stroke="#f559a0" stroke-width="6" fill="#0fa6d8" opacity="0.03946334825156523" stroke-opacity="0.17713930413188253" transform="rotate(-93.0 400 300)" d="M 413,322  C 438,191 552,150 411,450 C 120,337 536,329 570,131 C 199,476 519,270 457,325 C 503,182 222,165 248,231 C 284,256 141,484 566,333 Z"></path>
<path stroke="#fe9225" stroke-width="1" fill="#0fa6d8" opacity="0.3509369513438762" stroke-opacity="0.6508110596010546" transform="rotate(-123.0 400 300)" d="M 188,141  C 404,179 341,114 343,358 C 570,269 165,310 269,449 C 153,465 611,425 484,283 C 119,394 211,427 137,155 C 115,158 201,412 370,469 C 331,383 354,163 223,421 C 124,494 613,423 228,184 C 432,381 684,303 469,322 C 108,332 617,216 263,130 Z"></path>
<path stroke="#fe9225" stroke-width="3" fill="#0fa6d8" opacity="0.0457931067541015" stroke-opacity="0.03506383024562325" transform="rotate(68.0 400 300)" d="M 505,176  C 685,396 184,497 516,254 C 639,226 553,172 151,126 C 385,214 427,442 303,284 C 344,266 270,478 413,118 C 377,448 229,493 253,417 C 545,452 700,155 107,134 C 511,260 235,268 572,101 C 403,232 498,186 442,239 C 478,485 407,428 112,103 C 426,362 200,146 135,133 C 192,407 466,384 646,359 Z"></path>
<path stroke="#fe9225" stroke-width="6" fill="#f559a0" opacity="0.4879968664683699" stroke-opacity="0.20145347434213137" transform="rotate(159.0 400 300)" d="M 677,404  C 275,389 561,159 263,274 C 342,371 297,136 651,366 C 502,377 472,491 283,417 C 533,283 679,203 621,202 C 423,472 436,493 230,462 C 157,144 323,434 501,379 C 497,359 491,142 542,293 C 544,465 497,243 224,417 C 220,204 172,321 507,444 Z"></path>
<path stroke="#2cd3f3" stroke-width="1" fill="#02eb6b" opacity="0.14060263720967867" stroke-opacity="0.8567119100679457" transform="rotate(132.0 400 300)" d="M 656,419  C 207,120 151,144 674,158 C 637,224 654,109 319,465 C 401,206 211,293 408,315 C 513,259 546,324 621,427 C 121,103 322,439 439,372 C 389,218 612,402 375,247 C 667,159 643,460 336,241 C 452,455 303,307 262,152 Z"></path>

  </g>
</svg>
