<?xml version="1.0" encoding="UTF-8"?>
<svg width="800px" height="600px" viewBox="0 0 800 600" version="1.1" xmlns="http://www.w3.org/2000/svg" xmlns:xlink="http://www.w3.org/1999/xlink">
  <defs></defs>
  <g stroke="none" stroke-width="1" fill="none" fill-rule="evenodd">
    
    <rect stroke="#f27630" stroke-width="5" fill="#ed2b2c" opacity="0.6684206338052315" stroke-opacity="0.4932451149188651" transform="rotate(4.0 400 300)" x="337" y="369" width="101" height="285"></rect>
<rect stroke="#2b55f7" stroke-width="6" fill="#2b55f7" opacity="0.7570501580700859" stroke-opacity="0.2936563798022434" transform="rotate(-91.0 400 300)" x="161" y="384" width="67" height="290"></rect>
<rect stroke="#f9d84b" stroke-width="7" fill="#f27630" opacity="0.29577709245821215" stroke-opacity="0.23791233329262593" transform="rotate(172.0 400 300)" x="68" y="207" width="156" height="167"></rect>
<path stroke="#31a06b" stroke-width="1" fill="#2b55f7" opacity="0.48433439942485473" stroke-opacity="0.27885138801743287" transform="rotate(40.0 400 300)" d="M 446,340  C 375,490 629,193 183,431 C 293,455 288,348 316,370 C 690,270 164,494 679,215 C 343,235 637,313 117,275 C 424,325 414,226 530,164 Z"></path>
<ellipse stroke="#2b55f7" stroke-width="5" fill="#2b55f7" opacity="0.4864609252400032" stroke-opacity="0.818147881760578" transform="rotate(159.0 400 300)" cx="430" rx="198" cy="424" ry="179"></ellipse>
<path stroke="#f27630" stroke-width="3" fill="#31a06b" opacity="0.5305176068548068" stroke-opacity="0.030957185272035937" transform="rotate(20.0 400 300)" d="M 678,464  C 540,495 228,428 629,181 C 259,261 673,458 589,412 C 148,236 585,156 322,275 C 314,435 250,328 117,379 C 157,426 602,330 633,496 C 121,332 119,500 525,457 C 695,429 319,422 340,385 C 171,326 152,242 629,227 C 299,138 617,271 579,275 Z"></path>
<polygon stroke="#ed2b2c" stroke-width="4" fill="#f9d84b" opacity="0.206254778426221" stroke-opacity="0.6792268235001395" transform="rotate(41.0 400 300)" points="187 526 288 246 266 412 4 330 654 133 219 81 15 30 "></polygon>
<ellipse stroke="#f27630" stroke-width="4" fill="#31a06b" opacity="0.5950901447898551" stroke-opacity="0.7427186983101474" transform="rotate(88.0 400 300)" cx="671" rx="286" cy="433" ry="132"></ellipse>
<path stroke="#31a06b" stroke-width="1" fill="#f27630" opacity="0.42485721118889885" stroke-opacity="0.3557691579745126" transform="rotate(96.0 400 300)" d="M 213,277  C 589,183 557,320 343,431 C 259,474 288,475 504,488 C 416,134 469,265 188,144 C 188,228 309,220 297,326 C 452,243 636,436 457,111 C 277,258 347,463 444,231 C 214,388 408,326 496,376 Z"></path>
<rect stroke="#2b55f7" stroke-width="6" fill="#31a06b" opacity="0.3307856617826331" stroke-opacity="0.38561331752241657" transform="rotate(110.0 400 300)" x="648" y="128" width="233" height="341"></rect>

  </g>
</svg>
