<svg xmlns="http://www.w3.org/2000/svg" xmlns:xlink="http://www.w3.org/1999/xlink" width="800" height="600" version="1.1" viewBox="0 0 800 600"><g fill="none" fill-rule="evenodd" stroke="none" stroke-width="1"><rect width="101" height="285" x="337" y="369" fill="#ed2b2c" stroke="#f27630" stroke-opacity=".493" stroke-width="5" opacity=".668" transform="rotate(4.0 400 300)"/><rect width="67" height="290" x="161" y="384" fill="#2b55f7" stroke="#2b55f7" stroke-opacity=".294" stroke-width="6" opacity=".757" transform="rotate(-91.0 400 300)"/><rect width="156" height="167" x="68" y="207" fill="#f27630" stroke="#f9d84b" stroke-opacity=".238" stroke-width="7" opacity=".296" transform="rotate(172.0 400 300)"/><path fill="#2b55f7" stroke="#31a06b" stroke-opacity=".279" stroke-width="1" d="M 446,340 C 375,490 629,193 183,431 C 293,455 288,348 316,370 C 690,270 164,494 679,215 C 343,235 637,313 117,275 C 424,325 414,226 530,164 Z" opacity=".484" transform="rotate(40.0 400 300)"/><ellipse cx="430" cy="424" fill="#2b55f7" stroke="#2b55f7" stroke-opacity=".818" stroke-width="5" opacity=".486" rx="198" ry="179" transform="rotate(159.0 400 300)"/><path fill="#31a06b" stroke="#f27630" stroke-opacity=".031" stroke-width="3" d="M 678,464 C 540,495 228,428 629,181 C 259,261 673,458 589,412 C 148,236 585,156 322,275 C 314,435 250,328 117,379 C 157,426 602,330 633,496 C 121,332 119,500 525,457 C 695,429 319,422 340,385 C 171,326 152,242 629,227 C 299,138 617,271 579,275 Z" opacity=".531" transform="rotate(20.0 400 300)"/><polygon fill="#f9d84b" stroke="#ed2b2c" stroke-opacity=".679" stroke-width="4" points="187 526 288 246 266 412 4 330 654 133 219 81 15 30" opacity=".206" transform="rotate(41.0 400 300)"/><ellipse cx="671" cy="433" fill="#31a06b" stroke="#f27630" stroke-opacity=".743" stroke-width="4" opacity=".595" rx="286" ry="132" transform="rotate(88.0 400 300)"/><path fill="#f27630" stroke="#31a06b" stroke-opacity=".356" stroke-width="1" d="M 213,277 C 589,183 557,320 343,431 C 259,474 288,475 504,488 C 416,134 469,265 188,144 C 188,228 309,220 297,326 C 452,243 636,436 457,111 C 277,258 347,463 444,231 C 214,388 408,326 496,376 Z" opacity=".425" transform="rotate(96.0 400 300)"/><rect width="233" height="341" x="648" y="128" fill="#31a06b" stroke="#2b55f7" stroke-opacity=".386" stroke-width="6" opacity=".331" transform="rotate(110.0 400 300)"/></g></svg>