<svg xmlns="http://www.w3.org/2000/svg" xmlns:xlink="http://www.w3.org/1999/xlink" width="800" height="600" version="1.1" viewBox="0 0 800 600"><g fill="none" fill-rule="evenodd" stroke="none" stroke-width="1"><path fill="#31a06b" stroke="#f27630" stroke-opacity=".817" stroke-width="3" d="M 368,303 C 596,150 232,171 183,280 C 518,254 435,367 517,489 C 306,441 373,415 205,311 C 317,310 366,102 172,444 C 536,173 200,155 307,204 C 389,371 156,308 354,339 C 569,458 557,455 270,417 Z" opacity=".732" transform="rotate(-101.0 400 300)"/><path fill="#ed2b2c" stroke="#2b55f7" stroke-opacity=".481" stroke-width="2" d="M 201,346 C 304,440 155,435 641,486 C 393,371 696,101 481,416 C 394,265 676,134 129,159 C 258,334 126,425 241,446 C 434,243 208,394 470,224 C 336,235 645,152 420,269 Z" opacity=".422" transform="rotate(17.0 400 300)"/><path fill="#31a06b" stroke="#31a06b" stroke-opacity=".035" stroke-width="1" d="M 185,224 C 661,453 557,310 207,125 C 683,454 405,334 610,101 C 367,392 673,470 508,133 C 168,385 547,325 546,370 C 342,315 497,199 391,350 C 447,226 660,160 152,443 Z" opacity=".008" transform="rotate(26.0 400 300)"/><path fill="#ed2b2c" stroke="#f9d84b" stroke-opacity=".771" stroke-width="1" d="M 479,137 C 298,324 601,316 553,481 C 197,132 693,132 161,370 C 441,331 406,429 665,194 C 281,278 568,422 530,281 C 197,199 313,108 684,288 Z" opacity=".134" transform="rotate(74.0 400 300)"/><path fill="#31a06b" stroke="#31a06b" stroke-opacity=".244" stroke-width="6" d="M 425,354 C 607,240 280,308 166,317 C 232,425 321,472 267,162 C 298,212 585,415 433,106 C 399,341 513,163 468,203 C 346,281 574,195 456,193 Z" opacity=".807" transform="rotate(50.0 400 300)"/><path fill="#f9d84b" stroke="#31a06b" stroke-opacity=".037" stroke-width="1" d="M 207,376 C 310,228 403,132 639,223 C 437,401 523,104 691,455 C 169,362 402,197 585,401 C 458,269 557,430 659,354 C 539,302 483,115 518,350 C 452,319 577,461 485,149 C 646,378 648,169 169,236 C 343,143 335,214 328,349 C 386,284 318,208 291,194 C 658,390 519,335 112,175 Z" opacity=".747" transform="rotate(77.0 400 300)"/><path fill="#2b55f7" stroke="#ed2b2c" stroke-opacity=".736" stroke-width="6" d="M 566,375 C 451,430 370,206 453,429 C 692,188 574,333 427,264 C 331,443 163,135 279,459 C 160,133 669,201 327,399 C 541,179 259,485 538,281 C 351,471 301,481 314,329 C 277,380 425,254 486,478 Z" opacity=".145" transform="rotate(-45.0 400 300)"/><path fill="#31a06b" stroke="#f9d84b" stroke-opacity=".536" stroke-width="3" d="M 242,284 C 694,422 241,416 682,435 C 510,419 371,205 603,380 C 306,327 236,299 461,368 C 513,286 467,329 451,464 C 612,465 460,293 684,152 C 302,105 472,407 379,393 C 404,162 160,302 107,346 C 446,158 515,403 654,122 C 113,473 649,468 510,317 Z" opacity=".959" transform="rotate(71.0 400 300)"/><path fill="#f9d84b" stroke="#f27630" stroke-opacity=".77" stroke-width="1" d="M 586,252 C 275,149 144,424 346,487 C 302,320 468,232 184,308 C 343,315 146,453 471,229 C 262,166 552,442 237,492 C 423,265 398,341 187,353 C 415,344 483,164 485,409 C 349,303 315,261 291,319 C 422,139 673,231 465,293 C 203,369 588,140 685,464 C 163,113 311,205 133,259 Z" opacity=".681" transform="rotate(27.0 400 300)"/><path fill="#f9d84b" stroke="#ed2b2c" stroke-opacity=".308" stroke-width="1" d="M 358,243 C 308,128 352,129 181,484 C 127,176 218,101 650,433 C 306,414 639,117 483,224 C 484,486 450,333 365,153 C 271,295 631,165 317,130 C 202,376 156,477 144,141 C 685,452 483,491 519,153 C 326,134 334,219 519,181 C 404,352 103,293 103,465 C 662,436 237,189 205,273 C 607,408 693,329 477,375 Z" opacity=".508" transform="rotate(139.0 400 300)"/></g></svg>