<svg xmlns="http://www.w3.org/2000/svg" xmlns:xlink="http://www.w3.org/1999/xlink" width="800" height="600" version="1.1" viewBox="0 0 800 600"><g fill="none" fill-rule="evenodd" stroke="none" stroke-width="1"><path fill="#31a06b" stroke="#2b55f7" stroke-opacity=".621" stroke-width="5" d="M 451,247 C 497,173 108,376 382,299 C 355,402 337,127 551,181 C 640,346 171,302 391,411 C 489,400 344,374 103,407 Z" opacity=".255" transform="rotate(163.0 400 300)"/><path fill="#f9d84b" stroke="#f9d84b" stroke-opacity=".421" stroke-width="5" d="M 221,238 C 164,223 518,440 543,254 C 222,366 210,458 488,237 C 357,338 670,142 695,307 C 144,458 194,380 582,101 C 576,353 232,132 430,446 C 270,402 345,374 531,357 C 238,420 541,195 213,488 C 423,152 150,344 328,471 C 253,285 524,404 130,163 Z" opacity=".71" transform="rotate(159.0 400 300)"/><path fill="#ed2b2c" stroke="#2b55f7" stroke-opacity=".025" stroke-width="4" d="M 154,148 C 297,403 267,464 537,177 C 282,431 335,360 585,180 C 131,497 194,170 168,413 C 575,382 461,492 595,236 C 645,427 110,278 614,417 C 401,191 384,408 646,170 C 360,107 414,420 535,413 Z" opacity=".402" transform="rotate(178.0 400 300)"/><path fill="#2b55f7" stroke="#f27630" stroke-opacity=".19" stroke-width="6" d="M 116,274 C 377,404 560,380 442,180 C 671,281 327,191 107,324 C 503,173 691,294 185,341 C 693,394 630,423 174,459 C 274,282 507,164 390,335 C 277,166 453,359 107,447 C 655,475 129,290 487,197 C 413,421 234,403 508,460 Z" opacity=".116" transform="rotate(-119.0 400 300)"/><path fill="#f9d84b" stroke="#f9d84b" stroke-opacity=".026" stroke-width="2" d="M 462,254 C 405,328 132,338 250,252 C 242,256 506,353 570,142 C 224,264 141,127 402,396 C 525,282 425,152 218,297 C 389,177 300,244 524,346 C 624,447 518,234 170,306 C 186,281 251,482 603,192 C 212,324 554,193 463,115 C 509,296 258,459 406,439 C 173,139 336,264 357,299 C 315,102 316,498 679,206 Z" opacity=".553" transform="rotate(-33.0 400 300)"/><path fill="#ed2b2c" stroke="#f27630" stroke-opacity=".368" stroke-width="6" d="M 641,265 C 265,403 308,351 408,125 C 673,222 144,476 589,197 C 563,273 131,316 317,138 C 340,222 244,213 638,186 C 201,244 626,303 154,339 C 479,498 493,310 281,410 C 258,430 139,268 590,193 C 520,266 508,201 495,125 C 486,166 425,302 241,205 C 324,469 450,437 119,137 C 252,213 162,454 102,122 Z" opacity=".089" transform="rotate(26.0 400 300)"/><path fill="#f9d84b" stroke="#2b55f7" stroke-opacity=".723" stroke-width="6" d="M 328,483 C 675,195 451,211 260,371 C 583,237 560,487 245,224 C 151,152 606,452 410,391 C 332,281 615,336 207,407 C 525,261 263,435 678,480 C 381,197 604,414 537,429 C 543,338 301,339 445,333 C 270,433 492,258 226,295 C 414,310 433,491 590,329 Z" opacity=".833" transform="rotate(12.0 400 300)"/><path fill="#f9d84b" stroke="#f9d84b" stroke-opacity=".835" stroke-width="2" d="M 662,261 C 504,152 431,324 572,401 C 506,155 206,360 556,408 C 226,375 155,367 525,296 C 536,454 180,356 644,204 C 337,335 109,326 642,404 Z" opacity=".971" transform="rotate(84.0 400 300)"/></g></svg>