<?xml version="1.0" encoding="UTF-8"?>
<svg width="800px" height="600px" viewBox="0 0 800 600" version="1.1" xmlns="http://www.w3.org/2000/svg" xmlns:xlink="http://www.w3.org/1999/xlink">
  <defs></defs>
  <g stroke="none" stroke-width="1" fill="none" fill-rule="evenodd">
    
    <path stroke="#406A3C" stroke-width="3" fill="#6634D9" opacity="0.6793920947418833" stroke-opacity="0.5413109582175228" transform="rotate(-21.0 400 300)" d="M 346,184  C 630,172 261,310 457,130 C 123,409 536,381 207,203 C 556,232 670,458 548,491 C 580,341 354,275 159,114 Z"></path>
<path stroke="#CC54D1" stroke-width="3" fill="#50CB94" opacity="0.29355461600612126" stroke-opacity="0.3782582151420748" transform="rotate(-7.0 400 300)" d="M 267,384  C 694,213 218,162 568,188 C 658,263 545,240 306,449 C 226,380 127,374 374,411 C 671,266 482,389 452,473 Z"></path>
<path stroke="#5C0273" stroke-width="2" fill="#B96B13" opacity="0.04934741792066228" stroke-opacity="0.4855026950552472" transform="rotate(127.0 400 300)" d="M 334,425  C 284,344 271,331 428,329 C 283,321 596,487 290,489 C 298,229 447,471 380,263 C 446,331 229,335 152,339 C 290,188 680,368 373,368 C 139,479 413,415 112,415 C 331,116 310,329 464,397 C 231,354 156,437 391,304 Z"></path>
<path stroke="#B1BB54" stroke-width="2" fill="#50C760" opacity="0.9565710957839758" stroke-opacity="0.8612732736415872" transform="rotate(-172.0 400 300)" d="M 130,211  C 333,126 547,104 285,376 C 301,113 522,242 396,193 C 292,379 590,493 228,366 C 313,227 299,217 281,248 C 653,166 568,387 484,403 C 584,261 533,244 311,484 C 234,131 588,217 680,400 C 206,324 388,189 236,266 C 381,337 577,128 595,181 Z"></path>
<path stroke="#3134AA" stroke-width="7" fill="#867343" opacity="0.7756944805555166" stroke-opacity="0.1708888947128443" transform="rotate(13.0 400 300)" d="M 425,391  C 401,362 611,417 601,265 C 507,409 423,239 690,225 C 320,279 366,117 496,498 C 520,328 400,408 288,474 C 563,452 277,384 520,163 C 643,482 162,261 393,417 C 278,472 630,328 162,344 C 148,301 622,428 362,180 C 325,393 646,261 628,159 Z"></path>
<path stroke="#A867AB" stroke-width="3" fill="#D5D849" opacity="0.18730597069701457" stroke-opacity="0.1074264850818008" transform="rotate(170.0 400 300)" d="M 347,220  C 218,121 689,174 544,379 C 526,332 647,159 520,439 C 544,311 551,469 276,416 C 560,494 488,172 188,295 C 342,357 177,402 433,312 C 383,179 404,271 299,399 Z"></path>
<path stroke="#3380D7" stroke-width="3" fill="#C7DDB0" opacity="0.38803609393551236" stroke-opacity="0.8987092471024668" transform="rotate(17.0 400 300)" d="M 328,206  C 681,132 252,440 216,118 C 550,365 541,286 419,391 C 677,251 332,467 413,422 C 208,302 340,249 431,261 C 667,238 589,237 506,306 C 174,425 456,145 480,401 C 420,383 496,217 588,343 C 103,410 393,137 512,129 Z"></path>
<path stroke="#C9DD15" stroke-width="6" fill="#059122" opacity="0.018901535014948904" stroke-opacity="0.6927514987938039" transform="rotate(-46.0 400 300)" d="M 231,413  C 306,455 645,219 324,266 C 107,319 203,161 318,432 C 274,451 570,162 263,187 C 289,472 211,315 258,320 C 647,306 688,142 161,124 Z"></path>
<path stroke="#94B663" stroke-width="5" fill="#D51312" opacity="0.0847112106933627" stroke-opacity="0.15359972147040116" transform="rotate(73.0 400 300)" d="M 460,194  C 290,329 152,404 519,409 C 174,242 676,223 319,456 C 653,482 221,252 697,211 C 225,117 618,191 676,127 C 411,281 398,367 607,172 C 506,164 167,295 404,375 C 445,329 369,187 454,213 C 207,161 569,257 583,468 C 425,487 700,391 481,120 C 504,104 244,356 300,119 Z"></path>
<path stroke="#2C4206" stroke-width="4" fill="#3143AB" opacity="0.9642945725788667" stroke-opacity="0.42000304445448505" transform="rotate(16.0 400 300)" d="M 695,274  C 530,496 494,201 452,350 C 534,188 457,386 331,425 C 344,244 300,364 167,328 C 192,341 347,360 599,500 C 177,369 251,318 195,448 C 131,175 416,231 610,364 C 281,140 178,347 351,340 C 253,443 118,221 618,429 C 373,407 329,460 317,394 C 557,205 392,237 487,359 C 329,149 549,231 663,112 Z"></path>
<path stroke="#D27426" stroke-width="1" fill="#284473" opacity="0.3858950381941841" stroke-opacity="0.25666662514777144" transform="rotate(-74.0 400 300)" d="M 650,172  C 194,355 189,361 322,332 C 543,147 523,174 272,285 C 336,378 542,186 478,147 C 252,274 309,228 346,429 C 315,363 409,131 482,187 C 271,190 492,288 139,161 C 591,122 508,226 248,296 C 474,423 193,176 443,431 C 293,458 483,409 211,197 C 126,143 471,199 649,297 C 540,462 485,144 479,197 Z"></path>

  </g>
</svg>
