<svg xmlns="http://www.w3.org/2000/svg" xmlns:xlink="http://www.w3.org/1999/xlink" width="800" height="600" version="1.1" viewBox="0 0 800 600"><g fill="none" fill-rule="evenodd" stroke="none" stroke-width="1"><path fill="#6634D9" stroke="#406A3C" stroke-opacity=".541" stroke-width="3" d="M 346,184 C 630,172 261,310 457,130 C 123,409 536,381 207,203 C 556,232 670,458 548,491 C 580,341 354,275 159,114 Z" opacity=".679" transform="rotate(-21.0 400 300)"/><path fill="#50CB94" stroke="#CC54D1" stroke-opacity=".378" stroke-width="3" d="M 267,384 C 694,213 218,162 568,188 C 658,263 545,240 306,449 C 226,380 127,374 374,411 C 671,266 482,389 452,473 Z" opacity=".294" transform="rotate(-7.0 400 300)"/><path fill="#B96B13" stroke="#5C0273" stroke-opacity=".486" stroke-width="2" d="M 334,425 C 284,344 271,331 428,329 C 283,321 596,487 290,489 C 298,229 447,471 380,263 C 446,331 229,335 152,339 C 290,188 680,368 373,368 C 139,479 413,415 112,415 C 331,116 310,329 464,397 C 231,354 156,437 391,304 Z" opacity=".049" transform="rotate(127.0 400 300)"/><path fill="#50C760" stroke="#B1BB54" stroke-opacity=".861" stroke-width="2" d="M 130,211 C 333,126 547,104 285,376 C 301,113 522,242 396,193 C 292,379 590,493 228,366 C 313,227 299,217 281,248 C 653,166 568,387 484,403 C 584,261 533,244 311,484 C 234,131 588,217 680,400 C 206,324 388,189 236,266 C 381,337 577,128 595,181 Z" opacity=".957" transform="rotate(-172.0 400 300)"/><path fill="#867343" stroke="#3134AA" stroke-opacity=".171" stroke-width="7" d="M 425,391 C 401,362 611,417 601,265 C 507,409 423,239 690,225 C 320,279 366,117 496,498 C 520,328 400,408 288,474 C 563,452 277,384 520,163 C 643,482 162,261 393,417 C 278,472 630,328 162,344 C 148,301 622,428 362,180 C 325,393 646,261 628,159 Z" opacity=".776" transform="rotate(13.0 400 300)"/><path fill="#D5D849" stroke="#A867AB" stroke-opacity=".107" stroke-width="3" d="M 347,220 C 218,121 689,174 544,379 C 526,332 647,159 520,439 C 544,311 551,469 276,416 C 560,494 488,172 188,295 C 342,357 177,402 433,312 C 383,179 404,271 299,399 Z" opacity=".187" transform="rotate(170.0 400 300)"/><path fill="#C7DDB0" stroke="#3380D7" stroke-opacity=".899" stroke-width="3" d="M 328,206 C 681,132 252,440 216,118 C 550,365 541,286 419,391 C 677,251 332,467 413,422 C 208,302 340,249 431,261 C 667,238 589,237 506,306 C 174,425 456,145 480,401 C 420,383 496,217 588,343 C 103,410 393,137 512,129 Z" opacity=".388" transform="rotate(17.0 400 300)"/><path fill="#059122" stroke="#C9DD15" stroke-opacity=".693" stroke-width="6" d="M 231,413 C 306,455 645,219 324,266 C 107,319 203,161 318,432 C 274,451 570,162 263,187 C 289,472 211,315 258,320 C 647,306 688,142 161,124 Z" opacity=".019" transform="rotate(-46.0 400 300)"/><path fill="#D51312" stroke="#94B663" stroke-opacity=".154" stroke-width="5" d="M 460,194 C 290,329 152,404 519,409 C 174,242 676,223 319,456 C 653,482 221,252 697,211 C 225,117 618,191 676,127 C 411,281 398,367 607,172 C 506,164 167,295 404,375 C 445,329 369,187 454,213 C 207,161 569,257 583,468 C 425,487 700,391 481,120 C 504,104 244,356 300,119 Z" opacity=".085" transform="rotate(73.0 400 300)"/><path fill="#3143AB" stroke="#2C4206" stroke-opacity=".42" stroke-width="4" d="M 695,274 C 530,496 494,201 452,350 C 534,188 457,386 331,425 C 344,244 300,364 167,328 C 192,341 347,360 599,500 C 177,369 251,318 195,448 C 131,175 416,231 610,364 C 281,140 178,347 351,340 C 253,443 118,221 618,429 C 373,407 329,460 317,394 C 557,205 392,237 487,359 C 329,149 549,231 663,112 Z" opacity=".964" transform="rotate(16.0 400 300)"/><path fill="#284473" stroke="#D27426" stroke-opacity=".257" stroke-width="1" d="M 650,172 C 194,355 189,361 322,332 C 543,147 523,174 272,285 C 336,378 542,186 478,147 C 252,274 309,228 346,429 C 315,363 409,131 482,187 C 271,190 492,288 139,161 C 591,122 508,226 248,296 C 474,423 193,176 443,431 C 293,458 483,409 211,197 C 126,143 471,199 649,297 C 540,462 485,144 479,197 Z" opacity=".386" transform="rotate(-74.0 400 300)"/></g></svg>