<?xml version="1.0" encoding="UTF-8"?>
<svg width="800px" height="600px" viewBox="0 0 800 600" version="1.1" xmlns="http://www.w3.org/2000/svg" xmlns:xlink="http://www.w3.org/1999/xlink">
  <defs></defs>
  <g stroke="none" stroke-width="1" fill="none" fill-rule="evenodd">
    
    <path stroke="#31a06b" stroke-width="6" fill="#f27630" opacity="0.8228817774536481" stroke-opacity="0.5267256287309856" transform="rotate(170.0 400 300)" d="M 586,261  C 676,316 679,138 264,432 C 630,307 109,456 553,347 C 607,273 341,461 685,317 C 488,276 634,247 116,317 C 470,351 353,308 536,334 C 640,417 454,478 480,155 C 578,323 537,240 299,369 C 450,433 112,419 268,437 C 644,397 398,365 441,408 Z"></path>
<path stroke="#ed2b2c" stroke-width="7" fill="#31a06b" opacity="0.7669743155806988" stroke-opacity="0.27712620865474663" transform="rotate(170.0 400 300)" d="M 302,319  C 479,284 590,362 286,425 C 691,134 380,157 134,106 C 156,237 178,437 379,469 C 337,389 240,297 343,196 C 505,494 255,336 646,146 C 474,199 233,170 177,444 C 618,281 691,264 532,253 Z"></path>
<path stroke="#f9d84b" stroke-width="2" fill="#ed2b2c" opacity="0.6136524391180286" stroke-opacity="0.909576744478512" transform="rotate(83.0 400 300)" d="M 636,242  C 506,381 281,275 502,117 C 664,146 351,318 234,244 C 653,464 203,376 384,226 C 273,117 298,426 198,180 C 689,306 611,145 489,139 C 558,254 376,414 127,133 C 340,192 459,186 304,274 C 465,146 596,499 114,276 Z"></path>
<path stroke="#f9d84b" stroke-width="1" fill="#f27630" opacity="0.635341781741339" stroke-opacity="0.07137547690762856" transform="rotate(57.0 400 300)" d="M 206,142  C 682,278 404,368 550,462 C 181,206 688,281 293,389 C 392,386 106,442 560,383 C 466,452 360,363 132,146 C 249,393 560,264 231,481 C 152,306 147,253 282,354 Z"></path>
<path stroke="#2b55f7" stroke-width="2" fill="#2b55f7" opacity="0.18026252475429322" stroke-opacity="0.4662490409976908" transform="rotate(-124.0 400 300)" d="M 169,425  C 217,195 171,215 482,113 C 296,446 654,251 595,296 C 646,321 195,391 557,109 C 474,488 171,422 307,192 C 659,402 110,164 119,132 Z"></path>
<path stroke="#f9d84b" stroke-width="5" fill="#2b55f7" opacity="0.08129372544668864" stroke-opacity="0.6935508237396889" transform="rotate(119.0 400 300)" d="M 319,193  C 603,492 687,131 464,454 C 586,116 196,336 609,272 C 232,400 604,152 102,270 C 517,123 298,194 401,376 C 559,423 545,164 205,115 C 550,150 426,443 700,474 C 529,485 662,179 379,268 C 276,338 566,337 427,339 C 198,216 128,134 595,464 Z"></path>
<path stroke="#ed2b2c" stroke-width="5" fill="#31a06b" opacity="0.594944074022029" stroke-opacity="0.03088156050474651" transform="rotate(28.0 400 300)" d="M 342,311  C 678,401 685,158 665,154 C 157,113 352,304 326,353 C 159,221 412,206 673,126 C 138,375 250,117 626,429 C 178,284 604,323 489,206 C 171,463 231,195 183,322 C 163,199 311,271 472,480 C 511,267 684,203 385,230 C 215,246 246,463 511,127 Z"></path>
<path stroke="#f27630" stroke-width="4" fill="#f27630" opacity="0.28496219688229696" stroke-opacity="0.032228640779289164" transform="rotate(57.0 400 300)" d="M 450,424  C 383,497 147,166 125,286 C 542,175 513,346 309,258 C 448,445 384,352 571,195 C 638,415 427,191 227,375 C 169,412 131,253 588,467 C 246,232 561,417 448,491 C 540,224 571,407 438,228 C 514,255 298,228 238,357 Z"></path>
<path stroke="#2b55f7" stroke-width="2" fill="#f27630" opacity="0.7111540503423127" stroke-opacity="0.4973606395888199" transform="rotate(59.0 400 300)" d="M 267,307  C 545,204 654,398 535,246 C 132,394 564,143 136,424 C 559,480 266,143 165,175 C 128,386 248,380 387,465 C 452,189 659,196 698,247 C 263,287 679,434 551,386 C 280,393 664,285 209,366 C 322,132 134,386 353,402 C 164,470 499,212 232,250 Z"></path>
<path stroke="#f9d84b" stroke-width="5" fill="#ed2b2c" opacity="0.9510652286736134" stroke-opacity="0.9855552114531422" transform="rotate(8.0 400 300)" d="M 511,154  C 255,497 686,445 593,437 C 196,347 260,392 654,334 C 105,183 157,172 258,385 C 243,326 253,111 230,344 Z"></path>

  </g>
</svg>
