<?xml version="1.0" encoding="UTF-8"?>
<svg width="800px" height="600px" viewBox="0 0 800 600" version="1.1" xmlns="http://www.w3.org/2000/svg" xmlns:xlink="http://www.w3.org/1999/xlink">
  <defs></defs>
  <g stroke="none" stroke-width="1" fill="none" fill-rule="evenodd">
    
    <rect stroke="#0fa6d8" stroke-width="4" fill="#fe9225" opacity="0.6469748250527005" stroke-opacity="0.9163701615737079" transform="rotate(-133.0 400 300)" x="753" y="91" width="181" height="230"></rect>
<path stroke="#0fa6d8" stroke-width="4" fill="#f559a0" opacity="0.8527982167498149" stroke-opacity="0.0937262603887242" transform="rotate(132.0 400 300)" d="M 522,235  C 220,397 642,257 407,270 C 323,332 122,319 547,358 C 266,146 279,110 401,395 C 120,442 385,192 162,420 C 431,332 331,430 417,487 C 371,298 109,472 289,174 C 284,328 593,245 561,408 C 281,353 114,261 302,213 C 690,440 129,206 310,206 C 297,245 151,346 290,203 C 185,136 192,231 665,433 Z"></path>
<path stroke="#02eb6b" stroke-width="1" fill="#2cd3f3" opacity="0.28069381024198037" stroke-opacity="0.3507472401712817" transform="rotate(121.0 400 300)" d="M 111,110  C 631,141 476,384 539,128 C 655,382 396,480 527,240 C 161,178 647,288 257,439 C 511,214 406,147 338,438 C 308,482 661,226 528,155 C 664,367 484,386 142,363 C 395,469 411,310 665,152 C 307,141 505,419 481,143 C 368,280 482,341 410,345 Z"></path>
<path stroke="#2cd3f3" stroke-width="4" fill="#fe9225" opacity="0.07736635880439573" stroke-opacity="0.6437884019894423" transform="rotate(62.0 400 300)" d="M 121,241  C 276,454 219,126 341,264 C 689,352 358,423 656,255 C 132,464 418,159 191,493 C 130,381 145,380 243,122 Z"></path>
<path stroke="#fe9225" stroke-width="3" fill="#fe9225" opacity="0.6798172206735918" stroke-opacity="0.6237707387578381" transform="rotate(-131.0 400 300)" d="M 700,210  C 611,171 410,326 365,124 C 683,455 275,107 545,291 C 655,298 117,455 505,112 C 408,341 632,437 237,191 C 544,224 276,367 532,416 Z"></path>
<path stroke="#02eb6b" stroke-width="4" fill="#02eb6b" opacity="0.8220102084851741" stroke-opacity="0.04902784464896696" transform="rotate(154.0 400 300)" d="M 372,266  C 675,456 451,364 273,416 C 357,157 668,438 171,352 C 679,406 188,197 419,285 C 537,383 286,123 406,266 C 238,352 622,150 556,155 C 325,388 669,438 137,266 Z"></path>
<polygon stroke="#0fa6d8" stroke-width="3" fill="#f559a0" opacity="0.6150002215033455" stroke-opacity="0.17506283845905998" transform="rotate(160.0 400 300)" points="718 42 710 534 470 222 634 65 687 438 66 244 470 449 "></polygon>

  </g>
</svg>
