<svg xmlns="http://www.w3.org/2000/svg" xmlns:xlink="http://www.w3.org/1999/xlink" width="800" height="600" version="1.1" viewBox="0 0 800 600"><g fill="none" fill-rule="evenodd" stroke="none" stroke-width="1"><ellipse cx="167" cy="17" fill="#974D00" stroke="#B6D76A" stroke-opacity=".206" stroke-width="2" opacity=".289" rx="340" ry="288" transform="rotate(-112.0 400 300)"/><polygon fill="#D18408" stroke="#630BCA" stroke-opacity=".291" stroke-width="3" points="99 33 737 301 748 141 627 79 590 72 20 522 786 167" opacity=".189" transform="rotate(-151.0 400 300)"/><ellipse cx="455" cy="497" fill="#6A7292" stroke="#53A9CC" stroke-opacity=".21" stroke-width="5" opacity=".69" rx="39" ry="98" transform="rotate(-175.0 400 300)"/><polygon fill="#1809A8" stroke="#B037C5" stroke-opacity=".941" stroke-width="2" points="609 419 345 70 731 155 389 378 619 140 40 424 660 473 12 329" opacity=".586" transform="rotate(-129.0 400 300)"/><polygon fill="#06013C" stroke="#5144A5" stroke-opacity=".846" stroke-width="7" points="235 270 767 325 421 332 605 109 263 154 183 23" opacity=".353" transform="rotate(166.0 400 300)"/><path fill="#9D8A8A" stroke="#493D69" stroke-opacity=".809" stroke-width="1" d="M 494,307 C 328,328 700,241 406,439 C 235,475 150,191 236,306 C 456,149 657,128 232,386 C 357,103 698,245 670,170 C 383,485 699,290 519,410 C 155,243 253,207 559,129 C 214,241 501,219 687,220 C 206,292 645,256 395,463 C 177,250 498,432 665,223 C 451,174 614,332 585,399 C 524,110 458,105 312,274 Z" opacity=".108" transform="rotate(-27.0 400 300)"/><polygon fill="#BCD7A8" stroke="#7DB978" stroke-opacity=".598" stroke-width="1" points="242 124 88 120 699 66 739 479 238 494 233 224 201 451 698 559" opacity=".604" transform="rotate(-174.0 400 300)"/><rect width="207" height="319" x="152" y="316" fill="#8CA776" stroke="#626348" stroke-opacity=".682" stroke-width="6" opacity=".171" transform="rotate(-9.0 400 300)"/></g></svg>