<svg xmlns="http://www.w3.org/2000/svg" xmlns:xlink="http://www.w3.org/1999/xlink" width="800" height="600" version="1.1" viewBox="0 0 800 600"><g fill="none" fill-rule="evenodd" stroke="none" stroke-width="1"><polygon fill="#31a06b" stroke="#f27630" stroke-opacity=".654" stroke-width="2" points="507 329 524 207 402 103 407 593 261 432 679 283 701 84 434 515" opacity=".254" transform="rotate(172.0 400 300)"/><rect width="287" height="222" x="513" y="241" fill="#ed2b2c" stroke="#f27630" stroke-opacity=".27" stroke-width="4" opacity=".396" transform="rotate(44.0 400 300)"/><rect width="325" height="182" x="302" y="218" fill="#31a06b" stroke="#2b55f7" stroke-opacity=".94" stroke-width="6" opacity=".244" transform="rotate(-51.0 400 300)"/><polygon fill="#f9d84b" stroke="#31a06b" stroke-opacity=".626" stroke-width="3" points="656 345 107 54 387 577 379 390 121 45 184 350 302 84" opacity=".538" transform="rotate(169.0 400 300)"/><polygon fill="#f27630" stroke="#f27630" stroke-opacity=".385" stroke-width="4" points="298 97 241 80 625 553 649 155 705 308 432 390 427 13" opacity=".767" transform="rotate(58.0 400 300)"/><path fill="#f9d84b" stroke="#f27630" stroke-opacity=".065" stroke-width="7" d="M 587,474 C 497,366 382,171 271,413 C 615,490 569,481 404,335 C 465,421 217,303 362,450 C 507,237 652,217 395,444 C 680,151 666,208 150,106 C 490,109 624,402 408,378 C 160,311 697,474 647,395 C 510,309 142,162 173,335 Z" opacity=".12" transform="rotate(6.0 400 300)"/><rect width="160" height="35" x="789" y="521" fill="#f27630" stroke="#31a06b" stroke-opacity=".835" stroke-width="4" opacity=".392" transform="rotate(76.0 400 300)"/></g></svg>