<svg xmlns="http://www.w3.org/2000/svg" xmlns:xlink="http://www.w3.org/1999/xlink" width="800" height="600" version="1.1" viewBox="0 0 800 600"><g fill="none" fill-rule="evenodd" stroke="none" stroke-width="1"><path fill="#02eb6b" stroke="#fe9225" stroke-opacity=".008" stroke-width="3" d="M 272,411 C 229,152 684,136 555,246 C 325,255 343,356 399,393 C 440,185 283,303 448,454 C 424,402 353,213 617,287 C 648,272 670,391 233,282 C 350,424 691,399 213,443 C 641,116 628,151 116,233 C 472,324 329,133 364,221 C 353,277 491,226 588,353 C 626,139 643,310 462,182 C 399,219 461,120 366,356 Z" opacity=".7" transform="rotate(126.0 400 300)"/><path fill="#02eb6b" stroke="#f559a0" stroke-opacity=".677" stroke-width="1" d="M 307,416 C 640,161 639,131 147,354 C 694,410 390,247 238,365 C 688,361 502,416 218,396 C 297,135 473,290 357,301 C 384,210 420,168 676,104 C 405,342 436,172 154,177 C 217,120 243,170 201,239 C 108,343 150,484 377,420 C 613,345 591,344 497,150 C 626,334 576,301 239,355 Z" opacity=".843" transform="rotate(159.0 400 300)"/><path fill="#fe9225" stroke="#f559a0" stroke-opacity=".068" stroke-width="4" d="M 212,432 C 168,314 467,130 441,303 C 295,400 549,191 285,437 C 566,379 187,167 221,409 C 325,444 645,306 381,162 C 594,343 398,198 168,358 C 148,175 643,315 497,255 C 118,101 571,489 114,494 C 402,494 348,182 470,170 C 622,113 139,322 142,337 C 327,431 480,222 312,488 Z" opacity=".294" transform="rotate(-31.0 400 300)"/><path fill="#02eb6b" stroke="#02eb6b" stroke-opacity=".033" stroke-width="7" d="M 233,470 C 258,358 556,226 536,239 C 558,442 114,479 381,369 C 643,242 649,401 655,172 C 213,165 438,288 462,179 C 590,155 292,268 199,107 C 500,245 572,482 315,209 C 360,111 257,235 158,320 C 526,399 249,168 355,389 C 231,194 469,175 454,280 C 364,294 641,143 235,316 C 162,432 402,160 414,199 Z" opacity=".684" transform="rotate(98.0 400 300)"/><path fill="#2cd3f3" stroke="#0fa6d8" stroke-opacity=".761" stroke-width="7" d="M 368,371 C 591,176 588,473 306,387 C 443,201 666,411 496,118 C 480,395 565,283 347,180 C 151,444 600,451 335,415 C 398,399 373,310 465,195 C 676,287 331,146 259,337 Z" opacity=".897" transform="rotate(64.0 400 300)"/><path fill="#02eb6b" stroke="#02eb6b" stroke-opacity=".498" stroke-width="5" d="M 660,307 C 608,214 145,482 326,344 C 257,479 365,382 467,440 C 297,180 271,466 567,116 C 634,383 631,386 524,316 C 412,238 218,300 699,128 C 244,249 247,180 492,289 C 271,373 547,155 286,287 C 645,450 634,330 189,106 C 484,336 520,403 473,279 C 440,279 403,250 504,180 C 478,409 691,235 570,345 Z" opacity=".829" transform="rotate(-105.0 400 300)"/></g></svg>