<?xml version="1.0" encoding="UTF-8"?>
<svg width="800px" height="600px" viewBox="0 0 800 600" version="1.1" xmlns="http://www.w3.org/2000/svg" xmlns:xlink="http://www.w3.org/1999/xlink">
  <defs></defs>
  <g stroke="none" stroke-width="1" fill="none" fill-rule="evenodd">
    
    <path stroke="#27025B" stroke-width="3" fill="#57ADA7" opacity="0.03791968648337927" stroke-opacity="0.21566272738469444" transform="rotate(-7.0 400 300)" d="M 316,131  C 555,238 578,105 198,115 C 304,428 199,223 174,192 C 476,187 654,158 672,413 C 467,259 142,463 203,432 C 533,213 201,455 508,166 C 596,105 135,187 138,302 Z"></path>
<path stroke="#9C7B61" stroke-width="5" fill="#91170C" opacity="0.14850089324110632" stroke-opacity="0.9705655493051563" transform="rotate(146.0 400 300)" d="M 419,287  C 147,161 105,114 428,367 C 542,339 645,233 514,174 C 540,241 277,400 366,378 C 124,117 546,350 600,206 Z"></path>
<path stroke="#B1B363" stroke-width="5" fill="#D73936" opacity="0.9443033184976869" stroke-opacity="0.9012045975141069" transform="rotate(-32.0 400 300)" d="M 201,105  C 632,455 115,221 276,125 C 389,334 688,269 141,383 C 238,500 568,300 299,257 C 259,354 550,250 546,381 Z"></path>
<path stroke="#3601D2" stroke-width="5" fill="#0C81D2" opacity="0.9581989506891816" stroke-opacity="0.12147301857870031" transform="rotate(68.0 400 300)" d="M 332,113  C 160,245 180,235 147,421 C 473,142 506,364 670,443 C 480,379 403,149 424,308 C 486,115 127,253 580,357 C 525,122 580,226 385,465 C 394,328 588,352 248,117 C 247,473 505,170 389,105 C 220,369 490,333 456,101 Z"></path>
<path stroke="#2ADC86" stroke-width="5" fill="#02C7AC" opacity="0.7720117164919492" stroke-opacity="0.22692060624472882" transform="rotate(-78.0 400 300)" d="M 570,119  C 287,245 371,114 285,369 C 540,160 491,288 174,457 C 668,144 616,390 117,257 C 670,122 494,113 109,243 Z"></path>
<path stroke="#3A6904" stroke-width="4" fill="#77D3B7" opacity="0.14018842180434715" stroke-opacity="0.5406216542741713" transform="rotate(103.0 400 300)" d="M 125,493  C 398,492 268,164 671,457 C 612,316 248,368 661,106 C 366,410 246,373 498,494 C 488,396 496,336 202,167 C 242,250 559,373 113,279 C 362,383 343,385 117,112 Z"></path>
<path stroke="#59D4D4" stroke-width="1" fill="#8DCD6B" opacity="0.8655233263473356" stroke-opacity="0.771429486921871" transform="rotate(18.0 400 300)" d="M 205,153  C 167,310 686,120 649,339 C 131,397 477,188 292,495 C 289,348 242,131 298,316 C 446,261 342,402 465,217 C 468,264 684,101 418,360 C 346,466 699,257 694,304 C 124,119 257,125 232,308 C 655,432 325,145 285,280 Z"></path>
<path stroke="#27D16B" stroke-width="3" fill="#71DBD2" opacity="0.8858475060976444" stroke-opacity="0.8233024148068443" transform="rotate(-124.0 400 300)" d="M 312,309  C 454,327 248,210 555,389 C 553,209 560,330 266,315 C 427,342 437,356 246,208 C 310,485 175,469 523,476 Z"></path>
<path stroke="#9490CA" stroke-width="4" fill="#8BD6B3" opacity="0.8165817801200042" stroke-opacity="0.210727483393687" transform="rotate(173.0 400 300)" d="M 177,205  C 339,405 483,140 408,261 C 205,485 240,495 575,438 C 693,334 264,453 488,259 C 580,309 632,472 172,317 C 423,137 405,143 170,270 C 128,238 278,439 465,314 Z"></path>
<path stroke="#611549" stroke-width="5" fill="#CBCAC0" opacity="0.46776235724017323" stroke-opacity="0.19885165991711898" transform="rotate(71.0 400 300)" d="M 376,426  C 370,448 162,421 627,223 C 311,252 476,249 418,460 C 214,266 603,308 104,326 C 358,198 675,347 619,230 C 134,461 199,448 106,423 Z"></path>

  </g>
</svg>
