<svg xmlns="http://www.w3.org/2000/svg" xmlns:xlink="http://www.w3.org/1999/xlink" width="800" height="600" version="1.1" viewBox="0 0 800 600"><g fill="none" fill-rule="evenodd" stroke="none" stroke-width="1"><path fill="#82A12A" stroke="#C0674D" stroke-opacity=".681" stroke-width="5" d="M 414,199 C 614,493 257,250 217,373 C 126,251 156,236 199,384 C 136,130 563,345 481,369 C 282,288 539,174 313,387 C 287,400 268,195 577,291 Z" opacity=".099" transform="rotate(114.0 400 300)"/><path fill="#B6C60A" stroke="#CC3D18" stroke-opacity=".709" stroke-width="5" d="M 159,137 C 558,473 265,257 453,500 C 534,224 689,313 111,341 C 129,357 655,277 255,214 C 304,127 104,329 156,301 Z" opacity=".783" transform="rotate(27.0 400 300)"/><path fill="#903AA2" stroke="#818B0A" stroke-opacity=".134" stroke-width="2" d="M 268,379 C 111,275 484,369 162,290 C 636,129 449,173 435,311 C 693,350 150,332 567,441 C 237,374 120,156 615,441 C 212,258 243,333 104,177 C 159,119 695,188 292,115 C 597,116 398,213 640,247 C 617,235 135,153 664,175 C 239,417 572,484 143,350 Z" opacity=".638" transform="rotate(-145.0 400 300)"/><path fill="#4501D9" stroke="#DD6277" stroke-opacity=".729" stroke-width="1" d="M 669,318 C 202,200 202,190 327,427 C 647,213 506,300 269,405 C 695,105 292,379 165,380 C 623,288 624,216 151,309 C 520,389 534,141 650,327 Z" opacity=".667" transform="rotate(50.0 400 300)"/><path fill="#A9D68D" stroke="#B4B286" stroke-opacity=".96" stroke-width="3" d="M 658,164 C 152,287 370,286 605,431 C 461,320 612,381 680,299 C 285,451 120,441 518,398 C 293,481 275,475 630,449 C 414,453 296,103 270,415 C 290,364 489,344 542,168 C 361,178 418,236 346,476 Z" opacity=".347" transform="rotate(-29.0 400 300)"/><path fill="#0BCD2C" stroke="#219A62" stroke-opacity=".148" stroke-width="2" d="M 123,114 C 160,156 642,423 248,446 C 257,371 550,412 670,471 C 356,248 144,453 512,438 C 166,146 687,357 413,251 C 206,262 105,327 169,267 C 564,456 267,285 640,202 C 242,221 570,128 257,247 C 352,396 235,198 316,339 C 250,428 663,265 227,489 C 376,105 254,104 613,206 C 666,187 602,199 213,499 Z" opacity=".072" transform="rotate(-9.0 400 300)"/><path fill="#DD94A7" stroke="#A75141" stroke-opacity=".526" stroke-width="3" d="M 444,443 C 582,114 380,496 390,215 C 661,220 425,137 414,393 C 159,491 349,128 570,266 C 333,465 652,470 593,249 C 152,163 421,454 332,112 C 581,499 249,332 545,202 C 105,382 549,369 445,289 Z" opacity=".122" transform="rotate(-128.0 400 300)"/></g></svg>