<?xml version="1.0" encoding="UTF-8"?>
<svg width="800px" height="600px" viewBox="0 0 800 600" version="1.1" xmlns="http://www.w3.org/2000/svg" xmlns:xlink="http://www.w3.org/1999/xlink">
  <defs></defs>
  <g stroke="none" stroke-width="1" fill="none" fill-rule="evenodd">
    
    <path stroke="#C0674D" stroke-width="5" fill="#82A12A" opacity="0.09920599647004816" stroke-opacity="0.68137702219518" transform="rotate(114.0 400 300)" d="M 414,199  C 614,493 257,250 217,373 C 126,251 156,236 199,384 C 136,130 563,345 481,369 C 282,288 539,174 313,387 C 287,400 268,195 577,291 Z"></path>
<path stroke="#CC3D18" stroke-width="5" fill="#B6C60A" opacity="0.7827750876341409" stroke-opacity="0.7094843633902825" transform="rotate(27.0 400 300)" d="M 159,137  C 558,473 265,257 453,500 C 534,224 689,313 111,341 C 129,357 655,277 255,214 C 304,127 104,329 156,301 Z"></path>
<path stroke="#818B0A" stroke-width="2" fill="#903AA2" opacity="0.6384624226628848" stroke-opacity="0.13442141510248065" transform="rotate(-145.0 400 300)" d="M 268,379  C 111,275 484,369 162,290 C 636,129 449,173 435,311 C 693,350 150,332 567,441 C 237,374 120,156 615,441 C 212,258 243,333 104,177 C 159,119 695,188 292,115 C 597,116 398,213 640,247 C 617,235 135,153 664,175 C 239,417 572,484 143,350 Z"></path>
<path stroke="#DD6277" stroke-width="1" fill="#4501D9" opacity="0.66726195457395" stroke-opacity="0.7294854019750997" transform="rotate(50.0 400 300)" d="M 669,318  C 202,200 202,190 327,427 C 647,213 506,300 269,405 C 695,105 292,379 165,380 C 623,288 624,216 151,309 C 520,389 534,141 650,327 Z"></path>
<path stroke="#B4B286" stroke-width="3" fill="#A9D68D" opacity="0.34679901564164417" stroke-opacity="0.9601768904349811" transform="rotate(-29.0 400 300)" d="M 658,164  C 152,287 370,286 605,431 C 461,320 612,381 680,299 C 285,451 120,441 518,398 C 293,481 275,475 630,449 C 414,453 296,103 270,415 C 290,364 489,344 542,168 C 361,178 418,236 346,476 Z"></path>
<path stroke="#219A62" stroke-width="2" fill="#0BCD2C" opacity="0.07246954400252856" stroke-opacity="0.1480350328488852" transform="rotate(-9.0 400 300)" d="M 123,114  C 160,156 642,423 248,446 C 257,371 550,412 670,471 C 356,248 144,453 512,438 C 166,146 687,357 413,251 C 206,262 105,327 169,267 C 564,456 267,285 640,202 C 242,221 570,128 257,247 C 352,396 235,198 316,339 C 250,428 663,265 227,489 C 376,105 254,104 613,206 C 666,187 602,199 213,499 Z"></path>
<path stroke="#A75141" stroke-width="3" fill="#DD94A7" opacity="0.12182620480136425" stroke-opacity="0.5261598746269887" transform="rotate(-128.0 400 300)" d="M 444,443  C 582,114 380,496 390,215 C 661,220 425,137 414,393 C 159,491 349,128 570,266 C 333,465 652,470 593,249 C 152,163 421,454 332,112 C 581,499 249,332 545,202 C 105,382 549,369 445,289 Z"></path>

  </g>
</svg>
