<?xml version="1.0" encoding="UTF-8"?>
<svg width="800px" height="600px" viewBox="0 0 800 600" version="1.1" xmlns="http://www.w3.org/2000/svg" xmlns:xlink="http://www.w3.org/1999/xlink">
  <defs></defs>
  <g stroke="none" stroke-width="1" fill="none" fill-rule="evenodd">
    
    <polygon stroke="#f9d84b" stroke-width="7" fill="#31a06b" opacity="0.8749737698139874" stroke-opacity="0.286979345463877" transform="rotate(153.0 400 300)" points="502 149 655 183 610 405 466 599 694 19 517 223 462 574 284 280 "></polygon>
<ellipse stroke="#ed2b2c" stroke-width="7" fill="#f27630" opacity="0.39803470513132305" stroke-opacity="0.949429777283137" transform="rotate(148.0 400 300)" cx="640" rx="336" cy="412" ry="309"></ellipse>
<rect stroke="#2b55f7" stroke-width="1" fill="#f9d84b" opacity="0.28521733536180893" stroke-opacity="0.07595215048306757" transform="rotate(149.0 400 300)" x="593" y="228" width="288" height="175"></rect>
<rect stroke="#f9d84b" stroke-width="3" fill="#f9d84b" opacity="0.36590585482335464" stroke-opacity="0.4847139316534662" transform="rotate(44.0 400 300)" x="586" y="44" width="247" height="87"></rect>
<rect stroke="#f9d84b" stroke-width="5" fill="#31a06b" opacity="0.06884153240819087" stroke-opacity="0.5458020172000311" transform="rotate(47.0 400 300)" x="656" y="94" width="169" height="346"></rect>
<path stroke="#31a06b" stroke-width="1" fill="#ed2b2c" opacity="0.1613566871612276" stroke-opacity="0.7625424141195405" transform="rotate(113.0 400 300)" d="M 481,246  C 462,349 413,499 265,496 C 158,403 601,193 626,175 C 176,130 405,347 358,481 C 466,382 600,114 544,142 C 128,112 310,275 245,397 C 503,200 365,172 491,249 C 208,378 192,168 665,259 C 335,159 104,434 538,290 Z"></path>
<path stroke="#f9d84b" stroke-width="7" fill="#f9d84b" opacity="0.19800540829435795" stroke-opacity="0.40816797022725676" transform="rotate(108.0 400 300)" d="M 358,465  C 398,419 196,412 561,344 C 204,218 222,464 267,144 C 197,234 397,256 376,403 C 194,245 543,167 633,359 Z"></path>

  </g>
</svg>
