<svg xmlns="http://www.w3.org/2000/svg" xmlns:xlink="http://www.w3.org/1999/xlink" width="800" height="600" version="1.1" viewBox="0 0 800 600"><g fill="none" fill-rule="evenodd" stroke="none" stroke-width="1"><polygon fill="#31a06b" stroke="#f9d84b" stroke-opacity=".287" stroke-width="7" points="502 149 655 183 610 405 466 599 694 19 517 223 462 574 284 280" opacity=".875" transform="rotate(153.0 400 300)"/><ellipse cx="640" cy="412" fill="#f27630" stroke="#ed2b2c" stroke-opacity=".949" stroke-width="7" opacity=".398" rx="336" ry="309" transform="rotate(148.0 400 300)"/><rect width="288" height="175" x="593" y="228" fill="#f9d84b" stroke="#2b55f7" stroke-opacity=".076" stroke-width="1" opacity=".285" transform="rotate(149.0 400 300)"/><rect width="247" height="87" x="586" y="44" fill="#f9d84b" stroke="#f9d84b" stroke-opacity=".485" stroke-width="3" opacity=".366" transform="rotate(44.0 400 300)"/><rect width="169" height="346" x="656" y="94" fill="#31a06b" stroke="#f9d84b" stroke-opacity=".546" stroke-width="5" opacity=".069" transform="rotate(47.0 400 300)"/><path fill="#ed2b2c" stroke="#31a06b" stroke-opacity=".763" stroke-width="1" d="M 481,246 C 462,349 413,499 265,496 C 158,403 601,193 626,175 C 176,130 405,347 358,481 C 466,382 600,114 544,142 C 128,112 310,275 245,397 C 503,200 365,172 491,249 C 208,378 192,168 665,259 C 335,159 104,434 538,290 Z" opacity=".161" transform="rotate(113.0 400 300)"/><path fill="#f9d84b" stroke="#f9d84b" stroke-opacity=".408" stroke-width="7" d="M 358,465 C 398,419 196,412 561,344 C 204,218 222,464 267,144 C 197,234 397,256 376,403 C 194,245 543,167 633,359 Z" opacity=".198" transform="rotate(108.0 400 300)"/></g></svg>