<svg xmlns="http://www.w3.org/2000/svg" xmlns:xlink="http://www.w3.org/1999/xlink" width="800" height="600" version="1.1" viewBox="0 0 800 600"><g fill="none" fill-rule="evenodd" stroke="none" stroke-width="1"><path fill="#292623" stroke="#7109BC" stroke-opacity=".796" stroke-width="5" d="M 584,296 C 276,169 314,322 651,464 C 527,423 443,155 503,224 C 513,104 610,490 321,200 C 386,411 141,458 435,330 Z" opacity=".831" transform="rotate(140.0 400 300)"/><path fill="#D0C7B8" stroke="#06173A" stroke-opacity=".72" stroke-width="7" d="M 451,109 C 288,342 182,112 644,339 C 657,195 172,427 467,193 C 336,391 416,358 538,135 C 669,464 124,151 240,204 Z" opacity=".745" transform="rotate(-46.0 400 300)"/><path fill="#A7C510" stroke="#2DDC55" stroke-opacity=".669" stroke-width="5" d="M 538,112 C 496,264 353,332 124,138 C 278,483 414,455 321,177 C 209,128 143,177 241,175 C 247,433 228,120 360,141 C 259,402 210,433 354,355 C 158,102 102,436 532,296 C 304,284 256,121 496,261 C 642,247 106,116 268,233 C 176,374 494,173 587,241 C 208,222 689,396 575,227 C 494,302 644,210 512,191 Z" opacity=".369" transform="rotate(160.0 400 300)"/><path fill="#297459" stroke="#BDB787" stroke-opacity=".836" stroke-width="7" d="M 230,349 C 421,357 540,301 179,427 C 112,140 651,496 321,173 C 593,183 658,138 592,190 C 220,378 422,393 175,197 Z" opacity=".41" transform="rotate(53.0 400 300)"/><path fill="#7D2088" stroke="#2C18B1" stroke-opacity=".6" stroke-width="4" d="M 571,491 C 525,492 686,486 130,356 C 165,198 581,138 627,230 C 589,338 572,491 102,438 C 408,322 291,467 472,227 C 117,366 532,162 237,224 C 639,343 250,387 179,361 C 319,223 692,122 131,475 C 613,174 338,145 118,370 Z" opacity=".633" transform="rotate(-70.0 400 300)"/><path fill="#C2C4B9" stroke="#94D4D5" stroke-opacity=".067" stroke-width="4" d="M 204,315 C 172,245 389,147 147,306 C 149,366 375,173 436,471 C 223,244 222,361 520,463 C 162,223 210,443 388,227 C 280,263 608,244 149,388 C 494,350 422,211 593,195 Z" opacity=".886" transform="rotate(119.0 400 300)"/><path fill="#AB5D53" stroke="#90BA08" stroke-opacity=".813" stroke-width="6" d="M 248,191 C 675,220 653,378 406,424 C 608,293 468,257 289,224 C 595,262 493,304 628,373 C 171,412 355,310 382,134 C 163,307 152,458 278,385 Z" opacity=".687" transform="rotate(-79.0 400 300)"/><path fill="#A3139C" stroke="#99C60D" stroke-opacity=".37" stroke-width="7" d="M 696,158 C 518,356 244,276 579,461 C 176,196 622,116 516,114 C 510,311 254,465 106,134 C 376,275 153,448 655,404 C 134,147 587,353 697,171 C 269,177 406,171 170,296 C 164,324 487,423 107,419 C 386,337 183,108 202,130 Z" opacity=".815" transform="rotate(176.0 400 300)"/><path fill="#84A198" stroke="#96A257" stroke-opacity=".471" stroke-width="3" d="M 133,349 C 689,340 615,168 150,353 C 680,141 320,268 108,341 C 490,271 499,129 443,236 C 496,365 315,339 528,209 C 681,190 624,385 488,364 C 275,343 162,189 695,439 C 487,276 153,146 368,286 C 396,495 152,260 621,148 Z" opacity=".651" transform="rotate(30.0 400 300)"/><path fill="#25C8CB" stroke="#8867B2" stroke-opacity=".618" stroke-width="2" d="M 395,399 C 689,340 238,181 187,411 C 568,245 576,356 529,143 C 540,408 425,246 366,300 C 138,153 409,185 269,311 C 392,218 245,377 367,481 C 237,476 134,313 368,318 C 539,150 512,156 435,499 C 663,193 614,297 544,445 C 471,177 146,118 339,213 Z" opacity=".971" transform="rotate(-6.0 400 300)"/><path fill="#55B90D" stroke="#4B2453" stroke-opacity=".809" stroke-width="6" d="M 294,478 C 559,433 560,432 181,109 C 131,358 486,295 668,408 C 419,486 521,201 186,165 C 548,473 372,244 250,176 C 416,127 450,390 166,172 C 256,103 207,328 343,206 Z" opacity=".836" transform="rotate(34.0 400 300)"/></g></svg>