<?xml version="1.0" encoding="UTF-8"?>
<svg width="800px" height="600px" viewBox="0 0 800 600" version="1.1" xmlns="http://www.w3.org/2000/svg" xmlns:xlink="http://www.w3.org/1999/xlink">
  <defs></defs>
  <g stroke="none" stroke-width="1" fill="none" fill-rule="evenodd">
    
    <path stroke="#7109BC" stroke-width="5" fill="#292623" opacity="0.830691651550695" stroke-opacity="0.7963948597490015" transform="rotate(140.0 400 300)" d="M 584,296  C 276,169 314,322 651,464 C 527,423 443,155 503,224 C 513,104 610,490 321,200 C 386,411 141,458 435,330 Z"></path>
<path stroke="#06173A" stroke-width="7" fill="#D0C7B8" opacity="0.744835188866341" stroke-opacity="0.7196738509869423" transform="rotate(-46.0 400 300)" d="M 451,109  C 288,342 182,112 644,339 C 657,195 172,427 467,193 C 336,391 416,358 538,135 C 669,464 124,151 240,204 Z"></path>
<path stroke="#2DDC55" stroke-width="5" fill="#A7C510" opacity="0.36857930124926774" stroke-opacity="0.6685493513137486" transform="rotate(160.0 400 300)" d="M 538,112  C 496,264 353,332 124,138 C 278,483 414,455 321,177 C 209,128 143,177 241,175 C 247,433 228,120 360,141 C 259,402 210,433 354,355 C 158,102 102,436 532,296 C 304,284 256,121 496,261 C 642,247 106,116 268,233 C 176,374 494,173 587,241 C 208,222 689,396 575,227 C 494,302 644,210 512,191 Z"></path>
<path stroke="#BDB787" stroke-width="7" fill="#297459" opacity="0.41043964121096776" stroke-opacity="0.8356536875050197" transform="rotate(53.0 400 300)" d="M 230,349  C 421,357 540,301 179,427 C 112,140 651,496 321,173 C 593,183 658,138 592,190 C 220,378 422,393 175,197 Z"></path>
<path stroke="#2C18B1" stroke-width="4" fill="#7D2088" opacity="0.6329115564454518" stroke-opacity="0.6001876505925564" transform="rotate(-70.0 400 300)" d="M 571,491  C 525,492 686,486 130,356 C 165,198 581,138 627,230 C 589,338 572,491 102,438 C 408,322 291,467 472,227 C 117,366 532,162 237,224 C 639,343 250,387 179,361 C 319,223 692,122 131,475 C 613,174 338,145 118,370 Z"></path>
<path stroke="#94D4D5" stroke-width="4" fill="#C2C4B9" opacity="0.8859541209598436" stroke-opacity="0.06713748394909268" transform="rotate(119.0 400 300)" d="M 204,315  C 172,245 389,147 147,306 C 149,366 375,173 436,471 C 223,244 222,361 520,463 C 162,223 210,443 388,227 C 280,263 608,244 149,388 C 494,350 422,211 593,195 Z"></path>
<path stroke="#90BA08" stroke-width="6" fill="#AB5D53" opacity="0.6865584828302617" stroke-opacity="0.8130319081429986" transform="rotate(-79.0 400 300)" d="M 248,191  C 675,220 653,378 406,424 C 608,293 468,257 289,224 C 595,262 493,304 628,373 C 171,412 355,310 382,134 C 163,307 152,458 278,385 Z"></path>
<path stroke="#99C60D" stroke-width="7" fill="#A3139C" opacity="0.815106115729283" stroke-opacity="0.37025837941414735" transform="rotate(176.0 400 300)" d="M 696,158  C 518,356 244,276 579,461 C 176,196 622,116 516,114 C 510,311 254,465 106,134 C 376,275 153,448 655,404 C 134,147 587,353 697,171 C 269,177 406,171 170,296 C 164,324 487,423 107,419 C 386,337 183,108 202,130 Z"></path>
<path stroke="#96A257" stroke-width="3" fill="#84A198" opacity="0.6510596962177357" stroke-opacity="0.4706443510719854" transform="rotate(30.0 400 300)" d="M 133,349  C 689,340 615,168 150,353 C 680,141 320,268 108,341 C 490,271 499,129 443,236 C 496,365 315,339 528,209 C 681,190 624,385 488,364 C 275,343 162,189 695,439 C 487,276 153,146 368,286 C 396,495 152,260 621,148 Z"></path>
<path stroke="#8867B2" stroke-width="2" fill="#25C8CB" opacity="0.9713102478224643" stroke-opacity="0.6183050610916172" transform="rotate(-6.0 400 300)" d="M 395,399  C 689,340 238,181 187,411 C 568,245 576,356 529,143 C 540,408 425,246 366,300 C 138,153 409,185 269,311 C 392,218 245,377 367,481 C 237,476 134,313 368,318 C 539,150 512,156 435,499 C 663,193 614,297 544,445 C 471,177 146,118 339,213 Z"></path>
<path stroke="#4B2453" stroke-width="6" fill="#55B90D" opacity="0.8362594900957738" stroke-opacity="0.8088310907852955" transform="rotate(34.0 400 300)" d="M 294,478  C 559,433 560,432 181,109 C 131,358 486,295 668,408 C 419,486 521,201 186,165 C 548,473 372,244 250,176 C 416,127 450,390 166,172 C 256,103 207,328 343,206 Z"></path>

  </g>
</svg>
