<svg xmlns="http://www.w3.org/2000/svg" xmlns:xlink="http://www.w3.org/1999/xlink" width="800" height="600" version="1.1" viewBox="0 0 800 600"><g fill="none" fill-rule="evenodd" stroke="none" stroke-width="1"><polygon fill="#f27630" stroke="#ed2b2c" stroke-opacity=".512" stroke-width="6" points="563 358 144 522 699 385 602 444 302 455" opacity=".246" transform="rotate(-46.0 400 300)"/><polygon fill="#f27630" stroke="#31a06b" stroke-opacity=".326" stroke-width="1" points="253 73 62 201 103 561 435 225 755 327 12 310 262 336 147 46" opacity=".632" transform="rotate(23.0 400 300)"/><rect width="130" height="33" x="122" y="545" fill="#f9d84b" stroke="#f9d84b" stroke-opacity=".822" stroke-width="1" opacity=".849" transform="rotate(68.0 400 300)"/><polygon fill="#31a06b" stroke="#2b55f7" stroke-opacity=".984" stroke-width="4" points="734 410 313 175 527 367 681 398 284 422 568 15 228 123" opacity=".634" transform="rotate(-28.0 400 300)"/><path fill="#f9d84b" stroke="#ed2b2c" stroke-opacity=".586" stroke-width="2" d="M 149,396 C 608,249 548,184 254,410 C 319,162 181,313 114,141 C 594,408 407,173 447,407 C 428,184 484,374 605,201 C 451,487 110,391 577,232 C 308,383 248,382 502,149 C 241,264 573,397 170,406 C 645,122 252,256 348,473 Z" opacity=".049" transform="rotate(62.0 400 300)"/><rect width="273" height="216" x="393" y="436" fill="#f27630" stroke="#ed2b2c" stroke-opacity=".148" stroke-width="3" opacity=".483" transform="rotate(-36.0 400 300)"/><rect width="296" height="121" x="275" y="566" fill="#ed2b2c" stroke="#31a06b" stroke-opacity=".255" stroke-width="2" opacity=".703" transform="rotate(-169.0 400 300)"/><ellipse cx="247" cy="538" fill="#f27630" stroke="#2b55f7" stroke-opacity=".812" stroke-width="2" opacity=".328" rx="113" ry="231" transform="rotate(-95.0 400 300)"/><polygon fill="#ed2b2c" stroke="#f9d84b" stroke-opacity=".089" stroke-width="7" points="318 554 526 425 798 9 484 260 63 378 123 212" opacity=".782" transform="rotate(61.0 400 300)"/></g></svg>