<?xml version="1.0" encoding="UTF-8"?>
<svg width="800px" height="600px" viewBox="0 0 800 600" version="1.1" xmlns="http://www.w3.org/2000/svg" xmlns:xlink="http://www.w3.org/1999/xlink">
  <defs></defs>
  <g stroke="none" stroke-width="1" fill="none" fill-rule="evenodd">
    
    <path stroke="#008140" stroke-width="2" fill="#5CA906" opacity="0.6767396144435164" stroke-opacity="0.26155623291420993" transform="rotate(-138.0 400 300)" d="M 594,245  C 653,105 329,323 500,469 C 187,447 592,189 232,128 C 235,284 127,248 157,382 C 689,181 219,305 295,254 C 546,401 478,396 607,352 C 486,345 565,308 284,115 C 518,164 493,302 645,265 Z"></path>
<path stroke="#5489C2" stroke-width="4" fill="#1CD465" opacity="0.4321943125639037" stroke-opacity="0.4388922733525391" transform="rotate(104.0 400 300)" d="M 344,438  C 215,215 457,279 292,257 C 103,213 511,246 432,172 C 457,493 202,221 689,367 C 207,450 117,435 278,160 C 338,408 582,331 502,161 C 562,286 388,101 496,155 C 246,441 129,349 596,181 C 286,285 447,444 673,243 C 562,208 656,297 135,361 Z"></path>
<polygon stroke="#946DC1" stroke-width="2" fill="#69D46A" opacity="0.7841446646470687" stroke-opacity="0.007672227983208569" transform="rotate(-95.0 400 300)" points="466 585 455 442 134 186 772 39 284 279 780 390 299 384 "></polygon>
<rect stroke="#8584B7" stroke-width="4" fill="#1C72CA" opacity="0.33917816467086626" stroke-opacity="0.41237179755025183" transform="rotate(-101.0 400 300)" x="509" y="501" width="262" height="195"></rect>
<ellipse stroke="#80AB68" stroke-width="5" fill="#C1BCC4" opacity="0.9284805056822715" stroke-opacity="0.7560151330847314" transform="rotate(-93.0 400 300)" cx="651" rx="447" cy="19" ry="219"></ellipse>
<rect stroke="#184DC9" stroke-width="5" fill="#215123" opacity="0.11511315868461242" stroke-opacity="0.17161992627029504" transform="rotate(-18.0 400 300)" x="471" y="502" width="56" height="233"></rect>
<rect stroke="#78182C" stroke-width="6" fill="#7D90A1" opacity="0.9695528221357181" stroke-opacity="0.3811929496734962" transform="rotate(135.0 400 300)" x="46" y="307" width="392" height="372"></rect>
<rect stroke="#06C17B" stroke-width="4" fill="#136C1B" opacity="0.8267636734708806" stroke-opacity="0.5249393183277447" transform="rotate(7.0 400 300)" x="759" y="150" width="54" height="369"></rect>

  </g>
</svg>
