<svg xmlns="http://www.w3.org/2000/svg" xmlns:xlink="http://www.w3.org/1999/xlink" width="800" height="600" version="1.1" viewBox="0 0 800 600"><g fill="none" fill-rule="evenodd" stroke="none" stroke-width="1"><path fill="#5CA906" stroke="#008140" stroke-opacity=".262" stroke-width="2" d="M 594,245 C 653,105 329,323 500,469 C 187,447 592,189 232,128 C 235,284 127,248 157,382 C 689,181 219,305 295,254 C 546,401 478,396 607,352 C 486,345 565,308 284,115 C 518,164 493,302 645,265 Z" opacity=".677" transform="rotate(-138.0 400 300)"/><path fill="#1CD465" stroke="#5489C2" stroke-opacity=".439" stroke-width="4" d="M 344,438 C 215,215 457,279 292,257 C 103,213 511,246 432,172 C 457,493 202,221 689,367 C 207,450 117,435 278,160 C 338,408 582,331 502,161 C 562,286 388,101 496,155 C 246,441 129,349 596,181 C 286,285 447,444 673,243 C 562,208 656,297 135,361 Z" opacity=".432" transform="rotate(104.0 400 300)"/><polygon fill="#69D46A" stroke="#946DC1" stroke-opacity=".008" stroke-width="2" points="466 585 455 442 134 186 772 39 284 279 780 390 299 384" opacity=".784" transform="rotate(-95.0 400 300)"/><rect width="262" height="195" x="509" y="501" fill="#1C72CA" stroke="#8584B7" stroke-opacity=".412" stroke-width="4" opacity=".339" transform="rotate(-101.0 400 300)"/><ellipse cx="651" cy="19" fill="#C1BCC4" stroke="#80AB68" stroke-opacity=".756" stroke-width="5" opacity=".928" rx="447" ry="219" transform="rotate(-93.0 400 300)"/><rect width="56" height="233" x="471" y="502" fill="#215123" stroke="#184DC9" stroke-opacity=".172" stroke-width="5" opacity=".115" transform="rotate(-18.0 400 300)"/><rect width="392" height="372" x="46" y="307" fill="#7D90A1" stroke="#78182C" stroke-opacity=".381" stroke-width="6" opacity=".97" transform="rotate(135.0 400 300)"/><rect width="54" height="369" x="759" y="150" fill="#136C1B" stroke="#06C17B" stroke-opacity=".525" stroke-width="4" opacity=".827" transform="rotate(7.0 400 300)"/></g></svg>