<svg xmlns="http://www.w3.org/2000/svg" xmlns:xlink="http://www.w3.org/1999/xlink" width="800" height="600" version="1.1" viewBox="0 0 800 600"><g fill="none" fill-rule="evenodd" stroke="none" stroke-width="1"><ellipse cx="534" cy="207" fill="#f27630" stroke="#2b55f7" stroke-opacity=".88" stroke-width="3" opacity=".478" rx="356" ry="260" transform="rotate(81.0 400 300)"/><ellipse cx="30" cy="158" fill="#2b55f7" stroke="#2b55f7" stroke-opacity=".913" stroke-width="3" opacity=".488" rx="73" ry="185" transform="rotate(-88.0 400 300)"/><path fill="#f27630" stroke="#ed2b2c" stroke-opacity=".367" stroke-width="5" d="M 603,441 C 182,480 298,456 604,172 C 610,341 256,459 669,309 C 307,249 117,448 242,471 C 614,188 353,122 197,242 C 420,379 158,179 557,337 C 577,202 437,103 573,381 C 184,254 188,124 165,144 Z" opacity=".983" transform="rotate(93.0 400 300)"/><polygon fill="#31a06b" stroke="#ed2b2c" stroke-opacity=".253" stroke-width="3" points="213 270 490 479 226 88 641 364 36 173 487 561 58 60 382 210" opacity=".691" transform="rotate(-32.0 400 300)"/><polygon fill="#ed2b2c" stroke="#31a06b" stroke-opacity=".491" stroke-width="5" points="329 229 199 536 142 330 371 182 256 386" opacity=".157" transform="rotate(93.0 400 300)"/><rect width="187" height="188" x="195" y="373" fill="#f27630" stroke="#ed2b2c" stroke-opacity=".35" stroke-width="2" opacity=".999" transform="rotate(116.0 400 300)"/><ellipse cx="518" cy="246" fill="#f27630" stroke="#f9d84b" stroke-opacity=".17" stroke-width="4" opacity=".893" rx="47" ry="78" transform="rotate(94.0 400 300)"/><ellipse cx="403" cy="422" fill="#2b55f7" stroke="#ed2b2c" stroke-opacity=".149" stroke-width="2" opacity=".046" rx="347" ry="175" transform="rotate(-138.0 400 300)"/></g></svg>