<?xml version="1.0" encoding="UTF-8"?>
<svg width="800px" height="600px" viewBox="0 0 800 600" version="1.1" xmlns="http://www.w3.org/2000/svg" xmlns:xlink="http://www.w3.org/1999/xlink">
  <defs></defs>
  <g stroke="none" stroke-width="1" fill="none" fill-rule="evenodd">
    
    <path stroke="#fe9225" stroke-width="4" fill="#fe9225" opacity="0.2251871920692943" stroke-opacity="0.6060923512387494" transform="rotate(24.0 400 300)" d="M 376,189  C 490,174 182,435 564,336 C 247,400 582,427 431,252 C 246,210 517,302 324,168 C 251,229 492,176 232,445 C 681,410 124,485 547,171 Z"></path>
<path stroke="#02eb6b" stroke-width="2" fill="#f559a0" opacity="0.6650352291439655" stroke-opacity="0.036574444244883764" transform="rotate(171.0 400 300)" d="M 355,463  C 209,109 643,461 114,381 C 163,147 697,320 461,427 C 199,492 146,417 187,373 C 199,462 416,334 242,436 C 241,459 672,299 384,428 Z"></path>
<path stroke="#f559a0" stroke-width="6" fill="#0fa6d8" opacity="0.9337366528886805" stroke-opacity="0.6499817304400829" transform="rotate(166.0 400 300)" d="M 255,469  C 483,419 666,372 388,304 C 415,412 544,374 268,343 C 401,416 445,313 464,189 C 376,194 488,110 303,128 C 569,307 530,304 681,348 C 210,152 309,486 566,381 C 254,427 238,260 540,437 C 689,382 198,263 252,494 C 313,288 449,228 621,421 Z"></path>
<path stroke="#f559a0" stroke-width="3" fill="#fe9225" opacity="0.47996296524033844" stroke-opacity="0.3812002091258857" transform="rotate(26.0 400 300)" d="M 345,299  C 432,344 142,255 681,358 C 620,283 597,157 553,225 C 330,153 204,243 148,299 C 428,433 205,112 651,385 C 221,191 684,372 346,320 C 102,350 481,433 314,322 C 426,245 440,206 619,318 C 127,323 677,369 368,372 C 352,439 650,134 594,270 C 191,174 576,293 243,428 C 309,113 620,215 404,103 Z"></path>
<path stroke="#f559a0" stroke-width="2" fill="#f559a0" opacity="0.7157993704117023" stroke-opacity="0.03153122782090311" transform="rotate(-131.0 400 300)" d="M 226,293  C 503,439 302,173 502,420 C 520,352 108,488 237,192 C 217,329 489,289 209,432 C 117,470 136,466 200,356 Z"></path>
<path stroke="#f559a0" stroke-width="6" fill="#02eb6b" opacity="0.176290002480975" stroke-opacity="0.0012148197750766828" transform="rotate(12.0 400 300)" d="M 341,201  C 638,348 654,286 275,208 C 391,323 634,441 393,145 C 570,306 118,334 101,457 C 578,395 563,267 668,224 C 499,380 469,159 399,332 C 463,477 550,416 459,365 C 612,359 537,390 687,475 C 520,288 227,102 584,281 C 435,384 176,133 365,444 C 565,168 299,275 422,277 C 573,440 269,411 405,194 Z"></path>
<path stroke="#f559a0" stroke-width="2" fill="#0fa6d8" opacity="0.06295254056960209" stroke-opacity="0.38252462776799045" transform="rotate(140.0 400 300)" d="M 312,115  C 435,122 293,381 176,117 C 693,426 555,253 554,187 C 275,313 586,432 413,151 C 493,199 510,182 515,483 C 432,335 448,407 604,306 C 207,283 696,124 202,344 C 256,224 601,103 357,204 C 440,234 148,182 292,264 C 232,273 121,354 387,390 Z"></path>
<path stroke="#f559a0" stroke-width="1" fill="#2cd3f3" opacity="0.7898250276956496" stroke-opacity="0.18786289015034857" transform="rotate(-156.0 400 300)" d="M 400,286  C 350,411 192,473 365,314 C 319,374 268,264 471,307 C 437,220 493,342 284,448 C 578,389 498,257 132,221 C 652,200 408,356 432,165 C 432,344 117,226 388,209 C 364,287 215,275 155,134 C 556,449 290,236 517,480 C 452,324 693,236 416,247 C 386,200 249,119 661,102 Z"></path>
<path stroke="#fe9225" stroke-width="6" fill="#fe9225" opacity="0.5521346457356309" stroke-opacity="0.571005388225852" transform="rotate(77.0 400 300)" d="M 200,474  C 308,233 396,481 183,129 C 287,258 509,370 192,243 C 651,459 101,169 387,270 C 695,332 136,289 427,481 C 304,232 326,203 188,143 Z"></path>
<path stroke="#f559a0" stroke-width="7" fill="#fe9225" opacity="0.17421619032661423" stroke-opacity="0.5358024942235774" transform="rotate(-158.0 400 300)" d="M 548,460  C 244,288 237,494 175,489 C 360,369 182,494 319,199 C 124,340 334,107 518,141 C 659,460 605,435 257,415 C 327,308 614,128 239,130 C 271,183 381,378 372,480 C 300,380 596,365 233,201 C 338,404 473,278 464,238 Z"></path>
<path stroke="#02eb6b" stroke-width="5" fill="#2cd3f3" opacity="0.8898512995210136" stroke-opacity="0.4930599873429157" transform="rotate(11.0 400 300)" d="M 215,399  C 277,162 339,497 108,406 C 219,388 388,373 208,480 C 337,202 262,153 627,122 C 512,111 198,401 520,432 C 502,133 296,111 546,226 C 448,222 607,255 601,257 C 636,117 256,156 416,275 C 217,174 104,485 605,500 C 649,491 466,162 699,116 Z"></path>

  </g>
</svg>
