<svg xmlns="http://www.w3.org/2000/svg" xmlns:xlink="http://www.w3.org/1999/xlink" width="800" height="600" version="1.1" viewBox="0 0 800 600"><g fill="none" fill-rule="evenodd" stroke="none" stroke-width="1"><rect width="275" height="387" x="68" y="55" fill="#37587D" stroke="#957CD0" stroke-opacity=".957" stroke-width="3" opacity=".207" transform="rotate(-125.0 400 300)"/><polygon fill="#50227B" stroke="#95A1D5" stroke-opacity=".094" stroke-width="6" points="682 467 440 211 634 255 368 386 157 77 493 285" opacity=".118" transform="rotate(-153.0 400 300)"/><path fill="#65D91B" stroke="#B4856D" stroke-opacity=".227" stroke-width="5" d="M 367,266 C 121,232 186,303 669,356 C 352,348 576,221 407,438 C 177,209 491,395 377,120 C 442,463 239,159 556,344 C 190,256 136,220 414,176 C 242,242 178,245 340,226 C 508,473 210,498 355,221 C 404,460 263,452 256,348 C 185,186 416,387 666,302 Z" opacity=".014" transform="rotate(163.0 400 300)"/><polygon fill="#475C89" stroke="#6D9250" stroke-opacity=".086" stroke-width="7" points="677 476 279 227 16 105 174 42 797 444 16 423" opacity=".452" transform="rotate(49.0 400 300)"/><rect width="400" height="83" x="485" y="539" fill="#BC283C" stroke="#1430A5" stroke-opacity=".132" stroke-width="1" opacity=".408" transform="rotate(175.0 400 300)"/><rect width="332" height="290" x="14" y="45" fill="#09C16D" stroke="#268254" stroke-opacity=".891" stroke-width="7" opacity=".434" transform="rotate(-137.0 400 300)"/><path fill="#AA7AC6" stroke="#870290" stroke-opacity=".054" stroke-width="5" d="M 393,425 C 148,472 522,250 687,311 C 357,434 557,329 365,245 C 495,188 565,246 436,385 C 422,430 524,120 590,369 C 236,162 628,362 437,313 C 251,225 628,225 423,301 C 670,500 490,248 240,133 C 204,117 557,389 405,393 C 572,271 422,291 133,427 Z" opacity=".522" transform="rotate(-160.0 400 300)"/><ellipse cx="609" cy="247" fill="#DA0767" stroke="#AC753A" stroke-opacity=".036" stroke-width="3" opacity=".62" rx="401" ry="267" transform="rotate(-5.0 400 300)"/><ellipse cx="423" cy="91" fill="#989071" stroke="#93418C" stroke-opacity=".54" stroke-width="2" opacity=".239" rx="328" ry="230" transform="rotate(138.0 400 300)"/><polygon fill="#416837" stroke="#A00D0D" stroke-opacity=".688" stroke-width="6" points="335 479 189 382 371 225 731 254 542 239 440 85 494 455 305 503" opacity=".658" transform="rotate(127.0 400 300)"/><rect width="333" height="87" x="611" y="526" fill="#708A61" stroke="#D7C431" stroke-opacity=".318" stroke-width="7" opacity=".208" transform="rotate(-40.0 400 300)"/></g></svg>