<?xml version="1.0" encoding="UTF-8"?>
<svg width="800px" height="600px" viewBox="0 0 800 600" version="1.1" xmlns="http://www.w3.org/2000/svg" xmlns:xlink="http://www.w3.org/1999/xlink">
  <defs></defs>
  <g stroke="none" stroke-width="1" fill="none" fill-rule="evenodd">
    
    <rect stroke="#957CD0" stroke-width="3" fill="#37587D" opacity="0.2073657598336595" stroke-opacity="0.9566540776462193" transform="rotate(-125.0 400 300)" x="68" y="55" width="275" height="387"></rect>
<polygon stroke="#95A1D5" stroke-width="6" fill="#50227B" opacity="0.118177107280177" stroke-opacity="0.09358429550676041" transform="rotate(-153.0 400 300)" points="682 467 440 211 634 255 368 386 157 77 493 285 "></polygon>
<path stroke="#B4856D" stroke-width="5" fill="#65D91B" opacity="0.013803581177162239" stroke-opacity="0.22655001159951296" transform="rotate(163.0 400 300)" d="M 367,266  C 121,232 186,303 669,356 C 352,348 576,221 407,438 C 177,209 491,395 377,120 C 442,463 239,159 556,344 C 190,256 136,220 414,176 C 242,242 178,245 340,226 C 508,473 210,498 355,221 C 404,460 263,452 256,348 C 185,186 416,387 666,302 Z"></path>
<polygon stroke="#6D9250" stroke-width="7" fill="#475C89" opacity="0.4515593351831886" stroke-opacity="0.08566138783552679" transform="rotate(49.0 400 300)" points="677 476 279 227 16 105 174 42 797 444 16 423 "></polygon>
<rect stroke="#1430A5" stroke-width="1" fill="#BC283C" opacity="0.408073968982521" stroke-opacity="0.1321570277656952" transform="rotate(175.0 400 300)" x="485" y="539" width="400" height="83"></rect>
<rect stroke="#268254" stroke-width="7" fill="#09C16D" opacity="0.4341267041386415" stroke-opacity="0.8909023862818726" transform="rotate(-137.0 400 300)" x="14" y="45" width="332" height="290"></rect>
<path stroke="#870290" stroke-width="5" fill="#AA7AC6" opacity="0.5220967075593653" stroke-opacity="0.053787207621344243" transform="rotate(-160.0 400 300)" d="M 393,425  C 148,472 522,250 687,311 C 357,434 557,329 365,245 C 495,188 565,246 436,385 C 422,430 524,120 590,369 C 236,162 628,362 437,313 C 251,225 628,225 423,301 C 670,500 490,248 240,133 C 204,117 557,389 405,393 C 572,271 422,291 133,427 Z"></path>
<ellipse stroke="#AC753A" stroke-width="3" fill="#DA0767" opacity="0.6201809731289863" stroke-opacity="0.036046882678763194" transform="rotate(-5.0 400 300)" cx="609" rx="401" cy="247" ry="267"></ellipse>
<ellipse stroke="#93418C" stroke-width="2" fill="#989071" opacity="0.23865841798018342" stroke-opacity="0.5398644541776654" transform="rotate(138.0 400 300)" cx="423" rx="328" cy="91" ry="230"></ellipse>
<polygon stroke="#A00D0D" stroke-width="6" fill="#416837" opacity="0.6578954125583018" stroke-opacity="0.6882429587355394" transform="rotate(127.0 400 300)" points="335 479 189 382 371 225 731 254 542 239 440 85 494 455 305 503 "></polygon>
<rect stroke="#D7C431" stroke-width="7" fill="#708A61" opacity="0.20767273118797624" stroke-opacity="0.31806868577854613" transform="rotate(-40.0 400 300)" x="611" y="526" width="333" height="87"></rect>

  </g>
</svg>
