<svg xmlns="http://www.w3.org/2000/svg" xmlns:xlink="http://www.w3.org/1999/xlink" width="800" height="600" version="1.1" viewBox="0 0 800 600"><g fill="none" fill-rule="evenodd" stroke="none" stroke-width="1"><polygon fill="#0fa6d8" stroke="#02eb6b" stroke-opacity=".53" stroke-width="5" points="725 454 750 445 706 393 517 575 284 101" opacity=".372" transform="rotate(35.0 400 300)"/><rect width="116" height="21" x="776" y="119" fill="#0fa6d8" stroke="#f559a0" stroke-opacity=".741" stroke-width="6" opacity=".104" transform="rotate(118.0 400 300)"/><polygon fill="#fe9225" stroke="#f559a0" stroke-opacity=".887" stroke-width="6" points="742 320 419 287 717 503 769 588 630 93" opacity=".306" transform="rotate(95.0 400 300)"/><ellipse cx="640" cy="538" fill="#2cd3f3" stroke="#f559a0" stroke-opacity=".17" stroke-width="7" opacity=".468" rx="256" ry="108" transform="rotate(16.0 400 300)"/><polygon fill="#2cd3f3" stroke="#f559a0" stroke-opacity=".965" stroke-width="5" points="400 302 746 387 214 105 706 367 220 579 730 521 514 75 407 106" opacity=".589" transform="rotate(-92.0 400 300)"/><rect width="332" height="323" x="665" y="431" fill="#2cd3f3" stroke="#0fa6d8" stroke-opacity=".927" stroke-width="7" opacity=".366" transform="rotate(35.0 400 300)"/><rect width="49" height="373" x="96" y="342" fill="#02eb6b" stroke="#2cd3f3" stroke-opacity=".279" stroke-width="3" opacity=".612" transform="rotate(-157.0 400 300)"/><ellipse cx="446" cy="56" fill="#02eb6b" stroke="#02eb6b" stroke-opacity=".815" stroke-width="6" opacity=".089" rx="95" ry="208" transform="rotate(39.0 400 300)"/><polygon fill="#f559a0" stroke="#fe9225" stroke-opacity=".953" stroke-width="1" points="638 325 363 34 704 469 747 141 307 196" opacity=".208" transform="rotate(-153.0 400 300)"/><path fill="#2cd3f3" stroke="#f559a0" stroke-opacity=".121" stroke-width="6" d="M 574,231 C 351,424 228,499 689,474 C 426,446 667,215 237,146 C 249,347 477,390 564,399 C 199,422 595,131 581,199 C 689,126 585,449 495,142 C 636,477 129,223 131,342 C 172,345 548,268 295,445 C 562,180 554,279 581,120 Z" opacity=".462" transform="rotate(-62.0 400 300)"/></g></svg>