<svg xmlns="http://www.w3.org/2000/svg" xmlns:xlink="http://www.w3.org/1999/xlink" width="800" height="600" version="1.1" viewBox="0 0 800 600"><g fill="none" fill-rule="evenodd" stroke="none" stroke-width="1"><path fill="#2b55f7" stroke="#f9d84b" stroke-opacity=".334" stroke-width="4" d="M 594,330 C 213,253 265,307 215,132 C 544,457 383,216 389,172 C 276,447 207,417 146,243 C 233,181 121,385 480,348 C 122,221 602,108 457,143 C 488,270 104,321 627,238 C 340,404 300,338 531,402 C 576,416 682,465 531,329 C 580,473 376,279 664,164 C 540,348 483,123 381,467 Z" opacity=".132" transform="rotate(54.0 400 300)"/><path fill="#31a06b" stroke="#f27630" stroke-opacity=".694" stroke-width="1" d="M 432,267 C 319,305 106,235 278,161 C 470,321 554,406 441,318 C 685,412 612,246 142,213 C 620,427 125,231 490,206 Z" opacity=".025" transform="rotate(-36.0 400 300)"/><path fill="#f27630" stroke="#31a06b" stroke-opacity=".276" stroke-width="2" d="M 312,209 C 426,177 214,174 619,348 C 145,477 296,375 695,377 C 163,214 272,220 592,373 C 373,479 321,263 124,123 C 530,245 638,178 429,142 C 187,439 558,159 439,229 C 677,140 304,186 232,428 C 427,332 675,226 158,159 Z" opacity=".863" transform="rotate(161.0 400 300)"/><path fill="#f27630" stroke="#2b55f7" stroke-opacity=".934" stroke-width="5" d="M 678,105 C 467,460 160,353 139,279 C 292,469 493,129 111,455 C 371,400 195,375 633,346 C 672,230 126,203 658,280 C 447,271 182,199 254,237 C 175,261 168,285 179,386 C 406,167 257,347 193,360 C 310,486 184,457 344,307 C 270,147 525,338 624,420 C 312,349 393,424 642,345 C 620,438 561,127 518,415 Z" opacity=".391" transform="rotate(67.0 400 300)"/><path fill="#f27630" stroke="#2b55f7" stroke-opacity=".582" stroke-width="4" d="M 425,429 C 544,497 377,361 681,403 C 416,427 526,324 120,445 C 301,436 106,232 123,276 C 202,305 369,102 645,328 C 618,439 129,197 324,326 C 347,222 681,123 375,402 C 385,166 458,389 183,282 Z" opacity=".551" transform="rotate(-173.0 400 300)"/><path fill="#f27630" stroke="#f9d84b" stroke-opacity=".929" stroke-width="5" d="M 250,369 C 559,302 655,417 107,171 C 542,163 273,134 133,304 C 213,356 699,430 117,244 C 276,408 287,215 445,364 C 382,139 528,133 480,457 C 616,124 472,403 659,455 C 675,341 640,495 252,387 C 103,450 234,218 554,336 Z" opacity=".782" transform="rotate(152.0 400 300)"/><path fill="#31a06b" stroke="#f27630" stroke-opacity=".167" stroke-width="5" d="M 139,271 C 698,308 217,367 123,124 C 522,206 442,193 338,431 C 332,449 209,260 673,328 C 390,253 126,333 293,277 Z" opacity=".108" transform="rotate(-106.0 400 300)"/><path fill="#f9d84b" stroke="#ed2b2c" stroke-opacity=".769" stroke-width="4" d="M 589,456 C 593,394 588,190 140,487 C 327,280 590,336 511,372 C 451,408 420,323 320,479 C 368,476 625,330 173,329 C 504,375 116,486 636,293 C 454,274 128,207 344,140 C 326,450 466,386 401,369 C 307,260 480,353 551,262 C 145,322 662,215 433,110 C 530,333 636,295 511,358 Z" opacity=".095" transform="rotate(118.0 400 300)"/><path fill="#f9d84b" stroke="#f27630" stroke-opacity=".379" stroke-width="3" d="M 111,386 C 433,215 360,229 427,108 C 415,212 679,193 259,499 C 662,263 430,333 442,167 C 619,344 139,149 682,389 C 390,221 628,485 266,299 C 347,108 545,331 466,122 C 138,388 596,328 542,195 C 400,439 383,500 163,347 C 479,456 117,184 401,297 C 498,296 363,255 621,239 Z" opacity=".57" transform="rotate(157.0 400 300)"/><path fill="#f27630" stroke="#f9d84b" stroke-opacity=".705" stroke-width="4" d="M 218,144 C 343,480 536,122 555,351 C 568,329 122,133 600,393 C 468,500 109,388 644,197 C 223,202 385,372 275,113 Z" opacity=".54" transform="rotate(-67.0 400 300)"/><path fill="#ed2b2c" stroke="#f9d84b" stroke-opacity=".837" stroke-width="2" d="M 149,470 C 271,117 361,209 621,259 C 156,185 524,424 379,258 C 503,414 645,483 386,354 C 321,465 646,250 301,398 C 494,353 525,221 621,385 C 699,466 531,264 414,191 C 247,412 321,171 478,207 C 605,104 110,364 265,414 C 263,170 268,346 597,367 C 270,280 129,402 234,155 Z" opacity=".415" transform="rotate(155.0 400 300)"/></g></svg>