<svg xmlns="http://www.w3.org/2000/svg" xmlns:xlink="http://www.w3.org/1999/xlink" width="800" height="600" version="1.1" viewBox="0 0 800 600"><g fill="none" fill-rule="evenodd" stroke="none" stroke-width="1"><path fill="#D3AA52" stroke="#2ADC27" stroke-opacity=".731" stroke-width="6" d="M 396,302 C 456,348 564,370 498,315 C 269,212 486,371 547,458 C 276,492 314,188 247,417 C 210,416 321,239 458,167 C 675,305 582,395 201,266 C 551,486 215,214 171,128 C 185,202 411,301 321,215 C 145,500 676,271 674,443 C 246,203 118,204 241,246 Z" opacity=".271" transform="rotate(43.0 400 300)"/><path fill="#B2C049" stroke="#4A1159" stroke-opacity=".723" stroke-width="5" d="M 266,477 C 445,490 672,145 238,222 C 275,292 189,153 388,193 C 483,456 612,380 213,366 C 676,226 658,487 308,481 C 230,279 265,338 198,210 C 682,385 476,152 484,235 C 471,412 496,112 487,296 C 620,176 507,260 573,464 C 457,466 681,370 454,246 C 640,202 141,306 682,144 Z" opacity=".74" transform="rotate(-22.0 400 300)"/><path fill="#DC5315" stroke="#828915" stroke-opacity=".51" stroke-width="7" d="M 206,435 C 117,153 312,467 699,155 C 372,494 584,486 552,388 C 587,169 316,497 185,267 C 562,254 111,279 262,147 C 638,297 258,158 569,262 C 221,429 152,268 612,407 Z" opacity=".907" transform="rotate(9.0 400 300)"/><path fill="#8BD123" stroke="#B9B54C" stroke-opacity=".929" stroke-width="6" d="M 376,188 C 180,303 482,226 677,447 C 198,120 299,429 169,168 C 409,495 651,222 401,298 C 415,189 612,483 553,475 C 238,341 188,160 586,231 C 599,349 444,242 665,190 C 402,386 377,409 163,382 C 552,332 636,305 363,215 C 658,126 243,331 609,466 Z" opacity=".936" transform="rotate(89.0 400 300)"/><path fill="#797139" stroke="#5B9135" stroke-opacity=".114" stroke-width="5" d="M 412,122 C 576,285 264,282 374,251 C 555,346 644,473 422,144 C 668,134 246,443 168,177 C 579,239 505,303 131,390 C 358,240 636,442 437,146 C 385,416 265,253 685,330 Z" opacity=".278" transform="rotate(-3.0 400 300)"/><path fill="#507718" stroke="#ACCC48" stroke-opacity=".268" stroke-width="1" d="M 111,185 C 401,438 474,282 522,384 C 275,409 644,457 640,366 C 303,156 357,295 295,243 C 420,272 480,164 479,395 C 306,499 353,418 132,474 C 700,170 441,378 398,456 C 308,272 563,324 152,291 C 599,217 526,317 677,415 C 512,364 436,368 519,386 C 279,372 137,293 134,118 C 506,278 174,125 179,259 Z" opacity=".061" transform="rotate(-142.0 400 300)"/><path fill="#B510A6" stroke="#C6473A" stroke-opacity=".697" stroke-width="7" d="M 604,327 C 320,445 151,330 330,477 C 249,481 619,467 572,142 C 472,287 196,191 258,409 C 346,236 395,343 277,216 C 446,434 596,376 440,215 C 591,254 583,122 410,442 C 136,105 439,457 144,262 C 500,427 668,261 111,491 C 683,165 125,487 249,223 Z" opacity=".392" transform="rotate(-172.0 400 300)"/><path fill="#AA0699" stroke="#7B6094" stroke-opacity=".131" stroke-width="3" d="M 690,460 C 691,251 128,374 585,180 C 391,141 417,447 423,329 C 580,208 603,363 162,433 C 663,166 501,146 433,452 C 155,368 608,195 262,335 C 635,179 381,407 597,396 C 387,412 136,457 124,170 C 226,363 475,376 119,190 C 281,224 519,233 442,202 Z" opacity=".349" transform="rotate(-155.0 400 300)"/><path fill="#AA4902" stroke="#A7C500" stroke-opacity=".304" stroke-width="5" d="M 159,266 C 180,419 209,175 440,318 C 226,265 688,279 262,127 C 648,499 377,123 417,120 C 281,395 250,473 252,497 C 260,267 363,372 301,409 C 492,148 292,256 678,217 Z" opacity=".209" transform="rotate(157.0 400 300)"/></g></svg>