<?xml version="1.0" encoding="UTF-8"?>
<svg width="800px" height="600px" viewBox="0 0 800 600" version="1.1" xmlns="http://www.w3.org/2000/svg" xmlns:xlink="http://www.w3.org/1999/xlink">
  <defs></defs>
  <g stroke="none" stroke-width="1" fill="none" fill-rule="evenodd">
    
    <path stroke="#ed2b2c" stroke-width="4" fill="#2b55f7" opacity="0.23932071025562476" stroke-opacity="0.10031901645096963" transform="rotate(-69.0 400 300)" d="M 499,225  C 460,472 262,195 696,172 C 655,182 427,443 633,240 C 594,478 328,146 153,357 C 414,394 247,108 109,399 C 104,151 599,335 251,243 C 356,275 175,226 260,225 C 643,394 389,348 458,187 C 259,483 652,397 612,499 C 397,355 596,243 103,420 Z"></path>
<path stroke="#f9d84b" stroke-width="5" fill="#ed2b2c" opacity="0.02248976885004328" stroke-opacity="0.7200506198863779" transform="rotate(-150.0 400 300)" d="M 158,374  C 517,178 391,130 229,225 C 607,347 527,259 646,359 C 118,482 605,254 252,424 C 540,366 112,405 576,160 C 629,375 330,270 350,458 C 127,392 213,417 691,125 C 544,189 312,314 146,160 C 650,445 690,175 368,118 C 505,110 232,458 328,121 C 474,229 350,286 152,204 Z"></path>
<path stroke="#f27630" stroke-width="3" fill="#f27630" opacity="0.5964868522312474" stroke-opacity="0.8787825693684453" transform="rotate(-75.0 400 300)" d="M 626,142  C 217,372 343,123 162,229 C 401,242 690,320 500,427 C 412,284 396,445 651,147 C 661,415 161,416 630,249 C 685,372 288,153 549,145 Z"></path>
<path stroke="#31a06b" stroke-width="3" fill="#31a06b" opacity="0.060012395475688735" stroke-opacity="0.21235395709934027" transform="rotate(-101.0 400 300)" d="M 454,197  C 384,146 352,323 633,163 C 182,346 491,415 246,303 C 635,365 568,409 561,168 C 262,211 125,355 393,342 C 621,328 215,306 640,388 C 323,446 153,343 666,273 C 588,139 466,168 535,321 C 291,402 536,184 160,297 C 637,419 530,147 159,187 C 118,292 682,392 346,475 Z"></path>
<path stroke="#f9d84b" stroke-width="4" fill="#2b55f7" opacity="0.3724112634045793" stroke-opacity="0.10902554279653101" transform="rotate(-19.0 400 300)" d="M 655,193  C 206,278 683,396 420,139 C 166,332 571,351 277,480 C 250,266 494,299 304,416 C 399,187 228,137 382,157 C 162,460 599,446 575,378 C 119,168 363,117 595,251 C 156,379 668,286 574,459 Z"></path>
<path stroke="#f27630" stroke-width="7" fill="#2b55f7" opacity="0.8682173233811902" stroke-opacity="0.2970053310472067" transform="rotate(-41.0 400 300)" d="M 549,130  C 294,130 264,286 153,278 C 680,101 678,410 318,437 C 558,313 680,333 348,332 C 460,206 517,322 427,344 C 642,431 272,137 317,425 Z"></path>
<path stroke="#f27630" stroke-width="3" fill="#ed2b2c" opacity="0.6158563904747754" stroke-opacity="0.7933699307654472" transform="rotate(-69.0 400 300)" d="M 176,426  C 340,229 622,358 318,129 C 159,338 248,345 652,439 C 444,172 368,337 653,221 C 508,473 268,308 585,492 C 394,385 595,231 466,418 C 117,279 497,110 502,454 C 650,309 175,418 177,260 Z"></path>
<path stroke="#f9d84b" stroke-width="1" fill="#2b55f7" opacity="0.37265511618706876" stroke-opacity="0.6197383403298036" transform="rotate(-72.0 400 300)" d="M 179,495  C 517,331 678,439 638,106 C 164,104 679,418 543,211 C 145,142 669,401 321,177 C 564,110 263,421 416,187 C 529,395 468,129 130,336 C 549,326 155,406 463,460 C 672,461 461,424 392,147 C 336,449 421,333 676,439 C 287,422 411,269 395,433 Z"></path>
<path stroke="#31a06b" stroke-width="7" fill="#ed2b2c" opacity="0.08386495396631151" stroke-opacity="0.7727249674490158" transform="rotate(116.0 400 300)" d="M 250,486  C 313,261 542,301 655,242 C 594,225 299,176 437,384 C 313,129 226,125 429,386 C 307,445 498,211 696,405 C 232,286 650,205 627,292 C 586,106 194,258 494,163 C 238,369 673,408 271,273 C 352,255 414,233 292,284 C 549,254 207,490 284,487 C 342,212 469,338 533,249 C 208,294 329,219 542,256 Z"></path>

  </g>
</svg>
