<svg xmlns="http://www.w3.org/2000/svg" xmlns:xlink="http://www.w3.org/1999/xlink" width="800" height="600" version="1.1" viewBox="0 0 800 600"><g fill="none" fill-rule="evenodd" stroke="none" stroke-width="1"><path fill="#31a06b" stroke="#f27630" stroke-opacity=".298" stroke-width="2" d="M 419,350 C 556,376 227,294 318,477 C 330,289 185,392 227,327 C 582,493 133,239 147,187 C 363,164 515,498 486,481 C 679,107 506,477 313,481 Z" opacity=".035" transform="rotate(-39.0 400 300)"/><path fill="#f9d84b" stroke="#ed2b2c" stroke-opacity=".531" stroke-width="1" d="M 146,174 C 346,258 207,401 442,143 C 306,189 571,329 464,359 C 106,220 539,286 201,451 C 503,499 528,223 115,322 C 671,278 126,379 443,352 C 500,438 282,393 184,430 C 397,131 345,470 416,198 C 659,394 543,138 127,296 C 149,359 358,291 451,323 C 105,174 283,441 269,121 C 238,432 177,294 589,300 Z" opacity=".509" transform="rotate(-143.0 400 300)"/><path fill="#2b55f7" stroke="#31a06b" stroke-opacity=".671" stroke-width="6" d="M 244,484 C 223,302 400,215 555,409 C 622,159 552,287 305,408 C 622,200 266,378 257,265 C 674,111 522,168 157,413 C 177,298 635,195 146,491 Z" opacity=".276" transform="rotate(124.0 400 300)"/><path fill="#f9d84b" stroke="#ed2b2c" stroke-opacity=".756" stroke-width="1" d="M 214,313 C 290,105 590,492 308,247 C 408,191 489,419 499,160 C 625,354 315,500 156,318 C 428,175 468,294 128,495 C 662,497 105,482 174,119 C 116,272 536,379 364,259 C 630,246 398,357 429,450 C 146,463 432,250 271,216 C 578,154 428,223 214,182 C 393,407 647,440 600,129 Z" opacity=".889" transform="rotate(-126.0 400 300)"/><path fill="#2b55f7" stroke="#f9d84b" stroke-opacity=".587" stroke-width="4" d="M 372,216 C 526,206 372,249 248,213 C 622,439 404,132 305,332 C 274,419 334,328 476,266 C 549,163 302,205 141,157 C 616,310 550,133 284,191 C 482,474 655,152 101,487 C 656,272 340,112 557,474 C 118,487 239,480 350,497 C 322,385 196,166 542,441 Z" opacity=".896" transform="rotate(11.0 400 300)"/><path fill="#ed2b2c" stroke="#f9d84b" stroke-opacity=".173" stroke-width="2" d="M 591,456 C 383,333 489,129 446,411 C 584,483 199,363 440,338 C 187,128 601,121 478,293 C 324,124 243,418 353,127 C 139,257 175,307 101,168 C 601,251 479,189 344,221 C 643,428 250,160 445,422 C 391,483 454,469 675,471 Z" opacity=".085" transform="rotate(60.0 400 300)"/><path fill="#f9d84b" stroke="#31a06b" stroke-opacity=".657" stroke-width="7" d="M 246,416 C 527,211 265,286 286,213 C 173,202 268,106 598,471 C 418,257 396,484 617,457 C 465,485 117,384 500,427 C 647,360 697,420 594,402 C 682,485 222,237 486,251 C 570,222 565,492 350,317 C 461,308 214,102 493,479 C 608,263 349,319 622,223 Z" opacity=".975" transform="rotate(167.0 400 300)"/><path fill="#2b55f7" stroke="#31a06b" stroke-opacity=".845" stroke-width="6" d="M 540,115 C 146,307 341,293 155,102 C 501,268 317,139 375,112 C 266,413 548,393 305,484 C 411,103 457,306 402,420 C 518,428 406,119 507,146 C 279,190 502,124 515,467 Z" opacity=".117" transform="rotate(138.0 400 300)"/><path fill="#f9d84b" stroke="#ed2b2c" stroke-opacity=".939" stroke-width="2" d="M 488,343 C 530,241 300,166 143,171 C 509,129 523,335 153,312 C 425,296 293,466 109,413 C 689,436 277,383 395,438 C 699,283 670,280 494,490 C 476,377 117,175 235,469 C 693,345 252,499 468,145 C 491,291 179,358 252,432 C 270,316 282,299 180,423 Z" opacity=".963" transform="rotate(112.0 400 300)"/><path fill="#f27630" stroke="#31a06b" stroke-opacity=".954" stroke-width="7" d="M 630,415 C 251,371 592,451 158,470 C 630,407 133,265 576,146 C 265,160 643,442 613,341 C 274,497 226,456 587,170 C 142,160 213,402 565,238 C 532,234 371,473 648,228 C 263,368 582,367 675,285 C 466,172 556,309 237,331 Z" opacity=".135" transform="rotate(-19.0 400 300)"/></g></svg>