<svg xmlns="http://www.w3.org/2000/svg" xmlns:xlink="http://www.w3.org/1999/xlink" width="800" height="600" version="1.1" viewBox="0 0 800 600"><g fill="none" fill-rule="evenodd" stroke="none" stroke-width="1"><rect width="399" height="333" x="513" y="594" fill="#f559a0" stroke="#fe9225" stroke-opacity=".98" stroke-width="5" opacity=".406" transform="rotate(-14.0 400 300)"/><path fill="#2cd3f3" stroke="#f559a0" stroke-opacity=".433" stroke-width="6" d="M 336,238 C 435,320 627,333 422,328 C 314,151 667,471 608,230 C 224,111 360,246 481,197 C 685,188 498,209 541,132 Z" opacity=".475" transform="rotate(72.0 400 300)"/><ellipse cx="590" cy="581" fill="#fe9225" stroke="#f559a0" stroke-opacity=".574" stroke-width="5" opacity=".483" rx="122" ry="263" transform="rotate(128.0 400 300)"/><path fill="#2cd3f3" stroke="#fe9225" stroke-opacity=".837" stroke-width="6" d="M 594,400 C 615,205 362,262 263,435 C 236,222 499,342 399,158 C 510,219 150,365 488,181 C 264,222 546,122 362,293 C 104,299 511,106 331,311 Z" opacity=".567" transform="rotate(-49.0 400 300)"/><ellipse cx="161" cy="511" fill="#02eb6b" stroke="#2cd3f3" stroke-opacity=".401" stroke-width="5" opacity=".367" rx="115" ry="110" transform="rotate(-119.0 400 300)"/><polygon fill="#fe9225" stroke="#f559a0" stroke-opacity=".178" stroke-width="1" points="323 45 490 388 130 9 504 224 775 212 156 161 711 503 99 577" opacity=".737" transform="rotate(-140.0 400 300)"/><polygon fill="#f559a0" stroke="#02eb6b" stroke-opacity=".131" stroke-width="5" points="768 322 484 311 57 156 555 105 170 592 746 214 67 76" opacity=".17" transform="rotate(96.0 400 300)"/></g></svg>