<?xml version="1.0" encoding="UTF-8"?>
<svg width="800px" height="600px" viewBox="0 0 800 600" version="1.1" xmlns="http://www.w3.org/2000/svg" xmlns:xlink="http://www.w3.org/1999/xlink">
  <defs></defs>
  <g stroke="none" stroke-width="1" fill="none" fill-rule="evenodd">
    
    <rect stroke="#fe9225" stroke-width="5" fill="#f559a0" opacity="0.4064482964730211" stroke-opacity="0.9801990900909265" transform="rotate(-14.0 400 300)" x="513" y="594" width="399" height="333"></rect>
<path stroke="#f559a0" stroke-width="6" fill="#2cd3f3" opacity="0.47513833053061305" stroke-opacity="0.4334907176667454" transform="rotate(72.0 400 300)" d="M 336,238  C 435,320 627,333 422,328 C 314,151 667,471 608,230 C 224,111 360,246 481,197 C 685,188 498,209 541,132 Z"></path>
<ellipse stroke="#f559a0" stroke-width="5" fill="#fe9225" opacity="0.4825385396465357" stroke-opacity="0.5737098225163842" transform="rotate(128.0 400 300)" cx="590" rx="122" cy="581" ry="263"></ellipse>
<path stroke="#fe9225" stroke-width="6" fill="#2cd3f3" opacity="0.5667094856752088" stroke-opacity="0.8370856421040307" transform="rotate(-49.0 400 300)" d="M 594,400  C 615,205 362,262 263,435 C 236,222 499,342 399,158 C 510,219 150,365 488,181 C 264,222 546,122 362,293 C 104,299 511,106 331,311 Z"></path>
<ellipse stroke="#2cd3f3" stroke-width="5" fill="#02eb6b" opacity="0.3669237054856315" stroke-opacity="0.40100020741273706" transform="rotate(-119.0 400 300)" cx="161" rx="115" cy="511" ry="110"></ellipse>
<polygon stroke="#f559a0" stroke-width="1" fill="#fe9225" opacity="0.7368684069646677" stroke-opacity="0.17794607791956898" transform="rotate(-140.0 400 300)" points="323 45 490 388 130 9 504 224 775 212 156 161 711 503 99 577 "></polygon>
<polygon stroke="#02eb6b" stroke-width="5" fill="#f559a0" opacity="0.17027966143642412" stroke-opacity="0.13136741093481277" transform="rotate(96.0 400 300)" points="768 322 484 311 57 156 555 105 170 592 746 214 67 76 "></polygon>

  </g>
</svg>
