<svg xmlns="http://www.w3.org/2000/svg" xmlns:xlink="http://www.w3.org/1999/xlink" width="800" height="600" version="1.1" viewBox="0 0 800 600"><g fill="none" fill-rule="evenodd" stroke="none" stroke-width="1"><path fill="#2cd3f3" stroke="#2cd3f3" stroke-opacity=".887" stroke-width="6" d="M 380,278 C 308,120 304,137 699,315 C 637,111 198,344 613,300 C 195,345 355,402 628,334 C 617,449 341,442 469,359 C 356,160 498,237 432,194 C 128,246 621,408 349,466 C 688,249 504,241 437,416 C 589,127 593,102 161,231 Z" opacity=".625" transform="rotate(104.0 400 300)"/><path fill="#fe9225" stroke="#fe9225" stroke-opacity=".776" stroke-width="7" d="M 343,486 C 567,355 669,485 534,163 C 684,161 584,265 266,317 C 452,334 234,381 570,272 C 231,212 263,371 522,343 C 352,103 159,298 661,312 C 512,142 429,287 348,229 Z" opacity=".778" transform="rotate(153.0 400 300)"/><path fill="#02eb6b" stroke="#2cd3f3" stroke-opacity=".269" stroke-width="4" d="M 479,488 C 586,221 450,426 610,301 C 435,241 616,394 338,431 C 114,427 123,488 475,218 C 369,430 165,158 392,321 C 634,142 144,222 479,472 C 614,397 301,269 515,196 C 202,429 377,274 483,327 C 534,272 300,193 339,306 C 206,283 285,105 600,438 C 559,378 122,101 342,254 C 275,358 254,197 249,331 Z" opacity=".259" transform="rotate(-11.0 400 300)"/><path fill="#2cd3f3" stroke="#f559a0" stroke-opacity=".57" stroke-width="5" d="M 177,486 C 304,475 473,493 381,238 C 268,103 273,322 475,374 C 353,481 319,126 180,364 C 390,150 582,200 137,389 C 499,313 432,463 405,375 C 635,340 597,337 135,395 C 672,144 440,279 549,196 Z" opacity=".602" transform="rotate(-58.0 400 300)"/><path fill="#2cd3f3" stroke="#fe9225" stroke-opacity=".939" stroke-width="3" d="M 123,360 C 136,160 391,101 673,109 C 482,469 235,195 116,304 C 246,160 282,448 351,376 C 496,367 178,383 431,464 C 436,118 545,399 196,328 Z" opacity=".799" transform="rotate(124.0 400 300)"/><path fill="#2cd3f3" stroke="#0fa6d8" stroke-opacity=".634" stroke-width="7" d="M 204,485 C 584,471 562,473 530,286 C 607,259 494,371 233,496 C 617,446 615,354 623,439 C 295,172 284,418 240,118 C 467,314 228,328 295,286 C 328,155 693,260 106,149 Z" opacity=".423" transform="rotate(-85.0 400 300)"/><path fill="#fe9225" stroke="#02eb6b" stroke-opacity=".189" stroke-width="1" d="M 262,129 C 594,151 388,206 646,259 C 629,150 575,250 184,345 C 166,396 151,280 356,135 C 243,299 504,304 173,252 C 415,344 552,309 364,301 C 560,363 211,492 678,270 C 488,408 684,257 134,481 C 439,232 393,487 635,157 C 192,422 682,116 497,238 C 470,485 500,209 488,115 Z" opacity=".18" transform="rotate(60.0 400 300)"/><path fill="#0fa6d8" stroke="#2cd3f3" stroke-opacity=".43" stroke-width="5" d="M 677,365 C 558,177 666,183 351,216 C 564,489 261,149 309,266 C 246,199 367,282 334,486 C 295,409 339,447 612,455 C 324,188 362,429 622,260 C 164,235 160,303 591,222 C 473,135 434,168 635,365 Z" opacity=".109" transform="rotate(-70.0 400 300)"/><path fill="#02eb6b" stroke="#f559a0" stroke-opacity=".524" stroke-width="3" d="M 608,138 C 465,146 327,144 525,448 C 431,128 451,308 433,216 C 559,471 273,127 253,290 C 550,384 278,499 401,424 Z" opacity=".247" transform="rotate(-56.0 400 300)"/><path fill="#02eb6b" stroke="#fe9225" stroke-opacity=".184" stroke-width="4" d="M 196,473 C 336,390 361,278 476,140 C 379,483 399,140 212,269 C 583,360 459,203 105,117 C 258,420 572,190 445,210 C 123,184 558,403 532,273 C 421,405 654,313 382,232 Z" opacity=".275" transform="rotate(178.0 400 300)"/><path fill="#fe9225" stroke="#0fa6d8" stroke-opacity=".802" stroke-width="4" d="M 538,417 C 174,417 509,204 301,239 C 450,396 154,316 644,261 C 486,283 340,145 295,199 C 452,169 282,119 380,441 C 534,316 252,429 275,208 C 588,203 428,151 113,380 C 335,493 340,350 161,194 C 671,122 185,356 309,371 C 570,488 351,205 360,129 Z" opacity=".113" transform="rotate(-33.0 400 300)"/></g></svg>