<svg xmlns="http://www.w3.org/2000/svg" xmlns:xlink="http://www.w3.org/1999/xlink" width="800" height="600" version="1.1" viewBox="0 0 800 600"><g fill="none" fill-rule="evenodd" stroke="none" stroke-width="1"><rect width="83" height="337" x="309" y="519" fill="#0fa6d8" stroke="#02eb6b" stroke-opacity=".99" stroke-width="7" opacity=".432" transform="rotate(-6.0 400 300)"/><polygon fill="#2cd3f3" stroke="#2cd3f3" stroke-opacity=".755" stroke-width="6" points="122 312 551 58 135 155 149 247 131 60 92 144 671 234 316 2" opacity=".205" transform="rotate(65.0 400 300)"/><path fill="#2cd3f3" stroke="#0fa6d8" stroke-opacity=".497" stroke-width="6" d="M 549,328 C 673,494 503,272 336,445 C 397,147 104,205 609,385 C 221,219 472,268 137,281 C 662,493 467,286 361,154 Z" opacity=".115" transform="rotate(170.0 400 300)"/><rect width="134" height="149" x="669" y="432" fill="#fe9225" stroke="#fe9225" stroke-opacity=".255" stroke-width="2" opacity=".278" transform="rotate(-170.0 400 300)"/><path fill="#fe9225" stroke="#0fa6d8" stroke-opacity=".388" stroke-width="2" d="M 649,202 C 107,432 249,181 411,419 C 219,395 593,440 647,312 C 380,403 418,317 470,386 C 417,273 607,332 109,471 C 207,174 523,277 531,344 C 608,337 658,131 417,213 C 307,201 300,105 505,123 C 487,217 550,479 563,388 C 637,210 619,275 570,201 C 145,401 546,377 694,138 C 320,183 193,415 441,135 Z" opacity=".785" transform="rotate(35.0 400 300)"/><path fill="#fe9225" stroke="#0fa6d8" stroke-opacity=".947" stroke-width="5" d="M 276,168 C 191,261 508,155 109,221 C 226,397 405,220 323,288 C 669,186 669,155 398,269 C 199,246 570,204 689,301 C 186,430 258,205 694,116 Z" opacity=".769" transform="rotate(87.0 400 300)"/><ellipse cx="201" cy="111" fill="#fe9225" stroke="#0fa6d8" stroke-opacity=".303" stroke-width="1" opacity=".515" rx="203" ry="245" transform="rotate(141.0 400 300)"/><polygon fill="#f559a0" stroke="#0fa6d8" stroke-opacity=".444" stroke-width="6" points="745 173 624 155 526 267 111 447 680 301" opacity=".929" transform="rotate(-36.0 400 300)"/><rect width="277" height="42" x="431" y="423" fill="#0fa6d8" stroke="#02eb6b" stroke-opacity=".847" stroke-width="1" opacity=".945" transform="rotate(112.0 400 300)"/></g></svg>