<?xml version="1.0" encoding="UTF-8"?>
<svg width="800px" height="600px" viewBox="0 0 800 600" version="1.1" xmlns="http://www.w3.org/2000/svg" xmlns:xlink="http://www.w3.org/1999/xlink">
  <defs></defs>
  <g stroke="none" stroke-width="1" fill="none" fill-rule="evenodd">
    
    <path stroke="#7DD4C8" stroke-width="3" fill="#5C399D" opacity="0.11866133970841086" stroke-opacity="0.28871902698527624" transform="rotate(145.0 400 300)" d="M 413,174  C 503,309 400,422 195,150 C 672,369 571,412 581,209 C 682,480 261,268 404,158 C 329,352 437,431 446,463 C 691,292 344,262 519,315 C 144,160 150,272 185,216 C 498,250 106,149 335,130 Z"></path>
<path stroke="#A34982" stroke-width="4" fill="#014D12" opacity="0.4858159273863368" stroke-opacity="0.3141912068828569" transform="rotate(-62.0 400 300)" d="M 480,114  C 129,177 291,370 345,259 C 527,130 367,346 388,161 C 105,144 314,378 430,155 C 129,339 679,356 233,373 C 382,248 412,251 534,214 C 350,150 301,450 163,145 C 140,277 482,209 131,279 C 534,435 316,349 139,315 C 513,317 439,157 531,331 C 129,311 131,435 218,385 C 375,320 167,156 261,121 Z"></path>
<path stroke="#5CD7AD" stroke-width="1" fill="#4260B5" opacity="0.08210316005828858" stroke-opacity="0.9661051807822449" transform="rotate(57.0 400 300)" d="M 169,198  C 448,215 684,236 315,154 C 230,126 390,189 412,421 C 416,346 180,222 115,378 C 306,287 455,310 644,164 C 621,317 406,241 174,104 C 543,399 253,176 430,178 C 135,413 332,204 383,365 C 432,217 364,115 275,272 C 523,313 194,226 647,440 C 287,219 414,275 671,305 C 220,165 131,339 304,305 Z"></path>
<path stroke="#13D704" stroke-width="3" fill="#220A34" opacity="0.33605036278776595" stroke-opacity="0.3326408239094675" transform="rotate(36.0 400 300)" d="M 287,350  C 666,203 612,354 691,184 C 534,357 187,494 281,133 C 216,370 300,389 272,350 C 634,184 517,223 222,178 C 122,474 426,360 184,463 C 379,227 342,472 297,432 Z"></path>
<path stroke="#360452" stroke-width="5" fill="#047744" opacity="0.9513708891132293" stroke-opacity="0.9566176740240238" transform="rotate(-40.0 400 300)" d="M 229,251  C 603,462 275,198 678,188 C 230,166 295,250 353,248 C 490,302 614,217 535,196 C 210,431 505,403 670,117 Z"></path>
<path stroke="#79DD0A" stroke-width="7" fill="#226395" opacity="0.032386250114753955" stroke-opacity="0.6983134485674234" transform="rotate(43.0 400 300)" d="M 104,284  C 473,346 331,399 631,229 C 503,282 476,267 668,111 C 288,173 113,269 544,176 C 459,465 244,136 635,327 C 651,369 315,408 267,305 C 650,240 649,473 554,204 C 361,154 184,103 235,166 C 409,267 589,497 409,165 C 501,481 374,149 461,392 C 554,309 156,125 479,265 Z"></path>
<path stroke="#A8DC00" stroke-width="5" fill="#C552CB" opacity="0.7889822079815348" stroke-opacity="0.060736448363108556" transform="rotate(-170.0 400 300)" d="M 680,188  C 503,346 259,201 676,180 C 625,465 672,268 324,108 C 247,336 517,472 223,223 C 351,363 498,254 415,440 Z"></path>

  </g>
</svg>
