<?xml version="1.0" encoding="UTF-8"?>
<svg width="800px" height="600px" viewBox="0 0 800 600" version="1.1" xmlns="http://www.w3.org/2000/svg" xmlns:xlink="http://www.w3.org/1999/xlink">
  <defs></defs>
  <g stroke="none" stroke-width="1" fill="none" fill-rule="evenodd">
    
    <rect stroke="#f559a0" stroke-width="6" fill="#f559a0" opacity="0.9095685751944692" stroke-opacity="0.8137534268122462" transform="rotate(163.0 400 300)" x="551" y="512" width="26" height="331"></rect>
<polygon stroke="#2cd3f3" stroke-width="4" fill="#0fa6d8" opacity="0.556067044213761" stroke-opacity="0.3932520593023222" transform="rotate(-169.0 400 300)" points="318 530 735 584 494 514 437 432 517 301 133 501 202 596 701 594 "></polygon>
<ellipse stroke="#02eb6b" stroke-width="1" fill="#f559a0" opacity="0.17563964487747258" stroke-opacity="0.17857314772150396" transform="rotate(-115.0 400 300)" cx="567" rx="305" cy="362" ry="88"></ellipse>
<polygon stroke="#0fa6d8" stroke-width="1" fill="#f559a0" opacity="0.5260134531707819" stroke-opacity="0.9955541863581002" transform="rotate(38.0 400 300)" points="672 361 706 13 564 512 309 381 633 499 23 323 "></polygon>
<path stroke="#fe9225" stroke-width="4" fill="#0fa6d8" opacity="0.8843739217905916" stroke-opacity="0.40411403035855364" transform="rotate(-115.0 400 300)" d="M 361,181  C 302,225 277,257 643,228 C 565,332 237,291 683,190 C 111,162 260,278 244,248 C 700,311 682,287 264,228 C 439,474 216,459 151,402 C 571,452 199,482 597,122 C 223,475 223,343 283,395 C 314,103 288,202 181,322 C 438,183 579,148 559,248 Z"></path>
<polygon stroke="#fe9225" stroke-width="3" fill="#0fa6d8" opacity="0.6389583370149043" stroke-opacity="0.21155007024499814" transform="rotate(20.0 400 300)" points="359 320 93 368 452 162 444 88 763 36 765 92 553 575 "></polygon>
<rect stroke="#0fa6d8" stroke-width="6" fill="#0fa6d8" opacity="0.9638094331896121" stroke-opacity="0.39123596462364035" transform="rotate(36.0 400 300)" x="89" y="488" width="32" height="32"></rect>
<path stroke="#f559a0" stroke-width="3" fill="#f559a0" opacity="0.16590587875131776" stroke-opacity="0.27510646602961664" transform="rotate(41.0 400 300)" d="M 677,448  C 227,218 511,344 505,341 C 312,439 530,461 319,145 C 587,410 683,482 196,497 C 161,366 251,211 416,275 C 427,458 117,180 634,322 C 643,384 269,255 598,114 C 226,156 650,456 162,406 C 510,401 416,272 677,326 C 468,461 129,488 519,338 C 596,379 153,125 691,288 C 396,438 186,326 346,179 Z"></path>

  </g>
</svg>
