<svg xmlns="http://www.w3.org/2000/svg" xmlns:xlink="http://www.w3.org/1999/xlink" width="800" height="600" version="1.1" viewBox="0 0 800 600"><g fill="none" fill-rule="evenodd" stroke="none" stroke-width="1"><rect width="26" height="331" x="551" y="512" fill="#f559a0" stroke="#f559a0" stroke-opacity=".814" stroke-width="6" opacity=".91" transform="rotate(163.0 400 300)"/><polygon fill="#0fa6d8" stroke="#2cd3f3" stroke-opacity=".393" stroke-width="4" points="318 530 735 584 494 514 437 432 517 301 133 501 202 596 701 594" opacity=".556" transform="rotate(-169.0 400 300)"/><ellipse cx="567" cy="362" fill="#f559a0" stroke="#02eb6b" stroke-opacity=".179" stroke-width="1" opacity=".176" rx="305" ry="88" transform="rotate(-115.0 400 300)"/><polygon fill="#f559a0" stroke="#0fa6d8" stroke-opacity=".996" stroke-width="1" points="672 361 706 13 564 512 309 381 633 499 23 323" opacity=".526" transform="rotate(38.0 400 300)"/><path fill="#0fa6d8" stroke="#fe9225" stroke-opacity=".404" stroke-width="4" d="M 361,181 C 302,225 277,257 643,228 C 565,332 237,291 683,190 C 111,162 260,278 244,248 C 700,311 682,287 264,228 C 439,474 216,459 151,402 C 571,452 199,482 597,122 C 223,475 223,343 283,395 C 314,103 288,202 181,322 C 438,183 579,148 559,248 Z" opacity=".884" transform="rotate(-115.0 400 300)"/><polygon fill="#0fa6d8" stroke="#fe9225" stroke-opacity=".212" stroke-width="3" points="359 320 93 368 452 162 444 88 763 36 765 92 553 575" opacity=".639" transform="rotate(20.0 400 300)"/><rect width="32" height="32" x="89" y="488" fill="#0fa6d8" stroke="#0fa6d8" stroke-opacity=".391" stroke-width="6" opacity=".964" transform="rotate(36.0 400 300)"/><path fill="#f559a0" stroke="#f559a0" stroke-opacity=".275" stroke-width="3" d="M 677,448 C 227,218 511,344 505,341 C 312,439 530,461 319,145 C 587,410 683,482 196,497 C 161,366 251,211 416,275 C 427,458 117,180 634,322 C 643,384 269,255 598,114 C 226,156 650,456 162,406 C 510,401 416,272 677,326 C 468,461 129,488 519,338 C 596,379 153,125 691,288 C 396,438 186,326 346,179 Z" opacity=".166" transform="rotate(41.0 400 300)"/></g></svg>