<svg xmlns="http://www.w3.org/2000/svg" xmlns:xlink="http://www.w3.org/1999/xlink" width="800" height="600" version="1.1" viewBox="0 0 800 600"><g fill="none" fill-rule="evenodd" stroke="none" stroke-width="1"><path fill="#f559a0" stroke="#2cd3f3" stroke-opacity=".202" stroke-width="5" d="M 210,330 C 436,458 551,465 111,360 C 392,224 252,323 550,168 C 209,484 694,172 544,130 C 307,370 240,433 486,140 C 634,494 380,493 241,113 C 613,431 431,268 385,211 C 698,486 242,364 383,486 C 582,489 548,198 198,463 C 571,139 567,112 582,151 Z" opacity=".598" transform="rotate(153.0 400 300)"/><path fill="#2cd3f3" stroke="#fe9225" stroke-opacity=".782" stroke-width="4" d="M 330,171 C 622,250 504,275 595,395 C 180,120 671,195 239,170 C 170,441 189,226 341,399 C 379,484 573,344 651,491 C 288,335 417,326 441,421 C 280,362 124,181 445,130 C 615,160 562,471 413,392 C 620,337 220,486 280,435 C 643,250 380,411 316,268 C 674,114 171,275 575,275 Z" opacity=".474" transform="rotate(-52.0 400 300)"/><path fill="#0fa6d8" stroke="#0fa6d8" stroke-opacity=".227" stroke-width="1" d="M 311,244 C 378,383 502,253 203,339 C 491,475 561,258 565,132 C 476,165 452,111 671,303 C 289,133 223,294 387,344 C 352,296 128,230 129,182 Z" opacity=".251" transform="rotate(100.0 400 300)"/><path fill="#0fa6d8" stroke="#fe9225" stroke-opacity=".025" stroke-width="4" d="M 662,419 C 434,251 156,359 326,375 C 246,334 319,162 618,485 C 401,328 216,344 334,189 C 588,108 546,422 495,171 C 419,484 224,164 142,111 Z" opacity=".345" transform="rotate(-19.0 400 300)"/><path fill="#f559a0" stroke="#02eb6b" stroke-opacity=".472" stroke-width="3" d="M 159,185 C 443,400 424,355 288,189 C 687,433 590,368 626,222 C 492,390 222,464 505,207 C 259,277 221,260 374,166 C 542,159 600,278 695,153 C 552,243 258,375 657,247 C 671,282 214,135 638,280 C 442,125 603,376 286,315 C 200,107 276,222 369,473 C 501,243 472,431 107,258 C 455,149 429,441 518,393 Z" opacity=".54" transform="rotate(-140.0 400 300)"/><path fill="#2cd3f3" stroke="#fe9225" stroke-opacity=".651" stroke-width="5" d="M 444,180 C 687,433 382,357 573,102 C 661,323 551,372 202,115 C 507,315 641,369 398,320 C 518,332 495,483 507,141 C 500,274 172,324 167,198 C 424,148 605,139 680,302 C 577,452 641,382 419,455 C 671,395 105,272 329,410 Z" opacity=".896" transform="rotate(-94.0 400 300)"/><path fill="#0fa6d8" stroke="#0fa6d8" stroke-opacity=".377" stroke-width="5" d="M 101,425 C 538,180 174,384 694,117 C 281,193 157,283 176,185 C 236,418 541,380 262,281 C 390,368 649,157 298,330 C 128,165 161,271 603,273 C 433,337 648,182 163,405 C 349,215 348,447 222,263 C 137,480 652,496 158,262 C 112,225 264,473 115,353 C 551,355 692,402 357,354 C 372,365 473,113 415,321 Z" opacity=".444" transform="rotate(84.0 400 300)"/><path fill="#fe9225" stroke="#fe9225" stroke-opacity=".527" stroke-width="6" d="M 665,359 C 348,497 675,473 117,422 C 396,224 654,281 483,419 C 110,465 694,490 279,263 C 589,475 442,358 408,369 C 615,151 529,182 415,496 C 102,176 127,127 655,363 C 522,379 215,448 313,392 C 483,367 114,233 572,333 C 215,275 163,263 245,444 C 180,291 244,319 501,228 Z" opacity=".008" transform="rotate(-27.0 400 300)"/></g></svg>