<?xml version="1.0" encoding="UTF-8"?>
<svg width="800px" height="600px" viewBox="0 0 800 600" version="1.1" xmlns="http://www.w3.org/2000/svg" xmlns:xlink="http://www.w3.org/1999/xlink">
  <defs></defs>
  <g stroke="none" stroke-width="1" fill="none" fill-rule="evenodd">
    
    <path stroke="#2b55f7" stroke-width="3" fill="#31a06b" opacity="0.3147610594467483" stroke-opacity="0.09808004113275351" transform="rotate(60.0 400 300)" d="M 413,339  C 465,402 255,298 327,207 C 691,330 465,438 562,437 C 224,282 326,498 154,288 C 178,316 621,459 505,213 C 538,400 440,152 523,354 C 612,371 299,295 654,236 C 616,299 273,464 553,409 C 516,203 575,380 670,114 Z"></path>
<path stroke="#ed2b2c" stroke-width="7" fill="#f9d84b" opacity="0.4733597409434033" stroke-opacity="0.8635569402822585" transform="rotate(-29.0 400 300)" d="M 184,414  C 384,153 321,449 389,455 C 116,236 220,146 288,341 C 402,394 374,417 273,390 C 122,159 461,106 452,489 C 227,452 307,246 209,468 C 559,359 103,418 133,309 C 219,169 166,280 392,457 C 270,269 474,273 563,437 Z"></path>
<path stroke="#31a06b" stroke-width="2" fill="#ed2b2c" opacity="0.9892262186300961" stroke-opacity="0.9297298938163131" transform="rotate(-127.0 400 300)" d="M 424,124  C 640,423 337,439 597,112 C 475,484 417,193 138,497 C 629,112 436,450 386,387 C 685,284 477,394 345,126 C 677,275 330,331 457,169 Z"></path>
<path stroke="#31a06b" stroke-width="7" fill="#f27630" opacity="0.8130184609308081" stroke-opacity="0.9573796000725306" transform="rotate(-97.0 400 300)" d="M 373,298  C 684,229 244,125 593,351 C 554,268 326,320 283,181 C 523,260 131,349 141,283 C 479,384 152,441 154,166 C 147,144 322,494 459,421 C 472,294 651,323 670,233 C 407,132 597,271 126,418 C 469,379 383,342 575,189 C 263,439 336,320 676,134 C 403,447 196,127 210,174 C 270,262 464,284 172,413 Z"></path>
<path stroke="#f9d84b" stroke-width="5" fill="#ed2b2c" opacity="0.8806885144893458" stroke-opacity="0.5447216463156344" transform="rotate(-146.0 400 300)" d="M 388,154  C 216,248 630,271 629,135 C 118,246 639,324 278,378 C 226,406 621,103 437,163 C 372,170 624,330 596,382 C 645,152 654,375 423,276 C 614,455 305,482 629,172 C 651,378 199,386 515,271 C 501,198 123,420 165,379 C 232,322 222,401 505,239 Z"></path>
<path stroke="#f9d84b" stroke-width="5" fill="#31a06b" opacity="0.15850745007472455" stroke-opacity="0.096942354497812" transform="rotate(24.0 400 300)" d="M 367,184  C 530,207 314,179 639,360 C 177,108 468,186 240,398 C 422,424 110,401 213,296 C 233,386 540,279 439,490 C 377,486 219,399 542,408 C 224,103 127,448 125,451 C 112,242 219,449 556,170 Z"></path>
<path stroke="#2b55f7" stroke-width="2" fill="#2b55f7" opacity="0.3318404359210079" stroke-opacity="0.20779922415881327" transform="rotate(-68.0 400 300)" d="M 216,101  C 356,470 549,207 554,368 C 349,126 540,356 206,236 C 401,149 173,174 652,298 C 110,138 556,185 463,445 C 315,370 223,222 606,468 C 584,290 125,226 477,225 C 284,162 696,163 259,118 C 269,108 424,202 555,137 Z"></path>
<path stroke="#f9d84b" stroke-width="6" fill="#31a06b" opacity="0.44524092986400626" stroke-opacity="0.9879904261588114" transform="rotate(71.0 400 300)" d="M 572,353  C 166,235 312,242 482,420 C 325,134 372,478 375,173 C 628,138 484,422 438,308 C 597,318 494,274 112,237 Z"></path>
<path stroke="#2b55f7" stroke-width="4" fill="#f9d84b" opacity="0.774622377240965" stroke-opacity="0.1840624409974713" transform="rotate(-2.0 400 300)" d="M 193,146  C 244,235 138,325 401,188 C 284,273 158,365 695,364 C 573,409 203,449 300,121 C 654,325 518,456 336,203 C 284,321 396,476 356,179 Z"></path>
<path stroke="#2b55f7" stroke-width="7" fill="#ed2b2c" opacity="0.5153016259410725" stroke-opacity="0.8335851574991666" transform="rotate(55.0 400 300)" d="M 506,258  C 153,460 563,374 314,351 C 407,375 238,151 411,246 C 283,135 642,287 637,229 C 295,487 125,357 652,291 C 104,138 345,341 309,197 C 433,402 478,468 294,472 Z"></path>

  </g>
</svg>
