<svg xmlns="http://www.w3.org/2000/svg" xmlns:xlink="http://www.w3.org/1999/xlink" width="800" height="600" version="1.1" viewBox="0 0 800 600"><g fill="none" fill-rule="evenodd" stroke="none" stroke-width="1"><path fill="#f9d84b" stroke="#31a06b" stroke-opacity=".459" stroke-width="3" d="M 279,177 C 558,330 517,233 479,214 C 623,356 237,158 631,498 C 210,162 464,149 636,110 C 507,421 441,329 564,491 C 684,162 113,489 172,163 C 687,249 498,258 174,324 C 466,474 499,407 548,233 C 131,234 658,239 173,162 C 214,248 598,105 525,263 C 111,115 236,409 284,315 Z" opacity=".954" transform="rotate(9.0 400 300)"/><path fill="#2b55f7" stroke="#ed2b2c" stroke-opacity=".621" stroke-width="3" d="M 630,437 C 131,233 477,420 524,380 C 266,369 264,443 118,216 C 384,173 351,493 542,225 C 317,351 229,397 436,218 C 647,236 613,171 248,148 C 485,265 653,293 307,413 C 308,374 101,446 110,168 Z" opacity=".637" transform="rotate(72.0 400 300)"/><path fill="#f9d84b" stroke="#31a06b" stroke-opacity=".851" stroke-width="4" d="M 585,160 C 377,476 421,246 460,403 C 447,271 476,469 496,226 C 463,446 673,459 479,279 C 471,401 134,288 306,318 C 251,128 658,196 528,166 C 132,250 575,433 205,247 C 488,215 510,403 409,204 C 523,272 317,236 462,406 C 207,120 631,198 645,224 Z" opacity=".278" transform="rotate(1.0 400 300)"/><path fill="#ed2b2c" stroke="#31a06b" stroke-opacity=".878" stroke-width="4" d="M 353,119 C 515,335 401,392 502,218 C 334,376 641,500 625,353 C 224,116 134,490 287,432 C 322,306 550,361 175,116 C 306,314 135,269 518,289 C 662,447 220,326 227,135 Z" opacity=".448" transform="rotate(-156.0 400 300)"/><path fill="#31a06b" stroke="#ed2b2c" stroke-opacity=".308" stroke-width="2" d="M 345,224 C 649,115 309,396 366,293 C 329,346 670,449 246,188 C 197,186 638,408 117,234 C 208,353 284,110 195,463 Z" opacity=".443" transform="rotate(31.0 400 300)"/><path fill="#f27630" stroke="#2b55f7" stroke-opacity=".759" stroke-width="6" d="M 467,350 C 249,320 610,211 410,175 C 464,465 142,255 399,116 C 691,388 536,491 371,412 C 431,290 148,121 473,170 Z" opacity=".147" transform="rotate(-26.0 400 300)"/></g></svg>