<?xml version="1.0" encoding="UTF-8"?>
<svg width="800px" height="600px" viewBox="0 0 800 600" version="1.1" xmlns="http://www.w3.org/2000/svg" xmlns:xlink="http://www.w3.org/1999/xlink">
  <defs></defs>
  <g stroke="none" stroke-width="1" fill="none" fill-rule="evenodd">
    
    <path stroke="#DDA140" stroke-width="5" fill="#3D37AB" opacity="0.021508041036985805" stroke-opacity="0.6344438382592312" transform="rotate(-84.0 400 300)" d="M 360,437  C 171,491 505,256 316,160 C 348,488 690,396 222,313 C 344,345 620,400 405,160 C 298,324 167,322 496,290 C 465,226 155,450 379,343 C 357,422 670,434 223,456 C 335,182 110,163 306,160 C 255,117 107,189 549,185 C 323,199 272,487 223,300 C 602,323 489,402 499,305 Z"></path>
<path stroke="#57B836" stroke-width="1" fill="#640220" opacity="0.16145267057019685" stroke-opacity="0.3459278467853716" transform="rotate(75.0 400 300)" d="M 115,221  C 207,332 534,469 140,410 C 361,487 176,368 497,435 C 668,374 236,433 483,491 C 210,262 156,471 386,408 C 202,111 127,289 365,269 C 377,148 358,300 374,491 C 505,384 576,351 616,167 C 217,272 625,405 594,273 C 688,110 252,402 679,411 Z"></path>
<path stroke="#A39A3C" stroke-width="7" fill="#D1ACA1" opacity="0.7298889829177765" stroke-opacity="0.7786165947490239" transform="rotate(110.0 400 300)" d="M 329,407  C 311,290 695,445 570,212 C 237,316 642,192 461,495 C 198,444 105,338 224,278 C 450,118 320,387 636,165 C 378,488 241,351 382,311 C 659,236 621,110 494,473 Z"></path>
<path stroke="#636D41" stroke-width="7" fill="#5083A5" opacity="0.752292515873286" stroke-opacity="0.07251194082853288" transform="rotate(-37.0 400 300)" d="M 419,119  C 656,147 132,333 565,259 C 420,299 118,293 633,171 C 410,110 509,403 237,402 C 135,426 532,376 679,272 C 334,446 589,243 484,102 C 237,302 665,434 134,402 C 510,403 477,113 286,443 C 387,483 264,240 165,171 C 117,275 551,224 399,395 C 135,298 201,388 515,175 C 634,256 560,443 166,421 Z"></path>
<path stroke="#496234" stroke-width="1" fill="#14C667" opacity="0.908449928881236" stroke-opacity="0.6482496481565216" transform="rotate(-142.0 400 300)" d="M 491,345  C 334,465 618,314 501,494 C 416,332 254,251 316,454 C 379,208 182,392 494,326 C 126,438 217,125 492,352 C 429,497 678,207 548,382 Z"></path>
<path stroke="#65B099" stroke-width="1" fill="#4A1A4C" opacity="0.39541103767088776" stroke-opacity="0.1565319014273539" transform="rotate(157.0 400 300)" d="M 399,227  C 285,246 437,406 609,246 C 316,345 533,266 167,427 C 533,114 577,334 538,331 C 514,323 247,262 487,308 C 381,289 500,186 474,309 C 463,469 540,375 284,469 C 209,247 621,211 648,434 Z"></path>
<path stroke="#87DD72" stroke-width="6" fill="#6A7A67" opacity="0.3994571493472778" stroke-opacity="0.37483058385470186" transform="rotate(-48.0 400 300)" d="M 390,188  C 257,279 528,297 606,200 C 623,294 613,244 322,143 C 225,191 334,467 120,470 C 294,429 235,303 134,380 C 654,251 670,120 440,286 C 342,334 683,269 232,457 C 515,470 558,164 505,299 C 387,320 580,401 163,225 C 227,454 200,339 615,181 C 629,385 393,389 579,301 C 280,162 452,148 575,450 Z"></path>

  </g>
</svg>
