<?xml version="1.0" encoding="UTF-8"?>
<svg width="800px" height="600px" viewBox="0 0 800 600" version="1.1" xmlns="http://www.w3.org/2000/svg" xmlns:xlink="http://www.w3.org/1999/xlink">
  <defs></defs>
  <g stroke="none" stroke-width="1" fill="none" fill-rule="evenodd">
    
    <path stroke="#140DDC" stroke-width="6" fill="#C2847A" opacity="0.9287179706737725" stroke-opacity="0.017180469201300886" transform="rotate(63.0 400 300)" d="M 276,353  C 139,284 315,350 498,335 C 475,324 591,451 557,219 C 255,409 465,396 508,119 C 223,190 360,296 173,403 C 366,218 608,408 152,463 C 284,341 104,438 278,416 C 600,152 486,433 409,218 C 212,351 628,300 586,304 C 320,387 246,488 191,334 C 625,306 342,165 700,159 C 379,260 648,232 456,483 Z"></path>
<path stroke="#A445D6" stroke-width="2" fill="#357596" opacity="0.516969543485614" stroke-opacity="0.6892987035819562" transform="rotate(107.0 400 300)" d="M 273,369  C 488,319 700,475 421,332 C 606,163 463,302 129,161 C 333,206 580,208 615,231 C 493,177 358,212 223,265 C 283,415 381,133 117,416 Z"></path>
<path stroke="#A1C2C8" stroke-width="5" fill="#2213CD" opacity="0.43527846211254523" stroke-opacity="0.7654799455324321" transform="rotate(-93.0 400 300)" d="M 587,155  C 451,489 258,248 339,101 C 378,346 616,177 309,312 C 170,179 616,348 114,296 C 549,149 253,257 366,277 C 268,186 323,437 349,128 C 147,315 243,266 511,204 C 133,182 117,273 334,245 C 553,225 473,436 678,211 C 366,129 152,322 681,360 Z"></path>
<path stroke="#9A9B85" stroke-width="5" fill="#35BA05" opacity="0.3021561378609388" stroke-opacity="0.682193669193667" transform="rotate(88.0 400 300)" d="M 294,336  C 401,237 535,148 176,206 C 642,333 488,254 467,214 C 186,353 508,202 239,191 C 422,101 562,412 458,315 C 448,232 153,371 495,213 C 333,490 114,381 278,123 C 373,292 127,323 228,406 C 313,335 180,344 468,223 C 157,386 129,459 280,228 C 257,395 422,382 268,455 C 621,287 645,232 495,420 Z"></path>
<path stroke="#09096D" stroke-width="6" fill="#88A24C" opacity="0.423445400706243" stroke-opacity="0.6897085439810988" transform="rotate(25.0 400 300)" d="M 272,142  C 584,395 654,346 665,346 C 510,433 652,176 482,106 C 610,201 548,199 589,360 C 457,292 228,209 436,227 C 404,474 292,319 408,359 C 543,169 585,467 297,107 C 660,455 690,252 254,315 C 284,306 315,369 279,120 C 585,436 129,242 173,237 Z"></path>
<path stroke="#99C629" stroke-width="3" fill="#81C3B5" opacity="0.253647457373598" stroke-opacity="0.7635127714272926" transform="rotate(25.0 400 300)" d="M 434,434  C 674,182 483,140 408,263 C 605,458 127,349 518,162 C 695,145 454,177 661,284 C 391,178 655,299 535,265 C 366,479 535,163 692,214 C 673,484 138,386 565,198 C 659,225 698,383 211,176 C 444,207 234,349 421,215 C 312,157 306,338 595,333 Z"></path>
<path stroke="#B576A2" stroke-width="6" fill="#208015" opacity="0.9259965164995821" stroke-opacity="0.6981243623117598" transform="rotate(-44.0 400 300)" d="M 152,317  C 346,299 508,256 338,217 C 418,475 471,262 211,232 C 665,275 374,495 363,397 C 138,474 257,445 646,156 C 309,101 512,354 652,434 C 138,386 245,166 563,318 C 349,261 487,486 191,355 C 500,406 305,128 279,360 C 642,190 338,389 432,195 Z"></path>
<path stroke="#83D428" stroke-width="6" fill="#5A5135" opacity="0.9342431662184963" stroke-opacity="0.2206629739607039" transform="rotate(-171.0 400 300)" d="M 668,279  C 391,494 659,363 529,398 C 207,382 669,429 376,346 C 273,148 581,431 253,122 C 512,160 350,379 201,475 Z"></path>
<path stroke="#0D4260" stroke-width="6" fill="#0337A7" opacity="0.765499970529344" stroke-opacity="0.5599512987167673" transform="rotate(78.0 400 300)" d="M 448,469  C 237,318 410,146 454,390 C 647,163 603,406 700,115 C 235,270 468,186 274,373 C 154,408 345,282 102,374 C 409,341 404,111 642,340 C 257,117 573,445 361,371 C 563,244 524,438 658,339 Z"></path>
<path stroke="#32D576" stroke-width="7" fill="#A5C9D8" opacity="0.11541910764500053" stroke-opacity="0.785185144783876" transform="rotate(-116.0 400 300)" d="M 622,328  C 215,415 345,336 406,272 C 604,462 624,117 464,166 C 105,421 209,337 428,429 C 461,378 501,389 140,368 C 631,184 624,393 442,495 C 312,218 574,348 630,325 C 175,143 161,218 512,454 C 570,128 130,485 201,362 C 103,317 639,339 211,184 C 217,293 217,291 243,475 C 393,265 505,428 307,362 Z"></path>

  </g>
</svg>
