<?xml version="1.0" encoding="UTF-8"?>
<svg width="800px" height="600px" viewBox="0 0 800 600" version="1.1" xmlns="http://www.w3.org/2000/svg" xmlns:xlink="http://www.w3.org/1999/xlink">
  <defs></defs>
  <g stroke="none" stroke-width="1" fill="none" fill-rule="evenodd">
    
    <path stroke="#f9d84b" stroke-width="1" fill="#f27630" opacity="0.050057143915114316" stroke-opacity="0.32954635812530764" transform="rotate(-50.0 400 300)" d="M 355,350  C 381,206 519,203 231,360 C 218,441 353,360 377,189 C 670,452 112,321 475,373 C 587,182 379,471 390,224 Z"></path>
<path stroke="#f27630" stroke-width="2" fill="#31a06b" opacity="0.9510138207193275" stroke-opacity="0.8480550454194331" transform="rotate(-38.0 400 300)" d="M 385,354  C 322,116 337,376 238,108 C 536,500 673,182 648,257 C 514,176 250,183 306,236 C 382,302 530,239 415,378 C 515,473 421,336 132,129 C 505,374 453,247 569,135 C 241,159 402,157 566,337 Z"></path>
<path stroke="#f9d84b" stroke-width="1" fill="#31a06b" opacity="0.09683139236474536" stroke-opacity="0.511128724548892" transform="rotate(-159.0 400 300)" d="M 384,319  C 564,491 116,292 375,234 C 370,152 368,357 464,296 C 323,324 352,199 254,339 C 195,247 126,141 435,351 C 343,350 134,479 523,299 C 563,306 127,291 649,445 C 296,218 332,245 191,400 C 394,265 358,204 299,257 C 523,479 555,189 253,373 Z"></path>
<path stroke="#ed2b2c" stroke-width="4" fill="#2b55f7" opacity="0.5622996149380076" stroke-opacity="0.1284272358621351" transform="rotate(45.0 400 300)" d="M 220,327  C 207,280 681,307 368,279 C 351,183 490,206 408,206 C 419,367 166,488 130,204 C 448,284 338,328 260,489 C 468,101 687,296 460,456 C 674,272 244,181 530,473 C 164,358 467,325 507,178 C 142,327 206,469 458,391 Z"></path>
<path stroke="#ed2b2c" stroke-width="4" fill="#ed2b2c" opacity="0.9691287872976575" stroke-opacity="0.23344412264327885" transform="rotate(-35.0 400 300)" d="M 508,486  C 364,351 657,342 299,204 C 229,277 526,246 172,155 C 579,296 168,186 218,299 C 342,106 262,212 435,139 C 339,475 329,158 457,367 Z"></path>
<path stroke="#f27630" stroke-width="4" fill="#f27630" opacity="0.7935419172974576" stroke-opacity="0.9018937831279092" transform="rotate(120.0 400 300)" d="M 477,124  C 276,202 177,234 368,158 C 327,405 108,462 236,475 C 248,257 405,335 676,190 C 517,137 582,365 551,282 C 569,422 691,347 679,154 C 540,232 278,234 421,185 C 464,430 188,306 691,285 C 412,477 146,339 107,271 C 693,159 117,105 105,438 Z"></path>
<path stroke="#f9d84b" stroke-width="4" fill="#2b55f7" opacity="0.6072297049886509" stroke-opacity="0.0911944612285573" transform="rotate(-134.0 400 300)" d="M 623,282  C 640,210 352,223 415,367 C 684,368 468,152 643,230 C 350,104 124,358 470,431 C 203,168 324,331 273,163 C 447,117 372,347 526,223 C 464,359 187,369 144,108 Z"></path>
<path stroke="#2b55f7" stroke-width="7" fill="#f27630" opacity="0.5758437543756482" stroke-opacity="0.6272168801069341" transform="rotate(80.0 400 300)" d="M 547,239  C 392,447 228,390 270,181 C 490,193 121,189 656,428 C 278,437 440,203 631,453 C 456,459 669,443 129,175 C 109,387 375,245 207,176 C 537,227 657,409 258,300 C 416,409 118,251 156,188 C 157,171 123,280 141,302 C 147,437 487,324 641,148 C 436,412 640,234 268,149 C 418,434 120,201 115,316 Z"></path>
<path stroke="#f27630" stroke-width="1" fill="#31a06b" opacity="0.47624512679855185" stroke-opacity="0.9606232583733741" transform="rotate(-54.0 400 300)" d="M 638,288  C 498,248 277,159 484,185 C 502,483 695,197 620,340 C 616,255 120,413 552,274 C 187,249 113,304 687,154 C 211,229 183,114 271,197 C 436,273 428,497 494,241 C 373,208 327,305 142,140 C 273,481 336,213 341,295 C 162,500 419,322 306,384 Z"></path>
<path stroke="#31a06b" stroke-width="2" fill="#f9d84b" opacity="0.5277079628820264" stroke-opacity="0.2822304972085067" transform="rotate(-78.0 400 300)" d="M 524,178  C 485,253 470,403 183,355 C 272,405 368,102 540,345 C 384,251 617,373 525,226 C 195,318 271,301 373,489 Z"></path>

  </g>
</svg>
