<svg xmlns="http://www.w3.org/2000/svg" xmlns:xlink="http://www.w3.org/1999/xlink" width="800" height="600" version="1.1" viewBox="0 0 800 600"><g fill="none" fill-rule="evenodd" stroke="none" stroke-width="1"><path fill="#C526B1" stroke="#7AA07C" stroke-opacity=".917" stroke-width="2" d="M 550,433 C 523,426 289,298 421,372 C 253,387 421,489 346,447 C 192,201 275,142 378,294 C 278,356 120,271 609,457 C 460,114 248,117 548,201 C 264,293 250,472 140,350 C 641,192 372,168 224,391 Z" opacity=".469" transform="rotate(-104.0 400 300)"/><polygon fill="#3C6265" stroke="#159847" stroke-opacity=".599" stroke-width="4" points="358 106 579 225 473 66 479 287 156 359 208 58 276 60 569 530" opacity=".957" transform="rotate(-52.0 400 300)"/><rect width="73" height="122" x="27" y="477" fill="#59D427" stroke="#501638" stroke-opacity=".289" stroke-width="4" opacity=".832" transform="rotate(32.0 400 300)"/><ellipse cx="269" cy="280" fill="#720D4D" stroke="#5392BD" stroke-opacity=".999" stroke-width="4" opacity=".636" rx="192" ry="129" transform="rotate(-85.0 400 300)"/><ellipse cx="193" cy="6" fill="#73CD4A" stroke="#5398D4" stroke-opacity=".833" stroke-width="1" opacity=".891" rx="368" ry="290" transform="rotate(143.0 400 300)"/><rect width="355" height="185" x="483" y="421" fill="#741384" stroke="#693359" stroke-opacity=".276" stroke-width="5" opacity=".658" transform="rotate(31.0 400 300)"/><path fill="#CA69C8" stroke="#96345D" stroke-opacity=".053" stroke-width="7" d="M 267,309 C 227,433 429,179 445,133 C 686,431 107,435 476,118 C 377,459 381,256 531,197 C 634,341 272,461 127,428 C 261,292 188,249 425,261 C 188,492 571,199 483,160 C 360,424 511,494 329,377 C 479,263 199,165 686,222 Z" opacity=".918" transform="rotate(152.0 400 300)"/><rect width="125" height="103" x="352" y="444" fill="#618A83" stroke="#571162" stroke-opacity=".551" stroke-width="2" opacity=".551" transform="rotate(174.0 400 300)"/><polygon fill="#D884DC" stroke="#302C6C" stroke-opacity=".264" stroke-width="4" points="63 413 473 560 294 557 251 457 694 123 270 122 438 19 249 578" opacity=".926" transform="rotate(-89.0 400 300)"/><polygon fill="#BD05A5" stroke="#309490" stroke-opacity=".383" stroke-width="5" points="682 407 245 76 309 549 247 143 3 279 201 250 509 186 746 454" opacity=".139" transform="rotate(161.0 400 300)"/></g></svg>