<?xml version="1.0" encoding="UTF-8"?>
<svg width="800px" height="600px" viewBox="0 0 800 600" version="1.1" xmlns="http://www.w3.org/2000/svg" xmlns:xlink="http://www.w3.org/1999/xlink">
  <defs></defs>
  <g stroke="none" stroke-width="1" fill="none" fill-rule="evenodd">
    
    <path stroke="#7AA07C" stroke-width="2" fill="#C526B1" opacity="0.4690358630338199" stroke-opacity="0.9171952619499355" transform="rotate(-104.0 400 300)" d="M 550,433  C 523,426 289,298 421,372 C 253,387 421,489 346,447 C 192,201 275,142 378,294 C 278,356 120,271 609,457 C 460,114 248,117 548,201 C 264,293 250,472 140,350 C 641,192 372,168 224,391 Z"></path>
<polygon stroke="#159847" stroke-width="4" fill="#3C6265" opacity="0.957012668897422" stroke-opacity="0.5985059076110038" transform="rotate(-52.0 400 300)" points="358 106 579 225 473 66 479 287 156 359 208 58 276 60 569 530 "></polygon>
<rect stroke="#501638" stroke-width="4" fill="#59D427" opacity="0.8321820375959587" stroke-opacity="0.28929402919815755" transform="rotate(32.0 400 300)" x="27" y="477" width="73" height="122"></rect>
<ellipse stroke="#5392BD" stroke-width="4" fill="#720D4D" opacity="0.6362360756644397" stroke-opacity="0.9991757911280088" transform="rotate(-85.0 400 300)" cx="269" rx="192" cy="280" ry="129"></ellipse>
<ellipse stroke="#5398D4" stroke-width="1" fill="#73CD4A" opacity="0.8908806581527147" stroke-opacity="0.8325850828808695" transform="rotate(143.0 400 300)" cx="193" rx="368" cy="6" ry="290"></ellipse>
<rect stroke="#693359" stroke-width="5" fill="#741384" opacity="0.6579839772705688" stroke-opacity="0.27581207788909146" transform="rotate(31.0 400 300)" x="483" y="421" width="355" height="185"></rect>
<path stroke="#96345D" stroke-width="7" fill="#CA69C8" opacity="0.9177305077037801" stroke-opacity="0.05303656513067876" transform="rotate(152.0 400 300)" d="M 267,309  C 227,433 429,179 445,133 C 686,431 107,435 476,118 C 377,459 381,256 531,197 C 634,341 272,461 127,428 C 261,292 188,249 425,261 C 188,492 571,199 483,160 C 360,424 511,494 329,377 C 479,263 199,165 686,222 Z"></path>
<rect stroke="#571162" stroke-width="2" fill="#618A83" opacity="0.5509856259160545" stroke-opacity="0.5506499984432698" transform="rotate(174.0 400 300)" x="352" y="444" width="125" height="103"></rect>
<polygon stroke="#302C6C" stroke-width="4" fill="#D884DC" opacity="0.9261643379324174" stroke-opacity="0.2637797486645914" transform="rotate(-89.0 400 300)" points="63 413 473 560 294 557 251 457 694 123 270 122 438 19 249 578 "></polygon>
<polygon stroke="#309490" stroke-width="5" fill="#BD05A5" opacity="0.13889424720527793" stroke-opacity="0.383194844135637" transform="rotate(161.0 400 300)" points="682 407 245 76 309 549 247 143 3 279 201 250 509 186 746 454 "></polygon>

  </g>
</svg>
