<?xml version="1.0" encoding="UTF-8"?>
<svg width="800px" height="600px" viewBox="0 0 800 600" version="1.1" xmlns="http://www.w3.org/2000/svg" xmlns:xlink="http://www.w3.org/1999/xlink">
  <defs></defs>
  <g stroke="none" stroke-width="1" fill="none" fill-rule="evenodd">
    
    <path stroke="#44D901" stroke-width="4" fill="#1A5248" opacity="0.8891808466540352" stroke-opacity="0.28326554591220904" transform="rotate(-25.0 400 300)" d="M 594,229  C 140,436 358,291 257,225 C 406,228 355,171 530,140 C 252,441 158,171 598,442 C 496,253 368,178 554,151 C 391,189 159,241 479,265 C 569,392 642,333 559,231 C 303,117 590,142 224,256 C 140,145 517,347 600,225 C 131,160 126,491 496,267 C 648,319 237,179 590,372 C 174,125 256,213 178,277 Z"></path>
<path stroke="#02D335" stroke-width="5" fill="#D68510" opacity="0.29909751875101154" stroke-opacity="0.738900819602053" transform="rotate(84.0 400 300)" d="M 571,264  C 291,235 161,164 518,233 C 541,187 625,204 684,215 C 103,194 273,295 361,228 C 584,300 294,409 232,126 C 593,227 636,196 228,115 C 494,154 352,413 274,289 C 124,441 201,486 177,260 C 395,157 399,375 637,448 Z"></path>
<path stroke="#5A7845" stroke-width="5" fill="#1D317B" opacity="0.6356468290552814" stroke-opacity="0.8171802560420689" transform="rotate(70.0 400 300)" d="M 629,364  C 509,448 304,332 355,127 C 321,180 294,260 313,205 C 490,360 261,297 626,122 C 249,313 340,288 164,333 Z"></path>
<path stroke="#DD47AD" stroke-width="1" fill="#777577" opacity="0.3323945964103178" stroke-opacity="0.25212392364390446" transform="rotate(151.0 400 300)" d="M 413,135  C 640,281 258,251 251,482 C 689,124 149,463 570,347 C 201,485 470,198 247,108 C 514,174 205,200 615,145 C 354,133 582,361 544,243 C 236,413 551,196 482,201 C 157,372 250,358 171,455 C 590,427 440,374 297,155 C 243,318 351,382 389,153 C 680,338 500,470 296,371 C 649,391 383,377 567,101 Z"></path>
<path stroke="#3C979D" stroke-width="3" fill="#910B34" opacity="0.2067980233671162" stroke-opacity="0.8582887926005303" transform="rotate(-65.0 400 300)" d="M 666,484  C 239,273 296,292 341,340 C 496,365 368,440 151,180 C 497,271 417,362 637,121 C 692,358 346,473 418,222 C 166,442 625,281 147,168 C 454,339 624,369 169,422 C 645,256 483,298 204,476 C 286,138 651,293 413,275 C 631,118 203,265 175,453 C 400,474 226,117 281,420 C 588,333 692,218 257,483 Z"></path>
<path stroke="#8A552D" stroke-width="1" fill="#64807B" opacity="0.3369131552764943" stroke-opacity="0.5011197735660219" transform="rotate(118.0 400 300)" d="M 403,432  C 465,462 328,113 473,458 C 591,378 655,371 593,174 C 480,176 158,107 593,301 C 259,137 105,302 577,111 C 349,474 298,115 249,303 C 403,171 496,493 627,478 C 189,110 144,490 656,150 C 352,488 518,134 599,129 C 271,498 647,123 308,203 C 532,228 415,347 476,121 Z"></path>
<path stroke="#DB2605" stroke-width="4" fill="#D8C399" opacity="0.21765772250345322" stroke-opacity="0.7936107538535833" transform="rotate(147.0 400 300)" d="M 212,173  C 376,319 212,360 215,272 C 320,306 148,112 276,229 C 329,191 572,383 485,196 C 102,408 159,255 131,132 C 633,165 407,458 564,450 C 553,454 309,169 583,387 C 388,288 672,363 410,232 C 223,245 216,291 522,420 C 430,311 583,112 239,135 C 279,498 170,116 525,476 C 466,481 266,354 194,243 Z"></path>
<path stroke="#B396AD" stroke-width="2" fill="#4959BB" opacity="0.08082330838571429" stroke-opacity="0.002151456091775735" transform="rotate(169.0 400 300)" d="M 602,422  C 614,232 295,324 200,485 C 142,316 571,165 301,239 C 160,263 161,464 165,123 C 546,274 436,485 427,207 C 546,238 361,312 124,404 C 572,486 407,413 496,249 C 544,427 354,358 570,419 C 607,462 651,213 552,316 Z"></path>
<path stroke="#C625A3" stroke-width="4" fill="#26D547" opacity="0.16162324943101244" stroke-opacity="0.3211211007650582" transform="rotate(38.0 400 300)" d="M 622,221  C 497,241 136,135 506,315 C 224,469 304,163 284,361 C 505,264 294,499 455,453 C 554,304 422,319 148,235 Z"></path>
<path stroke="#99144A" stroke-width="3" fill="#C8943B" opacity="0.16103595740838283" stroke-opacity="0.7644945711520306" transform="rotate(68.0 400 300)" d="M 286,398  C 159,442 517,253 385,164 C 149,262 513,227 332,393 C 574,477 674,248 415,321 C 501,304 595,487 624,269 C 566,321 372,311 220,276 C 233,407 412,402 169,480 C 150,193 155,499 546,470 C 430,388 387,109 227,304 C 636,258 364,329 564,495 C 399,103 598,279 311,355 C 686,368 668,458 581,199 Z"></path>

  </g>
</svg>
