<?xml version="1.0" encoding="UTF-8"?>
<svg width="800px" height="600px" viewBox="0 0 800 600" version="1.1" xmlns="http://www.w3.org/2000/svg" xmlns:xlink="http://www.w3.org/1999/xlink">
  <defs></defs>
  <g stroke="none" stroke-width="1" fill="none" fill-rule="evenodd">
    
    <polygon stroke="#ed2b2c" stroke-width="2" fill="#f9d84b" opacity="0.26673393666146444" stroke-opacity="0.6281155045262801" transform="rotate(-15.0 400 300)" points="391 599 565 424 256 172 312 4 682 413 388 329 451 412 647 504 "></polygon>
<ellipse stroke="#31a06b" stroke-width="4" fill="#2b55f7" opacity="0.2116251869652289" stroke-opacity="0.3442792124220702" transform="rotate(-91.0 400 300)" cx="365" rx="107" cy="291" ry="104"></ellipse>
<polygon stroke="#2b55f7" stroke-width="1" fill="#f9d84b" opacity="0.16753054278547733" stroke-opacity="0.3080110691716354" transform="rotate(-172.0 400 300)" points="381 116 186 303 536 470 458 215 448 81 "></polygon>
<path stroke="#ed2b2c" stroke-width="3" fill="#2b55f7" opacity="0.5653734717848365" stroke-opacity="0.5365549549079637" transform="rotate(124.0 400 300)" d="M 116,181  C 411,307 552,204 354,436 C 117,169 693,160 161,491 C 690,456 327,119 173,104 C 607,129 491,245 642,428 C 271,366 140,184 108,273 C 614,419 578,277 572,236 C 425,173 568,495 420,289 C 678,363 294,269 490,110 C 421,324 390,219 423,304 C 656,164 578,325 493,252 Z"></path>
<path stroke="#f27630" stroke-width="4" fill="#f9d84b" opacity="0.5191165391349488" stroke-opacity="0.5114386982442382" transform="rotate(20.0 400 300)" d="M 305,180  C 485,250 401,218 538,186 C 500,110 257,376 495,296 C 324,210 322,462 663,357 C 208,122 327,254 148,186 C 309,318 577,130 250,407 C 658,419 384,386 492,142 C 159,199 153,490 105,336 C 371,193 578,418 523,205 C 642,500 197,310 257,185 Z"></path>
<polygon stroke="#31a06b" stroke-width="1" fill="#31a06b" opacity="0.11055453763690899" stroke-opacity="0.6130770049022057" transform="rotate(6.0 400 300)" points="182 396 760 115 705 228 245 153 35 65 208 17 "></polygon>
<rect stroke="#31a06b" stroke-width="7" fill="#31a06b" opacity="0.12089910350541318" stroke-opacity="0.32732080727712387" transform="rotate(-106.0 400 300)" x="176" y="305" width="381" height="164"></rect>
<ellipse stroke="#f9d84b" stroke-width="4" fill="#f9d84b" opacity="0.5420533578148199" stroke-opacity="0.19483187211016506" transform="rotate(-56.0 400 300)" cx="259" rx="60" cy="218" ry="246"></ellipse>
<rect stroke="#2b55f7" stroke-width="7" fill="#31a06b" opacity="0.274867768030429" stroke-opacity="0.8006057293369179" transform="rotate(68.0 400 300)" x="279" y="549" width="197" height="35"></rect>
<polygon stroke="#2b55f7" stroke-width="5" fill="#f27630" opacity="0.48898907515940565" stroke-opacity="0.6097560841209549" transform="rotate(-80.0 400 300)" points="398 436 150 81 520 551 82 471 483 579 391 135 "></polygon>
<polygon stroke="#f9d84b" stroke-width="6" fill="#2b55f7" opacity="0.8427060346259311" stroke-opacity="0.3138146289437446" transform="rotate(114.0 400 300)" points="458 598 393 225 219 486 661 88 394 196 567 518 318 198 233 345 "></polygon>

  </g>
</svg>
