<svg xmlns="http://www.w3.org/2000/svg" xmlns:xlink="http://www.w3.org/1999/xlink" width="800" height="600" version="1.1" viewBox="0 0 800 600"><g fill="none" fill-rule="evenodd" stroke="none" stroke-width="1"><polygon fill="#f9d84b" stroke="#ed2b2c" stroke-opacity=".628" stroke-width="2" points="391 599 565 424 256 172 312 4 682 413 388 329 451 412 647 504" opacity=".267" transform="rotate(-15.0 400 300)"/><ellipse cx="365" cy="291" fill="#2b55f7" stroke="#31a06b" stroke-opacity=".344" stroke-width="4" opacity=".212" rx="107" ry="104" transform="rotate(-91.0 400 300)"/><polygon fill="#f9d84b" stroke="#2b55f7" stroke-opacity=".308" stroke-width="1" points="381 116 186 303 536 470 458 215 448 81" opacity=".168" transform="rotate(-172.0 400 300)"/><path fill="#2b55f7" stroke="#ed2b2c" stroke-opacity=".537" stroke-width="3" d="M 116,181 C 411,307 552,204 354,436 C 117,169 693,160 161,491 C 690,456 327,119 173,104 C 607,129 491,245 642,428 C 271,366 140,184 108,273 C 614,419 578,277 572,236 C 425,173 568,495 420,289 C 678,363 294,269 490,110 C 421,324 390,219 423,304 C 656,164 578,325 493,252 Z" opacity=".565" transform="rotate(124.0 400 300)"/><path fill="#f9d84b" stroke="#f27630" stroke-opacity=".511" stroke-width="4" d="M 305,180 C 485,250 401,218 538,186 C 500,110 257,376 495,296 C 324,210 322,462 663,357 C 208,122 327,254 148,186 C 309,318 577,130 250,407 C 658,419 384,386 492,142 C 159,199 153,490 105,336 C 371,193 578,418 523,205 C 642,500 197,310 257,185 Z" opacity=".519" transform="rotate(20.0 400 300)"/><polygon fill="#31a06b" stroke="#31a06b" stroke-opacity=".613" stroke-width="1" points="182 396 760 115 705 228 245 153 35 65 208 17" opacity=".111" transform="rotate(6.0 400 300)"/><rect width="381" height="164" x="176" y="305" fill="#31a06b" stroke="#31a06b" stroke-opacity=".327" stroke-width="7" opacity=".121" transform="rotate(-106.0 400 300)"/><ellipse cx="259" cy="218" fill="#f9d84b" stroke="#f9d84b" stroke-opacity=".195" stroke-width="4" opacity=".542" rx="60" ry="246" transform="rotate(-56.0 400 300)"/><rect width="197" height="35" x="279" y="549" fill="#31a06b" stroke="#2b55f7" stroke-opacity=".801" stroke-width="7" opacity=".275" transform="rotate(68.0 400 300)"/><polygon fill="#f27630" stroke="#2b55f7" stroke-opacity=".61" stroke-width="5" points="398 436 150 81 520 551 82 471 483 579 391 135" opacity=".489" transform="rotate(-80.0 400 300)"/><polygon fill="#2b55f7" stroke="#f9d84b" stroke-opacity=".314" stroke-width="6" points="458 598 393 225 219 486 661 88 394 196 567 518 318 198 233 345" opacity=".843" transform="rotate(114.0 400 300)"/></g></svg>