<svg xmlns="http://www.w3.org/2000/svg" xmlns:xlink="http://www.w3.org/1999/xlink" width="800" height="600" version="1.1" viewBox="0 0 800 600"><g fill="none" fill-rule="evenodd" stroke="none" stroke-width="1"><path fill="#f559a0" stroke="#2cd3f3" stroke-opacity=".526" stroke-width="7" d="M 419,411 C 576,117 481,410 193,211 C 624,226 174,438 526,179 C 435,240 106,338 670,454 C 111,164 396,376 515,174 C 554,367 111,380 632,427 C 113,179 150,474 118,310 C 118,282 506,109 534,177 C 416,308 121,135 462,452 C 338,480 307,110 673,316 C 589,426 266,262 465,432 C 423,440 501,120 440,363 Z" opacity=".645" transform="rotate(-104.0 400 300)"/><path fill="#02eb6b" stroke="#2cd3f3" stroke-opacity=".888" stroke-width="2" d="M 667,354 C 670,294 109,380 441,153 C 179,277 143,341 487,336 C 466,299 675,314 545,499 C 159,406 128,482 211,267 Z" opacity=".952" transform="rotate(-91.0 400 300)"/><path fill="#0fa6d8" stroke="#02eb6b" stroke-opacity=".9" stroke-width="7" d="M 675,494 C 183,252 540,235 494,206 C 682,495 212,421 482,360 C 605,302 212,272 668,427 C 264,485 603,398 432,238 C 323,373 269,201 527,181 C 135,105 534,394 310,222 C 335,266 604,202 283,296 C 123,131 288,308 547,376 C 503,162 306,276 553,224 Z" opacity=".896" transform="rotate(-12.0 400 300)"/><path fill="#f559a0" stroke="#0fa6d8" stroke-opacity=".498" stroke-width="4" d="M 589,282 C 526,204 481,108 579,319 C 372,344 231,107 662,141 C 357,428 511,216 649,499 C 547,492 149,299 392,487 C 616,231 536,263 250,110 C 373,277 406,193 386,294 C 433,189 414,109 253,292 C 132,122 456,188 294,425 C 121,153 324,158 513,199 Z" opacity=".598" transform="rotate(-111.0 400 300)"/><path fill="#0fa6d8" stroke="#fe9225" stroke-opacity=".482" stroke-width="6" d="M 464,498 C 359,374 700,369 624,178 C 548,176 439,436 428,296 C 294,327 672,423 597,441 C 284,129 223,470 659,163 C 309,299 126,416 160,378 C 442,128 676,349 101,402 C 243,281 235,458 572,201 C 396,188 471,427 499,153 C 244,294 362,492 563,372 C 282,132 173,391 455,392 Z" opacity=".31" transform="rotate(-51.0 400 300)"/><path fill="#2cd3f3" stroke="#0fa6d8" stroke-opacity=".252" stroke-width="1" d="M 358,109 C 255,239 197,367 540,439 C 317,182 688,409 560,446 C 524,247 660,441 683,454 C 325,465 364,189 598,167 Z" opacity=".049" transform="rotate(-114.0 400 300)"/><path fill="#02eb6b" stroke="#fe9225" stroke-opacity=".336" stroke-width="3" d="M 486,176 C 230,189 601,483 259,165 C 340,475 596,454 139,408 C 348,254 204,461 409,239 C 578,233 356,176 697,467 Z" opacity=".547" transform="rotate(-21.0 400 300)"/><path fill="#f559a0" stroke="#02eb6b" stroke-opacity=".436" stroke-width="4" d="M 216,469 C 244,473 204,423 597,361 C 220,145 282,284 419,453 C 438,254 124,301 591,332 C 373,388 504,435 554,167 C 183,353 515,112 251,351 C 458,489 233,394 622,485 C 419,141 443,104 430,462 C 540,332 620,324 546,282 C 413,265 352,277 108,419 Z" opacity=".107" transform="rotate(-43.0 400 300)"/></g></svg>