<svg xmlns="http://www.w3.org/2000/svg" xmlns:xlink="http://www.w3.org/1999/xlink" width="800" height="600" version="1.1" viewBox="0 0 800 600"><g fill="none" fill-rule="evenodd" stroke="none" stroke-width="1"><ellipse cx="372" cy="292" fill="#2b55f7" stroke="#31a06b" stroke-opacity=".522" stroke-width="3" opacity=".746" rx="143" ry="54" transform="rotate(36.0 400 300)"/><rect width="117" height="305" x="211" y="436" fill="#31a06b" stroke="#31a06b" stroke-opacity=".946" stroke-width="2" opacity=".882" transform="rotate(51.0 400 300)"/><rect width="86" height="238" x="711" y="284" fill="#ed2b2c" stroke="#ed2b2c" stroke-opacity=".916" stroke-width="1" opacity=".57" transform="rotate(114.0 400 300)"/><rect width="105" height="185" x="39" y="226" fill="#f27630" stroke="#f27630" stroke-opacity=".62" stroke-width="7" opacity=".298" transform="rotate(-100.0 400 300)"/><path fill="#2b55f7" stroke="#31a06b" stroke-opacity=".053" stroke-width="2" d="M 270,141 C 638,278 181,254 647,184 C 447,432 265,167 518,117 C 512,244 505,244 194,244 C 186,384 561,184 351,247 C 364,166 642,125 248,364 C 593,115 150,233 309,153 C 192,354 298,207 527,192 C 488,359 267,445 681,330 C 207,345 514,146 643,410 C 245,460 649,230 252,375 C 649,112 476,359 336,167 Z" opacity=".537" transform="rotate(117.0 400 300)"/><path fill="#31a06b" stroke="#ed2b2c" stroke-opacity=".536" stroke-width="3" d="M 277,190 C 666,215 639,299 402,493 C 423,266 412,473 244,311 C 271,245 650,149 481,124 C 203,367 428,420 358,419 C 660,262 449,232 512,110 Z" opacity=".167" transform="rotate(-143.0 400 300)"/><path fill="#2b55f7" stroke="#f27630" stroke-opacity=".257" stroke-width="4" d="M 553,110 C 612,188 354,121 128,381 C 467,240 501,353 493,389 C 127,405 256,218 302,170 C 242,369 479,343 152,317 C 387,401 482,197 673,178 C 593,168 457,422 113,500 C 548,290 204,420 202,105 C 203,292 597,249 192,156 Z" opacity=".661" transform="rotate(-141.0 400 300)"/><rect width="183" height="318" x="121" y="94" fill="#f27630" stroke="#f27630" stroke-opacity=".755" stroke-width="1" opacity=".669" transform="rotate(-31.0 400 300)"/><ellipse cx="725" cy="446" fill="#ed2b2c" stroke="#f9d84b" stroke-opacity=".759" stroke-width="1" opacity=".394" rx="79" ry="206" transform="rotate(121.0 400 300)"/><polygon fill="#f27630" stroke="#2b55f7" stroke-opacity=".581" stroke-width="3" points="657 267 521 525 539 549 280 439 675 444" opacity=".238" transform="rotate(34.0 400 300)"/><path fill="#2b55f7" stroke="#2b55f7" stroke-opacity=".886" stroke-width="2" d="M 303,134 C 584,489 468,473 443,104 C 514,332 319,209 307,428 C 214,287 102,412 435,260 C 445,445 518,482 541,125 C 598,382 558,197 331,328 C 673,454 315,458 368,225 C 223,258 492,302 538,343 C 593,296 497,234 329,133 C 505,472 183,140 624,401 Z" opacity=".045" transform="rotate(-11.0 400 300)"/></g></svg>