<?xml version="1.0" encoding="UTF-8"?>
<svg width="800px" height="600px" viewBox="0 0 800 600" version="1.1" xmlns="http://www.w3.org/2000/svg" xmlns:xlink="http://www.w3.org/1999/xlink">
  <defs></defs>
  <g stroke="none" stroke-width="1" fill="none" fill-rule="evenodd">
    
    <path stroke="#f27630" stroke-width="6" fill="#2b55f7" opacity="0.614648603690944" stroke-opacity="0.7620194461046479" transform="rotate(-136.0 400 300)" d="M 216,497  C 221,372 613,278 272,412 C 209,459 431,249 156,157 C 144,217 671,467 466,221 C 147,140 691,482 411,471 C 550,458 147,118 130,253 C 275,119 187,227 337,202 C 623,344 600,283 273,456 Z"></path>
<path stroke="#ed2b2c" stroke-width="4" fill="#31a06b" opacity="0.7401596506823664" stroke-opacity="0.5688918243039314" transform="rotate(-26.0 400 300)" d="M 565,146  C 683,337 519,358 370,320 C 435,182 213,359 173,316 C 256,197 691,259 136,334 C 658,161 667,264 103,114 C 407,132 480,299 663,415 C 517,181 595,258 131,250 C 573,381 359,211 506,196 C 132,418 178,177 133,475 Z"></path>
<path stroke="#ed2b2c" stroke-width="5" fill="#f9d84b" opacity="0.7216005189698586" stroke-opacity="0.3766257277779826" transform="rotate(66.0 400 300)" d="M 321,228  C 279,495 659,277 427,393 C 604,264 688,216 363,292 C 700,429 321,208 451,472 C 434,422 687,500 541,316 C 581,260 357,128 524,315 C 394,455 238,397 521,318 Z"></path>
<path stroke="#f9d84b" stroke-width="7" fill="#ed2b2c" opacity="0.28480909086572626" stroke-opacity="0.44892845000135967" transform="rotate(-55.0 400 300)" d="M 151,449  C 679,277 257,258 162,473 C 295,494 439,297 499,351 C 229,195 533,176 397,440 C 421,138 135,286 278,390 C 560,111 503,198 422,304 C 473,217 423,347 362,429 C 321,295 327,357 453,176 C 246,484 179,161 198,215 C 562,404 552,322 537,442 Z"></path>
<path stroke="#31a06b" stroke-width="3" fill="#ed2b2c" opacity="0.6397889896671991" stroke-opacity="0.07574874994273322" transform="rotate(-158.0 400 300)" d="M 504,191  C 682,387 539,111 131,157 C 588,216 506,364 182,484 C 488,110 155,232 515,134 C 681,192 490,204 468,465 Z"></path>
<path stroke="#ed2b2c" stroke-width="1" fill="#ed2b2c" opacity="0.29315375483687073" stroke-opacity="0.7956385384154835" transform="rotate(-141.0 400 300)" d="M 420,316  C 165,183 248,205 622,458 C 684,431 669,249 218,281 C 191,296 509,154 421,197 C 352,221 417,342 163,491 C 202,393 346,393 233,114 C 188,236 307,338 476,375 C 258,439 562,334 145,427 C 694,225 623,481 397,200 C 251,292 179,141 561,413 Z"></path>

  </g>
</svg>
