<svg xmlns="http://www.w3.org/2000/svg" xmlns:xlink="http://www.w3.org/1999/xlink" width="800" height="600" version="1.1" viewBox="0 0 800 600"><g fill="none" fill-rule="evenodd" stroke="none" stroke-width="1"><polygon fill="#ed2b2c" stroke="#f9d84b" stroke-opacity=".635" stroke-width="2" points="476 239 459 517 596 534 658 292 685 467 190 389 178 328" opacity=".354" transform="rotate(166.0 400 300)"/><path fill="#f9d84b" stroke="#31a06b" stroke-opacity=".886" stroke-width="2" d="M 210,479 C 393,263 533,187 561,286 C 655,173 400,258 474,303 C 559,109 509,251 582,317 C 308,206 108,230 325,478 C 351,250 689,124 447,399 C 292,169 157,157 158,447 Z" opacity=".744" transform="rotate(-23.0 400 300)"/><polygon fill="#f27630" stroke="#f9d84b" stroke-opacity=".54" stroke-width="1" points="496 110 133 462 392 566 333 587 616 270 785 319" opacity=".727" transform="rotate(-74.0 400 300)"/><rect width="378" height="181" x="777" y="438" fill="#f27630" stroke="#f9d84b" stroke-opacity=".324" stroke-width="6" opacity=".855" transform="rotate(-72.0 400 300)"/><rect width="203" height="154" x="7" y="197" fill="#f9d84b" stroke="#31a06b" stroke-opacity=".895" stroke-width="3" opacity=".537" transform="rotate(25.0 400 300)"/><rect width="251" height="93" x="657" y="474" fill="#31a06b" stroke="#ed2b2c" stroke-opacity=".604" stroke-width="2" opacity=".761" transform="rotate(-161.0 400 300)"/><polygon fill="#ed2b2c" stroke="#f9d84b" stroke-opacity=".972" stroke-width="5" points="411 597 214 486 260 133 70 127 652 1 75 132 570 461" opacity=".072" transform="rotate(0.0 400 300)"/><path fill="#2b55f7" stroke="#31a06b" stroke-opacity=".563" stroke-width="2" d="M 689,435 C 102,349 475,399 355,267 C 459,230 324,472 247,154 C 286,492 101,389 700,377 C 676,388 331,438 114,380 C 380,344 138,197 190,461 C 375,257 380,265 440,227 C 578,279 343,374 322,479 C 642,311 241,409 503,176 Z" opacity=".213" transform="rotate(46.0 400 300)"/></g></svg>