<?xml version="1.0" encoding="UTF-8"?>
<svg width="800px" height="600px" viewBox="0 0 800 600" version="1.1" xmlns="http://www.w3.org/2000/svg" xmlns:xlink="http://www.w3.org/1999/xlink">
  <defs></defs>
  <g stroke="none" stroke-width="1" fill="none" fill-rule="evenodd">
    
    <polygon stroke="#f9d84b" stroke-width="2" fill="#ed2b2c" opacity="0.35392849331741427" stroke-opacity="0.6350208906621702" transform="rotate(166.0 400 300)" points="476 239 459 517 596 534 658 292 685 467 190 389 178 328 "></polygon>
<path stroke="#31a06b" stroke-width="2" fill="#f9d84b" opacity="0.7443170470490557" stroke-opacity="0.8863674353794042" transform="rotate(-23.0 400 300)" d="M 210,479  C 393,263 533,187 561,286 C 655,173 400,258 474,303 C 559,109 509,251 582,317 C 308,206 108,230 325,478 C 351,250 689,124 447,399 C 292,169 157,157 158,447 Z"></path>
<polygon stroke="#f9d84b" stroke-width="1" fill="#f27630" opacity="0.7271062306711148" stroke-opacity="0.5404823470740215" transform="rotate(-74.0 400 300)" points="496 110 133 462 392 566 333 587 616 270 785 319 "></polygon>
<rect stroke="#f9d84b" stroke-width="6" fill="#f27630" opacity="0.8553815775231399" stroke-opacity="0.3238529909073722" transform="rotate(-72.0 400 300)" x="777" y="438" width="378" height="181"></rect>
<rect stroke="#31a06b" stroke-width="3" fill="#f9d84b" opacity="0.537293373804535" stroke-opacity="0.894826095897875" transform="rotate(25.0 400 300)" x="7" y="197" width="203" height="154"></rect>
<rect stroke="#ed2b2c" stroke-width="2" fill="#31a06b" opacity="0.7611261994137896" stroke-opacity="0.6042203032170376" transform="rotate(-161.0 400 300)" x="657" y="474" width="251" height="93"></rect>
<polygon stroke="#f9d84b" stroke-width="5" fill="#ed2b2c" opacity="0.0724327980442519" stroke-opacity="0.9723185974056983" transform="rotate(0.0 400 300)" points="411 597 214 486 260 133 70 127 652 1 75 132 570 461 "></polygon>
<path stroke="#31a06b" stroke-width="2" fill="#2b55f7" opacity="0.2129937178441557" stroke-opacity="0.5628590332723211" transform="rotate(46.0 400 300)" d="M 689,435  C 102,349 475,399 355,267 C 459,230 324,472 247,154 C 286,492 101,389 700,377 C 676,388 331,438 114,380 C 380,344 138,197 190,461 C 375,257 380,265 440,227 C 578,279 343,374 322,479 C 642,311 241,409 503,176 Z"></path>

  </g>
</svg>
