<?xml version="1.0" encoding="UTF-8"?>
<svg width="800px" height="600px" viewBox="0 0 800 600" version="1.1" xmlns="http://www.w3.org/2000/svg" xmlns:xlink="http://www.w3.org/1999/xlink">
  <defs></defs>
  <g stroke="none" stroke-width="1" fill="none" fill-rule="evenodd">
    
    <rect stroke="#56B106" stroke-width="1" fill="#3D69D3" opacity="0.27444522718192876" stroke-opacity="0.2617667967774345" transform="rotate(-82.0 400 300)" x="634" y="451" width="257" height="133"></rect>
<polygon stroke="#953443" stroke-width="3" fill="#82C9A0" opacity="0.944333042533263" stroke-opacity="0.28525619041008027" transform="rotate(87.0 400 300)" points="511 245 418 185 278 106 741 176 558 370 "></polygon>
<polygon stroke="#57C676" stroke-width="6" fill="#C64072" opacity="0.9116997273661916" stroke-opacity="0.063838159957928" transform="rotate(143.0 400 300)" points="311 296 494 90 340 85 499 1 226 80 377 189 503 284 390 491 "></polygon>
<rect stroke="#2B48BD" stroke-width="3" fill="#A63B17" opacity="0.2564980313547437" stroke-opacity="0.9459407762447967" transform="rotate(29.0 400 300)" x="296" y="65" width="151" height="349"></rect>
<polygon stroke="#D2854D" stroke-width="7" fill="#2A7192" opacity="0.8962083132557289" stroke-opacity="0.4634346881312912" transform="rotate(51.0 400 300)" points="148 423 158 225 737 595 448 317 411 407 418 373 408 30 554 80 "></polygon>
<rect stroke="#B865A7" stroke-width="7" fill="#95DD54" opacity="0.36080834431518244" stroke-opacity="0.8078489882094412" transform="rotate(148.0 400 300)" x="275" y="581" width="205" height="384"></rect>
<path stroke="#3C3077" stroke-width="2" fill="#0D7608" opacity="0.6925739855604389" stroke-opacity="0.4717950812621528" transform="rotate(-79.0 400 300)" d="M 208,358  C 267,270 551,463 423,442 C 449,121 196,307 542,112 C 288,271 446,163 278,361 C 648,177 685,235 502,469 C 300,145 581,385 561,354 C 415,344 549,163 182,202 C 646,237 143,115 359,219 C 391,301 608,302 195,490 C 555,470 590,298 134,189 Z"></path>
<path stroke="#8C0D70" stroke-width="3" fill="#DBBCC5" opacity="0.5089294284064505" stroke-opacity="0.2154074370839036" transform="rotate(-175.0 400 300)" d="M 687,417  C 685,457 443,466 448,430 C 610,373 193,399 244,350 C 161,355 431,296 180,120 C 579,139 414,212 225,276 C 384,314 390,243 497,193 Z"></path>
<path stroke="#6014D3" stroke-width="1" fill="#A301D0" opacity="0.8902406677782211" stroke-opacity="0.512457302870628" transform="rotate(51.0 400 300)" d="M 376,112  C 513,245 524,156 376,153 C 605,201 626,441 587,459 C 121,410 188,470 402,464 C 358,208 278,301 350,168 C 352,488 551,273 467,259 C 276,465 314,110 700,492 C 377,277 579,437 382,408 C 609,253 318,223 455,274 C 486,173 474,323 204,356 Z"></path>
<path stroke="#402985" stroke-width="5" fill="#2A0B6C" opacity="0.2391704040365999" stroke-opacity="0.6814003131672863" transform="rotate(177.0 400 300)" d="M 281,130  C 634,285 600,204 295,120 C 424,202 422,233 595,406 C 561,452 622,160 106,263 C 463,319 130,193 349,231 Z"></path>
<polygon stroke="#DD748A" stroke-width="6" fill="#696149" opacity="0.6823984974103836" stroke-opacity="0.33500485445962747" transform="rotate(-97.0 400 300)" points="107 400 231 188 393 375 633 124 32 361 398 143 547 209 401 107 "></polygon>

  </g>
</svg>
