<svg xmlns="http://www.w3.org/2000/svg" xmlns:xlink="http://www.w3.org/1999/xlink" width="800" height="600" version="1.1" viewBox="0 0 800 600"><g fill="none" fill-rule="evenodd" stroke="none" stroke-width="1"><rect width="257" height="133" x="634" y="451" fill="#3D69D3" stroke="#56B106" stroke-opacity=".262" stroke-width="1" opacity=".274" transform="rotate(-82.0 400 300)"/><polygon fill="#82C9A0" stroke="#953443" stroke-opacity=".285" stroke-width="3" points="511 245 418 185 278 106 741 176 558 370" opacity=".944" transform="rotate(87.0 400 300)"/><polygon fill="#C64072" stroke="#57C676" stroke-opacity=".064" stroke-width="6" points="311 296 494 90 340 85 499 1 226 80 377 189 503 284 390 491" opacity=".912" transform="rotate(143.0 400 300)"/><rect width="151" height="349" x="296" y="65" fill="#A63B17" stroke="#2B48BD" stroke-opacity=".946" stroke-width="3" opacity=".256" transform="rotate(29.0 400 300)"/><polygon fill="#2A7192" stroke="#D2854D" stroke-opacity=".463" stroke-width="7" points="148 423 158 225 737 595 448 317 411 407 418 373 408 30 554 80" opacity=".896" transform="rotate(51.0 400 300)"/><rect width="205" height="384" x="275" y="581" fill="#95DD54" stroke="#B865A7" stroke-opacity=".808" stroke-width="7" opacity=".361" transform="rotate(148.0 400 300)"/><path fill="#0D7608" stroke="#3C3077" stroke-opacity=".472" stroke-width="2" d="M 208,358 C 267,270 551,463 423,442 C 449,121 196,307 542,112 C 288,271 446,163 278,361 C 648,177 685,235 502,469 C 300,145 581,385 561,354 C 415,344 549,163 182,202 C 646,237 143,115 359,219 C 391,301 608,302 195,490 C 555,470 590,298 134,189 Z" opacity=".693" transform="rotate(-79.0 400 300)"/><path fill="#DBBCC5" stroke="#8C0D70" stroke-opacity=".215" stroke-width="3" d="M 687,417 C 685,457 443,466 448,430 C 610,373 193,399 244,350 C 161,355 431,296 180,120 C 579,139 414,212 225,276 C 384,314 390,243 497,193 Z" opacity=".509" transform="rotate(-175.0 400 300)"/><path fill="#A301D0" stroke="#6014D3" stroke-opacity=".512" stroke-width="1" d="M 376,112 C 513,245 524,156 376,153 C 605,201 626,441 587,459 C 121,410 188,470 402,464 C 358,208 278,301 350,168 C 352,488 551,273 467,259 C 276,465 314,110 700,492 C 377,277 579,437 382,408 C 609,253 318,223 455,274 C 486,173 474,323 204,356 Z" opacity=".89" transform="rotate(51.0 400 300)"/><path fill="#2A0B6C" stroke="#402985" stroke-opacity=".681" stroke-width="5" d="M 281,130 C 634,285 600,204 295,120 C 424,202 422,233 595,406 C 561,452 622,160 106,263 C 463,319 130,193 349,231 Z" opacity=".239" transform="rotate(177.0 400 300)"/><polygon fill="#696149" stroke="#DD748A" stroke-opacity=".335" stroke-width="6" points="107 400 231 188 393 375 633 124 32 361 398 143 547 209 401 107" opacity=".682" transform="rotate(-97.0 400 300)"/></g></svg>