<?xml version="1.0" encoding="UTF-8"?>
<svg width="800px" height="600px" viewBox="0 0 800 600" version="1.1" xmlns="http://www.w3.org/2000/svg" xmlns:xlink="http://www.w3.org/1999/xlink">
  <defs></defs>
  <g stroke="none" stroke-width="1" fill="none" fill-rule="evenodd">
    
    <ellipse stroke="#f9d84b" stroke-width="2" fill="#31a06b" opacity="0.2675822096914483" stroke-opacity="0.9428487038692948" transform="rotate(73.0 400 300)" cx="519" rx="212" cy="530" ry="294"></ellipse>
<path stroke="#2b55f7" stroke-width="4" fill="#f27630" opacity="0.7554091609676115" stroke-opacity="0.3404694480490459" transform="rotate(-21.0 400 300)" d="M 380,346  C 139,340 697,337 338,449 C 260,484 137,131 554,208 C 505,136 600,208 576,375 C 598,340 325,423 635,283 C 262,399 183,447 664,477 C 327,237 628,263 667,417 C 537,411 228,499 700,375 C 343,208 657,367 338,351 C 541,204 388,426 294,420 Z"></path>
<ellipse stroke="#2b55f7" stroke-width="3" fill="#f27630" opacity="0.06924424054881062" stroke-opacity="0.9195290654619815" transform="rotate(-127.0 400 300)" cx="405" rx="97" cy="2" ry="44"></ellipse>
<polygon stroke="#31a06b" stroke-width="4" fill="#ed2b2c" opacity="0.4483149098681938" stroke-opacity="0.1723671428034899" transform="rotate(-160.0 400 300)" points="541 348 747 72 23 351 393 442 639 303 524 593 579 16 264 169 "></polygon>
<path stroke="#f27630" stroke-width="4" fill="#ed2b2c" opacity="0.015728606533883596" stroke-opacity="0.6825895851867197" transform="rotate(129.0 400 300)" d="M 153,435  C 330,389 655,341 447,158 C 225,211 412,101 221,248 C 338,210 578,355 457,455 C 271,445 299,415 634,221 C 700,330 615,403 693,112 C 576,148 655,104 610,410 C 202,210 642,324 367,410 C 546,121 431,200 246,312 C 154,268 364,264 351,481 C 696,400 477,478 359,323 C 518,403 236,282 658,150 Z"></path>
<path stroke="#f9d84b" stroke-width="7" fill="#2b55f7" opacity="0.2719829316625346" stroke-opacity="0.5969647015504232" transform="rotate(126.0 400 300)" d="M 608,424  C 438,202 570,154 604,435 C 684,281 443,325 377,295 C 672,176 293,427 500,217 C 550,320 500,385 183,496 C 242,106 385,471 234,354 C 643,372 127,124 377,132 Z"></path>
<rect stroke="#ed2b2c" stroke-width="2" fill="#f27630" opacity="0.7234287380228261" stroke-opacity="0.0998776599069545" transform="rotate(-168.0 400 300)" x="299" y="437" width="327" height="110"></rect>
<rect stroke="#f27630" stroke-width="2" fill="#2b55f7" opacity="0.6220051293500307" stroke-opacity="0.6017292178395963" transform="rotate(-113.0 400 300)" x="359" y="242" width="113" height="158"></rect>
<rect stroke="#f9d84b" stroke-width="6" fill="#ed2b2c" opacity="0.5095397801901109" stroke-opacity="0.95130353291516" transform="rotate(-101.0 400 300)" x="756" y="160" width="320" height="45"></rect>

  </g>
</svg>
