<svg xmlns="http://www.w3.org/2000/svg" xmlns:xlink="http://www.w3.org/1999/xlink" width="800" height="600" version="1.1" viewBox="0 0 800 600"><g fill="none" fill-rule="evenodd" stroke="none" stroke-width="1"><ellipse cx="519" cy="530" fill="#31a06b" stroke="#f9d84b" stroke-opacity=".943" stroke-width="2" opacity=".268" rx="212" ry="294" transform="rotate(73.0 400 300)"/><path fill="#f27630" stroke="#2b55f7" stroke-opacity=".34" stroke-width="4" d="M 380,346 C 139,340 697,337 338,449 C 260,484 137,131 554,208 C 505,136 600,208 576,375 C 598,340 325,423 635,283 C 262,399 183,447 664,477 C 327,237 628,263 667,417 C 537,411 228,499 700,375 C 343,208 657,367 338,351 C 541,204 388,426 294,420 Z" opacity=".755" transform="rotate(-21.0 400 300)"/><ellipse cx="405" cy="2" fill="#f27630" stroke="#2b55f7" stroke-opacity=".92" stroke-width="3" opacity=".069" rx="97" ry="44" transform="rotate(-127.0 400 300)"/><polygon fill="#ed2b2c" stroke="#31a06b" stroke-opacity=".172" stroke-width="4" points="541 348 747 72 23 351 393 442 639 303 524 593 579 16 264 169" opacity=".448" transform="rotate(-160.0 400 300)"/><path fill="#ed2b2c" stroke="#f27630" stroke-opacity=".683" stroke-width="4" d="M 153,435 C 330,389 655,341 447,158 C 225,211 412,101 221,248 C 338,210 578,355 457,455 C 271,445 299,415 634,221 C 700,330 615,403 693,112 C 576,148 655,104 610,410 C 202,210 642,324 367,410 C 546,121 431,200 246,312 C 154,268 364,264 351,481 C 696,400 477,478 359,323 C 518,403 236,282 658,150 Z" opacity=".016" transform="rotate(129.0 400 300)"/><path fill="#2b55f7" stroke="#f9d84b" stroke-opacity=".597" stroke-width="7" d="M 608,424 C 438,202 570,154 604,435 C 684,281 443,325 377,295 C 672,176 293,427 500,217 C 550,320 500,385 183,496 C 242,106 385,471 234,354 C 643,372 127,124 377,132 Z" opacity=".272" transform="rotate(126.0 400 300)"/><rect width="327" height="110" x="299" y="437" fill="#f27630" stroke="#ed2b2c" stroke-opacity=".1" stroke-width="2" opacity=".723" transform="rotate(-168.0 400 300)"/><rect width="113" height="158" x="359" y="242" fill="#2b55f7" stroke="#f27630" stroke-opacity=".602" stroke-width="2" opacity=".622" transform="rotate(-113.0 400 300)"/><rect width="320" height="45" x="756" y="160" fill="#ed2b2c" stroke="#f9d84b" stroke-opacity=".951" stroke-width="6" opacity=".51" transform="rotate(-101.0 400 300)"/></g></svg>