<svg xmlns="http://www.w3.org/2000/svg" xmlns:xlink="http://www.w3.org/1999/xlink" width="800" height="600" version="1.1" viewBox="0 0 800 600"><g fill="none" fill-rule="evenodd" stroke="none" stroke-width="1"><path fill="#92D993" stroke="#6B0505" stroke-opacity=".863" stroke-width="7" d="M 577,459 C 191,121 240,133 176,192 C 411,427 695,375 380,461 C 417,185 272,153 235,123 C 385,382 152,423 133,402 C 304,471 613,211 328,476 C 429,232 200,357 241,468 C 339,189 398,249 452,453 C 565,160 239,407 157,160 C 284,290 190,218 393,448 C 154,203 251,142 422,393 Z" opacity=".31" transform="rotate(-161.0 400 300)"/><polygon fill="#874B16" stroke="#A307BB" stroke-opacity=".673" stroke-width="1" points="164 563 613 54 634 458 608 600 516 21 472 150 727 273 486 212" opacity=".186" transform="rotate(-125.0 400 300)"/><polygon fill="#125D74" stroke="#279725" stroke-opacity=".568" stroke-width="4" points="18 497 445 575 370 306 767 507 334 359 787 400" opacity=".797" transform="rotate(-51.0 400 300)"/><path fill="#D27016" stroke="#002350" stroke-opacity=".384" stroke-width="5" d="M 113,117 C 434,112 436,200 236,441 C 351,130 278,159 369,108 C 322,155 492,140 698,331 C 480,367 209,149 471,377 Z" opacity=".031" transform="rotate(54.0 400 300)"/><rect width="232" height="359" x="425" y="512" fill="#D590A5" stroke="#6794B1" stroke-opacity=".273" stroke-width="4" opacity=".536" transform="rotate(-17.0 400 300)"/><polygon fill="#0C5112" stroke="#28D1A1" stroke-opacity=".072" stroke-width="6" points="413 139 603 438 174 157 249 118 598 442 161 82" opacity=".281" transform="rotate(-87.0 400 300)"/><polygon fill="#650578" stroke="#A21275" stroke-opacity=".169" stroke-width="5" points="452 328 708 557 275 356 278 564 262 216 463 483" opacity=".416" transform="rotate(-73.0 400 300)"/></g></svg>