<svg xmlns="http://www.w3.org/2000/svg" xmlns:xlink="http://www.w3.org/1999/xlink" width="800" height="600" version="1.1" viewBox="0 0 800 600"><g fill="none" fill-rule="evenodd" stroke="none" stroke-width="1"><path fill="#31a06b" stroke="#31a06b" stroke-opacity=".493" stroke-width="1" d="M 291,256 C 518,148 685,262 260,240 C 322,351 233,333 635,446 C 434,435 289,429 649,331 C 395,377 179,495 401,346 C 364,121 526,376 456,292 C 113,482 336,126 481,276 C 293,319 489,276 229,313 C 578,487 397,364 696,399 Z" opacity=".063" transform="rotate(60.0 400 300)"/><rect width="321" height="97" x="180" y="391" fill="#2b55f7" stroke="#31a06b" stroke-opacity=".237" stroke-width="1" opacity=".33" transform="rotate(-132.0 400 300)"/><path fill="#31a06b" stroke="#2b55f7" stroke-opacity=".658" stroke-width="4" d="M 446,200 C 249,422 621,184 131,198 C 382,412 300,406 426,193 C 696,112 217,389 435,171 C 507,435 156,112 119,483 C 476,441 454,354 209,307 C 218,187 441,338 198,364 C 425,122 207,316 588,106 Z" opacity=".232" transform="rotate(122.0 400 300)"/><polygon fill="#f9d84b" stroke="#f9d84b" stroke-opacity=".998" stroke-width="7" points="503 539 62 41 410 316 384 496 75 394 191 190 782 186 139 467" opacity=".022" transform="rotate(84.0 400 300)"/><rect width="239" height="96" x="622" y="167" fill="#31a06b" stroke="#2b55f7" stroke-opacity=".748" stroke-width="3" opacity=".917" transform="rotate(94.0 400 300)"/><path fill="#31a06b" stroke="#ed2b2c" stroke-opacity=".373" stroke-width="5" d="M 104,362 C 605,457 479,444 226,143 C 647,318 535,191 177,238 C 666,325 514,439 594,224 C 367,189 286,283 454,185 C 583,314 528,431 192,113 C 600,206 694,364 647,290 C 582,399 333,311 350,122 C 110,468 271,377 266,327 C 629,470 641,450 699,173 Z" opacity=".258" transform="rotate(50.0 400 300)"/><rect width="258" height="356" x="65" y="155" fill="#f27630" stroke="#31a06b" stroke-opacity=".752" stroke-width="1" opacity=".858" transform="rotate(-70.0 400 300)"/><ellipse cx="645" cy="377" fill="#ed2b2c" stroke="#ed2b2c" stroke-opacity=".256" stroke-width="2" opacity=".811" rx="132" ry="102" transform="rotate(91.0 400 300)"/></g></svg>