<svg xmlns="http://www.w3.org/2000/svg" xmlns:xlink="http://www.w3.org/1999/xlink" width="800" height="600" version="1.1" viewBox="0 0 800 600"><g fill="none" fill-rule="evenodd" stroke="none" stroke-width="1"><path fill="#2b55f7" stroke="#f9d84b" stroke-opacity=".81" stroke-width="5" d="M 363,290 C 348,238 251,373 462,294 C 678,358 137,102 596,415 C 217,169 524,119 437,176 C 509,263 112,474 694,351 C 301,281 279,425 101,102 C 250,226 340,207 494,211 Z" opacity=".619" transform="rotate(-96.0 400 300)"/><rect width="24" height="253" x="722" y="87" fill="#2b55f7" stroke="#f9d84b" stroke-opacity=".834" stroke-width="3" opacity=".887" transform="rotate(121.0 400 300)"/><ellipse cx="97" cy="18" fill="#ed2b2c" stroke="#f27630" stroke-opacity=".204" stroke-width="2" opacity=".919" rx="271" ry="169" transform="rotate(-1.0 400 300)"/><path fill="#2b55f7" stroke="#2b55f7" stroke-opacity=".938" stroke-width="6" d="M 122,490 C 578,350 280,428 123,473 C 244,357 468,279 400,375 C 632,191 529,221 234,285 C 570,303 152,314 405,262 C 688,198 517,109 555,102 C 249,430 268,209 165,366 C 499,167 499,330 263,375 C 488,375 551,146 244,140 Z" opacity=".143" transform="rotate(-136.0 400 300)"/><polygon fill="#f9d84b" stroke="#f27630" stroke-opacity=".045" stroke-width="7" points="552 209 489 155 529 311 404 533 134 459" opacity=".573" transform="rotate(-52.0 400 300)"/><path fill="#f27630" stroke="#2b55f7" stroke-opacity=".295" stroke-width="3" d="M 627,328 C 340,166 259,389 245,297 C 350,323 520,127 361,137 C 441,476 170,481 481,305 C 367,357 538,280 612,371 C 348,290 415,447 328,307 C 631,287 135,390 277,496 C 685,257 643,473 691,297 C 605,406 128,201 566,134 C 686,394 571,225 413,204 Z" opacity=".791" transform="rotate(3.0 400 300)"/><ellipse cx="539" cy="468" fill="#31a06b" stroke="#f27630" stroke-opacity=".651" stroke-width="2" opacity=".793" rx="450" ry="32" transform="rotate(92.0 400 300)"/><ellipse cx="784" cy="193" fill="#f9d84b" stroke="#f27630" stroke-opacity=".329" stroke-width="3" opacity=".374" rx="193" ry="311" transform="rotate(-146.0 400 300)"/></g></svg>