<?xml version="1.0" encoding="UTF-8"?>
<svg width="800px" height="600px" viewBox="0 0 800 600" version="1.1" xmlns="http://www.w3.org/2000/svg" xmlns:xlink="http://www.w3.org/1999/xlink">
  <defs></defs>
  <g stroke="none" stroke-width="1" fill="none" fill-rule="evenodd">
    
    <path stroke="#f9d84b" stroke-width="5" fill="#2b55f7" opacity="0.6191477351465318" stroke-opacity="0.8101760282360658" transform="rotate(-96.0 400 300)" d="M 363,290  C 348,238 251,373 462,294 C 678,358 137,102 596,415 C 217,169 524,119 437,176 C 509,263 112,474 694,351 C 301,281 279,425 101,102 C 250,226 340,207 494,211 Z"></path>
<rect stroke="#f9d84b" stroke-width="3" fill="#2b55f7" opacity="0.8870851849292609" stroke-opacity="0.8336777491779035" transform="rotate(121.0 400 300)" x="722" y="87" width="24" height="253"></rect>
<ellipse stroke="#f27630" stroke-width="2" fill="#ed2b2c" opacity="0.9189209872610589" stroke-opacity="0.20416232849301158" transform="rotate(-1.0 400 300)" cx="97" rx="271" cy="18" ry="169"></ellipse>
<path stroke="#2b55f7" stroke-width="6" fill="#2b55f7" opacity="0.1433103179393009" stroke-opacity="0.9378969171297288" transform="rotate(-136.0 400 300)" d="M 122,490  C 578,350 280,428 123,473 C 244,357 468,279 400,375 C 632,191 529,221 234,285 C 570,303 152,314 405,262 C 688,198 517,109 555,102 C 249,430 268,209 165,366 C 499,167 499,330 263,375 C 488,375 551,146 244,140 Z"></path>
<polygon stroke="#f27630" stroke-width="7" fill="#f9d84b" opacity="0.5728072121117906" stroke-opacity="0.04461461488292282" transform="rotate(-52.0 400 300)" points="552 209 489 155 529 311 404 533 134 459 "></polygon>
<path stroke="#2b55f7" stroke-width="3" fill="#f27630" opacity="0.7907994579171511" stroke-opacity="0.2951139025531736" transform="rotate(3.0 400 300)" d="M 627,328  C 340,166 259,389 245,297 C 350,323 520,127 361,137 C 441,476 170,481 481,305 C 367,357 538,280 612,371 C 348,290 415,447 328,307 C 631,287 135,390 277,496 C 685,257 643,473 691,297 C 605,406 128,201 566,134 C 686,394 571,225 413,204 Z"></path>
<ellipse stroke="#f27630" stroke-width="2" fill="#31a06b" opacity="0.7928148184035934" stroke-opacity="0.6514038290564743" transform="rotate(92.0 400 300)" cx="539" rx="450" cy="468" ry="32"></ellipse>
<ellipse stroke="#f27630" stroke-width="3" fill="#f9d84b" opacity="0.37419649320652376" stroke-opacity="0.3290326246413562" transform="rotate(-146.0 400 300)" cx="784" rx="193" cy="193" ry="311"></ellipse>

  </g>
</svg>
