<svg xmlns="http://www.w3.org/2000/svg" xmlns:xlink="http://www.w3.org/1999/xlink" width="800" height="600" version="1.1" viewBox="0 0 800 600"><g fill="none" fill-rule="evenodd" stroke="none" stroke-width="1"><path fill="#6D572C" stroke="#3A953D" stroke-opacity=".203" stroke-width="4" d="M 269,380 C 476,256 601,188 555,434 C 561,440 371,255 159,143 C 245,401 503,474 498,317 C 184,317 241,101 122,332 C 217,229 457,136 495,243 C 422,415 482,185 317,130 C 522,498 498,234 632,150 C 510,235 347,350 185,237 Z" opacity=".387" transform="rotate(104.0 400 300)"/><path fill="#401877" stroke="#387679" stroke-opacity=".999" stroke-width="4" d="M 502,364 C 209,327 163,109 419,413 C 659,112 316,454 216,474 C 143,125 267,420 362,306 C 290,408 592,466 292,190 C 130,374 463,230 139,214 C 611,450 169,365 577,119 C 375,328 563,171 296,297 C 499,349 334,309 640,143 Z" opacity=".286" transform="rotate(179.0 400 300)"/><path fill="#74BD7C" stroke="#822783" stroke-opacity=".534" stroke-width="6" d="M 284,146 C 554,286 541,380 491,189 C 464,135 596,264 429,258 C 464,217 510,440 272,467 C 672,278 318,491 213,337 C 606,434 456,159 374,371 Z" opacity=".378" transform="rotate(-19.0 400 300)"/><path fill="#583DC6" stroke="#4775D9" stroke-opacity=".628" stroke-width="6" d="M 360,282 C 597,165 438,124 336,484 C 605,389 260,288 526,217 C 125,370 197,438 283,219 C 696,111 307,274 435,195 Z" opacity=".602" transform="rotate(-23.0 400 300)"/><path fill="#B13C43" stroke="#CB8B00" stroke-opacity=".168" stroke-width="3" d="M 274,310 C 609,213 516,298 682,318 C 256,139 521,116 344,293 C 566,209 337,423 608,477 C 120,343 381,175 366,395 C 161,388 135,397 221,500 C 270,421 651,201 598,288 C 241,160 374,124 213,233 C 663,376 484,361 157,261 Z" opacity=".36" transform="rotate(8.0 400 300)"/><path fill="#DDB728" stroke="#BD5996" stroke-opacity=".02" stroke-width="2" d="M 247,252 C 699,292 346,193 682,395 C 469,118 508,178 300,393 C 111,361 694,300 291,359 C 248,105 479,377 361,223 C 626,247 589,110 424,415 C 134,487 571,269 650,388 C 337,296 278,215 686,376 C 676,417 533,273 104,166 Z" opacity=".915" transform="rotate(43.0 400 300)"/><path fill="#5AC097" stroke="#3D6BB5" stroke-opacity=".236" stroke-width="2" d="M 183,379 C 657,371 633,125 167,267 C 506,108 204,119 624,343 C 629,457 484,408 268,155 C 235,491 217,101 491,208 C 424,263 688,335 544,299 C 381,167 442,473 395,124 C 428,446 491,146 124,108 C 550,417 237,354 648,455 C 649,411 640,474 265,269 C 487,409 650,368 542,231 Z" opacity=".797" transform="rotate(-130.0 400 300)"/></g></svg>