<svg xmlns="http://www.w3.org/2000/svg" xmlns:xlink="http://www.w3.org/1999/xlink" width="800" height="600" version="1.1" viewBox="0 0 800 600"><g fill="none" fill-rule="evenodd" stroke="none" stroke-width="1"><path fill="#2b55f7" stroke="#f9d84b" stroke-opacity=".352" stroke-width="1" d="M 113,139 C 653,309 599,270 646,301 C 256,314 481,352 291,131 C 112,214 322,105 616,165 C 540,462 126,281 490,454 Z" opacity=".297" transform="rotate(28.0 400 300)"/><path fill="#ed2b2c" stroke="#2b55f7" stroke-opacity=".093" stroke-width="3" d="M 364,471 C 377,170 637,316 276,381 C 353,304 650,218 363,490 C 237,386 580,350 667,354 C 351,161 630,350 108,187 C 395,455 348,114 387,336 C 461,150 220,473 562,303 C 547,247 685,439 467,387 C 375,491 645,241 334,356 C 330,127 641,368 406,364 Z" opacity=".343" transform="rotate(-125.0 400 300)"/><path fill="#2b55f7" stroke="#f27630" stroke-opacity=".439" stroke-width="5" d="M 391,467 C 513,138 155,257 143,186 C 297,263 609,281 198,384 C 207,355 440,208 552,296 C 119,491 609,267 411,166 C 373,396 453,251 151,457 C 619,274 384,323 286,426 C 308,235 618,241 571,205 C 654,270 569,339 613,269 Z" opacity=".221" transform="rotate(-158.0 400 300)"/><path fill="#31a06b" stroke="#f9d84b" stroke-opacity=".012" stroke-width="2" d="M 678,368 C 235,483 673,185 364,202 C 331,415 159,184 239,383 C 105,438 456,477 612,439 C 189,271 270,169 158,153 C 355,483 437,237 439,376 Z" opacity=".005" transform="rotate(75.0 400 300)"/><path fill="#f27630" stroke="#f9d84b" stroke-opacity=".6" stroke-width="3" d="M 217,409 C 530,379 224,287 200,173 C 500,170 311,423 534,473 C 121,260 400,141 629,312 C 338,172 346,297 348,400 C 298,221 357,134 459,279 C 697,362 590,329 169,308 C 220,350 579,309 111,416 C 570,420 612,488 152,171 Z" opacity=".464" transform="rotate(-4.0 400 300)"/><path fill="#ed2b2c" stroke="#31a06b" stroke-opacity=".388" stroke-width="5" d="M 377,215 C 412,413 140,387 682,476 C 664,404 290,413 361,258 C 240,260 101,295 516,125 C 397,146 645,486 534,280 C 536,428 172,462 385,229 Z" opacity=".325" transform="rotate(-69.0 400 300)"/><path fill="#2b55f7" stroke="#31a06b" stroke-opacity=".867" stroke-width="1" d="M 679,397 C 555,376 120,388 413,433 C 659,431 141,420 598,275 C 547,140 305,160 336,273 C 487,318 227,152 409,284 C 249,467 363,148 479,369 Z" opacity=".634" transform="rotate(174.0 400 300)"/><path fill="#f9d84b" stroke="#2b55f7" stroke-opacity=".508" stroke-width="2" d="M 549,498 C 519,477 158,206 452,177 C 528,162 194,367 673,331 C 252,133 631,180 323,445 C 272,167 403,337 464,216 C 201,364 691,411 304,286 C 580,352 160,155 589,107 C 293,362 165,454 365,191 C 452,437 134,111 574,327 Z" opacity=".909" transform="rotate(-103.0 400 300)"/><path fill="#31a06b" stroke="#ed2b2c" stroke-opacity=".459" stroke-width="2" d="M 455,385 C 305,259 264,400 379,195 C 658,498 288,172 357,290 C 123,391 671,174 408,174 C 333,442 196,448 670,458 C 526,253 210,136 241,260 C 216,479 219,419 149,140 C 548,296 588,459 452,299 C 280,442 164,362 332,183 C 211,237 575,349 539,305 C 386,148 463,421 176,222 Z" opacity=".579" transform="rotate(-160.0 400 300)"/><path fill="#f27630" stroke="#f9d84b" stroke-opacity=".887" stroke-width="4" d="M 407,298 C 289,276 558,347 440,302 C 178,415 226,105 145,122 C 247,150 577,359 120,321 C 384,177 436,206 618,430 C 126,231 160,233 487,186 C 109,479 219,253 193,216 C 356,153 614,434 347,195 C 432,478 364,295 120,151 C 605,287 595,160 360,333 Z" opacity=".339" transform="rotate(-88.0 400 300)"/></g></svg>