<svg xmlns="http://www.w3.org/2000/svg" xmlns:xlink="http://www.w3.org/1999/xlink" width="800" height="600" version="1.1" viewBox="0 0 800 600"><g fill="none" fill-rule="evenodd" stroke="none" stroke-width="1"><ellipse cx="393" cy="513" fill="#04B9C0" stroke="#1DD77B" stroke-opacity=".047" stroke-width="6" opacity=".431" rx="411" ry="81" transform="rotate(-130.0 400 300)"/><ellipse cx="552" cy="470" fill="#629A56" stroke="#0892A2" stroke-opacity=".835" stroke-width="1" opacity=".508" rx="301" ry="43" transform="rotate(-33.0 400 300)"/><path fill="#1C7971" stroke="#636208" stroke-opacity=".384" stroke-width="6" d="M 360,142 C 337,315 345,276 168,364 C 140,370 188,235 496,179 C 121,434 292,404 372,135 C 221,136 342,194 541,191 C 242,350 558,465 519,340 C 573,431 175,376 503,225 C 183,253 290,182 242,218 C 658,267 420,272 220,376 Z" opacity=".996" transform="rotate(92.0 400 300)"/><polygon fill="#2C92A4" stroke="#811990" stroke-opacity=".981" stroke-width="6" points="274 587 608 427 799 228 761 342 43 161 351 137 549 428" opacity=".011" transform="rotate(-13.0 400 300)"/><polygon fill="#BD0A46" stroke="#C30A53" stroke-opacity=".173" stroke-width="4" points="39 275 395 77 526 198 102 335 319 403 541 495" opacity=".644" transform="rotate(-79.0 400 300)"/><rect width="84" height="185" x="412" y="430" fill="#737238" stroke="#8A6894" stroke-opacity=".144" stroke-width="3" opacity=".516" transform="rotate(135.0 400 300)"/><rect width="25" height="62" x="759" y="403" fill="#57DD76" stroke="#C345D3" stroke-opacity=".972" stroke-width="2" opacity=".509" transform="rotate(3.0 400 300)"/><rect width="302" height="158" x="272" y="333" fill="#890BD7" stroke="#062100" stroke-opacity=".004" stroke-width="6" opacity=".891" transform="rotate(-116.0 400 300)"/><rect width="364" height="285" x="436" y="456" fill="#535039" stroke="#B36337" stroke-opacity=".647" stroke-width="7" opacity=".508" transform="rotate(25.0 400 300)"/><ellipse cx="180" cy="318" fill="#D4DA38" stroke="#A6B0B1" stroke-opacity=".753" stroke-width="2" opacity=".832" rx="136" ry="184" transform="rotate(111.0 400 300)"/></g></svg>