<svg xmlns="http://www.w3.org/2000/svg" xmlns:xlink="http://www.w3.org/1999/xlink" width="800" height="600" version="1.1" viewBox="0 0 800 600"><g fill="none" fill-rule="evenodd" stroke="none" stroke-width="1"><ellipse cx="798" cy="379" fill="#ed2b2c" stroke="#31a06b" stroke-opacity=".56" stroke-width="6" opacity=".77" rx="336" ry="317" transform="rotate(-116.0 400 300)"/><ellipse cx="158" cy="499" fill="#f9d84b" stroke="#ed2b2c" stroke-opacity=".312" stroke-width="5" opacity=".055" rx="221" ry="205" transform="rotate(164.0 400 300)"/><ellipse cx="41" cy="202" fill="#2b55f7" stroke="#31a06b" stroke-opacity=".589" stroke-width="1" opacity=".927" rx="402" ry="259" transform="rotate(173.0 400 300)"/><polygon fill="#f9d84b" stroke="#ed2b2c" stroke-opacity=".771" stroke-width="3" points="454 510 680 25 770 266 313 364 537 41 3 169" opacity=".714" transform="rotate(120.0 400 300)"/><path fill="#f27630" stroke="#f9d84b" stroke-opacity=".975" stroke-width="2" d="M 181,353 C 258,383 625,267 449,351 C 355,154 288,377 245,391 C 654,285 196,390 175,379 C 220,473 522,422 189,500 C 362,359 206,164 360,274 C 281,452 120,129 664,134 C 163,437 549,126 507,215 Z" opacity=".393" transform="rotate(87.0 400 300)"/><rect width="161" height="128" x="23" y="366" fill="#f27630" stroke="#2b55f7" stroke-opacity=".828" stroke-width="3" opacity=".464" transform="rotate(5.0 400 300)"/></g></svg>