<?xml version="1.0" encoding="UTF-8"?>
<svg width="800px" height="600px" viewBox="0 0 800 600" version="1.1" xmlns="http://www.w3.org/2000/svg" xmlns:xlink="http://www.w3.org/1999/xlink">
  <defs></defs>
  <g stroke="none" stroke-width="1" fill="none" fill-rule="evenodd">
    
    <path stroke="#00DCC8" stroke-width="7" fill="#009598" opacity="0.0890333655285349" stroke-opacity="0.4180954306436533" transform="rotate(133.0 400 300)" d="M 462,121  C 646,176 302,339 589,292 C 327,263 105,123 415,179 C 584,228 596,222 436,330 C 425,452 685,487 486,385 C 122,362 549,246 173,434 C 405,308 295,231 152,159 C 525,380 148,381 228,468 C 570,411 690,307 165,195 C 467,467 268,237 120,298 C 687,261 207,135 120,259 Z"></path>
<path stroke="#BA936C" stroke-width="1" fill="#7A9244" opacity="0.4669832493464735" stroke-opacity="0.5240604027278577" transform="rotate(-135.0 400 300)" d="M 583,124  C 509,147 175,316 637,359 C 450,162 324,450 441,320 C 123,345 663,447 273,178 C 594,146 122,242 345,342 C 287,343 650,424 530,245 C 185,385 534,366 700,352 C 346,463 244,414 479,369 C 319,271 166,129 619,301 C 133,301 262,131 357,318 C 554,344 599,457 608,470 C 327,214 335,202 649,353 Z"></path>
<path stroke="#AD2A72" stroke-width="1" fill="#D33497" opacity="0.2924383028974734" stroke-opacity="0.5183271454697924" transform="rotate(-11.0 400 300)" d="M 258,388  C 612,388 677,427 564,314 C 217,136 453,103 380,206 C 379,355 633,229 368,317 C 627,411 258,335 700,276 C 307,384 374,499 148,129 Z"></path>
<path stroke="#8CA6C7" stroke-width="3" fill="#AA8186" opacity="0.349757850004999" stroke-opacity="0.8561877628707817" transform="rotate(-57.0 400 300)" d="M 691,254  C 273,178 440,498 139,409 C 229,249 463,418 365,456 C 698,357 497,423 368,413 C 106,249 328,288 564,193 C 484,249 531,339 508,396 C 645,319 509,395 124,335 C 347,106 697,375 365,291 Z"></path>
<path stroke="#09BDD1" stroke-width="6" fill="#C88591" opacity="0.7346763438136984" stroke-opacity="0.27074087608822867" transform="rotate(-93.0 400 300)" d="M 537,413  C 315,207 131,212 677,293 C 541,260 341,435 327,218 C 320,339 230,220 681,178 C 175,303 499,102 579,175 C 278,263 589,290 204,345 C 584,340 241,270 308,381 C 234,386 179,305 684,168 Z"></path>
<path stroke="#2A7843" stroke-width="4" fill="#4D247D" opacity="0.59635632469876" stroke-opacity="0.22812128438589577" transform="rotate(107.0 400 300)" d="M 613,215  C 160,431 335,269 596,377 C 223,224 658,345 112,436 C 118,371 652,178 302,482 C 524,194 586,285 358,428 C 586,123 399,392 342,375 C 313,216 512,170 532,118 C 521,303 369,338 354,429 C 114,132 252,373 627,151 Z"></path>
<path stroke="#58A6D7" stroke-width="4" fill="#DC1896" opacity="0.09253570808036657" stroke-opacity="0.7566673735609538" transform="rotate(102.0 400 300)" d="M 250,114  C 461,396 354,481 618,431 C 491,353 242,314 228,174 C 398,231 342,214 398,410 C 393,414 109,381 275,451 C 314,220 682,346 235,462 C 528,230 445,420 321,272 C 242,320 672,415 139,416 Z"></path>
<path stroke="#96DA5A" stroke-width="3" fill="#250C7A" opacity="0.62736697374642" stroke-opacity="0.4865498991240371" transform="rotate(-26.0 400 300)" d="M 613,247  C 381,405 687,212 261,398 C 328,443 162,123 699,457 C 112,131 251,308 166,240 C 525,363 492,394 319,377 C 684,366 508,203 582,282 C 247,235 375,252 236,314 C 509,210 487,452 372,393 C 207,487 553,486 466,498 C 184,322 138,346 344,439 Z"></path>
<path stroke="#8346BA" stroke-width="6" fill="#4B1A02" opacity="0.2011106373384379" stroke-opacity="0.6465666087748565" transform="rotate(-111.0 400 300)" d="M 413,125  C 346,350 156,336 271,165 C 184,387 165,422 150,184 C 585,322 151,106 486,311 C 333,374 116,467 636,264 C 438,112 662,134 330,102 C 525,305 534,295 583,462 C 681,442 579,500 583,382 C 257,233 144,311 284,354 Z"></path>
<path stroke="#A13342" stroke-width="1" fill="#A5BB97" opacity="0.31224664207362984" stroke-opacity="0.0902029286202775" transform="rotate(174.0 400 300)" d="M 544,201  C 582,400 375,263 554,134 C 281,156 121,105 107,221 C 217,144 187,446 358,460 C 495,202 436,309 108,244 C 376,356 474,280 166,399 C 235,406 430,442 507,206 Z"></path>
<path stroke="#90B1A9" stroke-width="6" fill="#AD1653" opacity="0.1455340618075373" stroke-opacity="0.21019587590577105" transform="rotate(-12.0 400 300)" d="M 665,400  C 527,211 689,374 304,263 C 194,238 678,120 608,474 C 348,139 428,184 152,392 C 559,317 396,253 465,159 C 436,179 571,133 344,398 C 606,242 360,114 191,292 C 689,271 639,472 400,140 Z"></path>

  </g>
</svg>
