<svg xmlns="http://www.w3.org/2000/svg" xmlns:xlink="http://www.w3.org/1999/xlink" width="800" height="600" version="1.1" viewBox="0 0 800 600"><g fill="none" fill-rule="evenodd" stroke="none" stroke-width="1"><path fill="#71DB53" stroke="#4CD659" stroke-opacity=".654" stroke-width="2" d="M 611,172 C 219,498 563,346 616,279 C 274,232 391,285 481,397 C 223,310 127,274 700,426 C 447,245 559,257 124,217 C 429,499 530,314 626,147 C 600,178 124,157 536,448 C 508,359 199,134 243,463 C 608,104 195,458 613,138 C 448,119 664,155 126,254 C 317,496 177,299 545,288 Z" opacity=".383" transform="rotate(-136.0 400 300)"/><path fill="#C1D541" stroke="#A969DA" stroke-opacity=".534" stroke-width="7" d="M 665,451 C 637,285 164,190 680,238 C 678,272 477,189 425,214 C 404,444 615,387 379,151 C 387,113 391,263 323,299 C 105,461 502,113 361,199 C 440,473 349,168 257,352 C 334,394 390,113 260,166 C 196,392 578,357 189,304 Z" opacity=".835" transform="rotate(52.0 400 300)"/><path fill="#972C45" stroke="#945D12" stroke-opacity=".897" stroke-width="3" d="M 351,464 C 341,125 550,473 254,332 C 171,346 235,377 125,292 C 191,410 328,499 361,368 C 558,113 149,218 239,134 C 376,383 670,339 630,206 Z" opacity=".139" transform="rotate(-108.0 400 300)"/><path fill="#196252" stroke="#B15C07" stroke-opacity=".201" stroke-width="3" d="M 332,441 C 639,437 545,445 642,188 C 538,126 144,242 284,296 C 682,296 698,444 252,339 C 538,391 248,269 127,292 C 582,395 452,197 629,317 C 238,324 239,323 241,269 C 611,499 624,457 213,221 C 337,219 692,174 376,463 C 269,454 424,115 196,217 Z" opacity=".437" transform="rotate(-24.0 400 300)"/><path fill="#2A3BBD" stroke="#8704C7" stroke-opacity=".103" stroke-width="6" d="M 653,446 C 474,253 328,437 173,456 C 545,110 408,196 327,143 C 338,204 280,256 174,433 C 600,428 134,260 541,208 C 527,484 350,301 132,311 C 520,335 201,192 476,251 C 559,401 687,318 463,125 Z" opacity=".65" transform="rotate(68.0 400 300)"/><path fill="#52BC8D" stroke="#4DA49B" stroke-opacity=".418" stroke-width="2" d="M 107,117 C 259,175 508,102 388,432 C 525,264 531,349 642,189 C 611,367 177,182 234,426 C 141,303 389,377 623,187 C 415,214 579,102 314,375 C 439,211 309,174 171,392 C 585,491 553,143 210,385 C 696,244 515,132 549,377 C 624,442 193,280 577,217 C 214,253 308,473 361,420 Z" opacity=".436" transform="rotate(-101.0 400 300)"/></g></svg>