<?xml version="1.0" encoding="UTF-8"?>
<svg width="800px" height="600px" viewBox="0 0 800 600" version="1.1" xmlns="http://www.w3.org/2000/svg" xmlns:xlink="http://www.w3.org/1999/xlink">
  <defs></defs>
  <g stroke="none" stroke-width="1" fill="none" fill-rule="evenodd">
    
    <path stroke="#31a06b" stroke-width="1" fill="#f9d84b" opacity="0.9713268414008631" stroke-opacity="0.0026887775619746502" transform="rotate(143.0 400 300)" d="M 503,327  C 590,164 372,165 156,116 C 451,161 615,107 638,153 C 663,382 212,381 332,329 C 271,130 358,207 585,241 C 200,203 561,486 214,315 C 224,428 293,124 212,224 C 471,362 110,440 423,448 Z"></path>
<path stroke="#31a06b" stroke-width="3" fill="#2b55f7" opacity="0.2775475036448778" stroke-opacity="0.11933849189138404" transform="rotate(-168.0 400 300)" d="M 216,269  C 166,459 290,429 102,173 C 156,150 168,331 689,126 C 228,401 690,449 563,273 C 686,235 486,319 449,426 C 305,343 443,442 240,477 C 156,488 315,330 499,489 Z"></path>
<path stroke="#2b55f7" stroke-width="4" fill="#f27630" opacity="0.829468097571157" stroke-opacity="0.41960168474534626" transform="rotate(170.0 400 300)" d="M 621,486  C 563,313 631,340 395,410 C 264,252 651,270 678,480 C 116,258 349,414 228,281 C 418,493 459,197 546,447 C 254,251 681,135 262,282 C 252,256 408,428 384,103 C 125,400 572,315 483,113 C 373,188 597,308 181,418 Z"></path>
<path stroke="#ed2b2c" stroke-width="4" fill="#f9d84b" opacity="0.6634055417462215" stroke-opacity="0.08065356263066906" transform="rotate(-98.0 400 300)" d="M 322,176  C 354,282 247,359 546,356 C 648,495 516,159 542,462 C 460,370 138,299 461,417 C 442,255 438,370 131,212 C 558,425 198,227 456,415 C 571,292 268,108 273,433 C 191,112 371,297 287,220 C 566,141 353,213 133,359 C 416,470 614,350 251,436 Z"></path>
<path stroke="#f27630" stroke-width="5" fill="#f9d84b" opacity="0.8667794756572892" stroke-opacity="0.7949315746343381" transform="rotate(-51.0 400 300)" d="M 390,245  C 157,381 476,133 404,407 C 664,369 339,423 664,256 C 140,119 394,204 648,187 C 227,346 166,169 488,312 C 415,279 589,308 546,370 C 229,322 117,378 397,198 C 355,260 668,222 460,463 C 518,450 413,150 191,315 C 436,479 530,163 122,339 Z"></path>
<path stroke="#f9d84b" stroke-width="4" fill="#31a06b" opacity="0.971057754742278" stroke-opacity="0.7845985102026621" transform="rotate(81.0 400 300)" d="M 505,141  C 611,171 142,163 597,344 C 454,465 270,384 501,494 C 188,491 623,225 160,240 C 413,234 240,101 292,338 C 206,478 495,302 513,486 C 499,468 140,277 489,422 Z"></path>
<path stroke="#ed2b2c" stroke-width="7" fill="#f9d84b" opacity="0.22341038634009072" stroke-opacity="0.1561548067155268" transform="rotate(60.0 400 300)" d="M 338,292  C 125,316 102,379 504,355 C 299,192 342,138 256,401 C 165,230 129,355 104,471 C 405,370 458,128 205,265 C 577,121 166,478 140,441 C 129,412 126,235 510,466 C 163,154 604,453 403,420 Z"></path>
<path stroke="#2b55f7" stroke-width="6" fill="#ed2b2c" opacity="0.468032769321869" stroke-opacity="0.43174645242049753" transform="rotate(165.0 400 300)" d="M 210,199  C 649,313 329,353 215,269 C 313,476 219,121 136,169 C 470,251 261,310 411,495 C 602,495 194,153 580,500 C 404,121 645,116 448,169 C 541,421 409,394 259,422 C 450,221 413,253 208,322 C 452,456 182,180 460,168 Z"></path>
<path stroke="#ed2b2c" stroke-width="1" fill="#31a06b" opacity="0.5451444223319196" stroke-opacity="0.6782638486149258" transform="rotate(82.0 400 300)" d="M 267,222  C 396,189 690,273 338,129 C 172,328 312,336 591,119 C 245,482 588,335 134,116 C 537,310 529,134 125,292 C 540,204 574,273 681,465 C 198,185 282,272 463,410 C 679,455 626,170 231,148 Z"></path>
<path stroke="#f9d84b" stroke-width="3" fill="#f27630" opacity="0.8473825626851216" stroke-opacity="0.7246657383791513" transform="rotate(133.0 400 300)" d="M 284,220  C 229,384 539,327 215,179 C 290,320 316,306 284,139 C 660,214 135,362 350,105 C 680,465 400,413 318,210 C 641,140 305,370 137,255 C 466,123 617,285 171,183 Z"></path>

  </g>
</svg>
