<svg xmlns="http://www.w3.org/2000/svg" xmlns:xlink="http://www.w3.org/1999/xlink" width="800" height="600" version="1.1" viewBox="0 0 800 600"><g fill="none" fill-rule="evenodd" stroke="none" stroke-width="1"><path fill="#ed2b2c" stroke="#f9d84b" stroke-opacity=".788" stroke-width="2" d="M 676,232 C 253,123 569,223 245,147 C 207,181 572,387 445,289 C 371,130 602,285 180,417 C 389,159 337,425 296,369 C 546,497 486,248 184,308 C 671,243 143,168 525,180 C 462,241 579,195 184,185 C 579,228 245,272 386,337 C 120,335 593,453 443,265 C 401,251 489,140 619,226 C 224,292 220,277 624,479 Z" opacity=".285" transform="rotate(-164.0 400 300)"/><path fill="#f9d84b" stroke="#f9d84b" stroke-opacity=".898" stroke-width="5" d="M 465,355 C 393,461 437,250 581,172 C 276,400 448,263 184,138 C 122,134 159,449 614,254 C 468,134 440,185 284,194 C 658,402 323,431 516,227 C 588,207 219,375 596,230 C 407,311 252,186 421,183 Z" opacity=".454" transform="rotate(154.0 400 300)"/><polygon fill="#ed2b2c" stroke="#31a06b" stroke-opacity=".595" stroke-width="7" points="642 197 335 586 427 458 493 450 705 106" opacity=".128" transform="rotate(7.0 400 300)"/><rect width="346" height="259" x="64" y="591" fill="#31a06b" stroke="#ed2b2c" stroke-opacity=".577" stroke-width="6" opacity=".952" transform="rotate(-15.0 400 300)"/><rect width="389" height="49" x="225" y="73" fill="#f27630" stroke="#31a06b" stroke-opacity=".27" stroke-width="2" opacity=".318" transform="rotate(-99.0 400 300)"/><ellipse cx="413" cy="495" fill="#31a06b" stroke="#2b55f7" stroke-opacity=".806" stroke-width="2" opacity=".136" rx="431" ry="74" transform="rotate(-168.0 400 300)"/></g></svg>