<?xml version="1.0" encoding="UTF-8"?>
<svg width="800px" height="600px" viewBox="0 0 800 600" version="1.1" xmlns="http://www.w3.org/2000/svg" xmlns:xlink="http://www.w3.org/1999/xlink">
  <defs></defs>
  <g stroke="none" stroke-width="1" fill="none" fill-rule="evenodd">
    
    <path stroke="#A65528" stroke-width="6" fill="#169AA5" opacity="0.49417372652189795" stroke-opacity="0.129918182773676" transform="rotate(2.0 400 300)" d="M 437,133  C 356,149 682,494 609,217 C 610,445 483,221 456,410 C 294,168 267,214 185,196 C 577,259 164,192 254,153 C 273,466 552,104 299,188 C 451,126 252,289 155,264 C 621,421 112,144 102,305 C 279,294 279,155 489,473 C 515,466 199,217 150,408 C 103,171 683,458 678,112 Z"></path>
<path stroke="#18B00C" stroke-width="4" fill="#827398" opacity="0.3418785237891326" stroke-opacity="0.7175022544157426" transform="rotate(138.0 400 300)" d="M 581,343  C 608,217 581,280 216,333 C 516,404 247,274 454,278 C 515,359 620,267 227,263 C 630,205 499,354 143,163 C 219,329 282,356 373,201 C 327,208 346,344 261,486 Z"></path>
<path stroke="#077B45" stroke-width="5" fill="#793629" opacity="0.8175792851315864" stroke-opacity="0.26953759459249743" transform="rotate(-26.0 400 300)" d="M 202,385  C 119,407 530,218 378,325 C 568,457 241,379 119,298 C 686,212 370,334 500,253 C 643,188 316,451 141,174 C 261,398 220,485 110,253 C 399,445 420,414 322,386 C 151,452 281,194 470,500 C 148,289 669,500 231,248 C 407,335 577,245 148,453 C 193,417 491,263 209,118 Z"></path>
<path stroke="#330686" stroke-width="3" fill="#A946CC" opacity="0.5221718448051429" stroke-opacity="0.42266260002946276" transform="rotate(-51.0 400 300)" d="M 331,387  C 431,384 690,333 183,109 C 380,426 175,246 323,402 C 598,456 674,131 484,203 C 129,118 577,237 698,402 Z"></path>
<path stroke="#C6D9C3" stroke-width="4" fill="#C37A63" opacity="0.19427832630442557" stroke-opacity="0.3236432600702965" transform="rotate(128.0 400 300)" d="M 313,140  C 177,338 613,112 550,308 C 416,228 302,383 264,176 C 110,233 471,227 648,290 C 521,294 506,128 133,202 C 366,261 535,141 227,317 C 259,230 457,214 572,105 Z"></path>
<path stroke="#56AAB4" stroke-width="7" fill="#290396" opacity="0.13248970075067681" stroke-opacity="0.41319374110856644" transform="rotate(-43.0 400 300)" d="M 258,233  C 591,371 505,179 485,270 C 670,152 460,154 617,409 C 571,379 500,236 384,464 C 321,242 521,352 456,145 C 148,469 274,456 592,431 C 414,427 253,438 192,462 C 431,386 355,293 236,486 C 380,242 545,207 523,331 C 125,423 231,138 288,311 C 503,154 198,428 526,411 Z"></path>
<path stroke="#3DD9B3" stroke-width="4" fill="#039CC7" opacity="0.30742032326787594" stroke-opacity="0.6787885903171849" transform="rotate(116.0 400 300)" d="M 574,372  C 696,373 265,223 370,167 C 633,456 114,295 190,331 C 204,221 169,259 239,113 C 390,463 188,377 178,449 C 394,422 243,154 106,392 C 176,207 381,452 276,151 C 375,104 638,323 585,230 C 591,331 639,160 226,362 C 535,170 313,381 327,103 C 243,124 695,227 271,334 Z"></path>
<path stroke="#563BD8" stroke-width="6" fill="#DD3082" opacity="0.18144041594989185" stroke-opacity="0.2815687602693899" transform="rotate(-34.0 400 300)" d="M 574,389  C 643,437 616,405 427,403 C 389,380 385,337 576,143 C 503,482 422,330 474,308 C 447,487 290,209 104,152 C 445,377 408,493 107,441 C 289,276 530,340 678,266 C 149,324 229,290 616,330 C 574,159 664,288 142,342 C 462,422 444,103 115,265 C 271,197 658,467 180,260 Z"></path>
<path stroke="#A4B82A" stroke-width="2" fill="#26C22C" opacity="0.9515621942514925" stroke-opacity="0.9375144101484375" transform="rotate(-22.0 400 300)" d="M 183,205  C 121,331 528,313 627,207 C 253,314 285,228 278,303 C 425,432 307,262 324,492 C 131,493 550,336 587,107 C 679,356 335,187 134,203 C 263,461 376,464 562,192 C 244,487 610,182 404,382 C 234,279 168,380 167,161 C 639,375 127,180 157,235 Z"></path>
<path stroke="#255DB8" stroke-width="4" fill="#1A4803" opacity="0.632197357949125" stroke-opacity="0.6385777691870336" transform="rotate(-124.0 400 300)" d="M 403,105  C 361,372 356,106 182,197 C 194,268 198,251 667,183 C 673,197 169,489 505,255 C 452,103 507,281 262,325 C 562,450 436,312 584,360 Z"></path>
<path stroke="#74CB29" stroke-width="7" fill="#554BBC" opacity="0.9187035403157008" stroke-opacity="0.6392637202701219" transform="rotate(57.0 400 300)" d="M 551,106  C 200,399 665,305 472,335 C 326,432 680,281 231,384 C 397,218 617,375 673,119 C 184,288 108,151 543,385 C 648,180 399,184 621,240 C 515,105 332,364 531,167 C 435,458 429,324 685,190 C 524,399 305,361 581,186 C 525,126 261,191 616,142 C 479,128 248,117 229,427 Z"></path>

  </g>
</svg>
