<?xml version="1.0" encoding="UTF-8"?>
<svg width="800px" height="600px" viewBox="0 0 800 600" version="1.1" xmlns="http://www.w3.org/2000/svg" xmlns:xlink="http://www.w3.org/1999/xlink">
  <defs></defs>
  <g stroke="none" stroke-width="1" fill="none" fill-rule="evenodd">
    
    <path stroke="#2b55f7" stroke-width="4" fill="#31a06b" opacity="0.703209685264393" stroke-opacity="0.9792226076504477" transform="rotate(6.0 400 300)" d="M 158,239  C 529,293 663,331 656,488 C 376,455 179,286 499,392 C 562,310 154,116 464,335 C 546,252 586,459 592,173 C 391,126 500,120 185,198 C 392,371 126,318 629,186 C 574,200 628,150 516,322 C 476,166 541,131 554,101 C 260,372 335,278 607,307 Z"></path>
<path stroke="#ed2b2c" stroke-width="6" fill="#31a06b" opacity="0.7703143601771013" stroke-opacity="0.31673415424436174" transform="rotate(-76.0 400 300)" d="M 169,174  C 484,162 459,218 249,138 C 548,460 159,223 175,437 C 315,332 657,130 337,306 C 377,328 580,417 603,135 C 376,268 157,395 131,333 Z"></path>
<path stroke="#f27630" stroke-width="5" fill="#f27630" opacity="0.8441884703753888" stroke-opacity="0.5686396914509884" transform="rotate(-25.0 400 300)" d="M 608,106  C 685,442 139,472 240,458 C 529,230 205,237 151,462 C 616,220 345,142 401,107 C 445,330 700,491 415,170 C 470,294 308,185 487,106 C 452,137 388,300 138,401 C 506,118 121,351 502,434 C 338,145 135,346 108,382 C 321,227 562,116 127,456 Z"></path>
<path stroke="#f9d84b" stroke-width="5" fill="#31a06b" opacity="0.7450065141467618" stroke-opacity="0.2604075993430939" transform="rotate(-28.0 400 300)" d="M 473,315  C 472,215 318,413 219,204 C 193,322 183,118 514,187 C 465,455 513,164 121,301 C 122,490 488,179 629,220 C 412,290 284,363 146,256 C 283,171 113,451 392,223 C 383,436 599,304 368,393 Z"></path>
<path stroke="#31a06b" stroke-width="2" fill="#2b55f7" opacity="0.9436004708695542" stroke-opacity="0.47217666644475514" transform="rotate(-63.0 400 300)" d="M 654,355  C 675,434 633,139 611,274 C 214,361 101,213 376,197 C 489,298 422,475 477,386 C 503,218 466,303 427,297 C 361,140 217,138 379,416 C 329,469 145,410 117,110 C 370,209 312,209 363,430 Z"></path>
<path stroke="#f9d84b" stroke-width="5" fill="#ed2b2c" opacity="0.333152100281142" stroke-opacity="0.990327163130209" transform="rotate(-156.0 400 300)" d="M 283,500  C 256,334 427,131 557,339 C 198,344 328,173 408,146 C 681,463 558,141 460,458 C 416,207 339,427 254,163 C 505,120 247,422 295,230 C 143,393 425,313 340,263 C 698,137 271,222 523,476 C 233,271 460,105 446,203 C 592,473 413,490 399,154 C 604,399 668,453 655,112 Z"></path>
<path stroke="#ed2b2c" stroke-width="2" fill="#f27630" opacity="0.29112036721161655" stroke-opacity="0.546551146598514" transform="rotate(140.0 400 300)" d="M 495,450  C 104,144 565,144 128,351 C 107,262 242,152 391,246 C 249,233 488,441 217,361 C 374,120 187,416 347,299 Z"></path>
<path stroke="#ed2b2c" stroke-width="7" fill="#ed2b2c" opacity="0.4610485274852612" stroke-opacity="0.6489002514835766" transform="rotate(-167.0 400 300)" d="M 326,174  C 266,463 336,400 644,326 C 565,401 238,369 276,374 C 661,488 354,327 290,402 C 622,430 380,104 294,382 C 142,386 207,370 361,443 C 385,185 444,206 370,165 C 598,304 236,263 340,123 C 601,219 450,244 283,199 C 418,382 696,308 166,458 C 482,112 472,204 463,267 C 413,455 222,210 647,237 Z"></path>
<path stroke="#31a06b" stroke-width="3" fill="#f9d84b" opacity="0.8164228005143754" stroke-opacity="0.6788190227529297" transform="rotate(9.0 400 300)" d="M 142,145  C 495,409 410,368 199,345 C 306,495 136,201 365,251 C 170,443 680,427 521,312 C 545,275 127,330 263,337 C 313,488 102,302 564,202 C 125,143 203,381 417,118 C 119,361 256,360 519,187 Z"></path>
<path stroke="#2b55f7" stroke-width="6" fill="#f27630" opacity="0.869414659848979" stroke-opacity="0.23626574151248927" transform="rotate(100.0 400 300)" d="M 536,388  C 647,231 249,444 516,358 C 206,117 102,305 463,321 C 605,383 670,104 197,111 C 381,110 152,332 136,124 C 255,355 568,389 141,413 Z"></path>
<path stroke="#ed2b2c" stroke-width="3" fill="#f9d84b" opacity="0.19224390989450885" stroke-opacity="0.06933842966990249" transform="rotate(-145.0 400 300)" d="M 678,287  C 179,289 681,468 396,101 C 498,391 682,110 196,132 C 120,468 151,102 358,109 C 554,255 362,173 446,103 C 390,451 583,493 453,266 C 377,467 203,398 380,307 C 610,137 119,483 569,207 C 679,330 284,173 303,395 Z"></path>

  </g>
</svg>
