<svg xmlns="http://www.w3.org/2000/svg" xmlns:xlink="http://www.w3.org/1999/xlink" width="800" height="600" version="1.1" viewBox="0 0 800 600"><g fill="none" fill-rule="evenodd" stroke="none" stroke-width="1"><path fill="#31a06b" stroke="#2b55f7" stroke-opacity=".281" stroke-width="7" d="M 143,292 C 361,252 516,134 403,294 C 378,399 530,384 394,226 C 113,351 673,379 349,497 C 298,188 383,385 150,401 C 621,369 337,430 134,101 C 680,297 188,466 304,305 C 456,451 676,174 395,142 C 568,189 116,138 497,185 C 208,321 633,104 253,171 Z" opacity=".062" transform="rotate(87.0 400 300)"/><path fill="#f27630" stroke="#ed2b2c" stroke-opacity=".065" stroke-width="7" d="M 634,274 C 323,391 660,412 308,432 C 415,340 454,346 510,179 C 507,342 537,254 280,334 C 281,366 459,111 461,208 C 257,335 344,192 194,141 C 530,419 277,197 427,233 C 252,316 226,487 222,292 C 399,145 700,176 519,202 C 318,210 639,341 253,191 Z" opacity=".134" transform="rotate(68.0 400 300)"/><path fill="#f27630" stroke="#f27630" stroke-opacity=".036" stroke-width="5" d="M 119,158 C 409,462 201,281 350,423 C 489,210 435,483 111,237 C 369,190 500,428 439,245 C 423,291 537,146 489,424 C 244,489 323,250 378,447 C 521,349 595,404 203,106 Z" opacity=".408" transform="rotate(21.0 400 300)"/><path fill="#f9d84b" stroke="#f27630" stroke-opacity=".844" stroke-width="1" d="M 625,304 C 303,389 671,219 321,190 C 392,202 416,317 446,171 C 561,374 475,277 282,197 C 581,125 197,136 245,257 C 660,346 603,420 699,204 C 653,479 200,476 667,481 C 253,314 347,425 580,423 C 299,394 337,181 279,307 C 520,320 434,337 468,169 C 316,205 141,426 384,440 C 537,254 246,211 239,269 Z" opacity=".613" transform="rotate(-132.0 400 300)"/><path fill="#ed2b2c" stroke="#f27630" stroke-opacity=".423" stroke-width="6" d="M 205,432 C 640,481 623,415 463,341 C 481,465 604,157 544,223 C 443,439 209,434 175,325 C 388,347 399,432 650,483 C 469,319 604,456 657,291 C 441,277 549,144 587,116 C 471,274 264,281 563,179 C 568,154 329,141 453,272 C 647,145 584,145 123,385 C 482,480 529,441 288,273 C 267,229 340,234 253,385 Z" opacity=".15" transform="rotate(-88.0 400 300)"/><path fill="#31a06b" stroke="#f27630" stroke-opacity=".703" stroke-width="7" d="M 142,208 C 382,474 488,103 543,477 C 466,455 231,483 455,180 C 164,431 218,381 574,426 C 351,256 571,156 628,175 C 415,187 245,500 324,221 C 113,102 468,161 542,342 C 147,292 436,406 183,178 C 185,418 400,353 478,102 Z" opacity=".013" transform="rotate(117.0 400 300)"/><path fill="#2b55f7" stroke="#31a06b" stroke-opacity=".642" stroke-width="4" d="M 170,402 C 259,175 319,228 521,189 C 115,318 230,367 142,139 C 376,236 633,303 664,229 C 388,205 195,493 233,162 C 120,148 529,472 377,331 C 532,215 172,111 424,437 C 563,271 656,331 127,187 C 466,229 127,418 110,234 C 570,210 259,486 659,148 Z" opacity=".516" transform="rotate(-46.0 400 300)"/><path fill="#f27630" stroke="#f27630" stroke-opacity=".87" stroke-width="2" d="M 176,353 C 591,260 428,225 263,209 C 140,122 536,399 137,441 C 466,252 522,145 491,152 C 550,173 187,472 463,487 C 152,371 549,492 399,355 Z" opacity=".385" transform="rotate(-82.0 400 300)"/></g></svg>