<?xml version="1.0" encoding="UTF-8"?>
<svg width="800px" height="600px" viewBox="0 0 800 600" version="1.1" xmlns="http://www.w3.org/2000/svg" xmlns:xlink="http://www.w3.org/1999/xlink">
  <defs></defs>
  <g stroke="none" stroke-width="1" fill="none" fill-rule="evenodd">
    
    <path stroke="#2b55f7" stroke-width="7" fill="#31a06b" opacity="0.061801898369365414" stroke-opacity="0.2814478356312926" transform="rotate(87.0 400 300)" d="M 143,292  C 361,252 516,134 403,294 C 378,399 530,384 394,226 C 113,351 673,379 349,497 C 298,188 383,385 150,401 C 621,369 337,430 134,101 C 680,297 188,466 304,305 C 456,451 676,174 395,142 C 568,189 116,138 497,185 C 208,321 633,104 253,171 Z"></path>
<path stroke="#ed2b2c" stroke-width="7" fill="#f27630" opacity="0.13409727763266777" stroke-opacity="0.06496314343788649" transform="rotate(68.0 400 300)" d="M 634,274  C 323,391 660,412 308,432 C 415,340 454,346 510,179 C 507,342 537,254 280,334 C 281,366 459,111 461,208 C 257,335 344,192 194,141 C 530,419 277,197 427,233 C 252,316 226,487 222,292 C 399,145 700,176 519,202 C 318,210 639,341 253,191 Z"></path>
<path stroke="#f27630" stroke-width="5" fill="#f27630" opacity="0.40837431627629867" stroke-opacity="0.035509131053223175" transform="rotate(21.0 400 300)" d="M 119,158  C 409,462 201,281 350,423 C 489,210 435,483 111,237 C 369,190 500,428 439,245 C 423,291 537,146 489,424 C 244,489 323,250 378,447 C 521,349 595,404 203,106 Z"></path>
<path stroke="#f27630" stroke-width="1" fill="#f9d84b" opacity="0.6127258634458618" stroke-opacity="0.8436007275137348" transform="rotate(-132.0 400 300)" d="M 625,304  C 303,389 671,219 321,190 C 392,202 416,317 446,171 C 561,374 475,277 282,197 C 581,125 197,136 245,257 C 660,346 603,420 699,204 C 653,479 200,476 667,481 C 253,314 347,425 580,423 C 299,394 337,181 279,307 C 520,320 434,337 468,169 C 316,205 141,426 384,440 C 537,254 246,211 239,269 Z"></path>
<path stroke="#f27630" stroke-width="6" fill="#ed2b2c" opacity="0.1498388140779122" stroke-opacity="0.42272477961071664" transform="rotate(-88.0 400 300)" d="M 205,432  C 640,481 623,415 463,341 C 481,465 604,157 544,223 C 443,439 209,434 175,325 C 388,347 399,432 650,483 C 469,319 604,456 657,291 C 441,277 549,144 587,116 C 471,274 264,281 563,179 C 568,154 329,141 453,272 C 647,145 584,145 123,385 C 482,480 529,441 288,273 C 267,229 340,234 253,385 Z"></path>
<path stroke="#f27630" stroke-width="7" fill="#31a06b" opacity="0.013355211018113282" stroke-opacity="0.702594704978639" transform="rotate(117.0 400 300)" d="M 142,208  C 382,474 488,103 543,477 C 466,455 231,483 455,180 C 164,431 218,381 574,426 C 351,256 571,156 628,175 C 415,187 245,500 324,221 C 113,102 468,161 542,342 C 147,292 436,406 183,178 C 185,418 400,353 478,102 Z"></path>
<path stroke="#31a06b" stroke-width="4" fill="#2b55f7" opacity="0.5156141688736268" stroke-opacity="0.6418720925858651" transform="rotate(-46.0 400 300)" d="M 170,402  C 259,175 319,228 521,189 C 115,318 230,367 142,139 C 376,236 633,303 664,229 C 388,205 195,493 233,162 C 120,148 529,472 377,331 C 532,215 172,111 424,437 C 563,271 656,331 127,187 C 466,229 127,418 110,234 C 570,210 259,486 659,148 Z"></path>
<path stroke="#f27630" stroke-width="2" fill="#f27630" opacity="0.38471290408865455" stroke-opacity="0.8696265141496237" transform="rotate(-82.0 400 300)" d="M 176,353  C 591,260 428,225 263,209 C 140,122 536,399 137,441 C 466,252 522,145 491,152 C 550,173 187,472 463,487 C 152,371 549,492 399,355 Z"></path>

  </g>
</svg>
