<svg xmlns="http://www.w3.org/2000/svg" xmlns:xlink="http://www.w3.org/1999/xlink" width="800" height="600" version="1.1" viewBox="0 0 800 600"><g fill="none" fill-rule="evenodd" stroke="none" stroke-width="1"><polygon fill="#f9d84b" stroke="#f9d84b" stroke-opacity=".244" stroke-width="3" points="648 506 484 297 279 549 346 12 166 85 699 489 108 202" opacity=".916" transform="rotate(-19.0 400 300)"/><ellipse cx="680" cy="122" fill="#ed2b2c" stroke="#f9d84b" stroke-opacity=".818" stroke-width="1" opacity=".976" rx="419" ry="130" transform="rotate(-62.0 400 300)"/><path fill="#31a06b" stroke="#f27630" stroke-opacity=".434" stroke-width="5" d="M 530,295 C 378,200 238,499 238,430 C 460,117 576,347 526,263 C 479,447 634,491 525,169 C 380,184 681,128 238,278 C 252,131 279,378 454,220 C 245,358 598,497 470,197 C 465,231 452,262 414,420 C 186,238 268,406 156,435 C 126,198 295,379 530,135 Z" opacity=".938" transform="rotate(-145.0 400 300)"/><polygon fill="#2b55f7" stroke="#2b55f7" stroke-opacity=".445" stroke-width="1" points="276 77 499 161 793 580 240 11 347 463 664 156" opacity=".216" transform="rotate(-175.0 400 300)"/><ellipse cx="113" cy="523" fill="#31a06b" stroke="#f9d84b" stroke-opacity=".51" stroke-width="5" opacity=".609" rx="302" ry="185" transform="rotate(129.0 400 300)"/><rect width="380" height="141" x="103" y="365" fill="#f9d84b" stroke="#31a06b" stroke-opacity=".527" stroke-width="1" opacity=".502" transform="rotate(-76.0 400 300)"/><ellipse cx="537" cy="509" fill="#2b55f7" stroke="#2b55f7" stroke-opacity=".596" stroke-width="1" opacity=".392" rx="295" ry="122" transform="rotate(33.0 400 300)"/><rect width="181" height="367" x="190" y="456" fill="#f27630" stroke="#f27630" stroke-opacity=".649" stroke-width="1" opacity=".659" transform="rotate(111.0 400 300)"/><path fill="#ed2b2c" stroke="#ed2b2c" stroke-opacity=".847" stroke-width="6" d="M 205,415 C 523,110 260,331 539,227 C 541,108 473,250 293,111 C 608,453 699,154 640,367 C 196,405 262,464 623,322 C 327,400 539,347 632,348 C 528,391 267,402 349,181 C 541,490 645,166 609,239 C 599,173 596,146 423,228 C 395,281 538,303 377,451 C 363,383 137,360 297,477 Z" opacity=".349" transform="rotate(-29.0 400 300)"/></g></svg>