<?xml version="1.0" encoding="UTF-8"?>
<svg width="800px" height="600px" viewBox="0 0 800 600" version="1.1" xmlns="http://www.w3.org/2000/svg" xmlns:xlink="http://www.w3.org/1999/xlink">
  <defs></defs>
  <g stroke="none" stroke-width="1" fill="none" fill-rule="evenodd">
    
    <polygon stroke="#f9d84b" stroke-width="3" fill="#f9d84b" opacity="0.9161935046753509" stroke-opacity="0.2439054130898692" transform="rotate(-19.0 400 300)" points="648 506 484 297 279 549 346 12 166 85 699 489 108 202 "></polygon>
<ellipse stroke="#f9d84b" stroke-width="1" fill="#ed2b2c" opacity="0.9759388703426238" stroke-opacity="0.8181558015297531" transform="rotate(-62.0 400 300)" cx="680" rx="419" cy="122" ry="130"></ellipse>
<path stroke="#f27630" stroke-width="5" fill="#31a06b" opacity="0.9376518072096645" stroke-opacity="0.43394122024444315" transform="rotate(-145.0 400 300)" d="M 530,295  C 378,200 238,499 238,430 C 460,117 576,347 526,263 C 479,447 634,491 525,169 C 380,184 681,128 238,278 C 252,131 279,378 454,220 C 245,358 598,497 470,197 C 465,231 452,262 414,420 C 186,238 268,406 156,435 C 126,198 295,379 530,135 Z"></path>
<polygon stroke="#2b55f7" stroke-width="1" fill="#2b55f7" opacity="0.21573469353433908" stroke-opacity="0.444925038903862" transform="rotate(-175.0 400 300)" points="276 77 499 161 793 580 240 11 347 463 664 156 "></polygon>
<ellipse stroke="#f9d84b" stroke-width="5" fill="#31a06b" opacity="0.608839323150723" stroke-opacity="0.5096600173665649" transform="rotate(129.0 400 300)" cx="113" rx="302" cy="523" ry="185"></ellipse>
<rect stroke="#31a06b" stroke-width="1" fill="#f9d84b" opacity="0.5016174224948905" stroke-opacity="0.5272822519056861" transform="rotate(-76.0 400 300)" x="103" y="365" width="380" height="141"></rect>
<ellipse stroke="#2b55f7" stroke-width="1" fill="#2b55f7" opacity="0.3924438102444746" stroke-opacity="0.5960695452031678" transform="rotate(33.0 400 300)" cx="537" rx="295" cy="509" ry="122"></ellipse>
<rect stroke="#f27630" stroke-width="1" fill="#f27630" opacity="0.6586498169790983" stroke-opacity="0.6491179913591256" transform="rotate(111.0 400 300)" x="190" y="456" width="181" height="367"></rect>
<path stroke="#ed2b2c" stroke-width="6" fill="#ed2b2c" opacity="0.349294026128162" stroke-opacity="0.8466781837788226" transform="rotate(-29.0 400 300)" d="M 205,415  C 523,110 260,331 539,227 C 541,108 473,250 293,111 C 608,453 699,154 640,367 C 196,405 262,464 623,322 C 327,400 539,347 632,348 C 528,391 267,402 349,181 C 541,490 645,166 609,239 C 599,173 596,146 423,228 C 395,281 538,303 377,451 C 363,383 137,360 297,477 Z"></path>

  </g>
</svg>
