<?xml version="1.0" encoding="UTF-8"?>
<svg width="800px" height="600px" viewBox="0 0 800 600" version="1.1" xmlns="http://www.w3.org/2000/svg" xmlns:xlink="http://www.w3.org/1999/xlink">
  <defs></defs>
  <g stroke="none" stroke-width="1" fill="none" fill-rule="evenodd">
    
    <path stroke="#02eb6b" stroke-width="2" fill="#f559a0" opacity="0.5314931912679284" stroke-opacity="0.11118409695285232" transform="rotate(-122.0 400 300)" d="M 674,121  C 615,459 476,203 119,491 C 402,247 659,133 466,275 C 473,131 252,182 360,385 C 678,343 654,105 662,401 Z"></path>
<path stroke="#02eb6b" stroke-width="3" fill="#0fa6d8" opacity="0.9786320031499001" stroke-opacity="0.004876751751291297" transform="rotate(71.0 400 300)" d="M 667,109  C 413,468 434,434 111,448 C 417,108 259,186 378,245 C 693,120 180,269 179,382 C 480,268 246,208 550,169 C 263,301 283,179 683,373 C 535,259 195,383 661,182 C 638,322 198,448 512,246 C 425,321 690,378 198,237 C 255,477 271,123 322,334 Z"></path>
<path stroke="#fe9225" stroke-width="1" fill="#f559a0" opacity="0.18182519356736396" stroke-opacity="0.05391823131377581" transform="rotate(-120.0 400 300)" d="M 135,438  C 339,218 489,482 383,412 C 456,296 629,135 257,188 C 380,115 495,455 356,312 C 389,132 339,374 413,143 C 409,397 531,174 336,493 C 435,306 154,158 453,187 Z"></path>
<path stroke="#f559a0" stroke-width="3" fill="#2cd3f3" opacity="0.09740773489375065" stroke-opacity="0.5046684619963083" transform="rotate(93.0 400 300)" d="M 173,259  C 280,284 209,429 656,469 C 258,187 442,113 553,497 C 239,229 193,363 428,132 C 667,346 517,120 390,455 C 560,395 485,355 235,196 C 291,279 296,455 393,180 C 369,274 366,224 425,225 C 112,114 418,322 528,250 C 560,383 109,175 541,308 Z"></path>
<path stroke="#fe9225" stroke-width="2" fill="#0fa6d8" opacity="0.6875620511045677" stroke-opacity="0.7950248481593408" transform="rotate(-103.0 400 300)" d="M 476,355  C 585,266 236,465 525,331 C 556,119 483,170 661,276 C 131,271 404,347 132,133 C 691,241 525,226 681,441 C 520,222 361,396 310,440 C 555,163 530,303 162,420 C 672,240 307,488 225,427 C 253,444 344,137 613,154 C 481,194 495,237 506,388 C 155,383 671,235 460,491 Z"></path>
<path stroke="#02eb6b" stroke-width="4" fill="#2cd3f3" opacity="0.7683064137830502" stroke-opacity="0.2370119199305395" transform="rotate(-71.0 400 300)" d="M 643,259  C 255,430 249,258 478,378 C 633,315 413,494 415,362 C 275,154 663,451 108,128 C 220,351 337,362 101,168 C 271,256 638,400 432,424 C 127,242 146,133 144,280 C 216,367 162,163 493,237 C 691,253 157,319 638,476 C 401,251 463,372 431,267 Z"></path>
<path stroke="#f559a0" stroke-width="3" fill="#fe9225" opacity="0.6887003532537405" stroke-opacity="0.33920435725645176" transform="rotate(78.0 400 300)" d="M 114,373  C 118,158 411,255 582,129 C 484,237 609,225 548,383 C 682,411 670,485 458,119 C 170,474 671,335 254,114 C 292,166 123,305 421,275 C 529,259 326,343 254,376 C 173,201 209,190 374,355 C 550,320 454,152 377,414 Z"></path>
<path stroke="#0fa6d8" stroke-width="7" fill="#02eb6b" opacity="0.8081233798057815" stroke-opacity="0.9788238584599598" transform="rotate(-18.0 400 300)" d="M 258,337  C 340,133 496,124 306,235 C 173,300 486,262 427,481 C 150,445 660,162 354,244 C 605,440 352,152 518,260 C 211,178 462,435 215,424 Z"></path>
<path stroke="#0fa6d8" stroke-width="4" fill="#f559a0" opacity="0.765962924421216" stroke-opacity="0.49543113730041877" transform="rotate(-72.0 400 300)" d="M 445,214  C 663,241 532,271 618,141 C 527,313 565,236 451,226 C 428,365 662,327 650,302 C 648,324 163,479 159,287 C 313,254 661,390 389,159 C 264,174 414,236 128,469 Z"></path>

  </g>
</svg>
