<svg xmlns="http://www.w3.org/2000/svg" xmlns:xlink="http://www.w3.org/1999/xlink" width="800" height="600" version="1.1" viewBox="0 0 800 600"><g fill="none" fill-rule="evenodd" stroke="none" stroke-width="1"><rect width="245" height="51" x="402" y="448" fill="#fe9225" stroke="#f559a0" stroke-opacity=".662" stroke-width="7" opacity=".734" transform="rotate(6.0 400 300)"/><path fill="#f559a0" stroke="#fe9225" stroke-opacity=".691" stroke-width="1" d="M 546,255 C 681,158 267,144 406,152 C 143,358 331,190 612,121 C 270,398 450,130 384,403 C 649,134 386,272 596,188 C 268,405 134,481 106,238 C 460,192 661,445 632,174 Z" opacity=".153" transform="rotate(-67.0 400 300)"/><rect width="191" height="390" x="407" y="570" fill="#2cd3f3" stroke="#2cd3f3" stroke-opacity=".139" stroke-width="4" opacity=".7" transform="rotate(45.0 400 300)"/><path fill="#fe9225" stroke="#fe9225" stroke-opacity=".036" stroke-width="1" d="M 449,287 C 628,389 131,146 483,402 C 675,394 672,232 608,144 C 114,214 148,265 469,451 C 175,423 360,109 187,445 C 330,366 658,234 294,238 C 122,239 381,261 370,151 C 461,417 697,182 523,291 C 475,219 278,255 304,465 Z" opacity=".814" transform="rotate(134.0 400 300)"/><rect width="281" height="48" x="513" y="23" fill="#fe9225" stroke="#f559a0" stroke-opacity=".055" stroke-width="5" opacity=".157" transform="rotate(93.0 400 300)"/><polygon fill="#fe9225" stroke="#fe9225" stroke-opacity=".552" stroke-width="5" points="768 480 648 110 472 175 484 580 288 143" opacity=".446" transform="rotate(82.0 400 300)"/><path fill="#02eb6b" stroke="#f559a0" stroke-opacity=".735" stroke-width="5" d="M 362,325 C 163,279 461,477 373,401 C 583,446 346,300 200,367 C 503,172 398,209 187,369 C 219,353 679,191 616,297 C 121,429 418,329 260,362 C 116,290 281,222 544,102 C 467,350 467,190 363,471 C 389,488 106,369 492,462 Z" opacity=".815" transform="rotate(171.0 400 300)"/><rect width="172" height="108" x="244" y="398" fill="#fe9225" stroke="#02eb6b" stroke-opacity=".933" stroke-width="6" opacity=".347" transform="rotate(72.0 400 300)"/><polygon fill="#02eb6b" stroke="#fe9225" stroke-opacity=".951" stroke-width="6" points="6 274 420 40 85 368 361 220 3 262 152 574" opacity=".609" transform="rotate(-161.0 400 300)"/></g></svg>