<?xml version="1.0" encoding="UTF-8"?>
<svg width="800px" height="600px" viewBox="0 0 800 600" version="1.1" xmlns="http://www.w3.org/2000/svg" xmlns:xlink="http://www.w3.org/1999/xlink">
  <defs></defs>
  <g stroke="none" stroke-width="1" fill="none" fill-rule="evenodd">
    
    <path stroke="#B7A165" stroke-width="7" fill="#C57A9A" opacity="0.5120330261464773" stroke-opacity="0.5051359737879633" transform="rotate(-26.0 400 300)" d="M 677,153  C 402,221 479,278 167,427 C 357,460 629,434 473,399 C 687,239 434,146 201,161 C 206,243 583,222 473,219 C 214,328 567,465 572,427 C 522,314 697,159 456,333 C 273,114 508,229 362,137 C 561,213 103,113 513,400 C 225,260 252,491 223,409 C 338,301 607,163 312,407 C 153,478 154,240 566,104 Z"></path>
<ellipse stroke="#38A54D" stroke-width="3" fill="#788CA3" opacity="0.9689452800495916" stroke-opacity="0.9191719183965172" transform="rotate(-145.0 400 300)" cx="275" rx="131" cy="180" ry="313"></ellipse>
<rect stroke="#B0D07A" stroke-width="5" fill="#73211B" opacity="0.4125475528748218" stroke-opacity="0.5914945171165654" transform="rotate(-145.0 400 300)" x="212" y="595" width="182" height="52"></rect>
<ellipse stroke="#A5ABBA" stroke-width="3" fill="#C50B12" opacity="0.4424855167324547" stroke-opacity="0.29789423873606313" transform="rotate(-70.0 400 300)" cx="40" rx="77" cy="14" ry="63"></ellipse>
<path stroke="#847753" stroke-width="6" fill="#BB8009" opacity="0.9742249609738819" stroke-opacity="0.9024450614426666" transform="rotate(-124.0 400 300)" d="M 271,359  C 583,147 327,319 394,308 C 608,246 300,202 646,393 C 198,313 104,167 216,412 C 695,370 498,356 252,142 Z"></path>
<polygon stroke="#603809" stroke-width="2" fill="#2C919C" opacity="0.48070419907419787" stroke-opacity="0.3931477577337212" transform="rotate(143.0 400 300)" points="481 403 351 199 59 501 555 295 596 287 126 325 270 384 "></polygon>
<path stroke="#312BD5" stroke-width="2" fill="#7364D3" opacity="0.7823381360588175" stroke-opacity="0.5773894224331163" transform="rotate(-23.0 400 300)" d="M 153,352  C 612,440 590,110 639,377 C 554,335 658,400 468,342 C 522,357 383,171 320,290 C 119,306 674,299 392,221 C 467,345 381,500 451,122 C 278,125 628,443 604,282 Z"></path>
<path stroke="#7B7A82" stroke-width="2" fill="#04112B" opacity="0.7776111646077261" stroke-opacity="0.5211584334174737" transform="rotate(97.0 400 300)" d="M 393,354  C 563,435 436,271 450,199 C 199,143 450,188 236,333 C 677,320 397,143 429,219 C 229,232 137,477 171,219 C 187,360 166,209 544,274 C 373,394 648,333 473,316 C 493,462 429,191 327,405 C 105,153 593,378 232,344 C 629,340 220,384 405,181 C 186,351 161,177 533,349 C 484,443 648,230 395,156 Z"></path>
<path stroke="#9AB9B7" stroke-width="4" fill="#995649" opacity="0.10760957120236225" stroke-opacity="0.3533748884785564" transform="rotate(7.0 400 300)" d="M 435,275  C 606,376 562,281 447,121 C 516,404 487,205 637,349 C 251,217 391,135 369,261 C 140,245 595,482 230,214 C 254,445 244,462 374,130 C 238,108 397,325 507,321 C 424,364 186,176 152,347 C 278,195 334,260 190,399 C 563,474 505,157 491,421 C 305,226 285,194 394,153 Z"></path>

  </g>
</svg>
