<svg xmlns="http://www.w3.org/2000/svg" xmlns:xlink="http://www.w3.org/1999/xlink" width="800" height="600" version="1.1" viewBox="0 0 800 600"><g fill="none" fill-rule="evenodd" stroke="none" stroke-width="1"><path fill="#C57A9A" stroke="#B7A165" stroke-opacity=".505" stroke-width="7" d="M 677,153 C 402,221 479,278 167,427 C 357,460 629,434 473,399 C 687,239 434,146 201,161 C 206,243 583,222 473,219 C 214,328 567,465 572,427 C 522,314 697,159 456,333 C 273,114 508,229 362,137 C 561,213 103,113 513,400 C 225,260 252,491 223,409 C 338,301 607,163 312,407 C 153,478 154,240 566,104 Z" opacity=".512" transform="rotate(-26.0 400 300)"/><ellipse cx="275" cy="180" fill="#788CA3" stroke="#38A54D" stroke-opacity=".919" stroke-width="3" opacity=".969" rx="131" ry="313" transform="rotate(-145.0 400 300)"/><rect width="182" height="52" x="212" y="595" fill="#73211B" stroke="#B0D07A" stroke-opacity=".591" stroke-width="5" opacity=".413" transform="rotate(-145.0 400 300)"/><ellipse cx="40" cy="14" fill="#C50B12" stroke="#A5ABBA" stroke-opacity=".298" stroke-width="3" opacity=".442" rx="77" ry="63" transform="rotate(-70.0 400 300)"/><path fill="#BB8009" stroke="#847753" stroke-opacity=".902" stroke-width="6" d="M 271,359 C 583,147 327,319 394,308 C 608,246 300,202 646,393 C 198,313 104,167 216,412 C 695,370 498,356 252,142 Z" opacity=".974" transform="rotate(-124.0 400 300)"/><polygon fill="#2C919C" stroke="#603809" stroke-opacity=".393" stroke-width="2" points="481 403 351 199 59 501 555 295 596 287 126 325 270 384" opacity=".481" transform="rotate(143.0 400 300)"/><path fill="#7364D3" stroke="#312BD5" stroke-opacity=".577" stroke-width="2" d="M 153,352 C 612,440 590,110 639,377 C 554,335 658,400 468,342 C 522,357 383,171 320,290 C 119,306 674,299 392,221 C 467,345 381,500 451,122 C 278,125 628,443 604,282 Z" opacity=".782" transform="rotate(-23.0 400 300)"/><path fill="#04112B" stroke="#7B7A82" stroke-opacity=".521" stroke-width="2" d="M 393,354 C 563,435 436,271 450,199 C 199,143 450,188 236,333 C 677,320 397,143 429,219 C 229,232 137,477 171,219 C 187,360 166,209 544,274 C 373,394 648,333 473,316 C 493,462 429,191 327,405 C 105,153 593,378 232,344 C 629,340 220,384 405,181 C 186,351 161,177 533,349 C 484,443 648,230 395,156 Z" opacity=".778" transform="rotate(97.0 400 300)"/><path fill="#995649" stroke="#9AB9B7" stroke-opacity=".353" stroke-width="4" d="M 435,275 C 606,376 562,281 447,121 C 516,404 487,205 637,349 C 251,217 391,135 369,261 C 140,245 595,482 230,214 C 254,445 244,462 374,130 C 238,108 397,325 507,321 C 424,364 186,176 152,347 C 278,195 334,260 190,399 C 563,474 505,157 491,421 C 305,226 285,194 394,153 Z" opacity=".108" transform="rotate(7.0 400 300)"/></g></svg>