<svg xmlns="http://www.w3.org/2000/svg" xmlns:xlink="http://www.w3.org/1999/xlink" width="800" height="600" version="1.1" viewBox="0 0 800 600"><g fill="none" fill-rule="evenodd" stroke="none" stroke-width="1"><rect width="164" height="346" x="672" y="322" fill="#f27630" stroke="#f27630" stroke-opacity=".019" stroke-width="7" opacity=".187" transform="rotate(-60.0 400 300)"/><ellipse cx="535" cy="212" fill="#ed2b2c" stroke="#f27630" stroke-opacity=".795" stroke-width="1" opacity=".657" rx="345" ry="153" transform="rotate(-95.0 400 300)"/><polygon fill="#f27630" stroke="#2b55f7" stroke-opacity=".164" stroke-width="5" points="734 131 59 469 26 339 207 132 285 600" opacity=".61" transform="rotate(153.0 400 300)"/><polygon fill="#31a06b" stroke="#f27630" stroke-opacity=".076" stroke-width="5" points="787 288 678 301 164 565 708 575 185 494 148 236 576 368 27 373" opacity=".197" transform="rotate(-114.0 400 300)"/><polygon fill="#f27630" stroke="#f9d84b" stroke-opacity=".381" stroke-width="5" points="108 296 107 370 212 279 67 73 637 417 318 15" opacity=".602" transform="rotate(-69.0 400 300)"/><path fill="#f9d84b" stroke="#ed2b2c" stroke-opacity=".744" stroke-width="6" d="M 403,160 C 413,486 551,229 345,197 C 681,112 283,108 182,331 C 280,140 673,192 464,330 C 178,164 581,448 666,186 C 655,246 567,123 102,424 C 620,171 288,110 681,311 Z" opacity=".717" transform="rotate(122.0 400 300)"/><ellipse cx="561" cy="498" fill="#f9d84b" stroke="#31a06b" stroke-opacity=".035" stroke-width="1" opacity=".843" rx="270" ry="45" transform="rotate(-50.0 400 300)"/><polygon fill="#f27630" stroke="#31a06b" stroke-opacity=".012" stroke-width="2" points="603 349 102 368 338 600 574 443 98 567" opacity=".412" transform="rotate(-85.0 400 300)"/><polygon fill="#f27630" stroke="#31a06b" stroke-opacity=".894" stroke-width="2" points="267 440 238 50 68 485 358 237 477 364 297 307 349 257 382 398" opacity=".089" transform="rotate(-28.0 400 300)"/></g></svg>