<?xml version="1.0" encoding="UTF-8"?>
<svg width="800px" height="600px" viewBox="0 0 800 600" version="1.1" xmlns="http://www.w3.org/2000/svg" xmlns:xlink="http://www.w3.org/1999/xlink">
  <defs></defs>
  <g stroke="none" stroke-width="1" fill="none" fill-rule="evenodd">
    
    <path stroke="#23461A" stroke-width="2" fill="#9C1965" opacity="0.12781397113618945" stroke-opacity="0.030385794059899586" transform="rotate(157.0 400 300)" d="M 646,165  C 149,179 297,126 155,393 C 660,205 505,255 507,390 C 398,240 329,255 364,494 C 121,360 677,126 633,159 C 165,322 359,254 525,158 Z"></path>
<path stroke="#B5C62A" stroke-width="5" fill="#80C04B" opacity="0.8208160113674344" stroke-opacity="0.5801780767082946" transform="rotate(-168.0 400 300)" d="M 520,301  C 236,457 430,150 568,246 C 605,329 618,248 139,166 C 315,359 365,359 675,325 C 529,336 545,370 129,474 C 602,210 169,139 540,127 C 461,472 565,261 217,119 Z"></path>
<path stroke="#61B6BC" stroke-width="6" fill="#2A8626" opacity="0.9119282237443983" stroke-opacity="0.2288761143074842" transform="rotate(-22.0 400 300)" d="M 493,230  C 482,191 519,424 186,267 C 289,169 276,300 676,276 C 589,365 162,491 211,471 C 238,457 136,327 396,334 C 185,112 277,416 489,209 C 517,159 529,402 326,380 C 431,254 509,356 246,365 Z"></path>
<path stroke="#1B4BBA" stroke-width="7" fill="#C1C318" opacity="0.43440065264800776" stroke-opacity="0.16189933419546068" transform="rotate(-64.0 400 300)" d="M 341,351  C 697,371 574,394 543,496 C 352,406 394,355 693,194 C 388,358 554,292 499,434 C 614,187 275,271 215,275 C 402,369 331,117 550,406 C 429,477 568,207 682,217 C 353,446 404,334 310,221 C 343,378 592,478 342,118 Z"></path>
<path stroke="#2726DC" stroke-width="5" fill="#2D3DB7" opacity="0.3438534173274183" stroke-opacity="0.18101656039172978" transform="rotate(4.0 400 300)" d="M 490,500  C 177,143 505,325 578,241 C 611,355 410,405 529,180 C 137,462 232,423 692,229 C 488,266 114,473 307,242 C 182,204 309,113 218,101 C 405,288 555,231 408,268 C 408,131 645,429 438,104 C 278,377 113,158 205,323 Z"></path>
<path stroke="#D84A5A" stroke-width="6" fill="#DB8C4C" opacity="0.6249596145252514" stroke-opacity="0.899470639799591" transform="rotate(-32.0 400 300)" d="M 230,454  C 118,315 291,144 683,162 C 531,327 147,261 658,115 C 410,464 134,371 349,381 C 262,298 372,117 283,362 C 611,135 324,241 508,169 C 569,301 322,452 440,319 C 117,421 693,220 343,486 C 383,387 125,431 476,203 C 278,441 244,129 280,419 Z"></path>
<path stroke="#D4C454" stroke-width="2" fill="#2C2598" opacity="0.7165811806496695" stroke-opacity="0.2512171463416709" transform="rotate(-143.0 400 300)" d="M 273,289  C 286,152 278,239 183,250 C 267,375 595,241 168,389 C 453,188 501,129 346,245 C 346,153 632,299 392,452 Z"></path>
<path stroke="#6B4016" stroke-width="7" fill="#3B65C6" opacity="0.9560750063774317" stroke-opacity="0.9566023931508312" transform="rotate(50.0 400 300)" d="M 634,394  C 659,442 628,309 254,425 C 134,145 144,483 564,413 C 419,258 341,123 409,256 C 342,104 239,345 550,345 C 516,234 621,300 415,351 C 180,258 648,137 243,355 C 140,156 405,419 157,365 C 484,322 405,193 491,179 C 554,210 376,156 642,384 C 283,320 643,499 158,322 Z"></path>
<path stroke="#27388D" stroke-width="7" fill="#04804D" opacity="0.3275533202603241" stroke-opacity="0.2953845820443883" transform="rotate(63.0 400 300)" d="M 609,495  C 179,152 279,114 293,481 C 146,191 565,173 518,360 C 126,356 586,475 413,141 C 342,167 373,333 149,442 C 496,219 400,185 411,228 C 392,250 466,441 285,496 C 656,282 118,255 250,173 C 363,192 154,460 190,388 C 257,293 163,431 346,390 C 406,272 591,174 519,255 Z"></path>
<path stroke="#19570C" stroke-width="3" fill="#B13CC6" opacity="0.2682385002604848" stroke-opacity="0.48623862094876324" transform="rotate(63.0 400 300)" d="M 111,220  C 577,288 152,465 277,187 C 567,366 541,365 339,199 C 397,275 117,267 473,300 C 295,343 354,152 284,364 C 345,288 212,134 424,232 C 539,192 525,435 448,392 C 683,367 539,370 683,111 C 680,288 287,487 333,367 C 169,488 440,315 214,289 C 138,197 252,377 518,490 Z"></path>

  </g>
</svg>
