<svg xmlns="http://www.w3.org/2000/svg" xmlns:xlink="http://www.w3.org/1999/xlink" width="800" height="600" version="1.1" viewBox="0 0 800 600"><g fill="none" fill-rule="evenodd" stroke="none" stroke-width="1"><ellipse cx="766" cy="63" fill="#f9d84b" stroke="#31a06b" stroke-opacity=".929" stroke-width="6" opacity=".71" rx="240" ry="128" transform="rotate(67.0 400 300)"/><path fill="#2b55f7" stroke="#f9d84b" stroke-opacity=".882" stroke-width="4" d="M 456,373 C 329,134 577,293 379,133 C 393,256 187,399 234,393 C 651,303 172,163 306,384 C 368,271 386,449 371,287 C 590,445 154,470 133,451 C 248,276 617,228 533,181 C 617,489 576,362 239,314 C 130,493 531,244 557,352 Z" opacity=".473" transform="rotate(11.0 400 300)"/><ellipse cx="443" cy="102" fill="#2b55f7" stroke="#31a06b" stroke-opacity=".673" stroke-width="2" opacity=".348" rx="173" ry="243" transform="rotate(163.0 400 300)"/><polygon fill="#f9d84b" stroke="#ed2b2c" stroke-opacity=".303" stroke-width="5" points="491 383 623 385 175 39 366 240 286 415 751 43 38 227 436 354" opacity=".287" transform="rotate(136.0 400 300)"/><ellipse cx="196" cy="478" fill="#ed2b2c" stroke="#2b55f7" stroke-opacity=".627" stroke-width="5" opacity=".507" rx="93" ry="322" transform="rotate(176.0 400 300)"/><polygon fill="#ed2b2c" stroke="#f9d84b" stroke-opacity=".157" stroke-width="1" points="241 243 749 85 169 173 475 522 315 478 211 84 659 509 701 200" opacity=".502" transform="rotate(-112.0 400 300)"/></g></svg>