<?xml version="1.0" encoding="UTF-8"?>
<svg width="800px" height="600px" viewBox="0 0 800 600" version="1.1" xmlns="http://www.w3.org/2000/svg" xmlns:xlink="http://www.w3.org/1999/xlink">
  <defs></defs>
  <g stroke="none" stroke-width="1" fill="none" fill-rule="evenodd">
    
    <ellipse stroke="#31a06b" stroke-width="6" fill="#f9d84b" opacity="0.7095428239374391" stroke-opacity="0.9288284777103929" transform="rotate(67.0 400 300)" cx="766" rx="240" cy="63" ry="128"></ellipse>
<path stroke="#f9d84b" stroke-width="4" fill="#2b55f7" opacity="0.47258960750958245" stroke-opacity="0.8818734033993952" transform="rotate(11.0 400 300)" d="M 456,373  C 329,134 577,293 379,133 C 393,256 187,399 234,393 C 651,303 172,163 306,384 C 368,271 386,449 371,287 C 590,445 154,470 133,451 C 248,276 617,228 533,181 C 617,489 576,362 239,314 C 130,493 531,244 557,352 Z"></path>
<ellipse stroke="#31a06b" stroke-width="2" fill="#2b55f7" opacity="0.3476531743571634" stroke-opacity="0.6725320497822936" transform="rotate(163.0 400 300)" cx="443" rx="173" cy="102" ry="243"></ellipse>
<polygon stroke="#ed2b2c" stroke-width="5" fill="#f9d84b" opacity="0.28685526505201214" stroke-opacity="0.3026573653203239" transform="rotate(136.0 400 300)" points="491 383 623 385 175 39 366 240 286 415 751 43 38 227 436 354 "></polygon>
<ellipse stroke="#2b55f7" stroke-width="5" fill="#ed2b2c" opacity="0.5069875327031595" stroke-opacity="0.6267547363980229" transform="rotate(176.0 400 300)" cx="196" rx="93" cy="478" ry="322"></ellipse>
<polygon stroke="#f9d84b" stroke-width="1" fill="#ed2b2c" opacity="0.5021065387033424" stroke-opacity="0.1566561118444566" transform="rotate(-112.0 400 300)" points="241 243 749 85 169 173 475 522 315 478 211 84 659 509 701 200 "></polygon>

  </g>
</svg>
