<?xml version="1.0" encoding="UTF-8"?>
<svg width="800px" height="600px" viewBox="0 0 800 600" version="1.1" xmlns="http://www.w3.org/2000/svg" xmlns:xlink="http://www.w3.org/1999/xlink">
  <defs></defs>
  <g stroke="none" stroke-width="1" fill="none" fill-rule="evenodd">
    
    <path stroke="#fe9225" stroke-width="4" fill="#f559a0" opacity="0.7577005915880022" stroke-opacity="0.866869336860426" transform="rotate(162.0 400 300)" d="M 113,238  C 611,272 602,385 289,147 C 172,393 355,458 521,198 C 157,113 109,249 695,305 C 225,491 267,171 548,204 Z"></path>
<path stroke="#02eb6b" stroke-width="2" fill="#0fa6d8" opacity="0.5779696322806271" stroke-opacity="0.9987579965455285" transform="rotate(6.0 400 300)" d="M 568,221  C 359,185 247,442 523,499 C 130,281 550,227 156,244 C 459,101 676,309 695,394 C 409,102 650,386 445,248 C 503,122 126,298 246,238 C 211,472 681,208 367,210 C 109,371 620,155 638,318 C 444,368 555,207 314,167 C 453,496 588,189 605,393 Z"></path>
<path stroke="#0fa6d8" stroke-width="6" fill="#02eb6b" opacity="0.4142666590437204" stroke-opacity="0.827433673910035" transform="rotate(-60.0 400 300)" d="M 326,375  C 622,312 587,154 647,246 C 286,181 378,293 409,107 C 167,126 383,365 372,349 C 498,356 247,342 629,154 C 679,292 368,116 141,201 C 316,322 507,419 329,199 C 411,367 541,161 586,248 C 433,425 270,429 525,129 C 413,234 581,411 582,447 Z"></path>
<path stroke="#2cd3f3" stroke-width="6" fill="#0fa6d8" opacity="0.37821691774559985" stroke-opacity="0.5703537994738742" transform="rotate(40.0 400 300)" d="M 280,313  C 647,300 383,391 229,291 C 239,183 355,143 179,210 C 127,158 606,291 332,374 C 131,454 699,195 189,338 C 514,360 103,173 272,468 C 319,487 658,324 434,338 C 155,231 529,387 166,420 C 219,307 448,302 215,273 Z"></path>
<path stroke="#fe9225" stroke-width="2" fill="#f559a0" opacity="0.0881517666473221" stroke-opacity="0.7150269076505015" transform="rotate(51.0 400 300)" d="M 608,311  C 422,290 271,193 412,332 C 143,108 326,425 661,344 C 219,299 114,377 577,200 C 188,381 489,284 174,285 C 244,346 430,123 398,232 C 188,170 268,249 692,489 C 253,232 639,322 289,312 C 562,192 218,437 115,359 C 534,281 360,229 425,445 Z"></path>
<path stroke="#fe9225" stroke-width="6" fill="#0fa6d8" opacity="0.43589689074752275" stroke-opacity="0.43576396728796823" transform="rotate(179.0 400 300)" d="M 531,126  C 638,197 138,375 403,234 C 596,299 290,205 104,305 C 520,106 578,235 251,242 C 688,369 611,219 107,181 C 433,243 355,127 412,376 Z"></path>

  </g>
</svg>
