<svg xmlns="http://www.w3.org/2000/svg" xmlns:xlink="http://www.w3.org/1999/xlink" width="800" height="600" version="1.1" viewBox="0 0 800 600"><g fill="none" fill-rule="evenodd" stroke="none" stroke-width="1"><ellipse cx="646" cy="351" fill="#65C02B" stroke="#D844C0" stroke-opacity=".771" stroke-width="1" opacity=".194" rx="65" ry="61" transform="rotate(-157.0 400 300)"/><ellipse cx="113" cy="100" fill="#AC08CC" stroke="#9CD936" stroke-opacity=".554" stroke-width="5" opacity=".335" rx="211" ry="125" transform="rotate(-6.0 400 300)"/><ellipse cx="735" cy="466" fill="#812BB2" stroke="#1734B2" stroke-opacity=".77" stroke-width="4" opacity=".857" rx="69" ry="131" transform="rotate(179.0 400 300)"/><path fill="#9235BA" stroke="#63452B" stroke-opacity=".597" stroke-width="3" d="M 104,479 C 578,333 344,254 689,107 C 576,271 401,159 394,362 C 199,381 403,102 307,277 C 129,166 676,484 238,139 C 470,374 274,450 184,114 C 206,311 521,494 401,232 C 662,379 272,262 674,124 C 362,313 358,256 365,146 C 677,148 507,302 330,107 Z" opacity=".374" transform="rotate(179.0 400 300)"/><path fill="#5D9696" stroke="#803395" stroke-opacity=".448" stroke-width="5" d="M 138,141 C 339,110 645,306 213,322 C 265,166 251,223 632,124 C 628,471 292,420 125,444 C 340,260 180,155 603,237 Z" opacity=".009" transform="rotate(87.0 400 300)"/><polygon fill="#B67DB7" stroke="#523763" stroke-opacity=".135" stroke-width="7" points="303 110 109 472 10 377 16 176 247 1 428 570 72 162 778 159" opacity=".899" transform="rotate(-118.0 400 300)"/></g></svg>