<?xml version="1.0" encoding="UTF-8"?>
<svg width="800px" height="600px" viewBox="0 0 800 600" version="1.1" xmlns="http://www.w3.org/2000/svg" xmlns:xlink="http://www.w3.org/1999/xlink">
  <defs></defs>
  <g stroke="none" stroke-width="1" fill="none" fill-rule="evenodd">
    
    <ellipse stroke="#D844C0" stroke-width="1" fill="#65C02B" opacity="0.1937561666580518" stroke-opacity="0.7707637614733096" transform="rotate(-157.0 400 300)" cx="646" rx="65" cy="351" ry="61"></ellipse>
<ellipse stroke="#9CD936" stroke-width="5" fill="#AC08CC" opacity="0.3346883830210224" stroke-opacity="0.5538488212692324" transform="rotate(-6.0 400 300)" cx="113" rx="211" cy="100" ry="125"></ellipse>
<ellipse stroke="#1734B2" stroke-width="4" fill="#812BB2" opacity="0.8574243161797509" stroke-opacity="0.7703688994696198" transform="rotate(179.0 400 300)" cx="735" rx="69" cy="466" ry="131"></ellipse>
<path stroke="#63452B" stroke-width="3" fill="#9235BA" opacity="0.3743538741181906" stroke-opacity="0.5971266125297183" transform="rotate(179.0 400 300)" d="M 104,479  C 578,333 344,254 689,107 C 576,271 401,159 394,362 C 199,381 403,102 307,277 C 129,166 676,484 238,139 C 470,374 274,450 184,114 C 206,311 521,494 401,232 C 662,379 272,262 674,124 C 362,313 358,256 365,146 C 677,148 507,302 330,107 Z"></path>
<path stroke="#803395" stroke-width="5" fill="#5D9696" opacity="0.008506197817557543" stroke-opacity="0.44834453230162913" transform="rotate(87.0 400 300)" d="M 138,141  C 339,110 645,306 213,322 C 265,166 251,223 632,124 C 628,471 292,420 125,444 C 340,260 180,155 603,237 Z"></path>
<polygon stroke="#523763" stroke-width="7" fill="#B67DB7" opacity="0.8987717491327432" stroke-opacity="0.13495073516803674" transform="rotate(-118.0 400 300)" points="303 110 109 472 10 377 16 176 247 1 428 570 72 162 778 159 "></polygon>

  </g>
</svg>
