<svg xmlns="http://www.w3.org/2000/svg" xmlns:xlink="http://www.w3.org/1999/xlink" width="800" height="600" version="1.1" viewBox="0 0 800 600"><g fill="none" fill-rule="evenodd" stroke="none" stroke-width="1"><path fill="#2cd3f3" stroke="#fe9225" stroke-opacity=".205" stroke-width="2" d="M 618,255 C 256,478 544,291 534,298 C 380,291 281,192 680,416 C 211,411 452,239 457,381 C 233,172 498,173 665,256 C 492,319 351,330 160,252 Z" opacity=".889" transform="rotate(-143.0 400 300)"/><path fill="#0fa6d8" stroke="#0fa6d8" stroke-opacity=".75" stroke-width="7" d="M 297,104 C 592,231 207,128 552,492 C 600,364 428,460 508,279 C 578,490 253,405 512,356 C 551,163 685,459 175,146 Z" opacity=".355" transform="rotate(-120.0 400 300)"/><path fill="#fe9225" stroke="#02eb6b" stroke-opacity=".572" stroke-width="2" d="M 400,144 C 383,285 101,434 257,310 C 407,173 187,162 529,177 C 635,231 180,298 670,440 C 606,207 194,126 553,465 C 323,447 486,307 559,475 C 569,469 421,444 672,471 C 241,413 104,137 316,322 Z" opacity=".416" transform="rotate(-82.0 400 300)"/><path fill="#fe9225" stroke="#0fa6d8" stroke-opacity=".898" stroke-width="1" d="M 346,254 C 251,274 331,372 322,111 C 382,365 670,448 655,108 C 608,293 523,307 674,417 C 341,302 180,400 474,427 Z" opacity=".339" transform="rotate(25.0 400 300)"/><path fill="#fe9225" stroke="#0fa6d8" stroke-opacity=".73" stroke-width="1" d="M 218,150 C 438,192 565,486 544,394 C 472,299 263,475 213,420 C 421,124 193,179 409,249 C 134,486 155,472 310,156 C 278,356 383,489 462,367 C 627,150 306,118 323,410 C 556,317 196,338 119,304 Z" opacity=".697" transform="rotate(3.0 400 300)"/><path fill="#f559a0" stroke="#02eb6b" stroke-opacity=".565" stroke-width="6" d="M 545,135 C 417,197 442,177 435,109 C 182,179 434,252 204,310 C 211,404 140,104 416,144 C 474,252 261,284 658,354 Z" opacity=".958" transform="rotate(28.0 400 300)"/><path fill="#2cd3f3" stroke="#2cd3f3" stroke-opacity=".916" stroke-width="1" d="M 201,293 C 327,202 645,320 514,391 C 637,127 164,420 388,475 C 237,467 166,177 462,326 C 643,271 592,296 380,103 C 465,417 184,340 239,328 C 698,462 694,497 461,395 C 251,291 424,184 508,454 C 330,201 677,276 519,394 C 635,334 171,145 263,377 C 200,295 555,365 407,176 Z" opacity=".263" transform="rotate(122.0 400 300)"/><path fill="#0fa6d8" stroke="#02eb6b" stroke-opacity=".011" stroke-width="6" d="M 435,289 C 591,414 474,351 163,413 C 316,445 269,466 396,266 C 493,474 445,422 177,149 C 342,426 125,133 511,278 C 352,451 560,249 543,499 C 599,103 426,141 622,240 C 595,186 120,215 436,492 C 479,272 696,332 388,352 Z" opacity=".109" transform="rotate(12.0 400 300)"/></g></svg>