<?xml version="1.0" encoding="UTF-8"?>
<svg width="800px" height="600px" viewBox="0 0 800 600" version="1.1" xmlns="http://www.w3.org/2000/svg" xmlns:xlink="http://www.w3.org/1999/xlink">
  <defs></defs>
  <g stroke="none" stroke-width="1" fill="none" fill-rule="evenodd">
    
    <path stroke="#fe9225" stroke-width="6" fill="#2cd3f3" opacity="0.5135530356597732" stroke-opacity="0.36940089595348824" transform="rotate(-174.0 400 300)" d="M 523,283  C 480,347 587,449 634,157 C 324,301 469,354 484,393 C 289,256 232,484 690,325 C 244,145 342,242 274,456 C 500,476 342,394 582,227 C 410,288 421,477 542,176 C 466,182 336,204 655,403 C 321,227 159,430 549,380 C 638,448 445,335 507,305 C 582,425 587,481 371,282 C 521,163 536,250 191,436 Z"></path>
<path stroke="#0fa6d8" stroke-width="3" fill="#0fa6d8" opacity="0.9529026516027141" stroke-opacity="0.9426300724909495" transform="rotate(-111.0 400 300)" d="M 579,129  C 505,330 424,347 584,455 C 184,285 670,109 268,411 C 109,186 235,493 439,396 C 613,134 172,368 618,320 C 417,261 202,268 598,198 C 318,185 243,204 389,118 C 148,125 304,191 642,265 C 582,362 126,485 579,483 Z"></path>
<path stroke="#2cd3f3" stroke-width="4" fill="#02eb6b" opacity="0.16055808977006236" stroke-opacity="0.17622031954584028" transform="rotate(-157.0 400 300)" d="M 385,258  C 496,479 513,377 182,453 C 634,180 593,372 216,469 C 183,337 554,440 433,261 C 219,198 455,380 294,242 C 160,397 114,417 601,379 C 492,386 516,429 626,369 C 632,299 629,124 160,124 C 321,470 557,227 392,380 C 536,142 470,225 627,114 C 239,292 358,497 491,314 Z"></path>
<path stroke="#f559a0" stroke-width="1" fill="#fe9225" opacity="0.20486070566365344" stroke-opacity="0.7592832273986644" transform="rotate(-29.0 400 300)" d="M 193,215  C 183,359 664,359 535,276 C 257,187 659,161 501,455 C 680,277 238,451 396,268 C 119,388 357,129 433,267 C 663,225 626,430 437,105 C 690,472 699,397 441,220 C 317,469 328,102 487,197 C 695,218 296,461 655,233 C 463,335 237,133 184,425 C 685,334 116,198 330,448 C 365,403 453,473 582,277 Z"></path>
<path stroke="#fe9225" stroke-width="4" fill="#f559a0" opacity="0.3849155024598427" stroke-opacity="0.7511410387406798" transform="rotate(160.0 400 300)" d="M 523,375  C 445,115 311,265 565,267 C 126,121 617,126 238,425 C 364,112 544,198 538,131 C 483,268 661,188 641,230 C 317,284 434,210 617,489 C 483,196 464,102 409,406 C 386,163 365,267 426,161 Z"></path>
<path stroke="#f559a0" stroke-width="3" fill="#fe9225" opacity="0.46495940368863736" stroke-opacity="0.725263723217442" transform="rotate(-54.0 400 300)" d="M 308,136  C 318,452 177,366 316,438 C 513,497 567,403 603,294 C 563,241 415,404 327,298 C 352,320 609,274 670,158 C 485,465 226,111 457,247 Z"></path>
<path stroke="#fe9225" stroke-width="4" fill="#0fa6d8" opacity="0.6308464614383885" stroke-opacity="0.9558579948151613" transform="rotate(-114.0 400 300)" d="M 150,138  C 293,308 527,379 110,333 C 309,448 151,217 542,154 C 618,220 343,426 198,296 C 197,458 400,175 423,200 C 189,112 214,341 387,108 C 306,288 121,280 509,206 C 685,204 686,323 110,394 C 346,443 324,365 641,215 Z"></path>
<path stroke="#f559a0" stroke-width="5" fill="#02eb6b" opacity="0.873444727100533" stroke-opacity="0.8227964504492439" transform="rotate(74.0 400 300)" d="M 471,330  C 130,312 501,259 654,374 C 300,432 378,104 414,458 C 271,251 649,318 143,169 C 316,323 544,195 416,193 C 332,282 562,443 652,432 C 362,379 129,235 676,113 C 275,382 640,124 380,102 C 540,381 205,155 474,299 C 374,375 545,168 343,486 Z"></path>
<path stroke="#2cd3f3" stroke-width="1" fill="#fe9225" opacity="0.7469091884184136" stroke-opacity="0.3663914637711893" transform="rotate(-45.0 400 300)" d="M 222,299  C 635,115 129,303 516,364 C 452,304 388,364 454,141 C 426,190 346,446 626,441 C 112,141 656,437 560,174 C 185,159 444,427 628,318 C 614,146 365,283 541,357 C 421,387 499,217 554,401 C 374,336 677,481 489,406 C 602,464 213,168 139,182 C 593,323 658,482 304,276 Z"></path>
<path stroke="#2cd3f3" stroke-width="7" fill="#f559a0" opacity="0.9094433770810362" stroke-opacity="0.5808652187547377" transform="rotate(109.0 400 300)" d="M 679,211  C 590,163 176,152 149,256 C 552,330 483,336 111,355 C 619,235 505,418 370,206 C 226,431 486,457 129,232 C 271,208 587,392 296,492 C 198,235 331,460 440,383 C 500,467 586,185 390,317 C 559,118 680,212 343,359 C 626,147 183,439 700,324 Z"></path>

  </g>
</svg>
