<?xml version="1.0" encoding="UTF-8"?>
<svg width="800px" height="600px" viewBox="0 0 800 600" version="1.1" xmlns="http://www.w3.org/2000/svg" xmlns:xlink="http://www.w3.org/1999/xlink">
  <defs></defs>
  <g stroke="none" stroke-width="1" fill="none" fill-rule="evenodd">
    
    <path stroke="#f559a0" stroke-width="6" fill="#fe9225" opacity="0.35144275286630117" stroke-opacity="0.955052405625219" transform="rotate(-71.0 400 300)" d="M 278,143  C 245,319 546,214 311,203 C 524,219 343,225 437,232 C 398,234 105,414 685,247 C 502,487 210,335 640,143 C 686,448 394,253 383,437 Z"></path>
<path stroke="#0fa6d8" stroke-width="5" fill="#2cd3f3" opacity="0.02179704500052709" stroke-opacity="0.32056515821919584" transform="rotate(-109.0 400 300)" d="M 657,353  C 489,297 462,385 657,270 C 675,135 303,201 222,381 C 167,138 576,116 173,328 C 208,200 373,407 500,372 C 516,276 294,467 105,415 C 306,112 455,467 360,105 Z"></path>
<path stroke="#f559a0" stroke-width="1" fill="#2cd3f3" opacity="0.22678993041260714" stroke-opacity="0.6177871704003436" transform="rotate(-37.0 400 300)" d="M 113,240  C 105,163 437,162 463,240 C 626,455 464,406 327,161 C 437,110 359,148 205,151 C 525,463 183,335 359,491 C 277,229 536,111 508,250 C 261,345 492,336 192,393 C 325,202 675,348 445,472 C 304,226 531,368 372,275 C 113,261 398,155 572,190 Z"></path>
<path stroke="#02eb6b" stroke-width="4" fill="#02eb6b" opacity="0.2766319310355617" stroke-opacity="0.7959951158611432" transform="rotate(-58.0 400 300)" d="M 628,481  C 457,161 587,214 401,227 C 106,246 275,157 152,357 C 293,442 639,278 290,159 C 270,339 131,476 151,223 C 543,391 463,213 517,122 C 461,329 101,232 262,338 C 315,114 295,425 467,478 C 554,106 398,316 567,342 C 372,259 483,134 642,224 C 242,272 344,375 521,204 Z"></path>
<path stroke="#f559a0" stroke-width="6" fill="#0fa6d8" opacity="0.8226903253417652" stroke-opacity="0.2667073818623729" transform="rotate(-146.0 400 300)" d="M 602,492  C 256,339 589,402 291,403 C 507,145 180,345 521,241 C 157,161 634,122 655,480 C 319,165 373,486 570,130 C 184,294 118,197 127,158 C 235,283 558,346 690,192 C 599,178 108,113 375,252 C 533,204 431,347 143,161 C 632,135 690,362 167,132 C 279,397 179,169 143,217 Z"></path>
<path stroke="#0fa6d8" stroke-width="4" fill="#02eb6b" opacity="0.9415243065411879" stroke-opacity="0.26378894543128406" transform="rotate(163.0 400 300)" d="M 529,436  C 188,487 288,368 497,418 C 346,454 165,382 626,296 C 201,253 645,472 529,192 C 211,344 243,478 673,461 C 273,113 258,146 431,145 C 382,324 119,135 388,435 C 104,450 632,306 686,392 C 269,425 524,162 619,296 C 180,341 586,311 440,319 C 634,203 107,454 686,204 C 502,306 331,247 140,206 Z"></path>
<path stroke="#fe9225" stroke-width="1" fill="#f559a0" opacity="0.487996264502755" stroke-opacity="0.5411865360410593" transform="rotate(-143.0 400 300)" d="M 404,483  C 278,303 590,489 424,221 C 275,354 304,316 194,413 C 417,231 445,500 471,162 C 273,239 606,332 573,271 C 564,468 438,316 671,264 C 532,237 128,269 544,495 C 328,173 432,360 331,370 C 689,301 455,117 688,275 C 475,225 584,397 529,423 C 336,340 377,278 203,493 C 345,115 583,290 242,262 Z"></path>
<path stroke="#2cd3f3" stroke-width="5" fill="#02eb6b" opacity="0.6132300971412455" stroke-opacity="0.2180730459452319" transform="rotate(159.0 400 300)" d="M 283,138  C 134,398 311,110 430,277 C 146,392 231,331 204,142 C 581,268 379,204 462,435 C 410,271 584,383 565,225 C 251,207 123,245 160,439 C 611,342 264,217 322,374 C 275,240 167,254 579,113 C 579,189 128,235 548,249 C 382,449 323,328 431,345 C 384,375 270,181 566,329 C 207,426 626,172 547,319 Z"></path>
<path stroke="#f559a0" stroke-width="2" fill="#2cd3f3" opacity="0.1321647299023973" stroke-opacity="0.3279476376897398" transform="rotate(-31.0 400 300)" d="M 666,424  C 681,127 442,117 566,291 C 614,148 469,246 679,280 C 443,391 160,370 474,215 C 270,429 313,142 696,207 C 640,469 516,161 473,290 C 326,461 323,209 344,282 C 236,292 222,153 188,170 C 160,445 326,242 396,309 C 456,475 521,173 584,116 C 468,294 543,436 655,192 C 687,263 634,367 215,171 Z"></path>
<path stroke="#02eb6b" stroke-width="7" fill="#02eb6b" opacity="0.9506472896983884" stroke-opacity="0.8987380667482793" transform="rotate(-81.0 400 300)" d="M 295,440  C 604,434 692,202 250,257 C 637,382 236,427 538,337 C 490,105 629,270 160,326 C 523,300 588,454 408,272 C 465,288 245,374 233,488 C 452,433 433,255 388,279 C 264,430 312,107 423,349 C 234,108 344,278 172,134 C 511,311 474,242 380,368 Z"></path>

  </g>
</svg>
