<?xml version="1.0" encoding="UTF-8"?>
<svg width="800px" height="600px" viewBox="0 0 800 600" version="1.1" xmlns="http://www.w3.org/2000/svg" xmlns:xlink="http://www.w3.org/1999/xlink">
  <defs></defs>
  <g stroke="none" stroke-width="1" fill="none" fill-rule="evenodd">
    
    <path stroke="#2b55f7" stroke-width="5" fill="#ed2b2c" opacity="0.09587640380861007" stroke-opacity="0.5977570679188441" transform="rotate(110.0 400 300)" d="M 259,165  C 654,305 644,306 350,457 C 374,111 482,286 606,225 C 306,356 224,177 326,154 C 361,186 101,371 433,109 C 181,243 245,379 576,345 C 289,142 360,205 583,363 C 654,469 259,175 337,357 C 493,211 427,436 104,122 C 182,169 311,157 412,359 C 443,360 331,303 192,124 C 131,318 214,135 429,129 Z"></path>
<path stroke="#2b55f7" stroke-width="1" fill="#f9d84b" opacity="0.8146052436183618" stroke-opacity="0.7835982908617519" transform="rotate(-8.0 400 300)" d="M 499,334  C 181,212 368,289 319,452 C 107,304 574,296 693,147 C 697,313 564,477 274,216 C 624,356 699,168 642,106 C 690,164 498,277 579,322 C 655,472 190,355 616,452 C 257,236 135,297 334,387 C 612,254 234,266 471,296 C 109,157 535,246 510,305 Z"></path>
<path stroke="#f9d84b" stroke-width="1" fill="#ed2b2c" opacity="0.17361570045640212" stroke-opacity="0.32928855048799033" transform="rotate(-86.0 400 300)" d="M 283,279  C 687,150 697,343 131,303 C 385,156 446,307 212,204 C 403,281 385,449 351,240 C 160,171 604,129 444,493 C 144,248 261,293 137,424 C 484,238 200,222 423,457 Z"></path>
<path stroke="#2b55f7" stroke-width="4" fill="#2b55f7" opacity="0.47148890345668854" stroke-opacity="0.671219180433598" transform="rotate(-20.0 400 300)" d="M 376,118  C 533,329 215,441 422,279 C 371,324 366,291 104,278 C 568,289 281,191 236,466 C 582,367 101,372 478,393 C 316,492 492,356 328,322 C 330,483 466,302 128,257 C 231,224 698,442 157,283 C 670,131 349,357 275,107 C 318,452 572,210 404,270 C 580,411 428,237 217,496 C 251,240 697,431 158,475 Z"></path>
<path stroke="#ed2b2c" stroke-width="6" fill="#f9d84b" opacity="0.020421478529368313" stroke-opacity="0.5194048449800601" transform="rotate(27.0 400 300)" d="M 356,217  C 541,145 152,197 237,199 C 405,473 265,475 620,187 C 159,138 178,294 571,143 C 487,302 346,238 305,141 C 144,129 286,486 210,407 C 506,161 134,218 455,265 C 350,365 214,466 509,135 Z"></path>
<path stroke="#31a06b" stroke-width="6" fill="#f27630" opacity="0.5902610135512885" stroke-opacity="0.7999311935042441" transform="rotate(108.0 400 300)" d="M 277,250  C 563,134 142,450 568,241 C 500,413 430,327 437,474 C 208,298 650,434 227,188 C 286,342 440,128 478,238 C 441,261 527,238 509,423 C 288,129 203,293 619,194 C 431,320 460,468 237,257 C 589,480 226,440 545,344 C 519,341 372,236 491,413 Z"></path>
<path stroke="#ed2b2c" stroke-width="6" fill="#ed2b2c" opacity="0.9837222458148627" stroke-opacity="0.07100238887341327" transform="rotate(123.0 400 300)" d="M 579,436  C 294,360 581,353 636,410 C 282,404 463,312 182,235 C 450,238 141,123 544,370 C 491,440 388,312 271,408 C 287,461 210,481 280,149 C 321,245 421,149 669,347 C 691,225 686,239 700,401 C 503,120 408,212 474,133 Z"></path>
<path stroke="#31a06b" stroke-width="1" fill="#31a06b" opacity="0.9906064723665803" stroke-opacity="0.6051720840552277" transform="rotate(75.0 400 300)" d="M 242,265  C 394,472 206,326 357,106 C 440,427 450,166 372,340 C 613,463 638,291 274,309 C 685,322 116,298 380,316 C 669,214 321,428 362,164 C 235,465 628,476 407,375 C 226,415 463,199 112,399 C 161,250 408,391 485,298 Z"></path>

  </g>
</svg>
