<?xml version="1.0" encoding="UTF-8"?>
<svg width="800px" height="600px" viewBox="0 0 800 600" version="1.1" xmlns="http://www.w3.org/2000/svg" xmlns:xlink="http://www.w3.org/1999/xlink">
  <defs></defs>
  <g stroke="none" stroke-width="1" fill="none" fill-rule="evenodd">
    
    <path stroke="#f559a0" stroke-width="5" fill="#2cd3f3" opacity="0.5173804475967666" stroke-opacity="0.7123935064408324" transform="rotate(-80.0 400 300)" d="M 490,207  C 349,326 496,121 215,452 C 113,269 449,280 163,114 C 351,336 662,414 445,447 C 607,307 644,239 298,391 C 617,135 353,280 230,239 C 585,253 698,245 634,403 C 103,432 206,181 141,335 Z"></path>
<path stroke="#2cd3f3" stroke-width="2" fill="#2cd3f3" opacity="0.24142946590989797" stroke-opacity="0.9195773940810907" transform="rotate(-37.0 400 300)" d="M 174,157  C 378,102 110,444 372,337 C 471,340 158,358 327,338 C 439,295 337,237 540,373 C 246,437 413,465 125,465 C 207,369 274,117 356,113 C 279,105 118,218 416,286 C 287,382 593,156 482,103 C 547,439 414,117 577,498 C 282,114 348,412 339,332 C 142,248 672,280 567,331 Z"></path>
<path stroke="#0fa6d8" stroke-width="4" fill="#fe9225" opacity="0.7794164463021503" stroke-opacity="0.8534603546428986" transform="rotate(56.0 400 300)" d="M 518,478  C 586,133 219,253 690,177 C 613,388 186,102 189,103 C 235,480 657,435 418,362 C 143,164 560,193 677,318 Z"></path>
<path stroke="#02eb6b" stroke-width="2" fill="#f559a0" opacity="0.5976071322835732" stroke-opacity="0.46348734417233706" transform="rotate(156.0 400 300)" d="M 634,136  C 616,338 526,130 231,175 C 244,138 395,420 133,357 C 354,463 555,202 237,481 C 296,420 622,445 312,251 C 212,128 376,320 352,359 C 179,302 320,195 482,160 Z"></path>
<path stroke="#2cd3f3" stroke-width="1" fill="#0fa6d8" opacity="0.6684884350605481" stroke-opacity="0.691768054397275" transform="rotate(112.0 400 300)" d="M 587,216  C 696,431 331,387 207,337 C 321,313 425,294 271,133 C 235,458 316,433 401,494 C 162,319 524,419 277,493 C 677,353 238,280 316,296 Z"></path>
<path stroke="#fe9225" stroke-width="1" fill="#02eb6b" opacity="0.7011010979894663" stroke-opacity="0.9169150706343905" transform="rotate(62.0 400 300)" d="M 528,490  C 150,415 461,333 251,340 C 164,488 200,359 278,252 C 360,386 497,467 621,360 C 518,239 313,494 405,216 C 700,197 331,171 535,347 C 360,263 417,280 210,333 C 402,365 537,493 124,230 Z"></path>
<path stroke="#f559a0" stroke-width="6" fill="#fe9225" opacity="0.33782266077706286" stroke-opacity="0.9304393552057987" transform="rotate(17.0 400 300)" d="M 546,410  C 596,445 625,130 462,493 C 184,366 542,402 274,362 C 342,342 575,414 482,496 C 309,282 369,202 359,253 C 612,467 605,160 635,226 C 102,445 409,405 592,374 Z"></path>
<path stroke="#2cd3f3" stroke-width="2" fill="#f559a0" opacity="0.7428861516664064" stroke-opacity="0.1648063002317865" transform="rotate(-58.0 400 300)" d="M 625,130  C 270,182 543,281 656,201 C 635,220 538,442 695,296 C 353,466 579,102 328,125 C 161,270 332,125 605,237 C 295,452 274,271 287,432 C 460,110 285,254 392,348 C 644,154 516,339 485,212 Z"></path>

  </g>
</svg>
