<svg xmlns="http://www.w3.org/2000/svg" xmlns:xlink="http://www.w3.org/1999/xlink" width="800" height="600" version="1.1" viewBox="0 0 800 600"><g fill="none" fill-rule="evenodd" stroke="none" stroke-width="1"><polygon fill="#2b55f7" stroke="#31a06b" stroke-opacity=".397" stroke-width="5" points="165 236 458 361 198 428 403 554 572 50 516 55" opacity=".685" transform="rotate(100.0 400 300)"/><ellipse cx="490" cy="451" fill="#2b55f7" stroke="#31a06b" stroke-opacity=".694" stroke-width="1" opacity=".098" rx="189" ry="97" transform="rotate(-130.0 400 300)"/><path fill="#f9d84b" stroke="#31a06b" stroke-opacity=".035" stroke-width="6" d="M 259,253 C 494,301 254,419 138,396 C 650,451 569,105 646,453 C 434,178 676,449 507,319 C 450,169 314,160 658,471 C 343,239 177,147 151,145 C 327,360 355,222 506,118 C 151,172 566,493 584,460 C 381,318 229,292 107,246 C 669,298 556,157 515,496 Z" opacity=".921" transform="rotate(-102.0 400 300)"/><path fill="#ed2b2c" stroke="#ed2b2c" stroke-opacity=".114" stroke-width="2" d="M 318,370 C 440,498 655,457 211,150 C 211,113 589,443 515,353 C 553,280 370,164 480,307 C 337,172 465,341 244,472 C 673,448 540,106 656,357 C 518,119 560,464 575,390 C 296,416 296,269 197,102 C 231,452 213,173 334,473 C 278,315 245,150 393,131 Z" opacity=".978" transform="rotate(-59.0 400 300)"/><polygon fill="#f27630" stroke="#ed2b2c" stroke-opacity=".819" stroke-width="1" points="307 542 669 16 404 208 209 11 671 146 789 574" opacity=".07" transform="rotate(-115.0 400 300)"/><polygon fill="#ed2b2c" stroke="#f9d84b" stroke-opacity=".459" stroke-width="2" points="141 241 225 463 372 287 207 21 382 567 565 228" opacity=".952" transform="rotate(86.0 400 300)"/><polygon fill="#f9d84b" stroke="#2b55f7" stroke-opacity=".625" stroke-width="4" points="621 209 119 460 617 84 155 469 110 309" opacity=".521" transform="rotate(-1.0 400 300)"/></g></svg>