<svg xmlns="http://www.w3.org/2000/svg" xmlns:xlink="http://www.w3.org/1999/xlink" width="800" height="600" version="1.1" viewBox="0 0 800 600"><g fill="none" fill-rule="evenodd" stroke="none" stroke-width="1"><path fill="#f9d84b" stroke="#ed2b2c" stroke-opacity=".939" stroke-width="6" d="M 385,339 C 615,320 596,149 626,209 C 641,147 674,399 236,124 C 522,339 380,425 500,140 C 433,348 187,146 494,280 C 518,181 322,492 547,107 Z" opacity=".787" transform="rotate(127.0 400 300)"/><rect width="235" height="49" x="472" y="57" fill="#31a06b" stroke="#f27630" stroke-opacity=".158" stroke-width="5" opacity=".049" transform="rotate(-116.0 400 300)"/><rect width="309" height="22" x="728" y="305" fill="#f27630" stroke="#31a06b" stroke-opacity=".264" stroke-width="2" opacity=".394" transform="rotate(-156.0 400 300)"/><polygon fill="#2b55f7" stroke="#f27630" stroke-opacity=".339" stroke-width="6" points="612 47 714 170 396 308 628 277 72 128 691 486" opacity=".94" transform="rotate(-175.0 400 300)"/><rect width="208" height="213" x="395" y="381" fill="#f9d84b" stroke="#f27630" stroke-opacity=".813" stroke-width="2" opacity=".074" transform="rotate(75.0 400 300)"/><path fill="#f9d84b" stroke="#f9d84b" stroke-opacity=".433" stroke-width="2" d="M 688,345 C 413,296 354,404 400,471 C 150,300 485,148 129,318 C 156,309 606,127 332,247 C 579,439 388,250 281,456 C 339,359 135,139 414,246 C 398,315 244,332 339,439 Z" opacity=".312" transform="rotate(-7.0 400 300)"/></g></svg>