<?xml version="1.0" encoding="UTF-8"?>
<svg width="800px" height="600px" viewBox="0 0 800 600" version="1.1" xmlns="http://www.w3.org/2000/svg" xmlns:xlink="http://www.w3.org/1999/xlink">
  <defs></defs>
  <g stroke="none" stroke-width="1" fill="none" fill-rule="evenodd">
    
    <rect stroke="#02eb6b" stroke-width="7" fill="#fe9225" opacity="4.850662829414905e-05" stroke-opacity="0.8917952733778958" transform="rotate(146.0 400 300)" x="38" y="271" width="294" height="398"></rect>
<ellipse stroke="#02eb6b" stroke-width="7" fill="#0fa6d8" opacity="0.036323983963771754" stroke-opacity="0.16700357701615529" transform="rotate(-119.0 400 300)" cx="679" rx="81" cy="241" ry="271"></ellipse>
<rect stroke="#2cd3f3" stroke-width="7" fill="#0fa6d8" opacity="0.9539373523347515" stroke-opacity="0.41861916228009405" transform="rotate(-33.0 400 300)" x="520" y="67" width="198" height="181"></rect>
<ellipse stroke="#2cd3f3" stroke-width="3" fill="#2cd3f3" opacity="0.01826293283081453" stroke-opacity="0.5500586407705936" transform="rotate(171.0 400 300)" cx="579" rx="183" cy="314" ry="301"></ellipse>
<rect stroke="#2cd3f3" stroke-width="6" fill="#0fa6d8" opacity="0.15736010937293013" stroke-opacity="0.8310072010653436" transform="rotate(67.0 400 300)" x="759" y="50" width="71" height="360"></rect>
<rect stroke="#f559a0" stroke-width="7" fill="#02eb6b" opacity="0.7271573697682531" stroke-opacity="0.7191294193963937" transform="rotate(-114.0 400 300)" x="245" y="76" width="217" height="140"></rect>
<ellipse stroke="#0fa6d8" stroke-width="3" fill="#fe9225" opacity="0.8562859684084586" stroke-opacity="0.49572261821438324" transform="rotate(114.0 400 300)" cx="761" rx="438" cy="235" ry="329"></ellipse>
<polygon stroke="#0fa6d8" stroke-width="4" fill="#02eb6b" opacity="0.18556368521546796" stroke-opacity="0.09555368671712051" transform="rotate(45.0 400 300)" points="119 536 562 326 171 457 475 536 510 469 "></polygon>

  </g>
</svg>
