<svg xmlns="http://www.w3.org/2000/svg" xmlns:xlink="http://www.w3.org/1999/xlink" width="800" height="600" version="1.1" viewBox="0 0 800 600"><g fill="none" fill-rule="evenodd" stroke="none" stroke-width="1"><rect width="294" height="398" x="38" y="271" fill="#fe9225" stroke="#02eb6b" stroke-opacity=".892" stroke-width="7" opacity="0" transform="rotate(146.0 400 300)"/><ellipse cx="679" cy="241" fill="#0fa6d8" stroke="#02eb6b" stroke-opacity=".167" stroke-width="7" opacity=".036" rx="81" ry="271" transform="rotate(-119.0 400 300)"/><rect width="198" height="181" x="520" y="67" fill="#0fa6d8" stroke="#2cd3f3" stroke-opacity=".419" stroke-width="7" opacity=".954" transform="rotate(-33.0 400 300)"/><ellipse cx="579" cy="314" fill="#2cd3f3" stroke="#2cd3f3" stroke-opacity=".55" stroke-width="3" opacity=".018" rx="183" ry="301" transform="rotate(171.0 400 300)"/><rect width="71" height="360" x="759" y="50" fill="#0fa6d8" stroke="#2cd3f3" stroke-opacity=".831" stroke-width="6" opacity=".157" transform="rotate(67.0 400 300)"/><rect width="217" height="140" x="245" y="76" fill="#02eb6b" stroke="#f559a0" stroke-opacity=".719" stroke-width="7" opacity=".727" transform="rotate(-114.0 400 300)"/><ellipse cx="761" cy="235" fill="#fe9225" stroke="#0fa6d8" stroke-opacity=".496" stroke-width="3" opacity=".856" rx="438" ry="329" transform="rotate(114.0 400 300)"/><polygon fill="#02eb6b" stroke="#0fa6d8" stroke-opacity=".096" stroke-width="4" points="119 536 562 326 171 457 475 536 510 469" opacity=".186" transform="rotate(45.0 400 300)"/></g></svg>