<?xml version="1.0" encoding="UTF-8"?>
<svg width="800px" height="600px" viewBox="0 0 800 600" version="1.1" xmlns="http://www.w3.org/2000/svg" xmlns:xlink="http://www.w3.org/1999/xlink">
  <defs></defs>
  <g stroke="none" stroke-width="1" fill="none" fill-rule="evenodd">
    
    <path stroke="#f27630" stroke-width="1" fill="#2b55f7" opacity="0.6388047639031964" stroke-opacity="0.027000460462494737" transform="rotate(-175.0 400 300)" d="M 156,218  C 306,461 326,327 114,125 C 195,160 439,469 569,114 C 635,428 613,440 415,348 C 274,128 123,350 666,329 C 481,210 551,270 287,369 Z"></path>
<path stroke="#ed2b2c" stroke-width="7" fill="#f27630" opacity="0.22065243909487725" stroke-opacity="0.8579298645183049" transform="rotate(96.0 400 300)" d="M 436,209  C 324,440 482,150 318,165 C 686,161 556,355 250,323 C 479,395 308,203 229,241 C 341,261 244,122 207,163 C 304,317 274,321 668,335 C 316,246 356,291 590,432 C 293,425 641,160 384,251 C 285,167 565,461 324,439 Z"></path>
<path stroke="#ed2b2c" stroke-width="7" fill="#f9d84b" opacity="0.4660671859164917" stroke-opacity="0.16368003905425724" transform="rotate(150.0 400 300)" d="M 570,401  C 194,136 305,307 247,118 C 520,394 662,430 646,281 C 278,282 531,186 221,249 C 637,164 584,377 272,232 C 559,302 105,406 658,325 C 554,127 577,110 109,292 C 352,299 579,166 378,462 C 187,371 592,395 314,436 C 349,191 342,144 150,251 C 676,157 592,157 198,309 C 192,315 377,201 457,318 Z"></path>
<path stroke="#31a06b" stroke-width="2" fill="#ed2b2c" opacity="0.858725191596111" stroke-opacity="0.7258299572925446" transform="rotate(15.0 400 300)" d="M 540,277  C 197,271 254,101 624,229 C 254,357 270,109 508,482 C 617,227 424,366 447,285 C 585,499 148,351 149,283 C 262,161 288,263 328,237 C 152,305 446,332 470,399 C 103,254 693,173 212,331 C 318,434 636,195 583,260 C 518,377 603,353 330,477 Z"></path>
<path stroke="#2b55f7" stroke-width="4" fill="#2b55f7" opacity="0.5831613321902781" stroke-opacity="0.8974041238533839" transform="rotate(83.0 400 300)" d="M 547,276  C 261,405 105,237 293,317 C 185,180 344,427 315,468 C 436,326 441,211 193,256 C 642,237 346,417 578,333 C 555,247 524,448 355,402 Z"></path>
<path stroke="#f27630" stroke-width="7" fill="#f27630" opacity="0.8948835765817019" stroke-opacity="0.037124013937027" transform="rotate(12.0 400 300)" d="M 348,482  C 689,118 594,156 519,189 C 439,148 370,337 549,495 C 353,353 641,365 510,257 C 355,464 191,166 186,500 C 492,340 254,121 205,377 C 648,449 558,488 173,354 C 693,150 400,147 642,296 C 305,366 416,384 320,333 C 642,239 324,170 646,225 C 627,309 599,402 420,119 C 177,114 487,394 593,242 Z"></path>
<path stroke="#31a06b" stroke-width="7" fill="#f27630" opacity="0.7978281430066636" stroke-opacity="0.5028472274379152" transform="rotate(-88.0 400 300)" d="M 624,184  C 107,259 148,499 208,352 C 103,358 382,393 672,137 C 154,222 184,367 551,344 C 497,405 664,458 152,347 C 419,383 507,258 232,317 Z"></path>
<path stroke="#31a06b" stroke-width="3" fill="#f27630" opacity="0.21751110706477264" stroke-opacity="0.704159432063031" transform="rotate(173.0 400 300)" d="M 655,451  C 136,143 353,116 247,244 C 179,244 694,145 447,484 C 366,241 126,309 629,108 C 221,223 253,494 217,276 C 551,445 277,460 509,436 C 301,193 619,187 204,321 C 538,279 470,468 286,408 C 545,306 613,165 372,149 Z"></path>

  </g>
</svg>
