<?xml version="1.0" encoding="UTF-8"?>
<svg width="800px" height="600px" viewBox="0 0 800 600" version="1.1" xmlns="http://www.w3.org/2000/svg" xmlns:xlink="http://www.w3.org/1999/xlink">
  <defs></defs>
  <g stroke="none" stroke-width="1" fill="none" fill-rule="evenodd">
    
    <rect stroke="#02eb6b" stroke-width="4" fill="#f559a0" opacity="0.7078816086461364" stroke-opacity="0.2093010931204466" transform="rotate(-71.0 400 300)" x="242" y="1" width="184" height="305"></rect>
<rect stroke="#2cd3f3" stroke-width="7" fill="#02eb6b" opacity="0.13933390101979562" stroke-opacity="0.8388964033206711" transform="rotate(-142.0 400 300)" x="251" y="579" width="128" height="148"></rect>
<path stroke="#fe9225" stroke-width="1" fill="#02eb6b" opacity="0.2199654530258868" stroke-opacity="0.47502522901783384" transform="rotate(-87.0 400 300)" d="M 639,415  C 171,220 250,476 372,475 C 651,179 586,316 391,417 C 133,313 488,128 135,361 C 427,288 553,151 661,350 C 456,267 357,166 235,409 Z"></path>
<path stroke="#fe9225" stroke-width="5" fill="#fe9225" opacity="0.3376371806259898" stroke-opacity="0.4210292310564786" transform="rotate(97.0 400 300)" d="M 161,132  C 632,299 590,449 518,255 C 478,254 404,417 539,183 C 545,320 207,179 563,206 C 651,427 655,296 268,315 C 588,477 349,101 297,394 C 611,189 106,391 245,113 C 409,248 693,254 357,302 Z"></path>
<path stroke="#0fa6d8" stroke-width="2" fill="#2cd3f3" opacity="0.7184482869635677" stroke-opacity="0.01231356117825478" transform="rotate(-34.0 400 300)" d="M 341,476  C 614,186 578,432 110,438 C 273,298 262,270 303,342 C 194,112 628,330 341,352 C 681,415 317,377 510,272 C 205,379 141,397 202,470 C 496,456 163,265 239,328 C 474,353 533,462 566,195 C 256,399 203,275 121,434 C 312,357 351,377 291,395 C 456,105 147,321 488,379 Z"></path>
<rect stroke="#f559a0" stroke-width="3" fill="#0fa6d8" opacity="0.9648736566023909" stroke-opacity="0.31763090591648896" transform="rotate(78.0 400 300)" x="664" y="393" width="23" height="221"></rect>
<polygon stroke="#02eb6b" stroke-width="1" fill="#fe9225" opacity="0.2937403331564837" stroke-opacity="0.36735285565840203" transform="rotate(43.0 400 300)" points="633 45 464 139 246 423 617 127 486 543 101 63 577 430 208 366 "></polygon>
<rect stroke="#0fa6d8" stroke-width="3" fill="#2cd3f3" opacity="0.07598328670313192" stroke-opacity="0.08853818259275865" transform="rotate(-175.0 400 300)" x="788" y="421" width="208" height="371"></rect>
<rect stroke="#f559a0" stroke-width="2" fill="#f559a0" opacity="0.6435469329021569" stroke-opacity="0.6580703195563538" transform="rotate(-147.0 400 300)" x="530" y="279" width="133" height="358"></rect>

  </g>
</svg>
