<svg xmlns="http://www.w3.org/2000/svg" xmlns:xlink="http://www.w3.org/1999/xlink" width="800" height="600" version="1.1" viewBox="0 0 800 600"><g fill="none" fill-rule="evenodd" stroke="none" stroke-width="1"><rect width="184" height="305" x="242" y="1" fill="#f559a0" stroke="#02eb6b" stroke-opacity=".209" stroke-width="4" opacity=".708" transform="rotate(-71.0 400 300)"/><rect width="128" height="148" x="251" y="579" fill="#02eb6b" stroke="#2cd3f3" stroke-opacity=".839" stroke-width="7" opacity=".139" transform="rotate(-142.0 400 300)"/><path fill="#02eb6b" stroke="#fe9225" stroke-opacity=".475" stroke-width="1" d="M 639,415 C 171,220 250,476 372,475 C 651,179 586,316 391,417 C 133,313 488,128 135,361 C 427,288 553,151 661,350 C 456,267 357,166 235,409 Z" opacity=".22" transform="rotate(-87.0 400 300)"/><path fill="#fe9225" stroke="#fe9225" stroke-opacity=".421" stroke-width="5" d="M 161,132 C 632,299 590,449 518,255 C 478,254 404,417 539,183 C 545,320 207,179 563,206 C 651,427 655,296 268,315 C 588,477 349,101 297,394 C 611,189 106,391 245,113 C 409,248 693,254 357,302 Z" opacity=".338" transform="rotate(97.0 400 300)"/><path fill="#2cd3f3" stroke="#0fa6d8" stroke-opacity=".012" stroke-width="2" d="M 341,476 C 614,186 578,432 110,438 C 273,298 262,270 303,342 C 194,112 628,330 341,352 C 681,415 317,377 510,272 C 205,379 141,397 202,470 C 496,456 163,265 239,328 C 474,353 533,462 566,195 C 256,399 203,275 121,434 C 312,357 351,377 291,395 C 456,105 147,321 488,379 Z" opacity=".718" transform="rotate(-34.0 400 300)"/><rect width="23" height="221" x="664" y="393" fill="#0fa6d8" stroke="#f559a0" stroke-opacity=".318" stroke-width="3" opacity=".965" transform="rotate(78.0 400 300)"/><polygon fill="#fe9225" stroke="#02eb6b" stroke-opacity=".367" stroke-width="1" points="633 45 464 139 246 423 617 127 486 543 101 63 577 430 208 366" opacity=".294" transform="rotate(43.0 400 300)"/><rect width="208" height="371" x="788" y="421" fill="#2cd3f3" stroke="#0fa6d8" stroke-opacity=".089" stroke-width="3" opacity=".076" transform="rotate(-175.0 400 300)"/><rect width="133" height="358" x="530" y="279" fill="#f559a0" stroke="#f559a0" stroke-opacity=".658" stroke-width="2" opacity=".644" transform="rotate(-147.0 400 300)"/></g></svg>