<?xml version="1.0" encoding="UTF-8"?>
<svg width="800px" height="600px" viewBox="0 0 800 600" version="1.1" xmlns="http://www.w3.org/2000/svg" xmlns:xlink="http://www.w3.org/1999/xlink">
  <defs></defs>
  <g stroke="none" stroke-width="1" fill="none" fill-rule="evenodd">
    
    <path stroke="#435C56" stroke-width="1" fill="#2D39CC" opacity="0.5622804109765125" stroke-opacity="0.8545110622422258" transform="rotate(-130.0 400 300)" d="M 371,486  C 388,304 236,169 527,133 C 575,205 459,472 337,103 C 331,185 550,133 308,214 C 477,204 254,426 148,500 C 289,309 298,194 228,308 C 696,214 613,313 211,414 C 226,383 440,289 368,399 C 191,487 506,222 270,392 C 352,458 541,316 626,294 Z"></path>
<path stroke="#104445" stroke-width="6" fill="#AC45D4" opacity="0.18885826291332022" stroke-opacity="0.8159378290615258" transform="rotate(-19.0 400 300)" d="M 615,212  C 533,431 629,241 330,125 C 161,114 550,221 196,334 C 226,498 298,146 480,120 C 292,291 371,470 445,210 C 537,389 127,152 284,455 C 169,243 105,282 365,159 C 658,381 672,464 551,237 Z"></path>
<path stroke="#4601B2" stroke-width="3" fill="#944CA2" opacity="0.2029716966960803" stroke-opacity="0.7746677108427082" transform="rotate(110.0 400 300)" d="M 498,406  C 212,432 551,130 320,206 C 155,361 386,203 420,279 C 538,424 517,335 595,126 C 495,497 192,369 572,210 C 292,260 311,394 396,357 C 384,340 564,124 435,451 C 694,401 627,157 479,336 C 389,203 489,223 362,164 C 143,479 357,472 380,105 C 341,208 258,446 625,230 Z"></path>
<path stroke="#359109" stroke-width="1" fill="#A85788" opacity="0.15036129380407603" stroke-opacity="0.3675163838286845" transform="rotate(59.0 400 300)" d="M 304,147  C 354,422 406,304 510,112 C 295,322 372,455 438,327 C 663,420 590,333 693,125 C 487,320 154,348 654,402 C 184,197 423,273 133,373 C 418,220 575,249 200,255 C 521,318 478,463 578,443 C 480,107 344,260 594,310 C 162,151 605,352 209,394 C 152,243 480,401 504,125 C 682,189 271,229 578,126 Z"></path>
<path stroke="#26D320" stroke-width="3" fill="#101362" opacity="0.9500936043043988" stroke-opacity="0.18351451351832523" transform="rotate(64.0 400 300)" d="M 344,448  C 420,492 322,104 343,270 C 280,375 143,455 273,195 C 394,283 419,408 307,332 C 238,112 280,358 538,446 C 209,260 270,279 177,105 Z"></path>
<path stroke="#1DBA10" stroke-width="1" fill="#080658" opacity="0.4275200700433965" stroke-opacity="0.11047686317866537" transform="rotate(-108.0 400 300)" d="M 212,240  C 226,121 652,217 318,407 C 657,276 380,473 165,219 C 136,118 325,199 188,434 C 490,268 370,238 309,265 C 330,153 226,194 586,234 C 195,456 589,330 472,292 C 479,249 285,208 652,267 Z"></path>
<path stroke="#282558" stroke-width="6" fill="#9370B2" opacity="0.02112305955172577" stroke-opacity="0.7228019352796557" transform="rotate(-100.0 400 300)" d="M 472,321  C 239,220 699,318 575,270 C 303,462 482,311 126,328 C 653,116 579,293 289,233 C 284,464 687,185 591,300 C 516,375 394,186 495,318 C 599,265 426,196 181,122 C 551,107 518,412 248,420 C 521,238 314,126 242,402 Z"></path>
<path stroke="#5388B4" stroke-width="6" fill="#46BAB3" opacity="0.3159390667535945" stroke-opacity="0.3380675183263899" transform="rotate(-131.0 400 300)" d="M 606,344  C 525,263 159,305 549,117 C 161,483 239,171 594,116 C 591,407 119,416 579,121 C 262,447 569,235 434,257 C 519,460 523,364 604,111 C 301,448 329,117 688,252 C 677,479 471,427 243,129 C 326,263 412,111 459,446 C 672,269 330,441 393,339 C 239,387 685,433 335,407 C 317,343 419,140 351,301 Z"></path>
<path stroke="#CC1DB3" stroke-width="5" fill="#60C76C" opacity="0.7117657117536569" stroke-opacity="0.11003427171495676" transform="rotate(34.0 400 300)" d="M 199,164  C 505,335 596,462 328,171 C 116,238 356,470 601,150 C 602,175 182,167 513,274 C 666,236 692,496 584,135 Z"></path>
<path stroke="#B176D8" stroke-width="5" fill="#154190" opacity="0.02186453491758659" stroke-opacity="0.6033025885949873" transform="rotate(32.0 400 300)" d="M 525,160  C 304,238 431,365 494,200 C 347,197 695,431 163,352 C 376,257 287,417 251,346 C 626,306 193,363 535,209 C 563,361 251,255 105,177 C 302,277 202,171 469,171 C 666,436 562,131 243,184 C 581,438 423,253 456,365 C 437,448 118,212 699,444 Z"></path>
<path stroke="#6CC1AB" stroke-width="6" fill="#C5DC08" opacity="0.5036609643617657" stroke-opacity="0.2895743460918543" transform="rotate(57.0 400 300)" d="M 388,131  C 133,187 132,438 651,322 C 556,247 467,376 616,287 C 455,315 369,471 416,351 C 151,107 679,358 509,109 Z"></path>

  </g>
</svg>
