<svg xmlns="http://www.w3.org/2000/svg" xmlns:xlink="http://www.w3.org/1999/xlink" width="800" height="600" version="1.1" viewBox="0 0 800 600"><g fill="none" fill-rule="evenodd" stroke="none" stroke-width="1"><rect width="121" height="361" x="200" y="131" fill="#0fa6d8" stroke="#0fa6d8" stroke-opacity=".636" stroke-width="7" opacity=".3" transform="rotate(-73.0 400 300)"/><path fill="#f559a0" stroke="#2cd3f3" stroke-opacity=".856" stroke-width="4" d="M 447,384 C 202,262 130,487 358,272 C 228,373 181,162 503,129 C 638,460 176,148 317,439 C 242,306 332,469 695,183 C 643,221 561,358 109,409 C 286,301 114,410 571,411 C 243,335 139,212 373,273 C 213,201 293,103 174,328 Z" opacity=".614" transform="rotate(-105.0 400 300)"/><ellipse cx="289" cy="178" fill="#f559a0" stroke="#02eb6b" stroke-opacity=".713" stroke-width="2" opacity=".239" rx="217" ry="263" transform="rotate(171.0 400 300)"/><ellipse cx="688" cy="90" fill="#fe9225" stroke="#f559a0" stroke-opacity=".754" stroke-width="5" opacity=".311" rx="445" ry="173" transform="rotate(-143.0 400 300)"/><ellipse cx="527" cy="208" fill="#02eb6b" stroke="#02eb6b" stroke-opacity=".719" stroke-width="7" opacity=".458" rx="106" ry="214" transform="rotate(146.0 400 300)"/><polygon fill="#fe9225" stroke="#02eb6b" stroke-opacity=".861" stroke-width="6" points="512 94 306 40 773 503 123 298 569 170" opacity=".679" transform="rotate(21.0 400 300)"/><polygon fill="#02eb6b" stroke="#0fa6d8" stroke-opacity=".662" stroke-width="2" points="332 454 604 472 458 84 37 341 139 53" opacity=".298" transform="rotate(-156.0 400 300)"/><ellipse cx="600" cy="119" fill="#02eb6b" stroke="#02eb6b" stroke-opacity=".825" stroke-width="7" opacity=".24" rx="105" ry="270" transform="rotate(-89.0 400 300)"/></g></svg>