<svg xmlns="http://www.w3.org/2000/svg" xmlns:xlink="http://www.w3.org/1999/xlink" width="800" height="600" version="1.1" viewBox="0 0 800 600"><g fill="none" fill-rule="evenodd" stroke="none" stroke-width="1"><ellipse cx="6" cy="169" fill="#02eb6b" stroke="#02eb6b" stroke-opacity=".383" stroke-width="4" opacity=".072" rx="141" ry="249" transform="rotate(-60.0 400 300)"/><path fill="#02eb6b" stroke="#2cd3f3" stroke-opacity=".346" stroke-width="1" d="M 225,386 C 205,361 615,365 363,251 C 614,444 113,235 368,388 C 242,278 431,165 353,108 C 203,193 608,447 274,396 C 343,429 200,332 180,240 C 277,285 629,392 443,108 C 525,292 691,132 389,149 C 566,175 392,360 212,314 C 213,307 228,388 142,252 C 101,180 408,145 687,383 C 427,488 376,123 340,141 Z" opacity=".754" transform="rotate(-159.0 400 300)"/><rect width="176" height="25" x="232" y="326" fill="#0fa6d8" stroke="#f559a0" stroke-opacity=".303" stroke-width="5" opacity=".924" transform="rotate(-56.0 400 300)"/><path fill="#fe9225" stroke="#02eb6b" stroke-opacity=".662" stroke-width="3" d="M 221,465 C 435,300 116,421 276,163 C 240,496 670,382 406,232 C 202,400 280,358 433,257 C 624,161 313,173 555,482 C 313,249 242,407 638,339 C 342,184 230,201 325,398 C 421,283 168,221 675,348 C 255,239 576,416 389,325 C 292,468 505,307 313,120 C 184,106 326,253 293,153 Z" opacity=".451" transform="rotate(100.0 400 300)"/><ellipse cx="590" cy="363" fill="#fe9225" stroke="#f559a0" stroke-opacity=".185" stroke-width="2" opacity=".881" rx="257" ry="173" transform="rotate(24.0 400 300)"/><path fill="#f559a0" stroke="#fe9225" stroke-opacity=".402" stroke-width="5" d="M 560,314 C 556,372 213,108 508,449 C 359,246 197,188 315,205 C 500,374 356,244 246,316 C 646,162 439,277 511,474 Z" opacity=".287" transform="rotate(-30.0 400 300)"/><rect width="327" height="144" x="646" y="498" fill="#fe9225" stroke="#fe9225" stroke-opacity=".936" stroke-width="7" opacity=".7" transform="rotate(-114.0 400 300)"/><polygon fill="#2cd3f3" stroke="#2cd3f3" stroke-opacity=".986" stroke-width="6" points="556 84 520 48 68 597 257 248 431 250 475 70 357 158" opacity=".113" transform="rotate(70.0 400 300)"/><polygon fill="#fe9225" stroke="#2cd3f3" stroke-opacity=".361" stroke-width="6" points="655 442 210 253 497 600 157 548 299 79 597 582 202 119" opacity=".099" transform="rotate(81.0 400 300)"/><ellipse cx="215" cy="94" fill="#2cd3f3" stroke="#02eb6b" stroke-opacity=".863" stroke-width="7" opacity=".182" rx="62" ry="275" transform="rotate(125.0 400 300)"/></g></svg>