<svg xmlns="http://www.w3.org/2000/svg" xmlns:xlink="http://www.w3.org/1999/xlink" width="800" height="600" version="1.1" viewBox="0 0 800 600"><g fill="none" fill-rule="evenodd" stroke="none" stroke-width="1"><ellipse cx="458" cy="497" fill="#2cd3f3" stroke="#02eb6b" stroke-opacity=".821" stroke-width="5" opacity=".148" rx="132" ry="91" transform="rotate(34.0 400 300)"/><path fill="#f559a0" stroke="#02eb6b" stroke-opacity=".813" stroke-width="7" d="M 165,337 C 142,158 181,361 281,305 C 175,245 260,262 301,196 C 299,427 691,281 531,368 C 242,495 410,229 217,322 C 514,167 328,121 400,360 C 251,313 445,464 247,175 C 646,324 608,239 607,478 C 192,481 637,478 241,215 C 308,457 341,484 221,428 C 326,424 657,445 122,459 Z" opacity=".868" transform="rotate(94.0 400 300)"/><ellipse cx="408" cy="505" fill="#f559a0" stroke="#02eb6b" stroke-opacity=".628" stroke-width="1" opacity=".244" rx="188" ry="141" transform="rotate(174.0 400 300)"/><polygon fill="#0fa6d8" stroke="#fe9225" stroke-opacity=".574" stroke-width="2" points="716 369 482 3 503 309 708 431 607 509 654 342 338 197 669 282" opacity=".513" transform="rotate(-13.0 400 300)"/><ellipse cx="488" cy="459" fill="#f559a0" stroke="#02eb6b" stroke-opacity=".524" stroke-width="4" opacity=".584" rx="188" ry="317" transform="rotate(29.0 400 300)"/><path fill="#02eb6b" stroke="#02eb6b" stroke-opacity=".772" stroke-width="4" d="M 666,414 C 594,481 470,105 548,468 C 239,118 697,165 110,313 C 547,432 511,144 232,206 C 650,171 485,110 390,170 C 441,294 222,174 315,102 Z" opacity=".959" transform="rotate(-26.0 400 300)"/><ellipse cx="742" cy="429" fill="#2cd3f3" stroke="#02eb6b" stroke-opacity=".961" stroke-width="6" opacity=".67" rx="435" ry="263" transform="rotate(-19.0 400 300)"/><ellipse cx="657" cy="439" fill="#f559a0" stroke="#0fa6d8" stroke-opacity=".126" stroke-width="4" opacity=".049" rx="274" ry="345" transform="rotate(93.0 400 300)"/></g></svg>