<?xml version="1.0" encoding="UTF-8"?>
<svg width="800px" height="600px" viewBox="0 0 800 600" version="1.1" xmlns="http://www.w3.org/2000/svg" xmlns:xlink="http://www.w3.org/1999/xlink">
  <defs></defs>
  <g stroke="none" stroke-width="1" fill="none" fill-rule="evenodd">
    
    <ellipse stroke="#02eb6b" stroke-width="5" fill="#2cd3f3" opacity="0.14768410253494574" stroke-opacity="0.8213338352060217" transform="rotate(34.0 400 300)" cx="458" rx="132" cy="497" ry="91"></ellipse>
<path stroke="#02eb6b" stroke-width="7" fill="#f559a0" opacity="0.8679620281680424" stroke-opacity="0.8126005751236295" transform="rotate(94.0 400 300)" d="M 165,337  C 142,158 181,361 281,305 C 175,245 260,262 301,196 C 299,427 691,281 531,368 C 242,495 410,229 217,322 C 514,167 328,121 400,360 C 251,313 445,464 247,175 C 646,324 608,239 607,478 C 192,481 637,478 241,215 C 308,457 341,484 221,428 C 326,424 657,445 122,459 Z"></path>
<ellipse stroke="#02eb6b" stroke-width="1" fill="#f559a0" opacity="0.24425591872903485" stroke-opacity="0.6276688228448288" transform="rotate(174.0 400 300)" cx="408" rx="188" cy="505" ry="141"></ellipse>
<polygon stroke="#fe9225" stroke-width="2" fill="#0fa6d8" opacity="0.5133209856080677" stroke-opacity="0.5740684966082942" transform="rotate(-13.0 400 300)" points="716 369 482 3 503 309 708 431 607 509 654 342 338 197 669 282 "></polygon>
<ellipse stroke="#02eb6b" stroke-width="4" fill="#f559a0" opacity="0.5837156134891784" stroke-opacity="0.5235238634901253" transform="rotate(29.0 400 300)" cx="488" rx="188" cy="459" ry="317"></ellipse>
<path stroke="#02eb6b" stroke-width="4" fill="#02eb6b" opacity="0.9588260262994323" stroke-opacity="0.7724011297521884" transform="rotate(-26.0 400 300)" d="M 666,414  C 594,481 470,105 548,468 C 239,118 697,165 110,313 C 547,432 511,144 232,206 C 650,171 485,110 390,170 C 441,294 222,174 315,102 Z"></path>
<ellipse stroke="#02eb6b" stroke-width="6" fill="#2cd3f3" opacity="0.6698407654112893" stroke-opacity="0.9614815685097527" transform="rotate(-19.0 400 300)" cx="742" rx="435" cy="429" ry="263"></ellipse>
<ellipse stroke="#0fa6d8" stroke-width="4" fill="#f559a0" opacity="0.048513755197401434" stroke-opacity="0.12585305593371574" transform="rotate(93.0 400 300)" cx="657" rx="274" cy="439" ry="345"></ellipse>

  </g>
</svg>
