<?xml version="1.0" encoding="UTF-8"?>
<svg width="800px" height="600px" viewBox="0 0 800 600" version="1.1" xmlns="http://www.w3.org/2000/svg" xmlns:xlink="http://www.w3.org/1999/xlink">
  <defs></defs>
  <g stroke="none" stroke-width="1" fill="none" fill-rule="evenodd">
    
    <path stroke="#f27630" stroke-width="4" fill="#f27630" opacity="0.1998776502221921" stroke-opacity="0.7407517024421711" transform="rotate(99.0 400 300)" d="M 406,380  C 572,257 675,240 118,460 C 220,218 568,119 421,487 C 341,417 196,362 318,104 C 589,323 160,460 410,335 C 696,431 566,200 681,104 C 532,334 565,151 355,479 Z"></path>
<path stroke="#ed2b2c" stroke-width="4" fill="#f27630" opacity="0.48014092217025234" stroke-opacity="0.7221487217135754" transform="rotate(-108.0 400 300)" d="M 620,386  C 512,424 606,453 159,136 C 111,158 612,293 204,242 C 278,198 446,240 629,313 C 502,248 504,260 413,308 C 160,497 243,103 623,148 C 534,150 486,478 406,488 C 674,206 319,231 486,349 C 427,136 516,461 398,489 C 453,352 226,475 537,130 Z"></path>
<path stroke="#f9d84b" stroke-width="2" fill="#2b55f7" opacity="0.7719079464011909" stroke-opacity="0.3544370949116629" transform="rotate(4.0 400 300)" d="M 353,318  C 355,393 441,211 229,185 C 455,339 671,312 569,384 C 550,353 365,339 553,363 C 252,371 623,448 280,130 C 579,389 489,387 618,231 Z"></path>
<path stroke="#f9d84b" stroke-width="3" fill="#f27630" opacity="0.5506269207060837" stroke-opacity="0.6320782157719741" transform="rotate(15.0 400 300)" d="M 266,150  C 669,200 304,103 186,195 C 539,260 501,310 311,328 C 680,226 164,460 288,477 C 700,391 255,203 479,364 C 351,325 465,407 108,189 Z"></path>
<path stroke="#31a06b" stroke-width="2" fill="#f9d84b" opacity="0.12501309256439092" stroke-opacity="0.7861670685302645" transform="rotate(-111.0 400 300)" d="M 336,449  C 402,412 186,355 544,493 C 158,140 266,313 656,108 C 431,206 404,274 507,202 C 577,467 298,248 333,493 C 551,183 374,434 659,256 C 408,257 543,151 387,105 C 449,498 528,199 400,381 C 439,196 455,142 178,224 Z"></path>
<path stroke="#f27630" stroke-width="6" fill="#f27630" opacity="0.049569000464921346" stroke-opacity="0.6014276970837563" transform="rotate(133.0 400 300)" d="M 483,186  C 621,485 279,459 142,479 C 539,115 303,174 268,272 C 319,173 439,188 180,142 C 128,108 213,423 116,480 C 383,299 615,121 123,443 C 216,465 626,141 330,437 C 240,476 287,221 365,479 C 218,427 407,235 569,409 C 458,278 654,404 379,253 C 136,146 282,376 660,215 Z"></path>
<path stroke="#ed2b2c" stroke-width="4" fill="#f9d84b" opacity="0.6774265254942419" stroke-opacity="0.7792280157704488" transform="rotate(-73.0 400 300)" d="M 149,493  C 614,327 604,156 287,397 C 417,375 286,225 249,418 C 278,211 431,443 178,354 C 436,271 376,330 559,346 C 468,330 602,174 432,294 C 645,136 399,318 191,143 C 628,192 318,219 186,163 C 558,175 116,220 334,433 Z"></path>

  </g>
</svg>
