<?xml version="1.0" encoding="UTF-8"?>
<svg width="800px" height="600px" viewBox="0 0 800 600" version="1.1" xmlns="http://www.w3.org/2000/svg" xmlns:xlink="http://www.w3.org/1999/xlink">
  <defs></defs>
  <g stroke="none" stroke-width="1" fill="none" fill-rule="evenodd">
    
    <path stroke="#ed2b2c" stroke-width="3" fill="#f9d84b" opacity="0.6443215687559058" stroke-opacity="0.6059865376905049" transform="rotate(175.0 400 300)" d="M 481,390  C 527,222 543,319 148,256 C 261,199 208,349 636,144 C 166,187 310,194 289,397 C 352,315 467,457 213,293 C 530,474 212,387 138,380 C 286,150 521,332 440,269 C 458,443 607,214 636,393 C 654,244 351,452 691,137 C 236,149 414,190 373,250 Z"></path>
<path stroke="#ed2b2c" stroke-width="4" fill="#31a06b" opacity="0.0722202779492838" stroke-opacity="0.28572799518209174" transform="rotate(7.0 400 300)" d="M 285,250  C 541,384 488,277 627,373 C 396,114 228,153 383,401 C 201,394 445,500 548,365 C 307,394 496,448 363,135 C 150,358 476,378 551,450 C 533,445 375,405 582,394 C 245,500 147,187 246,250 C 451,251 181,163 363,297 C 275,297 563,204 605,340 Z"></path>
<path stroke="#2b55f7" stroke-width="6" fill="#ed2b2c" opacity="0.5426137258922515" stroke-opacity="0.9602483820505369" transform="rotate(-93.0 400 300)" d="M 522,143  C 670,330 624,314 288,495 C 264,361 380,333 287,384 C 315,344 253,348 162,130 C 609,168 204,215 253,299 C 416,429 114,301 139,235 C 594,394 241,409 592,451 C 200,465 323,430 483,239 Z"></path>
<path stroke="#ed2b2c" stroke-width="1" fill="#31a06b" opacity="0.6223617888027013" stroke-opacity="0.5531193744634234" transform="rotate(30.0 400 300)" d="M 330,350  C 200,374 121,168 173,274 C 101,293 442,161 535,153 C 177,470 492,340 529,222 C 590,110 426,395 218,136 C 308,297 141,119 302,491 Z"></path>
<path stroke="#f27630" stroke-width="3" fill="#2b55f7" opacity="0.536080583183234" stroke-opacity="0.874327664135719" transform="rotate(-147.0 400 300)" d="M 395,469  C 248,326 623,208 190,325 C 610,310 383,247 565,494 C 206,127 647,198 113,183 C 584,482 381,343 393,103 C 297,364 132,470 690,352 C 654,194 469,107 342,394 C 496,424 544,214 359,404 C 175,165 620,366 150,409 C 543,308 381,194 540,318 Z"></path>
<path stroke="#ed2b2c" stroke-width="1" fill="#31a06b" opacity="0.4643814580350333" stroke-opacity="0.8118898205156166" transform="rotate(172.0 400 300)" d="M 563,266  C 582,490 117,321 676,498 C 493,299 488,135 327,141 C 326,284 243,275 626,221 C 617,463 215,500 481,412 C 345,343 525,116 425,437 C 524,407 210,408 321,319 C 289,254 428,168 258,141 C 165,456 659,397 619,302 C 443,494 592,375 336,391 C 699,328 532,438 602,154 C 193,104 526,199 660,128 Z"></path>
<path stroke="#f27630" stroke-width="6" fill="#2b55f7" opacity="0.883103854232483" stroke-opacity="0.10449435003456835" transform="rotate(-53.0 400 300)" d="M 523,235  C 558,325 480,316 120,350 C 236,213 445,190 166,223 C 447,202 584,252 374,212 C 325,123 135,478 221,231 C 150,333 204,207 497,382 C 113,484 210,290 135,438 C 582,408 364,233 103,228 C 287,363 542,407 542,174 C 349,157 339,302 284,161 Z"></path>
<path stroke="#2b55f7" stroke-width="5" fill="#31a06b" opacity="0.8078284905499301" stroke-opacity="0.1469994010944509" transform="rotate(41.0 400 300)" d="M 541,371  C 265,279 242,140 336,137 C 682,198 435,324 338,151 C 661,293 300,463 177,485 C 666,460 165,400 232,484 C 103,422 417,371 555,496 C 123,379 438,416 637,377 C 467,284 283,207 113,107 C 490,412 241,496 265,154 C 222,381 184,375 362,408 C 148,494 462,453 103,169 Z"></path>
<path stroke="#f27630" stroke-width="2" fill="#31a06b" opacity="0.19436229666149799" stroke-opacity="0.5844531592799026" transform="rotate(85.0 400 300)" d="M 156,127  C 315,475 654,325 372,476 C 326,150 190,376 153,132 C 281,210 612,286 643,460 C 162,363 463,486 554,186 C 611,428 642,294 206,381 C 345,466 137,319 401,434 Z"></path>

  </g>
</svg>
