<?xml version="1.0" encoding="UTF-8"?>
<svg width="800px" height="600px" viewBox="0 0 800 600" version="1.1" xmlns="http://www.w3.org/2000/svg" xmlns:xlink="http://www.w3.org/1999/xlink">
  <defs></defs>
  <g stroke="none" stroke-width="1" fill="none" fill-rule="evenodd">
    
    <path stroke="#BCB407" stroke-width="2" fill="#914734" opacity="0.6128673932550004" stroke-opacity="0.879419115863289" transform="rotate(67.0 400 300)" d="M 487,214  C 513,467 181,329 687,191 C 438,215 284,303 545,318 C 457,401 443,327 206,126 C 130,140 523,350 545,416 C 463,138 183,314 457,269 Z"></path>
<path stroke="#138099" stroke-width="4" fill="#3A8676" opacity="0.9128248782940848" stroke-opacity="0.2881574072751493" transform="rotate(-4.0 400 300)" d="M 223,243  C 343,364 150,134 215,473 C 521,377 463,179 387,362 C 299,220 569,423 664,373 C 607,365 221,324 176,287 Z"></path>
<path stroke="#18C421" stroke-width="5" fill="#4638B5" opacity="0.034426781219145774" stroke-opacity="0.7889452840703747" transform="rotate(35.0 400 300)" d="M 427,340  C 436,220 355,266 349,229 C 419,269 281,145 564,309 C 535,185 633,101 307,167 C 552,360 663,435 185,116 C 133,482 559,369 110,230 C 619,208 583,171 528,324 C 482,257 530,332 161,208 C 178,481 275,204 338,185 Z"></path>
<path stroke="#7D24CC" stroke-width="7" fill="#536312" opacity="0.6353274514970407" stroke-opacity="0.535996288210478" transform="rotate(-132.0 400 300)" d="M 219,166  C 604,161 154,493 573,337 C 359,123 308,315 452,183 C 488,494 133,168 145,422 C 472,498 441,144 354,309 C 410,270 271,215 527,297 C 548,410 385,197 325,287 C 543,413 423,126 467,491 Z"></path>
<path stroke="#8C243A" stroke-width="2" fill="#A5C2CA" opacity="0.7258528583750545" stroke-opacity="0.724577909549693" transform="rotate(137.0 400 300)" d="M 143,358  C 506,470 206,500 433,153 C 307,452 454,270 403,447 C 629,220 467,488 115,280 C 229,466 591,102 436,399 C 603,366 103,343 109,199 C 386,240 125,184 549,402 Z"></path>
<path stroke="#339BA8" stroke-width="5" fill="#154513" opacity="0.9822947595552842" stroke-opacity="0.9224969188810279" transform="rotate(170.0 400 300)" d="M 564,337  C 425,461 147,246 143,199 C 283,150 167,286 441,361 C 334,186 399,264 634,429 C 502,231 371,493 682,238 C 615,408 190,206 624,454 C 367,169 609,101 360,128 C 388,452 674,332 134,408 C 578,396 344,277 504,285 C 347,376 457,374 576,340 C 365,444 178,143 320,452 Z"></path>
<path stroke="#19516B" stroke-width="6" fill="#3C42BB" opacity="0.10847813764056383" stroke-opacity="0.35074096957077594" transform="rotate(-157.0 400 300)" d="M 169,133  C 219,351 261,314 580,404 C 377,144 184,119 472,166 C 260,382 118,475 690,426 C 417,436 617,354 569,136 C 417,304 161,150 666,400 C 493,267 188,281 225,312 C 448,106 198,193 514,276 Z"></path>
<path stroke="#36246D" stroke-width="5" fill="#AD06C8" opacity="0.09899256539297635" stroke-opacity="0.2589239726143514" transform="rotate(67.0 400 300)" d="M 123,112  C 346,260 121,471 253,129 C 249,352 384,252 690,312 C 646,170 277,232 317,148 C 324,242 163,303 685,164 C 617,433 689,101 379,220 C 414,105 244,318 437,184 Z"></path>
<path stroke="#29C32A" stroke-width="3" fill="#7C2248" opacity="0.23587661259806925" stroke-opacity="0.05692431290282556" transform="rotate(-107.0 400 300)" d="M 271,444  C 217,167 537,133 511,464 C 405,256 355,432 414,267 C 396,171 418,476 200,248 C 121,451 190,290 271,364 C 473,472 466,315 515,353 Z"></path>

  </g>
</svg>
