<svg xmlns="http://www.w3.org/2000/svg" xmlns:xlink="http://www.w3.org/1999/xlink" width="800" height="600" version="1.1" viewBox="0 0 800 600"><g fill="none" fill-rule="evenodd" stroke="none" stroke-width="1"><path fill="#9C677C" stroke="#53CC4B" stroke-opacity=".219" stroke-width="6" d="M 641,198 C 277,258 377,268 416,483 C 594,125 539,411 515,116 C 120,305 170,148 375,314 C 122,197 160,494 341,159 C 666,115 127,249 686,219 C 621,193 138,373 419,499 C 352,125 354,269 318,274 C 605,217 157,160 420,169 Z" opacity=".12" transform="rotate(-107.0 400 300)"/><path fill="#533536" stroke="#AC731D" stroke-opacity=".635" stroke-width="4" d="M 424,363 C 656,480 569,123 323,323 C 203,388 527,345 235,347 C 543,364 109,227 298,365 C 248,482 425,485 599,294 C 278,294 604,182 611,171 C 116,319 107,113 395,457 C 384,202 173,248 117,317 C 277,192 335,416 179,448 C 422,281 311,130 251,276 Z" opacity=".88" transform="rotate(-81.0 400 300)"/><path fill="#30185B" stroke="#048305" stroke-opacity=".502" stroke-width="6" d="M 662,376 C 343,365 192,231 307,206 C 152,403 170,354 482,446 C 500,479 372,406 529,105 C 680,240 507,347 355,474 C 238,310 428,235 264,431 C 676,250 657,229 547,197 C 572,378 665,421 404,465 C 380,432 389,367 122,335 C 166,463 289,384 384,376 Z" opacity=".872" transform="rotate(169.0 400 300)"/><path fill="#3ADC94" stroke="#6D9375" stroke-opacity=".378" stroke-width="3" d="M 171,433 C 370,205 103,139 604,295 C 268,139 364,157 117,461 C 188,163 260,401 587,253 C 224,399 373,145 646,456 C 388,190 570,243 207,223 Z" opacity=".6" transform="rotate(175.0 400 300)"/><path fill="#7B2382" stroke="#0A1BDB" stroke-opacity=".838" stroke-width="6" d="M 626,213 C 370,314 566,265 539,201 C 580,412 407,324 535,351 C 408,129 309,177 300,384 C 382,247 366,264 255,379 C 457,154 484,294 522,194 C 445,281 325,235 528,331 C 464,494 156,162 700,403 C 469,389 311,293 405,133 Z" opacity=".492" transform="rotate(-78.0 400 300)"/><path fill="#29D652" stroke="#C61409" stroke-opacity=".749" stroke-width="2" d="M 318,124 C 516,103 609,224 274,325 C 214,165 592,204 368,269 C 434,427 432,334 395,329 C 586,382 379,486 489,445 C 277,327 529,181 532,411 C 496,468 474,437 480,400 Z" opacity=".003" transform="rotate(99.0 400 300)"/><path fill="#B83B16" stroke="#DB123C" stroke-opacity=".965" stroke-width="5" d="M 660,127 C 425,335 584,174 596,137 C 636,427 460,206 213,458 C 157,308 236,400 504,361 C 258,361 623,196 196,266 C 417,183 206,498 380,240 C 621,112 437,234 322,262 C 617,222 441,119 373,190 C 385,500 271,216 516,378 C 448,452 219,311 415,337 C 333,274 390,438 698,376 Z" opacity=".777" transform="rotate(-49.0 400 300)"/><path fill="#D9C675" stroke="#555251" stroke-opacity=".455" stroke-width="6" d="M 441,322 C 595,468 417,452 338,299 C 648,465 233,461 224,461 C 560,484 468,142 457,202 C 150,431 391,217 166,231 C 150,203 306,259 687,487 C 640,185 605,277 152,108 C 468,469 337,135 560,331 C 596,255 102,300 700,119 Z" opacity=".912" transform="rotate(-8.0 400 300)"/><path fill="#934BC3" stroke="#DD510D" stroke-opacity=".555" stroke-width="4" d="M 483,368 C 513,286 281,103 615,294 C 594,143 510,426 209,227 C 659,371 416,128 178,418 C 256,491 198,242 497,268 C 643,427 439,253 355,415 C 290,427 228,343 114,107 C 532,439 178,131 315,493 C 426,367 307,461 407,428 C 657,188 337,437 648,500 C 677,273 533,489 481,172 Z" opacity=".92" transform="rotate(-25.0 400 300)"/><path fill="#5A7C3B" stroke="#B28200" stroke-opacity=".958" stroke-width="2" d="M 577,290 C 299,197 544,302 285,201 C 620,155 339,342 228,178 C 699,311 220,284 243,142 C 336,257 416,258 254,131 C 109,390 375,478 358,146 C 451,258 486,367 307,159 C 248,358 558,428 435,115 C 281,114 659,200 628,419 C 684,106 252,500 485,238 Z" opacity=".832" transform="rotate(41.0 400 300)"/></g></svg>