<svg xmlns="http://www.w3.org/2000/svg" xmlns:xlink="http://www.w3.org/1999/xlink" width="800" height="600" version="1.1" viewBox="0 0 800 600"><g fill="none" fill-rule="evenodd" stroke="none" stroke-width="1"><rect width="169" height="36" x="163" y="520" fill="#2cd3f3" stroke="#2cd3f3" stroke-opacity=".728" stroke-width="3" opacity=".51" transform="rotate(156.0 400 300)"/><ellipse cx="472" cy="1" fill="#02eb6b" stroke="#fe9225" stroke-opacity=".278" stroke-width="7" opacity=".08" rx="408" ry="209" transform="rotate(-52.0 400 300)"/><rect width="160" height="362" x="36" y="211" fill="#2cd3f3" stroke="#0fa6d8" stroke-opacity=".547" stroke-width="1" opacity=".062" transform="rotate(10.0 400 300)"/><polygon fill="#02eb6b" stroke="#02eb6b" stroke-opacity=".469" stroke-width="6" points="273 67 734 230 105 411 600 214 540 138 125 324" opacity=".365" transform="rotate(167.0 400 300)"/><rect width="256" height="315" x="470" y="160" fill="#0fa6d8" stroke="#fe9225" stroke-opacity=".898" stroke-width="6" opacity=".376" transform="rotate(177.0 400 300)"/><path fill="#fe9225" stroke="#02eb6b" stroke-opacity=".878" stroke-width="7" d="M 112,239 C 589,410 442,122 296,275 C 356,332 585,330 199,305 C 601,378 180,474 493,184 C 482,440 349,302 241,292 C 700,222 264,243 413,379 C 225,127 500,366 231,468 C 534,113 624,208 383,418 Z" opacity=".161" transform="rotate(128.0 400 300)"/><path fill="#2cd3f3" stroke="#fe9225" stroke-opacity=".531" stroke-width="6" d="M 648,496 C 570,467 554,331 646,311 C 628,358 598,240 501,353 C 521,408 582,292 275,112 C 388,182 492,294 476,217 C 625,373 106,351 444,447 Z" opacity=".05" transform="rotate(-57.0 400 300)"/></g></svg>