<?xml version="1.0" encoding="UTF-8"?>
<svg width="800px" height="600px" viewBox="0 0 800 600" version="1.1" xmlns="http://www.w3.org/2000/svg" xmlns:xlink="http://www.w3.org/1999/xlink">
  <defs></defs>
  <g stroke="none" stroke-width="1" fill="none" fill-rule="evenodd">
    
    <rect stroke="#2cd3f3" stroke-width="3" fill="#2cd3f3" opacity="0.5096263875204128" stroke-opacity="0.7283600266208013" transform="rotate(156.0 400 300)" x="163" y="520" width="169" height="36"></rect>
<ellipse stroke="#fe9225" stroke-width="7" fill="#02eb6b" opacity="0.08000530690600961" stroke-opacity="0.2783320825430353" transform="rotate(-52.0 400 300)" cx="472" rx="408" cy="1" ry="209"></ellipse>
<rect stroke="#0fa6d8" stroke-width="1" fill="#2cd3f3" opacity="0.06239452837553679" stroke-opacity="0.5473479759713207" transform="rotate(10.0 400 300)" x="36" y="211" width="160" height="362"></rect>
<polygon stroke="#02eb6b" stroke-width="6" fill="#02eb6b" opacity="0.3650441561561468" stroke-opacity="0.46906612515487806" transform="rotate(167.0 400 300)" points="273 67 734 230 105 411 600 214 540 138 125 324 "></polygon>
<rect stroke="#fe9225" stroke-width="6" fill="#0fa6d8" opacity="0.3760479968399421" stroke-opacity="0.8976811940217774" transform="rotate(177.0 400 300)" x="470" y="160" width="256" height="315"></rect>
<path stroke="#02eb6b" stroke-width="7" fill="#fe9225" opacity="0.16131961349873233" stroke-opacity="0.8784336308692323" transform="rotate(128.0 400 300)" d="M 112,239  C 589,410 442,122 296,275 C 356,332 585,330 199,305 C 601,378 180,474 493,184 C 482,440 349,302 241,292 C 700,222 264,243 413,379 C 225,127 500,366 231,468 C 534,113 624,208 383,418 Z"></path>
<path stroke="#fe9225" stroke-width="6" fill="#2cd3f3" opacity="0.049874855727468206" stroke-opacity="0.5312366648940561" transform="rotate(-57.0 400 300)" d="M 648,496  C 570,467 554,331 646,311 C 628,358 598,240 501,353 C 521,408 582,292 275,112 C 388,182 492,294 476,217 C 625,373 106,351 444,447 Z"></path>

  </g>
</svg>
