<?xml version="1.0" encoding="UTF-8"?>
<svg width="800px" height="600px" viewBox="0 0 800 600" version="1.1" xmlns="http://www.w3.org/2000/svg" xmlns:xlink="http://www.w3.org/1999/xlink">
  <defs></defs>
  <g stroke="none" stroke-width="1" fill="none" fill-rule="evenodd">
    
    <polygon stroke="#f27630" stroke-width="7" fill="#f9d84b" opacity="0.9986642268408962" stroke-opacity="0.7916741350213775" transform="rotate(-99.0 400 300)" points="274 409 237 498 617 193 444 197 153 88 "></polygon>
<rect stroke="#f9d84b" stroke-width="7" fill="#f27630" opacity="0.8215449839912199" stroke-opacity="0.771706249539607" transform="rotate(-51.0 400 300)" x="650" y="435" width="177" height="287"></rect>
<ellipse stroke="#f27630" stroke-width="1" fill="#f27630" opacity="0.38604686622183754" stroke-opacity="0.48775320027762126" transform="rotate(-84.0 400 300)" cx="153" rx="155" cy="388" ry="303"></ellipse>
<rect stroke="#31a06b" stroke-width="5" fill="#ed2b2c" opacity="0.8175357801836579" stroke-opacity="0.6352092819428188" transform="rotate(21.0 400 300)" x="559" y="64" width="335" height="43"></rect>
<path stroke="#ed2b2c" stroke-width="2" fill="#31a06b" opacity="0.3193594292946097" stroke-opacity="0.7738442799907598" transform="rotate(122.0 400 300)" d="M 481,299  C 168,207 559,122 344,144 C 124,303 428,396 134,352 C 694,357 541,472 147,476 C 428,334 464,450 142,447 C 513,281 238,255 568,371 C 158,412 630,399 565,241 C 383,234 199,315 407,470 C 241,303 495,449 584,211 Z"></path>
<polygon stroke="#f9d84b" stroke-width="3" fill="#31a06b" opacity="0.5886565947203484" stroke-opacity="0.9874182989605358" transform="rotate(-159.0 400 300)" points="360 563 511 68 624 406 620 105 47 571 417 378 755 205 "></polygon>
<rect stroke="#f27630" stroke-width="7" fill="#ed2b2c" opacity="0.14827576467725842" stroke-opacity="0.4666248782607575" transform="rotate(-159.0 400 300)" x="355" y="586" width="153" height="126"></rect>
<ellipse stroke="#ed2b2c" stroke-width="1" fill="#ed2b2c" opacity="0.4947773877912138" stroke-opacity="0.9670347845220852" transform="rotate(142.0 400 300)" cx="579" rx="126" cy="547" ry="266"></ellipse>
<rect stroke="#f27630" stroke-width="3" fill="#31a06b" opacity="0.6595386250821946" stroke-opacity="0.8641799660798449" transform="rotate(14.0 400 300)" x="359" y="207" width="267" height="134"></rect>
<ellipse stroke="#31a06b" stroke-width="2" fill="#f27630" opacity="0.7681469682727514" stroke-opacity="0.32588510443760277" transform="rotate(-115.0 400 300)" cx="285" rx="119" cy="551" ry="152"></ellipse>

  </g>
</svg>
