<svg xmlns="http://www.w3.org/2000/svg" xmlns:xlink="http://www.w3.org/1999/xlink" width="800" height="600" version="1.1" viewBox="0 0 800 600"><g fill="none" fill-rule="evenodd" stroke="none" stroke-width="1"><polygon fill="#f9d84b" stroke="#f27630" stroke-opacity=".792" stroke-width="7" points="274 409 237 498 617 193 444 197 153 88" opacity=".999" transform="rotate(-99.0 400 300)"/><rect width="177" height="287" x="650" y="435" fill="#f27630" stroke="#f9d84b" stroke-opacity=".772" stroke-width="7" opacity=".822" transform="rotate(-51.0 400 300)"/><ellipse cx="153" cy="388" fill="#f27630" stroke="#f27630" stroke-opacity=".488" stroke-width="1" opacity=".386" rx="155" ry="303" transform="rotate(-84.0 400 300)"/><rect width="335" height="43" x="559" y="64" fill="#ed2b2c" stroke="#31a06b" stroke-opacity=".635" stroke-width="5" opacity=".818" transform="rotate(21.0 400 300)"/><path fill="#31a06b" stroke="#ed2b2c" stroke-opacity=".774" stroke-width="2" d="M 481,299 C 168,207 559,122 344,144 C 124,303 428,396 134,352 C 694,357 541,472 147,476 C 428,334 464,450 142,447 C 513,281 238,255 568,371 C 158,412 630,399 565,241 C 383,234 199,315 407,470 C 241,303 495,449 584,211 Z" opacity=".319" transform="rotate(122.0 400 300)"/><polygon fill="#31a06b" stroke="#f9d84b" stroke-opacity=".987" stroke-width="3" points="360 563 511 68 624 406 620 105 47 571 417 378 755 205" opacity=".589" transform="rotate(-159.0 400 300)"/><rect width="153" height="126" x="355" y="586" fill="#ed2b2c" stroke="#f27630" stroke-opacity=".467" stroke-width="7" opacity=".148" transform="rotate(-159.0 400 300)"/><ellipse cx="579" cy="547" fill="#ed2b2c" stroke="#ed2b2c" stroke-opacity=".967" stroke-width="1" opacity=".495" rx="126" ry="266" transform="rotate(142.0 400 300)"/><rect width="267" height="134" x="359" y="207" fill="#31a06b" stroke="#f27630" stroke-opacity=".864" stroke-width="3" opacity=".66" transform="rotate(14.0 400 300)"/><ellipse cx="285" cy="551" fill="#f27630" stroke="#31a06b" stroke-opacity=".326" stroke-width="2" opacity=".768" rx="119" ry="152" transform="rotate(-115.0 400 300)"/></g></svg>