<?xml version="1.0" encoding="UTF-8"?>
<svg width="800px" height="600px" viewBox="0 0 800 600" version="1.1" xmlns="http://www.w3.org/2000/svg" xmlns:xlink="http://www.w3.org/1999/xlink">
  <defs></defs>
  <g stroke="none" stroke-width="1" fill="none" fill-rule="evenodd">
    
    <path stroke="#43A6D8" stroke-width="6" fill="#8648A0" opacity="0.08663876622538132" stroke-opacity="0.5226226356701547" transform="rotate(128.0 400 300)" d="M 139,460  C 150,225 346,427 538,143 C 593,242 184,195 346,489 C 574,499 531,259 697,314 C 645,175 445,228 131,366 C 256,267 589,441 620,455 C 237,466 593,180 225,126 C 393,385 416,341 552,255 C 235,200 161,462 545,443 C 614,436 250,308 623,466 C 328,313 302,405 195,332 Z"></path>
<path stroke="#A3D95A" stroke-width="1" fill="#418DD5" opacity="0.8157848686678397" stroke-opacity="0.48248644612505215" transform="rotate(-63.0 400 300)" d="M 351,306  C 101,170 685,409 161,268 C 600,295 584,257 588,451 C 656,234 363,482 449,484 C 410,416 423,411 667,294 C 624,159 402,439 351,275 C 196,225 307,321 244,350 Z"></path>
<path stroke="#DA72D0" stroke-width="1" fill="#40C1B7" opacity="0.15223705397435922" stroke-opacity="0.8902087646453092" transform="rotate(-48.0 400 300)" d="M 110,278  C 140,205 346,142 182,477 C 494,494 597,498 277,370 C 561,472 382,467 689,428 C 178,300 382,274 534,395 C 568,184 162,142 186,342 C 233,289 466,493 188,124 C 627,428 445,221 174,379 C 605,119 374,318 397,313 C 492,286 280,387 359,378 C 469,200 675,111 428,251 Z"></path>
<path stroke="#7B0034" stroke-width="6" fill="#837B21" opacity="0.20228994902968267" stroke-opacity="0.018058703202054383" transform="rotate(-92.0 400 300)" d="M 481,417  C 108,138 324,197 139,429 C 110,355 445,258 586,401 C 369,246 548,225 688,384 C 543,172 588,319 582,494 C 144,323 309,289 232,208 C 597,107 298,260 681,470 C 412,179 587,465 317,313 C 420,219 273,155 114,360 C 334,291 126,491 257,138 Z"></path>
<path stroke="#92A2A2" stroke-width="4" fill="#4969B0" opacity="0.25600856509491454" stroke-opacity="0.946603835770538" transform="rotate(-164.0 400 300)" d="M 341,341  C 285,282 673,314 434,164 C 337,449 159,257 221,218 C 331,282 288,350 457,349 C 510,108 278,186 582,126 C 127,316 298,246 283,217 C 589,437 208,284 618,211 C 478,222 248,206 267,330 C 248,414 159,486 552,352 Z"></path>
<path stroke="#74367B" stroke-width="5" fill="#250122" opacity="0.09673248874150028" stroke-opacity="0.2916459346806994" transform="rotate(-17.0 400 300)" d="M 330,393  C 279,449 455,193 316,481 C 179,333 317,325 114,111 C 350,112 130,474 296,183 C 161,417 585,252 381,141 C 289,196 489,496 484,380 C 220,232 136,112 410,277 C 670,284 274,241 608,168 C 330,261 130,169 644,273 C 675,208 415,333 177,264 Z"></path>
<path stroke="#A6599B" stroke-width="5" fill="#A57C70" opacity="0.5749544787408981" stroke-opacity="0.8694798453703099" transform="rotate(149.0 400 300)" d="M 606,219  C 243,268 644,470 672,200 C 131,159 694,215 259,467 C 467,418 309,305 461,461 C 211,232 238,225 230,458 C 676,156 322,296 628,425 C 548,199 456,462 209,156 C 133,297 616,449 323,249 C 411,296 321,244 523,132 Z"></path>
<path stroke="#60D9C8" stroke-width="1" fill="#9C090D" opacity="0.823310362119971" stroke-opacity="0.12442214906803155" transform="rotate(-27.0 400 300)" d="M 239,120  C 599,289 530,395 431,466 C 628,488 265,297 604,249 C 343,408 159,400 585,143 C 473,273 336,249 451,287 C 362,420 577,212 627,321 C 122,175 156,330 549,207 C 234,184 544,284 427,205 C 521,484 278,389 339,152 Z"></path>
<path stroke="#0D6592" stroke-width="4" fill="#5B322C" opacity="0.1955518277046227" stroke-opacity="0.2568305895291389" transform="rotate(49.0 400 300)" d="M 478,333  C 303,430 366,101 210,257 C 411,252 446,324 316,448 C 296,489 589,372 358,135 C 654,108 363,214 324,441 C 138,133 638,145 286,249 C 393,499 531,432 331,479 Z"></path>
<path stroke="#C40980" stroke-width="5" fill="#6150CA" opacity="0.9073716437047769" stroke-opacity="0.8322762801946436" transform="rotate(87.0 400 300)" d="M 123,393  C 431,103 493,101 686,286 C 396,279 272,145 582,273 C 488,158 421,401 606,160 C 413,279 623,349 564,484 C 126,389 605,499 198,427 C 536,460 498,252 521,410 C 451,278 400,349 602,442 C 321,388 293,371 466,490 C 262,420 140,307 356,391 C 612,491 396,107 234,352 Z"></path>
<path stroke="#A17475" stroke-width="7" fill="#2B1D5D" opacity="0.3357699936228455" stroke-opacity="0.3840534522763274" transform="rotate(85.0 400 300)" d="M 630,158  C 342,235 337,205 593,301 C 420,191 314,264 594,272 C 128,317 174,333 229,381 C 436,113 288,203 475,148 C 148,210 277,376 575,239 C 352,310 343,166 297,419 C 687,438 650,330 596,471 C 405,409 628,369 569,190 C 343,338 471,435 642,473 C 126,411 272,315 533,459 C 255,144 588,421 197,240 Z"></path>

  </g>
</svg>
