<svg xmlns="http://www.w3.org/2000/svg" xmlns:xlink="http://www.w3.org/1999/xlink" width="800" height="600" version="1.1" viewBox="0 0 800 600"><g fill="none" fill-rule="evenodd" stroke="none" stroke-width="1"><path fill="#ed2b2c" stroke="#ed2b2c" stroke-opacity=".219" stroke-width="2" d="M 603,271 C 215,133 330,104 318,482 C 244,168 214,342 388,202 C 362,304 347,475 675,220 C 688,178 154,398 676,285 C 396,429 440,328 454,333 C 133,430 373,390 251,367 C 595,398 341,354 182,196 C 266,345 101,340 237,221 C 614,143 230,153 608,194 Z" opacity=".284" transform="rotate(152.0 400 300)"/><path fill="#31a06b" stroke="#2b55f7" stroke-opacity=".124" stroke-width="2" d="M 291,327 C 489,245 182,362 542,378 C 419,187 147,389 645,208 C 394,233 129,198 195,494 C 155,473 504,183 275,400 C 422,360 690,480 446,152 Z" opacity=".648" transform="rotate(-99.0 400 300)"/><path fill="#2b55f7" stroke="#2b55f7" stroke-opacity=".345" stroke-width="1" d="M 435,254 C 473,300 637,198 678,316 C 562,414 184,358 280,370 C 339,304 519,102 680,261 C 533,467 552,206 687,419 C 485,307 368,263 360,124 C 157,428 498,357 356,495 C 662,121 513,306 210,287 C 164,307 408,420 196,499 C 115,479 673,276 404,259 C 497,409 223,327 416,171 C 520,336 437,251 556,255 Z" opacity=".166" transform="rotate(-56.0 400 300)"/><path fill="#31a06b" stroke="#f9d84b" stroke-opacity=".914" stroke-width="2" d="M 111,389 C 469,162 437,162 241,258 C 307,344 506,401 516,219 C 588,343 121,320 322,114 C 435,420 163,217 671,217 Z" opacity=".491" transform="rotate(169.0 400 300)"/><path fill="#f9d84b" stroke="#f9d84b" stroke-opacity=".981" stroke-width="6" d="M 564,342 C 661,304 172,340 173,242 C 515,496 510,482 474,286 C 537,457 327,338 696,299 C 165,418 323,196 493,105 C 413,294 560,325 237,398 C 270,369 139,366 664,313 C 145,191 628,338 433,141 C 584,153 679,111 159,152 C 330,196 120,213 645,243 C 634,110 595,342 675,498 C 419,472 576,335 498,384 Z" opacity=".85" transform="rotate(-76.0 400 300)"/><path fill="#ed2b2c" stroke="#f27630" stroke-opacity=".733" stroke-width="5" d="M 192,251 C 276,464 225,309 685,482 C 430,190 504,291 183,252 C 291,103 423,334 243,199 C 624,249 502,332 551,278 C 678,483 348,218 239,265 C 535,254 199,442 483,387 C 700,306 293,419 469,108 C 175,380 594,349 301,451 C 618,429 405,400 182,328 C 425,132 585,310 369,198 Z" opacity=".302" transform="rotate(-169.0 400 300)"/><path fill="#2b55f7" stroke="#f9d84b" stroke-opacity=".472" stroke-width="4" d="M 243,222 C 300,222 181,172 671,228 C 560,472 631,460 362,397 C 325,215 413,346 222,326 C 493,392 193,441 127,121 C 526,140 142,437 380,435 Z" opacity=".12" transform="rotate(-102.0 400 300)"/></g></svg>