<svg xmlns="http://www.w3.org/2000/svg" xmlns:xlink="http://www.w3.org/1999/xlink" width="800" height="600" version="1.1" viewBox="0 0 800 600"><g fill="none" fill-rule="evenodd" stroke="none" stroke-width="1"><path fill="#f27630" stroke="#f27630" stroke-opacity=".745" stroke-width="5" d="M 350,215 C 204,288 326,333 317,133 C 368,205 634,251 109,117 C 157,237 339,286 552,164 C 209,102 444,297 106,172 Z" opacity=".639" transform="rotate(156.0 400 300)"/><path fill="#2b55f7" stroke="#2b55f7" stroke-opacity=".184" stroke-width="1" d="M 366,135 C 416,138 102,303 263,438 C 572,494 105,435 606,370 C 651,417 157,285 379,157 C 246,123 240,387 231,447 C 552,387 454,285 253,114 C 688,414 220,221 426,406 Z" opacity=".277" transform="rotate(64.0 400 300)"/><path fill="#2b55f7" stroke="#ed2b2c" stroke-opacity=".039" stroke-width="6" d="M 461,304 C 540,182 468,366 601,286 C 238,446 288,334 173,294 C 509,205 430,250 641,151 C 599,362 432,395 601,403 C 507,314 343,149 217,335 C 664,425 378,397 261,320 C 598,399 299,184 385,330 C 688,142 468,341 113,213 C 213,147 596,283 508,107 C 272,290 545,456 635,176 C 231,344 205,146 482,476 Z" opacity=".683" transform="rotate(-165.0 400 300)"/><path fill="#f9d84b" stroke="#f9d84b" stroke-opacity=".866" stroke-width="7" d="M 316,262 C 359,101 438,266 503,229 C 513,322 502,248 210,112 C 470,253 556,165 646,224 C 486,495 639,291 146,398 C 425,381 102,111 619,312 C 639,468 104,413 402,360 C 298,152 205,433 412,272 Z" opacity=".438" transform="rotate(99.0 400 300)"/><path fill="#2b55f7" stroke="#ed2b2c" stroke-opacity=".859" stroke-width="6" d="M 601,108 C 673,398 319,429 683,454 C 581,325 540,112 401,158 C 232,347 429,330 234,124 C 290,243 317,406 240,401 Z" opacity=".808" transform="rotate(150.0 400 300)"/><path fill="#f9d84b" stroke="#ed2b2c" stroke-opacity=".38" stroke-width="2" d="M 231,296 C 354,399 197,343 305,316 C 418,474 345,366 503,356 C 117,438 389,121 514,173 C 581,165 158,216 439,420 C 103,358 221,290 148,341 C 457,405 160,228 666,285 C 358,136 597,495 160,244 C 261,298 267,230 206,218 C 509,159 445,294 596,384 C 290,220 219,102 541,185 C 556,140 449,281 338,150 Z" opacity=".952" transform="rotate(-147.0 400 300)"/><path fill="#31a06b" stroke="#ed2b2c" stroke-opacity=".027" stroke-width="6" d="M 372,216 C 198,478 124,499 444,175 C 245,142 541,264 311,384 C 619,276 627,190 348,453 C 468,346 555,400 155,339 C 399,418 470,246 521,246 C 544,145 531,329 220,424 C 588,197 538,282 283,219 Z" opacity=".995" transform="rotate(10.0 400 300)"/><path fill="#f9d84b" stroke="#ed2b2c" stroke-opacity=".571" stroke-width="3" d="M 565,239 C 307,335 545,426 281,194 C 414,386 517,257 281,169 C 132,168 364,226 562,360 C 659,441 193,168 316,487 C 486,291 155,225 389,226 C 690,390 675,417 285,175 C 276,459 623,411 254,208 Z" opacity=".764" transform="rotate(-105.0 400 300)"/><path fill="#ed2b2c" stroke="#ed2b2c" stroke-opacity=".43" stroke-width="3" d="M 464,281 C 697,489 510,121 217,458 C 134,432 396,424 427,138 C 451,416 372,326 106,258 C 597,157 168,370 600,283 C 672,235 126,147 434,198 C 146,177 689,349 595,259 C 496,133 443,169 672,362 C 436,349 515,337 568,437 C 547,176 270,248 671,248 C 648,233 566,294 628,130 Z" opacity=".424" transform="rotate(-137.0 400 300)"/><path fill="#2b55f7" stroke="#31a06b" stroke-opacity=".391" stroke-width="6" d="M 238,478 C 306,425 214,361 683,167 C 508,302 141,306 370,172 C 138,393 268,185 557,473 C 379,271 655,187 454,223 C 552,446 592,300 203,103 C 570,166 418,180 352,199 C 291,131 499,253 121,402 C 657,380 109,442 138,346 Z" opacity=".653" transform="rotate(-170.0 400 300)"/></g></svg>