<svg xmlns="http://www.w3.org/2000/svg" xmlns:xlink="http://www.w3.org/1999/xlink" width="800" height="600" version="1.1" viewBox="0 0 800 600"><g fill="none" fill-rule="evenodd" stroke="none" stroke-width="1"><rect width="307" height="275" x="139" y="133" fill="#629337" stroke="#9DBB29" stroke-opacity=".791" stroke-width="2" opacity=".47" transform="rotate(123.0 400 300)"/><rect width="69" height="202" x="512" y="445" fill="#48206C" stroke="#5DC127" stroke-opacity=".604" stroke-width="4" opacity=".653" transform="rotate(29.0 400 300)"/><path fill="#381494" stroke="#7315C9" stroke-opacity=".452" stroke-width="5" d="M 317,195 C 463,268 692,489 316,469 C 380,413 666,117 404,391 C 356,281 650,390 569,283 C 475,264 393,206 497,219 C 613,473 311,239 658,329 C 295,334 133,393 156,367 Z" opacity=".042" transform="rotate(24.0 400 300)"/><polygon fill="#A7BCB0" stroke="#B2D407" stroke-opacity=".757" stroke-width="6" points="287 348 245 376 398 570 445 350 397 512 649 258" opacity=".672" transform="rotate(165.0 400 300)"/><polygon fill="#CBA097" stroke="#0DB589" stroke-opacity=".805" stroke-width="4" points="24 105 692 108 457 469 230 157 760 508 237 199 104 188" opacity=".375" transform="rotate(-84.0 400 300)"/><rect width="29" height="389" x="73" y="177" fill="#A51664" stroke="#ACD195" stroke-opacity=".788" stroke-width="1" opacity=".645" transform="rotate(11.0 400 300)"/></g></svg>