<svg xmlns="http://www.w3.org/2000/svg" xmlns:xlink="http://www.w3.org/1999/xlink" width="800" height="600" version="1.1" viewBox="0 0 800 600"><g fill="none" fill-rule="evenodd" stroke="none" stroke-width="1"><rect width="105" height="262" x="485" y="115" fill="#0fa6d8" stroke="#2cd3f3" stroke-opacity=".915" stroke-width="6" opacity=".723" transform="rotate(147.0 400 300)"/><ellipse cx="793" cy="37" fill="#f559a0" stroke="#2cd3f3" stroke-opacity=".11" stroke-width="7" opacity=".962" rx="135" ry="72" transform="rotate(-17.0 400 300)"/><rect width="293" height="283" x="375" y="182" fill="#2cd3f3" stroke="#0fa6d8" stroke-opacity=".158" stroke-width="6" opacity=".699" transform="rotate(-142.0 400 300)"/><path fill="#0fa6d8" stroke="#02eb6b" stroke-opacity=".135" stroke-width="5" d="M 496,145 C 293,366 558,156 280,351 C 497,413 667,258 513,150 C 384,106 169,190 205,217 C 107,490 565,266 392,185 C 504,464 666,225 565,462 C 621,316 239,254 284,170 Z" opacity=".579" transform="rotate(-11.0 400 300)"/><polygon fill="#fe9225" stroke="#f559a0" stroke-opacity=".809" stroke-width="4" points="614 2 566 18 474 424 190 114 25 520 167 318 58 45" opacity=".687" transform="rotate(53.0 400 300)"/><ellipse cx="453" cy="37" fill="#f559a0" stroke="#2cd3f3" stroke-opacity=".211" stroke-width="6" opacity=".032" rx="429" ry="43" transform="rotate(164.0 400 300)"/><path fill="#02eb6b" stroke="#f559a0" stroke-opacity=".182" stroke-width="3" d="M 330,287 C 110,203 265,248 453,300 C 153,428 316,475 428,216 C 602,156 515,464 602,276 C 413,227 204,143 507,225 Z" opacity=".149" transform="rotate(-41.0 400 300)"/><ellipse cx="367" cy="591" fill="#fe9225" stroke="#f559a0" stroke-opacity=".734" stroke-width="6" opacity=".635" rx="63" ry="234" transform="rotate(70.0 400 300)"/><ellipse cx="509" cy="123" fill="#02eb6b" stroke="#f559a0" stroke-opacity=".055" stroke-width="6" opacity=".414" rx="41" ry="310" transform="rotate(147.0 400 300)"/><path fill="#f559a0" stroke="#fe9225" stroke-opacity=".096" stroke-width="7" d="M 592,277 C 553,335 146,417 162,276 C 524,399 131,471 492,364 C 225,279 163,354 278,266 C 532,447 255,353 328,214 C 505,341 111,394 351,267 C 467,440 218,292 383,418 C 185,321 104,163 615,495 C 617,322 618,170 670,178 C 606,418 265,373 513,369 C 197,172 192,345 314,215 Z" opacity=".991" transform="rotate(-17.0 400 300)"/></g></svg>