<?xml version="1.0" encoding="UTF-8"?>
<svg width="800px" height="600px" viewBox="0 0 800 600" version="1.1" xmlns="http://www.w3.org/2000/svg" xmlns:xlink="http://www.w3.org/1999/xlink">
  <defs></defs>
  <g stroke="none" stroke-width="1" fill="none" fill-rule="evenodd">
    
    <rect stroke="#2cd3f3" stroke-width="6" fill="#0fa6d8" opacity="0.7232186673283815" stroke-opacity="0.9147559741089897" transform="rotate(147.0 400 300)" x="485" y="115" width="105" height="262"></rect>
<ellipse stroke="#2cd3f3" stroke-width="7" fill="#f559a0" opacity="0.9623539339539571" stroke-opacity="0.1095989020181986" transform="rotate(-17.0 400 300)" cx="793" rx="135" cy="37" ry="72"></ellipse>
<rect stroke="#0fa6d8" stroke-width="6" fill="#2cd3f3" opacity="0.6985430502377553" stroke-opacity="0.15830147479462559" transform="rotate(-142.0 400 300)" x="375" y="182" width="293" height="283"></rect>
<path stroke="#02eb6b" stroke-width="5" fill="#0fa6d8" opacity="0.5794212895894812" stroke-opacity="0.13451654855418987" transform="rotate(-11.0 400 300)" d="M 496,145  C 293,366 558,156 280,351 C 497,413 667,258 513,150 C 384,106 169,190 205,217 C 107,490 565,266 392,185 C 504,464 666,225 565,462 C 621,316 239,254 284,170 Z"></path>
<polygon stroke="#f559a0" stroke-width="4" fill="#fe9225" opacity="0.6874692903695173" stroke-opacity="0.8094226197808616" transform="rotate(53.0 400 300)" points="614 2 566 18 474 424 190 114 25 520 167 318 58 45 "></polygon>
<ellipse stroke="#2cd3f3" stroke-width="6" fill="#f559a0" opacity="0.031596627963296285" stroke-opacity="0.21131667316443228" transform="rotate(164.0 400 300)" cx="453" rx="429" cy="37" ry="43"></ellipse>
<path stroke="#f559a0" stroke-width="3" fill="#02eb6b" opacity="0.14936556515086002" stroke-opacity="0.18177918236400697" transform="rotate(-41.0 400 300)" d="M 330,287  C 110,203 265,248 453,300 C 153,428 316,475 428,216 C 602,156 515,464 602,276 C 413,227 204,143 507,225 Z"></path>
<ellipse stroke="#f559a0" stroke-width="6" fill="#fe9225" opacity="0.6353195135203319" stroke-opacity="0.7337760376526674" transform="rotate(70.0 400 300)" cx="367" rx="63" cy="591" ry="234"></ellipse>
<ellipse stroke="#f559a0" stroke-width="6" fill="#02eb6b" opacity="0.41447751247291786" stroke-opacity="0.05477423568536032" transform="rotate(147.0 400 300)" cx="509" rx="41" cy="123" ry="310"></ellipse>
<path stroke="#fe9225" stroke-width="7" fill="#f559a0" opacity="0.9911295738634287" stroke-opacity="0.09613215809367401" transform="rotate(-17.0 400 300)" d="M 592,277  C 553,335 146,417 162,276 C 524,399 131,471 492,364 C 225,279 163,354 278,266 C 532,447 255,353 328,214 C 505,341 111,394 351,267 C 467,440 218,292 383,418 C 185,321 104,163 615,495 C 617,322 618,170 670,178 C 606,418 265,373 513,369 C 197,172 192,345 314,215 Z"></path>

  </g>
</svg>
