<svg xmlns="http://www.w3.org/2000/svg" xmlns:xlink="http://www.w3.org/1999/xlink" width="800" height="600" version="1.1" viewBox="0 0 800 600"><g fill="none" fill-rule="evenodd" stroke="none" stroke-width="1"><path fill="#C1D811" stroke="#08283B" stroke-opacity=".209" stroke-width="5" d="M 274,178 C 700,290 679,294 347,145 C 135,405 589,253 217,500 C 206,425 495,191 602,382 C 365,308 634,267 249,434 C 528,304 392,268 668,124 C 613,133 200,292 321,188 C 131,339 207,431 452,193 C 683,413 437,113 348,430 C 375,435 309,316 621,368 C 674,399 431,436 136,256 Z" opacity=".154" transform="rotate(90.0 400 300)"/><path fill="#B82DD2" stroke="#824C9A" stroke-opacity=".992" stroke-width="6" d="M 543,443 C 269,424 557,308 495,157 C 599,210 156,288 288,323 C 574,259 581,137 552,470 C 512,373 535,267 548,357 C 510,126 285,235 254,319 C 527,112 471,187 261,365 C 629,308 319,314 465,434 C 225,155 576,460 502,440 C 667,391 473,489 363,335 Z" opacity=".663" transform="rotate(125.0 400 300)"/><path fill="#316611" stroke="#86B906" stroke-opacity=".87" stroke-width="6" d="M 368,498 C 474,483 152,302 568,133 C 417,271 318,409 575,214 C 150,165 482,467 124,488 C 546,389 402,171 519,295 C 136,244 301,469 296,106 C 223,157 166,204 551,258 Z" opacity=".955" transform="rotate(47.0 400 300)"/><path fill="#199AC7" stroke="#155C70" stroke-opacity=".124" stroke-width="7" d="M 416,135 C 567,318 544,142 348,199 C 241,179 592,135 604,231 C 179,353 607,186 247,399 C 392,300 645,125 644,330 Z" opacity=".717" transform="rotate(-12.0 400 300)"/><path fill="#D4A409" stroke="#31107B" stroke-opacity=".91" stroke-width="7" d="M 494,143 C 254,474 261,162 375,364 C 603,226 680,426 270,405 C 363,463 568,185 246,240 C 501,243 477,331 122,371 C 132,415 597,246 506,212 C 336,422 515,105 587,131 C 150,118 539,429 536,474 C 479,481 646,485 380,407 C 401,286 270,319 596,263 Z" opacity=".939" transform="rotate(36.0 400 300)"/><path fill="#47A34D" stroke="#9D2524" stroke-opacity=".177" stroke-width="7" d="M 382,368 C 126,475 363,371 547,361 C 221,334 153,340 456,385 C 468,227 219,456 393,456 C 183,211 108,152 559,200 C 465,356 322,394 610,359 C 380,284 461,351 190,169 Z" opacity=".899" transform="rotate(-56.0 400 300)"/><path fill="#38065D" stroke="#868606" stroke-opacity=".747" stroke-width="1" d="M 245,458 C 496,148 499,272 578,118 C 492,460 661,357 562,262 C 650,226 339,326 302,315 C 602,281 542,134 466,303 Z" opacity=".679" transform="rotate(38.0 400 300)"/><path fill="#760764" stroke="#597AD9" stroke-opacity=".03" stroke-width="7" d="M 588,146 C 303,487 690,118 162,376 C 297,494 689,221 647,483 C 161,444 329,434 641,497 C 232,345 459,126 349,402 Z" opacity=".381" transform="rotate(45.0 400 300)"/><path fill="#957265" stroke="#4299C8" stroke-opacity=".378" stroke-width="2" d="M 145,177 C 274,421 399,224 438,319 C 321,236 301,295 625,207 C 395,369 503,252 498,350 C 600,150 299,133 247,117 C 628,291 491,144 541,420 C 507,474 568,392 553,215 Z" opacity=".774" transform="rotate(-85.0 400 300)"/></g></svg>