<svg xmlns="http://www.w3.org/2000/svg" xmlns:xlink="http://www.w3.org/1999/xlink" width="800" height="600" version="1.1" viewBox="0 0 800 600"><g fill="none" fill-rule="evenodd" stroke="none" stroke-width="1"><ellipse cx="571" cy="227" fill="#C6D4D8" stroke="#240A0B" stroke-opacity=".797" stroke-width="4" opacity=".82" rx="259" ry="294" transform="rotate(-9.0 400 300)"/><polygon fill="#B66862" stroke="#08B91D" stroke-opacity=".634" stroke-width="7" points="182 13 470 230 380 457 785 94 619 216 623 496 777 56 258 405" opacity=".844" transform="rotate(-12.0 400 300)"/><rect width="252" height="177" x="109" y="515" fill="#7C6969" stroke="#52534A" stroke-opacity=".141" stroke-width="1" opacity=".726" transform="rotate(-160.0 400 300)"/><path fill="#13D924" stroke="#43A8C2" stroke-opacity=".478" stroke-width="6" d="M 468,454 C 536,384 509,458 590,138 C 371,264 344,120 131,109 C 169,386 630,375 567,411 C 502,161 493,312 277,227 C 244,344 656,416 325,111 C 557,264 207,364 203,352 C 340,175 621,449 506,180 C 511,427 591,101 328,161 Z" opacity=".185" transform="rotate(-43.0 400 300)"/><polygon fill="#71653A" stroke="#C22D3A" stroke-opacity=".874" stroke-width="7" points="318 235 412 314 633 163 263 67 592 193 117 69" opacity=".168" transform="rotate(8.0 400 300)"/><ellipse cx="168" cy="73" fill="#CC295A" stroke="#A71891" stroke-opacity=".867" stroke-width="2" opacity=".715" rx="294" ry="347" transform="rotate(-69.0 400 300)"/><path fill="#999BA6" stroke="#9D8275" stroke-opacity=".633" stroke-width="1" d="M 311,388 C 405,399 124,231 176,310 C 284,398 296,409 570,351 C 617,228 340,334 298,408 C 195,280 326,207 459,435 C 132,195 248,440 469,358 C 329,443 376,314 248,142 C 615,214 410,373 342,464 Z" opacity=".944" transform="rotate(-10.0 400 300)"/><path fill="#DAD9A7" stroke="#800D1C" stroke-opacity=".558" stroke-width="1" d="M 528,303 C 415,234 145,238 437,282 C 451,342 387,160 518,134 C 676,278 513,377 394,309 C 188,132 125,192 292,366 C 464,232 535,441 656,380 C 111,215 118,257 380,199 C 115,325 484,295 386,374 Z" opacity=".146" transform="rotate(-124.0 400 300)"/><path fill="#604A32" stroke="#C000D0" stroke-opacity=".378" stroke-width="2" d="M 473,129 C 136,210 244,182 296,450 C 462,114 612,240 219,426 C 116,314 633,323 121,213 C 359,379 619,106 126,497 C 277,131 520,460 129,362 C 328,289 257,475 607,327 C 355,288 592,346 358,358 C 441,189 187,276 694,129 C 181,467 632,187 427,220 C 458,241 134,153 296,434 C 141,362 586,184 409,147 Z" opacity=".787" transform="rotate(-19.0 400 300)"/><polygon fill="#A5A4BD" stroke="#2988DA" stroke-opacity=".634" stroke-width="3" points="95 187 380 219 636 473 29 57 101 537 361 465" opacity=".319" transform="rotate(-28.0 400 300)"/></g></svg>