<svg xmlns="http://www.w3.org/2000/svg" xmlns:xlink="http://www.w3.org/1999/xlink" width="800" height="600" version="1.1" viewBox="0 0 800 600"><g fill="none" fill-rule="evenodd" stroke="none" stroke-width="1"><path fill="#C25D80" stroke="#50BA4C" stroke-opacity=".604" stroke-width="4" d="M 400,125 C 374,157 118,471 272,142 C 305,408 371,315 272,280 C 375,275 194,121 365,161 C 144,153 248,466 290,280 C 204,414 593,485 401,421 C 155,155 295,472 232,474 C 360,201 498,430 305,291 C 248,354 654,105 296,217 Z" opacity=".35" transform="rotate(11.0 400 300)"/><path fill="#4A7A16" stroke="#47BDD3" stroke-opacity=".793" stroke-width="4" d="M 658,460 C 355,378 625,450 443,329 C 482,353 438,254 613,138 C 149,328 599,451 180,218 C 527,348 129,395 685,280 C 280,105 108,321 410,474 Z" opacity=".32" transform="rotate(45.0 400 300)"/><path fill="#A0000B" stroke="#DDD4A8" stroke-opacity=".413" stroke-width="7" d="M 508,333 C 402,195 277,166 175,235 C 480,158 678,356 345,382 C 321,138 262,337 641,460 C 574,431 656,305 257,129 C 185,457 401,160 691,417 C 516,494 587,120 150,337 Z" opacity=".969" transform="rotate(74.0 400 300)"/><path fill="#8B4B17" stroke="#DAD1B3" stroke-opacity=".151" stroke-width="2" d="M 150,153 C 651,202 400,499 241,359 C 423,313 251,497 332,351 C 389,183 498,470 627,384 C 221,255 646,352 418,376 C 582,337 114,156 130,395 C 641,199 140,212 331,106 Z" opacity=".595" transform="rotate(149.0 400 300)"/><path fill="#1B65DC" stroke="#DD4B01" stroke-opacity=".673" stroke-width="1" d="M 238,438 C 611,233 383,355 131,282 C 673,190 612,391 591,387 C 220,457 192,419 109,376 C 387,409 396,435 226,373 C 632,252 207,362 360,376 C 202,467 611,380 316,441 Z" opacity=".995" transform="rotate(161.0 400 300)"/><path fill="#5426C8" stroke="#B01538" stroke-opacity=".199" stroke-width="7" d="M 657,216 C 264,267 636,345 379,343 C 131,469 193,133 329,310 C 250,193 225,175 577,102 C 151,135 480,237 577,171 C 342,296 101,424 678,134 C 223,255 216,357 144,431 C 375,443 439,238 425,423 C 567,179 648,278 148,361 Z" opacity=".013" transform="rotate(21.0 400 300)"/><path fill="#D46D76" stroke="#8107DA" stroke-opacity=".131" stroke-width="5" d="M 679,192 C 475,391 252,148 589,356 C 134,175 565,304 254,275 C 196,432 563,450 418,252 C 255,363 285,421 460,121 C 160,135 654,340 624,108 C 520,210 616,242 343,109 Z" opacity=".336" transform="rotate(20.0 400 300)"/><path fill="#59C397" stroke="#60692D" stroke-opacity=".261" stroke-width="5" d="M 141,415 C 484,404 693,284 442,490 C 137,400 352,285 148,205 C 167,469 102,316 560,369 C 490,444 380,144 622,234 C 163,425 646,305 244,314 C 112,346 309,328 365,265 C 327,381 498,374 629,217 C 238,193 521,278 508,306 C 304,303 533,323 125,141 C 449,271 203,360 350,116 C 392,341 257,301 117,134 Z" opacity=".853" transform="rotate(1.0 400 300)"/><path fill="#C2D077" stroke="#509C48" stroke-opacity=".337" stroke-width="6" d="M 226,436 C 316,188 691,445 394,257 C 406,374 674,110 605,146 C 157,267 112,185 369,441 C 576,462 625,177 184,126 C 134,182 122,492 216,494 C 501,406 584,463 290,402 C 342,319 654,113 134,184 C 631,181 617,157 610,380 Z" opacity=".057" transform="rotate(-50.0 400 300)"/></g></svg>