<?xml version="1.0" encoding="UTF-8"?>
<svg width="800px" height="600px" viewBox="0 0 800 600" version="1.1" xmlns="http://www.w3.org/2000/svg" xmlns:xlink="http://www.w3.org/1999/xlink">
  <defs></defs>
  <g stroke="none" stroke-width="1" fill="none" fill-rule="evenodd">
    
    <path stroke="#50BA4C" stroke-width="4" fill="#C25D80" opacity="0.35046595164358146" stroke-opacity="0.6038347162619616" transform="rotate(11.0 400 300)" d="M 400,125  C 374,157 118,471 272,142 C 305,408 371,315 272,280 C 375,275 194,121 365,161 C 144,153 248,466 290,280 C 204,414 593,485 401,421 C 155,155 295,472 232,474 C 360,201 498,430 305,291 C 248,354 654,105 296,217 Z"></path>
<path stroke="#47BDD3" stroke-width="4" fill="#4A7A16" opacity="0.3196382107089579" stroke-opacity="0.7933043530534458" transform="rotate(45.0 400 300)" d="M 658,460  C 355,378 625,450 443,329 C 482,353 438,254 613,138 C 149,328 599,451 180,218 C 527,348 129,395 685,280 C 280,105 108,321 410,474 Z"></path>
<path stroke="#DDD4A8" stroke-width="7" fill="#A0000B" opacity="0.9685055912060011" stroke-opacity="0.41276677449324967" transform="rotate(74.0 400 300)" d="M 508,333  C 402,195 277,166 175,235 C 480,158 678,356 345,382 C 321,138 262,337 641,460 C 574,431 656,305 257,129 C 185,457 401,160 691,417 C 516,494 587,120 150,337 Z"></path>
<path stroke="#DAD1B3" stroke-width="2" fill="#8B4B17" opacity="0.5952204565343429" stroke-opacity="0.15091996122077714" transform="rotate(149.0 400 300)" d="M 150,153  C 651,202 400,499 241,359 C 423,313 251,497 332,351 C 389,183 498,470 627,384 C 221,255 646,352 418,376 C 582,337 114,156 130,395 C 641,199 140,212 331,106 Z"></path>
<path stroke="#DD4B01" stroke-width="1" fill="#1B65DC" opacity="0.9948763741634774" stroke-opacity="0.6726965525515026" transform="rotate(161.0 400 300)" d="M 238,438  C 611,233 383,355 131,282 C 673,190 612,391 591,387 C 220,457 192,419 109,376 C 387,409 396,435 226,373 C 632,252 207,362 360,376 C 202,467 611,380 316,441 Z"></path>
<path stroke="#B01538" stroke-width="7" fill="#5426C8" opacity="0.01322334887084342" stroke-opacity="0.19908253120643124" transform="rotate(21.0 400 300)" d="M 657,216  C 264,267 636,345 379,343 C 131,469 193,133 329,310 C 250,193 225,175 577,102 C 151,135 480,237 577,171 C 342,296 101,424 678,134 C 223,255 216,357 144,431 C 375,443 439,238 425,423 C 567,179 648,278 148,361 Z"></path>
<path stroke="#8107DA" stroke-width="5" fill="#D46D76" opacity="0.335769810716043" stroke-opacity="0.1311678810880462" transform="rotate(20.0 400 300)" d="M 679,192  C 475,391 252,148 589,356 C 134,175 565,304 254,275 C 196,432 563,450 418,252 C 255,363 285,421 460,121 C 160,135 654,340 624,108 C 520,210 616,242 343,109 Z"></path>
<path stroke="#60692D" stroke-width="5" fill="#59C397" opacity="0.8533632190386613" stroke-opacity="0.26081393094378985" transform="rotate(1.0 400 300)" d="M 141,415  C 484,404 693,284 442,490 C 137,400 352,285 148,205 C 167,469 102,316 560,369 C 490,444 380,144 622,234 C 163,425 646,305 244,314 C 112,346 309,328 365,265 C 327,381 498,374 629,217 C 238,193 521,278 508,306 C 304,303 533,323 125,141 C 449,271 203,360 350,116 C 392,341 257,301 117,134 Z"></path>
<path stroke="#509C48" stroke-width="6" fill="#C2D077" opacity="0.056576746146316824" stroke-opacity="0.33728119422900943" transform="rotate(-50.0 400 300)" d="M 226,436  C 316,188 691,445 394,257 C 406,374 674,110 605,146 C 157,267 112,185 369,441 C 576,462 625,177 184,126 C 134,182 122,492 216,494 C 501,406 584,463 290,402 C 342,319 654,113 134,184 C 631,181 617,157 610,380 Z"></path>

  </g>
</svg>
