<?xml version="1.0" encoding="UTF-8"?>
<svg width="800px" height="600px" viewBox="0 0 800 600" version="1.1" xmlns="http://www.w3.org/2000/svg" xmlns:xlink="http://www.w3.org/1999/xlink">
  <defs></defs>
  <g stroke="none" stroke-width="1" fill="none" fill-rule="evenodd">
    
    <ellipse stroke="#A68B0D" stroke-width="5" fill="#98CA08" opacity="0.8159364218874001" stroke-opacity="0.5881936326668485" transform="rotate(-74.0 400 300)" cx="486" rx="64" cy="527" ry="332"></ellipse>
<path stroke="#5B375C" stroke-width="4" fill="#D10301" opacity="0.5598632201524221" stroke-opacity="0.6973495080541342" transform="rotate(-161.0 400 300)" d="M 334,151  C 242,118 443,294 213,435 C 608,271 172,300 585,130 C 547,168 313,113 551,158 C 545,327 491,234 655,110 C 142,361 111,499 224,130 C 583,359 662,414 699,311 C 677,337 647,229 603,248 C 608,353 105,296 471,184 C 332,189 484,373 287,175 C 209,265 584,457 178,482 Z"></path>
<path stroke="#A3930C" stroke-width="3" fill="#16A505" opacity="0.7741585674105868" stroke-opacity="0.48060615189035494" transform="rotate(60.0 400 300)" d="M 111,274  C 249,162 430,141 244,352 C 453,407 121,350 629,335 C 694,376 222,478 471,199 C 699,458 319,385 315,493 C 389,268 477,110 239,433 C 117,487 287,108 327,376 C 291,321 336,143 433,350 C 530,182 347,106 122,180 C 360,150 657,212 561,444 C 308,464 455,494 429,345 C 306,220 397,243 597,381 Z"></path>
<ellipse stroke="#49C442" stroke-width="6" fill="#23A5B3" opacity="0.33002143844433285" stroke-opacity="0.6352116132204074" transform="rotate(12.0 400 300)" cx="507" rx="78" cy="79" ry="115"></ellipse>
<path stroke="#CACB09" stroke-width="7" fill="#B3C814" opacity="0.7918376686680532" stroke-opacity="0.17860561521107055" transform="rotate(31.0 400 300)" d="M 483,136  C 592,394 264,460 235,351 C 311,367 503,309 464,320 C 352,457 187,350 410,352 C 105,472 273,264 237,325 Z"></path>
<polygon stroke="#47C24C" stroke-width="3" fill="#245AA3" opacity="0.6637972562292815" stroke-opacity="0.46269810479711165" transform="rotate(-149.0 400 300)" points="668 558 673 575 123 147 749 204 264 568 "></polygon>
<path stroke="#C3A648" stroke-width="3" fill="#13B7DC" opacity="0.015201030643480272" stroke-opacity="0.9273261400293747" transform="rotate(172.0 400 300)" d="M 696,330  C 181,155 466,472 208,246 C 619,447 111,350 651,433 C 299,448 134,220 548,236 C 403,349 634,271 148,244 C 369,338 399,348 651,280 Z"></path>
<path stroke="#A901B1" stroke-width="3" fill="#205AC6" opacity="0.8899300628203034" stroke-opacity="0.9659211989877604" transform="rotate(-20.0 400 300)" d="M 611,230  C 688,109 527,461 330,190 C 677,388 661,321 508,417 C 346,473 569,146 192,209 C 167,148 262,336 545,144 Z"></path>
<rect stroke="#C3279B" stroke-width="6" fill="#C551CA" opacity="0.3577540589939056" stroke-opacity="0.6248816231838346" transform="rotate(84.0 400 300)" x="507" y="55" width="21" height="294"></rect>
<ellipse stroke="#49DC97" stroke-width="1" fill="#6124D5" opacity="0.05525253609705478" stroke-opacity="0.9181691212426845" transform="rotate(-35.0 400 300)" cx="631" rx="399" cy="153" ry="288"></ellipse>

  </g>
</svg>
