<svg xmlns="http://www.w3.org/2000/svg" xmlns:xlink="http://www.w3.org/1999/xlink" width="800" height="600" version="1.1" viewBox="0 0 800 600"><g fill="none" fill-rule="evenodd" stroke="none" stroke-width="1"><ellipse cx="486" cy="527" fill="#98CA08" stroke="#A68B0D" stroke-opacity=".588" stroke-width="5" opacity=".816" rx="64" ry="332" transform="rotate(-74.0 400 300)"/><path fill="#D10301" stroke="#5B375C" stroke-opacity=".697" stroke-width="4" d="M 334,151 C 242,118 443,294 213,435 C 608,271 172,300 585,130 C 547,168 313,113 551,158 C 545,327 491,234 655,110 C 142,361 111,499 224,130 C 583,359 662,414 699,311 C 677,337 647,229 603,248 C 608,353 105,296 471,184 C 332,189 484,373 287,175 C 209,265 584,457 178,482 Z" opacity=".56" transform="rotate(-161.0 400 300)"/><path fill="#16A505" stroke="#A3930C" stroke-opacity=".481" stroke-width="3" d="M 111,274 C 249,162 430,141 244,352 C 453,407 121,350 629,335 C 694,376 222,478 471,199 C 699,458 319,385 315,493 C 389,268 477,110 239,433 C 117,487 287,108 327,376 C 291,321 336,143 433,350 C 530,182 347,106 122,180 C 360,150 657,212 561,444 C 308,464 455,494 429,345 C 306,220 397,243 597,381 Z" opacity=".774" transform="rotate(60.0 400 300)"/><ellipse cx="507" cy="79" fill="#23A5B3" stroke="#49C442" stroke-opacity=".635" stroke-width="6" opacity=".33" rx="78" ry="115" transform="rotate(12.0 400 300)"/><path fill="#B3C814" stroke="#CACB09" stroke-opacity=".179" stroke-width="7" d="M 483,136 C 592,394 264,460 235,351 C 311,367 503,309 464,320 C 352,457 187,350 410,352 C 105,472 273,264 237,325 Z" opacity=".792" transform="rotate(31.0 400 300)"/><polygon fill="#245AA3" stroke="#47C24C" stroke-opacity=".463" stroke-width="3" points="668 558 673 575 123 147 749 204 264 568" opacity=".664" transform="rotate(-149.0 400 300)"/><path fill="#13B7DC" stroke="#C3A648" stroke-opacity=".927" stroke-width="3" d="M 696,330 C 181,155 466,472 208,246 C 619,447 111,350 651,433 C 299,448 134,220 548,236 C 403,349 634,271 148,244 C 369,338 399,348 651,280 Z" opacity=".015" transform="rotate(172.0 400 300)"/><path fill="#205AC6" stroke="#A901B1" stroke-opacity=".966" stroke-width="3" d="M 611,230 C 688,109 527,461 330,190 C 677,388 661,321 508,417 C 346,473 569,146 192,209 C 167,148 262,336 545,144 Z" opacity=".89" transform="rotate(-20.0 400 300)"/><rect width="21" height="294" x="507" y="55" fill="#C551CA" stroke="#C3279B" stroke-opacity=".625" stroke-width="6" opacity=".358" transform="rotate(84.0 400 300)"/><ellipse cx="631" cy="153" fill="#6124D5" stroke="#49DC97" stroke-opacity=".918" stroke-width="1" opacity=".055" rx="399" ry="288" transform="rotate(-35.0 400 300)"/></g></svg>