<?xml version="1.0" encoding="UTF-8"?>
<svg width="800px" height="600px" viewBox="0 0 800 600" version="1.1" xmlns="http://www.w3.org/2000/svg" xmlns:xlink="http://www.w3.org/1999/xlink">
  <defs></defs>
  <g stroke="none" stroke-width="1" fill="none" fill-rule="evenodd">
    
    <path stroke="#90C09D" stroke-width="1" fill="#D86475" opacity="0.705070224729823" stroke-opacity="0.19047348485075957" transform="rotate(127.0 400 300)" d="M 411,286  C 628,381 202,179 136,178 C 670,466 108,462 460,412 C 608,263 321,489 542,419 C 314,402 264,470 114,483 C 573,118 616,102 119,402 C 351,302 413,231 426,421 C 576,261 492,408 513,275 C 675,336 175,198 278,437 C 413,239 463,357 470,285 C 533,262 374,120 242,325 Z"></path>
<path stroke="#B40C59" stroke-width="7" fill="#57D60A" opacity="0.7025250232389963" stroke-opacity="0.9776295381277779" transform="rotate(112.0 400 300)" d="M 447,478  C 510,232 201,187 611,227 C 455,359 436,238 317,178 C 621,216 276,150 602,229 C 338,445 423,325 351,120 C 559,355 279,238 434,345 C 392,256 314,173 660,377 C 160,320 118,189 527,297 C 143,337 117,166 129,303 C 532,388 256,429 393,436 C 431,276 256,217 294,308 Z"></path>
<path stroke="#46CD6C" stroke-width="3" fill="#55A772" opacity="0.8566665542243727" stroke-opacity="0.02335343875897024" transform="rotate(-24.0 400 300)" d="M 490,447  C 462,490 103,220 115,166 C 225,300 229,401 591,256 C 138,188 668,228 681,114 C 244,226 337,358 119,411 C 325,195 543,332 643,485 C 492,439 436,293 215,171 C 320,364 133,289 609,309 Z"></path>
<path stroke="#DD285D" stroke-width="2" fill="#28B678" opacity="0.022853556907083607" stroke-opacity="0.9193992706360711" transform="rotate(-62.0 400 300)" d="M 491,177  C 584,134 302,208 210,316 C 123,212 583,314 494,119 C 593,489 118,485 235,445 C 348,124 591,217 397,323 C 646,228 181,402 239,492 C 392,446 170,184 662,174 C 161,174 390,157 615,287 Z"></path>
<path stroke="#222298" stroke-width="7" fill="#369642" opacity="0.6513365759875703" stroke-opacity="0.4795030252682166" transform="rotate(119.0 400 300)" d="M 690,403  C 300,189 596,421 360,320 C 626,434 285,416 546,272 C 121,438 371,422 238,482 C 403,463 158,139 484,155 C 607,496 187,496 530,282 C 324,172 310,138 213,414 C 697,426 529,245 230,384 C 590,349 319,205 359,319 Z"></path>
<path stroke="#B80A60" stroke-width="6" fill="#4DC9A3" opacity="0.024731285967744956" stroke-opacity="0.554948130543949" transform="rotate(67.0 400 300)" d="M 527,303  C 562,341 655,407 571,235 C 262,171 132,236 103,192 C 676,150 347,191 688,386 C 438,141 674,451 413,251 Z"></path>
<path stroke="#08D064" stroke-width="2" fill="#DA0169" opacity="0.32657341132606765" stroke-opacity="0.21148518596032156" transform="rotate(85.0 400 300)" d="M 483,456  C 200,380 516,374 300,344 C 122,251 623,433 645,377 C 362,166 163,451 329,457 C 245,465 615,148 247,306 C 339,302 573,408 215,258 C 515,274 611,391 118,369 C 638,228 406,293 648,139 C 131,228 605,165 424,246 C 134,470 153,232 115,251 C 628,433 589,196 215,262 C 207,404 570,348 174,357 Z"></path>

  </g>
</svg>
