<?xml version="1.0" encoding="UTF-8"?>
<svg width="800px" height="600px" viewBox="0 0 800 600" version="1.1" xmlns="http://www.w3.org/2000/svg" xmlns:xlink="http://www.w3.org/1999/xlink">
  <defs></defs>
  <g stroke="none" stroke-width="1" fill="none" fill-rule="evenodd">
    
    <path stroke="#02eb6b" stroke-width="2" fill="#02eb6b" opacity="0.6532285120678669" stroke-opacity="0.35339271273343137" transform="rotate(-178.0 400 300)" d="M 458,386  C 429,422 383,197 108,149 C 594,211 186,453 388,450 C 611,406 698,220 408,423 C 541,141 189,375 311,425 C 280,471 220,201 472,414 C 142,179 550,260 478,410 C 318,397 648,289 482,332 C 321,427 537,305 432,102 C 655,103 312,130 564,453 C 231,325 627,379 281,287 C 389,488 186,464 658,182 Z"></path>
<path stroke="#2cd3f3" stroke-width="7" fill="#02eb6b" opacity="0.06898198462977394" stroke-opacity="0.40731248041267387" transform="rotate(131.0 400 300)" d="M 342,467  C 544,297 190,333 555,420 C 695,355 272,247 548,372 C 120,141 590,415 437,188 C 149,222 334,378 626,161 C 138,123 171,197 232,306 C 621,223 184,288 473,291 C 253,486 288,217 549,252 C 198,118 530,145 359,251 C 286,193 460,204 199,313 C 651,415 427,449 140,445 Z"></path>
<path stroke="#0fa6d8" stroke-width="3" fill="#02eb6b" opacity="0.1084651625031332" stroke-opacity="0.8494581492412908" transform="rotate(-14.0 400 300)" d="M 387,266  C 114,404 163,445 122,440 C 459,109 581,219 516,219 C 587,348 562,311 216,233 C 206,105 598,387 486,273 C 326,426 243,133 396,199 C 485,205 182,470 286,241 Z"></path>
<path stroke="#2cd3f3" stroke-width="2" fill="#0fa6d8" opacity="0.37758134897827816" stroke-opacity="0.9062313714506155" transform="rotate(-144.0 400 300)" d="M 294,249  C 522,206 558,147 280,269 C 241,414 342,482 537,267 C 140,403 330,306 193,169 C 668,293 618,197 109,235 C 598,123 319,134 611,351 C 570,242 302,162 197,237 C 472,391 127,454 205,456 C 218,207 368,172 175,329 Z"></path>
<path stroke="#2cd3f3" stroke-width="4" fill="#0fa6d8" opacity="0.6706988438737449" stroke-opacity="0.012213193457890242" transform="rotate(71.0 400 300)" d="M 291,156  C 373,302 671,492 505,354 C 668,464 222,390 257,169 C 197,409 685,373 422,254 C 133,132 228,362 273,221 C 588,387 614,381 217,361 C 487,207 196,191 218,214 C 685,280 273,224 176,258 C 674,500 619,397 200,151 Z"></path>
<path stroke="#fe9225" stroke-width="1" fill="#fe9225" opacity="0.6501532334747079" stroke-opacity="0.6445428486314035" transform="rotate(-48.0 400 300)" d="M 601,396  C 135,427 159,142 566,320 C 377,462 177,399 350,206 C 667,362 276,197 472,469 C 218,209 684,357 435,272 C 283,227 434,212 461,123 C 377,338 379,470 381,158 C 197,199 568,350 153,151 C 170,134 294,235 466,424 C 322,140 663,273 274,139 C 223,206 420,428 159,166 C 449,378 183,115 544,116 Z"></path>
<path stroke="#2cd3f3" stroke-width="4" fill="#f559a0" opacity="0.8537979310705271" stroke-opacity="0.9084525424351596" transform="rotate(-130.0 400 300)" d="M 504,253  C 652,447 287,347 321,253 C 363,403 391,472 109,371 C 435,412 340,478 283,111 C 268,196 621,475 555,419 C 194,353 158,180 149,409 C 562,490 308,129 299,378 C 257,420 577,391 404,307 C 319,288 542,361 628,214 C 602,324 292,262 364,150 C 606,487 570,192 176,396 C 114,460 336,495 585,471 Z"></path>

  </g>
</svg>
