<?xml version="1.0" encoding="UTF-8"?>
<svg width="800px" height="600px" viewBox="0 0 800 600" version="1.1" xmlns="http://www.w3.org/2000/svg" xmlns:xlink="http://www.w3.org/1999/xlink">
  <defs></defs>
  <g stroke="none" stroke-width="1" fill="none" fill-rule="evenodd">
    
    <rect stroke="#f27630" stroke-width="7" fill="#f9d84b" opacity="0.32530002930807755" stroke-opacity="0.1323438243940966" transform="rotate(-174.0 400 300)" x="424" y="171" width="134" height="93"></rect>
<ellipse stroke="#f9d84b" stroke-width="7" fill="#31a06b" opacity="0.7287247733830535" stroke-opacity="0.17922297449065086" transform="rotate(-128.0 400 300)" cx="118" rx="303" cy="422" ry="190"></ellipse>
<path stroke="#ed2b2c" stroke-width="7" fill="#2b55f7" opacity="0.28581401089943176" stroke-opacity="0.8068052883479913" transform="rotate(47.0 400 300)" d="M 155,144  C 581,468 402,138 142,182 C 249,345 167,427 114,275 C 611,360 271,201 446,145 C 189,140 364,277 267,236 C 214,292 317,102 490,479 C 679,306 529,240 305,315 C 593,486 684,239 178,469 C 535,451 288,499 487,192 Z"></path>
<rect stroke="#31a06b" stroke-width="6" fill="#ed2b2c" opacity="0.550160897604172" stroke-opacity="0.806614143441992" transform="rotate(62.0 400 300)" x="126" y="14" width="80" height="110"></rect>
<rect stroke="#f27630" stroke-width="3" fill="#31a06b" opacity="0.34534316294367084" stroke-opacity="0.06765501401835254" transform="rotate(157.0 400 300)" x="443" y="364" width="58" height="84"></rect>
<ellipse stroke="#2b55f7" stroke-width="1" fill="#31a06b" opacity="0.07975228671800615" stroke-opacity="0.6372390996737965" transform="rotate(39.0 400 300)" cx="674" rx="102" cy="65" ry="330"></ellipse>
<path stroke="#2b55f7" stroke-width="2" fill="#31a06b" opacity="0.39923508818820885" stroke-opacity="0.4530131787779703" transform="rotate(-118.0 400 300)" d="M 508,159  C 669,215 390,372 436,187 C 508,433 268,231 233,188 C 347,329 297,432 601,268 C 485,397 490,485 600,296 C 507,211 527,164 125,126 C 677,212 109,398 296,435 C 599,182 466,493 254,174 C 141,118 375,404 217,454 Z"></path>

  </g>
</svg>
