<svg xmlns="http://www.w3.org/2000/svg" xmlns:xlink="http://www.w3.org/1999/xlink" width="800" height="600" version="1.1" viewBox="0 0 800 600"><g fill="none" fill-rule="evenodd" stroke="none" stroke-width="1"><rect width="134" height="93" x="424" y="171" fill="#f9d84b" stroke="#f27630" stroke-opacity=".132" stroke-width="7" opacity=".325" transform="rotate(-174.0 400 300)"/><ellipse cx="118" cy="422" fill="#31a06b" stroke="#f9d84b" stroke-opacity=".179" stroke-width="7" opacity=".729" rx="303" ry="190" transform="rotate(-128.0 400 300)"/><path fill="#2b55f7" stroke="#ed2b2c" stroke-opacity=".807" stroke-width="7" d="M 155,144 C 581,468 402,138 142,182 C 249,345 167,427 114,275 C 611,360 271,201 446,145 C 189,140 364,277 267,236 C 214,292 317,102 490,479 C 679,306 529,240 305,315 C 593,486 684,239 178,469 C 535,451 288,499 487,192 Z" opacity=".286" transform="rotate(47.0 400 300)"/><rect width="80" height="110" x="126" y="14" fill="#ed2b2c" stroke="#31a06b" stroke-opacity=".807" stroke-width="6" opacity=".55" transform="rotate(62.0 400 300)"/><rect width="58" height="84" x="443" y="364" fill="#31a06b" stroke="#f27630" stroke-opacity=".068" stroke-width="3" opacity=".345" transform="rotate(157.0 400 300)"/><ellipse cx="674" cy="65" fill="#31a06b" stroke="#2b55f7" stroke-opacity=".637" stroke-width="1" opacity=".08" rx="102" ry="330" transform="rotate(39.0 400 300)"/><path fill="#31a06b" stroke="#2b55f7" stroke-opacity=".453" stroke-width="2" d="M 508,159 C 669,215 390,372 436,187 C 508,433 268,231 233,188 C 347,329 297,432 601,268 C 485,397 490,485 600,296 C 507,211 527,164 125,126 C 677,212 109,398 296,435 C 599,182 466,493 254,174 C 141,118 375,404 217,454 Z" opacity=".399" transform="rotate(-118.0 400 300)"/></g></svg>