<?xml version="1.0" encoding="UTF-8"?>
<svg width="800px" height="600px" viewBox="0 0 800 600" version="1.1" xmlns="http://www.w3.org/2000/svg" xmlns:xlink="http://www.w3.org/1999/xlink">
  <defs></defs>
  <g stroke="none" stroke-width="1" fill="none" fill-rule="evenodd">
    
    <path stroke="#31a06b" stroke-width="7" fill="#ed2b2c" opacity="0.05821239309386437" stroke-opacity="0.3056386950749632" transform="rotate(91.0 400 300)" d="M 141,236  C 209,281 591,443 244,413 C 397,348 235,464 176,397 C 403,489 226,419 229,135 C 591,174 270,110 247,466 C 414,360 640,290 326,381 C 211,490 491,172 101,212 C 183,223 146,187 504,378 C 193,278 456,408 193,130 C 530,123 409,395 504,278 Z"></path>
<path stroke="#2b55f7" stroke-width="1" fill="#2b55f7" opacity="0.04778268670553202" stroke-opacity="0.3396709695773471" transform="rotate(120.0 400 300)" d="M 243,199  C 454,304 437,389 154,103 C 292,340 597,364 185,114 C 524,286 488,482 233,253 C 512,367 203,336 183,141 C 429,212 380,199 584,438 C 379,409 503,382 194,444 C 241,397 530,398 567,228 C 105,292 578,475 524,403 Z"></path>
<polygon stroke="#f27630" stroke-width="2" fill="#ed2b2c" opacity="0.35877118738620806" stroke-opacity="0.658240273666274" transform="rotate(90.0 400 300)" points="405 371 236 444 536 193 767 253 381 199 178 7 713 299 "></polygon>
<ellipse stroke="#ed2b2c" stroke-width="6" fill="#ed2b2c" opacity="0.40598448455841674" stroke-opacity="0.5851216549605905" transform="rotate(-101.0 400 300)" cx="278" rx="86" cy="19" ry="150"></ellipse>
<path stroke="#2b55f7" stroke-width="3" fill="#31a06b" opacity="0.05677094279939083" stroke-opacity="0.3414026958760545" transform="rotate(165.0 400 300)" d="M 436,237  C 362,468 393,317 220,476 C 594,160 357,135 352,432 C 285,460 308,229 102,462 C 524,333 638,144 267,178 C 628,306 137,280 411,355 C 564,463 173,324 600,245 C 173,172 106,191 482,246 Z"></path>
<rect stroke="#31a06b" stroke-width="5" fill="#ed2b2c" opacity="0.8620044717025563" stroke-opacity="0.8316387304872053" transform="rotate(-27.0 400 300)" x="363" y="486" width="268" height="325"></rect>
<rect stroke="#f9d84b" stroke-width="3" fill="#f9d84b" opacity="0.9843614178315884" stroke-opacity="0.937395101091046" transform="rotate(-120.0 400 300)" x="600" y="146" width="116" height="282"></rect>

  </g>
</svg>
