<svg xmlns="http://www.w3.org/2000/svg" xmlns:xlink="http://www.w3.org/1999/xlink" width="800" height="600" version="1.1" viewBox="0 0 800 600"><g fill="none" fill-rule="evenodd" stroke="none" stroke-width="1"><path fill="#ed2b2c" stroke="#31a06b" stroke-opacity=".306" stroke-width="7" d="M 141,236 C 209,281 591,443 244,413 C 397,348 235,464 176,397 C 403,489 226,419 229,135 C 591,174 270,110 247,466 C 414,360 640,290 326,381 C 211,490 491,172 101,212 C 183,223 146,187 504,378 C 193,278 456,408 193,130 C 530,123 409,395 504,278 Z" opacity=".058" transform="rotate(91.0 400 300)"/><path fill="#2b55f7" stroke="#2b55f7" stroke-opacity=".34" stroke-width="1" d="M 243,199 C 454,304 437,389 154,103 C 292,340 597,364 185,114 C 524,286 488,482 233,253 C 512,367 203,336 183,141 C 429,212 380,199 584,438 C 379,409 503,382 194,444 C 241,397 530,398 567,228 C 105,292 578,475 524,403 Z" opacity=".048" transform="rotate(120.0 400 300)"/><polygon fill="#ed2b2c" stroke="#f27630" stroke-opacity=".658" stroke-width="2" points="405 371 236 444 536 193 767 253 381 199 178 7 713 299" opacity=".359" transform="rotate(90.0 400 300)"/><ellipse cx="278" cy="19" fill="#ed2b2c" stroke="#ed2b2c" stroke-opacity=".585" stroke-width="6" opacity=".406" rx="86" ry="150" transform="rotate(-101.0 400 300)"/><path fill="#31a06b" stroke="#2b55f7" stroke-opacity=".341" stroke-width="3" d="M 436,237 C 362,468 393,317 220,476 C 594,160 357,135 352,432 C 285,460 308,229 102,462 C 524,333 638,144 267,178 C 628,306 137,280 411,355 C 564,463 173,324 600,245 C 173,172 106,191 482,246 Z" opacity=".057" transform="rotate(165.0 400 300)"/><rect width="268" height="325" x="363" y="486" fill="#ed2b2c" stroke="#31a06b" stroke-opacity=".832" stroke-width="5" opacity=".862" transform="rotate(-27.0 400 300)"/><rect width="116" height="282" x="600" y="146" fill="#f9d84b" stroke="#f9d84b" stroke-opacity=".937" stroke-width="3" opacity=".984" transform="rotate(-120.0 400 300)"/></g></svg>