<svg xmlns="http://www.w3.org/2000/svg" xmlns:xlink="http://www.w3.org/1999/xlink" width="800" height="600" version="1.1" viewBox="0 0 800 600"><g fill="none" fill-rule="evenodd" stroke="none" stroke-width="1"><path fill="#31a06b" stroke="#ed2b2c" stroke-opacity=".28" stroke-width="5" d="M 485,478 C 205,327 321,345 266,349 C 617,187 332,338 644,330 C 505,166 323,122 292,135 C 578,472 658,218 515,439 C 231,393 626,246 679,496 C 495,234 105,150 208,346 C 135,305 486,285 403,423 C 533,174 130,240 428,264 Z" opacity=".55" transform="rotate(61.0 400 300)"/><path fill="#f27630" stroke="#f9d84b" stroke-opacity=".425" stroke-width="1" d="M 655,330 C 648,445 675,331 376,281 C 283,105 686,245 522,495 C 108,357 240,338 498,431 C 568,158 578,252 267,169 C 287,457 286,148 404,238 C 612,296 453,184 438,309 Z" opacity=".916" transform="rotate(-28.0 400 300)"/><path fill="#31a06b" stroke="#31a06b" stroke-opacity=".547" stroke-width="3" d="M 238,249 C 390,153 635,129 426,135 C 555,461 521,201 121,323 C 126,239 305,326 362,276 C 601,449 163,154 136,178 C 136,214 579,195 670,483 C 404,161 393,353 243,404 C 530,218 600,119 690,175 C 568,174 658,211 207,488 C 109,471 188,204 390,309 C 246,441 220,418 164,342 Z" opacity=".605" transform="rotate(73.0 400 300)"/><path fill="#f27630" stroke="#f9d84b" stroke-opacity=".412" stroke-width="3" d="M 475,134 C 586,273 113,432 456,152 C 572,161 527,119 584,356 C 111,218 285,329 283,208 C 147,388 587,371 320,273 C 173,473 396,190 169,131 C 579,401 326,344 250,477 C 596,448 620,374 546,367 Z" opacity=".049" transform="rotate(173.0 400 300)"/><path fill="#f9d84b" stroke="#f9d84b" stroke-opacity=".487" stroke-width="5" d="M 499,322 C 276,425 198,289 203,108 C 133,473 474,236 350,147 C 615,463 572,167 615,246 C 413,189 476,186 200,306 C 633,374 405,353 257,327 C 561,333 222,201 445,364 C 188,270 494,388 659,461 C 532,198 452,137 623,463 Z" opacity=".702" transform="rotate(-89.0 400 300)"/><path fill="#f9d84b" stroke="#31a06b" stroke-opacity=".758" stroke-width="7" d="M 574,194 C 467,259 521,383 417,313 C 468,424 117,117 326,384 C 472,445 605,371 692,262 C 200,261 684,416 551,260 C 607,218 243,437 500,162 C 318,201 343,248 322,492 C 153,248 493,216 140,369 Z" opacity=".276" transform="rotate(-49.0 400 300)"/><path fill="#31a06b" stroke="#ed2b2c" stroke-opacity=".888" stroke-width="3" d="M 489,149 C 527,490 317,457 177,322 C 638,276 552,254 195,199 C 580,130 447,395 125,256 C 499,463 137,482 423,161 Z" opacity=".396" transform="rotate(-49.0 400 300)"/><path fill="#ed2b2c" stroke="#f9d84b" stroke-opacity=".971" stroke-width="3" d="M 275,462 C 131,261 515,177 175,394 C 401,429 594,484 490,109 C 700,247 298,388 104,336 C 278,163 250,432 656,158 C 528,284 411,499 221,131 C 444,416 278,299 118,101 Z" opacity=".57" transform="rotate(60.0 400 300)"/><path fill="#31a06b" stroke="#31a06b" stroke-opacity=".251" stroke-width="3" d="M 410,186 C 235,193 408,194 427,422 C 642,260 617,266 428,387 C 566,212 565,147 550,482 C 283,281 542,239 375,324 C 675,490 287,235 686,498 C 381,163 336,275 144,133 Z" opacity=".745" transform="rotate(136.0 400 300)"/></g></svg>