<?xml version="1.0" encoding="UTF-8"?>
<svg width="800px" height="600px" viewBox="0 0 800 600" version="1.1" xmlns="http://www.w3.org/2000/svg" xmlns:xlink="http://www.w3.org/1999/xlink">
  <defs></defs>
  <g stroke="none" stroke-width="1" fill="none" fill-rule="evenodd">
    
    <path stroke="#34CA5A" stroke-width="3" fill="#D135B5" opacity="0.7572749660339674" stroke-opacity="0.7418249074464349" transform="rotate(-110.0 400 300)" d="M 546,256  C 580,359 310,302 606,278 C 240,446 262,355 404,316 C 396,295 175,459 604,439 C 232,404 212,277 632,135 C 159,231 156,105 129,226 Z"></path>
<path stroke="#0569D3" stroke-width="4" fill="#823380" opacity="0.970883697014021" stroke-opacity="0.5542414054874932" transform="rotate(-45.0 400 300)" d="M 454,389  C 258,207 699,429 310,132 C 597,255 635,289 529,261 C 319,485 110,252 271,493 C 432,448 199,135 304,353 Z"></path>
<path stroke="#D57838" stroke-width="3" fill="#42C735" opacity="0.7958006440137115" stroke-opacity="0.5200278017871502" transform="rotate(163.0 400 300)" d="M 545,354  C 351,290 183,301 566,356 C 504,140 620,435 356,278 C 183,487 693,397 540,166 C 383,282 211,266 490,246 Z"></path>
<path stroke="#461638" stroke-width="2" fill="#9D9683" opacity="0.12157093885708356" stroke-opacity="0.5828379756352121" transform="rotate(-19.0 400 300)" d="M 376,142  C 182,203 697,383 256,480 C 542,449 135,168 658,382 C 579,324 690,307 428,454 C 380,440 496,377 138,307 C 312,321 547,489 698,339 C 149,198 437,230 169,116 C 170,166 114,369 268,309 C 557,385 320,183 641,131 C 592,196 197,329 303,240 C 506,489 385,155 558,358 Z"></path>
<path stroke="#0DB5A6" stroke-width="1" fill="#94AC96" opacity="0.757062302902682" stroke-opacity="0.25308352407414036" transform="rotate(-160.0 400 300)" d="M 342,434  C 587,437 431,402 619,387 C 506,368 193,402 211,489 C 326,219 157,251 501,208 C 661,103 350,155 609,397 C 674,227 101,169 558,489 C 611,121 274,363 357,292 C 674,481 212,112 441,248 Z"></path>
<path stroke="#4D6B24" stroke-width="2" fill="#C46AA8" opacity="0.5005154829746559" stroke-opacity="0.8078199807809369" transform="rotate(-61.0 400 300)" d="M 384,391  C 648,492 415,393 672,402 C 214,175 189,170 268,274 C 290,465 691,144 266,307 C 115,184 604,172 456,419 C 153,227 290,288 368,191 C 447,119 578,471 689,108 C 443,129 474,438 626,445 C 318,459 107,410 460,367 Z"></path>
<path stroke="#307B86" stroke-width="4" fill="#7B9AC0" opacity="0.5343000506150388" stroke-opacity="0.4183406679701485" transform="rotate(145.0 400 300)" d="M 113,116  C 260,450 270,360 141,276 C 458,169 549,145 253,256 C 379,461 158,369 287,293 C 139,291 256,295 665,323 C 106,240 249,275 373,368 C 304,185 268,367 443,441 C 577,259 135,106 140,360 C 201,428 574,346 321,245 Z"></path>
<path stroke="#C2A35C" stroke-width="4" fill="#8AC92A" opacity="0.5174531484650046" stroke-opacity="0.3104055627163657" transform="rotate(112.0 400 300)" d="M 104,298  C 517,188 553,376 218,161 C 317,143 122,305 315,130 C 163,178 452,400 671,327 C 543,416 224,135 215,198 C 487,402 152,128 595,480 Z"></path>
<path stroke="#68CD46" stroke-width="3" fill="#54696B" opacity="0.3615457032087837" stroke-opacity="0.6923231193299665" transform="rotate(55.0 400 300)" d="M 206,274  C 509,187 537,116 352,235 C 689,308 338,235 564,398 C 431,427 290,426 386,444 C 689,112 455,145 699,400 C 513,267 524,124 596,400 C 210,146 682,375 503,331 Z"></path>

  </g>
</svg>
