<?xml version="1.0" encoding="UTF-8"?>
<svg width="800px" height="600px" viewBox="0 0 800 600" version="1.1" xmlns="http://www.w3.org/2000/svg" xmlns:xlink="http://www.w3.org/1999/xlink">
  <defs></defs>
  <g stroke="none" stroke-width="1" fill="none" fill-rule="evenodd">
    
    <path stroke="#2cd3f3" stroke-width="1" fill="#fe9225" opacity="0.2576130068210249" stroke-opacity="0.1772751128742873" transform="rotate(-43.0 400 300)" d="M 432,373  C 180,211 286,473 272,496 C 140,219 396,376 139,143 C 635,244 687,412 346,267 C 557,243 485,235 126,318 C 128,195 636,414 453,336 C 264,166 404,474 694,141 Z"></path>
<path stroke="#2cd3f3" stroke-width="2" fill="#f559a0" opacity="0.9440451290661592" stroke-opacity="0.9648134088280192" transform="rotate(42.0 400 300)" d="M 405,418  C 268,116 483,159 196,337 C 350,277 333,451 652,412 C 178,373 522,441 539,351 C 167,190 466,276 160,195 C 209,187 436,394 202,428 C 202,174 182,342 377,285 C 365,382 285,242 357,450 C 513,487 583,237 311,315 Z"></path>
<path stroke="#f559a0" stroke-width="5" fill="#f559a0" opacity="0.28741613711570196" stroke-opacity="0.3908102837024461" transform="rotate(2.0 400 300)" d="M 547,111  C 616,411 553,317 536,314 C 289,189 229,467 237,141 C 466,442 431,152 660,258 C 316,401 235,122 141,151 Z"></path>
<path stroke="#f559a0" stroke-width="6" fill="#f559a0" opacity="0.8136130347328121" stroke-opacity="0.9845644088420835" transform="rotate(-85.0 400 300)" d="M 495,217  C 344,280 467,491 553,326 C 117,316 263,321 506,488 C 180,256 158,266 682,293 C 201,127 374,340 223,152 C 468,363 510,224 225,234 C 120,246 180,303 451,288 C 297,133 552,229 305,475 C 598,145 382,305 141,462 Z"></path>
<path stroke="#2cd3f3" stroke-width="2" fill="#2cd3f3" opacity="0.29588910840360244" stroke-opacity="0.2014864175028827" transform="rotate(77.0 400 300)" d="M 303,241  C 653,121 521,307 533,456 C 451,189 249,383 688,356 C 548,463 365,160 340,205 C 479,264 243,142 623,387 C 631,324 245,328 478,155 C 459,209 290,367 422,301 C 418,195 201,153 386,296 C 273,499 698,428 238,292 C 239,278 416,366 320,435 Z"></path>
<path stroke="#0fa6d8" stroke-width="2" fill="#02eb6b" opacity="0.7570333834210939" stroke-opacity="0.18986392052597537" transform="rotate(-126.0 400 300)" d="M 465,188  C 345,161 657,406 386,134 C 488,216 653,330 198,144 C 525,194 398,471 473,337 C 654,308 296,219 661,498 C 247,289 235,469 197,113 C 202,232 296,486 315,109 C 147,435 300,409 268,289 C 221,368 291,419 201,449 Z"></path>
<path stroke="#f559a0" stroke-width="2" fill="#0fa6d8" opacity="0.9072616582903272" stroke-opacity="0.4110815877549136" transform="rotate(175.0 400 300)" d="M 599,236  C 415,319 395,269 438,388 C 358,404 453,274 476,378 C 251,321 217,390 448,428 C 178,192 385,284 171,458 C 306,494 582,189 353,169 C 398,445 235,103 202,424 C 372,257 258,285 229,497 C 298,462 486,333 180,330 Z"></path>
<path stroke="#fe9225" stroke-width="5" fill="#2cd3f3" opacity="0.41061862611227684" stroke-opacity="0.8290988798671348" transform="rotate(161.0 400 300)" d="M 306,202  C 197,344 429,192 566,366 C 138,358 369,439 649,255 C 274,413 373,177 448,135 C 586,307 284,416 324,351 C 301,461 223,149 117,268 C 205,260 152,186 224,331 C 155,368 543,197 539,319 C 154,444 685,105 248,266 C 414,405 179,498 232,191 Z"></path>
<path stroke="#02eb6b" stroke-width="2" fill="#f559a0" opacity="0.9658905759346587" stroke-opacity="0.809939299514961" transform="rotate(-16.0 400 300)" d="M 391,106  C 680,400 645,247 271,361 C 185,201 386,282 342,328 C 298,227 684,255 324,350 C 334,461 674,259 138,394 C 613,403 317,102 334,411 C 642,127 671,423 211,213 C 554,246 114,224 490,135 C 338,471 368,243 165,292 C 352,120 463,443 597,390 C 353,343 235,299 116,132 Z"></path>
<path stroke="#f559a0" stroke-width="2" fill="#f559a0" opacity="0.6588863680728343" stroke-opacity="0.8271715030582877" transform="rotate(43.0 400 300)" d="M 169,446  C 306,331 688,400 197,193 C 368,404 439,162 135,220 C 209,346 498,409 164,435 C 107,451 173,157 152,487 C 374,326 554,499 510,312 C 328,364 218,384 527,108 C 322,444 693,150 121,177 C 438,276 663,349 533,153 C 661,244 601,235 460,344 C 606,251 151,488 293,262 Z"></path>

  </g>
</svg>
