<svg xmlns="http://www.w3.org/2000/svg" xmlns:xlink="http://www.w3.org/1999/xlink" width="800" height="600" version="1.1" viewBox="0 0 800 600"><g fill="none" fill-rule="evenodd" stroke="none" stroke-width="1"><path fill="#0fa6d8" stroke="#0fa6d8" stroke-opacity=".527" stroke-width="6" d="M 173,165 C 285,342 318,230 643,500 C 205,445 564,286 160,273 C 130,227 101,291 494,169 C 250,351 480,274 118,136 C 601,370 251,109 294,257 C 433,473 232,232 487,145 C 169,156 460,117 313,307 C 345,376 480,288 281,117 Z" opacity=".761" transform="rotate(90.0 400 300)"/><path fill="#2cd3f3" stroke="#f559a0" stroke-opacity=".333" stroke-width="4" d="M 296,348 C 676,304 590,273 458,315 C 624,245 333,173 216,461 C 338,103 164,417 640,217 C 204,153 308,400 209,470 C 642,290 447,423 493,407 C 197,325 592,477 664,143 C 334,172 626,287 613,396 C 294,232 235,385 411,396 C 436,413 308,241 545,264 Z" opacity=".711" transform="rotate(95.0 400 300)"/><path fill="#02eb6b" stroke="#2cd3f3" stroke-opacity=".43" stroke-width="4" d="M 566,470 C 581,417 599,456 445,463 C 686,319 321,440 676,294 C 301,232 142,249 448,463 C 550,399 341,115 532,151 C 622,124 651,449 504,371 C 563,426 480,172 368,427 Z" opacity=".088" transform="rotate(143.0 400 300)"/><path fill="#f559a0" stroke="#0fa6d8" stroke-opacity=".618" stroke-width="1" d="M 437,406 C 555,138 495,219 169,282 C 479,374 288,180 423,258 C 691,382 336,457 224,302 C 395,183 408,396 128,454 C 283,339 609,277 406,426 C 342,395 683,356 676,345 C 430,406 600,138 570,185 C 411,315 320,209 507,373 Z" opacity=".187" transform="rotate(-123.0 400 300)"/><path fill="#02eb6b" stroke="#02eb6b" stroke-opacity=".443" stroke-width="6" d="M 511,161 C 192,388 684,487 129,424 C 466,246 323,135 106,112 C 304,444 101,425 250,481 C 388,305 695,307 403,280 C 587,432 414,154 517,464 C 209,468 532,247 654,101 C 603,293 567,317 230,375 C 391,125 207,168 684,330 C 108,297 431,294 258,498 Z" opacity=".369" transform="rotate(6.0 400 300)"/><path fill="#f559a0" stroke="#fe9225" stroke-opacity=".56" stroke-width="3" d="M 562,438 C 321,340 625,104 342,191 C 462,290 306,483 557,405 C 259,385 320,150 110,383 C 549,169 209,294 538,361 C 300,474 121,348 176,431 C 430,139 179,131 526,466 C 104,326 684,248 360,241 C 367,458 180,180 208,392 C 224,294 160,471 411,417 Z" opacity=".966" transform="rotate(92.0 400 300)"/><path fill="#fe9225" stroke="#fe9225" stroke-opacity=".661" stroke-width="5" d="M 405,423 C 477,331 648,380 274,258 C 410,387 560,321 220,320 C 154,175 574,393 322,237 C 561,480 127,361 113,315 C 522,330 597,383 598,120 C 311,462 571,352 657,307 C 523,237 144,379 585,264 C 629,375 596,367 358,275 C 160,175 333,103 441,199 Z" opacity=".94" transform="rotate(27.0 400 300)"/><path fill="#fe9225" stroke="#fe9225" stroke-opacity=".605" stroke-width="5" d="M 625,477 C 571,405 458,119 656,445 C 640,319 199,117 375,263 C 568,293 184,115 377,313 C 689,393 517,108 383,326 C 689,347 626,154 516,311 C 356,374 391,399 675,115 C 693,181 264,451 136,249 Z" opacity=".386" transform="rotate(-117.0 400 300)"/></g></svg>