<?xml version="1.0" encoding="UTF-8"?>
<svg width="800px" height="600px" viewBox="0 0 800 600" version="1.1" xmlns="http://www.w3.org/2000/svg" xmlns:xlink="http://www.w3.org/1999/xlink">
  <defs></defs>
  <g stroke="none" stroke-width="1" fill="none" fill-rule="evenodd">
    
    <path stroke="#2b55f7" stroke-width="5" fill="#f27630" opacity="0.6021811040744106" stroke-opacity="0.506630787686305" transform="rotate(-11.0 400 300)" d="M 469,494  C 594,310 482,261 549,446 C 697,411 563,477 509,235 C 677,343 167,300 486,272 C 605,134 364,410 232,170 C 540,112 223,145 313,385 C 443,379 653,171 653,262 C 487,230 275,103 545,445 C 480,415 401,264 153,105 C 393,476 490,314 389,392 C 308,385 666,275 439,374 Z"></path>
<path stroke="#31a06b" stroke-width="4" fill="#ed2b2c" opacity="0.8570134969940233" stroke-opacity="0.28298683758128873" transform="rotate(36.0 400 300)" d="M 333,287  C 339,443 154,103 134,307 C 205,270 670,348 326,454 C 334,395 408,447 442,197 C 148,345 352,416 677,191 C 518,163 353,419 149,159 C 645,322 607,257 660,233 C 652,367 361,335 608,101 C 213,329 441,281 117,111 C 191,293 663,494 673,277 Z"></path>
<path stroke="#ed2b2c" stroke-width="2" fill="#2b55f7" opacity="0.6141629751642151" stroke-opacity="0.610924787504443" transform="rotate(-22.0 400 300)" d="M 546,140  C 355,113 191,374 370,354 C 483,429 396,176 151,291 C 303,495 549,290 338,222 C 380,253 334,213 575,166 C 101,154 443,409 455,313 C 659,106 188,370 663,248 C 112,294 326,287 641,132 C 202,357 152,218 660,278 C 275,291 677,103 365,136 C 377,263 121,291 103,457 C 295,438 541,282 689,184 Z"></path>
<path stroke="#2b55f7" stroke-width="7" fill="#f27630" opacity="0.40140555698299174" stroke-opacity="0.05469420485417323" transform="rotate(-16.0 400 300)" d="M 475,180  C 483,117 662,351 326,230 C 584,117 407,300 682,382 C 164,464 552,113 405,378 C 518,255 443,307 547,275 Z"></path>
<path stroke="#2b55f7" stroke-width="2" fill="#f27630" opacity="0.5333844281519157" stroke-opacity="0.7865097159378845" transform="rotate(-55.0 400 300)" d="M 147,264  C 467,470 296,102 380,326 C 649,195 172,397 237,181 C 245,327 614,350 373,402 C 673,289 220,143 119,473 C 610,300 351,117 456,114 C 281,413 642,123 431,149 C 297,259 472,265 102,178 C 176,397 346,231 565,275 C 318,363 598,109 644,276 C 215,493 400,487 504,401 Z"></path>
<path stroke="#ed2b2c" stroke-width="6" fill="#2b55f7" opacity="0.6784786988175431" stroke-opacity="0.5235377581822656" transform="rotate(-47.0 400 300)" d="M 386,303  C 649,371 671,414 111,392 C 162,271 275,438 399,404 C 633,484 669,432 113,105 C 446,443 611,108 154,450 C 460,143 671,473 137,459 C 228,365 167,255 567,129 C 158,397 473,187 446,405 C 177,500 307,211 687,248 C 327,259 289,482 510,363 Z"></path>

  </g>
</svg>
