<?xml version="1.0" encoding="UTF-8"?>
<svg width="800px" height="600px" viewBox="0 0 800 600" version="1.1" xmlns="http://www.w3.org/2000/svg" xmlns:xlink="http://www.w3.org/1999/xlink">
  <defs></defs>
  <g stroke="none" stroke-width="1" fill="none" fill-rule="evenodd">
    
    <path stroke="#2b55f7" stroke-width="1" fill="#31a06b" opacity="0.12940281282571042" stroke-opacity="0.38238241855921373" transform="rotate(-161.0 400 300)" d="M 388,120  C 203,456 471,488 652,305 C 593,266 636,322 675,133 C 583,360 536,271 101,139 C 408,377 598,424 695,235 C 387,138 139,182 151,487 Z"></path>
<path stroke="#31a06b" stroke-width="2" fill="#f27630" opacity="0.2720145235075496" stroke-opacity="0.6535760956244013" transform="rotate(-173.0 400 300)" d="M 290,416  C 671,256 262,232 692,411 C 360,317 347,388 426,243 C 637,399 496,196 696,294 C 313,298 298,403 212,107 C 280,497 252,130 222,376 C 442,288 576,221 439,480 C 510,278 311,346 523,497 C 538,223 220,207 239,346 C 522,141 689,150 430,145 Z"></path>
<path stroke="#2b55f7" stroke-width="3" fill="#f9d84b" opacity="0.8824774806240064" stroke-opacity="0.5395284718236247" transform="rotate(-178.0 400 300)" d="M 310,258  C 120,185 216,136 609,118 C 609,467 693,149 699,292 C 485,478 164,279 125,331 C 202,239 213,407 357,417 C 427,198 373,155 643,442 C 624,442 243,224 130,410 C 510,283 346,371 255,289 Z"></path>
<path stroke="#f9d84b" stroke-width="1" fill="#f9d84b" opacity="0.34709163042955904" stroke-opacity="0.5135076709684966" transform="rotate(162.0 400 300)" d="M 661,198  C 348,217 230,213 415,132 C 308,283 333,214 107,323 C 691,159 330,402 127,163 C 149,317 540,238 473,318 C 689,143 420,484 185,342 C 519,200 394,321 503,174 C 567,417 521,127 281,197 C 663,341 540,383 320,241 C 674,374 610,419 127,123 Z"></path>
<path stroke="#f9d84b" stroke-width="6" fill="#ed2b2c" opacity="0.03689503866970393" stroke-opacity="0.35180039923848344" transform="rotate(115.0 400 300)" d="M 691,237  C 206,267 258,162 213,177 C 619,412 699,486 563,418 C 464,158 429,264 384,108 C 224,380 622,434 536,188 C 444,359 328,348 365,322 C 404,220 610,383 267,392 C 122,422 130,257 681,348 C 446,143 481,185 336,492 C 124,313 435,394 571,381 Z"></path>
<path stroke="#f9d84b" stroke-width="5" fill="#31a06b" opacity="0.8499188135384376" stroke-opacity="0.8865485405397601" transform="rotate(-54.0 400 300)" d="M 402,425  C 290,488 439,204 190,269 C 412,435 388,361 246,492 C 317,323 428,220 398,357 C 358,291 498,140 556,465 C 408,377 130,284 532,363 C 570,469 194,324 605,486 C 534,167 518,417 551,164 Z"></path>
<path stroke="#f27630" stroke-width="4" fill="#2b55f7" opacity="0.49379469021149536" stroke-opacity="0.9197914759372764" transform="rotate(-136.0 400 300)" d="M 334,282  C 496,154 417,429 287,489 C 569,103 223,314 207,415 C 152,278 416,163 632,307 C 101,138 627,120 123,375 C 272,285 524,351 496,446 Z"></path>
<path stroke="#f9d84b" stroke-width="5" fill="#f9d84b" opacity="0.8196806153816517" stroke-opacity="0.3584948020945002" transform="rotate(65.0 400 300)" d="M 548,422  C 550,476 503,301 644,466 C 669,157 289,351 175,366 C 457,184 589,104 180,483 C 653,265 517,335 239,314 C 409,423 186,403 636,133 C 147,433 454,395 243,281 C 553,212 366,494 450,370 C 344,133 324,470 240,398 C 229,493 259,298 403,458 C 597,485 130,301 465,192 C 357,140 613,200 131,197 Z"></path>
<path stroke="#2b55f7" stroke-width="4" fill="#2b55f7" opacity="0.6719033253778915" stroke-opacity="0.24483336977282763" transform="rotate(39.0 400 300)" d="M 357,192  C 411,183 527,288 243,300 C 113,198 102,137 482,133 C 450,238 144,445 305,378 C 549,437 394,227 173,216 Z"></path>
<path stroke="#f9d84b" stroke-width="2" fill="#ed2b2c" opacity="0.3494980669249513" stroke-opacity="0.18324293366205416" transform="rotate(-27.0 400 300)" d="M 578,498  C 270,364 253,269 418,204 C 204,472 381,258 440,181 C 154,195 203,455 666,359 C 223,420 680,141 378,461 C 215,242 394,141 525,254 C 150,143 259,167 212,312 C 116,366 138,286 509,438 C 648,274 137,301 551,426 Z"></path>
<path stroke="#f9d84b" stroke-width="2" fill="#f9d84b" opacity="0.5365355817848713" stroke-opacity="0.25749331338942866" transform="rotate(-85.0 400 300)" d="M 547,335  C 208,228 568,201 240,107 C 233,261 506,331 591,499 C 466,243 402,370 648,350 C 603,494 171,142 299,146 C 432,158 505,186 271,152 C 391,250 679,145 240,141 C 455,109 210,272 442,343 C 463,448 164,191 261,301 C 426,255 545,338 346,177 C 362,215 524,136 538,127 Z"></path>

  </g>
</svg>
