<?xml version="1.0" encoding="UTF-8"?>
<svg width="800px" height="600px" viewBox="0 0 800 600" version="1.1" xmlns="http://www.w3.org/2000/svg" xmlns:xlink="http://www.w3.org/1999/xlink">
  <defs></defs>
  <g stroke="none" stroke-width="1" fill="none" fill-rule="evenodd">
    
    <path stroke="#253190" stroke-width="1" fill="#99D188" opacity="0.027306765094858278" stroke-opacity="0.4696791486871388" transform="rotate(-139.0 400 300)" d="M 138,327  C 541,444 208,339 540,280 C 212,266 520,475 255,161 C 661,126 679,499 470,460 C 273,222 304,436 397,226 C 338,298 418,131 626,464 C 190,438 574,213 531,244 C 177,348 426,469 465,110 C 516,251 225,330 663,183 C 138,320 542,363 469,461 C 334,391 646,145 102,320 C 448,132 210,134 173,417 Z"></path>
<path stroke="#8AD790" stroke-width="5" fill="#8AD320" opacity="0.48984792868440974" stroke-opacity="0.9637503972997951" transform="rotate(-170.0 400 300)" d="M 528,328  C 153,141 665,478 235,259 C 569,131 535,413 442,327 C 640,173 117,385 504,257 C 195,225 180,191 110,299 Z"></path>
<path stroke="#C9A8BB" stroke-width="2" fill="#08941D" opacity="0.35826895595220615" stroke-opacity="0.8203565322616745" transform="rotate(56.0 400 300)" d="M 135,427  C 463,433 553,210 632,393 C 658,468 261,340 330,133 C 432,282 567,263 625,143 C 579,261 114,179 266,215 C 560,389 335,351 253,476 C 461,189 553,308 354,277 C 507,250 696,478 107,480 C 316,277 537,325 379,210 Z"></path>
<path stroke="#859CB9" stroke-width="7" fill="#50890A" opacity="0.9989471744401757" stroke-opacity="0.6650880887124563" transform="rotate(-31.0 400 300)" d="M 567,169  C 113,289 241,174 204,485 C 512,308 367,182 175,178 C 419,182 155,134 602,202 C 686,105 108,170 617,328 C 687,397 512,156 368,342 C 538,168 370,412 633,112 C 499,468 451,432 490,355 C 112,163 223,330 553,294 Z"></path>
<path stroke="#526701" stroke-width="2" fill="#005B08" opacity="0.6510770825273218" stroke-opacity="0.7347492101638419" transform="rotate(115.0 400 300)" d="M 216,174  C 156,134 532,134 359,430 C 446,106 323,169 591,209 C 277,190 508,323 686,146 C 651,469 114,468 529,324 C 452,254 406,317 654,359 C 540,191 262,469 509,313 C 614,178 694,329 497,476 Z"></path>
<path stroke="#A12BB5" stroke-width="2" fill="#7C3D45" opacity="0.7952203854925042" stroke-opacity="0.598579884522598" transform="rotate(-91.0 400 300)" d="M 480,339  C 260,394 442,286 365,256 C 174,496 291,424 339,287 C 598,497 494,315 506,298 C 218,270 525,186 154,218 C 604,197 256,443 104,175 Z"></path>
<path stroke="#197BA0" stroke-width="4" fill="#A67021" opacity="0.38185858670344797" stroke-opacity="0.31334000063909534" transform="rotate(-48.0 400 300)" d="M 242,211  C 178,142 491,191 254,319 C 633,118 257,146 245,297 C 693,400 400,449 504,362 C 548,371 253,188 355,345 C 545,253 258,493 615,251 Z"></path>
<path stroke="#528479" stroke-width="7" fill="#497C55" opacity="0.5667853988825909" stroke-opacity="0.9262324181928994" transform="rotate(-174.0 400 300)" d="M 447,104  C 211,101 253,371 432,272 C 102,115 445,167 268,147 C 684,453 534,276 666,269 C 282,276 245,282 552,136 C 124,258 332,443 504,217 C 370,162 135,228 472,118 C 283,384 207,400 171,192 C 474,111 447,263 186,415 C 589,255 372,397 102,107 Z"></path>
<path stroke="#7D9DA8" stroke-width="5" fill="#A36554" opacity="0.5995518932762005" stroke-opacity="0.5484394595102089" transform="rotate(0.0 400 300)" d="M 135,331  C 341,333 615,414 526,131 C 608,129 422,345 630,176 C 144,486 219,148 182,317 C 389,203 278,465 672,311 C 241,223 253,312 671,182 Z"></path>

  </g>
</svg>
