<svg xmlns="http://www.w3.org/2000/svg" xmlns:xlink="http://www.w3.org/1999/xlink" width="800" height="600" version="1.1" viewBox="0 0 800 600"><g fill="none" fill-rule="evenodd" stroke="none" stroke-width="1"><path fill="#99D188" stroke="#253190" stroke-opacity=".47" stroke-width="1" d="M 138,327 C 541,444 208,339 540,280 C 212,266 520,475 255,161 C 661,126 679,499 470,460 C 273,222 304,436 397,226 C 338,298 418,131 626,464 C 190,438 574,213 531,244 C 177,348 426,469 465,110 C 516,251 225,330 663,183 C 138,320 542,363 469,461 C 334,391 646,145 102,320 C 448,132 210,134 173,417 Z" opacity=".027" transform="rotate(-139.0 400 300)"/><path fill="#8AD320" stroke="#8AD790" stroke-opacity=".964" stroke-width="5" d="M 528,328 C 153,141 665,478 235,259 C 569,131 535,413 442,327 C 640,173 117,385 504,257 C 195,225 180,191 110,299 Z" opacity=".49" transform="rotate(-170.0 400 300)"/><path fill="#08941D" stroke="#C9A8BB" stroke-opacity=".82" stroke-width="2" d="M 135,427 C 463,433 553,210 632,393 C 658,468 261,340 330,133 C 432,282 567,263 625,143 C 579,261 114,179 266,215 C 560,389 335,351 253,476 C 461,189 553,308 354,277 C 507,250 696,478 107,480 C 316,277 537,325 379,210 Z" opacity=".358" transform="rotate(56.0 400 300)"/><path fill="#50890A" stroke="#859CB9" stroke-opacity=".665" stroke-width="7" d="M 567,169 C 113,289 241,174 204,485 C 512,308 367,182 175,178 C 419,182 155,134 602,202 C 686,105 108,170 617,328 C 687,397 512,156 368,342 C 538,168 370,412 633,112 C 499,468 451,432 490,355 C 112,163 223,330 553,294 Z" opacity=".999" transform="rotate(-31.0 400 300)"/><path fill="#005B08" stroke="#526701" stroke-opacity=".735" stroke-width="2" d="M 216,174 C 156,134 532,134 359,430 C 446,106 323,169 591,209 C 277,190 508,323 686,146 C 651,469 114,468 529,324 C 452,254 406,317 654,359 C 540,191 262,469 509,313 C 614,178 694,329 497,476 Z" opacity=".651" transform="rotate(115.0 400 300)"/><path fill="#7C3D45" stroke="#A12BB5" stroke-opacity=".599" stroke-width="2" d="M 480,339 C 260,394 442,286 365,256 C 174,496 291,424 339,287 C 598,497 494,315 506,298 C 218,270 525,186 154,218 C 604,197 256,443 104,175 Z" opacity=".795" transform="rotate(-91.0 400 300)"/><path fill="#A67021" stroke="#197BA0" stroke-opacity=".313" stroke-width="4" d="M 242,211 C 178,142 491,191 254,319 C 633,118 257,146 245,297 C 693,400 400,449 504,362 C 548,371 253,188 355,345 C 545,253 258,493 615,251 Z" opacity=".382" transform="rotate(-48.0 400 300)"/><path fill="#497C55" stroke="#528479" stroke-opacity=".926" stroke-width="7" d="M 447,104 C 211,101 253,371 432,272 C 102,115 445,167 268,147 C 684,453 534,276 666,269 C 282,276 245,282 552,136 C 124,258 332,443 504,217 C 370,162 135,228 472,118 C 283,384 207,400 171,192 C 474,111 447,263 186,415 C 589,255 372,397 102,107 Z" opacity=".567" transform="rotate(-174.0 400 300)"/><path fill="#A36554" stroke="#7D9DA8" stroke-opacity=".548" stroke-width="5" d="M 135,331 C 341,333 615,414 526,131 C 608,129 422,345 630,176 C 144,486 219,148 182,317 C 389,203 278,465 672,311 C 241,223 253,312 671,182 Z" opacity=".6" transform="rotate(0.0 400 300)"/></g></svg>