<svg xmlns="http://www.w3.org/2000/svg" xmlns:xlink="http://www.w3.org/1999/xlink" width="800" height="600" version="1.1" viewBox="0 0 800 600"><g fill="none" fill-rule="evenodd" stroke="none" stroke-width="1"><path fill="#ed2b2c" stroke="#2b55f7" stroke-opacity=".7" stroke-width="1" d="M 521,169 C 155,131 673,416 564,109 C 248,132 481,212 384,371 C 650,251 363,175 539,247 C 419,183 424,190 154,433 C 259,467 459,499 160,413 C 130,492 642,438 267,169 C 165,290 503,261 397,248 C 648,161 361,361 210,288 C 344,149 483,132 663,482 Z" opacity=".576" transform="rotate(-165.0 400 300)"/><path fill="#f9d84b" stroke="#31a06b" stroke-opacity=".847" stroke-width="6" d="M 310,483 C 307,444 266,373 194,257 C 438,426 492,247 239,106 C 633,255 649,318 700,451 C 485,125 288,320 157,117 C 608,266 225,171 440,388 C 432,232 448,199 236,446 C 333,350 182,132 277,457 C 135,412 314,217 272,344 Z" opacity=".58" transform="rotate(-51.0 400 300)"/><path fill="#f9d84b" stroke="#31a06b" stroke-opacity=".882" stroke-width="2" d="M 349,448 C 219,138 280,215 499,185 C 462,498 259,483 696,494 C 598,486 368,424 147,274 C 177,237 163,125 164,223 C 328,237 683,491 276,181 Z" opacity=".058" transform="rotate(-178.0 400 300)"/><path fill="#f27630" stroke="#ed2b2c" stroke-opacity=".291" stroke-width="4" d="M 555,270 C 677,377 357,373 284,476 C 323,150 681,305 127,381 C 198,207 451,363 573,329 C 180,312 516,425 513,354 C 534,299 423,124 594,117 C 605,137 321,234 354,189 Z" opacity=".824" transform="rotate(117.0 400 300)"/><path fill="#2b55f7" stroke="#31a06b" stroke-opacity=".19" stroke-width="3" d="M 652,234 C 214,435 372,232 600,327 C 605,289 471,233 363,483 C 552,307 217,436 174,420 C 568,151 346,105 289,260 C 435,198 168,334 633,318 C 583,334 596,462 268,252 C 369,385 541,413 127,131 C 560,498 409,299 464,382 C 565,291 327,350 644,477 C 395,352 262,126 114,379 Z" opacity=".752" transform="rotate(156.0 400 300)"/><path fill="#2b55f7" stroke="#31a06b" stroke-opacity=".096" stroke-width="2" d="M 502,287 C 465,279 394,217 433,312 C 522,339 588,142 401,140 C 429,397 200,408 320,409 C 388,272 372,297 142,342 C 392,270 675,419 614,497 C 206,485 169,357 259,146 C 589,236 101,492 339,370 C 145,270 274,190 672,494 Z" opacity=".619" transform="rotate(23.0 400 300)"/><path fill="#f27630" stroke="#f9d84b" stroke-opacity=".63" stroke-width="2" d="M 629,495 C 156,285 611,490 174,210 C 182,286 512,113 660,165 C 579,380 497,266 684,314 C 309,218 506,199 270,174 C 516,246 283,316 415,287 C 222,432 240,425 669,248 C 659,127 594,476 424,310 C 193,382 520,253 252,237 C 576,263 217,126 158,239 C 172,489 559,151 607,171 Z" opacity=".688" transform="rotate(-111.0 400 300)"/><path fill="#f27630" stroke="#f27630" stroke-opacity=".963" stroke-width="7" d="M 276,166 C 441,444 444,388 553,307 C 105,336 209,275 432,395 C 376,164 470,204 262,187 C 548,311 281,148 450,220 C 665,182 105,487 480,211 C 471,126 591,312 438,169 C 454,489 250,191 473,467 C 428,398 247,217 693,154 C 456,436 147,494 173,375 Z" opacity=".108" transform="rotate(-95.0 400 300)"/></g></svg>