<?xml version="1.0" encoding="UTF-8"?>
<svg width="800px" height="600px" viewBox="0 0 800 600" version="1.1" xmlns="http://www.w3.org/2000/svg" xmlns:xlink="http://www.w3.org/1999/xlink">
  <defs></defs>
  <g stroke="none" stroke-width="1" fill="none" fill-rule="evenodd">
    
    <path stroke="#2C1560" stroke-width="4" fill="#7CC429" opacity="0.699760530784566" stroke-opacity="0.48705457290102105" transform="rotate(8.0 400 300)" d="M 484,404  C 395,352 691,439 329,374 C 683,427 590,436 116,127 C 164,372 101,230 199,491 C 111,451 585,312 500,266 C 189,483 440,393 251,228 C 641,391 409,476 142,177 C 590,132 364,133 614,350 C 664,336 699,117 656,367 Z"></path>
<rect stroke="#58DA28" stroke-width="5" fill="#2AD905" opacity="0.45841929461422215" stroke-opacity="0.6672478922835359" transform="rotate(-128.0 400 300)" x="74" y="288" width="65" height="102"></rect>
<path stroke="#1A09DC" stroke-width="5" fill="#584678" opacity="0.05826800370481492" stroke-opacity="0.6762288066824608" transform="rotate(3.0 400 300)" d="M 529,312  C 305,261 171,299 599,155 C 527,161 144,124 163,190 C 479,155 467,223 475,292 C 501,139 180,280 195,224 C 665,152 105,354 690,485 C 468,438 641,354 419,340 C 283,195 629,122 408,429 C 184,285 135,388 257,353 C 478,346 542,244 377,497 C 476,414 325,407 426,261 Z"></path>
<ellipse stroke="#432429" stroke-width="4" fill="#93776C" opacity="0.46529075526951214" stroke-opacity="0.14158020957387313" transform="rotate(4.0 400 300)" cx="642" rx="369" cy="235" ry="93"></ellipse>
<ellipse stroke="#BAC1C9" stroke-width="1" fill="#61531A" opacity="0.2580904240023757" stroke-opacity="0.3764776126517913" transform="rotate(-13.0 400 300)" cx="410" rx="188" cy="331" ry="287"></ellipse>
<path stroke="#4288A7" stroke-width="4" fill="#9985A8" opacity="0.010201148497125242" stroke-opacity="0.6049409627568612" transform="rotate(124.0 400 300)" d="M 565,203  C 587,243 595,309 203,431 C 199,358 494,414 357,420 C 232,110 697,482 468,489 C 488,351 632,425 502,425 C 679,405 249,325 109,124 C 638,479 544,409 332,297 C 291,470 427,370 646,401 C 303,285 565,418 316,114 Z"></path>
<path stroke="#C93236" stroke-width="3" fill="#084C24" opacity="0.2780626077177047" stroke-opacity="0.8095352340049018" transform="rotate(173.0 400 300)" d="M 206,345  C 400,253 556,366 162,348 C 333,342 680,181 555,102 C 382,302 234,300 264,289 C 518,186 287,334 519,215 C 302,417 542,236 349,377 C 238,221 534,445 622,478 Z"></path>

  </g>
</svg>
