<svg xmlns="http://www.w3.org/2000/svg" xmlns:xlink="http://www.w3.org/1999/xlink" width="800" height="600" version="1.1" viewBox="0 0 800 600"><g fill="none" fill-rule="evenodd" stroke="none" stroke-width="1"><path fill="#7CC429" stroke="#2C1560" stroke-opacity=".487" stroke-width="4" d="M 484,404 C 395,352 691,439 329,374 C 683,427 590,436 116,127 C 164,372 101,230 199,491 C 111,451 585,312 500,266 C 189,483 440,393 251,228 C 641,391 409,476 142,177 C 590,132 364,133 614,350 C 664,336 699,117 656,367 Z" opacity=".7" transform="rotate(8.0 400 300)"/><rect width="65" height="102" x="74" y="288" fill="#2AD905" stroke="#58DA28" stroke-opacity=".667" stroke-width="5" opacity=".458" transform="rotate(-128.0 400 300)"/><path fill="#584678" stroke="#1A09DC" stroke-opacity=".676" stroke-width="5" d="M 529,312 C 305,261 171,299 599,155 C 527,161 144,124 163,190 C 479,155 467,223 475,292 C 501,139 180,280 195,224 C 665,152 105,354 690,485 C 468,438 641,354 419,340 C 283,195 629,122 408,429 C 184,285 135,388 257,353 C 478,346 542,244 377,497 C 476,414 325,407 426,261 Z" opacity=".058" transform="rotate(3.0 400 300)"/><ellipse cx="642" cy="235" fill="#93776C" stroke="#432429" stroke-opacity=".142" stroke-width="4" opacity=".465" rx="369" ry="93" transform="rotate(4.0 400 300)"/><ellipse cx="410" cy="331" fill="#61531A" stroke="#BAC1C9" stroke-opacity=".376" stroke-width="1" opacity=".258" rx="188" ry="287" transform="rotate(-13.0 400 300)"/><path fill="#9985A8" stroke="#4288A7" stroke-opacity=".605" stroke-width="4" d="M 565,203 C 587,243 595,309 203,431 C 199,358 494,414 357,420 C 232,110 697,482 468,489 C 488,351 632,425 502,425 C 679,405 249,325 109,124 C 638,479 544,409 332,297 C 291,470 427,370 646,401 C 303,285 565,418 316,114 Z" opacity=".01" transform="rotate(124.0 400 300)"/><path fill="#084C24" stroke="#C93236" stroke-opacity=".81" stroke-width="3" d="M 206,345 C 400,253 556,366 162,348 C 333,342 680,181 555,102 C 382,302 234,300 264,289 C 518,186 287,334 519,215 C 302,417 542,236 349,377 C 238,221 534,445 622,478 Z" opacity=".278" transform="rotate(173.0 400 300)"/></g></svg>