<svg xmlns="http://www.w3.org/2000/svg" xmlns:xlink="http://www.w3.org/1999/xlink" width="800" height="600" version="1.1" viewBox="0 0 800 600"><g fill="none" fill-rule="evenodd" stroke="none" stroke-width="1"><path fill="#111230" stroke="#249553" stroke-opacity=".476" stroke-width="2" d="M 451,388 C 216,394 222,290 424,165 C 573,372 629,227 233,158 C 400,315 388,195 293,339 C 259,250 157,493 219,411 Z" opacity=".436" transform="rotate(92.0 400 300)"/><path fill="#55B28A" stroke="#619528" stroke-opacity=".101" stroke-width="1" d="M 297,197 C 299,217 142,308 266,184 C 597,404 617,446 201,257 C 185,323 210,469 359,241 C 601,255 373,152 451,101 C 560,310 658,394 193,126 C 549,422 359,445 252,274 C 392,204 673,271 486,296 C 279,187 544,407 177,408 C 559,226 216,143 277,319 C 259,126 607,123 257,462 Z" opacity=".669" transform="rotate(-101.0 400 300)"/><polygon fill="#6B9C62" stroke="#309CC2" stroke-opacity=".319" stroke-width="2" points="386 533 164 161 184 424 711 381 643 470 449 343 591 201" opacity=".781" transform="rotate(111.0 400 300)"/><polygon fill="#436B6D" stroke="#113C78" stroke-opacity=".269" stroke-width="1" points="284 270 426 508 689 243 374 369 554 466 18 132 487 310" opacity=".138" transform="rotate(46.0 400 300)"/><polygon fill="#5DBC72" stroke="#BD1D0B" stroke-opacity=".744" stroke-width="5" points="603 116 518 480 93 191 73 543 383 588 3 217" opacity=".009" transform="rotate(-107.0 400 300)"/><ellipse cx="125" cy="62" fill="#007646" stroke="#3964C1" stroke-opacity=".83" stroke-width="1" opacity=".441" rx="170" ry="143" transform="rotate(-172.0 400 300)"/><path fill="#916B93" stroke="#9A59B9" stroke-opacity=".458" stroke-width="7" d="M 419,174 C 409,409 164,216 654,194 C 567,406 504,347 617,174 C 221,340 583,348 493,237 C 317,259 327,127 110,399 C 198,379 267,465 172,114 C 288,256 379,237 239,218 C 533,424 145,319 465,494 C 343,420 294,140 155,272 C 469,250 440,209 597,196 C 632,129 120,445 351,119 Z" opacity=".725" transform="rotate(-136.0 400 300)"/><rect width="108" height="303" x="268" y="63" fill="#5A7964" stroke="#8C24C2" stroke-opacity=".608" stroke-width="4" opacity=".387" transform="rotate(57.0 400 300)"/><polygon fill="#614968" stroke="#BC5220" stroke-opacity=".255" stroke-width="7" points="640 133 531 80 712 24 287 314 206 452 636 575 502 262 565 247" opacity=".98" transform="rotate(104.0 400 300)"/></g></svg>