<?xml version="1.0" encoding="UTF-8"?>
<svg width="800px" height="600px" viewBox="0 0 800 600" version="1.1" xmlns="http://www.w3.org/2000/svg" xmlns:xlink="http://www.w3.org/1999/xlink">
  <defs></defs>
  <g stroke="none" stroke-width="1" fill="none" fill-rule="evenodd">
    
    <path stroke="#249553" stroke-width="2" fill="#111230" opacity="0.43607575871874216" stroke-opacity="0.475570539593006" transform="rotate(92.0 400 300)" d="M 451,388  C 216,394 222,290 424,165 C 573,372 629,227 233,158 C 400,315 388,195 293,339 C 259,250 157,493 219,411 Z"></path>
<path stroke="#619528" stroke-width="1" fill="#55B28A" opacity="0.6691990148013337" stroke-opacity="0.10052390169510386" transform="rotate(-101.0 400 300)" d="M 297,197  C 299,217 142,308 266,184 C 597,404 617,446 201,257 C 185,323 210,469 359,241 C 601,255 373,152 451,101 C 560,310 658,394 193,126 C 549,422 359,445 252,274 C 392,204 673,271 486,296 C 279,187 544,407 177,408 C 559,226 216,143 277,319 C 259,126 607,123 257,462 Z"></path>
<polygon stroke="#309CC2" stroke-width="2" fill="#6B9C62" opacity="0.7808829836275668" stroke-opacity="0.3186699710428109" transform="rotate(111.0 400 300)" points="386 533 164 161 184 424 711 381 643 470 449 343 591 201 "></polygon>
<polygon stroke="#113C78" stroke-width="1" fill="#436B6D" opacity="0.13776036787569185" stroke-opacity="0.269123184620138" transform="rotate(46.0 400 300)" points="284 270 426 508 689 243 374 369 554 466 18 132 487 310 "></polygon>
<polygon stroke="#BD1D0B" stroke-width="5" fill="#5DBC72" opacity="0.008855223675849844" stroke-opacity="0.7442005462661022" transform="rotate(-107.0 400 300)" points="603 116 518 480 93 191 73 543 383 588 3 217 "></polygon>
<ellipse stroke="#3964C1" stroke-width="1" fill="#007646" opacity="0.440538312842645" stroke-opacity="0.8298517043716298" transform="rotate(-172.0 400 300)" cx="125" rx="170" cy="62" ry="143"></ellipse>
<path stroke="#9A59B9" stroke-width="7" fill="#916B93" opacity="0.7250701990497996" stroke-opacity="0.457972609727392" transform="rotate(-136.0 400 300)" d="M 419,174  C 409,409 164,216 654,194 C 567,406 504,347 617,174 C 221,340 583,348 493,237 C 317,259 327,127 110,399 C 198,379 267,465 172,114 C 288,256 379,237 239,218 C 533,424 145,319 465,494 C 343,420 294,140 155,272 C 469,250 440,209 597,196 C 632,129 120,445 351,119 Z"></path>
<rect stroke="#8C24C2" stroke-width="4" fill="#5A7964" opacity="0.3869263817886273" stroke-opacity="0.6075116820893575" transform="rotate(57.0 400 300)" x="268" y="63" width="108" height="303"></rect>
<polygon stroke="#BC5220" stroke-width="7" fill="#614968" opacity="0.9804662594985027" stroke-opacity="0.255182610039971" transform="rotate(104.0 400 300)" points="640 133 531 80 712 24 287 314 206 452 636 575 502 262 565 247 "></polygon>

  </g>
</svg>
