<svg xmlns="http://www.w3.org/2000/svg" xmlns:xlink="http://www.w3.org/1999/xlink" width="800" height="600" version="1.1" viewBox="0 0 800 600"><g fill="none" fill-rule="evenodd" stroke="none" stroke-width="1"><path fill="#8665DC" stroke="#D169BC" stroke-opacity=".509" stroke-width="6" d="M 573,294 C 634,427 246,455 242,307 C 670,274 216,417 143,403 C 357,251 669,123 591,448 C 217,281 509,438 584,391 Z" opacity=".539" transform="rotate(-32.0 400 300)"/><rect width="28" height="160" x="375" y="539" fill="#554132" stroke="#0A100A" stroke-opacity=".854" stroke-width="6" opacity=".889" transform="rotate(-20.0 400 300)"/><rect width="64" height="151" x="175" y="594" fill="#534952" stroke="#81D018" stroke-opacity=".847" stroke-width="3" opacity=".032" transform="rotate(-59.0 400 300)"/><path fill="#337D35" stroke="#689374" stroke-opacity=".012" stroke-width="4" d="M 635,217 C 205,279 674,463 106,190 C 297,498 494,297 259,411 C 439,263 353,192 105,380 C 489,280 127,420 294,494 C 362,157 668,241 204,490 C 401,361 506,195 629,294 C 262,326 618,486 698,200 C 178,426 505,241 110,201 Z" opacity=".757" transform="rotate(-130.0 400 300)"/><path fill="#A89346" stroke="#44BAD0" stroke-opacity=".497" stroke-width="7" d="M 653,314 C 289,193 368,152 469,103 C 101,202 379,268 236,371 C 102,490 695,483 536,145 C 648,335 635,227 543,145 C 425,144 393,449 209,158 C 256,321 628,118 230,437 Z" opacity=".37" transform="rotate(-70.0 400 300)"/><path fill="#D81D95" stroke="#5A2C69" stroke-opacity=".125" stroke-width="1" d="M 151,212 C 415,377 324,215 278,217 C 308,406 350,394 311,225 C 341,243 382,439 671,154 C 570,365 433,382 364,265 C 563,240 340,210 294,302 C 485,122 190,369 569,321 C 447,417 170,456 682,231 C 617,150 204,122 635,401 C 147,123 133,150 331,244 C 545,336 600,331 699,351 C 173,254 576,265 634,141 Z" opacity=".095" transform="rotate(39.0 400 300)"/><polygon fill="#BA575A" stroke="#5D6B9A" stroke-opacity=".901" stroke-width="6" points="685 389 739 291 733 131 611 38 492 178 49 421 207 382" opacity=".381" transform="rotate(-48.0 400 300)"/><rect width="52" height="303" x="761" y="491" fill="#5639B5" stroke="#AA066B" stroke-opacity=".469" stroke-width="6" opacity=".406" transform="rotate(-90.0 400 300)"/><polygon fill="#D07765" stroke="#9D7919" stroke-opacity=".887" stroke-width="7" points="664 360 608 594 563 301 727 225 653 118 108 584 43 193 18 141" opacity=".038" transform="rotate(70.0 400 300)"/></g></svg>