<?xml version="1.0" encoding="UTF-8"?>
<svg width="800px" height="600px" viewBox="0 0 800 600" version="1.1" xmlns="http://www.w3.org/2000/svg" xmlns:xlink="http://www.w3.org/1999/xlink">
  <defs></defs>
  <g stroke="none" stroke-width="1" fill="none" fill-rule="evenodd">
    
    <path stroke="#A2C83C" stroke-width="2" fill="#B73420" opacity="0.40808701813555803" stroke-opacity="0.6905953544706798" transform="rotate(-174.0 400 300)" d="M 692,377  C 470,223 676,150 169,245 C 366,340 583,104 468,238 C 580,309 609,184 412,240 C 298,324 172,166 635,117 C 252,335 192,214 540,231 C 581,220 366,247 406,278 Z"></path>
<path stroke="#C4D202" stroke-width="7" fill="#AD4770" opacity="0.28717067621133996" stroke-opacity="0.31022373203535286" transform="rotate(-119.0 400 300)" d="M 166,115  C 479,329 126,297 676,408 C 405,157 239,242 206,446 C 479,315 513,399 427,259 C 655,271 103,392 543,177 C 187,215 313,400 476,264 Z"></path>
<path stroke="#55DD70" stroke-width="5" fill="#61ADC5" opacity="0.9650600456931883" stroke-opacity="0.6485545556475772" transform="rotate(-145.0 400 300)" d="M 353,208  C 243,481 364,282 242,218 C 226,262 553,489 277,145 C 198,245 381,487 649,145 C 595,404 301,182 250,477 C 421,437 274,111 697,201 C 643,112 416,112 298,316 Z"></path>
<path stroke="#4142D6" stroke-width="2" fill="#6C7A78" opacity="0.5488807897009808" stroke-opacity="0.6370266483534376" transform="rotate(-139.0 400 300)" d="M 474,349  C 681,221 167,343 521,257 C 694,111 558,381 442,116 C 251,402 467,207 573,296 C 123,145 423,208 204,395 C 341,311 601,215 110,445 C 689,125 486,213 225,191 C 514,313 428,347 163,411 C 683,442 336,332 660,218 Z"></path>
<path stroke="#017299" stroke-width="1" fill="#D19489" opacity="0.49668243353578406" stroke-opacity="0.5409271938626194" transform="rotate(54.0 400 300)" d="M 128,263  C 195,169 211,346 414,438 C 265,162 396,449 306,234 C 340,303 503,400 401,464 C 645,494 540,337 386,386 C 583,444 571,432 552,379 C 603,293 227,155 435,212 C 496,387 399,405 265,318 C 126,187 246,460 276,410 C 171,167 684,367 627,237 Z"></path>
<path stroke="#3D5836" stroke-width="3" fill="#C959CA" opacity="0.7812205703797317" stroke-opacity="0.534587316370909" transform="rotate(-91.0 400 300)" d="M 238,110  C 372,168 503,222 521,412 C 700,109 111,255 475,341 C 554,200 289,156 538,492 C 679,413 425,216 691,196 C 369,107 115,292 502,256 Z"></path>
<path stroke="#A6CCD1" stroke-width="3" fill="#17B795" opacity="0.2108407500117075" stroke-opacity="0.03439762571437092" transform="rotate(126.0 400 300)" d="M 598,368  C 588,413 258,114 545,238 C 355,483 371,444 416,426 C 427,312 574,271 347,165 C 199,207 490,414 442,253 Z"></path>
<path stroke="#810B08" stroke-width="6" fill="#A4D31C" opacity="0.8011675878798887" stroke-opacity="0.07875721669726178" transform="rotate(-49.0 400 300)" d="M 505,261  C 448,271 140,185 581,414 C 367,182 184,226 308,264 C 659,173 351,287 460,104 C 225,252 177,387 401,337 C 457,281 293,134 659,105 C 391,403 234,412 450,347 Z"></path>
<path stroke="#4848AC" stroke-width="5" fill="#4AAB42" opacity="0.5153289016176796" stroke-opacity="0.3662117916139745" transform="rotate(75.0 400 300)" d="M 645,349  C 177,437 689,387 324,283 C 437,198 140,241 238,216 C 202,367 255,259 693,386 C 677,261 159,328 689,462 C 173,411 402,241 451,190 C 451,102 686,359 584,228 C 626,281 127,314 434,145 C 177,205 448,224 531,276 Z"></path>

  </g>
</svg>
