<?xml version="1.0" encoding="UTF-8"?>
<svg width="800px" height="600px" viewBox="0 0 800 600" version="1.1" xmlns="http://www.w3.org/2000/svg" xmlns:xlink="http://www.w3.org/1999/xlink">
  <defs></defs>
  <g stroke="none" stroke-width="1" fill="none" fill-rule="evenodd">
    
    <path stroke="#71D674" stroke-width="5" fill="#A63221" opacity="0.38640259466932697" stroke-opacity="0.7439753485254841" transform="rotate(-119.0 400 300)" d="M 450,145  C 462,382 102,347 650,274 C 418,289 509,464 555,333 C 549,140 559,437 262,448 C 353,244 365,198 251,185 C 629,461 377,229 483,456 Z"></path>
<rect stroke="#B6B241" stroke-width="5" fill="#A4187C" opacity="0.30997458252925303" stroke-opacity="0.9483334408301628" transform="rotate(54.0 400 300)" x="384" y="242" width="156" height="183"></rect>
<ellipse stroke="#DA5815" stroke-width="2" fill="#9AA299" opacity="0.4008648909707779" stroke-opacity="0.7058969464807073" transform="rotate(-127.0 400 300)" cx="43" rx="99" cy="525" ry="334"></ellipse>
<rect stroke="#B87D93" stroke-width="1" fill="#9CDB17" opacity="0.8817947866229641" stroke-opacity="0.28938202098545757" transform="rotate(102.0 400 300)" x="300" y="420" width="377" height="28"></rect>
<path stroke="#61BCD0" stroke-width="2" fill="#D45CB1" opacity="0.6408902346479338" stroke-opacity="0.5619685111941912" transform="rotate(60.0 400 300)" d="M 601,216  C 636,436 518,161 125,302 C 443,287 667,433 561,451 C 125,364 110,102 284,323 C 285,485 292,182 349,250 C 139,118 522,485 582,106 C 454,236 341,332 147,369 C 418,308 602,294 655,327 C 269,411 481,475 139,231 C 604,216 534,252 474,373 C 611,488 168,432 550,364 Z"></path>
<ellipse stroke="#00D3C1" stroke-width="5" fill="#9C7242" opacity="0.049679850774164334" stroke-opacity="0.7911896441311088" transform="rotate(-135.0 400 300)" cx="103" rx="97" cy="35" ry="250"></ellipse>
<polygon stroke="#A71065" stroke-width="6" fill="#C2B5A9" opacity="0.18031957851773467" stroke-opacity="0.46791105114131437" transform="rotate(-131.0 400 300)" points="268 185 483 387 448 333 255 64 610 577 667 595 "></polygon>

  </g>
</svg>
