<svg xmlns="http://www.w3.org/2000/svg" xmlns:xlink="http://www.w3.org/1999/xlink" width="800" height="600" version="1.1" viewBox="0 0 800 600"><g fill="none" fill-rule="evenodd" stroke="none" stroke-width="1"><path fill="#A63221" stroke="#71D674" stroke-opacity=".744" stroke-width="5" d="M 450,145 C 462,382 102,347 650,274 C 418,289 509,464 555,333 C 549,140 559,437 262,448 C 353,244 365,198 251,185 C 629,461 377,229 483,456 Z" opacity=".386" transform="rotate(-119.0 400 300)"/><rect width="156" height="183" x="384" y="242" fill="#A4187C" stroke="#B6B241" stroke-opacity=".948" stroke-width="5" opacity=".31" transform="rotate(54.0 400 300)"/><ellipse cx="43" cy="525" fill="#9AA299" stroke="#DA5815" stroke-opacity=".706" stroke-width="2" opacity=".401" rx="99" ry="334" transform="rotate(-127.0 400 300)"/><rect width="377" height="28" x="300" y="420" fill="#9CDB17" stroke="#B87D93" stroke-opacity=".289" stroke-width="1" opacity=".882" transform="rotate(102.0 400 300)"/><path fill="#D45CB1" stroke="#61BCD0" stroke-opacity=".562" stroke-width="2" d="M 601,216 C 636,436 518,161 125,302 C 443,287 667,433 561,451 C 125,364 110,102 284,323 C 285,485 292,182 349,250 C 139,118 522,485 582,106 C 454,236 341,332 147,369 C 418,308 602,294 655,327 C 269,411 481,475 139,231 C 604,216 534,252 474,373 C 611,488 168,432 550,364 Z" opacity=".641" transform="rotate(60.0 400 300)"/><ellipse cx="103" cy="35" fill="#9C7242" stroke="#00D3C1" stroke-opacity=".791" stroke-width="5" opacity=".05" rx="97" ry="250" transform="rotate(-135.0 400 300)"/><polygon fill="#C2B5A9" stroke="#A71065" stroke-opacity=".468" stroke-width="6" points="268 185 483 387 448 333 255 64 610 577 667 595" opacity=".18" transform="rotate(-131.0 400 300)"/></g></svg>