<?xml version="1.0" encoding="UTF-8"?>
<svg width="800px" height="600px" viewBox="0 0 800 600" version="1.1" xmlns="http://www.w3.org/2000/svg" xmlns:xlink="http://www.w3.org/1999/xlink">
  <defs></defs>
  <g stroke="none" stroke-width="1" fill="none" fill-rule="evenodd">
    
    <rect stroke="#0fa6d8" stroke-width="2" fill="#0fa6d8" opacity="0.17327468299549256" stroke-opacity="0.650513273937495" transform="rotate(-101.0 400 300)" x="237" y="363" width="153" height="288"></rect>
<rect stroke="#fe9225" stroke-width="5" fill="#02eb6b" opacity="0.42849862207531325" stroke-opacity="0.3435510238615173" transform="rotate(9.0 400 300)" x="301" y="52" width="110" height="363"></rect>
<ellipse stroke="#fe9225" stroke-width="1" fill="#f559a0" opacity="0.6646545514656632" stroke-opacity="0.7547005654236596" transform="rotate(68.0 400 300)" cx="137" rx="96" cy="351" ry="294"></ellipse>
<rect stroke="#2cd3f3" stroke-width="3" fill="#fe9225" opacity="0.44553824341672366" stroke-opacity="0.3920322809624511" transform="rotate(-133.0 400 300)" x="445" y="302" width="220" height="381"></rect>
<polygon stroke="#f559a0" stroke-width="1" fill="#f559a0" opacity="0.7636020583976983" stroke-opacity="0.11204811476357562" transform="rotate(141.0 400 300)" points="446 557 616 310 125 318 242 410 338 251 775 238 657 465 "></polygon>
<rect stroke="#0fa6d8" stroke-width="4" fill="#2cd3f3" opacity="0.6522116852241686" stroke-opacity="0.41418890172734063" transform="rotate(163.0 400 300)" x="243" y="227" width="287" height="165"></rect>
<polygon stroke="#f559a0" stroke-width="6" fill="#f559a0" opacity="0.14956638797751798" stroke-opacity="0.1275319088456321" transform="rotate(0.0 400 300)" points="101 389 26 413 682 390 688 574 183 351 473 526 "></polygon>
<path stroke="#f559a0" stroke-width="7" fill="#2cd3f3" opacity="0.6159635305494985" stroke-opacity="0.31289976402150355" transform="rotate(143.0 400 300)" d="M 459,423  C 247,397 395,316 273,401 C 630,257 266,101 570,142 C 215,446 680,240 575,318 C 603,368 464,257 200,102 Z"></path>
<rect stroke="#02eb6b" stroke-width="4" fill="#2cd3f3" opacity="0.14994873367624048" stroke-opacity="0.5114881125687086" transform="rotate(-82.0 400 300)" x="230" y="222" width="376" height="192"></rect>
<ellipse stroke="#02eb6b" stroke-width="1" fill="#2cd3f3" opacity="0.9304235616412766" stroke-opacity="0.1996819107260606" transform="rotate(31.0 400 300)" cx="31" rx="67" cy="262" ry="311"></ellipse>
<path stroke="#f559a0" stroke-width="4" fill="#02eb6b" opacity="0.8901731140614543" stroke-opacity="0.5533552268614689" transform="rotate(-163.0 400 300)" d="M 174,228  C 196,113 550,208 658,139 C 351,150 306,470 252,194 C 111,217 399,461 230,139 C 577,171 454,485 656,472 C 243,202 522,261 129,406 C 602,317 196,440 311,105 C 122,466 565,336 696,187 C 183,287 444,378 441,163 C 204,401 554,144 319,325 C 341,297 590,294 105,275 Z"></path>

  </g>
</svg>
