<svg xmlns="http://www.w3.org/2000/svg" xmlns:xlink="http://www.w3.org/1999/xlink" width="800" height="600" version="1.1" viewBox="0 0 800 600"><g fill="none" fill-rule="evenodd" stroke="none" stroke-width="1"><rect width="153" height="288" x="237" y="363" fill="#0fa6d8" stroke="#0fa6d8" stroke-opacity=".651" stroke-width="2" opacity=".173" transform="rotate(-101.0 400 300)"/><rect width="110" height="363" x="301" y="52" fill="#02eb6b" stroke="#fe9225" stroke-opacity=".344" stroke-width="5" opacity=".428" transform="rotate(9.0 400 300)"/><ellipse cx="137" cy="351" fill="#f559a0" stroke="#fe9225" stroke-opacity=".755" stroke-width="1" opacity=".665" rx="96" ry="294" transform="rotate(68.0 400 300)"/><rect width="220" height="381" x="445" y="302" fill="#fe9225" stroke="#2cd3f3" stroke-opacity=".392" stroke-width="3" opacity=".446" transform="rotate(-133.0 400 300)"/><polygon fill="#f559a0" stroke="#f559a0" stroke-opacity=".112" stroke-width="1" points="446 557 616 310 125 318 242 410 338 251 775 238 657 465" opacity=".764" transform="rotate(141.0 400 300)"/><rect width="287" height="165" x="243" y="227" fill="#2cd3f3" stroke="#0fa6d8" stroke-opacity=".414" stroke-width="4" opacity=".652" transform="rotate(163.0 400 300)"/><polygon fill="#f559a0" stroke="#f559a0" stroke-opacity=".128" stroke-width="6" points="101 389 26 413 682 390 688 574 183 351 473 526" opacity=".15" transform="rotate(0.0 400 300)"/><path fill="#2cd3f3" stroke="#f559a0" stroke-opacity=".313" stroke-width="7" d="M 459,423 C 247,397 395,316 273,401 C 630,257 266,101 570,142 C 215,446 680,240 575,318 C 603,368 464,257 200,102 Z" opacity=".616" transform="rotate(143.0 400 300)"/><rect width="376" height="192" x="230" y="222" fill="#2cd3f3" stroke="#02eb6b" stroke-opacity=".511" stroke-width="4" opacity=".15" transform="rotate(-82.0 400 300)"/><ellipse cx="31" cy="262" fill="#2cd3f3" stroke="#02eb6b" stroke-opacity=".2" stroke-width="1" opacity=".93" rx="67" ry="311" transform="rotate(31.0 400 300)"/><path fill="#02eb6b" stroke="#f559a0" stroke-opacity=".553" stroke-width="4" d="M 174,228 C 196,113 550,208 658,139 C 351,150 306,470 252,194 C 111,217 399,461 230,139 C 577,171 454,485 656,472 C 243,202 522,261 129,406 C 602,317 196,440 311,105 C 122,466 565,336 696,187 C 183,287 444,378 441,163 C 204,401 554,144 319,325 C 341,297 590,294 105,275 Z" opacity=".89" transform="rotate(-163.0 400 300)"/></g></svg>