<svg xmlns="http://www.w3.org/2000/svg" xmlns:xlink="http://www.w3.org/1999/xlink" width="800" height="600" version="1.1" viewBox="0 0 800 600"><g fill="none" fill-rule="evenodd" stroke="none" stroke-width="1"><ellipse cx="72" cy="33" fill="#4D3257" stroke="#88709D" stroke-opacity=".825" stroke-width="2" opacity=".288" rx="114" ry="45" transform="rotate(-76.0 400 300)"/><rect width="75" height="220" x="337" y="367" fill="#06CC2C" stroke="#20447C" stroke-opacity=".163" stroke-width="6" opacity=".517" transform="rotate(-66.0 400 300)"/><path fill="#CC3041" stroke="#D34217" stroke-opacity=".394" stroke-width="3" d="M 475,342 C 434,415 520,155 438,144 C 631,211 199,309 347,496 C 151,493 499,378 537,411 C 692,260 432,224 588,267 C 362,273 400,451 520,140 C 498,247 543,234 656,463 C 218,404 309,411 417,210 C 434,123 158,229 419,442 C 370,286 360,442 535,470 Z" opacity=".75" transform="rotate(25.0 400 300)"/><rect width="353" height="127" x="528" y="383" fill="#5B2709" stroke="#969642" stroke-opacity=".135" stroke-width="3" opacity=".394" transform="rotate(154.0 400 300)"/><rect width="252" height="135" x="583" y="23" fill="#85318D" stroke="#B09625" stroke-opacity=".096" stroke-width="6" opacity=".47" transform="rotate(158.0 400 300)"/><ellipse cx="322" cy="436" fill="#B52742" stroke="#932B9C" stroke-opacity=".094" stroke-width="1" opacity=".66" rx="113" ry="286" transform="rotate(141.0 400 300)"/><ellipse cx="603" cy="466" fill="#73B8B2" stroke="#44B03B" stroke-opacity=".942" stroke-width="6" opacity=".621" rx="287" ry="152" transform="rotate(-108.0 400 300)"/><rect width="376" height="273" x="328" y="344" fill="#26A282" stroke="#211479" stroke-opacity=".172" stroke-width="4" opacity=".286" transform="rotate(-123.0 400 300)"/></g></svg>