<?xml version="1.0" encoding="UTF-8"?>
<svg width="800px" height="600px" viewBox="0 0 800 600" version="1.1" xmlns="http://www.w3.org/2000/svg" xmlns:xlink="http://www.w3.org/1999/xlink">
  <defs></defs>
  <g stroke="none" stroke-width="1" fill="none" fill-rule="evenodd">
    
    <ellipse stroke="#88709D" stroke-width="2" fill="#4D3257" opacity="0.2880510426855109" stroke-opacity="0.824818009674672" transform="rotate(-76.0 400 300)" cx="72" rx="114" cy="33" ry="45"></ellipse>
<rect stroke="#20447C" stroke-width="6" fill="#06CC2C" opacity="0.5170833785596101" stroke-opacity="0.16283042298151476" transform="rotate(-66.0 400 300)" x="337" y="367" width="75" height="220"></rect>
<path stroke="#D34217" stroke-width="3" fill="#CC3041" opacity="0.7504660594860094" stroke-opacity="0.39441582204555414" transform="rotate(25.0 400 300)" d="M 475,342  C 434,415 520,155 438,144 C 631,211 199,309 347,496 C 151,493 499,378 537,411 C 692,260 432,224 588,267 C 362,273 400,451 520,140 C 498,247 543,234 656,463 C 218,404 309,411 417,210 C 434,123 158,229 419,442 C 370,286 360,442 535,470 Z"></path>
<rect stroke="#969642" stroke-width="3" fill="#5B2709" opacity="0.39374673019887746" stroke-opacity="0.13548121156735385" transform="rotate(154.0 400 300)" x="528" y="383" width="353" height="127"></rect>
<rect stroke="#B09625" stroke-width="6" fill="#85318D" opacity="0.47007655177350954" stroke-opacity="0.09582591836419362" transform="rotate(158.0 400 300)" x="583" y="23" width="252" height="135"></rect>
<ellipse stroke="#932B9C" stroke-width="1" fill="#B52742" opacity="0.6601443209285284" stroke-opacity="0.09428541697795856" transform="rotate(141.0 400 300)" cx="322" rx="113" cy="436" ry="286"></ellipse>
<ellipse stroke="#44B03B" stroke-width="6" fill="#73B8B2" opacity="0.6211140599307561" stroke-opacity="0.9421182316284601" transform="rotate(-108.0 400 300)" cx="603" rx="287" cy="466" ry="152"></ellipse>
<rect stroke="#211479" stroke-width="4" fill="#26A282" opacity="0.2863008051559079" stroke-opacity="0.17205778939108313" transform="rotate(-123.0 400 300)" x="328" y="344" width="376" height="273"></rect>

  </g>
</svg>
