<?xml version="1.0" encoding="UTF-8"?>
<svg width="800px" height="600px" viewBox="0 0 800 600" version="1.1" xmlns="http://www.w3.org/2000/svg" xmlns:xlink="http://www.w3.org/1999/xlink">
  <defs></defs>
  <g stroke="none" stroke-width="1" fill="none" fill-rule="evenodd">
    
    <path stroke="#9562DB" stroke-width="7" fill="#CB3BC4" opacity="0.30592363664024413" stroke-opacity="0.4098405708490776" transform="rotate(-88.0 400 300)" d="M 554,323  C 253,457 461,437 551,286 C 411,359 284,336 667,458 C 135,283 666,137 270,187 C 613,372 125,180 569,198 Z"></path>
<path stroke="#480248" stroke-width="2" fill="#AADD6B" opacity="0.9391961223165063" stroke-opacity="0.7175771586092484" transform="rotate(-1.0 400 300)" d="M 162,127  C 512,260 161,390 235,144 C 129,136 544,305 162,446 C 269,257 693,200 544,367 C 393,249 230,462 482,444 C 463,326 203,108 243,475 C 420,362 222,123 390,363 C 625,424 484,443 609,197 C 601,498 551,262 432,414 C 622,431 652,198 591,299 C 393,431 591,119 366,135 C 700,409 467,203 198,285 Z"></path>
<path stroke="#369714" stroke-width="1" fill="#B0C2C3" opacity="0.7773272350191298" stroke-opacity="0.03950350493761215" transform="rotate(-34.0 400 300)" d="M 496,179  C 547,363 189,340 346,434 C 523,238 492,278 301,256 C 280,186 485,375 558,107 C 464,367 550,346 686,477 C 251,497 235,460 528,352 C 193,418 236,108 137,473 Z"></path>
<path stroke="#C7D157" stroke-width="3" fill="#596B48" opacity="0.48082195685566587" stroke-opacity="0.8697071092353984" transform="rotate(-8.0 400 300)" d="M 230,193  C 516,467 452,188 410,466 C 451,119 690,149 548,289 C 200,347 314,279 112,253 C 108,203 581,316 637,322 Z"></path>
<path stroke="#0A3CBD" stroke-width="1" fill="#93BDAD" opacity="0.7400694290903405" stroke-opacity="0.973612951696876" transform="rotate(-84.0 400 300)" d="M 138,447  C 328,423 402,291 146,307 C 252,353 286,351 420,300 C 324,111 651,290 367,206 C 357,383 435,311 129,312 Z"></path>
<path stroke="#4A9562" stroke-width="3" fill="#C76763" opacity="0.6936165486735716" stroke-opacity="0.5651187808283415" transform="rotate(-7.0 400 300)" d="M 559,439  C 484,346 205,427 304,149 C 553,384 313,353 526,300 C 374,388 521,153 269,160 C 109,447 533,423 122,152 C 185,366 337,218 257,142 C 636,229 212,298 537,227 C 480,465 433,217 355,231 C 545,250 251,296 242,321 C 561,263 611,138 683,124 C 415,235 327,309 414,334 Z"></path>
<path stroke="#082922" stroke-width="5" fill="#3C04B9" opacity="0.452736153944551" stroke-opacity="0.7880378911765598" transform="rotate(-162.0 400 300)" d="M 464,392  C 306,368 688,312 529,276 C 500,231 678,270 358,188 C 210,204 453,371 553,327 C 202,144 536,406 657,180 C 655,236 167,432 617,147 C 661,220 651,304 308,306 C 140,268 309,434 437,378 C 334,279 697,342 439,453 C 670,488 439,371 190,349 Z"></path>
<path stroke="#5006AD" stroke-width="7" fill="#3B1185" opacity="0.750132652028424" stroke-opacity="0.8157618545224794" transform="rotate(20.0 400 300)" d="M 545,455  C 401,316 688,213 628,386 C 657,156 233,394 637,322 C 347,357 249,400 276,439 C 605,333 503,258 120,132 C 446,481 214,481 297,110 C 563,240 415,479 654,364 C 361,415 529,181 358,162 Z"></path>
<path stroke="#A91562" stroke-width="7" fill="#9C7AD7" opacity="0.79806900113067" stroke-opacity="0.64446175308716" transform="rotate(160.0 400 300)" d="M 350,181  C 343,338 636,164 629,222 C 203,334 314,423 566,183 C 697,428 632,156 596,414 C 236,281 222,161 276,225 Z"></path>
<path stroke="#C5CA16" stroke-width="4" fill="#D18610" opacity="0.32607742889750857" stroke-opacity="0.43471140532086106" transform="rotate(-177.0 400 300)" d="M 260,378  C 165,162 118,346 118,210 C 509,115 331,118 477,302 C 282,401 476,489 289,137 C 237,307 137,467 390,455 C 242,320 516,415 388,115 C 123,364 361,493 610,278 C 397,436 152,274 191,348 Z"></path>

  </g>
</svg>
