<?xml version="1.0" encoding="UTF-8"?>
<svg width="800px" height="600px" viewBox="0 0 800 600" version="1.1" xmlns="http://www.w3.org/2000/svg" xmlns:xlink="http://www.w3.org/1999/xlink">
  <defs></defs>
  <g stroke="none" stroke-width="1" fill="none" fill-rule="evenodd">
    
    <path stroke="#f9d84b" stroke-width="7" fill="#ed2b2c" opacity="0.9870651914009692" stroke-opacity="0.23673807722586165" transform="rotate(-47.0 400 300)" d="M 416,478  C 221,242 107,483 153,322 C 367,398 224,244 401,283 C 674,442 584,293 477,433 C 336,491 210,152 641,223 C 179,147 323,148 578,171 C 480,340 312,237 206,122 C 648,344 382,155 288,237 C 197,277 351,447 406,254 Z"></path>
<path stroke="#f9d84b" stroke-width="3" fill="#2b55f7" opacity="0.07647852233908681" stroke-opacity="0.5008118165275776" transform="rotate(149.0 400 300)" d="M 146,192  C 678,446 609,315 292,385 C 513,242 672,208 154,409 C 699,193 376,466 342,263 C 684,377 477,191 259,228 C 692,472 295,404 573,188 C 319,185 586,262 414,428 C 514,442 607,230 596,118 C 149,261 295,162 231,357 Z"></path>
<path stroke="#2b55f7" stroke-width="5" fill="#2b55f7" opacity="0.9190688210898188" stroke-opacity="0.6353468352921665" transform="rotate(114.0 400 300)" d="M 684,400  C 697,427 248,455 174,461 C 118,311 220,469 197,368 C 186,448 690,330 658,164 C 324,482 422,235 628,180 C 118,264 594,459 115,360 Z"></path>
<path stroke="#31a06b" stroke-width="4" fill="#31a06b" opacity="0.8472033447546913" stroke-opacity="0.3801411148610292" transform="rotate(-47.0 400 300)" d="M 178,139  C 412,245 566,252 307,251 C 694,236 685,210 596,391 C 293,205 183,157 110,350 C 557,220 112,131 625,398 C 458,449 341,323 338,371 Z"></path>
<path stroke="#31a06b" stroke-width="3" fill="#f9d84b" opacity="0.010414998632567623" stroke-opacity="0.060067452806252634" transform="rotate(-40.0 400 300)" d="M 570,395  C 295,336 481,182 545,185 C 392,155 323,279 694,379 C 516,287 553,356 694,171 C 493,434 395,184 147,282 Z"></path>
<path stroke="#31a06b" stroke-width="1" fill="#2b55f7" opacity="0.05332271743846482" stroke-opacity="0.9136554154134056" transform="rotate(96.0 400 300)" d="M 496,175  C 594,283 576,150 478,166 C 573,228 390,325 696,363 C 275,221 269,380 533,124 C 646,185 325,317 328,308 C 576,366 360,165 286,367 C 396,116 412,427 428,314 C 604,159 648,414 621,475 C 188,306 109,434 275,119 C 553,444 420,333 161,161 Z"></path>

  </g>
</svg>
