<svg xmlns="http://www.w3.org/2000/svg" xmlns:xlink="http://www.w3.org/1999/xlink" width="800" height="600" version="1.1" viewBox="0 0 800 600"><g fill="none" fill-rule="evenodd" stroke="none" stroke-width="1"><path fill="#2b55f7" stroke="#31a06b" stroke-opacity=".958" stroke-width="7" d="M 131,114 C 264,369 309,304 409,361 C 262,486 505,279 572,409 C 253,146 602,286 138,428 C 653,460 562,257 355,134 C 399,245 194,355 496,374 Z" opacity=".416" transform="rotate(-149.0 400 300)"/><path fill="#31a06b" stroke="#ed2b2c" stroke-opacity=".298" stroke-width="3" d="M 585,170 C 422,227 245,294 236,140 C 681,310 123,286 663,421 C 650,112 662,419 515,357 C 638,450 541,324 408,354 C 259,163 154,370 436,434 C 606,411 145,220 174,353 C 399,111 491,247 150,172 C 655,342 632,105 288,433 C 426,417 669,194 189,339 C 344,275 462,405 486,315 C 221,331 370,358 621,458 Z" opacity=".072" transform="rotate(85.0 400 300)"/><path fill="#2b55f7" stroke="#f27630" stroke-opacity=".861" stroke-width="6" d="M 644,296 C 442,209 671,120 493,198 C 644,486 139,220 209,372 C 557,337 282,251 183,446 C 556,258 241,394 622,176 C 444,290 580,463 425,415 C 625,107 352,205 308,209 C 700,415 317,194 241,213 Z" opacity=".895" transform="rotate(-157.0 400 300)"/><path fill="#f27630" stroke="#ed2b2c" stroke-opacity=".839" stroke-width="7" d="M 517,213 C 386,384 127,209 296,359 C 441,280 640,387 426,482 C 689,124 144,372 477,190 C 624,369 484,257 593,250 C 481,312 285,226 672,393 Z" opacity=".333" transform="rotate(-25.0 400 300)"/><path fill="#ed2b2c" stroke="#f27630" stroke-opacity=".639" stroke-width="2" d="M 435,390 C 591,362 376,498 302,284 C 128,201 283,169 157,194 C 106,404 601,492 315,320 C 226,147 361,374 397,421 C 600,481 318,275 605,470 C 491,426 243,197 243,316 C 682,176 676,138 415,351 C 231,166 631,197 199,445 C 386,452 346,315 219,334 C 700,232 420,384 437,159 Z" opacity=".497" transform="rotate(-57.0 400 300)"/><path fill="#ed2b2c" stroke="#2b55f7" stroke-opacity=".781" stroke-width="6" d="M 444,479 C 140,185 473,261 150,442 C 682,267 481,300 178,286 C 409,315 246,144 132,392 C 416,219 336,160 186,274 C 176,150 691,167 405,344 C 253,351 226,368 283,163 C 691,379 513,118 651,263 C 147,361 341,334 309,451 C 457,267 635,243 323,255 C 254,215 507,433 508,101 C 357,460 126,441 113,463 Z" opacity=".538" transform="rotate(-34.0 400 300)"/><path fill="#31a06b" stroke="#31a06b" stroke-opacity=".277" stroke-width="2" d="M 331,488 C 217,260 184,203 298,363 C 357,467 562,228 412,378 C 409,339 145,184 311,373 C 257,441 608,285 267,308 Z" opacity=".092" transform="rotate(-137.0 400 300)"/></g></svg>