<svg xmlns="http://www.w3.org/2000/svg" xmlns:xlink="http://www.w3.org/1999/xlink" width="800" height="600" version="1.1" viewBox="0 0 800 600"><g fill="none" fill-rule="evenodd" stroke="none" stroke-width="1"><path fill="#fe9225" stroke="#02eb6b" stroke-opacity=".568" stroke-width="1" d="M 322,113 C 385,121 693,278 433,152 C 434,142 107,308 266,136 C 188,292 118,472 631,432 C 546,227 279,109 598,395 Z" opacity=".456" transform="rotate(2.0 400 300)"/><path fill="#2cd3f3" stroke="#f559a0" stroke-opacity=".773" stroke-width="5" d="M 581,115 C 512,425 536,171 103,456 C 314,473 565,479 556,156 C 220,308 467,124 408,115 C 144,496 275,456 578,222 C 434,175 512,155 218,222 C 183,195 459,231 421,161 C 517,405 190,235 280,434 C 417,402 131,190 562,318 C 671,430 427,318 291,328 C 471,160 533,141 414,321 C 502,113 151,193 192,420 Z" opacity=".919" transform="rotate(-65.0 400 300)"/><path fill="#fe9225" stroke="#0fa6d8" stroke-opacity=".651" stroke-width="3" d="M 700,114 C 216,463 472,332 554,362 C 267,245 132,201 613,151 C 370,356 551,262 322,159 C 363,368 150,181 398,495 C 216,184 425,474 263,418 C 500,131 569,258 542,488 C 238,208 554,326 356,180 Z" opacity=".744" transform="rotate(-84.0 400 300)"/><path fill="#fe9225" stroke="#fe9225" stroke-opacity=".696" stroke-width="6" d="M 278,354 C 515,397 565,296 110,494 C 126,235 292,418 506,444 C 115,384 410,494 318,468 C 573,207 632,351 104,470 C 678,168 549,461 436,417 C 686,371 430,178 349,423 C 216,421 331,275 177,138 C 289,227 127,278 416,202 C 348,464 587,268 508,409 C 596,246 619,227 692,464 C 463,414 627,120 237,154 Z" opacity=".871" transform="rotate(116.0 400 300)"/><path fill="#2cd3f3" stroke="#02eb6b" stroke-opacity=".101" stroke-width="5" d="M 325,418 C 217,418 418,471 546,388 C 435,448 697,455 262,234 C 614,406 482,304 622,335 C 125,232 639,250 170,166 C 205,352 656,282 562,296 C 326,228 169,206 304,393 Z" opacity=".697" transform="rotate(13.0 400 300)"/><path fill="#0fa6d8" stroke="#0fa6d8" stroke-opacity=".018" stroke-width="6" d="M 475,342 C 492,197 612,326 416,245 C 257,333 671,486 139,181 C 682,320 240,207 239,290 C 396,442 645,378 700,254 C 665,172 368,153 337,483 C 275,215 141,481 104,312 C 416,426 681,354 273,299 C 428,357 487,219 376,285 C 456,428 590,311 555,206 C 215,300 362,192 209,401 C 155,106 344,142 350,388 Z" opacity=".916" transform="rotate(134.0 400 300)"/></g></svg>