<?xml version="1.0" encoding="UTF-8"?>
<svg width="800px" height="600px" viewBox="0 0 800 600" version="1.1" xmlns="http://www.w3.org/2000/svg" xmlns:xlink="http://www.w3.org/1999/xlink">
  <defs></defs>
  <g stroke="none" stroke-width="1" fill="none" fill-rule="evenodd">
    
    <path stroke="#fe9225" stroke-width="4" fill="#0fa6d8" opacity="0.5629971093845058" stroke-opacity="0.8853615439417971" transform="rotate(-23.0 400 300)" d="M 219,405  C 146,466 700,424 523,470 C 669,342 316,259 301,104 C 184,402 442,328 399,113 C 541,298 692,133 668,211 Z"></path>
<path stroke="#02eb6b" stroke-width="5" fill="#fe9225" opacity="0.8750655517794621" stroke-opacity="0.8256638818131985" transform="rotate(-18.0 400 300)" d="M 383,466  C 336,416 624,173 438,385 C 466,163 122,272 442,300 C 386,381 510,108 240,211 C 384,436 548,471 372,236 C 616,311 399,121 189,137 C 337,435 188,106 676,218 C 225,195 247,343 535,469 C 458,179 676,108 312,477 C 514,234 472,232 178,242 Z"></path>
<path stroke="#2cd3f3" stroke-width="1" fill="#0fa6d8" opacity="0.05836386590435726" stroke-opacity="0.6074458039087197" transform="rotate(57.0 400 300)" d="M 573,183  C 147,194 601,275 510,421 C 484,271 326,240 306,201 C 471,327 592,212 270,465 C 599,410 548,337 376,355 C 143,155 416,409 277,101 C 308,356 424,389 104,340 Z"></path>
<path stroke="#02eb6b" stroke-width="7" fill="#2cd3f3" opacity="0.2764584335961913" stroke-opacity="0.9836288485995413" transform="rotate(-57.0 400 300)" d="M 438,450  C 205,223 594,228 331,219 C 292,223 492,488 183,257 C 599,119 207,401 172,264 C 463,242 453,118 565,184 C 691,449 692,338 106,124 C 417,453 673,254 231,291 C 242,251 541,467 583,225 C 660,318 350,158 572,328 C 586,405 628,337 405,499 C 699,287 639,101 582,462 C 644,183 598,330 518,200 Z"></path>
<path stroke="#2cd3f3" stroke-width="6" fill="#2cd3f3" opacity="0.44515775941343955" stroke-opacity="0.396111970297623" transform="rotate(-169.0 400 300)" d="M 163,476  C 693,492 399,173 233,157 C 524,116 157,137 370,277 C 586,498 509,178 218,478 C 624,235 384,271 561,319 C 682,234 280,349 279,382 C 201,287 165,321 107,321 C 435,493 665,491 560,140 C 585,360 252,409 278,164 C 565,360 532,469 567,429 C 342,174 137,253 565,237 Z"></path>
<path stroke="#02eb6b" stroke-width="4" fill="#2cd3f3" opacity="0.9931048264707523" stroke-opacity="0.42662522495274213" transform="rotate(-162.0 400 300)" d="M 416,395  C 317,251 676,309 477,329 C 413,378 432,263 630,192 C 593,278 146,409 274,425 C 396,376 386,312 506,356 C 302,436 234,437 138,228 C 597,128 337,278 635,217 C 136,174 379,401 501,118 C 417,480 211,186 336,179 Z"></path>
<path stroke="#0fa6d8" stroke-width="7" fill="#f559a0" opacity="0.1199990312767191" stroke-opacity="0.3498988329959417" transform="rotate(-134.0 400 300)" d="M 116,463  C 501,264 141,381 430,463 C 449,267 558,441 277,317 C 677,407 110,440 251,142 C 324,480 162,331 662,218 C 145,114 685,293 422,246 C 481,388 476,310 420,130 C 644,276 697,357 597,454 Z"></path>
<path stroke="#2cd3f3" stroke-width="3" fill="#02eb6b" opacity="0.5758232722001226" stroke-opacity="0.5517425182100024" transform="rotate(-31.0 400 300)" d="M 471,245  C 170,464 534,280 677,480 C 599,304 681,105 258,189 C 167,291 638,402 597,265 C 165,417 650,319 568,154 C 467,262 414,135 335,246 C 589,493 641,308 247,356 C 336,101 485,172 212,458 Z"></path>
<path stroke="#0fa6d8" stroke-width="2" fill="#0fa6d8" opacity="0.5400073115249835" stroke-opacity="0.8389144791795025" transform="rotate(70.0 400 300)" d="M 487,325  C 303,134 141,322 378,491 C 338,297 496,341 291,439 C 118,141 263,325 655,305 C 465,334 122,457 648,255 Z"></path>

  </g>
</svg>
