<?xml version="1.0" encoding="UTF-8"?>
<svg width="800px" height="600px" viewBox="0 0 800 600" version="1.1" xmlns="http://www.w3.org/2000/svg" xmlns:xlink="http://www.w3.org/1999/xlink">
  <defs></defs>
  <g stroke="none" stroke-width="1" fill="none" fill-rule="evenodd">
    
    <path stroke="#fe9225" stroke-width="7" fill="#0fa6d8" opacity="0.9423683039677551" stroke-opacity="0.14443125609752508" transform="rotate(56.0 400 300)" d="M 501,112  C 246,392 162,171 244,296 C 163,174 173,228 101,492 C 263,126 560,334 562,320 C 664,240 576,337 642,492 C 414,386 546,219 302,256 C 359,434 136,432 399,259 C 179,110 168,276 230,407 C 521,137 198,475 475,268 C 663,244 521,218 230,159 C 253,169 630,280 516,439 C 357,437 588,343 475,154 Z"></path>
<path stroke="#2cd3f3" stroke-width="4" fill="#2cd3f3" opacity="0.521954822106002" stroke-opacity="0.4684196401450441" transform="rotate(24.0 400 300)" d="M 640,171  C 325,238 248,153 166,274 C 264,190 371,384 454,154 C 484,432 422,456 511,268 C 182,380 467,176 545,155 C 538,464 616,302 389,375 Z"></path>
<path stroke="#fe9225" stroke-width="1" fill="#f559a0" opacity="0.8077416512054583" stroke-opacity="0.3203458379049265" transform="rotate(153.0 400 300)" d="M 508,332  C 102,416 516,383 132,402 C 413,496 613,119 616,199 C 314,400 366,169 491,447 C 344,472 667,405 617,394 C 446,119 252,313 103,164 C 601,456 603,117 545,251 C 178,479 280,279 376,195 C 412,244 669,234 454,180 Z"></path>
<path stroke="#fe9225" stroke-width="4" fill="#0fa6d8" opacity="0.35731284831434407" stroke-opacity="0.7243278170510695" transform="rotate(33.0 400 300)" d="M 443,268  C 417,293 276,176 187,133 C 187,264 477,422 543,190 C 309,403 533,242 216,112 C 285,129 123,455 504,207 C 104,259 491,129 601,368 C 332,274 540,462 391,101 C 261,471 622,250 201,266 C 122,401 660,463 474,324 C 381,378 208,102 435,284 Z"></path>
<path stroke="#2cd3f3" stroke-width="3" fill="#f559a0" opacity="0.6383745870048737" stroke-opacity="0.5266022425738496" transform="rotate(100.0 400 300)" d="M 375,324  C 478,388 412,329 253,140 C 484,480 600,413 316,112 C 547,462 437,282 197,202 C 623,455 480,489 204,360 C 436,470 464,295 312,400 Z"></path>
<path stroke="#fe9225" stroke-width="1" fill="#0fa6d8" opacity="0.09181794422579762" stroke-opacity="0.5407515041785098" transform="rotate(171.0 400 300)" d="M 387,381  C 333,345 329,319 435,182 C 482,260 645,175 375,342 C 113,188 292,215 645,101 C 478,120 696,302 698,428 C 695,145 692,474 472,134 C 469,433 623,304 214,300 C 474,389 255,367 412,229 C 656,182 404,375 354,191 C 620,407 605,328 443,485 C 166,373 693,352 284,155 C 340,443 428,341 495,420 Z"></path>

  </g>
</svg>
