<?xml version="1.0" encoding="UTF-8"?>
<svg width="800px" height="600px" viewBox="0 0 800 600" version="1.1" xmlns="http://www.w3.org/2000/svg" xmlns:xlink="http://www.w3.org/1999/xlink">
  <defs></defs>
  <g stroke="none" stroke-width="1" fill="none" fill-rule="evenodd">
    
    <path stroke="#0fa6d8" stroke-width="2" fill="#02eb6b" opacity="0.3331161762707481" stroke-opacity="0.8131967613192143" transform="rotate(-118.0 400 300)" d="M 524,344  C 161,296 474,267 406,260 C 108,405 646,483 527,293 C 645,266 598,246 452,166 C 418,424 425,346 578,244 C 153,254 470,230 226,201 Z"></path>
<path stroke="#f559a0" stroke-width="6" fill="#0fa6d8" opacity="0.35502198904312354" stroke-opacity="0.07189093064470163" transform="rotate(115.0 400 300)" d="M 488,118  C 244,457 479,425 378,259 C 555,190 112,207 305,484 C 162,489 440,321 224,164 C 621,440 669,131 598,171 C 603,189 680,264 516,396 C 611,465 214,469 471,460 C 552,447 457,341 403,365 C 325,295 214,240 147,237 C 405,244 203,338 247,261 C 243,179 200,159 129,187 Z"></path>
<path stroke="#0fa6d8" stroke-width="7" fill="#0fa6d8" opacity="0.45300316375615984" stroke-opacity="0.6147025762091369" transform="rotate(65.0 400 300)" d="M 338,195  C 551,195 496,282 371,150 C 365,476 308,216 585,441 C 388,354 377,223 113,358 C 186,488 636,257 147,297 C 305,125 629,356 331,114 C 419,220 400,150 601,241 C 183,131 574,306 243,319 Z"></path>
<path stroke="#fe9225" stroke-width="7" fill="#02eb6b" opacity="0.6666359037147598" stroke-opacity="0.7109201262935827" transform="rotate(30.0 400 300)" d="M 678,172  C 543,367 682,372 407,118 C 303,132 422,304 186,210 C 165,265 194,148 558,229 C 258,223 145,179 654,479 C 603,363 126,274 562,355 C 615,190 240,340 349,447 C 117,250 328,491 438,308 C 381,484 341,310 215,164 Z"></path>
<path stroke="#fe9225" stroke-width="1" fill="#fe9225" opacity="0.4236654456269858" stroke-opacity="0.6745792908647189" transform="rotate(162.0 400 300)" d="M 559,114  C 291,168 596,317 467,272 C 110,405 677,458 490,124 C 446,473 476,459 231,302 C 469,447 352,156 541,307 C 165,205 359,456 273,266 C 182,127 577,353 343,265 C 435,188 529,246 496,104 C 422,182 505,286 352,345 C 134,491 180,175 304,452 C 142,398 672,487 163,490 C 377,436 673,213 465,230 Z"></path>
<path stroke="#fe9225" stroke-width="3" fill="#fe9225" opacity="0.848732909728541" stroke-opacity="0.011013795814902328" transform="rotate(86.0 400 300)" d="M 130,148  C 556,347 626,313 592,288 C 409,377 149,341 661,223 C 595,257 265,241 578,288 C 507,329 208,180 114,445 Z"></path>
<path stroke="#2cd3f3" stroke-width="2" fill="#2cd3f3" opacity="0.9415411699619074" stroke-opacity="0.002871819789059702" transform="rotate(-134.0 400 300)" d="M 638,384  C 656,217 358,193 661,496 C 651,417 304,130 529,475 C 168,430 243,319 178,163 C 489,204 685,415 333,245 Z"></path>
<path stroke="#0fa6d8" stroke-width="6" fill="#fe9225" opacity="0.6168922232414943" stroke-opacity="0.8441685563705642" transform="rotate(-123.0 400 300)" d="M 102,168  C 260,165 192,470 426,471 C 229,452 261,110 671,175 C 272,224 365,266 402,218 C 303,449 438,406 138,381 C 692,222 660,452 616,266 Z"></path>
<path stroke="#f559a0" stroke-width="3" fill="#2cd3f3" opacity="0.6796953432940699" stroke-opacity="0.20693093709556495" transform="rotate(-130.0 400 300)" d="M 568,272  C 444,383 419,439 224,247 C 124,179 681,262 264,406 C 287,133 697,347 139,363 C 155,325 135,133 325,364 Z"></path>
<path stroke="#f559a0" stroke-width="7" fill="#02eb6b" opacity="0.6112938999028994" stroke-opacity="0.7290179630601927" transform="rotate(92.0 400 300)" d="M 501,473  C 527,392 440,276 284,315 C 295,178 502,378 177,219 C 251,251 655,174 639,166 C 607,458 444,185 695,114 C 370,124 700,497 232,252 C 356,108 224,198 536,212 C 672,349 550,370 353,408 C 315,143 436,497 173,409 C 227,445 188,478 278,315 C 685,108 218,339 252,419 Z"></path>

  </g>
</svg>
