<svg xmlns="http://www.w3.org/2000/svg" xmlns:xlink="http://www.w3.org/1999/xlink" width="800" height="600" version="1.1" viewBox="0 0 800 600"><g fill="none" fill-rule="evenodd" stroke="none" stroke-width="1"><polygon fill="#5CA240" stroke="#B36C36" stroke-opacity=".802" stroke-width="5" points="752 394 72 125 250 547 659 156 516 360" opacity=".769" transform="rotate(-43.0 400 300)"/><rect width="302" height="227" x="787" y="80" fill="#A4ACD8" stroke="#4BBA17" stroke-opacity=".158" stroke-width="6" opacity=".592" transform="rotate(-133.0 400 300)"/><path fill="#6B7501" stroke="#845871" stroke-opacity=".652" stroke-width="6" d="M 505,470 C 504,482 278,165 562,369 C 685,116 388,142 569,282 C 307,319 336,106 204,459 C 344,247 405,273 117,414 C 651,139 392,318 631,447 C 221,493 157,322 391,434 C 385,343 640,195 646,340 C 364,107 109,471 449,292 C 181,408 361,382 160,103 Z" opacity=".798" transform="rotate(-33.0 400 300)"/><rect width="330" height="399" x="645" y="276" fill="#DD04D4" stroke="#C819C3" stroke-opacity=".535" stroke-width="5" opacity=".797" transform="rotate(47.0 400 300)"/><rect width="87" height="200" x="630" y="474" fill="#7AAC40" stroke="#D470C7" stroke-opacity=".923" stroke-width="6" opacity=".836" transform="rotate(-100.0 400 300)"/><polygon fill="#BA7C32" stroke="#A74902" stroke-opacity=".562" stroke-width="6" points="671 25 329 248 401 252 626 413 358 581 218 290 14 131 379 305" opacity=".333" transform="rotate(135.0 400 300)"/><ellipse cx="504" cy="89" fill="#B4B59D" stroke="#3410A0" stroke-opacity=".827" stroke-width="4" opacity=".204" rx="82" ry="275" transform="rotate(9.0 400 300)"/><ellipse cx="144" cy="473" fill="#240C5B" stroke="#A705C1" stroke-opacity=".018" stroke-width="7" opacity=".901" rx="120" ry="67" transform="rotate(154.0 400 300)"/></g></svg>