<svg xmlns="http://www.w3.org/2000/svg" xmlns:xlink="http://www.w3.org/1999/xlink" width="800" height="600" version="1.1" viewBox="0 0 800 600"><g fill="none" fill-rule="evenodd" stroke="none" stroke-width="1"><polygon fill="#2cd3f3" stroke="#2cd3f3" stroke-opacity=".523" stroke-width="3" points="787 468 577 281 535 376 318 550 713 380 258 250 489 513 505 401" opacity=".54" transform="rotate(121.0 400 300)"/><rect width="108" height="214" x="432" y="456" fill="#0fa6d8" stroke="#02eb6b" stroke-opacity=".152" stroke-width="7" opacity=".039" transform="rotate(161.0 400 300)"/><polygon fill="#2cd3f3" stroke="#02eb6b" stroke-opacity=".422" stroke-width="1" points="183 70 538 180 303 474 98 276 11 78" opacity=".706" transform="rotate(1.0 400 300)"/><rect width="225" height="346" x="478" y="284" fill="#0fa6d8" stroke="#f559a0" stroke-opacity=".549" stroke-width="5" opacity=".959" transform="rotate(179.0 400 300)"/><path fill="#f559a0" stroke="#0fa6d8" stroke-opacity=".319" stroke-width="5" d="M 326,212 C 139,366 327,443 244,433 C 384,111 280,177 142,250 C 366,119 503,262 124,500 C 348,379 370,113 618,208 C 176,498 158,446 611,377 C 468,498 319,368 599,288 C 467,392 572,412 429,437 C 129,433 171,140 253,476 Z" opacity=".034" transform="rotate(-102.0 400 300)"/><polygon fill="#fe9225" stroke="#0fa6d8" stroke-opacity=".155" stroke-width="4" points="743 555 28 26 367 389 449 297 579 358 739 7 556 451" opacity=".499" transform="rotate(-140.0 400 300)"/><ellipse cx="217" cy="193" fill="#2cd3f3" stroke="#fe9225" stroke-opacity=".335" stroke-width="5" opacity=".863" rx="406" ry="210" transform="rotate(43.0 400 300)"/><polygon fill="#f559a0" stroke="#f559a0" stroke-opacity=".981" stroke-width="5" points="40 113 4 274 786 526 498 435 205 456" opacity=".301" transform="rotate(-42.0 400 300)"/><rect width="216" height="314" x="117" y="512" fill="#02eb6b" stroke="#f559a0" stroke-opacity=".402" stroke-width="5" opacity=".601" transform="rotate(-14.0 400 300)"/></g></svg>