<?xml version="1.0" encoding="UTF-8"?>
<svg width="800px" height="600px" viewBox="0 0 800 600" version="1.1" xmlns="http://www.w3.org/2000/svg" xmlns:xlink="http://www.w3.org/1999/xlink">
  <defs></defs>
  <g stroke="none" stroke-width="1" fill="none" fill-rule="evenodd">
    
    <polygon stroke="#2cd3f3" stroke-width="3" fill="#2cd3f3" opacity="0.5395631659216461" stroke-opacity="0.5225969617051069" transform="rotate(121.0 400 300)" points="787 468 577 281 535 376 318 550 713 380 258 250 489 513 505 401 "></polygon>
<rect stroke="#02eb6b" stroke-width="7" fill="#0fa6d8" opacity="0.03922267533459901" stroke-opacity="0.15191656219379174" transform="rotate(161.0 400 300)" x="432" y="456" width="108" height="214"></rect>
<polygon stroke="#02eb6b" stroke-width="1" fill="#2cd3f3" opacity="0.7061647561043276" stroke-opacity="0.42165271620177847" transform="rotate(1.0 400 300)" points="183 70 538 180 303 474 98 276 11 78 "></polygon>
<rect stroke="#f559a0" stroke-width="5" fill="#0fa6d8" opacity="0.9586790004578714" stroke-opacity="0.548721939458756" transform="rotate(179.0 400 300)" x="478" y="284" width="225" height="346"></rect>
<path stroke="#0fa6d8" stroke-width="5" fill="#f559a0" opacity="0.03414998391230303" stroke-opacity="0.31946215852122556" transform="rotate(-102.0 400 300)" d="M 326,212  C 139,366 327,443 244,433 C 384,111 280,177 142,250 C 366,119 503,262 124,500 C 348,379 370,113 618,208 C 176,498 158,446 611,377 C 468,498 319,368 599,288 C 467,392 572,412 429,437 C 129,433 171,140 253,476 Z"></path>
<polygon stroke="#0fa6d8" stroke-width="4" fill="#fe9225" opacity="0.49923416874630494" stroke-opacity="0.1551948280609564" transform="rotate(-140.0 400 300)" points="743 555 28 26 367 389 449 297 579 358 739 7 556 451 "></polygon>
<ellipse stroke="#fe9225" stroke-width="5" fill="#2cd3f3" opacity="0.8630162509922262" stroke-opacity="0.33501369062357184" transform="rotate(43.0 400 300)" cx="217" rx="406" cy="193" ry="210"></ellipse>
<polygon stroke="#f559a0" stroke-width="5" fill="#f559a0" opacity="0.30091644453429295" stroke-opacity="0.9808184526481408" transform="rotate(-42.0 400 300)" points="40 113 4 274 786 526 498 435 205 456 "></polygon>
<rect stroke="#f559a0" stroke-width="5" fill="#02eb6b" opacity="0.6008896197128952" stroke-opacity="0.40234116626233685" transform="rotate(-14.0 400 300)" x="117" y="512" width="216" height="314"></rect>

  </g>
</svg>
