<?xml version="1.0" encoding="UTF-8"?>
<svg width="800px" height="600px" viewBox="0 0 800 600" version="1.1" xmlns="http://www.w3.org/2000/svg" xmlns:xlink="http://www.w3.org/1999/xlink">
  <defs></defs>
  <g stroke="none" stroke-width="1" fill="none" fill-rule="evenodd">
    
    <path stroke="#58539A" stroke-width="3" fill="#40A142" opacity="0.9468709254186982" stroke-opacity="0.8286290260080754" transform="rotate(63.0 400 300)" d="M 350,194  C 682,169 237,152 412,431 C 381,353 185,389 573,463 C 292,459 338,433 513,275 C 310,150 448,271 120,378 C 123,434 216,138 574,365 C 484,436 693,181 326,165 Z"></path>
<path stroke="#A5481C" stroke-width="5" fill="#215A26" opacity="0.0292744260925481" stroke-opacity="0.6011956818461535" transform="rotate(65.0 400 300)" d="M 101,452  C 554,254 171,126 151,179 C 171,466 177,184 453,364 C 636,432 355,179 448,397 C 422,338 406,412 159,367 C 325,229 543,287 607,186 Z"></path>
<path stroke="#3734C7" stroke-width="7" fill="#680075" opacity="0.4097915089830356" stroke-opacity="0.6975859673364402" transform="rotate(-90.0 400 300)" d="M 132,379  C 281,390 610,478 128,500 C 294,369 491,253 198,459 C 572,213 160,191 597,205 C 399,410 122,186 318,244 C 514,246 563,315 140,384 Z"></path>
<path stroke="#2567AD" stroke-width="3" fill="#8C6C38" opacity="0.009088674987335565" stroke-opacity="0.9311081454019003" transform="rotate(106.0 400 300)" d="M 286,416  C 232,352 128,258 209,485 C 552,474 570,422 498,219 C 255,127 587,332 622,368 C 247,244 234,262 565,460 C 339,374 339,312 350,329 C 239,267 521,369 338,489 C 499,122 509,288 185,401 Z"></path>
<path stroke="#A27709" stroke-width="6" fill="#2C3285" opacity="0.8498211725153588" stroke-opacity="0.09612697589115636" transform="rotate(-91.0 400 300)" d="M 654,428  C 409,113 272,363 365,464 C 450,144 682,120 391,172 C 286,103 262,412 652,420 C 486,137 690,129 582,275 C 600,148 114,319 274,290 C 535,142 211,330 447,486 Z"></path>
<path stroke="#41A99D" stroke-width="4" fill="#562C2B" opacity="0.5192271673986638" stroke-opacity="0.5436337072892196" transform="rotate(-17.0 400 300)" d="M 618,168  C 694,301 670,216 348,144 C 338,302 700,310 639,132 C 213,466 261,313 351,319 C 535,413 467,350 357,272 C 574,200 271,245 587,229 C 442,349 245,285 237,367 C 343,315 449,178 643,204 C 530,396 592,154 593,315 Z"></path>
<path stroke="#B61C44" stroke-width="4" fill="#969030" opacity="0.8850430436272747" stroke-opacity="0.05061670280158952" transform="rotate(-106.0 400 300)" d="M 215,153  C 385,196 478,435 429,317 C 618,135 339,494 234,302 C 508,101 254,468 334,136 C 375,195 602,453 305,173 C 145,495 268,264 295,481 C 238,185 242,366 514,408 C 446,431 597,182 243,485 Z"></path>
<path stroke="#9D33AD" stroke-width="5" fill="#622327" opacity="0.6990542182186699" stroke-opacity="0.42034734500992144" transform="rotate(-33.0 400 300)" d="M 330,194  C 187,284 131,242 464,383 C 109,264 353,326 378,206 C 368,290 633,286 173,404 C 159,397 456,353 362,337 C 617,185 210,155 500,170 C 533,209 466,234 308,209 C 360,478 329,166 603,394 C 407,455 606,445 527,391 C 591,315 556,475 467,331 Z"></path>
<path stroke="#CC8BCC" stroke-width="1" fill="#B6587A" opacity="0.6441752781387756" stroke-opacity="0.9556452042930705" transform="rotate(54.0 400 300)" d="M 241,121  C 356,351 522,213 653,117 C 389,349 549,287 633,296 C 650,221 523,342 339,411 C 515,355 353,410 546,483 C 510,489 700,302 212,317 Z"></path>
<path stroke="#6C638D" stroke-width="2" fill="#D2C96A" opacity="0.6730984851210858" stroke-opacity="0.0633658082258888" transform="rotate(-44.0 400 300)" d="M 107,169  C 307,264 645,323 405,321 C 541,160 288,459 456,278 C 480,116 282,412 515,173 C 675,410 479,239 443,230 Z"></path>
<path stroke="#284168" stroke-width="6" fill="#116A36" opacity="0.5113373547672959" stroke-opacity="0.8138699245872385" transform="rotate(149.0 400 300)" d="M 256,154  C 338,429 532,490 562,288 C 614,252 413,399 396,397 C 647,180 457,128 366,336 C 329,146 453,267 588,161 C 664,500 136,463 245,327 C 350,252 634,103 500,413 Z"></path>

  </g>
</svg>
