<svg xmlns="http://www.w3.org/2000/svg" xmlns:xlink="http://www.w3.org/1999/xlink" width="800" height="600" version="1.1" viewBox="0 0 800 600"><g fill="none" fill-rule="evenodd" stroke="none" stroke-width="1"><path fill="#CC64DA" stroke="#4B10D4" stroke-opacity=".492" stroke-width="1" d="M 108,403 C 409,281 190,299 168,372 C 376,416 191,247 444,231 C 160,169 184,446 334,482 C 384,260 331,222 649,474 C 576,336 284,283 129,120 C 161,434 616,211 625,250 C 315,455 246,155 401,144 C 224,192 656,307 411,328 C 239,424 218,104 561,145 C 171,157 247,480 650,224 Z" opacity=".816" transform="rotate(-18.0 400 300)"/><path fill="#2559C4" stroke="#680AA8" stroke-opacity=".298" stroke-width="5" d="M 610,477 C 183,306 319,171 426,299 C 603,349 524,251 379,417 C 430,306 563,202 476,267 C 352,433 240,173 356,466 C 204,358 168,152 295,381 C 107,133 172,495 107,151 C 307,379 548,302 163,215 C 471,430 389,104 480,412 Z" opacity=".444" transform="rotate(-59.0 400 300)"/><path fill="#D74B48" stroke="#C8D70C" stroke-opacity=".973" stroke-width="7" d="M 423,121 C 335,138 613,403 517,215 C 692,406 355,351 674,270 C 633,163 186,426 273,489 C 617,227 487,107 467,288 C 518,189 628,121 161,236 Z" opacity=".597" transform="rotate(84.0 400 300)"/><path fill="#754589" stroke="#8593D9" stroke-opacity=".332" stroke-width="4" d="M 346,182 C 150,120 175,219 585,253 C 575,170 101,181 479,163 C 615,488 533,226 192,183 C 231,349 599,429 687,248 C 583,492 564,439 242,185 C 314,184 664,142 285,458 C 190,211 173,428 139,272 C 139,372 553,245 268,309 C 540,303 292,287 404,115 C 299,409 296,109 228,443 Z" opacity=".527" transform="rotate(-42.0 400 300)"/><path fill="#00A8C8" stroke="#0C7C40" stroke-opacity=".712" stroke-width="2" d="M 223,249 C 288,398 454,152 228,486 C 647,436 437,403 125,345 C 270,338 573,391 354,176 C 662,174 141,210 607,279 C 682,467 202,332 337,375 C 376,340 469,163 678,133 C 596,347 198,185 102,222 C 482,430 335,250 679,232 C 374,398 516,263 661,171 C 447,211 389,313 672,430 Z" opacity=".836" transform="rotate(157.0 400 300)"/><path fill="#2AC9D1" stroke="#D9B253" stroke-opacity=".517" stroke-width="7" d="M 417,241 C 628,176 428,163 510,244 C 229,468 184,309 634,167 C 390,327 563,415 644,184 C 248,121 540,241 322,101 C 512,451 170,397 335,394 C 547,155 639,420 596,439 Z" opacity=".763" transform="rotate(76.0 400 300)"/><path fill="#200144" stroke="#711263" stroke-opacity=".406" stroke-width="7" d="M 454,488 C 440,360 297,347 120,104 C 558,429 601,186 321,327 C 534,328 530,249 495,275 C 221,172 435,393 118,396 Z" opacity=".723" transform="rotate(1.0 400 300)"/><path fill="#B31A0A" stroke="#402B51" stroke-opacity=".869" stroke-width="6" d="M 139,439 C 693,268 610,323 174,103 C 132,256 167,176 628,133 C 582,241 201,168 278,428 C 385,125 256,135 479,393 C 407,165 125,166 542,410 C 120,311 371,488 123,226 C 675,119 177,270 613,204 C 574,485 466,464 440,370 C 433,222 591,436 521,429 C 147,371 327,312 115,250 Z" opacity=".499" transform="rotate(-65.0 400 300)"/><path fill="#865664" stroke="#D65C0B" stroke-opacity=".016" stroke-width="7" d="M 694,359 C 663,427 163,126 497,225 C 160,197 116,198 428,228 C 256,430 668,370 659,352 C 585,393 422,373 468,211 C 206,173 662,304 356,267 C 325,247 676,382 672,315 C 198,300 659,270 203,243 C 429,337 445,195 230,168 C 630,241 670,392 378,104 Z" opacity=".463" transform="rotate(-2.0 400 300)"/><path fill="#85BC22" stroke="#68B70B" stroke-opacity=".816" stroke-width="2" d="M 156,211 C 588,110 152,428 383,148 C 585,234 477,471 287,201 C 399,187 178,211 447,358 C 437,194 140,360 638,101 C 331,180 423,463 229,295 C 428,261 685,470 570,120 C 589,238 244,390 135,450 C 361,168 441,213 581,151 C 632,330 340,391 548,166 C 664,344 371,223 438,170 C 679,258 418,135 445,187 Z" opacity=".189" transform="rotate(107.0 400 300)"/><path fill="#687A73" stroke="#D51739" stroke-opacity=".493" stroke-width="2" d="M 685,351 C 243,463 310,396 603,378 C 564,327 650,295 131,403 C 490,351 527,183 466,286 C 529,240 621,437 277,203 C 122,494 524,440 520,317 C 455,277 480,162 465,198 C 436,210 667,312 536,483 C 235,298 377,219 293,430 C 333,289 266,434 620,196 C 679,278 359,257 411,105 C 448,379 464,238 432,329 Z" opacity=".599" transform="rotate(-26.0 400 300)"/></g></svg>