<?xml version="1.0" encoding="UTF-8"?>
<svg width="800px" height="600px" viewBox="0 0 800 600" version="1.1" xmlns="http://www.w3.org/2000/svg" xmlns:xlink="http://www.w3.org/1999/xlink">
  <defs></defs>
  <g stroke="none" stroke-width="1" fill="none" fill-rule="evenodd">
    
    <ellipse stroke="#DAA0D3" stroke-width="1" fill="#9A60C9" opacity="0.17291083888393327" stroke-opacity="0.6866829001608646" transform="rotate(179.0 400 300)" cx="336" rx="332" cy="222" ry="324"></ellipse>
<rect stroke="#62B334" stroke-width="5" fill="#A91396" opacity="0.6448849236912655" stroke-opacity="0.4625457324038865" transform="rotate(1.0 400 300)" x="63" y="124" width="231" height="30"></rect>
<rect stroke="#247081" stroke-width="5" fill="#4AB65C" opacity="0.4951021661633733" stroke-opacity="0.5784351002295028" transform="rotate(145.0 400 300)" x="558" y="428" width="75" height="377"></rect>
<rect stroke="#34249D" stroke-width="5" fill="#018541" opacity="0.7624001804878173" stroke-opacity="0.30207427466658954" transform="rotate(-115.0 400 300)" x="187" y="320" width="279" height="53"></rect>
<polygon stroke="#0A1A65" stroke-width="2" fill="#324CDA" opacity="0.7806216309413425" stroke-opacity="0.2487910397070976" transform="rotate(-44.0 400 300)" points="364 396 318 317 326 521 182 171 586 291 "></polygon>
<path stroke="#A545A1" stroke-width="6" fill="#655A0C" opacity="0.17651049042327477" stroke-opacity="0.5860296457267097" transform="rotate(101.0 400 300)" d="M 683,171  C 184,299 686,150 332,191 C 289,462 119,317 339,372 C 684,498 194,489 533,464 C 320,463 481,127 527,441 C 573,270 366,279 159,456 C 497,324 528,449 524,230 C 349,332 224,203 598,401 C 247,321 619,247 510,489 Z"></path>
<polygon stroke="#53B80B" stroke-width="4" fill="#3D2688" opacity="0.9973635404984954" stroke-opacity="0.5456966959545676" transform="rotate(-86.0 400 300)" points="457 137 377 173 505 510 431 568 288 28 413 399 "></polygon>
<path stroke="#A90BD2" stroke-width="4" fill="#77D99C" opacity="0.41502892910308775" stroke-opacity="0.4540520251837387" transform="rotate(44.0 400 300)" d="M 169,406  C 489,314 675,401 507,400 C 629,160 158,277 170,168 C 273,155 327,311 158,274 C 234,105 150,356 506,488 Z"></path>
<polygon stroke="#51B949" stroke-width="5" fill="#015A61" opacity="0.17687585891693663" stroke-opacity="0.7752056791012932" transform="rotate(77.0 400 300)" points="764 325 476 10 304 285 766 33 354 42 36 108 17 426 "></polygon>
<path stroke="#3818D1" stroke-width="4" fill="#D84270" opacity="0.1265526009247597" stroke-opacity="0.352022836417824" transform="rotate(148.0 400 300)" d="M 580,327  C 680,348 318,112 137,179 C 209,471 591,299 351,193 C 572,461 339,500 368,259 C 256,157 418,482 231,200 C 621,458 513,309 331,195 Z"></path>
<ellipse stroke="#328011" stroke-width="4" fill="#19A513" opacity="0.9571971185477669" stroke-opacity="0.357103170956652" transform="rotate(5.0 400 300)" cx="729" rx="337" cy="286" ry="145"></ellipse>

  </g>
</svg>
