<svg xmlns="http://www.w3.org/2000/svg" xmlns:xlink="http://www.w3.org/1999/xlink" width="800" height="600" version="1.1" viewBox="0 0 800 600"><g fill="none" fill-rule="evenodd" stroke="none" stroke-width="1"><ellipse cx="336" cy="222" fill="#9A60C9" stroke="#DAA0D3" stroke-opacity=".687" stroke-width="1" opacity=".173" rx="332" ry="324" transform="rotate(179.0 400 300)"/><rect width="231" height="30" x="63" y="124" fill="#A91396" stroke="#62B334" stroke-opacity=".463" stroke-width="5" opacity=".645" transform="rotate(1.0 400 300)"/><rect width="75" height="377" x="558" y="428" fill="#4AB65C" stroke="#247081" stroke-opacity=".578" stroke-width="5" opacity=".495" transform="rotate(145.0 400 300)"/><rect width="279" height="53" x="187" y="320" fill="#018541" stroke="#34249D" stroke-opacity=".302" stroke-width="5" opacity=".762" transform="rotate(-115.0 400 300)"/><polygon fill="#324CDA" stroke="#0A1A65" stroke-opacity=".249" stroke-width="2" points="364 396 318 317 326 521 182 171 586 291" opacity=".781" transform="rotate(-44.0 400 300)"/><path fill="#655A0C" stroke="#A545A1" stroke-opacity=".586" stroke-width="6" d="M 683,171 C 184,299 686,150 332,191 C 289,462 119,317 339,372 C 684,498 194,489 533,464 C 320,463 481,127 527,441 C 573,270 366,279 159,456 C 497,324 528,449 524,230 C 349,332 224,203 598,401 C 247,321 619,247 510,489 Z" opacity=".177" transform="rotate(101.0 400 300)"/><polygon fill="#3D2688" stroke="#53B80B" stroke-opacity=".546" stroke-width="4" points="457 137 377 173 505 510 431 568 288 28 413 399" opacity=".997" transform="rotate(-86.0 400 300)"/><path fill="#77D99C" stroke="#A90BD2" stroke-opacity=".454" stroke-width="4" d="M 169,406 C 489,314 675,401 507,400 C 629,160 158,277 170,168 C 273,155 327,311 158,274 C 234,105 150,356 506,488 Z" opacity=".415" transform="rotate(44.0 400 300)"/><polygon fill="#015A61" stroke="#51B949" stroke-opacity=".775" stroke-width="5" points="764 325 476 10 304 285 766 33 354 42 36 108 17 426" opacity=".177" transform="rotate(77.0 400 300)"/><path fill="#D84270" stroke="#3818D1" stroke-opacity=".352" stroke-width="4" d="M 580,327 C 680,348 318,112 137,179 C 209,471 591,299 351,193 C 572,461 339,500 368,259 C 256,157 418,482 231,200 C 621,458 513,309 331,195 Z" opacity=".127" transform="rotate(148.0 400 300)"/><ellipse cx="729" cy="286" fill="#19A513" stroke="#328011" stroke-opacity=".357" stroke-width="4" opacity=".957" rx="337" ry="145" transform="rotate(5.0 400 300)"/></g></svg>