<svg xmlns="http://www.w3.org/2000/svg" xmlns:xlink="http://www.w3.org/1999/xlink" width="800" height="600" version="1.1" viewBox="0 0 800 600"><g fill="none" fill-rule="evenodd" stroke="none" stroke-width="1"><ellipse cx="130" cy="182" fill="#ed2b2c" stroke="#2b55f7" stroke-opacity=".149" stroke-width="2" opacity=".215" rx="218" ry="146" transform="rotate(30.0 400 300)"/><path fill="#ed2b2c" stroke="#31a06b" stroke-opacity=".628" stroke-width="2" d="M 221,251 C 411,402 302,387 593,403 C 306,238 423,404 258,442 C 603,373 699,331 127,421 C 344,192 350,384 644,487 C 276,318 360,339 684,339 C 317,305 677,488 340,139 C 195,221 284,254 294,466 C 528,126 414,329 362,435 C 606,107 696,159 502,361 C 556,341 153,269 618,438 Z" opacity=".966" transform="rotate(-140.0 400 300)"/><rect width="314" height="166" x="41" y="534" fill="#31a06b" stroke="#31a06b" stroke-opacity=".703" stroke-width="1" opacity=".966" transform="rotate(-18.0 400 300)"/><rect width="305" height="109" x="110" y="181" fill="#2b55f7" stroke="#f9d84b" stroke-opacity=".599" stroke-width="1" opacity=".91" transform="rotate(179.0 400 300)"/><path fill="#31a06b" stroke="#f27630" stroke-opacity=".776" stroke-width="3" d="M 456,105 C 225,376 424,378 664,180 C 291,237 568,169 243,372 C 282,254 542,187 308,134 C 356,370 126,439 512,258 C 487,487 248,368 196,476 C 454,469 660,176 142,210 C 690,324 379,298 667,445 C 414,430 288,112 663,178 C 467,301 612,212 623,412 Z" opacity=".962" transform="rotate(26.0 400 300)"/><polygon fill="#f9d84b" stroke="#ed2b2c" stroke-opacity=".24" stroke-width="2" points="269 129 87 388 614 532 517 508 374 528" opacity=".433" transform="rotate(117.0 400 300)"/><path fill="#f27630" stroke="#f9d84b" stroke-opacity=".32" stroke-width="5" d="M 436,253 C 286,436 215,227 227,270 C 399,285 163,418 627,271 C 437,354 333,182 467,186 C 169,159 567,445 243,490 Z" opacity=".975" transform="rotate(-21.0 400 300)"/></g></svg>