<svg xmlns="http://www.w3.org/2000/svg" xmlns:xlink="http://www.w3.org/1999/xlink" width="800" height="600" version="1.1" viewBox="0 0 800 600"><g fill="none" fill-rule="evenodd" stroke="none" stroke-width="1"><path fill="#0fa6d8" stroke="#02eb6b" stroke-opacity=".258" stroke-width="5" d="M 313,334 C 102,489 654,375 341,345 C 135,197 444,317 533,316 C 208,218 298,301 404,492 C 429,425 260,428 443,125 C 520,327 612,236 487,410 C 530,222 574,250 385,211 C 456,445 200,190 508,265 C 626,194 137,292 427,136 C 539,236 109,182 422,348 C 519,389 316,481 633,209 Z" opacity=".01" transform="rotate(53.0 400 300)"/><path fill="#f559a0" stroke="#fe9225" stroke-opacity=".322" stroke-width="4" d="M 418,417 C 617,258 468,197 516,436 C 541,465 153,437 492,229 C 262,143 609,221 102,157 C 215,435 631,496 374,265 Z" opacity=".225" transform="rotate(148.0 400 300)"/><path fill="#0fa6d8" stroke="#f559a0" stroke-opacity=".962" stroke-width="2" d="M 290,335 C 301,302 423,229 117,490 C 385,484 106,208 679,183 C 669,217 230,208 694,130 C 686,187 609,421 547,322 C 660,137 137,409 301,342 C 116,256 699,385 142,194 C 126,138 501,305 647,117 C 394,282 250,111 133,126 C 290,325 334,236 120,178 Z" opacity=".344" transform="rotate(-160.0 400 300)"/><path fill="#02eb6b" stroke="#2cd3f3" stroke-opacity=".987" stroke-width="6" d="M 420,338 C 393,274 286,184 109,152 C 548,310 509,141 271,157 C 570,452 110,256 143,215 C 645,239 435,179 646,435 C 481,211 320,386 353,430 C 150,283 249,269 353,186 C 355,411 600,175 467,203 C 428,499 565,488 305,245 C 269,210 152,249 660,297 Z" opacity=".031" transform="rotate(29.0 400 300)"/><path fill="#2cd3f3" stroke="#f559a0" stroke-opacity=".122" stroke-width="4" d="M 311,416 C 138,300 643,172 508,493 C 246,191 608,242 484,228 C 138,312 120,240 174,494 C 211,337 628,254 261,352 C 128,224 129,311 414,154 C 505,187 104,390 475,454 C 373,398 215,439 336,202 C 575,291 263,132 594,377 C 565,263 143,376 620,135 C 694,394 417,485 410,268 C 260,284 473,245 269,444 Z" opacity=".713" transform="rotate(145.0 400 300)"/><path fill="#fe9225" stroke="#02eb6b" stroke-opacity=".043" stroke-width="2" d="M 489,116 C 259,148 542,259 299,411 C 188,148 361,141 354,206 C 219,301 245,420 510,158 C 101,264 556,364 370,151 C 524,112 587,168 285,267 C 351,460 139,351 242,473 C 303,417 672,412 491,180 C 204,311 190,155 106,499 C 654,103 283,118 680,120 Z" opacity=".643" transform="rotate(-70.0 400 300)"/><path fill="#fe9225" stroke="#2cd3f3" stroke-opacity=".768" stroke-width="6" d="M 408,379 C 543,113 655,313 479,176 C 473,422 248,315 607,419 C 437,462 450,200 287,170 C 270,229 624,235 395,262 C 470,475 373,267 523,349 C 457,114 351,256 139,329 C 224,210 302,256 544,108 Z" opacity=".929" transform="rotate(-16.0 400 300)"/><path fill="#02eb6b" stroke="#2cd3f3" stroke-opacity=".598" stroke-width="1" d="M 587,471 C 662,225 636,135 137,337 C 614,316 410,404 198,237 C 637,414 595,448 606,177 C 142,339 652,106 177,191 C 253,301 621,334 156,149 C 252,491 328,457 463,449 C 676,468 589,410 395,249 C 525,423 242,110 302,453 C 349,222 675,159 370,460 C 322,153 644,141 262,113 Z" opacity=".165" transform="rotate(33.0 400 300)"/><path fill="#f559a0" stroke="#2cd3f3" stroke-opacity=".974" stroke-width="7" d="M 383,399 C 497,324 377,281 690,134 C 187,164 277,422 341,209 C 427,310 367,244 566,234 C 195,310 184,423 193,484 C 441,176 349,167 251,290 Z" opacity=".003" transform="rotate(-160.0 400 300)"/><path fill="#fe9225" stroke="#fe9225" stroke-opacity=".557" stroke-width="3" d="M 238,192 C 345,297 416,486 328,237 C 549,334 679,287 287,383 C 119,222 399,373 185,448 C 114,361 169,344 279,380 Z" opacity=".046" transform="rotate(-173.0 400 300)"/><path fill="#fe9225" stroke="#0fa6d8" stroke-opacity=".476" stroke-width="2" d="M 535,272 C 362,106 585,276 328,324 C 656,122 370,469 205,241 C 383,372 282,381 441,266 C 373,454 104,475 421,329 Z" opacity=".062" transform="rotate(116.0 400 300)"/></g></svg>