<svg xmlns="http://www.w3.org/2000/svg" xmlns:xlink="http://www.w3.org/1999/xlink" width="800" height="600" version="1.1" viewBox="0 0 800 600"><g fill="none" fill-rule="evenodd" stroke="none" stroke-width="1"><ellipse cx="705" cy="347" fill="#ed2b2c" stroke="#f27630" stroke-opacity=".91" stroke-width="2" opacity=".012" rx="202" ry="148" transform="rotate(-54.0 400 300)"/><rect width="245" height="293" x="778" y="351" fill="#2b55f7" stroke="#f27630" stroke-opacity=".169" stroke-width="7" opacity=".072" transform="rotate(91.0 400 300)"/><rect width="397" height="357" x="698" y="469" fill="#ed2b2c" stroke="#f9d84b" stroke-opacity=".883" stroke-width="5" opacity=".014" transform="rotate(-97.0 400 300)"/><path fill="#f9d84b" stroke="#f27630" stroke-opacity=".454" stroke-width="7" d="M 348,261 C 353,450 108,460 156,114 C 681,422 318,157 670,295 C 490,355 666,128 152,201 C 232,162 176,278 492,327 C 698,394 387,229 358,123 C 273,152 235,140 594,240 Z" opacity=".628" transform="rotate(-23.0 400 300)"/><polygon fill="#f9d84b" stroke="#f9d84b" stroke-opacity=".711" stroke-width="6" points="45 263 532 271 591 422 649 466 577 466" opacity=".229" transform="rotate(-169.0 400 300)"/><ellipse cx="354" cy="348" fill="#f9d84b" stroke="#f9d84b" stroke-opacity=".602" stroke-width="7" opacity=".101" rx="443" ry="124" transform="rotate(136.0 400 300)"/></g></svg>