<?xml version="1.0" encoding="UTF-8"?>
<svg width="800px" height="600px" viewBox="0 0 800 600" version="1.1" xmlns="http://www.w3.org/2000/svg" xmlns:xlink="http://www.w3.org/1999/xlink">
  <defs></defs>
  <g stroke="none" stroke-width="1" fill="none" fill-rule="evenodd">
    
    <ellipse stroke="#0fa6d8" stroke-width="3" fill="#fe9225" opacity="0.6017489107153561" stroke-opacity="0.6493507085235305" transform="rotate(104.0 400 300)" cx="117" rx="208" cy="144" ry="224"></ellipse>
<rect stroke="#fe9225" stroke-width="2" fill="#0fa6d8" opacity="0.4938057580855337" stroke-opacity="0.13482409503795517" transform="rotate(-146.0 400 300)" x="348" y="592" width="253" height="245"></rect>
<polygon stroke="#2cd3f3" stroke-width="4" fill="#fe9225" opacity="0.9625164118649336" stroke-opacity="0.260984015947783" transform="rotate(13.0 400 300)" points="315 21 467 155 476 469 226 468 11 365 237 72 "></polygon>
<rect stroke="#f559a0" stroke-width="5" fill="#02eb6b" opacity="0.66653894164661" stroke-opacity="0.37951071584192064" transform="rotate(-110.0 400 300)" x="351" y="345" width="198" height="318"></rect>
<ellipse stroke="#0fa6d8" stroke-width="2" fill="#fe9225" opacity="0.6237729024669174" stroke-opacity="0.7642399635548734" transform="rotate(84.0 400 300)" cx="514" rx="270" cy="446" ry="62"></ellipse>
<polygon stroke="#fe9225" stroke-width="7" fill="#fe9225" opacity="0.39483507107656735" stroke-opacity="0.832678045688184" transform="rotate(159.0 400 300)" points="193 349 236 115 147 401 668 131 211 120 725 296 626 152 314 510 "></polygon>
<rect stroke="#02eb6b" stroke-width="3" fill="#02eb6b" opacity="0.9081120473464375" stroke-opacity="0.30345068572759915" transform="rotate(-174.0 400 300)" x="784" y="288" width="372" height="228"></rect>

  </g>
</svg>
