<svg xmlns="http://www.w3.org/2000/svg" xmlns:xlink="http://www.w3.org/1999/xlink" width="800" height="600" version="1.1" viewBox="0 0 800 600"><g fill="none" fill-rule="evenodd" stroke="none" stroke-width="1"><ellipse cx="117" cy="144" fill="#fe9225" stroke="#0fa6d8" stroke-opacity=".649" stroke-width="3" opacity=".602" rx="208" ry="224" transform="rotate(104.0 400 300)"/><rect width="253" height="245" x="348" y="592" fill="#0fa6d8" stroke="#fe9225" stroke-opacity=".135" stroke-width="2" opacity=".494" transform="rotate(-146.0 400 300)"/><polygon fill="#fe9225" stroke="#2cd3f3" stroke-opacity=".261" stroke-width="4" points="315 21 467 155 476 469 226 468 11 365 237 72" opacity=".963" transform="rotate(13.0 400 300)"/><rect width="198" height="318" x="351" y="345" fill="#02eb6b" stroke="#f559a0" stroke-opacity=".38" stroke-width="5" opacity=".667" transform="rotate(-110.0 400 300)"/><ellipse cx="514" cy="446" fill="#fe9225" stroke="#0fa6d8" stroke-opacity=".764" stroke-width="2" opacity=".624" rx="270" ry="62" transform="rotate(84.0 400 300)"/><polygon fill="#fe9225" stroke="#fe9225" stroke-opacity=".833" stroke-width="7" points="193 349 236 115 147 401 668 131 211 120 725 296 626 152 314 510" opacity=".395" transform="rotate(159.0 400 300)"/><rect width="372" height="228" x="784" y="288" fill="#02eb6b" stroke="#02eb6b" stroke-opacity=".303" stroke-width="3" opacity=".908" transform="rotate(-174.0 400 300)"/></g></svg>