<svg xmlns="http://www.w3.org/2000/svg" xmlns:xlink="http://www.w3.org/1999/xlink" width="800" height="600" version="1.1" viewBox="0 0 800 600"><g fill="none" fill-rule="evenodd" stroke="none" stroke-width="1"><path fill="#30D405" stroke="#C624A1" stroke-opacity=".995" stroke-width="4" d="M 242,217 C 653,259 596,115 557,224 C 538,443 119,381 255,168 C 391,185 577,165 294,324 C 386,415 162,209 232,305 Z" opacity=".167" transform="rotate(-103.0 400 300)"/><path fill="#21C285" stroke="#3D7D7A" stroke-opacity=".643" stroke-width="1" d="M 666,164 C 252,484 175,374 306,103 C 632,392 693,468 162,105 C 575,126 636,152 562,240 C 116,270 222,354 234,106 C 446,493 601,232 223,184 C 666,493 480,335 259,232 C 367,140 206,364 537,449 C 666,283 625,306 458,201 C 263,371 224,101 569,411 C 326,198 246,115 586,427 C 429,186 315,338 475,173 Z" opacity=".347" transform="rotate(24.0 400 300)"/><path fill="#1A532B" stroke="#5D34D6" stroke-opacity=".814" stroke-width="5" d="M 126,169 C 339,154 364,360 663,441 C 514,340 546,152 120,266 C 680,127 553,308 171,462 C 670,124 294,114 654,377 C 441,196 537,319 655,332 C 601,489 603,496 199,231 C 445,345 458,397 358,157 Z" opacity=".273" transform="rotate(41.0 400 300)"/><path fill="#5837D9" stroke="#380CC1" stroke-opacity=".858" stroke-width="1" d="M 349,491 C 420,388 613,286 370,389 C 637,436 117,134 141,208 C 381,313 573,336 591,426 C 274,410 106,467 261,211 C 167,274 517,336 203,489 C 138,293 455,424 658,409 C 190,198 691,396 632,257 C 359,292 318,421 447,121 Z" opacity=".972" transform="rotate(-10.0 400 300)"/><path fill="#0CD6A6" stroke="#BB291B" stroke-opacity=".785" stroke-width="6" d="M 316,325 C 356,474 695,307 325,346 C 660,426 373,140 224,499 C 147,330 201,337 369,124 C 649,261 232,297 543,277 C 664,453 345,189 122,450 C 489,450 252,428 692,444 C 413,331 332,158 619,312 C 532,482 364,271 253,361 C 685,326 579,209 418,108 C 152,123 416,184 447,238 C 294,392 177,352 363,409 Z" opacity=".77" transform="rotate(17.0 400 300)"/><path fill="#C18301" stroke="#9B64B3" stroke-opacity=".522" stroke-width="4" d="M 543,173 C 154,233 360,248 471,325 C 659,231 219,388 412,187 C 579,240 318,193 356,400 C 507,369 480,426 280,471 C 268,377 476,283 254,277 C 418,147 472,281 267,350 C 459,356 632,331 594,112 C 110,332 233,113 349,276 Z" opacity=".482" transform="rotate(0.0 400 300)"/><path fill="#7C0242" stroke="#7088B4" stroke-opacity=".852" stroke-width="1" d="M 590,405 C 317,300 284,187 619,369 C 408,285 645,457 273,376 C 669,149 357,492 171,194 C 182,337 260,315 469,309 C 149,267 235,411 400,172 C 438,239 478,254 661,262 C 401,286 505,176 211,456 C 312,183 207,204 137,339 C 129,461 112,329 555,332 C 510,276 218,314 332,442 Z" opacity=".593" transform="rotate(3.0 400 300)"/><path fill="#0CC859" stroke="#280411" stroke-opacity=".73" stroke-width="1" d="M 695,305 C 494,105 666,264 367,120 C 350,436 335,481 681,285 C 303,355 385,148 640,131 C 187,406 233,262 206,118 C 659,209 673,115 395,209 Z" opacity=".472" transform="rotate(129.0 400 300)"/><path fill="#77C94A" stroke="#CC3C90" stroke-opacity=".659" stroke-width="5" d="M 131,452 C 339,497 162,277 156,285 C 208,298 252,368 650,189 C 485,151 244,431 624,463 C 502,374 155,295 270,348 C 274,383 544,437 426,349 C 324,214 654,436 300,176 Z" opacity=".344" transform="rotate(4.0 400 300)"/></g></svg>