<?xml version="1.0" encoding="UTF-8"?>
<svg width="800px" height="600px" viewBox="0 0 800 600" version="1.1" xmlns="http://www.w3.org/2000/svg" xmlns:xlink="http://www.w3.org/1999/xlink">
  <defs></defs>
  <g stroke="none" stroke-width="1" fill="none" fill-rule="evenodd">
    
    <rect stroke="#C381D1" stroke-width="5" fill="#4D67D2" opacity="0.15584796652788385" stroke-opacity="0.9897098438561301" transform="rotate(14.0 400 300)" x="61" y="528" width="279" height="191"></rect>
<rect stroke="#D204D8" stroke-width="6" fill="#88C643" opacity="0.4660802684216922" stroke-opacity="0.14657061244689976" transform="rotate(-69.0 400 300)" x="66" y="501" width="172" height="255"></rect>
<path stroke="#C35AB5" stroke-width="7" fill="#5BA4A5" opacity="0.174074861556462" stroke-opacity="0.11979814678935045" transform="rotate(34.0 400 300)" d="M 636,149  C 302,102 235,388 298,488 C 271,376 277,191 416,317 C 134,251 394,257 442,243 C 172,112 108,385 219,378 C 304,423 184,439 551,400 C 602,341 632,396 210,468 Z"></path>
<ellipse stroke="#A41033" stroke-width="2" fill="#3268AB" opacity="0.7670296654776884" stroke-opacity="0.918122289462816" transform="rotate(55.0 400 300)" cx="239" rx="41" cy="487" ry="321"></ellipse>
<rect stroke="#8B0C82" stroke-width="7" fill="#5432BA" opacity="0.10577740958177095" stroke-opacity="0.6885895765159499" transform="rotate(-109.0 400 300)" x="517" y="224" width="139" height="221"></rect>
<rect stroke="#864291" stroke-width="6" fill="#753409" opacity="0.12743254058611392" stroke-opacity="0.1411162155663339" transform="rotate(-104.0 400 300)" x="493" y="600" width="103" height="237"></rect>
<ellipse stroke="#814548" stroke-width="3" fill="#475D69" opacity="0.05122634179585997" stroke-opacity="0.657975285388409" transform="rotate(102.0 400 300)" cx="245" rx="292" cy="97" ry="136"></ellipse>
<ellipse stroke="#38BBB1" stroke-width="4" fill="#B71C5D" opacity="0.5127065635746474" stroke-opacity="0.4402640958955095" transform="rotate(-10.0 400 300)" cx="682" rx="382" cy="196" ry="101"></ellipse>
<polygon stroke="#A30393" stroke-width="6" fill="#0098AA" opacity="0.05105698793429985" stroke-opacity="0.6427147587598666" transform="rotate(2.0 400 300)" points="301 179 307 29 10 107 682 139 295 457 15 348 "></polygon>
<rect stroke="#B82D39" stroke-width="6" fill="#151983" opacity="0.8160148101990815" stroke-opacity="0.49780851406362" transform="rotate(-123.0 400 300)" x="342" y="403" width="63" height="165"></rect>
<rect stroke="#6C5530" stroke-width="7" fill="#01A485" opacity="0.14026557511935062" stroke-opacity="0.9798554337906658" transform="rotate(-19.0 400 300)" x="75" y="152" width="378" height="144"></rect>

  </g>
</svg>
