<svg xmlns="http://www.w3.org/2000/svg" xmlns:xlink="http://www.w3.org/1999/xlink" width="800" height="600" version="1.1" viewBox="0 0 800 600"><g fill="none" fill-rule="evenodd" stroke="none" stroke-width="1"><rect width="279" height="191" x="61" y="528" fill="#4D67D2" stroke="#C381D1" stroke-opacity=".99" stroke-width="5" opacity=".156" transform="rotate(14.0 400 300)"/><rect width="172" height="255" x="66" y="501" fill="#88C643" stroke="#D204D8" stroke-opacity=".147" stroke-width="6" opacity=".466" transform="rotate(-69.0 400 300)"/><path fill="#5BA4A5" stroke="#C35AB5" stroke-opacity=".12" stroke-width="7" d="M 636,149 C 302,102 235,388 298,488 C 271,376 277,191 416,317 C 134,251 394,257 442,243 C 172,112 108,385 219,378 C 304,423 184,439 551,400 C 602,341 632,396 210,468 Z" opacity=".174" transform="rotate(34.0 400 300)"/><ellipse cx="239" cy="487" fill="#3268AB" stroke="#A41033" stroke-opacity=".918" stroke-width="2" opacity=".767" rx="41" ry="321" transform="rotate(55.0 400 300)"/><rect width="139" height="221" x="517" y="224" fill="#5432BA" stroke="#8B0C82" stroke-opacity=".689" stroke-width="7" opacity=".106" transform="rotate(-109.0 400 300)"/><rect width="103" height="237" x="493" y="600" fill="#753409" stroke="#864291" stroke-opacity=".141" stroke-width="6" opacity=".127" transform="rotate(-104.0 400 300)"/><ellipse cx="245" cy="97" fill="#475D69" stroke="#814548" stroke-opacity=".658" stroke-width="3" opacity=".051" rx="292" ry="136" transform="rotate(102.0 400 300)"/><ellipse cx="682" cy="196" fill="#B71C5D" stroke="#38BBB1" stroke-opacity=".44" stroke-width="4" opacity=".513" rx="382" ry="101" transform="rotate(-10.0 400 300)"/><polygon fill="#0098AA" stroke="#A30393" stroke-opacity=".643" stroke-width="6" points="301 179 307 29 10 107 682 139 295 457 15 348" opacity=".051" transform="rotate(2.0 400 300)"/><rect width="63" height="165" x="342" y="403" fill="#151983" stroke="#B82D39" stroke-opacity=".498" stroke-width="6" opacity=".816" transform="rotate(-123.0 400 300)"/><rect width="378" height="144" x="75" y="152" fill="#01A485" stroke="#6C5530" stroke-opacity=".98" stroke-width="7" opacity=".14" transform="rotate(-19.0 400 300)"/></g></svg>