<svg xmlns="http://www.w3.org/2000/svg" xmlns:xlink="http://www.w3.org/1999/xlink" width="800" height="600" version="1.1" viewBox="0 0 800 600"><g fill="none" fill-rule="evenodd" stroke="none" stroke-width="1"><polygon fill="#31a06b" stroke="#2b55f7" stroke-opacity=".502" stroke-width="2" points="141 548 217 242 119 335 255 27 413 94 400 267 800 335 112 514" opacity=".474" transform="rotate(-44.0 400 300)"/><path fill="#31a06b" stroke="#f9d84b" stroke-opacity=".885" stroke-width="3" d="M 269,311 C 285,163 154,281 622,494 C 405,367 647,484 599,411 C 371,147 385,142 640,353 C 505,338 120,105 629,141 C 579,305 483,327 361,147 C 386,329 391,422 265,126 Z" opacity=".049" transform="rotate(-27.0 400 300)"/><ellipse cx="373" cy="479" fill="#ed2b2c" stroke="#31a06b" stroke-opacity=".66" stroke-width="1" opacity=".461" rx="39" ry="144" transform="rotate(-121.0 400 300)"/><polygon fill="#f27630" stroke="#2b55f7" stroke-opacity=".783" stroke-width="5" points="6 121 10 441 512 230 539 369 764 487 603 277 490 299" opacity=".529" transform="rotate(143.0 400 300)"/><polygon fill="#f27630" stroke="#f9d84b" stroke-opacity=".921" stroke-width="7" points="480 230 182 350 223 337 632 186 680 116 224 306 397 479" opacity=".913" transform="rotate(147.0 400 300)"/><polygon fill="#f9d84b" stroke="#f9d84b" stroke-opacity=".855" stroke-width="5" points="680 10 304 541 40 39 321 79 558 428 448 94 594 462 561 13" opacity=".663" transform="rotate(177.0 400 300)"/><path fill="#f9d84b" stroke="#f9d84b" stroke-opacity=".145" stroke-width="7" d="M 659,352 C 237,281 315,496 525,466 C 493,458 532,276 433,276 C 269,347 414,217 377,184 C 693,382 416,110 380,137 C 632,311 450,114 526,224 C 449,125 400,127 387,489 C 476,177 320,294 410,438 Z" opacity=".727" transform="rotate(70.0 400 300)"/></g></svg>