<?xml version="1.0" encoding="UTF-8"?>
<svg width="800px" height="600px" viewBox="0 0 800 600" version="1.1" xmlns="http://www.w3.org/2000/svg" xmlns:xlink="http://www.w3.org/1999/xlink">
  <defs></defs>
  <g stroke="none" stroke-width="1" fill="none" fill-rule="evenodd">
    
    <polygon stroke="#2b55f7" stroke-width="2" fill="#31a06b" opacity="0.4738484783094433" stroke-opacity="0.5017634885500175" transform="rotate(-44.0 400 300)" points="141 548 217 242 119 335 255 27 413 94 400 267 800 335 112 514 "></polygon>
<path stroke="#f9d84b" stroke-width="3" fill="#31a06b" opacity="0.049427582904722135" stroke-opacity="0.8849018284923634" transform="rotate(-27.0 400 300)" d="M 269,311  C 285,163 154,281 622,494 C 405,367 647,484 599,411 C 371,147 385,142 640,353 C 505,338 120,105 629,141 C 579,305 483,327 361,147 C 386,329 391,422 265,126 Z"></path>
<ellipse stroke="#31a06b" stroke-width="1" fill="#ed2b2c" opacity="0.4611195555499875" stroke-opacity="0.6595120088921803" transform="rotate(-121.0 400 300)" cx="373" rx="39" cy="479" ry="144"></ellipse>
<polygon stroke="#2b55f7" stroke-width="5" fill="#f27630" opacity="0.5290030727658328" stroke-opacity="0.7832850640943653" transform="rotate(143.0 400 300)" points="6 121 10 441 512 230 539 369 764 487 603 277 490 299 "></polygon>
<polygon stroke="#f9d84b" stroke-width="7" fill="#f27630" opacity="0.9130486745558667" stroke-opacity="0.9205631467726882" transform="rotate(147.0 400 300)" points="480 230 182 350 223 337 632 186 680 116 224 306 397 479 "></polygon>
<polygon stroke="#f9d84b" stroke-width="5" fill="#f9d84b" opacity="0.6631445346454935" stroke-opacity="0.855085177276743" transform="rotate(177.0 400 300)" points="680 10 304 541 40 39 321 79 558 428 448 94 594 462 561 13 "></polygon>
<path stroke="#f9d84b" stroke-width="7" fill="#f9d84b" opacity="0.727322121253241" stroke-opacity="0.1446133504387719" transform="rotate(70.0 400 300)" d="M 659,352  C 237,281 315,496 525,466 C 493,458 532,276 433,276 C 269,347 414,217 377,184 C 693,382 416,110 380,137 C 632,311 450,114 526,224 C 449,125 400,127 387,489 C 476,177 320,294 410,438 Z"></path>

  </g>
</svg>
