<?xml version="1.0" encoding="UTF-8"?>
<svg width="800px" height="600px" viewBox="0 0 800 600" version="1.1" xmlns="http://www.w3.org/2000/svg" xmlns:xlink="http://www.w3.org/1999/xlink">
  <defs></defs>
  <g stroke="none" stroke-width="1" fill="none" fill-rule="evenodd">
    
    <path stroke="#1221A7" stroke-width="6" fill="#8973B6" opacity="0.59093364358152" stroke-opacity="0.2343418768796466" transform="rotate(163.0 400 300)" d="M 698,232  C 429,351 153,429 506,476 C 652,171 387,409 663,198 C 535,274 642,156 279,182 C 323,199 517,404 544,421 C 358,323 432,456 154,172 C 679,273 320,380 207,317 Z"></path>
<path stroke="#9624A7" stroke-width="6" fill="#0C5C7A" opacity="0.27720294745591156" stroke-opacity="0.9547860417064608" transform="rotate(-85.0 400 300)" d="M 620,207  C 486,104 635,478 101,393 C 487,297 563,328 373,142 C 570,152 253,288 245,157 C 615,470 143,130 408,429 C 461,492 104,343 575,480 C 310,487 284,119 639,257 Z"></path>
<path stroke="#B560B2" stroke-width="2" fill="#DD27A2" opacity="0.6468107756986099" stroke-opacity="0.9219967795777311" transform="rotate(69.0 400 300)" d="M 138,500  C 571,314 220,300 399,338 C 410,198 505,478 689,424 C 493,322 333,417 408,355 C 682,468 657,208 555,160 C 106,165 330,233 588,241 C 419,219 390,169 125,500 C 576,101 457,179 611,171 C 605,221 487,340 334,376 C 598,349 130,384 281,482 C 260,281 381,307 279,288 C 385,468 617,330 226,367 Z"></path>
<path stroke="#95381A" stroke-width="4" fill="#504251" opacity="0.1110505738265608" stroke-opacity="0.14974336218068038" transform="rotate(176.0 400 300)" d="M 311,496  C 377,369 180,302 231,459 C 678,152 232,227 432,171 C 176,318 684,399 700,189 C 385,430 631,500 295,466 C 657,103 654,129 310,310 C 653,447 137,230 502,320 C 278,137 673,191 404,436 Z"></path>
<path stroke="#D756AB" stroke-width="6" fill="#129AC1" opacity="0.9993072838477975" stroke-opacity="0.9296852731298677" transform="rotate(166.0 400 300)" d="M 275,406  C 616,349 113,161 232,317 C 571,286 546,228 181,385 C 652,384 526,380 342,215 C 254,160 107,442 258,266 C 303,462 543,321 343,116 C 269,427 633,307 250,121 C 465,258 562,139 504,157 C 161,465 613,181 396,123 C 527,126 174,348 478,472 Z"></path>
<path stroke="#3D318B" stroke-width="3" fill="#446525" opacity="0.9349838403400847" stroke-opacity="0.008937245317460069" transform="rotate(78.0 400 300)" d="M 274,396  C 227,137 612,136 247,135 C 626,496 694,414 367,120 C 445,259 428,291 378,384 C 464,397 187,201 296,394 C 275,397 288,458 138,389 C 683,132 435,313 505,115 C 360,229 288,292 688,200 C 464,460 622,298 239,245 Z"></path>
<path stroke="#9C6D9D" stroke-width="4" fill="#979436" opacity="0.47650329441792744" stroke-opacity="0.7310493360503952" transform="rotate(-125.0 400 300)" d="M 213,457  C 264,479 643,198 341,254 C 424,463 568,405 336,487 C 612,398 540,321 522,345 C 470,314 381,426 537,160 C 208,261 112,168 600,122 C 168,292 543,349 665,403 C 685,167 577,305 650,197 C 700,499 602,157 557,193 C 324,263 192,218 559,158 Z"></path>
<path stroke="#B287A5" stroke-width="1" fill="#7044C3" opacity="0.2031056729398475" stroke-opacity="0.18580464948904396" transform="rotate(170.0 400 300)" d="M 293,393  C 134,168 287,194 171,156 C 400,327 289,481 638,369 C 217,317 403,385 211,366 C 117,412 392,359 520,386 C 277,424 392,306 641,495 Z"></path>
<path stroke="#03D5CD" stroke-width="3" fill="#02B273" opacity="0.10829541575116591" stroke-opacity="0.09057139920710756" transform="rotate(88.0 400 300)" d="M 696,313  C 168,384 689,142 150,239 C 496,130 289,427 502,409 C 630,432 598,323 557,149 C 131,151 253,322 539,398 C 159,289 262,467 147,373 Z"></path>
<path stroke="#35DAA9" stroke-width="7" fill="#494705" opacity="0.6441373475109101" stroke-opacity="0.9071490682294564" transform="rotate(-117.0 400 300)" d="M 633,473  C 236,139 492,118 244,316 C 446,338 569,499 516,217 C 590,356 137,433 108,121 C 295,234 315,493 359,498 C 304,130 492,214 472,142 C 404,201 313,252 222,351 C 555,144 103,355 344,487 C 673,272 161,332 497,293 Z"></path>
<path stroke="#661A83" stroke-width="2" fill="#138382" opacity="0.7577948276962602" stroke-opacity="0.976206314164286" transform="rotate(78.0 400 300)" d="M 296,419  C 258,408 613,280 470,393 C 526,420 576,288 199,204 C 622,214 451,464 325,401 C 110,306 553,175 360,328 C 637,395 402,477 309,339 C 492,128 357,169 619,250 C 551,325 304,488 603,240 C 223,459 422,179 686,400 C 511,320 347,166 362,337 Z"></path>

  </g>
</svg>
