<svg xmlns="http://www.w3.org/2000/svg" xmlns:xlink="http://www.w3.org/1999/xlink" width="800" height="600" version="1.1" viewBox="0 0 800 600"><g fill="none" fill-rule="evenodd" stroke="none" stroke-width="1"><path fill="#D8D24D" stroke="#7D82C0" stroke-opacity=".577" stroke-width="2" d="M 398,112 C 615,385 645,479 195,412 C 116,170 580,425 435,106 C 153,357 211,247 532,210 C 363,393 240,176 425,280 C 698,421 391,491 529,136 C 474,411 207,232 512,204 C 554,418 478,321 498,272 C 337,245 507,305 179,232 C 285,454 472,138 631,135 Z" opacity=".83" transform="rotate(33.0 400 300)"/><path fill="#24008D" stroke="#3AC569" stroke-opacity=".135" stroke-width="4" d="M 559,228 C 301,382 636,353 582,306 C 420,278 417,314 322,413 C 661,258 538,129 342,168 C 214,250 576,287 216,214 C 117,488 603,345 542,464 C 391,107 347,379 277,162 Z" opacity=".579" transform="rotate(74.0 400 300)"/><path fill="#A1DAA9" stroke="#081925" stroke-opacity=".316" stroke-width="7" d="M 137,376 C 684,183 560,413 534,378 C 346,250 179,169 220,118 C 374,381 588,329 497,232 C 473,476 265,185 587,228 C 640,485 292,204 244,323 C 590,310 212,329 166,393 C 639,439 603,261 630,109 C 659,338 264,339 282,458 C 225,202 633,121 129,164 C 452,220 463,204 690,361 C 566,333 256,486 350,325 Z" opacity=".046" transform="rotate(-172.0 400 300)"/><path fill="#03828C" stroke="#7B1D62" stroke-opacity=".229" stroke-width="7" d="M 340,467 C 652,236 381,404 611,433 C 497,203 533,216 200,169 C 379,254 302,312 282,360 C 529,259 484,448 397,303 C 667,128 625,152 668,224 C 252,369 486,455 505,106 C 432,272 599,291 147,233 C 222,267 595,452 646,307 C 493,387 226,256 614,101 C 433,143 229,354 488,251 C 335,413 262,374 689,147 Z" opacity=".108" transform="rotate(148.0 400 300)"/><path fill="#567C0C" stroke="#141D57" stroke-opacity=".085" stroke-width="7" d="M 266,221 C 151,496 529,458 156,410 C 235,307 174,227 161,255 C 685,232 662,420 287,104 C 277,314 616,485 239,451 C 144,355 225,125 270,350 Z" opacity=".732" transform="rotate(-87.0 400 300)"/><path fill="#97293B" stroke="#D75413" stroke-opacity=".387" stroke-width="6" d="M 533,491 C 351,421 640,406 294,244 C 351,231 244,132 508,282 C 592,195 338,404 395,287 C 509,150 125,256 418,449 C 280,197 123,420 442,272 C 531,438 220,359 424,459 C 310,138 336,232 546,284 Z" opacity=".361" transform="rotate(-118.0 400 300)"/><path fill="#47482C" stroke="#A5649C" stroke-opacity=".168" stroke-width="7" d="M 483,109 C 292,250 281,168 409,436 C 650,409 276,172 128,366 C 428,285 246,188 347,155 C 439,331 570,188 455,257 C 420,382 131,219 221,329 C 258,428 200,352 269,473 C 251,255 509,294 197,362 C 375,326 261,194 679,345 C 182,404 228,217 635,362 C 379,296 530,443 173,384 C 568,279 412,235 429,211 Z" opacity=".113" transform="rotate(-6.0 400 300)"/><path fill="#4DC92A" stroke="#040510" stroke-opacity=".712" stroke-width="6" d="M 568,212 C 374,111 590,183 434,297 C 550,221 237,132 108,377 C 356,265 241,265 291,197 C 667,364 560,212 525,257 C 452,438 469,423 227,490 C 120,155 556,313 674,206 C 153,447 672,374 289,192 C 682,379 472,411 111,149 C 465,438 637,184 372,345 Z" opacity=".672" transform="rotate(177.0 400 300)"/></g></svg>