<?xml version="1.0" encoding="UTF-8"?>
<svg width="800px" height="600px" viewBox="0 0 800 600" version="1.1" xmlns="http://www.w3.org/2000/svg" xmlns:xlink="http://www.w3.org/1999/xlink">
  <defs></defs>
  <g stroke="none" stroke-width="1" fill="none" fill-rule="evenodd">
    
    <rect stroke="#2A16B7" stroke-width="7" fill="#262092" opacity="0.3088443181764041" stroke-opacity="0.678482590547548" transform="rotate(-98.0 400 300)" x="256" y="39" width="22" height="47"></rect>
<rect stroke="#48C30D" stroke-width="1" fill="#CC9CC6" opacity="0.7184188289130756" stroke-opacity="0.703934680655504" transform="rotate(106.0 400 300)" x="666" y="130" width="310" height="191"></rect>
<path stroke="#49A19B" stroke-width="6" fill="#72AD73" opacity="0.5645169889349277" stroke-opacity="0.7267992499015644" transform="rotate(58.0 400 300)" d="M 280,378  C 122,327 656,262 364,425 C 207,223 485,490 200,396 C 693,296 327,120 353,373 C 388,429 160,253 259,414 C 226,213 575,169 152,347 C 423,224 160,473 113,368 C 699,221 530,278 628,162 C 565,256 259,136 368,270 Z"></path>
<path stroke="#AC35CB" stroke-width="1" fill="#CDB4D1" opacity="0.5384987812280365" stroke-opacity="0.5710301486931996" transform="rotate(32.0 400 300)" d="M 522,272  C 335,150 414,303 514,356 C 685,343 201,295 153,138 C 513,416 510,301 376,350 C 284,417 600,373 316,296 C 259,197 256,425 481,423 C 268,234 286,304 406,105 C 123,312 215,330 128,152 C 238,456 127,345 176,439 C 488,408 567,250 260,365 C 601,419 529,215 592,241 Z"></path>
<rect stroke="#DACCA9" stroke-width="3" fill="#64A886" opacity="0.0883512947987694" stroke-opacity="0.5487002564243322" transform="rotate(110.0 400 300)" x="599" y="358" width="186" height="240"></rect>
<path stroke="#06A934" stroke-width="1" fill="#902ACC" opacity="0.4164720458889641" stroke-opacity="0.6332937302312044" transform="rotate(124.0 400 300)" d="M 151,390  C 163,477 420,243 261,401 C 376,421 123,145 572,126 C 308,198 509,457 526,353 C 395,381 474,470 686,402 C 253,224 346,327 634,154 C 624,185 313,133 664,365 C 259,347 263,360 253,239 C 419,398 271,345 662,254 C 323,494 200,487 475,346 Z"></path>

  </g>
</svg>
