<svg xmlns="http://www.w3.org/2000/svg" xmlns:xlink="http://www.w3.org/1999/xlink" width="800" height="600" version="1.1" viewBox="0 0 800 600"><g fill="none" fill-rule="evenodd" stroke="none" stroke-width="1"><path fill="#f27630" stroke="#ed2b2c" stroke-opacity=".985" stroke-width="4" d="M 537,428 C 356,143 552,431 287,230 C 556,474 378,384 441,165 C 676,236 531,349 117,381 C 307,379 443,318 211,438 C 422,190 267,425 115,247 C 125,447 162,208 466,243 C 668,494 399,364 193,268 C 514,342 114,228 146,252 Z" opacity=".004" transform="rotate(-106.0 400 300)"/><path fill="#2b55f7" stroke="#2b55f7" stroke-opacity=".818" stroke-width="5" d="M 408,270 C 103,357 181,458 669,397 C 267,489 337,159 222,449 C 289,366 239,362 626,164 C 366,267 613,339 513,334 Z" opacity=".216" transform="rotate(-104.0 400 300)"/><path fill="#f9d84b" stroke="#f27630" stroke-opacity=".324" stroke-width="5" d="M 452,419 C 659,294 570,390 584,319 C 462,148 195,461 254,290 C 439,312 429,169 639,450 C 180,382 235,197 410,461 Z" opacity=".87" transform="rotate(-19.0 400 300)"/><path fill="#31a06b" stroke="#ed2b2c" stroke-opacity=".418" stroke-width="4" d="M 228,419 C 554,312 212,359 545,148 C 616,109 167,168 269,178 C 214,384 304,252 678,183 C 291,342 200,161 506,463 C 144,229 326,299 215,305 C 159,156 291,261 623,160 C 618,105 251,319 113,119 C 177,137 161,139 416,208 C 494,391 491,102 216,347 C 202,492 478,254 188,339 C 507,118 102,342 381,174 Z" opacity=".04" transform="rotate(153.0 400 300)"/><path fill="#f27630" stroke="#2b55f7" stroke-opacity=".17" stroke-width="2" d="M 582,458 C 548,256 142,238 675,267 C 110,404 105,392 355,336 C 637,453 128,430 387,315 C 566,390 324,102 638,346 C 561,145 306,387 422,497 C 126,238 232,464 383,408 C 514,296 583,415 613,262 Z" opacity=".721" transform="rotate(-126.0 400 300)"/><path fill="#f9d84b" stroke="#31a06b" stroke-opacity=".052" stroke-width="4" d="M 456,141 C 689,131 127,214 693,366 C 322,211 548,395 286,149 C 574,371 229,470 511,342 C 608,306 133,352 245,159 C 528,337 354,316 563,188 C 698,211 430,276 532,180 C 326,422 622,131 479,224 Z" opacity=".159" transform="rotate(95.0 400 300)"/><path fill="#ed2b2c" stroke="#f27630" stroke-opacity=".12" stroke-width="4" d="M 512,248 C 616,402 429,456 127,196 C 583,145 645,397 578,271 C 224,286 678,288 199,439 C 617,302 567,131 371,472 C 179,191 258,312 227,191 C 362,424 226,323 337,294 C 162,211 448,359 605,231 C 113,413 608,460 106,337 C 580,411 661,349 551,405 C 516,145 487,400 449,127 C 330,437 241,461 595,400 Z" opacity=".61" transform="rotate(103.0 400 300)"/><path fill="#f9d84b" stroke="#31a06b" stroke-opacity=".371" stroke-width="2" d="M 602,426 C 388,167 120,304 301,101 C 251,363 315,374 259,163 C 683,353 304,229 565,282 C 461,182 366,191 210,224 C 610,359 125,244 565,253 Z" opacity=".032" transform="rotate(-105.0 400 300)"/></g></svg>