<?xml version="1.0" encoding="UTF-8"?>
<svg width="800px" height="600px" viewBox="0 0 800 600" version="1.1" xmlns="http://www.w3.org/2000/svg" xmlns:xlink="http://www.w3.org/1999/xlink">
  <defs></defs>
  <g stroke="none" stroke-width="1" fill="none" fill-rule="evenodd">
    
    <path stroke="#ed2b2c" stroke-width="2" fill="#ed2b2c" opacity="0.42838000858665726" stroke-opacity="0.8048024423050232" transform="rotate(71.0 400 300)" d="M 618,236  C 148,185 691,327 388,483 C 409,116 521,445 207,356 C 363,330 496,130 403,112 C 321,233 297,255 635,277 C 280,447 581,465 507,361 C 280,200 131,262 629,202 Z"></path>
<path stroke="#ed2b2c" stroke-width="2" fill="#31a06b" opacity="0.9388027600625174" stroke-opacity="0.20549299475439586" transform="rotate(-110.0 400 300)" d="M 665,458  C 374,296 451,218 485,425 C 488,191 192,332 396,497 C 670,476 579,142 697,323 C 693,252 307,141 408,191 C 149,269 137,404 336,219 C 553,122 337,449 322,182 Z"></path>
<rect stroke="#ed2b2c" stroke-width="5" fill="#f27630" opacity="0.28250171236601074" stroke-opacity="0.3971588685430874" transform="rotate(-112.0 400 300)" x="754" y="119" width="398" height="324"></rect>
<rect stroke="#ed2b2c" stroke-width="1" fill="#31a06b" opacity="0.42417593155884087" stroke-opacity="0.12514691117421142" transform="rotate(-136.0 400 300)" x="361" y="461" width="285" height="65"></rect>
<ellipse stroke="#ed2b2c" stroke-width="5" fill="#f9d84b" opacity="0.28235189052596305" stroke-opacity="0.7427629760297629" transform="rotate(34.0 400 300)" cx="782" rx="340" cy="581" ry="346"></ellipse>
<ellipse stroke="#f9d84b" stroke-width="2" fill="#31a06b" opacity="0.667614534254663" stroke-opacity="0.7908799070121908" transform="rotate(-159.0 400 300)" cx="54" rx="426" cy="548" ry="186"></ellipse>

  </g>
</svg>
