<svg xmlns="http://www.w3.org/2000/svg" xmlns:xlink="http://www.w3.org/1999/xlink" width="800" height="600" version="1.1" viewBox="0 0 800 600"><g fill="none" fill-rule="evenodd" stroke="none" stroke-width="1"><path fill="#ed2b2c" stroke="#ed2b2c" stroke-opacity=".805" stroke-width="2" d="M 618,236 C 148,185 691,327 388,483 C 409,116 521,445 207,356 C 363,330 496,130 403,112 C 321,233 297,255 635,277 C 280,447 581,465 507,361 C 280,200 131,262 629,202 Z" opacity=".428" transform="rotate(71.0 400 300)"/><path fill="#31a06b" stroke="#ed2b2c" stroke-opacity=".205" stroke-width="2" d="M 665,458 C 374,296 451,218 485,425 C 488,191 192,332 396,497 C 670,476 579,142 697,323 C 693,252 307,141 408,191 C 149,269 137,404 336,219 C 553,122 337,449 322,182 Z" opacity=".939" transform="rotate(-110.0 400 300)"/><rect width="398" height="324" x="754" y="119" fill="#f27630" stroke="#ed2b2c" stroke-opacity=".397" stroke-width="5" opacity=".283" transform="rotate(-112.0 400 300)"/><rect width="285" height="65" x="361" y="461" fill="#31a06b" stroke="#ed2b2c" stroke-opacity=".125" stroke-width="1" opacity=".424" transform="rotate(-136.0 400 300)"/><ellipse cx="782" cy="581" fill="#f9d84b" stroke="#ed2b2c" stroke-opacity=".743" stroke-width="5" opacity=".282" rx="340" ry="346" transform="rotate(34.0 400 300)"/><ellipse cx="54" cy="548" fill="#31a06b" stroke="#f9d84b" stroke-opacity=".791" stroke-width="2" opacity=".668" rx="426" ry="186" transform="rotate(-159.0 400 300)"/></g></svg>