<svg xmlns="http://www.w3.org/2000/svg" xmlns:xlink="http://www.w3.org/1999/xlink" width="800" height="600" version="1.1" viewBox="0 0 800 600"><g fill="none" fill-rule="evenodd" stroke="none" stroke-width="1"><polygon fill="#9CCD46" stroke="#55A153" stroke-opacity=".716" stroke-width="1" points="249 7 614 432 512 458 246 154 423 445 194 463 60 509 317 568" opacity=".457" transform="rotate(104.0 400 300)"/><path fill="#D21DB1" stroke="#7B3076" stroke-opacity=".936" stroke-width="4" d="M 282,225 C 277,456 536,111 543,453 C 283,194 641,438 171,180 C 408,446 571,152 381,365 C 586,141 157,323 519,101 C 176,295 571,218 495,419 C 547,324 330,299 523,133 C 438,200 131,201 586,286 C 512,438 240,354 566,323 C 544,485 218,105 136,455 Z" opacity=".517" transform="rotate(121.0 400 300)"/><rect width="255" height="400" x="240" y="516" fill="#19193A" stroke="#86B8B0" stroke-opacity=".827" stroke-width="6" opacity=".696" transform="rotate(161.0 400 300)"/><path fill="#637445" stroke="#B10A60" stroke-opacity=".638" stroke-width="7" d="M 440,222 C 379,120 134,328 536,294 C 250,248 461,214 686,143 C 236,228 490,102 254,270 C 119,425 326,448 501,380 C 677,441 427,221 678,101 C 661,486 262,199 618,437 C 676,182 296,470 598,380 C 489,469 568,259 128,164 C 402,395 491,140 115,208 C 344,316 646,264 690,106 C 272,264 367,164 160,190 Z" opacity=".133" transform="rotate(87.0 400 300)"/><rect width="328" height="76" x="797" y="284" fill="#786C9B" stroke="#3336B1" stroke-opacity=".995" stroke-width="7" opacity=".259" transform="rotate(-137.0 400 300)"/><polygon fill="#2DB79C" stroke="#38B5B1" stroke-opacity=".257" stroke-width="6" points="673 314 442 106 402 498 282 329 322 415 233 184" opacity=".662" transform="rotate(170.0 400 300)"/><path fill="#A16791" stroke="#08DAD2" stroke-opacity=".634" stroke-width="2" d="M 544,389 C 518,469 270,242 687,120 C 350,277 117,331 552,327 C 270,353 178,431 158,437 C 444,260 625,230 187,476 C 181,426 695,449 269,138 C 622,460 220,224 332,435 C 575,411 210,141 563,404 C 474,303 516,185 214,138 C 598,119 354,443 154,193 Z" opacity=".738" transform="rotate(-140.0 400 300)"/><path fill="#D1222D" stroke="#DD0577" stroke-opacity=".915" stroke-width="3" d="M 617,370 C 667,404 517,319 164,140 C 364,468 536,471 119,287 C 324,182 372,463 489,178 C 150,194 178,246 692,358 C 164,231 685,165 275,270 C 108,134 150,254 616,208 C 418,400 158,260 257,266 C 382,314 346,318 480,402 C 147,372 203,309 426,398 C 584,480 676,354 178,389 C 613,271 388,381 269,455 Z" opacity=".529" transform="rotate(82.0 400 300)"/><path fill="#2AB8D7" stroke="#75834A" stroke-opacity=".374" stroke-width="2" d="M 172,225 C 138,261 212,146 236,203 C 583,174 367,185 667,162 C 331,309 521,157 536,473 C 197,414 156,491 340,294 C 632,394 594,342 127,158 Z" opacity=".796" transform="rotate(85.0 400 300)"/></g></svg>