<svg xmlns="http://www.w3.org/2000/svg" xmlns:xlink="http://www.w3.org/1999/xlink" width="800" height="600" version="1.1" viewBox="0 0 800 600"><g fill="none" fill-rule="evenodd" stroke="none" stroke-width="1"><polygon fill="#4347AA" stroke="#11A246" stroke-opacity=".463" stroke-width="7" points="654 327 718 99 365 43 721 254 205 320 154 197 779 486" opacity=".11" transform="rotate(179.0 400 300)"/><polygon fill="#391C8B" stroke="#B7A654" stroke-opacity=".968" stroke-width="4" points="640 261 680 49 10 42 459 373 90 321 364 358" opacity=".301" transform="rotate(88.0 400 300)"/><ellipse cx="288" cy="15" fill="#C419A4" stroke="#57A8C8" stroke-opacity=".08" stroke-width="4" opacity=".023" rx="259" ry="314" transform="rotate(73.0 400 300)"/><polygon fill="#83827C" stroke="#42D781" stroke-opacity=".226" stroke-width="4" points="633 173 54 235 149 235 475 242 277 587 297 246 297 574 172 140" opacity=".175" transform="rotate(122.0 400 300)"/><ellipse cx="618" cy="58" fill="#071175" stroke="#C08257" stroke-opacity=".525" stroke-width="7" opacity=".595" rx="336" ry="92" transform="rotate(108.0 400 300)"/><polygon fill="#D24BC1" stroke="#4D4DD3" stroke-opacity=".303" stroke-width="1" points="684 95 11 489 586 211 455 238 571 153 5 146" opacity=".774" transform="rotate(-9.0 400 300)"/><polygon fill="#B3658D" stroke="#BD39B7" stroke-opacity=".106" stroke-width="1" points="692 411 491 262 769 404 522 578 212 470 414 352 429 262" opacity=".91" transform="rotate(-116.0 400 300)"/><ellipse cx="201" cy="119" fill="#773953" stroke="#645C03" stroke-opacity=".318" stroke-width="1" opacity=".422" rx="100" ry="219" transform="rotate(11.0 400 300)"/><ellipse cx="579" cy="547" fill="#9C6706" stroke="#90C22D" stroke-opacity=".324" stroke-width="1" opacity=".539" rx="391" ry="188" transform="rotate(-62.0 400 300)"/></g></svg>