<?xml version="1.0" encoding="UTF-8"?>
<svg width="800px" height="600px" viewBox="0 0 800 600" version="1.1" xmlns="http://www.w3.org/2000/svg" xmlns:xlink="http://www.w3.org/1999/xlink">
  <defs></defs>
  <g stroke="none" stroke-width="1" fill="none" fill-rule="evenodd">
    
    <polygon stroke="#11A246" stroke-width="7" fill="#4347AA" opacity="0.10975390408121087" stroke-opacity="0.4629465275077706" transform="rotate(179.0 400 300)" points="654 327 718 99 365 43 721 254 205 320 154 197 779 486 "></polygon>
<polygon stroke="#B7A654" stroke-width="4" fill="#391C8B" opacity="0.30140902554059185" stroke-opacity="0.9681134318894254" transform="rotate(88.0 400 300)" points="640 261 680 49 10 42 459 373 90 321 364 358 "></polygon>
<ellipse stroke="#57A8C8" stroke-width="4" fill="#C419A4" opacity="0.023280619036051123" stroke-opacity="0.0804551358938218" transform="rotate(73.0 400 300)" cx="288" rx="259" cy="15" ry="314"></ellipse>
<polygon stroke="#42D781" stroke-width="4" fill="#83827C" opacity="0.17535397598878164" stroke-opacity="0.22606517616089022" transform="rotate(122.0 400 300)" points="633 173 54 235 149 235 475 242 277 587 297 246 297 574 172 140 "></polygon>
<ellipse stroke="#C08257" stroke-width="7" fill="#071175" opacity="0.5949365042551521" stroke-opacity="0.5254437153413593" transform="rotate(108.0 400 300)" cx="618" rx="336" cy="58" ry="92"></ellipse>
<polygon stroke="#4D4DD3" stroke-width="1" fill="#D24BC1" opacity="0.7737670379093682" stroke-opacity="0.30333956780770827" transform="rotate(-9.0 400 300)" points="684 95 11 489 586 211 455 238 571 153 5 146 "></polygon>
<polygon stroke="#BD39B7" stroke-width="1" fill="#B3658D" opacity="0.9095588645966584" stroke-opacity="0.10611941947915428" transform="rotate(-116.0 400 300)" points="692 411 491 262 769 404 522 578 212 470 414 352 429 262 "></polygon>
<ellipse stroke="#645C03" stroke-width="1" fill="#773953" opacity="0.42208606316749303" stroke-opacity="0.31821122908301547" transform="rotate(11.0 400 300)" cx="201" rx="100" cy="119" ry="219"></ellipse>
<ellipse stroke="#90C22D" stroke-width="1" fill="#9C6706" opacity="0.5391907785676123" stroke-opacity="0.32391503354887363" transform="rotate(-62.0 400 300)" cx="579" rx="391" cy="547" ry="188"></ellipse>

  </g>
</svg>
