<svg xmlns="http://www.w3.org/2000/svg" xmlns:xlink="http://www.w3.org/1999/xlink" width="800" height="600" version="1.1" viewBox="0 0 800 600"><g fill="none" fill-rule="evenodd" stroke="none" stroke-width="1"><path fill="#C653C5" stroke="#908CC9" stroke-opacity=".907" stroke-width="1" d="M 159,484 C 267,348 218,241 311,194 C 499,276 248,420 153,484 C 536,419 428,466 672,396 C 392,480 380,137 574,319 C 231,336 576,265 172,221 C 523,424 635,363 317,294 C 426,342 512,410 377,430 Z" opacity=".106" transform="rotate(0.0 400 300)"/><path fill="#A28A87" stroke="#616C21" stroke-opacity=".676" stroke-width="6" d="M 370,382 C 249,350 552,179 537,232 C 357,367 263,246 458,353 C 265,493 540,244 297,350 C 389,465 513,373 243,352 C 579,448 639,155 430,106 C 435,457 291,140 315,382 Z" opacity=".303" transform="rotate(-73.0 400 300)"/><path fill="#9C7708" stroke="#C537A2" stroke-opacity=".77" stroke-width="6" d="M 335,217 C 525,105 574,102 672,200 C 607,158 348,316 156,182 C 517,307 563,414 131,423 C 165,432 194,164 598,439 Z" opacity=".216" transform="rotate(41.0 400 300)"/><path fill="#A7DAAD" stroke="#C78220" stroke-opacity=".045" stroke-width="1" d="M 490,207 C 213,474 604,298 660,442 C 513,480 445,168 611,355 C 509,263 464,426 578,364 C 603,302 641,122 641,308 Z" opacity=".401" transform="rotate(137.0 400 300)"/><path fill="#93B339" stroke="#A9DC12" stroke-opacity=".173" stroke-width="5" d="M 276,194 C 636,341 440,151 237,116 C 195,227 323,138 518,248 C 332,345 289,162 379,398 C 687,425 310,332 297,170 C 437,281 183,277 517,268 C 441,262 166,398 399,491 C 512,120 452,349 209,213 Z" opacity=".485" transform="rotate(-168.0 400 300)"/><path fill="#00A127" stroke="#7B9443" stroke-opacity=".886" stroke-width="4" d="M 103,247 C 280,400 687,278 492,191 C 195,480 421,306 385,357 C 454,435 409,223 490,439 C 451,270 390,454 462,459 C 257,171 607,424 427,206 C 117,485 697,150 312,389 C 170,171 190,212 133,158 C 377,380 431,290 555,488 C 158,257 521,403 664,353 Z" opacity=".019" transform="rotate(42.0 400 300)"/><path fill="#6C5CD9" stroke="#617017" stroke-opacity=".62" stroke-width="1" d="M 461,415 C 131,344 232,279 112,457 C 312,340 411,262 500,328 C 188,377 188,164 236,144 C 432,160 269,397 449,449 C 105,102 624,412 566,322 C 502,234 224,277 653,187 C 317,266 242,376 452,169 Z" opacity=".166" transform="rotate(52.0 400 300)"/><path fill="#73A84D" stroke="#8CD5D2" stroke-opacity=".444" stroke-width="7" d="M 510,370 C 361,428 569,431 276,284 C 188,450 579,388 332,352 C 122,185 369,320 597,341 C 668,238 560,421 628,177 Z" opacity=".111" transform="rotate(100.0 400 300)"/><path fill="#96925A" stroke="#C0931C" stroke-opacity=".107" stroke-width="4" d="M 326,169 C 695,388 488,469 249,304 C 541,157 161,253 430,463 C 542,271 671,386 206,437 C 428,170 612,222 128,456 C 239,238 151,334 245,321 Z" opacity=".476" transform="rotate(-156.0 400 300)"/><path fill="#744AC8" stroke="#286DB9" stroke-opacity=".075" stroke-width="2" d="M 501,153 C 460,271 153,406 639,476 C 474,161 536,386 217,227 C 141,260 225,427 245,372 C 486,107 310,428 566,132 C 457,247 437,462 452,148 C 337,246 461,272 645,410 C 505,292 640,306 658,172 C 108,117 228,162 111,227 C 292,232 554,322 298,162 C 491,441 429,299 316,272 C 127,131 346,391 227,135 Z" opacity=".834" transform="rotate(151.0 400 300)"/></g></svg>