<?xml version="1.0" encoding="UTF-8"?>
<svg width="800px" height="600px" viewBox="0 0 800 600" version="1.1" xmlns="http://www.w3.org/2000/svg" xmlns:xlink="http://www.w3.org/1999/xlink">
  <defs></defs>
  <g stroke="none" stroke-width="1" fill="none" fill-rule="evenodd">
    
    <path stroke="#1D8021" stroke-width="4" fill="#B425AB" opacity="0.47149308954812097" stroke-opacity="0.09887536498701822" transform="rotate(-149.0 400 300)" d="M 597,410  C 139,458 124,442 484,111 C 637,312 527,247 644,267 C 101,333 498,270 559,486 C 188,217 361,215 440,132 C 166,104 425,118 222,107 C 358,185 545,228 292,279 C 605,130 575,429 697,475 C 375,175 512,315 274,349 C 327,327 516,374 518,158 Z"></path>
<path stroke="#94C640" stroke-width="2" fill="#C675DA" opacity="0.9119272057420514" stroke-opacity="0.03308050109873821" transform="rotate(-153.0 400 300)" d="M 143,402  C 141,461 605,312 549,434 C 657,375 348,495 247,345 C 329,264 258,232 469,274 C 393,275 515,177 142,346 C 237,393 430,211 206,390 C 126,350 281,408 221,256 C 548,312 173,376 440,240 C 359,436 260,154 216,421 C 627,410 548,191 189,215 Z"></path>
<path stroke="#B8D597" stroke-width="4" fill="#A85149" opacity="0.502810352035952" stroke-opacity="0.21232537356558737" transform="rotate(106.0 400 300)" d="M 274,232  C 676,187 590,163 543,479 C 413,483 229,417 376,171 C 130,352 316,481 191,258 C 401,374 234,354 583,493 C 381,309 139,237 220,453 C 326,288 240,114 272,186 C 133,455 289,133 379,450 C 119,490 357,204 136,213 C 445,459 349,319 527,122 Z"></path>
<path stroke="#48B97D" stroke-width="3" fill="#66657A" opacity="0.956895469931197" stroke-opacity="0.09705093810045978" transform="rotate(134.0 400 300)" d="M 362,293  C 169,196 616,155 394,203 C 383,494 505,230 397,345 C 597,169 683,207 158,419 C 672,337 689,348 687,322 C 392,107 107,348 448,295 C 345,213 105,288 460,240 C 378,181 157,300 259,210 C 383,186 184,457 585,484 C 290,471 148,260 640,265 C 636,464 627,405 230,339 Z"></path>
<path stroke="#A57059" stroke-width="7" fill="#4D4213" opacity="0.3207369640570727" stroke-opacity="0.4211878045359099" transform="rotate(148.0 400 300)" d="M 500,381  C 601,314 119,105 306,177 C 317,112 684,136 392,350 C 518,262 551,177 125,293 C 186,195 425,118 231,243 Z"></path>
<path stroke="#00C255" stroke-width="2" fill="#674222" opacity="0.8609993713298204" stroke-opacity="0.005792346942522206" transform="rotate(-63.0 400 300)" d="M 303,479  C 535,378 633,400 367,495 C 398,396 584,233 344,309 C 682,170 382,237 287,376 C 408,383 213,273 473,374 C 395,208 295,365 142,117 C 313,238 481,112 579,457 C 254,420 532,134 176,404 C 239,387 252,435 175,366 C 462,113 419,495 463,265 C 320,350 145,338 163,305 Z"></path>
<path stroke="#A8894B" stroke-width="5" fill="#5B5A6D" opacity="0.17156025183229917" stroke-opacity="0.6376134581311169" transform="rotate(168.0 400 300)" d="M 417,380  C 145,418 227,116 429,498 C 274,463 689,294 403,259 C 408,354 176,101 511,266 C 420,205 407,253 428,125 C 395,105 569,336 163,123 C 185,293 280,356 274,255 C 458,278 416,448 330,463 C 257,374 465,475 556,435 C 109,166 175,148 592,290 C 337,494 108,244 447,490 C 525,181 364,350 286,285 Z"></path>
<path stroke="#D17A20" stroke-width="7" fill="#B1C9A5" opacity="0.26261159197252704" stroke-opacity="0.5487129790987234" transform="rotate(-52.0 400 300)" d="M 153,263  C 636,133 590,370 581,218 C 158,157 611,364 572,360 C 226,415 146,230 655,121 C 345,451 414,167 375,257 C 442,412 182,249 259,209 C 513,251 641,493 510,103 C 375,342 315,358 260,132 C 314,216 296,256 427,319 C 113,460 429,483 176,335 C 653,344 672,277 151,164 C 475,146 562,116 568,473 Z"></path>
<path stroke="#AD0100" stroke-width="5" fill="#D6BD91" opacity="0.09367827590926371" stroke-opacity="0.6814601573509791" transform="rotate(171.0 400 300)" d="M 364,225  C 193,190 106,275 291,156 C 424,385 191,121 235,432 C 153,252 591,410 204,492 C 526,340 362,290 326,136 C 162,367 557,263 162,139 Z"></path>
<path stroke="#788532" stroke-width="5" fill="#6282DC" opacity="0.1336326597081315" stroke-opacity="0.6556886021455308" transform="rotate(-12.0 400 300)" d="M 684,439  C 222,358 363,104 595,220 C 408,163 599,411 255,368 C 276,168 284,302 413,162 C 499,362 314,167 300,285 C 147,177 641,257 371,234 C 105,445 180,172 599,456 C 494,315 539,442 382,248 Z"></path>

  </g>
</svg>
