<svg xmlns="http://www.w3.org/2000/svg" xmlns:xlink="http://www.w3.org/1999/xlink" width="800" height="600" version="1.1" viewBox="0 0 800 600"><g fill="none" fill-rule="evenodd" stroke="none" stroke-width="1"><ellipse cx="357" cy="28" fill="#f559a0" stroke="#02eb6b" stroke-opacity=".606" stroke-width="6" opacity=".454" rx="202" ry="227" transform="rotate(160.0 400 300)"/><polygon fill="#2cd3f3" stroke="#f559a0" stroke-opacity=".129" stroke-width="5" points="496 503 130 363 271 391 774 261 551 271 517 463 605 263" opacity=".547" transform="rotate(67.0 400 300)"/><rect width="31" height="173" x="627" y="353" fill="#f559a0" stroke="#02eb6b" stroke-opacity=".058" stroke-width="3" opacity=".477" transform="rotate(-148.0 400 300)"/><path fill="#2cd3f3" stroke="#f559a0" stroke-opacity=".914" stroke-width="4" d="M 364,438 C 128,150 163,435 214,194 C 671,313 270,145 540,153 C 595,336 454,130 280,194 C 448,399 676,153 503,432 C 245,186 661,289 127,229 C 229,322 412,268 372,341 C 171,134 147,489 414,270 C 493,340 612,457 224,275 Z" opacity=".993" transform="rotate(74.0 400 300)"/><path fill="#f559a0" stroke="#02eb6b" stroke-opacity=".843" stroke-width="5" d="M 574,148 C 181,208 610,329 421,188 C 562,343 119,286 672,461 C 437,298 168,186 478,319 C 347,243 176,314 102,300 C 269,422 348,251 630,348 C 339,395 574,496 154,267 C 134,414 535,220 583,238 C 284,184 606,132 265,109 C 350,412 407,330 370,470 C 226,258 241,136 559,425 Z" opacity=".345" transform="rotate(62.0 400 300)"/><rect width="194" height="280" x="352" y="388" fill="#0fa6d8" stroke="#2cd3f3" stroke-opacity=".839" stroke-width="5" opacity=".135" transform="rotate(35.0 400 300)"/></g></svg>