<?xml version="1.0" encoding="UTF-8"?>
<svg width="800px" height="600px" viewBox="0 0 800 600" version="1.1" xmlns="http://www.w3.org/2000/svg" xmlns:xlink="http://www.w3.org/1999/xlink">
  <defs></defs>
  <g stroke="none" stroke-width="1" fill="none" fill-rule="evenodd">
    
    <path stroke="#5CDA4C" stroke-width="3" fill="#C19938" opacity="0.9022992179787956" stroke-opacity="0.7048718010833542" transform="rotate(66.0 400 300)" d="M 606,292  C 312,156 217,441 519,493 C 675,106 285,215 315,490 C 278,361 623,199 400,475 C 432,168 698,140 695,226 C 189,445 107,392 629,490 C 621,346 433,489 263,172 C 514,386 261,404 576,192 C 623,471 407,259 314,484 Z"></path>
<path stroke="#C73C3A" stroke-width="7" fill="#91DAB1" opacity="0.5649054696509097" stroke-opacity="0.6454045373440589" transform="rotate(90.0 400 300)" d="M 401,398  C 233,408 684,488 651,170 C 156,271 324,277 411,236 C 342,182 329,464 577,435 C 693,447 589,345 473,321 C 254,178 137,125 377,453 C 206,142 331,457 642,371 Z"></path>
<path stroke="#2C2BD8" stroke-width="6" fill="#67BDC9" opacity="0.1766545214449029" stroke-opacity="0.053867050800972247" transform="rotate(36.0 400 300)" d="M 467,371  C 457,478 236,309 126,475 C 175,168 698,375 124,139 C 167,326 692,247 468,387 C 113,179 161,171 588,368 C 548,204 152,245 221,354 C 688,199 241,225 696,342 C 358,162 279,459 357,203 C 288,129 208,311 602,407 C 209,273 263,149 570,309 Z"></path>
<path stroke="#02AD05" stroke-width="3" fill="#5DAB01" opacity="0.5162998245700873" stroke-opacity="0.940458418110309" transform="rotate(-14.0 400 300)" d="M 298,458  C 611,353 287,279 340,196 C 386,381 412,345 650,390 C 405,401 581,414 230,184 C 248,413 464,441 697,142 C 348,429 544,437 201,176 C 188,289 659,258 140,113 C 186,189 241,466 521,237 C 184,144 634,138 565,145 C 400,346 347,167 338,234 Z"></path>
<path stroke="#635DD4" stroke-width="7" fill="#721143" opacity="0.6571009762624439" stroke-opacity="0.17680450085611446" transform="rotate(5.0 400 300)" d="M 630,146  C 288,109 450,409 164,374 C 203,162 265,329 445,407 C 540,428 571,256 451,214 C 414,226 401,429 133,302 C 115,115 372,332 192,349 Z"></path>
<path stroke="#B83263" stroke-width="5" fill="#5AA029" opacity="0.02763699673108446" stroke-opacity="0.5039091357750813" transform="rotate(144.0 400 300)" d="M 462,164  C 559,134 267,368 147,189 C 512,432 127,392 211,189 C 207,277 116,396 696,157 C 567,370 160,285 554,164 C 213,195 700,192 338,191 C 196,418 620,164 565,271 C 173,130 289,483 459,425 C 275,163 426,432 648,235 C 318,155 182,158 613,485 C 452,264 347,127 230,203 C 246,382 249,480 657,481 Z"></path>
<path stroke="#200108" stroke-width="7" fill="#43DB99" opacity="0.24225034146855687" stroke-opacity="0.8467665493239621" transform="rotate(-163.0 400 300)" d="M 456,134  C 533,330 589,292 224,397 C 160,347 456,256 687,243 C 192,392 254,121 162,151 C 434,435 697,420 676,230 C 226,357 228,369 204,493 C 543,318 689,491 613,329 C 201,441 545,334 133,327 C 226,491 368,367 372,395 C 287,139 477,108 217,141 C 309,327 164,267 571,173 Z"></path>

  </g>
</svg>
