<svg xmlns="http://www.w3.org/2000/svg" xmlns:xlink="http://www.w3.org/1999/xlink" width="800" height="600" version="1.1" viewBox="0 0 800 600"><g fill="none" fill-rule="evenodd" stroke="none" stroke-width="1"><path fill="#f559a0" stroke="#2cd3f3" stroke-opacity=".148" stroke-width="2" d="M 438,202 C 418,220 651,390 598,147 C 301,339 612,187 373,232 C 223,306 474,330 622,131 C 533,360 196,112 386,134 C 565,176 116,115 523,229 C 181,276 460,405 208,178 Z" opacity=".459" transform="rotate(-16.0 400 300)"/><path fill="#f559a0" stroke="#fe9225" stroke-opacity=".051" stroke-width="1" d="M 241,280 C 361,246 458,244 665,367 C 455,393 572,340 194,115 C 180,174 266,125 142,247 C 410,266 410,172 320,196 C 625,327 531,275 537,199 C 160,382 635,263 692,401 C 641,242 620,275 372,329 C 408,137 497,473 689,450 C 673,321 669,313 170,119 Z" opacity=".826" transform="rotate(125.0 400 300)"/><path fill="#fe9225" stroke="#02eb6b" stroke-opacity=".427" stroke-width="5" d="M 181,209 C 336,485 181,312 574,483 C 564,302 139,194 210,261 C 337,121 225,490 693,286 C 301,262 648,160 667,466 C 261,112 696,375 522,158 Z" opacity=".929" transform="rotate(46.0 400 300)"/><path fill="#f559a0" stroke="#f559a0" stroke-opacity=".441" stroke-width="6" d="M 352,352 C 474,315 683,160 391,186 C 198,374 523,450 554,230 C 520,256 621,307 442,423 C 496,412 363,372 576,479 Z" opacity=".874" transform="rotate(146.0 400 300)"/><path fill="#02eb6b" stroke="#fe9225" stroke-opacity=".91" stroke-width="4" d="M 379,173 C 245,181 242,226 550,489 C 627,235 243,409 674,144 C 114,452 348,131 648,254 C 589,436 496,135 280,214 Z" opacity=".432" transform="rotate(-123.0 400 300)"/><path fill="#fe9225" stroke="#f559a0" stroke-opacity=".442" stroke-width="5" d="M 453,292 C 399,380 137,206 130,259 C 151,409 483,174 268,201 C 466,108 445,160 500,276 C 652,434 605,350 396,449 Z" opacity=".071" transform="rotate(162.0 400 300)"/><path fill="#02eb6b" stroke="#02eb6b" stroke-opacity=".952" stroke-width="3" d="M 475,434 C 183,344 238,354 292,437 C 627,468 396,151 216,174 C 413,137 602,322 552,229 C 186,215 515,367 320,132 C 498,323 688,293 217,173 C 193,101 500,134 207,157 C 358,259 216,468 217,254 Z" opacity=".806" transform="rotate(-110.0 400 300)"/><path fill="#02eb6b" stroke="#fe9225" stroke-opacity=".048" stroke-width="3" d="M 167,199 C 185,295 501,407 152,486 C 482,347 608,237 265,233 C 557,459 365,236 305,245 C 355,164 664,337 149,332 C 607,477 308,310 540,408 Z" opacity=".52" transform="rotate(-34.0 400 300)"/><path fill="#fe9225" stroke="#f559a0" stroke-opacity=".52" stroke-width="4" d="M 233,438 C 247,150 445,360 286,387 C 196,398 216,369 542,106 C 551,263 497,398 203,377 C 280,481 438,492 458,165 C 552,286 249,493 390,348 C 116,281 243,435 460,108 Z" opacity=".096" transform="rotate(44.0 400 300)"/><path fill="#fe9225" stroke="#fe9225" stroke-opacity=".147" stroke-width="1" d="M 114,441 C 515,350 391,209 241,438 C 340,188 295,203 321,116 C 649,300 258,297 402,448 C 186,115 586,334 654,381 C 176,296 688,444 205,464 C 322,408 354,138 127,367 C 272,248 357,437 393,242 C 537,395 499,362 521,381 C 217,260 165,354 406,284 C 606,203 225,475 695,292 Z" opacity=".367" transform="rotate(-60.0 400 300)"/></g></svg>