<svg xmlns="http://www.w3.org/2000/svg" xmlns:xlink="http://www.w3.org/1999/xlink" width="800" height="600" version="1.1" viewBox="0 0 800 600"><g fill="none" fill-rule="evenodd" stroke="none" stroke-width="1"><path fill="#B18421" stroke="#973322" stroke-opacity=".489" stroke-width="4" d="M 605,346 C 215,500 664,488 661,434 C 217,201 424,234 203,185 C 341,325 653,195 241,255 C 522,335 416,399 389,358 C 634,182 146,111 444,274 C 680,259 431,358 395,300 Z" opacity=".748" transform="rotate(-38.0 400 300)"/><path fill="#25BA99" stroke="#CB9B9C" stroke-opacity=".316" stroke-width="2" d="M 627,288 C 228,260 571,332 129,380 C 453,127 502,472 363,336 C 538,439 526,405 313,193 C 680,102 655,278 476,481 C 219,412 223,182 308,441 Z" opacity=".824" transform="rotate(18.0 400 300)"/><path fill="#197B37" stroke="#5B434C" stroke-opacity=".458" stroke-width="3" d="M 188,448 C 498,166 437,487 309,305 C 497,409 323,218 676,109 C 454,274 516,280 461,275 C 171,250 700,304 201,496 C 151,333 490,110 130,265 C 299,280 639,191 121,145 C 374,251 180,336 556,141 C 547,125 678,351 426,167 C 347,317 652,289 475,453 C 240,372 614,395 132,407 C 343,295 277,442 680,276 Z" opacity=".173" transform="rotate(-132.0 400 300)"/><rect width="61" height="342" x="571" y="73" fill="#5B5147" stroke="#73682C" stroke-opacity=".93" stroke-width="2" opacity=".015" transform="rotate(-162.0 400 300)"/><polygon fill="#98AA47" stroke="#913274" stroke-opacity=".812" stroke-width="5" points="197 380 132 505 287 524 479 483 491 543 765 247" opacity=".158" transform="rotate(-30.0 400 300)"/><ellipse cx="305" cy="328" fill="#78C736" stroke="#3174A0" stroke-opacity=".757" stroke-width="3" opacity=".101" rx="365" ry="126" transform="rotate(57.0 400 300)"/><path fill="#175C68" stroke="#980C09" stroke-opacity=".2" stroke-width="6" d="M 399,429 C 461,350 213,220 269,454 C 225,271 247,360 235,238 C 110,268 665,261 443,383 C 448,168 420,453 425,235 C 351,345 407,113 586,298 C 334,392 472,191 160,275 C 486,436 142,181 264,253 C 512,455 316,442 152,255 C 617,354 514,434 119,144 C 391,360 469,363 277,161 C 405,149 209,419 246,489 Z" opacity=".269" transform="rotate(-131.0 400 300)"/><polygon fill="#44389B" stroke="#997DA6" stroke-opacity=".455" stroke-width="3" points="80 456 169 23 557 452 321 257 724 442 24 130" opacity=".902" transform="rotate(-88.0 400 300)"/></g></svg>