<svg xmlns="http://www.w3.org/2000/svg" xmlns:xlink="http://www.w3.org/1999/xlink" width="800" height="600" version="1.1" viewBox="0 0 800 600"><g fill="none" fill-rule="evenodd" stroke="none" stroke-width="1"><rect width="184" height="128" x="222" y="6" fill="#f27630" stroke="#31a06b" stroke-opacity=".439" stroke-width="6" opacity=".606" transform="rotate(-49.0 400 300)"/><path fill="#31a06b" stroke="#31a06b" stroke-opacity=".305" stroke-width="4" d="M 277,149 C 446,156 610,210 346,108 C 367,212 537,327 347,140 C 513,449 211,192 250,383 C 670,478 445,109 619,344 C 119,259 361,292 347,316 C 599,218 593,297 227,134 C 309,478 503,270 429,320 Z" opacity=".496" transform="rotate(179.0 400 300)"/><ellipse cx="373" cy="439" fill="#ed2b2c" stroke="#f9d84b" stroke-opacity=".888" stroke-width="2" opacity=".139" rx="151" ry="278" transform="rotate(-176.0 400 300)"/><rect width="300" height="284" x="784" y="438" fill="#ed2b2c" stroke="#f27630" stroke-opacity=".912" stroke-width="2" opacity=".652" transform="rotate(64.0 400 300)"/><ellipse cx="2" cy="253" fill="#ed2b2c" stroke="#2b55f7" stroke-opacity=".322" stroke-width="4" opacity=".173" rx="276" ry="262" transform="rotate(-33.0 400 300)"/><rect width="221" height="392" x="123" y="108" fill="#f9d84b" stroke="#f27630" stroke-opacity=".705" stroke-width="2" opacity=".483" transform="rotate(98.0 400 300)"/><rect width="230" height="177" x="625" y="9" fill="#31a06b" stroke="#f27630" stroke-opacity=".188" stroke-width="6" opacity=".729" transform="rotate(1.0 400 300)"/><rect width="325" height="107" x="592" y="433" fill="#ed2b2c" stroke="#2b55f7" stroke-opacity=".645" stroke-width="2" opacity=".328" transform="rotate(-17.0 400 300)"/><rect width="211" height="176" x="574" y="326" fill="#2b55f7" stroke="#f9d84b" stroke-opacity=".009" stroke-width="2" opacity=".931" transform="rotate(123.0 400 300)"/></g></svg>