<?xml version="1.0" encoding="UTF-8"?>
<svg width="800px" height="600px" viewBox="0 0 800 600" version="1.1" xmlns="http://www.w3.org/2000/svg" xmlns:xlink="http://www.w3.org/1999/xlink">
  <defs></defs>
  <g stroke="none" stroke-width="1" fill="none" fill-rule="evenodd">
    
    <rect stroke="#31a06b" stroke-width="6" fill="#f27630" opacity="0.6062581849079101" stroke-opacity="0.43890684132964064" transform="rotate(-49.0 400 300)" x="222" y="6" width="184" height="128"></rect>
<path stroke="#31a06b" stroke-width="4" fill="#31a06b" opacity="0.49572399713119825" stroke-opacity="0.3045868518090032" transform="rotate(179.0 400 300)" d="M 277,149  C 446,156 610,210 346,108 C 367,212 537,327 347,140 C 513,449 211,192 250,383 C 670,478 445,109 619,344 C 119,259 361,292 347,316 C 599,218 593,297 227,134 C 309,478 503,270 429,320 Z"></path>
<ellipse stroke="#f9d84b" stroke-width="2" fill="#ed2b2c" opacity="0.13895140364539135" stroke-opacity="0.8879854656270433" transform="rotate(-176.0 400 300)" cx="373" rx="151" cy="439" ry="278"></ellipse>
<rect stroke="#f27630" stroke-width="2" fill="#ed2b2c" opacity="0.6522387824693766" stroke-opacity="0.9117573168070443" transform="rotate(64.0 400 300)" x="784" y="438" width="300" height="284"></rect>
<ellipse stroke="#2b55f7" stroke-width="4" fill="#ed2b2c" opacity="0.17281764623245305" stroke-opacity="0.3223982624835169" transform="rotate(-33.0 400 300)" cx="2" rx="276" cy="253" ry="262"></ellipse>
<rect stroke="#f27630" stroke-width="2" fill="#f9d84b" opacity="0.4833621384204203" stroke-opacity="0.7054823072696188" transform="rotate(98.0 400 300)" x="123" y="108" width="221" height="392"></rect>
<rect stroke="#f27630" stroke-width="6" fill="#31a06b" opacity="0.7289562505445393" stroke-opacity="0.1884569684261824" transform="rotate(1.0 400 300)" x="625" y="9" width="230" height="177"></rect>
<rect stroke="#2b55f7" stroke-width="2" fill="#ed2b2c" opacity="0.3283939016570127" stroke-opacity="0.6450353279358623" transform="rotate(-17.0 400 300)" x="592" y="433" width="325" height="107"></rect>
<rect stroke="#f9d84b" stroke-width="2" fill="#2b55f7" opacity="0.9307944916792857" stroke-opacity="0.009147352709920026" transform="rotate(123.0 400 300)" x="574" y="326" width="211" height="176"></rect>

  </g>
</svg>
