<?xml version="1.0" encoding="UTF-8"?>
<svg width="800px" height="600px" viewBox="0 0 800 600" version="1.1" xmlns="http://www.w3.org/2000/svg" xmlns:xlink="http://www.w3.org/1999/xlink">
  <defs></defs>
  <g stroke="none" stroke-width="1" fill="none" fill-rule="evenodd">
    
    <path stroke="#0fa6d8" stroke-width="1" fill="#2cd3f3" opacity="0.7850466548810751" stroke-opacity="0.16115456258813327" transform="rotate(-120.0 400 300)" d="M 360,234  C 488,138 480,269 315,488 C 493,207 132,140 379,327 C 444,312 461,332 635,262 C 205,345 552,405 262,101 C 318,143 613,245 441,122 Z"></path>
<path stroke="#fe9225" stroke-width="2" fill="#0fa6d8" opacity="0.20036655802393918" stroke-opacity="0.39215185585481915" transform="rotate(115.0 400 300)" d="M 210,493  C 506,193 488,168 147,184 C 530,107 571,355 440,391 C 411,475 476,188 661,105 C 214,153 610,446 399,208 C 338,446 212,192 617,106 C 538,147 115,105 576,423 C 424,259 445,310 306,464 C 133,304 347,297 422,366 Z"></path>
<path stroke="#02eb6b" stroke-width="7" fill="#02eb6b" opacity="0.029088544435418334" stroke-opacity="0.9885025095918667" transform="rotate(-79.0 400 300)" d="M 594,207  C 386,203 130,396 288,168 C 346,487 562,354 647,348 C 202,232 213,271 538,222 C 433,131 574,295 470,410 C 605,258 220,247 109,159 C 627,302 132,159 585,198 C 455,175 556,163 596,366 C 204,489 133,136 554,479 C 383,419 238,341 208,438 C 447,474 693,217 479,161 C 348,221 659,458 249,135 Z"></path>
<path stroke="#f559a0" stroke-width="4" fill="#f559a0" opacity="0.26361558768694643" stroke-opacity="0.19657769281512713" transform="rotate(0.0 400 300)" d="M 473,175  C 633,178 380,365 499,485 C 514,176 370,114 628,429 C 569,212 212,106 214,219 C 388,254 375,372 662,297 C 267,371 666,154 152,198 C 639,208 471,385 491,307 C 447,241 346,111 402,287 Z"></path>
<path stroke="#f559a0" stroke-width="1" fill="#f559a0" opacity="0.44923369337171604" stroke-opacity="0.14015719318680758" transform="rotate(-155.0 400 300)" d="M 360,447  C 555,243 554,394 640,152 C 346,298 116,340 399,164 C 632,442 649,483 275,230 C 693,160 537,170 167,215 C 448,488 183,187 692,198 C 480,158 202,183 667,196 Z"></path>
<path stroke="#2cd3f3" stroke-width="6" fill="#2cd3f3" opacity="0.31350489191566955" stroke-opacity="0.06659332289684058" transform="rotate(48.0 400 300)" d="M 474,345  C 438,459 236,328 368,186 C 111,382 238,268 322,440 C 400,106 390,364 111,135 C 660,418 512,311 641,192 C 378,300 670,361 455,378 C 179,308 355,101 341,305 C 252,300 470,287 209,451 C 328,424 598,306 512,341 C 544,220 512,392 229,125 C 282,191 168,263 479,167 C 493,154 211,446 208,104 Z"></path>
<path stroke="#f559a0" stroke-width="3" fill="#02eb6b" opacity="0.9785256016464342" stroke-opacity="0.005280486356847924" transform="rotate(156.0 400 300)" d="M 153,394  C 626,276 211,297 430,281 C 673,444 175,267 158,386 C 267,383 139,391 444,403 C 322,193 330,486 414,324 C 345,214 248,480 457,330 C 135,490 281,409 107,395 C 398,167 648,117 567,270 Z"></path>

  </g>
</svg>
