<?xml version="1.0" encoding="UTF-8"?>
<svg width="800px" height="600px" viewBox="0 0 800 600" version="1.1" xmlns="http://www.w3.org/2000/svg" xmlns:xlink="http://www.w3.org/1999/xlink">
  <defs></defs>
  <g stroke="none" stroke-width="1" fill="none" fill-rule="evenodd">
    
    <ellipse stroke="#f9d84b" stroke-width="1" fill="#f27630" opacity="0.590958813989126" stroke-opacity="0.5925895953799429" transform="rotate(143.0 400 300)" cx="799" rx="437" cy="330" ry="52"></ellipse>
<rect stroke="#ed2b2c" stroke-width="2" fill="#f27630" opacity="0.9263873299028469" stroke-opacity="0.694312759466672" transform="rotate(135.0 400 300)" x="588" y="155" width="325" height="34"></rect>
<ellipse stroke="#ed2b2c" stroke-width="4" fill="#f9d84b" opacity="0.15856662101557878" stroke-opacity="0.504329630840135" transform="rotate(-169.0 400 300)" cx="19" rx="253" cy="219" ry="309"></ellipse>
<polygon stroke="#ed2b2c" stroke-width="7" fill="#f9d84b" opacity="0.6841080352087755" stroke-opacity="0.601259518667527" transform="rotate(95.0 400 300)" points="684 418 170 38 189 399 645 92 626 577 416 555 767 433 "></polygon>
<rect stroke="#f27630" stroke-width="5" fill="#f27630" opacity="0.7657709462267385" stroke-opacity="0.5619401436779973" transform="rotate(134.0 400 300)" x="624" y="529" width="108" height="203"></rect>
<path stroke="#ed2b2c" stroke-width="3" fill="#f9d84b" opacity="0.058870663438156744" stroke-opacity="0.41031748362077175" transform="rotate(-114.0 400 300)" d="M 344,230  C 579,332 622,329 501,277 C 598,348 444,210 633,238 C 221,223 279,140 631,401 C 575,312 303,385 680,213 C 133,170 653,266 552,155 C 262,356 654,482 474,482 C 361,303 486,409 606,396 C 490,321 435,348 176,401 C 261,292 483,251 680,144 C 373,221 680,152 487,275 Z"></path>
<ellipse stroke="#31a06b" stroke-width="1" fill="#31a06b" opacity="0.582990749425678" stroke-opacity="0.6869545285957592" transform="rotate(-175.0 400 300)" cx="170" rx="443" cy="149" ry="52"></ellipse>
<rect stroke="#f27630" stroke-width="5" fill="#ed2b2c" opacity="0.869249152823282" stroke-opacity="0.9821154927040819" transform="rotate(32.0 400 300)" x="275" y="356" width="303" height="228"></rect>
<rect stroke="#2b55f7" stroke-width="4" fill="#31a06b" opacity="0.16445571701830888" stroke-opacity="0.7208563842165014" transform="rotate(100.0 400 300)" x="565" y="304" width="336" height="48"></rect>

  </g>
</svg>
