<svg xmlns="http://www.w3.org/2000/svg" xmlns:xlink="http://www.w3.org/1999/xlink" width="800" height="600" version="1.1" viewBox="0 0 800 600"><g fill="none" fill-rule="evenodd" stroke="none" stroke-width="1"><ellipse cx="799" cy="330" fill="#f27630" stroke="#f9d84b" stroke-opacity=".593" stroke-width="1" opacity=".591" rx="437" ry="52" transform="rotate(143.0 400 300)"/><rect width="325" height="34" x="588" y="155" fill="#f27630" stroke="#ed2b2c" stroke-opacity=".694" stroke-width="2" opacity=".926" transform="rotate(135.0 400 300)"/><ellipse cx="19" cy="219" fill="#f9d84b" stroke="#ed2b2c" stroke-opacity=".504" stroke-width="4" opacity=".159" rx="253" ry="309" transform="rotate(-169.0 400 300)"/><polygon fill="#f9d84b" stroke="#ed2b2c" stroke-opacity=".601" stroke-width="7" points="684 418 170 38 189 399 645 92 626 577 416 555 767 433" opacity=".684" transform="rotate(95.0 400 300)"/><rect width="108" height="203" x="624" y="529" fill="#f27630" stroke="#f27630" stroke-opacity=".562" stroke-width="5" opacity=".766" transform="rotate(134.0 400 300)"/><path fill="#f9d84b" stroke="#ed2b2c" stroke-opacity=".41" stroke-width="3" d="M 344,230 C 579,332 622,329 501,277 C 598,348 444,210 633,238 C 221,223 279,140 631,401 C 575,312 303,385 680,213 C 133,170 653,266 552,155 C 262,356 654,482 474,482 C 361,303 486,409 606,396 C 490,321 435,348 176,401 C 261,292 483,251 680,144 C 373,221 680,152 487,275 Z" opacity=".059" transform="rotate(-114.0 400 300)"/><ellipse cx="170" cy="149" fill="#31a06b" stroke="#31a06b" stroke-opacity=".687" stroke-width="1" opacity=".583" rx="443" ry="52" transform="rotate(-175.0 400 300)"/><rect width="303" height="228" x="275" y="356" fill="#ed2b2c" stroke="#f27630" stroke-opacity=".982" stroke-width="5" opacity=".869" transform="rotate(32.0 400 300)"/><rect width="336" height="48" x="565" y="304" fill="#31a06b" stroke="#2b55f7" stroke-opacity=".721" stroke-width="4" opacity=".164" transform="rotate(100.0 400 300)"/></g></svg>