<?xml version="1.0" encoding="UTF-8"?>
<svg width="800px" height="600px" viewBox="0 0 800 600" version="1.1" xmlns="http://www.w3.org/2000/svg" xmlns:xlink="http://www.w3.org/1999/xlink">
  <defs></defs>
  <g stroke="none" stroke-width="1" fill="none" fill-rule="evenodd">
    
    <path stroke="#9A58A6" stroke-width="2" fill="#A2B8D2" opacity="0.15430350838800147" stroke-opacity="0.14282567140934355" transform="rotate(102.0 400 300)" d="M 542,423  C 314,249 190,410 607,164 C 592,444 123,116 318,135 C 416,253 596,321 291,395 C 495,227 278,408 454,461 C 545,402 432,209 200,117 C 161,396 438,215 344,308 C 314,342 304,215 565,398 Z"></path>
<path stroke="#8B1CAC" stroke-width="7" fill="#A28405" opacity="0.9491440482339205" stroke-opacity="0.043026763436704106" transform="rotate(55.0 400 300)" d="M 130,274  C 399,261 428,301 679,444 C 340,310 168,197 164,404 C 619,433 686,355 618,329 C 561,446 372,237 190,215 C 588,438 387,129 104,292 C 410,113 507,341 321,368 Z"></path>
<path stroke="#871545" stroke-width="5" fill="#340349" opacity="0.0868143617039175" stroke-opacity="0.8499310793892151" transform="rotate(-157.0 400 300)" d="M 313,385  C 501,218 433,103 226,285 C 268,120 272,365 530,341 C 571,346 533,276 496,483 C 204,294 132,152 134,176 C 402,331 250,432 147,479 C 671,246 123,142 578,215 Z"></path>
<path stroke="#B69AD7" stroke-width="4" fill="#8C2925" opacity="0.018266213682877373" stroke-opacity="0.4797675590597167" transform="rotate(117.0 400 300)" d="M 570,112  C 260,131 564,327 554,111 C 526,173 407,296 368,487 C 465,375 679,149 371,457 C 508,165 262,268 182,171 C 425,420 682,195 215,385 C 493,121 619,425 444,195 C 583,493 551,176 222,273 C 104,122 581,423 455,224 Z"></path>
<path stroke="#6C327D" stroke-width="5" fill="#C7A043" opacity="0.7857439295745751" stroke-opacity="0.17334386156123222" transform="rotate(-155.0 400 300)" d="M 110,488  C 352,250 210,113 427,376 C 571,429 343,337 372,114 C 622,287 418,183 699,442 C 420,366 391,243 474,158 C 344,426 205,438 597,301 C 386,419 243,105 316,489 C 605,407 337,156 691,408 C 486,368 404,107 420,243 C 131,480 264,371 354,360 Z"></path>
<path stroke="#5B6D62" stroke-width="7" fill="#768B7C" opacity="0.6240487172210922" stroke-opacity="0.1103063378877227" transform="rotate(-168.0 400 300)" d="M 578,388  C 107,451 382,171 481,406 C 123,413 628,329 585,236 C 336,114 551,230 143,224 C 152,321 370,282 411,252 C 333,190 528,429 520,331 C 669,297 136,127 489,202 C 690,170 237,435 359,170 C 275,283 545,128 105,351 C 593,334 143,462 358,362 Z"></path>
<path stroke="#9529DB" stroke-width="6" fill="#D29187" opacity="0.5080222815615087" stroke-opacity="0.5204345923852856" transform="rotate(-155.0 400 300)" d="M 564,486  C 249,390 440,225 298,150 C 234,482 551,354 651,115 C 302,392 437,162 120,324 C 220,160 290,349 385,220 C 340,209 123,172 286,336 C 449,361 176,154 236,355 C 665,114 586,440 425,383 C 687,465 525,132 648,413 C 240,248 188,350 684,143 C 594,483 411,340 461,365 C 256,311 688,157 357,122 Z"></path>
<path stroke="#B66138" stroke-width="5" fill="#2C12B9" opacity="0.8662994411961282" stroke-opacity="0.8444731041983156" transform="rotate(-80.0 400 300)" d="M 528,187  C 388,279 504,466 533,266 C 664,305 424,174 665,365 C 351,284 426,312 449,378 C 258,348 252,194 586,442 C 384,437 633,144 166,185 C 672,318 175,206 554,449 C 243,133 434,295 688,253 C 349,410 573,445 365,194 C 546,280 234,241 215,157 C 296,404 284,381 201,431 C 610,452 599,103 613,327 Z"></path>
<path stroke="#094D95" stroke-width="4" fill="#860120" opacity="0.6003400804337948" stroke-opacity="0.2315128672957728" transform="rotate(-16.0 400 300)" d="M 400,232  C 667,254 144,178 293,366 C 378,266 631,466 598,428 C 347,495 423,458 607,168 C 548,325 130,185 630,496 C 185,119 492,220 328,258 Z"></path>
<path stroke="#C6C20D" stroke-width="3" fill="#AD7101" opacity="0.06088660921626501" stroke-opacity="0.1694975399396133" transform="rotate(-73.0 400 300)" d="M 305,187  C 539,357 366,397 248,200 C 325,341 699,395 193,137 C 181,268 605,298 410,222 C 424,325 120,254 528,161 C 168,357 419,456 285,257 C 214,220 438,358 206,399 C 390,154 649,356 647,375 Z"></path>
<path stroke="#024D0B" stroke-width="7" fill="#266C1A" opacity="0.5146365590032101" stroke-opacity="0.5862881808831891" transform="rotate(-39.0 400 300)" d="M 633,258  C 179,133 629,343 565,389 C 232,271 208,470 395,210 C 230,145 106,418 379,202 C 335,277 530,438 126,163 Z"></path>

  </g>
</svg>
