<?xml version="1.0" encoding="UTF-8"?>
<svg width="800px" height="600px" viewBox="0 0 800 600" version="1.1" xmlns="http://www.w3.org/2000/svg" xmlns:xlink="http://www.w3.org/1999/xlink">
  <defs></defs>
  <g stroke="none" stroke-width="1" fill="none" fill-rule="evenodd">
    
    <path stroke="#60D687" stroke-width="6" fill="#788A42" opacity="0.7892715273649104" stroke-opacity="0.7897275814262558" transform="rotate(-78.0 400 300)" d="M 363,115  C 688,397 199,146 289,266 C 587,478 684,379 265,406 C 641,453 210,244 640,215 C 452,442 278,205 130,279 C 129,192 250,280 482,231 C 103,336 297,260 632,332 C 120,243 312,177 674,191 C 267,208 109,204 551,294 C 497,395 417,138 556,149 C 609,131 122,351 134,276 Z"></path>
<path stroke="#D2A626" stroke-width="1" fill="#701D26" opacity="0.04990506612153992" stroke-opacity="0.3335825264521249" transform="rotate(9.0 400 300)" d="M 150,292  C 299,315 379,309 229,376 C 683,319 692,129 358,239 C 135,472 593,333 580,139 C 430,326 131,189 667,353 C 443,272 616,476 466,229 C 411,175 150,171 269,301 C 228,252 309,113 323,381 C 598,478 684,201 499,343 C 529,285 354,490 307,404 C 402,349 379,358 365,259 Z"></path>
<path stroke="#A70435" stroke-width="4" fill="#86829A" opacity="0.9768481656675" stroke-opacity="0.16462065315718188" transform="rotate(-58.0 400 300)" d="M 208,357  C 475,288 328,458 148,236 C 659,123 546,432 486,400 C 389,234 696,251 604,421 C 408,247 475,489 646,218 Z"></path>
<path stroke="#32610D" stroke-width="7" fill="#D7993B" opacity="0.659816678974004" stroke-opacity="0.7555065949432426" transform="rotate(-126.0 400 300)" d="M 107,231  C 586,177 553,436 516,107 C 234,307 552,147 344,177 C 274,264 133,246 423,266 C 565,344 377,285 580,228 C 425,342 351,244 437,254 C 200,335 268,470 304,285 C 567,407 152,227 583,390 C 517,350 679,417 526,361 Z"></path>
<path stroke="#725DC9" stroke-width="7" fill="#0C0856" opacity="0.14214306666519053" stroke-opacity="0.696392724438028" transform="rotate(-147.0 400 300)" d="M 649,124  C 601,332 406,253 202,312 C 392,484 617,288 631,333 C 579,370 472,183 616,324 C 365,206 507,126 403,273 C 275,216 365,162 360,422 C 438,246 601,123 464,134 C 339,150 569,255 366,465 C 457,167 169,445 135,477 Z"></path>
<path stroke="#6A1DC1" stroke-width="3" fill="#47BAB2" opacity="0.3973269579108622" stroke-opacity="0.7577756747278328" transform="rotate(34.0 400 300)" d="M 330,204  C 560,159 205,284 666,312 C 109,427 509,214 419,327 C 369,469 237,157 503,460 C 555,348 111,374 201,116 C 687,414 630,472 171,212 C 323,242 564,418 123,209 C 359,123 406,130 267,288 C 440,246 156,213 573,448 C 121,184 177,220 106,340 C 105,214 406,255 635,263 Z"></path>
<path stroke="#B52923" stroke-width="6" fill="#05A05B" opacity="0.6371354501517495" stroke-opacity="0.3357627115163736" transform="rotate(124.0 400 300)" d="M 349,208  C 261,185 315,130 665,379 C 621,426 258,397 249,172 C 118,382 239,144 177,332 C 151,143 459,189 637,474 C 185,296 559,394 201,204 C 440,291 633,282 527,356 C 109,103 193,205 116,124 C 681,443 522,309 493,144 C 467,117 124,108 637,183 Z"></path>
<path stroke="#2BC417" stroke-width="3" fill="#35DB34" opacity="0.8350057839945472" stroke-opacity="0.9969658270241064" transform="rotate(-170.0 400 300)" d="M 108,159  C 558,194 517,274 438,230 C 641,123 456,136 602,128 C 166,484 575,367 381,439 C 534,462 441,274 253,292 C 422,358 506,384 423,159 Z"></path>

  </g>
</svg>
