<svg xmlns="http://www.w3.org/2000/svg" xmlns:xlink="http://www.w3.org/1999/xlink" width="800" height="600" version="1.1" viewBox="0 0 800 600"><g fill="none" fill-rule="evenodd" stroke="none" stroke-width="1"><path fill="#4649A6" stroke="#2C692C" stroke-opacity=".902" stroke-width="6" d="M 205,350 C 387,213 290,152 546,170 C 265,482 275,112 350,296 C 594,199 303,308 556,404 C 521,330 277,297 376,465 C 120,395 228,303 368,332 C 523,112 225,104 426,297 C 200,492 356,219 350,273 Z" opacity=".282" transform="rotate(89.0 400 300)"/><path fill="#4120A6" stroke="#04AB95" stroke-opacity=".074" stroke-width="1" d="M 518,122 C 195,314 555,382 570,164 C 551,231 424,283 182,173 C 697,369 110,273 251,347 C 656,199 544,308 221,164 C 120,191 410,261 696,327 C 510,465 253,161 294,138 C 377,216 246,314 213,415 C 608,274 564,278 433,462 Z" opacity=".389" transform="rotate(-71.0 400 300)"/><path fill="#5688C0" stroke="#BB9C33" stroke-opacity=".013" stroke-width="3" d="M 662,171 C 469,441 111,126 456,151 C 116,378 306,484 672,490 C 210,157 261,367 257,263 C 242,281 349,257 269,120 C 155,154 600,434 698,173 C 355,180 603,459 563,114 C 315,375 455,342 383,379 C 524,150 161,409 653,396 C 242,435 519,447 510,273 C 132,364 352,429 248,242 Z" opacity=".708" transform="rotate(122.0 400 300)"/><path fill="#9512B8" stroke="#C31723" stroke-opacity=".096" stroke-width="3" d="M 506,462 C 303,312 671,190 150,269 C 427,279 371,415 533,169 C 128,246 525,329 652,284 C 467,130 136,113 276,115 C 169,293 355,444 501,432 C 504,314 642,369 470,357 C 462,180 280,322 489,103 Z" opacity=".616" transform="rotate(-17.0 400 300)"/><path fill="#441238" stroke="#ABD9A3" stroke-opacity=".365" stroke-width="2" d="M 396,393 C 194,399 108,401 471,150 C 196,129 119,315 167,134 C 671,302 387,488 283,407 C 196,469 632,410 388,360 C 248,465 643,323 145,133 C 651,282 472,458 201,408 C 279,385 267,131 501,338 C 238,177 230,120 338,318 C 332,209 232,270 177,236 C 513,420 688,237 513,178 Z" opacity=".387" transform="rotate(-40.0 400 300)"/><path fill="#ABCCD1" stroke="#51454B" stroke-opacity=".682" stroke-width="6" d="M 348,276 C 519,440 229,444 597,486 C 445,323 693,214 459,390 C 245,478 528,246 380,106 C 456,379 644,282 264,356 Z" opacity=".657" transform="rotate(11.0 400 300)"/></g></svg>