<?xml version="1.0" encoding="UTF-8"?>
<svg width="800px" height="600px" viewBox="0 0 800 600" version="1.1" xmlns="http://www.w3.org/2000/svg" xmlns:xlink="http://www.w3.org/1999/xlink">
  <defs></defs>
  <g stroke="none" stroke-width="1" fill="none" fill-rule="evenodd">
    
    <ellipse stroke="#2b55f7" stroke-width="3" fill="#31a06b" opacity="0.47019846764532325" stroke-opacity="0.7757380168288526" transform="rotate(-146.0 400 300)" cx="658" rx="128" cy="106" ry="147"></ellipse>
<polygon stroke="#f9d84b" stroke-width="4" fill="#f9d84b" opacity="0.7835216137585712" stroke-opacity="0.8457709128450194" transform="rotate(-120.0 400 300)" points="181 33 723 232 492 412 35 479 415 301 667 599 388 218 "></polygon>
<polygon stroke="#31a06b" stroke-width="6" fill="#ed2b2c" opacity="0.19014425016453734" stroke-opacity="0.3437354158707613" transform="rotate(-60.0 400 300)" points="597 549 699 176 64 312 721 58 177 234 612 237 403 541 493 39 "></polygon>
<rect stroke="#f27630" stroke-width="6" fill="#f9d84b" opacity="0.4107366089129064" stroke-opacity="0.8921802670540803" transform="rotate(-122.0 400 300)" x="165" y="476" width="81" height="109"></rect>
<polygon stroke="#2b55f7" stroke-width="6" fill="#f9d84b" opacity="0.011120400540123622" stroke-opacity="0.17433097170448453" transform="rotate(-54.0 400 300)" points="679 219 519 78 438 92 51 564 187 582 "></polygon>
<polygon stroke="#f27630" stroke-width="6" fill="#2b55f7" opacity="0.31305350071212934" stroke-opacity="0.6008615095495752" transform="rotate(90.0 400 300)" points="70 399 309 520 416 74 105 516 252 222 709 100 "></polygon>
<path stroke="#2b55f7" stroke-width="4" fill="#ed2b2c" opacity="0.8894078377739484" stroke-opacity="0.16302277201262427" transform="rotate(-71.0 400 300)" d="M 401,470  C 370,494 482,434 560,414 C 163,121 266,482 310,461 C 199,197 559,340 389,325 C 628,472 135,366 370,431 C 304,150 269,216 190,491 C 535,410 179,110 485,178 C 370,112 453,144 333,441 C 402,428 183,463 490,219 Z"></path>
<rect stroke="#ed2b2c" stroke-width="3" fill="#31a06b" opacity="0.7511152868261654" stroke-opacity="0.3787725285134055" transform="rotate(-84.0 400 300)" x="101" y="399" width="343" height="259"></rect>
<polygon stroke="#ed2b2c" stroke-width="2" fill="#ed2b2c" opacity="0.755177868987525" stroke-opacity="0.31802435647151533" transform="rotate(-135.0 400 300)" points="653 72 129 299 575 234 213 92 426 242 70 360 296 461 203 163 "></polygon>

  </g>
</svg>
