<svg xmlns="http://www.w3.org/2000/svg" xmlns:xlink="http://www.w3.org/1999/xlink" width="800" height="600" version="1.1" viewBox="0 0 800 600"><g fill="none" fill-rule="evenodd" stroke="none" stroke-width="1"><ellipse cx="658" cy="106" fill="#31a06b" stroke="#2b55f7" stroke-opacity=".776" stroke-width="3" opacity=".47" rx="128" ry="147" transform="rotate(-146.0 400 300)"/><polygon fill="#f9d84b" stroke="#f9d84b" stroke-opacity=".846" stroke-width="4" points="181 33 723 232 492 412 35 479 415 301 667 599 388 218" opacity=".784" transform="rotate(-120.0 400 300)"/><polygon fill="#ed2b2c" stroke="#31a06b" stroke-opacity=".344" stroke-width="6" points="597 549 699 176 64 312 721 58 177 234 612 237 403 541 493 39" opacity=".19" transform="rotate(-60.0 400 300)"/><rect width="81" height="109" x="165" y="476" fill="#f9d84b" stroke="#f27630" stroke-opacity=".892" stroke-width="6" opacity=".411" transform="rotate(-122.0 400 300)"/><polygon fill="#f9d84b" stroke="#2b55f7" stroke-opacity=".174" stroke-width="6" points="679 219 519 78 438 92 51 564 187 582" opacity=".011" transform="rotate(-54.0 400 300)"/><polygon fill="#2b55f7" stroke="#f27630" stroke-opacity=".601" stroke-width="6" points="70 399 309 520 416 74 105 516 252 222 709 100" opacity=".313" transform="rotate(90.0 400 300)"/><path fill="#ed2b2c" stroke="#2b55f7" stroke-opacity=".163" stroke-width="4" d="M 401,470 C 370,494 482,434 560,414 C 163,121 266,482 310,461 C 199,197 559,340 389,325 C 628,472 135,366 370,431 C 304,150 269,216 190,491 C 535,410 179,110 485,178 C 370,112 453,144 333,441 C 402,428 183,463 490,219 Z" opacity=".889" transform="rotate(-71.0 400 300)"/><rect width="343" height="259" x="101" y="399" fill="#31a06b" stroke="#ed2b2c" stroke-opacity=".379" stroke-width="3" opacity=".751" transform="rotate(-84.0 400 300)"/><polygon fill="#ed2b2c" stroke="#ed2b2c" stroke-opacity=".318" stroke-width="2" points="653 72 129 299 575 234 213 92 426 242 70 360 296 461 203 163" opacity=".755" transform="rotate(-135.0 400 300)"/></g></svg>