<?xml version="1.0" encoding="UTF-8"?>
<svg width="800px" height="600px" viewBox="0 0 800 600" version="1.1" xmlns="http://www.w3.org/2000/svg" xmlns:xlink="http://www.w3.org/1999/xlink">
  <defs></defs>
  <g stroke="none" stroke-width="1" fill="none" fill-rule="evenodd">
    
    <path stroke="#2cd3f3" stroke-width="6" fill="#02eb6b" opacity="0.6558603365582049" stroke-opacity="0.624596873519985" transform="rotate(46.0 400 300)" d="M 258,467  C 478,238 642,407 243,154 C 609,127 338,419 620,394 C 691,101 443,365 282,162 C 673,459 198,323 248,307 C 144,432 468,391 162,421 C 433,131 586,362 697,338 C 403,299 657,439 195,307 C 379,303 588,361 144,149 C 181,253 572,102 108,395 C 435,219 569,427 467,418 C 433,102 187,232 135,215 Z"></path>
<path stroke="#fe9225" stroke-width="4" fill="#0fa6d8" opacity="0.4495430603276131" stroke-opacity="0.05070948549970817" transform="rotate(-126.0 400 300)" d="M 565,158  C 499,174 544,403 204,394 C 307,404 166,211 614,488 C 129,429 318,446 591,135 C 212,454 427,238 155,499 C 488,404 582,411 111,206 C 271,278 434,468 233,414 C 597,486 123,373 485,167 C 539,184 253,131 471,132 C 165,438 426,281 254,467 C 453,129 499,453 522,494 Z"></path>
<ellipse stroke="#0fa6d8" stroke-width="1" fill="#f559a0" opacity="0.8927476118194221" stroke-opacity="0.10361266412773718" transform="rotate(-66.0 400 300)" cx="770" rx="293" cy="551" ry="200"></ellipse>
<polygon stroke="#02eb6b" stroke-width="5" fill="#fe9225" opacity="0.009552339002700486" stroke-opacity="0.21522998888653566" transform="rotate(31.0 400 300)" points="390 429 109 242 418 321 47 137 323 575 "></polygon>
<rect stroke="#0fa6d8" stroke-width="2" fill="#2cd3f3" opacity="0.06760052117888456" stroke-opacity="0.755084472946977" transform="rotate(97.0 400 300)" x="499" y="76" width="37" height="342"></rect>
<polygon stroke="#02eb6b" stroke-width="4" fill="#2cd3f3" opacity="0.5647214444796471" stroke-opacity="0.9237684458656243" transform="rotate(6.0 400 300)" points="207 15 752 290 571 190 97 371 694 552 58 572 702 253 "></polygon>
<ellipse stroke="#0fa6d8" stroke-width="6" fill="#f559a0" opacity="0.40014544354943166" stroke-opacity="0.6254538854137263" transform="rotate(62.0 400 300)" cx="611" rx="385" cy="271" ry="34"></ellipse>
<ellipse stroke="#2cd3f3" stroke-width="2" fill="#02eb6b" opacity="0.4850848281951712" stroke-opacity="0.87748724077237" transform="rotate(-44.0 400 300)" cx="53" rx="346" cy="221" ry="133"></ellipse>
<path stroke="#0fa6d8" stroke-width="4" fill="#2cd3f3" opacity="0.2961234411833935" stroke-opacity="0.5749023091776346" transform="rotate(-46.0 400 300)" d="M 665,349  C 221,463 423,394 321,149 C 675,489 581,200 601,136 C 313,308 355,111 138,247 C 490,201 119,230 569,216 C 139,232 569,393 464,375 C 266,379 377,277 532,147 C 378,125 669,154 310,476 C 150,293 137,226 673,321 C 336,449 631,130 476,287 C 517,273 337,258 334,115 C 189,267 344,491 283,451 Z"></path>

  </g>
</svg>
