<svg xmlns="http://www.w3.org/2000/svg" xmlns:xlink="http://www.w3.org/1999/xlink" width="800" height="600" version="1.1" viewBox="0 0 800 600"><g fill="none" fill-rule="evenodd" stroke="none" stroke-width="1"><path fill="#02eb6b" stroke="#2cd3f3" stroke-opacity=".625" stroke-width="6" d="M 258,467 C 478,238 642,407 243,154 C 609,127 338,419 620,394 C 691,101 443,365 282,162 C 673,459 198,323 248,307 C 144,432 468,391 162,421 C 433,131 586,362 697,338 C 403,299 657,439 195,307 C 379,303 588,361 144,149 C 181,253 572,102 108,395 C 435,219 569,427 467,418 C 433,102 187,232 135,215 Z" opacity=".656" transform="rotate(46.0 400 300)"/><path fill="#0fa6d8" stroke="#fe9225" stroke-opacity=".051" stroke-width="4" d="M 565,158 C 499,174 544,403 204,394 C 307,404 166,211 614,488 C 129,429 318,446 591,135 C 212,454 427,238 155,499 C 488,404 582,411 111,206 C 271,278 434,468 233,414 C 597,486 123,373 485,167 C 539,184 253,131 471,132 C 165,438 426,281 254,467 C 453,129 499,453 522,494 Z" opacity=".45" transform="rotate(-126.0 400 300)"/><ellipse cx="770" cy="551" fill="#f559a0" stroke="#0fa6d8" stroke-opacity=".104" stroke-width="1" opacity=".893" rx="293" ry="200" transform="rotate(-66.0 400 300)"/><polygon fill="#fe9225" stroke="#02eb6b" stroke-opacity=".215" stroke-width="5" points="390 429 109 242 418 321 47 137 323 575" opacity=".01" transform="rotate(31.0 400 300)"/><rect width="37" height="342" x="499" y="76" fill="#2cd3f3" stroke="#0fa6d8" stroke-opacity=".755" stroke-width="2" opacity=".068" transform="rotate(97.0 400 300)"/><polygon fill="#2cd3f3" stroke="#02eb6b" stroke-opacity=".924" stroke-width="4" points="207 15 752 290 571 190 97 371 694 552 58 572 702 253" opacity=".565" transform="rotate(6.0 400 300)"/><ellipse cx="611" cy="271" fill="#f559a0" stroke="#0fa6d8" stroke-opacity=".625" stroke-width="6" opacity=".4" rx="385" ry="34" transform="rotate(62.0 400 300)"/><ellipse cx="53" cy="221" fill="#02eb6b" stroke="#2cd3f3" stroke-opacity=".877" stroke-width="2" opacity=".485" rx="346" ry="133" transform="rotate(-44.0 400 300)"/><path fill="#2cd3f3" stroke="#0fa6d8" stroke-opacity=".575" stroke-width="4" d="M 665,349 C 221,463 423,394 321,149 C 675,489 581,200 601,136 C 313,308 355,111 138,247 C 490,201 119,230 569,216 C 139,232 569,393 464,375 C 266,379 377,277 532,147 C 378,125 669,154 310,476 C 150,293 137,226 673,321 C 336,449 631,130 476,287 C 517,273 337,258 334,115 C 189,267 344,491 283,451 Z" opacity=".296" transform="rotate(-46.0 400 300)"/></g></svg>