<svg xmlns="http://www.w3.org/2000/svg" xmlns:xlink="http://www.w3.org/1999/xlink" width="800" height="600" version="1.1" viewBox="0 0 800 600"><g fill="none" fill-rule="evenodd" stroke="none" stroke-width="1"><path fill="#58AA5D" stroke="#AC3728" stroke-opacity=".385" stroke-width="1" d="M 607,357 C 260,223 510,303 241,306 C 482,193 571,431 198,342 C 691,158 481,333 542,315 C 344,399 155,475 171,146 C 666,427 545,316 443,489 C 620,125 544,219 434,183 C 218,113 461,308 201,130 C 161,140 186,304 667,351 C 426,364 651,483 404,317 Z" opacity=".856" transform="rotate(-170.0 400 300)"/><polygon fill="#21CD1D" stroke="#34BAA1" stroke-opacity=".062" stroke-width="7" points="650 195 91 525 679 569 360 28 178 574" opacity=".354" transform="rotate(84.0 400 300)"/><ellipse cx="164" cy="398" fill="#0C697C" stroke="#51D4D1" stroke-opacity=".961" stroke-width="1" opacity=".213" rx="156" ry="253" transform="rotate(-37.0 400 300)"/><path fill="#6734BD" stroke="#915381" stroke-opacity=".085" stroke-width="4" d="M 346,373 C 428,399 415,344 156,108 C 236,132 500,455 461,104 C 281,438 568,103 341,383 C 167,350 370,461 119,478 C 683,492 226,387 152,130 Z" opacity=".594" transform="rotate(-18.0 400 300)"/><polygon fill="#211217" stroke="#A36979" stroke-opacity=".863" stroke-width="2" points="70 138 420 522 218 376 434 549 4 309" opacity=".716" transform="rotate(168.0 400 300)"/><polygon fill="#8AA313" stroke="#378B17" stroke-opacity=".217" stroke-width="4" points="519 458 614 391 436 68 737 333 224 72" opacity=".612" transform="rotate(-37.0 400 300)"/><ellipse cx="303" cy="456" fill="#38B404" stroke="#C23476" stroke-opacity=".957" stroke-width="4" opacity=".152" rx="108" ry="289" transform="rotate(146.0 400 300)"/><path fill="#734798" stroke="#17A413" stroke-opacity=".07" stroke-width="1" d="M 642,480 C 133,343 198,124 258,459 C 373,333 378,161 210,201 C 689,241 597,458 570,450 C 642,242 632,221 390,305 C 144,387 170,456 477,136 C 278,360 199,387 548,319 Z" opacity=".351" transform="rotate(-79.0 400 300)"/><ellipse cx="476" cy="171" fill="#A41646" stroke="#CC9B78" stroke-opacity=".711" stroke-width="2" opacity=".115" rx="225" ry="223" transform="rotate(132.0 400 300)"/><rect width="170" height="85" x="359" y="537" fill="#C1A697" stroke="#9C0CC8" stroke-opacity=".456" stroke-width="5" opacity=".324" transform="rotate(114.0 400 300)"/><path fill="#0857B9" stroke="#88A887" stroke-opacity=".656" stroke-width="1" d="M 168,208 C 154,328 393,204 221,431 C 177,182 568,455 571,299 C 403,175 682,430 540,312 C 187,351 692,209 400,484 C 113,262 517,364 280,461 Z" opacity=".128" transform="rotate(150.0 400 300)"/></g></svg>