<?xml version="1.0" encoding="UTF-8"?>
<svg width="800px" height="600px" viewBox="0 0 800 600" version="1.1" xmlns="http://www.w3.org/2000/svg" xmlns:xlink="http://www.w3.org/1999/xlink">
  <defs></defs>
  <g stroke="none" stroke-width="1" fill="none" fill-rule="evenodd">
    
    <polygon stroke="#C4C084" stroke-width="3" fill="#8CB4A1" opacity="0.6064789146900744" stroke-opacity="0.427389382232247" transform="rotate(146.0 400 300)" points="35 588 455 256 352 467 256 369 60 343 205 262 220 445 599 492 "></polygon>
<polygon stroke="#AA9BBA" stroke-width="5" fill="#40252D" opacity="0.47843237761748736" stroke-opacity="0.4660960853331731" transform="rotate(0.0 400 300)" points="579 381 116 68 53 465 453 364 159 131 572 469 358 321 "></polygon>
<polygon stroke="#5525CD" stroke-width="5" fill="#A96C7B" opacity="0.4428954614905888" stroke-opacity="0.01184879802992587" transform="rotate(74.0 400 300)" points="434 17 260 256 566 9 335 93 675 259 783 572 "></polygon>
<rect stroke="#C0191C" stroke-width="7" fill="#8BC07B" opacity="0.034748891425943375" stroke-opacity="0.3732444727800372" transform="rotate(-170.0 400 300)" x="785" y="276" width="186" height="376"></rect>
<path stroke="#3623C7" stroke-width="1" fill="#77D52C" opacity="0.08514290982637855" stroke-opacity="0.296371088755482" transform="rotate(18.0 400 300)" d="M 207,309  C 563,271 647,129 420,486 C 472,390 387,457 151,202 C 428,321 640,263 181,391 C 476,188 278,261 401,238 Z"></path>
<rect stroke="#190224" stroke-width="4" fill="#3B286A" opacity="0.5397807086240672" stroke-opacity="0.8867885025271578" transform="rotate(106.0 400 300)" x="173" y="174" width="280" height="138"></rect>
<ellipse stroke="#7C708B" stroke-width="2" fill="#C1B647" opacity="0.8595531695417865" stroke-opacity="0.6802622866051611" transform="rotate(-141.0 400 300)" cx="699" rx="283" cy="344" ry="202"></ellipse>
<path stroke="#347458" stroke-width="6" fill="#B33C76" opacity="0.6592351589478974" stroke-opacity="0.28637767464362135" transform="rotate(-140.0 400 300)" d="M 572,249  C 322,137 559,497 695,293 C 292,227 271,355 434,486 C 516,447 156,139 523,368 C 314,141 360,453 645,197 C 203,363 235,332 436,288 C 126,280 504,190 330,376 Z"></path>
<polygon stroke="#CC1C27" stroke-width="7" fill="#1DAC11" opacity="0.6565397115380885" stroke-opacity="0.757019758801106" transform="rotate(-64.0 400 300)" points="654 230 543 586 515 89 798 129 68 245 631 6 330 165 280 170 "></polygon>

  </g>
</svg>
