<svg xmlns="http://www.w3.org/2000/svg" xmlns:xlink="http://www.w3.org/1999/xlink" width="800" height="600" version="1.1" viewBox="0 0 800 600"><g fill="none" fill-rule="evenodd" stroke="none" stroke-width="1"><polygon fill="#8CB4A1" stroke="#C4C084" stroke-opacity=".427" stroke-width="3" points="35 588 455 256 352 467 256 369 60 343 205 262 220 445 599 492" opacity=".606" transform="rotate(146.0 400 300)"/><polygon fill="#40252D" stroke="#AA9BBA" stroke-opacity=".466" stroke-width="5" points="579 381 116 68 53 465 453 364 159 131 572 469 358 321" opacity=".478" transform="rotate(0.0 400 300)"/><polygon fill="#A96C7B" stroke="#5525CD" stroke-opacity=".012" stroke-width="5" points="434 17 260 256 566 9 335 93 675 259 783 572" opacity=".443" transform="rotate(74.0 400 300)"/><rect width="186" height="376" x="785" y="276" fill="#8BC07B" stroke="#C0191C" stroke-opacity=".373" stroke-width="7" opacity=".035" transform="rotate(-170.0 400 300)"/><path fill="#77D52C" stroke="#3623C7" stroke-opacity=".296" stroke-width="1" d="M 207,309 C 563,271 647,129 420,486 C 472,390 387,457 151,202 C 428,321 640,263 181,391 C 476,188 278,261 401,238 Z" opacity=".085" transform="rotate(18.0 400 300)"/><rect width="280" height="138" x="173" y="174" fill="#3B286A" stroke="#190224" stroke-opacity=".887" stroke-width="4" opacity=".54" transform="rotate(106.0 400 300)"/><ellipse cx="699" cy="344" fill="#C1B647" stroke="#7C708B" stroke-opacity=".68" stroke-width="2" opacity=".86" rx="283" ry="202" transform="rotate(-141.0 400 300)"/><path fill="#B33C76" stroke="#347458" stroke-opacity=".286" stroke-width="6" d="M 572,249 C 322,137 559,497 695,293 C 292,227 271,355 434,486 C 516,447 156,139 523,368 C 314,141 360,453 645,197 C 203,363 235,332 436,288 C 126,280 504,190 330,376 Z" opacity=".659" transform="rotate(-140.0 400 300)"/><polygon fill="#1DAC11" stroke="#CC1C27" stroke-opacity=".757" stroke-width="7" points="654 230 543 586 515 89 798 129 68 245 631 6 330 165 280 170" opacity=".657" transform="rotate(-64.0 400 300)"/></g></svg>