<svg xmlns="http://www.w3.org/2000/svg" xmlns:xlink="http://www.w3.org/1999/xlink" width="800" height="600" version="1.1" viewBox="0 0 800 600"><g fill="none" fill-rule="evenodd" stroke="none" stroke-width="1"><rect width="282" height="314" x="352" y="173" fill="#0fa6d8" stroke="#0fa6d8" stroke-opacity=".22" stroke-width="3" opacity=".288" transform="rotate(59.0 400 300)"/><polygon fill="#fe9225" stroke="#0fa6d8" stroke-opacity=".55" stroke-width="5" points="201 290 212 465 576 236 223 584 97 569 619 145" opacity=".319" transform="rotate(153.0 400 300)"/><ellipse cx="117" cy="53" fill="#2cd3f3" stroke="#f559a0" stroke-opacity=".602" stroke-width="2" opacity=".32" rx="189" ry="254" transform="rotate(-85.0 400 300)"/><ellipse cx="278" cy="455" fill="#2cd3f3" stroke="#0fa6d8" stroke-opacity=".296" stroke-width="1" opacity=".013" rx="302" ry="305" transform="rotate(49.0 400 300)"/><path fill="#fe9225" stroke="#f559a0" stroke-opacity=".772" stroke-width="3" d="M 573,251 C 385,351 412,277 412,179 C 461,174 642,499 463,298 C 261,267 684,330 680,181 C 112,254 304,422 254,372 C 355,250 310,106 417,187 C 274,211 521,395 657,461 C 488,278 491,428 378,399 C 303,210 348,445 464,306 C 667,286 274,441 182,381 Z" opacity=".3" transform="rotate(39.0 400 300)"/><path fill="#fe9225" stroke="#2cd3f3" stroke-opacity=".104" stroke-width="3" d="M 589,493 C 291,328 590,357 319,158 C 252,365 598,184 121,178 C 460,341 504,173 420,242 C 386,456 183,451 235,495 C 421,461 574,395 404,201 C 251,332 350,437 542,283 C 633,148 218,186 328,199 C 486,219 226,208 612,252 C 177,261 429,253 383,339 C 200,130 587,480 650,283 Z" opacity=".909" transform="rotate(19.0 400 300)"/><path fill="#0fa6d8" stroke="#fe9225" stroke-opacity=".662" stroke-width="4" d="M 528,344 C 635,321 390,242 351,105 C 149,221 496,498 289,267 C 320,173 244,307 663,327 C 408,497 683,322 513,296 C 552,136 200,279 583,265 C 266,295 468,482 246,433 C 352,477 572,346 396,318 C 508,300 384,488 428,426 C 337,293 338,133 353,170 C 566,415 520,345 258,178 C 238,349 556,283 256,302 Z" opacity=".26" transform="rotate(0.0 400 300)"/><polygon fill="#fe9225" stroke="#f559a0" stroke-opacity=".261" stroke-width="2" points="744 139 508 525 96 334 769 431 475 563" opacity=".584" transform="rotate(-149.0 400 300)"/><rect width="308" height="318" x="407" y="166" fill="#2cd3f3" stroke="#fe9225" stroke-opacity=".39" stroke-width="7" opacity=".684" transform="rotate(79.0 400 300)"/><path fill="#f559a0" stroke="#2cd3f3" stroke-opacity=".464" stroke-width="2" d="M 549,131 C 136,484 292,430 274,294 C 417,374 540,211 396,186 C 325,243 600,210 478,431 C 661,139 548,415 277,117 C 383,332 697,324 113,229 C 405,274 111,251 416,280 C 542,149 477,158 651,154 C 311,454 346,267 297,172 C 280,345 189,187 349,281 C 379,238 260,168 163,485 Z" opacity=".934" transform="rotate(-108.0 400 300)"/><path fill="#0fa6d8" stroke="#0fa6d8" stroke-opacity=".162" stroke-width="4" d="M 164,329 C 196,208 315,131 385,326 C 287,164 179,208 531,477 C 178,231 141,397 290,235 C 280,402 170,246 662,329 C 238,395 454,154 215,363 C 287,445 495,194 210,374 C 351,342 440,145 301,401 C 391,194 611,190 185,156 C 437,338 483,406 146,473 C 579,264 348,373 619,271 Z" opacity=".822" transform="rotate(17.0 400 300)"/></g></svg>