<svg xmlns="http://www.w3.org/2000/svg" xmlns:xlink="http://www.w3.org/1999/xlink" width="800" height="600" version="1.1" viewBox="0 0 800 600"><g fill="none" fill-rule="evenodd" stroke="none" stroke-width="1"><polygon fill="#7CD605" stroke="#3341B5" stroke-opacity=".289" stroke-width="4" points="50 72 747 281 677 310 180 528 634 267 242 281 798 59 273 27" opacity=".089" transform="rotate(-131.0 400 300)"/><polygon fill="#43411C" stroke="#080445" stroke-opacity=".878" stroke-width="1" points="25 584 712 355 720 373 200 508 605 223 343 115 156 474" opacity=".56" transform="rotate(-4.0 400 300)"/><path fill="#9768DD" stroke="#A5A521" stroke-opacity=".146" stroke-width="4" d="M 279,277 C 427,174 172,471 261,151 C 219,421 117,161 579,357 C 157,112 290,412 197,108 C 322,163 645,500 441,188 C 154,320 423,287 699,349 C 665,343 455,361 687,420 C 404,234 243,402 313,330 C 445,151 550,400 615,128 C 294,499 214,439 644,136 C 423,351 437,437 515,324 C 608,289 284,389 345,370 Z" opacity=".803" transform="rotate(-112.0 400 300)"/><rect width="266" height="325" x="183" y="263" fill="#71162B" stroke="#1406C1" stroke-opacity=".726" stroke-width="1" opacity=".805" transform="rotate(-146.0 400 300)"/><path fill="#2C414B" stroke="#6C573D" stroke-opacity=".572" stroke-width="6" d="M 441,218 C 131,201 309,462 689,226 C 106,493 594,253 315,225 C 622,335 367,486 322,382 C 480,466 462,370 579,175 C 480,182 468,123 296,135 C 665,311 692,251 255,297 C 591,122 322,390 317,298 C 257,425 433,243 482,192 C 134,195 254,277 379,370 Z" opacity=".697" transform="rotate(-161.0 400 300)"/><path fill="#82465D" stroke="#0DD36A" stroke-opacity=".269" stroke-width="3" d="M 594,384 C 198,456 147,422 553,488 C 496,232 594,131 633,330 C 306,347 283,372 137,274 C 105,125 364,295 255,307 C 463,405 250,216 608,294 C 612,126 284,416 244,379 C 365,443 453,479 279,114 C 445,416 460,274 138,160 C 673,278 675,399 478,359 Z" opacity=".472" transform="rotate(145.0 400 300)"/><path fill="#0D9927" stroke="#C612A4" stroke-opacity=".221" stroke-width="6" d="M 378,191 C 416,464 509,421 427,329 C 646,166 633,349 293,477 C 629,164 461,449 681,309 C 671,491 184,136 574,111 C 145,126 470,347 163,317 C 235,391 505,281 278,230 Z" opacity=".226" transform="rotate(-144.0 400 300)"/><path fill="#D91711" stroke="#2324DC" stroke-opacity=".536" stroke-width="1" d="M 504,120 C 156,384 673,118 190,214 C 138,415 119,420 495,389 C 337,457 531,147 652,170 C 439,249 345,467 106,338 C 376,170 194,380 208,203 C 253,471 293,456 260,380 Z" opacity=".011" transform="rotate(-144.0 400 300)"/><ellipse cx="280" cy="16" fill="#42302A" stroke="#1C8BC1" stroke-opacity=".2" stroke-width="7" opacity=".377" rx="257" ry="230" transform="rotate(-36.0 400 300)"/></g></svg>