<?xml version="1.0" encoding="UTF-8"?>
<svg width="800px" height="600px" viewBox="0 0 800 600" version="1.1" xmlns="http://www.w3.org/2000/svg" xmlns:xlink="http://www.w3.org/1999/xlink">
  <defs></defs>
  <g stroke="none" stroke-width="1" fill="none" fill-rule="evenodd">
    
    <rect stroke="#A0222B" stroke-width="5" fill="#14B643" opacity="0.523068592144264" stroke-opacity="0.8287083151100758" transform="rotate(60.0 400 300)" x="269" y="356" width="136" height="206"></rect>
<rect stroke="#6D63D0" stroke-width="2" fill="#70D813" opacity="0.18083129672036977" stroke-opacity="0.4700237007538056" transform="rotate(-173.0 400 300)" x="26" y="25" width="202" height="266"></rect>
<polygon stroke="#5DC4B1" stroke-width="1" fill="#7A464D" opacity="0.8463955068652838" stroke-opacity="0.3300361302233139" transform="rotate(-166.0 400 300)" points="102 37 587 170 167 222 276 272 686 590 131 444 225 85 "></polygon>
<path stroke="#382581" stroke-width="1" fill="#6157D1" opacity="0.14233309183519402" stroke-opacity="0.5129874541990715" transform="rotate(174.0 400 300)" d="M 103,438  C 657,213 348,340 218,477 C 284,154 535,318 630,162 C 431,311 440,131 380,449 C 454,409 534,113 594,117 C 258,469 210,138 564,233 C 651,417 453,454 692,187 C 578,271 696,328 371,470 Z"></path>
<path stroke="#B91173" stroke-width="7" fill="#9A2B01" opacity="0.8513431799154286" stroke-opacity="0.4470227249284302" transform="rotate(24.0 400 300)" d="M 431,473  C 225,192 619,201 116,161 C 399,173 462,240 399,119 C 633,398 343,209 128,351 C 157,348 510,367 192,477 C 131,114 482,114 546,141 Z"></path>
<ellipse stroke="#19B2C0" stroke-width="1" fill="#A525B0" opacity="0.9406232372118483" stroke-opacity="0.5372239610418308" transform="rotate(-24.0 400 300)" cx="688" rx="57" cy="237" ry="43"></ellipse>
<path stroke="#974214" stroke-width="2" fill="#AB6615" opacity="0.056980995898396086" stroke-opacity="0.245381631080902" transform="rotate(142.0 400 300)" d="M 641,239  C 669,379 190,129 118,115 C 409,303 546,319 525,297 C 149,169 188,252 236,186 C 433,354 526,109 543,355 C 141,371 492,346 272,477 C 392,394 270,233 416,475 C 387,243 559,298 346,336 C 512,125 526,199 276,268 C 623,449 665,407 345,328 Z"></path>

  </g>
</svg>
