<svg xmlns="http://www.w3.org/2000/svg" xmlns:xlink="http://www.w3.org/1999/xlink" width="800" height="600" version="1.1" viewBox="0 0 800 600"><g fill="none" fill-rule="evenodd" stroke="none" stroke-width="1"><rect width="136" height="206" x="269" y="356" fill="#14B643" stroke="#A0222B" stroke-opacity=".829" stroke-width="5" opacity=".523" transform="rotate(60.0 400 300)"/><rect width="202" height="266" x="26" y="25" fill="#70D813" stroke="#6D63D0" stroke-opacity=".47" stroke-width="2" opacity=".181" transform="rotate(-173.0 400 300)"/><polygon fill="#7A464D" stroke="#5DC4B1" stroke-opacity=".33" stroke-width="1" points="102 37 587 170 167 222 276 272 686 590 131 444 225 85" opacity=".846" transform="rotate(-166.0 400 300)"/><path fill="#6157D1" stroke="#382581" stroke-opacity=".513" stroke-width="1" d="M 103,438 C 657,213 348,340 218,477 C 284,154 535,318 630,162 C 431,311 440,131 380,449 C 454,409 534,113 594,117 C 258,469 210,138 564,233 C 651,417 453,454 692,187 C 578,271 696,328 371,470 Z" opacity=".142" transform="rotate(174.0 400 300)"/><path fill="#9A2B01" stroke="#B91173" stroke-opacity=".447" stroke-width="7" d="M 431,473 C 225,192 619,201 116,161 C 399,173 462,240 399,119 C 633,398 343,209 128,351 C 157,348 510,367 192,477 C 131,114 482,114 546,141 Z" opacity=".851" transform="rotate(24.0 400 300)"/><ellipse cx="688" cy="237" fill="#A525B0" stroke="#19B2C0" stroke-opacity=".537" stroke-width="1" opacity=".941" rx="57" ry="43" transform="rotate(-24.0 400 300)"/><path fill="#AB6615" stroke="#974214" stroke-opacity=".245" stroke-width="2" d="M 641,239 C 669,379 190,129 118,115 C 409,303 546,319 525,297 C 149,169 188,252 236,186 C 433,354 526,109 543,355 C 141,371 492,346 272,477 C 392,394 270,233 416,475 C 387,243 559,298 346,336 C 512,125 526,199 276,268 C 623,449 665,407 345,328 Z" opacity=".057" transform="rotate(142.0 400 300)"/></g></svg>