<svg xmlns="http://www.w3.org/2000/svg" xmlns:xlink="http://www.w3.org/1999/xlink" width="800" height="600" version="1.1" viewBox="0 0 800 600"><g fill="none" fill-rule="evenodd" stroke="none" stroke-width="1"><path fill="#585AC9" stroke="#A07C88" stroke-opacity=".895" stroke-width="6" d="M 688,116 C 242,288 210,369 509,402 C 271,247 571,146 585,162 C 367,224 492,142 634,195 C 561,348 582,183 272,278 Z" opacity=".625" transform="rotate(42.0 400 300)"/><path fill="#988287" stroke="#451508" stroke-opacity=".415" stroke-width="2" d="M 276,292 C 391,270 158,312 282,158 C 163,472 529,238 149,380 C 323,174 337,360 400,153 C 577,177 366,420 217,392 Z" opacity=".76" transform="rotate(-32.0 400 300)"/><path fill="#BB127A" stroke="#325119" stroke-opacity=".912" stroke-width="7" d="M 609,463 C 305,486 593,386 623,125 C 375,198 144,494 584,428 C 138,418 614,293 459,264 C 464,198 352,131 364,148 C 594,131 401,311 517,481 Z" opacity=".313" transform="rotate(-124.0 400 300)"/><path fill="#CCD1C4" stroke="#A1509C" stroke-opacity=".927" stroke-width="3" d="M 458,287 C 323,180 119,327 429,102 C 637,440 694,355 395,211 C 378,466 418,244 623,489 C 679,452 609,368 168,201 C 330,357 162,249 474,483 C 229,458 532,389 659,151 C 350,121 499,165 548,440 Z" opacity=".308" transform="rotate(162.0 400 300)"/><path fill="#C0133D" stroke="#8C6068" stroke-opacity=".878" stroke-width="7" d="M 615,295 C 314,361 679,197 324,272 C 312,385 527,171 552,204 C 603,369 197,208 119,493 C 277,204 166,345 477,317 C 249,265 241,280 194,478 Z" opacity=".637" transform="rotate(-45.0 400 300)"/><path fill="#228033" stroke="#56DA14" stroke-opacity=".608" stroke-width="1" d="M 397,420 C 588,202 694,198 581,500 C 157,468 315,103 664,178 C 170,483 432,377 273,189 C 292,109 233,153 377,142 C 296,475 301,427 463,295 C 597,473 689,395 194,129 Z" opacity=".793" transform="rotate(-115.0 400 300)"/></g></svg>