<?xml version="1.0" encoding="UTF-8"?>
<svg width="800px" height="600px" viewBox="0 0 800 600" version="1.1" xmlns="http://www.w3.org/2000/svg" xmlns:xlink="http://www.w3.org/1999/xlink">
  <defs></defs>
  <g stroke="none" stroke-width="1" fill="none" fill-rule="evenodd">
    
    <path stroke="#2cd3f3" stroke-width="6" fill="#2cd3f3" opacity="0.9776274647153191" stroke-opacity="0.2510736754431058" transform="rotate(48.0 400 300)" d="M 443,467  C 642,258 231,365 183,450 C 276,235 383,280 561,422 C 556,340 677,146 469,475 C 265,219 131,472 280,216 C 294,190 295,288 180,323 C 281,209 518,269 389,199 C 696,120 493,421 252,458 Z"></path>
<path stroke="#fe9225" stroke-width="6" fill="#fe9225" opacity="0.0692668242896392" stroke-opacity="0.7974055499347532" transform="rotate(-52.0 400 300)" d="M 667,354  C 236,369 397,165 425,496 C 356,387 641,342 649,409 C 124,161 438,384 185,409 C 377,215 513,362 364,205 C 354,412 424,465 188,158 Z"></path>
<path stroke="#02eb6b" stroke-width="1" fill="#0fa6d8" opacity="0.22383578394125964" stroke-opacity="0.054017659604546214" transform="rotate(142.0 400 300)" d="M 443,117  C 638,252 542,251 311,452 C 528,408 668,219 655,174 C 362,373 414,288 542,462 C 685,405 564,388 190,418 C 334,331 110,470 120,481 Z"></path>
<path stroke="#02eb6b" stroke-width="5" fill="#2cd3f3" opacity="0.9199761214860561" stroke-opacity="0.2619388280114173" transform="rotate(-111.0 400 300)" d="M 601,296  C 365,167 696,241 302,177 C 468,497 215,279 643,383 C 633,409 254,324 340,231 C 264,328 236,429 421,476 C 577,278 174,457 239,203 C 545,188 661,500 295,497 C 206,361 655,177 691,181 C 445,454 629,133 351,398 C 197,390 359,296 120,122 C 616,209 638,361 251,143 C 168,141 185,246 653,467 Z"></path>
<path stroke="#fe9225" stroke-width="5" fill="#02eb6b" opacity="0.6030302723641137" stroke-opacity="0.5616840302379287" transform="rotate(63.0 400 300)" d="M 496,477  C 147,201 183,285 422,121 C 661,335 549,275 153,467 C 693,132 631,357 458,244 C 273,125 425,440 406,381 C 353,157 578,189 223,186 C 429,106 140,355 188,229 C 409,136 134,443 445,267 C 120,297 481,192 484,152 C 366,364 607,360 465,112 C 674,407 171,207 224,481 Z"></path>
<path stroke="#0fa6d8" stroke-width="6" fill="#fe9225" opacity="0.866661347313041" stroke-opacity="0.4403945152423522" transform="rotate(174.0 400 300)" d="M 397,374  C 544,223 396,186 238,480 C 112,236 517,106 117,287 C 287,372 332,145 287,195 C 146,178 265,136 173,177 C 342,410 463,305 591,304 C 533,467 548,288 308,476 C 302,260 245,218 135,391 C 373,429 457,446 274,434 C 218,457 163,439 502,403 Z"></path>
<path stroke="#0fa6d8" stroke-width="6" fill="#0fa6d8" opacity="0.18311701560135601" stroke-opacity="0.7853815009020894" transform="rotate(-156.0 400 300)" d="M 306,269  C 205,339 224,174 150,498 C 547,344 389,138 344,101 C 250,446 642,250 377,103 C 599,159 575,281 178,261 C 252,410 695,209 608,406 C 295,250 392,128 448,311 C 358,356 611,381 250,400 C 216,159 210,241 379,433 C 543,205 113,466 669,194 C 316,363 389,291 350,204 Z"></path>

  </g>
</svg>
