<svg xmlns="http://www.w3.org/2000/svg" xmlns:xlink="http://www.w3.org/1999/xlink" width="800" height="600" version="1.1" viewBox="0 0 800 600"><g fill="none" fill-rule="evenodd" stroke="none" stroke-width="1"><path fill="#fe9225" stroke="#f559a0" stroke-opacity=".4" stroke-width="5" d="M 393,386 C 182,429 536,180 182,490 C 228,109 109,165 586,225 C 527,363 191,207 485,270 C 584,178 588,500 601,141 Z" opacity=".9" transform="rotate(-114.0 400 300)"/><path fill="#fe9225" stroke="#fe9225" stroke-opacity=".757" stroke-width="2" d="M 470,483 C 506,118 635,308 400,236 C 577,482 167,120 502,327 C 197,355 207,434 602,195 C 210,498 511,277 416,363 C 597,257 589,468 627,411 C 404,196 271,221 560,165 C 315,101 141,480 177,116 C 116,418 288,114 609,412 C 477,256 479,343 689,285 C 360,305 642,368 322,270 Z" opacity=".991" transform="rotate(129.0 400 300)"/><rect width="42" height="386" x="650" y="435" fill="#fe9225" stroke="#f559a0" stroke-opacity=".395" stroke-width="6" opacity=".3" transform="rotate(109.0 400 300)"/><polygon fill="#2cd3f3" stroke="#02eb6b" stroke-opacity=".572" stroke-width="2" points="20 574 146 321 659 231 711 99 456 364 50 464 302 69 690 121" opacity=".835" transform="rotate(-84.0 400 300)"/><ellipse cx="583" cy="293" fill="#fe9225" stroke="#fe9225" stroke-opacity=".975" stroke-width="6" opacity=".929" rx="342" ry="78" transform="rotate(-128.0 400 300)"/><ellipse cx="462" cy="258" fill="#fe9225" stroke="#02eb6b" stroke-opacity=".686" stroke-width="1" opacity=".181" rx="244" ry="143" transform="rotate(67.0 400 300)"/><ellipse cx="549" cy="293" fill="#fe9225" stroke="#f559a0" stroke-opacity=".181" stroke-width="4" opacity=".069" rx="377" ry="268" transform="rotate(-99.0 400 300)"/><polygon fill="#0fa6d8" stroke="#02eb6b" stroke-opacity=".294" stroke-width="1" points="559 91 280 182 462 58 9 200 604 197 659 140 485 487 256 89" opacity=".361" transform="rotate(87.0 400 300)"/><ellipse cx="369" cy="218" fill="#02eb6b" stroke="#f559a0" stroke-opacity=".848" stroke-width="1" opacity=".009" rx="73" ry="318" transform="rotate(7.0 400 300)"/></g></svg>