<svg xmlns="http://www.w3.org/2000/svg" xmlns:xlink="http://www.w3.org/1999/xlink" width="800" height="600" version="1.1" viewBox="0 0 800 600"><g fill="none" fill-rule="evenodd" stroke="none" stroke-width="1"><path fill="#f9d84b" stroke="#f27630" stroke-opacity=".185" stroke-width="2" d="M 674,408 C 161,232 510,162 151,113 C 686,454 205,353 160,455 C 587,426 299,202 433,235 C 628,211 335,344 101,212 C 143,340 364,305 475,308 C 208,497 393,126 311,159 Z" opacity=".77" transform="rotate(111.0 400 300)"/><path fill="#2b55f7" stroke="#31a06b" stroke-opacity=".853" stroke-width="3" d="M 373,450 C 196,382 544,210 181,271 C 384,121 254,363 321,185 C 456,397 538,475 176,435 C 532,238 307,252 110,467 C 573,326 168,288 318,246 C 238,184 598,359 127,461 C 538,306 479,432 208,391 C 383,153 350,406 562,135 C 244,241 326,226 423,262 Z" opacity=".997" transform="rotate(38.0 400 300)"/><path fill="#2b55f7" stroke="#31a06b" stroke-opacity=".485" stroke-width="3" d="M 439,357 C 350,226 243,131 248,359 C 687,347 148,350 655,340 C 644,438 650,430 284,153 C 215,193 112,132 437,439 C 250,226 602,119 118,185 C 675,128 210,500 643,448 Z" opacity=".221" transform="rotate(60.0 400 300)"/><path fill="#f27630" stroke="#ed2b2c" stroke-opacity=".865" stroke-width="7" d="M 145,390 C 691,119 555,269 384,294 C 222,214 316,349 359,326 C 604,443 529,302 670,351 C 364,397 340,482 623,305 C 657,158 441,304 472,245 C 442,482 676,442 286,209 C 461,199 322,483 650,416 C 664,479 230,241 372,480 C 428,133 630,215 669,256 C 590,274 394,137 683,438 Z" opacity=".033" transform="rotate(-133.0 400 300)"/><path fill="#f27630" stroke="#31a06b" stroke-opacity=".24" stroke-width="3" d="M 578,363 C 287,196 313,295 472,387 C 495,360 408,454 164,356 C 490,150 371,396 497,367 C 197,372 443,449 102,299 C 494,152 276,150 130,475 C 496,271 369,386 444,195 C 257,437 261,365 330,250 C 277,171 253,310 680,155 C 208,476 316,455 566,263 C 380,266 584,444 377,473 C 178,328 271,436 577,215 Z" opacity=".791" transform="rotate(28.0 400 300)"/><path fill="#31a06b" stroke="#31a06b" stroke-opacity=".015" stroke-width="3" d="M 620,458 C 639,381 543,331 304,318 C 594,343 559,106 636,170 C 474,148 591,200 215,375 C 397,332 457,263 646,268 C 222,434 643,394 416,332 C 317,369 665,396 415,200 C 244,116 558,160 597,411 C 289,248 115,388 693,387 C 588,129 444,413 124,412 C 536,159 280,437 119,463 Z" opacity=".972" transform="rotate(-107.0 400 300)"/><path fill="#f9d84b" stroke="#f9d84b" stroke-opacity=".621" stroke-width="1" d="M 511,440 C 628,338 443,173 507,439 C 104,360 663,386 560,382 C 277,237 230,394 695,110 C 216,315 272,204 359,187 C 584,244 311,388 258,444 C 508,409 492,337 607,457 Z" opacity=".291" transform="rotate(-156.0 400 300)"/><path fill="#2b55f7" stroke="#31a06b" stroke-opacity=".878" stroke-width="4" d="M 260,208 C 118,339 486,363 432,335 C 235,162 562,290 264,237 C 587,103 300,481 551,311 C 325,200 561,477 571,186 C 649,261 527,425 287,229 C 163,309 220,266 416,125 C 545,225 221,218 232,136 C 678,196 350,116 346,288 C 651,284 339,434 362,333 Z" opacity=".117" transform="rotate(-139.0 400 300)"/><path fill="#f27630" stroke="#f9d84b" stroke-opacity=".265" stroke-width="2" d="M 572,223 C 674,308 118,187 163,344 C 392,113 395,253 162,379 C 358,254 235,305 630,204 C 188,440 324,253 425,280 C 408,344 126,350 186,244 C 469,244 232,315 630,279 C 114,422 313,112 633,263 Z" opacity=".649" transform="rotate(-97.0 400 300)"/><path fill="#31a06b" stroke="#31a06b" stroke-opacity=".726" stroke-width="7" d="M 475,302 C 580,404 371,330 346,137 C 542,107 328,464 434,234 C 292,310 250,455 477,415 C 646,366 629,476 227,143 C 671,469 565,484 378,155 C 644,252 370,268 203,464 C 298,300 186,356 579,366 C 361,390 583,237 316,484 C 501,242 616,322 119,483 C 528,144 662,107 516,482 Z" opacity=".508" transform="rotate(-156.0 400 300)"/><path fill="#f9d84b" stroke="#31a06b" stroke-opacity=".023" stroke-width="1" d="M 571,429 C 368,457 449,375 112,446 C 323,409 543,332 650,468 C 355,173 184,282 307,207 C 516,475 141,133 687,345 Z" opacity=".387" transform="rotate(-134.0 400 300)"/></g></svg>