<svg xmlns="http://www.w3.org/2000/svg" xmlns:xlink="http://www.w3.org/1999/xlink" width="800" height="600" version="1.1" viewBox="0 0 800 600"><g fill="none" fill-rule="evenodd" stroke="none" stroke-width="1"><rect width="48" height="136" x="333" y="290" fill="#1B871A" stroke="#9A89DC" stroke-opacity=".07" stroke-width="6" opacity=".7" transform="rotate(-11.0 400 300)"/><ellipse cx="37" cy="2" fill="#074873" stroke="#06A915" stroke-opacity=".679" stroke-width="4" opacity=".377" rx="175" ry="152" transform="rotate(-112.0 400 300)"/><polygon fill="#C67691" stroke="#AC1D91" stroke-opacity=".206" stroke-width="3" points="137 54 347 277 165 505 391 559 430 327" opacity=".57" transform="rotate(115.0 400 300)"/><ellipse cx="627" cy="458" fill="#4CD381" stroke="#011937" stroke-opacity=".047" stroke-width="6" opacity=".354" rx="222" ry="193" transform="rotate(-42.0 400 300)"/><polygon fill="#320804" stroke="#9CB866" stroke-opacity=".562" stroke-width="1" points="751 314 98 322 578 480 378 333 756 202 214 57 721 378 278 45" opacity=".151" transform="rotate(-76.0 400 300)"/><polygon fill="#325822" stroke="#B755DB" stroke-opacity=".941" stroke-width="1" points="581 255 157 309 694 336 275 123 562 32 339 157 342 413 329 468" opacity=".718" transform="rotate(84.0 400 300)"/><rect width="311" height="142" x="122" y="544" fill="#648DD0" stroke="#873533" stroke-opacity=".514" stroke-width="5" opacity=".294" transform="rotate(99.0 400 300)"/><rect width="91" height="172" x="400" y="33" fill="#202C6C" stroke="#D831BA" stroke-opacity=".49" stroke-width="4" opacity=".67" transform="rotate(-106.0 400 300)"/></g></svg>