<?xml version="1.0" encoding="UTF-8"?>
<svg width="800px" height="600px" viewBox="0 0 800 600" version="1.1" xmlns="http://www.w3.org/2000/svg" xmlns:xlink="http://www.w3.org/1999/xlink">
  <defs></defs>
  <g stroke="none" stroke-width="1" fill="none" fill-rule="evenodd">
    
    <rect stroke="#9A89DC" stroke-width="6" fill="#1B871A" opacity="0.7000855738517193" stroke-opacity="0.0699393180217845" transform="rotate(-11.0 400 300)" x="333" y="290" width="48" height="136"></rect>
<ellipse stroke="#06A915" stroke-width="4" fill="#074873" opacity="0.3769292491025682" stroke-opacity="0.6792376709345439" transform="rotate(-112.0 400 300)" cx="37" rx="175" cy="2" ry="152"></ellipse>
<polygon stroke="#AC1D91" stroke-width="3" fill="#C67691" opacity="0.569755454047231" stroke-opacity="0.20638020247228994" transform="rotate(115.0 400 300)" points="137 54 347 277 165 505 391 559 430 327 "></polygon>
<ellipse stroke="#011937" stroke-width="6" fill="#4CD381" opacity="0.3539647117174671" stroke-opacity="0.04708943999886997" transform="rotate(-42.0 400 300)" cx="627" rx="222" cy="458" ry="193"></ellipse>
<polygon stroke="#9CB866" stroke-width="1" fill="#320804" opacity="0.1510233993777025" stroke-opacity="0.561736538314837" transform="rotate(-76.0 400 300)" points="751 314 98 322 578 480 378 333 756 202 214 57 721 378 278 45 "></polygon>
<polygon stroke="#B755DB" stroke-width="1" fill="#325822" opacity="0.7178849482524386" stroke-opacity="0.9411882742600506" transform="rotate(84.0 400 300)" points="581 255 157 309 694 336 275 123 562 32 339 157 342 413 329 468 "></polygon>
<rect stroke="#873533" stroke-width="5" fill="#648DD0" opacity="0.2935993713330683" stroke-opacity="0.5143657387432298" transform="rotate(99.0 400 300)" x="122" y="544" width="311" height="142"></rect>
<rect stroke="#D831BA" stroke-width="4" fill="#202C6C" opacity="0.6695722388682924" stroke-opacity="0.489530222008385" transform="rotate(-106.0 400 300)" x="400" y="33" width="91" height="172"></rect>

  </g>
</svg>
