<svg xmlns="http://www.w3.org/2000/svg" xmlns:xlink="http://www.w3.org/1999/xlink" width="800" height="600" version="1.1" viewBox="0 0 800 600"><g fill="none" fill-rule="evenodd" stroke="none" stroke-width="1"><polygon fill="#2b55f7" stroke="#31a06b" stroke-opacity=".367" stroke-width="4" points="87 380 250 582 140 128 696 507 513 380 621 113" opacity=".803" transform="rotate(-170.0 400 300)"/><ellipse cx="596" cy="257" fill="#ed2b2c" stroke="#f27630" stroke-opacity=".107" stroke-width="7" opacity=".764" rx="112" ry="203" transform="rotate(72.0 400 300)"/><polygon fill="#ed2b2c" stroke="#f27630" stroke-opacity=".717" stroke-width="3" points="375 397 156 478 635 587 605 13 723 405 733 60 208 485 239 165" opacity=".644" transform="rotate(172.0 400 300)"/><polygon fill="#31a06b" stroke="#f9d84b" stroke-opacity=".584" stroke-width="6" points="39 598 612 314 364 102 716 412 799 200" opacity=".705" transform="rotate(-159.0 400 300)"/><ellipse cx="421" cy="131" fill="#2b55f7" stroke="#2b55f7" stroke-opacity=".887" stroke-width="3" opacity=".58" rx="137" ry="332" transform="rotate(-54.0 400 300)"/><polygon fill="#2b55f7" stroke="#31a06b" stroke-opacity=".096" stroke-width="7" points="555 547 728 326 712 251 38 29 760 288 331 42 261 393" opacity=".037" transform="rotate(-134.0 400 300)"/><polygon fill="#f27630" stroke="#f9d84b" stroke-opacity=".117" stroke-width="5" points="549 17 154 593 529 543 171 284 329 276 196 292 176 309 13 8" opacity=".569" transform="rotate(-160.0 400 300)"/><path fill="#f27630" stroke="#f27630" stroke-opacity=".767" stroke-width="6" d="M 327,226 C 176,277 391,437 428,377 C 150,496 314,112 418,463 C 446,332 337,387 499,282 C 592,416 200,275 301,419 C 489,494 481,129 483,457 C 423,324 478,320 421,394 C 401,198 641,160 158,285 C 564,337 357,226 424,253 C 559,292 453,479 448,106 C 120,383 414,281 170,116 C 135,308 118,332 353,450 Z" opacity=".842" transform="rotate(-21.0 400 300)"/><ellipse cx="719" cy="152" fill="#ed2b2c" stroke="#2b55f7" stroke-opacity=".426" stroke-width="6" opacity=".52" rx="426" ry="124" transform="rotate(-55.0 400 300)"/><rect width="58" height="71" x="506" y="206" fill="#f9d84b" stroke="#f27630" stroke-opacity=".746" stroke-width="2" opacity=".264" transform="rotate(138.0 400 300)"/></g></svg>