<svg xmlns="http://www.w3.org/2000/svg" xmlns:xlink="http://www.w3.org/1999/xlink" width="800" height="600" version="1.1" viewBox="0 0 800 600"><g fill="none" fill-rule="evenodd" stroke="none" stroke-width="1"><path fill="#296612" stroke="#027372" stroke-opacity=".793" stroke-width="2" d="M 685,101 C 155,159 319,471 160,410 C 575,459 379,147 640,228 C 626,174 310,154 528,225 C 344,247 672,368 381,308 C 554,410 324,111 437,479 Z" opacity=".963" transform="rotate(152.0 400 300)"/><path fill="#B66A2C" stroke="#15A41A" stroke-opacity=".557" stroke-width="1" d="M 647,363 C 431,470 594,179 566,460 C 364,378 247,357 258,361 C 505,310 374,185 176,141 C 357,469 697,303 533,321 C 305,423 371,232 471,239 C 510,332 495,382 605,230 C 364,307 677,462 139,225 C 372,153 350,266 670,449 C 684,413 655,498 542,320 Z" opacity=".366" transform="rotate(-6.0 400 300)"/><path fill="#86D94D" stroke="#D4A741" stroke-opacity=".318" stroke-width="4" d="M 386,275 C 459,164 555,488 592,260 C 290,169 105,150 540,404 C 416,498 223,462 493,405 C 525,161 261,330 666,489 C 553,317 132,377 660,150 C 370,267 525,353 460,182 C 649,416 660,422 333,305 C 365,286 474,464 289,206 C 212,385 327,430 136,372 Z" opacity=".042" transform="rotate(-115.0 400 300)"/><path fill="#3C1110" stroke="#406743" stroke-opacity=".123" stroke-width="4" d="M 228,387 C 318,436 645,142 144,481 C 583,407 321,162 559,328 C 544,258 450,460 627,206 C 348,378 367,334 588,280 C 302,128 452,210 105,482 Z" opacity=".33" transform="rotate(164.0 400 300)"/><path fill="#63A450" stroke="#D77A15" stroke-opacity=".659" stroke-width="5" d="M 497,366 C 227,198 288,156 611,220 C 245,383 129,217 383,473 C 471,494 132,488 122,240 C 280,462 234,153 604,289 C 690,351 569,156 494,497 Z" opacity=".878" transform="rotate(63.0 400 300)"/><path fill="#45B14A" stroke="#5A0308" stroke-opacity=".419" stroke-width="1" d="M 553,232 C 548,117 141,233 282,397 C 585,194 614,106 362,414 C 449,438 190,123 206,141 C 596,309 497,499 326,418 C 504,376 516,110 634,394 C 379,277 576,299 602,381 C 260,110 118,410 395,236 C 184,234 376,224 334,408 Z" opacity=".351" transform="rotate(82.0 400 300)"/></g></svg>