<?xml version="1.0" encoding="UTF-8"?>
<svg width="800px" height="600px" viewBox="0 0 800 600" version="1.1" xmlns="http://www.w3.org/2000/svg" xmlns:xlink="http://www.w3.org/1999/xlink">
  <defs></defs>
  <g stroke="none" stroke-width="1" fill="none" fill-rule="evenodd">
    
    <path stroke="#027372" stroke-width="2" fill="#296612" opacity="0.9625948390038852" stroke-opacity="0.793374416760273" transform="rotate(152.0 400 300)" d="M 685,101  C 155,159 319,471 160,410 C 575,459 379,147 640,228 C 626,174 310,154 528,225 C 344,247 672,368 381,308 C 554,410 324,111 437,479 Z"></path>
<path stroke="#15A41A" stroke-width="1" fill="#B66A2C" opacity="0.36564930608711604" stroke-opacity="0.557270224609433" transform="rotate(-6.0 400 300)" d="M 647,363  C 431,470 594,179 566,460 C 364,378 247,357 258,361 C 505,310 374,185 176,141 C 357,469 697,303 533,321 C 305,423 371,232 471,239 C 510,332 495,382 605,230 C 364,307 677,462 139,225 C 372,153 350,266 670,449 C 684,413 655,498 542,320 Z"></path>
<path stroke="#D4A741" stroke-width="4" fill="#86D94D" opacity="0.04245382510124923" stroke-opacity="0.31759273578649283" transform="rotate(-115.0 400 300)" d="M 386,275  C 459,164 555,488 592,260 C 290,169 105,150 540,404 C 416,498 223,462 493,405 C 525,161 261,330 666,489 C 553,317 132,377 660,150 C 370,267 525,353 460,182 C 649,416 660,422 333,305 C 365,286 474,464 289,206 C 212,385 327,430 136,372 Z"></path>
<path stroke="#406743" stroke-width="4" fill="#3C1110" opacity="0.3301977439911337" stroke-opacity="0.12288481456282244" transform="rotate(164.0 400 300)" d="M 228,387  C 318,436 645,142 144,481 C 583,407 321,162 559,328 C 544,258 450,460 627,206 C 348,378 367,334 588,280 C 302,128 452,210 105,482 Z"></path>
<path stroke="#D77A15" stroke-width="5" fill="#63A450" opacity="0.8780240740426045" stroke-opacity="0.6594267946470831" transform="rotate(63.0 400 300)" d="M 497,366  C 227,198 288,156 611,220 C 245,383 129,217 383,473 C 471,494 132,488 122,240 C 280,462 234,153 604,289 C 690,351 569,156 494,497 Z"></path>
<path stroke="#5A0308" stroke-width="1" fill="#45B14A" opacity="0.35124516100605135" stroke-opacity="0.41936287531750743" transform="rotate(82.0 400 300)" d="M 553,232  C 548,117 141,233 282,397 C 585,194 614,106 362,414 C 449,438 190,123 206,141 C 596,309 497,499 326,418 C 504,376 516,110 634,394 C 379,277 576,299 602,381 C 260,110 118,410 395,236 C 184,234 376,224 334,408 Z"></path>

  </g>
</svg>
