<svg xmlns="http://www.w3.org/2000/svg" xmlns:xlink="http://www.w3.org/1999/xlink" width="800" height="600" version="1.1" viewBox="0 0 800 600"><g fill="none" fill-rule="evenodd" stroke="none" stroke-width="1"><polygon fill="#ed2b2c" stroke="#f9d84b" stroke-opacity=".686" stroke-width="3" points="248 247 415 482 202 180 15 562 59 131 372 379 311 289" opacity=".032" transform="rotate(78.0 400 300)"/><polygon fill="#31a06b" stroke="#f9d84b" stroke-opacity=".496" stroke-width="6" points="544 224 161 410 422 216 217 347 134 282" opacity=".636" transform="rotate(24.0 400 300)"/><path fill="#2b55f7" stroke="#2b55f7" stroke-opacity=".914" stroke-width="2" d="M 416,380 C 616,426 158,240 505,457 C 549,299 600,253 197,347 C 234,355 131,402 128,483 C 352,329 663,140 436,305 C 110,386 237,435 330,235 C 651,232 122,354 569,407 C 458,390 621,104 248,145 C 651,135 218,239 420,468 Z" opacity=".102" transform="rotate(84.0 400 300)"/><rect width="325" height="287" x="589" y="550" fill="#2b55f7" stroke="#f27630" stroke-opacity=".658" stroke-width="3" opacity=".598" transform="rotate(-111.0 400 300)"/><ellipse cx="90" cy="578" fill="#f27630" stroke="#ed2b2c" stroke-opacity=".383" stroke-width="4" opacity=".075" rx="114" ry="153" transform="rotate(-164.0 400 300)"/><path fill="#f9d84b" stroke="#f9d84b" stroke-opacity=".825" stroke-width="3" d="M 525,366 C 108,366 530,155 211,337 C 353,433 454,222 192,119 C 464,104 510,419 604,322 C 615,335 609,411 474,265 C 140,205 318,238 167,372 C 680,295 176,356 187,135 C 579,174 499,233 359,308 C 594,359 398,361 433,162 C 125,297 517,334 290,111 C 566,303 513,386 144,230 Z" opacity=".284" transform="rotate(-106.0 400 300)"/><ellipse cx="233" cy="13" fill="#ed2b2c" stroke="#2b55f7" stroke-opacity=".43" stroke-width="5" opacity=".883" rx="449" ry="307" transform="rotate(-178.0 400 300)"/><rect width="257" height="132" x="283" y="142" fill="#f27630" stroke="#2b55f7" stroke-opacity=".215" stroke-width="5" opacity=".361" transform="rotate(34.0 400 300)"/><ellipse cx="318" cy="420" fill="#f27630" stroke="#f27630" stroke-opacity=".891" stroke-width="7" opacity=".317" rx="348" ry="117" transform="rotate(-37.0 400 300)"/><rect width="28" height="220" x="69" y="509" fill="#31a06b" stroke="#ed2b2c" stroke-opacity=".895" stroke-width="1" opacity=".527" transform="rotate(56.0 400 300)"/><ellipse cx="131" cy="169" fill="#2b55f7" stroke="#ed2b2c" stroke-opacity=".366" stroke-width="6" opacity=".634" rx="46" ry="116" transform="rotate(-154.0 400 300)"/></g></svg>