<?xml version="1.0" encoding="UTF-8"?>
<svg width="800px" height="600px" viewBox="0 0 800 600" version="1.1" xmlns="http://www.w3.org/2000/svg" xmlns:xlink="http://www.w3.org/1999/xlink">
  <defs></defs>
  <g stroke="none" stroke-width="1" fill="none" fill-rule="evenodd">
    
    <path stroke="#5C2050" stroke-width="2" fill="#C269C3" opacity="0.4219727494344223" stroke-opacity="0.915352983634452" transform="rotate(37.0 400 300)" d="M 522,350  C 310,203 158,428 382,229 C 695,301 473,281 448,466 C 292,296 582,136 266,376 C 365,263 361,178 511,440 C 327,383 170,275 107,252 C 562,252 301,150 241,395 C 441,238 495,415 233,246 C 620,163 232,137 661,275 C 403,115 488,195 351,352 Z"></path>
<path stroke="#606646" stroke-width="4" fill="#B95DC7" opacity="0.15435017885464772" stroke-opacity="0.09564292525747042" transform="rotate(122.0 400 300)" d="M 237,482  C 426,282 215,113 637,408 C 516,201 243,426 384,336 C 556,187 362,440 470,223 C 529,227 379,477 603,135 C 180,230 383,171 131,489 C 638,411 198,254 178,306 C 370,467 660,247 408,459 C 585,271 328,276 436,366 C 406,373 605,394 166,172 Z"></path>
<path stroke="#A304C4" stroke-width="3" fill="#89883A" opacity="0.12054847561109147" stroke-opacity="0.40221968036260114" transform="rotate(-88.0 400 300)" d="M 286,131  C 567,414 688,254 428,403 C 208,114 238,235 310,192 C 573,128 675,123 543,119 C 184,402 492,274 506,101 C 336,256 613,294 677,203 C 497,410 452,429 517,184 Z"></path>
<path stroke="#50A677" stroke-width="4" fill="#6C1186" opacity="0.4434330816748751" stroke-opacity="0.08614784737413098" transform="rotate(12.0 400 300)" d="M 205,131  C 266,216 635,282 339,175 C 219,379 534,206 588,311 C 537,263 625,481 604,271 C 368,127 610,480 251,336 C 212,169 579,152 238,322 C 128,401 117,380 690,182 C 204,343 550,370 656,460 C 333,484 532,106 463,342 C 581,400 625,298 108,409 C 340,416 257,384 339,493 C 384,451 343,192 175,277 Z"></path>
<path stroke="#5B684A" stroke-width="1" fill="#C23851" opacity="0.5788619662464776" stroke-opacity="0.7202332575825747" transform="rotate(80.0 400 300)" d="M 227,177  C 294,130 491,330 360,205 C 692,198 474,361 388,315 C 481,190 662,331 514,369 C 611,128 198,473 622,386 C 526,271 443,325 205,362 C 190,312 526,396 323,342 C 253,266 384,121 360,266 C 566,120 275,324 408,317 C 481,475 256,209 257,217 Z"></path>
<path stroke="#C22570" stroke-width="3" fill="#46727D" opacity="0.05595271782332357" stroke-opacity="0.6542917988621575" transform="rotate(140.0 400 300)" d="M 296,270  C 688,483 660,173 172,407 C 445,233 621,126 577,186 C 678,298 592,342 293,220 C 602,441 210,461 614,350 C 644,335 490,307 644,481 C 342,301 361,474 445,261 C 481,133 276,449 582,225 C 121,482 403,347 213,174 C 336,253 364,469 396,469 C 124,106 388,237 597,250 C 508,443 187,233 516,482 Z"></path>

  </g>
</svg>
