<svg xmlns="http://www.w3.org/2000/svg" xmlns:xlink="http://www.w3.org/1999/xlink" width="800" height="600" version="1.1" viewBox="0 0 800 600"><g fill="none" fill-rule="evenodd" stroke="none" stroke-width="1"><path fill="#fe9225" stroke="#2cd3f3" stroke-opacity=".867" stroke-width="1" d="M 653,371 C 502,159 115,181 138,369 C 275,472 214,330 119,408 C 434,174 515,450 314,249 C 585,482 697,115 324,333 Z" opacity=".934" transform="rotate(-87.0 400 300)"/><path fill="#f559a0" stroke="#0fa6d8" stroke-opacity=".874" stroke-width="4" d="M 314,394 C 169,373 167,321 110,267 C 498,224 271,215 516,244 C 355,164 536,377 136,401 C 695,191 240,195 151,143 C 137,415 344,328 606,163 C 627,198 341,190 576,429 C 498,386 322,229 269,237 C 524,213 213,174 463,452 C 518,157 564,205 258,284 C 139,177 339,469 202,127 Z" opacity=".21" transform="rotate(18.0 400 300)"/><path fill="#2cd3f3" stroke="#02eb6b" stroke-opacity=".451" stroke-width="5" d="M 264,500 C 381,469 395,287 263,367 C 589,464 550,272 258,271 C 650,307 296,161 292,392 C 231,107 365,396 373,410 C 471,464 588,273 640,244 C 668,240 257,453 225,383 C 270,360 385,447 357,317 C 455,493 302,371 341,215 C 373,168 461,307 563,450 Z" opacity=".244" transform="rotate(80.0 400 300)"/><path fill="#0fa6d8" stroke="#0fa6d8" stroke-opacity=".696" stroke-width="2" d="M 429,298 C 523,373 486,483 491,369 C 290,270 526,135 417,227 C 646,120 121,246 216,221 C 280,202 688,145 210,484 C 659,467 147,342 601,126 C 513,421 377,133 514,228 C 624,261 609,143 493,372 C 357,281 667,165 383,369 C 623,488 674,195 272,104 C 140,267 517,129 553,318 Z" opacity=".756" transform="rotate(41.0 400 300)"/><path fill="#0fa6d8" stroke="#f559a0" stroke-opacity=".608" stroke-width="5" d="M 153,246 C 695,381 247,448 342,104 C 167,285 700,447 137,336 C 504,374 497,276 547,471 C 335,159 247,158 451,384 C 406,321 422,494 493,273 C 325,349 568,250 213,438 C 208,339 370,361 511,148 C 286,237 633,296 544,394 C 520,170 476,439 509,358 C 493,242 497,381 311,192 Z" opacity=".517" transform="rotate(63.0 400 300)"/><path fill="#fe9225" stroke="#0fa6d8" stroke-opacity=".672" stroke-width="4" d="M 451,160 C 467,495 399,184 435,168 C 482,359 645,447 395,451 C 268,140 604,102 152,209 C 659,461 611,342 506,497 C 380,298 433,235 221,456 Z" opacity=".459" transform="rotate(51.0 400 300)"/></g></svg>