<?xml version="1.0" encoding="UTF-8"?>
<svg width="800px" height="600px" viewBox="0 0 800 600" version="1.1" xmlns="http://www.w3.org/2000/svg" xmlns:xlink="http://www.w3.org/1999/xlink">
  <defs></defs>
  <g stroke="none" stroke-width="1" fill="none" fill-rule="evenodd">
    
    <path stroke="#08B130" stroke-width="4" fill="#6BB3C6" opacity="0.057268694054517594" stroke-opacity="0.5172946402562029" transform="rotate(170.0 400 300)" d="M 682,487  C 699,311 168,489 619,441 C 116,430 537,369 648,189 C 520,321 631,489 431,437 C 271,340 271,195 696,454 C 494,494 652,500 684,203 C 465,172 134,241 496,288 C 447,251 452,140 686,299 Z"></path>
<path stroke="#345746" stroke-width="1" fill="#9D99D6" opacity="0.7060043498026128" stroke-opacity="0.4098389183543258" transform="rotate(-44.0 400 300)" d="M 177,119  C 298,318 471,297 512,289 C 660,254 502,183 696,401 C 324,211 205,378 439,462 C 580,101 624,125 267,237 Z"></path>
<path stroke="#A6D2D3" stroke-width="5" fill="#219927" opacity="0.18468154634513365" stroke-opacity="0.45491093636355323" transform="rotate(89.0 400 300)" d="M 235,135  C 328,458 221,300 419,236 C 333,207 360,292 327,292 C 134,499 430,323 218,374 C 289,268 326,373 335,163 Z"></path>
<path stroke="#B7A323" stroke-width="4" fill="#B136D1" opacity="0.6211708019341277" stroke-opacity="0.15655741511093954" transform="rotate(-47.0 400 300)" d="M 331,203  C 483,113 698,326 597,237 C 347,292 248,186 393,290 C 102,295 194,326 254,326 C 671,114 487,289 595,378 C 258,257 166,199 604,239 C 406,484 275,150 294,224 C 624,178 411,154 680,111 C 395,485 693,250 205,208 Z"></path>
<path stroke="#CD8934" stroke-width="2" fill="#BB06B3" opacity="0.24790313101068528" stroke-opacity="0.5971591455359797" transform="rotate(84.0 400 300)" d="M 639,255  C 570,494 368,210 573,117 C 552,471 447,261 327,277 C 356,261 328,303 633,447 C 624,345 303,439 426,308 C 415,396 532,302 270,355 C 230,467 585,304 153,247 C 192,373 440,314 429,487 C 286,201 131,367 508,496 C 416,178 223,331 506,492 C 288,455 431,404 330,385 C 509,436 535,291 635,342 Z"></path>
<path stroke="#C65C23" stroke-width="4" fill="#361799" opacity="0.8191977840690061" stroke-opacity="0.0730229766347562" transform="rotate(-79.0 400 300)" d="M 665,184  C 517,278 357,200 632,254 C 174,165 381,391 512,350 C 292,235 277,227 556,347 C 228,395 185,120 484,260 Z"></path>
<path stroke="#52C0B1" stroke-width="6" fill="#1D521B" opacity="0.7281139813975089" stroke-opacity="0.9749293331313642" transform="rotate(139.0 400 300)" d="M 127,426  C 496,104 253,324 187,310 C 553,328 449,147 358,458 C 464,320 157,229 572,433 C 119,343 474,483 222,113 C 441,399 109,253 632,322 C 609,424 571,239 180,411 C 237,218 184,431 659,127 C 687,449 252,165 497,442 C 328,325 360,280 668,313 C 524,334 141,145 648,362 C 642,312 508,386 562,473 Z"></path>
<path stroke="#1A5039" stroke-width="4" fill="#BD33B9" opacity="0.07151443739520946" stroke-opacity="0.6556393854803814" transform="rotate(-6.0 400 300)" d="M 585,463  C 678,212 693,241 404,304 C 180,314 168,111 235,471 C 579,137 194,211 137,279 C 274,355 148,213 527,234 C 485,372 302,107 282,487 C 598,373 414,337 304,133 C 694,134 530,134 136,274 C 575,157 593,275 507,357 C 224,273 253,132 377,271 Z"></path>
<path stroke="#7926BC" stroke-width="7" fill="#D069C1" opacity="0.05893579971490955" stroke-opacity="0.8338191551780811" transform="rotate(-128.0 400 300)" d="M 412,192  C 691,314 103,450 575,210 C 601,266 299,421 188,304 C 345,489 618,298 256,106 C 667,252 630,144 610,163 C 431,175 141,492 231,376 C 609,222 373,220 386,316 C 673,411 362,438 518,115 Z"></path>
<path stroke="#2CB73B" stroke-width="2" fill="#4B5BC8" opacity="0.24035558197385112" stroke-opacity="0.9262755790412358" transform="rotate(46.0 400 300)" d="M 287,250  C 667,358 636,321 191,371 C 149,225 374,361 626,119 C 166,168 313,277 135,366 C 249,104 340,412 189,274 C 669,344 547,191 486,296 C 221,256 235,261 428,199 C 236,404 421,381 191,220 C 281,244 648,464 534,460 C 656,320 186,298 417,108 C 647,269 285,143 387,308 Z"></path>
<path stroke="#0C4C4B" stroke-width="6" fill="#2919BB" opacity="0.3428283253066822" stroke-opacity="0.3360368962660906" transform="rotate(-123.0 400 300)" d="M 325,143  C 128,321 396,305 540,408 C 298,357 216,322 311,420 C 588,101 252,429 504,335 C 352,243 509,382 382,370 Z"></path>

  </g>
</svg>
