<svg xmlns="http://www.w3.org/2000/svg" xmlns:xlink="http://www.w3.org/1999/xlink" width="800" height="600" version="1.1" viewBox="0 0 800 600"><g fill="none" fill-rule="evenodd" stroke="none" stroke-width="1"><path fill="#f559a0" stroke="#2cd3f3" stroke-opacity=".558" stroke-width="7" d="M 412,242 C 634,401 622,371 338,270 C 669,307 610,399 490,287 C 145,205 546,369 560,361 C 167,340 418,234 522,337 C 694,363 246,139 294,255 C 546,147 499,191 573,186 C 619,332 337,206 327,418 Z" opacity=".532" transform="rotate(-76.0 400 300)"/><rect width="307" height="388" x="552" y="256" fill="#f559a0" stroke="#0fa6d8" stroke-opacity=".622" stroke-width="1" opacity=".514" transform="rotate(-124.0 400 300)"/><ellipse cx="681" cy="57" fill="#02eb6b" stroke="#0fa6d8" stroke-opacity=".761" stroke-width="5" opacity=".26" rx="224" ry="293" transform="rotate(-101.0 400 300)"/><rect width="80" height="126" x="296" y="37" fill="#2cd3f3" stroke="#2cd3f3" stroke-opacity=".481" stroke-width="1" opacity=".318" transform="rotate(116.0 400 300)"/><rect width="381" height="84" x="777" y="454" fill="#2cd3f3" stroke="#f559a0" stroke-opacity=".393" stroke-width="3" opacity=".339" transform="rotate(-129.0 400 300)"/><polygon fill="#02eb6b" stroke="#0fa6d8" stroke-opacity=".801" stroke-width="3" points="530 91 708 418 194 374 381 249 509 109 182 571 205 262" opacity=".802" transform="rotate(2.0 400 300)"/><path fill="#fe9225" stroke="#fe9225" stroke-opacity=".487" stroke-width="5" d="M 310,119 C 475,152 514,220 407,414 C 644,446 626,317 413,184 C 592,470 103,127 556,215 C 441,294 590,370 634,195 C 590,337 108,260 177,376 C 358,386 560,188 433,125 C 699,375 384,266 176,303 Z" opacity=".382" transform="rotate(42.0 400 300)"/><rect width="38" height="121" x="614" y="48" fill="#0fa6d8" stroke="#fe9225" stroke-opacity=".773" stroke-width="2" opacity=".65" transform="rotate(-104.0 400 300)"/><path fill="#2cd3f3" stroke="#2cd3f3" stroke-opacity=".767" stroke-width="1" d="M 165,220 C 503,283 280,357 183,228 C 569,454 166,455 350,144 C 134,379 390,407 694,314 C 138,476 400,140 569,287 C 356,115 223,494 699,285 C 576,457 270,308 648,222 C 472,482 562,289 162,272 Z" opacity=".689" transform="rotate(-169.0 400 300)"/><ellipse cx="288" cy="87" fill="#2cd3f3" stroke="#f559a0" stroke-opacity=".884" stroke-width="3" opacity=".415" rx="31" ry="340" transform="rotate(-1.0 400 300)"/><rect width="152" height="164" x="663" y="341" fill="#2cd3f3" stroke="#2cd3f3" stroke-opacity=".022" stroke-width="1" opacity=".347" transform="rotate(25.0 400 300)"/></g></svg>