<svg xmlns="http://www.w3.org/2000/svg" xmlns:xlink="http://www.w3.org/1999/xlink" width="800" height="600" version="1.1" viewBox="0 0 800 600"><g fill="none" fill-rule="evenodd" stroke="none" stroke-width="1"><path fill="#0fa6d8" stroke="#02eb6b" stroke-opacity=".715" stroke-width="6" d="M 431,226 C 653,113 548,102 446,126 C 486,271 550,377 581,328 C 512,450 114,131 350,409 C 482,258 169,219 186,157 C 298,262 256,338 644,188 C 197,455 380,405 224,441 Z" opacity=".311" transform="rotate(-32.0 400 300)"/><path fill="#0fa6d8" stroke="#fe9225" stroke-opacity=".755" stroke-width="2" d="M 375,109 C 333,282 323,354 414,124 C 617,194 568,282 231,222 C 436,152 409,285 126,179 C 123,426 685,248 356,377 C 317,299 422,248 160,249 C 607,417 490,367 135,313 C 370,381 335,283 479,231 C 272,382 349,193 281,280 C 566,440 505,140 117,184 Z" opacity=".177" transform="rotate(-87.0 400 300)"/><path fill="#fe9225" stroke="#02eb6b" stroke-opacity=".711" stroke-width="3" d="M 385,181 C 464,266 425,110 514,432 C 223,434 323,120 651,115 C 180,425 422,174 629,336 C 163,226 440,337 500,441 C 395,391 328,206 299,340 C 419,310 419,239 494,318 Z" opacity=".522" transform="rotate(57.0 400 300)"/><path fill="#02eb6b" stroke="#f559a0" stroke-opacity=".71" stroke-width="4" d="M 620,228 C 191,255 479,255 596,348 C 452,242 214,489 559,265 C 189,409 321,114 464,121 C 106,258 573,480 572,121 C 307,489 553,168 492,292 C 406,268 563,465 645,450 C 330,397 475,188 536,407 C 638,216 609,456 225,335 C 120,103 672,139 653,420 Z" opacity=".942" transform="rotate(-129.0 400 300)"/><path fill="#f559a0" stroke="#f559a0" stroke-opacity=".988" stroke-width="5" d="M 657,486 C 547,332 482,231 247,437 C 285,294 285,396 233,200 C 622,169 296,399 691,399 C 446,294 504,436 604,205 C 568,373 441,113 399,122 C 318,125 546,420 351,177 C 243,440 148,171 439,247 C 122,405 438,237 533,405 Z" opacity=".498" transform="rotate(19.0 400 300)"/><path fill="#2cd3f3" stroke="#fe9225" stroke-opacity=".641" stroke-width="7" d="M 540,338 C 621,260 283,302 261,491 C 187,478 402,439 138,216 C 294,339 556,350 639,392 C 650,148 407,357 614,395 C 626,223 489,473 539,390 C 434,288 667,210 121,476 C 668,316 693,330 524,283 C 245,398 555,289 496,390 C 531,251 365,460 524,231 C 370,484 519,443 217,436 Z" opacity=".692" transform="rotate(-111.0 400 300)"/></g></svg>