<svg xmlns="http://www.w3.org/2000/svg" xmlns:xlink="http://www.w3.org/1999/xlink" width="800" height="600" version="1.1" viewBox="0 0 800 600"><g fill="none" fill-rule="evenodd" stroke="none" stroke-width="1"><path fill="#ed2b2c" stroke="#2b55f7" stroke-opacity=".614" stroke-width="1" d="M 580,135 C 657,224 457,457 699,437 C 591,367 558,337 538,297 C 318,130 112,214 376,285 C 189,278 634,386 231,133 C 193,272 470,164 526,435 C 568,238 321,195 568,367 C 537,377 686,229 270,176 Z" opacity=".131" transform="rotate(46.0 400 300)"/><path fill="#f27630" stroke="#ed2b2c" stroke-opacity=".74" stroke-width="2" d="M 462,115 C 692,457 437,483 230,182 C 662,467 493,205 651,296 C 204,259 118,130 405,296 C 642,202 389,433 452,449 Z" opacity=".913" transform="rotate(164.0 400 300)"/><path fill="#f9d84b" stroke="#f9d84b" stroke-opacity=".199" stroke-width="5" d="M 301,367 C 290,197 508,460 675,475 C 217,458 587,319 367,348 C 549,230 587,158 455,369 C 364,291 602,111 498,396 C 115,256 580,275 385,220 C 109,342 274,322 533,310 C 468,249 540,338 243,351 C 149,402 606,395 462,262 C 362,278 649,315 271,255 C 636,410 359,213 217,364 Z" opacity=".255" transform="rotate(-19.0 400 300)"/><path fill="#f9d84b" stroke="#31a06b" stroke-opacity=".602" stroke-width="1" d="M 669,327 C 275,191 682,367 652,389 C 128,258 610,429 288,252 C 195,473 155,279 193,480 C 448,106 410,215 386,218 C 665,407 341,197 437,261 C 207,335 312,204 497,248 C 474,265 410,222 631,161 C 187,173 268,253 591,165 C 631,369 616,249 216,389 Z" opacity=".207" transform="rotate(-106.0 400 300)"/><path fill="#31a06b" stroke="#31a06b" stroke-opacity=".181" stroke-width="5" d="M 458,419 C 167,470 404,346 321,256 C 244,214 564,498 209,441 C 283,423 528,239 168,384 C 156,442 480,187 592,375 C 171,285 484,356 293,315 C 351,486 624,404 617,483 C 255,249 300,315 428,381 C 620,239 297,280 678,375 C 556,101 105,354 400,303 C 524,354 508,365 268,361 Z" opacity=".568" transform="rotate(-113.0 400 300)"/><path fill="#f9d84b" stroke="#f27630" stroke-opacity=".613" stroke-width="1" d="M 600,423 C 653,452 389,101 666,444 C 456,339 478,339 192,394 C 679,400 330,434 635,306 C 510,424 176,273 335,251 C 672,246 331,124 145,355 C 653,218 429,366 591,138 C 101,113 475,485 445,275 C 399,305 530,398 386,395 C 198,191 121,371 605,218 C 502,215 432,136 319,411 Z" opacity=".313" transform="rotate(-42.0 400 300)"/><path fill="#f9d84b" stroke="#f27630" stroke-opacity=".556" stroke-width="6" d="M 139,213 C 450,489 118,410 565,383 C 469,291 333,469 674,403 C 409,395 602,165 327,210 C 248,462 110,365 348,222 C 228,319 427,241 356,347 C 266,443 561,167 192,285 C 390,325 236,372 597,102 C 126,292 300,125 381,454 C 362,136 584,413 171,167 C 491,431 502,195 176,482 Z" opacity=".615" transform="rotate(128.0 400 300)"/><path fill="#2b55f7" stroke="#2b55f7" stroke-opacity=".194" stroke-width="7" d="M 381,285 C 554,399 618,422 286,264 C 588,464 532,275 440,294 C 216,321 388,437 513,206 C 547,261 540,172 186,148 C 223,314 673,190 328,185 C 437,397 234,186 145,269 C 617,477 537,329 525,486 C 554,189 634,117 420,168 Z" opacity=".812" transform="rotate(-171.0 400 300)"/></g></svg>