<svg xmlns="http://www.w3.org/2000/svg" xmlns:xlink="http://www.w3.org/1999/xlink" width="800" height="600" version="1.1" viewBox="0 0 800 600"><g fill="none" fill-rule="evenodd" stroke="none" stroke-width="1"><rect width="296" height="38" x="171" y="2" fill="#f27630" stroke="#ed2b2c" stroke-opacity=".619" stroke-width="6" opacity=".318" transform="rotate(81.0 400 300)"/><ellipse cx="120" cy="90" fill="#f27630" stroke="#f9d84b" stroke-opacity=".974" stroke-width="5" opacity=".535" rx="80" ry="190" transform="rotate(-116.0 400 300)"/><polygon fill="#ed2b2c" stroke="#ed2b2c" stroke-opacity=".956" stroke-width="1" points="477 526 530 63 724 366 686 105 208 343 237 589 463 295 326 267" opacity=".208" transform="rotate(14.0 400 300)"/><path fill="#2b55f7" stroke="#f27630" stroke-opacity=".463" stroke-width="2" d="M 526,152 C 161,414 200,458 617,166 C 648,482 603,496 583,150 C 155,106 560,355 280,180 C 658,233 317,111 565,102 C 228,226 670,315 648,439 C 374,194 377,317 222,416 C 140,129 512,461 426,274 C 209,304 304,378 700,286 Z" opacity=".181" transform="rotate(116.0 400 300)"/><rect width="181" height="127" x="100" y="533" fill="#f27630" stroke="#31a06b" stroke-opacity=".504" stroke-width="6" opacity=".527" transform="rotate(-140.0 400 300)"/><polygon fill="#f9d84b" stroke="#f27630" stroke-opacity=".374" stroke-width="7" points="171 567 368 298 80 425 739 311 114 88 591 233 5 55" opacity=".684" transform="rotate(-18.0 400 300)"/></g></svg>