<svg xmlns="http://www.w3.org/2000/svg" xmlns:xlink="http://www.w3.org/1999/xlink" width="800" height="600" version="1.1" viewBox="0 0 800 600"><g fill="none" fill-rule="evenodd" stroke="none" stroke-width="1"><rect width="40" height="202" x="126" y="574" fill="#0fa6d8" stroke="#02eb6b" stroke-opacity=".537" stroke-width="3" opacity=".86" transform="rotate(-172.0 400 300)"/><path fill="#02eb6b" stroke="#f559a0" stroke-opacity=".193" stroke-width="6" d="M 328,360 C 146,485 359,342 545,464 C 688,272 281,271 204,262 C 104,357 121,171 575,150 C 582,413 581,299 456,372 C 217,467 118,426 141,431 C 368,474 369,270 565,105 Z" opacity=".255" transform="rotate(28.0 400 300)"/><path fill="#2cd3f3" stroke="#02eb6b" stroke-opacity=".446" stroke-width="4" d="M 227,296 C 398,421 125,438 241,290 C 242,273 245,284 627,334 C 675,311 413,178 267,154 C 175,192 448,113 545,196 C 695,500 479,117 599,252 C 242,398 296,102 244,445 C 433,403 589,105 624,482 C 350,105 207,262 241,166 Z" opacity=".798" transform="rotate(146.0 400 300)"/><polygon fill="#02eb6b" stroke="#f559a0" stroke-opacity=".385" stroke-width="2" points="734 12 201 514 397 52 627 442 713 67 397 306 539 321 662 144" opacity=".315" transform="rotate(-51.0 400 300)"/><polygon fill="#0fa6d8" stroke="#2cd3f3" stroke-opacity=".559" stroke-width="3" points="638 44 615 326 269 519 558 487 380 472 278 545" opacity=".858" transform="rotate(100.0 400 300)"/><rect width="240" height="228" x="441" y="394" fill="#0fa6d8" stroke="#2cd3f3" stroke-opacity=".65" stroke-width="1" opacity=".112" transform="rotate(162.0 400 300)"/><rect width="38" height="388" x="709" y="164" fill="#fe9225" stroke="#f559a0" stroke-opacity=".025" stroke-width="4" opacity=".991" transform="rotate(55.0 400 300)"/><rect width="152" height="253" x="767" y="108" fill="#0fa6d8" stroke="#f559a0" stroke-opacity=".316" stroke-width="3" opacity=".487" transform="rotate(-33.0 400 300)"/><polygon fill="#02eb6b" stroke="#f559a0" stroke-opacity=".9" stroke-width="1" points="597 511 507 412 315 145 229 285 391 208 512 342" opacity=".226" transform="rotate(86.0 400 300)"/><path fill="#f559a0" stroke="#2cd3f3" stroke-opacity=".694" stroke-width="1" d="M 126,108 C 150,403 524,381 347,247 C 334,313 562,220 133,379 C 333,274 678,138 187,200 C 330,486 415,232 653,498 C 326,471 326,404 319,309 C 498,387 557,278 214,266 C 419,389 494,369 305,362 C 193,439 326,338 389,267 C 125,378 493,373 484,394 C 284,412 193,296 666,285 Z" opacity=".675" transform="rotate(-51.0 400 300)"/></g></svg>