<?xml version="1.0" encoding="UTF-8"?>
<svg width="800px" height="600px" viewBox="0 0 800 600" version="1.1" xmlns="http://www.w3.org/2000/svg" xmlns:xlink="http://www.w3.org/1999/xlink">
  <defs></defs>
  <g stroke="none" stroke-width="1" fill="none" fill-rule="evenodd">
    
    <rect stroke="#02eb6b" stroke-width="3" fill="#0fa6d8" opacity="0.8601258704614559" stroke-opacity="0.5374453074516773" transform="rotate(-172.0 400 300)" x="126" y="574" width="40" height="202"></rect>
<path stroke="#f559a0" stroke-width="6" fill="#02eb6b" opacity="0.2550381176962033" stroke-opacity="0.19297398132228333" transform="rotate(28.0 400 300)" d="M 328,360  C 146,485 359,342 545,464 C 688,272 281,271 204,262 C 104,357 121,171 575,150 C 582,413 581,299 456,372 C 217,467 118,426 141,431 C 368,474 369,270 565,105 Z"></path>
<path stroke="#02eb6b" stroke-width="4" fill="#2cd3f3" opacity="0.7980065093299393" stroke-opacity="0.44583023573018093" transform="rotate(146.0 400 300)" d="M 227,296  C 398,421 125,438 241,290 C 242,273 245,284 627,334 C 675,311 413,178 267,154 C 175,192 448,113 545,196 C 695,500 479,117 599,252 C 242,398 296,102 244,445 C 433,403 589,105 624,482 C 350,105 207,262 241,166 Z"></path>
<polygon stroke="#f559a0" stroke-width="2" fill="#02eb6b" opacity="0.31525003535123725" stroke-opacity="0.38536478495835425" transform="rotate(-51.0 400 300)" points="734 12 201 514 397 52 627 442 713 67 397 306 539 321 662 144 "></polygon>
<polygon stroke="#2cd3f3" stroke-width="3" fill="#0fa6d8" opacity="0.8577726468337575" stroke-opacity="0.5585816749206511" transform="rotate(100.0 400 300)" points="638 44 615 326 269 519 558 487 380 472 278 545 "></polygon>
<rect stroke="#2cd3f3" stroke-width="1" fill="#0fa6d8" opacity="0.11239294883378773" stroke-opacity="0.6500209096604657" transform="rotate(162.0 400 300)" x="441" y="394" width="240" height="228"></rect>
<rect stroke="#f559a0" stroke-width="4" fill="#fe9225" opacity="0.9909020284503438" stroke-opacity="0.02458131493302387" transform="rotate(55.0 400 300)" x="709" y="164" width="38" height="388"></rect>
<rect stroke="#f559a0" stroke-width="3" fill="#0fa6d8" opacity="0.4871369642749016" stroke-opacity="0.31649752178063223" transform="rotate(-33.0 400 300)" x="767" y="108" width="152" height="253"></rect>
<polygon stroke="#f559a0" stroke-width="1" fill="#02eb6b" opacity="0.22629488882150217" stroke-opacity="0.9003545714374256" transform="rotate(86.0 400 300)" points="597 511 507 412 315 145 229 285 391 208 512 342 "></polygon>
<path stroke="#2cd3f3" stroke-width="1" fill="#f559a0" opacity="0.6751734225100021" stroke-opacity="0.6938818523017407" transform="rotate(-51.0 400 300)" d="M 126,108  C 150,403 524,381 347,247 C 334,313 562,220 133,379 C 333,274 678,138 187,200 C 330,486 415,232 653,498 C 326,471 326,404 319,309 C 498,387 557,278 214,266 C 419,389 494,369 305,362 C 193,439 326,338 389,267 C 125,378 493,373 484,394 C 284,412 193,296 666,285 Z"></path>

  </g>
</svg>
