<?xml version="1.0" encoding="UTF-8"?>
<svg width="800px" height="600px" viewBox="0 0 800 600" version="1.1" xmlns="http://www.w3.org/2000/svg" xmlns:xlink="http://www.w3.org/1999/xlink">
  <defs></defs>
  <g stroke="none" stroke-width="1" fill="none" fill-rule="evenodd">
    
    <path stroke="#72182B" stroke-width="4" fill="#667848" opacity="0.6957305384706313" stroke-opacity="0.0039627444246131864" transform="rotate(-102.0 400 300)" d="M 626,244  C 109,316 379,252 183,373 C 378,467 663,320 447,240 C 623,225 144,371 240,125 C 218,445 527,149 284,231 C 503,423 197,397 236,297 C 314,356 281,286 521,436 Z"></path>
<path stroke="#0337A9" stroke-width="7" fill="#0AD9A5" opacity="0.20175003845511358" stroke-opacity="0.8868159293278396" transform="rotate(42.0 400 300)" d="M 524,193  C 692,304 152,302 145,442 C 270,120 568,147 617,238 C 297,266 571,126 174,367 C 335,161 487,322 362,181 C 350,445 417,450 535,188 C 352,300 406,471 664,411 C 523,265 542,369 378,296 C 142,240 144,372 101,410 C 222,336 660,168 477,465 C 276,148 243,444 522,383 Z"></path>
<path stroke="#D54549" stroke-width="5" fill="#6C3C17" opacity="0.2051060398695668" stroke-opacity="0.0927253921336507" transform="rotate(54.0 400 300)" d="M 639,293  C 373,257 547,202 481,420 C 669,368 261,227 175,246 C 182,249 693,295 671,374 C 356,113 147,182 105,123 C 456,405 474,282 135,412 C 683,305 565,464 475,431 C 142,384 465,405 152,265 Z"></path>
<path stroke="#DC5A91" stroke-width="4" fill="#3D3B93" opacity="0.8789848659242627" stroke-opacity="0.9322369177720783" transform="rotate(100.0 400 300)" d="M 547,365  C 482,201 329,400 518,183 C 583,135 567,481 455,149 C 347,215 586,433 294,254 C 544,292 270,334 490,330 C 137,381 183,441 587,111 C 323,392 680,248 448,498 Z"></path>
<path stroke="#522363" stroke-width="7" fill="#D76202" opacity="0.04313203816079146" stroke-opacity="0.6523248958511226" transform="rotate(-159.0 400 300)" d="M 323,278  C 642,443 227,269 233,183 C 178,452 115,419 376,327 C 557,314 484,409 645,214 C 564,127 456,219 494,265 C 521,124 316,367 167,189 Z"></path>
<path stroke="#C009A8" stroke-width="4" fill="#A60556" opacity="0.4594949833613524" stroke-opacity="0.4195557178225891" transform="rotate(27.0 400 300)" d="M 624,203  C 313,187 148,361 532,382 C 415,231 403,302 164,466 C 216,185 270,190 403,454 C 235,147 216,160 556,221 C 696,483 346,338 426,136 C 138,475 344,365 345,397 C 451,357 452,138 339,109 C 186,166 459,227 486,331 C 315,121 272,190 474,236 C 109,283 450,207 233,147 C 295,398 371,370 497,160 Z"></path>
<path stroke="#B81009" stroke-width="7" fill="#D65B22" opacity="0.9071802216390088" stroke-opacity="0.45499007183707935" transform="rotate(3.0 400 300)" d="M 497,117  C 306,347 144,135 652,240 C 146,465 507,196 437,383 C 514,210 212,400 162,315 C 416,161 455,330 277,108 C 553,259 520,185 592,477 Z"></path>
<path stroke="#DB479B" stroke-width="3" fill="#4677C2" opacity="0.6785953022343123" stroke-opacity="0.9045849910959701" transform="rotate(-68.0 400 300)" d="M 584,300  C 555,203 354,246 397,311 C 565,473 141,234 493,137 C 365,388 395,422 593,145 C 670,463 429,308 209,329 C 461,144 259,385 336,162 C 351,279 250,292 220,260 C 106,202 620,232 651,448 C 165,300 146,185 495,306 C 635,433 122,159 357,202 C 478,301 501,168 151,237 C 215,346 327,474 655,123 Z"></path>
<path stroke="#1B4D59" stroke-width="7" fill="#400D0B" opacity="0.4831845524297414" stroke-opacity="0.947316681505511" transform="rotate(158.0 400 300)" d="M 371,398  C 588,144 422,122 583,355 C 493,187 561,500 302,156 C 487,409 132,227 359,137 C 421,370 546,112 140,439 C 461,130 134,474 635,226 C 152,202 671,338 359,485 C 228,213 376,325 692,408 C 317,234 225,400 405,497 C 551,210 223,154 303,471 Z"></path>
<path stroke="#47C8B6" stroke-width="7" fill="#328C15" opacity="0.8898298330716333" stroke-opacity="0.6234502605610246" transform="rotate(99.0 400 300)" d="M 209,346  C 215,276 668,419 153,488 C 570,123 597,281 324,255 C 209,352 111,260 392,405 C 322,191 612,141 305,397 C 226,198 663,430 410,378 C 560,464 605,275 533,232 C 162,178 667,270 300,262 Z"></path>
<path stroke="#4B8ABD" stroke-width="1" fill="#4BCCA0" opacity="0.05418544221838109" stroke-opacity="0.09943873337371155" transform="rotate(-46.0 400 300)" d="M 620,457  C 104,270 400,480 274,353 C 159,314 513,419 116,142 C 119,299 106,196 432,291 C 377,473 144,423 440,485 C 456,335 191,226 446,185 C 123,303 689,456 286,371 C 114,219 119,456 328,478 C 228,491 477,261 309,443 C 218,319 666,330 135,379 Z"></path>

  </g>
</svg>
