<?xml version="1.0" encoding="UTF-8"?>
<svg width="800px" height="600px" viewBox="0 0 800 600" version="1.1" xmlns="http://www.w3.org/2000/svg" xmlns:xlink="http://www.w3.org/1999/xlink">
  <defs></defs>
  <g stroke="none" stroke-width="1" fill="none" fill-rule="evenodd">
    
    <path stroke="#f27630" stroke-width="7" fill="#f27630" opacity="0.36763007509229273" stroke-opacity="0.08967775859387797" transform="rotate(-64.0 400 300)" d="M 208,298  C 565,468 480,249 655,232 C 428,163 451,242 313,297 C 153,282 114,214 302,249 C 473,127 633,363 286,375 C 222,273 387,226 303,414 Z"></path>
<path stroke="#31a06b" stroke-width="7" fill="#f9d84b" opacity="0.634476698646884" stroke-opacity="0.9679043242429194" transform="rotate(-42.0 400 300)" d="M 463,335  C 504,173 158,262 342,277 C 497,134 197,380 280,171 C 565,352 413,427 574,151 C 488,472 575,386 506,263 C 257,452 693,110 629,463 C 189,345 167,270 399,276 Z"></path>
<path stroke="#31a06b" stroke-width="5" fill="#31a06b" opacity="0.16006720810818642" stroke-opacity="0.28230802167461455" transform="rotate(75.0 400 300)" d="M 570,494  C 526,305 120,496 122,255 C 367,310 417,154 586,309 C 629,200 603,167 174,104 C 600,383 348,409 260,292 C 248,215 342,254 599,416 C 102,478 573,270 700,116 C 285,350 597,274 364,336 C 675,318 284,222 544,464 C 354,379 371,268 332,180 C 548,408 214,238 393,421 C 665,305 426,160 302,179 Z"></path>
<path stroke="#f27630" stroke-width="7" fill="#ed2b2c" opacity="0.41578475660754277" stroke-opacity="0.07975639226328476" transform="rotate(109.0 400 300)" d="M 647,396  C 314,111 642,266 129,221 C 584,231 262,458 405,444 C 300,124 296,203 124,411 C 278,192 289,424 149,498 C 601,484 570,286 240,495 C 297,253 330,162 453,361 C 188,253 262,113 353,371 C 541,121 697,178 281,339 C 593,375 375,128 282,493 C 205,230 429,311 638,492 C 200,283 285,313 192,186 Z"></path>
<path stroke="#f27630" stroke-width="1" fill="#2b55f7" opacity="0.3546039455513487" stroke-opacity="0.024858024625696622" transform="rotate(13.0 400 300)" d="M 510,349  C 549,153 458,455 640,431 C 174,414 559,452 450,492 C 153,122 679,262 530,453 C 454,167 542,127 440,462 C 654,192 582,103 671,250 C 507,197 362,398 178,228 C 279,252 407,221 549,164 Z"></path>
<path stroke="#ed2b2c" stroke-width="6" fill="#f27630" opacity="0.13517913850567914" stroke-opacity="0.05624078175171386" transform="rotate(70.0 400 300)" d="M 568,169  C 630,473 634,398 549,146 C 195,461 418,461 619,174 C 101,265 434,484 130,452 C 292,112 165,473 310,315 C 644,383 327,295 211,495 C 682,443 526,207 679,158 Z"></path>
<path stroke="#2b55f7" stroke-width="5" fill="#ed2b2c" opacity="0.3976810973847444" stroke-opacity="0.9352307802223453" transform="rotate(-116.0 400 300)" d="M 125,414  C 356,219 485,444 226,233 C 650,326 106,337 480,276 C 491,132 282,131 682,267 C 533,380 645,151 569,119 C 439,171 669,279 528,290 Z"></path>
<path stroke="#f9d84b" stroke-width="3" fill="#ed2b2c" opacity="0.8721046247761308" stroke-opacity="0.01996285877036281" transform="rotate(-101.0 400 300)" d="M 145,476  C 448,371 555,330 231,158 C 646,300 562,343 692,308 C 173,113 598,424 517,326 C 591,235 124,490 260,392 C 389,362 239,288 476,463 C 453,277 126,203 167,356 C 157,156 619,133 272,456 C 314,122 669,455 443,131 Z"></path>
<path stroke="#ed2b2c" stroke-width="2" fill="#2b55f7" opacity="0.6638500083532315" stroke-opacity="0.18090143146304202" transform="rotate(-34.0 400 300)" d="M 138,302  C 575,475 632,293 214,439 C 347,485 108,312 659,322 C 449,173 172,332 583,458 C 563,454 592,369 158,371 C 331,424 127,349 317,235 C 505,406 591,319 554,389 C 475,392 287,193 230,233 C 414,465 317,465 136,500 C 438,169 511,306 687,464 C 146,424 202,442 124,434 Z"></path>
<path stroke="#2b55f7" stroke-width="7" fill="#31a06b" opacity="0.5883386723557735" stroke-opacity="0.31581364419568053" transform="rotate(171.0 400 300)" d="M 676,336  C 149,234 590,270 669,434 C 201,259 207,383 430,385 C 113,392 197,231 555,344 C 356,187 640,227 421,338 C 498,424 469,314 378,271 C 209,432 288,133 430,199 C 312,374 395,242 653,291 C 173,491 561,482 594,234 C 266,130 652,291 277,481 C 242,280 295,377 555,104 C 245,284 441,362 535,165 Z"></path>

  </g>
</svg>
