<?xml version="1.0" encoding="UTF-8"?>
<svg width="800px" height="600px" viewBox="0 0 800 600" version="1.1" xmlns="http://www.w3.org/2000/svg" xmlns:xlink="http://www.w3.org/1999/xlink">
  <defs></defs>
  <g stroke="none" stroke-width="1" fill="none" fill-rule="evenodd">
    
    <path stroke="#02eb6b" stroke-width="6" fill="#02eb6b" opacity="0.18873872480981274" stroke-opacity="0.24242702539488725" transform="rotate(125.0 400 300)" d="M 247,137  C 556,135 403,257 213,136 C 607,217 135,271 599,495 C 315,301 426,153 191,454 C 137,328 571,364 479,225 C 438,359 656,474 251,396 C 316,237 389,495 225,325 C 312,130 248,257 481,126 Z"></path>
<polygon stroke="#0fa6d8" stroke-width="4" fill="#2cd3f3" opacity="0.47911541398718704" stroke-opacity="0.9337495823108405" transform="rotate(-98.0 400 300)" points="195 120 127 141 441 88 573 246 32 49 425 280 122 331 179 89 "></polygon>
<path stroke="#02eb6b" stroke-width="3" fill="#fe9225" opacity="0.9529742596002994" stroke-opacity="0.7916206227650021" transform="rotate(-23.0 400 300)" d="M 331,419  C 667,462 447,221 132,401 C 402,296 220,280 149,374 C 198,204 374,487 335,254 C 424,340 606,118 217,122 C 162,106 105,466 481,466 Z"></path>
<path stroke="#f559a0" stroke-width="5" fill="#f559a0" opacity="0.12882391501789447" stroke-opacity="0.9016995149319341" transform="rotate(174.0 400 300)" d="M 671,488  C 640,166 104,490 544,103 C 294,332 316,359 244,250 C 428,209 384,356 337,181 C 648,471 298,149 351,356 Z"></path>
<rect stroke="#02eb6b" stroke-width="2" fill="#2cd3f3" opacity="0.47594611389742947" stroke-opacity="0.5829395817527945" transform="rotate(-59.0 400 300)" x="518" y="190" width="370" height="392"></rect>
<ellipse stroke="#2cd3f3" stroke-width="4" fill="#0fa6d8" opacity="0.6953581020569051" stroke-opacity="0.07353906503060086" transform="rotate(-72.0 400 300)" cx="562" rx="224" cy="238" ry="139"></ellipse>
<path stroke="#2cd3f3" stroke-width="5" fill="#02eb6b" opacity="0.03214175591916375" stroke-opacity="0.8875533865637163" transform="rotate(60.0 400 300)" d="M 512,143  C 507,201 351,153 540,151 C 698,347 404,400 411,477 C 299,180 264,248 178,347 C 490,135 381,255 633,348 Z"></path>

  </g>
</svg>
