<svg xmlns="http://www.w3.org/2000/svg" xmlns:xlink="http://www.w3.org/1999/xlink" width="800" height="600" version="1.1" viewBox="0 0 800 600"><g fill="none" fill-rule="evenodd" stroke="none" stroke-width="1"><path fill="#02eb6b" stroke="#02eb6b" stroke-opacity=".242" stroke-width="6" d="M 247,137 C 556,135 403,257 213,136 C 607,217 135,271 599,495 C 315,301 426,153 191,454 C 137,328 571,364 479,225 C 438,359 656,474 251,396 C 316,237 389,495 225,325 C 312,130 248,257 481,126 Z" opacity=".189" transform="rotate(125.0 400 300)"/><polygon fill="#2cd3f3" stroke="#0fa6d8" stroke-opacity=".934" stroke-width="4" points="195 120 127 141 441 88 573 246 32 49 425 280 122 331 179 89" opacity=".479" transform="rotate(-98.0 400 300)"/><path fill="#fe9225" stroke="#02eb6b" stroke-opacity=".792" stroke-width="3" d="M 331,419 C 667,462 447,221 132,401 C 402,296 220,280 149,374 C 198,204 374,487 335,254 C 424,340 606,118 217,122 C 162,106 105,466 481,466 Z" opacity=".953" transform="rotate(-23.0 400 300)"/><path fill="#f559a0" stroke="#f559a0" stroke-opacity=".902" stroke-width="5" d="M 671,488 C 640,166 104,490 544,103 C 294,332 316,359 244,250 C 428,209 384,356 337,181 C 648,471 298,149 351,356 Z" opacity=".129" transform="rotate(174.0 400 300)"/><rect width="370" height="392" x="518" y="190" fill="#2cd3f3" stroke="#02eb6b" stroke-opacity=".583" stroke-width="2" opacity=".476" transform="rotate(-59.0 400 300)"/><ellipse cx="562" cy="238" fill="#0fa6d8" stroke="#2cd3f3" stroke-opacity=".074" stroke-width="4" opacity=".695" rx="224" ry="139" transform="rotate(-72.0 400 300)"/><path fill="#02eb6b" stroke="#2cd3f3" stroke-opacity=".888" stroke-width="5" d="M 512,143 C 507,201 351,153 540,151 C 698,347 404,400 411,477 C 299,180 264,248 178,347 C 490,135 381,255 633,348 Z" opacity=".032" transform="rotate(60.0 400 300)"/></g></svg>