<svg xmlns="http://www.w3.org/2000/svg" xmlns:xlink="http://www.w3.org/1999/xlink" width="800" height="600" version="1.1" viewBox="0 0 800 600"><g fill="none" fill-rule="evenodd" stroke="none" stroke-width="1"><path fill="#467459" stroke="#86A3C3" stroke-opacity=".648" stroke-width="6" d="M 251,110 C 470,225 114,466 572,368 C 494,313 427,187 341,470 C 488,227 240,191 458,211 C 124,140 549,225 170,367 C 323,127 632,309 439,370 C 529,438 667,453 655,479 C 199,250 344,324 109,172 C 576,463 218,475 603,203 C 561,368 579,164 395,161 C 259,246 401,144 273,443 Z" opacity=".42" transform="rotate(19.0 400 300)"/><path fill="#B49055" stroke="#978188" stroke-opacity=".715" stroke-width="3" d="M 419,276 C 363,350 261,240 402,244 C 646,398 267,133 162,129 C 573,276 382,277 661,402 C 144,467 247,294 222,460 Z" opacity=".568" transform="rotate(157.0 400 300)"/><path fill="#173222" stroke="#A8A455" stroke-opacity=".57" stroke-width="7" d="M 631,369 C 646,318 331,270 403,240 C 649,186 638,171 525,369 C 363,225 454,292 537,234 C 538,341 515,428 125,465 C 458,283 341,388 658,289 C 350,275 535,301 682,171 Z" opacity=".746" transform="rotate(136.0 400 300)"/><path fill="#460923" stroke="#1A58C9" stroke-opacity=".522" stroke-width="1" d="M 620,337 C 471,135 175,452 327,358 C 252,436 196,184 663,395 C 109,228 329,480 697,313 C 374,320 248,357 371,232 C 340,276 694,153 310,500 C 404,257 560,366 424,287 C 602,300 431,255 411,462 C 587,380 519,136 531,374 C 342,117 543,316 212,123 Z" opacity=".196" transform="rotate(-27.0 400 300)"/><path fill="#98C14D" stroke="#239D43" stroke-opacity=".573" stroke-width="2" d="M 315,221 C 276,236 260,205 173,313 C 336,415 323,183 378,152 C 217,187 277,160 580,245 C 190,435 661,147 580,364 C 360,458 375,159 278,154 C 505,277 188,180 614,289 C 230,280 619,229 421,497 C 336,140 667,184 514,115 C 300,307 360,168 166,258 C 647,198 134,333 457,117 C 425,369 281,464 623,375 Z" opacity=".645" transform="rotate(72.0 400 300)"/><path fill="#8BAA1A" stroke="#311C99" stroke-opacity=".399" stroke-width="5" d="M 245,325 C 520,104 361,458 600,366 C 563,166 385,227 669,360 C 567,307 174,267 606,320 C 687,489 587,151 306,110 C 532,174 412,180 509,145 Z" opacity=".565" transform="rotate(100.0 400 300)"/><path fill="#80C9BB" stroke="#77DB13" stroke-opacity=".739" stroke-width="3" d="M 321,362 C 674,312 628,274 324,293 C 329,233 220,464 430,329 C 379,282 562,388 192,168 C 376,162 360,369 399,399 C 441,335 204,166 213,370 C 318,217 279,181 485,442 C 301,160 404,323 143,129 C 275,111 353,242 122,440 C 586,256 664,408 305,276 C 149,461 655,281 414,351 C 585,234 244,187 152,330 Z" opacity=".585" transform="rotate(150.0 400 300)"/><path fill="#A5D591" stroke="#019108" stroke-opacity=".933" stroke-width="6" d="M 622,129 C 500,176 287,310 600,396 C 199,424 608,416 551,246 C 375,418 340,346 380,327 C 515,211 501,111 643,492 C 506,281 472,198 208,462 C 697,330 177,233 396,297 Z" opacity=".664" transform="rotate(-149.0 400 300)"/><path fill="#92A5AB" stroke="#911667" stroke-opacity=".7" stroke-width="5" d="M 507,444 C 104,304 429,436 546,235 C 264,124 403,123 308,177 C 241,220 255,480 467,421 C 558,146 381,301 657,405 C 304,153 394,436 501,400 Z" opacity=".841" transform="rotate(146.0 400 300)"/><path fill="#7CA906" stroke="#C77199" stroke-opacity=".812" stroke-width="1" d="M 193,477 C 380,425 695,287 258,147 C 379,500 465,416 699,401 C 650,140 458,338 646,315 C 555,339 189,308 343,383 C 478,302 392,395 160,492 C 489,463 504,261 367,103 C 249,379 566,172 366,107 Z" opacity=".687" transform="rotate(85.0 400 300)"/><path fill="#0A556B" stroke="#B81934" stroke-opacity=".045" stroke-width="2" d="M 600,330 C 234,241 607,404 236,264 C 221,279 594,345 530,102 C 377,404 351,157 196,492 C 222,392 597,302 128,142 C 388,116 359,478 571,475 C 594,255 284,376 218,128 C 376,406 138,368 141,461 C 326,299 307,350 295,448 C 645,123 336,152 169,362 Z" opacity=".854" transform="rotate(158.0 400 300)"/></g></svg>