<?xml version="1.0" encoding="UTF-8"?>
<svg width="800px" height="600px" viewBox="0 0 800 600" version="1.1" xmlns="http://www.w3.org/2000/svg" xmlns:xlink="http://www.w3.org/1999/xlink">
  <defs></defs>
  <g stroke="none" stroke-width="1" fill="none" fill-rule="evenodd">
    
    <path stroke="#86A3C3" stroke-width="6" fill="#467459" opacity="0.4195901226673266" stroke-opacity="0.6482736227863587" transform="rotate(19.0 400 300)" d="M 251,110  C 470,225 114,466 572,368 C 494,313 427,187 341,470 C 488,227 240,191 458,211 C 124,140 549,225 170,367 C 323,127 632,309 439,370 C 529,438 667,453 655,479 C 199,250 344,324 109,172 C 576,463 218,475 603,203 C 561,368 579,164 395,161 C 259,246 401,144 273,443 Z"></path>
<path stroke="#978188" stroke-width="3" fill="#B49055" opacity="0.5682009630151735" stroke-opacity="0.7150755180148303" transform="rotate(157.0 400 300)" d="M 419,276  C 363,350 261,240 402,244 C 646,398 267,133 162,129 C 573,276 382,277 661,402 C 144,467 247,294 222,460 Z"></path>
<path stroke="#A8A455" stroke-width="7" fill="#173222" opacity="0.7455483536269552" stroke-opacity="0.5700488058436188" transform="rotate(136.0 400 300)" d="M 631,369  C 646,318 331,270 403,240 C 649,186 638,171 525,369 C 363,225 454,292 537,234 C 538,341 515,428 125,465 C 458,283 341,388 658,289 C 350,275 535,301 682,171 Z"></path>
<path stroke="#1A58C9" stroke-width="1" fill="#460923" opacity="0.19630211705168826" stroke-opacity="0.5223666975256319" transform="rotate(-27.0 400 300)" d="M 620,337  C 471,135 175,452 327,358 C 252,436 196,184 663,395 C 109,228 329,480 697,313 C 374,320 248,357 371,232 C 340,276 694,153 310,500 C 404,257 560,366 424,287 C 602,300 431,255 411,462 C 587,380 519,136 531,374 C 342,117 543,316 212,123 Z"></path>
<path stroke="#239D43" stroke-width="2" fill="#98C14D" opacity="0.6447827485188286" stroke-opacity="0.5726064975483305" transform="rotate(72.0 400 300)" d="M 315,221  C 276,236 260,205 173,313 C 336,415 323,183 378,152 C 217,187 277,160 580,245 C 190,435 661,147 580,364 C 360,458 375,159 278,154 C 505,277 188,180 614,289 C 230,280 619,229 421,497 C 336,140 667,184 514,115 C 300,307 360,168 166,258 C 647,198 134,333 457,117 C 425,369 281,464 623,375 Z"></path>
<path stroke="#311C99" stroke-width="5" fill="#8BAA1A" opacity="0.5651596791211505" stroke-opacity="0.3985684622685066" transform="rotate(100.0 400 300)" d="M 245,325  C 520,104 361,458 600,366 C 563,166 385,227 669,360 C 567,307 174,267 606,320 C 687,489 587,151 306,110 C 532,174 412,180 509,145 Z"></path>
<path stroke="#77DB13" stroke-width="3" fill="#80C9BB" opacity="0.5854647977609625" stroke-opacity="0.7391492321002194" transform="rotate(150.0 400 300)" d="M 321,362  C 674,312 628,274 324,293 C 329,233 220,464 430,329 C 379,282 562,388 192,168 C 376,162 360,369 399,399 C 441,335 204,166 213,370 C 318,217 279,181 485,442 C 301,160 404,323 143,129 C 275,111 353,242 122,440 C 586,256 664,408 305,276 C 149,461 655,281 414,351 C 585,234 244,187 152,330 Z"></path>
<path stroke="#019108" stroke-width="6" fill="#A5D591" opacity="0.6643319272921959" stroke-opacity="0.9331328155120887" transform="rotate(-149.0 400 300)" d="M 622,129  C 500,176 287,310 600,396 C 199,424 608,416 551,246 C 375,418 340,346 380,327 C 515,211 501,111 643,492 C 506,281 472,198 208,462 C 697,330 177,233 396,297 Z"></path>
<path stroke="#911667" stroke-width="5" fill="#92A5AB" opacity="0.8413218875247045" stroke-opacity="0.7001535851946918" transform="rotate(146.0 400 300)" d="M 507,444  C 104,304 429,436 546,235 C 264,124 403,123 308,177 C 241,220 255,480 467,421 C 558,146 381,301 657,405 C 304,153 394,436 501,400 Z"></path>
<path stroke="#C77199" stroke-width="1" fill="#7CA906" opacity="0.6873691245334704" stroke-opacity="0.8118475472200333" transform="rotate(85.0 400 300)" d="M 193,477  C 380,425 695,287 258,147 C 379,500 465,416 699,401 C 650,140 458,338 646,315 C 555,339 189,308 343,383 C 478,302 392,395 160,492 C 489,463 504,261 367,103 C 249,379 566,172 366,107 Z"></path>
<path stroke="#B81934" stroke-width="2" fill="#0A556B" opacity="0.8538621505661027" stroke-opacity="0.04503016759210143" transform="rotate(158.0 400 300)" d="M 600,330  C 234,241 607,404 236,264 C 221,279 594,345 530,102 C 377,404 351,157 196,492 C 222,392 597,302 128,142 C 388,116 359,478 571,475 C 594,255 284,376 218,128 C 376,406 138,368 141,461 C 326,299 307,350 295,448 C 645,123 336,152 169,362 Z"></path>

  </g>
</svg>
