<svg xmlns="http://www.w3.org/2000/svg" xmlns:xlink="http://www.w3.org/1999/xlink" width="800" height="600" version="1.1" viewBox="0 0 800 600"><g fill="none" fill-rule="evenodd" stroke="none" stroke-width="1"><path fill="#2cd3f3" stroke="#02eb6b" stroke-opacity=".456" stroke-width="3" d="M 163,448 C 400,448 129,324 175,262 C 656,382 546,191 381,237 C 210,431 363,416 210,405 C 630,184 622,170 624,455 C 360,339 483,271 699,351 Z" opacity=".2" transform="rotate(-166.0 400 300)"/><path fill="#f559a0" stroke="#02eb6b" stroke-opacity=".872" stroke-width="4" d="M 362,198 C 684,353 142,448 229,136 C 183,299 627,313 520,371 C 394,148 549,488 445,117 C 583,480 258,125 231,462 C 490,154 436,458 558,294 C 223,263 472,181 532,467 C 215,272 566,225 188,288 C 173,208 571,431 648,190 Z" opacity=".746" transform="rotate(-42.0 400 300)"/><path fill="#2cd3f3" stroke="#fe9225" stroke-opacity=".105" stroke-width="3" d="M 641,185 C 334,354 616,156 253,202 C 374,104 173,434 170,106 C 103,492 538,447 504,409 C 410,330 201,262 181,147 C 366,210 365,134 152,232 C 489,131 346,391 578,283 C 496,290 204,165 106,290 C 627,287 238,453 427,423 C 329,129 116,211 255,498 Z" opacity=".06" transform="rotate(28.0 400 300)"/><path fill="#0fa6d8" stroke="#f559a0" stroke-opacity=".836" stroke-width="4" d="M 448,247 C 312,144 561,428 316,453 C 382,309 246,114 484,402 C 529,198 311,125 325,329 C 636,209 543,279 198,168 C 500,262 220,290 383,260 C 502,459 360,190 585,304 C 153,352 562,410 544,439 C 491,246 551,469 428,136 C 582,303 468,131 506,259 C 208,117 353,270 291,470 Z" opacity=".383" transform="rotate(174.0 400 300)"/><path fill="#f559a0" stroke="#02eb6b" stroke-opacity=".179" stroke-width="2" d="M 646,215 C 177,159 390,262 652,372 C 515,237 424,127 323,165 C 126,498 325,291 125,294 C 646,206 197,422 164,268 Z" opacity=".036" transform="rotate(154.0 400 300)"/><path fill="#f559a0" stroke="#02eb6b" stroke-opacity=".594" stroke-width="4" d="M 469,292 C 572,372 689,355 446,211 C 278,244 373,145 615,180 C 130,374 638,225 313,277 C 197,174 293,394 205,299 C 513,255 438,217 565,438 C 613,435 590,197 454,213 C 437,208 550,335 636,304 C 324,466 133,134 562,461 C 506,448 239,133 511,427 C 435,138 182,357 140,216 C 227,353 637,251 621,401 Z" opacity=".044" transform="rotate(-104.0 400 300)"/><path fill="#02eb6b" stroke="#0fa6d8" stroke-opacity=".902" stroke-width="5" d="M 643,135 C 257,403 608,473 453,494 C 108,117 630,104 386,286 C 690,105 694,196 489,243 C 588,378 462,365 203,466 C 146,411 252,384 512,433 C 517,254 493,278 274,144 C 165,133 140,136 267,156 Z" opacity=".076" transform="rotate(83.0 400 300)"/><path fill="#fe9225" stroke="#0fa6d8" stroke-opacity=".251" stroke-width="4" d="M 229,103 C 295,413 700,252 223,476 C 303,484 198,148 249,295 C 487,247 158,158 437,364 C 345,351 278,489 120,470 C 493,481 330,303 526,295 C 111,221 355,303 210,176 C 484,393 583,185 366,358 C 439,242 192,449 309,362 C 504,400 476,134 117,206 C 670,187 311,141 380,182 C 668,316 491,308 548,388 Z" opacity=".591" transform="rotate(-83.0 400 300)"/></g></svg>