<?xml version="1.0" encoding="UTF-8"?>
<svg width="800px" height="600px" viewBox="0 0 800 600" version="1.1" xmlns="http://www.w3.org/2000/svg" xmlns:xlink="http://www.w3.org/1999/xlink">
  <defs></defs>
  <g stroke="none" stroke-width="1" fill="none" fill-rule="evenodd">
    
    <polygon stroke="#2b55f7" stroke-width="6" fill="#31a06b" opacity="0.42931211166549155" stroke-opacity="0.3487317729393837" transform="rotate(-16.0 400 300)" points="476 31 453 359 646 42 284 88 28 6 580 263 146 100 "></polygon>
<rect stroke="#2b55f7" stroke-width="4" fill="#f27630" opacity="0.1864978818098363" stroke-opacity="0.8702226963279409" transform="rotate(42.0 400 300)" x="171" y="255" width="127" height="29"></rect>
<polygon stroke="#2b55f7" stroke-width="7" fill="#31a06b" opacity="0.6222295169650939" stroke-opacity="0.358509518582323" transform="rotate(-62.0 400 300)" points="258 360 61 131 160 119 625 482 352 77 443 244 "></polygon>
<polygon stroke="#31a06b" stroke-width="2" fill="#2b55f7" opacity="0.04449113115586757" stroke-opacity="0.7443020277622953" transform="rotate(-35.0 400 300)" points="676 526 350 326 604 444 382 5 691 371 217 349 169 417 643 328 "></polygon>
<ellipse stroke="#2b55f7" stroke-width="1" fill="#31a06b" opacity="0.25249804130477715" stroke-opacity="0.41227933269571754" transform="rotate(-101.0 400 300)" cx="118" rx="153" cy="54" ry="89"></ellipse>
<path stroke="#ed2b2c" stroke-width="7" fill="#ed2b2c" opacity="0.4324990100612061" stroke-opacity="0.9984598356643807" transform="rotate(-36.0 400 300)" d="M 155,273  C 239,466 464,444 582,110 C 225,258 566,314 177,395 C 576,270 111,275 278,400 C 552,120 283,372 287,273 Z"></path>
<ellipse stroke="#2b55f7" stroke-width="3" fill="#f9d84b" opacity="0.9476546404974826" stroke-opacity="0.8598708299061992" transform="rotate(68.0 400 300)" cx="769" rx="267" cy="5" ry="66"></ellipse>
<path stroke="#f9d84b" stroke-width="2" fill="#f9d84b" opacity="0.5033492345450145" stroke-opacity="0.42348881930551036" transform="rotate(-89.0 400 300)" d="M 103,311  C 314,479 140,497 325,360 C 118,305 589,117 489,483 C 360,295 381,456 632,178 C 541,117 272,125 190,145 C 211,210 269,346 400,378 C 318,286 476,149 509,295 C 576,390 608,486 514,417 C 696,195 598,402 417,318 C 646,247 281,490 662,113 C 329,149 566,361 149,293 C 508,367 692,457 290,316 Z"></path>
<path stroke="#2b55f7" stroke-width="1" fill="#2b55f7" opacity="0.3796377647350323" stroke-opacity="0.15328765307169426" transform="rotate(90.0 400 300)" d="M 139,311  C 309,269 500,442 280,196 C 481,239 489,428 344,413 C 342,121 658,101 454,477 C 182,343 234,171 278,122 C 391,260 170,439 125,475 C 403,362 575,332 470,483 C 456,229 136,171 222,458 C 441,416 668,400 561,307 C 105,251 153,398 547,378 C 130,328 511,471 632,286 C 628,308 153,227 192,161 Z"></path>
<path stroke="#ed2b2c" stroke-width="4" fill="#2b55f7" opacity="0.5772655574068648" stroke-opacity="0.8700414723176491" transform="rotate(68.0 400 300)" d="M 393,280  C 592,426 514,235 180,101 C 170,145 192,303 425,448 C 536,289 543,290 487,236 C 148,478 239,293 519,286 C 539,279 194,283 507,368 C 614,240 570,141 208,154 C 140,191 576,483 189,408 Z"></path>

  </g>
</svg>
