<svg xmlns="http://www.w3.org/2000/svg" xmlns:xlink="http://www.w3.org/1999/xlink" width="800" height="600" version="1.1" viewBox="0 0 800 600"><g fill="none" fill-rule="evenodd" stroke="none" stroke-width="1"><polygon fill="#31a06b" stroke="#2b55f7" stroke-opacity=".349" stroke-width="6" points="476 31 453 359 646 42 284 88 28 6 580 263 146 100" opacity=".429" transform="rotate(-16.0 400 300)"/><rect width="127" height="29" x="171" y="255" fill="#f27630" stroke="#2b55f7" stroke-opacity=".87" stroke-width="4" opacity=".186" transform="rotate(42.0 400 300)"/><polygon fill="#31a06b" stroke="#2b55f7" stroke-opacity=".359" stroke-width="7" points="258 360 61 131 160 119 625 482 352 77 443 244" opacity=".622" transform="rotate(-62.0 400 300)"/><polygon fill="#2b55f7" stroke="#31a06b" stroke-opacity=".744" stroke-width="2" points="676 526 350 326 604 444 382 5 691 371 217 349 169 417 643 328" opacity=".044" transform="rotate(-35.0 400 300)"/><ellipse cx="118" cy="54" fill="#31a06b" stroke="#2b55f7" stroke-opacity=".412" stroke-width="1" opacity=".252" rx="153" ry="89" transform="rotate(-101.0 400 300)"/><path fill="#ed2b2c" stroke="#ed2b2c" stroke-opacity=".998" stroke-width="7" d="M 155,273 C 239,466 464,444 582,110 C 225,258 566,314 177,395 C 576,270 111,275 278,400 C 552,120 283,372 287,273 Z" opacity=".432" transform="rotate(-36.0 400 300)"/><ellipse cx="769" cy="5" fill="#f9d84b" stroke="#2b55f7" stroke-opacity=".86" stroke-width="3" opacity=".948" rx="267" ry="66" transform="rotate(68.0 400 300)"/><path fill="#f9d84b" stroke="#f9d84b" stroke-opacity=".423" stroke-width="2" d="M 103,311 C 314,479 140,497 325,360 C 118,305 589,117 489,483 C 360,295 381,456 632,178 C 541,117 272,125 190,145 C 211,210 269,346 400,378 C 318,286 476,149 509,295 C 576,390 608,486 514,417 C 696,195 598,402 417,318 C 646,247 281,490 662,113 C 329,149 566,361 149,293 C 508,367 692,457 290,316 Z" opacity=".503" transform="rotate(-89.0 400 300)"/><path fill="#2b55f7" stroke="#2b55f7" stroke-opacity=".153" stroke-width="1" d="M 139,311 C 309,269 500,442 280,196 C 481,239 489,428 344,413 C 342,121 658,101 454,477 C 182,343 234,171 278,122 C 391,260 170,439 125,475 C 403,362 575,332 470,483 C 456,229 136,171 222,458 C 441,416 668,400 561,307 C 105,251 153,398 547,378 C 130,328 511,471 632,286 C 628,308 153,227 192,161 Z" opacity=".38" transform="rotate(90.0 400 300)"/><path fill="#2b55f7" stroke="#ed2b2c" stroke-opacity=".87" stroke-width="4" d="M 393,280 C 592,426 514,235 180,101 C 170,145 192,303 425,448 C 536,289 543,290 487,236 C 148,478 239,293 519,286 C 539,279 194,283 507,368 C 614,240 570,141 208,154 C 140,191 576,483 189,408 Z" opacity=".577" transform="rotate(68.0 400 300)"/></g></svg>