<svg xmlns="http://www.w3.org/2000/svg" xmlns:xlink="http://www.w3.org/1999/xlink" width="800" height="600" version="1.1" viewBox="0 0 800 600"><g fill="none" fill-rule="evenodd" stroke="none" stroke-width="1"><polygon fill="#6C11C3" stroke="#AD9600" stroke-opacity=".828" stroke-width="7" points="430 564 711 513 60 206 717 192 2 419 330 184" opacity=".888" transform="rotate(164.0 400 300)"/><rect width="371" height="222" x="347" y="50" fill="#CC3600" stroke="#1C500A" stroke-opacity=".004" stroke-width="2" opacity=".178" transform="rotate(32.0 400 300)"/><polygon fill="#715713" stroke="#D33243" stroke-opacity=".753" stroke-width="3" points="166 141 728 10 53 17 71 220 170 600 770 577 289 347 272 118" opacity=".722" transform="rotate(-87.0 400 300)"/><rect width="165" height="330" x="11" y="549" fill="#082C02" stroke="#675279" stroke-opacity=".491" stroke-width="2" opacity=".507" transform="rotate(18.0 400 300)"/><polygon fill="#4616AD" stroke="#74BC5B" stroke-opacity=".057" stroke-width="4" points="795 471 740 490 70 108 709 380 779 535 465 389 155 321 117 299" opacity=".631" transform="rotate(141.0 400 300)"/><path fill="#863187" stroke="#867905" stroke-opacity=".006" stroke-width="5" d="M 395,300 C 127,374 433,465 232,445 C 375,120 250,193 598,349 C 139,279 415,344 124,434 C 210,153 587,227 413,267 C 356,451 645,335 256,439 C 635,344 430,300 587,122 C 178,376 297,154 416,254 C 526,279 557,139 179,244 Z" opacity=".178" transform="rotate(176.0 400 300)"/><rect width="204" height="52" x="310" y="414" fill="#0188C9" stroke="#394D1A" stroke-opacity=".549" stroke-width="7" opacity=".974" transform="rotate(23.0 400 300)"/><path fill="#468B59" stroke="#A1BA0C" stroke-opacity=".425" stroke-width="3" d="M 489,125 C 550,170 230,357 559,475 C 503,138 281,354 611,380 C 165,189 614,225 187,176 C 679,458 483,451 233,330 C 285,444 657,202 382,179 C 122,481 236,380 228,383 Z" opacity=".056" transform="rotate(-162.0 400 300)"/><ellipse cx="643" cy="314" fill="#50A008" stroke="#5A604B" stroke-opacity=".688" stroke-width="1" opacity=".445" rx="282" ry="238" transform="rotate(64.0 400 300)"/><ellipse cx="376" cy="373" fill="#0A2523" stroke="#07966C" stroke-opacity=".916" stroke-width="1" opacity=".337" rx="191" ry="175" transform="rotate(167.0 400 300)"/><path fill="#D425BB" stroke="#03A880" stroke-opacity=".461" stroke-width="7" d="M 682,242 C 657,334 270,362 686,484 C 562,208 466,423 627,382 C 525,186 550,126 462,143 C 347,297 380,165 255,441 C 461,332 396,265 431,276 C 182,206 158,463 121,459 C 136,164 448,442 290,473 C 135,155 149,410 119,472 Z" opacity=".697" transform="rotate(100.0 400 300)"/></g></svg>