<?xml version="1.0" encoding="UTF-8"?>
<svg width="800px" height="600px" viewBox="0 0 800 600" version="1.1" xmlns="http://www.w3.org/2000/svg" xmlns:xlink="http://www.w3.org/1999/xlink">
  <defs></defs>
  <g stroke="none" stroke-width="1" fill="none" fill-rule="evenodd">
    
    <path stroke="#9CBB10" stroke-width="3" fill="#952B69" opacity="0.39122878926319454" stroke-opacity="0.4107671887258914" transform="rotate(-98.0 400 300)" d="M 533,346  C 169,170 361,402 510,346 C 680,199 627,146 336,269 C 435,269 231,221 173,210 C 456,497 218,139 669,357 C 210,168 228,456 244,236 C 608,254 294,293 518,400 C 338,403 419,228 155,206 C 592,170 680,349 594,465 C 326,499 587,244 551,141 C 146,386 512,477 691,153 Z"></path>
<path stroke="#51DDA7" stroke-width="3" fill="#53330C" opacity="0.14292899960853994" stroke-opacity="0.962603487066381" transform="rotate(30.0 400 300)" d="M 343,412  C 339,369 387,188 252,324 C 388,451 467,247 563,489 C 264,476 671,148 330,321 C 401,346 265,368 555,401 C 657,136 600,401 234,224 C 688,332 113,326 470,209 C 666,103 213,102 430,453 C 504,468 464,243 144,463 Z"></path>
<path stroke="#C8487D" stroke-width="5" fill="#D0B0D9" opacity="0.8544064451221497" stroke-opacity="0.17853567533808423" transform="rotate(140.0 400 300)" d="M 310,305  C 331,451 368,116 301,238 C 126,180 145,328 208,335 C 480,320 108,223 449,308 C 328,109 663,163 301,114 C 407,310 146,490 650,401 Z"></path>
<path stroke="#D8C7D4" stroke-width="1" fill="#6B2600" opacity="0.9809710358582525" stroke-opacity="0.6253087865596818" transform="rotate(-118.0 400 300)" d="M 186,437  C 105,245 322,178 441,135 C 530,112 218,329 475,337 C 517,215 247,132 694,334 C 384,182 574,258 204,122 Z"></path>
<path stroke="#177944" stroke-width="2" fill="#0DDC25" opacity="0.7412468956723982" stroke-opacity="0.46648759410937923" transform="rotate(-152.0 400 300)" d="M 535,141  C 359,300 518,422 559,177 C 577,237 175,384 197,191 C 144,448 380,487 642,196 C 398,407 561,160 245,351 C 316,315 119,412 473,446 C 150,286 597,102 403,396 C 447,326 666,406 491,228 C 325,308 597,281 663,419 C 610,495 533,466 650,295 Z"></path>
<path stroke="#B56C85" stroke-width="2" fill="#03CBA8" opacity="0.4182340710697853" stroke-opacity="0.9275518973528187" transform="rotate(4.0 400 300)" d="M 305,201  C 315,171 344,226 621,322 C 691,211 608,148 453,128 C 173,106 443,201 540,466 C 424,329 666,255 359,339 Z"></path>
<path stroke="#CA5C15" stroke-width="7" fill="#C764DB" opacity="0.8150170463912128" stroke-opacity="0.36076118159624554" transform="rotate(-153.0 400 300)" d="M 195,160  C 293,166 438,354 459,343 C 634,417 244,434 449,399 C 446,438 357,384 351,286 C 527,290 573,149 680,219 C 693,113 140,269 393,489 C 530,357 522,470 508,325 C 283,288 248,381 508,149 C 281,271 394,282 562,242 C 262,130 649,359 526,278 C 608,231 634,312 319,448 C 325,118 102,314 138,380 Z"></path>
<path stroke="#46CB39" stroke-width="1" fill="#3C5806" opacity="0.7024264789697919" stroke-opacity="0.3713023239914389" transform="rotate(-164.0 400 300)" d="M 581,365  C 249,360 402,359 133,372 C 561,261 358,297 667,246 C 237,435 644,254 394,274 C 111,313 694,490 509,244 C 482,218 612,247 550,172 C 149,395 116,390 399,477 Z"></path>
<path stroke="#7AC77B" stroke-width="6" fill="#208538" opacity="0.02220779073872478" stroke-opacity="0.05641946952196538" transform="rotate(-161.0 400 300)" d="M 482,479  C 211,422 638,198 239,435 C 368,412 319,267 281,105 C 618,431 209,105 531,199 C 515,261 332,345 421,325 C 698,325 251,359 315,110 C 637,141 485,221 148,250 C 596,337 681,306 561,480 C 432,356 310,377 667,355 C 532,147 400,309 484,236 Z"></path>
<path stroke="#BA4B67" stroke-width="1" fill="#AD2D70" opacity="0.5527147470581736" stroke-opacity="0.9327233379618405" transform="rotate(-135.0 400 300)" d="M 173,292  C 671,499 617,222 647,290 C 383,144 621,254 279,152 C 206,171 342,412 336,309 C 549,497 402,327 362,108 C 657,310 220,364 590,458 C 396,129 267,203 169,259 C 222,332 505,194 617,149 C 693,298 503,252 403,338 Z"></path>
<path stroke="#1DA29B" stroke-width="3" fill="#5A20DC" opacity="0.7586914195832718" stroke-opacity="0.2411176151523406" transform="rotate(115.0 400 300)" d="M 373,275  C 166,186 520,268 308,492 C 309,162 225,350 607,162 C 329,325 152,260 620,329 C 587,368 223,370 169,313 C 209,409 192,189 475,302 C 200,455 213,455 364,365 C 613,193 524,154 670,173 Z"></path>

  </g>
</svg>
