<svg xmlns="http://www.w3.org/2000/svg" xmlns:xlink="http://www.w3.org/1999/xlink" width="800" height="600" version="1.1" viewBox="0 0 800 600"><g fill="none" fill-rule="evenodd" stroke="none" stroke-width="1"><path fill="#2cd3f3" stroke="#fe9225" stroke-opacity=".073" stroke-width="7" d="M 631,290 C 281,337 283,468 183,112 C 530,239 152,331 391,157 C 115,457 377,365 302,206 C 508,134 267,464 540,164 Z" opacity=".502" transform="rotate(-73.0 400 300)"/><polygon fill="#2cd3f3" stroke="#02eb6b" stroke-opacity=".808" stroke-width="5" points="6 582 531 130 139 51 240 520 70 13" opacity=".33" transform="rotate(-159.0 400 300)"/><polygon fill="#0fa6d8" stroke="#fe9225" stroke-opacity=".113" stroke-width="6" points="787 42 635 197 106 488 628 227 230 254" opacity=".08" transform="rotate(43.0 400 300)"/><ellipse cx="794" cy="104" fill="#f559a0" stroke="#0fa6d8" stroke-opacity=".733" stroke-width="3" opacity=".634" rx="155" ry="196" transform="rotate(129.0 400 300)"/><rect width="343" height="303" x="215" y="144" fill="#2cd3f3" stroke="#f559a0" stroke-opacity=".228" stroke-width="2" opacity=".285" transform="rotate(-14.0 400 300)"/><ellipse cx="170" cy="544" fill="#fe9225" stroke="#02eb6b" stroke-opacity=".631" stroke-width="3" opacity=".104" rx="86" ry="125" transform="rotate(17.0 400 300)"/><ellipse cx="502" cy="60" fill="#02eb6b" stroke="#2cd3f3" stroke-opacity=".834" stroke-width="4" opacity=".724" rx="78" ry="162" transform="rotate(-24.0 400 300)"/><ellipse cx="212" cy="203" fill="#02eb6b" stroke="#f559a0" stroke-opacity=".624" stroke-width="6" opacity=".503" rx="434" ry="104" transform="rotate(66.0 400 300)"/><polygon fill="#02eb6b" stroke="#02eb6b" stroke-opacity=".419" stroke-width="4" points="724 300 671 450 560 188 457 92 451 512 795 155" opacity=".384" transform="rotate(60.0 400 300)"/><rect width="242" height="143" x="371" y="96" fill="#02eb6b" stroke="#02eb6b" stroke-opacity=".091" stroke-width="6" opacity=".531" transform="rotate(129.0 400 300)"/></g></svg>