<svg xmlns="http://www.w3.org/2000/svg" xmlns:xlink="http://www.w3.org/1999/xlink" width="800" height="600" version="1.1" viewBox="0 0 800 600"><g fill="none" fill-rule="evenodd" stroke="none" stroke-width="1"><path fill="#7DC284" stroke="#0CCB25" stroke-opacity=".171" stroke-width="1" d="M 156,280 C 342,235 174,258 599,367 C 119,384 104,105 390,194 C 441,328 262,132 387,360 C 507,252 656,284 388,323 C 283,247 511,121 415,166 C 479,211 613,314 611,364 C 230,467 575,273 255,373 C 191,255 480,247 432,204 C 596,179 209,178 602,411 C 593,156 587,138 544,209 C 492,474 292,380 684,170 Z" opacity=".098" transform="rotate(-171.0 400 300)"/><path fill="#820590" stroke="#D3A21D" stroke-opacity=".903" stroke-width="2" d="M 135,368 C 351,174 300,304 365,410 C 696,391 538,367 467,168 C 199,169 127,262 263,328 C 408,372 327,239 621,477 C 151,235 531,303 508,179 C 273,402 478,375 336,380 C 531,184 489,240 379,226 C 496,350 362,418 341,198 C 643,215 426,421 429,121 C 510,343 685,243 514,199 C 637,139 132,490 305,277 Z" opacity=".885" transform="rotate(42.0 400 300)"/><path fill="#02A87A" stroke="#053A87" stroke-opacity=".118" stroke-width="7" d="M 104,191 C 410,162 520,201 443,419 C 240,477 509,366 242,450 C 284,251 325,469 367,365 C 672,256 660,469 382,237 Z" opacity=".575" transform="rotate(157.0 400 300)"/><path fill="#887285" stroke="#2A5229" stroke-opacity=".005" stroke-width="7" d="M 368,452 C 183,499 679,281 532,215 C 331,474 255,183 155,447 C 487,146 155,208 301,391 C 158,223 384,464 115,334 C 125,156 123,108 618,188 Z" opacity=".847" transform="rotate(118.0 400 300)"/><path fill="#1CA258" stroke="#3B59C3" stroke-opacity=".772" stroke-width="7" d="M 226,176 C 112,409 378,411 154,118 C 398,499 304,120 252,187 C 462,224 526,279 632,380 C 569,122 693,160 329,452 C 157,422 474,137 515,123 C 591,253 542,482 536,358 C 441,190 396,454 451,250 C 254,491 622,142 348,415 C 295,112 308,244 308,443 Z" opacity=".117" transform="rotate(-155.0 400 300)"/><path fill="#6DA452" stroke="#3B0041" stroke-opacity=".435" stroke-width="4" d="M 626,103 C 295,178 560,215 147,210 C 531,462 388,251 118,466 C 285,125 228,493 598,276 C 199,191 360,351 657,166 C 560,158 421,452 167,220 C 272,232 153,285 614,285 C 461,225 219,165 498,277 C 363,302 166,286 364,374 C 548,492 529,453 446,149 Z" opacity=".897" transform="rotate(-71.0 400 300)"/><path fill="#5B05B5" stroke="#68A549" stroke-opacity=".903" stroke-width="4" d="M 521,379 C 459,156 249,358 366,156 C 207,293 277,261 356,236 C 553,461 492,186 397,399 C 200,445 574,158 444,370 Z" opacity=".119" transform="rotate(175.0 400 300)"/><path fill="#448A51" stroke="#406CC1" stroke-opacity=".517" stroke-width="2" d="M 655,339 C 600,254 505,382 197,292 C 652,482 615,351 154,220 C 384,320 135,447 591,279 C 274,309 696,483 444,381 C 418,203 643,185 324,225 Z" opacity=".208" transform="rotate(76.0 400 300)"/><path fill="#41DA11" stroke="#07B4C4" stroke-opacity=".81" stroke-width="7" d="M 465,436 C 389,193 132,106 668,335 C 474,236 563,394 184,254 C 636,152 182,299 630,270 C 552,182 460,188 214,454 Z" opacity=".292" transform="rotate(77.0 400 300)"/><path fill="#3446B4" stroke="#DD6C53" stroke-opacity=".467" stroke-width="5" d="M 483,402 C 458,108 173,264 145,255 C 690,312 418,403 432,454 C 146,465 244,177 509,277 C 389,449 674,167 117,419 C 290,299 639,475 677,218 C 362,346 382,438 448,462 C 156,472 468,280 323,387 C 697,236 515,223 433,255 C 109,479 218,135 397,493 C 173,103 377,405 382,229 C 579,299 235,443 375,364 Z" opacity=".674" transform="rotate(179.0 400 300)"/></g></svg>