<?xml version="1.0" encoding="UTF-8"?>
<svg width="800px" height="600px" viewBox="0 0 800 600" version="1.1" xmlns="http://www.w3.org/2000/svg" xmlns:xlink="http://www.w3.org/1999/xlink">
  <defs></defs>
  <g stroke="none" stroke-width="1" fill="none" fill-rule="evenodd">
    
    <path stroke="#f9d84b" stroke-width="5" fill="#f9d84b" opacity="0.3166377996560694" stroke-opacity="0.836247202230492" transform="rotate(158.0 400 300)" d="M 159,153  C 344,310 160,211 404,272 C 614,352 312,304 454,496 C 340,211 623,241 418,393 C 418,135 144,273 685,398 C 119,398 383,232 177,321 Z"></path>
<path stroke="#2b55f7" stroke-width="5" fill="#f27630" opacity="0.20976586757625906" stroke-opacity="0.8026300123141267" transform="rotate(64.0 400 300)" d="M 579,222  C 319,383 554,358 542,441 C 574,297 235,278 544,207 C 511,400 584,131 400,365 C 637,318 652,241 443,489 C 353,462 541,443 310,438 C 211,162 238,253 598,382 C 634,427 700,130 669,321 C 597,303 481,148 400,252 Z"></path>
<path stroke="#ed2b2c" stroke-width="4" fill="#ed2b2c" opacity="0.20147591178039473" stroke-opacity="0.3016793939171604" transform="rotate(-130.0 400 300)" d="M 313,350  C 601,245 185,248 278,197 C 585,429 568,246 491,327 C 179,348 686,300 450,244 C 472,335 639,113 226,173 C 171,241 446,123 404,473 C 631,228 485,338 617,158 C 252,437 191,216 481,351 Z"></path>
<path stroke="#f9d84b" stroke-width="1" fill="#f27630" opacity="0.7666561555387558" stroke-opacity="0.8402963565260315" transform="rotate(40.0 400 300)" d="M 390,198  C 590,120 210,144 517,497 C 208,418 635,113 563,239 C 601,487 636,252 528,293 C 279,278 283,112 449,424 C 445,278 621,485 548,281 C 613,220 247,267 306,183 C 276,330 509,422 332,206 C 457,170 388,144 633,498 Z"></path>
<path stroke="#ed2b2c" stroke-width="6" fill="#31a06b" opacity="0.8803216063594782" stroke-opacity="0.7549745921542932" transform="rotate(15.0 400 300)" d="M 134,228  C 278,430 146,400 380,439 C 480,205 286,289 483,283 C 439,180 528,189 431,163 C 288,329 171,320 385,391 C 486,223 700,396 646,172 Z"></path>
<path stroke="#ed2b2c" stroke-width="4" fill="#ed2b2c" opacity="0.34639940505642175" stroke-opacity="0.9822255691740587" transform="rotate(86.0 400 300)" d="M 515,175  C 687,283 264,472 174,392 C 671,296 372,454 338,410 C 246,440 598,121 525,241 C 414,355 490,357 452,154 C 232,362 417,476 427,185 C 412,189 442,296 414,306 C 298,298 497,490 378,167 C 198,393 239,284 491,146 Z"></path>
<path stroke="#ed2b2c" stroke-width="6" fill="#ed2b2c" opacity="0.3170122763620977" stroke-opacity="0.3549824742114816" transform="rotate(143.0 400 300)" d="M 125,106  C 568,404 181,297 298,188 C 478,394 309,341 273,346 C 580,432 115,201 438,169 C 620,273 561,317 599,278 C 368,380 506,391 600,327 C 384,457 626,347 140,267 C 347,161 210,190 385,208 C 257,331 365,468 674,394 C 356,129 487,402 540,432 C 408,395 277,122 403,126 C 323,479 463,484 425,337 Z"></path>
<path stroke="#ed2b2c" stroke-width="1" fill="#f9d84b" opacity="0.28074435002277154" stroke-opacity="0.6506805594694121" transform="rotate(-3.0 400 300)" d="M 590,380  C 164,365 307,137 389,462 C 176,240 472,459 108,182 C 434,205 158,315 237,433 C 327,185 579,308 355,347 C 397,164 334,208 617,221 C 697,171 692,339 305,304 C 376,261 157,340 439,486 C 473,428 567,498 135,448 C 307,443 236,283 593,472 Z"></path>
<path stroke="#f9d84b" stroke-width="1" fill="#f27630" opacity="0.4206534940636562" stroke-opacity="0.636003417877621" transform="rotate(13.0 400 300)" d="M 223,191  C 611,434 483,427 365,129 C 339,404 160,190 208,301 C 106,483 321,296 310,193 C 558,113 251,110 463,317 C 572,392 374,285 453,302 Z"></path>

  </g>
</svg>
