<svg xmlns="http://www.w3.org/2000/svg" xmlns:xlink="http://www.w3.org/1999/xlink" width="800" height="600" version="1.1" viewBox="0 0 800 600"><g fill="none" fill-rule="evenodd" stroke="none" stroke-width="1"><ellipse cx="737" cy="70" fill="#ed2b2c" stroke="#2b55f7" stroke-opacity=".754" stroke-width="5" opacity=".274" rx="220" ry="299" transform="rotate(47.0 400 300)"/><ellipse cx="399" cy="343" fill="#f9d84b" stroke="#f9d84b" stroke-opacity=".714" stroke-width="4" opacity=".561" rx="405" ry="345" transform="rotate(11.0 400 300)"/><polygon fill="#f27630" stroke="#f9d84b" stroke-opacity=".218" stroke-width="3" points="111 55 229 301 287 43 324 480 642 328" opacity=".146" transform="rotate(8.0 400 300)"/><rect width="213" height="240" x="621" y="408" fill="#2b55f7" stroke="#f9d84b" stroke-opacity=".162" stroke-width="7" opacity=".896" transform="rotate(70.0 400 300)"/><polygon fill="#f9d84b" stroke="#f9d84b" stroke-opacity=".629" stroke-width="5" points="570 270 337 34 246 375 732 82 470 35" opacity=".78" transform="rotate(-105.0 400 300)"/><path fill="#2b55f7" stroke="#2b55f7" stroke-opacity=".416" stroke-width="6" d="M 310,144 C 247,437 368,158 625,484 C 321,422 231,150 252,251 C 340,109 531,425 222,464 C 569,353 117,392 599,432 C 270,340 359,344 153,431 C 539,169 187,396 666,219 C 279,495 414,248 324,216 C 306,399 434,315 531,176 Z" opacity=".109" transform="rotate(86.0 400 300)"/><polygon fill="#2b55f7" stroke="#2b55f7" stroke-opacity=".672" stroke-width="2" points="347 17 408 346 427 281 285 20 685 177" opacity=".943" transform="rotate(53.0 400 300)"/></g></svg>