<?xml version="1.0" encoding="UTF-8"?>
<svg width="800px" height="600px" viewBox="0 0 800 600" version="1.1" xmlns="http://www.w3.org/2000/svg" xmlns:xlink="http://www.w3.org/1999/xlink">
  <defs></defs>
  <g stroke="none" stroke-width="1" fill="none" fill-rule="evenodd">
    
    <path stroke="#74D9C0" stroke-width="7" fill="#DACC33" opacity="0.7348979370618658" stroke-opacity="0.5550524442930252" transform="rotate(-157.0 400 300)" d="M 458,434  C 694,187 344,113 500,192 C 102,226 336,350 186,425 C 526,377 627,323 436,410 C 144,220 124,157 680,364 C 391,317 125,149 358,443 C 560,295 403,497 241,311 C 466,135 234,491 239,340 C 137,234 375,342 209,480 C 612,137 582,348 481,255 C 634,492 145,262 221,439 C 681,373 673,315 233,284 Z"></path>
<path stroke="#77347D" stroke-width="5" fill="#8878AA" opacity="0.24912478194491916" stroke-opacity="0.7257864853367761" transform="rotate(111.0 400 300)" d="M 194,292  C 671,315 438,312 543,231 C 287,247 577,259 690,289 C 693,136 109,452 542,424 C 396,241 422,131 299,498 C 161,247 503,263 361,128 C 583,130 158,279 695,135 C 454,232 405,232 583,408 C 343,275 615,255 563,401 Z"></path>
<path stroke="#8B01B6" stroke-width="1" fill="#653552" opacity="0.04451531182806577" stroke-opacity="0.7260434153796063" transform="rotate(-30.0 400 300)" d="M 149,476  C 432,385 180,301 167,145 C 630,148 506,160 425,294 C 473,347 447,345 363,426 C 613,327 655,276 622,221 C 320,343 276,363 348,349 C 188,427 234,400 400,485 C 587,285 157,482 157,438 C 109,406 617,453 548,135 C 344,450 228,473 652,290 C 610,476 123,308 640,235 Z"></path>
<path stroke="#C7B2A6" stroke-width="6" fill="#264269" opacity="0.24922396688891735" stroke-opacity="0.7246390961141767" transform="rotate(46.0 400 300)" d="M 186,145  C 472,283 617,105 402,402 C 438,278 490,375 165,450 C 326,135 126,439 494,172 C 404,127 487,111 162,279 C 574,393 697,367 586,428 C 356,284 663,164 439,173 C 599,329 311,450 524,352 Z"></path>
<path stroke="#2C333A" stroke-width="4" fill="#D7CD89" opacity="0.1472787797842731" stroke-opacity="0.22292744120809133" transform="rotate(-92.0 400 300)" d="M 170,425  C 597,370 631,388 133,250 C 517,403 598,161 470,371 C 322,420 587,266 592,266 C 521,314 411,149 222,359 C 672,338 695,397 564,191 C 384,304 539,252 469,212 C 564,292 204,471 485,494 C 161,238 182,405 312,261 Z"></path>
<path stroke="#154969" stroke-width="2" fill="#2CC3A4" opacity="0.7110421015016308" stroke-opacity="0.35173455037107926" transform="rotate(-84.0 400 300)" d="M 672,139  C 468,406 296,433 244,236 C 509,240 406,205 568,165 C 645,322 144,222 436,113 C 316,274 267,348 346,301 Z"></path>
<path stroke="#21AA10" stroke-width="6" fill="#5A7904" opacity="0.9493100890165705" stroke-opacity="0.8712049388815697" transform="rotate(-101.0 400 300)" d="M 499,400  C 343,132 634,413 638,326 C 132,453 278,241 599,359 C 165,315 304,348 373,179 C 531,142 312,208 131,229 C 580,186 613,389 434,333 C 229,281 176,469 388,125 C 121,429 482,332 554,413 C 496,136 452,479 351,101 C 336,360 249,279 212,108 Z"></path>

  </g>
</svg>
