<svg xmlns="http://www.w3.org/2000/svg" xmlns:xlink="http://www.w3.org/1999/xlink" width="800" height="600" version="1.1" viewBox="0 0 800 600"><g fill="none" fill-rule="evenodd" stroke="none" stroke-width="1"><ellipse cx="321" cy="472" fill="#0fa6d8" stroke="#fe9225" stroke-opacity=".121" stroke-width="4" opacity=".92" rx="320" ry="81" transform="rotate(140.0 400 300)"/><path fill="#02eb6b" stroke="#fe9225" stroke-opacity=".741" stroke-width="2" d="M 235,343 C 116,113 369,263 461,425 C 346,446 307,227 260,300 C 471,370 660,361 559,461 C 624,280 317,357 593,270 C 607,379 257,275 462,441 C 665,358 481,477 630,373 C 663,193 273,259 369,297 C 365,348 193,181 178,283 C 192,219 443,200 345,372 Z" opacity=".136" transform="rotate(38.0 400 300)"/><polygon fill="#2cd3f3" stroke="#2cd3f3" stroke-opacity=".564" stroke-width="7" points="647 394 426 66 368 136 361 124 168 67 592 323" opacity=".821" transform="rotate(-11.0 400 300)"/><path fill="#0fa6d8" stroke="#f559a0" stroke-opacity=".708" stroke-width="7" d="M 379,109 C 413,178 640,315 245,380 C 372,344 672,373 642,496 C 457,319 689,302 454,381 C 352,193 469,404 286,336 C 373,422 428,433 263,226 Z" opacity=".756" transform="rotate(140.0 400 300)"/><ellipse cx="737" cy="447" fill="#2cd3f3" stroke="#0fa6d8" stroke-opacity=".211" stroke-width="6" opacity=".368" rx="309" ry="249" transform="rotate(59.0 400 300)"/><rect width="393" height="219" x="719" y="523" fill="#f559a0" stroke="#fe9225" stroke-opacity=".029" stroke-width="4" opacity=".254" transform="rotate(-149.0 400 300)"/><rect width="390" height="163" x="514" y="542" fill="#2cd3f3" stroke="#0fa6d8" stroke-opacity=".324" stroke-width="3" opacity=".38" transform="rotate(-126.0 400 300)"/><rect width="287" height="107" x="156" y="471" fill="#0fa6d8" stroke="#2cd3f3" stroke-opacity=".307" stroke-width="6" opacity=".142" transform="rotate(-104.0 400 300)"/><polygon fill="#2cd3f3" stroke="#2cd3f3" stroke-opacity=".285" stroke-width="2" points="711 1 419 150 216 492 421 443 100 77 621 202 68 63" opacity=".454" transform="rotate(179.0 400 300)"/></g></svg>