<svg xmlns="http://www.w3.org/2000/svg" xmlns:xlink="http://www.w3.org/1999/xlink" width="800" height="600" version="1.1" viewBox="0 0 800 600"><g fill="none" fill-rule="evenodd" stroke="none" stroke-width="1"><path fill="#f9d84b" stroke="#f9d84b" stroke-opacity=".627" stroke-width="2" d="M 667,191 C 383,196 226,500 582,395 C 354,118 223,224 345,444 C 649,221 455,115 550,343 C 373,143 211,404 559,415 C 393,152 511,354 478,411 C 252,378 686,481 517,369 C 166,300 200,212 562,344 Z" opacity=".114" transform="rotate(145.0 400 300)"/><path fill="#f27630" stroke="#f9d84b" stroke-opacity=".375" stroke-width="3" d="M 687,270 C 697,229 658,423 103,285 C 352,246 525,352 388,163 C 597,161 432,471 278,490 C 418,240 462,347 299,106 C 573,119 341,231 571,476 C 242,312 175,257 112,155 Z" opacity=".298" transform="rotate(106.0 400 300)"/><path fill="#f9d84b" stroke="#31a06b" stroke-opacity=".982" stroke-width="1" d="M 548,290 C 573,206 344,302 412,495 C 190,472 691,458 617,403 C 234,411 432,143 343,197 C 221,461 384,431 698,453 Z" opacity=".729" transform="rotate(114.0 400 300)"/><path fill="#2b55f7" stroke="#f9d84b" stroke-opacity=".244" stroke-width="4" d="M 663,179 C 683,288 617,372 537,430 C 527,197 522,340 476,234 C 530,121 139,206 261,295 C 611,362 164,237 446,235 Z" opacity=".128" transform="rotate(-122.0 400 300)"/><path fill="#f9d84b" stroke="#ed2b2c" stroke-opacity=".219" stroke-width="1" d="M 233,456 C 584,226 508,178 291,409 C 651,281 434,438 512,488 C 141,150 279,437 331,249 C 355,411 635,261 567,462 C 429,170 593,134 582,372 C 412,393 632,130 228,217 C 215,499 661,286 671,432 C 461,483 642,468 163,482 C 305,127 469,395 311,197 C 663,287 124,291 397,472 Z" opacity=".447" transform="rotate(81.0 400 300)"/><path fill="#f9d84b" stroke="#2b55f7" stroke-opacity=".808" stroke-width="3" d="M 240,438 C 117,202 505,403 172,441 C 684,456 534,467 333,491 C 333,485 430,396 262,159 C 254,423 505,310 109,437 Z" opacity=".038" transform="rotate(125.0 400 300)"/></g></svg>