<?xml version="1.0" encoding="UTF-8"?>
<svg width="800px" height="600px" viewBox="0 0 800 600" version="1.1" xmlns="http://www.w3.org/2000/svg" xmlns:xlink="http://www.w3.org/1999/xlink">
  <defs></defs>
  <g stroke="none" stroke-width="1" fill="none" fill-rule="evenodd">
    
    <path stroke="#f559a0" stroke-width="2" fill="#f559a0" opacity="0.37587417717715577" stroke-opacity="0.6253011383190639" transform="rotate(71.0 400 300)" d="M 222,481  C 270,321 381,109 347,171 C 416,436 581,340 235,449 C 668,380 624,349 675,482 C 581,178 637,409 480,158 C 290,133 315,385 479,357 C 295,198 123,249 275,463 C 223,339 249,243 359,257 C 324,210 496,186 257,310 C 475,198 674,213 503,398 Z"></path>
<path stroke="#f559a0" stroke-width="3" fill="#2cd3f3" opacity="0.9443640312831761" stroke-opacity="0.5847596794863409" transform="rotate(-136.0 400 300)" d="M 530,128  C 353,132 196,255 104,204 C 472,164 314,142 581,219 C 345,336 385,285 635,177 C 233,381 138,234 180,272 C 163,378 648,475 179,320 C 337,403 463,431 342,466 C 106,400 592,185 676,252 C 563,140 573,445 563,274 C 203,321 486,489 592,206 C 548,126 608,126 267,463 C 567,250 442,437 227,104 Z"></path>
<path stroke="#0fa6d8" stroke-width="2" fill="#02eb6b" opacity="0.1723034276759461" stroke-opacity="0.538426884363213" transform="rotate(21.0 400 300)" d="M 460,137  C 488,360 688,493 621,107 C 104,426 452,323 503,209 C 606,207 192,430 683,176 C 692,426 409,101 351,280 C 269,131 699,395 319,401 C 126,210 195,270 555,421 Z"></path>
<path stroke="#f559a0" stroke-width="4" fill="#f559a0" opacity="0.6199120399231499" stroke-opacity="0.3168943043905942" transform="rotate(133.0 400 300)" d="M 564,302  C 583,164 352,197 348,164 C 691,308 133,240 679,111 C 337,308 459,491 681,456 C 416,484 303,484 330,317 C 199,385 680,424 346,351 C 516,141 109,292 501,211 C 560,343 637,485 415,264 C 386,157 466,108 374,116 Z"></path>
<path stroke="#fe9225" stroke-width="6" fill="#2cd3f3" opacity="0.9705243701288027" stroke-opacity="0.2671023662488429" transform="rotate(83.0 400 300)" d="M 380,465  C 277,275 596,306 360,458 C 297,193 623,399 252,500 C 155,379 194,392 472,455 C 216,147 260,500 508,174 C 461,282 349,314 559,148 C 458,457 580,187 280,217 Z"></path>
<path stroke="#0fa6d8" stroke-width="4" fill="#f559a0" opacity="0.6461438877414739" stroke-opacity="0.11641547274352651" transform="rotate(-96.0 400 300)" d="M 235,181  C 574,310 147,185 445,243 C 236,487 186,140 505,425 C 146,133 129,102 275,408 C 239,106 351,237 413,179 C 243,454 607,253 596,128 C 221,378 567,332 529,119 C 547,246 145,489 541,234 C 172,149 276,406 600,462 C 647,263 286,166 542,340 Z"></path>
<path stroke="#02eb6b" stroke-width="5" fill="#0fa6d8" opacity="0.17565268254396024" stroke-opacity="0.2521399851018381" transform="rotate(-73.0 400 300)" d="M 362,299  C 151,248 106,471 642,431 C 407,327 454,454 666,305 C 431,486 323,196 171,373 C 505,301 385,305 394,440 Z"></path>
<path stroke="#f559a0" stroke-width="1" fill="#f559a0" opacity="0.8698420587111919" stroke-opacity="0.17326878962988718" transform="rotate(-158.0 400 300)" d="M 287,230  C 466,190 645,231 637,453 C 697,213 135,120 188,294 C 206,140 468,422 662,239 C 109,281 108,310 353,188 Z"></path>

  </g>
</svg>
