<svg xmlns="http://www.w3.org/2000/svg" xmlns:xlink="http://www.w3.org/1999/xlink" width="800" height="600" version="1.1" viewBox="0 0 800 600"><g fill="none" fill-rule="evenodd" stroke="none" stroke-width="1"><path fill="#f559a0" stroke="#2cd3f3" stroke-opacity=".449" stroke-width="1" d="M 208,454 C 280,340 232,356 179,460 C 563,308 693,196 567,156 C 601,467 102,278 672,432 C 124,492 685,457 524,400 C 247,191 138,122 274,314 C 292,482 646,463 146,377 C 282,220 259,275 562,267 Z" opacity=".758" transform="rotate(-173.0 400 300)"/><path fill="#2cd3f3" stroke="#fe9225" stroke-opacity=".195" stroke-width="7" d="M 585,363 C 221,458 248,261 208,378 C 112,489 369,262 476,411 C 161,408 572,280 457,163 C 253,268 536,260 225,277 Z" opacity=".14" transform="rotate(-53.0 400 300)"/><path fill="#2cd3f3" stroke="#2cd3f3" stroke-opacity=".679" stroke-width="7" d="M 505,212 C 534,480 533,406 162,116 C 395,449 651,429 432,333 C 551,217 451,359 681,304 C 612,223 341,201 531,273 C 697,483 137,196 160,338 C 401,208 333,372 625,315 C 155,412 482,340 499,470 Z" opacity=".489" transform="rotate(-164.0 400 300)"/><path fill="#fe9225" stroke="#fe9225" stroke-opacity=".076" stroke-width="5" d="M 470,255 C 366,452 502,490 543,155 C 699,314 625,160 666,391 C 166,137 194,130 313,162 C 652,155 588,286 563,476 Z" opacity=".6" transform="rotate(-51.0 400 300)"/><path fill="#02eb6b" stroke="#02eb6b" stroke-opacity=".327" stroke-width="2" d="M 254,466 C 627,464 118,208 144,378 C 216,476 217,420 183,360 C 475,446 300,490 142,256 C 515,114 469,145 388,265 C 477,186 460,190 381,117 C 390,390 467,176 386,360 C 676,294 540,408 104,245 C 118,448 129,295 118,493 Z" opacity=".844" transform="rotate(-54.0 400 300)"/><path fill="#2cd3f3" stroke="#fe9225" stroke-opacity=".146" stroke-width="7" d="M 208,105 C 468,277 383,407 420,377 C 622,257 476,110 234,150 C 243,314 685,476 300,150 C 346,294 504,391 173,413 C 307,374 204,261 630,437 C 237,115 320,240 370,472 C 474,492 551,337 167,349 C 661,423 376,134 386,196 C 698,487 576,474 128,423 C 278,102 331,351 660,387 Z" opacity=".114" transform="rotate(38.0 400 300)"/><path fill="#02eb6b" stroke="#2cd3f3" stroke-opacity=".076" stroke-width="7" d="M 525,430 C 627,291 599,413 485,248 C 571,214 674,202 412,386 C 130,173 556,474 125,208 C 212,454 381,182 697,225 C 469,161 195,346 551,347 C 469,266 151,478 588,133 C 564,102 162,340 106,416 C 519,374 364,272 648,500 Z" opacity=".339" transform="rotate(129.0 400 300)"/></g></svg>