<svg xmlns="http://www.w3.org/2000/svg" xmlns:xlink="http://www.w3.org/1999/xlink" width="800" height="600" version="1.1" viewBox="0 0 800 600"><g fill="none" fill-rule="evenodd" stroke="none" stroke-width="1"><path fill="#183831" stroke="#0C7365" stroke-opacity=".749" stroke-width="5" d="M 556,418 C 452,498 638,272 596,118 C 400,359 262,471 164,104 C 610,333 224,410 318,294 C 140,310 370,379 277,345 Z" opacity=".429" transform="rotate(-91.0 400 300)"/><rect width="333" height="237" x="391" y="19" fill="#144B7C" stroke="#C0308B" stroke-opacity=".349" stroke-width="7" opacity=".728" transform="rotate(109.0 400 300)"/><path fill="#B98261" stroke="#7D1D2B" stroke-opacity=".365" stroke-width="1" d="M 124,157 C 290,468 601,255 425,371 C 500,312 599,275 589,267 C 302,223 391,332 295,123 C 167,114 192,146 276,218 C 285,163 382,112 308,390 C 504,334 375,176 421,126 C 125,287 274,385 470,200 C 135,398 460,322 293,362 Z" opacity=".658" transform="rotate(-29.0 400 300)"/><polygon fill="#2432D5" stroke="#970B28" stroke-opacity=".734" stroke-width="4" points="649 99 107 333 473 512 770 599 230 579 498 269 436 303" opacity=".584" transform="rotate(134.0 400 300)"/><ellipse cx="259" cy="163" fill="#871CCD" stroke="#093AB0" stroke-opacity=".36" stroke-width="5" opacity=".894" rx="90" ry="233" transform="rotate(139.0 400 300)"/><polygon fill="#44A4C3" stroke="#7A3529" stroke-opacity=".476" stroke-width="2" points="266 153 6 82 748 569 84 11 445 313 508 4" opacity=".464" transform="rotate(-39.0 400 300)"/><ellipse cx="298" cy="384" fill="#B3D167" stroke="#800C1C" stroke-opacity=".44" stroke-width="7" opacity=".207" rx="333" ry="177" transform="rotate(-122.0 400 300)"/></g></svg>