<?xml version="1.0" encoding="UTF-8"?>
<svg width="800px" height="600px" viewBox="0 0 800 600" version="1.1" xmlns="http://www.w3.org/2000/svg" xmlns:xlink="http://www.w3.org/1999/xlink">
  <defs></defs>
  <g stroke="none" stroke-width="1" fill="none" fill-rule="evenodd">
    
    <rect stroke="#ed2b2c" stroke-width="1" fill="#2b55f7" opacity="0.38880928334602827" stroke-opacity="0.3492285175286077" transform="rotate(-52.0 400 300)" x="61" y="553" width="40" height="365"></rect>
<ellipse stroke="#ed2b2c" stroke-width="2" fill="#f27630" opacity="0.3618717037350845" stroke-opacity="0.9804007928974249" transform="rotate(-127.0 400 300)" cx="707" rx="35" cy="480" ry="125"></ellipse>
<ellipse stroke="#ed2b2c" stroke-width="2" fill="#2b55f7" opacity="0.9473955757186538" stroke-opacity="0.8521619006508072" transform="rotate(-1.0 400 300)" cx="27" rx="264" cy="383" ry="346"></ellipse>
<path stroke="#2b55f7" stroke-width="7" fill="#31a06b" opacity="0.5859437772298831" stroke-opacity="0.37603786463712346" transform="rotate(-151.0 400 300)" d="M 436,372  C 565,414 371,289 596,263 C 697,404 311,128 204,290 C 102,406 114,277 188,161 C 523,500 210,469 304,286 C 580,187 678,339 644,366 C 377,348 463,409 494,238 C 441,394 498,139 356,403 Z"></path>
<ellipse stroke="#ed2b2c" stroke-width="6" fill="#31a06b" opacity="0.8989118784309973" stroke-opacity="0.7770384236976163" transform="rotate(-151.0 400 300)" cx="449" rx="223" cy="118" ry="151"></ellipse>
<ellipse stroke="#f27630" stroke-width="2" fill="#f9d84b" opacity="0.11831040642989289" stroke-opacity="0.967694195613001" transform="rotate(101.0 400 300)" cx="82" rx="168" cy="198" ry="257"></ellipse>
<polygon stroke="#31a06b" stroke-width="4" fill="#ed2b2c" opacity="0.702460649176925" stroke-opacity="0.5735044468562517" transform="rotate(79.0 400 300)" points="44 427 34 232 530 66 171 512 397 242 564 568 345 138 "></polygon>

  </g>
</svg>
