<svg xmlns="http://www.w3.org/2000/svg" xmlns:xlink="http://www.w3.org/1999/xlink" width="800" height="600" version="1.1" viewBox="0 0 800 600"><g fill="none" fill-rule="evenodd" stroke="none" stroke-width="1"><rect width="40" height="365" x="61" y="553" fill="#2b55f7" stroke="#ed2b2c" stroke-opacity=".349" stroke-width="1" opacity=".389" transform="rotate(-52.0 400 300)"/><ellipse cx="707" cy="480" fill="#f27630" stroke="#ed2b2c" stroke-opacity=".98" stroke-width="2" opacity=".362" rx="35" ry="125" transform="rotate(-127.0 400 300)"/><ellipse cx="27" cy="383" fill="#2b55f7" stroke="#ed2b2c" stroke-opacity=".852" stroke-width="2" opacity=".947" rx="264" ry="346" transform="rotate(-1.0 400 300)"/><path fill="#31a06b" stroke="#2b55f7" stroke-opacity=".376" stroke-width="7" d="M 436,372 C 565,414 371,289 596,263 C 697,404 311,128 204,290 C 102,406 114,277 188,161 C 523,500 210,469 304,286 C 580,187 678,339 644,366 C 377,348 463,409 494,238 C 441,394 498,139 356,403 Z" opacity=".586" transform="rotate(-151.0 400 300)"/><ellipse cx="449" cy="118" fill="#31a06b" stroke="#ed2b2c" stroke-opacity=".777" stroke-width="6" opacity=".899" rx="223" ry="151" transform="rotate(-151.0 400 300)"/><ellipse cx="82" cy="198" fill="#f9d84b" stroke="#f27630" stroke-opacity=".968" stroke-width="2" opacity=".118" rx="168" ry="257" transform="rotate(101.0 400 300)"/><polygon fill="#ed2b2c" stroke="#31a06b" stroke-opacity=".574" stroke-width="4" points="44 427 34 232 530 66 171 512 397 242 564 568 345 138" opacity=".702" transform="rotate(79.0 400 300)"/></g></svg>