<svg xmlns="http://www.w3.org/2000/svg" xmlns:xlink="http://www.w3.org/1999/xlink" width="800" height="600" version="1.1" viewBox="0 0 800 600"><g fill="none" fill-rule="evenodd" stroke="none" stroke-width="1"><path fill="#02eb6b" stroke="#0fa6d8" stroke-opacity=".353" stroke-width="1" d="M 209,150 C 290,375 466,225 405,356 C 283,199 198,221 421,212 C 316,171 698,373 148,262 C 447,347 341,401 696,137 Z" opacity=".834" transform="rotate(-74.0 400 300)"/><path fill="#2cd3f3" stroke="#2cd3f3" stroke-opacity=".084" stroke-width="5" d="M 352,268 C 356,272 407,497 182,483 C 676,296 491,358 629,393 C 123,217 192,429 534,150 C 390,492 620,174 217,273 C 573,368 557,310 439,430 C 635,180 284,382 410,168 C 373,267 694,291 514,356 C 614,403 522,306 534,311 C 432,256 126,304 565,252 C 350,376 625,284 361,239 C 681,483 411,136 265,303 Z" opacity=".664" transform="rotate(-78.0 400 300)"/><path fill="#0fa6d8" stroke="#fe9225" stroke-opacity=".416" stroke-width="7" d="M 676,470 C 447,308 283,157 209,113 C 459,249 477,178 353,236 C 177,439 521,285 568,267 C 319,205 685,158 135,408 C 311,313 150,230 202,491 C 325,367 439,322 108,231 C 460,197 393,209 491,465 C 683,345 331,418 441,201 C 151,499 562,442 363,429 Z" opacity=".917" transform="rotate(-140.0 400 300)"/><path fill="#2cd3f3" stroke="#2cd3f3" stroke-opacity=".673" stroke-width="2" d="M 256,224 C 693,432 677,381 373,406 C 333,495 605,203 484,165 C 559,382 435,239 675,373 C 652,344 316,272 606,345 C 482,130 222,118 696,272 Z" opacity=".782" transform="rotate(-34.0 400 300)"/><path fill="#0fa6d8" stroke="#fe9225" stroke-opacity=".75" stroke-width="5" d="M 201,295 C 619,165 344,277 468,234 C 306,287 450,312 122,385 C 460,211 545,292 563,490 C 447,368 196,300 567,272 C 608,494 530,171 196,209 C 440,143 665,347 233,154 Z" opacity=".972" transform="rotate(-120.0 400 300)"/><path fill="#0fa6d8" stroke="#0fa6d8" stroke-opacity=".104" stroke-width="5" d="M 252,112 C 221,405 316,424 265,327 C 445,268 580,446 586,346 C 159,241 479,293 236,185 C 241,184 490,135 545,362 C 195,261 625,421 114,320 C 340,202 139,382 594,168 C 223,359 452,355 169,172 C 357,311 605,174 697,372 C 345,201 445,270 608,334 C 496,186 679,330 493,322 Z" opacity=".002" transform="rotate(176.0 400 300)"/><path fill="#2cd3f3" stroke="#2cd3f3" stroke-opacity=".125" stroke-width="3" d="M 162,362 C 318,463 316,342 211,444 C 303,363 448,339 364,243 C 132,335 602,370 450,399 C 523,277 594,186 252,254 C 278,137 231,116 413,150 C 103,475 350,345 178,120 C 467,238 239,344 332,181 Z" opacity=".153" transform="rotate(111.0 400 300)"/><path fill="#fe9225" stroke="#2cd3f3" stroke-opacity=".537" stroke-width="2" d="M 453,418 C 398,102 213,499 484,236 C 125,370 141,412 552,197 C 196,197 402,113 465,473 C 381,229 281,205 135,308 C 259,401 692,327 500,129 C 223,354 209,342 237,340 Z" opacity=".982" transform="rotate(152.0 400 300)"/></g></svg>