<svg xmlns="http://www.w3.org/2000/svg" xmlns:xlink="http://www.w3.org/1999/xlink" width="800" height="600" version="1.1" viewBox="0 0 800 600"><g fill="none" fill-rule="evenodd" stroke="none" stroke-width="1"><path fill="#0fa6d8" stroke="#f559a0" stroke-opacity=".356" stroke-width="3" d="M 138,387 C 401,121 612,366 202,268 C 406,343 205,456 574,274 C 238,414 601,460 277,378 C 492,397 583,321 273,384 C 145,142 191,186 549,173 C 210,492 292,164 537,164 C 541,338 283,498 682,192 C 466,409 592,173 335,427 C 509,423 168,139 470,179 C 687,447 540,139 139,472 C 257,186 403,278 644,455 Z" opacity=".255" transform="rotate(134.0 400 300)"/><path fill="#2cd3f3" stroke="#f559a0" stroke-opacity=".522" stroke-width="7" d="M 671,493 C 353,134 286,259 309,331 C 179,286 184,420 234,471 C 593,373 112,111 545,323 C 368,242 351,134 561,378 C 442,419 114,297 449,430 Z" opacity=".959" transform="rotate(-99.0 400 300)"/><path fill="#fe9225" stroke="#fe9225" stroke-opacity=".144" stroke-width="2" d="M 121,215 C 628,470 324,217 414,458 C 628,374 167,413 128,498 C 243,435 501,405 247,364 C 244,500 567,172 411,434 C 523,431 667,488 559,128 C 168,440 609,119 422,410 Z" opacity=".827" transform="rotate(132.0 400 300)"/><path fill="#02eb6b" stroke="#fe9225" stroke-opacity=".777" stroke-width="5" d="M 153,211 C 230,179 611,266 328,300 C 415,431 668,201 316,317 C 283,154 478,157 238,125 C 560,303 131,375 373,158 C 491,124 560,384 111,264 C 483,411 277,382 323,188 C 173,217 633,349 106,386 C 247,185 642,474 530,163 C 329,283 662,391 164,369 Z" opacity=".518" transform="rotate(-177.0 400 300)"/><path fill="#02eb6b" stroke="#02eb6b" stroke-opacity=".815" stroke-width="4" d="M 282,456 C 333,488 395,231 601,253 C 166,478 609,250 517,342 C 276,406 532,336 380,276 C 136,141 419,378 412,349 C 571,308 113,394 509,403 C 513,232 445,482 203,282 C 309,471 671,424 654,240 C 561,123 260,381 611,125 C 588,271 700,446 608,231 C 644,237 362,192 237,385 Z" opacity=".348" transform="rotate(106.0 400 300)"/><path fill="#f559a0" stroke="#fe9225" stroke-opacity=".536" stroke-width="5" d="M 665,430 C 352,317 436,229 482,382 C 436,207 274,428 329,134 C 176,106 405,318 443,191 C 204,322 470,247 106,421 C 480,359 362,260 441,125 C 346,379 475,429 669,196 C 301,293 416,351 156,426 C 452,125 563,447 253,377 C 171,275 631,361 106,307 Z" opacity=".295" transform="rotate(21.0 400 300)"/><path fill="#2cd3f3" stroke="#0fa6d8" stroke-opacity=".732" stroke-width="4" d="M 484,453 C 511,335 387,166 315,142 C 349,273 384,455 499,469 C 250,375 626,181 608,427 C 508,464 608,202 576,160 C 438,384 655,150 355,351 C 194,429 128,128 277,486 C 576,493 352,314 145,430 C 371,315 216,497 212,172 C 522,371 257,264 662,380 Z" opacity=".262" transform="rotate(13.0 400 300)"/><path fill="#fe9225" stroke="#f559a0" stroke-opacity=".6" stroke-width="6" d="M 595,368 C 691,158 104,160 289,398 C 163,380 408,142 369,347 C 122,439 294,456 158,251 C 537,493 698,393 569,374 C 263,485 290,493 567,352 C 342,497 356,418 410,178 C 342,146 601,161 205,187 Z" opacity=".674" transform="rotate(-84.0 400 300)"/></g></svg>