<svg xmlns="http://www.w3.org/2000/svg" xmlns:xlink="http://www.w3.org/1999/xlink" width="800" height="600" version="1.1" viewBox="0 0 800 600"><g fill="none" fill-rule="evenodd" stroke="none" stroke-width="1"><polygon fill="#fe9225" stroke="#0fa6d8" stroke-opacity=".128" stroke-width="2" points="614 290 84 281 617 351 363 481 55 223 648 314 285 125" opacity=".844" transform="rotate(-138.0 400 300)"/><rect width="123" height="64" x="238" y="292" fill="#fe9225" stroke="#fe9225" stroke-opacity=".094" stroke-width="2" opacity=".793" transform="rotate(-131.0 400 300)"/><ellipse cx="616" cy="84" fill="#02eb6b" stroke="#f559a0" stroke-opacity=".258" stroke-width="2" opacity=".501" rx="218" ry="130" transform="rotate(-72.0 400 300)"/><path fill="#02eb6b" stroke="#02eb6b" stroke-opacity=".846" stroke-width="6" d="M 569,234 C 106,243 523,211 239,223 C 631,316 376,247 553,394 C 457,421 434,304 338,215 C 288,193 375,131 414,106 C 305,292 574,348 474,354 C 143,191 125,168 105,198 Z" opacity=".038" transform="rotate(-178.0 400 300)"/><ellipse cx="242" cy="488" fill="#fe9225" stroke="#fe9225" stroke-opacity=".483" stroke-width="2" opacity=".861" rx="249" ry="73" transform="rotate(48.0 400 300)"/><polygon fill="#f559a0" stroke="#f559a0" stroke-opacity=".066" stroke-width="3" points="531 192 50 297 229 130 247 324 261 206" opacity=".278" transform="rotate(-109.0 400 300)"/><polygon fill="#0fa6d8" stroke="#2cd3f3" stroke-opacity=".105" stroke-width="7" points="618 305 591 179 745 550 243 77 64 474 384 97 96 89 612 171" opacity=".576" transform="rotate(172.0 400 300)"/><path fill="#2cd3f3" stroke="#2cd3f3" stroke-opacity=".985" stroke-width="5" d="M 309,325 C 698,228 332,204 152,165 C 112,391 562,355 452,380 C 419,487 413,104 299,331 C 472,321 677,375 551,311 C 134,327 387,287 579,198 C 681,477 425,319 236,406 C 369,197 368,289 628,423 C 220,168 685,468 569,261 C 497,471 456,281 225,118 Z" opacity=".805" transform="rotate(169.0 400 300)"/><rect width="108" height="90" x="602" y="567" fill="#fe9225" stroke="#f559a0" stroke-opacity=".078" stroke-width="2" opacity=".371" transform="rotate(-128.0 400 300)"/></g></svg>