<svg xmlns="http://www.w3.org/2000/svg" xmlns:xlink="http://www.w3.org/1999/xlink" width="800" height="600" version="1.1" viewBox="0 0 800 600"><g fill="none" fill-rule="evenodd" stroke="none" stroke-width="1"><path fill="#4BCC77" stroke="#54CC1D" stroke-opacity=".294" stroke-width="3" d="M 281,333 C 542,310 670,278 428,222 C 439,365 618,289 410,379 C 123,419 385,230 115,371 C 195,293 466,264 663,188 C 464,401 280,493 509,324 C 480,284 542,316 691,214 C 448,226 695,127 307,262 Z" opacity=".244" transform="rotate(-129.0 400 300)"/><path fill="#138D15" stroke="#623ADA" stroke-opacity=".657" stroke-width="6" d="M 507,148 C 292,321 691,288 302,152 C 105,499 161,231 623,175 C 177,467 433,433 624,263 C 450,110 338,427 563,450 Z" opacity=".537" transform="rotate(-25.0 400 300)"/><path fill="#9766A9" stroke="#5D8218" stroke-opacity=".317" stroke-width="6" d="M 225,308 C 294,398 448,167 543,120 C 136,356 270,224 458,385 C 547,457 365,474 439,485 C 103,364 190,339 182,110 C 331,449 689,432 424,226 C 554,281 204,469 146,117 C 510,137 186,165 410,309 C 348,143 604,443 511,137 C 444,371 341,198 283,170 C 218,265 344,209 604,414 Z" opacity=".975" transform="rotate(122.0 400 300)"/><path fill="#716D3D" stroke="#0792C3" stroke-opacity=".303" stroke-width="5" d="M 547,395 C 497,289 466,390 585,365 C 305,189 402,463 225,137 C 637,158 662,265 559,401 C 664,375 695,302 570,153 C 308,152 134,340 415,229 Z" opacity=".175" transform="rotate(99.0 400 300)"/><path fill="#3D6A02" stroke="#86A2A1" stroke-opacity=".36" stroke-width="4" d="M 655,147 C 192,203 168,256 426,472 C 588,348 109,133 123,118 C 268,440 484,200 108,448 C 628,244 648,484 180,263 Z" opacity=".51" transform="rotate(12.0 400 300)"/><path fill="#C6072A" stroke="#853855" stroke-opacity=".754" stroke-width="2" d="M 302,207 C 157,486 207,359 472,359 C 108,304 255,357 572,391 C 146,195 242,492 115,349 C 186,155 389,351 564,464 C 345,279 338,485 117,387 C 565,134 643,483 425,483 C 292,233 515,213 232,495 C 278,226 125,140 674,365 C 214,102 344,317 665,281 C 280,409 526,414 177,487 C 355,402 355,114 495,440 Z" opacity=".251" transform="rotate(-140.0 400 300)"/><path fill="#5DB773" stroke="#DA50D6" stroke-opacity=".501" stroke-width="5" d="M 208,170 C 621,172 131,466 300,112 C 243,126 251,396 446,364 C 465,307 218,283 564,408 C 414,446 438,213 336,157 C 507,405 517,138 289,370 C 698,173 658,403 669,209 C 270,372 337,242 207,405 C 596,171 540,393 593,286 C 155,178 687,425 459,161 C 310,283 591,200 388,210 Z" opacity=".556" transform="rotate(-79.0 400 300)"/><path fill="#9C030B" stroke="#A27B23" stroke-opacity=".193" stroke-width="4" d="M 491,369 C 360,362 612,422 610,147 C 463,220 204,103 386,221 C 324,179 479,257 523,237 C 265,205 636,262 437,137 C 543,371 214,322 131,126 C 564,209 216,432 677,169 C 320,472 667,132 646,253 C 615,472 470,430 245,385 Z" opacity=".253" transform="rotate(-13.0 400 300)"/><path fill="#643AA8" stroke="#44802C" stroke-opacity=".52" stroke-width="2" d="M 559,239 C 627,403 343,409 689,311 C 658,332 340,259 694,122 C 129,137 645,152 179,217 C 626,119 439,250 208,168 C 699,329 568,220 582,119 C 501,152 132,473 271,427 C 248,125 449,115 667,355 C 156,355 382,451 330,369 C 334,143 545,325 243,454 C 261,424 357,208 689,249 Z" opacity=".354" transform="rotate(155.0 400 300)"/><path fill="#9D7727" stroke="#B42525" stroke-opacity=".878" stroke-width="3" d="M 569,461 C 310,499 185,108 598,270 C 459,324 462,172 418,297 C 203,208 139,297 515,316 C 419,215 469,358 421,438 C 239,117 323,313 335,161 C 292,124 278,265 319,161 Z" opacity=".549" transform="rotate(-105.0 400 300)"/></g></svg>