<svg xmlns="http://www.w3.org/2000/svg" xmlns:xlink="http://www.w3.org/1999/xlink" width="800" height="600" version="1.1" viewBox="0 0 800 600"><g fill="none" fill-rule="evenodd" stroke="none" stroke-width="1"><ellipse cx="126" cy="397" fill="#2b55f7" stroke="#ed2b2c" stroke-opacity=".383" stroke-width="3" opacity=".032" rx="82" ry="67" transform="rotate(-74.0 400 300)"/><rect width="134" height="360" x="623" y="492" fill="#31a06b" stroke="#f9d84b" stroke-opacity=".109" stroke-width="5" opacity=".442" transform="rotate(-122.0 400 300)"/><ellipse cx="696" cy="71" fill="#f27630" stroke="#f9d84b" stroke-opacity=".972" stroke-width="4" opacity=".798" rx="46" ry="244" transform="rotate(-81.0 400 300)"/><ellipse cx="290" cy="496" fill="#2b55f7" stroke="#31a06b" stroke-opacity=".182" stroke-width="1" opacity=".828" rx="417" ry="341" transform="rotate(-164.0 400 300)"/><ellipse cx="79" cy="117" fill="#f9d84b" stroke="#31a06b" stroke-opacity=".949" stroke-width="5" opacity=".673" rx="85" ry="78" transform="rotate(-100.0 400 300)"/><path fill="#2b55f7" stroke="#f27630" stroke-opacity=".957" stroke-width="3" d="M 385,396 C 699,251 333,147 497,477 C 596,333 569,358 337,177 C 195,319 626,422 588,487 C 364,162 548,201 153,132 C 217,468 235,487 177,151 C 116,161 486,221 434,441 C 269,301 389,391 616,155 Z" opacity=".737" transform="rotate(-55.0 400 300)"/><polygon fill="#f27630" stroke="#f27630" stroke-opacity=".219" stroke-width="4" points="604 265 603 54 214 252 370 16 28 185 227 271 524 254" opacity=".84" transform="rotate(171.0 400 300)"/><path fill="#31a06b" stroke="#f27630" stroke-opacity=".409" stroke-width="4" d="M 540,233 C 238,216 326,195 177,113 C 408,360 472,490 637,401 C 544,228 316,148 644,270 C 223,328 627,410 445,219 C 109,423 553,462 369,388 C 284,488 385,328 644,400 C 159,488 515,146 637,238 C 300,321 421,398 290,177 C 299,270 331,255 159,138 C 303,487 648,257 216,425 C 330,236 193,399 136,107 Z" opacity=".621" transform="rotate(139.0 400 300)"/><rect width="354" height="39" x="278" y="44" fill="#ed2b2c" stroke="#ed2b2c" stroke-opacity=".757" stroke-width="7" opacity=".074" transform="rotate(142.0 400 300)"/></g></svg>