<?xml version="1.0" encoding="UTF-8"?>
<svg width="800px" height="600px" viewBox="0 0 800 600" version="1.1" xmlns="http://www.w3.org/2000/svg" xmlns:xlink="http://www.w3.org/1999/xlink">
  <defs></defs>
  <g stroke="none" stroke-width="1" fill="none" fill-rule="evenodd">
    
    <ellipse stroke="#ed2b2c" stroke-width="3" fill="#2b55f7" opacity="0.03222695425030889" stroke-opacity="0.38299577674758734" transform="rotate(-74.0 400 300)" cx="126" rx="82" cy="397" ry="67"></ellipse>
<rect stroke="#f9d84b" stroke-width="5" fill="#31a06b" opacity="0.44222444114964043" stroke-opacity="0.10886507413446768" transform="rotate(-122.0 400 300)" x="623" y="492" width="134" height="360"></rect>
<ellipse stroke="#f9d84b" stroke-width="4" fill="#f27630" opacity="0.7977032303392841" stroke-opacity="0.972451974273904" transform="rotate(-81.0 400 300)" cx="696" rx="46" cy="71" ry="244"></ellipse>
<ellipse stroke="#31a06b" stroke-width="1" fill="#2b55f7" opacity="0.8280109996310889" stroke-opacity="0.1820841474231423" transform="rotate(-164.0 400 300)" cx="290" rx="417" cy="496" ry="341"></ellipse>
<ellipse stroke="#31a06b" stroke-width="5" fill="#f9d84b" opacity="0.6731317386833936" stroke-opacity="0.9486810938430339" transform="rotate(-100.0 400 300)" cx="79" rx="85" cy="117" ry="78"></ellipse>
<path stroke="#f27630" stroke-width="3" fill="#2b55f7" opacity="0.73683202771958" stroke-opacity="0.9565953087018149" transform="rotate(-55.0 400 300)" d="M 385,396  C 699,251 333,147 497,477 C 596,333 569,358 337,177 C 195,319 626,422 588,487 C 364,162 548,201 153,132 C 217,468 235,487 177,151 C 116,161 486,221 434,441 C 269,301 389,391 616,155 Z"></path>
<polygon stroke="#f27630" stroke-width="4" fill="#f27630" opacity="0.8403321055465611" stroke-opacity="0.21934867775447572" transform="rotate(171.0 400 300)" points="604 265 603 54 214 252 370 16 28 185 227 271 524 254 "></polygon>
<path stroke="#f27630" stroke-width="4" fill="#31a06b" opacity="0.6211852267957244" stroke-opacity="0.4085590310276389" transform="rotate(139.0 400 300)" d="M 540,233  C 238,216 326,195 177,113 C 408,360 472,490 637,401 C 544,228 316,148 644,270 C 223,328 627,410 445,219 C 109,423 553,462 369,388 C 284,488 385,328 644,400 C 159,488 515,146 637,238 C 300,321 421,398 290,177 C 299,270 331,255 159,138 C 303,487 648,257 216,425 C 330,236 193,399 136,107 Z"></path>
<rect stroke="#ed2b2c" stroke-width="7" fill="#ed2b2c" opacity="0.07384308034218569" stroke-opacity="0.7567043614465558" transform="rotate(142.0 400 300)" x="278" y="44" width="354" height="39"></rect>

  </g>
</svg>
