<svg xmlns="http://www.w3.org/2000/svg" xmlns:xlink="http://www.w3.org/1999/xlink" width="800" height="600" version="1.1" viewBox="0 0 800 600"><g fill="none" fill-rule="evenodd" stroke="none" stroke-width="1"><path fill="#f27630" stroke="#f9d84b" stroke-opacity=".775" stroke-width="4" d="M 467,442 C 377,176 208,479 229,185 C 234,256 586,116 541,407 C 297,327 496,373 418,305 C 613,369 303,462 243,432 C 501,323 237,199 220,248 C 522,123 318,112 657,304 Z" opacity=".443" transform="rotate(28.0 400 300)"/><path fill="#ed2b2c" stroke="#31a06b" stroke-opacity=".626" stroke-width="1" d="M 629,255 C 542,420 513,409 168,424 C 608,478 477,500 336,364 C 535,168 382,228 501,449 C 559,338 648,496 148,346 C 328,120 181,157 431,399 C 531,382 687,340 585,412 C 372,173 476,397 235,196 C 361,277 655,222 555,182 C 146,203 430,352 308,366 Z" opacity=".849" transform="rotate(-23.0 400 300)"/><path fill="#f27630" stroke="#f27630" stroke-opacity=".481" stroke-width="7" d="M 676,212 C 539,278 588,350 466,189 C 683,102 363,114 684,118 C 220,190 270,398 112,459 C 614,208 150,460 454,250 Z" opacity=".599" transform="rotate(-101.0 400 300)"/><path fill="#f27630" stroke="#f9d84b" stroke-opacity=".2" stroke-width="2" d="M 479,131 C 541,205 455,245 370,448 C 392,249 112,126 567,390 C 684,138 367,370 171,178 C 256,283 629,279 507,497 C 490,230 401,460 698,158 C 541,441 172,353 280,432 C 233,194 417,173 319,454 C 332,143 443,184 299,455 C 227,441 670,177 111,424 C 451,330 339,327 609,333 C 144,462 636,276 496,428 Z" opacity=".656" transform="rotate(129.0 400 300)"/><path fill="#f27630" stroke="#2b55f7" stroke-opacity=".844" stroke-width="4" d="M 418,325 C 643,331 404,151 138,232 C 275,195 628,223 257,500 C 464,349 640,451 559,459 C 115,112 686,220 474,346 C 178,244 603,231 570,342 C 329,388 259,494 198,198 C 199,302 316,327 636,230 Z" opacity=".873" transform="rotate(-21.0 400 300)"/><path fill="#f9d84b" stroke="#f27630" stroke-opacity=".725" stroke-width="4" d="M 416,410 C 380,466 437,445 301,202 C 135,108 551,364 312,469 C 151,425 273,166 518,181 C 589,134 591,289 184,397 C 393,485 363,333 586,361 Z" opacity=".501" transform="rotate(-48.0 400 300)"/><path fill="#31a06b" stroke="#2b55f7" stroke-opacity=".316" stroke-width="6" d="M 662,480 C 503,234 240,413 311,222 C 316,268 279,170 536,224 C 462,191 299,273 163,394 C 389,253 375,193 584,288 C 689,311 588,220 159,101 Z" opacity=".142" transform="rotate(15.0 400 300)"/><path fill="#2b55f7" stroke="#f27630" stroke-opacity=".269" stroke-width="7" d="M 530,262 C 461,397 200,114 612,376 C 133,168 186,252 316,104 C 582,233 529,235 667,266 C 538,290 163,397 396,456 C 437,223 539,267 375,278 C 145,497 421,254 647,196 C 468,176 147,289 619,214 C 206,101 270,420 458,298 Z" opacity=".962" transform="rotate(-143.0 400 300)"/><path fill="#31a06b" stroke="#ed2b2c" stroke-opacity=".402" stroke-width="1" d="M 553,347 C 107,475 675,150 326,365 C 151,437 174,397 194,414 C 662,271 544,230 695,492 C 502,423 339,259 290,323 C 423,386 224,403 547,124 C 438,401 321,112 520,262 C 562,216 509,227 698,315 C 331,293 472,144 294,151 Z" opacity=".767" transform="rotate(141.0 400 300)"/><path fill="#2b55f7" stroke="#f9d84b" stroke-opacity=".583" stroke-width="4" d="M 692,262 C 426,211 119,143 556,269 C 280,116 384,122 318,291 C 151,230 493,199 544,187 C 340,352 198,282 419,245 Z" opacity=".546" transform="rotate(126.0 400 300)"/><path fill="#ed2b2c" stroke="#f9d84b" stroke-opacity=".447" stroke-width="4" d="M 134,211 C 669,266 447,302 175,383 C 484,345 564,326 501,440 C 150,176 469,187 372,137 C 490,456 548,389 204,236 C 215,373 506,379 425,105 C 431,142 631,181 636,345 C 148,213 284,466 118,274 C 605,249 109,210 401,129 C 355,138 330,281 452,182 Z" opacity=".924" transform="rotate(113.0 400 300)"/></g></svg>