<svg xmlns="http://www.w3.org/2000/svg" xmlns:xlink="http://www.w3.org/1999/xlink" width="800" height="600" version="1.1" viewBox="0 0 800 600"><g fill="none" fill-rule="evenodd" stroke="none" stroke-width="1"><path fill="#02eb6b" stroke="#f559a0" stroke-opacity=".159" stroke-width="5" d="M 669,497 C 174,490 445,239 330,372 C 310,247 578,303 462,408 C 546,353 338,362 287,295 C 446,103 512,159 271,486 C 125,301 152,237 386,428 Z" opacity=".403" transform="rotate(-77.0 400 300)"/><path fill="#2cd3f3" stroke="#fe9225" stroke-opacity=".99" stroke-width="1" d="M 458,142 C 696,303 272,351 644,453 C 375,346 194,259 140,392 C 602,479 105,271 443,430 C 287,475 477,219 517,431 Z" opacity=".184" transform="rotate(-155.0 400 300)"/><path fill="#02eb6b" stroke="#02eb6b" stroke-opacity=".708" stroke-width="2" d="M 607,476 C 117,304 550,212 680,220 C 374,264 108,126 319,354 C 352,196 648,403 574,417 C 382,379 606,399 549,157 C 175,417 396,251 596,376 C 406,144 684,296 512,263 C 346,252 316,179 636,439 C 173,250 237,403 673,182 C 564,235 348,199 229,106 C 427,443 443,142 285,170 C 682,128 335,284 566,484 Z" opacity=".78" transform="rotate(-34.0 400 300)"/><path fill="#02eb6b" stroke="#f559a0" stroke-opacity=".818" stroke-width="4" d="M 296,266 C 189,132 313,469 189,307 C 104,142 578,465 480,492 C 642,187 569,352 161,428 C 195,398 242,312 288,401 C 478,492 582,435 255,129 C 381,231 647,111 253,257 C 296,123 561,298 232,105 Z" opacity=".698" transform="rotate(107.0 400 300)"/><path fill="#fe9225" stroke="#0fa6d8" stroke-opacity=".689" stroke-width="1" d="M 382,366 C 254,490 386,297 211,469 C 694,262 105,472 207,182 C 296,134 287,117 414,155 C 493,484 132,136 478,283 C 486,255 244,447 338,204 C 587,389 463,182 193,370 C 563,291 505,335 586,167 C 141,154 534,263 620,406 Z" opacity=".249" transform="rotate(-174.0 400 300)"/><path fill="#fe9225" stroke="#0fa6d8" stroke-opacity=".952" stroke-width="6" d="M 529,366 C 385,327 408,395 470,358 C 526,431 542,131 447,361 C 526,359 435,248 315,405 C 563,317 686,461 155,230 C 344,420 493,291 581,186 C 111,212 509,181 206,244 C 195,467 465,415 450,424 C 333,255 297,214 233,374 C 420,464 277,467 560,402 C 166,212 208,381 455,175 Z" opacity=".9" transform="rotate(172.0 400 300)"/><path fill="#f559a0" stroke="#fe9225" stroke-opacity=".33" stroke-width="4" d="M 494,156 C 577,490 375,281 343,438 C 577,453 502,261 477,315 C 296,239 472,363 181,374 C 461,318 301,339 602,135 C 638,497 329,312 153,452 C 264,388 594,447 601,294 C 566,449 339,305 305,386 C 623,243 127,139 208,201 C 104,205 418,356 199,446 Z" opacity=".65" transform="rotate(-68.0 400 300)"/><path fill="#02eb6b" stroke="#02eb6b" stroke-opacity=".393" stroke-width="5" d="M 296,275 C 685,235 452,288 477,197 C 436,187 269,328 465,109 C 128,345 273,185 320,275 C 388,361 297,172 462,230 Z" opacity=".797" transform="rotate(-29.0 400 300)"/><path fill="#2cd3f3" stroke="#2cd3f3" stroke-opacity=".318" stroke-width="3" d="M 563,404 C 452,462 524,281 331,367 C 659,124 587,124 521,223 C 675,434 366,265 114,263 C 640,360 164,396 496,483 C 281,370 383,282 358,326 C 564,186 357,106 667,407 C 557,319 436,340 416,329 C 102,154 146,454 573,468 C 454,373 367,269 135,279 C 356,306 241,454 487,384 Z" opacity=".216" transform="rotate(56.0 400 300)"/><path fill="#fe9225" stroke="#f559a0" stroke-opacity=".58" stroke-width="5" d="M 670,203 C 594,303 304,159 384,465 C 128,409 314,423 169,308 C 175,188 624,391 207,181 C 203,444 587,267 586,440 C 464,109 381,193 570,276 C 664,482 123,328 110,289 C 274,347 222,122 239,319 C 336,140 104,156 126,494 C 222,352 582,121 235,350 Z" opacity=".149" transform="rotate(116.0 400 300)"/></g></svg>