<?xml version="1.0" encoding="UTF-8"?>
<svg width="800px" height="600px" viewBox="0 0 800 600" version="1.1" xmlns="http://www.w3.org/2000/svg" xmlns:xlink="http://www.w3.org/1999/xlink">
  <defs></defs>
  <g stroke="none" stroke-width="1" fill="none" fill-rule="evenodd">
    
    <polygon stroke="#f9d84b" stroke-width="3" fill="#ed2b2c" opacity="0.10495480539850739" stroke-opacity="0.020842189873943182" transform="rotate(-52.0 400 300)" points="60 192 406 216 394 154 567 464 102 120 "></polygon>
<polygon stroke="#ed2b2c" stroke-width="4" fill="#31a06b" opacity="0.12307261680538742" stroke-opacity="0.1657422909964577" transform="rotate(103.0 400 300)" points="72 427 671 177 245 358 112 527 649 362 1 473 389 448 201 68 "></polygon>
<path stroke="#f9d84b" stroke-width="7" fill="#2b55f7" opacity="0.01900007244707648" stroke-opacity="0.5152190479008848" transform="rotate(-74.0 400 300)" d="M 491,366  C 549,224 220,172 553,445 C 218,143 413,221 289,325 C 375,496 686,328 508,105 C 282,159 187,218 321,443 Z"></path>
<rect stroke="#2b55f7" stroke-width="3" fill="#f27630" opacity="0.5448627252062413" stroke-opacity="0.3056781977511281" transform="rotate(58.0 400 300)" x="798" y="226" width="125" height="220"></rect>
<rect stroke="#ed2b2c" stroke-width="3" fill="#f27630" opacity="0.5150763900472184" stroke-opacity="0.7705507560713778" transform="rotate(-120.0 400 300)" x="37" y="331" width="143" height="86"></rect>
<ellipse stroke="#ed2b2c" stroke-width="6" fill="#ed2b2c" opacity="0.859574900586885" stroke-opacity="0.9433044489354767" transform="rotate(31.0 400 300)" cx="442" rx="314" cy="284" ry="287"></ellipse>
<ellipse stroke="#f27630" stroke-width="4" fill="#f9d84b" opacity="0.09730533956892695" stroke-opacity="0.8773399204924803" transform="rotate(84.0 400 300)" cx="763" rx="375" cy="302" ry="95"></ellipse>
<polygon stroke="#f9d84b" stroke-width="6" fill="#2b55f7" opacity="0.4234147200893032" stroke-opacity="0.9152544659542079" transform="rotate(5.0 400 300)" points="755 441 688 551 602 247 549 84 232 34 224 80 "></polygon>

  </g>
</svg>
