<svg xmlns="http://www.w3.org/2000/svg" xmlns:xlink="http://www.w3.org/1999/xlink" width="800" height="600" version="1.1" viewBox="0 0 800 600"><g fill="none" fill-rule="evenodd" stroke="none" stroke-width="1"><polygon fill="#ed2b2c" stroke="#f9d84b" stroke-opacity=".021" stroke-width="3" points="60 192 406 216 394 154 567 464 102 120" opacity=".105" transform="rotate(-52.0 400 300)"/><polygon fill="#31a06b" stroke="#ed2b2c" stroke-opacity=".166" stroke-width="4" points="72 427 671 177 245 358 112 527 649 362 1 473 389 448 201 68" opacity=".123" transform="rotate(103.0 400 300)"/><path fill="#2b55f7" stroke="#f9d84b" stroke-opacity=".515" stroke-width="7" d="M 491,366 C 549,224 220,172 553,445 C 218,143 413,221 289,325 C 375,496 686,328 508,105 C 282,159 187,218 321,443 Z" opacity=".019" transform="rotate(-74.0 400 300)"/><rect width="125" height="220" x="798" y="226" fill="#f27630" stroke="#2b55f7" stroke-opacity=".306" stroke-width="3" opacity=".545" transform="rotate(58.0 400 300)"/><rect width="143" height="86" x="37" y="331" fill="#f27630" stroke="#ed2b2c" stroke-opacity=".771" stroke-width="3" opacity=".515" transform="rotate(-120.0 400 300)"/><ellipse cx="442" cy="284" fill="#ed2b2c" stroke="#ed2b2c" stroke-opacity=".943" stroke-width="6" opacity=".86" rx="314" ry="287" transform="rotate(31.0 400 300)"/><ellipse cx="763" cy="302" fill="#f9d84b" stroke="#f27630" stroke-opacity=".877" stroke-width="4" opacity=".097" rx="375" ry="95" transform="rotate(84.0 400 300)"/><polygon fill="#2b55f7" stroke="#f9d84b" stroke-opacity=".915" stroke-width="6" points="755 441 688 551 602 247 549 84 232 34 224 80" opacity=".423" transform="rotate(5.0 400 300)"/></g></svg>