<svg xmlns="http://www.w3.org/2000/svg" xmlns:xlink="http://www.w3.org/1999/xlink" width="800" height="600" version="1.1" viewBox="0 0 800 600"><g fill="none" fill-rule="evenodd" stroke="none" stroke-width="1"><ellipse cx="41" cy="349" fill="#ed2b2c" stroke="#31a06b" stroke-opacity=".554" stroke-width="4" opacity=".94" rx="320" ry="187" transform="rotate(-126.0 400 300)"/><ellipse cx="770" cy="439" fill="#f9d84b" stroke="#2b55f7" stroke-opacity=".375" stroke-width="4" opacity=".951" rx="379" ry="80" transform="rotate(25.0 400 300)"/><path fill="#f9d84b" stroke="#31a06b" stroke-opacity=".492" stroke-width="2" d="M 240,477 C 263,375 398,486 581,241 C 232,139 623,469 610,461 C 488,212 361,121 499,289 C 146,430 261,482 435,131 C 522,418 378,366 552,146 C 534,255 154,126 212,474 C 128,115 559,233 470,352 C 503,140 587,353 533,133 C 486,103 139,426 146,400 Z" opacity=".471" transform="rotate(126.0 400 300)"/><rect width="99" height="110" x="405" y="290" fill="#2b55f7" stroke="#f9d84b" stroke-opacity=".641" stroke-width="4" opacity=".327" transform="rotate(-12.0 400 300)"/><ellipse cx="623" cy="91" fill="#f27630" stroke="#ed2b2c" stroke-opacity=".926" stroke-width="6" opacity=".324" rx="61" ry="222" transform="rotate(-73.0 400 300)"/><ellipse cx="770" cy="519" fill="#f9d84b" stroke="#31a06b" stroke-opacity=".986" stroke-width="4" opacity=".655" rx="115" ry="240" transform="rotate(-141.0 400 300)"/><polygon fill="#ed2b2c" stroke="#f27630" stroke-opacity=".316" stroke-width="2" points="219 180 272 325 114 425 671 495 415 50 644 176" opacity=".477" transform="rotate(56.0 400 300)"/><polygon fill="#31a06b" stroke="#f27630" stroke-opacity=".378" stroke-width="7" points="797 431 655 324 528 258 202 183 388 408" opacity=".08" transform="rotate(68.0 400 300)"/></g></svg>