<?xml version="1.0" encoding="UTF-8"?>
<svg width="800px" height="600px" viewBox="0 0 800 600" version="1.1" xmlns="http://www.w3.org/2000/svg" xmlns:xlink="http://www.w3.org/1999/xlink">
  <defs></defs>
  <g stroke="none" stroke-width="1" fill="none" fill-rule="evenodd">
    
    <ellipse stroke="#31a06b" stroke-width="4" fill="#ed2b2c" opacity="0.9397007977507147" stroke-opacity="0.5540152974104323" transform="rotate(-126.0 400 300)" cx="41" rx="320" cy="349" ry="187"></ellipse>
<ellipse stroke="#2b55f7" stroke-width="4" fill="#f9d84b" opacity="0.9514704269331941" stroke-opacity="0.3747449294695138" transform="rotate(25.0 400 300)" cx="770" rx="379" cy="439" ry="80"></ellipse>
<path stroke="#31a06b" stroke-width="2" fill="#f9d84b" opacity="0.470984266669772" stroke-opacity="0.49238218787100013" transform="rotate(126.0 400 300)" d="M 240,477  C 263,375 398,486 581,241 C 232,139 623,469 610,461 C 488,212 361,121 499,289 C 146,430 261,482 435,131 C 522,418 378,366 552,146 C 534,255 154,126 212,474 C 128,115 559,233 470,352 C 503,140 587,353 533,133 C 486,103 139,426 146,400 Z"></path>
<rect stroke="#f9d84b" stroke-width="4" fill="#2b55f7" opacity="0.3271264495448835" stroke-opacity="0.6412524451161317" transform="rotate(-12.0 400 300)" x="405" y="290" width="99" height="110"></rect>
<ellipse stroke="#ed2b2c" stroke-width="6" fill="#f27630" opacity="0.323852902787754" stroke-opacity="0.9263030527000679" transform="rotate(-73.0 400 300)" cx="623" rx="61" cy="91" ry="222"></ellipse>
<ellipse stroke="#31a06b" stroke-width="4" fill="#f9d84b" opacity="0.6547622106434364" stroke-opacity="0.985778650601973" transform="rotate(-141.0 400 300)" cx="770" rx="115" cy="519" ry="240"></ellipse>
<polygon stroke="#f27630" stroke-width="2" fill="#ed2b2c" opacity="0.47662031809428484" stroke-opacity="0.31621710163474936" transform="rotate(56.0 400 300)" points="219 180 272 325 114 425 671 495 415 50 644 176 "></polygon>
<polygon stroke="#f27630" stroke-width="7" fill="#31a06b" opacity="0.07956766573698464" stroke-opacity="0.377919870869077" transform="rotate(68.0 400 300)" points="797 431 655 324 528 258 202 183 388 408 "></polygon>

  </g>
</svg>
