<svg xmlns="http://www.w3.org/2000/svg" xmlns:xlink="http://www.w3.org/1999/xlink" width="800" height="600" version="1.1" viewBox="0 0 800 600"><g fill="none" fill-rule="evenodd" stroke="none" stroke-width="1"><path fill="#39A885" stroke="#0A13B0" stroke-opacity=".525" stroke-width="4" d="M 558,400 C 615,245 339,224 336,405 C 627,161 518,478 114,461 C 590,491 106,309 400,207 C 501,481 324,193 621,500 C 245,138 503,224 506,208 C 671,424 680,275 599,369 C 466,474 509,195 519,431 C 195,172 601,252 336,360 Z" opacity=".693" transform="rotate(-13.0 400 300)"/><path fill="#602608" stroke="#69C6BA" stroke-opacity=".489" stroke-width="6" d="M 364,404 C 603,398 310,444 548,227 C 240,432 695,405 161,308 C 178,232 183,497 222,252 C 275,370 387,329 403,240 C 585,197 640,130 321,268 C 251,309 543,232 489,290 C 590,342 369,289 112,195 Z" opacity=".046" transform="rotate(171.0 400 300)"/><path fill="#C07CB9" stroke="#C2736D" stroke-opacity=".739" stroke-width="6" d="M 225,339 C 261,399 218,239 617,276 C 267,231 507,117 479,398 C 308,386 213,293 692,305 C 132,192 420,471 101,422 C 387,463 640,418 465,119 Z" opacity=".198" transform="rotate(176.0 400 300)"/><path fill="#09412A" stroke="#30C3A4" stroke-opacity=".704" stroke-width="6" d="M 658,458 C 472,149 256,201 261,387 C 297,314 476,416 356,447 C 568,234 431,353 467,444 C 430,180 357,442 429,155 C 383,350 204,421 297,267 C 298,404 286,245 656,361 C 147,500 441,493 639,456 C 514,496 653,368 274,433 C 219,376 572,364 376,464 Z" opacity=".075" transform="rotate(-148.0 400 300)"/><path fill="#871BAD" stroke="#04CAD6" stroke-opacity=".768" stroke-width="7" d="M 461,323 C 237,385 453,202 669,497 C 558,231 630,172 234,432 C 318,279 534,259 353,163 C 649,256 590,410 668,411 C 644,154 499,376 698,403 C 660,373 628,449 455,246 Z" opacity=".544" transform="rotate(11.0 400 300)"/><path fill="#14156D" stroke="#A4CA3C" stroke-opacity=".656" stroke-width="3" d="M 543,379 C 348,324 239,223 601,200 C 348,254 173,394 467,489 C 527,237 392,299 312,323 C 254,169 418,292 341,311 C 271,381 119,228 415,483 C 446,444 331,215 108,111 Z" opacity=".365" transform="rotate(-7.0 400 300)"/><path fill="#265785" stroke="#58778C" stroke-opacity=".397" stroke-width="2" d="M 586,238 C 149,112 307,449 496,290 C 438,293 101,133 603,274 C 164,460 602,210 253,373 C 623,453 114,446 170,195 C 669,345 301,491 673,394 C 394,223 166,171 402,441 C 643,218 692,496 232,114 C 641,206 226,125 636,356 C 257,239 355,330 535,311 C 148,102 242,273 628,358 Z" opacity=".127" transform="rotate(63.0 400 300)"/></g></svg>