<svg xmlns="http://www.w3.org/2000/svg" xmlns:xlink="http://www.w3.org/1999/xlink" width="800" height="600" version="1.1" viewBox="0 0 800 600"><g fill="none" fill-rule="evenodd" stroke="none" stroke-width="1"><rect width="239" height="53" x="721" y="428" fill="#f27630" stroke="#f9d84b" stroke-opacity=".79" stroke-width="2" opacity=".078" transform="rotate(-104.0 400 300)"/><path fill="#f9d84b" stroke="#f27630" stroke-opacity=".811" stroke-width="1" d="M 593,269 C 412,159 386,341 308,301 C 336,255 188,312 411,212 C 263,385 476,423 467,167 C 316,421 145,165 456,496 C 251,450 493,300 307,172 C 382,338 118,416 436,320 C 533,146 119,426 124,359 C 667,243 142,283 511,226 Z" opacity=".94" transform="rotate(48.0 400 300)"/><polygon fill="#f9d84b" stroke="#ed2b2c" stroke-opacity=".529" stroke-width="6" points="44 577 272 185 796 36 447 574 437 347" opacity=".951" transform="rotate(119.0 400 300)"/><polygon fill="#2b55f7" stroke="#ed2b2c" stroke-opacity=".582" stroke-width="6" points="496 62 1 277 277 364 199 270 522 598 682 497" opacity=".063" transform="rotate(31.0 400 300)"/><ellipse cx="143" cy="82" fill="#ed2b2c" stroke="#f9d84b" stroke-opacity=".993" stroke-width="1" opacity=".997" rx="80" ry="218" transform="rotate(-137.0 400 300)"/><rect width="49" height="221" x="675" y="471" fill="#f9d84b" stroke="#ed2b2c" stroke-opacity=".739" stroke-width="5" opacity=".844" transform="rotate(76.0 400 300)"/><path fill="#f27630" stroke="#ed2b2c" stroke-opacity=".271" stroke-width="6" d="M 420,120 C 682,446 182,184 357,179 C 655,495 152,387 334,132 C 234,495 267,469 675,323 C 335,326 206,177 526,180 C 360,142 178,115 367,142 Z" opacity=".405" transform="rotate(101.0 400 300)"/><polygon fill="#f27630" stroke="#f9d84b" stroke-opacity=".207" stroke-width="1" points="613 94 67 227 594 85 144 68 307 110 582 33" opacity=".095" transform="rotate(-152.0 400 300)"/><ellipse cx="202" cy="301" fill="#f9d84b" stroke="#2b55f7" stroke-opacity=".287" stroke-width="5" opacity=".476" rx="320" ry="34" transform="rotate(-2.0 400 300)"/><ellipse cx="701" cy="596" fill="#31a06b" stroke="#f27630" stroke-opacity=".114" stroke-width="3" opacity=".197" rx="168" ry="101" transform="rotate(82.0 400 300)"/></g></svg>