<svg xmlns="http://www.w3.org/2000/svg" xmlns:xlink="http://www.w3.org/1999/xlink" width="800" height="600" version="1.1" viewBox="0 0 800 600"><g fill="none" fill-rule="evenodd" stroke="none" stroke-width="1"><rect width="158" height="147" x="691" y="485" fill="#8791B3" stroke="#01648C" stroke-opacity=".173" stroke-width="5" opacity=".727" transform="rotate(116.0 400 300)"/><path fill="#B9C5CA" stroke="#7D4970" stroke-opacity=".759" stroke-width="2" d="M 546,121 C 368,236 536,441 342,123 C 140,380 460,425 680,283 C 569,398 315,433 680,264 C 169,282 254,182 227,194 Z" opacity=".778" transform="rotate(-22.0 400 300)"/><ellipse cx="366" cy="235" fill="#D8129B" stroke="#7061B5" stroke-opacity=".598" stroke-width="3" opacity=".366" rx="269" ry="275" transform="rotate(89.0 400 300)"/><ellipse cx="175" cy="101" fill="#029545" stroke="#C90CB6" stroke-opacity=".62" stroke-width="4" opacity=".572" rx="281" ry="325" transform="rotate(-5.0 400 300)"/><path fill="#13894C" stroke="#2A6184" stroke-opacity=".539" stroke-width="3" d="M 416,254 C 206,474 543,131 611,104 C 341,420 325,277 162,480 C 210,245 344,468 470,226 C 155,270 649,378 302,282 C 420,365 365,246 132,352 C 254,105 383,380 643,350 C 661,197 279,314 682,259 C 379,271 592,158 217,422 C 405,104 442,252 160,134 C 118,218 303,386 136,153 C 638,346 692,415 557,121 Z" opacity=".747" transform="rotate(134.0 400 300)"/><rect width="380" height="307" x="209" y="433" fill="#2B591C" stroke="#1BB89B" stroke-opacity=".53" stroke-width="6" opacity=".551" transform="rotate(75.0 400 300)"/><ellipse cx="726" cy="133" fill="#C2A6CA" stroke="#0CCA4D" stroke-opacity=".885" stroke-width="7" opacity=".873" rx="445" ry="40" transform="rotate(149.0 400 300)"/><polygon fill="#922854" stroke="#601073" stroke-opacity=".687" stroke-width="5" points="648 370 528 587 158 83 106 299 468 383 185 75 379 540" opacity=".077" transform="rotate(63.0 400 300)"/><ellipse cx="739" cy="266" fill="#918ABC" stroke="#9CA672" stroke-opacity=".686" stroke-width="1" opacity=".029" rx="275" ry="349" transform="rotate(-154.0 400 300)"/><path fill="#A0B3BC" stroke="#416BB1" stroke-opacity=".363" stroke-width="7" d="M 337,181 C 188,156 615,334 491,456 C 553,454 358,392 446,476 C 561,352 485,155 184,307 C 192,396 413,144 187,129 C 466,373 614,302 538,356 C 592,473 272,225 387,456 Z" opacity=".168" transform="rotate(-170.0 400 300)"/></g></svg>