<?xml version="1.0" encoding="UTF-8"?>
<svg width="800px" height="600px" viewBox="0 0 800 600" version="1.1" xmlns="http://www.w3.org/2000/svg" xmlns:xlink="http://www.w3.org/1999/xlink">
  <defs></defs>
  <g stroke="none" stroke-width="1" fill="none" fill-rule="evenodd">
    
    <rect stroke="#01648C" stroke-width="5" fill="#8791B3" opacity="0.727044546785784" stroke-opacity="0.1730673164049418" transform="rotate(116.0 400 300)" x="691" y="485" width="158" height="147"></rect>
<path stroke="#7D4970" stroke-width="2" fill="#B9C5CA" opacity="0.7778996353381565" stroke-opacity="0.7592240702133697" transform="rotate(-22.0 400 300)" d="M 546,121  C 368,236 536,441 342,123 C 140,380 460,425 680,283 C 569,398 315,433 680,264 C 169,282 254,182 227,194 Z"></path>
<ellipse stroke="#7061B5" stroke-width="3" fill="#D8129B" opacity="0.3656196580018983" stroke-opacity="0.5980100347169887" transform="rotate(89.0 400 300)" cx="366" rx="269" cy="235" ry="275"></ellipse>
<ellipse stroke="#C90CB6" stroke-width="4" fill="#029545" opacity="0.5717571714614174" stroke-opacity="0.6198018653602463" transform="rotate(-5.0 400 300)" cx="175" rx="281" cy="101" ry="325"></ellipse>
<path stroke="#2A6184" stroke-width="3" fill="#13894C" opacity="0.7467438867174339" stroke-opacity="0.5389805648542022" transform="rotate(134.0 400 300)" d="M 416,254  C 206,474 543,131 611,104 C 341,420 325,277 162,480 C 210,245 344,468 470,226 C 155,270 649,378 302,282 C 420,365 365,246 132,352 C 254,105 383,380 643,350 C 661,197 279,314 682,259 C 379,271 592,158 217,422 C 405,104 442,252 160,134 C 118,218 303,386 136,153 C 638,346 692,415 557,121 Z"></path>
<rect stroke="#1BB89B" stroke-width="6" fill="#2B591C" opacity="0.550825672691968" stroke-opacity="0.5299138816249412" transform="rotate(75.0 400 300)" x="209" y="433" width="380" height="307"></rect>
<ellipse stroke="#0CCA4D" stroke-width="7" fill="#C2A6CA" opacity="0.8733155029941078" stroke-opacity="0.8850274449490102" transform="rotate(149.0 400 300)" cx="726" rx="445" cy="133" ry="40"></ellipse>
<polygon stroke="#601073" stroke-width="5" fill="#922854" opacity="0.07703192432504344" stroke-opacity="0.6866800821052758" transform="rotate(63.0 400 300)" points="648 370 528 587 158 83 106 299 468 383 185 75 379 540 "></polygon>
<ellipse stroke="#9CA672" stroke-width="1" fill="#918ABC" opacity="0.02890985297613541" stroke-opacity="0.6858366446835356" transform="rotate(-154.0 400 300)" cx="739" rx="275" cy="266" ry="349"></ellipse>
<path stroke="#416BB1" stroke-width="7" fill="#A0B3BC" opacity="0.1681318580903328" stroke-opacity="0.3625133766886132" transform="rotate(-170.0 400 300)" d="M 337,181  C 188,156 615,334 491,456 C 553,454 358,392 446,476 C 561,352 485,155 184,307 C 192,396 413,144 187,129 C 466,373 614,302 538,356 C 592,473 272,225 387,456 Z"></path>

  </g>
</svg>
