<?xml version="1.0" encoding="UTF-8"?>
<svg width="800px" height="600px" viewBox="0 0 800 600" version="1.1" xmlns="http://www.w3.org/2000/svg" xmlns:xlink="http://www.w3.org/1999/xlink">
  <defs></defs>
  <g stroke="none" stroke-width="1" fill="none" fill-rule="evenodd">
    
    <path stroke="#31a06b" stroke-width="2" fill="#2b55f7" opacity="0.14530627929155526" stroke-opacity="0.5073941121508988" transform="rotate(165.0 400 300)" d="M 290,492  C 187,312 693,139 254,481 C 315,207 387,426 115,194 C 312,211 437,101 602,415 C 400,119 220,444 356,237 C 620,384 593,213 131,334 C 360,184 122,161 563,266 Z"></path>
<path stroke="#31a06b" stroke-width="3" fill="#ed2b2c" opacity="0.695822459564979" stroke-opacity="0.4847913647133863" transform="rotate(158.0 400 300)" d="M 383,338  C 321,351 530,220 312,139 C 253,309 510,142 177,426 C 146,198 193,182 249,326 C 305,436 304,350 339,218 C 672,472 457,424 659,477 C 132,466 273,227 668,139 C 388,488 246,276 246,310 C 284,128 315,177 609,189 Z"></path>
<path stroke="#ed2b2c" stroke-width="1" fill="#f9d84b" opacity="0.29303543719550634" stroke-opacity="0.02330590611186574" transform="rotate(12.0 400 300)" d="M 520,137  C 167,194 597,268 622,221 C 267,318 220,333 284,255 C 363,259 614,349 685,257 C 637,286 214,305 459,264 C 677,213 608,209 689,360 Z"></path>
<path stroke="#31a06b" stroke-width="5" fill="#f9d84b" opacity="0.12173096062159361" stroke-opacity="0.3747051082462916" transform="rotate(92.0 400 300)" d="M 652,258  C 224,465 651,264 486,286 C 542,357 629,273 518,236 C 531,255 407,324 174,295 C 286,408 527,222 495,467 C 567,266 614,213 580,370 C 480,277 327,225 128,437 C 165,404 443,434 224,243 Z"></path>
<path stroke="#2b55f7" stroke-width="1" fill="#ed2b2c" opacity="0.6597568095592277" stroke-opacity="0.22253489457624737" transform="rotate(-177.0 400 300)" d="M 699,207  C 516,423 579,377 538,192 C 293,270 291,231 625,311 C 543,475 180,364 687,489 C 344,426 586,296 580,265 C 590,379 291,132 242,131 C 605,425 175,136 158,466 C 176,422 232,206 539,219 Z"></path>
<path stroke="#ed2b2c" stroke-width="6" fill="#f9d84b" opacity="0.5215502683941885" stroke-opacity="0.8588142703567712" transform="rotate(47.0 400 300)" d="M 147,476  C 322,488 258,412 383,139 C 621,257 309,246 622,458 C 468,427 672,456 534,329 C 192,383 218,106 322,463 C 616,306 544,339 355,116 C 168,191 595,425 292,123 C 226,215 571,188 187,477 Z"></path>
<path stroke="#f9d84b" stroke-width="6" fill="#f9d84b" opacity="0.5931256183200284" stroke-opacity="0.2966107639502981" transform="rotate(28.0 400 300)" d="M 492,231  C 528,373 118,277 337,451 C 280,449 319,300 652,127 C 392,131 127,280 634,265 C 432,345 622,338 582,132 C 530,151 256,297 188,145 C 166,315 595,343 583,253 C 263,307 333,137 636,407 C 639,276 402,250 134,138 C 232,359 207,442 235,284 C 640,199 651,212 152,132 C 549,361 629,194 609,446 Z"></path>

  </g>
</svg>
