<?xml version="1.0" encoding="UTF-8"?>
<svg width="800px" height="600px" viewBox="0 0 800 600" version="1.1" xmlns="http://www.w3.org/2000/svg" xmlns:xlink="http://www.w3.org/1999/xlink">
  <defs></defs>
  <g stroke="none" stroke-width="1" fill="none" fill-rule="evenodd">
    
    <path stroke="#f9d84b" stroke-width="2" fill="#2b55f7" opacity="0.1552634158082767" stroke-opacity="0.5996839057461942" transform="rotate(-153.0 400 300)" d="M 565,482  C 385,345 697,380 401,141 C 375,193 456,187 618,352 C 242,192 591,482 483,147 C 490,339 341,253 429,145 C 521,405 431,326 346,409 C 205,481 683,349 660,160 C 526,410 429,226 180,243 Z"></path>
<path stroke="#f9d84b" stroke-width="4" fill="#f27630" opacity="0.5632357765866153" stroke-opacity="0.5794812827500324" transform="rotate(91.0 400 300)" d="M 324,201  C 407,116 110,367 604,498 C 129,302 519,448 443,183 C 488,341 119,316 588,334 C 647,224 264,181 612,269 C 253,165 202,185 143,102 C 452,271 549,255 454,164 C 347,261 336,356 216,398 Z"></path>
<path stroke="#f9d84b" stroke-width="7" fill="#f27630" opacity="0.9349881934544109" stroke-opacity="0.8294160794328614" transform="rotate(-68.0 400 300)" d="M 594,259  C 243,321 628,440 555,218 C 376,274 502,461 444,363 C 260,145 186,412 316,278 C 665,463 489,464 637,281 C 340,254 439,258 172,384 C 304,114 190,406 291,174 C 440,239 414,112 188,424 Z"></path>
<path stroke="#2b55f7" stroke-width="2" fill="#f9d84b" opacity="0.47292741449497566" stroke-opacity="0.7483344311287835" transform="rotate(3.0 400 300)" d="M 122,210  C 166,445 550,240 664,376 C 436,141 506,484 183,365 C 570,182 267,118 397,438 C 665,318 139,450 628,425 C 175,235 635,439 525,357 C 603,278 428,207 520,174 Z"></path>
<path stroke="#f9d84b" stroke-width="6" fill="#31a06b" opacity="0.20405075689238483" stroke-opacity="0.670121092580206" transform="rotate(-122.0 400 300)" d="M 168,277  C 141,201 388,394 578,111 C 123,367 482,448 581,137 C 228,305 511,226 261,422 C 400,163 125,385 159,344 C 165,325 320,160 612,140 C 221,132 526,178 364,189 C 310,284 414,142 381,435 C 130,301 485,412 132,156 C 441,490 465,118 284,382 Z"></path>
<path stroke="#f9d84b" stroke-width="1" fill="#f27630" opacity="0.39405562339380795" stroke-opacity="0.9478739529271157" transform="rotate(90.0 400 300)" d="M 385,402  C 189,230 120,185 121,440 C 499,363 320,257 560,438 C 643,394 288,466 645,476 C 654,390 647,269 664,398 C 470,366 697,316 121,250 C 327,208 575,174 380,171 C 150,215 301,111 649,342 Z"></path>
<path stroke="#f9d84b" stroke-width="3" fill="#2b55f7" opacity="0.8313830572137203" stroke-opacity="0.577157951828706" transform="rotate(-52.0 400 300)" d="M 148,183  C 693,347 341,201 402,188 C 605,424 278,287 409,490 C 381,160 119,131 124,239 C 121,398 150,335 190,310 C 420,187 213,388 283,443 C 316,368 514,232 559,168 C 409,108 512,301 267,316 Z"></path>
<path stroke="#f27630" stroke-width="7" fill="#2b55f7" opacity="0.5572376045532902" stroke-opacity="0.8246606499881566" transform="rotate(-146.0 400 300)" d="M 559,210  C 535,231 165,272 455,263 C 431,214 175,116 601,279 C 636,255 590,125 600,360 C 352,245 529,464 628,372 Z"></path>

  </g>
</svg>
