<svg xmlns="http://www.w3.org/2000/svg" xmlns:xlink="http://www.w3.org/1999/xlink" width="800" height="600" version="1.1" viewBox="0 0 800 600"><g fill="none" fill-rule="evenodd" stroke="none" stroke-width="1"><path fill="#98BDAC" stroke="#0CB4DD" stroke-opacity=".521" stroke-width="5" d="M 368,490 C 492,428 239,440 534,266 C 219,175 223,223 614,195 C 630,341 344,388 437,159 C 604,321 102,204 120,269 Z" opacity=".546" transform="rotate(0.0 400 300)"/><ellipse cx="321" cy="274" fill="#9A4356" stroke="#83A761" stroke-opacity=".559" stroke-width="7" opacity=".125" rx="408" ry="249" transform="rotate(-132.0 400 300)"/><ellipse cx="77" cy="236" fill="#7B0B0D" stroke="#DA967B" stroke-opacity=".576" stroke-width="1" opacity=".561" rx="170" ry="43" transform="rotate(0.0 400 300)"/><polygon fill="#A62740" stroke="#079D5A" stroke-opacity=".878" stroke-width="4" points="545 158 736 546 265 489 187 514 439 92" opacity=".45" transform="rotate(-46.0 400 300)"/><rect width="108" height="362" x="489" y="100" fill="#71911A" stroke="#BCDB39" stroke-opacity=".222" stroke-width="7" opacity=".022" transform="rotate(-19.0 400 300)"/><polygon fill="#AD624A" stroke="#9CB728" stroke-opacity=".782" stroke-width="6" points="432 413 100 72 472 340 731 513 768 252 626 539" opacity=".379" transform="rotate(-58.0 400 300)"/><polygon fill="#B8B9C3" stroke="#846D45" stroke-opacity=".242" stroke-width="7" points="748 360 127 324 16 247 219 192 576 338 32 448 746 95" opacity=".357" transform="rotate(-133.0 400 300)"/><ellipse cx="524" cy="386" fill="#D3475A" stroke="#452791" stroke-opacity=".343" stroke-width="4" opacity=".866" rx="127" ry="223" transform="rotate(24.0 400 300)"/><polygon fill="#3ABDDB" stroke="#4777C9" stroke-opacity=".486" stroke-width="5" points="85 568 627 560 274 332 168 381 668 109 592 53" opacity=".778" transform="rotate(27.0 400 300)"/><polygon fill="#6B791D" stroke="#4588D6" stroke-opacity=".957" stroke-width="7" points="635 347 427 537 98 320 329 431 507 443 88 97 538 106" opacity=".678" transform="rotate(-160.0 400 300)"/><ellipse cx="454" cy="240" fill="#16962C" stroke="#A3D5D4" stroke-opacity=".718" stroke-width="1" opacity=".912" rx="202" ry="91" transform="rotate(-140.0 400 300)"/></g></svg>