<?xml version="1.0" encoding="UTF-8"?>
<svg width="800px" height="600px" viewBox="0 0 800 600" version="1.1" xmlns="http://www.w3.org/2000/svg" xmlns:xlink="http://www.w3.org/1999/xlink">
  <defs></defs>
  <g stroke="none" stroke-width="1" fill="none" fill-rule="evenodd">
    
    <path stroke="#0CB4DD" stroke-width="5" fill="#98BDAC" opacity="0.545804201180956" stroke-opacity="0.5214227764507027" transform="rotate(0.0 400 300)" d="M 368,490  C 492,428 239,440 534,266 C 219,175 223,223 614,195 C 630,341 344,388 437,159 C 604,321 102,204 120,269 Z"></path>
<ellipse stroke="#83A761" stroke-width="7" fill="#9A4356" opacity="0.1253977089504078" stroke-opacity="0.5585112662291436" transform="rotate(-132.0 400 300)" cx="321" rx="408" cy="274" ry="249"></ellipse>
<ellipse stroke="#DA967B" stroke-width="1" fill="#7B0B0D" opacity="0.5612986236721555" stroke-opacity="0.5763626435136976" transform="rotate(0.0 400 300)" cx="77" rx="170" cy="236" ry="43"></ellipse>
<polygon stroke="#079D5A" stroke-width="4" fill="#A62740" opacity="0.4504982275555905" stroke-opacity="0.8782535656858111" transform="rotate(-46.0 400 300)" points="545 158 736 546 265 489 187 514 439 92 "></polygon>
<rect stroke="#BCDB39" stroke-width="7" fill="#71911A" opacity="0.02229073878072278" stroke-opacity="0.22152950050278827" transform="rotate(-19.0 400 300)" x="489" y="100" width="108" height="362"></rect>
<polygon stroke="#9CB728" stroke-width="6" fill="#AD624A" opacity="0.3786429455454144" stroke-opacity="0.782461799164952" transform="rotate(-58.0 400 300)" points="432 413 100 72 472 340 731 513 768 252 626 539 "></polygon>
<polygon stroke="#846D45" stroke-width="7" fill="#B8B9C3" opacity="0.35673397756580777" stroke-opacity="0.24234348754413843" transform="rotate(-133.0 400 300)" points="748 360 127 324 16 247 219 192 576 338 32 448 746 95 "></polygon>
<ellipse stroke="#452791" stroke-width="4" fill="#D3475A" opacity="0.865709251080463" stroke-opacity="0.3434469912964699" transform="rotate(24.0 400 300)" cx="524" rx="127" cy="386" ry="223"></ellipse>
<polygon stroke="#4777C9" stroke-width="5" fill="#3ABDDB" opacity="0.7780811384121923" stroke-opacity="0.4856373499756485" transform="rotate(27.0 400 300)" points="85 568 627 560 274 332 168 381 668 109 592 53 "></polygon>
<polygon stroke="#4588D6" stroke-width="7" fill="#6B791D" opacity="0.6782121193807689" stroke-opacity="0.9569548256639553" transform="rotate(-160.0 400 300)" points="635 347 427 537 98 320 329 431 507 443 88 97 538 106 "></polygon>
<ellipse stroke="#A3D5D4" stroke-width="1" fill="#16962C" opacity="0.9117884073456611" stroke-opacity="0.7177719703152505" transform="rotate(-140.0 400 300)" cx="454" rx="202" cy="240" ry="91"></ellipse>

  </g>
</svg>
