<?xml version="1.0" encoding="UTF-8"?>
<svg width="800px" height="600px" viewBox="0 0 800 600" version="1.1" xmlns="http://www.w3.org/2000/svg" xmlns:xlink="http://www.w3.org/1999/xlink">
  <defs></defs>
  <g stroke="none" stroke-width="1" fill="none" fill-rule="evenodd">
    
    <polygon stroke="#fe9225" stroke-width="4" fill="#fe9225" opacity="0.8855770821210923" stroke-opacity="0.9777133936936652" transform="rotate(175.0 400 300)" points="416 161 793 324 60 8 25 124 151 594 138 110 "></polygon>
<polygon stroke="#fe9225" stroke-width="6" fill="#2cd3f3" opacity="0.6587776015816439" stroke-opacity="0.802847537519503" transform="rotate(-78.0 400 300)" points="517 260 742 118 196 144 424 190 90 562 212 256 "></polygon>
<ellipse stroke="#f559a0" stroke-width="1" fill="#f559a0" opacity="0.18188712527425357" stroke-opacity="0.9298841986417973" transform="rotate(-75.0 400 300)" cx="589" rx="304" cy="449" ry="238"></ellipse>
<path stroke="#02eb6b" stroke-width="4" fill="#0fa6d8" opacity="0.7266576164510087" stroke-opacity="0.024906920471922132" transform="rotate(-143.0 400 300)" d="M 663,296  C 215,272 207,275 231,433 C 111,380 394,286 651,446 C 188,371 152,268 559,320 C 599,499 636,481 442,167 C 611,151 144,420 434,200 C 383,347 252,158 570,486 Z"></path>
<path stroke="#02eb6b" stroke-width="3" fill="#2cd3f3" opacity="0.26786589862723" stroke-opacity="0.7721621975067489" transform="rotate(-23.0 400 300)" d="M 334,264  C 559,493 321,101 685,237 C 591,396 615,334 444,138 C 465,461 439,395 420,234 C 595,143 608,170 429,316 Z"></path>
<polygon stroke="#02eb6b" stroke-width="4" fill="#fe9225" opacity="0.498546317471824" stroke-opacity="0.20410908024661925" transform="rotate(-166.0 400 300)" points="318 37 709 307 301 101 782 408 285 387 346 565 "></polygon>
<ellipse stroke="#f559a0" stroke-width="1" fill="#f559a0" opacity="0.01520855298079828" stroke-opacity="0.4992177777753725" transform="rotate(38.0 400 300)" cx="1" rx="216" cy="79" ry="98"></ellipse>
<rect stroke="#f559a0" stroke-width="3" fill="#fe9225" opacity="0.08207056640458912" stroke-opacity="0.6183446049333048" transform="rotate(-105.0 400 300)" x="231" y="106" width="271" height="294"></rect>
<ellipse stroke="#f559a0" stroke-width="5" fill="#0fa6d8" opacity="0.1299774825704109" stroke-opacity="0.44957594414794727" transform="rotate(-105.0 400 300)" cx="354" rx="240" cy="393" ry="318"></ellipse>

  </g>
</svg>
