<svg xmlns="http://www.w3.org/2000/svg" xmlns:xlink="http://www.w3.org/1999/xlink" width="800" height="600" version="1.1" viewBox="0 0 800 600"><g fill="none" fill-rule="evenodd" stroke="none" stroke-width="1"><polygon fill="#fe9225" stroke="#fe9225" stroke-opacity=".978" stroke-width="4" points="416 161 793 324 60 8 25 124 151 594 138 110" opacity=".886" transform="rotate(175.0 400 300)"/><polygon fill="#2cd3f3" stroke="#fe9225" stroke-opacity=".803" stroke-width="6" points="517 260 742 118 196 144 424 190 90 562 212 256" opacity=".659" transform="rotate(-78.0 400 300)"/><ellipse cx="589" cy="449" fill="#f559a0" stroke="#f559a0" stroke-opacity=".93" stroke-width="1" opacity=".182" rx="304" ry="238" transform="rotate(-75.0 400 300)"/><path fill="#0fa6d8" stroke="#02eb6b" stroke-opacity=".025" stroke-width="4" d="M 663,296 C 215,272 207,275 231,433 C 111,380 394,286 651,446 C 188,371 152,268 559,320 C 599,499 636,481 442,167 C 611,151 144,420 434,200 C 383,347 252,158 570,486 Z" opacity=".727" transform="rotate(-143.0 400 300)"/><path fill="#2cd3f3" stroke="#02eb6b" stroke-opacity=".772" stroke-width="3" d="M 334,264 C 559,493 321,101 685,237 C 591,396 615,334 444,138 C 465,461 439,395 420,234 C 595,143 608,170 429,316 Z" opacity=".268" transform="rotate(-23.0 400 300)"/><polygon fill="#fe9225" stroke="#02eb6b" stroke-opacity=".204" stroke-width="4" points="318 37 709 307 301 101 782 408 285 387 346 565" opacity=".499" transform="rotate(-166.0 400 300)"/><ellipse cx="1" cy="79" fill="#f559a0" stroke="#f559a0" stroke-opacity=".499" stroke-width="1" opacity=".015" rx="216" ry="98" transform="rotate(38.0 400 300)"/><rect width="271" height="294" x="231" y="106" fill="#fe9225" stroke="#f559a0" stroke-opacity=".618" stroke-width="3" opacity=".082" transform="rotate(-105.0 400 300)"/><ellipse cx="354" cy="393" fill="#0fa6d8" stroke="#f559a0" stroke-opacity=".45" stroke-width="5" opacity=".13" rx="240" ry="318" transform="rotate(-105.0 400 300)"/></g></svg>