<?xml version="1.0" encoding="UTF-8"?>
<svg width="800px" height="600px" viewBox="0 0 800 600" version="1.1" xmlns="http://www.w3.org/2000/svg" xmlns:xlink="http://www.w3.org/1999/xlink">
  <defs></defs>
  <g stroke="none" stroke-width="1" fill="none" fill-rule="evenodd">
    
    <polygon stroke="#31a06b" stroke-width="7" fill="#2b55f7" opacity="0.07105824436932993" stroke-opacity="0.5807617088660237" transform="rotate(162.0 400 300)" points="538 330 587 14 160 295 454 107 197 577 554 1 "></polygon>
<ellipse stroke="#2b55f7" stroke-width="4" fill="#f9d84b" opacity="0.6632185434935265" stroke-opacity="0.5054423864842996" transform="rotate(11.0 400 300)" cx="42" rx="183" cy="181" ry="248"></ellipse>
<rect stroke="#31a06b" stroke-width="7" fill="#f27630" opacity="0.5336244339118533" stroke-opacity="0.9666768807444558" transform="rotate(-64.0 400 300)" x="307" y="358" width="109" height="160"></rect>
<rect stroke="#ed2b2c" stroke-width="6" fill="#2b55f7" opacity="0.5342800988634431" stroke-opacity="0.029791891914531257" transform="rotate(-8.0 400 300)" x="417" y="307" width="76" height="108"></rect>
<ellipse stroke="#f9d84b" stroke-width="3" fill="#f9d84b" opacity="0.32941095334968457" stroke-opacity="0.11316746017749534" transform="rotate(81.0 400 300)" cx="5" rx="441" cy="57" ry="220"></ellipse>
<ellipse stroke="#f27630" stroke-width="3" fill="#ed2b2c" opacity="0.4653477174536153" stroke-opacity="0.6814232667230432" transform="rotate(-20.0 400 300)" cx="677" rx="113" cy="189" ry="261"></ellipse>
<path stroke="#2b55f7" stroke-width="5" fill="#2b55f7" opacity="0.14239881505148871" stroke-opacity="0.05489812458233719" transform="rotate(-120.0 400 300)" d="M 564,300  C 264,441 532,148 443,245 C 654,196 390,389 417,149 C 301,288 245,164 549,281 C 449,267 371,345 649,248 C 412,106 220,222 643,471 C 224,222 609,439 558,406 C 250,324 607,285 125,146 C 340,462 399,126 426,249 C 539,211 237,350 224,485 C 281,313 295,285 328,127 C 530,294 384,433 439,390 Z"></path>
<polygon stroke="#ed2b2c" stroke-width="6" fill="#2b55f7" opacity="0.9577283534091728" stroke-opacity="0.7374657067163736" transform="rotate(-81.0 400 300)" points="396 501 577 267 551 260 649 249 245 529 "></polygon>

  </g>
</svg>
