<svg xmlns="http://www.w3.org/2000/svg" xmlns:xlink="http://www.w3.org/1999/xlink" width="800" height="600" version="1.1" viewBox="0 0 800 600"><g fill="none" fill-rule="evenodd" stroke="none" stroke-width="1"><polygon fill="#2b55f7" stroke="#31a06b" stroke-opacity=".581" stroke-width="7" points="538 330 587 14 160 295 454 107 197 577 554 1" opacity=".071" transform="rotate(162.0 400 300)"/><ellipse cx="42" cy="181" fill="#f9d84b" stroke="#2b55f7" stroke-opacity=".505" stroke-width="4" opacity=".663" rx="183" ry="248" transform="rotate(11.0 400 300)"/><rect width="109" height="160" x="307" y="358" fill="#f27630" stroke="#31a06b" stroke-opacity=".967" stroke-width="7" opacity=".534" transform="rotate(-64.0 400 300)"/><rect width="76" height="108" x="417" y="307" fill="#2b55f7" stroke="#ed2b2c" stroke-opacity=".03" stroke-width="6" opacity=".534" transform="rotate(-8.0 400 300)"/><ellipse cx="5" cy="57" fill="#f9d84b" stroke="#f9d84b" stroke-opacity=".113" stroke-width="3" opacity=".329" rx="441" ry="220" transform="rotate(81.0 400 300)"/><ellipse cx="677" cy="189" fill="#ed2b2c" stroke="#f27630" stroke-opacity=".681" stroke-width="3" opacity=".465" rx="113" ry="261" transform="rotate(-20.0 400 300)"/><path fill="#2b55f7" stroke="#2b55f7" stroke-opacity=".055" stroke-width="5" d="M 564,300 C 264,441 532,148 443,245 C 654,196 390,389 417,149 C 301,288 245,164 549,281 C 449,267 371,345 649,248 C 412,106 220,222 643,471 C 224,222 609,439 558,406 C 250,324 607,285 125,146 C 340,462 399,126 426,249 C 539,211 237,350 224,485 C 281,313 295,285 328,127 C 530,294 384,433 439,390 Z" opacity=".142" transform="rotate(-120.0 400 300)"/><polygon fill="#2b55f7" stroke="#ed2b2c" stroke-opacity=".737" stroke-width="6" points="396 501 577 267 551 260 649 249 245 529" opacity=".958" transform="rotate(-81.0 400 300)"/></g></svg>