<?xml version="1.0" encoding="UTF-8"?>
<svg width="800px" height="600px" viewBox="0 0 800 600" version="1.1" xmlns="http://www.w3.org/2000/svg" xmlns:xlink="http://www.w3.org/1999/xlink">
  <defs></defs>
  <g stroke="none" stroke-width="1" fill="none" fill-rule="evenodd">
    
    <path stroke="#9D0B98" stroke-width="7" fill="#516030" opacity="0.6121616727309677" stroke-opacity="0.8149112868491736" transform="rotate(91.0 400 300)" d="M 615,176  C 434,117 598,419 565,246 C 687,389 317,491 453,398 C 342,443 625,177 279,221 C 184,160 429,365 352,396 C 335,155 126,466 242,488 C 232,164 224,128 499,391 C 283,237 430,353 598,147 C 144,363 502,122 293,332 Z"></path>
<path stroke="#899237" stroke-width="1" fill="#6D2B16" opacity="0.4788936090138576" stroke-opacity="0.0519970827369069" transform="rotate(77.0 400 300)" d="M 104,465  C 537,415 382,107 408,402 C 321,260 591,314 589,408 C 306,415 432,383 230,379 C 198,164 329,180 487,444 C 687,356 451,210 603,320 C 433,391 495,469 582,190 C 614,384 135,441 496,335 C 319,284 624,219 170,119 C 140,224 532,127 272,212 C 539,141 597,414 606,493 Z"></path>
<path stroke="#90D372" stroke-width="7" fill="#AD893A" opacity="0.9738754239019174" stroke-opacity="0.49575043460545987" transform="rotate(-150.0 400 300)" d="M 470,270  C 274,337 628,184 626,384 C 574,401 605,488 139,279 C 338,281 426,130 526,174 C 440,247 342,201 533,170 C 169,431 359,286 525,130 C 295,120 322,496 176,157 Z"></path>
<path stroke="#C48577" stroke-width="2" fill="#0A5036" opacity="0.0850536122817441" stroke-opacity="0.5035382194053626" transform="rotate(-115.0 400 300)" d="M 218,248  C 391,486 661,431 446,142 C 307,229 171,394 631,189 C 201,325 451,367 104,133 C 329,295 249,140 338,132 C 408,291 684,495 506,201 C 546,395 185,364 213,170 Z"></path>
<path stroke="#1CBCC7" stroke-width="6" fill="#7B7058" opacity="0.2951504739907427" stroke-opacity="0.26240682626685546" transform="rotate(-32.0 400 300)" d="M 388,183  C 452,109 246,492 535,490 C 601,156 598,367 575,433 C 497,420 268,364 287,445 C 516,297 633,198 404,345 C 545,162 279,498 196,185 C 269,201 368,172 441,469 C 565,498 605,304 112,453 Z"></path>
<path stroke="#3AD8B9" stroke-width="3" fill="#387CDD" opacity="0.8887144329706396" stroke-opacity="0.9465740635949191" transform="rotate(-103.0 400 300)" d="M 663,278  C 289,116 113,463 637,402 C 311,199 147,120 110,457 C 369,320 429,322 387,118 C 125,295 214,193 616,416 C 671,462 253,430 264,170 C 657,474 495,140 195,187 Z"></path>
<path stroke="#88AD9C" stroke-width="2" fill="#835495" opacity="0.6641774418317221" stroke-opacity="0.00669538509658811" transform="rotate(59.0 400 300)" d="M 637,395  C 284,318 355,121 467,267 C 559,179 689,262 212,290 C 383,451 610,211 582,302 C 179,211 569,500 608,263 C 144,458 139,151 614,407 C 170,315 172,320 215,246 C 448,428 388,475 364,323 Z"></path>

  </g>
</svg>
