<?xml version="1.0" encoding="UTF-8"?>
<svg width="800px" height="600px" viewBox="0 0 800 600" version="1.1" xmlns="http://www.w3.org/2000/svg" xmlns:xlink="http://www.w3.org/1999/xlink">
  <defs></defs>
  <g stroke="none" stroke-width="1" fill="none" fill-rule="evenodd">
    
    <path stroke="#04ADA8" stroke-width="2" fill="#98741D" opacity="0.9812751265652566" stroke-opacity="0.1872528797073766" transform="rotate(-34.0 400 300)" d="M 191,355  C 145,152 690,151 262,106 C 544,151 591,117 587,123 C 119,497 522,250 481,485 C 273,391 271,410 572,127 C 385,259 573,211 564,420 C 681,393 501,156 179,164 C 570,139 110,285 427,454 C 447,425 486,400 168,429 C 680,482 226,215 655,192 Z"></path>
<path stroke="#6A2667" stroke-width="1" fill="#B7B737" opacity="0.7268598602995805" stroke-opacity="0.43889799077435865" transform="rotate(-41.0 400 300)" d="M 522,297  C 469,223 655,410 247,389 C 218,261 700,415 568,388 C 496,180 178,298 113,180 C 233,123 200,135 695,420 C 123,430 434,493 284,338 Z"></path>
<path stroke="#9C1027" stroke-width="5" fill="#D707A5" opacity="0.42647494225494964" stroke-opacity="0.21352766020901223" transform="rotate(135.0 400 300)" d="M 245,232  C 250,210 412,441 650,202 C 319,242 552,172 187,314 C 597,105 551,272 476,250 C 163,258 643,471 330,479 C 623,461 501,469 177,390 C 315,352 308,130 473,210 C 235,141 185,163 635,314 Z"></path>
<path stroke="#0B99B7" stroke-width="7" fill="#63724A" opacity="0.7604994058600723" stroke-opacity="0.32423328802149814" transform="rotate(-67.0 400 300)" d="M 165,153  C 696,486 651,394 150,138 C 237,476 505,132 619,332 C 391,251 335,295 170,307 C 421,255 192,398 129,203 Z"></path>
<path stroke="#498505" stroke-width="7" fill="#31909D" opacity="0.46515785971655693" stroke-opacity="0.5444067166350518" transform="rotate(-173.0 400 300)" d="M 668,433  C 121,261 187,358 449,191 C 331,468 661,384 463,321 C 522,111 259,481 699,460 C 268,249 471,500 274,188 C 399,389 663,297 178,248 C 314,370 328,284 247,303 C 463,343 632,241 226,401 C 243,127 497,420 201,139 C 466,394 170,313 125,332 C 277,383 461,384 266,227 C 584,165 154,238 181,211 Z"></path>
<path stroke="#92DD96" stroke-width="7" fill="#082B16" opacity="0.9828970234874683" stroke-opacity="0.7967294392503497" transform="rotate(67.0 400 300)" d="M 433,476  C 104,480 119,299 502,416 C 243,121 441,252 522,192 C 359,412 194,307 649,474 C 108,469 326,478 156,418 C 194,378 475,240 298,334 C 322,169 317,366 175,191 C 148,216 365,314 525,271 C 621,389 695,236 678,263 C 397,280 478,456 376,232 Z"></path>
<path stroke="#71BABC" stroke-width="6" fill="#62D216" opacity="0.31535130522864796" stroke-opacity="0.49068894430332116" transform="rotate(-25.0 400 300)" d="M 593,417  C 393,467 198,127 588,370 C 401,397 304,278 297,452 C 480,156 456,181 109,218 C 548,183 373,123 327,225 C 218,282 320,290 565,427 C 596,224 482,177 166,461 Z"></path>
<path stroke="#29B957" stroke-width="2" fill="#AD9B10" opacity="0.6219747009413928" stroke-opacity="0.9878973153875545" transform="rotate(52.0 400 300)" d="M 226,112  C 495,339 147,427 221,195 C 652,347 480,370 242,354 C 589,134 519,379 602,104 C 399,175 459,270 688,399 C 167,423 515,396 128,307 C 272,203 319,138 518,320 C 544,420 184,351 259,139 C 240,160 669,406 521,136 C 211,407 276,211 341,444 C 141,457 122,391 688,321 C 662,487 192,115 353,151 Z"></path>
<path stroke="#05B32B" stroke-width="6" fill="#7A40D4" opacity="0.05332097350936957" stroke-opacity="0.8875088992656306" transform="rotate(130.0 400 300)" d="M 588,247  C 344,364 529,180 474,281 C 110,325 512,337 361,341 C 576,134 293,354 663,406 C 442,236 391,128 216,181 Z"></path>
<path stroke="#7267DB" stroke-width="2" fill="#7A1468" opacity="0.9462385751192928" stroke-opacity="0.993371139453403" transform="rotate(76.0 400 300)" d="M 368,373  C 164,194 335,381 496,354 C 357,245 482,247 648,373 C 483,376 450,416 325,397 C 295,410 250,311 203,398 C 388,303 450,102 277,256 C 206,232 232,188 699,267 C 343,403 295,381 183,316 C 280,205 467,248 334,203 Z"></path>

  </g>
</svg>
