<svg xmlns="http://www.w3.org/2000/svg" xmlns:xlink="http://www.w3.org/1999/xlink" width="800" height="600" version="1.1" viewBox="0 0 800 600"><g fill="none" fill-rule="evenodd" stroke="none" stroke-width="1"><path fill="#B54197" stroke="#651954" stroke-opacity=".464" stroke-width="4" d="M 138,401 C 483,313 210,405 288,181 C 296,369 539,129 591,172 C 468,448 431,498 185,478 C 193,131 255,374 432,483 C 568,132 626,230 326,216 Z" opacity=".85" transform="rotate(-87.0 400 300)"/><rect width="99" height="350" x="482" y="60" fill="#884AA7" stroke="#426C34" stroke-opacity=".785" stroke-width="6" opacity=".748" transform="rotate(-157.0 400 300)"/><path fill="#A8DA54" stroke="#651481" stroke-opacity=".408" stroke-width="6" d="M 103,372 C 681,334 575,273 108,460 C 263,333 141,176 636,223 C 258,351 662,279 276,420 C 620,477 149,497 615,106 C 527,244 203,136 371,277 C 584,282 480,468 399,249 C 684,409 238,414 391,306 Z" opacity=".922" transform="rotate(-164.0 400 300)"/><path fill="#2DB68D" stroke="#1065B1" stroke-opacity=".073" stroke-width="2" d="M 373,293 C 673,181 257,372 609,303 C 275,473 320,102 154,171 C 594,318 228,498 322,295 C 538,129 513,294 262,181 Z" opacity=".798" transform="rotate(153.0 400 300)"/><ellipse cx="605" cy="543" fill="#AC386D" stroke="#540C63" stroke-opacity=".832" stroke-width="1" opacity=".508" rx="439" ry="336" transform="rotate(-123.0 400 300)"/><path fill="#7A88B4" stroke="#62AB97" stroke-opacity=".504" stroke-width="2" d="M 404,162 C 452,432 595,363 147,217 C 230,344 631,455 118,339 C 466,130 184,398 448,393 C 646,111 414,291 141,194 C 175,463 656,496 305,188 Z" opacity=".815" transform="rotate(-34.0 400 300)"/><ellipse cx="376" cy="399" fill="#A33B03" stroke="#8C16D6" stroke-opacity=".842" stroke-width="7" opacity=".275" rx="112" ry="57" transform="rotate(-10.0 400 300)"/><rect width="96" height="267" x="410" y="335" fill="#73D994" stroke="#8C8A4B" stroke-opacity=".101" stroke-width="6" opacity=".891" transform="rotate(105.0 400 300)"/></g></svg>