<svg xmlns="http://www.w3.org/2000/svg" xmlns:xlink="http://www.w3.org/1999/xlink" width="800" height="600" version="1.1" viewBox="0 0 800 600"><g fill="none" fill-rule="evenodd" stroke="none" stroke-width="1"><rect width="331" height="130" x="259" y="279" fill="#f27630" stroke="#f27630" stroke-opacity=".162" stroke-width="4" opacity=".628" transform="rotate(23.0 400 300)"/><rect width="67" height="330" x="203" y="362" fill="#31a06b" stroke="#31a06b" stroke-opacity=".449" stroke-width="3" opacity=".875" transform="rotate(-83.0 400 300)"/><rect width="360" height="69" x="486" y="193" fill="#f27630" stroke="#ed2b2c" stroke-opacity=".002" stroke-width="2" opacity=".48" transform="rotate(101.0 400 300)"/><ellipse cx="464" cy="528" fill="#f9d84b" stroke="#ed2b2c" stroke-opacity=".531" stroke-width="1" opacity=".832" rx="369" ry="302" transform="rotate(-101.0 400 300)"/><path fill="#f27630" stroke="#2b55f7" stroke-opacity=".21" stroke-width="3" d="M 176,162 C 575,438 427,137 261,480 C 513,454 212,438 471,142 C 227,163 602,284 620,475 C 224,359 412,229 277,304 C 458,489 580,245 254,163 C 113,424 420,353 393,464 Z" opacity=".791" transform="rotate(-12.0 400 300)"/><ellipse cx="24" cy="460" fill="#f9d84b" stroke="#31a06b" stroke-opacity=".309" stroke-width="3" opacity=".474" rx="133" ry="129" transform="rotate(-24.0 400 300)"/><rect width="210" height="257" x="778" y="204" fill="#f9d84b" stroke="#ed2b2c" stroke-opacity=".787" stroke-width="5" opacity=".489" transform="rotate(-165.0 400 300)"/><polygon fill="#f9d84b" stroke="#f9d84b" stroke-opacity=".127" stroke-width="6" points="645 56 261 246 182 24 741 143 81 290 743 590 197 431 45 267" opacity=".936" transform="rotate(137.0 400 300)"/><rect width="227" height="217" x="169" y="32" fill="#31a06b" stroke="#ed2b2c" stroke-opacity=".968" stroke-width="7" opacity=".932" transform="rotate(48.0 400 300)"/><polygon fill="#2b55f7" stroke="#ed2b2c" stroke-opacity=".479" stroke-width="2" points="399 187 420 50 791 351 415 386 131 398 413 505" opacity=".601" transform="rotate(75.0 400 300)"/></g></svg>