<svg xmlns="http://www.w3.org/2000/svg" xmlns:xlink="http://www.w3.org/1999/xlink" width="800" height="600" version="1.1" viewBox="0 0 800 600"><g fill="none" fill-rule="evenodd" stroke="none" stroke-width="1"><path fill="#0fa6d8" stroke="#f559a0" stroke-opacity=".592" stroke-width="5" d="M 312,416 C 648,496 442,193 137,359 C 109,299 325,127 456,195 C 597,343 145,246 197,499 C 647,481 557,104 527,141 C 324,384 232,172 435,386 C 360,123 534,201 446,352 C 549,499 507,375 322,172 C 156,289 398,210 135,273 C 531,455 298,327 376,205 C 160,452 507,453 237,349 Z" opacity=".011" transform="rotate(169.0 400 300)"/><path fill="#0fa6d8" stroke="#02eb6b" stroke-opacity=".951" stroke-width="7" d="M 171,265 C 471,478 239,114 143,468 C 685,482 192,141 331,162 C 251,455 667,480 201,405 C 300,496 319,487 467,234 C 435,302 253,412 640,331 C 569,112 171,336 152,251 C 377,306 256,260 443,393 Z" opacity=".281" transform="rotate(170.0 400 300)"/><path fill="#fe9225" stroke="#f559a0" stroke-opacity=".324" stroke-width="3" d="M 536,263 C 626,186 127,339 195,389 C 451,305 145,178 469,434 C 641,469 448,186 370,266 C 318,256 260,114 228,450 C 553,421 624,138 620,265 C 590,187 288,123 216,128 C 685,381 365,151 443,479 C 436,187 314,139 147,420 Z" opacity=".23" transform="rotate(-122.0 400 300)"/><path fill="#f559a0" stroke="#0fa6d8" stroke-opacity=".985" stroke-width="5" d="M 280,363 C 418,343 168,421 381,395 C 331,267 370,184 687,159 C 131,321 566,434 418,239 C 605,144 697,332 197,224 Z" opacity=".553" transform="rotate(170.0 400 300)"/><path fill="#02eb6b" stroke="#f559a0" stroke-opacity=".206" stroke-width="7" d="M 170,297 C 179,407 635,424 449,494 C 367,123 698,119 180,475 C 293,163 200,462 224,137 C 415,456 652,443 636,413 C 273,102 415,335 141,114 C 530,472 598,402 689,273 C 686,275 393,197 391,364 Z" opacity=".666" transform="rotate(154.0 400 300)"/><path fill="#02eb6b" stroke="#02eb6b" stroke-opacity=".764" stroke-width="7" d="M 393,198 C 182,389 214,492 206,104 C 199,452 209,242 642,326 C 280,484 159,404 128,436 C 507,162 298,387 679,463 C 374,366 173,470 165,168 Z" opacity=".681" transform="rotate(-26.0 400 300)"/><path fill="#0fa6d8" stroke="#f559a0" stroke-opacity=".23" stroke-width="6" d="M 318,200 C 494,240 567,136 550,404 C 251,104 555,182 432,207 C 563,224 380,468 700,117 C 685,159 416,320 421,437 C 318,298 457,267 531,226 C 258,135 566,489 240,260 C 131,140 547,443 566,156 C 337,200 356,200 388,389 C 368,417 367,306 192,119 C 371,130 438,261 128,433 Z" opacity=".771" transform="rotate(81.0 400 300)"/><path fill="#2cd3f3" stroke="#02eb6b" stroke-opacity=".267" stroke-width="6" d="M 447,360 C 525,212 363,239 359,287 C 541,275 521,191 647,303 C 343,402 219,269 506,299 C 608,159 604,129 366,106 C 449,466 189,409 283,445 C 292,179 410,500 153,355 C 511,385 200,424 278,176 C 121,198 581,425 304,231 Z" opacity=".679" transform="rotate(-146.0 400 300)"/><path fill="#0fa6d8" stroke="#f559a0" stroke-opacity=".632" stroke-width="5" d="M 597,447 C 329,290 567,434 412,226 C 176,220 104,337 149,418 C 615,387 610,114 402,482 C 448,244 499,475 177,216 C 387,406 622,361 625,198 C 267,131 122,428 571,448 C 561,196 594,133 216,227 Z" opacity=".159" transform="rotate(139.0 400 300)"/><path fill="#f559a0" stroke="#02eb6b" stroke-opacity=".14" stroke-width="1" d="M 584,345 C 692,208 669,496 339,385 C 228,266 209,239 601,115 C 533,438 331,442 518,253 C 221,290 188,192 497,221 C 636,421 317,358 421,310 C 284,106 425,343 205,262 C 362,123 432,324 272,289 C 578,485 612,101 577,126 C 485,314 563,189 330,250 C 605,403 349,319 631,206 C 640,214 548,358 482,404 Z" opacity=".86" transform="rotate(108.0 400 300)"/></g></svg>