<svg xmlns="http://www.w3.org/2000/svg" xmlns:xlink="http://www.w3.org/1999/xlink" width="800" height="600" version="1.1" viewBox="0 0 800 600"><g fill="none" fill-rule="evenodd" stroke="none" stroke-width="1"><path fill="#2cd3f3" stroke="#fe9225" stroke-opacity=".356" stroke-width="5" d="M 153,295 C 632,409 127,330 616,463 C 437,288 284,212 429,211 C 558,314 216,441 411,430 C 233,448 625,106 427,474 C 281,123 541,190 240,162 C 250,291 402,269 351,405 C 595,446 234,467 535,406 Z" opacity=".195" transform="rotate(62.0 400 300)"/><path fill="#2cd3f3" stroke="#fe9225" stroke-opacity=".81" stroke-width="4" d="M 154,284 C 301,254 697,367 350,159 C 283,246 683,342 264,297 C 494,157 460,170 577,397 C 297,321 624,114 410,282 C 353,366 582,143 355,387 C 120,110 694,142 387,204 Z" opacity=".749" transform="rotate(50.0 400 300)"/><ellipse cx="368" cy="569" fill="#f559a0" stroke="#2cd3f3" stroke-opacity=".85" stroke-width="3" opacity=".797" rx="63" ry="286" transform="rotate(52.0 400 300)"/><rect width="347" height="258" x="573" y="12" fill="#2cd3f3" stroke="#2cd3f3" stroke-opacity=".75" stroke-width="3" opacity=".026" transform="rotate(-16.0 400 300)"/><ellipse cx="263" cy="502" fill="#2cd3f3" stroke="#2cd3f3" stroke-opacity=".327" stroke-width="6" opacity=".982" rx="244" ry="244" transform="rotate(-10.0 400 300)"/><path fill="#02eb6b" stroke="#0fa6d8" stroke-opacity=".158" stroke-width="2" d="M 540,136 C 412,307 514,150 681,159 C 488,333 171,454 583,423 C 377,277 399,142 375,388 C 567,133 547,461 205,166 C 392,489 553,167 240,407 C 240,355 467,443 656,220 C 497,460 336,365 456,362 C 660,240 662,339 158,142 C 483,155 368,235 448,191 C 153,341 211,402 464,336 Z" opacity=".239" transform="rotate(-41.0 400 300)"/><polygon fill="#2cd3f3" stroke="#f559a0" stroke-opacity=".765" stroke-width="3" points="694 212 144 440 378 298 192 248 381 473 547 360" opacity=".545" transform="rotate(-136.0 400 300)"/></g></svg>