<?xml version="1.0" encoding="UTF-8"?>
<svg width="800px" height="600px" viewBox="0 0 800 600" version="1.1" xmlns="http://www.w3.org/2000/svg" xmlns:xlink="http://www.w3.org/1999/xlink">
  <defs></defs>
  <g stroke="none" stroke-width="1" fill="none" fill-rule="evenodd">
    
    <path stroke="#fe9225" stroke-width="7" fill="#f559a0" opacity="0.35582731799565787" stroke-opacity="0.5545819108577789" transform="rotate(18.0 400 300)" d="M 417,193  C 134,470 649,147 313,270 C 537,214 495,243 167,107 C 523,414 621,355 289,402 C 580,278 507,380 383,172 Z"></path>
<path stroke="#02eb6b" stroke-width="7" fill="#fe9225" opacity="0.7468727746029428" stroke-opacity="0.5468880129002935" transform="rotate(-40.0 400 300)" d="M 619,228  C 695,273 364,255 594,413 C 338,495 482,296 683,369 C 361,157 132,384 397,350 C 238,310 304,117 110,431 C 466,470 559,449 328,445 C 667,478 604,477 644,234 C 616,107 695,321 377,397 C 115,254 281,272 403,171 C 600,438 315,433 590,314 C 258,260 367,181 608,253 Z"></path>
<path stroke="#fe9225" stroke-width="5" fill="#0fa6d8" opacity="0.5967185250064978" stroke-opacity="0.4517228387732617" transform="rotate(111.0 400 300)" d="M 679,304  C 470,368 530,252 166,291 C 530,195 672,109 649,410 C 123,212 260,225 517,255 C 346,357 526,371 590,166 Z"></path>
<path stroke="#02eb6b" stroke-width="2" fill="#2cd3f3" opacity="0.08040363650060699" stroke-opacity="0.6711435032216211" transform="rotate(52.0 400 300)" d="M 232,114  C 488,301 623,166 122,106 C 595,251 492,186 403,234 C 374,307 571,494 385,169 C 149,137 316,396 318,152 Z"></path>
<path stroke="#2cd3f3" stroke-width="4" fill="#02eb6b" opacity="0.8906615246288129" stroke-opacity="0.6329591040322705" transform="rotate(-9.0 400 300)" d="M 115,348  C 581,149 509,377 665,225 C 290,168 623,353 154,228 C 433,113 699,378 569,354 C 124,208 545,431 491,203 C 469,182 676,355 127,102 C 570,110 298,133 285,487 Z"></path>
<path stroke="#f559a0" stroke-width="2" fill="#02eb6b" opacity="0.5974929427049306" stroke-opacity="0.601016802029027" transform="rotate(-158.0 400 300)" d="M 589,346  C 324,499 141,336 380,172 C 206,302 450,275 106,438 C 566,299 633,232 590,211 C 181,118 117,206 673,213 C 212,460 128,185 422,224 C 619,403 380,492 185,437 C 468,131 249,240 446,405 C 390,120 605,202 330,369 Z"></path>
<path stroke="#02eb6b" stroke-width="1" fill="#2cd3f3" opacity="0.3302466502619189" stroke-opacity="0.7678568633509232" transform="rotate(82.0 400 300)" d="M 619,113  C 333,411 418,184 658,124 C 680,369 599,402 289,161 C 520,208 634,111 147,289 C 501,376 245,386 602,249 C 692,442 228,425 242,372 C 343,368 658,167 403,272 C 119,274 677,129 558,383 C 643,167 136,391 550,181 C 383,104 673,303 512,205 C 598,204 296,219 113,265 C 377,324 681,207 403,318 Z"></path>
<path stroke="#2cd3f3" stroke-width="4" fill="#f559a0" opacity="0.11690038778280494" stroke-opacity="0.39568874274073434" transform="rotate(-17.0 400 300)" d="M 161,356  C 150,481 319,126 561,418 C 105,471 620,156 682,255 C 148,222 228,324 123,190 C 257,265 327,125 338,483 C 328,243 320,123 489,236 C 285,452 176,259 397,388 C 295,403 638,141 257,125 C 388,336 536,284 605,104 Z"></path>
<path stroke="#0fa6d8" stroke-width="7" fill="#fe9225" opacity="0.024358193936717384" stroke-opacity="0.06816324677731293" transform="rotate(-156.0 400 300)" d="M 404,463  C 584,172 144,490 467,477 C 246,450 676,184 654,406 C 219,323 335,324 170,451 C 256,193 220,209 288,183 C 545,261 567,377 261,373 C 450,117 643,143 257,466 C 180,234 220,102 241,175 C 248,320 158,449 343,248 C 242,404 672,343 655,475 Z"></path>
<path stroke="#fe9225" stroke-width="1" fill="#fe9225" opacity="0.33878672337518484" stroke-opacity="0.8989197154720397" transform="rotate(161.0 400 300)" d="M 359,267  C 551,379 113,248 141,362 C 181,112 546,154 527,190 C 697,418 104,130 212,246 C 682,265 312,397 174,360 C 379,451 530,319 306,353 C 541,483 342,111 595,206 C 549,234 396,174 116,490 C 365,355 247,475 103,333 Z"></path>
<path stroke="#2cd3f3" stroke-width="2" fill="#fe9225" opacity="0.11817028007433508" stroke-opacity="0.7472826916548094" transform="rotate(158.0 400 300)" d="M 680,309  C 624,355 407,152 152,441 C 256,270 252,408 319,420 C 591,481 239,134 672,317 C 567,229 555,170 421,385 C 248,479 149,451 159,200 C 366,412 226,137 623,222 C 590,181 337,136 667,487 C 361,145 351,165 503,279 Z"></path>

  </g>
</svg>
