<svg xmlns="http://www.w3.org/2000/svg" xmlns:xlink="http://www.w3.org/1999/xlink" width="800" height="600" version="1.1" viewBox="0 0 800 600"><g fill="none" fill-rule="evenodd" stroke="none" stroke-width="1"><rect width="49" height="68" x="68" y="129" fill="#ed2b2c" stroke="#31a06b" stroke-opacity=".099" stroke-width="2" opacity=".419" transform="rotate(15.0 400 300)"/><rect width="128" height="175" x="230" y="89" fill="#ed2b2c" stroke="#31a06b" stroke-opacity=".892" stroke-width="2" opacity=".62" transform="rotate(-136.0 400 300)"/><path fill="#f9d84b" stroke="#2b55f7" stroke-opacity=".708" stroke-width="1" d="M 240,412 C 612,294 465,364 294,148 C 272,313 219,447 145,210 C 698,128 249,464 673,226 C 284,184 560,364 105,451 C 361,448 193,307 201,304 Z" opacity=".936" transform="rotate(-137.0 400 300)"/><polygon fill="#f27630" stroke="#31a06b" stroke-opacity=".911" stroke-width="4" points="783 299 268 134 54 266 202 491 407 503 681 114" opacity=".718" transform="rotate(26.0 400 300)"/><rect width="78" height="127" x="415" y="441" fill="#f9d84b" stroke="#31a06b" stroke-opacity=".68" stroke-width="6" opacity=".978" transform="rotate(101.0 400 300)"/><polygon fill="#f9d84b" stroke="#f27630" stroke-opacity=".974" stroke-width="2" points="76 298 379 383 650 460 467 338 657 36" opacity=".865" transform="rotate(-22.0 400 300)"/><ellipse cx="392" cy="93" fill="#ed2b2c" stroke="#ed2b2c" stroke-opacity=".131" stroke-width="5" opacity=".241" rx="393" ry="201" transform="rotate(57.0 400 300)"/><rect width="89" height="253" x="674" y="599" fill="#f9d84b" stroke="#f9d84b" stroke-opacity=".821" stroke-width="1" opacity=".047" transform="rotate(89.0 400 300)"/><ellipse cx="316" cy="11" fill="#2b55f7" stroke="#f9d84b" stroke-opacity=".468" stroke-width="7" opacity=".926" rx="126" ry="289" transform="rotate(107.0 400 300)"/><ellipse cx="472" cy="399" fill="#f27630" stroke="#ed2b2c" stroke-opacity=".675" stroke-width="5" opacity=".931" rx="56" ry="105" transform="rotate(-149.0 400 300)"/></g></svg>