<?xml version="1.0" encoding="UTF-8"?>
<svg width="800px" height="600px" viewBox="0 0 800 600" version="1.1" xmlns="http://www.w3.org/2000/svg" xmlns:xlink="http://www.w3.org/1999/xlink">
  <defs></defs>
  <g stroke="none" stroke-width="1" fill="none" fill-rule="evenodd">
    
    <path stroke="#94AB25" stroke-width="3" fill="#55BA7A" opacity="0.9026266468618951" stroke-opacity="0.14203044778810475" transform="rotate(-92.0 400 300)" d="M 571,465  C 459,315 400,294 310,212 C 416,108 484,285 346,343 C 469,369 505,105 426,299 C 538,235 662,161 225,132 C 250,491 332,329 686,477 Z"></path>
<path stroke="#0914BD" stroke-width="1" fill="#41373A" opacity="0.5338246279350706" stroke-opacity="0.7196662574136526" transform="rotate(81.0 400 300)" d="M 337,266  C 239,430 655,142 685,415 C 500,309 486,495 234,336 C 595,430 509,367 615,109 C 574,473 653,454 586,375 C 611,115 107,303 386,246 Z"></path>
<path stroke="#352767" stroke-width="1" fill="#2AB9D4" opacity="0.8549444393921237" stroke-opacity="0.5717937654061975" transform="rotate(1.0 400 300)" d="M 105,346  C 154,142 354,406 344,177 C 519,178 252,132 303,134 C 434,253 609,149 101,224 C 615,448 402,461 132,227 C 209,278 313,236 302,110 C 152,372 483,299 562,320 C 597,292 202,173 655,323 C 640,364 629,238 378,273 C 561,229 578,116 407,126 C 318,246 630,127 455,190 C 520,159 579,176 217,316 Z"></path>
<path stroke="#A76809" stroke-width="1" fill="#D93912" opacity="0.7504171951214816" stroke-opacity="0.5686598833281152" transform="rotate(-156.0 400 300)" d="M 391,455  C 649,399 101,369 271,246 C 229,431 468,499 392,290 C 477,189 458,300 446,488 C 572,407 536,115 161,342 C 343,222 473,411 404,345 C 270,485 401,477 122,266 C 627,202 349,381 313,471 Z"></path>
<path stroke="#300C33" stroke-width="3" fill="#98A7D4" opacity="0.8441860490232227" stroke-opacity="0.7324612665869559" transform="rotate(149.0 400 300)" d="M 167,252  C 497,208 501,402 607,342 C 658,114 211,430 303,277 C 548,388 402,395 685,261 C 349,135 127,496 269,101 C 386,411 359,482 145,210 Z"></path>
<path stroke="#3ABD82" stroke-width="5" fill="#8B5A83" opacity="0.6779266139147181" stroke-opacity="0.17382923230010483" transform="rotate(-37.0 400 300)" d="M 180,103  C 336,477 495,134 561,175 C 173,199 159,216 334,298 C 597,347 288,493 527,215 C 135,352 473,172 380,165 C 283,431 317,395 159,145 Z"></path>
<path stroke="#620B98" stroke-width="7" fill="#CD55AD" opacity="0.2273435896036787" stroke-opacity="0.7956088987472665" transform="rotate(3.0 400 300)" d="M 485,184  C 583,406 151,389 657,263 C 166,253 338,347 460,225 C 319,381 190,307 438,143 C 685,409 596,179 409,283 C 505,490 505,107 254,158 Z"></path>
<path stroke="#70B97C" stroke-width="6" fill="#A71A19" opacity="0.7357476731642844" stroke-opacity="0.3028327161038474" transform="rotate(-44.0 400 300)" d="M 475,348  C 138,137 324,373 655,231 C 312,459 488,375 503,122 C 492,112 211,349 630,484 C 333,338 555,363 632,479 C 127,372 161,487 612,297 C 484,244 137,335 179,229 C 258,147 541,459 676,236 C 299,335 534,325 392,439 Z"></path>

  </g>
</svg>
