<svg xmlns="http://www.w3.org/2000/svg" xmlns:xlink="http://www.w3.org/1999/xlink" width="800" height="600" version="1.1" viewBox="0 0 800 600"><g fill="none" fill-rule="evenodd" stroke="none" stroke-width="1"><polygon fill="#fe9225" stroke="#2cd3f3" stroke-opacity=".515" stroke-width="7" points="31 347 495 326 773 512 512 9 88 297 231 383" opacity=".061" transform="rotate(-140.0 400 300)"/><polygon fill="#02eb6b" stroke="#0fa6d8" stroke-opacity=".968" stroke-width="5" points="433 333 67 571 660 175 568 212 297 599 206 257" opacity=".052" transform="rotate(-92.0 400 300)"/><ellipse cx="201" cy="561" fill="#fe9225" stroke="#fe9225" stroke-opacity=".713" stroke-width="6" opacity=".66" rx="356" ry="171" transform="rotate(17.0 400 300)"/><polygon fill="#fe9225" stroke="#0fa6d8" stroke-opacity=".967" stroke-width="2" points="711 580 636 417 268 527 52 51 664 373 160 162" opacity=".168" transform="rotate(-172.0 400 300)"/><rect width="101" height="165" x="597" y="366" fill="#02eb6b" stroke="#2cd3f3" stroke-opacity=".558" stroke-width="7" opacity=".44" transform="rotate(56.0 400 300)"/><ellipse cx="277" cy="318" fill="#02eb6b" stroke="#0fa6d8" stroke-opacity=".089" stroke-width="4" opacity=".548" rx="425" ry="337" transform="rotate(70.0 400 300)"/><path fill="#02eb6b" stroke="#fe9225" stroke-opacity=".733" stroke-width="1" d="M 193,176 C 303,473 650,460 416,140 C 179,115 399,260 431,172 C 211,257 473,454 239,223 C 698,181 168,163 359,282 C 697,396 497,488 301,138 Z" opacity=".805" transform="rotate(-90.0 400 300)"/><path fill="#0fa6d8" stroke="#02eb6b" stroke-opacity=".031" stroke-width="4" d="M 519,446 C 595,454 400,153 212,150 C 505,420 106,459 589,370 C 187,223 438,109 249,436 C 377,283 296,319 159,132 C 498,340 655,267 557,123 C 455,270 563,252 564,256 Z" opacity=".716" transform="rotate(-52.0 400 300)"/><polygon fill="#f559a0" stroke="#f559a0" stroke-opacity=".045" stroke-width="7" points="1 468 348 179 123 489 191 468 313 50" opacity=".747" transform="rotate(95.0 400 300)"/></g></svg>