<?xml version="1.0" encoding="UTF-8"?>
<svg width="800px" height="600px" viewBox="0 0 800 600" version="1.1" xmlns="http://www.w3.org/2000/svg" xmlns:xlink="http://www.w3.org/1999/xlink">
  <defs></defs>
  <g stroke="none" stroke-width="1" fill="none" fill-rule="evenodd">
    
    <polygon stroke="#2cd3f3" stroke-width="7" fill="#fe9225" opacity="0.06111758151221924" stroke-opacity="0.5152647270799599" transform="rotate(-140.0 400 300)" points="31 347 495 326 773 512 512 9 88 297 231 383 "></polygon>
<polygon stroke="#0fa6d8" stroke-width="5" fill="#02eb6b" opacity="0.052444021810154215" stroke-opacity="0.9676396375206013" transform="rotate(-92.0 400 300)" points="433 333 67 571 660 175 568 212 297 599 206 257 "></polygon>
<ellipse stroke="#fe9225" stroke-width="6" fill="#fe9225" opacity="0.6597474640281896" stroke-opacity="0.7130840358254429" transform="rotate(17.0 400 300)" cx="201" rx="356" cy="561" ry="171"></ellipse>
<polygon stroke="#0fa6d8" stroke-width="2" fill="#fe9225" opacity="0.16774828886039528" stroke-opacity="0.9669805112141233" transform="rotate(-172.0 400 300)" points="711 580 636 417 268 527 52 51 664 373 160 162 "></polygon>
<rect stroke="#2cd3f3" stroke-width="7" fill="#02eb6b" opacity="0.43950351079359573" stroke-opacity="0.5581492964308332" transform="rotate(56.0 400 300)" x="597" y="366" width="101" height="165"></rect>
<ellipse stroke="#0fa6d8" stroke-width="4" fill="#02eb6b" opacity="0.5481726103081471" stroke-opacity="0.08852069521292169" transform="rotate(70.0 400 300)" cx="277" rx="425" cy="318" ry="337"></ellipse>
<path stroke="#fe9225" stroke-width="1" fill="#02eb6b" opacity="0.8048039163551483" stroke-opacity="0.7334503468260567" transform="rotate(-90.0 400 300)" d="M 193,176  C 303,473 650,460 416,140 C 179,115 399,260 431,172 C 211,257 473,454 239,223 C 698,181 168,163 359,282 C 697,396 497,488 301,138 Z"></path>
<path stroke="#02eb6b" stroke-width="4" fill="#0fa6d8" opacity="0.7156505738784835" stroke-opacity="0.030706789271929383" transform="rotate(-52.0 400 300)" d="M 519,446  C 595,454 400,153 212,150 C 505,420 106,459 589,370 C 187,223 438,109 249,436 C 377,283 296,319 159,132 C 498,340 655,267 557,123 C 455,270 563,252 564,256 Z"></path>
<polygon stroke="#f559a0" stroke-width="7" fill="#f559a0" opacity="0.7471658430537065" stroke-opacity="0.04537045460697053" transform="rotate(95.0 400 300)" points="1 468 348 179 123 489 191 468 313 50 "></polygon>

  </g>
</svg>
