<svg xmlns="http://www.w3.org/2000/svg" xmlns:xlink="http://www.w3.org/1999/xlink" width="800" height="600" version="1.1" viewBox="0 0 800 600"><g fill="none" fill-rule="evenodd" stroke="none" stroke-width="1"><path fill="#444C15" stroke="#8338C7" stroke-opacity=".154" stroke-width="1" d="M 363,401 C 680,272 251,228 679,417 C 483,205 516,178 634,259 C 110,485 648,379 225,297 C 676,391 556,383 485,296 C 605,209 235,191 382,161 Z" opacity=".168" transform="rotate(-26.0 400 300)"/><path fill="#0D4DDD" stroke="#BB9382" stroke-opacity=".491" stroke-width="3" d="M 379,356 C 364,410 171,440 165,281 C 376,430 653,132 518,110 C 295,279 189,415 226,473 C 425,395 247,422 249,439 C 392,213 627,258 390,412 C 340,249 505,392 172,362 Z" opacity=".364" transform="rotate(172.0 400 300)"/><path fill="#3AC643" stroke="#403B70" stroke-opacity=".502" stroke-width="3" d="M 516,448 C 125,383 692,362 233,316 C 259,387 306,499 334,242 C 224,253 200,380 124,177 C 591,500 376,229 696,193 C 129,170 240,283 676,302 C 283,495 471,172 115,407 C 530,348 519,418 628,409 C 358,195 263,480 591,238 Z" opacity=".871" transform="rotate(-14.0 400 300)"/><path fill="#15BD13" stroke="#4127A7" stroke-opacity=".099" stroke-width="2" d="M 231,445 C 125,494 186,216 185,351 C 547,379 231,406 427,249 C 282,409 358,214 532,447 C 294,375 447,227 663,120 C 561,279 263,449 565,374 C 695,284 399,172 624,410 C 446,450 632,497 526,140 Z" opacity=".375" transform="rotate(75.0 400 300)"/><path fill="#5DC908" stroke="#81193C" stroke-opacity=".203" stroke-width="6" d="M 397,406 C 281,226 398,306 294,244 C 339,451 397,238 409,120 C 688,493 404,496 239,354 C 305,443 131,308 662,152 C 680,232 447,230 653,112 C 180,144 596,165 253,181 C 573,196 417,216 316,248 Z" opacity=".859" transform="rotate(-6.0 400 300)"/><path fill="#DA4D8A" stroke="#19814D" stroke-opacity=".223" stroke-width="5" d="M 249,500 C 332,278 132,343 136,108 C 445,258 222,219 423,278 C 503,418 369,311 185,424 C 309,452 291,103 156,119 C 488,430 640,196 448,313 C 621,122 651,156 619,465 C 154,354 302,407 567,247 C 297,256 440,466 188,411 C 161,115 272,315 166,231 C 456,496 228,249 550,470 Z" opacity=".681" transform="rotate(85.0 400 300)"/><path fill="#5BD42C" stroke="#721900" stroke-opacity=".371" stroke-width="4" d="M 608,329 C 624,301 412,142 152,215 C 493,425 315,209 660,300 C 570,240 610,245 178,224 C 128,281 343,479 379,400 C 620,454 632,142 266,408 C 448,205 626,304 471,362 C 401,145 157,352 346,163 C 653,400 240,113 361,467 Z" opacity=".038" transform="rotate(-125.0 400 300)"/></g></svg>