<svg xmlns="http://www.w3.org/2000/svg" xmlns:xlink="http://www.w3.org/1999/xlink" width="800" height="600" version="1.1" viewBox="0 0 800 600"><g fill="none" fill-rule="evenodd" stroke="none" stroke-width="1"><path fill="#89C8B0" stroke="#8741CB" stroke-opacity=".765" stroke-width="7" d="M 306,150 C 113,306 234,278 122,496 C 689,316 389,146 178,216 C 201,362 699,175 263,225 C 239,419 331,335 310,322 C 444,395 602,269 287,435 C 302,287 148,162 637,489 C 374,397 620,372 375,127 C 573,104 136,230 106,442 C 358,451 595,118 469,338 Z" opacity=".974" transform="rotate(119.0 400 300)"/><path fill="#AD9132" stroke="#0B0831" stroke-opacity=".731" stroke-width="5" d="M 493,165 C 174,305 429,224 566,271 C 536,118 478,415 333,457 C 539,266 645,325 340,143 C 259,157 545,231 413,486 C 260,196 497,117 299,198 C 600,426 260,223 384,144 Z" opacity=".566" transform="rotate(80.0 400 300)"/><path fill="#6B7715" stroke="#78A451" stroke-opacity=".112" stroke-width="2" d="M 667,430 C 367,416 447,165 645,453 C 687,296 421,312 503,171 C 512,355 164,141 494,436 C 114,355 186,315 422,132 C 169,436 116,454 363,153 C 615,486 578,365 614,231 C 187,480 599,232 597,354 C 645,261 404,351 498,275 C 557,493 614,293 160,277 C 385,397 425,192 416,473 Z" opacity=".113" transform="rotate(108.0 400 300)"/><path fill="#2920DC" stroke="#5D9B35" stroke-opacity=".688" stroke-width="3" d="M 168,119 C 122,180 451,236 227,398 C 671,376 694,317 109,122 C 440,460 364,162 484,387 C 364,378 537,259 228,338 C 266,326 607,481 427,343 C 694,160 390,334 592,316 C 675,487 630,121 183,212 C 412,104 681,189 404,268 Z" opacity=".75" transform="rotate(55.0 400 300)"/><path fill="#9D8A01" stroke="#CC51DD" stroke-opacity=".014" stroke-width="2" d="M 458,475 C 149,399 298,490 321,101 C 162,473 177,224 379,305 C 110,451 281,495 481,482 C 694,223 462,122 474,364 C 231,498 316,487 604,434 Z" opacity=".555" transform="rotate(153.0 400 300)"/><path fill="#B1A278" stroke="#6BC030" stroke-opacity=".994" stroke-width="6" d="M 472,165 C 468,492 534,210 275,238 C 367,483 679,172 574,364 C 207,494 572,180 635,277 C 357,449 293,379 108,303 C 254,392 272,446 491,443 C 575,267 539,312 168,136 C 579,258 231,353 520,305 C 600,189 641,209 343,444 C 527,212 660,418 619,282 C 357,386 466,354 130,203 C 556,246 273,448 169,435 Z" opacity=".189" transform="rotate(-169.0 400 300)"/><path fill="#67A7A1" stroke="#1AB34B" stroke-opacity=".611" stroke-width="7" d="M 449,256 C 345,294 233,265 401,284 C 157,272 150,433 348,446 C 371,269 173,161 472,187 C 341,228 448,343 660,410 C 289,306 401,162 380,217 C 674,426 176,323 476,496 C 646,412 170,276 579,224 C 611,175 559,210 360,261 C 694,318 577,327 288,339 C 512,143 130,493 312,245 Z" opacity=".541" transform="rotate(136.0 400 300)"/><path fill="#2D882D" stroke="#C8A38B" stroke-opacity=".158" stroke-width="1" d="M 429,452 C 134,412 148,438 358,436 C 123,222 317,151 522,116 C 288,421 177,473 215,400 C 241,394 299,431 490,189 C 544,360 364,244 156,156 C 341,133 304,259 633,103 C 512,173 248,442 171,375 Z" opacity=".76" transform="rotate(157.0 400 300)"/><path fill="#49536C" stroke="#25D147" stroke-opacity=".705" stroke-width="1" d="M 428,291 C 541,178 534,176 629,169 C 617,192 166,368 428,255 C 369,364 358,278 106,131 C 420,255 282,237 248,346 C 307,103 226,275 305,381 Z" opacity=".834" transform="rotate(144.0 400 300)"/></g></svg>