<svg xmlns="http://www.w3.org/2000/svg" xmlns:xlink="http://www.w3.org/1999/xlink" width="800" height="600" version="1.1" viewBox="0 0 800 600"><g fill="none" fill-rule="evenodd" stroke="none" stroke-width="1"><polygon fill="#79272A" stroke="#7689BB" stroke-opacity=".603" stroke-width="2" points="324 600 435 575 414 73 276 567 137 454 64 236 8 464" opacity=".361" transform="rotate(140.0 400 300)"/><ellipse cx="260" cy="430" fill="#481501" stroke="#123986" stroke-opacity=".51" stroke-width="2" opacity=".936" rx="351" ry="127" transform="rotate(-159.0 400 300)"/><polygon fill="#4465A0" stroke="#C08B85" stroke-opacity=".503" stroke-width="5" points="410 120 240 491 303 56 446 462 273 281" opacity=".644" transform="rotate(115.0 400 300)"/><polygon fill="#7AB539" stroke="#D2A60A" stroke-opacity=".068" stroke-width="5" points="60 587 18 187 257 454 409 274 577 233 462 7 627 330 62 89" opacity=".161" transform="rotate(-30.0 400 300)"/><rect width="177" height="283" x="534" y="420" fill="#4AB140" stroke="#DD3BA2" stroke-opacity=".141" stroke-width="7" opacity=".029" transform="rotate(-154.0 400 300)"/><rect width="320" height="391" x="144" y="334" fill="#A9A111" stroke="#133778" stroke-opacity=".376" stroke-width="4" opacity=".222" transform="rotate(4.0 400 300)"/><ellipse cx="434" cy="31" fill="#063114" stroke="#76C185" stroke-opacity=".685" stroke-width="3" opacity=".36" rx="203" ry="103" transform="rotate(21.0 400 300)"/><rect width="145" height="344" x="621" y="14" fill="#7C621D" stroke="#2D4B7D" stroke-opacity=".834" stroke-width="5" opacity=".024" transform="rotate(-122.0 400 300)"/></g></svg>