<svg xmlns="http://www.w3.org/2000/svg" xmlns:xlink="http://www.w3.org/1999/xlink" width="800" height="600" version="1.1" viewBox="0 0 800 600"><g fill="none" fill-rule="evenodd" stroke="none" stroke-width="1"><ellipse cx="626" cy="407" fill="#fe9225" stroke="#0fa6d8" stroke-opacity=".501" stroke-width="7" opacity=".43" rx="190" ry="168" transform="rotate(-107.0 400 300)"/><ellipse cx="439" cy="549" fill="#02eb6b" stroke="#f559a0" stroke-opacity=".381" stroke-width="2" opacity=".111" rx="349" ry="260" transform="rotate(-138.0 400 300)"/><rect width="89" height="138" x="128" y="178" fill="#f559a0" stroke="#fe9225" stroke-opacity=".367" stroke-width="7" opacity=".642" transform="rotate(116.0 400 300)"/><path fill="#02eb6b" stroke="#02eb6b" stroke-opacity=".258" stroke-width="7" d="M 673,288 C 257,389 643,399 147,430 C 598,452 342,105 318,309 C 596,151 164,195 617,291 C 667,170 366,368 615,206 C 607,402 256,104 351,226 C 694,321 250,244 335,185 C 505,209 362,314 637,409 C 213,497 396,455 656,259 C 355,478 614,343 695,206 C 449,177 211,312 118,409 C 376,134 659,332 412,450 Z" opacity=".597" transform="rotate(-124.0 400 300)"/><rect width="349" height="54" x="475" y="393" fill="#0fa6d8" stroke="#f559a0" stroke-opacity=".021" stroke-width="5" opacity=".314" transform="rotate(19.0 400 300)"/><ellipse cx="80" cy="32" fill="#2cd3f3" stroke="#fe9225" stroke-opacity=".774" stroke-width="2" opacity=".059" rx="357" ry="213" transform="rotate(44.0 400 300)"/><rect width="334" height="78" x="623" y="28" fill="#2cd3f3" stroke="#fe9225" stroke-opacity=".667" stroke-width="3" opacity=".21" transform="rotate(-170.0 400 300)"/><ellipse cx="463" cy="387" fill="#02eb6b" stroke="#02eb6b" stroke-opacity=".881" stroke-width="2" opacity=".727" rx="249" ry="236" transform="rotate(54.0 400 300)"/></g></svg>