<svg xmlns="http://www.w3.org/2000/svg" xmlns:xlink="http://www.w3.org/1999/xlink" width="800" height="600" version="1.1" viewBox="0 0 800 600"><g fill="none" fill-rule="evenodd" stroke="none" stroke-width="1"><path fill="#0fa6d8" stroke="#02eb6b" stroke-opacity=".802" stroke-width="6" d="M 536,500 C 673,365 101,390 245,156 C 316,140 636,159 504,314 C 483,218 577,299 290,282 C 429,409 434,176 156,466 C 661,236 516,407 466,190 Z" opacity=".665" transform="rotate(116.0 400 300)"/><path fill="#02eb6b" stroke="#0fa6d8" stroke-opacity=".954" stroke-width="2" d="M 563,111 C 215,493 391,213 443,440 C 438,471 203,340 572,474 C 204,450 454,163 630,168 C 301,404 524,268 168,465 C 511,366 540,409 175,419 C 205,255 262,249 617,206 C 185,478 260,364 482,478 C 210,477 267,467 170,289 Z" opacity=".844" transform="rotate(21.0 400 300)"/><path fill="#fe9225" stroke="#02eb6b" stroke-opacity=".659" stroke-width="1" d="M 616,334 C 371,448 250,267 303,265 C 455,193 380,127 131,340 C 532,241 174,192 248,249 C 629,323 282,389 401,333 C 304,406 461,182 608,473 C 694,263 339,169 257,330 Z" opacity=".003" transform="rotate(-8.0 400 300)"/><path fill="#2cd3f3" stroke="#2cd3f3" stroke-opacity=".702" stroke-width="4" d="M 219,334 C 451,284 502,237 625,326 C 508,403 524,200 201,254 C 194,272 454,186 427,290 C 165,412 564,241 644,174 C 199,189 245,179 370,108 C 689,318 232,359 333,448 C 317,378 478,116 540,168 Z" opacity=".541" transform="rotate(-87.0 400 300)"/><path fill="#f559a0" stroke="#02eb6b" stroke-opacity=".877" stroke-width="3" d="M 107,490 C 364,139 138,225 364,204 C 685,122 318,139 145,412 C 358,306 224,194 168,359 C 297,288 506,166 207,196 C 620,289 363,399 467,101 C 307,382 405,418 528,220 C 371,372 614,293 383,101 C 345,257 200,123 493,249 C 346,388 228,359 566,408 C 679,317 155,394 313,356 C 579,321 460,462 213,467 Z" opacity=".799" transform="rotate(-127.0 400 300)"/><path fill="#f559a0" stroke="#2cd3f3" stroke-opacity=".554" stroke-width="4" d="M 173,253 C 537,109 646,371 483,295 C 250,236 617,479 577,458 C 117,451 275,355 698,188 C 203,237 107,384 347,152 C 372,351 298,255 428,228 C 173,411 345,350 275,399 C 297,172 362,433 541,336 C 672,101 525,278 388,413 C 383,207 106,435 630,205 C 264,170 471,213 646,466 Z" opacity=".776" transform="rotate(149.0 400 300)"/><path fill="#2cd3f3" stroke="#02eb6b" stroke-opacity=".797" stroke-width="1" d="M 636,230 C 692,415 359,266 686,485 C 657,456 284,106 190,453 C 641,164 388,431 661,122 C 462,226 419,236 330,436 C 627,247 385,392 581,339 C 482,357 235,283 499,376 C 209,397 269,459 576,117 C 304,467 131,285 542,342 C 260,344 406,475 191,450 C 325,441 478,390 347,274 Z" opacity=".98" transform="rotate(33.0 400 300)"/></g></svg>