<svg xmlns="http://www.w3.org/2000/svg" xmlns:xlink="http://www.w3.org/1999/xlink" width="800" height="600" version="1.1" viewBox="0 0 800 600"><g fill="none" fill-rule="evenodd" stroke="none" stroke-width="1"><path fill="#0fa6d8" stroke="#fe9225" stroke-opacity=".494" stroke-width="3" d="M 690,457 C 560,452 679,115 196,255 C 554,393 658,469 514,484 C 205,494 340,334 499,400 C 533,345 123,479 565,320 C 522,440 636,424 312,237 C 555,129 312,341 108,446 C 173,486 220,172 437,275 C 640,468 204,114 660,198 C 159,187 558,228 373,400 C 206,278 346,400 501,324 Z" opacity=".15" transform="rotate(-152.0 400 300)"/><path fill="#02eb6b" stroke="#fe9225" stroke-opacity=".098" stroke-width="6" d="M 392,300 C 343,352 135,167 643,352 C 587,425 513,213 631,492 C 226,257 138,143 646,197 C 186,441 177,110 690,206 C 326,351 146,476 637,198 C 492,423 460,312 409,213 C 585,155 660,284 158,220 C 360,279 634,106 682,451 C 157,357 466,339 544,399 Z" opacity=".639" transform="rotate(173.0 400 300)"/><path fill="#f559a0" stroke="#02eb6b" stroke-opacity=".432" stroke-width="5" d="M 350,481 C 318,412 439,210 275,290 C 540,408 187,315 491,315 C 671,158 108,294 448,208 C 482,435 508,127 195,142 C 321,166 109,416 509,217 C 510,185 455,479 238,334 C 568,425 601,416 601,333 C 614,343 377,201 106,393 C 475,330 121,379 595,136 Z" opacity=".396" transform="rotate(12.0 400 300)"/><path fill="#0fa6d8" stroke="#fe9225" stroke-opacity=".92" stroke-width="4" d="M 641,284 C 507,262 571,461 149,140 C 400,261 232,139 614,248 C 109,334 258,287 384,253 C 159,294 244,249 656,338 C 233,130 609,445 240,479 C 547,465 540,206 465,307 C 625,301 254,336 607,313 C 669,172 241,271 470,347 C 573,212 637,419 588,434 C 640,164 437,102 229,186 Z" opacity=".271" transform="rotate(30.0 400 300)"/><path fill="#02eb6b" stroke="#2cd3f3" stroke-opacity=".083" stroke-width="1" d="M 312,374 C 526,131 310,336 357,121 C 515,213 121,115 420,373 C 262,358 603,289 349,214 C 572,341 192,297 523,127 C 289,215 693,225 358,362 C 185,145 371,309 216,170 C 219,155 596,250 186,176 Z" opacity=".474" transform="rotate(-127.0 400 300)"/><path fill="#fe9225" stroke="#2cd3f3" stroke-opacity=".701" stroke-width="3" d="M 662,370 C 576,120 650,208 557,195 C 109,152 665,484 226,233 C 470,199 186,475 331,313 C 334,341 600,307 579,325 C 304,478 541,240 573,350 C 581,242 334,121 491,370 C 295,321 374,282 280,110 C 462,489 652,430 521,404 C 501,241 201,314 350,330 C 154,332 552,398 188,141 C 127,214 451,295 646,107 Z" opacity=".506" transform="rotate(149.0 400 300)"/><path fill="#02eb6b" stroke="#fe9225" stroke-opacity=".759" stroke-width="4" d="M 386,429 C 292,376 183,403 166,246 C 270,328 504,415 329,475 C 643,380 127,325 553,432 C 538,435 592,366 516,109 C 465,351 170,249 675,138 C 286,354 278,115 231,179 C 515,317 439,436 541,278 C 430,414 393,247 317,435 Z" opacity=".531" transform="rotate(106.0 400 300)"/><path fill="#02eb6b" stroke="#f559a0" stroke-opacity=".636" stroke-width="7" d="M 283,462 C 317,300 247,262 574,198 C 411,110 189,280 654,379 C 620,337 245,376 242,370 C 580,136 492,432 584,293 C 340,365 162,111 345,134 C 686,333 626,322 548,334 C 486,152 235,479 227,280 C 613,370 563,289 516,387 Z" opacity=".848" transform="rotate(-118.0 400 300)"/><path fill="#f559a0" stroke="#02eb6b" stroke-opacity=".822" stroke-width="7" d="M 576,175 C 523,213 228,491 182,196 C 587,346 551,332 235,490 C 605,407 315,413 258,445 C 468,299 476,212 146,196 C 567,386 583,394 521,490 C 147,152 326,265 618,235 C 250,365 422,401 182,266 C 602,448 502,188 404,137 Z" opacity=".284" transform="rotate(-162.0 400 300)"/><path fill="#f559a0" stroke="#0fa6d8" stroke-opacity=".824" stroke-width="1" d="M 561,408 C 654,229 211,291 186,288 C 286,191 289,425 325,257 C 305,261 161,440 185,129 C 507,436 650,191 322,399 C 425,498 460,463 343,129 C 612,284 247,140 480,424 C 671,455 555,383 412,172 C 517,490 476,440 273,417 Z" opacity=".823" transform="rotate(147.0 400 300)"/></g></svg>