<svg xmlns="http://www.w3.org/2000/svg" xmlns:xlink="http://www.w3.org/1999/xlink" width="800" height="600" version="1.1" viewBox="0 0 800 600"><g fill="none" fill-rule="evenodd" stroke="none" stroke-width="1"><ellipse cx="233" cy="102" fill="#6DA2DC" stroke="#608A0A" stroke-opacity=".875" stroke-width="7" opacity=".431" rx="103" ry="298" transform="rotate(-119.0 400 300)"/><polygon fill="#50B302" stroke="#1A2DAB" stroke-opacity=".151" stroke-width="3" points="235 152 758 412 445 524 259 332 790 300 96 64 608 97 717 174" opacity=".822" transform="rotate(-146.0 400 300)"/><rect width="132" height="105" x="522" y="380" fill="#333603" stroke="#6D0886" stroke-opacity=".024" stroke-width="1" opacity=".702" transform="rotate(-9.0 400 300)"/><polygon fill="#3C36A6" stroke="#95A722" stroke-opacity=".811" stroke-width="4" points="270 331 237 289 87 179 232 551 617 541" opacity=".54" transform="rotate(30.0 400 300)"/><rect width="395" height="128" x="306" y="3" fill="#BA6703" stroke="#7D62A2" stroke-opacity=".013" stroke-width="6" opacity=".6" transform="rotate(153.0 400 300)"/><rect width="104" height="24" x="786" y="260" fill="#376765" stroke="#6D27BD" stroke-opacity=".211" stroke-width="3" opacity=".217" transform="rotate(113.0 400 300)"/></g></svg>