<?xml version="1.0" encoding="UTF-8"?>
<svg width="800px" height="600px" viewBox="0 0 800 600" version="1.1" xmlns="http://www.w3.org/2000/svg" xmlns:xlink="http://www.w3.org/1999/xlink">
  <defs></defs>
  <g stroke="none" stroke-width="1" fill="none" fill-rule="evenodd">
    
    <path stroke="#914A83" stroke-width="5" fill="#B7C586" opacity="0.2041348705269032" stroke-opacity="0.3011125839886869" transform="rotate(94.0 400 300)" d="M 290,336  C 308,222 680,278 616,456 C 328,406 270,121 328,161 C 561,258 181,353 430,395 C 302,327 132,453 453,290 C 378,453 490,370 218,187 C 175,249 162,407 195,336 C 554,214 464,353 417,178 C 144,202 559,184 689,290 C 501,360 619,104 653,268 Z"></path>
<path stroke="#B89332" stroke-width="5" fill="#5DDA06" opacity="0.4708573988191475" stroke-opacity="0.7031653622015188" transform="rotate(-84.0 400 300)" d="M 431,335  C 341,295 649,253 110,320 C 571,112 572,360 386,178 C 460,446 319,112 508,335 C 693,293 195,135 297,268 C 499,303 398,111 632,347 C 470,198 266,500 467,226 C 686,118 362,213 459,500 C 327,250 172,201 161,146 C 106,126 369,184 536,393 C 466,326 316,340 177,483 Z"></path>
<path stroke="#057A65" stroke-width="5" fill="#024605" opacity="0.30728921780475266" stroke-opacity="0.3519020067300101" transform="rotate(6.0 400 300)" d="M 687,179  C 381,498 583,298 205,225 C 486,172 436,130 584,124 C 235,384 291,171 537,295 C 104,480 331,308 534,367 C 437,344 215,490 693,394 C 476,271 184,286 331,204 C 622,358 596,206 233,101 C 686,292 406,419 535,284 C 351,230 463,194 176,105 Z"></path>
<path stroke="#6B3661" stroke-width="3" fill="#8C1626" opacity="0.03359970947313924" stroke-opacity="0.686423921440311" transform="rotate(-83.0 400 300)" d="M 683,338  C 553,472 298,121 465,420 C 617,186 272,243 618,312 C 615,310 108,387 648,206 C 388,319 222,354 398,375 C 590,252 435,199 282,202 C 144,358 182,233 513,307 C 199,289 690,491 196,316 C 641,195 345,176 532,126 C 488,136 617,366 158,463 C 597,128 393,413 604,301 Z"></path>
<path stroke="#349725" stroke-width="7" fill="#A0D826" opacity="0.2027251671135915" stroke-opacity="0.8686400442895132" transform="rotate(-96.0 400 300)" d="M 126,298  C 385,310 306,131 645,261 C 575,458 211,289 151,124 C 355,190 216,305 497,140 C 402,325 691,380 376,282 C 124,189 259,355 506,302 Z"></path>
<path stroke="#5D2325" stroke-width="3" fill="#231445" opacity="0.5755491212350617" stroke-opacity="0.1893795543653139" transform="rotate(-65.0 400 300)" d="M 603,308  C 481,261 457,234 518,283 C 584,157 604,443 214,178 C 346,303 392,373 461,166 C 397,142 577,424 291,159 Z"></path>
<path stroke="#472B3B" stroke-width="2" fill="#2DA693" opacity="0.785463164863446" stroke-opacity="0.5157735809904276" transform="rotate(14.0 400 300)" d="M 596,156  C 568,101 282,377 684,231 C 492,264 692,377 407,395 C 671,389 450,173 416,161 C 131,210 310,474 666,389 C 342,255 411,376 177,371 C 225,216 497,341 488,297 C 615,276 136,243 530,339 C 641,189 132,350 554,446 Z"></path>

  </g>
</svg>
