<svg xmlns="http://www.w3.org/2000/svg" xmlns:xlink="http://www.w3.org/1999/xlink" width="800" height="600" version="1.1" viewBox="0 0 800 600"><g fill="none" fill-rule="evenodd" stroke="none" stroke-width="1"><path fill="#0fa6d8" stroke="#f559a0" stroke-opacity=".852" stroke-width="2" d="M 472,399 C 199,150 377,337 530,322 C 623,145 619,291 561,137 C 152,101 318,297 559,158 C 512,249 473,307 654,453 C 451,421 399,109 528,216 C 268,426 240,217 110,449 C 223,448 555,109 461,268 C 117,267 214,256 205,294 C 522,119 606,423 463,373 C 174,328 353,320 611,411 C 515,494 411,432 520,220 Z" opacity=".043" transform="rotate(-28.0 400 300)"/><path fill="#f559a0" stroke="#02eb6b" stroke-opacity=".937" stroke-width="3" d="M 199,143 C 296,332 505,131 662,425 C 164,419 561,432 188,184 C 433,343 646,156 453,112 C 340,269 533,381 458,336 C 297,242 325,275 270,362 C 230,375 194,353 234,141 C 480,283 657,250 578,334 C 437,311 370,479 141,346 C 471,437 609,239 611,294 C 590,355 609,195 433,287 C 602,149 680,452 622,112 Z" opacity=".681" transform="rotate(149.0 400 300)"/><path fill="#2cd3f3" stroke="#02eb6b" stroke-opacity=".771" stroke-width="7" d="M 151,486 C 543,227 437,258 654,440 C 119,390 278,364 275,425 C 624,270 428,340 216,221 C 206,355 254,383 573,116 C 396,367 627,381 119,310 Z" opacity=".843" transform="rotate(-4.0 400 300)"/><path fill="#02eb6b" stroke="#2cd3f3" stroke-opacity=".547" stroke-width="3" d="M 367,132 C 229,297 201,164 361,486 C 250,435 345,220 115,144 C 377,244 649,137 438,354 C 143,319 582,383 480,125 C 202,361 660,179 619,352 C 198,181 409,392 476,174 Z" opacity=".392" transform="rotate(49.0 400 300)"/><path fill="#02eb6b" stroke="#f559a0" stroke-opacity=".94" stroke-width="5" d="M 150,321 C 548,194 439,390 297,402 C 387,339 542,336 146,396 C 279,359 235,157 599,106 C 515,407 466,152 215,150 C 531,186 460,201 288,439 Z" opacity=".439" transform="rotate(26.0 400 300)"/><path fill="#0fa6d8" stroke="#02eb6b" stroke-opacity=".516" stroke-width="4" d="M 120,106 C 113,247 527,476 298,416 C 373,321 458,262 457,448 C 426,371 207,463 496,339 C 254,297 385,314 117,436 Z" opacity=".665" transform="rotate(-125.0 400 300)"/><path fill="#0fa6d8" stroke="#0fa6d8" stroke-opacity=".903" stroke-width="1" d="M 276,218 C 642,316 186,497 460,266 C 167,306 344,251 443,276 C 312,120 436,280 175,349 C 397,446 149,447 245,349 C 570,375 581,480 145,246 C 591,319 632,235 262,250 C 578,402 537,111 321,384 C 328,164 450,193 416,396 C 336,445 498,360 298,186 C 391,233 225,234 458,190 Z" opacity=".534" transform="rotate(-37.0 400 300)"/><path fill="#02eb6b" stroke="#fe9225" stroke-opacity=".58" stroke-width="5" d="M 592,182 C 340,482 345,405 695,195 C 257,421 182,117 569,347 C 352,388 647,318 250,119 C 293,363 433,286 358,481 C 319,112 144,198 616,463 C 386,124 531,357 685,137 C 345,442 183,389 196,354 C 383,451 114,197 618,460 C 302,443 129,218 231,127 Z" opacity=".635" transform="rotate(-21.0 400 300)"/><path fill="#f559a0" stroke="#2cd3f3" stroke-opacity=".978" stroke-width="1" d="M 673,170 C 126,261 449,415 106,480 C 334,157 596,456 217,403 C 370,436 136,344 205,477 C 625,210 454,293 309,472 C 391,313 637,330 302,432 C 564,390 212,436 632,415 C 620,210 131,280 362,465 C 595,143 236,469 373,294 C 232,454 367,169 452,191 C 110,324 209,374 364,183 C 210,440 477,479 481,397 Z" opacity=".906" transform="rotate(-97.0 400 300)"/><path fill="#0fa6d8" stroke="#f559a0" stroke-opacity=".433" stroke-width="6" d="M 190,405 C 640,201 231,425 257,329 C 444,413 262,278 469,424 C 652,121 285,430 446,427 C 527,163 660,169 558,114 C 480,271 532,218 166,458 C 484,399 210,209 422,275 C 162,190 379,192 468,166 Z" opacity=".395" transform="rotate(-7.0 400 300)"/><path fill="#02eb6b" stroke="#fe9225" stroke-opacity=".28" stroke-width="5" d="M 105,457 C 495,378 518,214 672,400 C 556,197 452,279 349,261 C 619,461 147,391 650,213 C 678,431 553,309 553,478 C 584,459 250,183 151,427 C 460,152 484,257 245,415 C 507,413 105,167 489,353 C 110,140 193,449 681,335 C 216,244 509,458 219,291 C 496,306 531,310 308,228 Z" opacity=".276" transform="rotate(54.0 400 300)"/></g></svg>