<svg xmlns="http://www.w3.org/2000/svg" xmlns:xlink="http://www.w3.org/1999/xlink" width="800" height="600" version="1.1" viewBox="0 0 800 600"><g fill="none" fill-rule="evenodd" stroke="none" stroke-width="1"><rect width="297" height="160" x="92" y="176" fill="#0fa6d8" stroke="#f559a0" stroke-opacity=".817" stroke-width="7" opacity=".887" transform="rotate(146.0 400 300)"/><path fill="#fe9225" stroke="#f559a0" stroke-opacity=".758" stroke-width="7" d="M 477,204 C 200,315 428,133 677,237 C 283,249 459,372 211,234 C 527,250 481,249 225,381 C 381,378 637,488 488,240 C 421,333 514,330 295,433 C 463,385 468,221 670,159 C 558,344 209,375 572,284 C 468,382 692,437 327,269 C 344,310 270,290 211,448 C 661,294 633,402 674,389 C 480,222 503,203 342,240 Z" opacity=".692" transform="rotate(116.0 400 300)"/><path fill="#fe9225" stroke="#2cd3f3" stroke-opacity=".281" stroke-width="7" d="M 490,272 C 618,425 542,491 563,344 C 271,329 543,416 318,173 C 387,198 659,458 373,493 C 502,389 162,404 180,160 C 402,176 287,319 264,201 C 662,372 574,322 507,282 Z" opacity=".088" transform="rotate(-9.0 400 300)"/><path fill="#0fa6d8" stroke="#2cd3f3" stroke-opacity=".219" stroke-width="5" d="M 428,199 C 198,225 172,472 686,102 C 349,430 323,448 134,319 C 296,155 473,160 439,211 C 474,274 538,445 632,154 C 349,335 465,345 421,188 Z" opacity=".346" transform="rotate(65.0 400 300)"/><path fill="#0fa6d8" stroke="#fe9225" stroke-opacity=".842" stroke-width="2" d="M 691,157 C 457,458 393,333 403,427 C 498,116 465,451 391,190 C 107,198 683,237 585,435 C 318,360 179,210 298,471 C 232,242 517,218 165,443 C 361,395 458,181 417,492 C 582,205 387,267 338,201 C 323,173 356,208 279,450 C 373,386 143,438 545,206 C 303,196 355,303 553,400 C 636,124 696,111 588,420 Z" opacity=".196" transform="rotate(127.0 400 300)"/><ellipse cx="732" cy="7" fill="#fe9225" stroke="#2cd3f3" stroke-opacity=".041" stroke-width="4" opacity=".202" rx="292" ry="336" transform="rotate(-175.0 400 300)"/><ellipse cx="386" cy="7" fill="#02eb6b" stroke="#0fa6d8" stroke-opacity=".94" stroke-width="5" opacity=".41" rx="116" ry="227" transform="rotate(147.0 400 300)"/><ellipse cx="501" cy="270" fill="#f559a0" stroke="#2cd3f3" stroke-opacity=".531" stroke-width="2" opacity=".248" rx="156" ry="202" transform="rotate(-53.0 400 300)"/><ellipse cx="15" cy="504" fill="#fe9225" stroke="#fe9225" stroke-opacity=".544" stroke-width="1" opacity=".4" rx="85" ry="61" transform="rotate(-17.0 400 300)"/></g></svg>