<?xml version="1.0" encoding="UTF-8"?>
<svg width="800px" height="600px" viewBox="0 0 800 600" version="1.1" xmlns="http://www.w3.org/2000/svg" xmlns:xlink="http://www.w3.org/1999/xlink">
  <defs></defs>
  <g stroke="none" stroke-width="1" fill="none" fill-rule="evenodd">
    
    <polygon stroke="#f9d84b" stroke-width="2" fill="#31a06b" opacity="0.8905780318728757" stroke-opacity="0.7267434227543053" transform="rotate(-127.0 400 300)" points="380 404 585 385 735 258 418 588 490 273 800 190 247 205 27 352 "></polygon>
<polygon stroke="#2b55f7" stroke-width="5" fill="#2b55f7" opacity="0.24291952092861754" stroke-opacity="0.20337279586776802" transform="rotate(-159.0 400 300)" points="530 595 251 4 666 168 253 306 301 413 "></polygon>
<polygon stroke="#f9d84b" stroke-width="5" fill="#ed2b2c" opacity="0.7158242280991569" stroke-opacity="0.6547157253454382" transform="rotate(41.0 400 300)" points="740 7 455 139 711 489 683 555 65 306 "></polygon>
<rect stroke="#f27630" stroke-width="3" fill="#f9d84b" opacity="0.05051814570265355" stroke-opacity="0.6281316016518259" transform="rotate(-118.0 400 300)" x="723" y="185" width="123" height="209"></rect>
<ellipse stroke="#f27630" stroke-width="1" fill="#31a06b" opacity="0.397014478476658" stroke-opacity="0.19331808438817366" transform="rotate(133.0 400 300)" cx="327" rx="86" cy="352" ry="256"></ellipse>
<path stroke="#f27630" stroke-width="3" fill="#f27630" opacity="0.8473878478622795" stroke-opacity="0.30559340564392073" transform="rotate(65.0 400 300)" d="M 431,393  C 557,201 680,347 159,348 C 313,382 438,200 181,431 C 682,130 480,282 595,189 C 376,238 437,496 161,465 Z"></path>
<polygon stroke="#f9d84b" stroke-width="6" fill="#f27630" opacity="0.6422228691488103" stroke-opacity="0.006384879538895173" transform="rotate(-55.0 400 300)" points="312 278 485 209 148 187 483 68 568 185 5 429 "></polygon>
<path stroke="#2b55f7" stroke-width="2" fill="#f9d84b" opacity="0.7279087428177703" stroke-opacity="0.1973938117141" transform="rotate(-35.0 400 300)" d="M 465,246  C 197,175 313,449 638,155 C 142,126 527,410 581,150 C 608,284 257,163 389,128 C 407,380 271,349 106,481 C 567,297 282,196 411,154 C 393,267 265,228 472,324 C 383,368 255,494 158,340 C 253,167 129,194 274,292 C 311,234 235,260 551,336 C 412,476 364,317 668,409 Z"></path>
<path stroke="#f27630" stroke-width="2" fill="#2b55f7" opacity="0.2394337795306636" stroke-opacity="0.04423147982687157" transform="rotate(101.0 400 300)" d="M 471,236  C 426,206 105,370 306,194 C 320,412 549,357 380,231 C 158,396 239,435 161,183 C 629,308 189,122 375,230 Z"></path>

  </g>
</svg>
