<svg xmlns="http://www.w3.org/2000/svg" xmlns:xlink="http://www.w3.org/1999/xlink" width="800" height="600" version="1.1" viewBox="0 0 800 600"><g fill="none" fill-rule="evenodd" stroke="none" stroke-width="1"><path fill="#2cd3f3" stroke="#02eb6b" stroke-opacity=".35" stroke-width="5" d="M 668,500 C 516,489 619,243 203,372 C 331,195 522,492 600,457 C 366,263 474,471 335,458 C 149,187 202,308 440,449 C 264,210 309,250 265,374 C 423,436 555,434 249,319 C 283,106 346,171 546,221 C 195,275 656,404 531,116 C 515,328 370,279 480,117 C 116,129 529,281 264,140 Z" opacity=".094" transform="rotate(53.0 400 300)"/><path fill="#fe9225" stroke="#0fa6d8" stroke-opacity=".085" stroke-width="5" d="M 111,339 C 581,345 215,424 557,108 C 150,183 380,487 277,472 C 618,182 657,365 347,336 C 555,142 266,160 415,121 C 644,256 263,291 141,427 Z" opacity=".815" transform="rotate(-65.0 400 300)"/><path fill="#f559a0" stroke="#02eb6b" stroke-opacity=".8" stroke-width="1" d="M 282,314 C 520,127 555,500 438,435 C 264,130 605,483 679,484 C 394,264 146,161 146,367 C 277,427 655,275 335,312 C 665,198 513,165 539,480 C 104,230 278,148 599,348 C 241,113 215,186 150,243 C 642,328 542,370 695,289 C 543,311 207,198 532,167 C 538,107 168,304 160,369 Z" opacity=".368" transform="rotate(169.0 400 300)"/><path fill="#0fa6d8" stroke="#0fa6d8" stroke-opacity=".043" stroke-width="2" d="M 116,324 C 644,111 557,420 617,343 C 496,198 284,495 525,477 C 578,186 666,443 512,485 C 486,417 575,443 143,333 C 387,258 391,315 419,269 C 273,399 665,298 352,427 C 548,492 589,379 185,446 Z" opacity=".068" transform="rotate(-77.0 400 300)"/><path fill="#0fa6d8" stroke="#f559a0" stroke-opacity=".221" stroke-width="6" d="M 362,294 C 259,182 525,471 637,311 C 649,311 480,348 543,179 C 682,319 456,417 418,367 C 408,471 607,130 536,364 C 355,105 674,280 174,472 C 178,123 541,172 296,386 C 475,460 168,467 390,397 C 372,446 342,143 617,488 C 169,451 519,470 408,160 Z" opacity=".432" transform="rotate(-110.0 400 300)"/><path fill="#f559a0" stroke="#f559a0" stroke-opacity=".847" stroke-width="7" d="M 625,297 C 648,476 551,206 270,301 C 135,430 603,353 297,340 C 104,259 670,242 278,499 C 570,140 466,197 335,225 C 275,310 546,328 369,353 C 357,299 561,454 637,189 C 647,405 231,323 410,271 C 104,476 396,302 403,373 Z" opacity=".067" transform="rotate(-80.0 400 300)"/></g></svg>