<?xml version="1.0" encoding="UTF-8"?>
<svg width="800px" height="600px" viewBox="0 0 800 600" version="1.1" xmlns="http://www.w3.org/2000/svg" xmlns:xlink="http://www.w3.org/1999/xlink">
  <defs></defs>
  <g stroke="none" stroke-width="1" fill="none" fill-rule="evenodd">
    
    <path stroke="#31a06b" stroke-width="2" fill="#2b55f7" opacity="0.8341375959382812" stroke-opacity="0.7589478240518701" transform="rotate(122.0 400 300)" d="M 389,455  C 122,330 527,463 678,351 C 678,265 107,470 332,469 C 430,458 307,206 693,362 C 619,312 513,130 318,402 C 145,203 108,469 469,132 C 619,115 425,455 563,150 Z"></path>
<path stroke="#f27630" stroke-width="1" fill="#2b55f7" opacity="0.8589769181857054" stroke-opacity="0.25813309816644087" transform="rotate(124.0 400 300)" d="M 319,418  C 322,346 249,271 669,383 C 140,157 649,435 228,301 C 354,352 640,280 279,371 C 420,462 197,132 430,167 C 195,163 309,457 379,493 C 448,284 384,292 196,337 C 524,207 597,229 230,378 C 673,152 227,232 322,348 C 298,154 644,398 143,218 Z"></path>
<path stroke="#2b55f7" stroke-width="5" fill="#2b55f7" opacity="0.46963814743623106" stroke-opacity="0.04236730927069665" transform="rotate(-167.0 400 300)" d="M 599,335  C 593,387 359,161 131,220 C 197,409 616,290 660,376 C 632,482 397,267 411,110 C 219,464 671,347 525,477 C 508,349 391,441 168,175 C 680,174 232,378 160,336 Z"></path>
<path stroke="#ed2b2c" stroke-width="5" fill="#ed2b2c" opacity="0.642231313616561" stroke-opacity="0.4213767356650088" transform="rotate(27.0 400 300)" d="M 400,269  C 476,477 405,228 412,172 C 395,200 438,186 332,452 C 657,349 381,196 536,434 C 276,360 346,123 491,158 C 478,113 498,466 105,438 C 411,251 692,276 522,381 C 695,248 624,284 432,367 Z"></path>
<path stroke="#f9d84b" stroke-width="5" fill="#31a06b" opacity="0.2884063482894927" stroke-opacity="0.2163117171619343" transform="rotate(174.0 400 300)" d="M 311,260  C 503,330 449,274 250,203 C 624,332 263,316 446,104 C 290,375 415,374 609,348 C 234,436 289,493 233,322 C 430,300 354,117 180,320 C 328,263 217,402 446,323 C 555,500 312,229 451,142 C 288,274 300,149 672,121 Z"></path>
<path stroke="#ed2b2c" stroke-width="4" fill="#ed2b2c" opacity="0.8082106492555544" stroke-opacity="0.5599224547302386" transform="rotate(123.0 400 300)" d="M 468,310  C 686,211 602,126 444,137 C 696,251 303,213 645,180 C 624,274 181,111 500,122 C 540,266 692,138 481,146 C 281,102 413,425 544,451 C 106,147 301,104 266,453 C 646,428 354,449 434,302 Z"></path>
<path stroke="#ed2b2c" stroke-width="5" fill="#f27630" opacity="0.6427125496338986" stroke-opacity="0.7556999060125881" transform="rotate(14.0 400 300)" d="M 322,220  C 334,416 645,355 636,228 C 314,319 196,347 290,343 C 694,349 626,439 690,171 C 665,416 358,145 179,241 C 154,438 342,297 626,472 C 294,482 297,449 244,300 C 534,473 692,428 475,410 Z"></path>
<path stroke="#f27630" stroke-width="1" fill="#31a06b" opacity="0.7713337435590647" stroke-opacity="0.5709380873944772" transform="rotate(86.0 400 300)" d="M 357,424  C 329,431 231,264 682,403 C 209,188 207,104 543,332 C 550,157 573,343 316,182 C 308,397 587,232 454,308 C 414,367 639,470 427,477 C 153,158 320,173 209,322 C 265,226 487,300 609,366 Z"></path>
<path stroke="#2b55f7" stroke-width="6" fill="#ed2b2c" opacity="0.3431647495226461" stroke-opacity="0.2232706772338947" transform="rotate(167.0 400 300)" d="M 268,261  C 506,249 420,204 673,118 C 327,319 642,131 163,419 C 693,376 400,220 376,384 C 464,435 372,232 245,180 C 364,481 570,169 260,233 C 121,474 108,268 313,143 C 164,296 669,163 128,358 C 361,116 299,456 488,108 C 308,308 302,303 188,238 Z"></path>
<path stroke="#f27630" stroke-width="5" fill="#31a06b" opacity="0.7987985975232575" stroke-opacity="0.8811752939538684" transform="rotate(-113.0 400 300)" d="M 337,296  C 232,163 337,187 613,306 C 303,356 158,399 510,406 C 176,498 371,202 678,389 C 582,498 309,122 643,366 C 131,299 103,352 479,213 C 507,473 432,119 571,158 C 254,180 261,477 483,273 Z"></path>

  </g>
</svg>
