<svg xmlns="http://www.w3.org/2000/svg" xmlns:xlink="http://www.w3.org/1999/xlink" width="800" height="600" version="1.1" viewBox="0 0 800 600"><g fill="none" fill-rule="evenodd" stroke="none" stroke-width="1"><rect width="219" height="328" x="92" y="116" fill="#B7C160" stroke="#BA78A1" stroke-opacity=".949" stroke-width="2" opacity=".214" transform="rotate(-10.0 400 300)"/><path fill="#B6D4A7" stroke="#33D105" stroke-opacity=".137" stroke-width="5" d="M 498,205 C 473,451 390,110 542,206 C 219,187 396,404 440,431 C 393,135 109,132 275,454 C 278,328 111,115 417,446 C 640,177 402,363 237,111 C 586,196 564,347 133,342 C 653,205 428,350 683,426 C 519,177 518,473 377,314 C 474,283 499,160 540,406 C 240,420 440,250 602,292 C 261,349 323,347 628,312 Z" opacity=".841" transform="rotate(14.0 400 300)"/><ellipse cx="345" cy="19" fill="#D78D4C" stroke="#5B760D" stroke-opacity=".465" stroke-width="1" opacity=".125" rx="43" ry="185" transform="rotate(-165.0 400 300)"/><rect width="71" height="219" x="579" y="165" fill="#537AC3" stroke="#060566" stroke-opacity=".297" stroke-width="7" opacity=".122" transform="rotate(-170.0 400 300)"/><polygon fill="#D83270" stroke="#6305C5" stroke-opacity=".191" stroke-width="3" points="289 547 642 25 120 51 265 218 168 73 68 565" opacity=".173" transform="rotate(-62.0 400 300)"/><ellipse cx="571" cy="472" fill="#88C466" stroke="#782D62" stroke-opacity=".055" stroke-width="5" opacity=".268" rx="365" ry="103" transform="rotate(176.0 400 300)"/><ellipse cx="629" cy="329" fill="#369727" stroke="#B84464" stroke-opacity=".797" stroke-width="7" opacity=".043" rx="315" ry="66" transform="rotate(7.0 400 300)"/></g></svg>