<?xml version="1.0" encoding="UTF-8"?>
<svg width="800px" height="600px" viewBox="0 0 800 600" version="1.1" xmlns="http://www.w3.org/2000/svg" xmlns:xlink="http://www.w3.org/1999/xlink">
  <defs></defs>
  <g stroke="none" stroke-width="1" fill="none" fill-rule="evenodd">
    
    <rect stroke="#BA78A1" stroke-width="2" fill="#B7C160" opacity="0.2140074311159293" stroke-opacity="0.948806496431492" transform="rotate(-10.0 400 300)" x="92" y="116" width="219" height="328"></rect>
<path stroke="#33D105" stroke-width="5" fill="#B6D4A7" opacity="0.8411777153265146" stroke-opacity="0.13712220750504334" transform="rotate(14.0 400 300)" d="M 498,205  C 473,451 390,110 542,206 C 219,187 396,404 440,431 C 393,135 109,132 275,454 C 278,328 111,115 417,446 C 640,177 402,363 237,111 C 586,196 564,347 133,342 C 653,205 428,350 683,426 C 519,177 518,473 377,314 C 474,283 499,160 540,406 C 240,420 440,250 602,292 C 261,349 323,347 628,312 Z"></path>
<ellipse stroke="#5B760D" stroke-width="1" fill="#D78D4C" opacity="0.12520536530666543" stroke-opacity="0.46475128060088167" transform="rotate(-165.0 400 300)" cx="345" rx="43" cy="19" ry="185"></ellipse>
<rect stroke="#060566" stroke-width="7" fill="#537AC3" opacity="0.12182432950016234" stroke-opacity="0.29672326652607517" transform="rotate(-170.0 400 300)" x="579" y="165" width="71" height="219"></rect>
<polygon stroke="#6305C5" stroke-width="3" fill="#D83270" opacity="0.1726511630326179" stroke-opacity="0.19081351107090383" transform="rotate(-62.0 400 300)" points="289 547 642 25 120 51 265 218 168 73 68 565 "></polygon>
<ellipse stroke="#782D62" stroke-width="5" fill="#88C466" opacity="0.26824578353412304" stroke-opacity="0.05539237364432345" transform="rotate(176.0 400 300)" cx="571" rx="365" cy="472" ry="103"></ellipse>
<ellipse stroke="#B84464" stroke-width="7" fill="#369727" opacity="0.04278024167774173" stroke-opacity="0.7966478259718034" transform="rotate(7.0 400 300)" cx="629" rx="315" cy="329" ry="66"></ellipse>

  </g>
</svg>
