<svg xmlns="http://www.w3.org/2000/svg" xmlns:xlink="http://www.w3.org/1999/xlink" width="800" height="600" version="1.1" viewBox="0 0 800 600"><g fill="none" fill-rule="evenodd" stroke="none" stroke-width="1"><path fill="#64C119" stroke="#4AD341" stroke-opacity=".523" stroke-width="1" d="M 630,448 C 633,255 376,427 219,131 C 628,395 408,109 233,494 C 445,382 662,364 222,410 C 261,439 387,244 159,408 C 653,270 334,233 138,479 C 346,233 504,451 591,405 C 297,405 504,132 500,225 C 551,445 182,212 511,265 Z" opacity=".607" transform="rotate(-46.0 400 300)"/><path fill="#C43B4A" stroke="#4C6698" stroke-opacity=".893" stroke-width="6" d="M 696,194 C 259,225 112,131 360,110 C 628,346 597,436 203,401 C 442,305 158,259 254,491 C 455,498 687,474 117,112 C 109,101 635,157 536,339 C 262,330 603,296 456,180 C 151,108 186,180 420,182 Z" opacity=".068" transform="rotate(82.0 400 300)"/><path fill="#68A419" stroke="#D3A681" stroke-opacity=".542" stroke-width="1" d="M 358,102 C 476,298 205,248 323,422 C 322,319 682,122 187,121 C 566,203 284,462 418,447 C 364,176 457,358 649,196 C 569,388 696,136 492,205 C 632,173 670,139 605,482 C 152,153 233,244 146,165 C 406,354 600,427 232,432 Z" opacity=".363" transform="rotate(23.0 400 300)"/><path fill="#020801" stroke="#2035B9" stroke-opacity=".718" stroke-width="2" d="M 634,267 C 258,174 295,140 404,481 C 171,327 608,112 279,344 C 559,329 238,307 653,105 C 596,359 682,378 131,226 C 317,344 311,419 339,130 C 587,457 514,441 669,424 C 192,136 648,116 691,497 C 326,121 680,347 355,479 C 236,148 302,111 445,266 Z" opacity=".33" transform="rotate(168.0 400 300)"/><path fill="#1845B3" stroke="#9593D2" stroke-opacity=".34" stroke-width="3" d="M 511,363 C 408,193 512,117 558,368 C 397,439 401,232 198,209 C 370,381 612,157 645,445 C 340,233 625,126 482,410 C 687,181 248,162 380,309 C 418,331 558,468 135,492 C 267,336 488,114 325,183 C 694,145 310,132 301,202 Z" opacity=".948" transform="rotate(155.0 400 300)"/><path fill="#B8504D" stroke="#73A273" stroke-opacity=".428" stroke-width="7" d="M 229,440 C 652,119 352,117 269,280 C 197,426 616,171 563,478 C 116,171 664,114 647,121 C 357,327 196,206 234,362 C 264,490 632,320 698,232 C 515,187 469,399 316,255 C 324,424 132,256 613,150 C 407,321 234,238 524,297 C 643,373 130,281 417,457 C 204,126 580,226 241,419 C 388,249 505,243 341,361 Z" opacity=".375" transform="rotate(-128.0 400 300)"/><path fill="#17AB9B" stroke="#5251BC" stroke-opacity=".704" stroke-width="6" d="M 313,117 C 408,440 581,397 539,162 C 396,205 606,276 368,114 C 244,398 113,470 306,321 C 558,315 399,278 678,420 C 201,201 232,435 147,477 C 199,289 118,438 456,139 C 555,484 540,338 166,225 C 582,160 625,245 315,110 C 167,378 499,227 597,153 Z" opacity=".17" transform="rotate(-2.0 400 300)"/><path fill="#C7C5A8" stroke="#BB0155" stroke-opacity=".682" stroke-width="7" d="M 562,415 C 123,145 189,295 539,255 C 631,216 269,309 172,375 C 689,494 403,449 565,205 C 491,135 284,208 328,294 Z" opacity=".005" transform="rotate(105.0 400 300)"/></g></svg>