<svg xmlns="http://www.w3.org/2000/svg" xmlns:xlink="http://www.w3.org/1999/xlink" width="800" height="600" version="1.1" viewBox="0 0 800 600"><g fill="none" fill-rule="evenodd" stroke="none" stroke-width="1"><path fill="#A6C390" stroke="#3307C2" stroke-opacity=".691" stroke-width="7" d="M 254,104 C 512,269 531,374 519,282 C 641,185 163,184 143,479 C 509,311 501,131 209,346 C 332,163 410,166 534,179 C 585,137 213,247 206,417 C 466,222 426,183 606,475 C 269,259 397,121 340,320 Z" opacity=".992" transform="rotate(-80.0 400 300)"/><path fill="#8A757C" stroke="#1563CD" stroke-opacity=".051" stroke-width="2" d="M 386,177 C 681,187 247,398 141,230 C 143,177 337,448 650,224 C 512,155 574,465 325,411 C 514,101 543,184 194,416 C 540,151 264,133 541,290 Z" opacity=".793" transform="rotate(65.0 400 300)"/><path fill="#57903A" stroke="#55A2BA" stroke-opacity=".374" stroke-width="5" d="M 398,283 C 311,111 144,458 414,411 C 624,383 663,127 354,462 C 243,155 350,339 602,487 C 435,289 553,390 290,269 C 673,162 351,103 442,457 Z" opacity=".735" transform="rotate(147.0 400 300)"/><path fill="#032352" stroke="#C636D4" stroke-opacity=".065" stroke-width="1" d="M 546,442 C 399,122 546,191 255,190 C 563,245 391,384 534,109 C 438,490 352,258 475,456 C 528,242 337,101 461,399 C 491,176 505,315 315,412 C 366,135 168,154 164,358 C 544,366 674,102 507,499 C 383,343 370,163 324,360 C 278,135 629,466 167,452 C 441,316 680,157 213,400 Z" opacity=".551" transform="rotate(-64.0 400 300)"/><path fill="#446DC2" stroke="#7D7276" stroke-opacity=".958" stroke-width="7" d="M 228,476 C 130,316 591,223 388,142 C 257,234 561,369 376,321 C 196,121 486,338 260,206 C 549,209 559,224 582,350 Z" opacity=".902" transform="rotate(-128.0 400 300)"/><path fill="#C02CB1" stroke="#538D2C" stroke-opacity=".556" stroke-width="1" d="M 256,295 C 647,131 327,433 690,281 C 537,358 663,428 651,112 C 639,191 487,433 248,312 C 466,249 282,252 246,383 Z" opacity=".756" transform="rotate(131.0 400 300)"/></g></svg>