<?xml version="1.0" encoding="UTF-8"?>
<svg width="800px" height="600px" viewBox="0 0 800 600" version="1.1" xmlns="http://www.w3.org/2000/svg" xmlns:xlink="http://www.w3.org/1999/xlink">
  <defs></defs>
  <g stroke="none" stroke-width="1" fill="none" fill-rule="evenodd">
    
    <path stroke="#3307C2" stroke-width="7" fill="#A6C390" opacity="0.9917607992042906" stroke-opacity="0.6907331968730468" transform="rotate(-80.0 400 300)" d="M 254,104  C 512,269 531,374 519,282 C 641,185 163,184 143,479 C 509,311 501,131 209,346 C 332,163 410,166 534,179 C 585,137 213,247 206,417 C 466,222 426,183 606,475 C 269,259 397,121 340,320 Z"></path>
<path stroke="#1563CD" stroke-width="2" fill="#8A757C" opacity="0.7930987216789838" stroke-opacity="0.0513497532572654" transform="rotate(65.0 400 300)" d="M 386,177  C 681,187 247,398 141,230 C 143,177 337,448 650,224 C 512,155 574,465 325,411 C 514,101 543,184 194,416 C 540,151 264,133 541,290 Z"></path>
<path stroke="#55A2BA" stroke-width="5" fill="#57903A" opacity="0.73499427469827" stroke-opacity="0.3743141213817497" transform="rotate(147.0 400 300)" d="M 398,283  C 311,111 144,458 414,411 C 624,383 663,127 354,462 C 243,155 350,339 602,487 C 435,289 553,390 290,269 C 673,162 351,103 442,457 Z"></path>
<path stroke="#C636D4" stroke-width="1" fill="#032352" opacity="0.5507058493713549" stroke-opacity="0.06548333830227389" transform="rotate(-64.0 400 300)" d="M 546,442  C 399,122 546,191 255,190 C 563,245 391,384 534,109 C 438,490 352,258 475,456 C 528,242 337,101 461,399 C 491,176 505,315 315,412 C 366,135 168,154 164,358 C 544,366 674,102 507,499 C 383,343 370,163 324,360 C 278,135 629,466 167,452 C 441,316 680,157 213,400 Z"></path>
<path stroke="#7D7276" stroke-width="7" fill="#446DC2" opacity="0.9021060895493503" stroke-opacity="0.9576629656276249" transform="rotate(-128.0 400 300)" d="M 228,476  C 130,316 591,223 388,142 C 257,234 561,369 376,321 C 196,121 486,338 260,206 C 549,209 559,224 582,350 Z"></path>
<path stroke="#538D2C" stroke-width="1" fill="#C02CB1" opacity="0.7560142653260101" stroke-opacity="0.5555357060198951" transform="rotate(131.0 400 300)" d="M 256,295  C 647,131 327,433 690,281 C 537,358 663,428 651,112 C 639,191 487,433 248,312 C 466,249 282,252 246,383 Z"></path>

  </g>
</svg>
