<?xml version="1.0" encoding="UTF-8"?>
<svg width="800px" height="600px" viewBox="0 0 800 600" version="1.1" xmlns="http://www.w3.org/2000/svg" xmlns:xlink="http://www.w3.org/1999/xlink">
  <defs></defs>
  <g stroke="none" stroke-width="1" fill="none" fill-rule="evenodd">
    
    <path stroke="#802703" stroke-width="5" fill="#5D0AAC" opacity="0.26958932849311545" stroke-opacity="0.9682364648510243" transform="rotate(-1.0 400 300)" d="M 279,459  C 700,380 136,356 361,149 C 346,285 470,318 196,425 C 200,494 205,418 124,258 C 550,428 663,230 584,306 C 602,322 465,407 241,254 Z"></path>
<path stroke="#557B51" stroke-width="7" fill="#4B0587" opacity="0.7621160310249544" stroke-opacity="0.9964224543613582" transform="rotate(97.0 400 300)" d="M 464,266  C 111,130 203,249 475,179 C 672,132 223,369 633,161 C 146,381 367,264 655,228 C 455,205 679,236 354,359 C 391,344 212,355 308,336 C 516,466 544,359 129,172 Z"></path>
<path stroke="#947B3A" stroke-width="5" fill="#96B216" opacity="0.5569218193474879" stroke-opacity="0.0026771821003759976" transform="rotate(-51.0 400 300)" d="M 466,353  C 364,371 243,472 393,407 C 414,171 372,111 413,260 C 458,375 496,399 532,477 C 134,226 333,217 211,409 C 442,350 243,398 619,323 C 250,218 567,233 273,278 C 103,248 191,398 341,382 C 347,234 343,218 120,126 C 671,394 507,257 483,244 Z"></path>
<path stroke="#6928CD" stroke-width="2" fill="#B284A3" opacity="0.2256671231076057" stroke-opacity="0.9233685562169069" transform="rotate(-73.0 400 300)" d="M 249,119  C 486,146 230,244 539,311 C 223,287 288,184 369,323 C 466,243 425,366 284,496 C 597,206 585,140 503,458 C 224,124 511,110 107,403 C 218,347 268,282 410,388 Z"></path>
<path stroke="#A089B8" stroke-width="1" fill="#9499D7" opacity="0.9519585066355889" stroke-opacity="0.5544136606285419" transform="rotate(-123.0 400 300)" d="M 558,103  C 383,405 670,494 526,197 C 172,352 260,204 600,452 C 143,179 482,382 337,293 C 144,359 231,359 176,476 C 576,294 391,442 373,399 C 448,378 270,133 582,468 C 248,471 379,425 659,171 C 644,175 575,303 255,159 Z"></path>
<path stroke="#0B13A3" stroke-width="7" fill="#1C120B" opacity="0.10788638464366888" stroke-opacity="0.8896632561617316" transform="rotate(141.0 400 300)" d="M 174,396  C 531,304 374,472 413,203 C 625,281 338,276 699,484 C 314,255 560,280 276,109 C 689,360 308,199 249,471 C 162,466 552,471 129,126 C 501,338 378,467 287,252 C 137,418 119,106 699,154 Z"></path>
<path stroke="#86D4DD" stroke-width="1" fill="#203A71" opacity="0.2983162540879787" stroke-opacity="0.4044673810978912" transform="rotate(-12.0 400 300)" d="M 166,119  C 218,411 305,361 115,494 C 614,245 595,283 527,136 C 105,456 126,278 415,241 C 231,305 161,402 395,241 C 658,336 545,246 284,437 C 294,449 556,305 595,162 C 695,331 551,157 497,330 C 452,155 205,137 657,283 Z"></path>

  </g>
</svg>
