<?xml version="1.0" encoding="UTF-8"?>
<svg width="800px" height="600px" viewBox="0 0 800 600" version="1.1" xmlns="http://www.w3.org/2000/svg" xmlns:xlink="http://www.w3.org/1999/xlink">
  <defs></defs>
  <g stroke="none" stroke-width="1" fill="none" fill-rule="evenodd">
    
    <path stroke="#CAD376" stroke-width="4" fill="#A2A1AD" opacity="0.7531145040710762" stroke-opacity="0.12249734621388977" transform="rotate(-118.0 400 300)" d="M 381,403  C 215,490 179,399 236,350 C 137,455 349,289 124,491 C 215,139 494,153 652,242 C 129,363 549,376 484,160 C 137,203 612,236 112,243 C 283,437 341,464 648,439 C 542,357 137,423 375,233 C 132,146 513,132 354,179 C 535,212 382,209 152,292 C 204,470 515,330 313,130 C 396,493 619,141 551,184 Z"></path>
<path stroke="#4CC172" stroke-width="7" fill="#240197" opacity="0.9127621575319501" stroke-opacity="0.8394991156858275" transform="rotate(-158.0 400 300)" d="M 156,438  C 558,178 290,131 186,434 C 282,458 170,163 598,148 C 419,149 170,149 201,158 C 251,481 435,258 567,284 C 646,252 461,314 251,397 Z"></path>
<path stroke="#145427" stroke-width="6" fill="#AD6008" opacity="0.2987859568506355" stroke-opacity="0.6072439880286621" transform="rotate(26.0 400 300)" d="M 494,312  C 117,198 308,268 377,191 C 167,464 602,328 323,304 C 103,159 252,211 121,453 C 476,257 315,196 345,381 C 366,366 342,271 187,303 C 341,437 612,492 537,137 C 365,386 463,185 487,221 C 129,217 571,185 219,163 C 263,115 162,107 287,258 C 290,322 475,373 347,328 C 613,393 612,188 521,107 Z"></path>
<path stroke="#CC7379" stroke-width="5" fill="#A26983" opacity="0.3680568763396671" stroke-opacity="0.7857325101471548" transform="rotate(-57.0 400 300)" d="M 654,221  C 514,432 103,134 289,461 C 340,192 251,178 630,254 C 477,329 143,111 334,273 C 296,456 503,383 521,446 C 508,147 612,139 198,154 C 335,162 430,411 643,165 C 185,430 348,246 258,336 C 106,240 351,111 283,157 C 698,107 504,198 230,499 C 653,407 569,275 630,356 Z"></path>
<path stroke="#11A961" stroke-width="6" fill="#37A754" opacity="0.3762984271789609" stroke-opacity="0.9661391489347521" transform="rotate(-84.0 400 300)" d="M 555,198  C 174,279 282,198 150,300 C 361,460 478,389 304,383 C 108,112 452,133 360,185 C 524,293 667,424 390,396 C 532,336 670,157 681,233 C 653,157 626,395 497,206 C 579,120 315,491 501,389 Z"></path>
<path stroke="#38B1D0" stroke-width="5" fill="#A3A9CC" opacity="0.7789786796395559" stroke-opacity="0.7024630114200345" transform="rotate(-125.0 400 300)" d="M 339,443  C 377,117 637,445 239,346 C 269,211 656,296 454,333 C 183,278 261,321 664,145 C 544,474 541,363 251,298 C 508,235 162,500 644,408 C 503,361 644,308 456,134 C 193,494 345,273 132,302 C 632,316 253,308 178,417 C 383,476 231,282 500,425 C 573,451 105,413 373,388 Z"></path>

  </g>
</svg>
