<?xml version="1.0" encoding="UTF-8"?>
<svg width="800px" height="600px" viewBox="0 0 800 600" version="1.1" xmlns="http://www.w3.org/2000/svg" xmlns:xlink="http://www.w3.org/1999/xlink">
  <defs></defs>
  <g stroke="none" stroke-width="1" fill="none" fill-rule="evenodd">
    
    <path stroke="#f9d84b" stroke-width="4" fill="#f27630" opacity="0.7548474573783893" stroke-opacity="0.2983960409185307" transform="rotate(138.0 400 300)" d="M 641,141  C 521,120 207,383 502,319 C 518,234 636,475 512,419 C 292,362 667,319 594,283 C 116,448 459,113 254,319 C 535,344 647,243 588,480 C 685,273 599,306 261,296 Z"></path>
<path stroke="#f27630" stroke-width="4" fill="#ed2b2c" opacity="0.4717159376769246" stroke-opacity="0.9142234233933675" transform="rotate(153.0 400 300)" d="M 596,273  C 225,417 240,267 350,421 C 700,288 444,104 444,341 C 296,219 466,484 339,113 C 623,338 676,257 268,213 C 395,344 595,295 529,192 C 638,275 549,397 136,254 C 500,356 450,207 296,489 Z"></path>
<path stroke="#f9d84b" stroke-width="5" fill="#2b55f7" opacity="0.38137863360989155" stroke-opacity="0.3378025085593876" transform="rotate(-127.0 400 300)" d="M 175,329  C 151,300 671,208 554,151 C 487,124 436,214 599,317 C 474,308 475,185 487,314 C 354,440 575,156 277,443 C 120,419 587,130 601,455 C 155,466 173,311 516,269 C 218,231 195,266 606,363 C 609,306 102,169 160,159 C 664,422 456,318 145,373 C 651,189 366,159 592,406 C 360,162 522,303 362,276 Z"></path>
<path stroke="#f9d84b" stroke-width="4" fill="#2b55f7" opacity="0.2134894655470077" stroke-opacity="0.44833531212658706" transform="rotate(162.0 400 300)" d="M 374,186  C 557,284 486,161 524,106 C 632,320 565,192 696,324 C 364,443 466,242 333,363 C 434,296 514,213 558,240 C 442,129 388,275 622,134 C 594,380 171,146 175,306 C 196,230 591,200 123,208 Z"></path>
<path stroke="#31a06b" stroke-width="1" fill="#ed2b2c" opacity="0.7923771698020639" stroke-opacity="0.8216797516761581" transform="rotate(13.0 400 300)" d="M 400,299  C 429,149 331,258 295,497 C 105,382 136,308 604,482 C 536,220 158,268 393,437 C 604,438 547,458 137,243 C 565,322 195,373 478,239 C 122,358 389,362 593,353 Z"></path>
<path stroke="#ed2b2c" stroke-width="1" fill="#31a06b" opacity="0.15665014444811393" stroke-opacity="0.3587728348681985" transform="rotate(-110.0 400 300)" d="M 230,166  C 640,450 316,354 380,449 C 186,330 153,191 514,153 C 388,243 147,120 213,479 C 378,418 264,421 653,488 C 652,343 525,374 502,250 C 148,279 680,373 683,362 C 600,287 677,115 596,104 C 384,240 490,436 254,417 C 285,151 567,249 342,475 C 352,174 508,380 284,189 C 235,172 551,169 184,437 Z"></path>
<path stroke="#ed2b2c" stroke-width="7" fill="#ed2b2c" opacity="0.33735626894255455" stroke-opacity="0.40800206356214025" transform="rotate(16.0 400 300)" d="M 697,416  C 638,319 389,267 330,370 C 404,169 645,242 255,183 C 640,324 476,455 558,111 C 206,373 262,480 610,301 C 414,211 328,411 231,291 Z"></path>
<path stroke="#f9d84b" stroke-width="5" fill="#f27630" opacity="0.17970819430423218" stroke-opacity="0.2993144434963895" transform="rotate(-169.0 400 300)" d="M 117,252  C 481,291 280,241 609,281 C 270,388 262,482 234,188 C 114,406 317,441 663,112 C 643,480 347,317 383,418 C 533,387 103,373 158,103 Z"></path>
<path stroke="#f9d84b" stroke-width="2" fill="#31a06b" opacity="0.44348239721007754" stroke-opacity="0.9058548590396434" transform="rotate(83.0 400 300)" d="M 186,159  C 398,330 573,491 428,224 C 151,113 525,361 222,327 C 510,165 381,413 183,148 C 231,271 351,361 196,232 C 589,197 307,383 116,103 C 416,203 499,332 541,400 C 612,144 698,333 450,327 C 145,435 124,136 166,438 C 142,236 493,444 130,477 C 418,155 226,215 244,248 Z"></path>
<path stroke="#31a06b" stroke-width="1" fill="#ed2b2c" opacity="0.03521373557335988" stroke-opacity="0.05123525199941288" transform="rotate(86.0 400 300)" d="M 366,451  C 677,379 242,131 676,451 C 538,207 114,430 570,358 C 350,207 431,264 615,482 C 476,350 683,155 122,289 Z"></path>

  </g>
</svg>
