<svg xmlns="http://www.w3.org/2000/svg" xmlns:xlink="http://www.w3.org/1999/xlink" width="800" height="600" version="1.1" viewBox="0 0 800 600"><g fill="none" fill-rule="evenodd" stroke="none" stroke-width="1"><path fill="#54B8CA" stroke="#B9D6C0" stroke-opacity=".634" stroke-width="5" d="M 152,149 C 238,285 395,174 651,184 C 423,266 581,175 634,483 C 496,122 337,404 101,422 C 693,138 351,252 420,215 C 242,444 179,487 229,497 C 229,162 686,447 576,442 Z" opacity=".164" transform="rotate(72.0 400 300)"/><path fill="#1D96AD" stroke="#A6C968" stroke-opacity=".941" stroke-width="6" d="M 214,286 C 417,391 107,316 426,207 C 429,471 329,336 283,172 C 150,182 631,411 626,354 C 636,162 486,262 235,194 Z" opacity=".572" transform="rotate(-170.0 400 300)"/><path fill="#C4D139" stroke="#49CD6B" stroke-opacity=".862" stroke-width="5" d="M 610,171 C 545,486 310,373 286,287 C 172,125 574,467 684,335 C 284,475 437,298 220,228 C 284,383 685,101 456,162 C 155,142 178,113 437,435 C 616,495 414,319 238,405 C 317,248 202,337 534,489 C 426,325 665,173 465,471 Z" opacity=".275" transform="rotate(34.0 400 300)"/><path fill="#A11364" stroke="#CA53D9" stroke-opacity=".22" stroke-width="3" d="M 113,465 C 323,316 548,455 281,157 C 227,186 149,294 271,430 C 591,379 499,221 631,110 C 360,487 312,356 536,240 C 442,351 678,450 120,465 C 322,248 650,334 518,371 Z" opacity=".808" transform="rotate(-93.0 400 300)"/><path fill="#610374" stroke="#841498" stroke-opacity=".594" stroke-width="7" d="M 298,240 C 596,496 418,152 681,371 C 574,280 323,222 154,118 C 589,212 609,437 193,130 C 183,444 304,206 153,184 C 402,214 638,161 628,395 C 417,406 642,321 502,217 C 203,459 314,299 246,131 C 663,215 468,410 409,136 C 619,338 428,191 265,461 Z" opacity=".213" transform="rotate(14.0 400 300)"/><path fill="#1C55B5" stroke="#6906C6" stroke-opacity=".288" stroke-width="7" d="M 224,411 C 467,108 511,428 619,301 C 303,146 178,431 396,227 C 487,181 635,495 286,402 C 454,260 525,481 365,267 Z" opacity=".119" transform="rotate(-43.0 400 300)"/><path fill="#63B542" stroke="#1B8674" stroke-opacity=".742" stroke-width="5" d="M 139,219 C 467,299 307,124 478,458 C 582,492 478,287 191,413 C 259,446 256,247 228,420 C 424,222 693,332 468,326 C 166,172 542,185 523,251 C 520,311 204,363 245,163 C 374,115 658,224 452,473 C 381,465 103,372 178,321 C 164,238 226,360 316,373 C 555,308 380,147 174,315 Z" opacity=".668" transform="rotate(-65.0 400 300)"/><path fill="#AA55CD" stroke="#992A07" stroke-opacity=".919" stroke-width="5" d="M 234,367 C 213,328 598,313 605,423 C 199,184 473,298 322,129 C 175,403 541,467 298,268 C 401,333 196,111 202,165 C 286,412 605,119 577,472 C 491,222 674,114 466,414 C 281,259 236,282 363,394 C 341,441 162,244 111,345 C 408,292 174,202 494,112 Z" opacity=".631" transform="rotate(156.0 400 300)"/></g></svg>