<?xml version="1.0" encoding="UTF-8"?>
<svg width="800px" height="600px" viewBox="0 0 800 600" version="1.1" xmlns="http://www.w3.org/2000/svg" xmlns:xlink="http://www.w3.org/1999/xlink">
  <defs></defs>
  <g stroke="none" stroke-width="1" fill="none" fill-rule="evenodd">
    
    <path stroke="#0119BC" stroke-width="7" fill="#34B437" opacity="0.6786778138711788" stroke-opacity="0.9210656082508907" transform="rotate(30.0 400 300)" d="M 192,306  C 449,467 423,447 395,450 C 259,471 267,189 288,368 C 112,125 290,291 341,380 C 488,450 412,465 206,367 C 304,499 220,424 538,105 C 483,168 449,161 425,460 Z"></path>
<path stroke="#D78D18" stroke-width="3" fill="#599C52" opacity="0.4661634641637658" stroke-opacity="0.2613999270258152" transform="rotate(34.0 400 300)" d="M 324,248  C 273,197 244,415 417,321 C 615,285 165,329 672,472 C 377,296 461,245 606,199 C 421,214 125,162 695,469 C 616,149 575,268 469,352 C 249,267 419,451 519,466 Z"></path>
<path stroke="#C3A09B" stroke-width="7" fill="#CCD484" opacity="0.11618449561695525" stroke-opacity="0.16222838130594375" transform="rotate(127.0 400 300)" d="M 381,326  C 130,311 170,282 152,383 C 591,369 590,143 320,128 C 339,404 317,279 338,290 C 256,455 420,111 208,405 C 643,430 523,114 379,415 C 652,470 613,249 113,429 C 412,339 646,478 624,455 C 640,486 350,210 137,309 Z"></path>
<path stroke="#D44480" stroke-width="5" fill="#C07B28" opacity="0.23758078613315387" stroke-opacity="0.06115911232424711" transform="rotate(9.0 400 300)" d="M 430,166  C 677,259 561,458 361,240 C 184,336 547,444 576,148 C 351,356 254,444 271,112 C 530,140 288,196 358,340 C 628,263 324,174 258,291 C 148,232 405,494 257,272 C 483,183 697,463 529,231 C 385,387 433,295 516,337 Z"></path>
<path stroke="#D7D780" stroke-width="3" fill="#D45348" opacity="0.7148249679941627" stroke-opacity="0.6742087469686922" transform="rotate(15.0 400 300)" d="M 672,241  C 405,488 676,109 112,459 C 291,133 150,484 228,207 C 293,186 629,323 310,412 C 295,149 337,189 232,202 C 215,167 304,196 494,466 C 584,162 175,101 411,309 C 458,332 669,136 327,191 C 635,357 409,241 546,166 C 339,185 646,379 325,147 Z"></path>
<path stroke="#275B54" stroke-width="7" fill="#BD4CA5" opacity="0.4653185544279106" stroke-opacity="0.1178975709135095" transform="rotate(-104.0 400 300)" d="M 352,338  C 437,152 345,274 405,346 C 135,450 170,214 470,281 C 119,421 529,157 698,497 C 600,217 432,217 350,343 C 192,434 233,262 358,380 C 198,437 697,486 108,173 Z"></path>
<path stroke="#75918B" stroke-width="7" fill="#12A2B8" opacity="0.2752293466657929" stroke-opacity="0.6526328778843458" transform="rotate(139.0 400 300)" d="M 202,353  C 191,391 390,273 101,423 C 407,253 227,159 446,298 C 364,235 113,336 121,398 C 644,301 463,418 617,234 C 537,372 626,118 224,264 C 603,230 338,150 541,498 C 619,438 132,335 210,435 C 485,336 273,466 212,182 C 473,170 575,444 168,478 C 441,415 356,215 687,334 C 639,120 259,326 497,216 Z"></path>
<path stroke="#C9D2C4" stroke-width="7" fill="#85468B" opacity="0.07928834504486358" stroke-opacity="0.5919754831274223" transform="rotate(-168.0 400 300)" d="M 461,290  C 341,105 254,288 178,420 C 112,387 142,281 552,261 C 363,312 186,478 153,436 C 238,301 279,419 317,309 Z"></path>
<path stroke="#62B0DB" stroke-width="4" fill="#AD2262" opacity="0.9714175722504621" stroke-opacity="0.4354522905024952" transform="rotate(-80.0 400 300)" d="M 250,280  C 463,426 368,115 265,395 C 437,167 537,265 390,379 C 396,236 210,452 288,425 C 294,307 636,444 628,300 C 138,197 182,275 389,233 C 466,283 553,290 564,473 C 520,180 530,218 651,180 Z"></path>

  </g>
</svg>
