<?xml version="1.0" encoding="UTF-8"?>
<svg width="800px" height="600px" viewBox="0 0 800 600" version="1.1" xmlns="http://www.w3.org/2000/svg" xmlns:xlink="http://www.w3.org/1999/xlink">
  <defs></defs>
  <g stroke="none" stroke-width="1" fill="none" fill-rule="evenodd">
    
    <path stroke="#fe9225" stroke-width="1" fill="#0fa6d8" opacity="0.17093540179447264" stroke-opacity="0.5723134724288438" transform="rotate(32.0 400 300)" d="M 578,145  C 297,490 273,295 101,315 C 431,388 101,306 683,329 C 124,496 379,412 287,248 C 606,153 574,292 250,237 C 393,276 435,476 222,172 C 451,310 526,231 543,332 C 618,377 393,231 546,128 Z"></path>
<path stroke="#02eb6b" stroke-width="5" fill="#0fa6d8" opacity="0.9193129912959944" stroke-opacity="0.058013669265812876" transform="rotate(90.0 400 300)" d="M 212,246  C 410,452 188,409 138,296 C 545,209 423,478 540,283 C 404,105 452,201 382,316 C 291,275 186,174 150,145 C 654,423 672,231 165,115 C 680,121 373,234 228,173 C 343,247 676,326 175,197 C 667,150 476,466 191,477 C 605,381 528,336 380,182 C 592,239 112,442 345,103 C 632,224 104,172 508,353 Z"></path>
<path stroke="#2cd3f3" stroke-width="5" fill="#2cd3f3" opacity="0.2944320706989628" stroke-opacity="0.5280013226399215" transform="rotate(-115.0 400 300)" d="M 540,292  C 415,357 209,456 187,233 C 249,112 321,149 534,176 C 204,378 554,419 508,194 C 606,348 349,218 255,345 C 290,465 276,444 354,310 C 695,119 275,444 271,260 C 468,433 531,303 528,145 C 636,133 455,496 221,127 C 126,250 672,146 658,209 C 126,478 642,283 379,409 C 424,207 525,217 394,343 Z"></path>
<path stroke="#02eb6b" stroke-width="5" fill="#0fa6d8" opacity="0.40445721500847287" stroke-opacity="0.8760314281511489" transform="rotate(-147.0 400 300)" d="M 249,132  C 582,403 568,458 573,355 C 458,293 649,193 601,387 C 203,389 191,461 350,390 C 357,215 682,261 662,183 C 351,145 529,293 220,105 C 435,380 585,310 216,492 Z"></path>
<path stroke="#f559a0" stroke-width="3" fill="#f559a0" opacity="0.8280856925070034" stroke-opacity="0.0281640379363686" transform="rotate(-82.0 400 300)" d="M 464,386  C 493,421 293,368 350,323 C 269,272 453,269 503,371 C 360,107 648,239 571,333 C 315,299 532,217 364,460 C 353,118 660,284 642,332 C 436,107 662,394 658,437 C 301,155 386,470 605,168 C 381,382 227,322 567,104 Z"></path>
<path stroke="#02eb6b" stroke-width="1" fill="#f559a0" opacity="0.845383234796383" stroke-opacity="0.11366157210140328" transform="rotate(-100.0 400 300)" d="M 615,320  C 465,259 369,297 590,226 C 613,283 224,435 450,500 C 624,189 566,326 659,364 C 201,350 311,273 660,484 C 297,360 306,272 225,183 C 156,477 119,129 358,247 C 621,189 509,121 239,375 C 106,495 525,104 230,304 Z"></path>
<path stroke="#0fa6d8" stroke-width="6" fill="#0fa6d8" opacity="0.6559245571899907" stroke-opacity="0.12437604850350617" transform="rotate(139.0 400 300)" d="M 500,314  C 377,336 265,144 675,474 C 391,139 318,430 108,158 C 529,490 201,175 124,125 C 200,296 125,405 254,493 C 277,391 175,446 606,320 C 229,470 495,462 650,101 C 177,340 613,357 171,352 Z"></path>
<path stroke="#02eb6b" stroke-width="1" fill="#2cd3f3" opacity="0.26642593008646653" stroke-opacity="0.2112363321439611" transform="rotate(-137.0 400 300)" d="M 661,292  C 659,446 363,252 555,153 C 454,353 622,142 634,283 C 430,218 413,159 392,386 C 204,388 659,426 108,266 C 462,291 365,195 649,478 Z"></path>
<path stroke="#fe9225" stroke-width="2" fill="#02eb6b" opacity="0.7595714690155364" stroke-opacity="0.7597663992365027" transform="rotate(-126.0 400 300)" d="M 483,482  C 605,308 424,500 422,272 C 145,268 398,454 510,469 C 663,389 598,362 288,464 C 417,188 583,347 123,143 C 398,152 644,162 259,183 C 389,383 362,112 684,467 C 353,233 624,454 543,169 C 694,247 515,185 475,325 C 315,491 492,229 432,314 C 126,469 306,359 520,467 C 520,414 498,480 214,140 Z"></path>

  </g>
</svg>
