<?xml version="1.0" encoding="UTF-8"?>
<svg width="800px" height="600px" viewBox="0 0 800 600" version="1.1" xmlns="http://www.w3.org/2000/svg" xmlns:xlink="http://www.w3.org/1999/xlink">
  <defs></defs>
  <g stroke="none" stroke-width="1" fill="none" fill-rule="evenodd">
    
    <polygon stroke="#0fa6d8" stroke-width="7" fill="#0fa6d8" opacity="0.8077200255824578" stroke-opacity="0.8169149405881223" transform="rotate(-88.0 400 300)" points="746 240 548 188 593 379 583 412 374 161 710 127 110 550 "></polygon>
<rect stroke="#0fa6d8" stroke-width="5" fill="#02eb6b" opacity="0.6204471053505152" stroke-opacity="0.197370089679384" transform="rotate(-60.0 400 300)" x="57" y="311" width="28" height="48"></rect>
<path stroke="#f559a0" stroke-width="4" fill="#0fa6d8" opacity="0.8034286734381781" stroke-opacity="0.0011384280008701624" transform="rotate(25.0 400 300)" d="M 609,417  C 409,256 199,123 294,498 C 382,411 129,387 129,239 C 699,161 208,180 533,183 C 383,224 258,500 116,257 C 354,363 278,423 272,328 C 466,275 426,355 689,311 C 435,356 241,135 577,356 C 478,355 586,366 254,431 C 385,333 271,112 399,101 C 117,421 395,290 596,240 C 249,220 435,358 225,169 Z"></path>
<rect stroke="#fe9225" stroke-width="3" fill="#2cd3f3" opacity="0.32954228886623577" stroke-opacity="0.09565504790518464" transform="rotate(-6.0 400 300)" x="131" y="25" width="42" height="97"></rect>
<polygon stroke="#0fa6d8" stroke-width="4" fill="#2cd3f3" opacity="0.7239921611010276" stroke-opacity="0.14162324292172704" transform="rotate(-117.0 400 300)" points="98 460 284 224 101 420 300 361 459 220 700 372 430 115 253 506 "></polygon>
<polygon stroke="#0fa6d8" stroke-width="6" fill="#2cd3f3" opacity="0.3692255598716455" stroke-opacity="0.11737141558515944" transform="rotate(-156.0 400 300)" points="422 511 164 281 125 510 519 514 630 215 "></polygon>
<polygon stroke="#2cd3f3" stroke-width="1" fill="#fe9225" opacity="0.2546326710544351" stroke-opacity="0.4051375471397478" transform="rotate(77.0 400 300)" points="126 66 324 298 119 456 637 238 3 191 272 233 198 481 "></polygon>

  </g>
</svg>
