<svg xmlns="http://www.w3.org/2000/svg" xmlns:xlink="http://www.w3.org/1999/xlink" width="800" height="600" version="1.1" viewBox="0 0 800 600"><g fill="none" fill-rule="evenodd" stroke="none" stroke-width="1"><polygon fill="#0fa6d8" stroke="#0fa6d8" stroke-opacity=".817" stroke-width="7" points="746 240 548 188 593 379 583 412 374 161 710 127 110 550" opacity=".808" transform="rotate(-88.0 400 300)"/><rect width="28" height="48" x="57" y="311" fill="#02eb6b" stroke="#0fa6d8" stroke-opacity=".197" stroke-width="5" opacity=".62" transform="rotate(-60.0 400 300)"/><path fill="#0fa6d8" stroke="#f559a0" stroke-opacity=".001" stroke-width="4" d="M 609,417 C 409,256 199,123 294,498 C 382,411 129,387 129,239 C 699,161 208,180 533,183 C 383,224 258,500 116,257 C 354,363 278,423 272,328 C 466,275 426,355 689,311 C 435,356 241,135 577,356 C 478,355 586,366 254,431 C 385,333 271,112 399,101 C 117,421 395,290 596,240 C 249,220 435,358 225,169 Z" opacity=".803" transform="rotate(25.0 400 300)"/><rect width="42" height="97" x="131" y="25" fill="#2cd3f3" stroke="#fe9225" stroke-opacity=".096" stroke-width="3" opacity=".33" transform="rotate(-6.0 400 300)"/><polygon fill="#2cd3f3" stroke="#0fa6d8" stroke-opacity=".142" stroke-width="4" points="98 460 284 224 101 420 300 361 459 220 700 372 430 115 253 506" opacity=".724" transform="rotate(-117.0 400 300)"/><polygon fill="#2cd3f3" stroke="#0fa6d8" stroke-opacity=".117" stroke-width="6" points="422 511 164 281 125 510 519 514 630 215" opacity=".369" transform="rotate(-156.0 400 300)"/><polygon fill="#fe9225" stroke="#2cd3f3" stroke-opacity=".405" stroke-width="1" points="126 66 324 298 119 456 637 238 3 191 272 233 198 481" opacity=".255" transform="rotate(77.0 400 300)"/></g></svg>