<?xml version="1.0" encoding="UTF-8"?>
<svg width="800px" height="600px" viewBox="0 0 800 600" version="1.1" xmlns="http://www.w3.org/2000/svg" xmlns:xlink="http://www.w3.org/1999/xlink">
  <defs></defs>
  <g stroke="none" stroke-width="1" fill="none" fill-rule="evenodd">
    
    <ellipse stroke="#f559a0" stroke-width="5" fill="#f559a0" opacity="0.4712830494966796" stroke-opacity="0.7063008238644612" transform="rotate(81.0 400 300)" cx="712" rx="280" cy="418" ry="60"></ellipse>
<ellipse stroke="#f559a0" stroke-width="1" fill="#f559a0" opacity="0.9310964606382212" stroke-opacity="0.14189674625333237" transform="rotate(89.0 400 300)" cx="616" rx="41" cy="359" ry="90"></ellipse>
<polygon stroke="#0fa6d8" stroke-width="3" fill="#f559a0" opacity="0.1688013385335172" stroke-opacity="0.03698795186276794" transform="rotate(-54.0 400 300)" points="259 279 114 589 362 356 656 90 599 500 506 590 776 287 "></polygon>
<path stroke="#02eb6b" stroke-width="7" fill="#02eb6b" opacity="0.8573421843281507" stroke-opacity="0.8413988216730157" transform="rotate(-49.0 400 300)" d="M 427,203  C 666,373 386,170 335,304 C 569,302 618,124 578,151 C 456,154 292,283 257,238 C 112,250 368,107 180,348 C 440,116 285,209 605,473 C 380,319 672,244 604,110 Z"></path>
<rect stroke="#0fa6d8" stroke-width="2" fill="#f559a0" opacity="0.6906782264422953" stroke-opacity="0.7842212755034427" transform="rotate(173.0 400 300)" x="67" y="531" width="307" height="112"></rect>
<polygon stroke="#0fa6d8" stroke-width="5" fill="#0fa6d8" opacity="0.42229927105188925" stroke-opacity="0.9294444038060813" transform="rotate(-158.0 400 300)" points="4 18 34 385 661 219 166 507 651 590 743 64 "></polygon>
<polygon stroke="#fe9225" stroke-width="5" fill="#02eb6b" opacity="0.6257246745682276" stroke-opacity="0.8265382882309356" transform="rotate(-30.0 400 300)" points="396 390 243 322 81 338 264 562 400 473 "></polygon>
<path stroke="#f559a0" stroke-width="6" fill="#0fa6d8" opacity="0.2887737410373548" stroke-opacity="0.28920667752501433" transform="rotate(-129.0 400 300)" d="M 111,457  C 674,308 654,430 329,120 C 383,483 258,316 305,265 C 359,217 540,229 190,443 C 384,171 690,159 378,312 Z"></path>

  </g>
</svg>
