<svg xmlns="http://www.w3.org/2000/svg" xmlns:xlink="http://www.w3.org/1999/xlink" width="800" height="600" version="1.1" viewBox="0 0 800 600"><g fill="none" fill-rule="evenodd" stroke="none" stroke-width="1"><ellipse cx="712" cy="418" fill="#f559a0" stroke="#f559a0" stroke-opacity=".706" stroke-width="5" opacity=".471" rx="280" ry="60" transform="rotate(81.0 400 300)"/><ellipse cx="616" cy="359" fill="#f559a0" stroke="#f559a0" stroke-opacity=".142" stroke-width="1" opacity=".931" rx="41" ry="90" transform="rotate(89.0 400 300)"/><polygon fill="#f559a0" stroke="#0fa6d8" stroke-opacity=".037" stroke-width="3" points="259 279 114 589 362 356 656 90 599 500 506 590 776 287" opacity=".169" transform="rotate(-54.0 400 300)"/><path fill="#02eb6b" stroke="#02eb6b" stroke-opacity=".841" stroke-width="7" d="M 427,203 C 666,373 386,170 335,304 C 569,302 618,124 578,151 C 456,154 292,283 257,238 C 112,250 368,107 180,348 C 440,116 285,209 605,473 C 380,319 672,244 604,110 Z" opacity=".857" transform="rotate(-49.0 400 300)"/><rect width="307" height="112" x="67" y="531" fill="#f559a0" stroke="#0fa6d8" stroke-opacity=".784" stroke-width="2" opacity=".691" transform="rotate(173.0 400 300)"/><polygon fill="#0fa6d8" stroke="#0fa6d8" stroke-opacity=".929" stroke-width="5" points="4 18 34 385 661 219 166 507 651 590 743 64" opacity=".422" transform="rotate(-158.0 400 300)"/><polygon fill="#02eb6b" stroke="#fe9225" stroke-opacity=".827" stroke-width="5" points="396 390 243 322 81 338 264 562 400 473" opacity=".626" transform="rotate(-30.0 400 300)"/><path fill="#0fa6d8" stroke="#f559a0" stroke-opacity=".289" stroke-width="6" d="M 111,457 C 674,308 654,430 329,120 C 383,483 258,316 305,265 C 359,217 540,229 190,443 C 384,171 690,159 378,312 Z" opacity=".289" transform="rotate(-129.0 400 300)"/></g></svg>