<svg xmlns="http://www.w3.org/2000/svg" xmlns:xlink="http://www.w3.org/1999/xlink" width="800" height="600" version="1.1" viewBox="0 0 800 600"><g fill="none" fill-rule="evenodd" stroke="none" stroke-width="1"><path fill="#0DC559" stroke="#1942A1" stroke-opacity=".878" stroke-width="2" d="M 600,169 C 594,402 402,345 554,261 C 287,264 138,486 126,447 C 159,459 236,374 568,340 C 245,257 598,382 187,476 C 591,466 639,396 533,383 C 700,364 540,193 436,490 C 480,223 372,211 151,450 C 221,155 173,378 322,342 C 467,425 621,347 341,291 C 589,499 321,316 615,380 C 253,379 241,218 593,246 Z" opacity=".637" transform="rotate(35.0 400 300)"/><path fill="#4815D4" stroke="#66A71B" stroke-opacity=".409" stroke-width="3" d="M 551,350 C 516,327 365,247 366,374 C 390,214 264,244 347,119 C 150,456 606,436 296,224 C 376,199 338,465 169,162 C 225,205 189,151 236,359 Z" opacity=".952" transform="rotate(-117.0 400 300)"/><path fill="#A47C34" stroke="#A3497D" stroke-opacity=".745" stroke-width="2" d="M 570,141 C 392,224 609,488 699,193 C 684,131 221,220 421,455 C 675,399 486,363 277,376 C 131,212 347,147 178,381 C 510,329 374,389 326,146 C 376,283 586,196 232,219 C 112,331 620,410 478,277 C 696,304 458,145 563,183 C 197,111 118,283 456,231 Z" opacity=".794" transform="rotate(-62.0 400 300)"/><path fill="#C674CD" stroke="#2A0ADB" stroke-opacity=".908" stroke-width="2" d="M 126,144 C 655,102 113,159 604,284 C 424,134 373,326 109,147 C 688,383 462,396 205,471 C 284,319 400,464 612,287 C 145,194 388,406 652,138 Z" opacity=".657" transform="rotate(-2.0 400 300)"/><path fill="#1A515D" stroke="#55B1CC" stroke-opacity=".77" stroke-width="3" d="M 404,187 C 279,473 245,408 337,351 C 648,120 193,348 615,432 C 698,240 118,357 426,370 C 672,310 239,315 320,268 C 307,281 144,464 458,169 C 319,201 300,472 468,159 C 315,151 574,291 215,456 C 408,367 547,342 104,392 C 554,498 213,268 111,227 C 618,283 546,498 490,181 C 540,261 478,333 562,459 Z" opacity=".237" transform="rotate(-10.0 400 300)"/><path fill="#158C49" stroke="#35A2D8" stroke-opacity=".009" stroke-width="5" d="M 481,160 C 547,347 394,279 556,200 C 526,129 229,432 330,438 C 252,293 347,483 123,245 C 561,236 544,103 322,204 C 250,488 379,278 687,115 C 539,384 621,182 619,192 C 470,479 622,490 162,432 C 379,483 443,118 402,246 C 596,189 212,184 214,137 C 174,155 399,115 381,251 C 630,225 111,209 578,456 Z" opacity=".99" transform="rotate(169.0 400 300)"/><path fill="#10A517" stroke="#123DC5" stroke-opacity=".137" stroke-width="6" d="M 284,447 C 302,307 371,170 398,480 C 402,416 667,337 239,120 C 328,322 656,390 133,156 C 295,366 507,337 168,169 Z" opacity=".693" transform="rotate(66.0 400 300)"/><path fill="#6B9856" stroke="#0D0325" stroke-opacity=".342" stroke-width="6" d="M 322,492 C 555,393 155,442 273,294 C 230,267 475,385 330,337 C 624,269 667,124 238,136 C 329,224 431,364 120,350 C 532,201 486,345 229,354 C 334,482 568,180 363,170 C 171,223 580,391 388,175 C 396,379 583,273 584,304 Z" opacity=".191" transform="rotate(70.0 400 300)"/><path fill="#183A11" stroke="#C528C1" stroke-opacity=".51" stroke-width="1" d="M 324,159 C 516,186 147,375 287,207 C 313,436 660,139 615,115 C 291,458 487,469 324,324 C 286,134 606,238 373,149 C 131,144 233,283 354,193 C 318,216 105,488 149,177 C 549,395 453,264 141,105 C 532,187 672,317 131,236 C 427,141 426,396 147,151 Z" opacity=".007" transform="rotate(-58.0 400 300)"/></g></svg>