<svg xmlns="http://www.w3.org/2000/svg" xmlns:xlink="http://www.w3.org/1999/xlink" width="800" height="600" version="1.1" viewBox="0 0 800 600"><g fill="none" fill-rule="evenodd" stroke="none" stroke-width="1"><polygon fill="#72A846" stroke="#DAB344" stroke-opacity=".288" stroke-width="4" points="189 333 172 124 234 483 190 154 317 237 303 132 50 292" opacity=".243" transform="rotate(-36.0 400 300)"/><path fill="#98CA7A" stroke="#53D108" stroke-opacity=".157" stroke-width="4" d="M 312,302 C 657,449 687,453 588,201 C 251,465 428,432 392,473 C 230,228 469,433 609,357 C 659,273 223,254 398,300 Z" opacity=".231" transform="rotate(134.0 400 300)"/><ellipse cx="307" cy="210" fill="#919203" stroke="#552909" stroke-opacity=".253" stroke-width="4" opacity=".628" rx="47" ry="131" transform="rotate(81.0 400 300)"/><rect width="322" height="337" x="195" y="581" fill="#956328" stroke="#A83ABB" stroke-opacity=".873" stroke-width="6" opacity=".377" transform="rotate(69.0 400 300)"/><polygon fill="#848257" stroke="#068927" stroke-opacity=".572" stroke-width="4" points="256 185 270 204 78 11 350 267 141 525 146 535 197 278 284 355" opacity=".508" transform="rotate(106.0 400 300)"/><rect width="280" height="22" x="96" y="285" fill="#530971" stroke="#083085" stroke-opacity=".408" stroke-width="4" opacity=".746" transform="rotate(52.0 400 300)"/><polygon fill="#8909A5" stroke="#818C58" stroke-opacity=".525" stroke-width="1" points="402 233 736 575 572 207 241 113 627 100 244 432 91 134" opacity=".38" transform="rotate(122.0 400 300)"/></g></svg>