<?xml version="1.0" encoding="UTF-8"?>
<svg width="800px" height="600px" viewBox="0 0 800 600" version="1.1" xmlns="http://www.w3.org/2000/svg" xmlns:xlink="http://www.w3.org/1999/xlink">
  <defs></defs>
  <g stroke="none" stroke-width="1" fill="none" fill-rule="evenodd">
    
    <path stroke="#f559a0" stroke-width="2" fill="#2cd3f3" opacity="0.5562960670807253" stroke-opacity="0.24761283404291262" transform="rotate(165.0 400 300)" d="M 576,283  C 694,186 636,418 185,153 C 348,442 534,378 526,103 C 235,180 348,263 651,245 C 697,224 565,236 374,483 C 257,105 279,241 402,146 C 407,416 418,312 569,178 C 691,387 336,281 470,407 C 615,128 569,234 483,374 C 668,237 552,195 206,151 C 192,117 602,159 146,270 Z"></path>
<path stroke="#0fa6d8" stroke-width="7" fill="#2cd3f3" opacity="0.44220423767128014" stroke-opacity="0.36706882813687236" transform="rotate(18.0 400 300)" d="M 223,458  C 543,296 149,349 150,276 C 692,276 486,219 540,263 C 577,248 456,204 174,309 C 354,204 498,242 600,298 C 678,301 676,480 437,142 C 215,108 175,499 559,101 C 524,120 337,136 488,235 C 320,471 602,461 255,164 C 108,326 406,124 454,410 Z"></path>
<path stroke="#fe9225" stroke-width="4" fill="#02eb6b" opacity="0.3711169719203432" stroke-opacity="0.7354597861212472" transform="rotate(-56.0 400 300)" d="M 537,411  C 339,462 149,318 222,307 C 116,461 415,285 475,221 C 565,290 542,419 207,225 C 305,479 128,250 318,331 C 505,214 379,324 391,447 C 556,176 222,382 534,286 C 677,347 132,316 617,162 C 567,441 498,299 693,130 C 319,372 176,410 487,155 Z"></path>
<path stroke="#f559a0" stroke-width="6" fill="#0fa6d8" opacity="0.20622817851401606" stroke-opacity="0.27112427846948717" transform="rotate(-168.0 400 300)" d="M 576,458  C 654,496 684,451 131,279 C 342,392 119,276 342,456 C 298,315 244,279 690,148 C 678,299 438,481 233,133 C 623,249 294,132 198,203 C 370,121 682,237 394,273 C 431,129 685,326 166,102 C 521,491 102,278 359,332 C 129,494 154,345 238,187 C 617,367 634,309 516,123 C 277,380 128,421 578,279 Z"></path>
<path stroke="#0fa6d8" stroke-width="7" fill="#0fa6d8" opacity="0.2684165888438435" stroke-opacity="0.31993919599668874" transform="rotate(167.0 400 300)" d="M 258,282  C 378,489 496,346 156,196 C 361,352 506,293 314,349 C 178,477 171,154 407,284 C 222,260 523,386 495,376 C 298,386 329,160 590,197 C 676,273 326,415 670,315 C 143,481 189,304 232,308 Z"></path>
<path stroke="#fe9225" stroke-width="3" fill="#02eb6b" opacity="0.3536368867727511" stroke-opacity="0.31351262751933034" transform="rotate(165.0 400 300)" d="M 320,376  C 630,362 408,282 204,382 C 446,442 284,349 627,289 C 342,111 697,123 490,285 C 254,473 569,115 561,169 C 419,177 315,352 599,263 C 206,400 391,476 343,407 C 478,211 268,411 590,415 C 688,130 689,189 448,421 C 531,311 175,436 632,365 C 652,379 487,461 162,284 Z"></path>
<path stroke="#fe9225" stroke-width="4" fill="#02eb6b" opacity="0.7959073352725933" stroke-opacity="0.4203630272366885" transform="rotate(-38.0 400 300)" d="M 238,186  C 177,204 217,196 277,463 C 305,105 547,454 477,160 C 404,125 432,276 554,280 C 517,495 536,353 578,293 C 324,393 421,433 292,227 C 299,134 219,387 699,462 C 573,451 370,344 434,145 C 607,475 382,424 463,302 C 394,328 350,114 697,268 C 214,317 681,185 597,470 C 575,407 355,175 305,313 Z"></path>
<path stroke="#f559a0" stroke-width="7" fill="#f559a0" opacity="0.955490715109837" stroke-opacity="0.955404709078019" transform="rotate(88.0 400 300)" d="M 681,463  C 146,103 216,326 466,371 C 371,244 651,103 587,129 C 196,441 634,350 366,402 C 146,236 584,257 108,264 Z"></path>
<path stroke="#fe9225" stroke-width="4" fill="#f559a0" opacity="0.3160097049598341" stroke-opacity="0.15363687997831907" transform="rotate(-141.0 400 300)" d="M 460,355  C 347,492 297,456 285,198 C 157,336 495,144 460,471 C 381,203 375,410 145,136 C 674,379 170,478 579,236 C 562,461 494,381 105,102 C 207,492 628,500 593,258 Z"></path>

  </g>
</svg>
