<svg xmlns="http://www.w3.org/2000/svg" xmlns:xlink="http://www.w3.org/1999/xlink" width="800" height="600" version="1.1" viewBox="0 0 800 600"><g fill="none" fill-rule="evenodd" stroke="none" stroke-width="1"><ellipse cx="426" cy="221" fill="#02eb6b" stroke="#fe9225" stroke-opacity=".347" stroke-width="6" opacity=".141" rx="377" ry="117" transform="rotate(10.0 400 300)"/><rect width="306" height="24" x="98" y="453" fill="#0fa6d8" stroke="#2cd3f3" stroke-opacity=".842" stroke-width="7" opacity=".881" transform="rotate(-173.0 400 300)"/><rect width="296" height="103" x="452" y="19" fill="#02eb6b" stroke="#2cd3f3" stroke-opacity=".86" stroke-width="2" opacity=".416" transform="rotate(-28.0 400 300)"/><rect width="157" height="152" x="278" y="189" fill="#f559a0" stroke="#fe9225" stroke-opacity=".788" stroke-width="7" opacity=".486" transform="rotate(23.0 400 300)"/><rect width="55" height="265" x="498" y="115" fill="#2cd3f3" stroke="#f559a0" stroke-opacity=".285" stroke-width="6" opacity=".027" transform="rotate(-166.0 400 300)"/><rect width="173" height="232" x="492" y="287" fill="#02eb6b" stroke="#fe9225" stroke-opacity=".182" stroke-width="5" opacity=".399" transform="rotate(-32.0 400 300)"/><path fill="#02eb6b" stroke="#02eb6b" stroke-opacity=".372" stroke-width="6" d="M 195,339 C 119,436 262,322 157,349 C 496,192 627,420 158,376 C 613,359 322,201 651,286 C 684,184 275,315 209,256 C 686,313 422,232 591,380 C 386,409 543,158 592,139 C 693,101 107,297 651,257 C 415,415 284,135 242,460 C 194,257 467,459 545,421 C 114,378 408,417 581,496 C 262,251 258,178 659,182 Z" opacity=".258" transform="rotate(74.0 400 300)"/><rect width="150" height="50" x="732" y="148" fill="#0fa6d8" stroke="#2cd3f3" stroke-opacity=".784" stroke-width="5" opacity=".139" transform="rotate(-121.0 400 300)"/></g></svg>