<svg xmlns="http://www.w3.org/2000/svg" xmlns:xlink="http://www.w3.org/1999/xlink" width="800" height="600" version="1.1" viewBox="0 0 800 600"><g fill="none" fill-rule="evenodd" stroke="none" stroke-width="1"><polygon fill="#02eb6b" stroke="#2cd3f3" stroke-opacity=".202" stroke-width="5" points="723 359 641 468 447 561 589 263 686 361 721 260 543 276" opacity=".631" transform="rotate(-154.0 400 300)"/><rect width="116" height="323" x="563" y="240" fill="#02eb6b" stroke="#02eb6b" stroke-opacity=".277" stroke-width="2" opacity=".883" transform="rotate(20.0 400 300)"/><ellipse cx="165" cy="144" fill="#f559a0" stroke="#2cd3f3" stroke-opacity=".414" stroke-width="3" opacity=".487" rx="423" ry="80" transform="rotate(-72.0 400 300)"/><rect width="143" height="343" x="333" y="464" fill="#f559a0" stroke="#f559a0" stroke-opacity=".791" stroke-width="2" opacity=".687" transform="rotate(-77.0 400 300)"/><rect width="122" height="303" x="130" y="506" fill="#0fa6d8" stroke="#f559a0" stroke-opacity=".825" stroke-width="1" opacity=".839" transform="rotate(146.0 400 300)"/><path fill="#2cd3f3" stroke="#02eb6b" stroke-opacity=".564" stroke-width="7" d="M 193,187 C 112,120 209,306 306,108 C 593,439 110,386 162,108 C 212,358 613,237 665,123 C 281,407 239,412 691,498 C 409,177 221,222 321,115 C 343,240 599,161 239,220 C 516,254 501,244 146,220 C 466,405 269,298 640,226 C 286,249 554,129 290,150 Z" opacity=".815" transform="rotate(19.0 400 300)"/></g></svg>