<?xml version="1.0" encoding="UTF-8"?>
<svg width="800px" height="600px" viewBox="0 0 800 600" version="1.1" xmlns="http://www.w3.org/2000/svg" xmlns:xlink="http://www.w3.org/1999/xlink">
  <defs></defs>
  <g stroke="none" stroke-width="1" fill="none" fill-rule="evenodd">
    
    <path stroke="#9C4894" stroke-width="6" fill="#A4C9BA" opacity="0.2913791363786426" stroke-opacity="0.6071650469714306" transform="rotate(115.0 400 300)" d="M 139,359  C 319,289 662,232 297,185 C 132,236 442,442 648,394 C 421,463 496,257 483,324 C 689,338 591,389 317,187 C 352,101 620,293 555,259 C 357,213 638,388 460,172 C 157,378 483,283 227,207 C 134,307 348,125 645,269 C 304,281 375,291 321,162 C 474,383 110,269 303,419 C 148,102 169,174 371,125 Z"></path>
<path stroke="#B134B7" stroke-width="7" fill="#33DC6D" opacity="0.8550552753595547" stroke-opacity="0.342983529558041" transform="rotate(53.0 400 300)" d="M 218,460  C 477,333 173,257 606,130 C 628,296 318,348 558,240 C 675,281 542,264 281,260 C 491,273 209,353 511,292 C 212,464 282,443 504,452 C 440,179 360,312 375,339 Z"></path>
<path stroke="#2991C3" stroke-width="4" fill="#6D0AB2" opacity="0.7201269444163799" stroke-opacity="0.9103987275803864" transform="rotate(177.0 400 300)" d="M 406,499  C 564,448 454,430 670,198 C 532,177 158,450 294,211 C 537,322 424,149 475,170 C 670,402 685,194 407,368 C 160,372 413,444 117,336 C 124,240 473,497 525,438 C 373,315 223,249 534,485 Z"></path>
<path stroke="#2B786C" stroke-width="5" fill="#0CCD17" opacity="0.8014085826248611" stroke-opacity="0.4381651805704408" transform="rotate(-19.0 400 300)" d="M 278,442  C 386,242 671,245 156,316 C 465,359 360,132 186,310 C 696,295 452,113 576,311 C 390,109 579,419 632,159 C 486,128 408,333 282,218 C 672,486 479,283 560,486 C 558,225 157,108 322,308 C 353,482 222,158 396,293 C 175,399 595,403 151,210 C 469,203 464,442 313,277 Z"></path>
<path stroke="#97AAB2" stroke-width="4" fill="#3C9333" opacity="0.10992404479185051" stroke-opacity="0.09902476531924756" transform="rotate(-15.0 400 300)" d="M 285,439  C 691,449 217,318 115,385 C 329,310 234,109 666,244 C 315,132 439,251 467,299 C 248,123 385,194 534,453 C 237,162 158,104 432,245 C 174,496 589,360 241,225 C 152,425 389,173 504,214 Z"></path>
<path stroke="#2573D3" stroke-width="7" fill="#BCC1C6" opacity="0.8919835214030104" stroke-opacity="0.7407764451434243" transform="rotate(147.0 400 300)" d="M 593,435  C 460,204 323,373 400,111 C 274,470 483,260 532,157 C 388,491 388,118 545,105 C 204,191 440,424 337,297 C 289,463 511,261 358,436 Z"></path>

  </g>
</svg>
