<?xml version="1.0" encoding="UTF-8"?>
<svg width="800px" height="600px" viewBox="0 0 800 600" version="1.1" xmlns="http://www.w3.org/2000/svg" xmlns:xlink="http://www.w3.org/1999/xlink">
  <defs></defs>
  <g stroke="none" stroke-width="1" fill="none" fill-rule="evenodd">
    
    <path stroke="#31a06b" stroke-width="3" fill="#2b55f7" opacity="0.7273590630965265" stroke-opacity="0.5077003973118238" transform="rotate(46.0 400 300)" d="M 422,313  C 104,417 630,453 655,289 C 143,388 422,442 437,489 C 649,120 417,469 548,495 C 491,187 126,425 234,445 C 463,467 252,164 553,227 Z"></path>
<path stroke="#31a06b" stroke-width="1" fill="#f27630" opacity="0.6044727392162745" stroke-opacity="0.9433533993434584" transform="rotate(-135.0 400 300)" d="M 264,495  C 697,190 408,466 525,335 C 661,360 540,418 337,165 C 602,385 444,206 424,265 C 129,376 637,336 500,186 C 190,199 614,465 579,384 C 664,350 611,488 367,298 C 691,436 210,210 151,136 Z"></path>
<path stroke="#f9d84b" stroke-width="1" fill="#31a06b" opacity="0.4812960820472545" stroke-opacity="0.7552831389464892" transform="rotate(-63.0 400 300)" d="M 335,352  C 632,351 495,381 694,229 C 592,449 258,185 252,250 C 676,400 353,223 677,470 C 358,279 135,435 593,248 C 691,273 116,130 120,131 C 180,115 456,307 175,367 C 371,315 443,478 323,416 C 291,481 349,441 506,107 C 241,303 633,330 248,248 C 232,310 555,297 476,477 C 279,320 373,103 236,285 Z"></path>
<path stroke="#2b55f7" stroke-width="6" fill="#ed2b2c" opacity="0.5245788721640093" stroke-opacity="0.7096792896181753" transform="rotate(136.0 400 300)" d="M 239,318  C 686,390 114,150 131,424 C 583,282 213,260 477,280 C 337,435 326,238 636,122 C 676,361 542,370 586,333 C 239,325 455,417 379,229 C 544,456 256,242 650,126 C 322,179 606,233 160,373 C 355,190 660,443 271,423 C 516,468 585,242 492,488 C 228,375 686,332 446,268 C 268,206 205,440 114,272 Z"></path>
<path stroke="#ed2b2c" stroke-width="6" fill="#ed2b2c" opacity="0.4716825155264903" stroke-opacity="0.7375841043228302" transform="rotate(137.0 400 300)" d="M 303,470  C 615,273 430,252 144,420 C 172,350 424,195 295,376 C 654,442 567,130 447,134 C 524,158 425,478 511,378 C 509,430 228,182 112,279 C 106,328 549,456 659,106 C 196,150 350,451 122,419 C 547,304 408,289 170,317 C 166,103 586,190 644,301 C 122,273 592,324 104,115 C 498,148 122,220 615,121 Z"></path>
<path stroke="#f27630" stroke-width="4" fill="#ed2b2c" opacity="0.5678693264617334" stroke-opacity="0.579748257992468" transform="rotate(-163.0 400 300)" d="M 662,130  C 391,152 676,416 429,238 C 238,418 104,298 228,327 C 664,338 295,437 576,230 C 240,283 338,127 325,281 C 693,355 291,475 318,209 C 665,105 120,189 414,452 C 287,467 229,334 456,174 Z"></path>
<path stroke="#f27630" stroke-width="5" fill="#f9d84b" opacity="0.9481298435372654" stroke-opacity="0.7039935425595274" transform="rotate(49.0 400 300)" d="M 280,345  C 164,284 227,462 281,415 C 574,303 558,490 439,388 C 270,180 481,299 186,207 C 447,218 408,405 257,486 C 545,499 632,215 675,353 C 151,390 466,385 335,389 C 403,162 459,477 129,386 C 129,413 155,436 684,310 C 190,187 424,390 213,403 C 574,449 349,153 398,316 C 387,460 437,132 567,439 Z"></path>
<path stroke="#2b55f7" stroke-width="2" fill="#f9d84b" opacity="0.8627944773149797" stroke-opacity="0.8599315957057613" transform="rotate(-75.0 400 300)" d="M 242,300  C 502,456 272,350 132,476 C 227,426 492,204 314,373 C 662,224 526,146 510,242 C 230,261 297,211 570,131 Z"></path>
<path stroke="#ed2b2c" stroke-width="2" fill="#f27630" opacity="0.4266203411698189" stroke-opacity="0.9001221160107544" transform="rotate(163.0 400 300)" d="M 582,234  C 178,309 167,258 204,458 C 426,343 134,414 241,452 C 231,117 428,256 137,136 C 142,113 395,239 667,162 C 123,185 470,212 475,137 C 464,339 142,465 560,227 C 690,376 143,365 236,158 C 453,135 637,114 642,384 C 328,463 698,455 217,301 Z"></path>
<path stroke="#31a06b" stroke-width="7" fill="#31a06b" opacity="0.18686558008965046" stroke-opacity="0.9461632311049992" transform="rotate(-154.0 400 300)" d="M 521,304  C 567,490 489,175 606,425 C 319,453 195,108 679,118 C 267,473 514,236 351,327 C 346,378 186,383 304,286 C 420,472 259,276 372,325 C 567,217 635,170 325,193 C 474,221 400,150 144,450 C 348,444 398,177 240,500 C 270,360 430,145 254,144 C 457,417 444,284 231,263 Z"></path>

  </g>
</svg>
