<?xml version="1.0" encoding="UTF-8"?>
<svg width="800px" height="600px" viewBox="0 0 800 600" version="1.1" xmlns="http://www.w3.org/2000/svg" xmlns:xlink="http://www.w3.org/1999/xlink">
  <defs></defs>
  <g stroke="none" stroke-width="1" fill="none" fill-rule="evenodd">
    
    <polygon stroke="#2cd3f3" stroke-width="4" fill="#02eb6b" opacity="0.414766956026142" stroke-opacity="0.45177768410566593" transform="rotate(75.0 400 300)" points="407 522 449 375 638 151 653 517 767 87 172 474 279 254 644 324 "></polygon>
<ellipse stroke="#2cd3f3" stroke-width="1" fill="#02eb6b" opacity="0.6979212208408339" stroke-opacity="0.9536763816441566" transform="rotate(47.0 400 300)" cx="719" rx="55" cy="550" ry="302"></ellipse>
<rect stroke="#f559a0" stroke-width="3" fill="#fe9225" opacity="0.6261202597561711" stroke-opacity="0.4042165150162857" transform="rotate(27.0 400 300)" x="612" y="208" width="299" height="226"></rect>
<ellipse stroke="#2cd3f3" stroke-width="6" fill="#02eb6b" opacity="0.4747779237397162" stroke-opacity="0.44912584462409405" transform="rotate(75.0 400 300)" cx="630" rx="115" cy="380" ry="177"></ellipse>
<polygon stroke="#fe9225" stroke-width="4" fill="#fe9225" opacity="0.5628182863923687" stroke-opacity="0.8540673237458707" transform="rotate(9.0 400 300)" points="767 535 94 539 144 587 436 164 546 31 "></polygon>
<rect stroke="#fe9225" stroke-width="7" fill="#0fa6d8" opacity="0.2205673626175195" stroke-opacity="0.02071683605908117" transform="rotate(20.0 400 300)" x="201" y="119" width="387" height="149"></rect>
<polygon stroke="#2cd3f3" stroke-width="7" fill="#fe9225" opacity="0.050348778791889225" stroke-opacity="0.8283981645161534" transform="rotate(-119.0 400 300)" points="691 453 33 460 168 509 131 277 650 140 454 188 424 244 "></polygon>
<ellipse stroke="#fe9225" stroke-width="4" fill="#0fa6d8" opacity="0.2081970089185011" stroke-opacity="0.8660193622588713" transform="rotate(6.0 400 300)" cx="89" rx="401" cy="596" ry="137"></ellipse>
<polygon stroke="#f559a0" stroke-width="5" fill="#0fa6d8" opacity="0.4949228427077794" stroke-opacity="0.4532785113920195" transform="rotate(-141.0 400 300)" points="290 312 529 236 211 84 558 196 413 147 357 66 681 315 "></polygon>
<path stroke="#02eb6b" stroke-width="1" fill="#0fa6d8" opacity="0.3752888951899296" stroke-opacity="0.506564824303891" transform="rotate(69.0 400 300)" d="M 614,421  C 120,346 436,499 580,345 C 504,399 175,425 503,433 C 563,416 639,311 607,104 C 308,416 583,451 550,135 C 685,432 193,380 581,360 C 176,199 235,485 186,112 Z"></path>

  </g>
</svg>
