<svg xmlns="http://www.w3.org/2000/svg" xmlns:xlink="http://www.w3.org/1999/xlink" width="800" height="600" version="1.1" viewBox="0 0 800 600"><g fill="none" fill-rule="evenodd" stroke="none" stroke-width="1"><polygon fill="#02eb6b" stroke="#2cd3f3" stroke-opacity=".452" stroke-width="4" points="407 522 449 375 638 151 653 517 767 87 172 474 279 254 644 324" opacity=".415" transform="rotate(75.0 400 300)"/><ellipse cx="719" cy="550" fill="#02eb6b" stroke="#2cd3f3" stroke-opacity=".954" stroke-width="1" opacity=".698" rx="55" ry="302" transform="rotate(47.0 400 300)"/><rect width="299" height="226" x="612" y="208" fill="#fe9225" stroke="#f559a0" stroke-opacity=".404" stroke-width="3" opacity=".626" transform="rotate(27.0 400 300)"/><ellipse cx="630" cy="380" fill="#02eb6b" stroke="#2cd3f3" stroke-opacity=".449" stroke-width="6" opacity=".475" rx="115" ry="177" transform="rotate(75.0 400 300)"/><polygon fill="#fe9225" stroke="#fe9225" stroke-opacity=".854" stroke-width="4" points="767 535 94 539 144 587 436 164 546 31" opacity=".563" transform="rotate(9.0 400 300)"/><rect width="387" height="149" x="201" y="119" fill="#0fa6d8" stroke="#fe9225" stroke-opacity=".021" stroke-width="7" opacity=".221" transform="rotate(20.0 400 300)"/><polygon fill="#fe9225" stroke="#2cd3f3" stroke-opacity=".828" stroke-width="7" points="691 453 33 460 168 509 131 277 650 140 454 188 424 244" opacity=".05" transform="rotate(-119.0 400 300)"/><ellipse cx="89" cy="596" fill="#0fa6d8" stroke="#fe9225" stroke-opacity=".866" stroke-width="4" opacity=".208" rx="401" ry="137" transform="rotate(6.0 400 300)"/><polygon fill="#0fa6d8" stroke="#f559a0" stroke-opacity=".453" stroke-width="5" points="290 312 529 236 211 84 558 196 413 147 357 66 681 315" opacity=".495" transform="rotate(-141.0 400 300)"/><path fill="#0fa6d8" stroke="#02eb6b" stroke-opacity=".507" stroke-width="1" d="M 614,421 C 120,346 436,499 580,345 C 504,399 175,425 503,433 C 563,416 639,311 607,104 C 308,416 583,451 550,135 C 685,432 193,380 581,360 C 176,199 235,485 186,112 Z" opacity=".375" transform="rotate(69.0 400 300)"/></g></svg>