<svg xmlns="http://www.w3.org/2000/svg" xmlns:xlink="http://www.w3.org/1999/xlink" width="800" height="600" version="1.1" viewBox="0 0 800 600"><g fill="none" fill-rule="evenodd" stroke="none" stroke-width="1"><path fill="#8682C3" stroke="#1B427D" stroke-opacity=".546" stroke-width="5" d="M 116,372 C 635,206 493,358 583,239 C 164,473 624,166 503,422 C 677,442 110,191 450,117 C 518,393 216,238 162,311 C 659,191 615,112 612,267 C 336,113 517,297 575,368 C 450,379 418,476 180,422 C 224,260 542,158 124,365 C 230,148 558,499 114,111 C 247,204 676,138 434,140 C 205,191 494,403 188,386 Z" opacity=".312" transform="rotate(-106.0 400 300)"/><rect width="345" height="265" x="158" y="311" fill="#AAAD4B" stroke="#1D25DB" stroke-opacity=".144" stroke-width="7" opacity=".062" transform="rotate(-14.0 400 300)"/><ellipse cx="34" cy="239" fill="#C31687" stroke="#D43D48" stroke-opacity=".425" stroke-width="6" opacity=".239" rx="36" ry="219" transform="rotate(-147.0 400 300)"/><path fill="#B9C217" stroke="#A22669" stroke-opacity=".675" stroke-width="6" d="M 117,353 C 497,205 464,165 251,468 C 183,187 490,465 171,463 C 420,166 486,168 677,371 C 328,430 299,136 110,420 C 319,318 166,246 220,118 C 224,494 497,215 192,167 Z" opacity=".849" transform="rotate(152.0 400 300)"/><ellipse cx="307" cy="399" fill="#912091" stroke="#BC5CB5" stroke-opacity=".27" stroke-width="2" opacity=".968" rx="63" ry="141" transform="rotate(129.0 400 300)"/><path fill="#A8A58D" stroke="#34164D" stroke-opacity=".042" stroke-width="7" d="M 373,396 C 258,453 348,239 447,350 C 123,469 453,144 152,255 C 313,371 628,324 418,246 C 260,238 291,453 104,262 C 202,492 153,458 383,120 C 416,294 339,314 692,416 C 627,412 599,104 700,121 C 564,264 203,482 538,175 C 399,499 308,145 375,325 C 435,142 398,240 510,380 Z" opacity=".844" transform="rotate(79.0 400 300)"/></g></svg>