<?xml version="1.0" encoding="UTF-8"?>
<svg width="800px" height="600px" viewBox="0 0 800 600" version="1.1" xmlns="http://www.w3.org/2000/svg" xmlns:xlink="http://www.w3.org/1999/xlink">
  <defs></defs>
  <g stroke="none" stroke-width="1" fill="none" fill-rule="evenodd">
    
    <path stroke="#2b55f7" stroke-width="7" fill="#ed2b2c" opacity="0.7750805471184253" stroke-opacity="0.31214322940011713" transform="rotate(158.0 400 300)" d="M 110,192  C 516,161 263,452 148,129 C 632,385 273,269 195,371 C 204,377 151,288 156,195 C 443,129 372,405 671,199 C 626,174 115,418 215,343 C 163,307 649,336 371,364 C 647,216 404,119 302,445 Z"></path>
<path stroke="#f9d84b" stroke-width="4" fill="#2b55f7" opacity="0.9539344243137312" stroke-opacity="0.7292049532633426" transform="rotate(110.0 400 300)" d="M 582,200  C 512,206 114,325 449,295 C 526,299 274,365 290,350 C 565,407 511,136 211,101 C 404,129 150,300 486,392 C 169,182 685,403 125,304 C 349,234 643,256 326,378 C 237,298 500,188 281,401 C 247,469 240,211 560,401 C 458,432 641,338 245,283 C 690,122 570,485 436,451 C 425,359 195,320 330,184 Z"></path>
<path stroke="#2b55f7" stroke-width="6" fill="#31a06b" opacity="0.47303161904459373" stroke-opacity="0.05825495498834775" transform="rotate(-41.0 400 300)" d="M 573,470  C 579,181 565,337 414,195 C 504,376 134,320 692,356 C 119,445 232,274 353,221 C 224,196 236,406 431,195 C 192,387 352,424 382,227 C 104,412 273,281 455,454 C 519,229 146,159 308,239 C 221,297 486,256 503,442 C 115,131 194,112 367,247 C 241,220 215,248 660,417 C 577,376 559,492 619,276 Z"></path>
<path stroke="#f9d84b" stroke-width="4" fill="#f27630" opacity="0.02469797674260103" stroke-opacity="0.7667591184278616" transform="rotate(155.0 400 300)" d="M 314,407  C 202,444 289,467 686,407 C 459,209 495,147 543,112 C 148,350 448,413 699,183 C 379,374 425,110 482,392 C 128,167 373,140 582,346 C 263,285 143,405 493,264 C 440,371 227,349 130,214 C 630,157 470,123 608,379 C 685,231 212,426 129,395 Z"></path>
<path stroke="#f9d84b" stroke-width="5" fill="#2b55f7" opacity="0.7527419537343696" stroke-opacity="0.3900785607343786" transform="rotate(91.0 400 300)" d="M 190,317  C 482,190 558,336 235,241 C 628,174 133,189 527,208 C 259,310 537,223 618,313 C 429,307 441,273 367,315 C 113,377 331,218 567,461 C 574,191 246,370 209,184 C 544,234 225,292 568,428 C 271,312 276,250 386,477 C 159,404 515,470 409,225 Z"></path>
<path stroke="#f27630" stroke-width="4" fill="#f27630" opacity="0.9798615614825711" stroke-opacity="0.434729607178967" transform="rotate(-151.0 400 300)" d="M 349,452  C 623,275 600,474 195,186 C 285,482 697,494 367,335 C 407,128 674,380 483,445 C 141,290 279,147 621,389 C 300,456 572,287 331,237 C 639,188 545,253 316,421 C 270,254 324,173 640,310 C 219,438 666,408 407,214 C 696,203 264,372 252,134 Z"></path>
<path stroke="#f27630" stroke-width="1" fill="#f9d84b" opacity="0.6341258985570694" stroke-opacity="0.41227898220337245" transform="rotate(109.0 400 300)" d="M 590,145  C 570,104 544,371 353,281 C 619,207 617,467 586,430 C 441,141 556,292 398,193 C 164,196 334,248 370,118 C 481,204 189,274 472,196 C 524,485 187,307 315,268 C 620,490 318,163 670,186 C 614,367 611,208 424,115 C 206,396 551,298 653,376 Z"></path>

  </g>
</svg>
