<svg xmlns="http://www.w3.org/2000/svg" xmlns:xlink="http://www.w3.org/1999/xlink" width="800" height="600" version="1.1" viewBox="0 0 800 600"><g fill="none" fill-rule="evenodd" stroke="none" stroke-width="1"><path fill="#A0C1D7" stroke="#0B8683" stroke-opacity=".289" stroke-width="3" d="M 372,199 C 327,319 164,461 359,195 C 322,440 653,444 191,343 C 186,315 373,112 434,254 C 312,430 371,183 668,441 C 203,223 279,226 372,375 C 397,215 434,155 451,158 C 399,460 611,188 623,296 C 491,457 149,335 267,331 C 274,489 342,359 294,395 C 593,225 166,218 122,456 Z" opacity=".615" transform="rotate(-20.0 400 300)"/><path fill="#A40576" stroke="#4CC15C" stroke-opacity=".787" stroke-width="4" d="M 244,339 C 539,437 113,393 547,456 C 280,334 320,113 165,254 C 546,233 493,231 320,287 C 154,235 403,290 346,196 C 481,134 609,480 203,104 Z" opacity=".178" transform="rotate(134.0 400 300)"/><path fill="#B6BC94" stroke="#A3930B" stroke-opacity=".988" stroke-width="3" d="M 587,256 C 254,252 291,493 482,418 C 495,377 465,426 571,412 C 375,153 277,479 246,338 C 653,486 257,384 259,442 C 587,283 522,428 561,165 C 407,408 486,191 230,353 C 296,150 569,453 310,367 Z" opacity=".435" transform="rotate(170.0 400 300)"/><path fill="#8816C2" stroke="#26257C" stroke-opacity=".255" stroke-width="5" d="M 485,389 C 352,357 456,188 245,302 C 446,255 650,122 508,405 C 298,170 349,329 418,431 C 481,250 382,173 387,424 C 580,409 199,115 689,213 Z" opacity=".18" transform="rotate(64.0 400 300)"/><path fill="#DD479A" stroke="#A53D38" stroke-opacity=".394" stroke-width="4" d="M 266,480 C 457,258 431,159 286,410 C 276,229 573,310 423,314 C 452,145 182,186 395,381 C 400,283 227,179 532,340 C 630,291 432,423 504,497 C 194,237 394,206 111,391 C 591,336 489,168 184,409 C 173,277 466,278 378,355 C 699,202 510,304 473,335 C 424,181 590,371 471,239 C 436,156 438,116 454,353 Z" opacity=".99" transform="rotate(139.0 400 300)"/><path fill="#44C9C8" stroke="#419887" stroke-opacity=".288" stroke-width="5" d="M 660,265 C 569,162 227,199 160,295 C 635,426 135,209 154,395 C 394,371 620,328 433,433 C 378,170 676,424 696,135 C 350,380 189,391 686,483 C 426,113 522,471 357,425 C 340,412 415,279 667,369 C 342,281 696,109 277,203 Z" opacity=".769" transform="rotate(135.0 400 300)"/></g></svg>