<?xml version="1.0" encoding="UTF-8"?>
<svg width="800px" height="600px" viewBox="0 0 800 600" version="1.1" xmlns="http://www.w3.org/2000/svg" xmlns:xlink="http://www.w3.org/1999/xlink">
  <defs></defs>
  <g stroke="none" stroke-width="1" fill="none" fill-rule="evenodd">
    
    <rect stroke="#02eb6b" stroke-width="4" fill="#0fa6d8" opacity="0.3145735700026012" stroke-opacity="0.5449109112242957" transform="rotate(65.0 400 300)" x="435" y="308" width="129" height="28"></rect>
<path stroke="#fe9225" stroke-width="4" fill="#fe9225" opacity="0.0826201707967632" stroke-opacity="0.6622099399422046" transform="rotate(-113.0 400 300)" d="M 597,186  C 244,123 364,232 351,120 C 152,342 212,461 145,388 C 322,341 373,200 643,305 C 318,412 403,434 135,128 C 563,196 673,358 232,352 C 244,190 359,222 139,423 Z"></path>
<ellipse stroke="#0fa6d8" stroke-width="6" fill="#f559a0" opacity="0.07840755946403796" stroke-opacity="0.15208051223409144" transform="rotate(151.0 400 300)" cx="341" rx="372" cy="163" ry="61"></ellipse>
<ellipse stroke="#02eb6b" stroke-width="1" fill="#fe9225" opacity="0.28348309498264057" stroke-opacity="0.2439049297722977" transform="rotate(37.0 400 300)" cx="599" rx="142" cy="329" ry="128"></ellipse>
<path stroke="#0fa6d8" stroke-width="7" fill="#fe9225" opacity="0.1402110116582098" stroke-opacity="0.8620690580048732" transform="rotate(19.0 400 300)" d="M 605,389  C 128,203 469,319 552,459 C 616,308 192,188 393,380 C 236,472 468,141 288,403 C 594,231 523,338 177,448 Z"></path>
<rect stroke="#2cd3f3" stroke-width="1" fill="#02eb6b" opacity="0.04273435602823994" stroke-opacity="0.8685538828369408" transform="rotate(86.0 400 300)" x="182" y="211" width="291" height="330"></rect>
<ellipse stroke="#f559a0" stroke-width="1" fill="#0fa6d8" opacity="0.5915060524934227" stroke-opacity="0.9842533542555073" transform="rotate(141.0 400 300)" cx="623" rx="232" cy="474" ry="313"></ellipse>
<ellipse stroke="#0fa6d8" stroke-width="3" fill="#f559a0" opacity="0.17142501377767722" stroke-opacity="0.3472729913416364" transform="rotate(15.0 400 300)" cx="708" rx="252" cy="273" ry="203"></ellipse>

  </g>
</svg>
