<svg xmlns="http://www.w3.org/2000/svg" xmlns:xlink="http://www.w3.org/1999/xlink" width="800" height="600" version="1.1" viewBox="0 0 800 600"><g fill="none" fill-rule="evenodd" stroke="none" stroke-width="1"><rect width="129" height="28" x="435" y="308" fill="#0fa6d8" stroke="#02eb6b" stroke-opacity=".545" stroke-width="4" opacity=".315" transform="rotate(65.0 400 300)"/><path fill="#fe9225" stroke="#fe9225" stroke-opacity=".662" stroke-width="4" d="M 597,186 C 244,123 364,232 351,120 C 152,342 212,461 145,388 C 322,341 373,200 643,305 C 318,412 403,434 135,128 C 563,196 673,358 232,352 C 244,190 359,222 139,423 Z" opacity=".083" transform="rotate(-113.0 400 300)"/><ellipse cx="341" cy="163" fill="#f559a0" stroke="#0fa6d8" stroke-opacity=".152" stroke-width="6" opacity=".078" rx="372" ry="61" transform="rotate(151.0 400 300)"/><ellipse cx="599" cy="329" fill="#fe9225" stroke="#02eb6b" stroke-opacity=".244" stroke-width="1" opacity=".283" rx="142" ry="128" transform="rotate(37.0 400 300)"/><path fill="#fe9225" stroke="#0fa6d8" stroke-opacity=".862" stroke-width="7" d="M 605,389 C 128,203 469,319 552,459 C 616,308 192,188 393,380 C 236,472 468,141 288,403 C 594,231 523,338 177,448 Z" opacity=".14" transform="rotate(19.0 400 300)"/><rect width="291" height="330" x="182" y="211" fill="#02eb6b" stroke="#2cd3f3" stroke-opacity=".869" stroke-width="1" opacity=".043" transform="rotate(86.0 400 300)"/><ellipse cx="623" cy="474" fill="#0fa6d8" stroke="#f559a0" stroke-opacity=".984" stroke-width="1" opacity=".592" rx="232" ry="313" transform="rotate(141.0 400 300)"/><ellipse cx="708" cy="273" fill="#f559a0" stroke="#0fa6d8" stroke-opacity=".347" stroke-width="3" opacity=".171" rx="252" ry="203" transform="rotate(15.0 400 300)"/></g></svg>