<?xml version="1.0" encoding="UTF-8"?>
<svg width="800px" height="600px" viewBox="0 0 800 600" version="1.1" xmlns="http://www.w3.org/2000/svg" xmlns:xlink="http://www.w3.org/1999/xlink">
  <defs></defs>
  <g stroke="none" stroke-width="1" fill="none" fill-rule="evenodd">
    
    <path stroke="#0fa6d8" stroke-width="1" fill="#fe9225" opacity="0.3960211830172174" stroke-opacity="0.05428425696438105" transform="rotate(107.0 400 300)" d="M 287,415  C 323,120 280,210 451,263 C 432,338 396,202 364,415 C 406,211 477,320 665,434 C 321,198 381,151 537,313 C 243,480 323,259 231,352 C 674,279 495,281 155,331 Z"></path>
<path stroke="#fe9225" stroke-width="2" fill="#f559a0" opacity="0.4372233200240566" stroke-opacity="0.6613550527585068" transform="rotate(147.0 400 300)" d="M 228,194  C 417,162 682,233 205,465 C 277,178 141,444 398,461 C 442,386 123,115 645,459 C 207,149 374,120 119,489 C 223,168 508,191 302,496 C 101,199 349,126 407,438 C 526,320 566,437 421,483 C 671,329 252,455 348,400 C 496,265 302,251 647,440 C 338,500 183,409 627,452 Z"></path>
<path stroke="#02eb6b" stroke-width="5" fill="#2cd3f3" opacity="0.7017672088503196" stroke-opacity="0.9905738551410935" transform="rotate(-116.0 400 300)" d="M 329,466  C 658,380 150,374 354,350 C 339,369 169,309 558,358 C 386,271 375,291 233,224 C 648,168 681,268 237,155 C 421,209 658,218 583,369 C 502,285 355,329 557,124 Z"></path>
<path stroke="#2cd3f3" stroke-width="1" fill="#0fa6d8" opacity="0.9513118467910541" stroke-opacity="0.6371542308445945" transform="rotate(-86.0 400 300)" d="M 535,452  C 305,275 415,289 559,214 C 179,380 338,173 404,298 C 191,452 317,283 439,424 C 259,406 454,177 422,348 C 597,469 103,377 417,262 C 673,407 668,340 319,335 C 433,252 228,434 594,149 Z"></path>
<path stroke="#fe9225" stroke-width="3" fill="#f559a0" opacity="0.6432469330054176" stroke-opacity="0.5469548497964541" transform="rotate(137.0 400 300)" d="M 225,139  C 436,429 407,440 175,277 C 239,114 180,182 401,261 C 190,173 381,372 254,256 C 209,341 498,381 688,299 C 694,345 535,288 678,246 C 396,124 261,177 310,383 C 646,415 675,399 438,347 C 413,284 225,164 604,159 Z"></path>
<path stroke="#fe9225" stroke-width="6" fill="#2cd3f3" opacity="0.01898742328894325" stroke-opacity="0.2803625369647945" transform="rotate(16.0 400 300)" d="M 278,389  C 287,268 220,448 592,156 C 514,472 352,187 215,240 C 175,237 129,426 418,500 C 134,409 416,239 136,141 C 635,119 370,118 250,312 C 631,167 333,341 150,292 Z"></path>
<path stroke="#0fa6d8" stroke-width="5" fill="#0fa6d8" opacity="0.4259875133817993" stroke-opacity="0.32696762276549185" transform="rotate(79.0 400 300)" d="M 409,227  C 118,175 638,108 214,113 C 610,115 612,374 483,487 C 195,453 599,169 340,482 C 180,354 586,484 262,419 C 674,295 166,183 617,460 Z"></path>
<path stroke="#0fa6d8" stroke-width="5" fill="#0fa6d8" opacity="0.3417449340162117" stroke-opacity="0.3425121131608303" transform="rotate(64.0 400 300)" d="M 250,378  C 588,360 305,199 216,112 C 550,383 331,458 167,255 C 198,146 449,368 321,447 C 213,302 636,345 669,287 C 310,404 580,148 633,360 C 204,303 208,103 236,319 C 650,141 442,139 545,393 C 218,457 364,233 645,428 Z"></path>
<path stroke="#0fa6d8" stroke-width="3" fill="#02eb6b" opacity="0.25441712081248363" stroke-opacity="0.044658488927997876" transform="rotate(-60.0 400 300)" d="M 492,273  C 557,264 276,458 543,466 C 381,399 102,252 272,141 C 168,291 302,462 653,460 C 559,408 280,215 593,219 C 202,109 374,245 232,488 C 176,115 291,253 496,490 C 434,299 200,151 438,284 C 685,176 618,121 487,324 C 270,429 384,246 230,496 C 456,150 201,310 197,173 C 231,166 213,449 112,430 Z"></path>
<path stroke="#2cd3f3" stroke-width="3" fill="#0fa6d8" opacity="0.9918561396099658" stroke-opacity="0.8870351551263996" transform="rotate(-95.0 400 300)" d="M 486,183  C 281,441 415,397 192,343 C 517,351 545,160 404,155 C 157,157 202,111 172,158 C 174,104 552,428 318,193 C 354,265 628,476 243,316 C 247,203 543,191 400,154 C 146,354 569,450 384,119 C 443,422 137,269 177,150 C 340,295 274,414 600,358 Z"></path>

  </g>
</svg>
