<?xml version="1.0" encoding="UTF-8"?>
<svg width="800px" height="600px" viewBox="0 0 800 600" version="1.1" xmlns="http://www.w3.org/2000/svg" xmlns:xlink="http://www.w3.org/1999/xlink">
  <defs></defs>
  <g stroke="none" stroke-width="1" fill="none" fill-rule="evenodd">
    
    <path stroke="#90108C" stroke-width="1" fill="#244871" opacity="0.7182095955627121" stroke-opacity="0.11208694446277885" transform="rotate(152.0 400 300)" d="M 126,381  C 476,335 568,462 690,142 C 653,350 676,440 589,315 C 340,259 410,345 594,415 C 689,172 553,115 183,284 C 446,353 164,116 222,358 C 494,315 205,340 396,154 C 471,157 285,358 505,335 Z"></path>
<path stroke="#57DA20" stroke-width="5" fill="#45B036" opacity="0.5100841699410376" stroke-opacity="0.4517551726774887" transform="rotate(82.0 400 300)" d="M 413,424  C 644,176 620,179 159,295 C 217,152 129,363 521,169 C 292,165 396,180 414,165 C 584,240 385,368 443,178 C 244,486 491,407 677,255 C 159,275 330,260 454,237 C 425,367 666,416 427,455 C 334,231 271,471 446,240 C 390,384 109,108 366,137 C 613,259 487,424 434,244 Z"></path>
<path stroke="#431A27" stroke-width="1" fill="#7D7558" opacity="0.15467306816763693" stroke-opacity="0.3755292504197139" transform="rotate(-29.0 400 300)" d="M 331,490  C 331,331 126,303 432,216 C 318,187 609,381 340,434 C 348,494 399,320 266,326 C 488,195 148,177 562,297 C 201,239 210,126 137,306 C 226,231 119,438 635,130 C 603,222 243,268 488,484 C 563,370 651,380 254,357 C 546,229 256,209 681,213 C 293,488 600,345 414,261 C 216,294 585,182 429,373 Z"></path>
<path stroke="#6BB6C5" stroke-width="7" fill="#36C978" opacity="0.8897676030525802" stroke-opacity="0.9668325248332965" transform="rotate(142.0 400 300)" d="M 201,388  C 275,172 464,250 215,176 C 402,368 365,252 314,473 C 510,391 425,312 316,200 C 455,143 517,257 644,231 Z"></path>
<path stroke="#4A3B58" stroke-width="4" fill="#55A2C0" opacity="0.3838264350705497" stroke-opacity="0.07624339411067477" transform="rotate(81.0 400 300)" d="M 299,494  C 457,360 449,220 228,244 C 167,222 230,255 286,356 C 573,472 158,368 243,300 C 144,439 629,245 682,103 C 294,456 531,378 617,348 C 481,462 505,132 295,422 C 310,331 106,216 631,182 Z"></path>
<path stroke="#7AC1B6" stroke-width="3" fill="#8BB72C" opacity="0.5842935479310485" stroke-opacity="0.0632398241887545" transform="rotate(-4.0 400 300)" d="M 683,124  C 464,396 105,491 364,209 C 218,261 341,140 333,207 C 148,153 436,421 539,152 C 416,226 496,174 444,198 C 593,402 430,376 624,306 C 446,264 119,472 524,431 Z"></path>

  </g>
</svg>
