<?xml version="1.0" encoding="UTF-8"?>
<svg width="800px" height="600px" viewBox="0 0 800 600" version="1.1" xmlns="http://www.w3.org/2000/svg" xmlns:xlink="http://www.w3.org/1999/xlink">
  <defs></defs>
  <g stroke="none" stroke-width="1" fill="none" fill-rule="evenodd">
    
    <path stroke="#0fa6d8" stroke-width="5" fill="#fe9225" opacity="0.31163231205170966" stroke-opacity="0.3073523626365776" transform="rotate(-86.0 400 300)" d="M 231,317  C 198,459 437,103 187,498 C 185,305 545,354 205,288 C 416,316 653,244 522,418 C 696,138 257,419 159,469 Z"></path>
<path stroke="#fe9225" stroke-width="2" fill="#f559a0" opacity="0.9891428214450353" stroke-opacity="0.8126582905665434" transform="rotate(57.0 400 300)" d="M 320,377  C 615,132 272,461 218,140 C 479,121 299,159 219,486 C 535,416 145,233 409,371 C 103,463 264,142 478,443 C 579,317 349,191 695,441 C 324,442 109,192 636,217 C 286,384 341,492 340,222 C 254,453 146,125 223,235 Z"></path>
<path stroke="#fe9225" stroke-width="1" fill="#fe9225" opacity="0.8678251924522219" stroke-opacity="0.1167000971734059" transform="rotate(-107.0 400 300)" d="M 227,275  C 383,327 519,111 380,495 C 282,115 431,289 279,292 C 162,227 111,203 291,371 C 656,250 148,388 101,438 C 238,237 305,366 473,107 C 289,116 447,412 571,138 Z"></path>
<path stroke="#2cd3f3" stroke-width="3" fill="#2cd3f3" opacity="0.3372496742495139" stroke-opacity="0.03740239230608244" transform="rotate(-65.0 400 300)" d="M 610,391  C 499,429 206,230 315,210 C 487,247 359,310 559,358 C 273,387 461,410 680,422 C 444,455 300,435 674,125 C 573,229 499,209 322,364 Z"></path>
<path stroke="#2cd3f3" stroke-width="3" fill="#f559a0" opacity="0.04707687675649232" stroke-opacity="0.338562939666428" transform="rotate(-151.0 400 300)" d="M 263,352  C 293,109 534,264 383,344 C 245,486 645,419 418,297 C 569,333 571,183 637,176 C 417,371 470,489 425,370 C 310,139 561,133 636,469 C 465,211 365,196 637,350 C 244,458 211,267 144,351 C 643,165 380,199 539,500 C 114,136 184,161 126,350 C 109,416 509,420 470,465 C 634,123 261,291 392,198 Z"></path>
<path stroke="#2cd3f3" stroke-width="5" fill="#f559a0" opacity="0.9256866116350112" stroke-opacity="0.9805208194927972" transform="rotate(-135.0 400 300)" d="M 624,409  C 235,440 130,284 206,330 C 173,226 607,307 453,185 C 686,416 156,174 226,318 C 626,411 396,212 415,263 C 610,116 288,361 166,469 C 556,327 335,158 310,142 C 396,230 278,458 496,422 Z"></path>
<path stroke="#2cd3f3" stroke-width="7" fill="#02eb6b" opacity="0.939044679451481" stroke-opacity="0.13958837510623726" transform="rotate(146.0 400 300)" d="M 155,491  C 367,379 109,319 428,200 C 564,358 132,136 396,223 C 333,103 449,375 619,198 C 507,462 556,223 314,260 C 211,255 228,359 664,332 C 149,152 566,223 519,313 C 143,111 597,467 656,384 C 331,464 548,485 582,205 Z"></path>
<path stroke="#0fa6d8" stroke-width="7" fill="#fe9225" opacity="0.5063884272808973" stroke-opacity="0.8659793982671921" transform="rotate(8.0 400 300)" d="M 372,461  C 120,104 513,355 639,147 C 417,484 649,317 338,170 C 135,282 391,377 425,473 C 692,391 644,473 230,133 C 591,227 367,201 690,493 C 331,204 377,465 128,368 C 401,406 392,424 132,294 Z"></path>
<path stroke="#02eb6b" stroke-width="5" fill="#2cd3f3" opacity="0.1995386768882315" stroke-opacity="0.5404700692342996" transform="rotate(50.0 400 300)" d="M 466,309  C 363,309 624,145 284,231 C 499,178 431,120 441,345 C 306,339 625,327 466,399 C 178,147 214,359 270,485 C 434,254 462,296 413,163 C 323,117 587,461 126,242 C 559,486 429,331 542,421 C 677,404 328,294 146,247 C 589,404 312,397 502,478 C 619,334 553,166 484,446 C 565,144 419,259 555,234 Z"></path>

  </g>
</svg>
