<svg xmlns="http://www.w3.org/2000/svg" xmlns:xlink="http://www.w3.org/1999/xlink" width="800" height="600" version="1.1" viewBox="0 0 800 600"><g fill="none" fill-rule="evenodd" stroke="none" stroke-width="1"><polygon fill="#31a06b" stroke="#2b55f7" stroke-opacity=".078" stroke-width="4" points="218 495 399 508 263 76 760 221 383 532" opacity=".966" transform="rotate(-1.0 400 300)"/><ellipse cx="74" cy="500" fill="#31a06b" stroke="#ed2b2c" stroke-opacity=".552" stroke-width="2" opacity=".28" rx="43" ry="244" transform="rotate(130.0 400 300)"/><path fill="#ed2b2c" stroke="#f27630" stroke-opacity=".357" stroke-width="7" d="M 589,164 C 406,348 535,295 307,500 C 595,297 402,236 224,332 C 544,327 112,396 187,264 C 314,343 458,422 338,244 Z" opacity=".254" transform="rotate(2.0 400 300)"/><ellipse cx="670" cy="466" fill="#ed2b2c" stroke="#f27630" stroke-opacity=".506" stroke-width="5" opacity=".071" rx="155" ry="270" transform="rotate(97.0 400 300)"/><polygon fill="#f9d84b" stroke="#ed2b2c" stroke-opacity=".406" stroke-width="7" points="356 473 381 323 62 29 451 126 35 278 391 204" opacity=".105" transform="rotate(98.0 400 300)"/><polygon fill="#f27630" stroke="#f27630" stroke-opacity=".986" stroke-width="7" points="438 449 297 357 283 133 161 398 197 483" opacity=".982" transform="rotate(-176.0 400 300)"/><path fill="#ed2b2c" stroke="#2b55f7" stroke-opacity=".194" stroke-width="1" d="M 495,179 C 247,169 658,399 182,110 C 204,368 672,179 520,384 C 530,406 559,231 646,389 C 222,225 128,304 264,436 C 228,161 432,419 338,381 C 639,170 565,469 375,289 C 558,160 315,177 474,296 C 367,195 457,421 695,383 C 393,445 131,454 195,363 C 656,436 340,446 353,279 C 638,140 227,450 333,168 Z" opacity=".301" transform="rotate(107.0 400 300)"/></g></svg>