<?xml version="1.0" encoding="UTF-8"?>
<svg width="800px" height="600px" viewBox="0 0 800 600" version="1.1" xmlns="http://www.w3.org/2000/svg" xmlns:xlink="http://www.w3.org/1999/xlink">
  <defs></defs>
  <g stroke="none" stroke-width="1" fill="none" fill-rule="evenodd">
    
    <polygon stroke="#2b55f7" stroke-width="4" fill="#31a06b" opacity="0.9664766269345181" stroke-opacity="0.07816498702158824" transform="rotate(-1.0 400 300)" points="218 495 399 508 263 76 760 221 383 532 "></polygon>
<ellipse stroke="#ed2b2c" stroke-width="2" fill="#31a06b" opacity="0.27970189318996586" stroke-opacity="0.5523614349174698" transform="rotate(130.0 400 300)" cx="74" rx="43" cy="500" ry="244"></ellipse>
<path stroke="#f27630" stroke-width="7" fill="#ed2b2c" opacity="0.25418527511627753" stroke-opacity="0.3571506445422889" transform="rotate(2.0 400 300)" d="M 589,164  C 406,348 535,295 307,500 C 595,297 402,236 224,332 C 544,327 112,396 187,264 C 314,343 458,422 338,244 Z"></path>
<ellipse stroke="#f27630" stroke-width="5" fill="#ed2b2c" opacity="0.07061953953881862" stroke-opacity="0.5063684429723906" transform="rotate(97.0 400 300)" cx="670" rx="155" cy="466" ry="270"></ellipse>
<polygon stroke="#ed2b2c" stroke-width="7" fill="#f9d84b" opacity="0.10534392482395386" stroke-opacity="0.4057798589199083" transform="rotate(98.0 400 300)" points="356 473 381 323 62 29 451 126 35 278 391 204 "></polygon>
<polygon stroke="#f27630" stroke-width="7" fill="#f27630" opacity="0.9821396994585355" stroke-opacity="0.985762316020043" transform="rotate(-176.0 400 300)" points="438 449 297 357 283 133 161 398 197 483 "></polygon>
<path stroke="#2b55f7" stroke-width="1" fill="#ed2b2c" opacity="0.3013984821889717" stroke-opacity="0.19415691769951077" transform="rotate(107.0 400 300)" d="M 495,179  C 247,169 658,399 182,110 C 204,368 672,179 520,384 C 530,406 559,231 646,389 C 222,225 128,304 264,436 C 228,161 432,419 338,381 C 639,170 565,469 375,289 C 558,160 315,177 474,296 C 367,195 457,421 695,383 C 393,445 131,454 195,363 C 656,436 340,446 353,279 C 638,140 227,450 333,168 Z"></path>

  </g>
</svg>
