<?xml version="1.0" encoding="UTF-8"?>
<svg width="800px" height="600px" viewBox="0 0 800 600" version="1.1" xmlns="http://www.w3.org/2000/svg" xmlns:xlink="http://www.w3.org/1999/xlink">
  <defs></defs>
  <g stroke="none" stroke-width="1" fill="none" fill-rule="evenodd">
    
    <path stroke="#ed2b2c" stroke-width="7" fill="#ed2b2c" opacity="0.5155409108098262" stroke-opacity="0.5529462404771613" transform="rotate(-62.0 400 300)" d="M 217,314  C 277,341 681,118 689,296 C 532,450 159,186 480,204 C 376,163 224,146 686,241 C 110,271 487,265 430,412 C 246,225 487,242 591,151 C 640,311 123,387 694,409 Z"></path>
<path stroke="#f9d84b" stroke-width="4" fill="#31a06b" opacity="0.547066979240444" stroke-opacity="0.8446364504460193" transform="rotate(-110.0 400 300)" d="M 394,111  C 595,104 619,453 495,160 C 453,121 446,233 151,397 C 323,228 173,189 496,490 C 157,393 648,390 542,290 Z"></path>
<path stroke="#ed2b2c" stroke-width="6" fill="#ed2b2c" opacity="0.946532342108516" stroke-opacity="0.03160706073665046" transform="rotate(118.0 400 300)" d="M 621,126  C 375,380 166,111 457,124 C 498,119 539,482 384,307 C 370,304 357,496 239,495 C 304,105 638,326 274,199 C 636,373 678,391 161,412 C 480,143 204,108 205,354 C 420,493 602,148 405,165 C 523,210 466,176 676,221 C 371,407 352,152 334,490 C 236,412 685,264 696,366 C 664,289 349,171 581,218 Z"></path>
<path stroke="#f9d84b" stroke-width="4" fill="#2b55f7" opacity="0.6307035547089463" stroke-opacity="0.9519140829173126" transform="rotate(-49.0 400 300)" d="M 401,472  C 204,232 199,412 160,193 C 170,305 214,365 166,201 C 172,353 663,252 225,157 C 143,350 675,415 323,435 C 415,409 223,168 689,177 Z"></path>
<path stroke="#f9d84b" stroke-width="7" fill="#f27630" opacity="0.4074654754963083" stroke-opacity="0.3541993349515802" transform="rotate(-131.0 400 300)" d="M 579,205  C 370,227 139,188 273,413 C 648,172 260,131 448,372 C 286,122 614,422 213,459 C 272,401 196,177 289,452 C 223,382 262,158 210,122 C 289,182 387,456 412,456 C 639,427 172,130 414,158 C 137,408 241,446 486,168 C 267,383 232,317 500,141 C 126,315 522,281 101,147 C 589,431 383,375 265,248 Z"></path>
<path stroke="#31a06b" stroke-width="4" fill="#2b55f7" opacity="0.7344500945743254" stroke-opacity="0.9822437454030074" transform="rotate(-91.0 400 300)" d="M 586,246  C 659,171 673,467 449,431 C 677,467 602,127 300,491 C 147,227 486,158 659,265 C 138,113 550,437 521,318 Z"></path>
<path stroke="#2b55f7" stroke-width="2" fill="#f27630" opacity="0.20502976122833239" stroke-opacity="0.4391211276944425" transform="rotate(-118.0 400 300)" d="M 327,113  C 644,209 110,423 482,247 C 378,428 591,497 577,490 C 198,479 642,217 633,144 C 500,284 632,233 431,411 Z"></path>

  </g>
</svg>
