<svg xmlns="http://www.w3.org/2000/svg" xmlns:xlink="http://www.w3.org/1999/xlink" width="800" height="600" version="1.1" viewBox="0 0 800 600"><g fill="none" fill-rule="evenodd" stroke="none" stroke-width="1"><ellipse cx="178" cy="177" fill="#ed2b2c" stroke="#f9d84b" stroke-opacity=".692" stroke-width="6" opacity=".492" rx="255" ry="252" transform="rotate(133.0 400 300)"/><path fill="#f27630" stroke="#2b55f7" stroke-opacity=".606" stroke-width="7" d="M 416,255 C 303,349 445,276 619,398 C 521,349 391,349 245,341 C 645,452 353,268 631,153 C 263,155 681,373 341,220 C 209,126 337,169 552,442 C 309,186 294,266 211,138 C 346,210 690,215 421,272 C 226,500 189,404 606,249 Z" opacity=".997" transform="rotate(111.0 400 300)"/><polygon fill="#f27630" stroke="#2b55f7" stroke-opacity=".34" stroke-width="1" points="619 406 83 331 752 425 401 420 618 128 551 187" opacity=".073" transform="rotate(14.0 400 300)"/><polygon fill="#ed2b2c" stroke="#ed2b2c" stroke-opacity=".442" stroke-width="4" points="45 95 206 578 504 339 641 546 32 26 239 125 75 454 763 165" opacity=".249" transform="rotate(-7.0 400 300)"/><polygon fill="#f27630" stroke="#2b55f7" stroke-opacity=".818" stroke-width="4" points="724 272 69 92 657 434 592 306 94 367" opacity=".286" transform="rotate(35.0 400 300)"/><polygon fill="#f9d84b" stroke="#ed2b2c" stroke-opacity=".02" stroke-width="3" points="790 327 228 474 399 111 284 219 742 163 700 168" opacity=".948" transform="rotate(-2.0 400 300)"/><rect width="239" height="94" x="317" y="597" fill="#2b55f7" stroke="#f27630" stroke-opacity=".733" stroke-width="3" opacity=".034" transform="rotate(-114.0 400 300)"/></g></svg>