<svg xmlns="http://www.w3.org/2000/svg" xmlns:xlink="http://www.w3.org/1999/xlink" width="800" height="600" version="1.1" viewBox="0 0 800 600"><g fill="none" fill-rule="evenodd" stroke="none" stroke-width="1"><rect width="114" height="332" x="125" y="427" fill="#f27630" stroke="#f9d84b" stroke-opacity=".783" stroke-width="3" opacity=".478" transform="rotate(110.0 400 300)"/><polygon fill="#31a06b" stroke="#f27630" stroke-opacity=".745" stroke-width="3" points="143 455 368 412 47 116 115 110 526 144 151 263" opacity=".319" transform="rotate(169.0 400 300)"/><path fill="#31a06b" stroke="#31a06b" stroke-opacity=".244" stroke-width="4" d="M 334,385 C 550,449 553,235 250,255 C 262,217 146,251 112,179 C 661,372 687,212 553,262 C 122,313 420,177 314,391 C 235,422 265,152 499,308 C 692,133 434,280 686,437 C 311,304 172,310 312,349 C 510,369 197,486 485,103 Z" opacity=".16" transform="rotate(-30.0 400 300)"/><polygon fill="#f27630" stroke="#f27630" stroke-opacity=".759" stroke-width="4" points="440 377 80 355 782 558 470 284 459 113 350 481" opacity=".61" transform="rotate(-161.0 400 300)"/><rect width="362" height="225" x="232" y="390" fill="#f9d84b" stroke="#ed2b2c" stroke-opacity=".448" stroke-width="1" opacity=".504" transform="rotate(139.0 400 300)"/><ellipse cx="371" cy="11" fill="#2b55f7" stroke="#f27630" stroke-opacity=".282" stroke-width="3" opacity=".218" rx="442" ry="131" transform="rotate(-140.0 400 300)"/><ellipse cx="540" cy="468" fill="#f9d84b" stroke="#31a06b" stroke-opacity=".733" stroke-width="3" opacity=".144" rx="162" ry="254" transform="rotate(122.0 400 300)"/><path fill="#31a06b" stroke="#31a06b" stroke-opacity=".98" stroke-width="5" d="M 362,378 C 644,427 531,358 184,311 C 683,263 453,152 695,255 C 409,298 552,442 454,110 C 300,211 356,137 685,326 C 359,454 458,329 660,165 C 216,291 293,488 496,199 C 544,327 687,236 593,400 Z" opacity=".964" transform="rotate(-176.0 400 300)"/><polygon fill="#ed2b2c" stroke="#ed2b2c" stroke-opacity=".463" stroke-width="1" points="356 55 537 163 724 532 365 27 610 254 21 442 299 216" opacity=".067" transform="rotate(131.0 400 300)"/></g></svg>