<svg xmlns="http://www.w3.org/2000/svg" xmlns:xlink="http://www.w3.org/1999/xlink" width="800" height="600" version="1.1" viewBox="0 0 800 600"><g fill="none" fill-rule="evenodd" stroke="none" stroke-width="1"><path fill="#38D425" stroke="#BA022A" stroke-opacity=".618" stroke-width="3" d="M 234,466 C 135,295 444,263 441,158 C 355,450 154,486 129,313 C 547,125 669,158 150,133 C 183,371 259,177 259,333 C 426,124 356,262 557,212 C 235,267 197,182 222,265 C 250,303 161,428 333,286 Z" opacity=".245" transform="rotate(139.0 400 300)"/><path fill="#DB7B94" stroke="#DB7076" stroke-opacity=".341" stroke-width="4" d="M 638,273 C 267,140 114,404 566,474 C 548,149 603,437 529,367 C 523,282 517,197 607,311 C 288,123 383,129 226,302 C 629,123 369,181 478,490 C 544,270 293,389 355,493 C 450,225 684,422 257,114 Z" opacity=".586" transform="rotate(-119.0 400 300)"/><path fill="#7946A4" stroke="#53B5CA" stroke-opacity=".76" stroke-width="1" d="M 299,196 C 201,287 608,477 209,228 C 227,389 665,287 599,119 C 325,222 396,267 682,498 C 700,184 511,180 215,198 C 497,135 470,458 467,136 C 206,237 454,347 588,122 C 554,334 700,450 461,167 C 290,237 571,337 331,205 C 529,225 368,111 425,321 C 416,398 501,181 212,248 Z" opacity=".857" transform="rotate(33.0 400 300)"/><path fill="#0CD72A" stroke="#549C10" stroke-opacity=".89" stroke-width="2" d="M 291,225 C 454,146 376,301 392,129 C 328,364 347,295 105,241 C 401,269 356,335 670,500 C 371,348 187,426 185,335 C 545,252 694,307 458,140 C 616,487 626,489 638,171 C 328,395 153,306 105,438 C 523,410 442,396 413,262 Z" opacity=".962" transform="rotate(87.0 400 300)"/><path fill="#7B4A76" stroke="#D24924" stroke-opacity=".044" stroke-width="4" d="M 402,235 C 628,422 295,340 318,327 C 309,337 300,179 614,274 C 472,398 635,375 307,440 C 634,172 602,208 499,392 Z" opacity=".545" transform="rotate(12.0 400 300)"/><path fill="#561473" stroke="#526093" stroke-opacity=".805" stroke-width="7" d="M 103,322 C 423,167 591,476 520,467 C 166,176 381,368 486,418 C 429,346 566,390 281,337 C 684,498 103,302 351,264 Z" opacity=".738" transform="rotate(72.0 400 300)"/><path fill="#4DDBA2" stroke="#782129" stroke-opacity=".274" stroke-width="2" d="M 694,142 C 247,294 611,144 492,197 C 201,416 590,235 532,394 C 540,325 261,205 255,189 C 527,493 431,308 438,293 C 491,290 694,182 499,369 C 326,171 192,208 478,402 C 391,357 433,269 669,434 C 204,410 394,236 425,405 Z" opacity=".541" transform="rotate(-127.0 400 300)"/><path fill="#614491" stroke="#012030" stroke-opacity=".015" stroke-width="2" d="M 493,219 C 254,388 221,444 565,440 C 672,303 583,271 435,416 C 107,276 356,462 182,166 C 163,144 130,491 170,259 Z" opacity=".25" transform="rotate(-127.0 400 300)"/></g></svg>