<svg xmlns="http://www.w3.org/2000/svg" xmlns:xlink="http://www.w3.org/1999/xlink" width="800" height="600" version="1.1" viewBox="0 0 800 600"><g fill="none" fill-rule="evenodd" stroke="none" stroke-width="1"><path fill="#02eb6b" stroke="#2cd3f3" stroke-opacity=".566" stroke-width="5" d="M 250,319 C 337,110 578,371 581,232 C 522,489 341,469 297,314 C 367,239 354,221 391,383 C 664,243 365,172 369,489 C 115,329 114,443 470,283 C 423,189 435,226 634,163 Z" opacity=".979" transform="rotate(-170.0 400 300)"/><path fill="#fe9225" stroke="#f559a0" stroke-opacity=".751" stroke-width="7" d="M 186,264 C 700,377 594,449 484,411 C 645,317 568,355 461,364 C 537,396 289,436 139,430 C 573,317 139,179 328,158 Z" opacity=".623" transform="rotate(29.0 400 300)"/><path fill="#02eb6b" stroke="#fe9225" stroke-opacity=".025" stroke-width="6" d="M 269,322 C 658,167 378,189 614,474 C 525,285 557,304 358,159 C 672,205 529,251 418,126 C 564,147 309,352 610,358 C 468,351 197,472 358,164 C 293,363 589,147 277,264 C 184,279 535,113 267,215 C 345,146 174,313 335,435 C 325,338 505,267 365,340 C 437,425 580,225 521,339 Z" opacity=".189" transform="rotate(-28.0 400 300)"/><path fill="#f559a0" stroke="#f559a0" stroke-opacity=".448" stroke-width="7" d="M 661,282 C 559,409 487,280 625,227 C 303,421 688,277 331,177 C 626,120 284,267 125,148 C 235,271 458,253 257,176 C 638,200 144,163 652,209 C 268,206 254,128 571,290 Z" opacity=".975" transform="rotate(-41.0 400 300)"/><path fill="#f559a0" stroke="#0fa6d8" stroke-opacity=".715" stroke-width="1" d="M 410,317 C 570,402 285,462 431,449 C 393,390 147,453 683,442 C 654,461 162,206 164,367 C 617,386 678,181 187,115 C 507,292 182,497 345,493 C 137,380 523,209 390,271 C 559,205 527,128 573,269 C 104,427 135,243 638,129 C 626,428 565,224 658,273 C 516,233 673,278 538,238 Z" opacity=".581" transform="rotate(-128.0 400 300)"/><path fill="#0fa6d8" stroke="#fe9225" stroke-opacity=".582" stroke-width="4" d="M 234,200 C 674,415 242,237 346,279 C 577,194 205,332 269,143 C 577,444 164,411 465,498 C 300,378 451,365 160,136 C 527,127 161,331 328,277 Z" opacity=".284" transform="rotate(-116.0 400 300)"/><path fill="#fe9225" stroke="#0fa6d8" stroke-opacity=".159" stroke-width="2" d="M 366,308 C 142,392 200,396 229,264 C 580,138 599,129 287,105 C 563,115 526,192 677,128 C 648,302 355,206 107,493 C 546,225 125,459 622,289 C 408,418 504,489 113,316 C 414,189 543,243 286,190 C 120,294 499,419 599,221 C 490,353 436,474 546,319 C 537,361 636,143 186,148 Z" opacity=".046" transform="rotate(176.0 400 300)"/><path fill="#02eb6b" stroke="#fe9225" stroke-opacity=".881" stroke-width="4" d="M 208,353 C 347,201 236,332 181,106 C 594,336 474,428 699,407 C 225,187 134,438 147,453 C 166,160 207,487 250,281 Z" opacity=".876" transform="rotate(-71.0 400 300)"/></g></svg>