<?xml version="1.0" encoding="UTF-8"?>
<svg width="800px" height="600px" viewBox="0 0 800 600" version="1.1" xmlns="http://www.w3.org/2000/svg" xmlns:xlink="http://www.w3.org/1999/xlink">
  <defs></defs>
  <g stroke="none" stroke-width="1" fill="none" fill-rule="evenodd">
    
    <path stroke="#f559a0" stroke-width="1" fill="#f559a0" opacity="0.9458045475354405" stroke-opacity="0.9583275008445877" transform="rotate(-99.0 400 300)" d="M 200,214  C 367,217 316,259 530,335 C 282,161 690,310 483,476 C 243,101 209,280 454,314 C 294,244 469,320 448,413 C 515,412 108,333 244,499 C 153,119 223,197 563,276 C 661,485 619,326 700,272 Z"></path>
<path stroke="#f559a0" stroke-width="6" fill="#2cd3f3" opacity="0.5854643284484199" stroke-opacity="0.6559698560866665" transform="rotate(3.0 400 300)" d="M 233,357  C 596,198 403,460 537,261 C 552,377 528,168 629,231 C 174,374 256,472 423,500 C 401,498 594,288 169,480 C 555,411 183,434 257,379 Z"></path>
<path stroke="#0fa6d8" stroke-width="2" fill="#f559a0" opacity="0.09149119175225567" stroke-opacity="0.6142592625719283" transform="rotate(34.0 400 300)" d="M 440,280  C 476,300 236,304 623,390 C 183,205 444,167 384,207 C 666,281 179,103 451,122 C 234,132 406,131 669,443 C 372,326 168,323 261,378 C 447,251 320,260 167,178 C 417,330 163,312 281,355 Z"></path>
<path stroke="#fe9225" stroke-width="1" fill="#2cd3f3" opacity="0.4635069591205392" stroke-opacity="0.8099897005936869" transform="rotate(-98.0 400 300)" d="M 677,444  C 374,380 184,284 402,272 C 242,174 431,246 580,331 C 647,159 105,135 358,343 C 360,163 446,255 107,202 C 264,275 160,143 365,136 C 378,330 398,444 522,146 C 397,202 176,314 299,234 C 356,123 289,103 333,484 C 619,438 425,476 419,493 C 436,411 534,393 387,229 Z"></path>
<path stroke="#2cd3f3" stroke-width="7" fill="#fe9225" opacity="0.8722876284253" stroke-opacity="0.32883462818279424" transform="rotate(-3.0 400 300)" d="M 462,439  C 355,154 566,315 316,488 C 667,357 418,373 303,128 C 544,395 452,417 216,413 C 602,122 677,189 322,255 C 226,291 553,486 237,240 C 579,256 604,139 532,183 C 315,401 665,324 574,224 C 470,117 330,420 536,196 C 658,109 570,451 695,369 Z"></path>
<path stroke="#2cd3f3" stroke-width="6" fill="#f559a0" opacity="0.9956600515459957" stroke-opacity="0.9850042850392529" transform="rotate(131.0 400 300)" d="M 212,249  C 112,169 351,430 406,224 C 333,376 574,138 382,489 C 555,448 598,364 592,327 C 153,182 195,254 253,314 Z"></path>
<path stroke="#f559a0" stroke-width="5" fill="#0fa6d8" opacity="0.2087574671432166" stroke-opacity="0.765608610856304" transform="rotate(34.0 400 300)" d="M 692,263  C 575,340 650,367 298,156 C 424,109 374,478 267,203 C 126,394 264,351 522,317 C 157,202 141,438 158,377 C 102,325 341,254 367,428 C 188,362 257,110 409,264 Z"></path>
<path stroke="#fe9225" stroke-width="1" fill="#0fa6d8" opacity="0.12238261127242295" stroke-opacity="0.9453593437363357" transform="rotate(38.0 400 300)" d="M 569,368  C 423,282 292,288 408,134 C 243,111 168,297 300,318 C 286,240 332,378 456,116 C 380,308 171,300 556,157 C 385,382 593,196 356,191 C 113,325 140,186 436,197 C 352,319 351,305 423,400 C 299,109 129,129 200,141 Z"></path>

  </g>
</svg>
