<svg xmlns="http://www.w3.org/2000/svg" xmlns:xlink="http://www.w3.org/1999/xlink" width="800" height="600" version="1.1" viewBox="0 0 800 600"><g fill="none" fill-rule="evenodd" stroke="none" stroke-width="1"><rect width="193" height="144" x="618" y="249" fill="#2cd3f3" stroke="#0fa6d8" stroke-opacity=".243" stroke-width="6" opacity=".432" transform="rotate(153.0 400 300)"/><polygon fill="#0fa6d8" stroke="#2cd3f3" stroke-opacity=".287" stroke-width="4" points="26 432 729 332 283 290 551 170 127 92 722 333" opacity=".26" transform="rotate(-17.0 400 300)"/><path fill="#2cd3f3" stroke="#0fa6d8" stroke-opacity=".704" stroke-width="4" d="M 240,434 C 695,220 270,340 184,327 C 495,390 301,462 270,223 C 558,371 161,134 134,333 C 571,419 526,312 188,366 C 134,256 272,472 119,132 C 601,395 427,317 219,314 C 506,298 420,102 282,190 C 681,186 160,203 469,226 C 144,212 444,150 250,464 C 403,344 177,208 397,500 C 430,416 310,138 470,383 Z" opacity=".719" transform="rotate(-32.0 400 300)"/><polygon fill="#f559a0" stroke="#fe9225" stroke-opacity=".614" stroke-width="5" points="298 49 57 441 653 318 215 508 388 193 749 147" opacity=".303" transform="rotate(81.0 400 300)"/><rect width="72" height="358" x="566" y="304" fill="#fe9225" stroke="#f559a0" stroke-opacity=".039" stroke-width="5" opacity=".524" transform="rotate(145.0 400 300)"/><path fill="#2cd3f3" stroke="#0fa6d8" stroke-opacity=".839" stroke-width="7" d="M 194,270 C 338,127 493,443 201,414 C 393,289 486,401 384,374 C 217,431 136,374 675,242 C 531,259 185,102 204,435 C 102,421 446,251 224,405 C 600,217 246,293 430,270 Z" opacity=".868" transform="rotate(85.0 400 300)"/><rect width="120" height="376" x="310" y="419" fill="#fe9225" stroke="#02eb6b" stroke-opacity=".694" stroke-width="5" opacity=".79" transform="rotate(7.0 400 300)"/><rect width="269" height="328" x="778" y="132" fill="#2cd3f3" stroke="#02eb6b" stroke-opacity=".331" stroke-width="6" opacity=".652" transform="rotate(-145.0 400 300)"/></g></svg>