<?xml version="1.0" encoding="UTF-8"?>
<svg width="800px" height="600px" viewBox="0 0 800 600" version="1.1" xmlns="http://www.w3.org/2000/svg" xmlns:xlink="http://www.w3.org/1999/xlink">
  <defs></defs>
  <g stroke="none" stroke-width="1" fill="none" fill-rule="evenodd">
    
    <rect stroke="#0fa6d8" stroke-width="6" fill="#2cd3f3" opacity="0.4317290691405994" stroke-opacity="0.24339390657252208" transform="rotate(153.0 400 300)" x="618" y="249" width="193" height="144"></rect>
<polygon stroke="#2cd3f3" stroke-width="4" fill="#0fa6d8" opacity="0.2595462849907207" stroke-opacity="0.2871845040333983" transform="rotate(-17.0 400 300)" points="26 432 729 332 283 290 551 170 127 92 722 333 "></polygon>
<path stroke="#0fa6d8" stroke-width="4" fill="#2cd3f3" opacity="0.7189929170565517" stroke-opacity="0.7043996678859292" transform="rotate(-32.0 400 300)" d="M 240,434  C 695,220 270,340 184,327 C 495,390 301,462 270,223 C 558,371 161,134 134,333 C 571,419 526,312 188,366 C 134,256 272,472 119,132 C 601,395 427,317 219,314 C 506,298 420,102 282,190 C 681,186 160,203 469,226 C 144,212 444,150 250,464 C 403,344 177,208 397,500 C 430,416 310,138 470,383 Z"></path>
<polygon stroke="#fe9225" stroke-width="5" fill="#f559a0" opacity="0.3025586813876897" stroke-opacity="0.6142216260317099" transform="rotate(81.0 400 300)" points="298 49 57 441 653 318 215 508 388 193 749 147 "></polygon>
<rect stroke="#f559a0" stroke-width="5" fill="#fe9225" opacity="0.5235261685583598" stroke-opacity="0.038639231605891375" transform="rotate(145.0 400 300)" x="566" y="304" width="72" height="358"></rect>
<path stroke="#0fa6d8" stroke-width="7" fill="#2cd3f3" opacity="0.8683974545083297" stroke-opacity="0.8394355657369361" transform="rotate(85.0 400 300)" d="M 194,270  C 338,127 493,443 201,414 C 393,289 486,401 384,374 C 217,431 136,374 675,242 C 531,259 185,102 204,435 C 102,421 446,251 224,405 C 600,217 246,293 430,270 Z"></path>
<rect stroke="#02eb6b" stroke-width="5" fill="#fe9225" opacity="0.7898561558854809" stroke-opacity="0.6938790549120457" transform="rotate(7.0 400 300)" x="310" y="419" width="120" height="376"></rect>
<rect stroke="#02eb6b" stroke-width="6" fill="#2cd3f3" opacity="0.6516372145257617" stroke-opacity="0.33138119259335874" transform="rotate(-145.0 400 300)" x="778" y="132" width="269" height="328"></rect>

  </g>
</svg>
