<svg xmlns="http://www.w3.org/2000/svg" xmlns:xlink="http://www.w3.org/1999/xlink" width="800" height="600" version="1.1" viewBox="0 0 800 600"><g fill="none" fill-rule="evenodd" stroke="none" stroke-width="1"><path fill="#02eb6b" stroke="#0fa6d8" stroke-opacity=".134" stroke-width="4" d="M 386,149 C 259,473 234,363 314,143 C 631,319 334,472 528,270 C 114,255 193,472 301,218 C 673,210 468,417 270,283 Z" opacity=".082" transform="rotate(-127.0 400 300)"/><path fill="#2cd3f3" stroke="#02eb6b" stroke-opacity=".773" stroke-width="7" d="M 395,121 C 288,172 343,179 613,230 C 332,251 407,281 305,302 C 569,441 425,222 638,133 C 205,448 425,189 196,414 Z" opacity=".704" transform="rotate(-89.0 400 300)"/><path fill="#02eb6b" stroke="#fe9225" stroke-opacity=".688" stroke-width="3" d="M 152,232 C 510,378 433,414 113,148 C 665,281 677,322 596,406 C 201,191 395,155 198,311 C 167,481 118,291 267,385 C 512,412 470,105 370,450 C 553,290 299,423 192,484 C 629,231 668,110 286,212 C 695,316 257,217 282,111 C 165,179 308,491 437,209 Z" opacity=".617" transform="rotate(-96.0 400 300)"/><path fill="#2cd3f3" stroke="#f559a0" stroke-opacity=".507" stroke-width="7" d="M 418,151 C 445,378 518,255 513,382 C 442,499 550,257 668,307 C 579,240 355,227 539,180 C 427,296 416,461 232,301 Z" opacity=".725" transform="rotate(-71.0 400 300)"/><path fill="#2cd3f3" stroke="#2cd3f3" stroke-opacity=".556" stroke-width="3" d="M 457,444 C 333,398 368,244 128,354 C 359,402 112,180 469,225 C 408,289 616,102 589,373 C 297,277 239,469 594,490 C 378,423 353,461 402,262 C 664,120 633,489 554,238 C 185,204 264,445 170,228 C 582,170 633,125 630,417 Z" opacity=".635" transform="rotate(34.0 400 300)"/><path fill="#0fa6d8" stroke="#0fa6d8" stroke-opacity=".718" stroke-width="1" d="M 638,449 C 497,394 146,210 353,311 C 350,284 582,264 424,132 C 160,483 343,492 668,381 C 698,307 500,470 331,208 C 646,239 216,244 583,362 Z" opacity=".024" transform="rotate(-175.0 400 300)"/></g></svg>