<svg xmlns="http://www.w3.org/2000/svg" xmlns:xlink="http://www.w3.org/1999/xlink" width="800" height="600" version="1.1" viewBox="0 0 800 600"><g fill="none" fill-rule="evenodd" stroke="none" stroke-width="1"><path fill="#2cd3f3" stroke="#02eb6b" stroke-opacity=".932" stroke-width="4" d="M 256,253 C 218,161 215,303 332,366 C 227,185 126,464 291,162 C 481,258 370,178 375,249 C 184,147 586,468 438,365 C 606,286 370,114 547,483 C 542,407 631,317 646,167 C 420,385 516,112 192,272 C 322,154 624,393 472,403 C 549,413 120,468 609,350 C 437,367 351,362 276,239 Z" opacity=".704" transform="rotate(-125.0 400 300)"/><ellipse cx="218" cy="228" fill="#f559a0" stroke="#02eb6b" stroke-opacity=".832" stroke-width="2" opacity=".785" rx="229" ry="149" transform="rotate(23.0 400 300)"/><ellipse cx="67" cy="515" fill="#fe9225" stroke="#02eb6b" stroke-opacity=".449" stroke-width="5" opacity=".659" rx="216" ry="119" transform="rotate(2.0 400 300)"/><polygon fill="#02eb6b" stroke="#fe9225" stroke-opacity=".075" stroke-width="5" points="559 288 524 84 425 595 379 567 159 172 188 521 143 509" opacity=".45" transform="rotate(30.0 400 300)"/><ellipse cx="579" cy="517" fill="#02eb6b" stroke="#f559a0" stroke-opacity=".702" stroke-width="5" opacity=".154" rx="365" ry="162" transform="rotate(106.0 400 300)"/><ellipse cx="411" cy="586" fill="#0fa6d8" stroke="#fe9225" stroke-opacity=".132" stroke-width="2" opacity=".927" rx="324" ry="84" transform="rotate(-68.0 400 300)"/><ellipse cx="638" cy="585" fill="#f559a0" stroke="#fe9225" stroke-opacity=".213" stroke-width="3" opacity=".308" rx="351" ry="90" transform="rotate(-50.0 400 300)"/><path fill="#f559a0" stroke="#02eb6b" stroke-opacity=".778" stroke-width="2" d="M 696,245 C 524,225 303,250 588,195 C 487,274 523,211 117,164 C 458,144 572,139 382,140 C 453,469 469,291 515,487 C 169,319 521,251 394,457 C 539,266 201,416 633,465 Z" opacity=".013" transform="rotate(36.0 400 300)"/><path fill="#2cd3f3" stroke="#0fa6d8" stroke-opacity=".722" stroke-width="3" d="M 461,345 C 369,417 561,145 239,403 C 694,107 154,285 263,460 C 161,362 262,274 633,323 C 643,439 161,461 640,310 C 163,167 623,149 137,488 C 554,369 276,323 555,391 Z" opacity=".854" transform="rotate(77.0 400 300)"/><path fill="#0fa6d8" stroke="#0fa6d8" stroke-opacity=".784" stroke-width="3" d="M 654,323 C 664,157 120,404 693,424 C 300,281 271,214 143,328 C 160,289 356,377 594,343 C 278,266 620,331 386,131 C 114,405 382,356 363,102 C 219,203 368,439 212,338 C 687,389 570,213 244,240 C 679,195 287,446 192,168 Z" opacity=".312" transform="rotate(5.0 400 300)"/><ellipse cx="227" cy="174" fill="#02eb6b" stroke="#2cd3f3" stroke-opacity=".148" stroke-width="6" opacity=".278" rx="179" ry="169" transform="rotate(-176.0 400 300)"/></g></svg>