<svg xmlns="http://www.w3.org/2000/svg" xmlns:xlink="http://www.w3.org/1999/xlink" width="800" height="600" version="1.1" viewBox="0 0 800 600"><g fill="none" fill-rule="evenodd" stroke="none" stroke-width="1"><ellipse cx="470" cy="49" fill="#f27630" stroke="#f9d84b" stroke-opacity=".772" stroke-width="6" opacity=".027" rx="300" ry="277" transform="rotate(166.0 400 300)"/><rect width="363" height="70" x="586" y="343" fill="#f27630" stroke="#ed2b2c" stroke-opacity=".598" stroke-width="2" opacity=".71" transform="rotate(-64.0 400 300)"/><path fill="#ed2b2c" stroke="#ed2b2c" stroke-opacity=".732" stroke-width="1" d="M 606,192 C 247,369 184,413 649,403 C 651,378 255,224 653,248 C 693,109 567,188 628,158 C 167,115 485,160 551,104 C 213,365 416,260 664,240 C 612,110 156,360 625,114 C 456,257 605,167 593,304 C 518,450 307,382 534,128 Z" opacity=".485" transform="rotate(115.0 400 300)"/><path fill="#f27630" stroke="#ed2b2c" stroke-opacity=".76" stroke-width="7" d="M 240,469 C 488,271 654,276 384,304 C 685,195 514,437 138,412 C 523,269 537,226 329,493 C 432,203 537,461 529,480 C 608,459 670,359 594,313 Z" opacity=".149" transform="rotate(67.0 400 300)"/><polygon fill="#ed2b2c" stroke="#2b55f7" stroke-opacity=".255" stroke-width="6" points="23 514 21 183 509 211 112 287 224 506 37 386 373 179 587 587" opacity=".168" transform="rotate(-29.0 400 300)"/><polygon fill="#f9d84b" stroke="#f9d84b" stroke-opacity=".38" stroke-width="3" points="26 332 322 246 461 534 651 432 502 103 270 588 662 152" opacity=".943" transform="rotate(-24.0 400 300)"/><polygon fill="#f9d84b" stroke="#2b55f7" stroke-opacity=".679" stroke-width="7" points="120 403 516 453 440 409 288 595 425 77" opacity=".75" transform="rotate(-47.0 400 300)"/><polygon fill="#f27630" stroke="#2b55f7" stroke-opacity=".551" stroke-width="1" points="31 517 385 201 526 196 87 363 642 490 631 78 240 227 774 66" opacity=".135" transform="rotate(-174.0 400 300)"/><path fill="#31a06b" stroke="#ed2b2c" stroke-opacity=".487" stroke-width="2" d="M 375,436 C 552,303 618,299 362,316 C 191,223 500,436 241,227 C 375,159 649,477 442,250 C 621,464 620,288 282,500 C 306,479 586,334 696,371 C 470,202 221,197 484,199 C 630,178 507,389 240,158 C 240,497 294,356 391,351 Z" opacity=".012" transform="rotate(44.0 400 300)"/><ellipse cx="522" cy="35" fill="#ed2b2c" stroke="#31a06b" stroke-opacity=".534" stroke-width="3" opacity=".551" rx="412" ry="146" transform="rotate(167.0 400 300)"/><polygon fill="#f27630" stroke="#2b55f7" stroke-opacity=".745" stroke-width="2" points="181 231 594 114 300 580 561 318 340 473 103 251 706 357 365 180" opacity=".272" transform="rotate(15.0 400 300)"/></g></svg>