<svg xmlns="http://www.w3.org/2000/svg" xmlns:xlink="http://www.w3.org/1999/xlink" width="800" height="600" version="1.1" viewBox="0 0 800 600"><g fill="none" fill-rule="evenodd" stroke="none" stroke-width="1"><rect width="220" height="303" x="212" y="466" fill="#f27630" stroke="#31a06b" stroke-opacity=".62" stroke-width="1" opacity=".202" transform="rotate(127.0 400 300)"/><polygon fill="#f27630" stroke="#2b55f7" stroke-opacity=".517" stroke-width="4" points="388 417 500 347 193 357 337 415 624 78" opacity=".408" transform="rotate(134.0 400 300)"/><rect width="291" height="157" x="4" y="225" fill="#f27630" stroke="#f9d84b" stroke-opacity=".582" stroke-width="6" opacity=".789" transform="rotate(0.0 400 300)"/><polygon fill="#2b55f7" stroke="#31a06b" stroke-opacity=".511" stroke-width="6" points="729 198 762 444 369 40 732 294 758 118 623 180 681 304 466 458" opacity=".972" transform="rotate(-76.0 400 300)"/><path fill="#2b55f7" stroke="#2b55f7" stroke-opacity=".837" stroke-width="2" d="M 683,337 C 324,385 200,407 106,304 C 251,435 138,132 578,342 C 423,497 456,445 404,189 C 317,284 610,158 378,371 C 323,397 231,428 498,326 C 318,353 339,366 555,386 C 247,326 379,318 335,389 C 554,313 406,386 263,314 C 491,117 640,247 354,109 C 644,357 454,276 133,431 Z" opacity=".947" transform="rotate(-63.0 400 300)"/><polygon fill="#ed2b2c" stroke="#f27630" stroke-opacity=".859" stroke-width="6" points="399 85 227 488 503 560 251 105 239 146 83 396 428 280" opacity=".381" transform="rotate(-121.0 400 300)"/><polygon fill="#31a06b" stroke="#2b55f7" stroke-opacity=".746" stroke-width="5" points="300 342 172 431 432 194 229 346 514 394 461 254 325 473" opacity=".922" transform="rotate(-84.0 400 300)"/></g></svg>