<?xml version="1.0" encoding="UTF-8"?>
<svg width="800px" height="600px" viewBox="0 0 800 600" version="1.1" xmlns="http://www.w3.org/2000/svg" xmlns:xlink="http://www.w3.org/1999/xlink">
  <defs></defs>
  <g stroke="none" stroke-width="1" fill="none" fill-rule="evenodd">
    
    <rect stroke="#31a06b" stroke-width="1" fill="#f27630" opacity="0.20226364791100027" stroke-opacity="0.6196089422281577" transform="rotate(127.0 400 300)" x="212" y="466" width="220" height="303"></rect>
<polygon stroke="#2b55f7" stroke-width="4" fill="#f27630" opacity="0.40821468974695413" stroke-opacity="0.5170750729168834" transform="rotate(134.0 400 300)" points="388 417 500 347 193 357 337 415 624 78 "></polygon>
<rect stroke="#f9d84b" stroke-width="6" fill="#f27630" opacity="0.7886671829692469" stroke-opacity="0.5822079951616312" transform="rotate(0.0 400 300)" x="4" y="225" width="291" height="157"></rect>
<polygon stroke="#31a06b" stroke-width="6" fill="#2b55f7" opacity="0.972112386662774" stroke-opacity="0.5111074158731179" transform="rotate(-76.0 400 300)" points="729 198 762 444 369 40 732 294 758 118 623 180 681 304 466 458 "></polygon>
<path stroke="#2b55f7" stroke-width="2" fill="#2b55f7" opacity="0.9473678909842537" stroke-opacity="0.8367229184123625" transform="rotate(-63.0 400 300)" d="M 683,337  C 324,385 200,407 106,304 C 251,435 138,132 578,342 C 423,497 456,445 404,189 C 317,284 610,158 378,371 C 323,397 231,428 498,326 C 318,353 339,366 555,386 C 247,326 379,318 335,389 C 554,313 406,386 263,314 C 491,117 640,247 354,109 C 644,357 454,276 133,431 Z"></path>
<polygon stroke="#f27630" stroke-width="6" fill="#ed2b2c" opacity="0.38118025645429465" stroke-opacity="0.8590627027263439" transform="rotate(-121.0 400 300)" points="399 85 227 488 503 560 251 105 239 146 83 396 428 280 "></polygon>
<polygon stroke="#2b55f7" stroke-width="5" fill="#31a06b" opacity="0.9223486010174778" stroke-opacity="0.7455474609264884" transform="rotate(-84.0 400 300)" points="300 342 172 431 432 194 229 346 514 394 461 254 325 473 "></polygon>

  </g>
</svg>
