<svg xmlns="http://www.w3.org/2000/svg" xmlns:xlink="http://www.w3.org/1999/xlink" width="800" height="600" version="1.1" viewBox="0 0 800 600"><g fill="none" fill-rule="evenodd" stroke="none" stroke-width="1"><path fill="#f9d84b" stroke="#31a06b" stroke-opacity=".098" stroke-width="1" d="M 598,366 C 121,344 151,289 406,244 C 330,331 549,491 330,189 C 227,487 419,159 387,305 C 211,352 109,254 576,252 C 172,496 387,436 276,280 C 699,209 255,239 142,362 C 269,232 249,362 375,239 C 225,139 669,485 410,184 C 214,493 566,481 330,346 C 224,320 628,233 556,444 Z" opacity=".029" transform="rotate(-107.0 400 300)"/><path fill="#f27630" stroke="#f9d84b" stroke-opacity=".662" stroke-width="6" d="M 350,228 C 623,147 600,177 274,239 C 594,359 413,302 625,203 C 314,243 327,271 312,282 C 505,317 694,485 483,242 C 430,443 556,286 406,439 C 670,181 379,403 424,285 C 371,197 524,490 201,217 C 266,362 244,124 522,200 C 549,367 656,236 118,191 C 458,488 136,347 345,214 Z" opacity=".384" transform="rotate(-55.0 400 300)"/><path fill="#31a06b" stroke="#2b55f7" stroke-opacity=".053" stroke-width="4" d="M 459,438 C 425,296 478,289 460,481 C 449,115 363,106 382,374 C 280,422 230,403 424,260 C 402,437 591,208 603,404 C 244,319 117,186 309,426 C 598,158 215,266 414,354 C 512,389 543,232 382,338 C 168,181 602,435 315,200 C 434,376 165,448 203,181 Z" opacity=".015" transform="rotate(-50.0 400 300)"/><path fill="#31a06b" stroke="#31a06b" stroke-opacity=".407" stroke-width="5" d="M 511,428 C 178,180 313,460 445,188 C 670,402 372,309 639,220 C 615,141 410,161 223,290 C 613,364 644,430 624,125 Z" opacity=".17" transform="rotate(-8.0 400 300)"/><path fill="#f9d84b" stroke="#31a06b" stroke-opacity=".547" stroke-width="2" d="M 546,165 C 654,195 173,106 612,218 C 255,233 459,225 144,283 C 378,207 487,122 178,261 C 383,476 264,477 471,236 C 169,116 310,108 589,178 C 182,339 550,174 536,460 C 330,326 240,226 661,276 C 200,224 460,327 514,274 C 147,205 447,355 455,144 Z" opacity=".421" transform="rotate(-110.0 400 300)"/><path fill="#31a06b" stroke="#f9d84b" stroke-opacity=".901" stroke-width="3" d="M 176,394 C 387,118 622,398 523,387 C 161,325 677,278 175,450 C 369,395 261,419 492,187 C 646,321 297,316 124,328 C 364,337 225,107 312,187 C 152,355 574,357 625,136 Z" opacity=".257" transform="rotate(-106.0 400 300)"/><path fill="#31a06b" stroke="#2b55f7" stroke-opacity=".038" stroke-width="2" d="M 250,131 C 378,437 163,353 199,357 C 162,360 596,424 453,370 C 678,143 672,144 427,262 C 282,104 676,328 309,480 C 626,154 566,364 652,208 Z" opacity=".189" transform="rotate(126.0 400 300)"/><path fill="#31a06b" stroke="#ed2b2c" stroke-opacity=".169" stroke-width="5" d="M 274,408 C 305,297 424,264 537,236 C 230,140 325,112 539,304 C 221,439 497,184 164,458 C 553,500 617,302 658,345 Z" opacity=".488" transform="rotate(-137.0 400 300)"/></g></svg>