<?xml version="1.0" encoding="UTF-8"?>
<svg width="800px" height="600px" viewBox="0 0 800 600" version="1.1" xmlns="http://www.w3.org/2000/svg" xmlns:xlink="http://www.w3.org/1999/xlink">
  <defs></defs>
  <g stroke="none" stroke-width="1" fill="none" fill-rule="evenodd">
    
    <path stroke="#ed2b2c" stroke-width="7" fill="#ed2b2c" opacity="0.8719490396352206" stroke-opacity="0.4740271799979226" transform="rotate(-107.0 400 300)" d="M 226,279  C 117,480 394,328 540,288 C 495,228 520,358 248,366 C 588,485 414,450 332,252 C 116,338 384,107 332,294 C 400,126 349,127 390,281 C 499,423 509,453 627,228 C 687,352 433,459 551,406 C 464,278 691,113 171,408 C 353,102 421,348 252,344 Z"></path>
<rect stroke="#2b55f7" stroke-width="1" fill="#ed2b2c" opacity="0.17697199979197914" stroke-opacity="0.9488044749933843" transform="rotate(37.0 400 300)" x="474" y="304" width="110" height="300"></rect>
<polygon stroke="#31a06b" stroke-width="5" fill="#f9d84b" opacity="0.04510159464976339" stroke-opacity="0.416890810422609" transform="rotate(-124.0 400 300)" points="736 394 195 379 695 108 33 436 275 315 "></polygon>
<rect stroke="#f27630" stroke-width="6" fill="#f27630" opacity="0.01830823479501883" stroke-opacity="0.3183183384871362" transform="rotate(24.0 400 300)" x="671" y="375" width="183" height="255"></rect>
<polygon stroke="#f27630" stroke-width="1" fill="#f9d84b" opacity="0.2603363379273673" stroke-opacity="0.8314886073844284" transform="rotate(118.0 400 300)" points="35 257 354 598 172 92 285 152 491 420 639 267 712 222 677 353 "></polygon>
<polygon stroke="#ed2b2c" stroke-width="5" fill="#31a06b" opacity="0.39366233517660315" stroke-opacity="0.43434976099459843" transform="rotate(71.0 400 300)" points="746 120 17 5 171 255 348 456 19 77 386 560 766 577 "></polygon>
<ellipse stroke="#ed2b2c" stroke-width="2" fill="#f27630" opacity="0.5027465754851079" stroke-opacity="0.5226675025961802" transform="rotate(-114.0 400 300)" cx="732" rx="412" cy="548" ry="145"></ellipse>
<polygon stroke="#f27630" stroke-width="2" fill="#f27630" opacity="0.5913835829502628" stroke-opacity="0.5263615480276311" transform="rotate(-37.0 400 300)" points="141 470 83 397 217 453 757 303 441 462 514 355 33 214 "></polygon>
<polygon stroke="#f9d84b" stroke-width="6" fill="#f27630" opacity="0.5485608721842655" stroke-opacity="0.5270637506259858" transform="rotate(-36.0 400 300)" points="385 104 101 264 483 533 661 207 234 434 "></polygon>
<path stroke="#f9d84b" stroke-width="7" fill="#f27630" opacity="0.4943913988695463" stroke-opacity="0.3889217332951541" transform="rotate(141.0 400 300)" d="M 275,112  C 289,395 152,240 189,276 C 632,155 620,195 591,118 C 181,336 625,355 653,290 C 401,157 493,187 382,293 C 173,364 255,149 220,481 Z"></path>

  </g>
</svg>
