<svg xmlns="http://www.w3.org/2000/svg" xmlns:xlink="http://www.w3.org/1999/xlink" width="800" height="600" version="1.1" viewBox="0 0 800 600"><g fill="none" fill-rule="evenodd" stroke="none" stroke-width="1"><path fill="#ed2b2c" stroke="#ed2b2c" stroke-opacity=".474" stroke-width="7" d="M 226,279 C 117,480 394,328 540,288 C 495,228 520,358 248,366 C 588,485 414,450 332,252 C 116,338 384,107 332,294 C 400,126 349,127 390,281 C 499,423 509,453 627,228 C 687,352 433,459 551,406 C 464,278 691,113 171,408 C 353,102 421,348 252,344 Z" opacity=".872" transform="rotate(-107.0 400 300)"/><rect width="110" height="300" x="474" y="304" fill="#ed2b2c" stroke="#2b55f7" stroke-opacity=".949" stroke-width="1" opacity=".177" transform="rotate(37.0 400 300)"/><polygon fill="#f9d84b" stroke="#31a06b" stroke-opacity=".417" stroke-width="5" points="736 394 195 379 695 108 33 436 275 315" opacity=".045" transform="rotate(-124.0 400 300)"/><rect width="183" height="255" x="671" y="375" fill="#f27630" stroke="#f27630" stroke-opacity=".318" stroke-width="6" opacity=".018" transform="rotate(24.0 400 300)"/><polygon fill="#f9d84b" stroke="#f27630" stroke-opacity=".831" stroke-width="1" points="35 257 354 598 172 92 285 152 491 420 639 267 712 222 677 353" opacity=".26" transform="rotate(118.0 400 300)"/><polygon fill="#31a06b" stroke="#ed2b2c" stroke-opacity=".434" stroke-width="5" points="746 120 17 5 171 255 348 456 19 77 386 560 766 577" opacity=".394" transform="rotate(71.0 400 300)"/><ellipse cx="732" cy="548" fill="#f27630" stroke="#ed2b2c" stroke-opacity=".523" stroke-width="2" opacity=".503" rx="412" ry="145" transform="rotate(-114.0 400 300)"/><polygon fill="#f27630" stroke="#f27630" stroke-opacity=".526" stroke-width="2" points="141 470 83 397 217 453 757 303 441 462 514 355 33 214" opacity=".591" transform="rotate(-37.0 400 300)"/><polygon fill="#f27630" stroke="#f9d84b" stroke-opacity=".527" stroke-width="6" points="385 104 101 264 483 533 661 207 234 434" opacity=".549" transform="rotate(-36.0 400 300)"/><path fill="#f27630" stroke="#f9d84b" stroke-opacity=".389" stroke-width="7" d="M 275,112 C 289,395 152,240 189,276 C 632,155 620,195 591,118 C 181,336 625,355 653,290 C 401,157 493,187 382,293 C 173,364 255,149 220,481 Z" opacity=".494" transform="rotate(141.0 400 300)"/></g></svg>