<svg xmlns="http://www.w3.org/2000/svg" xmlns:xlink="http://www.w3.org/1999/xlink" width="800" height="600" version="1.1" viewBox="0 0 800 600"><g fill="none" fill-rule="evenodd" stroke="none" stroke-width="1"><path fill="#f559a0" stroke="#02eb6b" stroke-opacity=".484" stroke-width="3" d="M 621,288 C 379,252 144,485 456,344 C 111,118 451,447 516,162 C 316,164 236,212 675,375 C 554,447 589,326 635,107 Z" opacity=".132" transform="rotate(-58.0 400 300)"/><path fill="#0fa6d8" stroke="#fe9225" stroke-opacity=".357" stroke-width="7" d="M 517,120 C 493,441 374,419 339,187 C 311,241 475,290 355,453 C 328,418 160,199 696,122 C 120,217 663,271 655,415 C 297,148 102,466 260,316 C 667,103 264,358 587,356 Z" opacity=".993" transform="rotate(-152.0 400 300)"/><path fill="#02eb6b" stroke="#fe9225" stroke-opacity=".326" stroke-width="3" d="M 219,228 C 490,136 581,440 333,168 C 505,483 217,196 278,121 C 349,205 326,296 375,415 C 458,359 222,293 272,180 C 160,480 457,274 303,229 Z" opacity=".952" transform="rotate(108.0 400 300)"/><path fill="#2cd3f3" stroke="#0fa6d8" stroke-opacity=".819" stroke-width="1" d="M 429,219 C 479,377 480,423 354,232 C 420,197 550,346 385,478 C 166,360 643,485 441,352 C 700,338 495,137 616,371 C 671,457 360,340 630,257 C 639,354 636,427 222,183 C 188,285 163,209 284,490 C 602,304 103,106 404,217 Z" opacity=".582" transform="rotate(-22.0 400 300)"/><path fill="#2cd3f3" stroke="#02eb6b" stroke-opacity=".601" stroke-width="5" d="M 152,453 C 268,415 619,218 101,462 C 612,352 570,335 246,237 C 106,189 658,378 405,297 C 304,412 607,291 106,199 C 312,183 442,131 426,118 C 219,123 490,135 107,228 C 275,477 428,334 373,289 C 376,276 196,239 469,202 Z" opacity=".037" transform="rotate(-164.0 400 300)"/><path fill="#f559a0" stroke="#0fa6d8" stroke-opacity=".223" stroke-width="1" d="M 599,413 C 358,435 217,207 644,250 C 668,455 131,488 287,128 C 598,334 373,465 663,116 C 683,137 105,258 347,156 C 276,346 203,260 597,414 C 570,288 277,381 225,428 C 472,314 158,462 359,301 C 264,351 104,276 263,290 C 266,348 479,233 499,494 Z" opacity=".276" transform="rotate(-146.0 400 300)"/><path fill="#2cd3f3" stroke="#2cd3f3" stroke-opacity=".352" stroke-width="4" d="M 612,154 C 490,279 176,315 644,269 C 480,381 119,207 600,232 C 180,363 171,317 399,478 C 304,172 559,405 451,120 C 643,163 299,182 224,292 Z" opacity=".38" transform="rotate(87.0 400 300)"/><path fill="#fe9225" stroke="#fe9225" stroke-opacity=".436" stroke-width="7" d="M 372,269 C 373,210 222,321 592,364 C 230,437 351,243 136,442 C 491,500 350,318 261,266 C 372,211 421,365 121,394 C 266,248 635,460 348,385 Z" opacity=".291" transform="rotate(-29.0 400 300)"/><path fill="#0fa6d8" stroke="#fe9225" stroke-opacity=".356" stroke-width="6" d="M 221,395 C 488,309 528,261 106,104 C 572,193 546,440 460,270 C 632,202 197,138 102,495 C 627,363 619,377 463,365 C 451,150 522,272 241,487 C 462,280 439,359 220,150 C 520,443 102,289 155,420 C 610,320 446,238 384,278 C 627,450 476,133 675,373 C 568,382 633,352 615,244 Z" opacity=".021" transform="rotate(50.0 400 300)"/></g></svg>