<svg xmlns="http://www.w3.org/2000/svg" xmlns:xlink="http://www.w3.org/1999/xlink" width="800" height="600" version="1.1" viewBox="0 0 800 600"><g fill="none" fill-rule="evenodd" stroke="none" stroke-width="1"><path fill="#417909" stroke="#AD6994" stroke-opacity=".063" stroke-width="5" d="M 242,111 C 406,206 495,416 306,469 C 417,245 242,232 339,159 C 624,344 264,453 383,453 C 448,217 671,141 232,133 C 417,215 413,195 598,361 C 588,173 637,468 351,199 C 291,112 327,113 589,418 C 368,434 102,156 685,274 Z" opacity=".057" transform="rotate(-103.0 400 300)"/><path fill="#C44D47" stroke="#48D8BB" stroke-opacity=".044" stroke-width="6" d="M 518,367 C 661,314 461,162 201,494 C 185,314 319,155 271,294 C 682,200 580,183 665,394 C 276,308 649,482 553,187 C 691,141 597,341 189,368 C 218,141 696,170 665,372 C 177,491 396,305 461,127 C 392,421 107,226 340,371 C 610,179 607,424 627,133 C 678,287 185,242 687,424 Z" opacity=".336" transform="rotate(-125.0 400 300)"/><path fill="#2BC155" stroke="#D3D371" stroke-opacity=".469" stroke-width="3" d="M 470,392 C 454,427 630,130 414,439 C 271,374 281,255 314,385 C 305,262 394,210 307,288 C 135,325 665,408 237,341 C 316,479 258,408 115,459 C 290,219 634,137 513,374 C 263,224 424,427 535,352 C 259,270 698,241 492,161 C 160,345 294,294 345,111 Z" opacity=".806" transform="rotate(-53.0 400 300)"/><path fill="#47DC2C" stroke="#A269B6" stroke-opacity=".211" stroke-width="6" d="M 278,295 C 581,211 181,116 358,410 C 426,170 670,201 198,124 C 505,130 456,486 286,450 C 584,238 632,261 170,412 C 322,122 211,428 438,202 C 433,462 306,399 679,391 C 662,397 420,157 300,169 C 641,143 672,334 415,203 Z" opacity=".967" transform="rotate(-17.0 400 300)"/><path fill="#A65B52" stroke="#77957C" stroke-opacity=".659" stroke-width="1" d="M 589,171 C 186,395 198,346 474,410 C 405,363 212,200 463,232 C 320,341 540,278 624,231 C 194,383 240,218 307,448 C 194,154 455,423 622,183 C 571,186 671,359 255,449 C 153,226 697,109 662,236 C 278,343 459,308 239,444 Z" opacity=".233" transform="rotate(-115.0 400 300)"/><path fill="#D45549" stroke="#A8775C" stroke-opacity=".843" stroke-width="1" d="M 159,306 C 306,456 565,461 501,273 C 394,411 637,355 593,297 C 464,414 599,184 359,365 C 125,363 440,296 117,148 Z" opacity=".932" transform="rotate(133.0 400 300)"/><path fill="#35671A" stroke="#732626" stroke-opacity=".784" stroke-width="7" d="M 344,233 C 256,439 622,281 698,476 C 280,103 261,225 189,117 C 358,237 102,368 583,232 C 171,203 564,300 184,399 C 480,126 528,227 633,452 C 275,218 582,313 235,364 C 668,306 577,482 345,347 C 660,456 141,333 115,492 C 492,364 462,473 133,382 C 659,422 684,396 288,393 Z" opacity=".661" transform="rotate(105.0 400 300)"/><path fill="#BCAA59" stroke="#4612BD" stroke-opacity=".365" stroke-width="7" d="M 243,202 C 272,232 170,268 217,404 C 166,299 341,123 697,199 C 125,107 134,152 558,216 C 339,328 381,228 289,278 C 270,213 457,106 235,300 C 671,165 282,363 657,282 C 132,446 328,136 309,352 C 361,205 254,283 199,357 C 558,333 433,175 655,267 C 158,465 471,394 696,157 Z" opacity=".834" transform="rotate(-80.0 400 300)"/><path fill="#CA3540" stroke="#151512" stroke-opacity=".11" stroke-width="2" d="M 155,439 C 481,121 590,175 198,360 C 497,416 479,472 328,132 C 138,242 655,439 270,366 C 325,333 351,177 465,249 C 164,358 394,414 406,403 C 568,468 353,382 551,354 C 549,242 474,133 179,356 Z" opacity=".617" transform="rotate(41.0 400 300)"/><path fill="#3C861A" stroke="#1D6865" stroke-opacity=".12" stroke-width="3" d="M 234,328 C 675,401 595,410 267,143 C 280,318 268,382 419,354 C 234,372 542,140 616,267 C 525,389 104,145 163,282 C 182,436 329,471 402,327 C 283,386 217,379 591,236 C 216,110 383,325 533,458 C 491,403 515,456 258,376 C 261,308 548,168 582,413 C 399,277 522,238 224,179 Z" opacity=".419" transform="rotate(-111.0 400 300)"/><path fill="#92662B" stroke="#CA62A8" stroke-opacity=".599" stroke-width="5" d="M 561,411 C 232,154 194,217 670,385 C 642,420 102,279 231,478 C 649,279 315,404 182,322 C 225,104 389,289 208,157 C 273,199 156,413 697,108 C 293,338 614,343 548,378 C 202,309 150,247 115,344 C 382,239 110,455 642,120 C 473,388 133,491 228,157 C 432,322 693,342 277,349 C 376,341 455,142 612,201 Z" opacity=".999" transform="rotate(-92.0 400 300)"/></g></svg>