<svg xmlns="http://www.w3.org/2000/svg" xmlns:xlink="http://www.w3.org/1999/xlink" width="800" height="600" version="1.1" viewBox="0 0 800 600"><g fill="none" fill-rule="evenodd" stroke="none" stroke-width="1"><ellipse cx="171" cy="87" fill="#2b55f7" stroke="#f27630" stroke-opacity=".374" stroke-width="1" opacity=".343" rx="380" ry="177" transform="rotate(-109.0 400 300)"/><path fill="#31a06b" stroke="#ed2b2c" stroke-opacity=".796" stroke-width="3" d="M 509,235 C 530,271 323,109 672,444 C 488,115 404,251 373,336 C 610,245 697,206 370,495 C 694,303 260,158 102,343 C 564,435 520,174 463,215 C 363,168 414,210 351,263 C 322,228 568,312 348,308 Z" opacity=".046" transform="rotate(-144.0 400 300)"/><polygon fill="#f27630" stroke="#2b55f7" stroke-opacity=".164" stroke-width="5" points="458 258 237 83 724 595 489 267 389 218 246 300" opacity=".826" transform="rotate(133.0 400 300)"/><path fill="#31a06b" stroke="#2b55f7" stroke-opacity=".378" stroke-width="1" d="M 429,122 C 349,427 586,491 392,377 C 698,451 287,450 267,117 C 399,425 415,341 171,495 C 356,313 698,199 516,385 C 685,455 125,339 154,248 Z" opacity=".788" transform="rotate(69.0 400 300)"/><polygon fill="#f9d84b" stroke="#f9d84b" stroke-opacity=".077" stroke-width="1" points="351 404 456 470 799 321 67 296 293 188 741 311" opacity=".741" transform="rotate(124.0 400 300)"/><ellipse cx="149" cy="237" fill="#2b55f7" stroke="#2b55f7" stroke-opacity=".831" stroke-width="7" opacity=".197" rx="194" ry="334" transform="rotate(61.0 400 300)"/></g></svg>