<svg xmlns="http://www.w3.org/2000/svg" xmlns:xlink="http://www.w3.org/1999/xlink" width="800" height="600" version="1.1" viewBox="0 0 800 600"><g fill="none" fill-rule="evenodd" stroke="none" stroke-width="1"><path fill="#f9d84b" stroke="#2b55f7" stroke-opacity=".232" stroke-width="6" d="M 324,129 C 371,468 591,268 285,145 C 557,113 695,214 693,113 C 447,487 303,424 316,475 C 209,134 683,131 397,295 C 534,340 594,214 441,470 C 649,465 268,153 557,221 C 301,406 527,229 394,120 Z" opacity=".8" transform="rotate(95.0 400 300)"/><path fill="#2b55f7" stroke="#31a06b" stroke-opacity=".996" stroke-width="5" d="M 235,278 C 419,326 484,159 322,500 C 176,449 438,303 658,151 C 336,287 141,174 137,386 C 298,377 266,171 685,490 C 380,329 664,234 426,352 C 319,169 696,232 323,167 C 492,224 417,245 621,322 C 417,223 352,351 327,278 C 449,359 462,182 304,200 Z" opacity=".203" transform="rotate(37.0 400 300)"/><path fill="#31a06b" stroke="#31a06b" stroke-opacity=".565" stroke-width="6" d="M 638,216 C 613,396 513,321 544,251 C 105,181 220,256 140,396 C 480,249 284,232 328,163 C 371,350 586,474 190,449 C 382,389 169,153 208,164 C 618,145 607,325 315,185 C 334,376 305,274 695,196 Z" opacity=".244" transform="rotate(-95.0 400 300)"/><path fill="#f27630" stroke="#ed2b2c" stroke-opacity=".472" stroke-width="5" d="M 584,487 C 244,205 514,209 583,208 C 325,265 561,280 391,404 C 438,343 149,152 677,359 C 179,116 416,463 547,278 Z" opacity=".628" transform="rotate(-67.0 400 300)"/><path fill="#f9d84b" stroke="#31a06b" stroke-opacity=".991" stroke-width="3" d="M 437,267 C 586,114 213,293 682,437 C 521,248 689,284 176,309 C 569,324 664,485 438,419 C 643,284 216,101 533,365 C 659,436 433,387 639,440 C 652,236 355,415 617,269 C 564,157 395,430 247,263 C 204,410 398,209 571,276 Z" opacity=".435" transform="rotate(-159.0 400 300)"/><path fill="#f27630" stroke="#f9d84b" stroke-opacity=".912" stroke-width="3" d="M 396,353 C 544,334 316,318 158,115 C 596,462 270,476 353,141 C 615,413 615,398 236,104 C 632,442 587,400 341,331 C 167,318 644,184 214,449 Z" opacity=".475" transform="rotate(123.0 400 300)"/><path fill="#31a06b" stroke="#2b55f7" stroke-opacity=".932" stroke-width="5" d="M 373,306 C 103,157 361,456 104,138 C 248,493 119,333 336,102 C 307,163 452,485 483,445 C 401,246 277,325 316,253 C 456,474 406,474 674,257 C 162,234 594,106 132,277 C 646,373 103,260 363,402 C 587,102 591,149 249,105 C 145,344 586,481 445,191 C 119,361 597,255 566,283 Z" opacity=".688" transform="rotate(-173.0 400 300)"/><path fill="#f27630" stroke="#f9d84b" stroke-opacity=".201" stroke-width="1" d="M 238,211 C 278,106 381,249 345,212 C 557,412 311,210 303,450 C 261,261 678,333 241,291 C 339,315 547,427 311,291 C 360,248 318,362 700,169 C 236,223 335,454 497,420 C 581,141 466,131 619,323 Z" opacity=".666" transform="rotate(-87.0 400 300)"/></g></svg>