<svg xmlns="http://www.w3.org/2000/svg" xmlns:xlink="http://www.w3.org/1999/xlink" width="800" height="600" version="1.1" viewBox="0 0 800 600"><g fill="none" fill-rule="evenodd" stroke="none" stroke-width="1"><rect width="290" height="278" x="271" y="589" fill="#31a06b" stroke="#f9d84b" stroke-opacity=".514" stroke-width="4" opacity=".979" transform="rotate(-39.0 400 300)"/><path fill="#f27630" stroke="#f9d84b" stroke-opacity=".102" stroke-width="5" d="M 176,172 C 267,181 203,116 481,217 C 589,313 266,308 428,238 C 215,282 527,351 243,344 C 207,317 520,265 680,124 C 634,265 306,259 650,145 C 667,122 248,348 205,373 C 206,479 509,216 666,497 Z" opacity=".049" transform="rotate(-165.0 400 300)"/><polygon fill="#31a06b" stroke="#31a06b" stroke-opacity=".599" stroke-width="4" points="708 68 548 449 127 169 638 559 669 144 275 461 433 471 336 312" opacity=".41" transform="rotate(67.0 400 300)"/><rect width="136" height="268" x="700" y="136" fill="#2b55f7" stroke="#f27630" stroke-opacity=".616" stroke-width="5" opacity=".664" transform="rotate(-162.0 400 300)"/><polygon fill="#2b55f7" stroke="#2b55f7" stroke-opacity=".475" stroke-width="1" points="309 373 285 353 321 16 212 260 176 477 361 31 306 50" opacity=".081" transform="rotate(-70.0 400 300)"/><rect width="177" height="371" x="744" y="406" fill="#2b55f7" stroke="#2b55f7" stroke-opacity=".65" stroke-width="6" opacity=".823" transform="rotate(-121.0 400 300)"/><ellipse cx="331" cy="22" fill="#f9d84b" stroke="#f9d84b" stroke-opacity=".36" stroke-width="7" opacity=".088" rx="181" ry="50" transform="rotate(-131.0 400 300)"/><rect width="254" height="217" x="541" y="377" fill="#2b55f7" stroke="#31a06b" stroke-opacity=".567" stroke-width="1" opacity=".88" transform="rotate(96.0 400 300)"/><polygon fill="#2b55f7" stroke="#31a06b" stroke-opacity=".597" stroke-width="1" points="46 461 96 135 789 143 406 145 612 158" opacity=".396" transform="rotate(107.0 400 300)"/><ellipse cx="229" cy="38" fill="#ed2b2c" stroke="#31a06b" stroke-opacity=".705" stroke-width="6" opacity=".803" rx="299" ry="253" transform="rotate(-7.0 400 300)"/><polygon fill="#f9d84b" stroke="#f27630" stroke-opacity=".798" stroke-width="2" points="488 462 790 274 426 223 332 488 365 417 369 587 728 8" opacity=".35" transform="rotate(65.0 400 300)"/></g></svg>