<?xml version="1.0" encoding="UTF-8"?>
<svg width="800px" height="600px" viewBox="0 0 800 600" version="1.1" xmlns="http://www.w3.org/2000/svg" xmlns:xlink="http://www.w3.org/1999/xlink">
  <defs></defs>
  <g stroke="none" stroke-width="1" fill="none" fill-rule="evenodd">
    
    <path stroke="#fe9225" stroke-width="7" fill="#fe9225" opacity="0.045185072380146137" stroke-opacity="0.8312258251703856" transform="rotate(-87.0 400 300)" d="M 407,391  C 385,319 344,358 299,379 C 443,216 442,433 338,408 C 444,122 412,270 266,219 C 654,219 556,194 402,217 Z"></path>
<path stroke="#fe9225" stroke-width="6" fill="#02eb6b" opacity="0.5212952122684329" stroke-opacity="0.6308413047751193" transform="rotate(118.0 400 300)" d="M 482,373  C 257,257 625,209 626,175 C 557,102 623,325 363,221 C 444,477 238,260 387,421 C 468,464 420,419 598,191 C 410,118 442,359 419,369 C 480,162 101,388 275,451 Z"></path>
<path stroke="#fe9225" stroke-width="3" fill="#0fa6d8" opacity="0.46642305675482176" stroke-opacity="0.6814751094730038" transform="rotate(93.0 400 300)" d="M 366,157  C 694,182 693,483 315,424 C 247,476 183,133 346,211 C 168,343 489,225 221,272 C 595,131 510,327 154,140 Z"></path>
<path stroke="#fe9225" stroke-width="2" fill="#02eb6b" opacity="0.5170127577178695" stroke-opacity="0.1892785176339693" transform="rotate(-5.0 400 300)" d="M 133,299  C 153,206 472,240 235,133 C 564,409 420,206 335,155 C 119,421 607,486 127,150 C 243,120 649,305 470,415 C 361,364 142,109 397,294 C 377,210 413,190 345,262 C 320,256 448,264 105,185 C 282,486 423,234 120,194 C 128,327 483,164 671,128 C 681,217 224,174 171,499 Z"></path>
<path stroke="#02eb6b" stroke-width="7" fill="#2cd3f3" opacity="0.7949151099667132" stroke-opacity="0.16100900311872202" transform="rotate(0.0 400 300)" d="M 680,146  C 469,352 128,345 428,500 C 518,254 502,332 389,107 C 381,322 552,199 365,217 C 506,350 505,385 355,145 C 377,480 579,329 596,187 C 625,382 443,419 302,464 Z"></path>
<path stroke="#f559a0" stroke-width="7" fill="#2cd3f3" opacity="0.7329260606369912" stroke-opacity="0.19558349830954955" transform="rotate(82.0 400 300)" d="M 444,456  C 544,377 695,333 680,294 C 260,470 128,169 143,143 C 103,429 548,146 585,471 C 444,235 350,473 331,479 Z"></path>
<path stroke="#fe9225" stroke-width="5" fill="#fe9225" opacity="0.6920064994406049" stroke-opacity="0.2791874751171273" transform="rotate(-32.0 400 300)" d="M 111,150  C 664,352 297,291 672,118 C 527,347 657,483 419,188 C 349,489 296,267 491,422 C 168,178 624,326 253,488 C 206,245 188,332 353,337 C 644,464 441,454 243,107 C 531,353 595,481 116,161 C 626,319 434,135 224,116 C 423,216 445,195 649,118 Z"></path>

  </g>
</svg>
