<?xml version="1.0" encoding="UTF-8"?>
<svg width="800px" height="600px" viewBox="0 0 800 600" version="1.1" xmlns="http://www.w3.org/2000/svg" xmlns:xlink="http://www.w3.org/1999/xlink">
  <defs></defs>
  <g stroke="none" stroke-width="1" fill="none" fill-rule="evenodd">
    
    <path stroke="#2cd3f3" stroke-width="3" fill="#fe9225" opacity="0.8909044367191736" stroke-opacity="0.7649295452291205" transform="rotate(-169.0 400 300)" d="M 310,433  C 395,332 413,347 471,284 C 354,120 273,350 373,252 C 235,171 155,214 435,415 C 652,188 599,349 698,111 C 232,365 202,131 599,165 C 435,473 249,390 248,486 C 502,197 220,342 472,433 C 145,135 276,412 368,204 C 243,301 115,206 336,120 C 507,256 249,370 377,285 C 236,130 274,307 384,282 Z"></path>
<path stroke="#fe9225" stroke-width="5" fill="#0fa6d8" opacity="0.8622166726578153" stroke-opacity="0.30860457013705217" transform="rotate(147.0 400 300)" d="M 468,144  C 262,286 415,418 581,292 C 270,228 139,382 577,131 C 512,265 411,118 102,282 C 425,240 557,228 165,482 C 477,274 659,393 178,197 C 548,221 151,158 353,487 C 504,267 374,235 546,289 C 159,212 137,409 635,484 C 485,370 388,345 474,318 Z"></path>
<path stroke="#02eb6b" stroke-width="3" fill="#2cd3f3" opacity="0.9294128603919172" stroke-opacity="0.5568387558677871" transform="rotate(-11.0 400 300)" d="M 490,434  C 421,322 341,349 617,459 C 185,489 185,378 454,371 C 271,260 516,448 131,237 C 400,336 473,378 497,286 Z"></path>
<path stroke="#f559a0" stroke-width="7" fill="#0fa6d8" opacity="0.025270562466280726" stroke-opacity="0.2713560005112755" transform="rotate(168.0 400 300)" d="M 115,177  C 128,496 359,262 254,230 C 313,265 411,178 400,309 C 432,440 461,144 632,323 C 465,225 209,291 481,422 C 383,220 318,362 520,298 C 437,468 390,140 376,137 C 269,179 627,398 212,495 C 599,142 532,437 299,368 C 509,278 460,493 325,378 C 132,339 346,470 370,277 Z"></path>
<path stroke="#fe9225" stroke-width="2" fill="#f559a0" opacity="0.9207859502527789" stroke-opacity="0.028333773450601108" transform="rotate(116.0 400 300)" d="M 460,459  C 151,235 562,409 154,435 C 412,167 185,474 628,184 C 125,472 264,323 144,242 C 669,363 537,150 555,299 C 143,180 228,201 677,269 C 325,450 525,472 131,285 C 136,116 489,254 297,113 C 666,397 574,318 420,367 Z"></path>
<path stroke="#f559a0" stroke-width="6" fill="#f559a0" opacity="0.6584200898395206" stroke-opacity="0.3315134241204141" transform="rotate(-93.0 400 300)" d="M 319,297  C 249,369 555,283 485,408 C 287,325 537,460 106,424 C 651,265 333,123 697,111 C 311,276 472,164 186,294 C 284,498 491,185 124,265 C 300,361 635,318 334,468 C 351,389 502,424 600,209 C 541,208 176,385 473,300 C 205,481 451,260 147,163 C 273,281 617,374 475,165 Z"></path>

  </g>
</svg>
