<svg xmlns="http://www.w3.org/2000/svg" xmlns:xlink="http://www.w3.org/1999/xlink" width="800" height="600" version="1.1" viewBox="0 0 800 600"><g fill="none" fill-rule="evenodd" stroke="none" stroke-width="1"><path fill="#31a06b" stroke="#ed2b2c" stroke-opacity=".814" stroke-width="4" d="M 200,304 C 415,247 621,225 345,241 C 359,164 376,392 350,241 C 131,393 127,246 110,176 C 130,312 551,486 545,283 Z" opacity=".24" transform="rotate(-97.0 400 300)"/><path fill="#f9d84b" stroke="#ed2b2c" stroke-opacity=".699" stroke-width="5" d="M 414,485 C 680,374 437,394 220,453 C 288,356 123,275 159,357 C 302,186 149,467 187,187 C 484,360 481,284 338,148 C 291,368 222,492 611,261 C 606,114 684,467 164,129 C 440,421 415,141 121,282 C 125,271 639,496 312,104 Z" opacity=".469" transform="rotate(11.0 400 300)"/><path fill="#f27630" stroke="#31a06b" stroke-opacity=".93" stroke-width="7" d="M 580,362 C 393,172 281,352 249,243 C 613,472 244,352 202,468 C 229,361 569,271 105,453 C 156,394 275,393 283,277 C 505,141 658,107 397,477 Z" opacity=".605" transform="rotate(-166.0 400 300)"/><path fill="#ed2b2c" stroke="#31a06b" stroke-opacity=".936" stroke-width="4" d="M 628,137 C 536,170 224,494 419,489 C 276,349 372,245 692,430 C 364,306 650,155 591,290 C 534,294 256,317 372,240 C 571,176 430,378 525,425 C 103,167 432,359 435,272 C 645,159 220,210 149,436 C 657,238 536,171 464,288 C 184,254 192,389 243,344 C 438,102 531,401 414,364 C 331,383 286,310 499,296 Z" opacity=".835" transform="rotate(134.0 400 300)"/><path fill="#f27630" stroke="#2b55f7" stroke-opacity=".812" stroke-width="7" d="M 364,358 C 493,206 520,305 248,466 C 205,259 426,499 177,232 C 391,197 302,148 567,457 C 574,352 205,412 422,213 C 677,288 226,280 582,122 C 440,401 249,262 213,395 C 180,104 246,206 358,334 C 329,193 417,444 546,231 C 682,404 266,288 242,325 Z" opacity=".455" transform="rotate(-170.0 400 300)"/><path fill="#f27630" stroke="#31a06b" stroke-opacity=".03" stroke-width="2" d="M 500,405 C 653,106 641,214 214,284 C 461,120 697,433 189,289 C 106,332 361,394 425,269 C 513,243 205,291 354,186 Z" opacity=".483" transform="rotate(-77.0 400 300)"/><path fill="#f27630" stroke="#f27630" stroke-opacity=".416" stroke-width="1" d="M 253,405 C 553,351 440,121 362,226 C 227,481 503,144 355,383 C 654,319 679,189 344,482 C 684,388 605,310 529,343 C 604,127 111,102 133,237 C 658,342 186,115 697,314 C 308,266 407,149 457,378 Z" opacity=".291" transform="rotate(5.0 400 300)"/><path fill="#31a06b" stroke="#2b55f7" stroke-opacity=".012" stroke-width="7" d="M 454,347 C 698,247 464,332 475,295 C 698,129 457,431 334,294 C 578,219 477,146 382,358 C 208,145 472,130 487,174 C 649,324 222,495 439,407 C 575,186 365,458 123,463 Z" opacity=".104" transform="rotate(113.0 400 300)"/><path fill="#2b55f7" stroke="#2b55f7" stroke-opacity=".28" stroke-width="7" d="M 341,319 C 378,345 622,216 168,249 C 500,172 588,366 367,102 C 143,131 537,212 644,341 C 302,431 475,275 346,255 Z" opacity=".521" transform="rotate(-10.0 400 300)"/><path fill="#f27630" stroke="#2b55f7" stroke-opacity=".105" stroke-width="2" d="M 544,333 C 588,356 453,311 218,179 C 365,124 207,383 359,305 C 447,326 485,250 418,494 C 172,422 536,379 633,219 C 208,458 654,136 323,408 C 372,271 324,129 565,209 C 155,348 503,256 616,497 C 658,273 617,408 575,466 Z" opacity=".082" transform="rotate(-35.0 400 300)"/><path fill="#f27630" stroke="#f9d84b" stroke-opacity=".764" stroke-width="5" d="M 515,189 C 410,412 285,196 579,470 C 242,111 362,318 698,242 C 122,466 644,388 633,444 C 438,201 150,199 572,179 C 697,497 525,361 670,121 C 140,331 609,138 578,193 C 440,231 650,111 277,344 C 676,297 364,219 206,344 C 684,344 301,308 425,262 C 119,151 268,477 549,250 Z" opacity=".155" transform="rotate(77.0 400 300)"/></g></svg>