<svg xmlns="http://www.w3.org/2000/svg" xmlns:xlink="http://www.w3.org/1999/xlink" width="800" height="600" version="1.1" viewBox="0 0 800 600"><g fill="none" fill-rule="evenodd" stroke="none" stroke-width="1"><rect width="307" height="263" x="721" y="297" fill="#f559a0" stroke="#fe9225" stroke-opacity=".558" stroke-width="6" opacity=".183" transform="rotate(-85.0 400 300)"/><rect width="313" height="85" x="21" y="24" fill="#fe9225" stroke="#2cd3f3" stroke-opacity=".82" stroke-width="6" opacity=".439" transform="rotate(169.0 400 300)"/><rect width="218" height="389" x="494" y="431" fill="#0fa6d8" stroke="#fe9225" stroke-opacity=".512" stroke-width="5" opacity=".909" transform="rotate(-48.0 400 300)"/><path fill="#2cd3f3" stroke="#0fa6d8" stroke-opacity=".408" stroke-width="1" d="M 306,301 C 483,107 190,198 356,248 C 217,211 698,232 245,465 C 450,423 528,312 466,129 C 179,424 589,157 274,446 C 336,344 292,333 121,280 C 312,242 692,378 468,115 Z" opacity=".086" transform="rotate(-39.0 400 300)"/><ellipse cx="361" cy="24" fill="#02eb6b" stroke="#02eb6b" stroke-opacity=".611" stroke-width="2" opacity=".027" rx="376" ry="116" transform="rotate(-153.0 400 300)"/><polygon fill="#fe9225" stroke="#fe9225" stroke-opacity=".591" stroke-width="2" points="55 147 455 186 409 286 502 571 404 41 790 322 21 280" opacity=".327" transform="rotate(10.0 400 300)"/><rect width="397" height="65" x="623" y="595" fill="#fe9225" stroke="#f559a0" stroke-opacity=".764" stroke-width="5" opacity=".184" transform="rotate(56.0 400 300)"/></g></svg>