<?xml version="1.0" encoding="UTF-8"?>
<svg width="800px" height="600px" viewBox="0 0 800 600" version="1.1" xmlns="http://www.w3.org/2000/svg" xmlns:xlink="http://www.w3.org/1999/xlink">
  <defs></defs>
  <g stroke="none" stroke-width="1" fill="none" fill-rule="evenodd">
    
    <rect stroke="#fe9225" stroke-width="6" fill="#f559a0" opacity="0.18319173286281612" stroke-opacity="0.5580913659560705" transform="rotate(-85.0 400 300)" x="721" y="297" width="307" height="263"></rect>
<rect stroke="#2cd3f3" stroke-width="6" fill="#fe9225" opacity="0.4387441820713563" stroke-opacity="0.8199086724773818" transform="rotate(169.0 400 300)" x="21" y="24" width="313" height="85"></rect>
<rect stroke="#fe9225" stroke-width="5" fill="#0fa6d8" opacity="0.9094947289316628" stroke-opacity="0.5122132900624878" transform="rotate(-48.0 400 300)" x="494" y="431" width="218" height="389"></rect>
<path stroke="#0fa6d8" stroke-width="1" fill="#2cd3f3" opacity="0.08647033058135473" stroke-opacity="0.40819682717867145" transform="rotate(-39.0 400 300)" d="M 306,301  C 483,107 190,198 356,248 C 217,211 698,232 245,465 C 450,423 528,312 466,129 C 179,424 589,157 274,446 C 336,344 292,333 121,280 C 312,242 692,378 468,115 Z"></path>
<ellipse stroke="#02eb6b" stroke-width="2" fill="#02eb6b" opacity="0.026650661504375513" stroke-opacity="0.6108939796819993" transform="rotate(-153.0 400 300)" cx="361" rx="376" cy="24" ry="116"></ellipse>
<polygon stroke="#fe9225" stroke-width="2" fill="#fe9225" opacity="0.32665125057005145" stroke-opacity="0.5907811231024814" transform="rotate(10.0 400 300)" points="55 147 455 186 409 286 502 571 404 41 790 322 21 280 "></polygon>
<rect stroke="#f559a0" stroke-width="5" fill="#fe9225" opacity="0.18426403908899855" stroke-opacity="0.7637074052930234" transform="rotate(56.0 400 300)" x="623" y="595" width="397" height="65"></rect>

  </g>
</svg>
