<?xml version="1.0" encoding="UTF-8"?>
<svg width="800px" height="600px" viewBox="0 0 800 600" version="1.1" xmlns="http://www.w3.org/2000/svg" xmlns:xlink="http://www.w3.org/1999/xlink">
  <defs></defs>
  <g stroke="none" stroke-width="1" fill="none" fill-rule="evenodd">
    
    <path stroke="#C18C23" stroke-width="6" fill="#28DC00" opacity="0.8995258526125328" stroke-opacity="0.9575291683962106" transform="rotate(-151.0 400 300)" d="M 194,236  C 238,127 541,318 147,345 C 257,167 122,258 154,306 C 471,303 418,398 320,446 C 435,399 258,124 299,407 C 394,102 659,300 557,496 C 275,499 432,404 533,491 C 345,294 246,102 130,462 Z"></path>
<path stroke="#361C47" stroke-width="6" fill="#3A7C0A" opacity="0.16436661500457436" stroke-opacity="0.8183570738702736" transform="rotate(132.0 400 300)" d="M 559,187  C 393,381 523,155 201,432 C 430,363 419,289 246,202 C 134,289 528,149 142,274 C 578,193 182,294 612,369 C 641,324 571,233 419,211 C 204,463 277,256 629,252 C 621,233 652,255 288,342 C 473,160 115,415 576,282 C 287,476 165,121 109,263 Z"></path>
<path stroke="#765039" stroke-width="3" fill="#943630" opacity="0.49042656085868525" stroke-opacity="0.8688583868277733" transform="rotate(19.0 400 300)" d="M 566,384  C 352,433 498,260 697,155 C 672,142 272,475 156,150 C 252,288 194,165 203,330 C 269,179 541,175 675,242 C 695,333 576,394 104,270 Z"></path>
<path stroke="#AD1773" stroke-width="6" fill="#3D5661" opacity="0.7590632344043923" stroke-opacity="0.01768364234136992" transform="rotate(151.0 400 300)" d="M 177,289  C 285,399 268,449 290,291 C 293,488 508,203 257,306 C 315,494 319,373 327,324 C 654,351 621,171 621,204 C 582,147 313,459 385,382 C 330,305 430,474 677,134 C 500,238 436,268 376,435 C 644,489 532,212 524,316 Z"></path>
<path stroke="#698B1D" stroke-width="7" fill="#663CC6" opacity="0.8935303766098717" stroke-opacity="0.24209243807586667" transform="rotate(165.0 400 300)" d="M 607,321  C 467,102 597,181 287,219 C 571,485 275,190 682,436 C 108,141 650,151 668,177 C 612,466 444,372 520,390 C 179,374 660,284 638,439 C 175,229 292,222 655,193 Z"></path>
<path stroke="#80C570" stroke-width="2" fill="#6BD639" opacity="0.596172260574" stroke-opacity="0.8590034002807159" transform="rotate(-67.0 400 300)" d="M 483,177  C 450,172 587,205 270,250 C 149,415 647,229 658,394 C 281,163 508,184 504,393 C 649,189 319,201 665,301 C 569,227 490,468 567,427 C 316,136 109,206 642,425 C 291,413 398,254 558,187 Z"></path>
<path stroke="#51332C" stroke-width="2" fill="#CA8DB4" opacity="0.7101263650800617" stroke-opacity="0.5515781843807539" transform="rotate(-58.0 400 300)" d="M 493,367  C 286,349 440,475 499,427 C 518,192 300,204 329,246 C 654,455 185,265 329,214 C 168,212 454,485 313,158 C 117,269 206,151 216,336 C 621,283 450,370 320,384 C 541,382 530,494 386,473 C 371,298 325,395 665,152 C 299,115 393,253 277,356 C 359,376 549,480 471,174 C 489,414 681,377 314,449 Z"></path>
<path stroke="#0843DC" stroke-width="6" fill="#D831C9" opacity="0.3233095423507517" stroke-opacity="0.11722796732795229" transform="rotate(40.0 400 300)" d="M 112,177  C 120,122 118,418 435,158 C 548,407 433,112 559,429 C 118,123 368,111 172,288 C 556,421 693,188 197,140 C 176,134 236,180 106,116 C 327,113 655,306 383,273 C 549,471 440,246 281,116 C 171,110 253,341 613,405 C 196,483 306,438 535,217 C 267,189 672,313 549,363 C 577,450 293,300 257,272 Z"></path>
<path stroke="#C20599" stroke-width="2" fill="#91A642" opacity="0.8064084744447999" stroke-opacity="0.9028482880690399" transform="rotate(-172.0 400 300)" d="M 658,240  C 189,105 397,341 431,232 C 361,425 512,251 361,147 C 395,274 613,310 209,258 C 347,393 579,244 667,154 C 484,357 591,260 155,384 C 393,228 646,411 233,380 C 243,150 146,367 636,435 C 250,162 304,493 323,167 C 158,442 525,171 219,170 C 266,398 588,202 418,384 Z"></path>

  </g>
</svg>
