<svg xmlns="http://www.w3.org/2000/svg" xmlns:xlink="http://www.w3.org/1999/xlink" width="800" height="600" version="1.1" viewBox="0 0 800 600"><g fill="none" fill-rule="evenodd" stroke="none" stroke-width="1"><path fill="#02eb6b" stroke="#f559a0" stroke-opacity=".67" stroke-width="2" d="M 339,207 C 471,473 120,228 168,482 C 580,423 468,219 287,339 C 111,273 190,434 265,178 C 311,290 535,435 486,429 Z" opacity=".623" transform="rotate(-63.0 400 300)"/><path fill="#02eb6b" stroke="#02eb6b" stroke-opacity=".649" stroke-width="1" d="M 645,201 C 260,199 691,471 621,144 C 279,401 255,121 555,111 C 151,262 685,375 357,265 C 367,217 537,369 179,430 C 459,276 476,218 500,198 C 253,123 668,355 628,423 C 405,303 185,344 565,364 C 167,479 432,217 208,434 C 292,155 174,352 279,165 C 272,378 325,317 637,370 Z" opacity=".616" transform="rotate(123.0 400 300)"/><rect width="201" height="214" x="120" y="179" fill="#02eb6b" stroke="#2cd3f3" stroke-opacity=".667" stroke-width="2" opacity=".915" transform="rotate(-176.0 400 300)"/><polygon fill="#f559a0" stroke="#fe9225" stroke-opacity=".434" stroke-width="1" points="699 589 289 19 659 452 357 432 203 391 146 122" opacity=".3" transform="rotate(48.0 400 300)"/><ellipse cx="275" cy="126" fill="#2cd3f3" stroke="#02eb6b" stroke-opacity=".715" stroke-width="4" opacity=".126" rx="283" ry="120" transform="rotate(156.0 400 300)"/><ellipse cx="771" cy="285" fill="#02eb6b" stroke="#0fa6d8" stroke-opacity=".212" stroke-width="2" opacity=".013" rx="38" ry="310" transform="rotate(-142.0 400 300)"/><polygon fill="#0fa6d8" stroke="#0fa6d8" stroke-opacity=".925" stroke-width="3" points="25 155 648 204 238 36 522 346 112 60 533 134" opacity=".361" transform="rotate(76.0 400 300)"/><ellipse cx="603" cy="368" fill="#02eb6b" stroke="#fe9225" stroke-opacity=".461" stroke-width="2" opacity=".532" rx="115" ry="342" transform="rotate(96.0 400 300)"/></g></svg>