<?xml version="1.0" encoding="UTF-8"?>
<svg width="800px" height="600px" viewBox="0 0 800 600" version="1.1" xmlns="http://www.w3.org/2000/svg" xmlns:xlink="http://www.w3.org/1999/xlink">
  <defs></defs>
  <g stroke="none" stroke-width="1" fill="none" fill-rule="evenodd">
    
    <path stroke="#f559a0" stroke-width="2" fill="#02eb6b" opacity="0.6233104357727725" stroke-opacity="0.6702680725881752" transform="rotate(-63.0 400 300)" d="M 339,207  C 471,473 120,228 168,482 C 580,423 468,219 287,339 C 111,273 190,434 265,178 C 311,290 535,435 486,429 Z"></path>
<path stroke="#02eb6b" stroke-width="1" fill="#02eb6b" opacity="0.6163446409931818" stroke-opacity="0.6491155673298619" transform="rotate(123.0 400 300)" d="M 645,201  C 260,199 691,471 621,144 C 279,401 255,121 555,111 C 151,262 685,375 357,265 C 367,217 537,369 179,430 C 459,276 476,218 500,198 C 253,123 668,355 628,423 C 405,303 185,344 565,364 C 167,479 432,217 208,434 C 292,155 174,352 279,165 C 272,378 325,317 637,370 Z"></path>
<rect stroke="#2cd3f3" stroke-width="2" fill="#02eb6b" opacity="0.9148786883187275" stroke-opacity="0.6674198379639721" transform="rotate(-176.0 400 300)" x="120" y="179" width="201" height="214"></rect>
<polygon stroke="#fe9225" stroke-width="1" fill="#f559a0" opacity="0.29973203511877006" stroke-opacity="0.43366084876073935" transform="rotate(48.0 400 300)" points="699 589 289 19 659 452 357 432 203 391 146 122 "></polygon>
<ellipse stroke="#02eb6b" stroke-width="4" fill="#2cd3f3" opacity="0.12625300252536456" stroke-opacity="0.7148784263008788" transform="rotate(156.0 400 300)" cx="275" rx="283" cy="126" ry="120"></ellipse>
<ellipse stroke="#0fa6d8" stroke-width="2" fill="#02eb6b" opacity="0.013052775379224096" stroke-opacity="0.21240628694607283" transform="rotate(-142.0 400 300)" cx="771" rx="38" cy="285" ry="310"></ellipse>
<polygon stroke="#0fa6d8" stroke-width="3" fill="#0fa6d8" opacity="0.3610429806334966" stroke-opacity="0.9251552229910978" transform="rotate(76.0 400 300)" points="25 155 648 204 238 36 522 346 112 60 533 134 "></polygon>
<ellipse stroke="#fe9225" stroke-width="2" fill="#02eb6b" opacity="0.5320127488155464" stroke-opacity="0.46105645514105814" transform="rotate(96.0 400 300)" cx="603" rx="115" cy="368" ry="342"></ellipse>

  </g>
</svg>
