<svg xmlns="http://www.w3.org/2000/svg" xmlns:xlink="http://www.w3.org/1999/xlink" width="800" height="600" version="1.1" viewBox="0 0 800 600"><g fill="none" fill-rule="evenodd" stroke="none" stroke-width="1"><path fill="#2b55f7" stroke="#2b55f7" stroke-opacity=".759" stroke-width="2" d="M 421,156 C 503,336 176,404 365,216 C 512,380 344,212 445,167 C 532,301 260,181 199,235 C 129,231 225,246 523,257 C 156,319 563,135 563,304 C 494,195 404,166 593,167 C 640,369 594,161 322,192 C 529,176 584,226 362,333 C 375,495 153,308 171,159 Z" opacity=".573" transform="rotate(-50.0 400 300)"/><path fill="#ed2b2c" stroke="#ed2b2c" stroke-opacity=".638" stroke-width="2" d="M 160,415 C 180,376 407,292 688,400 C 672,183 186,196 151,304 C 470,138 590,382 610,145 C 634,253 408,333 372,112 C 591,152 662,246 247,169 C 109,257 569,303 615,236 Z" opacity=".454" transform="rotate(-123.0 400 300)"/><path fill="#31a06b" stroke="#f9d84b" stroke-opacity=".952" stroke-width="2" d="M 535,189 C 427,378 371,177 356,159 C 226,240 279,172 430,182 C 398,459 214,453 495,491 C 483,234 681,340 689,189 C 212,353 181,276 156,431 C 269,170 548,298 298,285 C 504,240 312,102 165,282 C 532,188 336,452 432,210 C 556,200 501,130 389,107 Z" opacity=".354" transform="rotate(-63.0 400 300)"/><path fill="#2b55f7" stroke="#31a06b" stroke-opacity=".089" stroke-width="2" d="M 559,124 C 195,141 475,332 115,332 C 462,408 683,130 386,484 C 121,241 534,388 399,163 C 279,106 119,384 123,152 C 138,179 313,324 255,262 C 109,420 699,107 475,315 Z" opacity=".972" transform="rotate(177.0 400 300)"/><path fill="#ed2b2c" stroke="#f9d84b" stroke-opacity=".033" stroke-width="7" d="M 138,178 C 502,308 578,204 599,379 C 339,497 563,253 560,393 C 323,118 467,264 441,397 C 684,409 311,405 443,351 C 641,398 187,224 166,272 C 179,159 663,452 695,399 Z" opacity=".432" transform="rotate(62.0 400 300)"/><path fill="#31a06b" stroke="#31a06b" stroke-opacity=".794" stroke-width="3" d="M 311,263 C 390,246 326,159 635,209 C 335,251 433,152 683,481 C 461,278 390,362 490,428 C 342,332 667,205 278,276 C 644,102 242,129 110,240 C 334,193 637,223 220,487 C 599,450 528,194 111,101 Z" opacity=".245" transform="rotate(88.0 400 300)"/></g></svg>