<svg xmlns="http://www.w3.org/2000/svg" xmlns:xlink="http://www.w3.org/1999/xlink" width="800" height="600" version="1.1" viewBox="0 0 800 600"><g fill="none" fill-rule="evenodd" stroke="none" stroke-width="1"><rect width="330" height="265" x="723" y="73" fill="#fe9225" stroke="#02eb6b" stroke-opacity=".954" stroke-width="7" opacity=".867" transform="rotate(21.0 400 300)"/><rect width="370" height="214" x="369" y="134" fill="#2cd3f3" stroke="#02eb6b" stroke-opacity=".978" stroke-width="6" opacity=".813" transform="rotate(-11.0 400 300)"/><rect width="113" height="63" x="565" y="246" fill="#f559a0" stroke="#2cd3f3" stroke-opacity=".693" stroke-width="7" opacity=".187" transform="rotate(132.0 400 300)"/><ellipse cx="600" cy="414" fill="#fe9225" stroke="#fe9225" stroke-opacity=".459" stroke-width="4" opacity=".704" rx="330" ry="58" transform="rotate(-33.0 400 300)"/><path fill="#2cd3f3" stroke="#2cd3f3" stroke-opacity=".285" stroke-width="3" d="M 177,174 C 159,121 392,277 574,165 C 359,411 359,270 139,464 C 467,390 588,195 377,104 C 239,222 486,474 434,451 C 568,462 128,276 694,413 C 323,448 101,401 560,436 C 160,401 293,355 117,297 C 318,366 398,154 371,447 C 534,380 246,366 523,390 Z" opacity=".653" transform="rotate(-145.0 400 300)"/><polygon fill="#0fa6d8" stroke="#0fa6d8" stroke-opacity=".339" stroke-width="1" points="243 398 536 204 340 171 671 221 585 356 609 302 23 228 741 494" opacity=".471" transform="rotate(123.0 400 300)"/><ellipse cx="286" cy="519" fill="#fe9225" stroke="#fe9225" stroke-opacity=".016" stroke-width="2" opacity=".714" rx="141" ry="226" transform="rotate(64.0 400 300)"/><ellipse cx="478" cy="123" fill="#02eb6b" stroke="#0fa6d8" stroke-opacity=".054" stroke-width="4" opacity=".317" rx="357" ry="328" transform="rotate(97.0 400 300)"/><path fill="#0fa6d8" stroke="#0fa6d8" stroke-opacity=".424" stroke-width="7" d="M 143,238 C 111,471 242,162 462,128 C 513,190 661,143 237,494 C 339,458 557,276 578,354 C 451,179 490,111 335,318 C 241,106 455,493 119,403 C 645,215 407,480 208,418 C 677,201 454,176 112,191 C 670,361 475,474 383,161 C 549,156 297,135 241,132 Z" opacity=".749" transform="rotate(-177.0 400 300)"/></g></svg>