<svg xmlns="http://www.w3.org/2000/svg" xmlns:xlink="http://www.w3.org/1999/xlink" width="800" height="600" version="1.1" viewBox="0 0 800 600"><g fill="none" fill-rule="evenodd" stroke="none" stroke-width="1"><polygon fill="#0fa6d8" stroke="#02eb6b" stroke-opacity=".867" stroke-width="3" points="141 111 711 120 469 224 353 396 269 176" opacity=".922" transform="rotate(-75.0 400 300)"/><polygon fill="#2cd3f3" stroke="#2cd3f3" stroke-opacity=".686" stroke-width="2" points="521 117 140 103 344 273 30 353 108 304" opacity=".341" transform="rotate(61.0 400 300)"/><path fill="#0fa6d8" stroke="#02eb6b" stroke-opacity=".662" stroke-width="5" d="M 299,444 C 623,366 592,348 393,202 C 229,234 638,420 268,162 C 128,342 342,322 535,488 C 105,132 596,344 638,210 C 225,482 188,110 279,497 C 254,154 481,297 373,365 C 540,106 236,487 564,205 C 552,442 214,411 514,361 C 673,483 598,217 637,202 C 505,436 465,198 183,318 Z" opacity=".421" transform="rotate(117.0 400 300)"/><path fill="#2cd3f3" stroke="#2cd3f3" stroke-opacity=".053" stroke-width="7" d="M 237,405 C 344,234 348,288 374,247 C 436,380 127,268 216,271 C 344,103 687,349 341,352 C 442,369 436,169 123,237 C 471,244 571,183 321,260 C 444,201 606,200 202,201 C 159,443 274,203 687,114 C 413,381 305,370 313,418 C 314,274 635,123 246,107 Z" opacity=".623" transform="rotate(83.0 400 300)"/><polygon fill="#2cd3f3" stroke="#fe9225" stroke-opacity=".087" stroke-width="3" points="99 228 17 155 154 570 145 494 202 426 514 597" opacity=".732" transform="rotate(29.0 400 300)"/><rect width="305" height="283" x="429" y="138" fill="#0fa6d8" stroke="#0fa6d8" stroke-opacity=".806" stroke-width="7" opacity=".456" transform="rotate(-86.0 400 300)"/></g></svg>