<svg xmlns="http://www.w3.org/2000/svg" xmlns:xlink="http://www.w3.org/1999/xlink" width="800" height="600" version="1.1" viewBox="0 0 800 600"><g fill="none" fill-rule="evenodd" stroke="none" stroke-width="1"><path fill="#8D00A8" stroke="#057CC9" stroke-opacity=".751" stroke-width="6" d="M 479,498 C 334,284 478,178 341,355 C 488,151 367,454 564,427 C 256,108 242,158 270,317 C 425,110 282,104 245,250 C 119,222 661,470 321,122 C 192,310 190,406 428,309 C 677,225 395,380 444,104 C 320,250 621,274 486,121 C 162,406 482,353 571,202 C 167,360 229,273 509,228 C 300,289 122,192 178,390 Z" opacity=".835" transform="rotate(-76.0 400 300)"/><ellipse cx="582" cy="323" fill="#7A14DD" stroke="#966524" stroke-opacity=".531" stroke-width="5" opacity=".454" rx="111" ry="317" transform="rotate(113.0 400 300)"/><ellipse cx="406" cy="60" fill="#37204A" stroke="#0850CA" stroke-opacity=".466" stroke-width="5" opacity=".153" rx="183" ry="348" transform="rotate(118.0 400 300)"/><ellipse cx="392" cy="267" fill="#1A1B57" stroke="#7511A8" stroke-opacity=".476" stroke-width="7" opacity=".096" rx="322" ry="177" transform="rotate(177.0 400 300)"/><rect width="266" height="35" x="641" y="73" fill="#654D65" stroke="#2623D3" stroke-opacity=".335" stroke-width="1" opacity=".255" transform="rotate(111.0 400 300)"/><path fill="#8D4262" stroke="#1200AB" stroke-opacity=".283" stroke-width="5" d="M 440,416 C 475,410 413,175 575,121 C 197,450 110,265 317,181 C 231,143 500,424 233,253 C 536,247 371,462 417,437 C 204,190 273,479 171,213 C 370,316 492,362 351,121 C 242,431 485,336 112,407 Z" opacity=".315" transform="rotate(-140.0 400 300)"/><rect width="224" height="43" x="159" y="304" fill="#306D29" stroke="#73BBD0" stroke-opacity=".055" stroke-width="4" opacity=".305" transform="rotate(-134.0 400 300)"/><polygon fill="#7B2097" stroke="#D81C18" stroke-opacity=".689" stroke-width="2" points="778 21 95 358 590 289 541 526 25 577 358 551 321 17 571 63" opacity=".897" transform="rotate(-172.0 400 300)"/><polygon fill="#93A9CB" stroke="#78743D" stroke-opacity=".902" stroke-width="2" points="160 387 750 384 231 2 596 364 655 552 743 306 97 160" opacity=".795" transform="rotate(-52.0 400 300)"/><path fill="#1AA780" stroke="#1846B8" stroke-opacity=".338" stroke-width="6" d="M 650,155 C 544,497 416,406 683,419 C 377,196 115,280 296,150 C 594,424 533,168 456,458 C 498,138 201,269 504,423 C 145,316 641,483 244,338 Z" opacity=".303" transform="rotate(112.0 400 300)"/></g></svg>