<?xml version="1.0" encoding="UTF-8"?>
<svg width="800px" height="600px" viewBox="0 0 800 600" version="1.1" xmlns="http://www.w3.org/2000/svg" xmlns:xlink="http://www.w3.org/1999/xlink">
  <defs></defs>
  <g stroke="none" stroke-width="1" fill="none" fill-rule="evenodd">
    
    <path stroke="#f27630" stroke-width="7" fill="#f27630" opacity="0.9282701530145857" stroke-opacity="0.1494509260504063" transform="rotate(21.0 400 300)" d="M 343,474  C 542,356 308,218 604,224 C 487,486 630,363 255,320 C 271,187 450,211 623,224 C 390,472 221,399 326,248 C 139,268 137,135 159,339 C 566,152 685,232 596,229 C 564,157 486,131 379,213 C 486,255 189,143 299,343 C 250,137 649,419 112,338 Z"></path>
<path stroke="#f27630" stroke-width="5" fill="#ed2b2c" opacity="0.7689657376808593" stroke-opacity="0.7836897106693479" transform="rotate(-171.0 400 300)" d="M 431,110  C 324,279 327,163 611,237 C 521,360 504,198 273,262 C 418,140 209,425 666,244 C 244,449 663,108 475,375 C 328,176 385,377 548,329 C 559,247 312,373 166,129 C 394,374 411,107 377,132 C 110,404 443,338 585,455 C 279,476 384,333 138,383 C 536,194 353,489 621,330 C 105,103 247,274 226,119 Z"></path>
<path stroke="#31a06b" stroke-width="3" fill="#2b55f7" opacity="0.9922000494827151" stroke-opacity="0.8407286978514762" transform="rotate(106.0 400 300)" d="M 436,285  C 128,110 507,138 661,382 C 587,469 464,178 398,182 C 212,166 625,177 387,297 C 511,313 434,362 262,191 C 362,420 315,373 477,329 C 372,440 640,402 290,292 Z"></path>
<path stroke="#31a06b" stroke-width="1" fill="#31a06b" opacity="0.9328468201436035" stroke-opacity="0.31291628624735396" transform="rotate(-153.0 400 300)" d="M 213,106  C 300,445 590,431 182,496 C 254,320 698,366 331,228 C 292,294 124,132 555,266 C 134,146 334,396 261,472 C 196,142 211,211 281,356 C 250,457 451,466 136,287 C 363,340 640,104 146,158 C 458,312 360,147 500,109 C 200,328 299,220 119,415 C 675,275 366,245 203,486 Z"></path>
<path stroke="#ed2b2c" stroke-width="7" fill="#f9d84b" opacity="0.3261262399652552" stroke-opacity="0.5863649291586607" transform="rotate(-164.0 400 300)" d="M 214,103  C 669,480 184,364 652,258 C 369,256 507,163 591,116 C 228,317 284,341 615,144 C 239,373 684,409 110,127 C 475,379 503,272 487,217 C 394,399 191,274 288,332 C 533,430 518,393 285,225 C 483,328 463,425 698,140 C 169,179 471,298 159,245 C 187,493 139,393 470,168 Z"></path>
<path stroke="#ed2b2c" stroke-width="2" fill="#ed2b2c" opacity="0.8792214792042148" stroke-opacity="0.670287446666982" transform="rotate(-52.0 400 300)" d="M 238,256  C 568,369 332,290 137,332 C 444,431 467,213 369,242 C 138,203 447,257 258,409 C 485,194 609,306 275,223 C 136,114 557,387 663,497 C 629,446 227,139 442,254 C 513,157 517,263 623,493 Z"></path>
<path stroke="#31a06b" stroke-width="1" fill="#f27630" opacity="0.10279736990274985" stroke-opacity="0.9893206730067645" transform="rotate(77.0 400 300)" d="M 235,253  C 165,313 418,120 266,269 C 194,253 250,405 609,253 C 544,276 671,369 661,214 C 222,145 606,331 274,198 C 545,410 546,148 476,454 C 386,462 647,226 272,309 C 561,387 331,328 184,491 C 330,374 589,370 398,416 Z"></path>
<path stroke="#f27630" stroke-width="1" fill="#f27630" opacity="0.7951715472495118" stroke-opacity="0.3296081438691349" transform="rotate(53.0 400 300)" d="M 573,109  C 401,293 629,121 596,493 C 264,120 386,349 527,295 C 672,438 336,351 641,403 C 483,220 400,419 696,182 C 379,403 584,379 315,422 C 346,215 552,337 532,387 C 216,403 322,294 310,447 C 303,469 658,302 265,174 C 163,154 226,153 506,163 C 487,118 239,173 386,408 Z"></path>
<path stroke="#f9d84b" stroke-width="1" fill="#f27630" opacity="0.9740186639049697" stroke-opacity="0.2207987896387195" transform="rotate(92.0 400 300)" d="M 463,394  C 215,188 504,376 428,420 C 329,201 287,268 270,163 C 317,221 520,420 367,152 C 511,437 278,382 251,118 Z"></path>
<path stroke="#f9d84b" stroke-width="1" fill="#2b55f7" opacity="0.5524148884509704" stroke-opacity="0.5059273046770859" transform="rotate(-42.0 400 300)" d="M 258,324  C 338,371 636,397 386,162 C 281,426 400,216 193,326 C 136,431 115,386 551,474 C 403,217 606,490 496,225 C 292,201 477,330 136,434 C 617,428 400,112 152,318 C 295,202 321,242 240,235 C 624,349 223,203 677,440 C 156,491 663,371 389,164 C 391,411 494,306 132,192 Z"></path>

  </g>
</svg>
