<?xml version="1.0" encoding="UTF-8"?>
<svg width="800px" height="600px" viewBox="0 0 800 600" version="1.1" xmlns="http://www.w3.org/2000/svg" xmlns:xlink="http://www.w3.org/1999/xlink">
  <defs></defs>
  <g stroke="none" stroke-width="1" fill="none" fill-rule="evenodd">
    
    <path stroke="#0fa6d8" stroke-width="3" fill="#fe9225" opacity="0.8075583564621783" stroke-opacity="0.2840635262821812" transform="rotate(-26.0 400 300)" d="M 448,218  C 140,285 528,287 537,138 C 443,385 688,244 262,447 C 541,113 190,436 539,391 C 217,121 332,486 514,173 C 517,357 170,383 537,328 C 656,387 424,224 682,462 C 604,463 676,402 700,147 Z"></path>
<path stroke="#fe9225" stroke-width="6" fill="#0fa6d8" opacity="0.6945083943237054" stroke-opacity="0.6547700556281113" transform="rotate(-76.0 400 300)" d="M 341,277  C 172,146 652,372 613,486 C 312,211 458,202 511,271 C 692,218 603,201 463,434 C 334,409 519,365 649,372 C 137,311 557,421 251,357 C 345,189 592,494 287,411 C 530,391 118,236 221,450 C 621,118 668,169 415,472 Z"></path>
<path stroke="#02eb6b" stroke-width="4" fill="#2cd3f3" opacity="0.5051994804808978" stroke-opacity="0.5336950284695811" transform="rotate(-65.0 400 300)" d="M 552,207  C 442,136 635,110 300,441 C 458,342 617,348 117,488 C 546,489 323,176 438,375 C 258,229 658,113 361,241 C 540,305 176,336 389,116 C 581,263 262,127 530,248 C 201,441 416,488 500,171 C 559,237 384,430 672,418 Z"></path>
<path stroke="#2cd3f3" stroke-width="4" fill="#0fa6d8" opacity="0.5952904572902041" stroke-opacity="0.8354418513303742" transform="rotate(158.0 400 300)" d="M 646,451  C 344,300 313,395 504,387 C 186,293 210,259 492,188 C 368,104 407,403 386,263 C 462,290 134,231 438,486 C 692,177 124,476 575,202 Z"></path>
<path stroke="#0fa6d8" stroke-width="1" fill="#f559a0" opacity="0.7499765087288554" stroke-opacity="0.8146329260094006" transform="rotate(92.0 400 300)" d="M 158,231  C 337,121 477,131 122,388 C 121,492 552,361 410,312 C 286,444 115,136 164,247 C 432,393 328,492 215,299 C 408,125 337,180 635,114 C 484,348 552,247 178,445 C 287,418 139,342 238,461 C 186,197 646,412 541,469 Z"></path>
<path stroke="#02eb6b" stroke-width="3" fill="#fe9225" opacity="0.33001962482936054" stroke-opacity="0.5149005420957581" transform="rotate(-70.0 400 300)" d="M 664,485  C 178,299 226,365 191,250 C 226,486 338,130 622,312 C 478,140 123,423 588,461 C 494,153 597,197 699,226 Z"></path>
<path stroke="#f559a0" stroke-width="6" fill="#2cd3f3" opacity="0.21515662502758542" stroke-opacity="0.6186228406271002" transform="rotate(-97.0 400 300)" d="M 211,247  C 547,237 447,196 165,217 C 276,191 622,233 249,470 C 393,337 605,449 162,211 C 122,459 445,300 212,244 C 428,128 198,365 234,327 C 501,465 159,146 414,423 C 252,456 617,356 429,416 C 256,206 533,474 518,321 Z"></path>
<path stroke="#f559a0" stroke-width="7" fill="#f559a0" opacity="0.2402150387681763" stroke-opacity="0.9779575627179532" transform="rotate(57.0 400 300)" d="M 578,343  C 380,279 219,443 193,162 C 526,274 568,242 260,201 C 690,429 497,179 462,327 C 662,393 504,182 358,111 Z"></path>

  </g>
</svg>
