<?xml version="1.0" encoding="UTF-8"?>
<svg width="800px" height="600px" viewBox="0 0 800 600" version="1.1" xmlns="http://www.w3.org/2000/svg" xmlns:xlink="http://www.w3.org/1999/xlink">
  <defs></defs>
  <g stroke="none" stroke-width="1" fill="none" fill-rule="evenodd">
    
    <polygon stroke="#7975B2" stroke-width="6" fill="#C0C627" opacity="0.05204716266102489" stroke-opacity="0.9990713963472018" transform="rotate(-140.0 400 300)" points="530 246 233 20 251 452 309 244 330 566 237 524 513 470 583 150 "></polygon>
<polygon stroke="#B5A3C2" stroke-width="2" fill="#DD6A05" opacity="0.4213977513971295" stroke-opacity="0.4258916288576143" transform="rotate(59.0 400 300)" points="521 565 649 377 201 533 309 472 729 184 232 535 163 122 "></polygon>
<path stroke="#63D0AD" stroke-width="6" fill="#510724" opacity="0.41801639386162825" stroke-opacity="0.5580525863108272" transform="rotate(-81.0 400 300)" d="M 363,133  C 608,326 288,410 167,182 C 171,456 243,326 385,434 C 103,417 228,173 234,423 C 509,331 309,332 106,149 C 678,206 422,497 342,315 Z"></path>
<rect stroke="#99B10C" stroke-width="3" fill="#229C4A" opacity="0.33890181675257147" stroke-opacity="0.8630870434972367" transform="rotate(164.0 400 300)" x="177" y="428" width="398" height="268"></rect>
<path stroke="#14BB86" stroke-width="7" fill="#6C6CAD" opacity="0.7935954448204119" stroke-opacity="0.9699273385792914" transform="rotate(-115.0 400 300)" d="M 561,247  C 341,367 591,459 612,184 C 264,407 188,282 270,360 C 450,329 661,360 586,188 C 357,131 574,457 129,211 C 164,323 316,252 612,385 C 600,235 646,492 685,106 Z"></path>
<path stroke="#18457A" stroke-width="1" fill="#24C984" opacity="0.7532842145930871" stroke-opacity="0.4305166252169768" transform="rotate(135.0 400 300)" d="M 520,422  C 196,325 559,363 103,482 C 156,234 504,496 177,499 C 364,403 407,242 292,384 C 562,300 392,229 102,249 C 116,110 454,172 201,213 C 502,365 700,226 688,393 C 544,151 269,370 639,403 C 635,110 396,351 658,181 Z"></path>
<polygon stroke="#213251" stroke-width="1" fill="#268747" opacity="0.6708149115602623" stroke-opacity="0.12956622560603825" transform="rotate(-73.0 400 300)" points="249 65 764 132 32 228 191 417 667 100 721 467 620 42 "></polygon>
<rect stroke="#82750B" stroke-width="1" fill="#35AB48" opacity="0.28685221054411203" stroke-opacity="0.45683590201019847" transform="rotate(77.0 400 300)" x="699" y="330" width="366" height="221"></rect>
<rect stroke="#6AC713" stroke-width="3" fill="#3026CA" opacity="0.015163383890598984" stroke-opacity="0.6468281835774168" transform="rotate(150.0 400 300)" x="418" y="584" width="32" height="61"></rect>

  </g>
</svg>
