<svg xmlns="http://www.w3.org/2000/svg" xmlns:xlink="http://www.w3.org/1999/xlink" width="800" height="600" version="1.1" viewBox="0 0 800 600"><g fill="none" fill-rule="evenodd" stroke="none" stroke-width="1"><polygon fill="#C0C627" stroke="#7975B2" stroke-opacity=".999" stroke-width="6" points="530 246 233 20 251 452 309 244 330 566 237 524 513 470 583 150" opacity=".052" transform="rotate(-140.0 400 300)"/><polygon fill="#DD6A05" stroke="#B5A3C2" stroke-opacity=".426" stroke-width="2" points="521 565 649 377 201 533 309 472 729 184 232 535 163 122" opacity=".421" transform="rotate(59.0 400 300)"/><path fill="#510724" stroke="#63D0AD" stroke-opacity=".558" stroke-width="6" d="M 363,133 C 608,326 288,410 167,182 C 171,456 243,326 385,434 C 103,417 228,173 234,423 C 509,331 309,332 106,149 C 678,206 422,497 342,315 Z" opacity=".418" transform="rotate(-81.0 400 300)"/><rect width="398" height="268" x="177" y="428" fill="#229C4A" stroke="#99B10C" stroke-opacity=".863" stroke-width="3" opacity=".339" transform="rotate(164.0 400 300)"/><path fill="#6C6CAD" stroke="#14BB86" stroke-opacity=".97" stroke-width="7" d="M 561,247 C 341,367 591,459 612,184 C 264,407 188,282 270,360 C 450,329 661,360 586,188 C 357,131 574,457 129,211 C 164,323 316,252 612,385 C 600,235 646,492 685,106 Z" opacity=".794" transform="rotate(-115.0 400 300)"/><path fill="#24C984" stroke="#18457A" stroke-opacity=".431" stroke-width="1" d="M 520,422 C 196,325 559,363 103,482 C 156,234 504,496 177,499 C 364,403 407,242 292,384 C 562,300 392,229 102,249 C 116,110 454,172 201,213 C 502,365 700,226 688,393 C 544,151 269,370 639,403 C 635,110 396,351 658,181 Z" opacity=".753" transform="rotate(135.0 400 300)"/><polygon fill="#268747" stroke="#213251" stroke-opacity=".13" stroke-width="1" points="249 65 764 132 32 228 191 417 667 100 721 467 620 42" opacity=".671" transform="rotate(-73.0 400 300)"/><rect width="366" height="221" x="699" y="330" fill="#35AB48" stroke="#82750B" stroke-opacity=".457" stroke-width="1" opacity=".287" transform="rotate(77.0 400 300)"/><rect width="32" height="61" x="418" y="584" fill="#3026CA" stroke="#6AC713" stroke-opacity=".647" stroke-width="3" opacity=".015" transform="rotate(150.0 400 300)"/></g></svg>