<svg xmlns="http://www.w3.org/2000/svg" xmlns:xlink="http://www.w3.org/1999/xlink" width="800" height="600" version="1.1" viewBox="0 0 800 600"><g fill="none" fill-rule="evenodd" stroke="none" stroke-width="1"><path fill="#02eb6b" stroke="#0fa6d8" stroke-opacity=".979" stroke-width="4" d="M 255,387 C 149,119 297,208 691,151 C 625,109 468,232 214,317 C 332,414 356,424 622,258 C 436,144 299,403 508,347 C 699,166 102,360 162,392 C 129,351 550,414 149,294 C 410,196 649,466 603,302 Z" opacity=".24" transform="rotate(154.0 400 300)"/><path fill="#2cd3f3" stroke="#2cd3f3" stroke-opacity=".916" stroke-width="5" d="M 573,328 C 316,296 243,315 518,329 C 179,386 230,324 620,267 C 652,479 379,199 666,403 C 183,493 354,197 175,342 C 303,137 356,348 229,492 C 621,278 267,225 197,206 C 469,221 448,340 579,163 Z" opacity=".939" transform="rotate(54.0 400 300)"/><path fill="#2cd3f3" stroke="#fe9225" stroke-opacity=".414" stroke-width="5" d="M 435,326 C 605,293 339,329 663,263 C 311,297 219,296 412,202 C 543,228 232,376 298,173 C 400,274 270,102 551,265 C 200,471 353,361 169,466 C 553,190 425,483 284,254 C 339,191 143,292 418,192 C 629,320 321,492 175,321 C 491,156 637,438 129,139 C 507,170 338,325 168,346 Z" opacity=".78" transform="rotate(-121.0 400 300)"/><path fill="#0fa6d8" stroke="#fe9225" stroke-opacity=".223" stroke-width="7" d="M 130,247 C 500,299 561,438 111,246 C 645,209 590,490 634,256 C 298,132 249,286 235,245 C 402,489 186,174 202,256 C 203,313 621,270 191,496 C 609,247 586,337 273,341 C 564,216 509,345 580,156 C 202,385 274,461 686,153 Z" opacity=".674" transform="rotate(-15.0 400 300)"/><path fill="#fe9225" stroke="#f559a0" stroke-opacity=".551" stroke-width="1" d="M 319,110 C 344,494 211,274 222,198 C 417,446 688,293 556,302 C 119,118 358,370 691,202 C 352,210 561,145 570,268 C 442,332 441,470 147,187 C 577,127 460,327 143,300 C 696,208 112,316 691,118 C 114,291 193,235 233,178 Z" opacity=".755" transform="rotate(-124.0 400 300)"/><path fill="#fe9225" stroke="#0fa6d8" stroke-opacity=".736" stroke-width="6" d="M 375,323 C 333,428 174,444 102,281 C 555,245 208,430 451,344 C 559,183 659,178 536,219 C 515,445 303,193 403,400 C 193,446 432,232 224,398 C 106,298 495,305 591,369 C 357,102 186,267 432,337 C 225,455 599,343 526,322 C 685,474 427,134 400,437 Z" opacity=".389" transform="rotate(64.0 400 300)"/></g></svg>