<svg xmlns="http://www.w3.org/2000/svg" xmlns:xlink="http://www.w3.org/1999/xlink" width="800" height="600" version="1.1" viewBox="0 0 800 600"><g fill="none" fill-rule="evenodd" stroke="none" stroke-width="1"><rect width="50" height="194" x="76" y="134" fill="#ed2b2c" stroke="#ed2b2c" stroke-opacity=".276" stroke-width="3" opacity=".561" transform="rotate(94.0 400 300)"/><polygon fill="#31a06b" stroke="#31a06b" stroke-opacity=".768" stroke-width="4" points="444 239 735 256 701 198 517 150 661 474" opacity=".607" transform="rotate(54.0 400 300)"/><rect width="179" height="84" x="200" y="87" fill="#2b55f7" stroke="#f9d84b" stroke-opacity=".463" stroke-width="5" opacity=".43" transform="rotate(24.0 400 300)"/><polygon fill="#2b55f7" stroke="#f27630" stroke-opacity=".348" stroke-width="4" points="43 189 499 489 653 307 410 254 221 382 237 364 202 377 130 496" opacity=".277" transform="rotate(42.0 400 300)"/><rect width="119" height="75" x="107" y="180" fill="#ed2b2c" stroke="#31a06b" stroke-opacity=".687" stroke-width="6" opacity=".508" transform="rotate(70.0 400 300)"/><ellipse cx="74" cy="485" fill="#f27630" stroke="#f9d84b" stroke-opacity=".047" stroke-width="5" opacity=".969" rx="103" ry="248" transform="rotate(19.0 400 300)"/></g></svg>