<?xml version="1.0" encoding="UTF-8"?>
<svg width="800px" height="600px" viewBox="0 0 800 600" version="1.1" xmlns="http://www.w3.org/2000/svg" xmlns:xlink="http://www.w3.org/1999/xlink">
  <defs></defs>
  <g stroke="none" stroke-width="1" fill="none" fill-rule="evenodd">
    
    <path stroke="#fe9225" stroke-width="6" fill="#f559a0" opacity="0.567711522896389" stroke-opacity="0.04552009126937477" transform="rotate(163.0 400 300)" d="M 464,380  C 435,470 609,462 177,393 C 696,473 503,207 433,443 C 199,179 671,268 563,463 C 611,162 450,242 545,292 C 553,457 379,111 480,234 C 158,228 261,387 243,403 C 424,155 658,442 474,135 C 414,498 102,447 649,369 C 138,260 572,293 634,220 Z"></path>
<path stroke="#02eb6b" stroke-width="4" fill="#fe9225" opacity="0.06844607349999544" stroke-opacity="0.9285367058335314" transform="rotate(-171.0 400 300)" d="M 609,257  C 209,243 211,244 617,481 C 688,179 249,226 680,287 C 599,338 605,422 404,332 C 432,179 296,163 396,320 C 286,185 581,302 288,108 C 123,213 553,202 616,310 Z"></path>
<path stroke="#fe9225" stroke-width="3" fill="#2cd3f3" opacity="0.19016033551896108" stroke-opacity="0.853819475344051" transform="rotate(164.0 400 300)" d="M 285,278  C 356,353 302,244 222,226 C 163,340 166,480 312,226 C 639,424 445,310 154,143 C 168,305 113,421 345,299 C 262,195 235,274 250,483 C 514,360 142,289 635,144 C 139,292 444,164 489,477 Z"></path>
<path stroke="#f559a0" stroke-width="7" fill="#f559a0" opacity="0.5048844662282399" stroke-opacity="0.9533438078912523" transform="rotate(145.0 400 300)" d="M 342,397  C 659,201 674,247 465,448 C 550,264 256,321 684,289 C 609,251 498,217 506,387 C 595,123 266,400 302,413 Z"></path>
<path stroke="#2cd3f3" stroke-width="5" fill="#fe9225" opacity="0.9383885586565505" stroke-opacity="0.4608741751850576" transform="rotate(126.0 400 300)" d="M 461,477  C 546,298 663,488 450,130 C 247,449 190,436 304,321 C 656,426 158,486 265,251 C 118,357 339,272 287,459 C 679,289 366,197 398,148 C 282,422 551,300 435,242 C 211,177 419,119 441,245 C 433,221 446,320 116,368 Z"></path>
<path stroke="#f559a0" stroke-width="3" fill="#02eb6b" opacity="0.05030211859626923" stroke-opacity="0.19093042171281024" transform="rotate(-2.0 400 300)" d="M 464,456  C 303,223 523,389 227,117 C 116,411 537,482 700,101 C 157,162 487,238 610,219 C 376,270 172,419 676,487 Z"></path>
<path stroke="#f559a0" stroke-width="2" fill="#2cd3f3" opacity="0.8080446450553721" stroke-opacity="0.013259517979613599" transform="rotate(-89.0 400 300)" d="M 607,182  C 481,432 162,330 681,230 C 240,144 447,282 596,476 C 155,468 208,435 223,134 C 337,174 681,260 199,203 C 251,151 370,429 212,294 C 363,293 564,311 375,371 C 158,179 270,158 534,266 C 648,229 494,147 511,415 Z"></path>
<path stroke="#0fa6d8" stroke-width="5" fill="#f559a0" opacity="0.07972371439376852" stroke-opacity="0.29213708010530576" transform="rotate(-153.0 400 300)" d="M 624,147  C 519,393 211,353 251,352 C 524,313 521,191 246,384 C 221,482 690,269 441,415 C 467,282 352,399 454,475 C 619,420 167,135 689,334 C 576,257 541,410 102,500 C 282,276 304,497 473,162 Z"></path>
<path stroke="#f559a0" stroke-width="1" fill="#2cd3f3" opacity="0.06920700152787186" stroke-opacity="0.4690194225888564" transform="rotate(159.0 400 300)" d="M 589,226  C 403,445 183,316 190,355 C 274,319 325,306 531,209 C 152,220 609,142 350,465 C 682,387 219,297 385,222 C 107,327 352,348 212,179 Z"></path>

  </g>
</svg>
