<svg xmlns="http://www.w3.org/2000/svg" xmlns:xlink="http://www.w3.org/1999/xlink" width="800" height="600" version="1.1" viewBox="0 0 800 600"><g fill="none" fill-rule="evenodd" stroke="none" stroke-width="1"><polygon fill="#1DCCD0" stroke="#801A3D" stroke-opacity=".383" stroke-width="4" points="517 340 229 81 661 520 39 549 210 511 114 463 226 550 33 67" opacity=".678" transform="rotate(109.0 400 300)"/><polygon fill="#29567D" stroke="#C34C1C" stroke-opacity=".17" stroke-width="6" points="207 128 36 89 302 328 556 505 4 167 209 146" opacity=".447" transform="rotate(83.0 400 300)"/><rect width="139" height="342" x="13" y="521" fill="#48C5AB" stroke="#334D76" stroke-opacity=".783" stroke-width="6" opacity=".147" transform="rotate(134.0 400 300)"/><rect width="24" height="42" x="213" y="135" fill="#05D6C9" stroke="#C072A6" stroke-opacity=".112" stroke-width="4" opacity=".156" transform="rotate(97.0 400 300)"/><polygon fill="#694557" stroke="#6DB1D3" stroke-opacity=".544" stroke-width="4" points="714 256 622 528 747 348 543 67 367 222 494 301 333 510" opacity=".054" transform="rotate(39.0 400 300)"/><path fill="#02C429" stroke="#5C385D" stroke-opacity=".522" stroke-width="3" d="M 327,180 C 394,415 364,198 332,360 C 352,466 143,405 601,186 C 429,158 321,208 225,337 C 120,214 516,288 552,435 C 313,202 328,328 632,237 C 662,235 182,296 146,469 C 353,435 346,412 147,158 C 155,466 248,186 211,312 C 272,113 537,427 259,203 Z" opacity=".03" transform="rotate(-10.0 400 300)"/></g></svg>