<svg xmlns="http://www.w3.org/2000/svg" xmlns:xlink="http://www.w3.org/1999/xlink" width="800" height="600" version="1.1" viewBox="0 0 800 600"><g fill="none" fill-rule="evenodd" stroke="none" stroke-width="1"><path fill="#2A0604" stroke="#118AAC" stroke-opacity=".973" stroke-width="3" d="M 238,187 C 159,215 477,166 283,243 C 323,215 597,370 560,328 C 692,374 141,279 584,126 C 173,257 534,194 611,406 C 142,217 485,387 255,446 C 465,170 374,257 674,366 C 614,193 331,289 192,476 C 630,263 202,273 315,113 C 380,216 381,281 658,249 C 677,495 227,323 419,295 Z" opacity=".589" transform="rotate(-129.0 400 300)"/><path fill="#980B06" stroke="#B194D4" stroke-opacity=".915" stroke-width="1" d="M 451,447 C 106,230 398,281 315,408 C 366,160 355,448 514,141 C 691,223 266,360 185,182 C 345,313 518,125 598,126 C 391,103 202,171 611,260 C 242,133 398,167 143,304 Z" opacity=".016" transform="rotate(-31.0 400 300)"/><path fill="#2CB93A" stroke="#297878" stroke-opacity=".973" stroke-width="4" d="M 351,164 C 187,489 627,169 186,254 C 214,113 347,289 698,155 C 160,107 328,448 294,125 C 301,260 205,265 186,442 C 181,488 417,488 283,492 C 542,423 338,312 467,171 C 398,238 239,178 552,302 C 291,207 128,479 506,118 C 163,330 339,159 686,167 C 554,414 514,268 699,140 C 441,427 206,418 246,180 Z" opacity=".234" transform="rotate(-37.0 400 300)"/><path fill="#543990" stroke="#A78755" stroke-opacity=".451" stroke-width="4" d="M 259,384 C 282,248 578,121 597,218 C 498,452 290,179 642,391 C 634,176 525,137 425,213 C 271,299 623,323 508,257 C 605,436 672,443 249,189 C 622,294 498,338 600,129 C 534,114 524,178 586,132 C 640,354 277,299 552,208 C 495,346 138,411 150,230 C 253,273 327,486 288,233 Z" opacity=".116" transform="rotate(-115.0 400 300)"/><path fill="#C701DC" stroke="#B7BB74" stroke-opacity=".814" stroke-width="6" d="M 280,379 C 434,181 237,172 504,403 C 205,453 517,441 324,310 C 502,219 182,396 288,277 C 117,466 510,258 260,491 C 669,235 249,288 560,460 C 401,272 105,421 194,382 C 385,289 666,221 147,304 C 692,270 183,348 476,237 Z" opacity=".263" transform="rotate(-125.0 400 300)"/><path fill="#1D7A4D" stroke="#3CD984" stroke-opacity=".654" stroke-width="7" d="M 129,178 C 506,324 574,199 307,171 C 242,174 399,444 408,333 C 507,404 211,111 323,383 C 606,103 478,422 495,421 C 200,360 427,138 531,246 C 647,180 478,108 407,378 C 487,402 550,366 400,428 C 588,336 127,284 177,237 C 378,220 563,170 439,401 C 528,319 540,390 333,201 Z" opacity=".642" transform="rotate(69.0 400 300)"/></g></svg>