<svg xmlns="http://www.w3.org/2000/svg" xmlns:xlink="http://www.w3.org/1999/xlink" width="800" height="600" version="1.1" viewBox="0 0 800 600"><g fill="none" fill-rule="evenodd" stroke="none" stroke-width="1"><path fill="#A66CB0" stroke="#558283" stroke-opacity=".842" stroke-width="3" d="M 370,280 C 220,193 446,363 454,361 C 160,175 223,210 241,236 C 169,274 133,429 306,367 C 460,207 594,218 358,219 C 219,110 426,358 496,455 Z" opacity=".764" transform="rotate(-89.0 400 300)"/><path fill="#BA3B01" stroke="#BC9828" stroke-opacity=".888" stroke-width="1" d="M 506,438 C 404,373 208,164 337,440 C 565,388 541,206 470,418 C 102,234 117,419 658,306 C 468,155 288,497 554,335 C 459,215 390,384 163,471 C 303,449 349,398 669,310 C 251,403 410,170 237,331 C 157,186 318,426 141,199 C 547,139 196,478 542,356 C 560,333 249,160 462,385 Z" opacity=".988" transform="rotate(-87.0 400 300)"/><path fill="#998A54" stroke="#910875" stroke-opacity=".292" stroke-width="1" d="M 297,497 C 689,309 343,189 236,325 C 609,460 245,382 580,390 C 633,104 185,273 533,433 C 668,159 443,393 352,347 C 273,419 463,436 652,357 C 169,229 159,282 579,229 C 348,334 464,170 112,287 C 177,350 536,414 314,153 C 219,468 668,306 404,331 C 301,134 348,465 367,264 C 440,253 664,360 219,141 Z" opacity=".071" transform="rotate(56.0 400 300)"/><path fill="#5173B4" stroke="#D7BBA6" stroke-opacity=".059" stroke-width="2" d="M 559,369 C 682,253 465,272 255,145 C 376,495 626,473 178,440 C 412,426 269,333 291,293 C 380,248 655,478 153,181 C 404,477 442,479 214,111 C 582,453 541,288 472,350 C 394,491 344,210 377,150 C 501,281 320,210 480,266 C 419,129 372,492 614,191 Z" opacity=".145" transform="rotate(33.0 400 300)"/><path fill="#8651BB" stroke="#07A9B3" stroke-opacity=".59" stroke-width="2" d="M 629,127 C 561,262 558,199 207,214 C 178,365 561,403 584,135 C 556,221 290,220 592,445 C 621,459 360,405 416,464 C 271,123 247,426 685,106 C 435,325 572,297 490,462 C 174,169 177,458 398,112 Z" opacity=".394" transform="rotate(-140.0 400 300)"/><path fill="#820C6D" stroke="#95A685" stroke-opacity=".307" stroke-width="4" d="M 121,148 C 115,352 245,140 198,391 C 658,480 529,178 370,459 C 417,170 227,397 154,293 C 185,352 229,292 691,197 Z" opacity=".392" transform="rotate(-51.0 400 300)"/><path fill="#1D2C6C" stroke="#B08293" stroke-opacity=".037" stroke-width="5" d="M 193,450 C 167,475 579,156 160,349 C 277,239 313,247 275,251 C 115,368 311,276 235,187 C 430,267 419,415 259,175 C 473,479 356,274 164,141 C 666,414 519,121 566,384 Z" opacity=".737" transform="rotate(146.0 400 300)"/><path fill="#443D1D" stroke="#A393D7" stroke-opacity=".825" stroke-width="5" d="M 361,169 C 670,287 475,236 679,269 C 128,203 311,170 244,208 C 485,145 435,487 581,108 C 602,412 599,451 649,491 C 405,136 153,388 374,401 C 186,177 567,364 316,223 C 367,335 287,438 555,157 C 665,391 456,187 692,169 Z" opacity=".07" transform="rotate(-55.0 400 300)"/></g></svg>