<svg xmlns="http://www.w3.org/2000/svg" xmlns:xlink="http://www.w3.org/1999/xlink" width="800" height="600" version="1.1" viewBox="0 0 800 600"><g fill="none" fill-rule="evenodd" stroke="none" stroke-width="1"><rect width="397" height="285" x="451" y="382" fill="#ed2b2c" stroke="#31a06b" stroke-opacity=".226" stroke-width="7" opacity=".996" transform="rotate(-24.0 400 300)"/><polygon fill="#2b55f7" stroke="#ed2b2c" stroke-opacity=".286" stroke-width="3" points="93 494 466 199 160 367 141 134 785 59 681 290 472 1 473 448" opacity=".636" transform="rotate(135.0 400 300)"/><polygon fill="#31a06b" stroke="#f27630" stroke-opacity=".705" stroke-width="5" points="710 566 513 171 256 475 317 204 396 202" opacity=".87" transform="rotate(-25.0 400 300)"/><ellipse cx="240" cy="553" fill="#2b55f7" stroke="#f27630" stroke-opacity=".954" stroke-width="6" opacity=".704" rx="299" ry="136" transform="rotate(-145.0 400 300)"/><path fill="#31a06b" stroke="#f9d84b" stroke-opacity=".159" stroke-width="4" d="M 360,166 C 674,430 197,186 507,494 C 632,379 236,251 115,464 C 417,391 221,211 366,174 C 591,273 154,172 355,440 C 670,427 371,351 410,148 C 359,330 577,107 235,376 C 665,382 278,356 150,104 C 470,202 590,164 301,470 Z" opacity=".296" transform="rotate(145.0 400 300)"/><ellipse cx="22" cy="463" fill="#f9d84b" stroke="#31a06b" stroke-opacity=".877" stroke-width="6" opacity=".215" rx="53" ry="99" transform="rotate(-60.0 400 300)"/></g></svg>