<?xml version="1.0" encoding="UTF-8"?>
<svg width="800px" height="600px" viewBox="0 0 800 600" version="1.1" xmlns="http://www.w3.org/2000/svg" xmlns:xlink="http://www.w3.org/1999/xlink">
  <defs></defs>
  <g stroke="none" stroke-width="1" fill="none" fill-rule="evenodd">
    
    <rect stroke="#31a06b" stroke-width="7" fill="#ed2b2c" opacity="0.9960246976878894" stroke-opacity="0.22582811186774807" transform="rotate(-24.0 400 300)" x="451" y="382" width="397" height="285"></rect>
<polygon stroke="#ed2b2c" stroke-width="3" fill="#2b55f7" opacity="0.6360684740881525" stroke-opacity="0.2862904355625626" transform="rotate(135.0 400 300)" points="93 494 466 199 160 367 141 134 785 59 681 290 472 1 473 448 "></polygon>
<polygon stroke="#f27630" stroke-width="5" fill="#31a06b" opacity="0.8704882592129705" stroke-opacity="0.704732990404152" transform="rotate(-25.0 400 300)" points="710 566 513 171 256 475 317 204 396 202 "></polygon>
<ellipse stroke="#f27630" stroke-width="6" fill="#2b55f7" opacity="0.704321186096848" stroke-opacity="0.9538575566926647" transform="rotate(-145.0 400 300)" cx="240" rx="299" cy="553" ry="136"></ellipse>
<path stroke="#f9d84b" stroke-width="4" fill="#31a06b" opacity="0.2961984129447871" stroke-opacity="0.15914314683254885" transform="rotate(145.0 400 300)" d="M 360,166  C 674,430 197,186 507,494 C 632,379 236,251 115,464 C 417,391 221,211 366,174 C 591,273 154,172 355,440 C 670,427 371,351 410,148 C 359,330 577,107 235,376 C 665,382 278,356 150,104 C 470,202 590,164 301,470 Z"></path>
<ellipse stroke="#31a06b" stroke-width="6" fill="#f9d84b" opacity="0.21539921981158408" stroke-opacity="0.8773373427011982" transform="rotate(-60.0 400 300)" cx="22" rx="53" cy="463" ry="99"></ellipse>

  </g>
</svg>
