<?xml version="1.0" encoding="UTF-8"?>
<svg width="800px" height="600px" viewBox="0 0 800 600" version="1.1" xmlns="http://www.w3.org/2000/svg" xmlns:xlink="http://www.w3.org/1999/xlink">
  <defs></defs>
  <g stroke="none" stroke-width="1" fill="none" fill-rule="evenodd">
    
    <path stroke="#f27630" stroke-width="1" fill="#ed2b2c" opacity="0.9547064194953143" stroke-opacity="0.4789787181879322" transform="rotate(-13.0 400 300)" d="M 411,212  C 434,316 375,200 393,488 C 398,308 283,183 327,402 C 224,329 479,472 197,134 C 111,220 564,132 241,289 C 434,293 636,102 379,163 C 137,109 188,479 417,307 C 657,246 471,228 564,435 C 409,400 278,271 236,310 C 454,371 699,220 632,213 Z"></path>
<path stroke="#31a06b" stroke-width="1" fill="#f9d84b" opacity="0.3052519475088359" stroke-opacity="0.7564225330897812" transform="rotate(22.0 400 300)" d="M 166,492  C 150,274 427,281 581,451 C 679,302 342,232 169,456 C 563,313 219,474 326,303 C 121,228 655,417 512,441 C 698,272 445,486 580,156 C 355,401 539,113 683,463 C 536,157 460,152 234,281 C 358,180 185,369 347,331 C 612,212 309,276 453,208 C 497,204 157,448 379,254 Z"></path>
<path stroke="#ed2b2c" stroke-width="7" fill="#f9d84b" opacity="0.9302703686538467" stroke-opacity="0.86871476100002" transform="rotate(60.0 400 300)" d="M 346,141  C 389,424 581,113 534,485 C 440,163 102,182 470,458 C 328,150 636,119 344,114 C 225,500 581,451 142,450 C 319,148 446,181 164,268 C 331,418 590,236 159,349 C 199,141 172,270 208,436 C 162,403 664,154 659,146 C 425,137 160,386 541,406 C 169,492 454,392 351,399 Z"></path>
<path stroke="#2b55f7" stroke-width="4" fill="#2b55f7" opacity="0.7485458216428486" stroke-opacity="0.9708754067621378" transform="rotate(-99.0 400 300)" d="M 612,424  C 140,446 486,258 582,252 C 428,434 609,160 178,332 C 683,132 656,315 684,114 C 556,213 669,138 619,210 C 363,426 216,304 663,464 C 337,420 205,380 650,356 C 640,131 524,113 257,321 C 356,255 418,216 170,259 C 132,495 447,270 178,383 C 152,353 379,153 392,285 Z"></path>
<path stroke="#31a06b" stroke-width="4" fill="#31a06b" opacity="0.22902884483225944" stroke-opacity="0.6269554535257134" transform="rotate(-159.0 400 300)" d="M 608,212  C 278,430 281,156 303,406 C 285,291 425,183 116,377 C 239,240 101,112 277,121 C 244,299 194,354 683,346 C 399,434 454,237 378,134 C 396,390 559,359 281,112 C 229,405 379,118 256,294 Z"></path>
<path stroke="#31a06b" stroke-width="2" fill="#f27630" opacity="0.9826312034865401" stroke-opacity="0.7994643277836946" transform="rotate(49.0 400 300)" d="M 357,324  C 157,478 207,469 159,163 C 662,180 241,128 580,467 C 120,169 681,169 518,204 C 662,384 439,134 538,223 Z"></path>
<path stroke="#f9d84b" stroke-width="7" fill="#2b55f7" opacity="0.15070553749045987" stroke-opacity="0.4092860297405857" transform="rotate(-15.0 400 300)" d="M 539,282  C 192,257 393,340 259,166 C 137,495 277,361 524,289 C 627,176 633,256 477,404 C 139,284 617,120 187,446 C 385,107 621,120 265,225 C 626,463 562,397 112,151 C 698,439 195,178 685,265 C 421,300 509,314 484,226 Z"></path>
<path stroke="#2b55f7" stroke-width="6" fill="#31a06b" opacity="0.13556671154406086" stroke-opacity="0.4339088322438146" transform="rotate(-110.0 400 300)" d="M 639,444  C 287,449 470,398 491,310 C 220,102 177,185 277,175 C 123,150 249,298 357,388 C 581,388 270,280 458,481 C 243,170 232,302 106,335 Z"></path>

  </g>
</svg>
