<svg xmlns="http://www.w3.org/2000/svg" xmlns:xlink="http://www.w3.org/1999/xlink" width="800" height="600" version="1.1" viewBox="0 0 800 600"><g fill="none" fill-rule="evenodd" stroke="none" stroke-width="1"><ellipse cx="118" cy="75" fill="#041233" stroke="#705A06" stroke-opacity=".763" stroke-width="2" opacity=".562" rx="69" ry="181" transform="rotate(1.0 400 300)"/><path fill="#D2ACBA" stroke="#A05DA4" stroke-opacity=".992" stroke-width="4" d="M 566,160 C 450,135 646,421 137,258 C 471,347 486,251 263,179 C 220,110 234,118 429,468 C 108,143 107,360 433,220 C 192,257 540,174 181,325 C 220,298 166,352 267,297 Z" opacity=".89" transform="rotate(-104.0 400 300)"/><path fill="#693D64" stroke="#911AAA" stroke-opacity=".453" stroke-width="5" d="M 115,189 C 459,258 545,156 257,202 C 339,155 652,236 424,468 C 444,253 214,234 577,381 C 480,251 669,421 518,142 C 192,138 339,267 126,286 Z" opacity=".811" transform="rotate(-143.0 400 300)"/><polygon fill="#526361" stroke="#8A9601" stroke-opacity=".796" stroke-width="3" points="380 135 58 350 356 481 635 291 199 70 235 391" opacity=".46" transform="rotate(127.0 400 300)"/><polygon fill="#795950" stroke="#23013C" stroke-opacity=".741" stroke-width="2" points="159 558 213 48 27 597 370 382 140 502 732 285 124 560 544 36" opacity=".767" transform="rotate(-4.0 400 300)"/><rect width="197" height="147" x="433" y="571" fill="#92AC29" stroke="#68CA60" stroke-opacity=".288" stroke-width="7" opacity=".573" transform="rotate(48.0 400 300)"/><path fill="#612758" stroke="#D330C4" stroke-opacity=".569" stroke-width="2" d="M 625,484 C 387,135 232,231 172,477 C 336,418 211,360 439,269 C 562,494 481,317 202,253 C 278,104 422,437 381,268 C 674,406 420,491 223,310 C 184,411 387,184 293,410 C 664,433 605,199 428,127 C 697,377 230,262 321,165 C 244,429 216,333 466,218 C 472,160 154,330 565,445 Z" opacity=".177" transform="rotate(139.0 400 300)"/><ellipse cx="33" cy="301" fill="#7D5BC3" stroke="#49CCD5" stroke-opacity=".989" stroke-width="2" opacity=".708" rx="391" ry="299" transform="rotate(-67.0 400 300)"/><polygon fill="#63329A" stroke="#ACB800" stroke-opacity=".503" stroke-width="4" points="692 563 471 216 508 73 37 12 471 563" opacity=".068" transform="rotate(-123.0 400 300)"/><ellipse cx="252" cy="423" fill="#D06593" stroke="#C862D4" stroke-opacity=".322" stroke-width="4" opacity=".332" rx="265" ry="210" transform="rotate(-140.0 400 300)"/></g></svg>