<?xml version="1.0" encoding="UTF-8"?>
<svg width="800px" height="600px" viewBox="0 0 800 600" version="1.1" xmlns="http://www.w3.org/2000/svg" xmlns:xlink="http://www.w3.org/1999/xlink">
  <defs></defs>
  <g stroke="none" stroke-width="1" fill="none" fill-rule="evenodd">
    
    <ellipse stroke="#705A06" stroke-width="2" fill="#041233" opacity="0.5622568815776094" stroke-opacity="0.762746759841836" transform="rotate(1.0 400 300)" cx="118" rx="69" cy="75" ry="181"></ellipse>
<path stroke="#A05DA4" stroke-width="4" fill="#D2ACBA" opacity="0.8901856192921556" stroke-opacity="0.9922288010521237" transform="rotate(-104.0 400 300)" d="M 566,160  C 450,135 646,421 137,258 C 471,347 486,251 263,179 C 220,110 234,118 429,468 C 108,143 107,360 433,220 C 192,257 540,174 181,325 C 220,298 166,352 267,297 Z"></path>
<path stroke="#911AAA" stroke-width="5" fill="#693D64" opacity="0.8106121418609871" stroke-opacity="0.4527161952133576" transform="rotate(-143.0 400 300)" d="M 115,189  C 459,258 545,156 257,202 C 339,155 652,236 424,468 C 444,253 214,234 577,381 C 480,251 669,421 518,142 C 192,138 339,267 126,286 Z"></path>
<polygon stroke="#8A9601" stroke-width="3" fill="#526361" opacity="0.4595562937777664" stroke-opacity="0.7959185226103509" transform="rotate(127.0 400 300)" points="380 135 58 350 356 481 635 291 199 70 235 391 "></polygon>
<polygon stroke="#23013C" stroke-width="2" fill="#795950" opacity="0.767111637196085" stroke-opacity="0.7407015365797649" transform="rotate(-4.0 400 300)" points="159 558 213 48 27 597 370 382 140 502 732 285 124 560 544 36 "></polygon>
<rect stroke="#68CA60" stroke-width="7" fill="#92AC29" opacity="0.5725656314030638" stroke-opacity="0.2880743252580181" transform="rotate(48.0 400 300)" x="433" y="571" width="197" height="147"></rect>
<path stroke="#D330C4" stroke-width="2" fill="#612758" opacity="0.17691905967749502" stroke-opacity="0.5688066827745423" transform="rotate(139.0 400 300)" d="M 625,484  C 387,135 232,231 172,477 C 336,418 211,360 439,269 C 562,494 481,317 202,253 C 278,104 422,437 381,268 C 674,406 420,491 223,310 C 184,411 387,184 293,410 C 664,433 605,199 428,127 C 697,377 230,262 321,165 C 244,429 216,333 466,218 C 472,160 154,330 565,445 Z"></path>
<ellipse stroke="#49CCD5" stroke-width="2" fill="#7D5BC3" opacity="0.7078146106388069" stroke-opacity="0.98912521935716" transform="rotate(-67.0 400 300)" cx="33" rx="391" cy="301" ry="299"></ellipse>
<polygon stroke="#ACB800" stroke-width="4" fill="#63329A" opacity="0.06788403810741989" stroke-opacity="0.503488769843893" transform="rotate(-123.0 400 300)" points="692 563 471 216 508 73 37 12 471 563 "></polygon>
<ellipse stroke="#C862D4" stroke-width="4" fill="#D06593" opacity="0.33156490948372386" stroke-opacity="0.32162892836560786" transform="rotate(-140.0 400 300)" cx="252" rx="265" cy="423" ry="210"></ellipse>

  </g>
</svg>
