<?xml version="1.0" encoding="UTF-8"?>
<svg width="800px" height="600px" viewBox="0 0 800 600" version="1.1" xmlns="http://www.w3.org/2000/svg" xmlns:xlink="http://www.w3.org/1999/xlink">
  <defs></defs>
  <g stroke="none" stroke-width="1" fill="none" fill-rule="evenodd">
    
    <polygon stroke="#f9d84b" stroke-width="5" fill="#ed2b2c" opacity="0.4321853450773963" stroke-opacity="0.08596165856243289" transform="rotate(158.0 400 300)" points="686 490 190 98 168 4 12 182 282 168 73 540 "></polygon>
<rect stroke="#f27630" stroke-width="7" fill="#2b55f7" opacity="0.09420137261571276" stroke-opacity="0.21475820442293608" transform="rotate(76.0 400 300)" x="594" y="131" width="104" height="356"></rect>
<rect stroke="#ed2b2c" stroke-width="6" fill="#ed2b2c" opacity="0.7212837981353618" stroke-opacity="0.6089689756238591" transform="rotate(82.0 400 300)" x="757" y="392" width="246" height="114"></rect>
<polygon stroke="#ed2b2c" stroke-width="2" fill="#f27630" opacity="0.46132702674617" stroke-opacity="0.16281529230951652" transform="rotate(-141.0 400 300)" points="354 122 496 82 437 525 148 113 298 16 332 466 "></polygon>
<polygon stroke="#2b55f7" stroke-width="2" fill="#2b55f7" opacity="0.6913501636276498" stroke-opacity="0.06343662470213501" transform="rotate(-66.0 400 300)" points="532 50 423 301 167 96 123 541 447 239 704 161 772 480 150 166 "></polygon>
<path stroke="#31a06b" stroke-width="4" fill="#f27630" opacity="0.6400182834262976" stroke-opacity="0.7791627542549467" transform="rotate(142.0 400 300)" d="M 682,270  C 215,271 208,164 584,281 C 185,195 104,192 221,314 C 314,244 533,279 291,252 C 367,340 136,374 188,478 C 141,378 248,429 431,497 Z"></path>
<polygon stroke="#ed2b2c" stroke-width="6" fill="#2b55f7" opacity="0.5984398287165479" stroke-opacity="0.4190177329658315" transform="rotate(70.0 400 300)" points="39 367 476 183 514 461 79 593 509 336 115 192 "></polygon>
<polygon stroke="#31a06b" stroke-width="4" fill="#2b55f7" opacity="0.8865606138212706" stroke-opacity="0.6538036650190332" transform="rotate(-25.0 400 300)" points="379 142 523 264 210 297 201 208 610 319 168 178 506 515 "></polygon>
<rect stroke="#f27630" stroke-width="5" fill="#31a06b" opacity="0.8237013884271884" stroke-opacity="0.49132117797148306" transform="rotate(-90.0 400 300)" x="494" y="250" width="100" height="113"></rect>
<path stroke="#f27630" stroke-width="1" fill="#f9d84b" opacity="0.20819368662306498" stroke-opacity="0.12181414547034303" transform="rotate(7.0 400 300)" d="M 254,149  C 409,230 580,297 529,498 C 402,273 557,388 334,340 C 210,282 144,201 498,415 C 576,258 329,488 680,194 Z"></path>

  </g>
</svg>
