<svg xmlns="http://www.w3.org/2000/svg" xmlns:xlink="http://www.w3.org/1999/xlink" width="800" height="600" version="1.1" viewBox="0 0 800 600"><g fill="none" fill-rule="evenodd" stroke="none" stroke-width="1"><polygon fill="#ed2b2c" stroke="#f9d84b" stroke-opacity=".086" stroke-width="5" points="686 490 190 98 168 4 12 182 282 168 73 540" opacity=".432" transform="rotate(158.0 400 300)"/><rect width="104" height="356" x="594" y="131" fill="#2b55f7" stroke="#f27630" stroke-opacity=".215" stroke-width="7" opacity=".094" transform="rotate(76.0 400 300)"/><rect width="246" height="114" x="757" y="392" fill="#ed2b2c" stroke="#ed2b2c" stroke-opacity=".609" stroke-width="6" opacity=".721" transform="rotate(82.0 400 300)"/><polygon fill="#f27630" stroke="#ed2b2c" stroke-opacity=".163" stroke-width="2" points="354 122 496 82 437 525 148 113 298 16 332 466" opacity=".461" transform="rotate(-141.0 400 300)"/><polygon fill="#2b55f7" stroke="#2b55f7" stroke-opacity=".063" stroke-width="2" points="532 50 423 301 167 96 123 541 447 239 704 161 772 480 150 166" opacity=".691" transform="rotate(-66.0 400 300)"/><path fill="#f27630" stroke="#31a06b" stroke-opacity=".779" stroke-width="4" d="M 682,270 C 215,271 208,164 584,281 C 185,195 104,192 221,314 C 314,244 533,279 291,252 C 367,340 136,374 188,478 C 141,378 248,429 431,497 Z" opacity=".64" transform="rotate(142.0 400 300)"/><polygon fill="#2b55f7" stroke="#ed2b2c" stroke-opacity=".419" stroke-width="6" points="39 367 476 183 514 461 79 593 509 336 115 192" opacity=".598" transform="rotate(70.0 400 300)"/><polygon fill="#2b55f7" stroke="#31a06b" stroke-opacity=".654" stroke-width="4" points="379 142 523 264 210 297 201 208 610 319 168 178 506 515" opacity=".887" transform="rotate(-25.0 400 300)"/><rect width="100" height="113" x="494" y="250" fill="#31a06b" stroke="#f27630" stroke-opacity=".491" stroke-width="5" opacity=".824" transform="rotate(-90.0 400 300)"/><path fill="#f9d84b" stroke="#f27630" stroke-opacity=".122" stroke-width="1" d="M 254,149 C 409,230 580,297 529,498 C 402,273 557,388 334,340 C 210,282 144,201 498,415 C 576,258 329,488 680,194 Z" opacity=".208" transform="rotate(7.0 400 300)"/></g></svg>