<?xml version="1.0" encoding="UTF-8"?>
<svg width="800px" height="600px" viewBox="0 0 800 600" version="1.1" xmlns="http://www.w3.org/2000/svg" xmlns:xlink="http://www.w3.org/1999/xlink">
  <defs></defs>
  <g stroke="none" stroke-width="1" fill="none" fill-rule="evenodd">
    
    <path stroke="#2956B0" stroke-width="1" fill="#09077B" opacity="0.14896660383418667" stroke-opacity="0.7479427827176804" transform="rotate(41.0 400 300)" d="M 296,178  C 411,346 415,118 323,209 C 500,457 363,307 148,217 C 490,348 435,108 619,270 C 694,106 249,259 622,374 C 192,464 289,340 421,358 C 587,198 291,459 235,440 C 638,327 697,358 392,359 C 142,220 649,218 501,484 C 563,475 404,142 444,472 Z"></path>
<path stroke="#2A4B3D" stroke-width="1" fill="#43CD1D" opacity="0.23684468345381854" stroke-opacity="0.15994841906398233" transform="rotate(64.0 400 300)" d="M 527,254  C 470,456 650,168 541,470 C 672,376 385,455 699,293 C 148,340 585,276 525,354 C 326,482 660,196 567,188 C 220,204 572,422 173,224 C 678,439 281,255 270,168 C 521,164 423,436 110,494 C 400,439 248,271 536,237 C 132,331 686,151 499,449 C 425,337 594,245 672,279 C 603,342 514,496 323,358 Z"></path>
<path stroke="#B3BB31" stroke-width="3" fill="#1A4B49" opacity="0.849354078507117" stroke-opacity="0.7849407534346264" transform="rotate(-3.0 400 300)" d="M 441,238  C 478,375 162,260 585,344 C 433,193 559,178 457,466 C 250,490 165,159 183,423 C 490,437 134,286 473,379 Z"></path>
<path stroke="#C75B6B" stroke-width="3" fill="#876839" opacity="0.4166599471855086" stroke-opacity="0.8767312891210035" transform="rotate(92.0 400 300)" d="M 419,310  C 387,369 256,346 272,176 C 320,413 221,403 546,125 C 387,251 197,203 661,255 C 558,492 190,117 336,149 C 616,277 634,186 316,104 C 291,183 558,174 546,129 Z"></path>
<path stroke="#9779D0" stroke-width="1" fill="#3A52D1" opacity="0.5719091306148811" stroke-opacity="0.8216566096364193" transform="rotate(129.0 400 300)" d="M 102,359  C 607,188 307,450 296,124 C 167,423 182,168 101,201 C 257,447 543,438 510,413 C 277,292 650,266 376,406 C 221,274 313,338 198,320 C 149,500 233,336 306,364 C 265,223 292,396 659,194 C 481,389 191,103 584,333 Z"></path>
<path stroke="#CB1AAC" stroke-width="4" fill="#547470" opacity="0.8624038408570261" stroke-opacity="0.7012283845587757" transform="rotate(-22.0 400 300)" d="M 389,416  C 286,150 678,426 536,128 C 301,279 608,403 620,262 C 576,327 317,272 563,485 C 372,314 412,337 636,277 C 315,335 428,349 333,147 Z"></path>

  </g>
</svg>
