<?xml version="1.0" encoding="UTF-8"?>
<svg width="800px" height="600px" viewBox="0 0 800 600" version="1.1" xmlns="http://www.w3.org/2000/svg" xmlns:xlink="http://www.w3.org/1999/xlink">
  <defs></defs>
  <g stroke="none" stroke-width="1" fill="none" fill-rule="evenodd">
    
    <ellipse stroke="#f27630" stroke-width="7" fill="#f27630" opacity="0.9778679554517176" stroke-opacity="0.9341036943946449" transform="rotate(-167.0 400 300)" cx="209" rx="328" cy="560" ry="299"></ellipse>
<ellipse stroke="#2b55f7" stroke-width="4" fill="#31a06b" opacity="0.3350894448210437" stroke-opacity="0.934481117423316" transform="rotate(-48.0 400 300)" cx="384" rx="39" cy="198" ry="123"></ellipse>
<polygon stroke="#f9d84b" stroke-width="2" fill="#2b55f7" opacity="0.4929614884758842" stroke-opacity="0.12953127858927874" transform="rotate(-76.0 400 300)" points="414 458 187 21 560 153 11 255 263 386 278 207 259 85 "></polygon>
<path stroke="#2b55f7" stroke-width="3" fill="#f27630" opacity="0.9478759082232417" stroke-opacity="0.5941124044301248" transform="rotate(-90.0 400 300)" d="M 700,411  C 475,147 112,497 239,235 C 364,386 126,473 538,287 C 583,197 165,157 598,291 C 171,417 197,445 428,301 Z"></path>
<ellipse stroke="#2b55f7" stroke-width="7" fill="#2b55f7" opacity="0.5090433059780272" stroke-opacity="0.04930633718771706" transform="rotate(-60.0 400 300)" cx="312" rx="176" cy="126" ry="233"></ellipse>
<rect stroke="#f27630" stroke-width="5" fill="#31a06b" opacity="0.9086035761514598" stroke-opacity="0.8351590167193" transform="rotate(49.0 400 300)" x="649" y="21" width="327" height="186"></rect>
<ellipse stroke="#ed2b2c" stroke-width="5" fill="#f9d84b" opacity="0.4879433860500366" stroke-opacity="0.0936138689808307" transform="rotate(130.0 400 300)" cx="99" rx="54" cy="586" ry="165"></ellipse>
<ellipse stroke="#2b55f7" stroke-width="4" fill="#31a06b" opacity="0.19938137093632366" stroke-opacity="0.323514557138289" transform="rotate(-94.0 400 300)" cx="742" rx="255" cy="361" ry="35"></ellipse>

  </g>
</svg>
