<svg xmlns="http://www.w3.org/2000/svg" xmlns:xlink="http://www.w3.org/1999/xlink" width="800" height="600" version="1.1" viewBox="0 0 800 600"><g fill="none" fill-rule="evenodd" stroke="none" stroke-width="1"><ellipse cx="209" cy="560" fill="#f27630" stroke="#f27630" stroke-opacity=".934" stroke-width="7" opacity=".978" rx="328" ry="299" transform="rotate(-167.0 400 300)"/><ellipse cx="384" cy="198" fill="#31a06b" stroke="#2b55f7" stroke-opacity=".934" stroke-width="4" opacity=".335" rx="39" ry="123" transform="rotate(-48.0 400 300)"/><polygon fill="#2b55f7" stroke="#f9d84b" stroke-opacity=".13" stroke-width="2" points="414 458 187 21 560 153 11 255 263 386 278 207 259 85" opacity=".493" transform="rotate(-76.0 400 300)"/><path fill="#f27630" stroke="#2b55f7" stroke-opacity=".594" stroke-width="3" d="M 700,411 C 475,147 112,497 239,235 C 364,386 126,473 538,287 C 583,197 165,157 598,291 C 171,417 197,445 428,301 Z" opacity=".948" transform="rotate(-90.0 400 300)"/><ellipse cx="312" cy="126" fill="#2b55f7" stroke="#2b55f7" stroke-opacity=".049" stroke-width="7" opacity=".509" rx="176" ry="233" transform="rotate(-60.0 400 300)"/><rect width="327" height="186" x="649" y="21" fill="#31a06b" stroke="#f27630" stroke-opacity=".835" stroke-width="5" opacity=".909" transform="rotate(49.0 400 300)"/><ellipse cx="99" cy="586" fill="#f9d84b" stroke="#ed2b2c" stroke-opacity=".094" stroke-width="5" opacity=".488" rx="54" ry="165" transform="rotate(130.0 400 300)"/><ellipse cx="742" cy="361" fill="#31a06b" stroke="#2b55f7" stroke-opacity=".324" stroke-width="4" opacity=".199" rx="255" ry="35" transform="rotate(-94.0 400 300)"/></g></svg>