<svg xmlns="http://www.w3.org/2000/svg" xmlns:xlink="http://www.w3.org/1999/xlink" width="800" height="600" version="1.1" viewBox="0 0 800 600"><g fill="none" fill-rule="evenodd" stroke="none" stroke-width="1"><path fill="#0fa6d8" stroke="#02eb6b" stroke-opacity=".07" stroke-width="3" d="M 304,418 C 336,385 315,170 121,480 C 322,285 604,176 362,285 C 384,221 436,135 389,187 C 580,262 326,473 102,363 C 228,206 378,222 444,380 Z" opacity=".595" transform="rotate(78.0 400 300)"/><path fill="#f559a0" stroke="#0fa6d8" stroke-opacity=".408" stroke-width="3" d="M 698,379 C 141,173 644,470 489,273 C 526,299 169,268 606,201 C 225,126 588,290 633,234 C 515,238 434,265 328,441 C 350,466 449,179 469,174 C 359,326 488,311 565,317 C 121,197 542,316 253,116 C 640,186 531,485 228,281 Z" opacity=".551" transform="rotate(49.0 400 300)"/><path fill="#f559a0" stroke="#02eb6b" stroke-opacity=".986" stroke-width="3" d="M 306,456 C 536,453 525,163 101,429 C 123,199 307,455 161,327 C 350,152 106,500 120,460 C 168,307 415,482 429,204 C 600,377 567,304 331,294 C 227,494 257,486 430,281 Z" opacity=".993" transform="rotate(-5.0 400 300)"/><path fill="#f559a0" stroke="#f559a0" stroke-opacity=".2" stroke-width="6" d="M 527,284 C 549,266 468,346 140,142 C 137,191 128,441 340,220 C 237,371 190,430 177,153 C 535,282 432,177 641,117 C 329,217 691,261 199,322 C 319,120 670,222 548,465 C 191,428 300,175 387,424 C 145,166 468,136 315,419 C 662,150 365,373 649,263 Z" opacity=".314" transform="rotate(44.0 400 300)"/><path fill="#02eb6b" stroke="#0fa6d8" stroke-opacity=".54" stroke-width="4" d="M 343,496 C 456,117 315,449 425,445 C 343,117 639,188 197,487 C 527,279 336,104 103,406 C 123,408 548,114 410,410 C 457,186 578,128 162,489 C 424,199 458,275 624,492 C 625,389 222,229 327,301 C 149,416 285,460 693,192 C 417,464 460,244 304,336 Z" opacity=".732" transform="rotate(-127.0 400 300)"/><path fill="#2cd3f3" stroke="#02eb6b" stroke-opacity=".355" stroke-width="3" d="M 506,200 C 661,302 342,335 273,335 C 412,178 568,386 147,196 C 118,217 217,454 422,201 C 219,466 106,247 546,455 C 505,469 244,254 140,440 C 207,308 452,116 532,158 C 618,161 413,152 269,315 C 604,471 603,231 374,172 C 198,330 314,480 649,463 C 617,279 386,216 586,494 Z" opacity=".711" transform="rotate(-165.0 400 300)"/><path fill="#2cd3f3" stroke="#fe9225" stroke-opacity=".292" stroke-width="4" d="M 383,451 C 659,151 675,401 117,378 C 200,170 335,277 620,142 C 281,249 655,124 108,233 C 126,182 400,146 524,425 C 321,364 319,289 643,357 Z" opacity=".065" transform="rotate(-175.0 400 300)"/><path fill="#02eb6b" stroke="#0fa6d8" stroke-opacity=".558" stroke-width="2" d="M 196,460 C 171,109 251,472 555,127 C 505,160 461,336 444,245 C 365,300 221,495 159,185 C 319,148 188,258 269,109 Z" opacity=".716" transform="rotate(113.0 400 300)"/><path fill="#02eb6b" stroke="#fe9225" stroke-opacity=".188" stroke-width="1" d="M 681,368 C 202,225 444,265 450,370 C 582,267 554,390 228,188 C 207,387 450,403 426,309 C 167,187 521,189 600,240 C 525,337 155,147 379,397 C 305,262 469,326 174,272 Z" opacity=".668" transform="rotate(-103.0 400 300)"/><path fill="#0fa6d8" stroke="#2cd3f3" stroke-opacity=".555" stroke-width="1" d="M 378,207 C 257,486 404,468 527,259 C 193,261 509,123 218,481 C 109,478 612,269 330,288 C 186,357 476,332 485,223 C 421,495 176,341 582,219 Z" opacity=".287" transform="rotate(29.0 400 300)"/></g></svg>