<?xml version="1.0" encoding="UTF-8"?>
<svg width="800px" height="600px" viewBox="0 0 800 600" version="1.1" xmlns="http://www.w3.org/2000/svg" xmlns:xlink="http://www.w3.org/1999/xlink">
  <defs></defs>
  <g stroke="none" stroke-width="1" fill="none" fill-rule="evenodd">
    
    <path stroke="#828CB6" stroke-width="6" fill="#C1D311" opacity="0.12210039514095318" stroke-opacity="0.15597074691007273" transform="rotate(-48.0 400 300)" d="M 368,163  C 624,296 176,127 249,176 C 104,177 624,490 553,191 C 238,189 470,156 244,383 C 667,295 143,326 130,227 C 299,388 490,150 415,377 C 443,184 690,117 392,118 C 394,355 627,390 323,237 C 267,284 125,391 280,494 C 428,397 565,345 158,447 Z"></path>
<path stroke="#D76950" stroke-width="4" fill="#594CB0" opacity="0.23484332109823652" stroke-opacity="0.3982447699031335" transform="rotate(-111.0 400 300)" d="M 278,289  C 542,441 591,216 573,230 C 117,150 583,343 476,437 C 556,217 387,313 331,273 C 318,329 171,252 337,277 C 300,174 286,255 228,435 Z"></path>
<path stroke="#C16CA3" stroke-width="7" fill="#9A46B5" opacity="0.24131822713290466" stroke-opacity="0.9110882533463176" transform="rotate(40.0 400 300)" d="M 438,236  C 127,398 661,222 633,445 C 397,446 579,109 625,107 C 471,273 316,358 129,492 C 315,498 598,101 332,448 C 123,443 270,276 345,497 Z"></path>
<path stroke="#6DCBC7" stroke-width="7" fill="#616434" opacity="0.9264044754162886" stroke-opacity="0.4156010361256613" transform="rotate(59.0 400 300)" d="M 211,425  C 698,136 595,237 298,105 C 273,258 628,243 504,282 C 227,187 242,154 141,281 C 695,463 528,138 597,189 C 318,500 678,338 388,304 C 601,468 189,256 473,403 C 632,274 126,287 472,457 C 220,116 122,448 190,359 C 684,202 593,228 613,400 Z"></path>
<path stroke="#17007B" stroke-width="3" fill="#065832" opacity="0.7649534591836613" stroke-opacity="0.02569757803768464" transform="rotate(37.0 400 300)" d="M 639,319  C 398,336 400,460 111,446 C 284,294 620,309 161,215 C 170,134 604,320 554,321 C 643,124 442,244 257,361 C 295,342 400,473 298,291 Z"></path>
<path stroke="#BACB40" stroke-width="2" fill="#1913DD" opacity="0.7130626533712419" stroke-opacity="0.4077938922543308" transform="rotate(62.0 400 300)" d="M 462,441  C 463,227 260,450 694,290 C 124,113 217,236 223,474 C 362,395 546,499 216,192 C 452,353 252,320 548,346 C 548,140 521,186 424,205 C 599,414 568,343 157,317 C 336,369 440,236 261,117 C 145,407 645,293 414,126 C 212,361 672,419 119,213 C 641,168 255,183 618,299 C 502,126 374,411 584,302 Z"></path>
<path stroke="#0892B3" stroke-width="3" fill="#510A9D" opacity="0.7644797178547195" stroke-opacity="0.053056194259435745" transform="rotate(1.0 400 300)" d="M 263,484  C 664,198 602,109 346,139 C 451,363 571,373 375,388 C 145,289 688,201 245,382 C 168,145 357,324 308,287 C 232,222 534,450 333,497 Z"></path>

  </g>
</svg>
