<?xml version="1.0" encoding="UTF-8"?>
<svg width="800px" height="600px" viewBox="0 0 800 600" version="1.1" xmlns="http://www.w3.org/2000/svg" xmlns:xlink="http://www.w3.org/1999/xlink">
  <defs></defs>
  <g stroke="none" stroke-width="1" fill="none" fill-rule="evenodd">
    
    <path stroke="#f9d84b" stroke-width="7" fill="#2b55f7" opacity="0.6727768558622601" stroke-opacity="0.6860053287700337" transform="rotate(-34.0 400 300)" d="M 470,486  C 569,163 581,280 527,427 C 695,474 137,325 150,412 C 620,457 548,361 464,438 C 690,465 456,483 446,329 Z"></path>
<path stroke="#f9d84b" stroke-width="6" fill="#f27630" opacity="0.44965189305863196" stroke-opacity="0.2834849259190032" transform="rotate(-102.0 400 300)" d="M 324,332  C 280,380 262,346 679,470 C 436,186 422,390 680,256 C 665,244 603,433 602,300 C 610,278 285,367 618,153 C 168,102 567,171 611,121 C 428,149 535,305 446,412 C 387,110 329,228 501,189 Z"></path>
<path stroke="#f27630" stroke-width="7" fill="#2b55f7" opacity="0.7711141240827001" stroke-opacity="0.6697259020603108" transform="rotate(-131.0 400 300)" d="M 211,481  C 564,177 242,116 391,455 C 598,295 105,151 525,341 C 341,377 340,294 662,125 C 111,372 204,313 139,403 C 568,294 443,343 298,363 C 398,129 370,463 151,352 C 553,150 333,286 182,366 Z"></path>
<path stroke="#f27630" stroke-width="6" fill="#ed2b2c" opacity="0.8305687724307721" stroke-opacity="0.2248368031316008" transform="rotate(140.0 400 300)" d="M 697,132  C 682,143 293,218 566,182 C 155,436 660,253 280,495 C 442,114 311,488 148,230 C 438,211 555,264 487,367 C 516,340 475,127 616,266 C 488,307 171,271 227,296 C 545,395 683,371 562,431 Z"></path>
<path stroke="#31a06b" stroke-width="6" fill="#f9d84b" opacity="0.17833915568696" stroke-opacity="0.24448987934589567" transform="rotate(160.0 400 300)" d="M 537,163  C 126,213 437,114 593,198 C 295,227 157,157 324,195 C 197,435 188,258 351,300 C 244,304 606,419 328,466 C 571,309 397,451 309,407 C 361,110 697,423 213,436 C 345,136 257,435 663,226 C 457,450 414,372 609,428 C 528,447 699,280 588,405 C 634,336 638,496 108,293 Z"></path>
<path stroke="#2b55f7" stroke-width="4" fill="#2b55f7" opacity="0.052287996141488484" stroke-opacity="0.5931810586429781" transform="rotate(143.0 400 300)" d="M 112,471  C 194,160 235,468 270,436 C 665,195 254,418 381,343 C 421,213 348,460 525,270 C 487,289 620,213 463,105 C 224,177 114,159 518,395 C 130,147 139,281 136,398 Z"></path>
<path stroke="#2b55f7" stroke-width="1" fill="#2b55f7" opacity="0.7728702784249442" stroke-opacity="0.40070864627708336" transform="rotate(23.0 400 300)" d="M 645,311  C 506,216 227,398 313,177 C 103,473 461,333 178,372 C 147,413 326,188 557,391 C 419,441 237,349 213,314 C 429,172 540,194 635,478 C 196,445 167,363 153,238 Z"></path>

  </g>
</svg>
