<?xml version="1.0" encoding="UTF-8"?>
<svg width="800px" height="600px" viewBox="0 0 800 600" version="1.1" xmlns="http://www.w3.org/2000/svg" xmlns:xlink="http://www.w3.org/1999/xlink">
  <defs></defs>
  <g stroke="none" stroke-width="1" fill="none" fill-rule="evenodd">
    
    <path stroke="#0fa6d8" stroke-width="2" fill="#02eb6b" opacity="0.4448125944698084" stroke-opacity="0.31134964034023044" transform="rotate(113.0 400 300)" d="M 139,128  C 567,329 511,451 676,477 C 289,302 544,228 469,361 C 212,402 141,295 527,172 C 662,475 479,210 288,487 C 366,156 426,128 192,352 C 171,434 155,106 201,360 C 256,205 220,366 368,172 C 216,147 287,440 488,421 C 551,282 487,238 503,181 Z"></path>
<path stroke="#02eb6b" stroke-width="2" fill="#0fa6d8" opacity="0.7408100783110022" stroke-opacity="0.168030094105434" transform="rotate(-126.0 400 300)" d="M 669,500  C 401,120 519,477 146,443 C 686,219 512,220 252,209 C 567,495 201,246 587,198 C 142,436 141,182 194,339 C 267,171 579,285 404,476 C 339,147 255,414 243,133 C 567,462 318,204 609,144 C 502,417 423,118 238,433 C 213,192 103,227 210,470 Z"></path>
<path stroke="#02eb6b" stroke-width="1" fill="#02eb6b" opacity="0.7231627395006004" stroke-opacity="0.02319070556949293" transform="rotate(-125.0 400 300)" d="M 582,394  C 143,142 299,433 628,411 C 693,421 211,500 267,256 C 173,254 572,215 518,312 C 464,445 518,354 248,332 C 282,301 411,190 621,377 C 664,344 432,147 473,380 C 553,103 644,399 620,223 C 390,395 344,118 570,476 C 341,374 109,142 537,232 C 369,416 147,162 410,215 C 465,201 202,103 220,124 Z"></path>
<path stroke="#f559a0" stroke-width="7" fill="#02eb6b" opacity="0.4453394934414852" stroke-opacity="0.82807420956366" transform="rotate(17.0 400 300)" d="M 292,364  C 139,419 133,136 261,490 C 513,104 687,297 173,488 C 486,135 322,255 253,374 C 592,443 304,115 150,229 Z"></path>
<path stroke="#0fa6d8" stroke-width="4" fill="#0fa6d8" opacity="0.8270875244475848" stroke-opacity="0.5542006424315661" transform="rotate(-146.0 400 300)" d="M 353,251  C 153,208 366,390 426,185 C 370,450 291,199 421,452 C 232,372 131,205 387,105 C 181,326 398,335 609,196 C 629,202 651,311 278,353 C 604,377 642,158 336,496 C 292,218 305,389 380,139 C 409,299 186,145 660,484 C 238,169 351,237 237,280 Z"></path>
<path stroke="#02eb6b" stroke-width="5" fill="#fe9225" opacity="0.5721446061036148" stroke-opacity="0.3571487626752348" transform="rotate(-7.0 400 300)" d="M 281,175  C 137,384 536,220 307,139 C 524,250 500,269 318,179 C 364,113 605,362 580,418 C 157,223 558,205 130,244 Z"></path>
<path stroke="#02eb6b" stroke-width="7" fill="#fe9225" opacity="0.3434308803865746" stroke-opacity="0.1232792386270319" transform="rotate(-100.0 400 300)" d="M 360,458  C 135,165 529,269 419,152 C 287,419 149,497 511,401 C 492,110 247,262 662,293 C 261,272 103,271 407,472 C 357,213 575,193 528,170 Z"></path>
<path stroke="#2cd3f3" stroke-width="1" fill="#2cd3f3" opacity="0.8654008913414568" stroke-opacity="0.033808892560332725" transform="rotate(46.0 400 300)" d="M 673,420  C 589,283 306,447 398,120 C 587,404 134,369 601,201 C 537,202 656,368 553,491 C 309,321 692,347 226,249 Z"></path>
<path stroke="#f559a0" stroke-width="2" fill="#2cd3f3" opacity="0.6291993742512707" stroke-opacity="0.5084986490648343" transform="rotate(8.0 400 300)" d="M 656,138  C 359,466 603,473 163,335 C 335,154 536,152 600,328 C 108,449 481,371 449,206 C 164,465 570,433 439,297 C 154,382 625,225 146,192 C 263,400 230,323 374,389 C 147,319 241,253 660,414 C 211,218 440,334 644,143 C 663,288 610,153 497,294 C 330,497 115,444 160,286 C 363,153 635,424 509,202 Z"></path>
<path stroke="#2cd3f3" stroke-width="1" fill="#2cd3f3" opacity="0.919751352093621" stroke-opacity="0.11909509544970409" transform="rotate(-69.0 400 300)" d="M 287,380  C 287,312 669,425 661,276 C 657,260 525,210 200,377 C 484,126 357,489 529,256 C 117,215 571,264 335,299 C 641,311 371,116 417,449 C 149,422 462,436 497,306 C 465,468 652,426 473,214 C 630,223 135,334 139,261 C 473,127 275,425 473,439 C 259,178 660,279 527,494 C 631,115 424,225 160,283 Z"></path>
<path stroke="#0fa6d8" stroke-width="7" fill="#2cd3f3" opacity="0.44283137382605914" stroke-opacity="0.5536728168882071" transform="rotate(3.0 400 300)" d="M 203,364  C 452,370 239,180 346,115 C 336,198 670,460 299,467 C 342,258 688,337 317,386 C 589,129 398,126 150,445 C 555,371 649,348 171,104 C 573,278 287,284 426,367 C 678,344 177,413 137,446 C 447,330 245,450 530,130 C 405,479 165,328 121,472 C 327,471 372,187 249,279 C 101,139 251,147 475,430 Z"></path>

  </g>
</svg>
