<?xml version="1.0" encoding="UTF-8"?>
<svg width="800px" height="600px" viewBox="0 0 800 600" version="1.1" xmlns="http://www.w3.org/2000/svg" xmlns:xlink="http://www.w3.org/1999/xlink">
  <defs></defs>
  <g stroke="none" stroke-width="1" fill="none" fill-rule="evenodd">
    
    <path stroke="#f27630" stroke-width="1" fill="#f27630" opacity="0.5492512766078711" stroke-opacity="0.03528687944464804" transform="rotate(24.0 400 300)" d="M 470,242  C 296,128 686,268 155,371 C 280,221 413,145 421,310 C 110,119 577,333 299,239 C 508,345 536,238 409,345 C 433,280 341,463 669,330 C 609,164 631,314 497,147 C 245,415 154,167 281,259 C 298,151 213,406 618,120 C 353,449 129,480 550,463 C 306,500 407,324 393,217 C 481,322 687,226 566,253 Z"></path>
<path stroke="#31a06b" stroke-width="3" fill="#2b55f7" opacity="0.04924174382546107" stroke-opacity="0.720468079983701" transform="rotate(-150.0 400 300)" d="M 472,128  C 591,283 443,155 242,342 C 678,220 137,212 458,313 C 481,485 380,238 644,142 C 632,284 576,133 653,313 Z"></path>
<path stroke="#2b55f7" stroke-width="2" fill="#2b55f7" opacity="0.5679876817056032" stroke-opacity="0.5458819458228678" transform="rotate(72.0 400 300)" d="M 436,361  C 307,273 647,390 592,216 C 661,498 582,485 566,352 C 283,450 289,413 468,202 C 273,163 404,341 426,134 C 573,220 637,458 161,237 C 236,239 665,117 315,384 C 147,339 385,467 357,230 C 156,153 183,159 507,493 C 696,273 150,424 256,376 Z"></path>
<path stroke="#31a06b" stroke-width="5" fill="#f27630" opacity="0.49687829685698237" stroke-opacity="0.6049483080935261" transform="rotate(79.0 400 300)" d="M 366,443  C 539,275 597,242 282,343 C 108,317 283,134 686,236 C 684,403 110,468 528,431 C 578,257 536,258 146,329 C 196,171 464,286 173,108 C 583,352 473,225 612,106 C 329,311 637,117 427,149 C 510,235 426,324 645,394 C 603,103 586,300 622,316 C 373,430 375,296 628,486 Z"></path>
<path stroke="#2b55f7" stroke-width="2" fill="#2b55f7" opacity="0.10886854286497655" stroke-opacity="0.9302019573328328" transform="rotate(31.0 400 300)" d="M 669,354  C 222,200 243,167 270,121 C 156,389 511,373 454,227 C 366,487 452,156 463,484 C 402,389 145,344 477,481 C 195,228 560,239 565,175 C 351,354 370,302 390,325 C 250,386 193,226 336,353 C 579,346 119,209 690,330 C 248,256 611,289 672,185 Z"></path>
<path stroke="#2b55f7" stroke-width="6" fill="#31a06b" opacity="0.1724755830347266" stroke-opacity="0.5828997476697282" transform="rotate(62.0 400 300)" d="M 362,170  C 541,357 121,377 466,280 C 268,112 213,456 614,273 C 544,321 398,448 596,172 C 226,482 544,112 355,466 Z"></path>
<path stroke="#2b55f7" stroke-width="6" fill="#31a06b" opacity="0.43344595637171823" stroke-opacity="0.29574220459166733" transform="rotate(92.0 400 300)" d="M 151,490  C 321,392 529,484 154,131 C 260,385 420,304 310,485 C 373,238 491,438 650,165 C 456,160 422,470 200,124 C 590,335 600,325 144,397 C 289,106 145,403 189,407 C 276,200 491,490 481,374 Z"></path>
<path stroke="#31a06b" stroke-width="7" fill="#f9d84b" opacity="0.5813364620577351" stroke-opacity="0.4699700233825533" transform="rotate(85.0 400 300)" d="M 260,121  C 644,253 321,314 289,492 C 680,229 372,342 531,233 C 303,151 249,295 193,253 C 242,317 527,115 409,277 C 128,490 169,364 158,456 C 151,247 586,233 602,367 C 536,259 472,336 295,195 Z"></path>
<path stroke="#f9d84b" stroke-width="6" fill="#f27630" opacity="0.5919638531493013" stroke-opacity="0.2260238080120007" transform="rotate(-153.0 400 300)" d="M 214,463  C 181,387 401,281 157,173 C 175,445 515,437 240,453 C 234,283 355,379 641,195 C 553,476 554,425 601,322 C 188,108 448,420 652,308 C 641,204 574,305 353,315 C 241,476 622,473 486,260 Z"></path>

  </g>
</svg>
