<svg xmlns="http://www.w3.org/2000/svg" xmlns:xlink="http://www.w3.org/1999/xlink" width="800" height="600" version="1.1" viewBox="0 0 800 600"><g fill="none" fill-rule="evenodd" stroke="none" stroke-width="1"><path fill="#02eb6b" stroke="#02eb6b" stroke-opacity=".657" stroke-width="4" d="M 429,312 C 235,401 473,204 625,362 C 444,239 328,423 110,379 C 531,144 660,303 409,235 C 425,217 358,450 281,203 Z" opacity=".507" transform="rotate(-60.0 400 300)"/><path fill="#2cd3f3" stroke="#f559a0" stroke-opacity=".309" stroke-width="7" d="M 658,417 C 219,354 260,386 345,125 C 540,452 165,273 117,241 C 380,197 507,278 410,274 C 215,159 391,272 185,400 C 336,496 200,473 395,155 C 586,201 330,176 612,414 C 608,350 148,218 167,158 C 610,282 236,277 679,373 C 422,158 179,431 349,285 Z" opacity=".263" transform="rotate(-83.0 400 300)"/><path fill="#02eb6b" stroke="#2cd3f3" stroke-opacity=".418" stroke-width="2" d="M 623,244 C 437,268 130,401 230,159 C 656,457 696,124 666,104 C 341,159 160,117 422,316 C 612,210 105,461 574,125 C 634,148 306,437 200,365 C 559,126 437,490 160,162 C 279,108 521,315 651,289 Z" opacity=".183" transform="rotate(87.0 400 300)"/><path fill="#fe9225" stroke="#2cd3f3" stroke-opacity=".333" stroke-width="2" d="M 672,486 C 625,160 507,377 331,200 C 439,196 529,268 489,325 C 251,318 329,321 506,161 C 443,380 588,444 453,150 C 522,481 266,174 111,122 C 303,121 116,480 662,182 C 477,472 671,213 201,105 C 454,136 138,481 555,329 C 525,386 579,433 361,471 C 406,151 470,146 262,137 Z" opacity=".554" transform="rotate(-40.0 400 300)"/><path fill="#02eb6b" stroke="#fe9225" stroke-opacity=".411" stroke-width="6" d="M 113,313 C 580,212 652,139 281,168 C 227,474 388,470 607,127 C 332,319 453,128 159,404 C 567,394 280,393 494,243 C 593,334 410,260 120,406 C 479,289 499,267 155,396 C 206,269 361,357 240,287 C 249,326 408,336 242,476 C 531,110 431,206 498,498 C 126,410 613,377 652,295 Z" opacity=".52" transform="rotate(58.0 400 300)"/><path fill="#2cd3f3" stroke="#fe9225" stroke-opacity=".959" stroke-width="2" d="M 521,147 C 571,234 524,277 174,417 C 547,348 453,249 433,331 C 433,248 263,151 360,154 C 306,171 436,432 666,237 C 595,492 140,155 358,485 C 392,191 287,456 107,128 Z" opacity=".209" transform="rotate(47.0 400 300)"/><path fill="#02eb6b" stroke="#f559a0" stroke-opacity=".388" stroke-width="2" d="M 159,483 C 508,280 125,216 636,125 C 426,421 312,112 615,151 C 389,443 625,254 426,115 C 591,176 162,209 633,208 C 521,305 189,330 516,464 C 315,466 604,215 359,320 C 362,312 121,372 456,161 C 586,448 109,316 277,500 C 413,402 488,189 349,276 C 295,286 465,421 326,361 C 573,463 520,125 568,277 Z" opacity=".466" transform="rotate(91.0 400 300)"/></g></svg>