<svg xmlns="http://www.w3.org/2000/svg" xmlns:xlink="http://www.w3.org/1999/xlink" width="800" height="600" version="1.1" viewBox="0 0 800 600"><g fill="none" fill-rule="evenodd" stroke="none" stroke-width="1"><path fill="#ed2b2c" stroke="#ed2b2c" stroke-opacity=".556" stroke-width="7" d="M 631,319 C 129,438 422,323 170,365 C 420,163 341,463 596,496 C 320,124 353,429 275,200 C 324,264 571,174 532,256 C 347,282 101,148 564,329 C 481,418 299,490 102,193 C 460,351 515,282 633,461 C 282,371 390,370 499,353 C 441,472 641,424 261,456 Z" opacity=".454" transform="rotate(128.0 400 300)"/><rect width="292" height="179" x="381" y="94" fill="#f9d84b" stroke="#f9d84b" stroke-opacity=".992" stroke-width="6" opacity=".998" transform="rotate(44.0 400 300)"/><ellipse cx="156" cy="207" fill="#f27630" stroke="#31a06b" stroke-opacity=".969" stroke-width="1" opacity=".982" rx="210" ry="307" transform="rotate(-105.0 400 300)"/><path fill="#f9d84b" stroke="#f9d84b" stroke-opacity=".007" stroke-width="7" d="M 329,215 C 506,408 175,420 527,110 C 259,347 610,137 638,414 C 295,305 573,495 147,221 C 425,346 514,435 289,287 C 487,231 445,241 355,488 C 169,216 676,361 516,197 C 298,411 675,404 659,238 Z" opacity=".41" transform="rotate(34.0 400 300)"/><ellipse cx="29" cy="586" fill="#2b55f7" stroke="#f27630" stroke-opacity=".858" stroke-width="4" opacity=".258" rx="380" ry="315" transform="rotate(-177.0 400 300)"/><polygon fill="#ed2b2c" stroke="#ed2b2c" stroke-opacity=".023" stroke-width="7" points="410 7 168 317 289 56 435 518 631 386 467 49 147 221 306 306" opacity=".633" transform="rotate(-12.0 400 300)"/><path fill="#f27630" stroke="#ed2b2c" stroke-opacity=".901" stroke-width="6" d="M 142,470 C 622,329 202,405 592,411 C 335,500 540,486 515,156 C 208,149 305,218 512,454 C 661,250 331,354 350,370 C 466,474 421,286 654,398 Z" opacity=".002" transform="rotate(-70.0 400 300)"/><polygon fill="#f9d84b" stroke="#f9d84b" stroke-opacity=".084" stroke-width="7" points="77 417 611 518 93 572 432 134 336 128 580 548 717 286 431 258" opacity=".594" transform="rotate(-148.0 400 300)"/></g></svg>