<?xml version="1.0" encoding="UTF-8"?>
<svg width="800px" height="600px" viewBox="0 0 800 600" version="1.1" xmlns="http://www.w3.org/2000/svg" xmlns:xlink="http://www.w3.org/1999/xlink">
  <defs></defs>
  <g stroke="none" stroke-width="1" fill="none" fill-rule="evenodd">
    
    <path stroke="#fe9225" stroke-width="4" fill="#fe9225" opacity="0.9121610167005209" stroke-opacity="0.6903106258276497" transform="rotate(-54.0 400 300)" d="M 204,342  C 498,110 414,392 649,322 C 103,312 440,137 122,253 C 380,370 535,365 512,253 C 593,359 532,404 614,442 C 164,311 647,292 258,226 C 420,386 141,455 116,114 C 346,212 232,326 380,379 Z"></path>
<path stroke="#2cd3f3" stroke-width="4" fill="#f559a0" opacity="0.23559499158923125" stroke-opacity="0.0738277975064964" transform="rotate(-62.0 400 300)" d="M 671,370  C 536,133 547,250 219,486 C 415,495 461,127 493,482 C 557,210 635,221 579,205 C 481,203 289,260 308,387 Z"></path>
<path stroke="#f559a0" stroke-width="7" fill="#02eb6b" opacity="0.39559420142271795" stroke-opacity="0.012873794183986214" transform="rotate(127.0 400 300)" d="M 403,250  C 332,282 649,493 573,471 C 573,434 534,435 264,477 C 119,385 475,350 227,388 C 372,117 266,487 443,149 C 272,147 365,480 546,211 Z"></path>
<path stroke="#02eb6b" stroke-width="5" fill="#f559a0" opacity="0.05294511130451116" stroke-opacity="0.6027456504455259" transform="rotate(-176.0 400 300)" d="M 611,223  C 291,331 115,448 627,234 C 457,472 618,345 637,387 C 291,360 375,178 668,449 C 215,409 457,499 317,119 Z"></path>
<path stroke="#2cd3f3" stroke-width="1" fill="#2cd3f3" opacity="0.6731082218645104" stroke-opacity="0.6065514552828746" transform="rotate(108.0 400 300)" d="M 564,375  C 441,208 667,261 643,329 C 455,366 447,130 392,154 C 215,168 397,305 659,274 C 481,379 598,335 565,299 C 106,170 205,170 294,351 C 112,239 305,192 671,182 C 368,183 153,318 108,420 C 297,439 517,147 604,153 Z"></path>
<path stroke="#02eb6b" stroke-width="2" fill="#fe9225" opacity="0.027034378051271464" stroke-opacity="0.4096579424423283" transform="rotate(-113.0 400 300)" d="M 695,250  C 491,422 227,165 397,211 C 537,323 678,337 492,406 C 575,172 328,338 503,136 C 412,463 298,298 334,222 C 659,342 256,256 266,404 C 463,138 546,353 136,304 C 495,481 155,254 461,277 C 176,174 306,122 246,293 C 555,160 469,366 120,477 Z"></path>
<path stroke="#f559a0" stroke-width="5" fill="#2cd3f3" opacity="0.4178116261065078" stroke-opacity="0.7723964866712202" transform="rotate(-132.0 400 300)" d="M 196,400  C 200,404 196,157 246,457 C 187,220 253,385 640,204 C 548,490 555,223 562,422 C 443,283 289,496 500,377 C 629,433 526,301 234,103 C 319,331 285,443 624,343 C 287,235 512,325 663,396 C 591,352 154,167 697,295 C 593,106 525,445 329,269 C 603,323 514,339 404,294 Z"></path>
<path stroke="#fe9225" stroke-width="6" fill="#2cd3f3" opacity="0.4703660772196735" stroke-opacity="0.39182453141723034" transform="rotate(171.0 400 300)" d="M 425,237  C 544,411 179,118 436,406 C 421,159 613,200 446,381 C 172,328 556,248 354,286 C 298,418 392,484 233,261 C 499,221 594,101 577,141 C 139,486 104,175 161,206 C 251,168 571,326 283,335 C 569,227 621,181 283,475 Z"></path>

  </g>
</svg>
