<svg xmlns="http://www.w3.org/2000/svg" xmlns:xlink="http://www.w3.org/1999/xlink" width="800" height="600" version="1.1" viewBox="0 0 800 600"><g fill="none" fill-rule="evenodd" stroke="none" stroke-width="1"><ellipse cx="256" cy="180" fill="#31a06b" stroke="#f27630" stroke-opacity=".185" stroke-width="2" opacity=".747" rx="159" ry="210" transform="rotate(24.0 400 300)"/><ellipse cx="103" cy="269" fill="#2b55f7" stroke="#ed2b2c" stroke-opacity=".173" stroke-width="3" opacity=".71" rx="299" ry="187" transform="rotate(-135.0 400 300)"/><rect width="112" height="375" x="420" y="418" fill="#2b55f7" stroke="#f27630" stroke-opacity=".377" stroke-width="2" opacity=".695" transform="rotate(156.0 400 300)"/><ellipse cx="151" cy="190" fill="#f9d84b" stroke="#f9d84b" stroke-opacity=".56" stroke-width="6" opacity=".98" rx="420" ry="173" transform="rotate(16.0 400 300)"/><rect width="143" height="324" x="268" y="106" fill="#f27630" stroke="#ed2b2c" stroke-opacity=".295" stroke-width="5" opacity=".885" transform="rotate(-118.0 400 300)"/><ellipse cx="14" cy="461" fill="#f27630" stroke="#f9d84b" stroke-opacity=".107" stroke-width="2" opacity=".047" rx="265" ry="72" transform="rotate(-173.0 400 300)"/><path fill="#f27630" stroke="#f9d84b" stroke-opacity=".248" stroke-width="1" d="M 666,332 C 272,308 554,179 580,197 C 552,161 614,393 589,187 C 446,216 292,375 443,211 C 253,166 668,381 471,181 C 532,478 315,469 698,337 C 293,334 527,164 597,400 C 488,283 458,434 302,139 C 573,250 424,225 290,421 C 298,259 545,152 538,144 C 286,480 140,236 683,305 C 615,371 365,288 621,168 Z" opacity=".615" transform="rotate(-169.0 400 300)"/><path fill="#2b55f7" stroke="#2b55f7" stroke-opacity=".857" stroke-width="3" d="M 395,127 C 427,347 271,403 257,175 C 148,391 169,237 446,274 C 257,152 181,330 119,455 C 283,136 108,188 412,500 C 239,163 375,215 394,393 Z" opacity=".698" transform="rotate(-174.0 400 300)"/><ellipse cx="168" cy="554" fill="#2b55f7" stroke="#31a06b" stroke-opacity=".208" stroke-width="2" opacity=".261" rx="378" ry="61" transform="rotate(133.0 400 300)"/></g></svg>