<svg xmlns="http://www.w3.org/2000/svg" xmlns:xlink="http://www.w3.org/1999/xlink" width="800" height="600" version="1.1" viewBox="0 0 800 600"><g fill="none" fill-rule="evenodd" stroke="none" stroke-width="1"><path fill="#0fa6d8" stroke="#fe9225" stroke-opacity=".364" stroke-width="7" d="M 318,297 C 312,406 102,325 399,315 C 390,264 396,136 527,485 C 289,448 390,269 482,449 C 224,264 542,182 259,109 C 586,240 545,453 119,278 C 120,145 403,162 448,138 C 421,232 548,467 458,146 C 298,351 634,432 462,310 C 258,461 356,452 655,400 C 345,214 290,278 395,153 C 436,231 282,123 609,139 Z" opacity=".788" transform="rotate(-106.0 400 300)"/><path fill="#02eb6b" stroke="#0fa6d8" stroke-opacity=".369" stroke-width="5" d="M 156,404 C 281,113 613,459 430,283 C 579,424 183,161 129,202 C 696,156 239,152 171,359 C 604,451 462,420 596,223 C 637,126 280,211 313,434 C 184,197 109,277 682,197 C 157,281 272,211 287,376 C 652,328 453,190 617,305 Z" opacity=".026" transform="rotate(-138.0 400 300)"/><path fill="#0fa6d8" stroke="#fe9225" stroke-opacity=".999" stroke-width="4" d="M 194,245 C 405,189 213,242 640,237 C 563,438 126,436 194,110 C 196,336 450,427 630,437 C 278,352 441,362 395,249 C 197,409 410,369 219,455 C 316,145 491,430 685,142 C 104,312 112,118 433,407 C 108,215 698,478 697,218 C 531,352 316,404 122,430 C 590,199 279,249 657,127 C 468,408 249,411 439,189 Z" opacity=".62" transform="rotate(175.0 400 300)"/><path fill="#02eb6b" stroke="#f559a0" stroke-opacity=".802" stroke-width="4" d="M 699,498 C 487,139 233,440 277,477 C 217,420 132,210 160,480 C 357,177 415,377 316,444 C 380,306 107,214 655,461 C 149,223 478,155 104,263 C 514,230 307,435 120,113 Z" opacity=".732" transform="rotate(92.0 400 300)"/><path fill="#0fa6d8" stroke="#2cd3f3" stroke-opacity=".027" stroke-width="4" d="M 248,479 C 253,285 101,335 145,281 C 400,363 576,376 141,215 C 352,183 132,336 561,246 C 163,389 105,252 269,383 C 452,467 102,359 624,282 C 237,329 236,361 666,302 C 623,154 416,259 466,234 Z" opacity=".109" transform="rotate(-162.0 400 300)"/><path fill="#2cd3f3" stroke="#f559a0" stroke-opacity=".247" stroke-width="5" d="M 210,247 C 597,126 167,259 544,459 C 533,340 240,464 395,178 C 341,443 160,202 235,302 C 260,148 137,355 654,191 C 468,324 417,473 329,357 Z" opacity=".744" transform="rotate(0.0 400 300)"/></g></svg>