<svg xmlns="http://www.w3.org/2000/svg" xmlns:xlink="http://www.w3.org/1999/xlink" width="800" height="600" version="1.1" viewBox="0 0 800 600"><g fill="none" fill-rule="evenodd" stroke="none" stroke-width="1"><path fill="#f559a0" stroke="#fe9225" stroke-opacity=".952" stroke-width="5" d="M 387,412 C 421,376 139,358 614,499 C 173,174 385,401 157,296 C 257,262 122,236 662,482 C 398,462 588,463 468,263 C 587,315 508,437 347,477 C 479,343 271,241 121,475 C 631,480 226,263 577,334 C 463,244 304,190 454,301 C 478,435 352,441 296,428 C 468,171 649,162 654,197 Z" opacity=".057" transform="rotate(-105.0 400 300)"/><path fill="#f559a0" stroke="#f559a0" stroke-opacity=".097" stroke-width="1" d="M 652,383 C 279,122 348,270 456,200 C 122,375 419,487 105,422 C 499,159 400,420 481,430 C 653,217 388,489 140,241 C 618,152 519,185 148,207 C 545,392 308,417 438,228 C 452,408 526,191 509,466 C 609,224 549,417 693,450 C 290,311 368,191 158,306 C 192,466 410,368 530,341 Z" opacity=".285" transform="rotate(33.0 400 300)"/><path fill="#2cd3f3" stroke="#fe9225" stroke-opacity=".132" stroke-width="6" d="M 119,153 C 174,148 570,426 188,433 C 427,293 236,424 168,383 C 601,422 522,306 553,455 C 215,281 644,404 602,128 C 253,236 126,130 285,347 C 119,480 673,461 526,158 Z" opacity=".33" transform="rotate(-109.0 400 300)"/><path fill="#f559a0" stroke="#fe9225" stroke-opacity=".702" stroke-width="1" d="M 609,198 C 650,167 325,185 530,308 C 204,222 463,170 611,311 C 520,256 200,318 258,405 C 637,410 355,402 677,371 C 622,358 602,496 671,243 C 432,479 398,435 287,147 C 261,305 342,470 661,395 C 324,168 564,381 511,493 C 676,119 443,152 444,250 C 688,272 433,181 669,211 C 309,111 636,293 530,324 Z" opacity=".622" transform="rotate(79.0 400 300)"/><path fill="#0fa6d8" stroke="#2cd3f3" stroke-opacity=".393" stroke-width="1" d="M 185,155 C 617,133 416,112 317,263 C 535,222 260,310 440,339 C 285,413 508,491 290,349 C 431,400 641,441 623,382 C 435,401 168,484 200,300 C 492,314 277,472 678,285 C 360,451 402,133 178,255 C 316,483 650,121 630,179 C 352,350 467,330 207,341 Z" opacity=".933" transform="rotate(-29.0 400 300)"/><path fill="#f559a0" stroke="#2cd3f3" stroke-opacity=".167" stroke-width="4" d="M 327,128 C 601,370 528,330 419,472 C 569,224 551,496 691,325 C 446,172 471,214 158,248 C 529,165 598,362 520,342 C 516,347 399,293 365,214 C 523,132 631,435 338,274 C 530,404 669,197 571,429 C 556,109 528,259 610,193 C 469,495 341,461 303,149 C 565,162 238,263 350,391 C 507,176 615,291 322,348 Z" opacity=".059" transform="rotate(-105.0 400 300)"/><path fill="#f559a0" stroke="#02eb6b" stroke-opacity=".978" stroke-width="4" d="M 588,483 C 458,308 276,255 194,469 C 672,117 602,318 541,461 C 611,481 572,221 449,284 C 665,353 592,457 129,465 C 224,170 168,466 628,338 C 140,151 539,280 583,206 C 583,170 431,284 310,283 C 272,192 580,300 340,496 Z" opacity=".278" transform="rotate(40.0 400 300)"/><path fill="#f559a0" stroke="#02eb6b" stroke-opacity=".303" stroke-width="3" d="M 606,417 C 102,348 613,222 433,179 C 534,482 608,388 498,297 C 441,347 179,411 188,201 C 553,393 401,232 232,218 C 606,248 671,190 397,414 C 443,441 226,333 382,472 C 375,478 204,163 165,104 C 654,472 348,428 294,432 C 116,312 108,236 224,460 Z" opacity=".961" transform="rotate(-32.0 400 300)"/><path fill="#2cd3f3" stroke="#02eb6b" stroke-opacity=".616" stroke-width="6" d="M 173,219 C 208,435 681,216 522,328 C 646,496 188,306 172,261 C 150,446 203,491 111,393 C 452,152 485,118 435,191 C 324,343 128,199 242,468 C 606,264 122,221 109,410 C 656,348 201,433 239,368 C 248,155 667,426 263,418 C 570,369 444,343 550,218 Z" opacity=".218" transform="rotate(-103.0 400 300)"/><path fill="#fe9225" stroke="#02eb6b" stroke-opacity=".618" stroke-width="1" d="M 394,441 C 209,374 468,203 181,262 C 357,288 433,215 203,295 C 311,178 489,150 120,316 C 209,499 180,467 371,272 C 669,264 678,332 659,281 C 181,231 466,114 579,379 C 373,211 130,159 366,180 C 596,271 225,443 527,150 C 307,318 586,361 621,105 Z" opacity=".09" transform="rotate(30.0 400 300)"/></g></svg>