<svg xmlns="http://www.w3.org/2000/svg" xmlns:xlink="http://www.w3.org/1999/xlink" width="800" height="600" version="1.1" viewBox="0 0 800 600"><g fill="none" fill-rule="evenodd" stroke="none" stroke-width="1"><ellipse cx="529" cy="363" fill="#f27630" stroke="#ed2b2c" stroke-opacity=".969" stroke-width="1" opacity=".591" rx="113" ry="193" transform="rotate(47.0 400 300)"/><path fill="#ed2b2c" stroke="#2b55f7" stroke-opacity=".096" stroke-width="7" d="M 275,284 C 577,185 348,167 106,278 C 211,464 537,493 630,434 C 560,174 599,400 114,422 C 664,440 254,272 138,234 C 648,439 291,363 144,417 C 639,129 680,318 496,203 C 673,293 666,327 417,166 C 317,393 608,222 352,328 C 562,242 305,441 511,385 C 475,434 470,322 276,326 Z" opacity=".441" transform="rotate(168.0 400 300)"/><path fill="#2b55f7" stroke="#31a06b" stroke-opacity=".7" stroke-width="5" d="M 557,272 C 322,497 460,465 628,152 C 242,264 156,192 434,274 C 274,492 508,416 307,399 C 543,371 394,229 525,220 C 275,497 244,412 525,453 C 548,220 620,202 612,360 C 214,366 420,166 387,208 C 297,361 163,173 524,444 C 107,419 592,256 655,189 C 371,408 436,253 322,488 C 560,437 509,277 294,457 Z" opacity=".96" transform="rotate(-177.0 400 300)"/><ellipse cx="565" cy="482" fill="#ed2b2c" stroke="#2b55f7" stroke-opacity=".465" stroke-width="6" opacity=".855" rx="234" ry="238" transform="rotate(-141.0 400 300)"/><polygon fill="#ed2b2c" stroke="#31a06b" stroke-opacity=".708" stroke-width="2" points="336 143 134 211 137 97 96 184 388 448 536 463" opacity=".425" transform="rotate(-115.0 400 300)"/><ellipse cx="668" cy="271" fill="#2b55f7" stroke="#f27630" stroke-opacity=".229" stroke-width="3" opacity=".138" rx="180" ry="108" transform="rotate(37.0 400 300)"/><path fill="#2b55f7" stroke="#f27630" stroke-opacity=".004" stroke-width="6" d="M 367,301 C 143,476 493,250 541,425 C 506,170 287,390 167,146 C 392,240 541,354 298,396 C 371,118 522,372 694,135 C 694,469 122,146 627,287 C 161,337 659,175 195,117 C 324,320 228,105 146,418 Z" opacity=".631" transform="rotate(-115.0 400 300)"/><ellipse cx="172" cy="595" fill="#31a06b" stroke="#f9d84b" stroke-opacity=".201" stroke-width="2" opacity=".752" rx="436" ry="265" transform="rotate(41.0 400 300)"/><polygon fill="#f9d84b" stroke="#f27630" stroke-opacity=".252" stroke-width="2" points="478 168 715 188 749 223 772 441 592 384 637 126" opacity=".774" transform="rotate(59.0 400 300)"/><polygon fill="#f27630" stroke="#f27630" stroke-opacity=".824" stroke-width="4" points="767 46 122 333 124 588 125 403 485 583 351 60 630 247 20 453" opacity=".369" transform="rotate(78.0 400 300)"/></g></svg>