<svg xmlns="http://www.w3.org/2000/svg" xmlns:xlink="http://www.w3.org/1999/xlink" width="800" height="600" version="1.1" viewBox="0 0 800 600"><g fill="none" fill-rule="evenodd" stroke="none" stroke-width="1"><path fill="#fe9225" stroke="#f559a0" stroke-opacity=".756" stroke-width="1" d="M 417,395 C 460,309 394,315 386,158 C 689,272 598,359 568,164 C 351,489 630,492 451,159 C 461,107 565,311 137,194 C 304,400 412,394 631,302 C 271,153 652,101 554,386 C 700,337 452,179 485,368 C 268,468 365,499 340,137 Z" opacity=".415" transform="rotate(168.0 400 300)"/><path fill="#fe9225" stroke="#02eb6b" stroke-opacity=".963" stroke-width="6" d="M 378,441 C 177,236 350,220 531,187 C 445,334 282,156 648,145 C 254,229 176,386 236,264 C 248,104 299,324 525,219 C 530,418 131,326 287,477 C 594,126 534,131 376,156 C 449,124 607,428 700,394 C 357,181 533,327 625,135 Z" opacity=".678" transform="rotate(126.0 400 300)"/><path fill="#02eb6b" stroke="#0fa6d8" stroke-opacity=".39" stroke-width="6" d="M 351,139 C 430,363 650,135 196,474 C 577,328 167,411 300,491 C 506,447 110,249 603,426 C 505,225 600,226 550,423 C 437,285 267,197 266,378 C 530,335 362,376 324,314 C 138,359 383,169 527,184 C 544,219 628,237 508,165 C 497,341 565,107 211,307 C 333,493 525,375 502,259 C 632,344 632,495 424,495 Z" opacity=".286" transform="rotate(174.0 400 300)"/><ellipse cx="648" cy="299" fill="#02eb6b" stroke="#0fa6d8" stroke-opacity=".168" stroke-width="4" opacity=".014" rx="341" ry="206" transform="rotate(71.0 400 300)"/><polygon fill="#fe9225" stroke="#02eb6b" stroke-opacity=".055" stroke-width="5" points="526 346 452 206 621 11 9 179 313 549 403 91 759 271" opacity=".589" transform="rotate(-40.0 400 300)"/><ellipse cx="44" cy="403" fill="#2cd3f3" stroke="#02eb6b" stroke-opacity=".495" stroke-width="6" opacity=".89" rx="416" ry="64" transform="rotate(72.0 400 300)"/><ellipse cx="83" cy="24" fill="#f559a0" stroke="#fe9225" stroke-opacity=".44" stroke-width="7" opacity=".408" rx="371" ry="127" transform="rotate(71.0 400 300)"/><polygon fill="#2cd3f3" stroke="#2cd3f3" stroke-opacity=".885" stroke-width="1" points="127 150 240 396 119 581 385 496 414 533 226 491 290 566 330 28" opacity=".24" transform="rotate(20.0 400 300)"/><polygon fill="#02eb6b" stroke="#2cd3f3" stroke-opacity=".667" stroke-width="4" points="381 294 587 491 555 219 11 304 415 202 254 142 76 456" opacity=".494" transform="rotate(51.0 400 300)"/><ellipse cx="690" cy="362" fill="#02eb6b" stroke="#0fa6d8" stroke-opacity=".363" stroke-width="1" opacity=".536" rx="275" ry="39" transform="rotate(149.0 400 300)"/><rect width="319" height="81" x="23" y="391" fill="#02eb6b" stroke="#fe9225" stroke-opacity=".571" stroke-width="4" opacity=".508" transform="rotate(-52.0 400 300)"/></g></svg>