<?xml version="1.0" encoding="UTF-8"?>
<svg width="800px" height="600px" viewBox="0 0 800 600" version="1.1" xmlns="http://www.w3.org/2000/svg" xmlns:xlink="http://www.w3.org/1999/xlink">
  <defs></defs>
  <g stroke="none" stroke-width="1" fill="none" fill-rule="evenodd">
    
    <path stroke="#f559a0" stroke-width="1" fill="#fe9225" opacity="0.41485862203787477" stroke-opacity="0.7558233085579105" transform="rotate(168.0 400 300)" d="M 417,395  C 460,309 394,315 386,158 C 689,272 598,359 568,164 C 351,489 630,492 451,159 C 461,107 565,311 137,194 C 304,400 412,394 631,302 C 271,153 652,101 554,386 C 700,337 452,179 485,368 C 268,468 365,499 340,137 Z"></path>
<path stroke="#02eb6b" stroke-width="6" fill="#fe9225" opacity="0.6784032576333554" stroke-opacity="0.9632675834457176" transform="rotate(126.0 400 300)" d="M 378,441  C 177,236 350,220 531,187 C 445,334 282,156 648,145 C 254,229 176,386 236,264 C 248,104 299,324 525,219 C 530,418 131,326 287,477 C 594,126 534,131 376,156 C 449,124 607,428 700,394 C 357,181 533,327 625,135 Z"></path>
<path stroke="#0fa6d8" stroke-width="6" fill="#02eb6b" opacity="0.2863100968381716" stroke-opacity="0.3900575951987071" transform="rotate(174.0 400 300)" d="M 351,139  C 430,363 650,135 196,474 C 577,328 167,411 300,491 C 506,447 110,249 603,426 C 505,225 600,226 550,423 C 437,285 267,197 266,378 C 530,335 362,376 324,314 C 138,359 383,169 527,184 C 544,219 628,237 508,165 C 497,341 565,107 211,307 C 333,493 525,375 502,259 C 632,344 632,495 424,495 Z"></path>
<ellipse stroke="#0fa6d8" stroke-width="4" fill="#02eb6b" opacity="0.014050904527084535" stroke-opacity="0.16792245410245277" transform="rotate(71.0 400 300)" cx="648" rx="341" cy="299" ry="206"></ellipse>
<polygon stroke="#02eb6b" stroke-width="5" fill="#fe9225" opacity="0.5889415578275012" stroke-opacity="0.05517564674873972" transform="rotate(-40.0 400 300)" points="526 346 452 206 621 11 9 179 313 549 403 91 759 271 "></polygon>
<ellipse stroke="#02eb6b" stroke-width="6" fill="#2cd3f3" opacity="0.889514012591603" stroke-opacity="0.49468465545111284" transform="rotate(72.0 400 300)" cx="44" rx="416" cy="403" ry="64"></ellipse>
<ellipse stroke="#fe9225" stroke-width="7" fill="#f559a0" opacity="0.4083289345686241" stroke-opacity="0.43994629279576664" transform="rotate(71.0 400 300)" cx="83" rx="371" cy="24" ry="127"></ellipse>
<polygon stroke="#2cd3f3" stroke-width="1" fill="#2cd3f3" opacity="0.23966983276449347" stroke-opacity="0.8848577037896281" transform="rotate(20.0 400 300)" points="127 150 240 396 119 581 385 496 414 533 226 491 290 566 330 28 "></polygon>
<polygon stroke="#2cd3f3" stroke-width="4" fill="#02eb6b" opacity="0.4937534638023352" stroke-opacity="0.6672797745897182" transform="rotate(51.0 400 300)" points="381 294 587 491 555 219 11 304 415 202 254 142 76 456 "></polygon>
<ellipse stroke="#0fa6d8" stroke-width="1" fill="#02eb6b" opacity="0.5356043208481117" stroke-opacity="0.36282836224051535" transform="rotate(149.0 400 300)" cx="690" rx="275" cy="362" ry="39"></ellipse>
<rect stroke="#fe9225" stroke-width="4" fill="#02eb6b" opacity="0.5077143109104718" stroke-opacity="0.5714803399005474" transform="rotate(-52.0 400 300)" x="23" y="391" width="319" height="81"></rect>

  </g>
</svg>
