<svg xmlns="http://www.w3.org/2000/svg" xmlns:xlink="http://www.w3.org/1999/xlink" width="800" height="600" version="1.1" viewBox="0 0 800 600"><g fill="none" fill-rule="evenodd" stroke="none" stroke-width="1"><ellipse cx="687" cy="588" fill="#f559a0" stroke="#02eb6b" stroke-opacity=".74" stroke-width="2" opacity=".52" rx="321" ry="40" transform="rotate(77.0 400 300)"/><rect width="251" height="266" x="182" y="547" fill="#2cd3f3" stroke="#f559a0" stroke-opacity=".343" stroke-width="5" opacity=".019" transform="rotate(159.0 400 300)"/><rect width="26" height="386" x="12" y="327" fill="#02eb6b" stroke="#02eb6b" stroke-opacity=".811" stroke-width="3" opacity=".189" transform="rotate(34.0 400 300)"/><polygon fill="#fe9225" stroke="#fe9225" stroke-opacity=".277" stroke-width="2" points="197 367 639 399 85 432 134 582 279 555 637 258" opacity=".13" transform="rotate(-117.0 400 300)"/><polygon fill="#2cd3f3" stroke="#02eb6b" stroke-opacity=".13" stroke-width="1" points="704 420 590 173 98 70 17 235 323 257 711 524 150 437" opacity=".243" transform="rotate(-28.0 400 300)"/><rect width="40" height="51" x="382" y="426" fill="#f559a0" stroke="#f559a0" stroke-opacity=".047" stroke-width="7" opacity=".009" transform="rotate(-66.0 400 300)"/><path fill="#f559a0" stroke="#0fa6d8" stroke-opacity=".663" stroke-width="5" d="M 198,488 C 651,167 338,323 366,210 C 674,104 114,343 196,344 C 198,474 447,442 184,231 C 366,428 474,295 452,426 C 133,202 625,485 525,149 C 249,108 498,182 174,257 C 184,422 289,321 603,469 C 690,479 651,359 549,338 Z" opacity=".656" transform="rotate(16.0 400 300)"/><polygon fill="#0fa6d8" stroke="#0fa6d8" stroke-opacity=".619" stroke-width="2" points="423 74 549 395 230 37 353 395 415 545" opacity=".5" transform="rotate(-89.0 400 300)"/><polygon fill="#2cd3f3" stroke="#fe9225" stroke-opacity=".532" stroke-width="4" points="610 491 346 572 598 492 38 479 97 272 130 12 792 378 628 422" opacity=".982" transform="rotate(55.0 400 300)"/></g></svg>