<?xml version="1.0" encoding="UTF-8"?>
<svg width="800px" height="600px" viewBox="0 0 800 600" version="1.1" xmlns="http://www.w3.org/2000/svg" xmlns:xlink="http://www.w3.org/1999/xlink">
  <defs></defs>
  <g stroke="none" stroke-width="1" fill="none" fill-rule="evenodd">
    
    <ellipse stroke="#02eb6b" stroke-width="2" fill="#f559a0" opacity="0.5196050762398281" stroke-opacity="0.7399717681610233" transform="rotate(77.0 400 300)" cx="687" rx="321" cy="588" ry="40"></ellipse>
<rect stroke="#f559a0" stroke-width="5" fill="#2cd3f3" opacity="0.01934766832407919" stroke-opacity="0.34265278399097954" transform="rotate(159.0 400 300)" x="182" y="547" width="251" height="266"></rect>
<rect stroke="#02eb6b" stroke-width="3" fill="#02eb6b" opacity="0.18854277234166975" stroke-opacity="0.8114451932511104" transform="rotate(34.0 400 300)" x="12" y="327" width="26" height="386"></rect>
<polygon stroke="#fe9225" stroke-width="2" fill="#fe9225" opacity="0.1304155058372844" stroke-opacity="0.2771968907836369" transform="rotate(-117.0 400 300)" points="197 367 639 399 85 432 134 582 279 555 637 258 "></polygon>
<polygon stroke="#02eb6b" stroke-width="1" fill="#2cd3f3" opacity="0.24317179773364495" stroke-opacity="0.12987784862216584" transform="rotate(-28.0 400 300)" points="704 420 590 173 98 70 17 235 323 257 711 524 150 437 "></polygon>
<rect stroke="#f559a0" stroke-width="7" fill="#f559a0" opacity="0.008615383053738475" stroke-opacity="0.04736794702999518" transform="rotate(-66.0 400 300)" x="382" y="426" width="40" height="51"></rect>
<path stroke="#0fa6d8" stroke-width="5" fill="#f559a0" opacity="0.6559257485082878" stroke-opacity="0.6633455863309672" transform="rotate(16.0 400 300)" d="M 198,488  C 651,167 338,323 366,210 C 674,104 114,343 196,344 C 198,474 447,442 184,231 C 366,428 474,295 452,426 C 133,202 625,485 525,149 C 249,108 498,182 174,257 C 184,422 289,321 603,469 C 690,479 651,359 549,338 Z"></path>
<polygon stroke="#0fa6d8" stroke-width="2" fill="#0fa6d8" opacity="0.500446498947534" stroke-opacity="0.6193104541697391" transform="rotate(-89.0 400 300)" points="423 74 549 395 230 37 353 395 415 545 "></polygon>
<polygon stroke="#fe9225" stroke-width="4" fill="#2cd3f3" opacity="0.982446470819061" stroke-opacity="0.5320538225865756" transform="rotate(55.0 400 300)" points="610 491 346 572 598 492 38 479 97 272 130 12 792 378 628 422 "></polygon>

  </g>
</svg>
