<svg xmlns="http://www.w3.org/2000/svg" xmlns:xlink="http://www.w3.org/1999/xlink" width="800" height="600" version="1.1" viewBox="0 0 800 600"><g fill="none" fill-rule="evenodd" stroke="none" stroke-width="1"><ellipse cx="621" cy="134" fill="#6AA15D" stroke="#DBA75B" stroke-opacity=".729" stroke-width="4" opacity=".086" rx="204" ry="46" transform="rotate(-37.0 400 300)"/><rect width="357" height="171" x="595" y="69" fill="#758646" stroke="#178AA2" stroke-opacity=".823" stroke-width="3" opacity=".661" transform="rotate(169.0 400 300)"/><path fill="#B04533" stroke="#5AA2CB" stroke-opacity=".735" stroke-width="4" d="M 578,388 C 427,158 339,120 344,112 C 124,294 206,386 170,263 C 215,389 108,444 450,294 C 537,255 328,107 496,407 C 655,288 675,213 231,287 C 553,184 125,268 640,365 C 255,368 355,250 491,282 C 428,135 317,433 261,225 Z" opacity=".07" transform="rotate(23.0 400 300)"/><path fill="#429161" stroke="#12356A" stroke-opacity=".872" stroke-width="7" d="M 450,134 C 592,163 213,106 338,118 C 165,129 700,158 489,461 C 122,482 621,485 317,252 C 625,345 546,310 279,491 C 674,368 105,299 540,327 C 338,190 508,242 678,468 C 642,107 116,441 614,265 C 391,435 649,310 295,206 C 661,385 120,500 386,433 C 292,401 230,216 590,450 Z" opacity=".71" transform="rotate(-138.0 400 300)"/><path fill="#6A5C94" stroke="#862528" stroke-opacity=".909" stroke-width="6" d="M 363,424 C 211,466 313,403 213,336 C 156,224 213,458 683,283 C 533,494 437,208 420,157 C 512,465 204,354 197,134 C 158,168 293,470 279,399 C 544,389 489,334 239,472 C 159,446 221,136 481,166 C 427,225 118,170 379,380 C 429,236 547,471 588,433 Z" opacity=".832" transform="rotate(-87.0 400 300)"/><path fill="#46A355" stroke="#463071" stroke-opacity=".822" stroke-width="7" d="M 422,474 C 456,109 282,248 457,372 C 664,113 698,285 200,472 C 661,155 301,315 613,257 C 129,203 280,297 663,380 C 519,411 399,486 253,342 C 395,388 694,367 158,108 Z" opacity=".636" transform="rotate(-25.0 400 300)"/><rect width="389" height="366" x="590" y="181" fill="#7A5AA1" stroke="#8463D6" stroke-opacity=".511" stroke-width="2" opacity=".209" transform="rotate(-159.0 400 300)"/></g></svg>