<svg xmlns="http://www.w3.org/2000/svg" xmlns:xlink="http://www.w3.org/1999/xlink" width="800" height="600" version="1.1" viewBox="0 0 800 600"><g fill="none" fill-rule="evenodd" stroke="none" stroke-width="1"><polygon fill="#fe9225" stroke="#f559a0" stroke-opacity=".571" stroke-width="6" points="178 333 108 582 440 196 230 384 724 229 211 56 515 37 109 255" opacity=".302" transform="rotate(105.0 400 300)"/><polygon fill="#2cd3f3" stroke="#0fa6d8" stroke-opacity=".878" stroke-width="4" points="565 204 351 401 6 5 103 46 149 135 420 585" opacity=".033" transform="rotate(-130.0 400 300)"/><ellipse cx="350" cy="447" fill="#fe9225" stroke="#0fa6d8" stroke-opacity=".491" stroke-width="4" opacity=".347" rx="449" ry="222" transform="rotate(101.0 400 300)"/><rect width="388" height="260" x="117" y="349" fill="#02eb6b" stroke="#0fa6d8" stroke-opacity=".397" stroke-width="3" opacity=".056" transform="rotate(-57.0 400 300)"/><ellipse cx="613" cy="239" fill="#0fa6d8" stroke="#fe9225" stroke-opacity=".553" stroke-width="4" opacity=".127" rx="166" ry="56" transform="rotate(139.0 400 300)"/><ellipse cx="627" cy="104" fill="#fe9225" stroke="#fe9225" stroke-opacity=".827" stroke-width="1" opacity=".91" rx="372" ry="113" transform="rotate(-109.0 400 300)"/></g></svg>