<?xml version="1.0" encoding="UTF-8"?>
<svg width="800px" height="600px" viewBox="0 0 800 600" version="1.1" xmlns="http://www.w3.org/2000/svg" xmlns:xlink="http://www.w3.org/1999/xlink">
  <defs></defs>
  <g stroke="none" stroke-width="1" fill="none" fill-rule="evenodd">
    
    <path stroke="#017240" stroke-width="1" fill="#B3C26C" opacity="0.7053216284062916" stroke-opacity="0.6943108583757199" transform="rotate(120.0 400 300)" d="M 362,250  C 242,481 687,142 317,134 C 423,415 371,308 455,163 C 155,175 690,386 186,494 C 113,160 169,159 421,453 Z"></path>
<path stroke="#8DDA83" stroke-width="4" fill="#8B154C" opacity="0.9889916544648993" stroke-opacity="0.5695156908620699" transform="rotate(-17.0 400 300)" d="M 194,159  C 316,190 678,324 299,316 C 428,451 446,370 302,321 C 184,206 626,218 455,156 C 102,395 160,369 657,182 C 484,421 585,462 180,179 C 409,250 396,403 123,286 C 576,343 423,310 135,107 C 199,154 474,102 630,177 Z"></path>
<path stroke="#621A14" stroke-width="6" fill="#33A24C" opacity="0.7649960919560439" stroke-opacity="0.1001778151926871" transform="rotate(-35.0 400 300)" d="M 436,356  C 246,395 417,446 610,237 C 615,386 146,382 587,157 C 498,355 694,197 181,196 C 215,243 588,446 291,185 C 220,129 319,447 457,498 C 582,147 669,273 451,360 C 659,163 585,147 287,406 C 249,441 328,168 695,361 C 469,308 571,258 446,407 Z"></path>
<path stroke="#BAD672" stroke-width="2" fill="#240625" opacity="0.2323421218987557" stroke-opacity="0.10472729255252244" transform="rotate(-50.0 400 300)" d="M 102,172  C 418,330 338,375 587,500 C 254,375 148,114 661,432 C 507,191 350,222 529,176 C 659,173 681,162 321,247 Z"></path>
<path stroke="#53C728" stroke-width="5" fill="#9BBA2D" opacity="0.42885806160841283" stroke-opacity="0.5338030417074631" transform="rotate(-9.0 400 300)" d="M 350,393  C 565,122 311,420 330,437 C 528,338 463,430 104,177 C 191,162 342,336 556,369 C 665,256 495,116 328,343 C 605,278 567,366 381,314 C 440,276 641,241 587,371 C 557,293 586,388 362,478 C 668,191 410,125 427,395 C 343,431 486,244 266,495 C 612,425 400,460 621,237 Z"></path>
<path stroke="#CB05BA" stroke-width="5" fill="#627434" opacity="0.3620073272602837" stroke-opacity="0.16422037425286862" transform="rotate(-71.0 400 300)" d="M 567,415  C 235,334 135,497 190,209 C 517,447 487,130 381,110 C 693,466 641,199 385,436 C 146,322 218,222 167,331 C 417,436 602,371 535,267 C 227,182 374,487 202,323 C 515,145 314,256 234,362 C 130,316 401,125 597,143 C 178,453 515,357 651,109 C 297,308 421,255 417,446 C 363,299 636,114 487,427 Z"></path>
<path stroke="#82213B" stroke-width="7" fill="#08555A" opacity="0.23608414781325887" stroke-opacity="0.651476085741801" transform="rotate(-1.0 400 300)" d="M 121,392  C 311,200 402,418 415,107 C 260,185 589,496 628,408 C 432,310 158,424 430,467 C 504,212 209,122 244,363 C 146,182 564,463 248,182 C 352,487 116,168 613,372 Z"></path>
<path stroke="#A9B844" stroke-width="4" fill="#C13377" opacity="0.1806995744935861" stroke-opacity="0.626297712803759" transform="rotate(107.0 400 300)" d="M 198,469  C 429,222 637,437 212,382 C 617,461 485,493 269,386 C 253,224 411,170 647,363 C 300,178 173,399 281,330 C 411,394 179,150 456,223 C 436,441 674,339 425,284 C 138,254 262,132 253,106 C 188,306 482,401 454,246 C 666,276 265,316 410,497 C 576,109 437,194 280,156 C 515,363 625,209 261,483 Z"></path>
<path stroke="#CD2B20" stroke-width="6" fill="#4D050A" opacity="0.8960807845944708" stroke-opacity="0.06702524239005068" transform="rotate(-95.0 400 300)" d="M 169,273  C 469,150 381,188 315,184 C 380,379 336,337 414,416 C 531,415 486,197 402,442 C 520,292 416,493 285,318 C 288,292 652,420 221,237 C 600,213 536,142 285,240 C 340,180 573,331 442,127 Z"></path>
<path stroke="#D26B1C" stroke-width="2" fill="#0D278B" opacity="0.7992956651645914" stroke-opacity="0.00844309704006293" transform="rotate(-172.0 400 300)" d="M 548,135  C 535,486 454,478 441,179 C 101,473 179,208 309,237 C 663,262 168,333 238,163 C 432,435 321,373 165,394 C 603,307 473,237 297,394 C 621,162 115,116 265,184 C 696,307 139,212 653,467 C 368,467 531,127 305,369 C 305,392 532,251 398,401 Z"></path>
<path stroke="#480A33" stroke-width="1" fill="#659992" opacity="0.9759260943411211" stroke-opacity="0.6497349782778483" transform="rotate(-11.0 400 300)" d="M 586,136  C 508,302 432,384 670,174 C 340,333 672,345 682,241 C 480,364 240,153 386,215 C 308,163 443,146 176,466 C 274,158 485,390 451,365 C 562,464 516,429 670,212 C 529,307 621,464 364,315 C 327,365 522,108 440,400 C 564,370 235,175 668,106 C 426,326 670,481 262,200 Z"></path>

  </g>
</svg>
