<svg xmlns="http://www.w3.org/2000/svg" xmlns:xlink="http://www.w3.org/1999/xlink" width="800" height="600" version="1.1" viewBox="0 0 800 600"><g fill="none" fill-rule="evenodd" stroke="none" stroke-width="1"><ellipse cx="451" cy="130" fill="#12483C" stroke="#794DB7" stroke-opacity=".097" stroke-width="4" opacity=".535" rx="165" ry="242" transform="rotate(83.0 400 300)"/><ellipse cx="395" cy="594" fill="#DAA9C3" stroke="#1A61AC" stroke-opacity=".109" stroke-width="6" opacity=".529" rx="192" ry="65" transform="rotate(20.0 400 300)"/><polygon fill="#D7109A" stroke="#3C4535" stroke-opacity=".073" stroke-width="6" points="603 304 65 582 320 58 636 275 360 506 73 454" opacity=".494" transform="rotate(-140.0 400 300)"/><polygon fill="#A78568" stroke="#682189" stroke-opacity=".297" stroke-width="2" points="670 208 690 457 86 517 365 388 274 45 647 213" opacity=".249" transform="rotate(157.0 400 300)"/><ellipse cx="321" cy="82" fill="#70382C" stroke="#AD534C" stroke-opacity=".127" stroke-width="7" opacity=".706" rx="109" ry="318" transform="rotate(-83.0 400 300)"/><rect width="381" height="305" x="765" y="31" fill="#016BD5" stroke="#574138" stroke-opacity=".801" stroke-width="5" opacity=".614" transform="rotate(-65.0 400 300)"/><ellipse cx="328" cy="134" fill="#02A404" stroke="#512268" stroke-opacity=".654" stroke-width="7" opacity=".284" rx="427" ry="301" transform="rotate(-12.0 400 300)"/><rect width="122" height="124" x="433" y="23" fill="#D87964" stroke="#07940C" stroke-opacity=".622" stroke-width="6" opacity=".233" transform="rotate(108.0 400 300)"/><path fill="#2BC547" stroke="#66408D" stroke-opacity=".528" stroke-width="5" d="M 185,293 C 565,183 368,278 642,167 C 456,158 571,332 647,494 C 532,244 314,407 474,421 C 460,341 384,363 467,464 C 695,180 155,222 659,256 C 405,429 124,388 527,190 Z" opacity=".119" transform="rotate(3.0 400 300)"/></g></svg>