<?xml version="1.0" encoding="UTF-8"?>
<svg width="800px" height="600px" viewBox="0 0 800 600" version="1.1" xmlns="http://www.w3.org/2000/svg" xmlns:xlink="http://www.w3.org/1999/xlink">
  <defs></defs>
  <g stroke="none" stroke-width="1" fill="none" fill-rule="evenodd">
    
    <ellipse stroke="#794DB7" stroke-width="4" fill="#12483C" opacity="0.534818357229282" stroke-opacity="0.09687233457026402" transform="rotate(83.0 400 300)" cx="451" rx="165" cy="130" ry="242"></ellipse>
<ellipse stroke="#1A61AC" stroke-width="6" fill="#DAA9C3" opacity="0.5289815322596192" stroke-opacity="0.10901622321727056" transform="rotate(20.0 400 300)" cx="395" rx="192" cy="594" ry="65"></ellipse>
<polygon stroke="#3C4535" stroke-width="6" fill="#D7109A" opacity="0.4935510520171899" stroke-opacity="0.07345417186283741" transform="rotate(-140.0 400 300)" points="603 304 65 582 320 58 636 275 360 506 73 454 "></polygon>
<polygon stroke="#682189" stroke-width="2" fill="#A78568" opacity="0.24920773544227182" stroke-opacity="0.2965553334989739" transform="rotate(157.0 400 300)" points="670 208 690 457 86 517 365 388 274 45 647 213 "></polygon>
<ellipse stroke="#AD534C" stroke-width="7" fill="#70382C" opacity="0.7060671587640672" stroke-opacity="0.12743823089528572" transform="rotate(-83.0 400 300)" cx="321" rx="109" cy="82" ry="318"></ellipse>
<rect stroke="#574138" stroke-width="5" fill="#016BD5" opacity="0.6142311092123818" stroke-opacity="0.8005553728074516" transform="rotate(-65.0 400 300)" x="765" y="31" width="381" height="305"></rect>
<ellipse stroke="#512268" stroke-width="7" fill="#02A404" opacity="0.2843110424064023" stroke-opacity="0.6543222494114522" transform="rotate(-12.0 400 300)" cx="328" rx="427" cy="134" ry="301"></ellipse>
<rect stroke="#07940C" stroke-width="6" fill="#D87964" opacity="0.23269894040637806" stroke-opacity="0.621946581154182" transform="rotate(108.0 400 300)" x="433" y="23" width="122" height="124"></rect>
<path stroke="#66408D" stroke-width="5" fill="#2BC547" opacity="0.11936040425330548" stroke-opacity="0.5275582240683202" transform="rotate(3.0 400 300)" d="M 185,293  C 565,183 368,278 642,167 C 456,158 571,332 647,494 C 532,244 314,407 474,421 C 460,341 384,363 467,464 C 695,180 155,222 659,256 C 405,429 124,388 527,190 Z"></path>

  </g>
</svg>
