<?xml version="1.0" encoding="UTF-8"?>
<svg width="800px" height="600px" viewBox="0 0 800 600" version="1.1" xmlns="http://www.w3.org/2000/svg" xmlns:xlink="http://www.w3.org/1999/xlink">
  <defs></defs>
  <g stroke="none" stroke-width="1" fill="none" fill-rule="evenodd">
    
    <path stroke="#f27630" stroke-width="1" fill="#2b55f7" opacity="0.2568482861613396" stroke-opacity="0.1593779531427086" transform="rotate(-132.0 400 300)" d="M 545,338  C 350,326 237,111 285,170 C 655,134 329,348 445,427 C 260,484 664,488 657,284 C 389,151 560,413 298,422 C 589,417 686,308 375,444 C 282,261 396,446 233,375 Z"></path>
<path stroke="#ed2b2c" stroke-width="2" fill="#31a06b" opacity="0.7742800568824041" stroke-opacity="0.6939482873807128" transform="rotate(80.0 400 300)" d="M 398,270  C 583,251 686,343 369,493 C 509,330 177,449 619,451 C 598,116 334,317 583,315 C 596,112 474,249 251,403 C 456,364 346,373 428,209 C 266,271 261,221 328,419 C 399,316 494,153 652,254 C 611,281 302,416 624,372 C 441,184 547,265 334,300 C 534,172 314,335 510,488 Z"></path>
<path stroke="#ed2b2c" stroke-width="7" fill="#31a06b" opacity="0.37978678557157963" stroke-opacity="0.37403672332783705" transform="rotate(168.0 400 300)" d="M 436,492  C 280,500 113,302 549,145 C 364,462 142,193 107,185 C 647,260 652,169 667,275 C 299,303 454,335 337,463 Z"></path>
<path stroke="#2b55f7" stroke-width="5" fill="#2b55f7" opacity="0.17682182302463267" stroke-opacity="0.6103525892753743" transform="rotate(51.0 400 300)" d="M 670,388  C 176,486 508,245 552,306 C 313,256 609,371 401,468 C 295,444 375,141 434,259 C 228,326 390,102 480,439 C 490,202 536,373 468,407 C 208,169 682,205 649,181 C 473,326 338,302 640,107 C 165,125 471,292 317,186 C 222,359 513,274 498,133 C 551,489 668,348 570,159 Z"></path>
<path stroke="#31a06b" stroke-width="5" fill="#2b55f7" opacity="0.9545596099068856" stroke-opacity="0.6291148955523845" transform="rotate(48.0 400 300)" d="M 532,118  C 431,215 127,228 372,495 C 644,448 132,326 679,320 C 609,127 529,270 611,415 C 303,409 141,330 298,123 C 523,499 145,225 583,284 C 459,452 517,490 192,472 C 216,198 649,363 306,476 C 221,324 422,444 235,419 Z"></path>
<path stroke="#f9d84b" stroke-width="5" fill="#31a06b" opacity="0.9938514133911542" stroke-opacity="0.02639549318872777" transform="rotate(-62.0 400 300)" d="M 220,478  C 137,341 451,426 555,106 C 578,249 610,363 700,410 C 553,252 691,459 154,409 C 209,219 169,285 561,429 C 471,204 412,421 358,137 C 626,350 687,156 250,273 C 243,478 559,350 530,344 Z"></path>
<path stroke="#f9d84b" stroke-width="4" fill="#f9d84b" opacity="0.33260811793810957" stroke-opacity="0.5356361531753865" transform="rotate(75.0 400 300)" d="M 247,344  C 401,251 334,390 568,232 C 550,495 119,185 391,466 C 160,180 480,173 455,414 C 676,274 248,274 264,170 C 163,392 278,116 139,328 C 115,139 191,380 148,282 Z"></path>
<path stroke="#31a06b" stroke-width="5" fill="#f27630" opacity="0.49751654540706275" stroke-opacity="0.5678214534376308" transform="rotate(150.0 400 300)" d="M 234,288  C 282,122 698,134 390,193 C 452,252 157,356 401,405 C 541,429 106,197 349,432 C 376,442 163,227 375,449 C 129,280 591,383 435,247 Z"></path>

  </g>
</svg>
