<svg xmlns="http://www.w3.org/2000/svg" xmlns:xlink="http://www.w3.org/1999/xlink" width="800" height="600" version="1.1" viewBox="0 0 800 600"><g fill="none" fill-rule="evenodd" stroke="none" stroke-width="1"><path fill="#C141D5" stroke="#C1ACD4" stroke-opacity=".673" stroke-width="6" d="M 626,252 C 277,239 654,306 579,140 C 453,435 551,377 458,261 C 180,495 486,101 289,130 C 421,464 172,495 619,465 C 562,163 329,453 596,361 C 259,478 192,296 340,448 Z" opacity=".531" transform="rotate(-145.0 400 300)"/><path fill="#7D23BA" stroke="#850624" stroke-opacity=".139" stroke-width="7" d="M 585,324 C 659,322 415,179 130,436 C 226,302 215,361 176,336 C 655,461 660,197 324,479 C 152,158 218,363 697,286 Z" opacity=".261" transform="rotate(-147.0 400 300)"/><path fill="#D368BA" stroke="#42619B" stroke-opacity=".151" stroke-width="2" d="M 324,239 C 263,276 422,311 212,388 C 440,500 619,165 584,131 C 404,311 402,427 314,405 C 637,452 249,415 679,401 Z" opacity=".843" transform="rotate(45.0 400 300)"/><path fill="#348447" stroke="#A46725" stroke-opacity=".054" stroke-width="1" d="M 240,305 C 303,126 547,382 398,389 C 620,221 699,316 278,142 C 686,112 326,240 369,213 C 297,301 371,259 111,221 C 456,131 623,154 307,175 C 158,411 372,346 387,254 C 492,359 197,247 238,442 C 439,106 134,481 507,153 Z" opacity=".27" transform="rotate(34.0 400 300)"/><path fill="#B6D580" stroke="#9B03CA" stroke-opacity=".509" stroke-width="6" d="M 586,323 C 673,484 364,437 219,250 C 475,395 565,448 452,168 C 599,175 317,438 232,396 C 376,426 643,473 175,366 C 318,165 128,339 423,270 C 152,302 642,171 594,104 C 423,281 231,385 181,306 Z" opacity=".434" transform="rotate(43.0 400 300)"/><path fill="#4B0BD1" stroke="#68B522" stroke-opacity=".707" stroke-width="1" d="M 325,464 C 442,244 499,416 402,208 C 386,461 303,320 133,473 C 140,493 454,166 488,453 C 105,291 644,351 518,106 C 326,162 696,446 176,307 C 512,181 342,486 218,263 C 586,257 238,126 512,463 Z" opacity=".163" transform="rotate(70.0 400 300)"/></g></svg>