<svg xmlns="http://www.w3.org/2000/svg" xmlns:xlink="http://www.w3.org/1999/xlink" width="800" height="600" version="1.1" viewBox="0 0 800 600"><g fill="none" fill-rule="evenodd" stroke="none" stroke-width="1"><ellipse cx="177" cy="342" fill="#23CB0D" stroke="#696670" stroke-opacity=".228" stroke-width="1" opacity=".955" rx="76" ry="108" transform="rotate(54.0 400 300)"/><ellipse cx="793" cy="120" fill="#DB2174" stroke="#C0A177" stroke-opacity=".47" stroke-width="3" opacity=".058" rx="366" ry="243" transform="rotate(-62.0 400 300)"/><path fill="#D2617A" stroke="#9DD926" stroke-opacity=".662" stroke-width="3" d="M 181,492 C 399,429 528,467 627,160 C 676,317 347,444 179,338 C 685,417 258,433 600,403 C 196,498 469,315 191,231 C 631,215 599,351 699,120 Z" opacity=".669" transform="rotate(142.0 400 300)"/><ellipse cx="647" cy="320" fill="#C7877B" stroke="#1A7CB0" stroke-opacity=".936" stroke-width="5" opacity=".952" rx="77" ry="347" transform="rotate(-132.0 400 300)"/><path fill="#854A88" stroke="#CCAA51" stroke-opacity=".211" stroke-width="5" d="M 318,347 C 415,458 299,205 430,389 C 632,336 210,128 682,460 C 285,217 389,497 506,490 C 338,152 328,261 414,207 C 540,363 643,107 351,426 C 469,377 177,105 388,197 C 509,107 201,295 686,216 C 323,266 686,192 585,491 C 338,409 680,190 298,132 Z" opacity=".183" transform="rotate(-115.0 400 300)"/><path fill="#24162A" stroke="#AA795B" stroke-opacity=".441" stroke-width="4" d="M 144,465 C 635,310 449,364 120,175 C 516,251 648,453 327,244 C 673,129 423,390 601,392 C 538,281 180,302 443,434 C 309,363 179,303 372,161 C 210,111 697,244 668,283 C 619,278 347,413 589,164 Z" opacity=".064" transform="rotate(33.0 400 300)"/><ellipse cx="335" cy="104" fill="#BB67A5" stroke="#C42B97" stroke-opacity=".783" stroke-width="7" opacity=".612" rx="256" ry="246" transform="rotate(-143.0 400 300)"/></g></svg>