<svg xmlns="http://www.w3.org/2000/svg" xmlns:xlink="http://www.w3.org/1999/xlink" width="800" height="600" version="1.1" viewBox="0 0 800 600"><g fill="none" fill-rule="evenodd" stroke="none" stroke-width="1"><path fill="#097165" stroke="#857642" stroke-opacity=".378" stroke-width="3" d="M 254,168 C 641,334 346,415 244,345 C 477,402 463,273 297,398 C 437,110 358,472 214,233 C 403,338 560,108 397,133 C 693,230 408,101 355,278 C 645,313 213,500 253,282 Z" opacity=".792" transform="rotate(-26.0 400 300)"/><path fill="#9B9454" stroke="#8AA87C" stroke-opacity=".704" stroke-width="4" d="M 526,110 C 551,214 185,463 305,143 C 157,136 504,248 221,407 C 403,156 439,408 395,401 C 202,343 368,210 196,285 Z" opacity=".528" transform="rotate(-79.0 400 300)"/><path fill="#AC8857" stroke="#CA1C84" stroke-opacity=".37" stroke-width="3" d="M 619,142 C 617,110 441,496 511,495 C 400,163 336,153 548,141 C 342,283 349,356 503,219 C 606,301 316,491 389,431 C 569,274 284,161 158,325 C 487,219 420,272 554,334 Z" opacity=".71" transform="rotate(19.0 400 300)"/><path fill="#D67B3A" stroke="#742345" stroke-opacity=".432" stroke-width="1" d="M 186,467 C 278,237 381,192 156,201 C 321,205 139,267 529,484 C 452,133 419,209 583,197 C 619,499 374,359 306,399 C 186,342 570,269 609,347 C 600,208 433,461 372,124 C 572,200 286,281 481,153 C 259,366 231,186 357,319 C 629,397 447,385 443,412 Z" opacity=".359" transform="rotate(-27.0 400 300)"/><path fill="#A4BC93" stroke="#33589D" stroke-opacity=".208" stroke-width="7" d="M 650,206 C 391,316 201,337 347,249 C 499,215 695,210 111,202 C 585,220 425,127 282,487 C 538,248 109,286 120,201 C 263,144 634,137 567,264 C 579,242 442,212 525,464 C 197,495 411,306 440,113 C 195,232 430,241 462,430 C 404,257 518,486 135,204 C 175,154 578,112 417,126 Z" opacity=".335" transform="rotate(-43.0 400 300)"/><path fill="#C41AAC" stroke="#433C9D" stroke-opacity=".35" stroke-width="2" d="M 500,470 C 379,448 542,248 630,494 C 114,222 675,130 242,295 C 347,295 254,346 546,215 C 136,368 611,261 521,468 C 407,268 414,368 690,261 C 456,472 199,419 383,216 C 240,101 509,351 668,186 C 174,140 487,155 167,147 C 491,339 222,259 494,188 C 687,301 515,447 377,149 C 512,277 354,186 606,223 Z" opacity=".194" transform="rotate(-140.0 400 300)"/><path fill="#C4DD8A" stroke="#BB47A5" stroke-opacity=".24" stroke-width="3" d="M 243,197 C 148,447 310,163 527,330 C 468,276 639,114 282,157 C 440,478 207,154 441,151 C 272,102 519,129 234,107 C 396,130 594,470 225,232 C 486,355 437,251 611,269 Z" opacity=".153" transform="rotate(6.0 400 300)"/></g></svg>