<svg xmlns="http://www.w3.org/2000/svg" xmlns:xlink="http://www.w3.org/1999/xlink" width="800" height="600" version="1.1" viewBox="0 0 800 600"><g fill="none" fill-rule="evenodd" stroke="none" stroke-width="1"><ellipse cx="434" cy="282" fill="#4A5A47" stroke="#AC78B7" stroke-opacity=".672" stroke-width="3" opacity=".934" rx="355" ry="330" transform="rotate(88.0 400 300)"/><polygon fill="#DB20B0" stroke="#302C87" stroke-opacity=".126" stroke-width="4" points="99 591 549 361 607 153 598 57 765 461" opacity=".297" transform="rotate(65.0 400 300)"/><polygon fill="#D8239D" stroke="#D41714" stroke-opacity=".331" stroke-width="2" points="216 337 29 410 399 105 706 322 281 305 347 90 89 517 335 294" opacity=".04" transform="rotate(-168.0 400 300)"/><ellipse cx="394" cy="301" fill="#760012" stroke="#981475" stroke-opacity=".506" stroke-width="1" opacity=".925" rx="398" ry="195" transform="rotate(126.0 400 300)"/><polygon fill="#4C23CB" stroke="#3D1404" stroke-opacity=".349" stroke-width="5" points="663 167 706 170 103 367 8 374 167 458 670 575" opacity=".054" transform="rotate(177.0 400 300)"/><rect width="288" height="28" x="376" y="418" fill="#1B70AB" stroke="#13A2A3" stroke-opacity=".355" stroke-width="1" opacity=".638" transform="rotate(-79.0 400 300)"/><rect width="232" height="113" x="29" y="448" fill="#1DC621" stroke="#B5A609" stroke-opacity=".903" stroke-width="6" opacity=".611" transform="rotate(-77.0 400 300)"/><path fill="#CC6908" stroke="#AD374A" stroke-opacity=".849" stroke-width="4" d="M 108,246 C 239,396 491,345 648,146 C 318,333 313,137 385,309 C 264,437 514,290 573,414 C 577,120 205,266 544,441 C 647,418 351,400 672,347 C 597,278 508,463 343,166 C 481,365 236,266 686,487 C 582,305 210,415 388,352 C 553,306 139,230 363,372 C 394,147 252,256 483,365 Z" opacity=".87" transform="rotate(-171.0 400 300)"/><path fill="#9D44B4" stroke="#268B5B" stroke-opacity=".995" stroke-width="1" d="M 234,161 C 484,349 647,148 302,293 C 103,226 329,128 409,395 C 144,114 554,460 694,479 C 525,206 326,263 579,405 C 163,330 594,184 351,354 C 222,181 402,340 411,284 C 463,368 576,192 375,247 C 277,130 636,363 683,469 C 289,221 315,414 235,467 C 282,103 193,104 516,451 Z" opacity=".101" transform="rotate(-156.0 400 300)"/><rect width="75" height="299" x="745" y="385" fill="#9D6744" stroke="#3B6B62" stroke-opacity=".909" stroke-width="6" opacity=".461" transform="rotate(4.0 400 300)"/><ellipse cx="408" cy="11" fill="#3A6255" stroke="#5B57DA" stroke-opacity=".925" stroke-width="1" opacity=".006" rx="241" ry="66" transform="rotate(-127.0 400 300)"/></g></svg>