<?xml version="1.0" encoding="UTF-8"?>
<svg width="800px" height="600px" viewBox="0 0 800 600" version="1.1" xmlns="http://www.w3.org/2000/svg" xmlns:xlink="http://www.w3.org/1999/xlink">
  <defs></defs>
  <g stroke="none" stroke-width="1" fill="none" fill-rule="evenodd">
    
    <path stroke="#0fa6d8" stroke-width="1" fill="#fe9225" opacity="0.6562172625540705" stroke-opacity="0.8279940472465396" transform="rotate(12.0 400 300)" d="M 664,273  C 300,420 575,356 331,308 C 336,216 453,335 478,189 C 113,299 450,377 338,261 C 322,203 144,355 235,341 C 274,219 650,148 425,387 C 218,183 372,468 619,208 C 173,485 646,437 391,195 C 551,481 476,418 566,262 Z"></path>
<path stroke="#0fa6d8" stroke-width="2" fill="#f559a0" opacity="0.11178159247880792" stroke-opacity="0.2093498291335194" transform="rotate(145.0 400 300)" d="M 629,460  C 209,145 107,300 434,315 C 263,315 338,167 398,485 C 146,430 475,217 662,493 C 224,337 176,447 236,496 C 257,420 107,136 530,422 C 255,474 684,140 228,445 C 245,158 495,288 513,347 C 392,313 223,409 276,158 C 518,470 497,330 516,195 Z"></path>
<path stroke="#2cd3f3" stroke-width="6" fill="#2cd3f3" opacity="0.7574210281857839" stroke-opacity="0.20192501711137198" transform="rotate(123.0 400 300)" d="M 272,116  C 183,173 280,327 223,443 C 270,244 129,305 173,374 C 197,494 541,226 319,142 C 223,424 356,131 311,497 C 492,399 514,148 567,178 C 438,229 269,412 673,307 C 304,337 578,431 492,236 C 311,278 203,317 566,378 C 668,141 603,107 156,289 Z"></path>
<path stroke="#2cd3f3" stroke-width="4" fill="#0fa6d8" opacity="0.5504970795825879" stroke-opacity="0.3119097288478239" transform="rotate(-99.0 400 300)" d="M 309,470  C 436,309 115,167 352,380 C 200,439 347,171 356,228 C 496,480 340,290 242,324 C 471,425 496,333 403,321 C 521,340 476,106 645,472 C 123,242 588,213 292,356 C 219,371 302,326 457,370 C 392,308 173,485 432,211 C 383,192 211,266 674,434 Z"></path>
<path stroke="#fe9225" stroke-width="2" fill="#f559a0" opacity="0.0011204769975975506" stroke-opacity="0.2842716239023506" transform="rotate(-53.0 400 300)" d="M 440,387  C 385,429 329,216 175,439 C 195,152 404,454 593,104 C 556,456 668,169 282,257 C 390,392 528,233 438,477 Z"></path>
<path stroke="#0fa6d8" stroke-width="4" fill="#2cd3f3" opacity="0.37119763830972274" stroke-opacity="0.16577243699332722" transform="rotate(158.0 400 300)" d="M 324,335  C 409,231 675,112 445,139 C 188,103 236,466 644,215 C 663,228 615,223 598,274 C 296,479 500,254 494,475 C 432,227 675,413 205,368 C 437,381 249,479 386,405 C 624,457 409,199 330,348 C 533,101 568,446 673,224 Z"></path>
<path stroke="#2cd3f3" stroke-width="7" fill="#2cd3f3" opacity="0.23002681209492437" stroke-opacity="0.8520537602827752" transform="rotate(86.0 400 300)" d="M 534,322  C 230,240 553,337 147,146 C 376,147 626,114 334,453 C 204,260 193,341 290,304 C 516,244 682,441 591,352 C 266,294 661,418 618,396 C 358,409 511,281 470,263 C 404,354 429,266 276,165 C 332,166 685,417 162,305 C 162,301 558,268 107,370 Z"></path>
<path stroke="#02eb6b" stroke-width="2" fill="#0fa6d8" opacity="0.22036198511639066" stroke-opacity="0.7500953238553174" transform="rotate(-57.0 400 300)" d="M 154,246  C 629,386 136,491 297,250 C 238,135 164,284 439,331 C 256,252 242,179 454,235 C 541,362 307,335 199,365 C 408,447 217,120 106,370 Z"></path>

  </g>
</svg>
