<svg xmlns="http://www.w3.org/2000/svg" xmlns:xlink="http://www.w3.org/1999/xlink" width="800" height="600" version="1.1" viewBox="0 0 800 600"><g fill="none" fill-rule="evenodd" stroke="none" stroke-width="1"><ellipse cx="79" cy="245" fill="#f9d84b" stroke="#ed2b2c" stroke-opacity=".448" stroke-width="6" opacity=".269" rx="378" ry="77" transform="rotate(85.0 400 300)"/><polygon fill="#ed2b2c" stroke="#2b55f7" stroke-opacity=".444" stroke-width="1" points="696 433 412 240 170 278 564 107 776 308 108 535 156 443" opacity=".677" transform="rotate(61.0 400 300)"/><ellipse cx="215" cy="491" fill="#2b55f7" stroke="#2b55f7" stroke-opacity=".558" stroke-width="1" opacity=".839" rx="59" ry="45" transform="rotate(52.0 400 300)"/><rect width="272" height="291" x="590" y="214" fill="#f27630" stroke="#f27630" stroke-opacity=".824" stroke-width="7" opacity=".608" transform="rotate(22.0 400 300)"/><polygon fill="#ed2b2c" stroke="#f9d84b" stroke-opacity=".289" stroke-width="5" points="95 165 465 379 219 566 254 551 40 102 266 261 770 87 393 325" opacity=".904" transform="rotate(-145.0 400 300)"/><path fill="#2b55f7" stroke="#2b55f7" stroke-opacity=".601" stroke-width="7" d="M 138,405 C 430,443 154,493 346,480 C 543,440 520,449 134,379 C 423,373 292,113 206,160 C 537,104 513,360 425,467 C 448,335 285,356 482,244 C 588,313 700,203 140,101 C 398,172 504,222 548,300 C 105,242 178,259 410,495 C 551,478 501,183 511,290 C 208,415 591,268 227,231 C 187,303 496,399 392,105 Z" opacity=".983" transform="rotate(-143.0 400 300)"/><rect width="248" height="352" x="349" y="499" fill="#ed2b2c" stroke="#f9d84b" stroke-opacity=".569" stroke-width="6" opacity=".339" transform="rotate(113.0 400 300)"/><ellipse cx="256" cy="409" fill="#2b55f7" stroke="#f27630" stroke-opacity=".725" stroke-width="7" opacity=".433" rx="432" ry="37" transform="rotate(42.0 400 300)"/><path fill="#31a06b" stroke="#f9d84b" stroke-opacity=".896" stroke-width="1" d="M 642,435 C 336,462 566,183 112,453 C 674,261 455,107 486,392 C 626,140 410,471 183,409 C 477,419 346,101 640,215 C 690,350 671,270 458,227 C 376,489 212,334 110,321 C 395,317 564,442 438,318 C 204,431 219,288 194,166 C 153,195 209,101 229,309 C 407,240 362,471 428,477 C 137,397 616,277 624,304 Z" opacity=".515" transform="rotate(6.0 400 300)"/><ellipse cx="437" cy="522" fill="#ed2b2c" stroke="#f27630" stroke-opacity=".257" stroke-width="7" opacity=".282" rx="65" ry="185" transform="rotate(79.0 400 300)"/></g></svg>