<svg xmlns="http://www.w3.org/2000/svg" xmlns:xlink="http://www.w3.org/1999/xlink" width="800" height="600" version="1.1" viewBox="0 0 800 600"><g fill="none" fill-rule="evenodd" stroke="none" stroke-width="1"><polygon fill="#7D7625" stroke="#A36A0C" stroke-opacity=".123" stroke-width="4" points="436 19 699 376 143 478 784 542 100 344 31 57 283 198 43 282" opacity=".219" transform="rotate(118.0 400 300)"/><polygon fill="#A38722" stroke="#DA99A0" stroke-opacity=".654" stroke-width="3" points="630 344 523 460 169 182 29 231 604 520 38 43 50 582 59 225" opacity=".776" transform="rotate(90.0 400 300)"/><path fill="#D62C94" stroke="#48A030" stroke-opacity=".051" stroke-width="5" d="M 179,199 C 447,469 247,123 366,431 C 487,354 605,497 411,118 C 686,344 618,244 407,146 C 202,272 162,498 627,407 C 456,332 246,453 494,344 Z" opacity=".55" transform="rotate(68.0 400 300)"/><polygon fill="#C8981A" stroke="#4765CA" stroke-opacity=".18" stroke-width="1" points="729 90 5 358 489 15 366 533 359 161 131 444 164 376" opacity=".716" transform="rotate(122.0 400 300)"/><polygon fill="#7A616C" stroke="#22C7AD" stroke-opacity=".585" stroke-width="6" points="340 160 606 410 147 121 34 523 499 519 80 449 441 243" opacity=".72" transform="rotate(-149.0 400 300)"/><polygon fill="#7316DC" stroke="#0738AD" stroke-opacity=".207" stroke-width="4" points="382 91 196 134 717 470 767 256 616 217 42 28" opacity=".991" transform="rotate(-51.0 400 300)"/></g></svg>