<svg xmlns="http://www.w3.org/2000/svg" xmlns:xlink="http://www.w3.org/1999/xlink" width="800" height="600" version="1.1" viewBox="0 0 800 600"><g fill="none" fill-rule="evenodd" stroke="none" stroke-width="1"><ellipse cx="709" cy="115" fill="#f27630" stroke="#f27630" stroke-opacity=".21" stroke-width="3" opacity=".871" rx="363" ry="104" transform="rotate(-60.0 400 300)"/><ellipse cx="274" cy="155" fill="#f9d84b" stroke="#31a06b" stroke-opacity=".486" stroke-width="2" opacity=".375" rx="436" ry="104" transform="rotate(70.0 400 300)"/><path fill="#2b55f7" stroke="#ed2b2c" stroke-opacity=".382" stroke-width="3" d="M 612,206 C 415,104 440,365 542,192 C 360,443 355,436 268,449 C 458,405 530,134 304,346 C 542,251 145,295 371,454 C 221,224 270,389 403,405 C 183,436 566,109 321,483 C 118,222 663,244 473,459 C 681,482 616,188 266,497 C 599,278 650,211 200,182 Z" opacity=".153" transform="rotate(172.0 400 300)"/><path fill="#2b55f7" stroke="#31a06b" stroke-opacity=".7" stroke-width="5" d="M 593,154 C 148,315 227,248 453,342 C 150,374 359,284 647,453 C 263,221 429,156 334,130 C 334,121 289,196 239,184 C 489,318 323,317 618,437 C 259,354 542,251 592,450 Z" opacity=".169" transform="rotate(28.0 400 300)"/><path fill="#31a06b" stroke="#f27630" stroke-opacity=".356" stroke-width="7" d="M 422,406 C 647,413 643,333 576,129 C 369,216 436,476 242,218 C 681,313 169,229 480,339 C 177,311 582,278 262,458 Z" opacity=".23" transform="rotate(-158.0 400 300)"/><path fill="#f9d84b" stroke="#31a06b" stroke-opacity=".417" stroke-width="5" d="M 158,354 C 149,428 248,224 478,440 C 320,424 166,266 612,165 C 318,297 330,258 354,102 C 461,324 187,421 190,293 C 445,121 325,346 233,308 C 450,456 608,314 308,429 C 152,231 469,318 124,362 Z" opacity=".429" transform="rotate(-48.0 400 300)"/><polygon fill="#ed2b2c" stroke="#ed2b2c" stroke-opacity=".629" stroke-width="4" points="557 444 740 583 576 359 562 319 407 477 15 286" opacity=".482" transform="rotate(-177.0 400 300)"/><ellipse cx="663" cy="435" fill="#2b55f7" stroke="#f9d84b" stroke-opacity=".382" stroke-width="2" opacity=".046" rx="212" ry="261" transform="rotate(93.0 400 300)"/><ellipse cx="323" cy="549" fill="#f9d84b" stroke="#2b55f7" stroke-opacity=".682" stroke-width="7" opacity=".334" rx="134" ry="300" transform="rotate(6.0 400 300)"/><rect width="237" height="200" x="449" y="88" fill="#f27630" stroke="#31a06b" stroke-opacity=".923" stroke-width="4" opacity=".724" transform="rotate(-43.0 400 300)"/></g></svg>