<?xml version="1.0" encoding="UTF-8"?>
<svg width="800px" height="600px" viewBox="0 0 800 600" version="1.1" xmlns="http://www.w3.org/2000/svg" xmlns:xlink="http://www.w3.org/1999/xlink">
  <defs></defs>
  <g stroke="none" stroke-width="1" fill="none" fill-rule="evenodd">
    
    <ellipse stroke="#f27630" stroke-width="3" fill="#f27630" opacity="0.8714928083439881" stroke-opacity="0.20978528520492298" transform="rotate(-60.0 400 300)" cx="709" rx="363" cy="115" ry="104"></ellipse>
<ellipse stroke="#31a06b" stroke-width="2" fill="#f9d84b" opacity="0.3753884597398864" stroke-opacity="0.48642799976170437" transform="rotate(70.0 400 300)" cx="274" rx="436" cy="155" ry="104"></ellipse>
<path stroke="#ed2b2c" stroke-width="3" fill="#2b55f7" opacity="0.1528443577272324" stroke-opacity="0.38160838830537847" transform="rotate(172.0 400 300)" d="M 612,206  C 415,104 440,365 542,192 C 360,443 355,436 268,449 C 458,405 530,134 304,346 C 542,251 145,295 371,454 C 221,224 270,389 403,405 C 183,436 566,109 321,483 C 118,222 663,244 473,459 C 681,482 616,188 266,497 C 599,278 650,211 200,182 Z"></path>
<path stroke="#31a06b" stroke-width="5" fill="#2b55f7" opacity="0.16930805094655063" stroke-opacity="0.7001285228922207" transform="rotate(28.0 400 300)" d="M 593,154  C 148,315 227,248 453,342 C 150,374 359,284 647,453 C 263,221 429,156 334,130 C 334,121 289,196 239,184 C 489,318 323,317 618,437 C 259,354 542,251 592,450 Z"></path>
<path stroke="#f27630" stroke-width="7" fill="#31a06b" opacity="0.22971464676005057" stroke-opacity="0.35626663345386395" transform="rotate(-158.0 400 300)" d="M 422,406  C 647,413 643,333 576,129 C 369,216 436,476 242,218 C 681,313 169,229 480,339 C 177,311 582,278 262,458 Z"></path>
<path stroke="#31a06b" stroke-width="5" fill="#f9d84b" opacity="0.42933436429701616" stroke-opacity="0.41672373224682074" transform="rotate(-48.0 400 300)" d="M 158,354  C 149,428 248,224 478,440 C 320,424 166,266 612,165 C 318,297 330,258 354,102 C 461,324 187,421 190,293 C 445,121 325,346 233,308 C 450,456 608,314 308,429 C 152,231 469,318 124,362 Z"></path>
<polygon stroke="#ed2b2c" stroke-width="4" fill="#ed2b2c" opacity="0.4818248771105838" stroke-opacity="0.6291965899135735" transform="rotate(-177.0 400 300)" points="557 444 740 583 576 359 562 319 407 477 15 286 "></polygon>
<ellipse stroke="#f9d84b" stroke-width="2" fill="#2b55f7" opacity="0.04647532835347748" stroke-opacity="0.38200151502853125" transform="rotate(93.0 400 300)" cx="663" rx="212" cy="435" ry="261"></ellipse>
<ellipse stroke="#2b55f7" stroke-width="7" fill="#f9d84b" opacity="0.33435910329347157" stroke-opacity="0.6819849026744782" transform="rotate(6.0 400 300)" cx="323" rx="134" cy="549" ry="300"></ellipse>
<rect stroke="#31a06b" stroke-width="4" fill="#f27630" opacity="0.7243931021027321" stroke-opacity="0.9231750827490779" transform="rotate(-43.0 400 300)" x="449" y="88" width="237" height="200"></rect>

  </g>
</svg>
