<?xml version="1.0" encoding="UTF-8"?>
<svg width="800px" height="600px" viewBox="0 0 800 600" version="1.1" xmlns="http://www.w3.org/2000/svg" xmlns:xlink="http://www.w3.org/1999/xlink">
  <defs></defs>
  <g stroke="none" stroke-width="1" fill="none" fill-rule="evenodd">
    
    <path stroke="#31a06b" stroke-width="4" fill="#ed2b2c" opacity="0.6577473740175888" stroke-opacity="0.9804087151894574" transform="rotate(-146.0 400 300)" d="M 127,345  C 392,193 315,375 452,147 C 549,101 539,243 176,441 C 278,276 591,315 348,428 C 373,468 216,278 386,103 C 624,250 581,181 488,480 C 648,299 246,255 574,141 C 182,248 496,490 449,400 C 171,222 317,119 518,412 C 195,445 215,277 408,349 C 238,371 408,210 629,431 C 233,138 227,316 429,248 Z"></path>
<path stroke="#31a06b" stroke-width="2" fill="#ed2b2c" opacity="0.3350960829239205" stroke-opacity="0.7445569525457164" transform="rotate(64.0 400 300)" d="M 448,334  C 626,169 493,156 133,315 C 203,383 304,272 514,109 C 257,282 514,202 595,178 C 560,230 149,160 583,109 C 224,125 250,472 270,362 C 578,495 414,360 354,476 C 527,221 391,430 385,131 C 212,238 609,487 652,401 C 373,309 220,227 252,176 C 143,343 492,340 442,475 C 108,255 181,181 317,494 Z"></path>
<path stroke="#31a06b" stroke-width="5" fill="#ed2b2c" opacity="0.07758792415143008" stroke-opacity="0.32563470134951383" transform="rotate(-141.0 400 300)" d="M 529,458  C 250,397 601,457 510,169 C 297,195 125,394 137,308 C 671,254 356,443 214,227 C 332,438 571,281 654,320 C 592,256 372,155 377,206 Z"></path>
<path stroke="#f27630" stroke-width="7" fill="#ed2b2c" opacity="0.3352258019941919" stroke-opacity="0.39813714611195905" transform="rotate(176.0 400 300)" d="M 483,230  C 160,189 658,457 519,298 C 199,298 196,102 487,334 C 535,230 570,111 356,145 C 132,468 492,342 639,378 C 152,121 135,425 487,330 C 327,240 108,338 350,270 C 208,291 582,428 608,113 C 167,281 294,244 691,206 C 283,228 229,157 321,441 C 606,466 598,188 501,450 C 449,413 461,466 158,232 Z"></path>
<path stroke="#f27630" stroke-width="6" fill="#f27630" opacity="0.9984544833367143" stroke-opacity="0.6107522693832571" transform="rotate(153.0 400 300)" d="M 540,472  C 365,500 303,103 610,391 C 552,417 393,287 356,393 C 144,449 485,156 579,446 C 204,371 453,300 451,376 C 256,274 296,432 439,148 Z"></path>
<path stroke="#f27630" stroke-width="7" fill="#f9d84b" opacity="0.42125144018577454" stroke-opacity="0.4362440014198575" transform="rotate(1.0 400 300)" d="M 290,468  C 112,138 605,460 286,277 C 354,449 362,333 478,342 C 552,483 134,372 318,420 C 576,310 381,104 238,294 C 566,413 224,305 235,400 C 252,332 621,304 181,321 Z"></path>

  </g>
</svg>
