<?xml version="1.0" encoding="UTF-8"?>
<svg width="800px" height="600px" viewBox="0 0 800 600" version="1.1" xmlns="http://www.w3.org/2000/svg" xmlns:xlink="http://www.w3.org/1999/xlink">
  <defs></defs>
  <g stroke="none" stroke-width="1" fill="none" fill-rule="evenodd">
    
    <ellipse stroke="#ed2b2c" stroke-width="1" fill="#f9d84b" opacity="0.8805479077943653" stroke-opacity="0.07372402647749948" transform="rotate(-142.0 400 300)" cx="722" rx="384" cy="131" ry="158"></ellipse>
<ellipse stroke="#f9d84b" stroke-width="6" fill="#ed2b2c" opacity="0.953895313037637" stroke-opacity="0.7102478805007849" transform="rotate(19.0 400 300)" cx="257" rx="143" cy="21" ry="110"></ellipse>
<rect stroke="#ed2b2c" stroke-width="1" fill="#f27630" opacity="0.9449927412253168" stroke-opacity="0.2481976222508445" transform="rotate(-90.0 400 300)" x="42" y="114" width="389" height="158"></rect>
<path stroke="#f9d84b" stroke-width="6" fill="#31a06b" opacity="0.3012072807799708" stroke-opacity="0.9522915779304362" transform="rotate(-41.0 400 300)" d="M 697,370  C 525,277 503,312 516,267 C 504,451 523,210 498,467 C 123,295 554,308 185,284 C 431,281 272,414 449,350 C 155,458 542,414 680,487 C 154,454 476,240 367,383 C 214,438 138,486 402,449 C 239,200 259,207 542,385 C 338,276 227,389 163,304 Z"></path>
<polygon stroke="#31a06b" stroke-width="3" fill="#ed2b2c" opacity="0.43422852351898206" stroke-opacity="0.8875913768794942" transform="rotate(-74.0 400 300)" points="655 181 692 542 492 351 680 193 319 232 329 230 752 152 "></polygon>
<ellipse stroke="#f27630" stroke-width="6" fill="#ed2b2c" opacity="0.5282822910922319" stroke-opacity="0.4085090845213187" transform="rotate(99.0 400 300)" cx="156" rx="178" cy="302" ry="208"></ellipse>
<ellipse stroke="#f27630" stroke-width="4" fill="#ed2b2c" opacity="0.5001821483495645" stroke-opacity="0.22169676584993428" transform="rotate(11.0 400 300)" cx="39" rx="281" cy="38" ry="51"></ellipse>
<polygon stroke="#ed2b2c" stroke-width="2" fill="#f9d84b" opacity="0.1865874080362863" stroke-opacity="0.4526792214353787" transform="rotate(-170.0 400 300)" points="85 127 39 420 244 66 668 390 236 26 48 19 499 556 641 225 "></polygon>
<rect stroke="#ed2b2c" stroke-width="2" fill="#f9d84b" opacity="0.15955966714250103" stroke-opacity="0.6734977629290443" transform="rotate(153.0 400 300)" x="448" y="234" width="324" height="240"></rect>
<rect stroke="#ed2b2c" stroke-width="2" fill="#2b55f7" opacity="0.5977065101631586" stroke-opacity="0.3217568661808717" transform="rotate(164.0 400 300)" x="148" y="27" width="217" height="107"></rect>

  </g>
</svg>
