<svg xmlns="http://www.w3.org/2000/svg" xmlns:xlink="http://www.w3.org/1999/xlink" width="800" height="600" version="1.1" viewBox="0 0 800 600"><g fill="none" fill-rule="evenodd" stroke="none" stroke-width="1"><ellipse cx="722" cy="131" fill="#f9d84b" stroke="#ed2b2c" stroke-opacity=".074" stroke-width="1" opacity=".881" rx="384" ry="158" transform="rotate(-142.0 400 300)"/><ellipse cx="257" cy="21" fill="#ed2b2c" stroke="#f9d84b" stroke-opacity=".71" stroke-width="6" opacity=".954" rx="143" ry="110" transform="rotate(19.0 400 300)"/><rect width="389" height="158" x="42" y="114" fill="#f27630" stroke="#ed2b2c" stroke-opacity=".248" stroke-width="1" opacity=".945" transform="rotate(-90.0 400 300)"/><path fill="#31a06b" stroke="#f9d84b" stroke-opacity=".952" stroke-width="6" d="M 697,370 C 525,277 503,312 516,267 C 504,451 523,210 498,467 C 123,295 554,308 185,284 C 431,281 272,414 449,350 C 155,458 542,414 680,487 C 154,454 476,240 367,383 C 214,438 138,486 402,449 C 239,200 259,207 542,385 C 338,276 227,389 163,304 Z" opacity=".301" transform="rotate(-41.0 400 300)"/><polygon fill="#ed2b2c" stroke="#31a06b" stroke-opacity=".888" stroke-width="3" points="655 181 692 542 492 351 680 193 319 232 329 230 752 152" opacity=".434" transform="rotate(-74.0 400 300)"/><ellipse cx="156" cy="302" fill="#ed2b2c" stroke="#f27630" stroke-opacity=".409" stroke-width="6" opacity=".528" rx="178" ry="208" transform="rotate(99.0 400 300)"/><ellipse cx="39" cy="38" fill="#ed2b2c" stroke="#f27630" stroke-opacity=".222" stroke-width="4" opacity=".5" rx="281" ry="51" transform="rotate(11.0 400 300)"/><polygon fill="#f9d84b" stroke="#ed2b2c" stroke-opacity=".453" stroke-width="2" points="85 127 39 420 244 66 668 390 236 26 48 19 499 556 641 225" opacity=".187" transform="rotate(-170.0 400 300)"/><rect width="324" height="240" x="448" y="234" fill="#f9d84b" stroke="#ed2b2c" stroke-opacity=".673" stroke-width="2" opacity=".16" transform="rotate(153.0 400 300)"/><rect width="217" height="107" x="148" y="27" fill="#2b55f7" stroke="#ed2b2c" stroke-opacity=".322" stroke-width="2" opacity=".598" transform="rotate(164.0 400 300)"/></g></svg>