<?xml version="1.0" encoding="UTF-8"?>
<svg width="800px" height="600px" viewBox="0 0 800 600" version="1.1" xmlns="http://www.w3.org/2000/svg" xmlns:xlink="http://www.w3.org/1999/xlink">
  <defs></defs>
  <g stroke="none" stroke-width="1" fill="none" fill-rule="evenodd">
    
    <path stroke="#ed2b2c" stroke-width="4" fill="#ed2b2c" opacity="0.5984465029008356" stroke-opacity="0.07298777696787827" transform="rotate(-22.0 400 300)" d="M 682,436  C 455,464 185,252 654,119 C 139,245 494,340 176,288 C 211,268 500,321 305,211 C 605,283 593,436 284,194 C 620,308 561,352 448,261 C 301,217 179,231 308,372 C 322,250 296,332 664,353 C 259,473 502,290 622,149 C 258,155 369,142 139,280 C 154,228 257,164 333,218 Z"></path>
<path stroke="#ed2b2c" stroke-width="4" fill="#ed2b2c" opacity="0.5436632761336695" stroke-opacity="0.8581069709458112" transform="rotate(173.0 400 300)" d="M 127,282  C 132,204 223,263 350,191 C 485,192 234,226 439,462 C 187,279 595,160 344,493 C 346,440 493,403 303,392 C 648,104 176,179 306,288 C 597,280 593,277 487,256 Z"></path>
<path stroke="#f27630" stroke-width="1" fill="#f27630" opacity="0.4976328790682684" stroke-opacity="0.35242657399373384" transform="rotate(25.0 400 300)" d="M 192,249  C 393,367 478,416 571,293 C 216,471 600,227 107,355 C 232,287 297,414 157,342 C 279,466 324,153 468,449 C 591,479 384,319 250,124 C 350,328 410,469 648,256 C 364,466 504,253 466,293 Z"></path>
<path stroke="#ed2b2c" stroke-width="1" fill="#f27630" opacity="0.43899202945429827" stroke-opacity="0.16710379047902282" transform="rotate(25.0 400 300)" d="M 367,429  C 377,234 332,129 282,255 C 594,413 153,286 366,439 C 427,491 379,224 492,406 C 643,417 300,102 418,160 C 274,191 556,275 242,351 C 427,443 117,121 560,435 C 164,248 283,282 261,423 C 626,172 657,146 575,310 C 227,249 170,431 227,192 C 277,172 239,411 176,492 C 232,345 287,282 693,443 Z"></path>
<path stroke="#f9d84b" stroke-width="3" fill="#f27630" opacity="0.6195894491784301" stroke-opacity="0.8856362886495366" transform="rotate(-25.0 400 300)" d="M 191,465  C 360,255 436,362 427,268 C 669,212 525,482 405,449 C 111,357 459,414 604,336 C 150,251 544,428 569,215 C 670,222 324,364 199,144 C 160,284 447,288 473,397 C 365,121 480,328 668,281 C 507,206 364,400 681,458 C 273,465 357,234 257,182 Z"></path>
<path stroke="#f9d84b" stroke-width="2" fill="#2b55f7" opacity="0.6985038720927591" stroke-opacity="0.23451531950512372" transform="rotate(-103.0 400 300)" d="M 444,375  C 208,165 242,232 201,462 C 515,440 543,214 210,364 C 610,303 114,156 315,372 C 623,249 429,375 138,374 C 675,329 611,288 663,134 C 425,482 468,332 337,226 C 611,418 127,350 406,188 C 663,481 616,230 116,349 Z"></path>

  </g>
</svg>
