<svg xmlns="http://www.w3.org/2000/svg" xmlns:xlink="http://www.w3.org/1999/xlink" width="800" height="600" version="1.1" viewBox="0 0 800 600"><g fill="none" fill-rule="evenodd" stroke="none" stroke-width="1"><ellipse cx="38" cy="306" fill="#f27630" stroke="#ed2b2c" stroke-opacity=".043" stroke-width="1" opacity=".897" rx="416" ry="333" transform="rotate(-52.0 400 300)"/><ellipse cx="112" cy="467" fill="#f27630" stroke="#ed2b2c" stroke-opacity=".298" stroke-width="5" opacity=".437" rx="103" ry="239" transform="rotate(101.0 400 300)"/><rect width="370" height="79" x="73" y="290" fill="#f27630" stroke="#31a06b" stroke-opacity=".58" stroke-width="1" opacity=".679" transform="rotate(-62.0 400 300)"/><path fill="#31a06b" stroke="#31a06b" stroke-opacity=".094" stroke-width="2" d="M 523,342 C 531,270 599,396 493,323 C 645,378 322,413 508,269 C 390,233 275,450 440,213 C 457,452 515,409 347,472 C 189,121 369,132 656,180 C 618,381 385,277 392,445 Z" opacity=".252" transform="rotate(127.0 400 300)"/><rect width="117" height="195" x="454" y="332" fill="#ed2b2c" stroke="#31a06b" stroke-opacity=".724" stroke-width="1" opacity=".138" transform="rotate(126.0 400 300)"/><ellipse cx="412" cy="181" fill="#ed2b2c" stroke="#31a06b" stroke-opacity=".73" stroke-width="2" opacity=".004" rx="441" ry="86" transform="rotate(-92.0 400 300)"/><rect width="276" height="86" x="89" y="129" fill="#2b55f7" stroke="#ed2b2c" stroke-opacity=".526" stroke-width="5" opacity=".206" transform="rotate(-104.0 400 300)"/><ellipse cx="401" cy="539" fill="#f9d84b" stroke="#f9d84b" stroke-opacity=".7" stroke-width="7" opacity=".103" rx="377" ry="171" transform="rotate(-124.0 400 300)"/><ellipse cx="450" cy="261" fill="#2b55f7" stroke="#2b55f7" stroke-opacity=".5" stroke-width="5" opacity=".924" rx="63" ry="62" transform="rotate(179.0 400 300)"/><ellipse cx="569" cy="236" fill="#31a06b" stroke="#f9d84b" stroke-opacity=".811" stroke-width="1" opacity=".476" rx="112" ry="72" transform="rotate(64.0 400 300)"/><polygon fill="#2b55f7" stroke="#f9d84b" stroke-opacity=".082" stroke-width="6" points="605 181 475 506 461 275 415 36 504 83 117 573 214 360 358 596" opacity=".75" transform="rotate(168.0 400 300)"/></g></svg>