<?xml version="1.0" encoding="UTF-8"?>
<svg width="800px" height="600px" viewBox="0 0 800 600" version="1.1" xmlns="http://www.w3.org/2000/svg" xmlns:xlink="http://www.w3.org/1999/xlink">
  <defs></defs>
  <g stroke="none" stroke-width="1" fill="none" fill-rule="evenodd">
    
    <path stroke="#B83AA8" stroke-width="3" fill="#7BD98C" opacity="0.5071191264162371" stroke-opacity="0.17332359493185975" transform="rotate(138.0 400 300)" d="M 651,412  C 410,265 609,379 294,280 C 444,482 497,437 335,227 C 469,437 498,157 259,353 C 135,316 688,452 556,257 C 675,400 218,482 602,357 C 163,475 441,135 117,296 C 424,375 178,440 461,470 C 515,356 196,121 532,365 C 552,317 103,440 441,282 Z"></path>
<path stroke="#4CC8D5" stroke-width="6" fill="#D5B027" opacity="0.37936704522801623" stroke-opacity="0.3281078662083308" transform="rotate(-21.0 400 300)" d="M 451,450  C 411,221 443,496 101,431 C 620,324 700,376 316,357 C 180,447 621,163 575,215 C 650,166 671,158 324,141 C 446,485 680,320 156,319 C 341,421 583,371 103,152 C 434,275 691,433 293,370 C 595,242 690,301 629,123 C 206,299 115,472 151,167 C 266,445 620,118 543,254 C 626,455 660,126 698,195 Z"></path>
<path stroke="#620632" stroke-width="5" fill="#5875AB" opacity="0.22012167009261632" stroke-opacity="0.5138210791241373" transform="rotate(9.0 400 300)" d="M 492,124  C 227,367 431,220 531,348 C 246,130 113,234 681,217 C 660,331 104,397 609,410 C 298,234 285,393 203,422 C 260,287 661,257 550,154 Z"></path>
<path stroke="#C8A259" stroke-width="4" fill="#2CD1D3" opacity="0.4398261779851723" stroke-opacity="0.9168429420861847" transform="rotate(-32.0 400 300)" d="M 366,496  C 530,467 672,303 658,195 C 319,317 300,152 424,446 C 244,458 514,454 588,146 C 115,272 460,229 379,232 C 519,323 342,272 112,165 C 513,135 608,353 153,196 C 126,453 455,303 339,314 C 326,146 425,484 602,264 C 543,336 305,418 408,381 C 391,483 451,304 557,442 Z"></path>
<path stroke="#537376" stroke-width="4" fill="#7C0259" opacity="0.20576094761718594" stroke-opacity="0.007789593689283931" transform="rotate(-100.0 400 300)" d="M 376,289  C 564,301 173,274 602,370 C 686,351 549,268 646,134 C 567,324 356,213 394,208 C 497,176 621,293 327,356 C 522,394 572,407 609,341 C 449,372 197,295 378,270 C 544,115 399,146 195,120 C 579,495 346,300 123,289 C 116,142 476,200 255,222 C 640,453 694,224 500,431 C 479,387 417,207 504,446 Z"></path>
<path stroke="#49A087" stroke-width="5" fill="#9D5949" opacity="0.2510427876467662" stroke-opacity="0.014456949228087773" transform="rotate(172.0 400 300)" d="M 482,212  C 334,293 607,401 303,340 C 139,444 448,499 158,456 C 357,362 351,197 541,471 C 616,482 232,378 594,474 C 480,223 226,412 562,163 C 509,351 498,266 427,215 Z"></path>
<path stroke="#0A9089" stroke-width="6" fill="#9723A7" opacity="0.7056737058348911" stroke-opacity="0.8318615641281152" transform="rotate(159.0 400 300)" d="M 307,414  C 294,319 540,182 169,394 C 612,164 570,450 255,278 C 333,102 338,438 165,153 C 374,414 550,475 687,316 C 215,139 288,140 369,284 C 363,499 255,486 633,263 C 498,213 443,477 109,151 C 365,245 168,134 493,246 C 155,320 117,412 549,180 C 331,290 266,142 530,306 C 514,295 379,398 159,218 Z"></path>
<path stroke="#0B2706" stroke-width="4" fill="#A078CD" opacity="0.0075504031156136305" stroke-opacity="0.6769072337779569" transform="rotate(138.0 400 300)" d="M 179,168  C 440,260 239,362 193,125 C 290,202 382,281 205,416 C 212,145 605,331 561,138 C 210,367 301,205 417,309 C 190,494 207,263 344,179 C 535,132 120,301 285,431 C 150,222 505,149 617,345 C 429,398 614,251 542,419 C 599,310 163,124 105,307 Z"></path>
<path stroke="#8A1C71" stroke-width="5" fill="#C9A534" opacity="0.8071704874160156" stroke-opacity="0.027029029949389074" transform="rotate(47.0 400 300)" d="M 494,480  C 608,213 221,267 589,472 C 346,474 595,262 367,242 C 173,295 209,469 123,418 C 612,380 395,280 334,444 C 680,335 573,496 657,240 C 497,468 168,208 395,473 Z"></path>
<path stroke="#8913C3" stroke-width="2" fill="#1128BB" opacity="0.23134308429781691" stroke-opacity="0.8195199676898735" transform="rotate(51.0 400 300)" d="M 294,165  C 186,184 483,137 553,398 C 174,166 633,295 499,336 C 222,281 306,298 388,362 C 439,324 559,329 565,500 Z"></path>

  </g>
</svg>
