<svg xmlns="http://www.w3.org/2000/svg" xmlns:xlink="http://www.w3.org/1999/xlink" width="800" height="600" version="1.1" viewBox="0 0 800 600"><g fill="none" fill-rule="evenodd" stroke="none" stroke-width="1"><path fill="#ed2b2c" stroke="#f27630" stroke-opacity=".78" stroke-width="5" d="M 534,380 C 502,368 263,440 351,479 C 380,306 232,191 550,179 C 316,434 226,259 379,310 C 654,464 324,237 691,452 C 275,110 590,367 375,333 C 102,236 430,128 179,475 C 389,489 252,322 405,244 C 454,361 672,226 510,197 C 550,344 234,253 291,399 C 404,179 210,104 367,485 C 285,340 132,332 177,160 Z" opacity=".514" transform="rotate(99.0 400 300)"/><path fill="#2b55f7" stroke="#ed2b2c" stroke-opacity=".064" stroke-width="6" d="M 699,437 C 460,272 698,226 295,351 C 612,163 606,487 444,284 C 582,272 287,428 698,156 C 306,175 255,171 567,304 C 335,126 405,410 648,211 C 446,247 327,300 602,482 C 470,234 432,223 431,294 C 153,403 230,243 432,224 C 125,255 439,292 582,201 Z" opacity=".726" transform="rotate(42.0 400 300)"/><path fill="#ed2b2c" stroke="#f27630" stroke-opacity=".39" stroke-width="1" d="M 209,167 C 116,342 525,400 543,302 C 560,373 240,496 433,182 C 679,393 245,248 282,454 C 630,354 482,220 131,154 C 408,190 270,200 519,443 C 367,277 364,485 298,159 C 236,190 309,293 150,329 C 236,184 403,137 104,159 C 466,468 249,478 168,484 C 575,183 660,169 213,438 C 334,257 623,152 210,321 Z" opacity=".629" transform="rotate(17.0 400 300)"/><path fill="#2b55f7" stroke="#f27630" stroke-opacity=".231" stroke-width="5" d="M 531,481 C 575,150 649,383 660,371 C 521,270 671,330 462,495 C 634,281 193,431 298,444 C 529,483 479,321 282,432 C 615,136 338,345 425,303 C 463,433 381,359 441,143 C 290,403 584,330 649,140 Z" opacity=".934" transform="rotate(119.0 400 300)"/><path fill="#f27630" stroke="#2b55f7" stroke-opacity=".758" stroke-width="2" d="M 274,477 C 464,315 691,300 149,322 C 354,233 334,188 116,113 C 124,345 241,142 459,143 C 357,475 298,119 551,155 C 101,348 478,339 543,163 C 500,166 222,278 677,292 C 318,115 253,245 574,274 C 582,218 170,116 279,449 C 584,150 151,187 114,242 Z" opacity=".674" transform="rotate(-33.0 400 300)"/><path fill="#f27630" stroke="#31a06b" stroke-opacity=".102" stroke-width="1" d="M 626,372 C 389,303 430,438 162,178 C 611,319 622,267 541,145 C 614,305 110,474 336,472 C 672,108 392,113 111,214 C 672,373 638,158 700,453 C 698,282 699,272 183,250 C 167,299 380,207 338,412 C 493,337 446,126 454,246 C 278,179 433,324 261,482 C 222,348 540,167 657,392 Z" opacity=".778" transform="rotate(-27.0 400 300)"/><path fill="#ed2b2c" stroke="#f27630" stroke-opacity=".788" stroke-width="6" d="M 418,122 C 414,331 408,356 197,418 C 486,143 322,427 150,377 C 453,104 353,197 207,126 C 216,321 527,436 281,406 C 225,486 359,316 276,125 C 576,137 489,341 329,380 C 148,373 444,169 283,455 C 662,173 185,247 394,184 Z" opacity=".734" transform="rotate(-34.0 400 300)"/><path fill="#31a06b" stroke="#31a06b" stroke-opacity=".887" stroke-width="6" d="M 121,453 C 206,287 543,338 674,304 C 151,399 546,262 484,226 C 209,469 177,150 357,371 C 263,476 296,217 154,371 C 432,270 144,405 585,134 C 605,272 537,121 569,372 C 523,134 263,342 181,428 C 234,153 534,218 647,340 C 662,226 144,261 108,229 C 436,387 425,368 461,424 C 121,166 390,135 399,182 Z" opacity=".802" transform="rotate(-168.0 400 300)"/><path fill="#ed2b2c" stroke="#31a06b" stroke-opacity=".719" stroke-width="3" d="M 113,441 C 195,156 634,452 354,151 C 319,213 307,493 671,380 C 569,348 152,219 608,169 C 486,122 636,252 458,436 C 207,375 192,485 496,255 C 544,380 614,144 591,194 C 151,123 670,233 349,303 C 307,398 610,147 629,345 C 256,347 285,372 652,212 C 537,174 671,484 145,481 C 532,239 237,316 197,435 Z" opacity=".454" transform="rotate(-146.0 400 300)"/><path fill="#f27630" stroke="#f9d84b" stroke-opacity=".244" stroke-width="7" d="M 271,152 C 240,446 124,271 628,131 C 604,209 672,117 393,203 C 439,275 407,412 173,301 C 465,403 611,350 200,414 Z" opacity=".993" transform="rotate(-100.0 400 300)"/><path fill="#ed2b2c" stroke="#ed2b2c" stroke-opacity=".49" stroke-width="1" d="M 684,212 C 539,338 280,166 698,230 C 422,256 562,207 321,206 C 586,181 586,154 348,486 C 638,377 682,452 339,345 C 590,217 678,411 364,469 Z" opacity=".867" transform="rotate(1.0 400 300)"/></g></svg>