<svg xmlns="http://www.w3.org/2000/svg" xmlns:xlink="http://www.w3.org/1999/xlink" width="800" height="600" version="1.1" viewBox="0 0 800 600"><g fill="none" fill-rule="evenodd" stroke="none" stroke-width="1"><path fill="#763A19" stroke="#3B92A4" stroke-opacity=".952" stroke-width="2" d="M 397,331 C 197,427 580,192 475,428 C 171,133 454,462 594,434 C 584,235 458,273 645,316 C 686,218 123,225 692,247 C 165,312 567,260 274,154 Z" opacity=".639" transform="rotate(-146.0 400 300)"/><path fill="#1CD935" stroke="#3D5307" stroke-opacity=".289" stroke-width="3" d="M 282,283 C 691,168 583,403 359,410 C 499,459 278,218 101,141 C 585,444 410,201 105,315 C 682,305 250,419 597,236 C 325,263 573,357 282,342 C 127,103 627,229 437,154 C 160,199 559,450 514,374 Z" opacity=".943" transform="rotate(11.0 400 300)"/><path fill="#8D9DB4" stroke="#0D447A" stroke-opacity=".839" stroke-width="6" d="M 155,277 C 279,284 286,483 303,206 C 104,489 404,392 107,391 C 600,169 471,164 555,355 C 249,376 586,249 517,254 C 698,402 545,371 443,108 C 183,327 699,261 172,438 C 393,143 282,463 519,330 C 137,329 594,251 296,154 Z" opacity=".267" transform="rotate(9.0 400 300)"/><polygon fill="#83B19B" stroke="#864467" stroke-opacity=".746" stroke-width="7" points="221 88 78 68 622 419 552 275 727 318 497 411 167 321" opacity=".946" transform="rotate(-139.0 400 300)"/><polygon fill="#9D5B11" stroke="#8C3BDB" stroke-opacity=".382" stroke-width="7" points="341 225 116 579 527 577 162 438 92 233 443 195" opacity=".4" transform="rotate(27.0 400 300)"/><ellipse cx="799" cy="274" fill="#599C8B" stroke="#124038" stroke-opacity=".928" stroke-width="7" opacity=".736" rx="107" ry="82" transform="rotate(-157.0 400 300)"/><path fill="#B90053" stroke="#C9D268" stroke-opacity=".609" stroke-width="3" d="M 543,443 C 333,114 446,294 396,297 C 472,302 693,296 395,406 C 337,169 104,173 401,190 C 682,164 597,283 471,104 Z" opacity=".07" transform="rotate(56.0 400 300)"/></g></svg>