<?xml version="1.0" encoding="UTF-8"?>
<svg width="800px" height="600px" viewBox="0 0 800 600" version="1.1" xmlns="http://www.w3.org/2000/svg" xmlns:xlink="http://www.w3.org/1999/xlink">
  <defs></defs>
  <g stroke="none" stroke-width="1" fill="none" fill-rule="evenodd">
    
    <polygon stroke="#2b55f7" stroke-width="3" fill="#ed2b2c" opacity="0.9471290915338605" stroke-opacity="0.44458150875217584" transform="rotate(-9.0 400 300)" points="673 371 244 126 417 278 795 176 528 224 26 4 "></polygon>
<rect stroke="#2b55f7" stroke-width="2" fill="#f9d84b" opacity="0.3978669459919638" stroke-opacity="0.26003617158205794" transform="rotate(-1.0 400 300)" x="348" y="11" width="24" height="43"></rect>
<polygon stroke="#f27630" stroke-width="6" fill="#2b55f7" opacity="0.467077459443757" stroke-opacity="0.5749235319685742" transform="rotate(168.0 400 300)" points="642 399 201 35 12 323 530 117 205 215 155 357 "></polygon>
<rect stroke="#f9d84b" stroke-width="2" fill="#2b55f7" opacity="0.3579848892039084" stroke-opacity="0.9591909244579034" transform="rotate(-38.0 400 300)" x="523" y="335" width="224" height="209"></rect>
<rect stroke="#f27630" stroke-width="6" fill="#31a06b" opacity="0.3688809655863215" stroke-opacity="0.9878908815647042" transform="rotate(-117.0 400 300)" x="565" y="459" width="69" height="178"></rect>
<polygon stroke="#ed2b2c" stroke-width="4" fill="#f9d84b" opacity="0.5154399248169529" stroke-opacity="0.4556172400065096" transform="rotate(41.0 400 300)" points="503 14 591 33 210 153 133 395 504 380 707 479 204 523 "></polygon>
<rect stroke="#31a06b" stroke-width="7" fill="#2b55f7" opacity="0.5032597933525644" stroke-opacity="0.10470982812179032" transform="rotate(-166.0 400 300)" x="29" y="526" width="310" height="237"></rect>
<polygon stroke="#31a06b" stroke-width="6" fill="#f27630" opacity="0.5802612695876342" stroke-opacity="0.017264037323717993" transform="rotate(-65.0 400 300)" points="668 153 381 49 600 538 111 471 432 570 "></polygon>

  </g>
</svg>
