<svg xmlns="http://www.w3.org/2000/svg" xmlns:xlink="http://www.w3.org/1999/xlink" width="800" height="600" version="1.1" viewBox="0 0 800 600"><g fill="none" fill-rule="evenodd" stroke="none" stroke-width="1"><polygon fill="#ed2b2c" stroke="#2b55f7" stroke-opacity=".445" stroke-width="3" points="673 371 244 126 417 278 795 176 528 224 26 4" opacity=".947" transform="rotate(-9.0 400 300)"/><rect width="24" height="43" x="348" y="11" fill="#f9d84b" stroke="#2b55f7" stroke-opacity=".26" stroke-width="2" opacity=".398" transform="rotate(-1.0 400 300)"/><polygon fill="#2b55f7" stroke="#f27630" stroke-opacity=".575" stroke-width="6" points="642 399 201 35 12 323 530 117 205 215 155 357" opacity=".467" transform="rotate(168.0 400 300)"/><rect width="224" height="209" x="523" y="335" fill="#2b55f7" stroke="#f9d84b" stroke-opacity=".959" stroke-width="2" opacity=".358" transform="rotate(-38.0 400 300)"/><rect width="69" height="178" x="565" y="459" fill="#31a06b" stroke="#f27630" stroke-opacity=".988" stroke-width="6" opacity=".369" transform="rotate(-117.0 400 300)"/><polygon fill="#f9d84b" stroke="#ed2b2c" stroke-opacity=".456" stroke-width="4" points="503 14 591 33 210 153 133 395 504 380 707 479 204 523" opacity=".515" transform="rotate(41.0 400 300)"/><rect width="310" height="237" x="29" y="526" fill="#2b55f7" stroke="#31a06b" stroke-opacity=".105" stroke-width="7" opacity=".503" transform="rotate(-166.0 400 300)"/><polygon fill="#f27630" stroke="#31a06b" stroke-opacity=".017" stroke-width="6" points="668 153 381 49 600 538 111 471 432 570" opacity=".58" transform="rotate(-65.0 400 300)"/></g></svg>