<svg xmlns="http://www.w3.org/2000/svg" xmlns:xlink="http://www.w3.org/1999/xlink" width="800" height="600" version="1.1" viewBox="0 0 800 600"><g fill="none" fill-rule="evenodd" stroke="none" stroke-width="1"><rect width="380" height="68" x="732" y="445" fill="#02eb6b" stroke="#2cd3f3" stroke-opacity=".979" stroke-width="7" opacity=".72" transform="rotate(166.0 400 300)"/><ellipse cx="424" cy="272" fill="#02eb6b" stroke="#2cd3f3" stroke-opacity=".772" stroke-width="2" opacity=".939" rx="311" ry="212" transform="rotate(-53.0 400 300)"/><rect width="272" height="330" x="799" y="458" fill="#2cd3f3" stroke="#2cd3f3" stroke-opacity=".264" stroke-width="6" opacity=".473" transform="rotate(31.0 400 300)"/><polygon fill="#f559a0" stroke="#2cd3f3" stroke-opacity=".455" stroke-width="5" points="468 566 355 215 105 324 406 161 551 129 691 434" opacity=".261" transform="rotate(135.0 400 300)"/><ellipse cx="349" cy="156" fill="#0fa6d8" stroke="#2cd3f3" stroke-opacity=".029" stroke-width="7" opacity=".555" rx="274" ry="125" transform="rotate(-6.0 400 300)"/><path fill="#2cd3f3" stroke="#02eb6b" stroke-opacity=".783" stroke-width="2" d="M 486,222 C 183,464 268,484 465,300 C 333,312 561,265 657,127 C 194,113 251,118 693,388 C 255,490 417,125 390,110 C 441,427 388,387 593,378 C 236,376 281,166 482,414 Z" opacity=".514" transform="rotate(50.0 400 300)"/><polygon fill="#0fa6d8" stroke="#02eb6b" stroke-opacity=".363" stroke-width="4" points="463 18 785 47 453 112 358 101 461 422 517 546 710 584 480 236" opacity=".506" transform="rotate(-55.0 400 300)"/><polygon fill="#2cd3f3" stroke="#f559a0" stroke-opacity=".591" stroke-width="2" points="205 130 277 375 283 240 155 242 464 248 571 42 547 480 680 393" opacity=".327" transform="rotate(-139.0 400 300)"/><path fill="#fe9225" stroke="#fe9225" stroke-opacity=".91" stroke-width="3" d="M 291,166 C 293,442 366,219 106,195 C 351,284 126,484 289,332 C 202,496 289,193 684,146 C 279,203 264,395 304,181 C 662,354 535,120 633,390 C 230,225 676,272 493,283 C 480,417 612,379 216,234 C 200,425 161,276 547,469 C 219,258 447,249 587,231 Z" opacity=".522" transform="rotate(-38.0 400 300)"/></g></svg>