<?xml version="1.0" encoding="UTF-8"?>
<svg width="800px" height="600px" viewBox="0 0 800 600" version="1.1" xmlns="http://www.w3.org/2000/svg" xmlns:xlink="http://www.w3.org/1999/xlink">
  <defs></defs>
  <g stroke="none" stroke-width="1" fill="none" fill-rule="evenodd">
    
    <rect stroke="#2cd3f3" stroke-width="7" fill="#02eb6b" opacity="0.71990567388066" stroke-opacity="0.9786779242936436" transform="rotate(166.0 400 300)" x="732" y="445" width="380" height="68"></rect>
<ellipse stroke="#2cd3f3" stroke-width="2" fill="#02eb6b" opacity="0.938535101242683" stroke-opacity="0.771518322470725" transform="rotate(-53.0 400 300)" cx="424" rx="311" cy="272" ry="212"></ellipse>
<rect stroke="#2cd3f3" stroke-width="6" fill="#2cd3f3" opacity="0.47254964465790356" stroke-opacity="0.2644850843921546" transform="rotate(31.0 400 300)" x="799" y="458" width="272" height="330"></rect>
<polygon stroke="#2cd3f3" stroke-width="5" fill="#f559a0" opacity="0.2605580328054494" stroke-opacity="0.45501220849161167" transform="rotate(135.0 400 300)" points="468 566 355 215 105 324 406 161 551 129 691 434 "></polygon>
<ellipse stroke="#2cd3f3" stroke-width="7" fill="#0fa6d8" opacity="0.555229737356121" stroke-opacity="0.028817154435603537" transform="rotate(-6.0 400 300)" cx="349" rx="274" cy="156" ry="125"></ellipse>
<path stroke="#02eb6b" stroke-width="2" fill="#2cd3f3" opacity="0.5136816113707101" stroke-opacity="0.7829752878249558" transform="rotate(50.0 400 300)" d="M 486,222  C 183,464 268,484 465,300 C 333,312 561,265 657,127 C 194,113 251,118 693,388 C 255,490 417,125 390,110 C 441,427 388,387 593,378 C 236,376 281,166 482,414 Z"></path>
<polygon stroke="#02eb6b" stroke-width="4" fill="#0fa6d8" opacity="0.5063649856422204" stroke-opacity="0.36295429617156677" transform="rotate(-55.0 400 300)" points="463 18 785 47 453 112 358 101 461 422 517 546 710 584 480 236 "></polygon>
<polygon stroke="#f559a0" stroke-width="2" fill="#2cd3f3" opacity="0.32692755896678083" stroke-opacity="0.5913278729589198" transform="rotate(-139.0 400 300)" points="205 130 277 375 283 240 155 242 464 248 571 42 547 480 680 393 "></polygon>
<path stroke="#fe9225" stroke-width="3" fill="#fe9225" opacity="0.521950921817979" stroke-opacity="0.9102314028345012" transform="rotate(-38.0 400 300)" d="M 291,166  C 293,442 366,219 106,195 C 351,284 126,484 289,332 C 202,496 289,193 684,146 C 279,203 264,395 304,181 C 662,354 535,120 633,390 C 230,225 676,272 493,283 C 480,417 612,379 216,234 C 200,425 161,276 547,469 C 219,258 447,249 587,231 Z"></path>

  </g>
</svg>
