<?xml version="1.0" encoding="UTF-8"?>
<svg width="800px" height="600px" viewBox="0 0 800 600" version="1.1" xmlns="http://www.w3.org/2000/svg" xmlns:xlink="http://www.w3.org/1999/xlink">
  <defs></defs>
  <g stroke="none" stroke-width="1" fill="none" fill-rule="evenodd">
    
    <path stroke="#2b55f7" stroke-width="4" fill="#2b55f7" opacity="0.5804136653004504" stroke-opacity="0.3855875579375388" transform="rotate(-68.0 400 300)" d="M 291,216  C 477,463 101,380 369,460 C 162,447 342,208 586,284 C 103,428 233,177 373,129 C 140,357 687,246 481,429 Z"></path>
<path stroke="#f9d84b" stroke-width="5" fill="#31a06b" opacity="0.516290130177699" stroke-opacity="0.3221825860029561" transform="rotate(-3.0 400 300)" d="M 423,389  C 143,131 282,366 264,414 C 566,119 499,271 684,411 C 595,209 119,282 680,254 C 157,261 582,414 420,242 C 616,190 392,144 420,253 C 237,425 178,446 254,314 Z"></path>
<path stroke="#f9d84b" stroke-width="6" fill="#ed2b2c" opacity="0.9769582589686757" stroke-opacity="0.8286498435025065" transform="rotate(-146.0 400 300)" d="M 167,450  C 393,344 162,215 111,163 C 304,295 221,168 135,421 C 156,414 678,485 149,384 C 502,207 150,263 466,193 C 574,263 140,418 681,216 C 312,259 122,138 392,264 C 429,231 495,422 162,345 C 298,345 233,152 141,443 C 460,132 329,415 533,327 C 122,396 467,419 593,437 Z"></path>
<path stroke="#ed2b2c" stroke-width="6" fill="#f27630" opacity="0.6967338236684584" stroke-opacity="0.7240195494439697" transform="rotate(128.0 400 300)" d="M 139,143  C 192,401 528,378 460,412 C 690,310 523,360 198,247 C 652,128 509,428 628,313 C 678,282 689,193 647,223 C 322,438 442,433 269,269 C 287,467 441,378 419,334 C 445,136 322,426 168,121 Z"></path>
<path stroke="#31a06b" stroke-width="4" fill="#31a06b" opacity="0.25671059022285947" stroke-opacity="0.9729037195155107" transform="rotate(-174.0 400 300)" d="M 231,434  C 485,359 244,331 127,367 C 354,207 362,382 411,128 C 597,408 451,235 431,273 C 209,292 467,108 556,455 C 382,453 248,495 166,424 C 119,220 476,366 462,421 C 210,341 666,488 698,487 Z"></path>
<path stroke="#2b55f7" stroke-width="1" fill="#f9d84b" opacity="0.7488615778348245" stroke-opacity="0.9977341836366945" transform="rotate(-6.0 400 300)" d="M 327,125  C 116,239 336,319 675,315 C 295,179 389,307 253,488 C 123,175 568,330 648,496 C 623,168 599,394 617,120 C 692,195 459,371 478,351 C 172,418 153,485 329,348 Z"></path>

  </g>
</svg>
