<svg xmlns="http://www.w3.org/2000/svg" xmlns:xlink="http://www.w3.org/1999/xlink" width="800" height="600" version="1.1" viewBox="0 0 800 600"><g fill="none" fill-rule="evenodd" stroke="none" stroke-width="1"><ellipse cx="782" cy="533" fill="#3976CA" stroke="#8B6050" stroke-opacity=".9" stroke-width="2" opacity=".292" rx="222" ry="233" transform="rotate(-172.0 400 300)"/><path fill="#ADB63A" stroke="#1A2144" stroke-opacity=".769" stroke-width="6" d="M 299,296 C 211,231 686,479 290,429 C 214,312 495,363 522,295 C 122,151 533,454 151,460 C 335,383 540,361 380,494 C 505,127 450,400 219,292 Z" opacity=".992" transform="rotate(110.0 400 300)"/><ellipse cx="10" cy="363" fill="#623078" stroke="#3B06CB" stroke-opacity=".307" stroke-width="4" opacity=".993" rx="108" ry="182" transform="rotate(8.0 400 300)"/><path fill="#9997D1" stroke="#A84629" stroke-opacity=".333" stroke-width="1" d="M 312,246 C 586,477 629,260 613,323 C 323,377 552,449 403,241 C 423,463 284,257 521,139 C 297,101 447,477 119,282 C 540,262 544,302 622,128 C 429,281 472,240 325,301 C 271,161 571,462 444,232 C 351,352 455,421 264,373 C 443,251 106,426 615,306 C 200,169 365,195 634,451 Z" opacity=".691" transform="rotate(-59.0 400 300)"/><ellipse cx="225" cy="427" fill="#6C636A" stroke="#36403B" stroke-opacity=".267" stroke-width="1" opacity=".757" rx="403" ry="331" transform="rotate(-71.0 400 300)"/><ellipse cx="193" cy="13" fill="#C1B532" stroke="#7899BA" stroke-opacity=".681" stroke-width="1" opacity=".199" rx="437" ry="235" transform="rotate(146.0 400 300)"/><path fill="#CC352D" stroke="#471B38" stroke-opacity=".277" stroke-width="6" d="M 499,125 C 403,252 130,440 473,332 C 588,451 535,163 675,496 C 477,107 150,350 678,152 C 454,366 104,347 350,331 Z" opacity=".169" transform="rotate(-117.0 400 300)"/><rect width="49" height="74" x="664" y="370" fill="#958562" stroke="#776264" stroke-opacity=".001" stroke-width="1" opacity=".054" transform="rotate(106.0 400 300)"/><path fill="#2A620D" stroke="#A7C951" stroke-opacity=".595" stroke-width="4" d="M 471,401 C 540,249 378,206 207,225 C 245,431 354,460 421,470 C 555,297 680,263 313,400 C 624,127 195,259 587,261 C 548,159 324,466 137,206 Z" opacity=".931" transform="rotate(143.0 400 300)"/><rect width="33" height="373" x="258" y="576" fill="#A19B12" stroke="#5588DC" stroke-opacity=".04" stroke-width="1" opacity=".296" transform="rotate(-67.0 400 300)"/><polygon fill="#6A3384" stroke="#23A884" stroke-opacity=".179" stroke-width="2" points="620 436 79 386 553 105 509 46 210 472 218 452 67 321 183 390" opacity=".865" transform="rotate(-65.0 400 300)"/></g></svg>