<?xml version="1.0" encoding="UTF-8"?>
<svg width="800px" height="600px" viewBox="0 0 800 600" version="1.1" xmlns="http://www.w3.org/2000/svg" xmlns:xlink="http://www.w3.org/1999/xlink">
  <defs></defs>
  <g stroke="none" stroke-width="1" fill="none" fill-rule="evenodd">
    
    <ellipse stroke="#8B6050" stroke-width="2" fill="#3976CA" opacity="0.2915304452874941" stroke-opacity="0.9000576150665839" transform="rotate(-172.0 400 300)" cx="782" rx="222" cy="533" ry="233"></ellipse>
<path stroke="#1A2144" stroke-width="6" fill="#ADB63A" opacity="0.9916551476669984" stroke-opacity="0.7687917231589547" transform="rotate(110.0 400 300)" d="M 299,296  C 211,231 686,479 290,429 C 214,312 495,363 522,295 C 122,151 533,454 151,460 C 335,383 540,361 380,494 C 505,127 450,400 219,292 Z"></path>
<ellipse stroke="#3B06CB" stroke-width="4" fill="#623078" opacity="0.9927800166474694" stroke-opacity="0.3070379689688935" transform="rotate(8.0 400 300)" cx="10" rx="108" cy="363" ry="182"></ellipse>
<path stroke="#A84629" stroke-width="1" fill="#9997D1" opacity="0.6914195141737268" stroke-opacity="0.3332150426171457" transform="rotate(-59.0 400 300)" d="M 312,246  C 586,477 629,260 613,323 C 323,377 552,449 403,241 C 423,463 284,257 521,139 C 297,101 447,477 119,282 C 540,262 544,302 622,128 C 429,281 472,240 325,301 C 271,161 571,462 444,232 C 351,352 455,421 264,373 C 443,251 106,426 615,306 C 200,169 365,195 634,451 Z"></path>
<ellipse stroke="#36403B" stroke-width="1" fill="#6C636A" opacity="0.7573642877286005" stroke-opacity="0.2666876421534548" transform="rotate(-71.0 400 300)" cx="225" rx="403" cy="427" ry="331"></ellipse>
<ellipse stroke="#7899BA" stroke-width="1" fill="#C1B532" opacity="0.19883155929538288" stroke-opacity="0.6810181986473761" transform="rotate(146.0 400 300)" cx="193" rx="437" cy="13" ry="235"></ellipse>
<path stroke="#471B38" stroke-width="6" fill="#CC352D" opacity="0.16923305012512974" stroke-opacity="0.27749440113633855" transform="rotate(-117.0 400 300)" d="M 499,125  C 403,252 130,440 473,332 C 588,451 535,163 675,496 C 477,107 150,350 678,152 C 454,366 104,347 350,331 Z"></path>
<rect stroke="#776264" stroke-width="1" fill="#958562" opacity="0.05428324083237601" stroke-opacity="0.001467385504389468" transform="rotate(106.0 400 300)" x="664" y="370" width="49" height="74"></rect>
<path stroke="#A7C951" stroke-width="4" fill="#2A620D" opacity="0.9306038581482654" stroke-opacity="0.5945334798005959" transform="rotate(143.0 400 300)" d="M 471,401  C 540,249 378,206 207,225 C 245,431 354,460 421,470 C 555,297 680,263 313,400 C 624,127 195,259 587,261 C 548,159 324,466 137,206 Z"></path>
<rect stroke="#5588DC" stroke-width="1" fill="#A19B12" opacity="0.29568862152019876" stroke-opacity="0.03984780316600916" transform="rotate(-67.0 400 300)" x="258" y="576" width="33" height="373"></rect>
<polygon stroke="#23A884" stroke-width="2" fill="#6A3384" opacity="0.8653868059355795" stroke-opacity="0.17931776210087624" transform="rotate(-65.0 400 300)" points="620 436 79 386 553 105 509 46 210 472 218 452 67 321 183 390 "></polygon>

  </g>
</svg>
