<svg xmlns="http://www.w3.org/2000/svg" xmlns:xlink="http://www.w3.org/1999/xlink" width="800" height="600" version="1.1" viewBox="0 0 800 600"><g fill="none" fill-rule="evenodd" stroke="none" stroke-width="1"><ellipse cx="479" cy="417" fill="#02eb6b" stroke="#2cd3f3" stroke-opacity=".499" stroke-width="3" opacity=".13" rx="117" ry="330" transform="rotate(-144.0 400 300)"/><polygon fill="#02eb6b" stroke="#0fa6d8" stroke-opacity=".726" stroke-width="1" points="307 350 182 120 659 401 279 550 654 26 74 118 728 286 573 566" opacity=".262" transform="rotate(93.0 400 300)"/><polygon fill="#02eb6b" stroke="#2cd3f3" stroke-opacity=".633" stroke-width="4" points="626 267 57 16 299 209 550 235 314 445 92 565" opacity=".671" transform="rotate(8.0 400 300)"/><path fill="#02eb6b" stroke="#0fa6d8" stroke-opacity=".55" stroke-width="4" d="M 149,440 C 292,306 296,127 673,463 C 519,384 170,495 598,156 C 409,114 203,343 673,296 C 598,303 642,198 355,256 C 541,133 125,313 572,216 C 103,213 560,161 647,164 C 223,487 550,113 267,425 C 109,301 665,271 121,237 C 508,438 372,268 567,334 C 428,135 141,232 123,441 Z" opacity=".027" transform="rotate(117.0 400 300)"/><ellipse cx="796" cy="452" fill="#f559a0" stroke="#02eb6b" stroke-opacity=".65" stroke-width="6" opacity=".659" rx="384" ry="258" transform="rotate(-103.0 400 300)"/><ellipse cx="659" cy="482" fill="#2cd3f3" stroke="#0fa6d8" stroke-opacity=".411" stroke-width="1" opacity=".899" rx="144" ry="240" transform="rotate(9.0 400 300)"/><rect width="107" height="396" x="492" y="39" fill="#2cd3f3" stroke="#02eb6b" stroke-opacity=".513" stroke-width="3" opacity=".772" transform="rotate(-156.0 400 300)"/><rect width="48" height="343" x="597" y="212" fill="#fe9225" stroke="#02eb6b" stroke-opacity=".493" stroke-width="4" opacity=".936" transform="rotate(-60.0 400 300)"/></g></svg>