<svg xmlns="http://www.w3.org/2000/svg" xmlns:xlink="http://www.w3.org/1999/xlink" width="800" height="600" version="1.1" viewBox="0 0 800 600"><g fill="none" fill-rule="evenodd" stroke="none" stroke-width="1"><path fill="#02eb6b" stroke="#f559a0" stroke-opacity=".494" stroke-width="3" d="M 304,128 C 643,417 125,291 184,487 C 254,112 397,408 664,288 C 639,486 298,428 393,416 C 274,457 330,246 264,282 C 149,319 309,406 209,454 C 647,215 468,145 200,192 C 603,353 122,132 571,366 Z" opacity=".721" transform="rotate(-4.0 400 300)"/><path fill="#2cd3f3" stroke="#2cd3f3" stroke-opacity=".924" stroke-width="5" d="M 300,385 C 621,176 485,382 558,196 C 125,485 239,271 296,233 C 474,421 407,314 358,423 C 194,190 631,306 443,353 C 377,475 204,480 179,499 Z" opacity=".382" transform="rotate(-141.0 400 300)"/><path fill="#2cd3f3" stroke="#fe9225" stroke-opacity=".953" stroke-width="4" d="M 519,424 C 355,438 382,471 473,264 C 606,426 471,388 116,167 C 125,443 241,161 227,114 C 486,429 123,350 486,109 C 248,390 209,334 590,454 C 398,199 449,167 277,303 C 156,179 672,209 179,154 C 295,263 296,145 440,322 Z" opacity=".747" transform="rotate(6.0 400 300)"/><path fill="#f559a0" stroke="#02eb6b" stroke-opacity=".428" stroke-width="3" d="M 605,391 C 139,209 445,484 594,477 C 344,136 384,168 671,212 C 683,447 508,381 561,468 C 240,407 570,158 109,456 C 679,346 627,282 545,450 C 140,251 416,384 513,328 C 543,428 163,228 359,346 C 443,309 209,394 360,156 C 374,198 278,124 671,160 Z" opacity=".318" transform="rotate(-2.0 400 300)"/><path fill="#0fa6d8" stroke="#02eb6b" stroke-opacity=".036" stroke-width="2" d="M 314,196 C 660,201 637,400 270,481 C 432,244 143,139 114,480 C 592,418 367,349 621,462 C 484,111 676,239 596,131 C 422,465 213,283 457,246 Z" opacity=".868" transform="rotate(165.0 400 300)"/><path fill="#f559a0" stroke="#f559a0" stroke-opacity=".25" stroke-width="1" d="M 194,442 C 319,306 294,474 303,410 C 502,435 577,185 279,206 C 613,176 479,302 390,166 C 253,212 420,491 119,232 C 588,232 385,392 510,366 C 333,397 588,112 339,117 C 207,252 532,484 642,290 Z" opacity=".839" transform="rotate(92.0 400 300)"/><path fill="#2cd3f3" stroke="#f559a0" stroke-opacity=".948" stroke-width="3" d="M 155,243 C 288,442 225,247 245,109 C 452,273 466,397 283,248 C 312,376 179,106 277,301 C 125,286 206,139 455,218 C 106,246 206,178 117,477 C 450,281 553,450 412,434 C 646,477 515,289 568,102 C 207,250 592,238 596,302 C 378,473 668,114 518,359 C 506,338 640,368 266,129 C 687,216 475,346 203,491 Z" opacity=".866" transform="rotate(-93.0 400 300)"/><path fill="#2cd3f3" stroke="#fe9225" stroke-opacity=".975" stroke-width="7" d="M 257,227 C 261,176 476,188 137,307 C 404,396 399,213 267,377 C 463,258 107,274 421,475 C 154,302 470,396 359,488 C 447,490 600,287 122,357 C 413,340 438,483 363,460 C 186,269 264,209 628,339 C 305,482 429,263 329,115 C 112,274 459,232 103,257 C 628,256 240,214 368,222 C 651,363 116,116 307,183 Z" opacity=".099" transform="rotate(125.0 400 300)"/><path fill="#0fa6d8" stroke="#f559a0" stroke-opacity=".963" stroke-width="4" d="M 636,485 C 118,278 190,371 650,220 C 449,446 392,220 120,347 C 339,125 269,322 693,231 C 511,380 163,290 154,460 C 535,264 567,187 348,290 C 448,118 184,432 688,453 Z" opacity=".895" transform="rotate(-66.0 400 300)"/></g></svg>