<svg xmlns="http://www.w3.org/2000/svg" xmlns:xlink="http://www.w3.org/1999/xlink" width="800" height="600" version="1.1" viewBox="0 0 800 600"><g fill="none" fill-rule="evenodd" stroke="none" stroke-width="1"><path fill="#0fa6d8" stroke="#fe9225" stroke-opacity=".459" stroke-width="2" d="M 538,224 C 499,320 684,470 309,246 C 617,231 517,325 107,145 C 488,175 653,152 659,257 C 581,265 118,233 492,176 C 463,429 477,282 651,454 Z" opacity=".335" transform="rotate(-72.0 400 300)"/><path fill="#f559a0" stroke="#f559a0" stroke-opacity=".024" stroke-width="4" d="M 139,464 C 125,223 344,456 329,353 C 590,292 188,449 337,392 C 325,471 392,278 467,106 C 324,286 623,121 407,292 C 540,280 265,259 288,385 C 506,482 497,361 474,123 C 175,233 621,359 306,417 C 597,157 120,414 399,177 C 479,279 367,250 330,379 C 309,223 367,136 223,248 C 147,163 607,346 599,390 Z" opacity=".106" transform="rotate(33.0 400 300)"/><path fill="#fe9225" stroke="#fe9225" stroke-opacity=".515" stroke-width="5" d="M 513,107 C 244,457 247,447 203,131 C 433,134 373,352 336,282 C 452,247 202,332 423,368 C 488,343 376,194 427,392 C 398,395 269,259 292,288 C 559,110 487,345 667,452 C 629,435 213,289 133,198 C 339,276 384,183 440,449 C 233,490 298,302 659,375 C 318,227 191,482 241,495 C 110,262 643,425 638,482 Z" opacity=".8" transform="rotate(-114.0 400 300)"/><path fill="#2cd3f3" stroke="#2cd3f3" stroke-opacity=".328" stroke-width="6" d="M 170,310 C 250,498 325,303 102,448 C 253,218 600,357 462,339 C 577,454 439,407 578,196 C 485,120 499,260 390,497 C 236,168 220,189 399,182 C 180,457 693,210 446,268 Z" opacity=".827" transform="rotate(134.0 400 300)"/><path fill="#02eb6b" stroke="#2cd3f3" stroke-opacity=".511" stroke-width="5" d="M 178,140 C 278,352 547,375 307,489 C 280,191 536,430 653,386 C 259,260 478,338 640,206 C 540,451 572,243 339,144 C 681,345 379,242 272,401 C 562,196 300,168 190,327 C 602,203 187,264 275,444 C 234,171 650,191 148,386 Z" opacity=".669" transform="rotate(8.0 400 300)"/><path fill="#fe9225" stroke="#02eb6b" stroke-opacity=".044" stroke-width="7" d="M 597,149 C 347,382 468,395 351,453 C 439,229 636,476 664,469 C 172,126 445,227 230,162 C 125,143 262,253 136,151 C 315,252 150,490 512,229 C 457,493 302,413 578,245 C 347,130 675,179 699,323 C 277,328 473,196 418,226 C 246,469 269,321 159,497 C 269,420 160,113 143,133 Z" opacity=".915" transform="rotate(-51.0 400 300)"/><path fill="#f559a0" stroke="#2cd3f3" stroke-opacity=".741" stroke-width="3" d="M 700,103 C 602,313 135,452 308,137 C 589,347 432,118 306,381 C 605,251 367,437 185,205 C 542,285 349,234 349,405 Z" opacity=".188" transform="rotate(148.0 400 300)"/><path fill="#0fa6d8" stroke="#fe9225" stroke-opacity=".427" stroke-width="2" d="M 188,265 C 630,339 386,184 220,273 C 519,137 166,131 496,119 C 168,163 224,359 257,446 C 300,143 507,338 661,286 C 260,487 212,165 653,172 C 308,479 229,145 690,493 C 695,128 657,143 428,407 C 399,423 139,232 287,138 C 641,458 624,292 238,300 C 239,141 548,435 395,240 C 124,283 309,437 365,342 Z" opacity=".219" transform="rotate(-10.0 400 300)"/><path fill="#02eb6b" stroke="#02eb6b" stroke-opacity=".341" stroke-width="3" d="M 419,424 C 262,288 595,269 326,215 C 242,482 303,421 668,468 C 541,436 446,304 558,106 C 620,427 484,320 659,496 C 353,173 532,124 453,160 C 272,463 504,187 538,411 C 401,226 563,399 505,181 C 436,315 136,195 635,296 C 165,499 693,173 296,307 Z" opacity=".705" transform="rotate(-17.0 400 300)"/><path fill="#fe9225" stroke="#2cd3f3" stroke-opacity=".562" stroke-width="1" d="M 311,375 C 311,196 220,417 106,300 C 179,244 545,226 252,252 C 550,491 155,216 274,242 C 338,212 466,118 128,343 C 445,294 616,401 507,240 C 665,427 667,420 655,107 C 455,182 139,195 614,225 C 468,360 667,295 312,330 C 537,269 165,303 247,462 C 205,453 604,342 122,157 Z" opacity=".938" transform="rotate(174.0 400 300)"/></g></svg>