<svg xmlns="http://www.w3.org/2000/svg" xmlns:xlink="http://www.w3.org/1999/xlink" width="800" height="600" version="1.1" viewBox="0 0 800 600"><g fill="none" fill-rule="evenodd" stroke="none" stroke-width="1"><path fill="#A56478" stroke="#225345" stroke-opacity=".959" stroke-width="7" d="M 618,469 C 667,213 389,373 554,198 C 442,269 174,389 226,266 C 397,230 364,228 515,231 C 269,240 602,411 214,401 C 169,435 592,466 458,271 Z" opacity=".5" transform="rotate(35.0 400 300)"/><path fill="#21C7B6" stroke="#945CA3" stroke-opacity=".42" stroke-width="6" d="M 304,426 C 119,360 133,105 496,377 C 451,464 150,307 682,473 C 407,155 326,171 143,480 C 284,175 478,448 671,260 C 508,333 494,487 180,139 C 299,309 150,347 528,220 C 627,293 461,245 617,376 C 305,214 217,499 380,497 C 378,465 351,431 112,344 Z" opacity=".945" transform="rotate(40.0 400 300)"/><path fill="#16C072" stroke="#BC7577" stroke-opacity=".818" stroke-width="6" d="M 447,451 C 486,119 171,317 625,493 C 298,282 483,456 535,479 C 431,481 642,148 136,168 C 342,218 695,433 527,202 C 431,411 685,474 394,211 C 628,483 575,253 151,118 C 630,460 171,326 620,175 C 459,159 412,453 617,474 Z" opacity=".126" transform="rotate(30.0 400 300)"/><path fill="#82707C" stroke="#32811D" stroke-opacity=".678" stroke-width="3" d="M 337,463 C 314,275 510,484 267,395 C 317,186 346,439 344,322 C 316,310 140,152 130,164 C 279,181 679,277 220,313 C 320,275 344,383 553,123 C 106,369 197,101 424,114 C 320,410 459,168 355,396 C 352,237 622,499 560,465 Z" opacity=".66" transform="rotate(9.0 400 300)"/><path fill="#7BCD8C" stroke="#551581" stroke-opacity=".719" stroke-width="4" d="M 653,429 C 629,216 452,282 301,272 C 382,402 232,455 211,227 C 601,125 459,492 195,377 C 320,182 330,491 294,393 C 308,380 593,365 307,153 C 301,317 443,111 425,161 C 316,269 287,184 243,187 C 311,300 693,243 418,403 C 397,197 636,167 462,388 C 521,396 154,434 554,262 C 579,282 411,193 404,243 Z" opacity=".032" transform="rotate(175.0 400 300)"/><path fill="#BB8056" stroke="#049152" stroke-opacity=".597" stroke-width="6" d="M 197,485 C 623,211 427,143 522,431 C 541,223 654,407 528,107 C 615,267 494,272 296,475 C 160,145 327,206 345,353 C 189,341 630,167 351,394 C 381,105 612,485 469,483 C 223,385 665,243 391,334 C 275,405 186,171 667,137 C 115,167 572,483 333,253 C 282,290 491,154 455,161 C 485,108 697,461 621,101 Z" opacity=".129" transform="rotate(-134.0 400 300)"/><path fill="#20CA8A" stroke="#439BC1" stroke-opacity=".448" stroke-width="3" d="M 162,267 C 227,431 504,190 141,193 C 165,500 399,198 310,315 C 616,129 343,155 333,421 C 472,257 266,472 401,260 C 420,395 687,334 389,425 C 366,240 696,153 614,479 C 188,335 399,200 549,370 C 231,487 610,441 634,498 C 556,380 517,271 516,360 C 609,393 192,219 618,145 C 424,450 419,338 549,190 Z" opacity=".732" transform="rotate(-124.0 400 300)"/></g></svg>