<svg xmlns="http://www.w3.org/2000/svg" xmlns:xlink="http://www.w3.org/1999/xlink" width="800" height="600" version="1.1" viewBox="0 0 800 600"><g fill="none" fill-rule="evenodd" stroke="none" stroke-width="1"><polygon fill="#426275" stroke="#6A0A13" stroke-opacity=".462" stroke-width="2" points="678 457 417 321 182 184 531 386 521 83" opacity=".575" transform="rotate(148.0 400 300)"/><rect width="384" height="205" x="649" y="358" fill="#312719" stroke="#9BDAA7" stroke-opacity=".482" stroke-width="7" opacity=".857" transform="rotate(-116.0 400 300)"/><rect width="367" height="230" x="435" y="215" fill="#82C0D2" stroke="#C266CA" stroke-opacity=".128" stroke-width="4" opacity=".664" transform="rotate(145.0 400 300)"/><rect width="111" height="288" x="364" y="54" fill="#2CB3C6" stroke="#B3D735" stroke-opacity=".541" stroke-width="4" opacity=".349" transform="rotate(56.0 400 300)"/><rect width="219" height="166" x="37" y="99" fill="#1802A1" stroke="#9A1D03" stroke-opacity=".415" stroke-width="6" opacity=".56" transform="rotate(48.0 400 300)"/><rect width="117" height="124" x="33" y="556" fill="#7679D5" stroke="#C38270" stroke-opacity=".768" stroke-width="3" opacity=".883" transform="rotate(-160.0 400 300)"/><ellipse cx="35" cy="578" fill="#510719" stroke="#5A88A1" stroke-opacity=".439" stroke-width="7" opacity=".256" rx="430" ry="131" transform="rotate(-102.0 400 300)"/><ellipse cx="13" cy="419" fill="#8C8C41" stroke="#420CBA" stroke-opacity=".737" stroke-width="1" opacity=".769" rx="269" ry="209" transform="rotate(7.0 400 300)"/><polygon fill="#A44734" stroke="#D5699C" stroke-opacity=".647" stroke-width="7" points="305 64 374 134 132 355 215 442 728 527 200 383 410 284" opacity=".16" transform="rotate(12.0 400 300)"/></g></svg>