<?xml version="1.0" encoding="UTF-8"?>
<svg width="800px" height="600px" viewBox="0 0 800 600" version="1.1" xmlns="http://www.w3.org/2000/svg" xmlns:xlink="http://www.w3.org/1999/xlink">
  <defs></defs>
  <g stroke="none" stroke-width="1" fill="none" fill-rule="evenodd">
    
    <polygon stroke="#6A0A13" stroke-width="2" fill="#426275" opacity="0.5754848262930965" stroke-opacity="0.46225162428982286" transform="rotate(148.0 400 300)" points="678 457 417 321 182 184 531 386 521 83 "></polygon>
<rect stroke="#9BDAA7" stroke-width="7" fill="#312719" opacity="0.8566800290576706" stroke-opacity="0.4817844681252425" transform="rotate(-116.0 400 300)" x="649" y="358" width="384" height="205"></rect>
<rect stroke="#C266CA" stroke-width="4" fill="#82C0D2" opacity="0.6643769383702012" stroke-opacity="0.1282218832875012" transform="rotate(145.0 400 300)" x="435" y="215" width="367" height="230"></rect>
<rect stroke="#B3D735" stroke-width="4" fill="#2CB3C6" opacity="0.34944818961091495" stroke-opacity="0.54062098978478" transform="rotate(56.0 400 300)" x="364" y="54" width="111" height="288"></rect>
<rect stroke="#9A1D03" stroke-width="6" fill="#1802A1" opacity="0.5602685588232795" stroke-opacity="0.4148886860662877" transform="rotate(48.0 400 300)" x="37" y="99" width="219" height="166"></rect>
<rect stroke="#C38270" stroke-width="3" fill="#7679D5" opacity="0.8828602661895851" stroke-opacity="0.7684603157748134" transform="rotate(-160.0 400 300)" x="33" y="556" width="117" height="124"></rect>
<ellipse stroke="#5A88A1" stroke-width="7" fill="#510719" opacity="0.25563931484961067" stroke-opacity="0.43895693062949454" transform="rotate(-102.0 400 300)" cx="35" rx="430" cy="578" ry="131"></ellipse>
<ellipse stroke="#420CBA" stroke-width="1" fill="#8C8C41" opacity="0.7691067272061765" stroke-opacity="0.7367325831746306" transform="rotate(7.0 400 300)" cx="13" rx="269" cy="419" ry="209"></ellipse>
<polygon stroke="#D5699C" stroke-width="7" fill="#A44734" opacity="0.1598457486810153" stroke-opacity="0.6467218666537862" transform="rotate(12.0 400 300)" points="305 64 374 134 132 355 215 442 728 527 200 383 410 284 "></polygon>

  </g>
</svg>
