<svg xmlns="http://www.w3.org/2000/svg" xmlns:xlink="http://www.w3.org/1999/xlink" width="800" height="600" version="1.1" viewBox="0 0 800 600"><g fill="none" fill-rule="evenodd" stroke="none" stroke-width="1"><path fill="#2cd3f3" stroke="#2cd3f3" stroke-opacity=".536" stroke-width="5" d="M 120,139 C 171,443 366,404 533,345 C 238,119 488,445 410,151 C 602,349 256,167 322,362 C 483,260 481,482 575,368 C 290,493 215,327 492,274 C 448,286 525,456 549,175 C 486,163 402,352 197,134 C 543,150 111,445 380,376 Z" opacity=".619" transform="rotate(-67.0 400 300)"/><polygon fill="#02eb6b" stroke="#0fa6d8" stroke-opacity=".202" stroke-width="3" points="729 9 777 437 678 469 271 549 156 255" opacity=".402" transform="rotate(-37.0 400 300)"/><rect width="296" height="151" x="569" y="130" fill="#fe9225" stroke="#f559a0" stroke-opacity=".965" stroke-width="1" opacity=".07" transform="rotate(-63.0 400 300)"/><polygon fill="#fe9225" stroke="#02eb6b" stroke-opacity=".243" stroke-width="1" points="136 557 470 422 597 422 692 357 466 282 188 51 210 277" opacity=".666" transform="rotate(82.0 400 300)"/><polygon fill="#02eb6b" stroke="#02eb6b" stroke-opacity=".286" stroke-width="3" points="141 189 162 342 409 183 639 406 206 548" opacity=".521" transform="rotate(-17.0 400 300)"/><rect width="30" height="267" x="791" y="356" fill="#f559a0" stroke="#02eb6b" stroke-opacity=".861" stroke-width="2" opacity=".884" transform="rotate(-146.0 400 300)"/><rect width="215" height="37" x="327" y="206" fill="#02eb6b" stroke="#02eb6b" stroke-opacity=".872" stroke-width="2" opacity=".031" transform="rotate(-44.0 400 300)"/><path fill="#fe9225" stroke="#f559a0" stroke-opacity=".075" stroke-width="4" d="M 470,268 C 124,295 609,261 119,406 C 205,293 523,141 257,497 C 130,344 311,432 555,207 C 639,196 117,200 473,358 C 109,318 431,440 414,223 C 697,215 526,315 267,360 C 610,242 351,246 233,265 C 490,113 273,290 133,486 Z" opacity=".24" transform="rotate(56.0 400 300)"/></g></svg>