<svg xmlns="http://www.w3.org/2000/svg" xmlns:xlink="http://www.w3.org/1999/xlink" width="800" height="600" version="1.1" viewBox="0 0 800 600"><g fill="none" fill-rule="evenodd" stroke="none" stroke-width="1"><path fill="#59DA55" stroke="#9397A7" stroke-opacity=".226" stroke-width="2" d="M 500,446 C 342,474 339,377 583,188 C 501,156 254,316 323,166 C 682,164 617,307 693,143 C 623,429 129,405 612,149 C 309,440 376,314 460,415 C 574,217 567,183 168,222 C 183,147 484,384 629,380 C 416,349 630,444 110,437 C 688,229 667,106 602,195 C 102,466 221,105 504,324 C 591,145 496,215 243,442 Z" opacity=".61" transform="rotate(59.0 400 300)"/><path fill="#5350DD" stroke="#722390" stroke-opacity=".631" stroke-width="4" d="M 135,174 C 698,275 496,255 642,153 C 380,229 602,471 296,369 C 668,362 378,209 464,465 C 421,427 214,110 606,319 C 238,379 241,134 120,325 C 443,172 322,154 328,153 C 577,362 350,283 614,294 C 257,328 426,427 443,171 Z" opacity=".35" transform="rotate(-58.0 400 300)"/><path fill="#061662" stroke="#6A9C28" stroke-opacity=".06" stroke-width="5" d="M 343,224 C 561,392 686,474 369,482 C 466,350 630,206 681,192 C 388,222 199,201 101,114 C 594,188 224,300 324,500 C 686,240 168,303 374,174 Z" opacity=".698" transform="rotate(-44.0 400 300)"/><path fill="#D29CC3" stroke="#0C5139" stroke-opacity=".662" stroke-width="2" d="M 666,440 C 647,154 444,187 574,165 C 485,394 543,247 480,431 C 113,414 128,400 694,414 C 189,418 606,183 179,302 Z" opacity=".433" transform="rotate(77.0 400 300)"/><path fill="#03031C" stroke="#165404" stroke-opacity=".766" stroke-width="1" d="M 419,120 C 675,256 519,149 348,196 C 253,356 464,355 154,428 C 667,160 219,423 356,107 C 355,487 438,285 458,489 C 289,404 334,397 377,217 C 297,389 183,144 350,235 C 494,163 511,263 215,380 C 369,463 319,282 635,322 C 305,401 483,171 636,332 C 274,346 412,392 372,106 Z" opacity=".508" transform="rotate(52.0 400 300)"/><path fill="#CB0DB2" stroke="#C69C8A" stroke-opacity=".006" stroke-width="7" d="M 176,432 C 586,142 577,250 227,150 C 639,308 219,321 445,335 C 456,477 134,222 618,280 C 237,279 503,256 332,428 C 560,362 216,405 195,220 C 490,468 549,171 602,374 C 463,469 236,381 509,319 C 657,166 112,428 227,390 C 127,480 490,268 452,250 Z" opacity=".524" transform="rotate(55.0 400 300)"/><path fill="#3D9A22" stroke="#CD1958" stroke-opacity=".94" stroke-width="7" d="M 478,393 C 329,303 390,328 327,283 C 581,269 667,120 600,164 C 211,138 315,445 390,356 C 369,343 389,308 266,313 C 506,111 596,391 332,172 C 454,203 318,395 430,109 C 660,350 332,444 639,302 C 660,418 427,497 688,174 Z" opacity=".021" transform="rotate(164.0 400 300)"/><path fill="#D5C844" stroke="#6AA567" stroke-opacity=".809" stroke-width="5" d="M 558,257 C 605,366 452,336 222,380 C 512,322 401,447 299,243 C 322,389 572,294 430,474 C 149,275 671,366 325,411 C 543,327 114,443 670,172 C 489,472 304,214 176,407 C 449,170 461,387 480,192 Z" opacity=".058" transform="rotate(58.0 400 300)"/><path fill="#BA3AD4" stroke="#D581BD" stroke-opacity=".172" stroke-width="1" d="M 435,384 C 431,440 553,163 573,268 C 308,485 445,239 440,133 C 589,401 552,361 617,194 C 304,189 384,214 671,288 C 438,374 478,369 431,332 C 472,500 388,228 655,325 C 676,108 657,173 106,160 Z" opacity=".987" transform="rotate(13.0 400 300)"/><path fill="#3B3367" stroke="#D2B141" stroke-opacity=".61" stroke-width="3" d="M 643,383 C 666,397 501,414 243,174 C 564,361 141,183 231,157 C 355,250 638,169 281,249 C 494,394 230,137 639,442 C 556,373 596,181 638,403 C 303,358 278,124 169,437 C 238,215 668,159 382,393 C 462,132 636,465 110,248 C 446,159 385,413 421,392 C 101,475 292,345 644,342 Z" opacity=".373" transform="rotate(7.0 400 300)"/></g></svg>