<svg xmlns="http://www.w3.org/2000/svg" xmlns:xlink="http://www.w3.org/1999/xlink" width="800" height="600" version="1.1" viewBox="0 0 800 600"><g fill="none" fill-rule="evenodd" stroke="none" stroke-width="1"><rect width="304" height="25" x="23" y="403" fill="#0fa6d8" stroke="#fe9225" stroke-opacity=".587" stroke-width="7" opacity=".832" transform="rotate(9.0 400 300)"/><polygon fill="#fe9225" stroke="#f559a0" stroke-opacity=".762" stroke-width="3" points="674 514 797 376 202 110 17 263 751 585 633 80 407 196 165 125" opacity=".683" transform="rotate(8.0 400 300)"/><rect width="33" height="372" x="190" y="474" fill="#fe9225" stroke="#02eb6b" stroke-opacity=".67" stroke-width="7" opacity=".128" transform="rotate(-85.0 400 300)"/><polygon fill="#2cd3f3" stroke="#2cd3f3" stroke-opacity=".963" stroke-width="7" points="656 351 549 321 456 15 246 88 195 369 331 193" opacity=".15" transform="rotate(-62.0 400 300)"/><polygon fill="#f559a0" stroke="#2cd3f3" stroke-opacity=".903" stroke-width="2" points="610 593 289 491 786 15 93 288 739 24" opacity=".872" transform="rotate(-116.0 400 300)"/><rect width="261" height="377" x="720" y="514" fill="#2cd3f3" stroke="#fe9225" stroke-opacity=".52" stroke-width="2" opacity=".579" transform="rotate(90.0 400 300)"/><rect width="112" height="230" x="157" y="292" fill="#0fa6d8" stroke="#fe9225" stroke-opacity=".682" stroke-width="6" opacity=".074" transform="rotate(-70.0 400 300)"/><rect width="357" height="110" x="494" y="291" fill="#0fa6d8" stroke="#02eb6b" stroke-opacity=".513" stroke-width="4" opacity=".582" transform="rotate(4.0 400 300)"/><path fill="#fe9225" stroke="#fe9225" stroke-opacity=".031" stroke-width="2" d="M 255,331 C 494,212 409,250 522,207 C 695,366 121,162 185,344 C 591,495 329,118 522,300 C 420,251 210,171 442,250 C 496,349 348,404 442,492 C 214,196 168,362 238,375 Z" opacity=".084" transform="rotate(107.0 400 300)"/><ellipse cx="245" cy="552" fill="#fe9225" stroke="#0fa6d8" stroke-opacity=".381" stroke-width="6" opacity=".307" rx="143" ry="99" transform="rotate(-76.0 400 300)"/><path fill="#fe9225" stroke="#0fa6d8" stroke-opacity=".201" stroke-width="7" d="M 451,459 C 594,495 213,327 674,437 C 525,476 320,285 460,456 C 601,202 615,477 369,321 C 572,313 254,462 267,301 C 685,198 171,488 686,347 C 291,241 639,380 510,111 C 490,420 229,195 439,498 C 204,180 332,431 559,408 C 172,482 603,189 569,451 C 426,321 672,173 570,322 C 650,329 690,322 500,112 Z" opacity=".383" transform="rotate(22.0 400 300)"/></g></svg>