<svg xmlns="http://www.w3.org/2000/svg" xmlns:xlink="http://www.w3.org/1999/xlink" width="800" height="600" version="1.1" viewBox="0 0 800 600"><g fill="none" fill-rule="evenodd" stroke="none" stroke-width="1"><path fill="#f559a0" stroke="#fe9225" stroke-opacity=".561" stroke-width="3" d="M 452,181 C 264,213 249,354 110,391 C 482,279 654,305 460,242 C 527,228 553,428 376,108 C 630,112 645,316 611,116 C 129,275 280,436 484,335 C 345,201 249,445 669,455 Z" opacity=".219" transform="rotate(129.0 400 300)"/><path fill="#fe9225" stroke="#02eb6b" stroke-opacity=".847" stroke-width="7" d="M 210,135 C 330,213 481,272 188,284 C 607,254 680,495 424,406 C 521,298 435,198 383,212 C 446,212 629,140 355,451 C 533,326 276,373 181,288 C 409,329 215,453 176,137 C 584,161 604,210 361,486 C 459,182 574,351 460,425 C 526,323 672,311 361,392 C 493,187 138,148 456,179 Z" opacity=".928" transform="rotate(13.0 400 300)"/><path fill="#fe9225" stroke="#02eb6b" stroke-opacity=".489" stroke-width="7" d="M 512,283 C 332,381 281,306 429,338 C 600,101 586,455 194,233 C 468,335 135,301 373,428 C 689,143 268,300 509,384 Z" opacity=".503" transform="rotate(-90.0 400 300)"/><path fill="#f559a0" stroke="#f559a0" stroke-opacity=".133" stroke-width="4" d="M 558,463 C 164,150 277,303 244,406 C 523,120 169,131 461,222 C 558,420 202,321 349,158 C 106,112 429,131 664,261 C 691,386 623,279 316,169 C 530,264 404,311 536,398 C 208,471 517,342 247,150 C 526,402 219,404 630,129 C 406,398 459,361 419,284 C 586,295 110,333 613,281 Z" opacity=".057" transform="rotate(-62.0 400 300)"/><path fill="#02eb6b" stroke="#2cd3f3" stroke-opacity=".026" stroke-width="1" d="M 475,279 C 118,490 508,294 431,422 C 603,286 664,209 277,289 C 648,299 572,149 543,136 C 420,468 696,356 123,475 C 526,109 333,295 239,203 C 228,138 233,280 697,114 C 407,268 302,312 416,268 C 446,421 556,274 465,397 C 245,118 366,116 449,461 C 454,327 304,161 201,494 Z" opacity=".168" transform="rotate(162.0 400 300)"/><path fill="#f559a0" stroke="#0fa6d8" stroke-opacity=".341" stroke-width="4" d="M 640,145 C 282,137 490,327 689,396 C 519,190 666,487 277,372 C 187,300 400,179 622,256 C 468,154 405,380 463,349 C 601,490 475,209 247,482 C 464,236 382,445 601,266 C 577,409 181,353 310,448 C 138,431 149,153 630,485 C 207,223 442,225 199,433 Z" opacity=".712" transform="rotate(21.0 400 300)"/><path fill="#fe9225" stroke="#0fa6d8" stroke-opacity=".693" stroke-width="4" d="M 659,136 C 423,147 531,264 137,386 C 558,165 646,499 677,144 C 297,230 606,490 202,197 C 534,263 112,306 316,209 Z" opacity=".335" transform="rotate(-172.0 400 300)"/><path fill="#02eb6b" stroke="#02eb6b" stroke-opacity=".237" stroke-width="2" d="M 307,359 C 545,313 466,306 268,459 C 587,454 599,273 535,243 C 101,161 405,318 433,427 C 101,118 452,493 177,143 C 153,125 450,294 321,391 C 410,115 567,275 347,208 C 349,180 287,173 314,364 C 572,477 309,431 569,127 C 683,306 436,347 658,120 C 107,308 146,446 437,487 Z" opacity=".588" transform="rotate(178.0 400 300)"/><path fill="#2cd3f3" stroke="#2cd3f3" stroke-opacity=".271" stroke-width="5" d="M 373,421 C 541,336 355,300 324,413 C 234,338 116,475 167,373 C 684,447 270,210 359,176 C 193,427 369,484 689,156 C 660,283 501,158 511,321 C 502,355 134,149 459,171 C 506,198 128,305 378,265 Z" opacity=".524" transform="rotate(106.0 400 300)"/><path fill="#fe9225" stroke="#fe9225" stroke-opacity=".004" stroke-width="4" d="M 436,265 C 351,383 563,330 511,360 C 374,210 624,286 342,385 C 238,208 697,187 454,212 C 215,227 236,419 280,277 C 380,344 572,268 635,212 C 612,162 117,210 143,480 C 417,442 443,252 597,132 C 177,221 513,336 326,121 C 258,292 349,271 410,446 C 416,106 670,253 311,230 C 700,353 576,222 547,309 Z" opacity=".757" transform="rotate(23.0 400 300)"/><path fill="#fe9225" stroke="#02eb6b" stroke-opacity=".392" stroke-width="7" d="M 610,297 C 209,181 514,165 684,499 C 654,468 466,103 303,222 C 340,241 305,121 634,379 C 423,138 233,392 543,375 C 417,277 500,202 171,429 C 527,299 479,248 506,432 C 528,306 103,263 405,439 C 278,246 414,351 444,155 C 127,120 292,303 301,235 C 443,305 209,319 423,291 C 320,375 413,486 368,281 Z" opacity=".445" transform="rotate(-39.0 400 300)"/></g></svg>