<?xml version="1.0" encoding="UTF-8"?>
<svg width="800px" height="600px" viewBox="0 0 800 600" version="1.1" xmlns="http://www.w3.org/2000/svg" xmlns:xlink="http://www.w3.org/1999/xlink">
  <defs></defs>
  <g stroke="none" stroke-width="1" fill="none" fill-rule="evenodd">
    
    <path stroke="#0fa6d8" stroke-width="3" fill="#f559a0" opacity="0.724117262560818" stroke-opacity="0.7096542329876872" transform="rotate(-22.0 400 300)" d="M 502,274  C 591,277 268,205 345,202 C 390,225 365,264 231,378 C 315,236 458,343 521,109 C 673,260 136,199 217,158 Z"></path>
<path stroke="#0fa6d8" stroke-width="4" fill="#0fa6d8" opacity="0.8903586733999093" stroke-opacity="0.395918588832998" transform="rotate(-13.0 400 300)" d="M 476,425  C 469,322 446,424 410,140 C 440,293 329,287 465,306 C 530,244 474,326 369,435 C 164,331 515,115 155,396 C 238,205 663,429 413,153 C 627,267 374,238 299,371 C 518,486 547,399 169,285 C 152,193 103,215 382,226 C 121,377 427,347 634,157 C 614,190 524,288 380,323 C 101,360 410,333 243,426 Z"></path>
<path stroke="#fe9225" stroke-width="2" fill="#2cd3f3" opacity="0.3347138463969764" stroke-opacity="0.8893263140174587" transform="rotate(-139.0 400 300)" d="M 281,429  C 694,283 606,103 616,484 C 544,224 614,309 656,301 C 488,364 190,273 500,166 C 609,366 224,281 599,201 C 668,177 684,283 232,307 C 129,178 626,283 117,315 C 567,475 442,141 216,498 C 405,120 633,114 666,292 C 115,175 407,246 524,291 Z"></path>
<path stroke="#2cd3f3" stroke-width="1" fill="#f559a0" opacity="0.9764058022813429" stroke-opacity="0.8964896579005919" transform="rotate(-114.0 400 300)" d="M 642,439  C 195,125 536,197 237,119 C 435,256 690,181 359,283 C 511,353 301,240 234,238 C 557,195 540,198 290,253 C 437,179 208,111 373,253 C 664,214 676,278 183,313 C 537,430 513,450 326,210 Z"></path>
<path stroke="#f559a0" stroke-width="6" fill="#0fa6d8" opacity="0.7668558823828774" stroke-opacity="0.5334525997320766" transform="rotate(-148.0 400 300)" d="M 196,428  C 304,338 236,176 241,195 C 420,242 144,130 661,367 C 528,477 503,224 483,274 C 580,339 517,188 464,346 C 197,420 319,379 678,264 C 182,291 187,109 634,463 C 487,497 153,414 670,306 C 187,207 423,414 319,259 C 106,306 212,421 546,277 C 135,268 178,152 324,416 C 491,308 567,369 621,297 Z"></path>
<path stroke="#fe9225" stroke-width="5" fill="#0fa6d8" opacity="0.07040176771813036" stroke-opacity="0.33831375319645046" transform="rotate(128.0 400 300)" d="M 592,419  C 224,218 232,406 531,446 C 194,443 395,460 593,145 C 129,451 671,447 260,247 C 633,243 494,386 124,167 C 294,230 225,251 610,181 C 469,172 340,115 342,337 Z"></path>

  </g>
</svg>
