<?xml version="1.0" encoding="UTF-8"?>
<svg width="800px" height="600px" viewBox="0 0 800 600" version="1.1" xmlns="http://www.w3.org/2000/svg" xmlns:xlink="http://www.w3.org/1999/xlink">
  <defs></defs>
  <g stroke="none" stroke-width="1" fill="none" fill-rule="evenodd">
    
    <path stroke="#D231C4" stroke-width="5" fill="#61B25C" opacity="0.09654192754604472" stroke-opacity="0.09885279015994766" transform="rotate(-77.0 400 300)" d="M 616,254  C 205,306 122,116 495,342 C 440,259 252,285 487,293 C 628,135 162,101 386,252 C 101,484 164,456 494,357 C 503,393 600,370 636,208 C 417,323 606,104 344,203 C 561,191 571,416 217,376 Z"></path>
<path stroke="#0D2261" stroke-width="3" fill="#B83C9C" opacity="0.23198175008693664" stroke-opacity="0.6617382189000456" transform="rotate(25.0 400 300)" d="M 351,233  C 108,435 588,325 144,462 C 597,462 417,436 690,182 C 422,420 521,232 119,232 C 223,152 441,176 136,147 C 481,262 227,325 524,440 C 108,316 175,462 658,312 Z"></path>
<path stroke="#A0D60D" stroke-width="3" fill="#6B7696" opacity="0.047422416678908785" stroke-opacity="0.6609334076954051" transform="rotate(2.0 400 300)" d="M 615,263  C 378,369 109,273 459,315 C 372,361 353,373 445,459 C 554,164 322,288 201,217 C 472,117 259,464 329,351 C 569,375 195,327 348,431 C 121,290 671,211 658,251 C 276,270 629,219 439,381 C 473,432 528,190 319,295 C 239,408 332,497 300,300 C 404,408 174,329 294,156 C 605,494 258,148 398,237 Z"></path>
<path stroke="#416C64" stroke-width="2" fill="#27AD18" opacity="0.7073473981377985" stroke-opacity="0.48260133295251934" transform="rotate(-73.0 400 300)" d="M 304,295  C 372,493 563,205 692,483 C 394,378 465,315 562,167 C 458,178 267,277 659,385 C 687,158 273,189 114,273 C 520,279 360,418 585,492 C 448,306 136,256 388,258 C 617,130 158,487 489,395 Z"></path>
<path stroke="#0D1997" stroke-width="6" fill="#451B98" opacity="0.6225963804185196" stroke-opacity="0.6903074458814277" transform="rotate(98.0 400 300)" d="M 651,256  C 284,198 311,379 654,295 C 235,330 104,243 552,498 C 633,380 358,237 308,365 C 519,419 435,488 519,415 C 530,112 626,287 451,131 C 615,165 386,177 659,109 C 115,199 572,247 211,139 Z"></path>
<path stroke="#64B27C" stroke-width="4" fill="#175079" opacity="0.5171833631243662" stroke-opacity="0.675802096197316" transform="rotate(-73.0 400 300)" d="M 302,379  C 342,244 159,205 192,220 C 314,478 604,234 207,433 C 305,183 282,144 160,245 C 181,460 422,428 451,205 Z"></path>
<path stroke="#DA4174" stroke-width="3" fill="#95057C" opacity="0.3548736432065239" stroke-opacity="0.2228098205001092" transform="rotate(28.0 400 300)" d="M 274,174  C 324,125 257,453 231,448 C 166,382 686,400 171,486 C 368,180 119,322 485,488 C 482,263 397,138 617,395 C 479,309 492,144 143,373 C 231,435 111,309 363,137 C 552,294 521,251 148,441 C 618,123 347,299 309,312 Z"></path>
<path stroke="#A2B308" stroke-width="7" fill="#0D3D10" opacity="0.15209331492490516" stroke-opacity="0.15506095198893644" transform="rotate(-154.0 400 300)" d="M 499,329  C 142,403 446,347 422,276 C 568,206 686,331 612,136 C 662,338 683,256 534,203 C 658,490 535,187 644,373 C 191,278 384,444 101,355 C 346,249 391,467 372,418 C 409,413 125,330 675,446 C 128,131 352,362 287,158 C 682,106 127,180 594,261 Z"></path>
<path stroke="#C20266" stroke-width="2" fill="#48AAD3" opacity="0.729506606508028" stroke-opacity="0.986367183824387" transform="rotate(155.0 400 300)" d="M 692,161  C 122,416 549,388 599,435 C 287,410 476,376 410,268 C 479,354 184,149 559,128 C 162,115 289,493 470,468 C 306,119 239,321 413,128 C 281,267 187,418 304,481 C 397,443 202,405 418,153 C 369,135 223,332 659,400 C 118,126 149,315 528,351 Z"></path>
<path stroke="#726011" stroke-width="1" fill="#267062" opacity="0.26275113956117324" stroke-opacity="0.8138936190786037" transform="rotate(118.0 400 300)" d="M 217,242  C 324,326 382,152 484,427 C 434,267 516,155 186,342 C 649,261 129,138 499,252 C 697,451 196,330 344,425 C 463,440 282,294 459,189 C 357,240 457,355 319,284 C 127,380 295,138 316,412 C 499,227 678,489 568,214 Z"></path>
<path stroke="#149A18" stroke-width="3" fill="#174290" opacity="0.6817605535199243" stroke-opacity="0.6399743520744987" transform="rotate(99.0 400 300)" d="M 631,459  C 216,162 280,223 266,395 C 514,106 222,310 490,276 C 416,129 269,460 459,116 C 267,179 280,311 516,114 C 683,421 571,422 658,304 C 171,373 616,376 664,184 C 204,459 164,345 438,235 Z"></path>

  </g>
</svg>
