<svg xmlns="http://www.w3.org/2000/svg" xmlns:xlink="http://www.w3.org/1999/xlink" width="800" height="600" version="1.1" viewBox="0 0 800 600"><g fill="none" fill-rule="evenodd" stroke="none" stroke-width="1"><path fill="#f27630" stroke="#f9d84b" stroke-opacity=".27" stroke-width="5" d="M 307,478 C 679,496 631,119 636,342 C 684,230 560,344 428,412 C 359,457 190,341 538,178 C 664,404 267,435 697,473 C 641,416 233,448 548,372 C 483,195 689,147 669,404 C 430,375 442,445 357,259 C 380,132 550,379 440,103 Z" opacity=".274" transform="rotate(-60.0 400 300)"/><path fill="#31a06b" stroke="#f27630" stroke-opacity=".985" stroke-width="6" d="M 312,336 C 311,234 228,207 466,322 C 601,315 384,129 567,160 C 322,144 398,113 235,194 C 698,293 595,475 305,243 C 655,372 448,431 613,411 C 244,278 417,210 383,139 C 673,169 343,277 375,199 Z" opacity=".458" transform="rotate(156.0 400 300)"/><path fill="#f27630" stroke="#ed2b2c" stroke-opacity=".498" stroke-width="1" d="M 338,199 C 260,493 113,173 444,303 C 139,274 317,292 657,430 C 598,180 547,463 296,382 C 431,189 302,199 185,209 C 362,102 460,352 444,420 Z" opacity=".238" transform="rotate(165.0 400 300)"/><path fill="#f9d84b" stroke="#2b55f7" stroke-opacity=".101" stroke-width="4" d="M 639,441 C 514,167 348,417 367,310 C 333,158 454,158 262,232 C 613,493 425,101 117,354 C 568,196 354,126 582,416 C 637,275 388,224 539,353 C 652,204 296,268 328,236 C 390,490 306,424 568,268 Z" opacity=".068" transform="rotate(-118.0 400 300)"/><path fill="#f27630" stroke="#ed2b2c" stroke-opacity=".675" stroke-width="2" d="M 678,489 C 170,268 479,175 320,484 C 607,328 462,297 382,149 C 295,132 536,392 296,234 C 619,493 384,240 250,187 C 350,390 145,353 598,299 C 180,306 259,211 671,492 C 466,477 435,170 105,176 C 381,486 119,276 310,500 Z" opacity=".466" transform="rotate(-77.0 400 300)"/><path fill="#f9d84b" stroke="#f27630" stroke-opacity=".392" stroke-width="1" d="M 282,189 C 495,139 160,324 522,341 C 165,200 197,253 242,241 C 349,334 369,269 691,147 C 536,477 139,261 120,483 Z" opacity=".499" transform="rotate(37.0 400 300)"/><path fill="#f9d84b" stroke="#f9d84b" stroke-opacity=".318" stroke-width="2" d="M 357,238 C 619,342 417,426 186,190 C 605,328 543,178 124,411 C 430,476 511,335 573,387 C 541,109 495,499 442,161 C 282,215 678,410 221,180 C 495,173 434,496 196,170 C 142,457 687,338 579,187 C 481,413 218,150 468,165 Z" opacity=".246" transform="rotate(60.0 400 300)"/></g></svg>