<?xml version="1.0" encoding="UTF-8"?>
<svg width="800px" height="600px" viewBox="0 0 800 600" version="1.1" xmlns="http://www.w3.org/2000/svg" xmlns:xlink="http://www.w3.org/1999/xlink">
  <defs></defs>
  <g stroke="none" stroke-width="1" fill="none" fill-rule="evenodd">
    
    <path stroke="#41A9D1" stroke-width="1" fill="#3A94A3" opacity="0.9438258584634726" stroke-opacity="0.7688626049897669" transform="rotate(10.0 400 300)" d="M 358,262  C 314,197 186,216 311,166 C 113,175 602,479 438,150 C 184,406 174,174 355,407 C 333,452 185,429 306,396 C 445,311 352,133 350,457 C 535,321 209,176 399,180 C 606,435 431,246 550,283 C 258,473 300,304 165,151 C 349,480 546,142 247,383 Z"></path>
<path stroke="#53604D" stroke-width="4" fill="#2C6717" opacity="0.13523071471266288" stroke-opacity="0.4100274346838531" transform="rotate(9.0 400 300)" d="M 259,441  C 350,371 482,350 580,430 C 441,362 643,107 691,438 C 146,299 243,230 648,227 C 475,471 528,455 607,496 C 331,224 662,352 555,129 C 332,243 276,274 373,381 C 433,471 236,188 418,346 Z"></path>
<path stroke="#846428" stroke-width="1" fill="#940916" opacity="0.9946633660935006" stroke-opacity="0.16232697841646032" transform="rotate(-96.0 400 300)" d="M 207,305  C 577,248 207,377 487,466 C 318,472 548,406 164,358 C 196,464 665,209 241,317 C 236,155 644,176 372,154 C 169,234 339,365 380,475 C 304,442 329,333 221,496 Z"></path>
<path stroke="#51A0D4" stroke-width="2" fill="#D90447" opacity="0.08073181604623397" stroke-opacity="0.14742394681733187" transform="rotate(59.0 400 300)" d="M 384,222  C 412,125 618,327 151,117 C 570,161 447,288 190,157 C 353,420 145,484 622,124 C 173,290 610,499 223,237 C 251,136 610,167 222,404 C 524,155 197,413 329,403 C 665,378 401,398 346,305 C 642,488 466,176 293,204 C 118,340 450,166 574,285 Z"></path>
<path stroke="#DD373A" stroke-width="1" fill="#40428D" opacity="0.07506685698593579" stroke-opacity="0.7456584293462875" transform="rotate(-42.0 400 300)" d="M 142,111  C 609,316 662,470 430,213 C 416,423 169,284 161,232 C 554,288 595,104 667,297 C 150,414 480,354 189,324 C 461,345 397,102 459,184 C 120,378 516,468 244,147 Z"></path>
<path stroke="#6C6A61" stroke-width="7" fill="#B2A5CD" opacity="0.5321182883899311" stroke-opacity="0.4547465320183088" transform="rotate(-63.0 400 300)" d="M 338,285  C 155,363 162,296 113,272 C 336,378 197,447 596,180 C 643,275 548,422 219,207 C 609,296 278,443 665,289 C 246,464 682,460 583,376 C 439,419 357,448 293,108 Z"></path>
<path stroke="#650912" stroke-width="2" fill="#00D031" opacity="0.07562274306686234" stroke-opacity="0.47500733537386924" transform="rotate(-31.0 400 300)" d="M 248,461  C 598,404 116,421 373,327 C 396,419 510,135 608,241 C 634,462 482,291 244,459 C 406,197 185,478 605,392 C 611,445 427,234 189,299 C 338,331 530,487 538,382 C 159,491 360,312 507,225 C 439,233 536,490 521,410 C 182,129 244,163 484,337 C 505,263 228,451 323,251 C 673,144 468,324 270,334 Z"></path>
<path stroke="#4C2087" stroke-width="5" fill="#35B3BA" opacity="0.6076054975623092" stroke-opacity="0.7713627951330392" transform="rotate(-22.0 400 300)" d="M 223,341  C 209,297 146,159 640,368 C 514,281 370,103 125,424 C 217,143 619,195 209,375 C 382,430 138,115 564,275 C 430,251 539,375 335,348 C 680,418 143,389 525,148 C 288,163 317,190 696,428 Z"></path>
<path stroke="#418D19" stroke-width="1" fill="#A45471" opacity="0.43920233113904883" stroke-opacity="0.3738637084881485" transform="rotate(105.0 400 300)" d="M 543,239  C 230,168 447,414 373,227 C 671,488 133,106 506,392 C 317,168 657,334 199,307 C 145,494 140,423 475,390 C 253,482 612,376 447,319 C 609,127 389,457 357,332 C 447,383 420,246 103,311 C 623,124 571,446 572,141 C 554,377 697,435 153,438 C 265,296 593,104 533,148 C 422,373 627,308 540,125 Z"></path>
<path stroke="#CCD8A6" stroke-width="4" fill="#9749B7" opacity="0.22989343048112398" stroke-opacity="0.6970193950802127" transform="rotate(-6.0 400 300)" d="M 191,246  C 437,267 670,388 353,227 C 639,388 111,417 462,159 C 428,146 308,220 216,447 C 399,462 348,473 281,149 C 595,431 105,210 152,370 C 544,266 382,416 634,153 C 673,434 185,305 445,236 C 544,402 654,140 466,441 C 656,276 514,418 466,334 C 218,436 565,231 588,193 Z"></path>
<path stroke="#171478" stroke-width="4" fill="#32CB81" opacity="0.29781086415822616" stroke-opacity="0.32580995939325047" transform="rotate(-131.0 400 300)" d="M 276,296  C 272,393 532,274 162,354 C 383,339 676,331 276,417 C 158,104 520,459 149,103 C 274,140 261,494 393,292 C 421,253 442,178 147,451 Z"></path>

  </g>
</svg>
