<?xml version="1.0" encoding="UTF-8"?>
<svg width="800px" height="600px" viewBox="0 0 800 600" version="1.1" xmlns="http://www.w3.org/2000/svg" xmlns:xlink="http://www.w3.org/1999/xlink">
  <defs></defs>
  <g stroke="none" stroke-width="1" fill="none" fill-rule="evenodd">
    
    <path stroke="#f9d84b" stroke-width="3" fill="#f27630" opacity="0.3997868233883014" stroke-opacity="0.6942718511200012" transform="rotate(-7.0 400 300)" d="M 334,310  C 236,135 122,480 640,240 C 441,494 467,428 523,470 C 698,440 587,459 245,469 C 406,268 588,274 624,286 Z"></path>
<path stroke="#2b55f7" stroke-width="1" fill="#ed2b2c" opacity="0.5090400112270996" stroke-opacity="0.3996997732177989" transform="rotate(110.0 400 300)" d="M 318,351  C 314,147 462,437 266,152 C 581,290 419,350 536,222 C 493,489 559,339 155,272 C 247,144 183,467 517,369 C 179,417 325,295 200,390 C 408,262 224,256 302,202 C 553,368 585,251 487,436 C 284,273 150,123 526,259 C 201,119 348,270 509,124 C 690,239 126,128 213,297 C 468,157 357,181 287,340 Z"></path>
<path stroke="#ed2b2c" stroke-width="4" fill="#2b55f7" opacity="0.10664495974728111" stroke-opacity="0.8419813975154695" transform="rotate(173.0 400 300)" d="M 654,354  C 316,226 388,129 268,278 C 667,488 417,222 550,219 C 102,499 540,376 618,264 C 300,260 240,282 673,112 C 435,263 362,414 320,159 C 438,405 369,264 250,448 C 172,290 167,214 154,288 C 335,485 482,270 680,470 C 335,214 218,150 553,391 C 315,418 303,365 201,349 C 587,471 574,387 457,421 Z"></path>
<path stroke="#f9d84b" stroke-width="1" fill="#ed2b2c" opacity="0.9438186188882715" stroke-opacity="0.770075263411526" transform="rotate(95.0 400 300)" d="M 581,116  C 314,125 302,305 245,491 C 558,491 470,471 470,367 C 208,287 220,379 618,129 C 262,169 332,362 288,306 C 408,334 583,445 599,161 C 427,444 243,181 174,463 C 217,445 354,328 176,210 C 696,196 496,473 384,290 C 298,391 105,406 324,157 C 622,112 625,174 371,370 Z"></path>
<path stroke="#f9d84b" stroke-width="5" fill="#f9d84b" opacity="0.9934736032350094" stroke-opacity="0.5256791778254096" transform="rotate(136.0 400 300)" d="M 535,275  C 207,173 217,309 618,160 C 661,400 642,123 156,167 C 636,296 145,200 182,425 C 531,296 181,287 340,461 C 271,258 552,454 432,104 C 274,235 662,411 660,131 C 143,288 589,387 689,335 C 473,483 394,322 516,361 Z"></path>
<path stroke="#f27630" stroke-width="3" fill="#ed2b2c" opacity="0.7845222073645371" stroke-opacity="0.8884160808405416" transform="rotate(87.0 400 300)" d="M 693,375  C 637,230 649,417 669,304 C 177,155 411,358 177,344 C 547,346 183,410 410,374 C 505,235 320,134 306,108 C 206,225 533,437 280,448 C 407,410 219,139 343,414 C 672,480 487,198 560,234 C 459,499 454,433 647,341 C 520,299 213,168 518,174 Z"></path>
<path stroke="#f9d84b" stroke-width="4" fill="#f9d84b" opacity="0.789454242230353" stroke-opacity="0.6177457167294065" transform="rotate(37.0 400 300)" d="M 204,108  C 213,322 578,202 407,207 C 452,371 207,265 639,265 C 578,146 408,367 698,177 C 270,423 138,439 602,358 C 510,214 566,288 164,187 C 443,279 688,491 144,233 C 694,395 279,119 317,192 C 600,343 440,169 311,175 C 332,320 268,401 604,144 C 680,380 684,292 199,192 Z"></path>
<path stroke="#ed2b2c" stroke-width="3" fill="#f27630" opacity="0.4167904029078671" stroke-opacity="0.8188846932353638" transform="rotate(-66.0 400 300)" d="M 197,495  C 406,212 623,136 243,258 C 321,305 172,328 538,413 C 258,438 309,448 467,331 C 432,238 463,166 448,369 C 692,164 610,381 680,256 C 429,224 216,141 273,445 C 284,160 436,488 283,333 C 205,374 194,483 200,265 C 674,184 272,461 286,403 C 169,327 374,113 259,358 C 227,411 194,185 140,156 Z"></path>
<path stroke="#31a06b" stroke-width="3" fill="#f27630" opacity="0.7277905407599071" stroke-opacity="0.7566221354093304" transform="rotate(-96.0 400 300)" d="M 194,356  C 227,219 228,208 146,486 C 574,353 577,454 122,270 C 561,226 419,229 378,396 C 645,105 456,387 525,250 C 298,212 626,186 216,251 C 602,397 255,231 566,490 C 262,295 612,446 349,315 C 284,360 550,269 512,200 C 459,346 568,121 597,340 C 363,225 171,198 274,451 Z"></path>

  </g>
</svg>
