<svg xmlns="http://www.w3.org/2000/svg" xmlns:xlink="http://www.w3.org/1999/xlink" width="800" height="600" version="1.1" viewBox="0 0 800 600"><g fill="none" fill-rule="evenodd" stroke="none" stroke-width="1"><path fill="#f9d84b" stroke="#f9d84b" stroke-opacity=".534" stroke-width="3" d="M 548,375 C 331,122 553,382 696,220 C 694,368 700,411 108,365 C 166,277 489,252 172,219 C 628,261 604,393 289,299 C 432,134 354,289 383,431 C 664,299 212,274 192,423 C 337,200 537,494 288,201 C 382,473 465,221 625,106 C 104,235 146,321 237,333 C 553,345 168,271 623,458 C 520,247 389,466 648,379 Z" opacity=".119" transform="rotate(-144.0 400 300)"/><path fill="#f27630" stroke="#31a06b" stroke-opacity=".351" stroke-width="7" d="M 118,173 C 270,140 148,133 120,342 C 548,322 299,324 268,226 C 594,471 265,234 276,218 C 129,119 247,158 448,122 C 182,352 602,388 156,420 C 339,199 205,383 395,393 C 441,227 312,414 461,135 C 677,485 335,337 597,146 C 563,211 367,342 624,267 C 150,446 477,324 412,494 C 688,155 627,227 478,451 Z" opacity=".279" transform="rotate(124.0 400 300)"/><path fill="#ed2b2c" stroke="#f9d84b" stroke-opacity=".647" stroke-width="1" d="M 479,103 C 362,480 688,407 699,158 C 441,431 487,321 208,261 C 282,170 154,118 677,486 C 525,108 292,232 527,356 C 598,484 418,162 241,434 C 165,228 346,142 516,272 Z" opacity=".93" transform="rotate(-174.0 400 300)"/><path fill="#ed2b2c" stroke="#2b55f7" stroke-opacity=".979" stroke-width="7" d="M 591,382 C 666,121 308,446 527,438 C 401,327 580,438 648,494 C 574,493 576,341 217,438 C 623,318 358,356 679,349 Z" opacity=".478" transform="rotate(107.0 400 300)"/><path fill="#f9d84b" stroke="#31a06b" stroke-opacity=".774" stroke-width="4" d="M 205,471 C 362,159 393,217 452,204 C 578,223 512,480 561,168 C 480,127 610,175 158,141 C 549,269 381,324 421,394 C 445,255 513,153 631,124 C 491,399 570,233 320,153 C 465,433 568,116 494,348 C 649,400 415,192 168,453 C 125,403 356,205 314,500 Z" opacity=".002" transform="rotate(149.0 400 300)"/><path fill="#f9d84b" stroke="#f27630" stroke-opacity=".777" stroke-width="7" d="M 339,346 C 315,482 122,142 185,299 C 690,365 556,192 106,392 C 286,303 381,160 229,423 C 232,484 523,368 543,473 C 411,175 621,296 483,336 C 257,366 334,122 541,468 Z" opacity=".682" transform="rotate(48.0 400 300)"/><path fill="#f9d84b" stroke="#2b55f7" stroke-opacity=".873" stroke-width="6" d="M 444,217 C 218,359 390,485 505,203 C 417,396 465,292 521,459 C 167,182 561,287 212,496 C 344,235 443,277 391,186 C 673,466 565,267 278,413 C 468,114 700,260 461,143 C 165,284 434,395 540,500 C 482,189 677,439 362,155 C 460,384 496,157 171,196 C 452,400 119,187 343,348 Z" opacity=".48" transform="rotate(-113.0 400 300)"/></g></svg>