<svg xmlns="http://www.w3.org/2000/svg" xmlns:xlink="http://www.w3.org/1999/xlink" width="800" height="600" version="1.1" viewBox="0 0 800 600"><g fill="none" fill-rule="evenodd" stroke="none" stroke-width="1"><rect width="77" height="259" x="25" y="149" fill="#135C24" stroke="#4024DA" stroke-opacity=".104" stroke-width="1" opacity=".293" transform="rotate(-37.0 400 300)"/><path fill="#8D3694" stroke="#2C4A56" stroke-opacity=".547" stroke-width="5" d="M 447,468 C 619,207 507,225 583,291 C 535,169 219,477 637,412 C 580,429 694,149 653,469 C 532,477 286,468 179,310 C 312,445 245,422 241,439 C 462,488 436,445 686,251 Z" opacity=".356" transform="rotate(67.0 400 300)"/><path fill="#122C14" stroke="#ACDD2B" stroke-opacity=".491" stroke-width="6" d="M 591,137 C 298,235 284,368 595,299 C 427,112 603,132 433,246 C 182,206 417,220 243,380 C 261,105 695,484 105,393 C 109,161 154,299 267,378 C 241,462 503,224 387,325 C 571,236 251,386 131,107 C 349,277 556,203 389,355 Z" opacity=".008" transform="rotate(103.0 400 300)"/><path fill="#A499A9" stroke="#2B319B" stroke-opacity=".467" stroke-width="4" d="M 493,117 C 495,323 288,309 489,480 C 390,380 494,206 200,220 C 457,163 472,395 109,337 C 545,192 389,165 643,394 Z" opacity=".246" transform="rotate(-142.0 400 300)"/><ellipse cx="554" cy="249" fill="#080088" stroke="#802473" stroke-opacity=".93" stroke-width="3" opacity=".396" rx="142" ry="97" transform="rotate(139.0 400 300)"/><polygon fill="#338941" stroke="#86CA18" stroke-opacity=".411" stroke-width="6" points="285 566 517 313 581 274 796 294 506 4 408 145 649 14 722 560" opacity=".158" transform="rotate(-147.0 400 300)"/><ellipse cx="50" cy="521" fill="#542361" stroke="#246522" stroke-opacity=".635" stroke-width="2" opacity=".211" rx="395" ry="44" transform="rotate(133.0 400 300)"/><ellipse cx="362" cy="395" fill="#A53061" stroke="#1D42A4" stroke-opacity=".298" stroke-width="1" opacity=".046" rx="192" ry="245" transform="rotate(168.0 400 300)"/><polygon fill="#838B49" stroke="#107B0B" stroke-opacity=".425" stroke-width="1" points="701 85 282 19 41 545 666 399 97 241 474 54" opacity="0" transform="rotate(-139.0 400 300)"/><rect width="327" height="86" x="21" y="131" fill="#29C423" stroke="#2BC754" stroke-opacity=".428" stroke-width="1" opacity=".116" transform="rotate(0.0 400 300)"/><polygon fill="#C114D9" stroke="#257733" stroke-opacity=".556" stroke-width="6" points="511 111 160 211 187 343 333 73 504 436 444 84" opacity=".976" transform="rotate(39.0 400 300)"/></g></svg>