<?xml version="1.0" encoding="UTF-8"?>
<svg width="800px" height="600px" viewBox="0 0 800 600" version="1.1" xmlns="http://www.w3.org/2000/svg" xmlns:xlink="http://www.w3.org/1999/xlink">
  <defs></defs>
  <g stroke="none" stroke-width="1" fill="none" fill-rule="evenodd">
    
    <rect stroke="#4024DA" stroke-width="1" fill="#135C24" opacity="0.2932611141976362" stroke-opacity="0.1037181097060626" transform="rotate(-37.0 400 300)" x="25" y="149" width="77" height="259"></rect>
<path stroke="#2C4A56" stroke-width="5" fill="#8D3694" opacity="0.35643695263080044" stroke-opacity="0.5473637132127901" transform="rotate(67.0 400 300)" d="M 447,468  C 619,207 507,225 583,291 C 535,169 219,477 637,412 C 580,429 694,149 653,469 C 532,477 286,468 179,310 C 312,445 245,422 241,439 C 462,488 436,445 686,251 Z"></path>
<path stroke="#ACDD2B" stroke-width="6" fill="#122C14" opacity="0.007841994935479974" stroke-opacity="0.49105069338458923" transform="rotate(103.0 400 300)" d="M 591,137  C 298,235 284,368 595,299 C 427,112 603,132 433,246 C 182,206 417,220 243,380 C 261,105 695,484 105,393 C 109,161 154,299 267,378 C 241,462 503,224 387,325 C 571,236 251,386 131,107 C 349,277 556,203 389,355 Z"></path>
<path stroke="#2B319B" stroke-width="4" fill="#A499A9" opacity="0.2455222258861567" stroke-opacity="0.4665246850183574" transform="rotate(-142.0 400 300)" d="M 493,117  C 495,323 288,309 489,480 C 390,380 494,206 200,220 C 457,163 472,395 109,337 C 545,192 389,165 643,394 Z"></path>
<ellipse stroke="#802473" stroke-width="3" fill="#080088" opacity="0.39588673943113706" stroke-opacity="0.9299867289428597" transform="rotate(139.0 400 300)" cx="554" rx="142" cy="249" ry="97"></ellipse>
<polygon stroke="#86CA18" stroke-width="6" fill="#338941" opacity="0.15760363075955852" stroke-opacity="0.41066206755142903" transform="rotate(-147.0 400 300)" points="285 566 517 313 581 274 796 294 506 4 408 145 649 14 722 560 "></polygon>
<ellipse stroke="#246522" stroke-width="2" fill="#542361" opacity="0.21072868066744604" stroke-opacity="0.6352966595695896" transform="rotate(133.0 400 300)" cx="50" rx="395" cy="521" ry="44"></ellipse>
<ellipse stroke="#1D42A4" stroke-width="1" fill="#A53061" opacity="0.04646328800558599" stroke-opacity="0.29847535177340967" transform="rotate(168.0 400 300)" cx="362" rx="192" cy="395" ry="245"></ellipse>
<polygon stroke="#107B0B" stroke-width="1" fill="#838B49" opacity="2.9055911142652374e-05" stroke-opacity="0.4252747023906402" transform="rotate(-139.0 400 300)" points="701 85 282 19 41 545 666 399 97 241 474 54 "></polygon>
<rect stroke="#2BC754" stroke-width="1" fill="#29C423" opacity="0.115598185251894" stroke-opacity="0.4279294143590202" transform="rotate(0.0 400 300)" x="21" y="131" width="327" height="86"></rect>
<polygon stroke="#257733" stroke-width="6" fill="#C114D9" opacity="0.9760810413406055" stroke-opacity="0.5564610089046763" transform="rotate(39.0 400 300)" points="511 111 160 211 187 343 333 73 504 436 444 84 "></polygon>

  </g>
</svg>
