<svg xmlns="http://www.w3.org/2000/svg" xmlns:xlink="http://www.w3.org/1999/xlink" width="800" height="600" version="1.1" viewBox="0 0 800 600"><g fill="none" fill-rule="evenodd" stroke="none" stroke-width="1"><ellipse cx="459" cy="257" fill="#f9d84b" stroke="#31a06b" stroke-opacity=".551" stroke-width="1" opacity=".043" rx="126" ry="161" transform="rotate(156.0 400 300)"/><ellipse cx="264" cy="261" fill="#f27630" stroke="#31a06b" stroke-opacity=".487" stroke-width="6" opacity=".995" rx="199" ry="301" transform="rotate(-14.0 400 300)"/><polygon fill="#f9d84b" stroke="#f27630" stroke-opacity=".604" stroke-width="1" points="182 43 437 443 141 491 119 451 648 95" opacity=".593" transform="rotate(-56.0 400 300)"/><polygon fill="#f27630" stroke="#2b55f7" stroke-opacity=".384" stroke-width="5" points="136 232 210 379 618 137 634 156 736 288 77 469 307 152" opacity=".278" transform="rotate(171.0 400 300)"/><rect width="317" height="339" x="79" y="586" fill="#2b55f7" stroke="#f27630" stroke-opacity=".594" stroke-width="1" opacity=".945" transform="rotate(-160.0 400 300)"/><path fill="#f27630" stroke="#31a06b" stroke-opacity=".25" stroke-width="2" d="M 409,330 C 286,345 661,456 268,335 C 135,443 402,254 437,433 C 374,143 401,446 161,181 C 250,151 517,107 255,114 C 483,111 467,409 291,202 C 464,198 111,205 539,357 C 427,419 207,235 525,287 C 571,176 620,345 246,365 Z" opacity=".756" transform="rotate(-141.0 400 300)"/><ellipse cx="267" cy="385" fill="#31a06b" stroke="#f27630" stroke-opacity=".732" stroke-width="6" opacity=".833" rx="95" ry="57" transform="rotate(-2.0 400 300)"/></g></svg>