<?xml version="1.0" encoding="UTF-8"?>
<svg width="800px" height="600px" viewBox="0 0 800 600" version="1.1" xmlns="http://www.w3.org/2000/svg" xmlns:xlink="http://www.w3.org/1999/xlink">
  <defs></defs>
  <g stroke="none" stroke-width="1" fill="none" fill-rule="evenodd">
    
    <ellipse stroke="#31a06b" stroke-width="1" fill="#f9d84b" opacity="0.0427351662670911" stroke-opacity="0.5514945463587294" transform="rotate(156.0 400 300)" cx="459" rx="126" cy="257" ry="161"></ellipse>
<ellipse stroke="#31a06b" stroke-width="6" fill="#f27630" opacity="0.9951605545454691" stroke-opacity="0.4867915917620955" transform="rotate(-14.0 400 300)" cx="264" rx="199" cy="261" ry="301"></ellipse>
<polygon stroke="#f27630" stroke-width="1" fill="#f9d84b" opacity="0.5929050293501184" stroke-opacity="0.6043440717367067" transform="rotate(-56.0 400 300)" points="182 43 437 443 141 491 119 451 648 95 "></polygon>
<polygon stroke="#2b55f7" stroke-width="5" fill="#f27630" opacity="0.27834269473422035" stroke-opacity="0.38403089323662803" transform="rotate(171.0 400 300)" points="136 232 210 379 618 137 634 156 736 288 77 469 307 152 "></polygon>
<rect stroke="#f27630" stroke-width="1" fill="#2b55f7" opacity="0.945048038327475" stroke-opacity="0.5936042132557338" transform="rotate(-160.0 400 300)" x="79" y="586" width="317" height="339"></rect>
<path stroke="#31a06b" stroke-width="2" fill="#f27630" opacity="0.7560494304932825" stroke-opacity="0.24962502663882147" transform="rotate(-141.0 400 300)" d="M 409,330  C 286,345 661,456 268,335 C 135,443 402,254 437,433 C 374,143 401,446 161,181 C 250,151 517,107 255,114 C 483,111 467,409 291,202 C 464,198 111,205 539,357 C 427,419 207,235 525,287 C 571,176 620,345 246,365 Z"></path>
<ellipse stroke="#f27630" stroke-width="6" fill="#31a06b" opacity="0.8331558712824406" stroke-opacity="0.731552748702676" transform="rotate(-2.0 400 300)" cx="267" rx="95" cy="385" ry="57"></ellipse>

  </g>
</svg>
