<?xml version="1.0" encoding="UTF-8"?>
<svg width="800px" height="600px" viewBox="0 0 800 600" version="1.1" xmlns="http://www.w3.org/2000/svg" xmlns:xlink="http://www.w3.org/1999/xlink">
  <defs></defs>
  <g stroke="none" stroke-width="1" fill="none" fill-rule="evenodd">
    
    <path stroke="#f559a0" stroke-width="1" fill="#0fa6d8" opacity="0.04945297892841116" stroke-opacity="0.559850802919071" transform="rotate(6.0 400 300)" d="M 426,162  C 196,126 316,324 379,219 C 159,493 483,459 444,281 C 330,248 194,479 269,368 C 168,126 304,384 580,209 C 255,212 282,301 189,472 C 474,470 259,363 520,355 C 609,125 194,167 681,117 C 546,255 601,356 179,487 C 583,177 406,125 250,102 Z"></path>
<path stroke="#02eb6b" stroke-width="6" fill="#f559a0" opacity="0.2780252730076523" stroke-opacity="0.6031367575344659" transform="rotate(67.0 400 300)" d="M 140,316  C 693,317 368,222 293,490 C 396,162 139,446 411,315 C 695,432 455,268 268,251 C 506,388 700,180 290,408 C 277,429 597,160 578,388 C 403,154 451,441 282,149 C 143,221 247,240 525,427 C 276,176 606,409 476,450 C 472,498 362,142 155,199 C 490,296 421,396 336,164 C 218,336 607,287 662,264 Z"></path>
<path stroke="#f559a0" stroke-width="7" fill="#0fa6d8" opacity="0.7541966312688678" stroke-opacity="0.7806903077623167" transform="rotate(4.0 400 300)" d="M 579,483  C 647,242 357,362 607,184 C 133,447 329,470 106,334 C 421,296 201,362 519,104 C 540,400 258,270 431,355 C 301,393 500,415 617,276 C 299,350 593,136 636,145 C 371,468 252,106 108,321 C 542,278 394,388 303,303 C 147,430 453,261 649,440 C 252,206 223,422 170,500 C 691,498 181,205 328,437 Z"></path>
<path stroke="#2cd3f3" stroke-width="5" fill="#0fa6d8" opacity="0.6134691304321032" stroke-opacity="0.2733124057715489" transform="rotate(46.0 400 300)" d="M 291,472  C 586,342 437,455 394,232 C 500,124 387,154 239,290 C 121,153 299,366 691,457 C 341,486 252,285 251,500 C 411,222 320,149 432,307 C 282,259 232,394 449,340 Z"></path>
<path stroke="#0fa6d8" stroke-width="6" fill="#f559a0" opacity="0.9567205891678954" stroke-opacity="0.3925584339411296" transform="rotate(-97.0 400 300)" d="M 462,108  C 363,298 224,376 291,217 C 419,194 156,132 258,278 C 584,242 162,150 318,434 C 343,128 435,321 540,290 C 573,189 334,246 269,204 C 326,212 181,338 675,255 C 335,365 629,343 638,226 C 204,308 418,346 572,240 C 601,446 171,375 294,113 Z"></path>
<path stroke="#2cd3f3" stroke-width="5" fill="#2cd3f3" opacity="0.09247771768436998" stroke-opacity="0.08684809650013255" transform="rotate(-106.0 400 300)" d="M 509,253  C 308,343 376,476 505,178 C 533,148 357,294 574,108 C 283,409 623,186 336,289 C 414,166 414,374 617,440 C 319,348 276,203 655,212 C 692,349 482,235 203,308 C 565,151 302,476 365,387 C 105,133 406,342 228,143 Z"></path>
<path stroke="#0fa6d8" stroke-width="6" fill="#f559a0" opacity="0.056375079666121146" stroke-opacity="0.35254514824249333" transform="rotate(-73.0 400 300)" d="M 381,422  C 684,298 315,371 149,229 C 430,155 696,266 577,376 C 304,441 277,244 492,131 C 303,224 127,158 410,226 C 364,444 408,491 281,268 C 466,367 149,191 564,401 C 506,236 424,465 333,212 C 291,147 694,138 620,339 Z"></path>
<path stroke="#02eb6b" stroke-width="4" fill="#2cd3f3" opacity="0.6911996985554043" stroke-opacity="0.19000767121422374" transform="rotate(127.0 400 300)" d="M 497,178  C 316,419 436,124 141,489 C 320,467 310,360 595,294 C 300,162 512,404 196,442 C 482,220 454,173 333,351 C 235,208 693,309 114,221 C 542,112 192,249 641,434 C 434,388 610,429 131,304 Z"></path>
<path stroke="#f559a0" stroke-width="7" fill="#fe9225" opacity="0.8379609312714925" stroke-opacity="0.05649460015802329" transform="rotate(-26.0 400 300)" d="M 347,476  C 495,372 558,273 694,458 C 123,330 453,283 393,232 C 445,136 262,190 378,123 C 479,217 416,188 453,479 C 320,410 579,455 514,453 C 467,402 399,299 458,428 C 550,424 405,118 136,440 Z"></path>

  </g>
</svg>
