<?xml version="1.0" encoding="UTF-8"?>
<svg width="800px" height="600px" viewBox="0 0 800 600" version="1.1" xmlns="http://www.w3.org/2000/svg" xmlns:xlink="http://www.w3.org/1999/xlink">
  <defs></defs>
  <g stroke="none" stroke-width="1" fill="none" fill-rule="evenodd">
    
    <path stroke="#834353" stroke-width="6" fill="#23B4A9" opacity="0.6028516419981925" stroke-opacity="0.7951415658036833" transform="rotate(9.0 400 300)" d="M 230,421  C 402,132 600,284 381,480 C 135,423 643,265 608,482 C 675,142 526,382 252,479 C 383,111 440,471 542,407 C 280,215 418,207 289,177 Z"></path>
<path stroke="#A2DD83" stroke-width="2" fill="#034155" opacity="0.26418389738123266" stroke-opacity="0.9703969505435717" transform="rotate(-2.0 400 300)" d="M 561,257  C 277,284 514,171 548,349 C 111,159 173,191 633,305 C 312,204 211,310 343,248 C 293,154 315,151 673,351 C 259,250 644,107 119,159 C 673,460 554,346 395,240 C 250,479 529,470 651,389 C 302,259 417,139 470,295 C 235,312 188,448 503,259 C 474,464 370,337 108,114 Z"></path>
<path stroke="#CD6981" stroke-width="2" fill="#37B930" opacity="0.19415026705871102" stroke-opacity="0.08353071116390358" transform="rotate(-91.0 400 300)" d="M 323,233  C 396,416 333,105 304,201 C 273,253 186,104 165,161 C 113,123 346,225 290,179 C 358,170 374,398 475,178 C 308,420 413,248 532,155 C 339,384 580,434 619,415 Z"></path>
<path stroke="#42587A" stroke-width="3" fill="#290C72" opacity="0.5328082393396351" stroke-opacity="0.6844725689855625" transform="rotate(94.0 400 300)" d="M 510,192  C 485,412 410,374 163,216 C 135,216 425,123 419,235 C 398,154 422,252 469,333 C 544,120 279,285 419,427 C 603,452 602,225 144,216 C 542,295 349,431 260,252 Z"></path>
<path stroke="#87AA17" stroke-width="1" fill="#22518B" opacity="0.27215659146567955" stroke-opacity="0.40854902112892677" transform="rotate(-58.0 400 300)" d="M 313,117  C 566,310 450,442 302,404 C 238,492 127,494 627,267 C 169,204 205,130 331,229 C 465,112 630,269 102,232 Z"></path>
<path stroke="#117441" stroke-width="1" fill="#795755" opacity="0.19797164515803709" stroke-opacity="0.8349879380934568" transform="rotate(162.0 400 300)" d="M 678,225  C 682,157 336,446 169,259 C 549,247 329,242 220,240 C 690,457 325,341 285,316 C 591,374 316,436 621,342 C 511,212 138,256 415,166 C 453,261 386,461 575,148 C 575,174 644,234 554,153 C 159,346 431,176 661,192 Z"></path>
<path stroke="#410C8B" stroke-width="4" fill="#4B3180" opacity="0.9391446781511867" stroke-opacity="0.6229965004952168" transform="rotate(170.0 400 300)" d="M 210,109  C 587,419 146,198 544,192 C 331,337 291,337 514,246 C 345,416 482,265 202,145 C 626,165 128,353 421,200 C 181,470 669,321 464,185 C 313,461 465,273 417,448 C 425,287 694,436 553,265 C 146,409 555,417 474,267 Z"></path>
<path stroke="#0D0577" stroke-width="4" fill="#24C0D0" opacity="0.040626402455193514" stroke-opacity="0.532230903646839" transform="rotate(69.0 400 300)" d="M 425,250  C 665,477 597,475 172,128 C 405,144 439,420 393,437 C 652,247 259,191 299,378 C 554,442 576,364 355,143 C 370,305 466,345 604,360 C 600,378 280,245 478,484 Z"></path>

  </g>
</svg>
