<svg xmlns="http://www.w3.org/2000/svg" xmlns:xlink="http://www.w3.org/1999/xlink" width="800" height="600" version="1.1" viewBox="0 0 800 600"><g fill="none" fill-rule="evenodd" stroke="none" stroke-width="1"><path fill="#0fa6d8" stroke="#0fa6d8" stroke-opacity=".878" stroke-width="5" d="M 304,321 C 542,364 688,343 130,334 C 150,109 641,394 673,194 C 119,152 559,145 280,198 C 599,151 661,456 115,351 C 430,223 279,498 486,468 Z" opacity=".756" transform="rotate(99.0 400 300)"/><path fill="#2cd3f3" stroke="#f559a0" stroke-opacity=".03" stroke-width="4" d="M 197,289 C 405,221 619,444 393,338 C 640,126 623,201 351,165 C 182,271 694,119 451,391 C 619,453 133,127 243,102 C 353,176 448,110 521,333 C 337,301 687,256 614,473 C 385,431 270,458 296,410 C 395,461 238,462 284,237 C 571,277 686,463 124,363 C 242,132 155,324 491,214 Z" opacity=".816" transform="rotate(103.0 400 300)"/><path fill="#0fa6d8" stroke="#f559a0" stroke-opacity=".328" stroke-width="5" d="M 556,237 C 518,391 631,258 573,227 C 206,370 490,216 277,259 C 378,105 383,455 286,288 C 305,451 341,131 246,414 C 361,362 168,290 425,455 C 164,119 366,215 432,263 Z" opacity=".447" transform="rotate(64.0 400 300)"/><path fill="#fe9225" stroke="#f559a0" stroke-opacity=".593" stroke-width="1" d="M 289,297 C 429,323 369,218 679,148 C 393,139 378,265 573,267 C 377,336 330,279 407,289 C 243,190 329,453 688,453 C 411,388 276,360 517,277 Z" opacity=".005" transform="rotate(94.0 400 300)"/><path fill="#02eb6b" stroke="#02eb6b" stroke-opacity=".666" stroke-width="1" d="M 324,269 C 461,431 582,449 209,386 C 319,419 434,290 576,470 C 175,181 451,197 273,353 C 132,442 644,141 291,223 C 149,485 355,208 373,236 C 675,385 240,127 355,406 C 469,116 399,121 400,181 C 157,466 258,479 431,494 C 201,368 557,429 538,478 Z" opacity=".444" transform="rotate(135.0 400 300)"/><path fill="#02eb6b" stroke="#02eb6b" stroke-opacity=".121" stroke-width="3" d="M 563,496 C 285,217 103,177 397,108 C 231,142 265,234 572,284 C 487,496 224,427 572,454 C 492,112 410,353 102,474 Z" opacity=".323" transform="rotate(-43.0 400 300)"/><path fill="#2cd3f3" stroke="#02eb6b" stroke-opacity=".278" stroke-width="2" d="M 432,137 C 372,101 540,200 683,304 C 620,488 572,124 361,432 C 439,458 514,480 273,187 C 580,172 609,167 322,395 Z" opacity=".753" transform="rotate(158.0 400 300)"/><path fill="#02eb6b" stroke="#0fa6d8" stroke-opacity=".984" stroke-width="4" d="M 339,476 C 166,174 599,238 675,170 C 151,204 125,378 484,157 C 521,104 276,119 386,147 C 499,422 637,121 570,134 C 371,473 536,243 383,225 C 482,188 244,416 401,296 C 452,300 251,419 336,485 C 481,279 324,457 504,219 C 491,166 251,144 278,179 C 592,471 339,119 406,392 Z" opacity=".563" transform="rotate(132.0 400 300)"/><path fill="#2cd3f3" stroke="#0fa6d8" stroke-opacity=".49" stroke-width="2" d="M 662,286 C 377,165 299,235 512,163 C 496,473 572,262 187,341 C 525,484 492,447 502,186 C 216,108 597,344 103,485 C 617,269 400,110 479,135 Z" opacity=".948" transform="rotate(-47.0 400 300)"/><path fill="#fe9225" stroke="#2cd3f3" stroke-opacity=".411" stroke-width="5" d="M 696,165 C 686,426 247,273 541,371 C 573,301 307,421 325,260 C 470,412 259,369 210,296 C 226,190 566,335 225,349 C 109,400 108,477 301,187 C 409,212 256,254 654,333 C 263,379 135,194 205,400 Z" opacity=".669" transform="rotate(14.0 400 300)"/><path fill="#02eb6b" stroke="#0fa6d8" stroke-opacity=".761" stroke-width="5" d="M 383,491 C 384,226 514,197 106,395 C 402,246 114,182 373,203 C 649,363 621,440 641,389 C 275,304 145,201 112,483 C 529,366 363,462 434,143 C 576,368 191,463 320,293 C 294,394 634,154 615,356 C 374,252 604,198 648,114 C 160,237 129,310 362,159 C 367,361 507,196 264,315 Z" opacity=".67" transform="rotate(-107.0 400 300)"/></g></svg>