<svg xmlns="http://www.w3.org/2000/svg" xmlns:xlink="http://www.w3.org/1999/xlink" width="800" height="600" version="1.1" viewBox="0 0 800 600"><g fill="none" fill-rule="evenodd" stroke="none" stroke-width="1"><path fill="#ed2b2c" stroke="#2b55f7" stroke-opacity=".392" stroke-width="7" d="M 663,301 C 296,241 670,157 422,460 C 596,131 427,206 439,251 C 653,160 634,127 272,453 C 553,285 114,182 133,351 C 310,377 565,430 256,422 Z" opacity=".006" transform="rotate(-157.0 400 300)"/><path fill="#31a06b" stroke="#31a06b" stroke-opacity=".109" stroke-width="7" d="M 489,264 C 437,110 607,226 581,245 C 429,458 387,112 493,311 C 482,306 452,107 661,363 C 424,252 429,268 311,473 C 460,179 333,284 155,388 Z" opacity=".114" transform="rotate(103.0 400 300)"/><path fill="#f9d84b" stroke="#ed2b2c" stroke-opacity=".204" stroke-width="1" d="M 534,439 C 577,469 609,471 657,423 C 352,398 352,431 477,209 C 426,114 657,329 521,135 C 406,165 185,242 679,350 Z" opacity=".033" transform="rotate(-173.0 400 300)"/><path fill="#ed2b2c" stroke="#31a06b" stroke-opacity=".719" stroke-width="7" d="M 297,132 C 294,365 346,331 685,189 C 364,131 542,483 673,461 C 321,347 553,160 472,111 C 672,448 105,359 337,119 C 252,164 282,428 547,457 C 253,106 568,407 586,206 Z" opacity=".879" transform="rotate(56.0 400 300)"/><path fill="#f9d84b" stroke="#2b55f7" stroke-opacity=".874" stroke-width="5" d="M 675,394 C 430,331 617,123 323,331 C 504,399 236,448 370,359 C 593,334 298,224 259,283 C 458,349 115,264 613,495 C 259,360 444,484 622,308 C 114,213 584,497 555,497 C 532,451 365,397 138,277 C 560,249 182,382 484,281 Z" opacity=".342" transform="rotate(-175.0 400 300)"/><path fill="#ed2b2c" stroke="#2b55f7" stroke-opacity=".392" stroke-width="4" d="M 313,203 C 680,266 648,467 315,436 C 406,355 274,479 688,343 C 356,217 327,419 270,229 C 517,337 569,172 458,113 Z" opacity=".534" transform="rotate(84.0 400 300)"/><path fill="#31a06b" stroke="#f9d84b" stroke-opacity=".445" stroke-width="5" d="M 633,133 C 261,442 621,266 268,175 C 314,295 273,221 315,386 C 435,379 389,183 264,455 C 623,407 512,294 366,331 C 560,471 186,253 293,128 C 375,387 264,171 300,380 C 419,130 544,347 167,122 Z" opacity=".731" transform="rotate(-120.0 400 300)"/><path fill="#31a06b" stroke="#ed2b2c" stroke-opacity=".203" stroke-width="2" d="M 570,304 C 228,462 367,422 357,414 C 199,248 512,317 516,189 C 555,182 163,470 350,242 C 245,339 390,246 294,286 C 697,297 117,292 594,216 C 639,427 340,391 141,460 Z" opacity=".184" transform="rotate(-165.0 400 300)"/><path fill="#2b55f7" stroke="#f9d84b" stroke-opacity=".422" stroke-width="7" d="M 467,133 C 538,390 237,370 298,210 C 690,202 554,469 380,155 C 388,174 624,334 647,238 C 339,314 397,343 114,222 C 673,283 373,120 617,196 C 427,111 204,163 258,226 C 154,261 504,378 411,177 Z" opacity=".274" transform="rotate(-15.0 400 300)"/></g></svg>