<svg xmlns="http://www.w3.org/2000/svg" xmlns:xlink="http://www.w3.org/1999/xlink" width="800" height="600" version="1.1" viewBox="0 0 800 600"><g fill="none" fill-rule="evenodd" stroke="none" stroke-width="1"><polygon fill="#0fa6d8" stroke="#2cd3f3" stroke-opacity=".547" stroke-width="6" points="709 460 561 407 781 305 190 4 506 391" opacity=".553" transform="rotate(127.0 400 300)"/><ellipse cx="443" cy="580" fill="#f559a0" stroke="#2cd3f3" stroke-opacity=".012" stroke-width="2" opacity=".558" rx="181" ry="179" transform="rotate(-8.0 400 300)"/><ellipse cx="331" cy="170" fill="#02eb6b" stroke="#02eb6b" stroke-opacity=".627" stroke-width="7" opacity=".479" rx="446" ry="280" transform="rotate(-83.0 400 300)"/><polygon fill="#02eb6b" stroke="#f559a0" stroke-opacity=".948" stroke-width="2" points="464 249 346 356 707 347 475 21 649 185" opacity=".353" transform="rotate(-174.0 400 300)"/><ellipse cx="1" cy="393" fill="#2cd3f3" stroke="#0fa6d8" stroke-opacity=".768" stroke-width="4" opacity=".863" rx="112" ry="255" transform="rotate(-151.0 400 300)"/><path fill="#f559a0" stroke="#02eb6b" stroke-opacity=".306" stroke-width="7" d="M 347,497 C 433,286 308,332 211,368 C 188,413 260,271 596,237 C 428,379 630,397 568,129 C 687,124 320,379 407,114 C 199,316 306,143 137,128 Z" opacity=".426" transform="rotate(-102.0 400 300)"/><polygon fill="#fe9225" stroke="#2cd3f3" stroke-opacity=".156" stroke-width="6" points="516 162 617 223 27 104 324 367 765 366 164 501" opacity=".24" transform="rotate(-50.0 400 300)"/><path fill="#02eb6b" stroke="#0fa6d8" stroke-opacity=".965" stroke-width="5" d="M 415,317 C 688,243 170,473 421,475 C 513,395 566,452 185,364 C 489,479 358,257 227,213 C 344,450 539,462 264,246 Z" opacity=".534" transform="rotate(21.0 400 300)"/><ellipse cx="762" cy="113" fill="#f559a0" stroke="#fe9225" stroke-opacity=".271" stroke-width="7" opacity=".147" rx="82" ry="159" transform="rotate(-55.0 400 300)"/><polygon fill="#02eb6b" stroke="#f559a0" stroke-opacity=".073" stroke-width="4" points="597 357 673 291 71 319 514 168 297 197 267 475 747 370 551 288" opacity=".046" transform="rotate(-76.0 400 300)"/></g></svg>