<?xml version="1.0" encoding="UTF-8"?>
<svg width="800px" height="600px" viewBox="0 0 800 600" version="1.1" xmlns="http://www.w3.org/2000/svg" xmlns:xlink="http://www.w3.org/1999/xlink">
  <defs></defs>
  <g stroke="none" stroke-width="1" fill="none" fill-rule="evenodd">
    
    <polygon stroke="#2cd3f3" stroke-width="6" fill="#0fa6d8" opacity="0.5529782493381784" stroke-opacity="0.5471978316863157" transform="rotate(127.0 400 300)" points="709 460 561 407 781 305 190 4 506 391 "></polygon>
<ellipse stroke="#2cd3f3" stroke-width="2" fill="#f559a0" opacity="0.5584366006255568" stroke-opacity="0.012037355828669561" transform="rotate(-8.0 400 300)" cx="443" rx="181" cy="580" ry="179"></ellipse>
<ellipse stroke="#02eb6b" stroke-width="7" fill="#02eb6b" opacity="0.47904145220220246" stroke-opacity="0.6269961001870127" transform="rotate(-83.0 400 300)" cx="331" rx="446" cy="170" ry="280"></ellipse>
<polygon stroke="#f559a0" stroke-width="2" fill="#02eb6b" opacity="0.3533990533194744" stroke-opacity="0.9482928149952579" transform="rotate(-174.0 400 300)" points="464 249 346 356 707 347 475 21 649 185 "></polygon>
<ellipse stroke="#0fa6d8" stroke-width="4" fill="#2cd3f3" opacity="0.862719537172104" stroke-opacity="0.7679507180254934" transform="rotate(-151.0 400 300)" cx="1" rx="112" cy="393" ry="255"></ellipse>
<path stroke="#02eb6b" stroke-width="7" fill="#f559a0" opacity="0.4263943432653118" stroke-opacity="0.30648921622254804" transform="rotate(-102.0 400 300)" d="M 347,497  C 433,286 308,332 211,368 C 188,413 260,271 596,237 C 428,379 630,397 568,129 C 687,124 320,379 407,114 C 199,316 306,143 137,128 Z"></path>
<polygon stroke="#2cd3f3" stroke-width="6" fill="#fe9225" opacity="0.23988986625077885" stroke-opacity="0.15622793751445316" transform="rotate(-50.0 400 300)" points="516 162 617 223 27 104 324 367 765 366 164 501 "></polygon>
<path stroke="#0fa6d8" stroke-width="5" fill="#02eb6b" opacity="0.5340735747810058" stroke-opacity="0.964740107870473" transform="rotate(21.0 400 300)" d="M 415,317  C 688,243 170,473 421,475 C 513,395 566,452 185,364 C 489,479 358,257 227,213 C 344,450 539,462 264,246 Z"></path>
<ellipse stroke="#fe9225" stroke-width="7" fill="#f559a0" opacity="0.14666945420102864" stroke-opacity="0.27094128890992036" transform="rotate(-55.0 400 300)" cx="762" rx="82" cy="113" ry="159"></ellipse>
<polygon stroke="#f559a0" stroke-width="4" fill="#02eb6b" opacity="0.046110424145340306" stroke-opacity="0.07343756645072119" transform="rotate(-76.0 400 300)" points="597 357 673 291 71 319 514 168 297 197 267 475 747 370 551 288 "></polygon>

  </g>
</svg>
