<svg xmlns="http://www.w3.org/2000/svg" xmlns:xlink="http://www.w3.org/1999/xlink" width="800" height="600" version="1.1" viewBox="0 0 800 600"><g fill="none" fill-rule="evenodd" stroke="none" stroke-width="1"><ellipse cx="166" cy="576" fill="#AD6AD2" stroke="#C425B9" stroke-opacity=".844" stroke-width="6" opacity=".802" rx="41" ry="207" transform="rotate(-162.0 400 300)"/><ellipse cx="100" cy="326" fill="#3346AC" stroke="#570877" stroke-opacity=".595" stroke-width="4" opacity=".082" rx="240" ry="196" transform="rotate(141.0 400 300)"/><ellipse cx="532" cy="158" fill="#195670" stroke="#710C87" stroke-opacity=".831" stroke-width="5" opacity=".87" rx="97" ry="313" transform="rotate(-37.0 400 300)"/><path fill="#6B4109" stroke="#7D7C08" stroke-opacity=".786" stroke-width="1" d="M 650,458 C 609,289 504,288 470,228 C 441,318 123,231 658,345 C 320,119 124,356 531,227 C 143,150 556,311 609,102 C 396,410 325,411 520,262 C 658,442 699,403 189,464 C 309,398 286,459 114,104 C 136,422 475,394 315,134 C 482,359 311,299 686,410 C 386,440 631,249 437,181 C 600,410 363,119 281,391 Z" opacity=".786" transform="rotate(-101.0 400 300)"/><ellipse cx="594" cy="204" fill="#939453" stroke="#397850" stroke-opacity=".461" stroke-width="1" opacity=".566" rx="174" ry="239" transform="rotate(108.0 400 300)"/><path fill="#7B5C3B" stroke="#8352AC" stroke-opacity=".877" stroke-width="3" d="M 296,437 C 646,130 614,336 646,102 C 570,216 610,103 349,230 C 615,440 155,347 377,369 C 633,429 153,250 410,346 C 527,130 234,175 184,360 C 501,203 561,247 200,436 Z" opacity=".31" transform="rotate(-159.0 400 300)"/></g></svg>