<?xml version="1.0" encoding="UTF-8"?>
<svg width="800px" height="600px" viewBox="0 0 800 600" version="1.1" xmlns="http://www.w3.org/2000/svg" xmlns:xlink="http://www.w3.org/1999/xlink">
  <defs></defs>
  <g stroke="none" stroke-width="1" fill="none" fill-rule="evenodd">
    
    <ellipse stroke="#C425B9" stroke-width="6" fill="#AD6AD2" opacity="0.8022407022085684" stroke-opacity="0.843854043326331" transform="rotate(-162.0 400 300)" cx="166" rx="41" cy="576" ry="207"></ellipse>
<ellipse stroke="#570877" stroke-width="4" fill="#3346AC" opacity="0.08226691747888495" stroke-opacity="0.5953480888820185" transform="rotate(141.0 400 300)" cx="100" rx="240" cy="326" ry="196"></ellipse>
<ellipse stroke="#710C87" stroke-width="5" fill="#195670" opacity="0.8695116226828781" stroke-opacity="0.8312290146762777" transform="rotate(-37.0 400 300)" cx="532" rx="97" cy="158" ry="313"></ellipse>
<path stroke="#7D7C08" stroke-width="1" fill="#6B4109" opacity="0.7864960819134356" stroke-opacity="0.7859153997271165" transform="rotate(-101.0 400 300)" d="M 650,458  C 609,289 504,288 470,228 C 441,318 123,231 658,345 C 320,119 124,356 531,227 C 143,150 556,311 609,102 C 396,410 325,411 520,262 C 658,442 699,403 189,464 C 309,398 286,459 114,104 C 136,422 475,394 315,134 C 482,359 311,299 686,410 C 386,440 631,249 437,181 C 600,410 363,119 281,391 Z"></path>
<ellipse stroke="#397850" stroke-width="1" fill="#939453" opacity="0.5664652251242338" stroke-opacity="0.4611984141409828" transform="rotate(108.0 400 300)" cx="594" rx="174" cy="204" ry="239"></ellipse>
<path stroke="#8352AC" stroke-width="3" fill="#7B5C3B" opacity="0.3100222820960656" stroke-opacity="0.877221551496485" transform="rotate(-159.0 400 300)" d="M 296,437  C 646,130 614,336 646,102 C 570,216 610,103 349,230 C 615,440 155,347 377,369 C 633,429 153,250 410,346 C 527,130 234,175 184,360 C 501,203 561,247 200,436 Z"></path>

  </g>
</svg>
