<svg xmlns="http://www.w3.org/2000/svg" xmlns:xlink="http://www.w3.org/1999/xlink" width="800" height="600" version="1.1" viewBox="0 0 800 600"><g fill="none" fill-rule="evenodd" stroke="none" stroke-width="1"><path fill="#ed2b2c" stroke="#31a06b" stroke-opacity=".793" stroke-width="5" d="M 237,150 C 280,190 253,101 315,438 C 568,380 408,173 205,429 C 592,131 527,163 519,189 C 674,364 221,144 157,147 C 526,215 372,337 635,143 C 385,356 430,462 422,389 C 655,491 297,135 439,168 C 597,137 422,284 229,230 C 258,331 459,438 637,263 C 171,396 368,397 528,401 Z" opacity=".181" transform="rotate(57.0 400 300)"/><path fill="#ed2b2c" stroke="#f27630" stroke-opacity=".565" stroke-width="6" d="M 603,331 C 363,365 573,182 211,370 C 693,458 443,370 574,333 C 152,208 138,116 252,108 C 699,177 489,312 358,204 Z" opacity=".891" transform="rotate(117.0 400 300)"/><path fill="#f27630" stroke="#f27630" stroke-opacity=".626" stroke-width="7" d="M 638,295 C 190,155 348,331 467,447 C 103,168 621,390 312,467 C 598,185 322,390 387,381 C 405,225 127,186 215,114 Z" opacity=".568" transform="rotate(-143.0 400 300)"/><path fill="#ed2b2c" stroke="#f27630" stroke-opacity=".581" stroke-width="1" d="M 628,341 C 326,308 526,187 301,476 C 120,340 397,121 685,445 C 139,273 215,122 583,364 C 126,441 548,477 527,340 C 244,175 502,124 629,271 C 514,493 226,321 499,490 Z" opacity=".522" transform="rotate(50.0 400 300)"/><path fill="#ed2b2c" stroke="#2b55f7" stroke-opacity=".925" stroke-width="4" d="M 204,249 C 559,361 497,117 559,137 C 482,269 192,205 567,490 C 193,274 535,112 254,432 C 496,419 287,350 699,489 Z" opacity=".746" transform="rotate(-98.0 400 300)"/><path fill="#ed2b2c" stroke="#f27630" stroke-opacity=".514" stroke-width="1" d="M 541,163 C 427,443 214,129 411,455 C 321,385 559,469 128,341 C 392,120 275,463 218,385 C 480,172 101,349 645,447 C 568,292 542,195 516,249 C 420,157 474,371 191,329 C 293,297 517,381 301,318 C 124,459 688,243 643,375 C 357,318 409,228 248,350 C 456,128 696,182 424,302 C 356,473 409,298 434,454 Z" opacity=".985" transform="rotate(-86.0 400 300)"/><path fill="#f9d84b" stroke="#ed2b2c" stroke-opacity=".137" stroke-width="1" d="M 349,337 C 265,210 406,170 113,418 C 297,370 185,110 130,209 C 445,435 432,272 182,192 C 381,475 468,296 572,433 C 477,185 304,386 667,298 C 232,389 590,160 257,478 C 638,107 693,159 409,265 C 306,458 648,248 655,215 C 331,270 410,169 101,141 Z" opacity=".172" transform="rotate(-17.0 400 300)"/><path fill="#31a06b" stroke="#f9d84b" stroke-opacity=".247" stroke-width="2" d="M 160,284 C 609,126 196,444 672,339 C 229,103 322,482 569,325 C 541,361 403,131 357,475 C 109,339 546,173 257,214 C 604,117 438,320 690,245 C 203,297 659,261 202,161 C 381,200 388,496 314,128 C 492,379 386,360 292,263 C 204,452 321,354 110,162 C 558,137 453,423 568,497 Z" opacity=".006" transform="rotate(91.0 400 300)"/><path fill="#2b55f7" stroke="#31a06b" stroke-opacity=".664" stroke-width="6" d="M 282,277 C 559,443 247,467 103,455 C 487,209 687,422 392,200 C 320,207 293,240 543,256 C 129,210 534,381 263,497 C 166,231 656,479 280,414 Z" opacity=".366" transform="rotate(-153.0 400 300)"/></g></svg>