<svg xmlns="http://www.w3.org/2000/svg" xmlns:xlink="http://www.w3.org/1999/xlink" width="800" height="600" version="1.1" viewBox="0 0 800 600"><g fill="none" fill-rule="evenodd" stroke="none" stroke-width="1"><rect width="343" height="313" x="160" y="54" fill="#37D884" stroke="#8D3158" stroke-opacity=".029" stroke-width="1" opacity=".36" transform="rotate(87.0 400 300)"/><rect width="316" height="323" x="581" y="464" fill="#B35634" stroke="#123819" stroke-opacity=".222" stroke-width="5" opacity=".363" transform="rotate(-109.0 400 300)"/><rect width="268" height="268" x="491" y="485" fill="#9184A9" stroke="#738BC1" stroke-opacity=".525" stroke-width="5" opacity=".388" transform="rotate(-128.0 400 300)"/><path fill="#A02D48" stroke="#5D7768" stroke-opacity=".655" stroke-width="2" d="M 651,271 C 365,383 177,474 124,142 C 268,439 246,257 495,425 C 283,429 666,304 262,473 C 401,356 126,296 354,381 C 274,227 687,348 253,456 Z" opacity=".392" transform="rotate(-95.0 400 300)"/><rect width="336" height="149" x="174" y="220" fill="#9978B9" stroke="#819566" stroke-opacity=".426" stroke-width="3" opacity=".336" transform="rotate(-64.0 400 300)"/><ellipse cx="160" cy="3" fill="#2BBA27" stroke="#4A8671" stroke-opacity=".812" stroke-width="6" opacity=".872" rx="306" ry="140" transform="rotate(-130.0 400 300)"/><polygon fill="#7DBCA3" stroke="#AD9B1D" stroke-opacity=".109" stroke-width="2" points="279 320 294 318 281 281 113 309 501 398 793 441 329 132 447 210" opacity=".946" transform="rotate(10.0 400 300)"/></g></svg>