<svg xmlns="http://www.w3.org/2000/svg" xmlns:xlink="http://www.w3.org/1999/xlink" width="800" height="600" version="1.1" viewBox="0 0 800 600"><g fill="none" fill-rule="evenodd" stroke="none" stroke-width="1"><path fill="#02eb6b" stroke="#0fa6d8" stroke-opacity=".811" stroke-width="2" d="M 680,119 C 628,411 695,368 624,354 C 698,156 337,134 290,253 C 522,490 221,193 229,424 C 473,222 558,268 510,486 C 635,104 220,216 645,261 C 346,149 145,301 209,252 C 351,275 429,462 617,444 C 500,172 421,281 378,269 C 445,488 524,133 360,411 Z" opacity=".105" transform="rotate(-49.0 400 300)"/><path fill="#fe9225" stroke="#fe9225" stroke-opacity=".84" stroke-width="4" d="M 253,376 C 566,274 246,351 540,127 C 219,407 345,260 594,354 C 195,203 284,150 471,425 C 593,332 563,481 229,337 C 373,318 414,420 659,322 C 685,452 285,187 603,170 C 605,417 145,320 452,157 Z" opacity=".284" transform="rotate(-173.0 400 300)"/><path fill="#2cd3f3" stroke="#02eb6b" stroke-opacity=".526" stroke-width="4" d="M 381,227 C 228,443 282,353 139,142 C 282,267 207,368 107,298 C 307,223 371,350 337,136 C 173,473 113,320 334,196 C 346,471 562,187 560,480 C 341,224 600,430 482,388 C 476,173 657,462 379,140 Z" opacity=".286" transform="rotate(37.0 400 300)"/><path fill="#fe9225" stroke="#0fa6d8" stroke-opacity=".116" stroke-width="4" d="M 679,432 C 604,467 247,115 469,413 C 686,225 477,256 150,491 C 389,456 139,361 448,209 C 615,291 351,255 473,112 C 477,379 540,449 627,148 Z" opacity=".746" transform="rotate(85.0 400 300)"/><path fill="#f559a0" stroke="#2cd3f3" stroke-opacity=".037" stroke-width="6" d="M 590,444 C 318,342 382,217 646,241 C 608,416 461,283 316,270 C 699,176 320,267 611,402 C 313,158 225,186 399,416 C 669,234 498,107 380,409 C 542,480 409,356 662,203 C 420,382 155,485 307,439 C 236,419 548,480 247,440 C 115,211 683,184 619,270 Z" opacity=".069" transform="rotate(-78.0 400 300)"/><path fill="#fe9225" stroke="#fe9225" stroke-opacity=".448" stroke-width="2" d="M 140,493 C 339,333 546,265 601,403 C 476,143 234,424 231,137 C 458,199 408,414 413,453 C 606,117 451,305 502,269 C 304,458 407,426 204,263 C 526,313 138,426 336,489 C 344,246 357,302 195,377 C 253,467 539,206 369,369 C 461,263 694,393 522,110 Z" opacity=".801" transform="rotate(-40.0 400 300)"/><path fill="#2cd3f3" stroke="#02eb6b" stroke-opacity=".759" stroke-width="1" d="M 421,232 C 452,248 239,173 160,343 C 400,142 458,316 112,178 C 694,315 343,166 383,187 C 144,138 617,326 149,331 C 500,285 193,448 656,260 C 604,341 315,443 479,164 C 403,456 641,479 220,375 C 307,219 381,323 679,442 C 244,297 303,412 547,325 Z" opacity=".578" transform="rotate(-120.0 400 300)"/><path fill="#0fa6d8" stroke="#0fa6d8" stroke-opacity=".447" stroke-width="4" d="M 161,116 C 430,481 637,476 336,418 C 525,371 501,358 337,423 C 633,358 168,462 555,362 C 340,215 397,468 128,413 C 325,366 160,428 404,289 C 116,356 586,423 660,160 C 459,218 534,167 461,346 C 632,108 190,394 644,447 C 679,206 441,215 607,457 C 429,498 672,412 102,295 C 532,474 464,107 191,152 Z" opacity=".619" transform="rotate(103.0 400 300)"/></g></svg>