<?xml version="1.0" encoding="UTF-8"?>
<svg width="800px" height="600px" viewBox="0 0 800 600" version="1.1" xmlns="http://www.w3.org/2000/svg" xmlns:xlink="http://www.w3.org/1999/xlink">
  <defs></defs>
  <g stroke="none" stroke-width="1" fill="none" fill-rule="evenodd">
    
    <path stroke="#2b55f7" stroke-width="3" fill="#f9d84b" opacity="0.9855527214288126" stroke-opacity="0.21368529887106086" transform="rotate(-59.0 400 300)" d="M 690,496  C 665,491 119,147 683,135 C 140,296 138,212 496,396 C 212,285 661,247 499,128 C 133,322 173,411 623,281 C 216,127 262,225 174,135 C 215,152 136,419 670,289 C 195,172 506,311 151,278 C 580,384 132,276 123,195 Z"></path>
<path stroke="#31a06b" stroke-width="6" fill="#2b55f7" opacity="0.2655231921306433" stroke-opacity="0.46436424383370595" transform="rotate(-142.0 400 300)" d="M 251,363  C 414,346 130,427 193,298 C 173,112 378,131 513,139 C 334,269 284,190 226,324 C 584,442 113,371 109,421 C 506,297 226,490 681,143 Z"></path>
<path stroke="#f9d84b" stroke-width="5" fill="#31a06b" opacity="0.2665635769172495" stroke-opacity="0.643472120736971" transform="rotate(1.0 400 300)" d="M 185,251  C 219,284 370,202 425,233 C 598,403 310,317 386,135 C 229,120 320,197 236,298 C 108,192 540,236 526,340 Z"></path>
<path stroke="#ed2b2c" stroke-width="1" fill="#2b55f7" opacity="0.6010305707340851" stroke-opacity="0.3251545248804336" transform="rotate(-55.0 400 300)" d="M 114,355  C 474,454 325,298 661,276 C 445,188 695,432 153,159 C 682,192 692,329 455,321 C 270,229 120,480 140,192 C 467,134 459,426 421,117 Z"></path>
<path stroke="#f9d84b" stroke-width="1" fill="#31a06b" opacity="0.24767104559673628" stroke-opacity="0.7565279404491456" transform="rotate(102.0 400 300)" d="M 331,188  C 302,373 209,192 209,309 C 320,350 442,198 501,449 C 215,205 394,236 670,387 C 609,197 129,464 280,128 C 115,265 637,132 355,271 C 513,127 393,456 187,331 Z"></path>
<path stroke="#f27630" stroke-width="4" fill="#ed2b2c" opacity="0.9685810640181045" stroke-opacity="0.2764140035226867" transform="rotate(54.0 400 300)" d="M 576,138  C 658,169 673,160 207,298 C 510,121 682,378 160,200 C 114,138 465,290 424,258 C 287,173 595,409 457,268 C 322,149 151,108 370,455 C 182,135 242,148 255,215 Z"></path>
<path stroke="#ed2b2c" stroke-width="5" fill="#2b55f7" opacity="0.0856772315307104" stroke-opacity="0.9415391397636282" transform="rotate(62.0 400 300)" d="M 191,113  C 618,131 677,387 379,210 C 470,274 635,314 513,335 C 466,196 105,390 688,274 C 632,364 600,461 327,169 C 536,199 154,379 487,150 C 374,488 153,181 694,464 C 445,103 235,356 303,131 C 215,197 391,294 344,160 C 442,140 626,390 166,178 Z"></path>
<path stroke="#f27630" stroke-width="6" fill="#31a06b" opacity="0.738125553114818" stroke-opacity="0.2520870250093451" transform="rotate(67.0 400 300)" d="M 486,487  C 633,407 668,425 140,102 C 242,419 107,166 560,238 C 651,263 167,472 359,282 C 280,150 102,308 538,473 C 211,107 534,235 376,429 C 461,232 115,469 261,164 C 165,150 306,497 532,239 C 346,193 348,200 245,159 C 343,173 180,252 407,227 C 408,102 603,253 170,448 C 138,464 320,144 300,185 Z"></path>
<path stroke="#31a06b" stroke-width="5" fill="#ed2b2c" opacity="0.9011330130487459" stroke-opacity="0.7977778005093825" transform="rotate(54.0 400 300)" d="M 271,393  C 670,489 697,428 246,332 C 552,368 276,231 410,183 C 258,134 153,153 171,465 C 110,239 446,349 186,147 C 539,454 429,292 234,480 C 199,434 496,216 458,397 C 225,284 131,303 297,362 C 685,324 249,257 155,492 C 642,197 486,124 305,296 C 176,454 604,200 494,279 Z"></path>
<path stroke="#f9d84b" stroke-width="4" fill="#ed2b2c" opacity="0.4502374639245419" stroke-opacity="0.8660393317261802" transform="rotate(-11.0 400 300)" d="M 169,347  C 250,123 287,381 327,374 C 239,337 458,475 269,326 C 639,411 532,126 268,285 C 304,459 500,452 557,249 C 664,363 297,136 532,345 C 344,291 268,277 495,358 C 494,341 299,491 430,378 Z"></path>

  </g>
</svg>
