<?xml version="1.0" encoding="UTF-8"?>
<svg width="800px" height="600px" viewBox="0 0 800 600" version="1.1" xmlns="http://www.w3.org/2000/svg" xmlns:xlink="http://www.w3.org/1999/xlink">
  <defs></defs>
  <g stroke="none" stroke-width="1" fill="none" fill-rule="evenodd">
    
    <ellipse stroke="#359A71" stroke-width="3" fill="#84A9D7" opacity="0.3948746732517529" stroke-opacity="0.8471862051862912" transform="rotate(-26.0 400 300)" cx="690" rx="120" cy="415" ry="33"></ellipse>
<ellipse stroke="#761B5A" stroke-width="4" fill="#C4C87B" opacity="0.585496163673431" stroke-opacity="0.9122021722246823" transform="rotate(-101.0 400 300)" cx="786" rx="262" cy="550" ry="89"></ellipse>
<ellipse stroke="#746768" stroke-width="3" fill="#94D145" opacity="0.046236523993134965" stroke-opacity="0.343185825760549" transform="rotate(-107.0 400 300)" cx="743" rx="286" cy="501" ry="121"></ellipse>
<rect stroke="#26704A" stroke-width="1" fill="#1CCD91" opacity="0.3028045123750105" stroke-opacity="0.7303451423198275" transform="rotate(11.0 400 300)" x="617" y="17" width="289" height="299"></rect>
<rect stroke="#703ABD" stroke-width="5" fill="#8A16A2" opacity="0.23615458247040744" stroke-opacity="0.9094987112644908" transform="rotate(144.0 400 300)" x="411" y="462" width="382" height="262"></rect>
<path stroke="#5861AB" stroke-width="1" fill="#C53906" opacity="0.03160387300399257" stroke-opacity="0.30487201885196075" transform="rotate(-90.0 400 300)" d="M 468,283  C 468,437 185,352 438,324 C 130,400 338,347 671,241 C 212,364 587,457 522,453 C 492,233 324,455 538,110 C 202,488 637,141 683,467 C 181,350 149,214 451,329 C 666,191 316,106 126,206 C 589,129 310,152 610,494 C 175,195 435,141 278,131 Z"></path>
<path stroke="#55B426" stroke-width="7" fill="#DC065C" opacity="0.4047615670757861" stroke-opacity="0.8822229321353791" transform="rotate(-127.0 400 300)" d="M 633,326  C 162,197 385,152 310,416 C 128,305 438,318 665,465 C 254,299 392,290 360,460 C 373,221 145,181 291,231 C 578,206 588,227 692,300 C 201,443 339,223 394,321 Z"></path>
<path stroke="#D34A7D" stroke-width="1" fill="#0B73D2" opacity="0.9138308875963884" stroke-opacity="0.9214219336227817" transform="rotate(123.0 400 300)" d="M 183,207  C 293,147 541,270 454,157 C 161,284 322,104 334,181 C 617,146 541,188 606,486 C 635,109 230,291 492,331 C 600,487 120,190 595,294 C 444,400 292,321 426,465 C 194,323 272,255 546,372 Z"></path>
<path stroke="#B75C28" stroke-width="6" fill="#844614" opacity="0.196279647048768" stroke-opacity="0.21269582423120212" transform="rotate(-38.0 400 300)" d="M 145,129  C 568,115 352,303 696,355 C 630,108 105,462 480,362 C 221,195 399,269 183,257 C 623,195 406,314 192,453 Z"></path>
<rect stroke="#A7273B" stroke-width="7" fill="#48A89C" opacity="0.6538587291393235" stroke-opacity="0.6130864386812435" transform="rotate(-69.0 400 300)" x="130" y="123" width="229" height="309"></rect>
<rect stroke="#89D57C" stroke-width="6" fill="#903445" opacity="0.30964995482955643" stroke-opacity="0.6231402304274526" transform="rotate(51.0 400 300)" x="641" y="553" width="289" height="102"></rect>

  </g>
</svg>
