<svg xmlns="http://www.w3.org/2000/svg" xmlns:xlink="http://www.w3.org/1999/xlink" width="800" height="600" version="1.1" viewBox="0 0 800 600"><g fill="none" fill-rule="evenodd" stroke="none" stroke-width="1"><ellipse cx="690" cy="415" fill="#84A9D7" stroke="#359A71" stroke-opacity=".847" stroke-width="3" opacity=".395" rx="120" ry="33" transform="rotate(-26.0 400 300)"/><ellipse cx="786" cy="550" fill="#C4C87B" stroke="#761B5A" stroke-opacity=".912" stroke-width="4" opacity=".585" rx="262" ry="89" transform="rotate(-101.0 400 300)"/><ellipse cx="743" cy="501" fill="#94D145" stroke="#746768" stroke-opacity=".343" stroke-width="3" opacity=".046" rx="286" ry="121" transform="rotate(-107.0 400 300)"/><rect width="289" height="299" x="617" y="17" fill="#1CCD91" stroke="#26704A" stroke-opacity=".73" stroke-width="1" opacity=".303" transform="rotate(11.0 400 300)"/><rect width="382" height="262" x="411" y="462" fill="#8A16A2" stroke="#703ABD" stroke-opacity=".909" stroke-width="5" opacity=".236" transform="rotate(144.0 400 300)"/><path fill="#C53906" stroke="#5861AB" stroke-opacity=".305" stroke-width="1" d="M 468,283 C 468,437 185,352 438,324 C 130,400 338,347 671,241 C 212,364 587,457 522,453 C 492,233 324,455 538,110 C 202,488 637,141 683,467 C 181,350 149,214 451,329 C 666,191 316,106 126,206 C 589,129 310,152 610,494 C 175,195 435,141 278,131 Z" opacity=".032" transform="rotate(-90.0 400 300)"/><path fill="#DC065C" stroke="#55B426" stroke-opacity=".882" stroke-width="7" d="M 633,326 C 162,197 385,152 310,416 C 128,305 438,318 665,465 C 254,299 392,290 360,460 C 373,221 145,181 291,231 C 578,206 588,227 692,300 C 201,443 339,223 394,321 Z" opacity=".405" transform="rotate(-127.0 400 300)"/><path fill="#0B73D2" stroke="#D34A7D" stroke-opacity=".921" stroke-width="1" d="M 183,207 C 293,147 541,270 454,157 C 161,284 322,104 334,181 C 617,146 541,188 606,486 C 635,109 230,291 492,331 C 600,487 120,190 595,294 C 444,400 292,321 426,465 C 194,323 272,255 546,372 Z" opacity=".914" transform="rotate(123.0 400 300)"/><path fill="#844614" stroke="#B75C28" stroke-opacity=".213" stroke-width="6" d="M 145,129 C 568,115 352,303 696,355 C 630,108 105,462 480,362 C 221,195 399,269 183,257 C 623,195 406,314 192,453 Z" opacity=".196" transform="rotate(-38.0 400 300)"/><rect width="229" height="309" x="130" y="123" fill="#48A89C" stroke="#A7273B" stroke-opacity=".613" stroke-width="7" opacity=".654" transform="rotate(-69.0 400 300)"/><rect width="289" height="102" x="641" y="553" fill="#903445" stroke="#89D57C" stroke-opacity=".623" stroke-width="6" opacity=".31" transform="rotate(51.0 400 300)"/></g></svg>