<?xml version="1.0" encoding="UTF-8"?>
<svg width="800px" height="600px" viewBox="0 0 800 600" version="1.1" xmlns="http://www.w3.org/2000/svg" xmlns:xlink="http://www.w3.org/1999/xlink">
  <defs></defs>
  <g stroke="none" stroke-width="1" fill="none" fill-rule="evenodd">
    
    <path stroke="#f559a0" stroke-width="3" fill="#0fa6d8" opacity="0.49669439997176007" stroke-opacity="0.8344425436750577" transform="rotate(-95.0 400 300)" d="M 405,358  C 634,219 481,335 520,254 C 403,121 664,349 521,378 C 665,405 529,168 149,383 C 475,124 422,332 124,120 C 212,414 638,332 290,328 C 255,390 463,343 141,298 C 208,363 502,115 325,256 C 134,477 255,409 282,434 Z"></path>
<path stroke="#2cd3f3" stroke-width="2" fill="#02eb6b" opacity="0.7273089612261918" stroke-opacity="0.33626978333593893" transform="rotate(-161.0 400 300)" d="M 206,338  C 698,111 378,331 415,413 C 522,324 497,204 309,107 C 530,192 138,459 669,478 C 545,299 138,408 548,228 C 348,388 103,416 419,159 C 182,482 288,161 521,262 C 645,395 573,282 197,407 C 454,257 520,417 695,400 Z"></path>
<path stroke="#fe9225" stroke-width="1" fill="#fe9225" opacity="0.6904186205643936" stroke-opacity="0.05109312494971874" transform="rotate(-63.0 400 300)" d="M 478,165  C 351,480 563,200 616,130 C 520,175 175,237 453,117 C 613,249 329,303 418,364 C 182,352 643,345 489,312 C 219,296 603,418 157,165 C 472,484 239,307 126,173 Z"></path>
<path stroke="#fe9225" stroke-width="6" fill="#fe9225" opacity="0.14294869185626152" stroke-opacity="0.9304640653613505" transform="rotate(174.0 400 300)" d="M 249,296  C 457,125 182,109 159,482 C 218,251 271,174 408,459 C 410,249 536,370 522,129 C 167,387 635,307 499,268 C 409,410 339,140 235,344 C 186,196 144,459 122,115 Z"></path>
<path stroke="#f559a0" stroke-width="6" fill="#2cd3f3" opacity="0.3201842489533627" stroke-opacity="0.016587524032555097" transform="rotate(156.0 400 300)" d="M 600,375  C 104,193 361,458 450,107 C 313,196 447,263 159,368 C 320,248 124,135 172,459 C 452,123 667,141 201,244 Z"></path>
<path stroke="#0fa6d8" stroke-width="7" fill="#fe9225" opacity="0.5609019451481971" stroke-opacity="0.9004594933427746" transform="rotate(76.0 400 300)" d="M 406,145  C 285,386 398,189 526,307 C 616,442 412,308 309,123 C 526,279 391,183 403,131 C 362,113 219,194 209,455 C 536,193 433,293 151,324 C 591,329 251,135 177,223 C 582,295 120,159 297,347 C 673,124 549,263 582,128 Z"></path>
<path stroke="#2cd3f3" stroke-width="7" fill="#0fa6d8" opacity="0.9750896464651144" stroke-opacity="0.9852810955747494" transform="rotate(-37.0 400 300)" d="M 388,186  C 681,498 589,228 505,270 C 440,427 354,446 491,496 C 578,313 234,433 138,279 C 383,328 148,291 617,116 C 174,287 225,286 580,367 C 299,413 248,307 492,205 C 382,113 518,316 682,240 C 540,260 282,199 159,161 C 145,425 334,125 393,448 C 192,449 693,349 267,186 C 203,396 277,250 387,233 Z"></path>
<path stroke="#02eb6b" stroke-width="7" fill="#02eb6b" opacity="0.43723147240881627" stroke-opacity="0.49404631300976226" transform="rotate(-28.0 400 300)" d="M 517,157  C 611,349 399,268 307,118 C 120,463 487,480 471,466 C 495,318 486,272 192,104 C 480,387 382,449 293,457 C 167,470 348,363 537,194 C 693,162 296,474 293,410 C 105,110 596,133 681,363 C 439,288 209,249 421,464 C 390,334 383,405 639,398 Z"></path>
<path stroke="#02eb6b" stroke-width="4" fill="#fe9225" opacity="0.49335649157102224" stroke-opacity="0.5690364208428071" transform="rotate(2.0 400 300)" d="M 685,417  C 177,435 551,279 476,106 C 455,377 416,144 216,109 C 528,467 505,377 645,267 C 164,177 444,287 508,353 C 306,354 410,478 599,458 C 197,448 636,243 654,364 Z"></path>
<path stroke="#fe9225" stroke-width="5" fill="#0fa6d8" opacity="0.8177469303764799" stroke-opacity="0.13950021288787948" transform="rotate(-173.0 400 300)" d="M 119,194  C 690,470 224,336 686,358 C 503,128 381,147 541,269 C 394,299 319,303 430,399 C 555,121 524,421 518,486 Z"></path>

  </g>
</svg>
