<?xml version="1.0" encoding="UTF-8"?>
<svg width="800px" height="600px" viewBox="0 0 800 600" version="1.1" xmlns="http://www.w3.org/2000/svg" xmlns:xlink="http://www.w3.org/1999/xlink">
  <defs></defs>
  <g stroke="none" stroke-width="1" fill="none" fill-rule="evenodd">
    
    <path stroke="#ed2b2c" stroke-width="4" fill="#2b55f7" opacity="0.14366317900886338" stroke-opacity="0.6817874189084923" transform="rotate(-92.0 400 300)" d="M 356,402  C 602,118 560,470 445,300 C 292,272 505,183 365,310 C 158,297 476,160 158,139 C 502,395 669,355 456,350 C 493,110 352,294 675,407 C 319,203 292,235 115,387 C 336,108 456,452 144,429 C 385,124 247,265 689,451 C 143,188 319,169 385,334 C 512,342 651,107 583,315 C 515,192 339,477 536,386 Z"></path>
<path stroke="#2b55f7" stroke-width="3" fill="#31a06b" opacity="0.07551085500236462" stroke-opacity="0.9710793215978935" transform="rotate(166.0 400 300)" d="M 685,229  C 376,161 118,365 363,178 C 336,124 524,121 329,391 C 390,231 436,141 682,126 C 391,170 653,498 308,338 C 506,363 397,283 574,418 C 457,126 290,214 608,156 C 465,436 462,272 430,205 C 576,122 643,143 320,421 Z"></path>
<path stroke="#f27630" stroke-width="2" fill="#f9d84b" opacity="0.8744334730165698" stroke-opacity="0.8716314171415411" transform="rotate(-55.0 400 300)" d="M 378,111  C 286,277 462,358 450,252 C 249,210 390,404 224,280 C 641,199 147,373 516,451 C 455,448 486,386 302,309 C 592,424 442,302 560,179 C 370,472 136,315 230,256 C 361,439 501,315 163,391 C 653,184 523,381 272,333 C 251,180 391,350 393,286 C 345,439 279,256 362,128 C 112,479 615,225 340,459 Z"></path>
<path stroke="#31a06b" stroke-width="3" fill="#f9d84b" opacity="0.5922548042065311" stroke-opacity="0.17027215045079905" transform="rotate(67.0 400 300)" d="M 141,430  C 464,206 312,434 445,355 C 520,357 591,380 157,293 C 123,103 405,439 578,433 C 307,253 260,367 694,158 C 347,494 221,139 569,231 C 104,369 254,198 173,379 C 511,290 146,143 435,124 C 494,342 182,289 306,339 C 253,373 131,320 331,204 Z"></path>
<path stroke="#f9d84b" stroke-width="1" fill="#f9d84b" opacity="0.021783280062400233" stroke-opacity="0.8303623060731831" transform="rotate(-137.0 400 300)" d="M 466,479  C 162,471 291,300 575,272 C 485,113 410,390 117,281 C 279,339 285,371 664,131 C 644,347 628,291 650,285 C 477,307 137,263 434,148 C 187,475 178,406 146,167 C 376,418 581,433 134,479 C 441,392 138,421 449,320 Z"></path>
<path stroke="#2b55f7" stroke-width="2" fill="#2b55f7" opacity="0.07912978632749226" stroke-opacity="0.9126099609078657" transform="rotate(-3.0 400 300)" d="M 305,156  C 277,387 641,262 194,482 C 684,426 306,406 624,429 C 294,298 638,139 470,326 C 317,140 363,358 652,392 Z"></path>
<path stroke="#ed2b2c" stroke-width="3" fill="#f27630" opacity="0.27812922381287253" stroke-opacity="0.9727494173988571" transform="rotate(10.0 400 300)" d="M 444,124  C 405,186 478,260 392,286 C 278,127 621,143 591,231 C 625,480 581,462 636,138 C 235,156 275,325 148,488 C 239,435 234,242 238,218 Z"></path>
<path stroke="#f27630" stroke-width="7" fill="#2b55f7" opacity="0.1354758197160509" stroke-opacity="0.23500829590065725" transform="rotate(-52.0 400 300)" d="M 440,246  C 688,273 437,286 507,441 C 411,276 279,180 479,374 C 549,322 392,477 141,187 C 378,224 673,483 299,121 C 679,267 518,370 263,481 C 387,488 334,325 369,315 C 203,137 647,153 283,419 C 183,417 502,374 190,227 C 478,494 283,329 561,330 Z"></path>
<path stroke="#ed2b2c" stroke-width="3" fill="#31a06b" opacity="0.7677271048497342" stroke-opacity="0.4866372818003606" transform="rotate(-150.0 400 300)" d="M 330,229  C 596,248 436,425 690,124 C 222,331 236,221 176,496 C 668,298 296,383 150,310 C 141,350 550,306 377,244 C 672,237 198,179 315,299 C 484,213 647,317 284,366 C 128,247 300,461 614,378 C 384,328 385,257 551,336 C 527,173 318,401 644,117 C 642,227 628,258 447,124 Z"></path>
<path stroke="#2b55f7" stroke-width="7" fill="#f9d84b" opacity="0.4777983709932393" stroke-opacity="0.27356521716056115" transform="rotate(-105.0 400 300)" d="M 432,250  C 154,408 449,283 140,369 C 457,487 584,423 300,260 C 180,363 287,107 133,418 C 433,204 254,194 414,361 C 604,498 293,493 185,264 C 295,178 552,264 558,115 Z"></path>
<path stroke="#f27630" stroke-width="1" fill="#f27630" opacity="0.6055930777428565" stroke-opacity="0.7897329682119181" transform="rotate(-108.0 400 300)" d="M 197,157  C 393,495 479,155 254,346 C 493,390 159,109 638,158 C 526,136 647,283 441,206 C 317,238 166,290 115,463 C 572,204 553,355 229,492 C 317,246 123,295 564,303 C 414,195 658,259 422,479 C 222,339 626,383 483,359 C 453,360 538,121 189,429 Z"></path>

  </g>
</svg>
