<?xml version="1.0" encoding="UTF-8"?>
<svg width="800px" height="600px" viewBox="0 0 800 600" version="1.1" xmlns="http://www.w3.org/2000/svg" xmlns:xlink="http://www.w3.org/1999/xlink">
  <defs></defs>
  <g stroke="none" stroke-width="1" fill="none" fill-rule="evenodd">
    
    <polygon stroke="#DD7547" stroke-width="2" fill="#25A579" opacity="0.9532102020251672" stroke-opacity="0.8179999996388481" transform="rotate(30.0 400 300)" points="683 588 219 190 330 353 671 51 570 517 110 566 652 473 708 475 "></polygon>
<path stroke="#51A095" stroke-width="4" fill="#D8C927" opacity="0.4338729115721695" stroke-opacity="0.3098860579569898" transform="rotate(119.0 400 300)" d="M 409,348  C 192,166 429,244 304,400 C 345,171 251,284 556,239 C 335,167 333,177 108,166 C 441,104 413,234 152,157 C 300,143 696,160 137,208 C 673,435 430,389 322,437 C 553,420 415,449 105,103 Z"></path>
<rect stroke="#4C9588" stroke-width="6" fill="#1AD343" opacity="0.7813583705431528" stroke-opacity="0.23704011886888188" transform="rotate(-94.0 400 300)" x="165" y="167" width="222" height="123"></rect>
<polygon stroke="#AC2C0D" stroke-width="3" fill="#61A35A" opacity="0.20189468003739855" stroke-opacity="0.7945978877478288" transform="rotate(-121.0 400 300)" points="106 245 279 449 317 459 583 214 602 591 472 189 599 519 "></polygon>
<path stroke="#202AB5" stroke-width="6" fill="#6AD33A" opacity="0.3912892465673625" stroke-opacity="0.8505966016100422" transform="rotate(77.0 400 300)" d="M 587,363  C 519,189 588,375 430,479 C 295,191 432,233 208,273 C 417,457 684,264 234,401 C 571,328 653,462 122,359 C 632,443 163,417 502,203 C 269,294 699,307 456,251 C 530,340 492,310 633,342 C 347,105 694,371 340,388 Z"></path>
<rect stroke="#645C93" stroke-width="6" fill="#D6176C" opacity="0.7196464565145057" stroke-opacity="0.48542143663553416" transform="rotate(175.0 400 300)" x="409" y="419" width="188" height="29"></rect>
<polygon stroke="#87274C" stroke-width="2" fill="#B03139" opacity="0.49668508078269386" stroke-opacity="0.018624335170555156" transform="rotate(25.0 400 300)" points="498 491 398 399 705 475 371 451 164 523 547 509 "></polygon>
<rect stroke="#99235C" stroke-width="6" fill="#CB6042" opacity="0.4344518086685484" stroke-opacity="0.6487145438924877" transform="rotate(-22.0 400 300)" x="389" y="343" width="131" height="87"></rect>
<ellipse stroke="#481724" stroke-width="6" fill="#34BD95" opacity="0.022078875359380957" stroke-opacity="0.23206309245904658" transform="rotate(52.0 400 300)" cx="356" rx="98" cy="490" ry="307"></ellipse>
<polygon stroke="#00B327" stroke-width="7" fill="#658662" opacity="0.7041120675754119" stroke-opacity="0.3172979704651419" transform="rotate(-151.0 400 300)" points="727 520 595 454 284 469 141 6 544 360 396 188 726 596 "></polygon>
<rect stroke="#52D496" stroke-width="1" fill="#AC8D64" opacity="0.03082286966176273" stroke-opacity="0.18317047693003502" transform="rotate(16.0 400 300)" x="266" y="485" width="23" height="317"></rect>

  </g>
</svg>
