<svg xmlns="http://www.w3.org/2000/svg" xmlns:xlink="http://www.w3.org/1999/xlink" width="800" height="600" version="1.1" viewBox="0 0 800 600"><g fill="none" fill-rule="evenodd" stroke="none" stroke-width="1"><polygon fill="#25A579" stroke="#DD7547" stroke-opacity=".818" stroke-width="2" points="683 588 219 190 330 353 671 51 570 517 110 566 652 473 708 475" opacity=".953" transform="rotate(30.0 400 300)"/><path fill="#D8C927" stroke="#51A095" stroke-opacity=".31" stroke-width="4" d="M 409,348 C 192,166 429,244 304,400 C 345,171 251,284 556,239 C 335,167 333,177 108,166 C 441,104 413,234 152,157 C 300,143 696,160 137,208 C 673,435 430,389 322,437 C 553,420 415,449 105,103 Z" opacity=".434" transform="rotate(119.0 400 300)"/><rect width="222" height="123" x="165" y="167" fill="#1AD343" stroke="#4C9588" stroke-opacity=".237" stroke-width="6" opacity=".781" transform="rotate(-94.0 400 300)"/><polygon fill="#61A35A" stroke="#AC2C0D" stroke-opacity=".795" stroke-width="3" points="106 245 279 449 317 459 583 214 602 591 472 189 599 519" opacity=".202" transform="rotate(-121.0 400 300)"/><path fill="#6AD33A" stroke="#202AB5" stroke-opacity=".851" stroke-width="6" d="M 587,363 C 519,189 588,375 430,479 C 295,191 432,233 208,273 C 417,457 684,264 234,401 C 571,328 653,462 122,359 C 632,443 163,417 502,203 C 269,294 699,307 456,251 C 530,340 492,310 633,342 C 347,105 694,371 340,388 Z" opacity=".391" transform="rotate(77.0 400 300)"/><rect width="188" height="29" x="409" y="419" fill="#D6176C" stroke="#645C93" stroke-opacity=".485" stroke-width="6" opacity=".72" transform="rotate(175.0 400 300)"/><polygon fill="#B03139" stroke="#87274C" stroke-opacity=".019" stroke-width="2" points="498 491 398 399 705 475 371 451 164 523 547 509" opacity=".497" transform="rotate(25.0 400 300)"/><rect width="131" height="87" x="389" y="343" fill="#CB6042" stroke="#99235C" stroke-opacity=".649" stroke-width="6" opacity=".434" transform="rotate(-22.0 400 300)"/><ellipse cx="356" cy="490" fill="#34BD95" stroke="#481724" stroke-opacity=".232" stroke-width="6" opacity=".022" rx="98" ry="307" transform="rotate(52.0 400 300)"/><polygon fill="#658662" stroke="#00B327" stroke-opacity=".317" stroke-width="7" points="727 520 595 454 284 469 141 6 544 360 396 188 726 596" opacity=".704" transform="rotate(-151.0 400 300)"/><rect width="23" height="317" x="266" y="485" fill="#AC8D64" stroke="#52D496" stroke-opacity=".183" stroke-width="1" opacity=".031" transform="rotate(16.0 400 300)"/></g></svg>