<svg xmlns="http://www.w3.org/2000/svg" xmlns:xlink="http://www.w3.org/1999/xlink" width="800" height="600" version="1.1" viewBox="0 0 800 600"><g fill="none" fill-rule="evenodd" stroke="none" stroke-width="1"><path fill="#987362" stroke="#3ACC3B" stroke-opacity=".045" stroke-width="5" d="M 324,284 C 461,472 231,434 577,136 C 367,313 521,110 645,325 C 411,487 530,444 624,373 C 456,135 227,195 616,393 C 621,249 551,158 522,102 C 539,417 484,241 333,345 C 116,241 475,440 649,329 C 547,217 646,194 696,106 C 577,293 233,394 517,320 C 144,118 169,177 680,288 Z" opacity=".07" transform="rotate(30.0 400 300)"/><rect width="71" height="186" x="341" y="381" fill="#A59347" stroke="#C7BCBA" stroke-opacity=".501" stroke-width="6" opacity=".028" transform="rotate(45.0 400 300)"/><path fill="#AB6743" stroke="#982626" stroke-opacity=".015" stroke-width="5" d="M 692,115 C 633,378 142,230 160,412 C 404,296 541,217 282,247 C 173,457 334,196 131,250 C 434,310 234,374 325,380 C 680,394 402,257 677,196 C 178,434 407,393 513,271 C 679,285 465,342 219,481 C 424,422 339,238 529,234 C 256,330 244,206 377,204 C 212,349 577,481 375,445 Z" opacity=".831" transform="rotate(150.0 400 300)"/><ellipse cx="202" cy="564" fill="#394BD0" stroke="#090C8D" stroke-opacity=".799" stroke-width="3" opacity=".25" rx="219" ry="326" transform="rotate(137.0 400 300)"/><polygon fill="#5DD659" stroke="#B7A8DD" stroke-opacity=".904" stroke-width="5" points="500 105 210 202 18 542 756 561 738 558 366 3 152 560 272 591" opacity=".192" transform="rotate(-152.0 400 300)"/><ellipse cx="97" cy="214" fill="#C50D6A" stroke="#677210" stroke-opacity=".659" stroke-width="1" opacity=".354" rx="99" ry="298" transform="rotate(40.0 400 300)"/><rect width="171" height="327" x="240" y="331" fill="#C2333A" stroke="#3AD9BA" stroke-opacity=".18" stroke-width="3" opacity=".558" transform="rotate(59.0 400 300)"/><ellipse cx="131" cy="466" fill="#528714" stroke="#7C379A" stroke-opacity=".318" stroke-width="2" opacity=".736" rx="311" ry="33" transform="rotate(163.0 400 300)"/><ellipse cx="383" cy="451" fill="#640502" stroke="#66BB1D" stroke-opacity=".981" stroke-width="6" opacity=".421" rx="186" ry="60" transform="rotate(10.0 400 300)"/></g></svg>