<svg xmlns="http://www.w3.org/2000/svg" xmlns:xlink="http://www.w3.org/1999/xlink" width="800" height="600" version="1.1" viewBox="0 0 800 600"><g fill="none" fill-rule="evenodd" stroke="none" stroke-width="1"><ellipse cx="20" cy="198" fill="#31a06b" stroke="#2b55f7" stroke-opacity=".683" stroke-width="5" opacity=".657" rx="74" ry="144" transform="rotate(-38.0 400 300)"/><path fill="#f9d84b" stroke="#2b55f7" stroke-opacity=".989" stroke-width="2" d="M 136,105 C 608,267 600,285 604,478 C 446,225 150,228 283,164 C 544,297 362,277 543,439 C 160,482 357,492 146,297 C 430,127 491,296 662,252 Z" opacity=".972" transform="rotate(173.0 400 300)"/><path fill="#2b55f7" stroke="#f27630" stroke-opacity=".37" stroke-width="2" d="M 697,328 C 188,253 111,179 294,133 C 106,158 392,338 467,500 C 524,350 297,283 146,366 C 604,188 558,111 360,493 C 205,138 178,114 161,219 C 191,496 540,197 374,500 C 125,116 498,200 176,169 C 630,299 519,436 588,302 C 660,221 638,494 503,336 Z" opacity=".318" transform="rotate(-73.0 400 300)"/><path fill="#ed2b2c" stroke="#f27630" stroke-opacity=".076" stroke-width="2" d="M 620,187 C 455,378 182,329 207,252 C 485,225 614,229 297,244 C 265,222 336,383 220,221 C 402,193 424,464 153,384 C 327,401 534,185 318,405 C 167,384 456,285 289,162 C 480,118 147,196 208,230 C 386,477 223,446 255,170 C 465,137 231,218 401,469 C 564,305 117,301 195,195 Z" opacity=".267" transform="rotate(-124.0 400 300)"/><path fill="#2b55f7" stroke="#f27630" stroke-opacity=".985" stroke-width="2" d="M 489,321 C 376,305 625,208 219,342 C 235,157 292,367 269,478 C 412,443 513,192 645,322 C 593,323 613,214 292,196 Z" opacity=".624" transform="rotate(-41.0 400 300)"/><rect width="367" height="99" x="691" y="250" fill="#31a06b" stroke="#f27630" stroke-opacity=".245" stroke-width="2" opacity=".913" transform="rotate(-175.0 400 300)"/><ellipse cx="122" cy="590" fill="#2b55f7" stroke="#f9d84b" stroke-opacity=".187" stroke-width="7" opacity=".244" rx="99" ry="67" transform="rotate(80.0 400 300)"/><path fill="#ed2b2c" stroke="#31a06b" stroke-opacity=".144" stroke-width="3" d="M 335,275 C 427,233 405,441 196,379 C 470,304 232,174 255,153 C 687,213 422,447 524,379 C 430,391 236,192 673,223 C 691,232 476,489 561,338 C 436,290 610,239 669,178 C 227,101 103,290 180,332 Z" opacity=".503" transform="rotate(-101.0 400 300)"/><ellipse cx="742" cy="295" fill="#f27630" stroke="#2b55f7" stroke-opacity=".977" stroke-width="7" opacity=".533" rx="220" ry="325" transform="rotate(54.0 400 300)"/><path fill="#31a06b" stroke="#f9d84b" stroke-opacity=".434" stroke-width="7" d="M 297,187 C 372,187 447,332 218,126 C 135,154 454,141 458,250 C 636,208 440,283 334,296 C 194,156 368,303 367,487 C 501,108 120,128 190,210 C 258,190 528,163 337,214 C 444,186 369,343 289,259 C 479,399 183,466 427,117 C 265,263 292,496 511,167 Z" opacity=".002" transform="rotate(-100.0 400 300)"/><rect width="256" height="292" x="769" y="168" fill="#f27630" stroke="#f9d84b" stroke-opacity=".788" stroke-width="4" opacity=".832" transform="rotate(165.0 400 300)"/></g></svg>