<?xml version="1.0" encoding="UTF-8"?>
<svg width="800px" height="600px" viewBox="0 0 800 600" version="1.1" xmlns="http://www.w3.org/2000/svg" xmlns:xlink="http://www.w3.org/1999/xlink">
  <defs></defs>
  <g stroke="none" stroke-width="1" fill="none" fill-rule="evenodd">
    
    <ellipse stroke="#2b55f7" stroke-width="5" fill="#31a06b" opacity="0.6571586137558764" stroke-opacity="0.6828005962644937" transform="rotate(-38.0 400 300)" cx="20" rx="74" cy="198" ry="144"></ellipse>
<path stroke="#2b55f7" stroke-width="2" fill="#f9d84b" opacity="0.9723189972553938" stroke-opacity="0.9885085454366884" transform="rotate(173.0 400 300)" d="M 136,105  C 608,267 600,285 604,478 C 446,225 150,228 283,164 C 544,297 362,277 543,439 C 160,482 357,492 146,297 C 430,127 491,296 662,252 Z"></path>
<path stroke="#f27630" stroke-width="2" fill="#2b55f7" opacity="0.3178758586593428" stroke-opacity="0.36998324119343073" transform="rotate(-73.0 400 300)" d="M 697,328  C 188,253 111,179 294,133 C 106,158 392,338 467,500 C 524,350 297,283 146,366 C 604,188 558,111 360,493 C 205,138 178,114 161,219 C 191,496 540,197 374,500 C 125,116 498,200 176,169 C 630,299 519,436 588,302 C 660,221 638,494 503,336 Z"></path>
<path stroke="#f27630" stroke-width="2" fill="#ed2b2c" opacity="0.26716424189711946" stroke-opacity="0.07587884814286676" transform="rotate(-124.0 400 300)" d="M 620,187  C 455,378 182,329 207,252 C 485,225 614,229 297,244 C 265,222 336,383 220,221 C 402,193 424,464 153,384 C 327,401 534,185 318,405 C 167,384 456,285 289,162 C 480,118 147,196 208,230 C 386,477 223,446 255,170 C 465,137 231,218 401,469 C 564,305 117,301 195,195 Z"></path>
<path stroke="#f27630" stroke-width="2" fill="#2b55f7" opacity="0.6239701171411627" stroke-opacity="0.9854139380145686" transform="rotate(-41.0 400 300)" d="M 489,321  C 376,305 625,208 219,342 C 235,157 292,367 269,478 C 412,443 513,192 645,322 C 593,323 613,214 292,196 Z"></path>
<rect stroke="#f27630" stroke-width="2" fill="#31a06b" opacity="0.9133165355499465" stroke-opacity="0.24488044784707272" transform="rotate(-175.0 400 300)" x="691" y="250" width="367" height="99"></rect>
<ellipse stroke="#f9d84b" stroke-width="7" fill="#2b55f7" opacity="0.24449338568312817" stroke-opacity="0.18684012308002304" transform="rotate(80.0 400 300)" cx="122" rx="99" cy="590" ry="67"></ellipse>
<path stroke="#31a06b" stroke-width="3" fill="#ed2b2c" opacity="0.5025876326824215" stroke-opacity="0.14352226546841929" transform="rotate(-101.0 400 300)" d="M 335,275  C 427,233 405,441 196,379 C 470,304 232,174 255,153 C 687,213 422,447 524,379 C 430,391 236,192 673,223 C 691,232 476,489 561,338 C 436,290 610,239 669,178 C 227,101 103,290 180,332 Z"></path>
<ellipse stroke="#2b55f7" stroke-width="7" fill="#f27630" opacity="0.5332096664638953" stroke-opacity="0.9767744252468579" transform="rotate(54.0 400 300)" cx="742" rx="220" cy="295" ry="325"></ellipse>
<path stroke="#f9d84b" stroke-width="7" fill="#31a06b" opacity="0.001955866750771207" stroke-opacity="0.434363011454931" transform="rotate(-100.0 400 300)" d="M 297,187  C 372,187 447,332 218,126 C 135,154 454,141 458,250 C 636,208 440,283 334,296 C 194,156 368,303 367,487 C 501,108 120,128 190,210 C 258,190 528,163 337,214 C 444,186 369,343 289,259 C 479,399 183,466 427,117 C 265,263 292,496 511,167 Z"></path>
<rect stroke="#f9d84b" stroke-width="4" fill="#f27630" opacity="0.832233620224762" stroke-opacity="0.787981828108318" transform="rotate(165.0 400 300)" x="769" y="168" width="256" height="292"></rect>

  </g>
</svg>
