<svg xmlns="http://www.w3.org/2000/svg" xmlns:xlink="http://www.w3.org/1999/xlink" width="800" height="600" version="1.1" viewBox="0 0 800 600"><g fill="none" fill-rule="evenodd" stroke="none" stroke-width="1"><ellipse cx="593" cy="465" fill="#31a06b" stroke="#31a06b" stroke-opacity=".167" stroke-width="7" opacity=".181" rx="322" ry="52" transform="rotate(2.0 400 300)"/><rect width="158" height="277" x="681" y="33" fill="#31a06b" stroke="#f9d84b" stroke-opacity=".158" stroke-width="7" opacity=".398" transform="rotate(142.0 400 300)"/><rect width="303" height="40" x="624" y="255" fill="#31a06b" stroke="#31a06b" stroke-opacity=".276" stroke-width="5" opacity=".928" transform="rotate(29.0 400 300)"/><ellipse cx="516" cy="549" fill="#31a06b" stroke="#f27630" stroke-opacity=".452" stroke-width="3" opacity=".718" rx="429" ry="280" transform="rotate(-131.0 400 300)"/><ellipse cx="121" cy="593" fill="#ed2b2c" stroke="#f9d84b" stroke-opacity=".248" stroke-width="6" opacity=".797" rx="349" ry="44" transform="rotate(-5.0 400 300)"/><ellipse cx="413" cy="534" fill="#2b55f7" stroke="#ed2b2c" stroke-opacity=".867" stroke-width="7" opacity=".983" rx="341" ry="73" transform="rotate(13.0 400 300)"/><path fill="#31a06b" stroke="#2b55f7" stroke-opacity=".169" stroke-width="3" d="M 189,258 C 330,250 663,455 185,429 C 643,387 414,205 362,222 C 194,286 653,491 153,412 C 242,473 340,184 602,489 C 303,354 494,117 397,265 C 354,256 351,253 676,258 Z" opacity=".671" transform="rotate(-126.0 400 300)"/><polygon fill="#31a06b" stroke="#31a06b" stroke-opacity=".529" stroke-width="7" points="399 129 659 128 11 41 785 127 457 403" opacity=".75" transform="rotate(170.0 400 300)"/><ellipse cx="379" cy="146" fill="#ed2b2c" stroke="#f9d84b" stroke-opacity=".234" stroke-width="1" opacity=".617" rx="269" ry="117" transform="rotate(21.0 400 300)"/><rect width="318" height="72" x="207" y="430" fill="#ed2b2c" stroke="#f27630" stroke-opacity=".303" stroke-width="5" opacity=".219" transform="rotate(-46.0 400 300)"/></g></svg>