<?xml version="1.0" encoding="UTF-8"?>
<svg width="800px" height="600px" viewBox="0 0 800 600" version="1.1" xmlns="http://www.w3.org/2000/svg" xmlns:xlink="http://www.w3.org/1999/xlink">
  <defs></defs>
  <g stroke="none" stroke-width="1" fill="none" fill-rule="evenodd">
    
    <ellipse stroke="#31a06b" stroke-width="7" fill="#31a06b" opacity="0.18144951525570582" stroke-opacity="0.16733129244869765" transform="rotate(2.0 400 300)" cx="593" rx="322" cy="465" ry="52"></ellipse>
<rect stroke="#f9d84b" stroke-width="7" fill="#31a06b" opacity="0.39797175597767914" stroke-opacity="0.15841835261675152" transform="rotate(142.0 400 300)" x="681" y="33" width="158" height="277"></rect>
<rect stroke="#31a06b" stroke-width="5" fill="#31a06b" opacity="0.9284824114893553" stroke-opacity="0.27552209311496734" transform="rotate(29.0 400 300)" x="624" y="255" width="303" height="40"></rect>
<ellipse stroke="#f27630" stroke-width="3" fill="#31a06b" opacity="0.7180003360962015" stroke-opacity="0.45216707722708155" transform="rotate(-131.0 400 300)" cx="516" rx="429" cy="549" ry="280"></ellipse>
<ellipse stroke="#f9d84b" stroke-width="6" fill="#ed2b2c" opacity="0.7971323696979596" stroke-opacity="0.2481448208608527" transform="rotate(-5.0 400 300)" cx="121" rx="349" cy="593" ry="44"></ellipse>
<ellipse stroke="#ed2b2c" stroke-width="7" fill="#2b55f7" opacity="0.9825662472011918" stroke-opacity="0.8666298837687595" transform="rotate(13.0 400 300)" cx="413" rx="341" cy="534" ry="73"></ellipse>
<path stroke="#2b55f7" stroke-width="3" fill="#31a06b" opacity="0.6713599162041235" stroke-opacity="0.16922891856124903" transform="rotate(-126.0 400 300)" d="M 189,258  C 330,250 663,455 185,429 C 643,387 414,205 362,222 C 194,286 653,491 153,412 C 242,473 340,184 602,489 C 303,354 494,117 397,265 C 354,256 351,253 676,258 Z"></path>
<polygon stroke="#31a06b" stroke-width="7" fill="#31a06b" opacity="0.7503711461221217" stroke-opacity="0.5285235663887764" transform="rotate(170.0 400 300)" points="399 129 659 128 11 41 785 127 457 403 "></polygon>
<ellipse stroke="#f9d84b" stroke-width="1" fill="#ed2b2c" opacity="0.6173898406766953" stroke-opacity="0.2337106103807099" transform="rotate(21.0 400 300)" cx="379" rx="269" cy="146" ry="117"></ellipse>
<rect stroke="#f27630" stroke-width="5" fill="#ed2b2c" opacity="0.21870122817711204" stroke-opacity="0.30338936041777853" transform="rotate(-46.0 400 300)" x="207" y="430" width="318" height="72"></rect>

  </g>
</svg>
