<svg xmlns="http://www.w3.org/2000/svg" xmlns:xlink="http://www.w3.org/1999/xlink" width="800" height="600" version="1.1" viewBox="0 0 800 600"><g fill="none" fill-rule="evenodd" stroke="none" stroke-width="1"><polygon fill="#2878B0" stroke="#968380" stroke-opacity=".826" stroke-width="4" points="176 274 565 258 206 213 583 119 107 375" opacity=".534" transform="rotate(-128.0 400 300)"/><path fill="#63268A" stroke="#8AA9C9" stroke-opacity=".907" stroke-width="3" d="M 404,297 C 220,183 415,201 376,266 C 505,476 295,401 287,486 C 132,304 254,332 431,478 C 434,120 503,132 190,146 C 442,263 484,411 336,384 C 441,195 117,321 397,122 Z" opacity=".098" transform="rotate(-77.0 400 300)"/><path fill="#D61018" stroke="#3D31A0" stroke-opacity=".833" stroke-width="1" d="M 334,378 C 686,171 570,135 313,334 C 564,299 124,225 145,221 C 366,313 343,367 514,103 C 408,433 363,202 559,121 C 278,464 391,282 330,251 C 690,454 195,163 400,156 C 500,400 531,132 553,385 C 222,491 147,130 166,204 C 190,464 543,291 436,343 C 646,132 271,340 363,482 Z" opacity=".842" transform="rotate(-172.0 400 300)"/><polygon fill="#6DD71D" stroke="#D9A33A" stroke-opacity=".79" stroke-width="7" points="742 54 607 272 503 183 325 34 525 90" opacity=".514" transform="rotate(-14.0 400 300)"/><rect width="105" height="37" x="542" y="462" fill="#35C4B9" stroke="#5D5565" stroke-opacity=".119" stroke-width="6" opacity=".88" transform="rotate(-52.0 400 300)"/><rect width="332" height="150" x="235" y="9" fill="#9CC0D1" stroke="#C45886" stroke-opacity=".862" stroke-width="4" opacity=".262" transform="rotate(161.0 400 300)"/></g></svg>