<svg xmlns="http://www.w3.org/2000/svg" xmlns:xlink="http://www.w3.org/1999/xlink" width="800" height="600" version="1.1" viewBox="0 0 800 600"><g fill="none" fill-rule="evenodd" stroke="none" stroke-width="1"><path fill="#ed2b2c" stroke="#31a06b" stroke-opacity=".62" stroke-width="5" d="M 379,256 C 558,395 353,146 257,375 C 592,176 247,466 160,104 C 434,265 555,347 321,427 C 228,105 254,374 327,128 C 510,481 251,473 103,465 C 660,458 677,494 113,425 C 205,130 359,402 390,179 C 268,493 338,340 585,255 C 447,266 213,412 503,332 C 118,113 220,473 354,283 C 528,349 109,124 569,337 Z" opacity=".389" transform="rotate(131.0 400 300)"/><path fill="#31a06b" stroke="#ed2b2c" stroke-opacity=".183" stroke-width="3" d="M 334,317 C 469,296 125,308 249,432 C 620,497 291,240 301,186 C 452,459 103,145 475,119 C 262,268 423,328 450,105 C 125,360 367,284 456,339 C 288,427 654,211 345,315 C 553,404 305,497 428,461 C 539,180 175,381 645,231 C 377,483 275,444 401,495 C 675,471 308,434 589,453 C 479,352 406,343 405,211 Z" opacity=".752" transform="rotate(118.0 400 300)"/><path fill="#f9d84b" stroke="#31a06b" stroke-opacity=".562" stroke-width="4" d="M 315,334 C 200,379 344,429 313,314 C 618,450 109,111 477,200 C 388,108 186,298 645,239 C 276,405 570,311 367,330 C 600,391 126,459 695,214 C 271,170 643,277 499,492 C 294,451 444,118 273,482 Z" opacity=".506" transform="rotate(-39.0 400 300)"/><path fill="#f9d84b" stroke="#ed2b2c" stroke-opacity=".142" stroke-width="7" d="M 525,116 C 642,296 507,458 271,498 C 579,312 259,172 468,440 C 198,460 310,296 236,185 C 399,208 668,431 560,397 C 125,287 515,385 410,322 C 335,345 588,303 324,245 C 205,293 370,433 654,337 Z" opacity=".847" transform="rotate(-29.0 400 300)"/><path fill="#31a06b" stroke="#f9d84b" stroke-opacity=".221" stroke-width="5" d="M 410,193 C 673,379 180,287 674,183 C 224,488 198,187 557,465 C 559,320 378,321 193,128 C 436,198 442,157 369,195 Z" opacity=".187" transform="rotate(-120.0 400 300)"/><path fill="#f27630" stroke="#2b55f7" stroke-opacity=".617" stroke-width="4" d="M 358,143 C 569,426 578,337 562,470 C 151,337 244,150 312,113 C 371,429 649,256 254,387 C 263,303 421,356 333,314 C 449,478 498,171 220,304 C 156,375 699,396 575,128 C 382,277 367,408 286,377 C 119,485 384,407 479,196 C 152,473 396,169 622,212 Z" opacity=".784" transform="rotate(137.0 400 300)"/><path fill="#31a06b" stroke="#ed2b2c" stroke-opacity=".607" stroke-width="2" d="M 187,105 C 270,388 478,461 675,298 C 313,329 377,403 513,215 C 255,254 142,252 591,461 C 355,415 386,215 512,292 C 341,142 324,224 136,102 C 152,137 509,201 460,444 C 207,208 281,489 560,424 Z" opacity=".41" transform="rotate(18.0 400 300)"/></g></svg>