<svg xmlns="http://www.w3.org/2000/svg" xmlns:xlink="http://www.w3.org/1999/xlink" width="800" height="600" version="1.1" viewBox="0 0 800 600"><g fill="none" fill-rule="evenodd" stroke="none" stroke-width="1"><path fill="#961D82" stroke="#973407" stroke-opacity=".159" stroke-width="4" d="M 609,461 C 252,375 366,126 504,440 C 672,262 348,473 197,116 C 140,416 209,160 143,434 C 326,372 699,363 330,184 C 171,318 571,129 657,208 C 205,307 476,237 697,278 C 571,184 250,358 203,126 Z" opacity=".238" transform="rotate(-13.0 400 300)"/><path fill="#1B6A85" stroke="#DC57DD" stroke-opacity=".088" stroke-width="6" d="M 328,471 C 243,341 408,309 538,148 C 693,437 112,249 230,407 C 314,437 512,323 557,433 C 198,199 404,190 201,189 C 386,130 377,359 134,377 C 165,390 515,461 337,378 C 181,366 332,184 308,455 C 559,110 526,184 194,444 Z" opacity=".962" transform="rotate(175.0 400 300)"/><path fill="#6D8510" stroke="#2663A8" stroke-opacity=".12" stroke-width="3" d="M 605,102 C 463,257 120,116 508,371 C 473,408 661,294 654,210 C 555,249 183,168 450,207 C 662,494 502,475 371,390 C 675,416 183,413 682,247 C 378,385 478,496 336,153 C 445,490 273,331 145,372 C 266,334 559,325 637,427 C 356,388 143,113 508,229 C 660,382 625,445 358,185 C 264,488 282,270 386,237 Z" opacity=".138" transform="rotate(-30.0 400 300)"/><path fill="#625711" stroke="#0B759C" stroke-opacity=".404" stroke-width="5" d="M 164,252 C 677,321 248,225 267,306 C 204,330 468,437 443,190 C 633,137 134,328 479,493 C 358,242 153,181 665,294 Z" opacity=".996" transform="rotate(-33.0 400 300)"/><path fill="#5C7BA4" stroke="#0BD075" stroke-opacity=".181" stroke-width="5" d="M 118,315 C 247,430 139,289 298,213 C 567,403 281,265 519,187 C 595,347 115,496 494,262 C 408,301 527,129 351,151 C 273,303 697,266 156,201 C 125,338 145,390 371,262 C 590,264 297,264 608,104 C 377,154 670,158 233,326 Z" opacity=".93" transform="rotate(133.0 400 300)"/><path fill="#D737C5" stroke="#84187C" stroke-opacity=".421" stroke-width="5" d="M 657,137 C 382,413 162,338 132,263 C 135,452 634,114 503,489 C 551,198 190,256 526,481 C 625,216 695,324 532,489 C 480,141 643,310 416,131 C 108,388 214,238 409,276 Z" opacity=".621" transform="rotate(164.0 400 300)"/><path fill="#3C565A" stroke="#D63C1D" stroke-opacity=".034" stroke-width="1" d="M 613,280 C 384,258 618,335 477,300 C 412,242 460,304 116,331 C 457,372 650,410 287,402 C 653,415 413,468 536,414 C 342,319 696,225 371,440 C 351,440 696,192 600,456 Z" opacity=".756" transform="rotate(89.0 400 300)"/><path fill="#2A7386" stroke="#6A7C65" stroke-opacity=".962" stroke-width="2" d="M 548,202 C 530,390 168,187 653,227 C 140,196 175,115 544,347 C 119,262 311,101 207,230 C 430,186 507,402 521,446 C 212,334 160,468 466,282 C 504,430 126,160 611,238 C 246,228 584,498 276,229 C 467,338 109,230 542,146 C 127,291 537,454 551,147 C 112,186 112,367 679,308 Z" opacity=".615" transform="rotate(122.0 400 300)"/><path fill="#794802" stroke="#C9A479" stroke-opacity=".191" stroke-width="1" d="M 498,327 C 343,279 517,254 193,389 C 238,482 164,189 105,164 C 421,285 441,281 374,333 C 194,360 686,165 512,479 C 664,205 525,355 671,384 Z" opacity=".854" transform="rotate(179.0 400 300)"/></g></svg>