<?xml version="1.0" encoding="UTF-8"?>
<svg width="800px" height="600px" viewBox="0 0 800 600" version="1.1" xmlns="http://www.w3.org/2000/svg" xmlns:xlink="http://www.w3.org/1999/xlink">
  <defs></defs>
  <g stroke="none" stroke-width="1" fill="none" fill-rule="evenodd">
    
    <rect stroke="#2cd3f3" stroke-width="4" fill="#02eb6b" opacity="0.17480042110319446" stroke-opacity="0.14965989226573753" transform="rotate(90.0 400 300)" x="674" y="44" width="45" height="259"></rect>
<path stroke="#02eb6b" stroke-width="6" fill="#0fa6d8" opacity="0.5374627863895604" stroke-opacity="0.9076513107148723" transform="rotate(-145.0 400 300)" d="M 519,327  C 108,293 660,320 447,153 C 498,484 296,371 107,437 C 365,381 658,225 483,293 C 331,276 250,253 143,198 C 603,220 589,437 108,377 C 542,126 507,256 456,421 Z"></path>
<polygon stroke="#0fa6d8" stroke-width="4" fill="#fe9225" opacity="0.5382740187676381" stroke-opacity="0.8658828910052205" transform="rotate(-159.0 400 300)" points="112 194 774 197 514 571 605 309 643 125 594 366 1 327 682 26 "></polygon>
<path stroke="#02eb6b" stroke-width="5" fill="#2cd3f3" opacity="0.5826657082064721" stroke-opacity="0.00571357006846362" transform="rotate(-68.0 400 300)" d="M 141,383  C 673,352 474,148 460,490 C 687,236 590,339 369,306 C 182,377 487,263 224,224 C 565,427 388,475 315,111 C 101,127 692,384 310,151 C 648,427 393,396 178,400 C 340,190 285,286 611,233 C 101,256 282,479 481,462 Z"></path>
<path stroke="#02eb6b" stroke-width="5" fill="#f559a0" opacity="0.3435474539118305" stroke-opacity="0.799504754571081" transform="rotate(-39.0 400 300)" d="M 327,178  C 507,128 651,310 273,361 C 337,148 675,255 479,425 C 114,281 490,152 611,440 C 391,183 205,107 546,124 C 127,487 310,277 538,214 C 568,382 486,427 296,373 C 601,111 440,351 322,199 C 407,111 138,150 580,223 Z"></path>
<path stroke="#2cd3f3" stroke-width="6" fill="#02eb6b" opacity="0.6885415593222578" stroke-opacity="0.430513881830061" transform="rotate(56.0 400 300)" d="M 603,422  C 323,314 501,437 213,127 C 642,311 493,245 245,311 C 639,149 639,218 335,316 C 257,317 120,345 199,447 Z"></path>
<rect stroke="#f559a0" stroke-width="1" fill="#fe9225" opacity="0.6460966247252542" stroke-opacity="0.24621736517195028" transform="rotate(78.0 400 300)" x="459" y="254" width="169" height="60"></rect>
<ellipse stroke="#2cd3f3" stroke-width="6" fill="#02eb6b" opacity="0.8691122972357173" stroke-opacity="0.755549146398959" transform="rotate(156.0 400 300)" cx="617" rx="221" cy="450" ry="323"></ellipse>

  </g>
</svg>
