<svg xmlns="http://www.w3.org/2000/svg" xmlns:xlink="http://www.w3.org/1999/xlink" width="800" height="600" version="1.1" viewBox="0 0 800 600"><g fill="none" fill-rule="evenodd" stroke="none" stroke-width="1"><ellipse cx="579" cy="191" fill="#fe9225" stroke="#fe9225" stroke-opacity=".298" stroke-width="3" opacity=".106" rx="414" ry="101" transform="rotate(10.0 400 300)"/><rect width="67" height="322" x="191" y="425" fill="#02eb6b" stroke="#0fa6d8" stroke-opacity=".622" stroke-width="5" opacity=".457" transform="rotate(50.0 400 300)"/><ellipse cx="129" cy="180" fill="#fe9225" stroke="#f559a0" stroke-opacity=".645" stroke-width="2" opacity=".644" rx="443" ry="321" transform="rotate(-173.0 400 300)"/><rect width="98" height="62" x="732" y="461" fill="#2cd3f3" stroke="#02eb6b" stroke-opacity=".625" stroke-width="3" opacity=".695" transform="rotate(-77.0 400 300)"/><path fill="#f559a0" stroke="#0fa6d8" stroke-opacity=".379" stroke-width="1" d="M 241,484 C 695,381 288,452 378,406 C 689,388 653,311 200,493 C 461,396 497,412 341,245 C 654,316 652,323 428,354 C 312,262 597,374 645,436 C 336,489 667,482 500,227 C 158,271 612,286 583,228 C 492,461 109,174 605,401 Z" opacity=".096" transform="rotate(-50.0 400 300)"/><rect width="381" height="112" x="310" y="595" fill="#0fa6d8" stroke="#f559a0" stroke-opacity=".745" stroke-width="4" opacity=".024" transform="rotate(37.0 400 300)"/><path fill="#fe9225" stroke="#2cd3f3" stroke-opacity=".368" stroke-width="7" d="M 444,307 C 223,146 103,263 679,135 C 239,138 134,115 408,258 C 436,483 658,279 103,254 C 422,168 266,294 191,493 C 586,167 650,156 534,235 C 519,290 308,126 288,473 C 548,126 115,302 233,304 C 459,346 443,405 634,101 C 192,463 616,192 238,321 Z" opacity=".014" transform="rotate(149.0 400 300)"/><rect width="356" height="399" x="520" y="60" fill="#fe9225" stroke="#fe9225" stroke-opacity=".344" stroke-width="6" opacity=".367" transform="rotate(68.0 400 300)"/><path fill="#02eb6b" stroke="#f559a0" stroke-opacity=".941" stroke-width="5" d="M 333,127 C 435,258 438,479 211,448 C 292,182 678,380 409,297 C 658,314 607,384 116,370 C 439,222 635,239 621,161 C 559,408 193,413 114,230 C 204,310 412,329 173,429 Z" opacity=".371" transform="rotate(-60.0 400 300)"/></g></svg>