<svg xmlns="http://www.w3.org/2000/svg" xmlns:xlink="http://www.w3.org/1999/xlink" width="800" height="600" version="1.1" viewBox="0 0 800 600"><g fill="none" fill-rule="evenodd" stroke="none" stroke-width="1"><path fill="#693445" stroke="#B6CD6B" stroke-opacity=".635" stroke-width="6" d="M 542,144 C 172,314 109,204 149,265 C 596,281 355,365 118,276 C 110,197 556,336 116,325 C 490,321 429,104 390,326 Z" opacity=".087" transform="rotate(132.0 400 300)"/><path fill="#B7A035" stroke="#A5BB97" stroke-opacity=".102" stroke-width="1" d="M 543,258 C 103,309 240,439 459,458 C 137,288 266,294 539,442 C 242,194 252,258 491,185 C 223,236 557,436 454,377 C 498,290 206,463 297,153 C 546,356 492,354 438,496 C 156,428 270,492 492,446 C 125,293 582,105 646,319 Z" opacity=".372" transform="rotate(-53.0 400 300)"/><path fill="#974368" stroke="#A117B1" stroke-opacity=".062" stroke-width="7" d="M 287,110 C 328,422 101,173 377,303 C 268,359 304,229 562,346 C 137,321 542,201 515,249 C 677,143 236,408 514,343 C 331,407 218,237 590,423 C 678,437 640,457 225,294 C 529,265 506,427 279,165 C 503,176 694,462 379,294 C 160,295 516,370 232,379 Z" opacity=".405" transform="rotate(6.0 400 300)"/><path fill="#41C839" stroke="#264035" stroke-opacity=".837" stroke-width="5" d="M 638,351 C 535,339 641,147 373,264 C 586,441 445,302 196,221 C 561,308 477,313 429,479 C 454,392 298,271 360,372 C 597,284 623,148 495,340 C 362,380 502,350 105,258 C 483,163 468,431 573,392 C 340,255 597,424 271,185 Z" opacity=".927" transform="rotate(-79.0 400 300)"/><path fill="#A2D04C" stroke="#745D67" stroke-opacity=".573" stroke-width="7" d="M 112,326 C 497,202 105,478 185,210 C 561,189 320,471 550,427 C 238,143 307,287 592,343 C 450,444 451,376 214,433 C 236,404 339,436 375,140 C 308,117 510,107 500,352 Z" opacity=".832" transform="rotate(-78.0 400 300)"/><path fill="#588D76" stroke="#7DA56B" stroke-opacity=".066" stroke-width="3" d="M 403,309 C 342,358 564,471 179,124 C 326,115 130,326 599,337 C 241,422 228,407 212,374 C 156,444 245,367 235,141 C 466,499 196,203 467,183 C 280,490 535,344 382,151 C 660,302 551,452 177,337 C 293,490 304,203 323,264 C 136,324 160,486 461,281 Z" opacity=".705" transform="rotate(-113.0 400 300)"/><path fill="#524274" stroke="#A4CDC7" stroke-opacity=".787" stroke-width="4" d="M 324,422 C 263,337 170,314 361,220 C 382,338 550,139 266,218 C 217,362 477,337 576,243 C 520,325 191,412 311,245 C 515,276 420,241 695,113 C 579,478 547,402 293,396 Z" opacity=".242" transform="rotate(79.0 400 300)"/></g></svg>