<svg xmlns="http://www.w3.org/2000/svg" xmlns:xlink="http://www.w3.org/1999/xlink" width="800" height="600" version="1.1" viewBox="0 0 800 600"><g fill="none" fill-rule="evenodd" stroke="none" stroke-width="1"><path fill="#0fa6d8" stroke="#0fa6d8" stroke-opacity=".289" stroke-width="5" d="M 582,186 C 458,134 255,150 333,333 C 299,238 256,160 628,174 C 195,384 259,106 622,185 C 130,129 672,444 594,132 C 647,429 178,348 509,173 C 378,173 409,357 677,263 C 141,232 498,446 154,300 C 389,459 297,487 698,475 C 267,476 687,227 487,310 C 638,341 602,222 309,212 C 609,243 532,163 347,147 Z" opacity=".385" transform="rotate(157.0 400 300)"/><path fill="#02eb6b" stroke="#f559a0" stroke-opacity=".567" stroke-width="2" d="M 141,108 C 526,319 171,242 332,280 C 582,484 494,308 204,101 C 621,113 383,359 141,314 C 353,427 534,290 472,294 C 629,351 142,399 177,108 Z" opacity=".717" transform="rotate(-139.0 400 300)"/><path fill="#fe9225" stroke="#02eb6b" stroke-opacity=".759" stroke-width="4" d="M 208,329 C 169,150 102,232 325,406 C 533,273 575,207 493,248 C 243,307 444,489 605,458 C 687,479 520,107 253,456 C 108,235 470,237 524,124 C 306,455 652,143 419,240 Z" opacity=".155" transform="rotate(86.0 400 300)"/><path fill="#2cd3f3" stroke="#fe9225" stroke-opacity=".071" stroke-width="5" d="M 610,429 C 694,246 242,135 571,453 C 303,345 450,266 218,353 C 513,306 586,357 108,154 C 599,153 209,465 373,153 C 516,166 550,309 656,348 C 109,441 495,438 254,396 C 261,167 294,434 169,205 C 140,411 291,426 650,150 Z" opacity=".507" transform="rotate(-166.0 400 300)"/><path fill="#f559a0" stroke="#f559a0" stroke-opacity=".035" stroke-width="7" d="M 392,496 C 410,364 144,348 686,194 C 291,396 286,429 167,492 C 516,243 329,388 335,229 C 134,157 343,244 504,346 Z" opacity=".167" transform="rotate(103.0 400 300)"/><path fill="#02eb6b" stroke="#02eb6b" stroke-opacity=".282" stroke-width="7" d="M 623,215 C 376,106 379,250 655,139 C 537,493 534,285 262,225 C 270,475 116,106 464,469 C 174,313 384,294 651,234 C 625,438 112,248 649,367 C 313,419 472,307 199,366 C 158,178 179,243 273,490 C 639,424 111,283 199,454 C 575,355 581,361 473,215 C 436,363 138,422 285,451 Z" opacity=".312" transform="rotate(174.0 400 300)"/><path fill="#2cd3f3" stroke="#2cd3f3" stroke-opacity=".331" stroke-width="4" d="M 162,220 C 517,245 579,472 145,246 C 675,142 219,289 350,359 C 420,286 538,156 307,102 C 606,151 226,382 581,210 C 265,174 448,202 235,348 C 573,318 679,454 362,214 C 350,244 308,188 626,324 Z" opacity=".93" transform="rotate(52.0 400 300)"/></g></svg>