<?xml version="1.0" encoding="UTF-8"?>
<svg width="800px" height="600px" viewBox="0 0 800 600" version="1.1" xmlns="http://www.w3.org/2000/svg" xmlns:xlink="http://www.w3.org/1999/xlink">
  <defs></defs>
  <g stroke="none" stroke-width="1" fill="none" fill-rule="evenodd">
    
    <path stroke="#f9d84b" stroke-width="3" fill="#ed2b2c" opacity="0.12207295532764985" stroke-opacity="0.5419216017653814" transform="rotate(-132.0 400 300)" d="M 573,427  C 157,377 440,387 616,358 C 212,229 592,249 199,330 C 272,351 201,399 650,155 C 190,128 108,443 547,448 Z"></path>
<path stroke="#f9d84b" stroke-width="2" fill="#2b55f7" opacity="0.9913658220874821" stroke-opacity="0.5259579437500616" transform="rotate(-101.0 400 300)" d="M 119,350  C 549,415 225,189 450,388 C 138,462 483,251 574,186 C 464,330 417,381 137,489 C 184,142 480,482 399,279 C 376,327 127,438 640,371 C 597,403 482,260 540,413 C 338,225 405,260 135,187 Z"></path>
<path stroke="#31a06b" stroke-width="1" fill="#f27630" opacity="0.5836175035845403" stroke-opacity="0.6926989459408122" transform="rotate(-125.0 400 300)" d="M 222,235  C 411,376 322,313 514,432 C 257,482 208,189 176,164 C 540,154 438,171 388,217 C 186,235 532,408 446,223 C 197,307 165,356 645,130 C 683,489 497,203 511,301 C 516,480 324,293 547,440 Z"></path>
<path stroke="#31a06b" stroke-width="4" fill="#ed2b2c" opacity="0.670047323761996" stroke-opacity="0.16248242007872424" transform="rotate(52.0 400 300)" d="M 255,178  C 373,478 671,118 504,203 C 231,137 571,288 256,343 C 598,404 571,220 195,131 C 514,158 287,336 439,214 C 387,217 428,347 696,146 Z"></path>
<path stroke="#f9d84b" stroke-width="4" fill="#31a06b" opacity="0.635789962888927" stroke-opacity="0.6681655603148549" transform="rotate(137.0 400 300)" d="M 340,123  C 646,184 674,137 108,456 C 122,259 657,120 465,292 C 191,181 343,183 215,453 C 489,355 205,176 291,149 C 245,207 457,240 294,276 C 541,374 145,448 660,243 C 637,390 115,292 503,355 C 146,459 663,130 112,382 Z"></path>
<path stroke="#f27630" stroke-width="4" fill="#f27630" opacity="0.22757880579149248" stroke-opacity="0.14191199379562391" transform="rotate(-28.0 400 300)" d="M 114,399  C 318,225 663,369 427,360 C 281,214 397,207 662,351 C 399,348 290,140 162,451 C 621,125 408,316 665,361 C 391,396 211,324 248,286 C 266,338 170,385 230,329 Z"></path>
<path stroke="#ed2b2c" stroke-width="6" fill="#f27630" opacity="0.7914683815547809" stroke-opacity="0.06250507277161634" transform="rotate(-177.0 400 300)" d="M 223,252  C 171,344 104,310 625,479 C 618,127 157,385 459,229 C 636,356 397,453 602,442 C 509,271 427,193 637,453 C 651,496 700,462 120,153 C 636,376 517,408 480,264 Z"></path>

  </g>
</svg>
