<svg xmlns="http://www.w3.org/2000/svg" xmlns:xlink="http://www.w3.org/1999/xlink" width="800" height="600" version="1.1" viewBox="0 0 800 600"><g fill="none" fill-rule="evenodd" stroke="none" stroke-width="1"><path fill="#ed2b2c" stroke="#f9d84b" stroke-opacity=".542" stroke-width="3" d="M 573,427 C 157,377 440,387 616,358 C 212,229 592,249 199,330 C 272,351 201,399 650,155 C 190,128 108,443 547,448 Z" opacity=".122" transform="rotate(-132.0 400 300)"/><path fill="#2b55f7" stroke="#f9d84b" stroke-opacity=".526" stroke-width="2" d="M 119,350 C 549,415 225,189 450,388 C 138,462 483,251 574,186 C 464,330 417,381 137,489 C 184,142 480,482 399,279 C 376,327 127,438 640,371 C 597,403 482,260 540,413 C 338,225 405,260 135,187 Z" opacity=".991" transform="rotate(-101.0 400 300)"/><path fill="#f27630" stroke="#31a06b" stroke-opacity=".693" stroke-width="1" d="M 222,235 C 411,376 322,313 514,432 C 257,482 208,189 176,164 C 540,154 438,171 388,217 C 186,235 532,408 446,223 C 197,307 165,356 645,130 C 683,489 497,203 511,301 C 516,480 324,293 547,440 Z" opacity=".584" transform="rotate(-125.0 400 300)"/><path fill="#ed2b2c" stroke="#31a06b" stroke-opacity=".162" stroke-width="4" d="M 255,178 C 373,478 671,118 504,203 C 231,137 571,288 256,343 C 598,404 571,220 195,131 C 514,158 287,336 439,214 C 387,217 428,347 696,146 Z" opacity=".67" transform="rotate(52.0 400 300)"/><path fill="#31a06b" stroke="#f9d84b" stroke-opacity=".668" stroke-width="4" d="M 340,123 C 646,184 674,137 108,456 C 122,259 657,120 465,292 C 191,181 343,183 215,453 C 489,355 205,176 291,149 C 245,207 457,240 294,276 C 541,374 145,448 660,243 C 637,390 115,292 503,355 C 146,459 663,130 112,382 Z" opacity=".636" transform="rotate(137.0 400 300)"/><path fill="#f27630" stroke="#f27630" stroke-opacity=".142" stroke-width="4" d="M 114,399 C 318,225 663,369 427,360 C 281,214 397,207 662,351 C 399,348 290,140 162,451 C 621,125 408,316 665,361 C 391,396 211,324 248,286 C 266,338 170,385 230,329 Z" opacity=".228" transform="rotate(-28.0 400 300)"/><path fill="#f27630" stroke="#ed2b2c" stroke-opacity=".063" stroke-width="6" d="M 223,252 C 171,344 104,310 625,479 C 618,127 157,385 459,229 C 636,356 397,453 602,442 C 509,271 427,193 637,453 C 651,496 700,462 120,153 C 636,376 517,408 480,264 Z" opacity=".791" transform="rotate(-177.0 400 300)"/></g></svg>