<svg xmlns="http://www.w3.org/2000/svg" xmlns:xlink="http://www.w3.org/1999/xlink" width="800" height="600" version="1.1" viewBox="0 0 800 600"><g fill="none" fill-rule="evenodd" stroke="none" stroke-width="1"><path fill="#f559a0" stroke="#f559a0" stroke-opacity=".737" stroke-width="5" d="M 141,387 C 557,238 171,486 319,255 C 604,172 172,463 199,211 C 209,384 239,150 293,186 C 382,306 244,335 659,417 C 664,144 312,216 488,337 C 156,118 167,137 371,420 C 433,256 493,372 665,460 C 294,259 566,162 364,292 C 460,273 567,303 531,167 Z" opacity=".235" transform="rotate(71.0 400 300)"/><polygon fill="#fe9225" stroke="#02eb6b" stroke-opacity=".796" stroke-width="7" points="694 211 479 115 302 96 590 500 182 125" opacity=".551" transform="rotate(-83.0 400 300)"/><rect width="98" height="176" x="408" y="388" fill="#fe9225" stroke="#2cd3f3" stroke-opacity=".779" stroke-width="2" opacity=".062" transform="rotate(-113.0 400 300)"/><path fill="#fe9225" stroke="#2cd3f3" stroke-opacity=".794" stroke-width="6" d="M 572,499 C 644,178 426,235 497,465 C 265,210 151,298 438,465 C 311,444 319,215 594,285 C 689,275 178,269 107,327 C 215,393 610,151 147,500 C 575,233 578,182 347,187 C 588,215 119,337 636,237 Z" opacity=".725" transform="rotate(-78.0 400 300)"/><polygon fill="#02eb6b" stroke="#0fa6d8" stroke-opacity=".267" stroke-width="7" points="29 76 560 253 769 116 745 318 369 32 50 27" opacity=".564" transform="rotate(67.0 400 300)"/><polygon fill="#2cd3f3" stroke="#fe9225" stroke-opacity=".803" stroke-width="5" points="472 309 469 269 386 47 744 57 711 261 422 240" opacity=".688" transform="rotate(148.0 400 300)"/></g></svg>