<?xml version="1.0" encoding="UTF-8"?>
<svg width="800px" height="600px" viewBox="0 0 800 600" version="1.1" xmlns="http://www.w3.org/2000/svg" xmlns:xlink="http://www.w3.org/1999/xlink">
  <defs></defs>
  <g stroke="none" stroke-width="1" fill="none" fill-rule="evenodd">
    
    <path stroke="#31a06b" stroke-width="1" fill="#2b55f7" opacity="0.5819462088376525" stroke-opacity="0.9495951070392477" transform="rotate(-65.0 400 300)" d="M 582,322  C 286,444 187,366 213,356 C 618,480 504,262 270,499 C 580,416 575,450 168,400 C 124,440 209,425 173,153 C 690,367 362,241 361,411 C 523,128 309,316 626,226 C 535,363 400,187 177,302 C 530,149 190,228 219,126 Z"></path>
<path stroke="#f9d84b" stroke-width="5" fill="#2b55f7" opacity="0.8621220620241339" stroke-opacity="0.6311845140369932" transform="rotate(-159.0 400 300)" d="M 575,359  C 416,346 456,340 244,455 C 384,449 160,401 573,376 C 673,319 630,355 654,486 C 631,293 294,412 284,444 C 229,206 293,202 466,451 Z"></path>
<path stroke="#ed2b2c" stroke-width="5" fill="#31a06b" opacity="0.43768689923397136" stroke-opacity="0.7741469249093557" transform="rotate(-143.0 400 300)" d="M 468,295  C 293,254 142,176 215,140 C 272,447 274,223 417,477 C 179,295 655,175 520,127 C 510,378 340,255 359,334 C 695,262 407,370 655,422 Z"></path>
<path stroke="#f9d84b" stroke-width="4" fill="#31a06b" opacity="0.4533497795729461" stroke-opacity="0.2539806005658777" transform="rotate(-50.0 400 300)" d="M 195,449  C 629,402 677,157 661,307 C 169,390 337,104 422,349 C 203,323 170,337 291,148 C 291,197 239,244 645,180 C 666,187 531,221 330,499 C 521,217 471,140 438,406 C 290,169 538,437 580,249 C 428,120 103,315 410,236 C 506,153 370,115 338,256 C 638,145 510,108 503,197 C 485,103 347,263 670,223 Z"></path>
<path stroke="#f27630" stroke-width="7" fill="#f27630" opacity="0.297455930371717" stroke-opacity="0.23620727610131112" transform="rotate(63.0 400 300)" d="M 371,196  C 241,129 522,220 159,280 C 180,311 227,278 613,420 C 453,349 512,228 622,380 C 268,473 484,243 270,242 C 316,227 430,239 596,165 C 194,325 196,193 534,388 C 354,344 368,424 108,454 Z"></path>
<path stroke="#31a06b" stroke-width="2" fill="#ed2b2c" opacity="0.6185263881471971" stroke-opacity="0.11861134327283125" transform="rotate(-28.0 400 300)" d="M 130,254  C 160,487 179,308 349,440 C 670,268 190,311 515,286 C 214,182 224,321 536,156 C 405,417 296,134 382,353 C 592,408 205,110 366,338 C 677,409 279,187 603,190 Z"></path>
<path stroke="#ed2b2c" stroke-width="2" fill="#2b55f7" opacity="0.8698810482042307" stroke-opacity="0.5762671010019107" transform="rotate(86.0 400 300)" d="M 188,264  C 124,158 633,108 514,428 C 521,106 665,326 384,481 C 124,483 190,135 291,149 C 214,280 382,399 650,119 C 474,469 538,154 484,331 C 306,278 591,283 526,373 C 248,366 135,220 408,135 C 660,378 689,265 681,214 Z"></path>
<path stroke="#f27630" stroke-width="3" fill="#2b55f7" opacity="0.12873523575967638" stroke-opacity="0.8839549164170668" transform="rotate(-43.0 400 300)" d="M 359,184  C 653,284 263,206 699,364 C 116,270 578,307 349,298 C 580,466 501,446 413,334 C 326,496 459,184 206,343 C 324,140 509,132 431,348 C 329,138 633,305 541,423 C 214,171 520,400 477,214 C 146,364 650,455 283,119 C 625,411 615,475 165,473 Z"></path>
<path stroke="#f9d84b" stroke-width="7" fill="#2b55f7" opacity="0.7345688614768177" stroke-opacity="0.4157347211512642" transform="rotate(-64.0 400 300)" d="M 163,150  C 395,294 263,286 475,450 C 236,437 604,271 176,465 C 339,487 688,309 108,355 C 581,181 239,191 305,102 C 522,223 517,386 632,435 C 201,252 683,402 567,291 C 521,199 338,271 690,132 C 212,215 375,309 597,430 C 640,144 232,496 419,294 C 492,252 133,106 410,437 Z"></path>

  </g>
</svg>
