<?xml version="1.0" encoding="UTF-8"?>
<svg width="800px" height="600px" viewBox="0 0 800 600" version="1.1" xmlns="http://www.w3.org/2000/svg" xmlns:xlink="http://www.w3.org/1999/xlink">
  <defs></defs>
  <g stroke="none" stroke-width="1" fill="none" fill-rule="evenodd">
    
    <polygon stroke="#0fa6d8" stroke-width="2" fill="#02eb6b" opacity="0.182366324371838" stroke-opacity="0.9256795474148058" transform="rotate(-110.0 400 300)" points="289 555 161 149 737 374 91 174 407 434 697 265 "></polygon>
<rect stroke="#f559a0" stroke-width="5" fill="#fe9225" opacity="0.5536601896759001" stroke-opacity="0.49824164521742137" transform="rotate(171.0 400 300)" x="630" y="58" width="327" height="71"></rect>
<rect stroke="#2cd3f3" stroke-width="3" fill="#02eb6b" opacity="0.20749443277853782" stroke-opacity="0.18869622500172534" transform="rotate(-21.0 400 300)" x="178" y="564" width="359" height="100"></rect>
<ellipse stroke="#2cd3f3" stroke-width="5" fill="#02eb6b" opacity="0.7537383833905513" stroke-opacity="0.6804007861496917" transform="rotate(143.0 400 300)" cx="10" rx="84" cy="50" ry="162"></ellipse>
<ellipse stroke="#fe9225" stroke-width="6" fill="#fe9225" opacity="0.9253445266761465" stroke-opacity="0.5585192737953525" transform="rotate(-1.0 400 300)" cx="506" rx="129" cy="45" ry="272"></ellipse>
<ellipse stroke="#2cd3f3" stroke-width="7" fill="#f559a0" opacity="0.6711166745128255" stroke-opacity="0.8317512666930752" transform="rotate(-135.0 400 300)" cx="782" rx="239" cy="474" ry="199"></ellipse>
<rect stroke="#02eb6b" stroke-width="7" fill="#fe9225" opacity="0.6537058930620676" stroke-opacity="0.5811586647148823" transform="rotate(-56.0 400 300)" x="57" y="355" width="21" height="356"></rect>
<ellipse stroke="#0fa6d8" stroke-width="7" fill="#f559a0" opacity="0.25990040364698913" stroke-opacity="0.21959648869291032" transform="rotate(58.0 400 300)" cx="101" rx="57" cy="276" ry="235"></ellipse>
<polygon stroke="#f559a0" stroke-width="6" fill="#0fa6d8" opacity="0.2716527606644422" stroke-opacity="0.0826692115427731" transform="rotate(1.0 400 300)" points="16 479 482 122 665 519 508 293 117 303 "></polygon>
<polygon stroke="#02eb6b" stroke-width="7" fill="#0fa6d8" opacity="0.383752590011231" stroke-opacity="0.7337821883252725" transform="rotate(25.0 400 300)" points="420 596 731 443 278 429 711 180 292 461 368 248 210 345 24 540 "></polygon>
<ellipse stroke="#02eb6b" stroke-width="1" fill="#f559a0" opacity="0.30045965539560643" stroke-opacity="0.008042484391890167" transform="rotate(107.0 400 300)" cx="554" rx="146" cy="506" ry="278"></ellipse>

  </g>
</svg>
