<svg xmlns="http://www.w3.org/2000/svg" xmlns:xlink="http://www.w3.org/1999/xlink" width="800" height="600" version="1.1" viewBox="0 0 800 600"><g fill="none" fill-rule="evenodd" stroke="none" stroke-width="1"><polygon fill="#02eb6b" stroke="#0fa6d8" stroke-opacity=".926" stroke-width="2" points="289 555 161 149 737 374 91 174 407 434 697 265" opacity=".182" transform="rotate(-110.0 400 300)"/><rect width="327" height="71" x="630" y="58" fill="#fe9225" stroke="#f559a0" stroke-opacity=".498" stroke-width="5" opacity=".554" transform="rotate(171.0 400 300)"/><rect width="359" height="100" x="178" y="564" fill="#02eb6b" stroke="#2cd3f3" stroke-opacity=".189" stroke-width="3" opacity=".207" transform="rotate(-21.0 400 300)"/><ellipse cx="10" cy="50" fill="#02eb6b" stroke="#2cd3f3" stroke-opacity=".68" stroke-width="5" opacity=".754" rx="84" ry="162" transform="rotate(143.0 400 300)"/><ellipse cx="506" cy="45" fill="#fe9225" stroke="#fe9225" stroke-opacity=".559" stroke-width="6" opacity=".925" rx="129" ry="272" transform="rotate(-1.0 400 300)"/><ellipse cx="782" cy="474" fill="#f559a0" stroke="#2cd3f3" stroke-opacity=".832" stroke-width="7" opacity=".671" rx="239" ry="199" transform="rotate(-135.0 400 300)"/><rect width="21" height="356" x="57" y="355" fill="#fe9225" stroke="#02eb6b" stroke-opacity=".581" stroke-width="7" opacity=".654" transform="rotate(-56.0 400 300)"/><ellipse cx="101" cy="276" fill="#f559a0" stroke="#0fa6d8" stroke-opacity=".22" stroke-width="7" opacity=".26" rx="57" ry="235" transform="rotate(58.0 400 300)"/><polygon fill="#0fa6d8" stroke="#f559a0" stroke-opacity=".083" stroke-width="6" points="16 479 482 122 665 519 508 293 117 303" opacity=".272" transform="rotate(1.0 400 300)"/><polygon fill="#0fa6d8" stroke="#02eb6b" stroke-opacity=".734" stroke-width="7" points="420 596 731 443 278 429 711 180 292 461 368 248 210 345 24 540" opacity=".384" transform="rotate(25.0 400 300)"/><ellipse cx="554" cy="506" fill="#f559a0" stroke="#02eb6b" stroke-opacity=".008" stroke-width="1" opacity=".3" rx="146" ry="278" transform="rotate(107.0 400 300)"/></g></svg>