<?xml version="1.0" encoding="UTF-8"?>
<svg width="800px" height="600px" viewBox="0 0 800 600" version="1.1" xmlns="http://www.w3.org/2000/svg" xmlns:xlink="http://www.w3.org/1999/xlink">
  <defs></defs>
  <g stroke="none" stroke-width="1" fill="none" fill-rule="evenodd">
    
    <path stroke="#563159" stroke-width="6" fill="#27087A" opacity="0.7988053734946198" stroke-opacity="0.4941650291979084" transform="rotate(62.0 400 300)" d="M 455,404  C 155,197 303,135 279,156 C 546,273 416,452 575,384 C 175,104 288,421 491,148 C 565,399 469,133 256,265 C 235,303 622,226 299,315 C 356,297 116,419 121,329 C 165,317 134,153 251,418 C 434,211 260,288 581,133 Z"></path>
<path stroke="#06796D" stroke-width="7" fill="#1D1660" opacity="0.3942964364684771" stroke-opacity="0.34035004619143533" transform="rotate(-40.0 400 300)" d="M 145,300  C 344,320 642,494 291,366 C 370,500 196,474 183,489 C 600,138 461,355 640,257 C 641,230 653,358 208,322 C 145,500 406,101 593,375 C 493,306 561,313 465,105 C 676,491 581,370 497,155 C 142,352 261,229 555,109 C 108,477 317,290 300,180 C 226,263 210,345 586,197 Z"></path>
<path stroke="#771D62" stroke-width="3" fill="#08B133" opacity="0.6919911818151474" stroke-opacity="0.5416194625537502" transform="rotate(-148.0 400 300)" d="M 342,122  C 622,169 344,157 422,362 C 650,382 232,354 648,112 C 188,144 547,250 271,258 C 221,413 374,240 355,483 C 479,204 632,350 145,207 C 107,445 565,215 288,371 C 441,371 120,289 453,460 C 644,316 505,349 327,215 C 608,431 449,374 291,391 C 192,456 235,274 289,316 C 259,160 532,257 123,168 Z"></path>
<path stroke="#062308" stroke-width="5" fill="#AD2825" opacity="0.24180699035373307" stroke-opacity="0.32287392736675125" transform="rotate(-26.0 400 300)" d="M 480,357  C 681,246 655,306 201,121 C 700,491 658,207 432,221 C 686,469 447,146 544,457 C 500,267 155,121 396,139 C 334,186 119,371 208,274 C 619,116 452,283 392,437 C 212,429 498,184 336,440 C 139,175 382,460 586,245 C 158,470 139,424 468,198 C 448,405 554,420 137,359 Z"></path>
<path stroke="#594BBD" stroke-width="4" fill="#816A38" opacity="0.802849165753658" stroke-opacity="0.8340048680140185" transform="rotate(-61.0 400 300)" d="M 220,189  C 527,442 508,395 248,271 C 214,127 330,360 576,133 C 594,132 126,448 361,359 C 483,371 643,331 256,241 C 495,256 570,426 666,373 C 681,175 692,400 645,217 C 329,155 265,335 327,207 C 363,436 327,140 222,333 Z"></path>
<path stroke="#3D2309" stroke-width="7" fill="#BB8068" opacity="0.48109404660187316" stroke-opacity="0.5256782719458863" transform="rotate(23.0 400 300)" d="M 185,263  C 430,489 632,463 178,418 C 422,260 482,406 230,157 C 696,202 303,473 187,242 C 453,282 336,397 432,332 C 697,360 509,234 105,474 C 310,218 453,495 545,233 C 440,354 426,176 390,464 C 246,325 188,189 222,305 C 678,171 695,399 166,213 C 378,126 157,391 523,364 C 474,148 138,267 336,393 Z"></path>
<path stroke="#492359" stroke-width="5" fill="#CBC8D3" opacity="0.5175599471723988" stroke-opacity="0.08542700325975626" transform="rotate(36.0 400 300)" d="M 210,484  C 267,107 177,468 491,195 C 518,195 413,278 405,292 C 445,357 445,291 364,365 C 315,232 205,198 648,296 C 170,261 680,417 361,104 C 364,496 178,147 435,292 C 149,403 263,473 361,474 C 288,349 529,137 681,200 Z"></path>
<path stroke="#BB77A9" stroke-width="4" fill="#733265" opacity="0.9020003133001165" stroke-opacity="0.03366417002030845" transform="rotate(-144.0 400 300)" d="M 531,431  C 650,334 657,416 379,333 C 606,391 611,202 235,328 C 625,120 503,223 132,263 C 576,473 103,383 243,203 Z"></path>

  </g>
</svg>
