<svg xmlns="http://www.w3.org/2000/svg" xmlns:xlink="http://www.w3.org/1999/xlink" width="800" height="600" version="1.1" viewBox="0 0 800 600"><g fill="none" fill-rule="evenodd" stroke="none" stroke-width="1"><path fill="#f27630" stroke="#f27630" stroke-opacity=".203" stroke-width="6" d="M 113,101 C 535,410 638,289 627,234 C 518,242 345,497 213,372 C 486,222 647,191 246,375 C 576,421 236,122 589,468 C 167,284 268,297 186,124 C 466,143 147,135 592,324 C 552,353 406,239 108,157 C 375,147 467,423 386,402 Z" opacity=".891" transform="rotate(-155.0 400 300)"/><path fill="#f27630" stroke="#2b55f7" stroke-opacity=".627" stroke-width="1" d="M 471,369 C 289,285 512,320 449,129 C 395,128 194,112 247,107 C 575,112 237,108 454,140 C 601,173 551,426 527,227 C 346,114 440,233 563,460 C 487,449 260,277 533,102 Z" opacity=".98" transform="rotate(-103.0 400 300)"/><path fill="#31a06b" stroke="#ed2b2c" stroke-opacity=".014" stroke-width="1" d="M 599,226 C 488,394 549,336 148,147 C 239,122 209,494 216,473 C 596,162 174,436 238,455 C 425,102 524,306 404,419 C 432,193 266,296 128,500 C 389,453 671,114 167,474 Z" opacity=".706" transform="rotate(-48.0 400 300)"/><path fill="#31a06b" stroke="#f27630" stroke-opacity=".823" stroke-width="5" d="M 475,446 C 179,431 430,178 377,228 C 646,397 484,176 363,335 C 314,302 671,462 621,187 C 216,253 641,486 540,131 C 481,461 380,461 235,396 C 286,180 251,405 568,292 C 669,345 518,377 465,459 C 112,451 541,411 584,241 C 651,155 246,244 332,229 C 214,422 234,232 215,465 C 206,391 260,195 200,383 Z" opacity=".612" transform="rotate(40.0 400 300)"/><path fill="#2b55f7" stroke="#2b55f7" stroke-opacity=".444" stroke-width="7" d="M 322,288 C 607,465 435,453 536,245 C 105,469 396,443 503,286 C 192,429 245,272 131,303 C 642,150 640,229 287,464 C 498,241 609,259 451,408 C 613,119 511,241 456,449 C 432,484 564,264 501,132 Z" opacity=".991" transform="rotate(-57.0 400 300)"/><path fill="#ed2b2c" stroke="#f9d84b" stroke-opacity=".983" stroke-width="1" d="M 556,103 C 123,162 119,409 361,237 C 253,167 207,147 218,140 C 388,200 276,321 550,395 C 201,105 678,377 344,283 C 262,186 648,479 105,119 C 341,413 252,214 327,446 C 159,105 565,214 191,148 C 358,318 140,128 394,154 Z" opacity=".385" transform="rotate(73.0 400 300)"/><path fill="#ed2b2c" stroke="#f27630" stroke-opacity=".723" stroke-width="7" d="M 331,485 C 684,374 631,494 668,185 C 491,182 506,299 129,365 C 348,153 370,293 271,333 C 217,393 236,134 595,382 C 139,405 301,471 215,299 C 137,238 431,329 446,486 C 182,254 307,324 179,171 Z" opacity=".321" transform="rotate(-140.0 400 300)"/></g></svg>