<svg xmlns="http://www.w3.org/2000/svg" xmlns:xlink="http://www.w3.org/1999/xlink" width="800" height="600" version="1.1" viewBox="0 0 800 600"><g fill="none" fill-rule="evenodd" stroke="none" stroke-width="1"><ellipse cx="1" cy="599" fill="#DA3AC2" stroke="#88097D" stroke-opacity=".623" stroke-width="7" opacity=".358" rx="44" ry="298" transform="rotate(-77.0 400 300)"/><path fill="#107B9D" stroke="#06D8A5" stroke-opacity=".201" stroke-width="4" d="M 482,499 C 581,265 430,338 286,472 C 544,446 514,116 454,218 C 559,133 565,401 445,286 C 669,335 462,388 167,300 C 543,327 466,317 137,449 C 598,175 332,479 548,232 C 532,157 330,172 597,372 Z" opacity=".104" transform="rotate(-55.0 400 300)"/><path fill="#2B9707" stroke="#7B667C" stroke-opacity=".711" stroke-width="7" d="M 694,163 C 411,452 106,454 386,438 C 496,266 364,236 151,437 C 114,406 493,218 229,118 C 700,102 364,479 631,476 C 203,465 648,141 678,411 C 571,147 312,266 136,437 C 626,261 298,183 485,244 C 382,442 232,491 231,254 C 343,431 104,190 588,140 C 190,103 471,223 624,362 C 130,470 566,116 606,392 Z" opacity=".283" transform="rotate(170.0 400 300)"/><polygon fill="#B557A7" stroke="#C826A4" stroke-opacity=".337" stroke-width="7" points="349 287 740 273 529 584 690 394 486 77" opacity=".249" transform="rotate(15.0 400 300)"/><polygon fill="#8B23C0" stroke="#A2C683" stroke-opacity=".28" stroke-width="4" points="154 34 616 125 606 492 631 144 65 400 633 520 453 355 152 567" opacity=".145" transform="rotate(83.0 400 300)"/><polygon fill="#531212" stroke="#5A2A3B" stroke-opacity=".676" stroke-width="4" points="321 217 392 263 328 310 259 562 6 574 255 222 100 514" opacity=".987" transform="rotate(-97.0 400 300)"/><polygon fill="#0DC415" stroke="#D43094" stroke-opacity=".094" stroke-width="5" points="24 160 723 376 104 263 727 203 618 293 251 141 737 64 61 361" opacity=".643" transform="rotate(56.0 400 300)"/></g></svg>