<svg xmlns="http://www.w3.org/2000/svg" xmlns:xlink="http://www.w3.org/1999/xlink" width="800" height="600" version="1.1" viewBox="0 0 800 600"><g fill="none" fill-rule="evenodd" stroke="none" stroke-width="1"><rect width="314" height="297" x="419" y="442" fill="#0fa6d8" stroke="#0fa6d8" stroke-opacity=".189" stroke-width="4" opacity=".728" transform="rotate(-4.0 400 300)"/><ellipse cx="739" cy="469" fill="#fe9225" stroke="#0fa6d8" stroke-opacity=".363" stroke-width="4" opacity=".312" rx="224" ry="75" transform="rotate(-91.0 400 300)"/><polygon fill="#02eb6b" stroke="#fe9225" stroke-opacity=".549" stroke-width="6" points="179 217 750 452 667 119 204 168 179 150 230 41 670 562 468 295" opacity=".122" transform="rotate(-55.0 400 300)"/><ellipse cx="142" cy="326" fill="#2cd3f3" stroke="#f559a0" stroke-opacity=".739" stroke-width="2" opacity=".925" rx="112" ry="185" transform="rotate(88.0 400 300)"/><polygon fill="#f559a0" stroke="#f559a0" stroke-opacity=".973" stroke-width="2" points="442 297 662 550 123 452 14 564 297 468" opacity=".193" transform="rotate(-101.0 400 300)"/><polygon fill="#02eb6b" stroke="#fe9225" stroke-opacity=".996" stroke-width="1" points="539 486 240 397 667 93 78 504 656 172" opacity=".409" transform="rotate(61.0 400 300)"/><path fill="#f559a0" stroke="#2cd3f3" stroke-opacity=".175" stroke-width="5" d="M 603,449 C 586,166 590,208 447,449 C 205,274 482,319 422,378 C 379,350 476,414 173,159 C 534,439 453,105 630,273 C 449,188 232,128 275,490 C 398,381 435,433 217,462 Z" opacity=".661" transform="rotate(-126.0 400 300)"/><polygon fill="#fe9225" stroke="#02eb6b" stroke-opacity=".36" stroke-width="1" points="240 381 99 5 446 194 346 142 49 423 419 572" opacity=".943" transform="rotate(-153.0 400 300)"/><path fill="#02eb6b" stroke="#fe9225" stroke-opacity=".747" stroke-width="4" d="M 551,130 C 411,415 470,386 636,172 C 691,266 185,145 142,437 C 608,270 373,345 478,469 C 280,153 640,281 567,492 C 125,150 466,262 239,295 C 581,427 173,315 436,472 C 467,330 646,261 686,102 C 673,328 558,241 692,496 C 614,362 550,267 238,279 Z" opacity=".221" transform="rotate(-73.0 400 300)"/><rect width="166" height="26" x="653" y="120" fill="#02eb6b" stroke="#02eb6b" stroke-opacity=".461" stroke-width="7" opacity=".618" transform="rotate(94.0 400 300)"/></g></svg>