<?xml version="1.0" encoding="UTF-8"?>
<svg width="800px" height="600px" viewBox="0 0 800 600" version="1.1" xmlns="http://www.w3.org/2000/svg" xmlns:xlink="http://www.w3.org/1999/xlink">
  <defs></defs>
  <g stroke="none" stroke-width="1" fill="none" fill-rule="evenodd">
    
    <ellipse stroke="#f559a0" stroke-width="4" fill="#f559a0" opacity="0.6937336245535572" stroke-opacity="0.3189076896659839" transform="rotate(-113.0 400 300)" cx="311" rx="322" cy="556" ry="320"></ellipse>
<path stroke="#0fa6d8" stroke-width="1" fill="#0fa6d8" opacity="0.7151576507992327" stroke-opacity="0.3392548253842166" transform="rotate(6.0 400 300)" d="M 565,384  C 662,142 135,192 636,160 C 682,371 629,285 346,149 C 124,378 489,335 107,277 C 394,336 481,253 157,413 C 167,371 174,386 249,370 C 140,137 366,427 494,299 C 346,279 270,474 510,272 C 289,149 608,445 412,384 C 460,400 323,314 126,170 C 357,151 347,407 414,205 C 506,419 107,324 624,195 Z"></path>
<ellipse stroke="#0fa6d8" stroke-width="7" fill="#2cd3f3" opacity="0.7709222686639289" stroke-opacity="0.13390182753354118" transform="rotate(6.0 400 300)" cx="393" rx="410" cy="23" ry="282"></ellipse>
<polygon stroke="#fe9225" stroke-width="5" fill="#fe9225" opacity="0.6110866626351698" stroke-opacity="0.7967493366926937" transform="rotate(-13.0 400 300)" points="366 345 500 490 653 600 648 558 422 539 260 91 56 158 "></polygon>
<polygon stroke="#0fa6d8" stroke-width="7" fill="#02eb6b" opacity="0.4678866266143153" stroke-opacity="0.47538703714329145" transform="rotate(2.0 400 300)" points="209 310 670 425 772 362 2 463 414 52 "></polygon>
<rect stroke="#fe9225" stroke-width="4" fill="#f559a0" opacity="0.9466608372038392" stroke-opacity="0.02463564842773039" transform="rotate(-154.0 400 300)" x="110" y="399" width="65" height="64"></rect>
<polygon stroke="#02eb6b" stroke-width="3" fill="#2cd3f3" opacity="0.614218122870617" stroke-opacity="0.34191564208698527" transform="rotate(50.0 400 300)" points="531 62 500 476 315 472 48 120 451 397 183 383 655 350 "></polygon>
<ellipse stroke="#02eb6b" stroke-width="7" fill="#02eb6b" opacity="0.9944912419301274" stroke-opacity="0.6045368926676081" transform="rotate(18.0 400 300)" cx="319" rx="262" cy="125" ry="78"></ellipse>
<polygon stroke="#f559a0" stroke-width="7" fill="#fe9225" opacity="0.8841545704890158" stroke-opacity="0.6114081261003556" transform="rotate(-41.0 400 300)" points="571 427 206 174 386 305 688 114 481 95 134 80 "></polygon>
<path stroke="#2cd3f3" stroke-width="3" fill="#0fa6d8" opacity="0.8744253331661789" stroke-opacity="0.15592545186649376" transform="rotate(-166.0 400 300)" d="M 215,460  C 450,455 565,263 341,323 C 397,164 366,167 450,432 C 558,433 637,185 358,226 C 611,201 505,207 516,444 C 565,248 607,145 438,410 Z"></path>
<polygon stroke="#2cd3f3" stroke-width="5" fill="#02eb6b" opacity="0.44447719101669175" stroke-opacity="0.3005906896987396" transform="rotate(-178.0 400 300)" points="68 398 454 385 222 592 19 247 442 491 "></polygon>

  </g>
</svg>
