<svg xmlns="http://www.w3.org/2000/svg" xmlns:xlink="http://www.w3.org/1999/xlink" width="800" height="600" version="1.1" viewBox="0 0 800 600"><g fill="none" fill-rule="evenodd" stroke="none" stroke-width="1"><ellipse cx="311" cy="556" fill="#f559a0" stroke="#f559a0" stroke-opacity=".319" stroke-width="4" opacity=".694" rx="322" ry="320" transform="rotate(-113.0 400 300)"/><path fill="#0fa6d8" stroke="#0fa6d8" stroke-opacity=".339" stroke-width="1" d="M 565,384 C 662,142 135,192 636,160 C 682,371 629,285 346,149 C 124,378 489,335 107,277 C 394,336 481,253 157,413 C 167,371 174,386 249,370 C 140,137 366,427 494,299 C 346,279 270,474 510,272 C 289,149 608,445 412,384 C 460,400 323,314 126,170 C 357,151 347,407 414,205 C 506,419 107,324 624,195 Z" opacity=".715" transform="rotate(6.0 400 300)"/><ellipse cx="393" cy="23" fill="#2cd3f3" stroke="#0fa6d8" stroke-opacity=".134" stroke-width="7" opacity=".771" rx="410" ry="282" transform="rotate(6.0 400 300)"/><polygon fill="#fe9225" stroke="#fe9225" stroke-opacity=".797" stroke-width="5" points="366 345 500 490 653 600 648 558 422 539 260 91 56 158" opacity=".611" transform="rotate(-13.0 400 300)"/><polygon fill="#02eb6b" stroke="#0fa6d8" stroke-opacity=".475" stroke-width="7" points="209 310 670 425 772 362 2 463 414 52" opacity=".468" transform="rotate(2.0 400 300)"/><rect width="65" height="64" x="110" y="399" fill="#f559a0" stroke="#fe9225" stroke-opacity=".025" stroke-width="4" opacity=".947" transform="rotate(-154.0 400 300)"/><polygon fill="#2cd3f3" stroke="#02eb6b" stroke-opacity=".342" stroke-width="3" points="531 62 500 476 315 472 48 120 451 397 183 383 655 350" opacity=".614" transform="rotate(50.0 400 300)"/><ellipse cx="319" cy="125" fill="#02eb6b" stroke="#02eb6b" stroke-opacity=".605" stroke-width="7" opacity=".994" rx="262" ry="78" transform="rotate(18.0 400 300)"/><polygon fill="#fe9225" stroke="#f559a0" stroke-opacity=".611" stroke-width="7" points="571 427 206 174 386 305 688 114 481 95 134 80" opacity=".884" transform="rotate(-41.0 400 300)"/><path fill="#0fa6d8" stroke="#2cd3f3" stroke-opacity=".156" stroke-width="3" d="M 215,460 C 450,455 565,263 341,323 C 397,164 366,167 450,432 C 558,433 637,185 358,226 C 611,201 505,207 516,444 C 565,248 607,145 438,410 Z" opacity=".874" transform="rotate(-166.0 400 300)"/><polygon fill="#02eb6b" stroke="#2cd3f3" stroke-opacity=".301" stroke-width="5" points="68 398 454 385 222 592 19 247 442 491" opacity=".444" transform="rotate(-178.0 400 300)"/></g></svg>