<svg xmlns="http://www.w3.org/2000/svg" xmlns:xlink="http://www.w3.org/1999/xlink" width="800" height="600" version="1.1" viewBox="0 0 800 600"><g fill="none" fill-rule="evenodd" stroke="none" stroke-width="1"><ellipse cx="336" cy="1" fill="#0fa6d8" stroke="#f559a0" stroke-opacity=".903" stroke-width="4" opacity=".93" rx="53" ry="151" transform="rotate(39.0 400 300)"/><path fill="#fe9225" stroke="#02eb6b" stroke-opacity=".295" stroke-width="1" d="M 314,418 C 659,487 164,481 472,248 C 364,281 366,459 506,276 C 430,319 173,349 652,287 C 444,395 569,119 200,369 C 558,320 489,413 326,237 C 570,404 209,231 111,477 C 699,432 527,253 238,321 C 401,208 636,382 578,270 Z" opacity=".387" transform="rotate(0.0 400 300)"/><rect width="248" height="370" x="471" y="127" fill="#02eb6b" stroke="#0fa6d8" stroke-opacity=".739" stroke-width="3" opacity=".852" transform="rotate(-22.0 400 300)"/><rect width="369" height="332" x="783" y="439" fill="#0fa6d8" stroke="#fe9225" stroke-opacity=".729" stroke-width="5" opacity=".162" transform="rotate(54.0 400 300)"/><polygon fill="#02eb6b" stroke="#0fa6d8" stroke-opacity=".461" stroke-width="4" points="685 255 390 337 191 211 473 445 232 346 230 116 91 57" opacity=".597" transform="rotate(65.0 400 300)"/><path fill="#2cd3f3" stroke="#f559a0" stroke-opacity=".966" stroke-width="7" d="M 382,484 C 266,497 536,391 320,220 C 476,317 130,427 373,339 C 167,175 114,119 504,390 C 153,189 308,108 676,450 C 467,292 411,493 345,472 C 123,281 106,120 368,475 C 126,228 178,415 152,264 C 589,240 612,326 692,327 C 110,347 115,360 207,278 C 614,390 107,129 510,405 C 484,374 421,309 423,420 Z" opacity=".3" transform="rotate(-114.0 400 300)"/><ellipse cx="73" cy="282" fill="#2cd3f3" stroke="#02eb6b" stroke-opacity=".563" stroke-width="1" opacity=".589" rx="217" ry="91" transform="rotate(-46.0 400 300)"/></g></svg>