<?xml version="1.0" encoding="UTF-8"?>
<svg width="800px" height="600px" viewBox="0 0 800 600" version="1.1" xmlns="http://www.w3.org/2000/svg" xmlns:xlink="http://www.w3.org/1999/xlink">
  <defs></defs>
  <g stroke="none" stroke-width="1" fill="none" fill-rule="evenodd">
    
    <path stroke="#31a06b" stroke-width="4" fill="#f27630" opacity="0.6951403123414173" stroke-opacity="0.39032852536259866" transform="rotate(122.0 400 300)" d="M 651,422  C 591,225 117,155 388,143 C 171,368 679,198 466,343 C 416,419 261,412 639,272 C 483,459 652,403 131,430 C 519,155 361,361 519,124 C 220,477 534,218 679,198 Z"></path>
<path stroke="#f27630" stroke-width="6" fill="#f9d84b" opacity="0.9882594614627611" stroke-opacity="0.7439409227652392" transform="rotate(126.0 400 300)" d="M 679,403  C 479,424 554,217 177,317 C 412,106 110,218 599,283 C 258,209 368,107 613,210 C 622,199 311,227 600,127 C 369,135 234,359 199,363 C 419,327 149,377 349,404 Z"></path>
<path stroke="#2b55f7" stroke-width="2" fill="#f27630" opacity="0.8052943481781221" stroke-opacity="0.9886648101757374" transform="rotate(-174.0 400 300)" d="M 652,170  C 283,221 371,417 471,380 C 404,467 356,405 699,334 C 568,263 198,476 481,112 C 235,366 304,389 199,352 C 466,314 570,324 152,395 C 603,242 393,387 305,200 C 586,353 638,162 353,385 C 685,337 128,158 365,114 C 632,366 496,223 188,116 C 614,354 148,376 448,493 Z"></path>
<path stroke="#2b55f7" stroke-width="5" fill="#ed2b2c" opacity="0.9017742964358106" stroke-opacity="0.6570242921494451" transform="rotate(-158.0 400 300)" d="M 406,139  C 548,497 282,303 620,491 C 101,193 180,398 438,260 C 635,375 338,457 663,349 C 398,256 191,460 358,219 C 179,410 650,274 553,114 C 687,139 409,467 164,122 C 406,136 132,480 696,435 C 253,285 121,127 170,452 Z"></path>
<path stroke="#f27630" stroke-width="7" fill="#31a06b" opacity="0.6867702464867966" stroke-opacity="0.5934105577175364" transform="rotate(130.0 400 300)" d="M 346,280  C 233,454 461,123 159,249 C 396,255 338,244 149,380 C 537,139 422,371 360,492 C 647,453 229,241 557,420 C 632,105 262,409 335,313 C 576,307 318,299 149,273 C 271,302 244,275 568,136 C 628,211 322,323 295,342 C 219,449 105,427 424,310 C 470,488 395,228 101,278 Z"></path>
<path stroke="#ed2b2c" stroke-width="1" fill="#2b55f7" opacity="0.24673998777967934" stroke-opacity="0.20378002362828807" transform="rotate(93.0 400 300)" d="M 338,341  C 420,225 552,266 248,409 C 212,452 123,102 277,405 C 170,358 182,461 526,188 C 668,313 188,332 268,429 C 384,147 245,381 109,316 C 104,400 182,297 381,318 C 340,287 514,282 550,126 C 475,200 239,395 188,249 C 178,265 316,309 201,183 Z"></path>
<path stroke="#ed2b2c" stroke-width="6" fill="#f9d84b" opacity="0.858467572248682" stroke-opacity="0.5131355585511874" transform="rotate(-10.0 400 300)" d="M 606,393  C 663,457 508,328 435,401 C 458,143 400,338 390,221 C 456,491 128,113 237,434 C 373,393 327,101 276,417 C 484,205 359,433 185,467 C 665,109 136,285 284,429 C 566,388 627,490 664,458 C 155,407 426,138 201,131 Z"></path>
<path stroke="#f9d84b" stroke-width="3" fill="#f27630" opacity="0.4203540259832491" stroke-opacity="0.4837556656552902" transform="rotate(-121.0 400 300)" d="M 278,369  C 700,472 486,330 242,478 C 456,375 245,254 604,300 C 336,242 554,353 546,363 C 336,231 223,117 236,483 Z"></path>
<path stroke="#2b55f7" stroke-width="6" fill="#f9d84b" opacity="0.3380184288812686" stroke-opacity="0.8227793814327715" transform="rotate(-48.0 400 300)" d="M 228,450  C 462,471 556,339 361,472 C 149,458 602,344 122,186 C 322,156 532,422 188,390 C 392,431 540,160 273,445 C 390,407 398,146 132,362 C 433,301 483,333 574,399 C 532,294 522,484 691,207 C 698,477 229,218 327,130 C 588,290 337,221 587,198 C 343,400 320,374 118,443 C 287,191 426,406 257,213 Z"></path>
<path stroke="#f27630" stroke-width="2" fill="#31a06b" opacity="0.5966724414170068" stroke-opacity="0.5442762797607524" transform="rotate(-148.0 400 300)" d="M 424,443  C 299,219 602,237 107,381 C 121,155 492,351 366,365 C 431,284 361,141 124,130 C 611,476 324,301 646,339 C 593,420 110,311 198,481 C 482,468 682,199 653,489 C 440,441 325,490 422,110 C 146,397 591,149 531,264 C 522,421 291,105 449,491 C 353,459 398,291 273,112 Z"></path>

  </g>
</svg>
