<?xml version="1.0" encoding="UTF-8"?>
<svg width="800px" height="600px" viewBox="0 0 800 600" version="1.1" xmlns="http://www.w3.org/2000/svg" xmlns:xlink="http://www.w3.org/1999/xlink">
  <defs></defs>
  <g stroke="none" stroke-width="1" fill="none" fill-rule="evenodd">
    
    <path stroke="#2b55f7" stroke-width="6" fill="#2b55f7" opacity="0.2566947847230369" stroke-opacity="0.24706556915097597" transform="rotate(-3.0 400 300)" d="M 369,119  C 363,427 560,315 597,417 C 296,322 393,173 596,122 C 185,229 232,224 276,294 C 434,111 658,419 106,403 C 206,483 453,163 123,311 C 155,317 365,237 492,429 C 363,170 577,299 192,243 C 214,110 508,147 421,161 C 671,218 387,448 400,339 Z"></path>
<path stroke="#f9d84b" stroke-width="5" fill="#f9d84b" opacity="0.7349783190458774" stroke-opacity="0.024752312442729543" transform="rotate(-86.0 400 300)" d="M 274,337  C 469,252 411,115 360,197 C 206,276 254,104 186,395 C 611,347 423,106 221,160 C 670,226 453,402 412,435 C 641,196 389,176 119,177 C 554,296 329,280 488,413 C 591,492 385,122 233,439 C 221,496 317,403 316,121 C 420,106 651,440 520,206 Z"></path>
<path stroke="#2b55f7" stroke-width="3" fill="#f27630" opacity="0.3209198882713228" stroke-opacity="0.9867913472494504" transform="rotate(-164.0 400 300)" d="M 415,293  C 322,451 324,121 683,246 C 684,295 153,372 516,456 C 499,188 246,300 460,358 C 263,133 393,400 295,471 C 622,175 132,491 644,191 C 562,224 599,180 289,412 C 453,144 230,341 207,412 C 164,245 240,297 412,336 C 428,187 225,125 566,253 Z"></path>
<path stroke="#f9d84b" stroke-width="4" fill="#ed2b2c" opacity="0.35850920199796826" stroke-opacity="0.0020656838599705097" transform="rotate(-43.0 400 300)" d="M 582,376  C 480,315 187,226 536,434 C 634,418 219,489 322,263 C 181,106 361,246 564,287 C 541,159 303,192 249,121 C 425,245 115,255 336,276 C 190,317 507,108 425,286 C 267,203 103,297 354,111 Z"></path>
<path stroke="#2b55f7" stroke-width="5" fill="#f9d84b" opacity="0.1964734535464003" stroke-opacity="0.541569669286168" transform="rotate(-174.0 400 300)" d="M 297,407  C 229,143 204,174 610,230 C 173,287 334,459 197,327 C 616,443 221,347 698,357 C 565,149 689,212 599,491 C 107,453 290,352 356,474 C 655,234 629,226 605,435 C 108,487 252,382 132,210 C 690,358 342,154 245,289 C 189,142 575,210 515,230 Z"></path>
<path stroke="#f9d84b" stroke-width="7" fill="#ed2b2c" opacity="0.5507193745193303" stroke-opacity="0.692787577868098" transform="rotate(125.0 400 300)" d="M 277,341  C 210,304 265,117 356,437 C 490,368 700,363 344,342 C 277,137 622,394 381,190 C 139,476 221,202 433,235 C 205,157 114,234 330,289 C 207,294 607,415 516,108 C 664,394 190,392 524,110 C 503,312 556,442 515,326 C 663,427 303,243 550,481 Z"></path>
<path stroke="#f9d84b" stroke-width="5" fill="#f9d84b" opacity="0.1408941650178694" stroke-opacity="0.4371717509183285" transform="rotate(130.0 400 300)" d="M 141,406  C 280,194 212,127 600,119 C 634,316 280,204 299,446 C 123,366 595,451 574,163 C 434,242 154,372 165,458 C 440,241 133,477 581,241 C 456,340 484,211 109,459 C 542,220 666,149 277,426 C 260,388 693,229 199,249 C 505,116 329,284 178,381 C 115,210 623,215 671,421 Z"></path>
<path stroke="#2b55f7" stroke-width="2" fill="#2b55f7" opacity="0.08071736464167378" stroke-opacity="0.6976167241361182" transform="rotate(70.0 400 300)" d="M 337,442  C 530,116 584,125 459,313 C 138,223 668,280 577,489 C 631,274 320,315 577,171 C 315,424 423,223 401,261 C 564,421 229,185 629,433 Z"></path>
<path stroke="#f27630" stroke-width="6" fill="#f9d84b" opacity="0.014578164992566766" stroke-opacity="0.04637386844629623" transform="rotate(-2.0 400 300)" d="M 452,422  C 691,377 368,494 330,307 C 668,242 327,345 359,177 C 504,452 630,243 189,410 C 295,150 131,440 587,383 C 607,444 464,444 466,483 C 518,166 148,472 289,312 C 579,401 170,155 285,118 Z"></path>

  </g>
</svg>
