<?xml version="1.0" encoding="UTF-8"?>
<svg width="800px" height="600px" viewBox="0 0 800 600" version="1.1" xmlns="http://www.w3.org/2000/svg" xmlns:xlink="http://www.w3.org/1999/xlink">
  <defs></defs>
  <g stroke="none" stroke-width="1" fill="none" fill-rule="evenodd">
    
    <path stroke="#f9d84b" stroke-width="6" fill="#31a06b" opacity="0.3680069390114346" stroke-opacity="0.6892031870628337" transform="rotate(-150.0 400 300)" d="M 541,262  C 456,450 578,364 180,330 C 132,236 665,306 211,101 C 532,351 133,445 159,467 C 456,295 483,307 456,320 C 511,426 610,141 213,392 C 477,128 458,394 456,335 C 468,254 461,456 278,197 Z"></path>
<rect stroke="#31a06b" stroke-width="4" fill="#2b55f7" opacity="0.742679636970375" stroke-opacity="0.47324888596911346" transform="rotate(97.0 400 300)" x="353" y="172" width="210" height="332"></rect>
<rect stroke="#ed2b2c" stroke-width="6" fill="#2b55f7" opacity="0.1759555079522554" stroke-opacity="0.6879697128132001" transform="rotate(-57.0 400 300)" x="299" y="157" width="185" height="226"></rect>
<path stroke="#ed2b2c" stroke-width="7" fill="#f27630" opacity="0.6855295959387306" stroke-opacity="0.1659018149470985" transform="rotate(113.0 400 300)" d="M 367,250  C 197,470 381,139 592,416 C 219,110 281,488 684,335 C 254,476 402,235 697,465 C 691,358 402,194 203,338 C 578,255 609,232 613,381 C 275,298 378,496 696,383 C 292,299 225,280 627,374 C 381,477 265,112 222,455 C 241,377 583,181 564,220 C 219,229 514,215 657,221 Z"></path>
<ellipse stroke="#2b55f7" stroke-width="4" fill="#f27630" opacity="0.38012355918243584" stroke-opacity="0.4122317202707023" transform="rotate(93.0 400 300)" cx="137" rx="401" cy="322" ry="119"></ellipse>
<polygon stroke="#f27630" stroke-width="6" fill="#f9d84b" opacity="0.7512708664173007" stroke-opacity="0.3120825752660742" transform="rotate(150.0 400 300)" points="489 164 143 129 696 469 198 75 185 84 392 206 "></polygon>
<ellipse stroke="#ed2b2c" stroke-width="6" fill="#f9d84b" opacity="0.5554977859838776" stroke-opacity="0.9676014832322486" transform="rotate(-133.0 400 300)" cx="361" rx="366" cy="287" ry="150"></ellipse>
<ellipse stroke="#f9d84b" stroke-width="6" fill="#f27630" opacity="0.2368208817614759" stroke-opacity="0.8846559154175053" transform="rotate(-135.0 400 300)" cx="616" rx="173" cy="110" ry="99"></ellipse>
<rect stroke="#2b55f7" stroke-width="2" fill="#31a06b" opacity="0.9443137428380638" stroke-opacity="0.014131439313937476" transform="rotate(113.0 400 300)" x="462" y="321" width="381" height="202"></rect>
<polygon stroke="#ed2b2c" stroke-width="4" fill="#f9d84b" opacity="0.5148740843870313" stroke-opacity="0.020129987473125874" transform="rotate(78.0 400 300)" points="574 61 76 309 134 552 115 418 7 225 "></polygon>
<polygon stroke="#f27630" stroke-width="5" fill="#31a06b" opacity="0.7519503743413782" stroke-opacity="0.9791431084139508" transform="rotate(9.0 400 300)" points="12 273 752 379 330 25 683 240 646 73 108 377 "></polygon>

  </g>
</svg>
