<svg xmlns="http://www.w3.org/2000/svg" xmlns:xlink="http://www.w3.org/1999/xlink" width="800" height="600" version="1.1" viewBox="0 0 800 600"><g fill="none" fill-rule="evenodd" stroke="none" stroke-width="1"><path fill="#31a06b" stroke="#f9d84b" stroke-opacity=".689" stroke-width="6" d="M 541,262 C 456,450 578,364 180,330 C 132,236 665,306 211,101 C 532,351 133,445 159,467 C 456,295 483,307 456,320 C 511,426 610,141 213,392 C 477,128 458,394 456,335 C 468,254 461,456 278,197 Z" opacity=".368" transform="rotate(-150.0 400 300)"/><rect width="210" height="332" x="353" y="172" fill="#2b55f7" stroke="#31a06b" stroke-opacity=".473" stroke-width="4" opacity=".743" transform="rotate(97.0 400 300)"/><rect width="185" height="226" x="299" y="157" fill="#2b55f7" stroke="#ed2b2c" stroke-opacity=".688" stroke-width="6" opacity=".176" transform="rotate(-57.0 400 300)"/><path fill="#f27630" stroke="#ed2b2c" stroke-opacity=".166" stroke-width="7" d="M 367,250 C 197,470 381,139 592,416 C 219,110 281,488 684,335 C 254,476 402,235 697,465 C 691,358 402,194 203,338 C 578,255 609,232 613,381 C 275,298 378,496 696,383 C 292,299 225,280 627,374 C 381,477 265,112 222,455 C 241,377 583,181 564,220 C 219,229 514,215 657,221 Z" opacity=".686" transform="rotate(113.0 400 300)"/><ellipse cx="137" cy="322" fill="#f27630" stroke="#2b55f7" stroke-opacity=".412" stroke-width="4" opacity=".38" rx="401" ry="119" transform="rotate(93.0 400 300)"/><polygon fill="#f9d84b" stroke="#f27630" stroke-opacity=".312" stroke-width="6" points="489 164 143 129 696 469 198 75 185 84 392 206" opacity=".751" transform="rotate(150.0 400 300)"/><ellipse cx="361" cy="287" fill="#f9d84b" stroke="#ed2b2c" stroke-opacity=".968" stroke-width="6" opacity=".555" rx="366" ry="150" transform="rotate(-133.0 400 300)"/><ellipse cx="616" cy="110" fill="#f27630" stroke="#f9d84b" stroke-opacity=".885" stroke-width="6" opacity=".237" rx="173" ry="99" transform="rotate(-135.0 400 300)"/><rect width="381" height="202" x="462" y="321" fill="#31a06b" stroke="#2b55f7" stroke-opacity=".014" stroke-width="2" opacity=".944" transform="rotate(113.0 400 300)"/><polygon fill="#f9d84b" stroke="#ed2b2c" stroke-opacity=".02" stroke-width="4" points="574 61 76 309 134 552 115 418 7 225" opacity=".515" transform="rotate(78.0 400 300)"/><polygon fill="#31a06b" stroke="#f27630" stroke-opacity=".979" stroke-width="5" points="12 273 752 379 330 25 683 240 646 73 108 377" opacity=".752" transform="rotate(9.0 400 300)"/></g></svg>