<svg xmlns="http://www.w3.org/2000/svg" xmlns:xlink="http://www.w3.org/1999/xlink" width="800" height="600" version="1.1" viewBox="0 0 800 600"><g fill="none" fill-rule="evenodd" stroke="none" stroke-width="1"><rect width="306" height="376" x="755" y="143" fill="#31a06b" stroke="#2b55f7" stroke-opacity=".247" stroke-width="1" opacity=".005" transform="rotate(-96.0 400 300)"/><polygon fill="#ed2b2c" stroke="#31a06b" stroke-opacity=".268" stroke-width="5" points="439 50 10 70 81 588 597 4 692 203 729 334" opacity=".059" transform="rotate(155.0 400 300)"/><polygon fill="#31a06b" stroke="#2b55f7" stroke-opacity=".174" stroke-width="5" points="397 198 796 127 762 93 447 371 757 60" opacity=".407" transform="rotate(-54.0 400 300)"/><path fill="#2b55f7" stroke="#31a06b" stroke-opacity=".892" stroke-width="5" d="M 648,360 C 245,222 135,228 298,122 C 430,138 189,424 216,112 C 397,275 166,188 102,181 C 696,453 243,153 620,350 C 213,417 183,420 249,279 Z" opacity=".739" transform="rotate(164.0 400 300)"/><ellipse cx="221" cy="322" fill="#31a06b" stroke="#f9d84b" stroke-opacity=".084" stroke-width="3" opacity=".99" rx="40" ry="324" transform="rotate(32.0 400 300)"/><path fill="#f27630" stroke="#31a06b" stroke-opacity=".812" stroke-width="7" d="M 324,442 C 210,120 442,431 630,273 C 471,207 223,203 172,227 C 174,404 494,317 451,162 C 689,316 487,196 434,453 C 453,401 386,202 671,317 Z" opacity=".187" transform="rotate(158.0 400 300)"/><ellipse cx="541" cy="532" fill="#31a06b" stroke="#2b55f7" stroke-opacity=".377" stroke-width="7" opacity=".86" rx="294" ry="36" transform="rotate(42.0 400 300)"/></g></svg>