<?xml version="1.0" encoding="UTF-8"?>
<svg width="800px" height="600px" viewBox="0 0 800 600" version="1.1" xmlns="http://www.w3.org/2000/svg" xmlns:xlink="http://www.w3.org/1999/xlink">
  <defs></defs>
  <g stroke="none" stroke-width="1" fill="none" fill-rule="evenodd">
    
    <rect stroke="#2b55f7" stroke-width="1" fill="#31a06b" opacity="0.005368852443832788" stroke-opacity="0.24695492450680312" transform="rotate(-96.0 400 300)" x="755" y="143" width="306" height="376"></rect>
<polygon stroke="#31a06b" stroke-width="5" fill="#ed2b2c" opacity="0.05939176356416856" stroke-opacity="0.26820105771675784" transform="rotate(155.0 400 300)" points="439 50 10 70 81 588 597 4 692 203 729 334 "></polygon>
<polygon stroke="#2b55f7" stroke-width="5" fill="#31a06b" opacity="0.4073976949352723" stroke-opacity="0.17448348487656107" transform="rotate(-54.0 400 300)" points="397 198 796 127 762 93 447 371 757 60 "></polygon>
<path stroke="#31a06b" stroke-width="5" fill="#2b55f7" opacity="0.7391987169251314" stroke-opacity="0.8916372507555272" transform="rotate(164.0 400 300)" d="M 648,360  C 245,222 135,228 298,122 C 430,138 189,424 216,112 C 397,275 166,188 102,181 C 696,453 243,153 620,350 C 213,417 183,420 249,279 Z"></path>
<ellipse stroke="#f9d84b" stroke-width="3" fill="#31a06b" opacity="0.9898001087494702" stroke-opacity="0.08447345080578438" transform="rotate(32.0 400 300)" cx="221" rx="40" cy="322" ry="324"></ellipse>
<path stroke="#31a06b" stroke-width="7" fill="#f27630" opacity="0.18676906099663015" stroke-opacity="0.8124159350841874" transform="rotate(158.0 400 300)" d="M 324,442  C 210,120 442,431 630,273 C 471,207 223,203 172,227 C 174,404 494,317 451,162 C 689,316 487,196 434,453 C 453,401 386,202 671,317 Z"></path>
<ellipse stroke="#2b55f7" stroke-width="7" fill="#31a06b" opacity="0.8595653780123534" stroke-opacity="0.3766423104159111" transform="rotate(42.0 400 300)" cx="541" rx="294" cy="532" ry="36"></ellipse>

  </g>
</svg>
