<?xml version="1.0" encoding="UTF-8"?>
<svg width="800px" height="600px" viewBox="0 0 800 600" version="1.1" xmlns="http://www.w3.org/2000/svg" xmlns:xlink="http://www.w3.org/1999/xlink">
  <defs></defs>
  <g stroke="none" stroke-width="1" fill="none" fill-rule="evenodd">
    
    <ellipse stroke="#0fa6d8" stroke-width="6" fill="#fe9225" opacity="0.44960589743001134" stroke-opacity="0.28559456309302195" transform="rotate(31.0 400 300)" cx="36" rx="359" cy="426" ry="299"></ellipse>
<polygon stroke="#2cd3f3" stroke-width="3" fill="#fe9225" opacity="0.5840614776657741" stroke-opacity="0.03109579327237598" transform="rotate(128.0 400 300)" points="645 371 394 497 569 183 282 529 658 38 555 347 461 170 55 469 "></polygon>
<rect stroke="#02eb6b" stroke-width="7" fill="#02eb6b" opacity="0.4605436894600309" stroke-opacity="0.4960348709033754" transform="rotate(59.0 400 300)" x="767" y="90" width="300" height="303"></rect>
<polygon stroke="#f559a0" stroke-width="7" fill="#02eb6b" opacity="0.74862145406393" stroke-opacity="0.24093306664969996" transform="rotate(-15.0 400 300)" points="255 556 462 404 182 300 59 459 55 301 676 589 737 366 "></polygon>
<path stroke="#fe9225" stroke-width="7" fill="#fe9225" opacity="0.31003725563664536" stroke-opacity="0.11401670093799209" transform="rotate(-48.0 400 300)" d="M 120,155  C 239,454 636,154 679,467 C 131,320 356,335 371,181 C 390,449 385,191 549,234 C 224,472 144,188 175,208 C 597,363 312,213 491,492 C 508,441 182,230 280,274 C 486,499 535,347 190,336 Z"></path>
<polygon stroke="#0fa6d8" stroke-width="7" fill="#02eb6b" opacity="0.34786276426052726" stroke-opacity="0.7512649310453121" transform="rotate(-144.0 400 300)" points="715 533 782 356 547 263 392 205 750 274 410 197 "></polygon>
<polygon stroke="#0fa6d8" stroke-width="6" fill="#fe9225" opacity="0.8004270766751771" stroke-opacity="0.43153051225975925" transform="rotate(-64.0 400 300)" points="463 375 49 449 243 153 33 462 364 442 27 81 "></polygon>
<path stroke="#fe9225" stroke-width="4" fill="#02eb6b" opacity="0.1747476640536394" stroke-opacity="0.9473603981457636" transform="rotate(48.0 400 300)" d="M 455,218  C 206,109 509,445 233,328 C 256,182 452,232 348,296 C 182,169 340,499 181,179 C 505,269 395,117 175,426 C 464,253 679,442 454,265 C 607,477 149,378 477,386 C 410,308 175,372 226,116 Z"></path>

  </g>
</svg>
