<svg xmlns="http://www.w3.org/2000/svg" xmlns:xlink="http://www.w3.org/1999/xlink" width="800" height="600" version="1.1" viewBox="0 0 800 600"><g fill="none" fill-rule="evenodd" stroke="none" stroke-width="1"><ellipse cx="36" cy="426" fill="#fe9225" stroke="#0fa6d8" stroke-opacity=".286" stroke-width="6" opacity=".45" rx="359" ry="299" transform="rotate(31.0 400 300)"/><polygon fill="#fe9225" stroke="#2cd3f3" stroke-opacity=".031" stroke-width="3" points="645 371 394 497 569 183 282 529 658 38 555 347 461 170 55 469" opacity=".584" transform="rotate(128.0 400 300)"/><rect width="300" height="303" x="767" y="90" fill="#02eb6b" stroke="#02eb6b" stroke-opacity=".496" stroke-width="7" opacity=".461" transform="rotate(59.0 400 300)"/><polygon fill="#02eb6b" stroke="#f559a0" stroke-opacity=".241" stroke-width="7" points="255 556 462 404 182 300 59 459 55 301 676 589 737 366" opacity=".749" transform="rotate(-15.0 400 300)"/><path fill="#fe9225" stroke="#fe9225" stroke-opacity=".114" stroke-width="7" d="M 120,155 C 239,454 636,154 679,467 C 131,320 356,335 371,181 C 390,449 385,191 549,234 C 224,472 144,188 175,208 C 597,363 312,213 491,492 C 508,441 182,230 280,274 C 486,499 535,347 190,336 Z" opacity=".31" transform="rotate(-48.0 400 300)"/><polygon fill="#02eb6b" stroke="#0fa6d8" stroke-opacity=".751" stroke-width="7" points="715 533 782 356 547 263 392 205 750 274 410 197" opacity=".348" transform="rotate(-144.0 400 300)"/><polygon fill="#fe9225" stroke="#0fa6d8" stroke-opacity=".432" stroke-width="6" points="463 375 49 449 243 153 33 462 364 442 27 81" opacity=".8" transform="rotate(-64.0 400 300)"/><path fill="#02eb6b" stroke="#fe9225" stroke-opacity=".947" stroke-width="4" d="M 455,218 C 206,109 509,445 233,328 C 256,182 452,232 348,296 C 182,169 340,499 181,179 C 505,269 395,117 175,426 C 464,253 679,442 454,265 C 607,477 149,378 477,386 C 410,308 175,372 226,116 Z" opacity=".175" transform="rotate(48.0 400 300)"/></g></svg>