<svg xmlns="http://www.w3.org/2000/svg" xmlns:xlink="http://www.w3.org/1999/xlink" width="800" height="600" version="1.1" viewBox="0 0 800 600"><g fill="none" fill-rule="evenodd" stroke="none" stroke-width="1"><path fill="#02eb6b" stroke="#fe9225" stroke-opacity=".389" stroke-width="5" d="M 112,441 C 119,129 210,101 612,314 C 132,403 249,285 387,208 C 345,101 562,158 641,357 C 603,126 103,251 265,494 C 369,268 294,344 608,284 C 532,117 595,377 622,453 C 294,197 451,364 567,436 C 261,195 128,471 589,414 C 458,315 479,257 671,196 C 530,333 630,424 383,479 Z" opacity=".008" transform="rotate(69.0 400 300)"/><path fill="#f559a0" stroke="#fe9225" stroke-opacity=".342" stroke-width="5" d="M 465,297 C 153,389 643,185 333,490 C 350,425 479,160 430,199 C 220,391 684,216 144,201 C 506,435 123,200 456,115 C 674,362 355,211 210,239 C 309,391 624,368 126,189 C 356,190 170,380 251,397 C 575,416 660,461 302,322 C 688,110 199,180 393,305 Z" opacity=".407" transform="rotate(129.0 400 300)"/><path fill="#f559a0" stroke="#0fa6d8" stroke-opacity=".321" stroke-width="6" d="M 347,227 C 612,327 615,406 240,329 C 183,236 679,488 458,471 C 693,163 684,376 223,447 C 596,350 439,125 352,303 C 330,159 463,471 542,130 C 661,468 220,177 177,473 C 574,299 326,308 588,272 C 579,387 206,126 459,402 C 578,155 232,281 286,217 C 413,500 189,342 216,347 C 289,306 186,400 193,293 Z" opacity=".436" transform="rotate(34.0 400 300)"/><path fill="#fe9225" stroke="#fe9225" stroke-opacity=".285" stroke-width="3" d="M 415,302 C 626,241 393,207 396,292 C 443,367 400,392 387,279 C 532,383 367,311 568,188 C 669,267 654,323 404,381 C 515,192 455,228 550,496 C 372,264 352,462 238,172 Z" opacity=".252" transform="rotate(40.0 400 300)"/><path fill="#f559a0" stroke="#02eb6b" stroke-opacity=".965" stroke-width="5" d="M 497,266 C 471,294 598,474 490,109 C 593,405 311,184 520,233 C 664,443 329,474 247,440 C 590,260 165,401 571,469 C 132,339 167,146 248,300 C 198,382 576,332 596,230 Z" opacity=".415" transform="rotate(-88.0 400 300)"/><path fill="#f559a0" stroke="#2cd3f3" stroke-opacity=".786" stroke-width="2" d="M 527,401 C 230,107 237,272 575,109 C 643,250 252,258 357,473 C 156,330 693,269 531,146 C 116,144 336,468 124,131 C 284,145 216,112 374,292 C 240,340 562,343 467,239 C 190,485 302,345 405,105 Z" opacity=".24" transform="rotate(142.0 400 300)"/><path fill="#f559a0" stroke="#fe9225" stroke-opacity=".579" stroke-width="3" d="M 540,369 C 411,235 508,464 255,116 C 595,388 192,186 629,132 C 252,456 130,277 286,461 C 542,209 502,370 316,497 C 383,193 183,148 284,181 Z" opacity=".275" transform="rotate(22.0 400 300)"/><path fill="#0fa6d8" stroke="#f559a0" stroke-opacity=".491" stroke-width="5" d="M 604,386 C 488,141 592,223 181,496 C 465,449 544,326 527,402 C 344,440 347,377 137,488 C 569,433 314,284 672,291 C 342,234 130,205 670,456 C 468,389 330,258 320,467 C 120,375 281,222 320,491 C 432,387 297,341 528,418 C 393,211 218,420 494,345 C 203,168 354,101 354,416 Z" opacity=".005" transform="rotate(91.0 400 300)"/><path fill="#02eb6b" stroke="#0fa6d8" stroke-opacity=".808" stroke-width="6" d="M 648,441 C 403,102 360,466 425,400 C 506,342 120,399 186,381 C 108,104 380,447 687,466 C 189,124 375,133 296,442 Z" opacity=".288" transform="rotate(-9.0 400 300)"/><path fill="#fe9225" stroke="#f559a0" stroke-opacity=".829" stroke-width="7" d="M 396,350 C 263,332 547,186 161,168 C 319,252 658,437 533,113 C 287,396 139,481 680,185 C 263,355 656,239 452,357 C 260,469 651,138 207,157 C 482,200 166,334 369,376 C 101,257 158,134 308,176 C 576,425 550,156 376,286 Z" opacity=".555" transform="rotate(-101.0 400 300)"/><path fill="#f559a0" stroke="#0fa6d8" stroke-opacity=".118" stroke-width="3" d="M 680,364 C 360,325 469,396 479,294 C 259,119 194,261 545,449 C 210,284 432,425 176,236 C 505,465 251,316 574,424 C 230,423 404,163 486,374 Z" opacity=".435" transform="rotate(-165.0 400 300)"/></g></svg>