<?xml version="1.0" encoding="UTF-8"?>
<svg width="800px" height="600px" viewBox="0 0 800 600" version="1.1" xmlns="http://www.w3.org/2000/svg" xmlns:xlink="http://www.w3.org/1999/xlink">
  <defs></defs>
  <g stroke="none" stroke-width="1" fill="none" fill-rule="evenodd">
    
    <ellipse stroke="#D24A8C" stroke-width="5" fill="#80402B" opacity="0.6771481843598606" stroke-opacity="0.10250294613350835" transform="rotate(-20.0 400 300)" cx="454" rx="326" cy="58" ry="128"></ellipse>
<rect stroke="#3C66C0" stroke-width="3" fill="#4C7C66" opacity="0.4411272052540742" stroke-opacity="0.427820321875435" transform="rotate(-9.0 400 300)" x="187" y="350" width="83" height="93"></rect>
<ellipse stroke="#0CD544" stroke-width="4" fill="#768201" opacity="0.1569130223340768" stroke-opacity="0.6267581812924569" transform="rotate(46.0 400 300)" cx="264" rx="437" cy="356" ry="301"></ellipse>
<polygon stroke="#236953" stroke-width="1" fill="#B65A7A" opacity="0.7085945240554161" stroke-opacity="0.9963279358126136" transform="rotate(21.0 400 300)" points="588 469 73 497 664 432 500 199 305 139 687 532 "></polygon>
<path stroke="#640141" stroke-width="7" fill="#BAC2B1" opacity="0.32820733135205576" stroke-opacity="0.5044717208118804" transform="rotate(32.0 400 300)" d="M 204,396  C 658,426 649,399 685,275 C 580,116 307,283 265,428 C 200,254 335,428 574,397 C 301,134 500,118 472,353 C 512,384 183,490 473,322 C 174,197 111,110 500,302 C 192,489 656,384 133,269 C 150,111 287,180 675,257 C 465,256 481,184 665,208 Z"></path>
<rect stroke="#05B000" stroke-width="3" fill="#A48182" opacity="0.8012669826377933" stroke-opacity="0.5344554265752413" transform="rotate(-167.0 400 300)" x="25" y="172" width="355" height="394"></rect>
<path stroke="#A6C4B7" stroke-width="7" fill="#415358" opacity="0.9243027918812705" stroke-opacity="0.2043383943076677" transform="rotate(-18.0 400 300)" d="M 501,193  C 249,339 295,302 429,247 C 264,134 449,450 464,371 C 411,299 532,351 686,373 C 302,338 347,399 300,237 Z"></path>
<rect stroke="#B6D583" stroke-width="2" fill="#160533" opacity="0.8780999681868861" stroke-opacity="0.8630743786437204" transform="rotate(75.0 400 300)" x="581" y="307" width="49" height="375"></rect>
<path stroke="#C58439" stroke-width="5" fill="#0BCD7D" opacity="0.6665498520042711" stroke-opacity="0.6624614839248942" transform="rotate(-13.0 400 300)" d="M 243,423  C 536,300 282,319 677,243 C 104,355 505,275 214,418 C 430,347 441,187 565,422 C 133,333 182,155 686,253 C 126,187 372,331 303,253 C 562,492 639,317 441,307 Z"></path>
<path stroke="#40ABAA" stroke-width="3" fill="#C70C43" opacity="0.053725113977796564" stroke-opacity="0.7327915027897516" transform="rotate(8.0 400 300)" d="M 525,264  C 522,347 437,387 323,102 C 605,117 101,146 141,279 C 580,288 688,495 595,380 C 673,223 680,479 379,499 C 367,321 484,448 336,182 C 377,373 534,454 370,457 C 133,209 550,303 475,395 C 482,441 614,144 352,460 Z"></path>

  </g>
</svg>
