<svg xmlns="http://www.w3.org/2000/svg" xmlns:xlink="http://www.w3.org/1999/xlink" width="800" height="600" version="1.1" viewBox="0 0 800 600"><g fill="none" fill-rule="evenodd" stroke="none" stroke-width="1"><ellipse cx="454" cy="58" fill="#80402B" stroke="#D24A8C" stroke-opacity=".103" stroke-width="5" opacity=".677" rx="326" ry="128" transform="rotate(-20.0 400 300)"/><rect width="83" height="93" x="187" y="350" fill="#4C7C66" stroke="#3C66C0" stroke-opacity=".428" stroke-width="3" opacity=".441" transform="rotate(-9.0 400 300)"/><ellipse cx="264" cy="356" fill="#768201" stroke="#0CD544" stroke-opacity=".627" stroke-width="4" opacity=".157" rx="437" ry="301" transform="rotate(46.0 400 300)"/><polygon fill="#B65A7A" stroke="#236953" stroke-opacity=".996" stroke-width="1" points="588 469 73 497 664 432 500 199 305 139 687 532" opacity=".709" transform="rotate(21.0 400 300)"/><path fill="#BAC2B1" stroke="#640141" stroke-opacity=".504" stroke-width="7" d="M 204,396 C 658,426 649,399 685,275 C 580,116 307,283 265,428 C 200,254 335,428 574,397 C 301,134 500,118 472,353 C 512,384 183,490 473,322 C 174,197 111,110 500,302 C 192,489 656,384 133,269 C 150,111 287,180 675,257 C 465,256 481,184 665,208 Z" opacity=".328" transform="rotate(32.0 400 300)"/><rect width="355" height="394" x="25" y="172" fill="#A48182" stroke="#05B000" stroke-opacity=".534" stroke-width="3" opacity=".801" transform="rotate(-167.0 400 300)"/><path fill="#415358" stroke="#A6C4B7" stroke-opacity=".204" stroke-width="7" d="M 501,193 C 249,339 295,302 429,247 C 264,134 449,450 464,371 C 411,299 532,351 686,373 C 302,338 347,399 300,237 Z" opacity=".924" transform="rotate(-18.0 400 300)"/><rect width="49" height="375" x="581" y="307" fill="#160533" stroke="#B6D583" stroke-opacity=".863" stroke-width="2" opacity=".878" transform="rotate(75.0 400 300)"/><path fill="#0BCD7D" stroke="#C58439" stroke-opacity=".662" stroke-width="5" d="M 243,423 C 536,300 282,319 677,243 C 104,355 505,275 214,418 C 430,347 441,187 565,422 C 133,333 182,155 686,253 C 126,187 372,331 303,253 C 562,492 639,317 441,307 Z" opacity=".667" transform="rotate(-13.0 400 300)"/><path fill="#C70C43" stroke="#40ABAA" stroke-opacity=".733" stroke-width="3" d="M 525,264 C 522,347 437,387 323,102 C 605,117 101,146 141,279 C 580,288 688,495 595,380 C 673,223 680,479 379,499 C 367,321 484,448 336,182 C 377,373 534,454 370,457 C 133,209 550,303 475,395 C 482,441 614,144 352,460 Z" opacity=".054" transform="rotate(8.0 400 300)"/></g></svg>