<?xml version="1.0" encoding="UTF-8"?>
<svg width="800px" height="600px" viewBox="0 0 800 600" version="1.1" xmlns="http://www.w3.org/2000/svg" xmlns:xlink="http://www.w3.org/1999/xlink">
  <defs></defs>
  <g stroke="none" stroke-width="1" fill="none" fill-rule="evenodd">
    
    <ellipse stroke="#f559a0" stroke-width="7" fill="#fe9225" opacity="0.2882002637734756" stroke-opacity="0.7759409927061528" transform="rotate(156.0 400 300)" cx="130" rx="441" cy="359" ry="295"></ellipse>
<polygon stroke="#fe9225" stroke-width="5" fill="#0fa6d8" opacity="0.4350561836128325" stroke-opacity="0.3588098504580736" transform="rotate(9.0 400 300)" points="290 327 774 307 176 244 437 199 33 496 416 17 214 236 448 317 "></polygon>
<rect stroke="#fe9225" stroke-width="3" fill="#0fa6d8" opacity="0.24998369810228338" stroke-opacity="0.09144009462663152" transform="rotate(73.0 400 300)" x="696" y="211" width="312" height="88"></rect>
<rect stroke="#0fa6d8" stroke-width="4" fill="#0fa6d8" opacity="0.2661460467931985" stroke-opacity="0.6854241030147749" transform="rotate(73.0 400 300)" x="432" y="524" width="41" height="370"></rect>
<polygon stroke="#fe9225" stroke-width="7" fill="#f559a0" opacity="0.9324373874745863" stroke-opacity="0.6661212394398073" transform="rotate(-66.0 400 300)" points="211 152 71 118 648 247 335 378 798 3 323 118 773 270 216 287 "></polygon>
<rect stroke="#f559a0" stroke-width="1" fill="#fe9225" opacity="0.8324666037905538" stroke-opacity="0.031290411302823" transform="rotate(9.0 400 300)" x="49" y="277" width="35" height="133"></rect>
<ellipse stroke="#0fa6d8" stroke-width="2" fill="#0fa6d8" opacity="0.37878646433476837" stroke-opacity="0.5260019884677843" transform="rotate(-44.0 400 300)" cx="91" rx="156" cy="105" ry="143"></ellipse>
<rect stroke="#f559a0" stroke-width="4" fill="#fe9225" opacity="0.4501990973091733" stroke-opacity="0.28359402866662997" transform="rotate(105.0 400 300)" x="139" y="526" width="287" height="46"></rect>
<path stroke="#f559a0" stroke-width="3" fill="#02eb6b" opacity="0.3664938751502851" stroke-opacity="0.34892732655039826" transform="rotate(-22.0 400 300)" d="M 649,374  C 235,260 444,233 429,435 C 334,325 167,311 139,453 C 132,483 584,319 605,274 C 609,313 235,150 580,447 C 328,388 295,162 162,308 C 551,389 281,312 459,449 C 601,167 393,352 147,241 C 576,490 530,246 449,474 C 277,182 242,402 273,175 C 459,139 202,399 474,466 Z"></path>
<rect stroke="#02eb6b" stroke-width="7" fill="#2cd3f3" opacity="0.3435615453361766" stroke-opacity="0.35391654405490935" transform="rotate(116.0 400 300)" x="765" y="448" width="326" height="124"></rect>
<polygon stroke="#0fa6d8" stroke-width="6" fill="#02eb6b" opacity="0.6330951132825333" stroke-opacity="0.13852653466124076" transform="rotate(-144.0 400 300)" points="782 120 196 22 646 131 227 138 128 425 275 268 317 365 210 212 "></polygon>

  </g>
</svg>
