<svg xmlns="http://www.w3.org/2000/svg" xmlns:xlink="http://www.w3.org/1999/xlink" width="800" height="600" version="1.1" viewBox="0 0 800 600"><g fill="none" fill-rule="evenodd" stroke="none" stroke-width="1"><ellipse cx="130" cy="359" fill="#fe9225" stroke="#f559a0" stroke-opacity=".776" stroke-width="7" opacity=".288" rx="441" ry="295" transform="rotate(156.0 400 300)"/><polygon fill="#0fa6d8" stroke="#fe9225" stroke-opacity=".359" stroke-width="5" points="290 327 774 307 176 244 437 199 33 496 416 17 214 236 448 317" opacity=".435" transform="rotate(9.0 400 300)"/><rect width="312" height="88" x="696" y="211" fill="#0fa6d8" stroke="#fe9225" stroke-opacity=".091" stroke-width="3" opacity=".25" transform="rotate(73.0 400 300)"/><rect width="41" height="370" x="432" y="524" fill="#0fa6d8" stroke="#0fa6d8" stroke-opacity=".685" stroke-width="4" opacity=".266" transform="rotate(73.0 400 300)"/><polygon fill="#f559a0" stroke="#fe9225" stroke-opacity=".666" stroke-width="7" points="211 152 71 118 648 247 335 378 798 3 323 118 773 270 216 287" opacity=".932" transform="rotate(-66.0 400 300)"/><rect width="35" height="133" x="49" y="277" fill="#fe9225" stroke="#f559a0" stroke-opacity=".031" stroke-width="1" opacity=".832" transform="rotate(9.0 400 300)"/><ellipse cx="91" cy="105" fill="#0fa6d8" stroke="#0fa6d8" stroke-opacity=".526" stroke-width="2" opacity=".379" rx="156" ry="143" transform="rotate(-44.0 400 300)"/><rect width="287" height="46" x="139" y="526" fill="#fe9225" stroke="#f559a0" stroke-opacity=".284" stroke-width="4" opacity=".45" transform="rotate(105.0 400 300)"/><path fill="#02eb6b" stroke="#f559a0" stroke-opacity=".349" stroke-width="3" d="M 649,374 C 235,260 444,233 429,435 C 334,325 167,311 139,453 C 132,483 584,319 605,274 C 609,313 235,150 580,447 C 328,388 295,162 162,308 C 551,389 281,312 459,449 C 601,167 393,352 147,241 C 576,490 530,246 449,474 C 277,182 242,402 273,175 C 459,139 202,399 474,466 Z" opacity=".366" transform="rotate(-22.0 400 300)"/><rect width="326" height="124" x="765" y="448" fill="#2cd3f3" stroke="#02eb6b" stroke-opacity=".354" stroke-width="7" opacity=".344" transform="rotate(116.0 400 300)"/><polygon fill="#02eb6b" stroke="#0fa6d8" stroke-opacity=".139" stroke-width="6" points="782 120 196 22 646 131 227 138 128 425 275 268 317 365 210 212" opacity=".633" transform="rotate(-144.0 400 300)"/></g></svg>