<svg xmlns="http://www.w3.org/2000/svg" xmlns:xlink="http://www.w3.org/1999/xlink" width="800" height="600" version="1.1" viewBox="0 0 800 600"><g fill="none" fill-rule="evenodd" stroke="none" stroke-width="1"><path fill="#08829D" stroke="#522617" stroke-opacity=".697" stroke-width="4" d="M 368,237 C 520,499 556,498 372,246 C 517,422 348,421 176,173 C 250,248 487,481 324,108 C 565,271 204,235 323,223 C 200,370 638,144 447,106 C 328,180 479,384 231,464 C 180,184 654,402 234,173 Z" opacity=".92" transform="rotate(-30.0 400 300)"/><path fill="#D8BB83" stroke="#B79033" stroke-opacity=".28" stroke-width="6" d="M 132,198 C 399,155 612,394 310,139 C 531,311 676,466 680,341 C 486,332 139,494 143,331 C 638,286 472,369 204,405 Z" opacity=".127" transform="rotate(152.0 400 300)"/><rect width="214" height="238" x="557" y="196" fill="#1C7850" stroke="#606D0B" stroke-opacity=".704" stroke-width="4" opacity=".795" transform="rotate(43.0 400 300)"/><polygon fill="#058925" stroke="#274C88" stroke-opacity=".466" stroke-width="6" points="333 373 263 436 237 471 460 318 310 339" opacity=".108" transform="rotate(113.0 400 300)"/><rect width="116" height="223" x="76" y="478" fill="#4AA42D" stroke="#87D727" stroke-opacity=".158" stroke-width="2" opacity=".734" transform="rotate(116.0 400 300)"/><rect width="146" height="104" x="455" y="396" fill="#160176" stroke="#C37601" stroke-opacity=".75" stroke-width="3" opacity=".345" transform="rotate(-42.0 400 300)"/></g></svg>