<?xml version="1.0" encoding="UTF-8"?>
<svg width="800px" height="600px" viewBox="0 0 800 600" version="1.1" xmlns="http://www.w3.org/2000/svg" xmlns:xlink="http://www.w3.org/1999/xlink">
  <defs></defs>
  <g stroke="none" stroke-width="1" fill="none" fill-rule="evenodd">
    
    <ellipse stroke="#f27630" stroke-width="7" fill="#ed2b2c" opacity="0.22654741806635378" stroke-opacity="0.8898637473259067" transform="rotate(-108.0 400 300)" cx="401" rx="427" cy="103" ry="49"></ellipse>
<path stroke="#f9d84b" stroke-width="6" fill="#f27630" opacity="0.28380874634734254" stroke-opacity="0.14321094057954675" transform="rotate(22.0 400 300)" d="M 645,450  C 687,235 165,149 112,429 C 119,167 126,454 339,399 C 532,111 698,443 668,265 C 371,120 254,259 167,303 C 313,448 217,124 640,296 C 311,273 651,208 236,273 C 638,488 356,151 596,464 C 548,369 638,267 577,482 Z"></path>
<ellipse stroke="#f27630" stroke-width="4" fill="#31a06b" opacity="0.23826828262432498" stroke-opacity="0.5208008532209228" transform="rotate(-105.0 400 300)" cx="77" rx="190" cy="579" ry="260"></ellipse>
<polygon stroke="#2b55f7" stroke-width="3" fill="#ed2b2c" opacity="0.3766652527847582" stroke-opacity="0.25120603460799795" transform="rotate(154.0 400 300)" points="232 598 369 552 381 372 396 409 612 171 679 481 "></polygon>
<rect stroke="#f27630" stroke-width="2" fill="#f27630" opacity="0.2555472361840541" stroke-opacity="0.5779422633814439" transform="rotate(108.0 400 300)" x="57" y="523" width="100" height="83"></rect>
<ellipse stroke="#f27630" stroke-width="7" fill="#2b55f7" opacity="0.8121636752895829" stroke-opacity="0.6186581483027626" transform="rotate(-140.0 400 300)" cx="638" rx="254" cy="398" ry="190"></ellipse>
<rect stroke="#f9d84b" stroke-width="6" fill="#ed2b2c" opacity="0.7118162750229835" stroke-opacity="0.6404516424122996" transform="rotate(118.0 400 300)" x="746" y="151" width="124" height="260"></rect>
<path stroke="#f27630" stroke-width="2" fill="#2b55f7" opacity="0.20264972989573646" stroke-opacity="0.3500390816378081" transform="rotate(-2.0 400 300)" d="M 254,424  C 119,261 459,330 553,396 C 303,312 372,193 692,135 C 372,267 592,119 440,310 C 649,264 569,315 627,105 C 603,165 559,365 157,121 C 319,288 185,499 315,379 C 395,218 318,122 616,284 C 677,353 127,134 411,184 C 501,472 191,462 500,144 C 390,156 584,271 383,214 Z"></path>

  </g>
</svg>
