<svg xmlns="http://www.w3.org/2000/svg" xmlns:xlink="http://www.w3.org/1999/xlink" width="800" height="600" version="1.1" viewBox="0 0 800 600"><g fill="none" fill-rule="evenodd" stroke="none" stroke-width="1"><ellipse cx="401" cy="103" fill="#ed2b2c" stroke="#f27630" stroke-opacity=".89" stroke-width="7" opacity=".227" rx="427" ry="49" transform="rotate(-108.0 400 300)"/><path fill="#f27630" stroke="#f9d84b" stroke-opacity=".143" stroke-width="6" d="M 645,450 C 687,235 165,149 112,429 C 119,167 126,454 339,399 C 532,111 698,443 668,265 C 371,120 254,259 167,303 C 313,448 217,124 640,296 C 311,273 651,208 236,273 C 638,488 356,151 596,464 C 548,369 638,267 577,482 Z" opacity=".284" transform="rotate(22.0 400 300)"/><ellipse cx="77" cy="579" fill="#31a06b" stroke="#f27630" stroke-opacity=".521" stroke-width="4" opacity=".238" rx="190" ry="260" transform="rotate(-105.0 400 300)"/><polygon fill="#ed2b2c" stroke="#2b55f7" stroke-opacity=".251" stroke-width="3" points="232 598 369 552 381 372 396 409 612 171 679 481" opacity=".377" transform="rotate(154.0 400 300)"/><rect width="100" height="83" x="57" y="523" fill="#f27630" stroke="#f27630" stroke-opacity=".578" stroke-width="2" opacity=".256" transform="rotate(108.0 400 300)"/><ellipse cx="638" cy="398" fill="#2b55f7" stroke="#f27630" stroke-opacity=".619" stroke-width="7" opacity=".812" rx="254" ry="190" transform="rotate(-140.0 400 300)"/><rect width="124" height="260" x="746" y="151" fill="#ed2b2c" stroke="#f9d84b" stroke-opacity=".64" stroke-width="6" opacity=".712" transform="rotate(118.0 400 300)"/><path fill="#2b55f7" stroke="#f27630" stroke-opacity=".35" stroke-width="2" d="M 254,424 C 119,261 459,330 553,396 C 303,312 372,193 692,135 C 372,267 592,119 440,310 C 649,264 569,315 627,105 C 603,165 559,365 157,121 C 319,288 185,499 315,379 C 395,218 318,122 616,284 C 677,353 127,134 411,184 C 501,472 191,462 500,144 C 390,156 584,271 383,214 Z" opacity=".203" transform="rotate(-2.0 400 300)"/></g></svg>