<svg xmlns="http://www.w3.org/2000/svg" xmlns:xlink="http://www.w3.org/1999/xlink" width="800" height="600" version="1.1" viewBox="0 0 800 600"><g fill="none" fill-rule="evenodd" stroke="none" stroke-width="1"><path fill="#fe9225" stroke="#2cd3f3" stroke-opacity=".788" stroke-width="1" d="M 620,193 C 587,436 486,148 581,249 C 132,400 180,495 297,413 C 220,125 313,447 590,391 C 696,359 329,182 206,396 C 255,161 271,490 548,283 C 392,112 303,478 351,348 C 562,248 475,227 374,223 Z" opacity=".635" transform="rotate(154.0 400 300)"/><path fill="#2cd3f3" stroke="#0fa6d8" stroke-opacity=".547" stroke-width="3" d="M 696,377 C 490,449 500,201 298,436 C 416,385 531,208 194,358 C 386,133 180,468 490,385 C 337,419 166,294 647,205 C 553,463 492,385 316,433 C 601,161 178,139 487,249 C 656,102 639,426 602,175 Z" opacity=".839" transform="rotate(106.0 400 300)"/><path fill="#2cd3f3" stroke="#2cd3f3" stroke-opacity=".05" stroke-width="1" d="M 165,153 C 505,110 142,482 652,183 C 516,465 506,255 260,498 C 300,454 534,195 231,311 C 318,208 566,210 374,196 C 265,186 298,251 491,489 Z" opacity=".733" transform="rotate(-170.0 400 300)"/><path fill="#f559a0" stroke="#02eb6b" stroke-opacity=".906" stroke-width="7" d="M 225,251 C 371,271 210,107 558,337 C 417,485 635,426 471,192 C 285,219 479,226 164,442 C 645,138 594,369 467,354 C 530,357 368,253 460,146 C 592,443 498,333 526,202 C 240,297 112,185 175,185 C 183,141 463,424 139,266 C 271,243 193,202 259,153 C 493,419 440,299 693,467 Z" opacity=".221" transform="rotate(-147.0 400 300)"/><path fill="#f559a0" stroke="#0fa6d8" stroke-opacity=".823" stroke-width="4" d="M 689,320 C 433,256 216,336 451,373 C 111,383 167,352 525,469 C 529,292 593,164 332,105 C 183,157 107,382 551,247 C 683,197 415,353 685,173 C 390,471 556,137 596,243 C 281,155 123,153 668,442 C 157,144 682,346 569,182 C 587,397 686,372 564,494 C 624,188 269,343 138,347 Z" opacity=".495" transform="rotate(-115.0 400 300)"/><path fill="#0fa6d8" stroke="#0fa6d8" stroke-opacity=".304" stroke-width="6" d="M 166,133 C 649,418 140,373 311,286 C 335,281 455,266 601,157 C 459,188 400,295 185,178 C 376,213 314,274 495,301 C 243,467 623,144 230,157 C 610,487 402,154 182,495 C 505,208 130,422 188,122 C 441,300 501,124 420,102 C 246,233 389,253 477,211 C 118,181 533,254 227,331 Z" opacity=".686" transform="rotate(110.0 400 300)"/><path fill="#2cd3f3" stroke="#2cd3f3" stroke-opacity=".054" stroke-width="2" d="M 170,323 C 259,170 558,273 267,327 C 341,353 265,443 464,463 C 610,455 614,438 340,302 C 549,216 126,114 150,440 C 117,416 445,476 157,147 C 295,190 127,162 319,311 C 487,208 409,404 212,365 C 556,331 246,345 468,461 C 210,392 612,415 198,129 Z" opacity=".283" transform="rotate(-19.0 400 300)"/><path fill="#0fa6d8" stroke="#02eb6b" stroke-opacity=".658" stroke-width="3" d="M 579,247 C 365,267 262,242 147,216 C 677,356 284,391 254,242 C 500,187 625,253 537,402 C 516,135 311,453 155,448 C 312,341 291,320 402,431 Z" opacity=".989" transform="rotate(-115.0 400 300)"/><path fill="#0fa6d8" stroke="#02eb6b" stroke-opacity=".404" stroke-width="6" d="M 212,212 C 232,415 544,228 326,337 C 122,234 205,476 477,183 C 509,300 197,121 268,176 C 194,284 587,262 464,192 C 692,101 550,339 449,286 C 404,354 292,455 126,134 C 331,392 192,110 136,425 C 234,344 157,346 400,463 Z" opacity=".313" transform="rotate(118.0 400 300)"/></g></svg>