<?xml version="1.0" encoding="UTF-8"?>
<svg width="800px" height="600px" viewBox="0 0 800 600" version="1.1" xmlns="http://www.w3.org/2000/svg" xmlns:xlink="http://www.w3.org/1999/xlink">
  <defs></defs>
  <g stroke="none" stroke-width="1" fill="none" fill-rule="evenodd">
    
    <path stroke="#7A3320" stroke-width="5" fill="#280C5C" opacity="0.05296236657230767" stroke-opacity="0.7784095515222835" transform="rotate(-175.0 400 300)" d="M 548,471  C 655,165 670,481 474,408 C 649,262 681,320 453,200 C 174,330 594,276 176,400 C 232,136 270,270 214,165 C 512,353 556,449 278,368 C 175,450 606,142 154,343 C 383,485 221,410 266,200 Z"></path>
<path stroke="#2A1792" stroke-width="1" fill="#CB1C77" opacity="0.36019765330603976" stroke-opacity="0.05080287434592097" transform="rotate(76.0 400 300)" d="M 101,214  C 611,317 518,479 690,173 C 252,180 338,293 250,430 C 315,375 171,375 314,334 C 115,195 608,333 138,387 C 471,437 632,497 694,360 C 111,278 300,299 627,355 C 630,385 304,459 199,469 C 120,246 387,427 519,277 Z"></path>
<path stroke="#282274" stroke-width="3" fill="#CAD5B0" opacity="0.012222133574914413" stroke-opacity="0.9924740504602588" transform="rotate(-157.0 400 300)" d="M 243,448  C 382,192 192,121 162,134 C 235,373 625,167 545,104 C 274,245 116,327 506,103 C 196,483 300,364 626,403 C 391,474 557,182 479,249 C 672,281 142,345 261,499 C 471,170 287,177 566,183 Z"></path>
<path stroke="#003AA1" stroke-width="1" fill="#DBC158" opacity="0.7563166820266644" stroke-opacity="0.6480800619049196" transform="rotate(-23.0 400 300)" d="M 619,426  C 623,322 460,268 416,147 C 351,317 122,352 431,166 C 418,196 334,378 207,451 C 417,159 412,359 664,268 C 495,341 361,201 483,477 C 560,348 203,101 446,131 C 266,246 573,252 369,196 C 109,278 335,383 421,229 C 293,412 231,465 234,445 C 277,162 166,149 418,117 C 521,356 198,113 435,468 Z"></path>
<path stroke="#29C73D" stroke-width="3" fill="#5B03DC" opacity="0.7879466919867939" stroke-opacity="0.5518588458387506" transform="rotate(-73.0 400 300)" d="M 136,210  C 269,421 489,144 292,288 C 651,254 670,342 694,240 C 273,333 376,279 502,199 C 618,131 433,323 574,369 C 225,416 632,309 183,362 C 320,273 502,213 495,377 C 236,219 668,223 113,283 C 523,138 680,425 659,462 C 540,166 617,192 567,303 C 373,432 226,146 698,469 C 284,200 550,194 402,239 Z"></path>
<path stroke="#B5DADD" stroke-width="5" fill="#403273" opacity="0.1591925533249978" stroke-opacity="0.7892061520890213" transform="rotate(79.0 400 300)" d="M 614,444  C 226,142 486,211 256,255 C 485,378 580,359 191,120 C 159,353 226,303 133,345 C 352,111 500,270 109,201 C 574,364 321,410 127,197 C 403,329 208,382 498,152 C 216,162 592,237 287,495 C 376,106 387,239 236,437 C 226,172 428,235 279,481 C 153,415 403,141 620,161 Z"></path>

  </g>
</svg>
