<svg xmlns="http://www.w3.org/2000/svg" xmlns:xlink="http://www.w3.org/1999/xlink" width="800" height="600" version="1.1" viewBox="0 0 800 600"><g fill="none" fill-rule="evenodd" stroke="none" stroke-width="1"><path fill="#280C5C" stroke="#7A3320" stroke-opacity=".778" stroke-width="5" d="M 548,471 C 655,165 670,481 474,408 C 649,262 681,320 453,200 C 174,330 594,276 176,400 C 232,136 270,270 214,165 C 512,353 556,449 278,368 C 175,450 606,142 154,343 C 383,485 221,410 266,200 Z" opacity=".053" transform="rotate(-175.0 400 300)"/><path fill="#CB1C77" stroke="#2A1792" stroke-opacity=".051" stroke-width="1" d="M 101,214 C 611,317 518,479 690,173 C 252,180 338,293 250,430 C 315,375 171,375 314,334 C 115,195 608,333 138,387 C 471,437 632,497 694,360 C 111,278 300,299 627,355 C 630,385 304,459 199,469 C 120,246 387,427 519,277 Z" opacity=".36" transform="rotate(76.0 400 300)"/><path fill="#CAD5B0" stroke="#282274" stroke-opacity=".992" stroke-width="3" d="M 243,448 C 382,192 192,121 162,134 C 235,373 625,167 545,104 C 274,245 116,327 506,103 C 196,483 300,364 626,403 C 391,474 557,182 479,249 C 672,281 142,345 261,499 C 471,170 287,177 566,183 Z" opacity=".012" transform="rotate(-157.0 400 300)"/><path fill="#DBC158" stroke="#003AA1" stroke-opacity=".648" stroke-width="1" d="M 619,426 C 623,322 460,268 416,147 C 351,317 122,352 431,166 C 418,196 334,378 207,451 C 417,159 412,359 664,268 C 495,341 361,201 483,477 C 560,348 203,101 446,131 C 266,246 573,252 369,196 C 109,278 335,383 421,229 C 293,412 231,465 234,445 C 277,162 166,149 418,117 C 521,356 198,113 435,468 Z" opacity=".756" transform="rotate(-23.0 400 300)"/><path fill="#5B03DC" stroke="#29C73D" stroke-opacity=".552" stroke-width="3" d="M 136,210 C 269,421 489,144 292,288 C 651,254 670,342 694,240 C 273,333 376,279 502,199 C 618,131 433,323 574,369 C 225,416 632,309 183,362 C 320,273 502,213 495,377 C 236,219 668,223 113,283 C 523,138 680,425 659,462 C 540,166 617,192 567,303 C 373,432 226,146 698,469 C 284,200 550,194 402,239 Z" opacity=".788" transform="rotate(-73.0 400 300)"/><path fill="#403273" stroke="#B5DADD" stroke-opacity=".789" stroke-width="5" d="M 614,444 C 226,142 486,211 256,255 C 485,378 580,359 191,120 C 159,353 226,303 133,345 C 352,111 500,270 109,201 C 574,364 321,410 127,197 C 403,329 208,382 498,152 C 216,162 592,237 287,495 C 376,106 387,239 236,437 C 226,172 428,235 279,481 C 153,415 403,141 620,161 Z" opacity=".159" transform="rotate(79.0 400 300)"/></g></svg>