<svg xmlns="http://www.w3.org/2000/svg" xmlns:xlink="http://www.w3.org/1999/xlink" width="800" height="600" version="1.1" viewBox="0 0 800 600"><g fill="none" fill-rule="evenodd" stroke="none" stroke-width="1"><rect width="41" height="98" x="771" y="48" fill="#64D269" stroke="#444762" stroke-opacity=".258" stroke-width="1" opacity=".767" transform="rotate(133.0 400 300)"/><path fill="#2C33A8" stroke="#A386B0" stroke-opacity=".75" stroke-width="7" d="M 185,407 C 638,336 250,325 348,460 C 490,312 445,410 594,407 C 600,224 350,113 319,193 C 152,314 227,301 231,151 C 394,481 439,409 689,376 C 598,299 483,400 559,381 C 201,397 396,102 350,498 C 142,273 182,228 253,311 C 281,271 116,213 443,188 C 562,413 272,417 137,123 Z" opacity=".081" transform="rotate(-104.0 400 300)"/><path fill="#814603" stroke="#1A7A20" stroke-opacity=".336" stroke-width="3" d="M 475,112 C 324,134 425,247 559,418 C 126,328 658,420 590,465 C 533,404 270,118 485,149 C 335,118 147,108 361,181 C 102,263 535,197 242,366 C 663,266 313,172 353,124 C 379,438 539,346 431,402 C 506,140 621,134 145,453 C 691,331 274,294 453,431 C 698,159 409,382 356,456 Z" opacity=".671" transform="rotate(30.0 400 300)"/><polygon fill="#72C673" stroke="#133B1D" stroke-opacity=".712" stroke-width="1" points="434 538 631 431 715 325 583 268 476 67 756 450 79 194" opacity=".356" transform="rotate(142.0 400 300)"/><rect width="48" height="348" x="368" y="39" fill="#A018D8" stroke="#17C4D1" stroke-opacity=".848" stroke-width="1" opacity=".124" transform="rotate(102.0 400 300)"/><path fill="#122DC1" stroke="#1C440D" stroke-opacity=".367" stroke-width="4" d="M 607,136 C 581,305 403,267 444,402 C 403,188 467,107 311,193 C 578,234 211,184 467,344 C 531,152 293,339 571,489 C 251,439 279,450 644,443 C 396,415 224,127 144,144 C 572,353 264,106 119,139 C 476,216 242,162 535,346 Z" opacity=".54" transform="rotate(-156.0 400 300)"/><ellipse cx="69" cy="301" fill="#BC9358" stroke="#B5A24B" stroke-opacity=".871" stroke-width="2" opacity=".745" rx="334" ry="45" transform="rotate(162.0 400 300)"/><polygon fill="#B15249" stroke="#69251C" stroke-opacity=".697" stroke-width="6" points="500 54 738 275 597 251 643 149 731 154 340 591" opacity=".794" transform="rotate(-88.0 400 300)"/><rect width="382" height="141" x="577" y="457" fill="#004AA2" stroke="#844407" stroke-opacity=".421" stroke-width="6" opacity=".794" transform="rotate(143.0 400 300)"/></g></svg>