<svg xmlns="http://www.w3.org/2000/svg" xmlns:xlink="http://www.w3.org/1999/xlink" width="800" height="600" version="1.1" viewBox="0 0 800 600"><g fill="none" fill-rule="evenodd" stroke="none" stroke-width="1"><path fill="#855182" stroke="#062773" stroke-opacity=".161" stroke-width="1" d="M 677,339 C 699,390 375,180 179,492 C 481,247 559,376 349,350 C 571,395 281,383 616,258 C 516,497 329,428 387,422 C 627,149 515,237 336,211 C 378,345 466,334 652,356 C 369,333 445,493 469,193 C 627,424 256,228 460,290 C 247,165 501,272 367,450 Z" opacity=".452" transform="rotate(79.0 400 300)"/><path fill="#185067" stroke="#16BA02" stroke-opacity=".376" stroke-width="3" d="M 700,480 C 612,132 211,438 382,206 C 561,318 146,366 565,205 C 168,297 178,185 187,135 C 435,428 498,250 638,394 C 228,455 665,405 570,118 C 178,173 408,119 189,171 C 553,239 497,261 288,481 C 683,243 377,262 349,356 C 558,227 625,383 236,194 C 356,448 533,458 209,279 C 199,266 658,179 135,289 Z" opacity=".059" transform="rotate(-155.0 400 300)"/><path fill="#0872A7" stroke="#8223D3" stroke-opacity=".165" stroke-width="3" d="M 564,229 C 451,280 293,245 340,313 C 253,236 367,328 664,344 C 492,124 669,444 552,121 C 295,357 696,138 398,479 C 153,124 621,189 644,235 Z" opacity=".515" transform="rotate(147.0 400 300)"/><path fill="#B61544" stroke="#C79395" stroke-opacity=".403" stroke-width="1" d="M 535,178 C 604,381 581,352 545,235 C 420,462 102,287 622,212 C 586,388 612,398 218,166 C 653,438 499,489 552,228 C 160,232 307,104 199,399 C 192,437 396,429 669,394 C 595,103 254,469 491,387 C 320,226 439,247 330,181 C 285,458 220,345 173,481 C 666,220 310,484 198,158 C 246,294 535,343 260,355 Z" opacity=".708" transform="rotate(165.0 400 300)"/><path fill="#9B6DDA" stroke="#49A711" stroke-opacity=".162" stroke-width="4" d="M 112,280 C 450,229 329,221 207,342 C 470,191 294,273 227,312 C 565,127 295,472 465,265 C 617,320 401,495 261,266 C 102,306 212,323 283,191 C 504,176 247,168 227,164 C 655,179 108,495 488,433 Z" opacity=".709" transform="rotate(-37.0 400 300)"/><path fill="#000C5B" stroke="#187738" stroke-opacity=".133" stroke-width="1" d="M 197,208 C 282,401 364,107 336,494 C 301,223 443,217 171,324 C 690,340 496,270 361,307 C 106,321 615,263 182,410 C 637,456 471,306 380,259 C 287,422 342,435 511,379 C 594,433 496,396 643,224 C 587,475 142,140 355,282 C 391,337 639,219 224,442 Z" opacity=".194" transform="rotate(-167.0 400 300)"/><path fill="#242988" stroke="#D41B27" stroke-opacity=".768" stroke-width="5" d="M 423,477 C 339,473 348,256 258,173 C 457,324 152,308 589,142 C 144,176 638,234 392,305 C 414,251 154,141 612,483 C 529,254 440,136 547,248 C 667,344 292,221 582,394 C 161,105 194,365 492,247 Z" opacity=".361" transform="rotate(132.0 400 300)"/></g></svg>