<svg xmlns="http://www.w3.org/2000/svg" xmlns:xlink="http://www.w3.org/1999/xlink" width="800" height="600" version="1.1" viewBox="0 0 800 600"><g fill="none" fill-rule="evenodd" stroke="none" stroke-width="1"><rect width="297" height="368" x="30" y="173" fill="#2cd3f3" stroke="#02eb6b" stroke-opacity=".506" stroke-width="4" opacity=".222" transform="rotate(86.0 400 300)"/><path fill="#02eb6b" stroke="#f559a0" stroke-opacity=".015" stroke-width="4" d="M 635,239 C 645,143 403,169 588,257 C 504,307 234,102 323,213 C 538,201 356,328 141,110 C 696,321 230,201 101,475 C 678,347 694,261 637,281 Z" opacity=".798" transform="rotate(99.0 400 300)"/><path fill="#fe9225" stroke="#f559a0" stroke-opacity=".918" stroke-width="3" d="M 440,390 C 376,268 281,279 568,167 C 110,344 526,336 367,451 C 310,208 534,349 468,379 C 640,233 333,388 175,151 C 466,401 433,342 172,134 C 671,321 433,391 667,277 C 146,486 242,460 204,167 C 668,461 155,255 427,257 Z" opacity=".863" transform="rotate(-51.0 400 300)"/><rect width="314" height="120" x="746" y="303" fill="#fe9225" stroke="#0fa6d8" stroke-opacity=".597" stroke-width="6" opacity=".196" transform="rotate(-21.0 400 300)"/><rect width="257" height="35" x="688" y="264" fill="#2cd3f3" stroke="#02eb6b" stroke-opacity=".491" stroke-width="6" opacity=".231" transform="rotate(29.0 400 300)"/><polygon fill="#0fa6d8" stroke="#02eb6b" stroke-opacity=".985" stroke-width="1" points="5 233 578 587 736 348 240 114 291 202 91 582 649 138 591 356" opacity=".67" transform="rotate(171.0 400 300)"/><rect width="82" height="136" x="369" y="202" fill="#fe9225" stroke="#02eb6b" stroke-opacity=".452" stroke-width="7" opacity=".613" transform="rotate(-65.0 400 300)"/><polygon fill="#02eb6b" stroke="#02eb6b" stroke-opacity=".632" stroke-width="6" points="326 475 489 336 363 442 387 338 53 11 40 163" opacity=".479" transform="rotate(132.0 400 300)"/><ellipse cx="27" cy="361" fill="#02eb6b" stroke="#0fa6d8" stroke-opacity=".509" stroke-width="7" opacity=".529" rx="227" ry="249" transform="rotate(155.0 400 300)"/></g></svg>