<?xml version="1.0" encoding="UTF-8"?>
<svg width="800px" height="600px" viewBox="0 0 800 600" version="1.1" xmlns="http://www.w3.org/2000/svg" xmlns:xlink="http://www.w3.org/1999/xlink">
  <defs></defs>
  <g stroke="none" stroke-width="1" fill="none" fill-rule="evenodd">
    
    <path stroke="#31a06b" stroke-width="5" fill="#f9d84b" opacity="0.8968522710666624" stroke-opacity="0.05689731242480051" transform="rotate(177.0 400 300)" d="M 557,478  C 665,105 204,485 254,372 C 142,220 363,109 120,336 C 597,381 479,446 215,319 C 192,233 262,267 418,434 C 399,186 642,435 663,266 C 163,426 633,344 511,170 C 423,412 458,254 688,333 C 298,454 158,158 434,304 Z"></path>
<path stroke="#2b55f7" stroke-width="5" fill="#ed2b2c" opacity="0.6906464191533674" stroke-opacity="0.2714231937682092" transform="rotate(160.0 400 300)" d="M 280,304  C 121,206 481,210 357,435 C 569,496 117,461 415,105 C 472,493 184,385 330,272 C 660,396 547,489 166,416 C 651,164 396,190 143,308 C 514,485 497,185 257,376 C 486,166 621,152 661,172 C 406,448 205,112 232,170 C 464,298 326,183 533,411 C 211,190 338,144 494,166 Z"></path>
<path stroke="#f9d84b" stroke-width="7" fill="#f9d84b" opacity="0.3559416357632003" stroke-opacity="0.7307846330324801" transform="rotate(8.0 400 300)" d="M 419,158  C 196,111 307,211 541,265 C 524,228 524,401 269,447 C 346,105 383,320 416,143 C 302,473 345,133 174,158 C 317,390 655,308 556,384 Z"></path>
<path stroke="#31a06b" stroke-width="4" fill="#f9d84b" opacity="0.6990073532163903" stroke-opacity="0.8848485101832687" transform="rotate(-1.0 400 300)" d="M 655,495  C 384,113 687,123 418,497 C 579,416 297,128 484,496 C 174,493 696,242 568,368 C 469,353 593,116 410,421 C 450,345 287,493 435,223 C 313,500 380,378 134,396 C 171,180 443,397 204,463 C 216,182 338,357 685,182 Z"></path>
<path stroke="#2b55f7" stroke-width="3" fill="#f9d84b" opacity="0.7156610964944227" stroke-opacity="0.2598255758720487" transform="rotate(132.0 400 300)" d="M 601,249  C 226,460 331,414 156,164 C 341,439 454,215 342,190 C 263,274 555,456 631,241 C 591,498 386,222 367,209 C 584,318 239,495 595,437 C 429,318 122,358 254,146 C 620,142 445,128 542,340 C 439,267 630,478 469,492 C 289,382 635,255 220,273 C 695,347 624,120 436,274 Z"></path>
<path stroke="#ed2b2c" stroke-width="3" fill="#2b55f7" opacity="0.9936068317528429" stroke-opacity="0.5187902468681785" transform="rotate(128.0 400 300)" d="M 247,376  C 697,389 193,482 184,212 C 235,405 588,242 532,449 C 116,181 540,219 336,285 C 162,417 381,432 512,273 C 282,438 479,237 425,159 C 361,230 310,127 103,432 C 436,137 295,378 380,379 C 546,247 569,362 336,155 C 690,400 145,443 608,346 C 665,328 129,220 618,467 C 113,345 608,175 514,228 Z"></path>
<path stroke="#2b55f7" stroke-width="4" fill="#f9d84b" opacity="0.351522352709927" stroke-opacity="0.17626878670749413" transform="rotate(101.0 400 300)" d="M 413,443  C 132,240 316,183 451,436 C 287,395 274,406 571,378 C 581,289 594,470 544,397 C 188,351 558,387 125,492 C 275,385 630,427 508,442 Z"></path>
<path stroke="#31a06b" stroke-width="4" fill="#f27630" opacity="0.2817104896660729" stroke-opacity="0.5338911389809704" transform="rotate(-162.0 400 300)" d="M 405,289  C 669,223 264,174 192,408 C 440,265 124,139 657,192 C 169,111 253,183 121,301 C 170,398 379,481 306,101 C 102,380 380,198 179,190 C 159,425 305,457 257,166 C 578,434 361,260 551,391 Z"></path>
<path stroke="#2b55f7" stroke-width="4" fill="#31a06b" opacity="0.37361805397033737" stroke-opacity="0.5835241026557885" transform="rotate(65.0 400 300)" d="M 364,454  C 527,147 312,260 563,484 C 154,438 517,413 506,488 C 507,321 658,265 352,378 C 598,431 181,143 552,274 C 698,483 309,294 196,166 C 196,125 161,374 521,250 Z"></path>

  </g>
</svg>
