<svg xmlns="http://www.w3.org/2000/svg" xmlns:xlink="http://www.w3.org/1999/xlink" width="800" height="600" version="1.1" viewBox="0 0 800 600"><g fill="none" fill-rule="evenodd" stroke="none" stroke-width="1"><rect width="384" height="136" x="109" y="17" fill="#1B69DD" stroke="#2A13CC" stroke-opacity=".947" stroke-width="7" opacity=".244" transform="rotate(3.0 400 300)"/><ellipse cx="161" cy="319" fill="#94B08A" stroke="#C63122" stroke-opacity=".24" stroke-width="2" opacity=".644" rx="57" ry="164" transform="rotate(-127.0 400 300)"/><ellipse cx="698" cy="518" fill="#041465" stroke="#508AD0" stroke-opacity=".843" stroke-width="6" opacity=".953" rx="380" ry="228" transform="rotate(26.0 400 300)"/><rect width="291" height="33" x="541" y="21" fill="#6726A6" stroke="#A82C43" stroke-opacity=".165" stroke-width="1" opacity=".403" transform="rotate(-74.0 400 300)"/><polygon fill="#058BCD" stroke="#C37C98" stroke-opacity=".62" stroke-width="5" points="48 144 718 3 251 195 218 243 772 267 677 172" opacity=".35" transform="rotate(66.0 400 300)"/><rect width="100" height="62" x="458" y="295" fill="#529064" stroke="#DDDCA1" stroke-opacity=".178" stroke-width="2" opacity=".098" transform="rotate(-79.0 400 300)"/><ellipse cx="13" cy="22" fill="#54C6B1" stroke="#539298" stroke-opacity=".597" stroke-width="7" opacity=".375" rx="384" ry="254" transform="rotate(-34.0 400 300)"/><polygon fill="#89C8B7" stroke="#66BC7D" stroke-opacity=".648" stroke-width="7" points="355 459 511 243 65 78 83 1 187 407" opacity=".664" transform="rotate(-62.0 400 300)"/><rect width="214" height="79" x="694" y="384" fill="#80375B" stroke="#08D9C6" stroke-opacity=".996" stroke-width="6" opacity=".615" transform="rotate(-168.0 400 300)"/><path fill="#12D681" stroke="#2C29A8" stroke-opacity=".4" stroke-width="5" d="M 195,148 C 147,325 128,471 392,320 C 540,103 159,318 408,168 C 104,492 694,192 296,435 C 178,410 200,138 159,359 C 530,482 617,253 618,322 Z" opacity=".388" transform="rotate(90.0 400 300)"/><path fill="#BD798B" stroke="#204D09" stroke-opacity=".899" stroke-width="1" d="M 611,272 C 554,120 231,147 194,245 C 264,276 551,459 145,283 C 234,374 525,233 671,374 C 229,326 243,363 151,351 C 257,147 105,284 126,441 C 627,161 324,275 555,186 C 193,237 317,438 253,144 C 189,470 508,287 631,106 Z" opacity=".305" transform="rotate(5.0 400 300)"/></g></svg>