<?xml version="1.0" encoding="UTF-8"?>
<svg width="800px" height="600px" viewBox="0 0 800 600" version="1.1" xmlns="http://www.w3.org/2000/svg" xmlns:xlink="http://www.w3.org/1999/xlink">
  <defs></defs>
  <g stroke="none" stroke-width="1" fill="none" fill-rule="evenodd">
    
    <rect stroke="#2A13CC" stroke-width="7" fill="#1B69DD" opacity="0.24446084252944547" stroke-opacity="0.9473373841476285" transform="rotate(3.0 400 300)" x="109" y="17" width="384" height="136"></rect>
<ellipse stroke="#C63122" stroke-width="2" fill="#94B08A" opacity="0.6435495472983432" stroke-opacity="0.23997845691850977" transform="rotate(-127.0 400 300)" cx="161" rx="57" cy="319" ry="164"></ellipse>
<ellipse stroke="#508AD0" stroke-width="6" fill="#041465" opacity="0.9532348058018403" stroke-opacity="0.8430798613865846" transform="rotate(26.0 400 300)" cx="698" rx="380" cy="518" ry="228"></ellipse>
<rect stroke="#A82C43" stroke-width="1" fill="#6726A6" opacity="0.40263264155276846" stroke-opacity="0.165057855465154" transform="rotate(-74.0 400 300)" x="541" y="21" width="291" height="33"></rect>
<polygon stroke="#C37C98" stroke-width="5" fill="#058BCD" opacity="0.3500408827280058" stroke-opacity="0.620303814927794" transform="rotate(66.0 400 300)" points="48 144 718 3 251 195 218 243 772 267 677 172 "></polygon>
<rect stroke="#DDDCA1" stroke-width="2" fill="#529064" opacity="0.09753250202802717" stroke-opacity="0.17808844874984767" transform="rotate(-79.0 400 300)" x="458" y="295" width="100" height="62"></rect>
<ellipse stroke="#539298" stroke-width="7" fill="#54C6B1" opacity="0.3748054173035853" stroke-opacity="0.5966352776131881" transform="rotate(-34.0 400 300)" cx="13" rx="384" cy="22" ry="254"></ellipse>
<polygon stroke="#66BC7D" stroke-width="7" fill="#89C8B7" opacity="0.6641951954426598" stroke-opacity="0.6478030754243423" transform="rotate(-62.0 400 300)" points="355 459 511 243 65 78 83 1 187 407 "></polygon>
<rect stroke="#08D9C6" stroke-width="6" fill="#80375B" opacity="0.6150989340888674" stroke-opacity="0.9962464893940545" transform="rotate(-168.0 400 300)" x="694" y="384" width="214" height="79"></rect>
<path stroke="#2C29A8" stroke-width="5" fill="#12D681" opacity="0.3878911830501724" stroke-opacity="0.4004524598135883" transform="rotate(90.0 400 300)" d="M 195,148  C 147,325 128,471 392,320 C 540,103 159,318 408,168 C 104,492 694,192 296,435 C 178,410 200,138 159,359 C 530,482 617,253 618,322 Z"></path>
<path stroke="#204D09" stroke-width="1" fill="#BD798B" opacity="0.305477923276126" stroke-opacity="0.8988389683785686" transform="rotate(5.0 400 300)" d="M 611,272  C 554,120 231,147 194,245 C 264,276 551,459 145,283 C 234,374 525,233 671,374 C 229,326 243,363 151,351 C 257,147 105,284 126,441 C 627,161 324,275 555,186 C 193,237 317,438 253,144 C 189,470 508,287 631,106 Z"></path>

  </g>
</svg>
