<?xml version="1.0" encoding="UTF-8"?>
<svg width="800px" height="600px" viewBox="0 0 800 600" version="1.1" xmlns="http://www.w3.org/2000/svg" xmlns:xlink="http://www.w3.org/1999/xlink">
  <defs></defs>
  <g stroke="none" stroke-width="1" fill="none" fill-rule="evenodd">
    
    <rect stroke="#31a06b" stroke-width="7" fill="#2b55f7" opacity="0.49345173533639136" stroke-opacity="0.3872467137526282" transform="rotate(-73.0 400 300)" x="777" y="68" width="77" height="57"></rect>
<ellipse stroke="#31a06b" stroke-width="3" fill="#f9d84b" opacity="0.5596096313099164" stroke-opacity="0.6421414479340155" transform="rotate(-162.0 400 300)" cx="378" rx="265" cy="521" ry="213"></ellipse>
<path stroke="#2b55f7" stroke-width="3" fill="#f27630" opacity="0.12515181045037965" stroke-opacity="0.12553054772074643" transform="rotate(-174.0 400 300)" d="M 208,309  C 592,434 176,456 164,498 C 431,156 464,384 355,223 C 353,294 496,489 692,355 C 369,490 642,129 214,246 C 498,129 396,151 442,484 C 671,440 209,230 380,340 C 260,161 581,338 681,397 C 469,355 250,116 504,148 Z"></path>
<path stroke="#f9d84b" stroke-width="5" fill="#f27630" opacity="0.08953814254364276" stroke-opacity="0.47008688119053205" transform="rotate(127.0 400 300)" d="M 700,337  C 675,240 604,231 470,400 C 431,274 633,117 600,309 C 409,496 428,222 436,181 C 671,246 602,259 301,449 Z"></path>
<path stroke="#ed2b2c" stroke-width="3" fill="#f9d84b" opacity="0.7694971409915716" stroke-opacity="0.5039199115023578" transform="rotate(-89.0 400 300)" d="M 215,377  C 288,277 641,199 626,300 C 254,140 611,175 310,481 C 460,255 102,379 378,193 C 654,406 654,287 387,293 C 578,179 549,267 479,329 C 256,393 183,130 167,424 Z"></path>
<ellipse stroke="#f27630" stroke-width="5" fill="#2b55f7" opacity="0.9177110529965415" stroke-opacity="0.41391025910945795" transform="rotate(54.0 400 300)" cx="126" rx="107" cy="488" ry="249"></ellipse>
<path stroke="#ed2b2c" stroke-width="5" fill="#ed2b2c" opacity="0.23174634196223684" stroke-opacity="0.8804940996221623" transform="rotate(171.0 400 300)" d="M 162,108  C 574,286 454,378 234,335 C 528,262 124,171 612,375 C 453,270 371,273 156,299 C 471,489 413,182 361,468 C 286,251 490,188 635,492 C 407,344 559,267 326,268 C 238,239 281,260 163,330 C 287,493 484,218 480,261 C 625,255 550,133 123,382 C 376,366 368,166 455,468 Z"></path>

  </g>
</svg>
