<?xml version="1.0" encoding="UTF-8"?>
<svg width="800px" height="600px" viewBox="0 0 800 600" version="1.1" xmlns="http://www.w3.org/2000/svg" xmlns:xlink="http://www.w3.org/1999/xlink">
  <defs></defs>
  <g stroke="none" stroke-width="1" fill="none" fill-rule="evenodd">
    
    <path stroke="#f27630" stroke-width="7" fill="#2b55f7" opacity="0.12296592237092983" stroke-opacity="0.8783340814687657" transform="rotate(93.0 400 300)" d="M 571,469  C 325,170 622,369 301,398 C 208,244 597,428 385,442 C 133,148 325,246 645,238 C 267,138 577,484 235,495 Z"></path>
<path stroke="#2b55f7" stroke-width="7" fill="#f27630" opacity="0.7961526143770579" stroke-opacity="0.8632427961069452" transform="rotate(94.0 400 300)" d="M 493,173  C 659,399 201,370 276,283 C 102,335 337,247 662,464 C 165,458 422,130 231,459 C 285,451 232,348 256,431 Z"></path>
<path stroke="#f9d84b" stroke-width="3" fill="#ed2b2c" opacity="0.19109709213162665" stroke-opacity="0.3801061880412522" transform="rotate(-132.0 400 300)" d="M 224,324  C 295,257 274,411 633,162 C 179,156 254,207 270,278 C 600,130 421,462 459,135 C 589,102 195,454 151,368 C 503,388 494,162 677,224 C 685,119 170,114 276,107 C 495,307 623,345 332,448 C 557,376 367,384 546,419 C 220,476 224,293 535,417 C 114,221 287,212 204,246 C 380,247 532,325 602,182 Z"></path>
<path stroke="#ed2b2c" stroke-width="3" fill="#f27630" opacity="0.5638826130253195" stroke-opacity="0.9719665982503194" transform="rotate(-113.0 400 300)" d="M 613,115  C 182,328 186,480 660,209 C 479,394 693,306 696,481 C 322,476 609,450 499,126 C 530,480 224,411 256,227 C 477,263 270,285 654,110 C 555,270 167,328 538,469 C 467,375 334,134 153,480 C 568,234 106,404 154,113 C 413,484 168,452 420,327 C 523,175 617,327 652,317 C 448,456 498,462 339,451 Z"></path>
<path stroke="#31a06b" stroke-width="6" fill="#f27630" opacity="0.1650756565012969" stroke-opacity="0.9114853524019564" transform="rotate(-132.0 400 300)" d="M 492,391  C 169,387 668,348 469,364 C 327,102 654,309 556,435 C 124,197 165,181 572,205 C 501,365 311,224 527,383 Z"></path>
<path stroke="#ed2b2c" stroke-width="1" fill="#f9d84b" opacity="0.4169687287813979" stroke-opacity="0.7749627711572217" transform="rotate(146.0 400 300)" d="M 565,359  C 320,250 593,230 635,283 C 535,436 384,225 431,154 C 352,274 520,371 537,465 C 245,428 232,435 576,205 C 208,347 586,133 299,133 C 559,184 230,493 207,284 C 627,428 365,320 473,415 C 651,181 369,336 558,126 C 461,123 246,450 382,337 C 473,327 377,277 523,126 C 115,436 317,406 248,119 Z"></path>
<path stroke="#f27630" stroke-width="5" fill="#2b55f7" opacity="0.5460103800354877" stroke-opacity="0.584367510512694" transform="rotate(-43.0 400 300)" d="M 225,319  C 335,307 412,426 278,169 C 250,325 525,453 635,381 C 445,330 620,325 308,263 C 650,440 529,457 297,319 C 324,417 186,216 235,473 C 157,224 401,144 160,425 C 482,103 130,176 593,377 C 111,393 310,339 237,280 C 357,136 219,221 661,257 C 299,373 456,163 501,476 Z"></path>

  </g>
</svg>
