<?xml version="1.0" encoding="UTF-8"?>
<svg width="800px" height="600px" viewBox="0 0 800 600" version="1.1" xmlns="http://www.w3.org/2000/svg" xmlns:xlink="http://www.w3.org/1999/xlink">
  <defs></defs>
  <g stroke="none" stroke-width="1" fill="none" fill-rule="evenodd">
    
    <path stroke="#02eb6b" stroke-width="3" fill="#f559a0" opacity="0.7916224196492742" stroke-opacity="0.7329161689768274" transform="rotate(152.0 400 300)" d="M 521,132  C 451,382 339,335 302,158 C 559,249 136,205 355,367 C 116,430 376,489 159,295 C 656,171 493,259 204,255 C 503,225 253,374 230,137 C 639,285 203,362 601,101 C 587,264 404,258 614,370 C 212,493 242,115 218,448 Z"></path>
<path stroke="#f559a0" stroke-width="2" fill="#02eb6b" opacity="0.4465432456917127" stroke-opacity="0.06569438017280241" transform="rotate(65.0 400 300)" d="M 508,368  C 449,230 255,329 434,500 C 427,145 229,105 217,389 C 128,205 257,298 350,122 C 187,185 646,495 186,327 Z"></path>
<path stroke="#fe9225" stroke-width="2" fill="#fe9225" opacity="0.36037678225954367" stroke-opacity="0.1866815013136106" transform="rotate(-87.0 400 300)" d="M 349,368  C 241,438 324,432 118,460 C 409,336 480,228 694,455 C 510,150 158,412 680,213 C 422,324 257,470 470,111 C 446,189 152,352 568,447 C 674,230 393,181 489,184 C 291,435 142,271 176,414 C 643,160 231,362 206,212 C 434,253 330,317 145,256 Z"></path>
<path stroke="#fe9225" stroke-width="6" fill="#f559a0" opacity="0.2663215918896878" stroke-opacity="0.6415877927411119" transform="rotate(-66.0 400 300)" d="M 572,125  C 461,456 482,295 168,337 C 373,247 633,199 625,197 C 603,222 383,145 694,152 C 498,416 386,375 358,302 C 473,201 171,216 292,269 C 615,312 581,103 598,491 Z"></path>
<path stroke="#f559a0" stroke-width="3" fill="#f559a0" opacity="0.1980901860710492" stroke-opacity="0.011188359498057437" transform="rotate(-27.0 400 300)" d="M 604,352  C 274,343 102,304 119,366 C 229,101 584,383 587,231 C 281,299 346,332 628,469 C 164,106 670,282 239,377 C 645,486 402,470 268,410 Z"></path>
<path stroke="#f559a0" stroke-width="7" fill="#02eb6b" opacity="0.12068277606800433" stroke-opacity="0.23961127913481883" transform="rotate(114.0 400 300)" d="M 486,162  C 424,227 686,200 510,388 C 484,143 316,307 305,145 C 408,303 251,397 178,272 C 277,170 560,296 348,455 C 372,404 322,400 137,238 C 421,491 658,154 333,479 Z"></path>
<path stroke="#0fa6d8" stroke-width="4" fill="#02eb6b" opacity="0.3183004154569195" stroke-opacity="0.5139989605940319" transform="rotate(-142.0 400 300)" d="M 186,288  C 227,498 436,188 391,321 C 345,182 323,478 337,489 C 240,182 614,393 518,345 C 125,278 179,101 429,425 C 538,255 466,205 381,330 C 344,336 194,378 250,476 C 333,293 447,274 440,323 C 538,128 239,327 456,494 C 640,222 642,368 447,170 C 551,269 401,418 172,144 Z"></path>
<path stroke="#fe9225" stroke-width="3" fill="#f559a0" opacity="0.4928501285108786" stroke-opacity="0.4655978215863051" transform="rotate(164.0 400 300)" d="M 421,439  C 674,286 559,185 696,450 C 354,124 390,208 497,260 C 224,145 398,483 208,117 C 388,193 473,221 585,107 C 615,160 338,376 204,261 C 659,303 214,323 202,233 C 340,395 452,246 496,236 C 333,110 661,428 680,130 C 363,421 174,485 585,416 C 439,288 644,137 240,458 C 166,340 424,493 567,417 Z"></path>
<path stroke="#02eb6b" stroke-width="6" fill="#0fa6d8" opacity="0.683072003424107" stroke-opacity="0.38361371008975637" transform="rotate(167.0 400 300)" d="M 565,471  C 622,452 595,482 225,495 C 582,233 282,258 243,218 C 424,416 281,418 213,246 C 522,166 141,440 509,430 C 319,416 656,320 259,461 C 569,457 399,459 258,130 C 149,224 273,346 474,277 C 615,130 370,464 442,406 Z"></path>
<path stroke="#0fa6d8" stroke-width="7" fill="#0fa6d8" opacity="0.5088523926450104" stroke-opacity="0.001851904678587668" transform="rotate(-143.0 400 300)" d="M 446,427  C 295,427 249,470 693,181 C 407,103 442,265 616,292 C 421,284 171,113 188,350 C 246,457 315,200 150,308 C 381,203 308,388 248,126 C 368,165 276,206 440,330 C 407,190 102,359 537,158 C 185,204 136,256 274,193 Z"></path>
<path stroke="#2cd3f3" stroke-width="2" fill="#fe9225" opacity="0.9291162751777746" stroke-opacity="0.23482778650984118" transform="rotate(66.0 400 300)" d="M 660,410  C 589,385 416,410 447,470 C 119,201 173,179 606,409 C 259,243 431,137 500,460 C 330,149 500,231 425,279 Z"></path>

  </g>
</svg>
