<?xml version="1.0" encoding="UTF-8"?>
<svg width="800px" height="600px" viewBox="0 0 800 600" version="1.1" xmlns="http://www.w3.org/2000/svg" xmlns:xlink="http://www.w3.org/1999/xlink">
  <defs></defs>
  <g stroke="none" stroke-width="1" fill="none" fill-rule="evenodd">
    
    <path stroke="#88A814" stroke-width="1" fill="#D50989" opacity="0.01876453794931317" stroke-opacity="0.3681042856727332" transform="rotate(-76.0 400 300)" d="M 604,356  C 175,198 417,110 402,338 C 497,485 211,226 425,305 C 469,139 497,144 136,292 C 687,430 621,352 593,263 C 215,285 562,435 374,108 C 271,372 646,457 101,108 C 678,387 415,210 167,230 C 310,378 583,186 580,387 C 169,112 323,374 333,238 Z"></path>
<path stroke="#803C30" stroke-width="1" fill="#0B8D9B" opacity="0.27526292510675643" stroke-opacity="0.473998064094146" transform="rotate(137.0 400 300)" d="M 111,140  C 595,435 129,256 114,303 C 335,499 465,485 198,194 C 103,401 628,419 234,367 C 451,103 579,109 326,412 Z"></path>
<path stroke="#238641" stroke-width="4" fill="#C7CA72" opacity="0.8194759224155904" stroke-opacity="0.9120941757352232" transform="rotate(114.0 400 300)" d="M 229,424  C 464,133 387,290 329,105 C 325,299 220,394 318,259 C 243,468 259,326 563,421 C 328,213 408,282 671,165 C 333,194 576,224 595,283 C 564,310 446,272 595,341 C 252,388 258,186 390,151 C 414,430 350,355 215,362 C 332,302 361,488 160,377 C 487,478 398,349 541,199 C 116,240 666,291 570,457 Z"></path>
<path stroke="#B3B702" stroke-width="3" fill="#A31809" opacity="0.6285743325531337" stroke-opacity="0.23736284207348135" transform="rotate(-49.0 400 300)" d="M 426,145  C 486,401 264,436 284,393 C 514,299 491,199 675,327 C 388,113 341,124 134,274 C 133,376 373,490 667,199 C 351,473 225,319 326,352 C 411,154 469,491 667,161 C 128,192 393,487 334,421 C 225,372 465,221 586,247 C 600,244 208,399 357,179 C 623,110 210,423 421,153 Z"></path>
<path stroke="#ABC448" stroke-width="5" fill="#209083" opacity="0.367015849629519" stroke-opacity="0.7058623974556238" transform="rotate(154.0 400 300)" d="M 255,410  C 340,423 567,423 608,232 C 561,344 506,473 294,179 C 183,213 629,291 262,204 C 324,160 302,193 580,176 C 627,296 284,282 330,137 C 556,154 262,451 528,371 C 174,281 541,433 419,467 C 680,432 316,327 501,280 Z"></path>
<path stroke="#54AB52" stroke-width="5" fill="#4C8CA0" opacity="0.3375145263317121" stroke-opacity="0.25915265104650614" transform="rotate(-58.0 400 300)" d="M 390,159  C 550,259 318,498 529,296 C 574,385 460,290 103,318 C 419,405 261,299 221,224 C 533,486 698,190 337,188 C 583,348 677,203 233,266 Z"></path>
<path stroke="#D50864" stroke-width="4" fill="#14C97D" opacity="0.18191035585320497" stroke-opacity="0.9532083175566864" transform="rotate(-32.0 400 300)" d="M 530,362  C 576,493 674,397 655,298 C 364,381 316,138 267,374 C 529,168 228,180 155,232 C 369,165 207,499 495,148 C 116,499 551,472 497,268 Z"></path>
<path stroke="#B79880" stroke-width="1" fill="#296BAC" opacity="0.004726162546354897" stroke-opacity="0.07300909849772991" transform="rotate(-125.0 400 300)" d="M 645,410  C 249,499 519,114 237,418 C 208,440 234,264 647,326 C 234,386 588,331 661,274 C 104,227 135,456 140,364 C 327,241 589,240 646,295 C 686,137 515,400 562,328 C 606,415 456,499 546,191 Z"></path>
<path stroke="#8754D2" stroke-width="6" fill="#2A5616" opacity="0.5683105532632834" stroke-opacity="0.6100989221728321" transform="rotate(50.0 400 300)" d="M 668,310  C 548,126 535,289 478,389 C 688,248 147,323 475,177 C 582,217 331,455 236,282 C 601,132 318,498 534,427 C 290,453 656,421 511,462 C 359,298 347,130 182,440 Z"></path>

  </g>
</svg>
