<?xml version="1.0" encoding="UTF-8"?>
<svg width="800px" height="600px" viewBox="0 0 800 600" version="1.1" xmlns="http://www.w3.org/2000/svg" xmlns:xlink="http://www.w3.org/1999/xlink">
  <defs></defs>
  <g stroke="none" stroke-width="1" fill="none" fill-rule="evenodd">
    
    <path stroke="#fe9225" stroke-width="1" fill="#02eb6b" opacity="0.6479501257971596" stroke-opacity="0.8782818501375282" transform="rotate(-94.0 400 300)" d="M 257,465  C 105,132 462,340 622,344 C 679,495 301,469 183,482 C 372,474 270,438 524,191 C 447,334 463,387 259,386 C 217,175 633,381 115,171 Z"></path>
<path stroke="#02eb6b" stroke-width="6" fill="#f559a0" opacity="0.6920374138432327" stroke-opacity="0.8616401110745051" transform="rotate(-130.0 400 300)" d="M 313,133  C 625,330 294,112 366,239 C 284,187 661,106 350,358 C 352,399 564,358 442,136 C 516,229 170,350 238,112 C 384,165 380,457 127,274 C 401,210 518,477 366,416 C 362,446 382,142 423,163 Z"></path>
<path stroke="#f559a0" stroke-width="7" fill="#2cd3f3" opacity="0.629543683203349" stroke-opacity="0.34860613006077007" transform="rotate(-38.0 400 300)" d="M 434,224  C 594,264 223,390 308,468 C 147,362 166,453 517,489 C 131,178 176,212 632,307 C 461,103 212,289 390,359 C 661,113 644,397 234,404 C 498,214 510,468 136,257 C 493,235 621,116 432,139 C 581,383 676,319 290,342 C 437,129 222,371 283,306 Z"></path>
<path stroke="#0fa6d8" stroke-width="5" fill="#2cd3f3" opacity="0.941712005995851" stroke-opacity="0.8516017131075284" transform="rotate(173.0 400 300)" d="M 214,192  C 437,371 305,467 134,297 C 351,416 603,323 223,385 C 616,346 252,140 593,309 C 123,161 167,184 217,268 C 313,432 439,240 419,347 C 380,364 361,475 128,149 Z"></path>
<path stroke="#0fa6d8" stroke-width="6" fill="#0fa6d8" opacity="0.8403215138528635" stroke-opacity="0.2579774662762775" transform="rotate(-156.0 400 300)" d="M 219,484  C 411,334 348,228 192,476 C 241,191 461,471 382,338 C 570,277 247,378 139,445 C 257,229 612,466 269,225 C 143,379 187,336 451,486 C 319,361 502,131 171,205 C 263,102 413,259 657,321 C 393,307 233,204 346,304 Z"></path>
<path stroke="#f559a0" stroke-width="3" fill="#02eb6b" opacity="0.8695206339704564" stroke-opacity="0.49971414225105326" transform="rotate(-30.0 400 300)" d="M 586,138  C 547,225 556,331 685,225 C 139,154 427,103 526,491 C 137,120 276,384 584,414 C 505,485 676,246 557,110 C 321,268 194,117 129,293 Z"></path>

  </g>
</svg>
