<svg xmlns="http://www.w3.org/2000/svg" xmlns:xlink="http://www.w3.org/1999/xlink" width="800" height="600" version="1.1" viewBox="0 0 800 600"><g fill="none" fill-rule="evenodd" stroke="none" stroke-width="1"><path fill="#2cd3f3" stroke="#2cd3f3" stroke-opacity=".903" stroke-width="6" d="M 316,247 C 420,342 224,179 687,436 C 381,315 660,405 117,389 C 547,101 315,263 302,288 C 257,182 540,437 170,248 C 205,478 288,408 423,126 C 413,189 283,142 102,293 Z" opacity=".36" transform="rotate(-38.0 400 300)"/><path fill="#2cd3f3" stroke="#f559a0" stroke-opacity=".833" stroke-width="1" d="M 195,443 C 653,309 318,306 428,351 C 166,150 324,265 210,369 C 540,344 212,459 108,125 C 355,216 454,109 584,297 C 194,323 312,343 288,348 C 663,304 603,309 341,301 C 149,359 668,482 130,163 C 262,413 670,149 576,170 C 342,153 655,498 443,160 C 574,332 223,307 608,436 C 228,290 539,204 179,455 Z" opacity=".893" transform="rotate(-85.0 400 300)"/><path fill="#2cd3f3" stroke="#f559a0" stroke-opacity=".923" stroke-width="7" d="M 413,168 C 111,447 184,489 656,473 C 389,382 467,304 380,160 C 179,175 520,399 427,423 C 402,262 327,132 331,183 C 105,335 652,467 338,425 C 683,378 111,381 547,277 C 302,121 535,157 485,368 Z" opacity=".987" transform="rotate(-4.0 400 300)"/><path fill="#02eb6b" stroke="#fe9225" stroke-opacity=".268" stroke-width="2" d="M 110,139 C 262,376 510,351 518,325 C 603,170 351,375 553,259 C 121,298 218,160 257,462 C 114,173 323,391 489,382 C 517,248 646,273 278,383 C 129,483 324,213 203,180 C 555,155 324,319 356,204 C 148,173 466,359 146,460 C 267,120 289,113 513,294 C 613,300 345,160 447,104 C 293,433 389,231 250,376 Z" opacity=".097" transform="rotate(126.0 400 300)"/><path fill="#02eb6b" stroke="#02eb6b" stroke-opacity=".468" stroke-width="1" d="M 155,440 C 518,109 390,481 624,431 C 352,458 381,163 231,295 C 290,138 498,231 109,185 C 452,306 176,198 259,352 C 230,159 439,375 355,131 C 231,373 659,453 326,341 C 352,395 531,227 404,401 C 251,377 468,475 589,379 Z" opacity=".196" transform="rotate(-101.0 400 300)"/><path fill="#fe9225" stroke="#f559a0" stroke-opacity=".954" stroke-width="7" d="M 350,338 C 225,288 414,490 178,373 C 539,370 134,255 580,209 C 540,391 116,338 466,138 C 288,162 539,278 108,414 C 228,388 517,110 160,219 C 587,280 159,228 567,482 C 530,432 163,452 431,491 C 347,181 428,327 523,250 C 235,207 255,136 226,384 C 413,122 678,348 347,260 Z" opacity=".31" transform="rotate(-5.0 400 300)"/><path fill="#0fa6d8" stroke="#f559a0" stroke-opacity=".711" stroke-width="7" d="M 498,338 C 672,312 212,332 118,342 C 221,232 430,272 393,477 C 334,421 307,367 353,233 C 278,448 679,129 177,318 C 409,218 375,338 316,261 C 663,355 346,350 344,270 C 156,194 321,304 202,192 C 516,430 173,142 556,156 Z" opacity=".084" transform="rotate(34.0 400 300)"/><path fill="#fe9225" stroke="#0fa6d8" stroke-opacity=".119" stroke-width="4" d="M 104,377 C 699,431 548,368 634,179 C 607,255 457,293 296,188 C 259,133 362,473 161,109 C 340,484 292,396 452,351 C 610,421 655,458 277,253 Z" opacity=".043" transform="rotate(179.0 400 300)"/><path fill="#f559a0" stroke="#0fa6d8" stroke-opacity=".379" stroke-width="3" d="M 542,242 C 526,489 575,129 321,198 C 582,242 424,154 372,150 C 220,235 588,469 445,126 C 485,355 112,351 523,427 C 316,445 253,359 487,407 C 690,471 635,138 679,386 C 467,459 433,296 580,354 C 460,284 678,170 198,232 C 427,405 339,335 662,329 Z" opacity=".872" transform="rotate(15.0 400 300)"/><path fill="#02eb6b" stroke="#fe9225" stroke-opacity=".911" stroke-width="3" d="M 431,158 C 376,470 691,489 158,325 C 587,272 504,376 105,179 C 145,448 484,327 231,241 C 545,141 236,383 167,163 C 602,191 155,422 505,349 C 625,391 375,344 167,356 Z" opacity=".424" transform="rotate(-154.0 400 300)"/></g></svg>