<svg xmlns="http://www.w3.org/2000/svg" xmlns:xlink="http://www.w3.org/1999/xlink" width="800" height="600" version="1.1" viewBox="0 0 800 600"><g fill="none" fill-rule="evenodd" stroke="none" stroke-width="1"><path fill="#0fa6d8" stroke="#0fa6d8" stroke-opacity=".403" stroke-width="6" d="M 262,267 C 448,128 476,288 431,185 C 365,107 562,237 590,288 C 434,495 410,292 520,287 C 160,476 236,342 500,358 C 373,344 182,342 483,219 C 298,318 473,153 570,156 C 558,232 603,488 621,430 C 143,142 150,349 431,342 C 501,415 107,327 150,443 Z" opacity=".56" transform="rotate(36.0 400 300)"/><path fill="#fe9225" stroke="#0fa6d8" stroke-opacity=".802" stroke-width="2" d="M 128,147 C 443,248 123,343 136,387 C 391,350 695,421 621,241 C 297,361 488,419 244,387 C 142,476 207,142 584,492 C 266,121 117,244 158,347 C 634,391 352,458 695,248 C 618,163 355,186 646,368 C 563,192 282,405 655,388 C 671,460 323,499 146,408 C 336,226 277,123 512,443 Z" opacity=".972" transform="rotate(-59.0 400 300)"/><path fill="#2cd3f3" stroke="#0fa6d8" stroke-opacity=".778" stroke-width="1" d="M 593,409 C 418,161 106,390 451,424 C 244,357 192,456 544,485 C 502,285 146,138 363,191 C 125,284 541,267 139,385 C 111,425 599,453 452,214 C 161,289 633,283 567,399 C 685,127 284,281 364,199 C 570,274 621,115 152,272 Z" opacity=".825" transform="rotate(-52.0 400 300)"/><path fill="#fe9225" stroke="#0fa6d8" stroke-opacity=".598" stroke-width="2" d="M 681,495 C 179,393 123,499 680,449 C 114,374 459,378 335,247 C 357,214 206,388 412,108 C 300,484 564,398 429,172 C 127,484 494,187 399,326 Z" opacity=".709" transform="rotate(-21.0 400 300)"/><path fill="#2cd3f3" stroke="#2cd3f3" stroke-opacity=".672" stroke-width="3" d="M 145,190 C 465,358 598,183 506,222 C 582,105 662,211 320,185 C 591,296 638,451 596,373 C 620,472 691,437 234,336 C 276,108 349,147 479,459 C 481,351 260,377 206,129 C 518,185 387,216 214,228 C 593,107 210,458 350,118 C 599,409 365,241 653,101 C 255,462 419,278 137,218 Z" opacity=".129" transform="rotate(-95.0 400 300)"/><path fill="#2cd3f3" stroke="#0fa6d8" stroke-opacity=".553" stroke-width="1" d="M 171,324 C 224,461 222,206 585,261 C 179,269 528,197 156,444 C 233,338 235,120 289,171 C 289,471 630,323 635,458 C 681,313 313,286 332,303 C 211,281 214,437 666,241 Z" opacity=".019" transform="rotate(104.0 400 300)"/><path fill="#f559a0" stroke="#2cd3f3" stroke-opacity=".287" stroke-width="5" d="M 465,415 C 254,206 435,270 517,340 C 635,278 526,363 471,469 C 490,132 262,427 523,265 C 489,423 673,188 655,113 C 458,154 509,176 517,207 C 393,179 454,165 176,321 C 342,481 403,254 659,111 C 116,409 349,269 478,170 C 231,243 380,446 697,428 C 232,307 338,371 628,207 C 150,179 311,262 674,126 Z" opacity=".582" transform="rotate(-74.0 400 300)"/><path fill="#0fa6d8" stroke="#fe9225" stroke-opacity=".402" stroke-width="1" d="M 425,439 C 161,119 140,216 236,387 C 612,486 596,147 617,342 C 364,205 664,251 540,431 C 372,175 603,236 367,489 C 580,243 314,326 518,348 C 634,144 154,389 575,198 C 115,369 313,217 524,116 C 504,293 524,382 157,146 C 692,496 622,358 219,162 C 328,353 124,455 265,159 Z" opacity=".571" transform="rotate(-8.0 400 300)"/><path fill="#02eb6b" stroke="#fe9225" stroke-opacity=".254" stroke-width="6" d="M 587,371 C 451,424 221,184 149,246 C 500,306 641,157 579,256 C 518,266 176,268 170,400 C 608,475 481,221 534,242 C 553,214 430,335 442,231 Z" opacity=".836" transform="rotate(-23.0 400 300)"/><path fill="#2cd3f3" stroke="#fe9225" stroke-opacity=".879" stroke-width="4" d="M 552,425 C 174,117 131,384 591,246 C 344,248 458,248 648,313 C 598,135 179,446 598,290 C 165,317 604,319 645,215 C 416,379 139,292 660,217 C 271,482 280,129 219,453 C 698,363 202,153 411,306 C 564,445 179,177 689,147 C 483,495 366,295 421,278 Z" opacity=".955" transform="rotate(133.0 400 300)"/></g></svg>