<?xml version="1.0" encoding="UTF-8"?>
<svg width="800px" height="600px" viewBox="0 0 800 600" version="1.1" xmlns="http://www.w3.org/2000/svg" xmlns:xlink="http://www.w3.org/1999/xlink">
  <defs></defs>
  <g stroke="none" stroke-width="1" fill="none" fill-rule="evenodd">
    
    <path stroke="#D2A899" stroke-width="1" fill="#CBC406" opacity="0.23751751939299784" stroke-opacity="0.9595839657559904" transform="rotate(-169.0 400 300)" d="M 144,398  C 527,243 545,347 111,415 C 491,300 290,101 207,377 C 474,324 416,243 613,355 C 617,235 475,164 643,400 C 376,360 231,344 656,337 C 287,128 694,420 253,219 C 256,143 196,188 267,372 Z"></path>
<path stroke="#3AA260" stroke-width="1" fill="#BDD684" opacity="0.9457052146836427" stroke-opacity="0.6718798598567545" transform="rotate(-124.0 400 300)" d="M 476,410  C 184,141 445,170 433,133 C 570,313 564,133 565,465 C 661,336 128,473 394,419 C 661,170 429,347 449,322 Z"></path>
<path stroke="#D9A9C7" stroke-width="1" fill="#289739" opacity="0.812776422981473" stroke-opacity="0.9135561131977964" transform="rotate(-120.0 400 300)" d="M 295,112  C 306,226 287,267 387,260 C 382,227 205,448 284,438 C 455,180 591,185 476,394 C 135,205 204,119 307,449 C 168,410 581,354 216,261 Z"></path>
<polygon stroke="#37BCA9" stroke-width="2" fill="#13257D" opacity="0.03131024627160171" stroke-opacity="0.4303585560601111" transform="rotate(-133.0 400 300)" points="471 23 378 273 363 385 557 344 160 285 "></polygon>
<rect stroke="#05A941" stroke-width="2" fill="#56B7C8" opacity="0.5231951698234302" stroke-opacity="0.9617187767684181" transform="rotate(103.0 400 300)" x="685" y="86" width="174" height="294"></rect>
<rect stroke="#3D9089" stroke-width="3" fill="#3292B1" opacity="0.937343422279515" stroke-opacity="0.7536007514724998" transform="rotate(-2.0 400 300)" x="164" y="550" width="360" height="332"></rect>
<polygon stroke="#64A926" stroke-width="1" fill="#544976" opacity="0.982013644301232" stroke-opacity="0.9366958025063362" transform="rotate(77.0 400 300)" points="150 107 726 414 99 413 282 165 120 270 403 266 209 330 633 463 "></polygon>
<path stroke="#48B13B" stroke-width="4" fill="#84B273" opacity="0.38228231012318986" stroke-opacity="0.2090931314022527" transform="rotate(146.0 400 300)" d="M 548,456  C 146,481 178,395 292,363 C 563,306 362,194 642,442 C 209,388 418,411 515,242 C 140,387 632,107 461,189 Z"></path>
<path stroke="#5137A9" stroke-width="3" fill="#3268C5" opacity="0.6679021783167233" stroke-opacity="0.3973041761384592" transform="rotate(86.0 400 300)" d="M 647,246  C 252,429 183,363 620,151 C 167,315 556,215 618,146 C 290,229 353,275 556,125 C 700,262 217,264 545,264 C 207,239 412,215 214,119 C 186,342 407,404 195,160 C 449,207 677,206 252,233 C 514,412 659,427 530,319 C 180,429 330,138 565,219 C 601,219 412,121 433,448 Z"></path>

  </g>
</svg>
