<svg xmlns="http://www.w3.org/2000/svg" xmlns:xlink="http://www.w3.org/1999/xlink" width="800" height="600" version="1.1" viewBox="0 0 800 600"><g fill="none" fill-rule="evenodd" stroke="none" stroke-width="1"><path fill="#CBC406" stroke="#D2A899" stroke-opacity=".96" stroke-width="1" d="M 144,398 C 527,243 545,347 111,415 C 491,300 290,101 207,377 C 474,324 416,243 613,355 C 617,235 475,164 643,400 C 376,360 231,344 656,337 C 287,128 694,420 253,219 C 256,143 196,188 267,372 Z" opacity=".238" transform="rotate(-169.0 400 300)"/><path fill="#BDD684" stroke="#3AA260" stroke-opacity=".672" stroke-width="1" d="M 476,410 C 184,141 445,170 433,133 C 570,313 564,133 565,465 C 661,336 128,473 394,419 C 661,170 429,347 449,322 Z" opacity=".946" transform="rotate(-124.0 400 300)"/><path fill="#289739" stroke="#D9A9C7" stroke-opacity=".914" stroke-width="1" d="M 295,112 C 306,226 287,267 387,260 C 382,227 205,448 284,438 C 455,180 591,185 476,394 C 135,205 204,119 307,449 C 168,410 581,354 216,261 Z" opacity=".813" transform="rotate(-120.0 400 300)"/><polygon fill="#13257D" stroke="#37BCA9" stroke-opacity=".43" stroke-width="2" points="471 23 378 273 363 385 557 344 160 285" opacity=".031" transform="rotate(-133.0 400 300)"/><rect width="174" height="294" x="685" y="86" fill="#56B7C8" stroke="#05A941" stroke-opacity=".962" stroke-width="2" opacity=".523" transform="rotate(103.0 400 300)"/><rect width="360" height="332" x="164" y="550" fill="#3292B1" stroke="#3D9089" stroke-opacity=".754" stroke-width="3" opacity=".937" transform="rotate(-2.0 400 300)"/><polygon fill="#544976" stroke="#64A926" stroke-opacity=".937" stroke-width="1" points="150 107 726 414 99 413 282 165 120 270 403 266 209 330 633 463" opacity=".982" transform="rotate(77.0 400 300)"/><path fill="#84B273" stroke="#48B13B" stroke-opacity=".209" stroke-width="4" d="M 548,456 C 146,481 178,395 292,363 C 563,306 362,194 642,442 C 209,388 418,411 515,242 C 140,387 632,107 461,189 Z" opacity=".382" transform="rotate(146.0 400 300)"/><path fill="#3268C5" stroke="#5137A9" stroke-opacity=".397" stroke-width="3" d="M 647,246 C 252,429 183,363 620,151 C 167,315 556,215 618,146 C 290,229 353,275 556,125 C 700,262 217,264 545,264 C 207,239 412,215 214,119 C 186,342 407,404 195,160 C 449,207 677,206 252,233 C 514,412 659,427 530,319 C 180,429 330,138 565,219 C 601,219 412,121 433,448 Z" opacity=".668" transform="rotate(86.0 400 300)"/></g></svg>