<svg xmlns="http://www.w3.org/2000/svg" xmlns:xlink="http://www.w3.org/1999/xlink" width="800" height="600" version="1.1" viewBox="0 0 800 600"><g fill="none" fill-rule="evenodd" stroke="none" stroke-width="1"><polygon fill="#CC5A0A" stroke="#A40965" stroke-opacity=".194" stroke-width="1" points="204 563 391 117 578 428 126 294 445 150 249 259 635 236 487 389" opacity=".617" transform="rotate(-10.0 400 300)"/><polygon fill="#603733" stroke="#36D090" stroke-opacity=".159" stroke-width="6" points="452 5 423 284 753 551 595 388 763 480 685 338 87 184" opacity=".752" transform="rotate(-104.0 400 300)"/><path fill="#77A287" stroke="#786B4B" stroke-opacity=".058" stroke-width="7" d="M 120,365 C 700,365 174,168 394,336 C 361,206 459,105 429,324 C 308,444 241,218 300,146 C 547,373 371,283 309,377 C 699,264 592,144 191,383 C 586,477 660,348 490,128 C 436,323 504,314 479,189 C 230,278 174,237 381,410 C 132,389 272,112 270,301 C 495,301 423,384 211,395 Z" opacity=".684" transform="rotate(-57.0 400 300)"/><rect width="219" height="155" x="459" y="227" fill="#4C1063" stroke="#B1BD86" stroke-opacity=".82" stroke-width="2" opacity=".456" transform="rotate(20.0 400 300)"/><rect width="247" height="119" x="569" y="211" fill="#C535B3" stroke="#0A96D8" stroke-opacity=".489" stroke-width="4" opacity=".504" transform="rotate(-144.0 400 300)"/><polygon fill="#302990" stroke="#121118" stroke-opacity=".465" stroke-width="3" points="435 241 175 60 551 89 378 222 731 96 562 479 421 419 109 450" opacity=".138" transform="rotate(-9.0 400 300)"/><rect width="344" height="146" x="639" y="587" fill="#BA0369" stroke="#85BAD4" stroke-opacity=".979" stroke-width="5" opacity=".137" transform="rotate(82.0 400 300)"/><polygon fill="#A95959" stroke="#6CCCDD" stroke-opacity=".584" stroke-width="1" points="600 439 589 531 468 160 80 154 46 511" opacity=".843" transform="rotate(-112.0 400 300)"/></g></svg>