<svg xmlns="http://www.w3.org/2000/svg" xmlns:xlink="http://www.w3.org/1999/xlink" width="800" height="600" version="1.1" viewBox="0 0 800 600"><g fill="none" fill-rule="evenodd" stroke="none" stroke-width="1"><polygon fill="#f27630" stroke="#f27630" stroke-opacity=".902" stroke-width="6" points="384 183 152 195 762 243 410 275 457 578 432 75 123 167 98 226" opacity=".802" transform="rotate(3.0 400 300)"/><polygon fill="#31a06b" stroke="#31a06b" stroke-opacity=".385" stroke-width="1" points="523 593 183 358 617 263 201 155 23 35 656 303" opacity=".269" transform="rotate(0.0 400 300)"/><rect width="95" height="302" x="280" y="274" fill="#31a06b" stroke="#ed2b2c" stroke-opacity=".891" stroke-width="3" opacity=".823" transform="rotate(-163.0 400 300)"/><ellipse cx="155" cy="172" fill="#2b55f7" stroke="#31a06b" stroke-opacity=".299" stroke-width="7" opacity=".936" rx="154" ry="329" transform="rotate(-151.0 400 300)"/><polygon fill="#f9d84b" stroke="#ed2b2c" stroke-opacity=".875" stroke-width="1" points="569 64 283 46 432 501 681 80 129 20" opacity=".33" transform="rotate(78.0 400 300)"/><path fill="#ed2b2c" stroke="#f9d84b" stroke-opacity=".236" stroke-width="4" d="M 242,472 C 267,112 640,412 686,488 C 662,476 434,193 528,277 C 368,266 475,434 602,305 C 340,353 376,458 440,233 C 481,499 583,341 172,207 Z" opacity=".296" transform="rotate(-130.0 400 300)"/></g></svg>