<svg xmlns="http://www.w3.org/2000/svg" xmlns:xlink="http://www.w3.org/1999/xlink" width="800" height="600" version="1.1" viewBox="0 0 800 600"><g fill="none" fill-rule="evenodd" stroke="none" stroke-width="1"><polygon fill="#fe9225" stroke="#02eb6b" stroke-opacity=".475" stroke-width="4" points="51 462 597 14 457 417 427 131 638 397 64 321 677 252 786 17" opacity=".075" transform="rotate(-150.0 400 300)"/><ellipse cx="445" cy="567" fill="#0fa6d8" stroke="#2cd3f3" stroke-opacity=".989" stroke-width="3" opacity=".769" rx="126" ry="126" transform="rotate(-124.0 400 300)"/><path fill="#fe9225" stroke="#02eb6b" stroke-opacity=".57" stroke-width="5" d="M 270,197 C 563,386 313,395 404,340 C 643,362 596,401 159,327 C 666,485 608,230 274,478 C 156,391 554,156 304,485 C 555,307 101,153 457,303 C 174,303 142,261 479,268 C 145,450 124,316 633,437 C 500,328 417,496 235,417 C 451,429 441,268 509,456 Z" opacity=".268" transform="rotate(96.0 400 300)"/><ellipse cx="584" cy="110" fill="#fe9225" stroke="#fe9225" stroke-opacity=".939" stroke-width="1" opacity=".676" rx="45" ry="299" transform="rotate(80.0 400 300)"/><ellipse cx="280" cy="478" fill="#f559a0" stroke="#2cd3f3" stroke-opacity=".204" stroke-width="2" opacity=".792" rx="254" ry="349" transform="rotate(-74.0 400 300)"/><ellipse cx="211" cy="221" fill="#fe9225" stroke="#fe9225" stroke-opacity=".975" stroke-width="5" opacity=".422" rx="336" ry="285" transform="rotate(-5.0 400 300)"/><path fill="#0fa6d8" stroke="#02eb6b" stroke-opacity=".572" stroke-width="7" d="M 539,499 C 655,462 287,279 263,143 C 466,428 523,392 526,381 C 650,149 543,454 379,240 C 291,378 244,186 336,284 C 163,375 430,313 461,268 C 331,289 409,205 593,434 C 608,356 202,134 627,124 C 303,301 674,439 476,328 Z" opacity=".49" transform="rotate(117.0 400 300)"/><path fill="#f559a0" stroke="#f559a0" stroke-opacity=".446" stroke-width="7" d="M 322,167 C 437,236 469,192 628,497 C 358,173 528,464 428,312 C 456,302 582,484 573,483 C 459,368 112,324 518,326 C 486,301 409,191 658,420 C 185,303 407,428 433,414 C 509,132 450,403 264,400 C 360,257 515,323 604,246 C 516,316 639,309 250,468 C 383,126 625,326 672,395 C 307,201 508,270 460,466 Z" opacity=".33" transform="rotate(-138.0 400 300)"/><path fill="#0fa6d8" stroke="#fe9225" stroke-opacity=".69" stroke-width="6" d="M 386,259 C 634,292 681,354 599,196 C 566,128 278,477 248,328 C 394,424 496,224 554,103 C 395,300 357,220 436,238 C 220,169 197,329 635,434 C 276,106 649,276 631,468 C 393,387 178,392 509,327 C 482,339 271,223 113,125 C 598,209 674,262 590,383 C 310,398 421,331 562,211 Z" opacity=".582" transform="rotate(92.0 400 300)"/></g></svg>