<?xml version="1.0" encoding="UTF-8"?>
<svg width="800px" height="600px" viewBox="0 0 800 600" version="1.1" xmlns="http://www.w3.org/2000/svg" xmlns:xlink="http://www.w3.org/1999/xlink">
  <defs></defs>
  <g stroke="none" stroke-width="1" fill="none" fill-rule="evenodd">
    
    <path stroke="#31a06b" stroke-width="7" fill="#ed2b2c" opacity="0.7118508940373158" stroke-opacity="0.404969013550408" transform="rotate(72.0 400 300)" d="M 248,120  C 558,421 134,276 231,474 C 557,232 101,444 594,200 C 201,162 532,303 381,131 C 247,329 268,295 427,201 C 223,446 604,427 514,353 C 381,197 323,286 624,127 C 180,332 554,433 241,151 C 473,357 637,128 223,321 C 220,371 483,413 273,448 C 397,149 166,126 672,310 C 352,277 677,394 394,220 Z"></path>
<path stroke="#ed2b2c" stroke-width="1" fill="#ed2b2c" opacity="0.06372451678237268" stroke-opacity="0.4956825974522828" transform="rotate(51.0 400 300)" d="M 211,249  C 120,182 285,376 570,258 C 679,222 670,425 637,121 C 466,210 179,377 604,322 C 308,317 142,418 640,254 C 119,379 479,245 563,238 C 597,270 629,443 597,310 Z"></path>
<path stroke="#2b55f7" stroke-width="3" fill="#f9d84b" opacity="0.0770158039356363" stroke-opacity="0.2675711248661635" transform="rotate(-76.0 400 300)" d="M 227,400  C 625,379 460,499 466,472 C 256,382 626,293 397,288 C 353,396 534,401 497,478 C 247,366 442,470 167,156 C 253,362 645,259 663,249 C 155,187 187,476 661,491 C 317,159 287,494 260,438 C 275,183 346,393 377,286 C 244,121 232,177 354,239 C 105,208 206,329 548,294 Z"></path>
<path stroke="#f9d84b" stroke-width="3" fill="#2b55f7" opacity="0.2229812162092318" stroke-opacity="0.1054536966255652" transform="rotate(115.0 400 300)" d="M 361,292  C 260,135 421,198 633,299 C 210,468 165,360 307,125 C 280,109 131,477 120,103 C 122,207 136,265 107,118 C 333,468 478,294 287,221 C 479,340 457,138 522,179 C 685,255 357,295 457,178 C 529,402 114,327 620,116 C 134,219 361,296 193,225 C 124,180 446,442 560,236 C 648,204 199,221 360,270 Z"></path>
<path stroke="#ed2b2c" stroke-width="5" fill="#31a06b" opacity="0.5481977505886406" stroke-opacity="0.8863776511961878" transform="rotate(-147.0 400 300)" d="M 108,500  C 400,443 409,345 200,405 C 656,420 694,494 429,197 C 385,203 655,227 341,369 C 105,194 590,282 303,192 C 170,453 386,429 406,319 C 437,133 256,266 143,469 C 142,130 184,404 697,136 C 280,196 366,474 139,406 C 390,310 267,142 106,470 C 499,357 466,413 224,256 C 406,155 116,456 522,139 Z"></path>
<path stroke="#f27630" stroke-width="2" fill="#ed2b2c" opacity="0.6602245235232287" stroke-opacity="0.7957875723789319" transform="rotate(-143.0 400 300)" d="M 577,412  C 413,301 488,135 139,215 C 137,470 183,268 278,160 C 467,175 256,456 414,319 C 684,339 699,305 366,433 C 413,412 513,275 415,172 C 120,191 645,141 248,172 C 195,367 586,235 579,187 C 557,315 456,291 506,214 C 458,281 160,373 394,277 C 675,146 305,351 369,189 Z"></path>
<path stroke="#f27630" stroke-width="7" fill="#ed2b2c" opacity="0.6413327879881326" stroke-opacity="0.4572951827969869" transform="rotate(-122.0 400 300)" d="M 511,239  C 141,380 570,230 183,401 C 313,187 492,446 149,244 C 371,252 250,239 342,456 C 556,284 186,481 646,306 C 652,190 676,359 461,414 C 261,215 233,202 591,259 C 294,195 517,166 559,479 C 172,174 238,156 404,198 C 548,310 432,311 328,360 C 484,487 610,339 579,108 Z"></path>
<path stroke="#ed2b2c" stroke-width="4" fill="#ed2b2c" opacity="0.13011373150042005" stroke-opacity="0.3679142501578114" transform="rotate(170.0 400 300)" d="M 523,182  C 686,148 211,106 568,457 C 103,485 327,295 356,207 C 378,411 133,296 340,337 C 275,338 452,359 307,393 C 355,257 113,354 551,289 C 299,106 388,355 243,443 C 350,378 606,183 456,315 C 212,210 291,201 589,481 C 381,325 124,301 556,220 C 392,302 175,205 274,332 C 539,299 283,258 260,412 Z"></path>
<path stroke="#f27630" stroke-width="7" fill="#f9d84b" opacity="0.5392565802997107" stroke-opacity="0.48861069430458526" transform="rotate(76.0 400 300)" d="M 311,204  C 348,289 426,387 115,323 C 146,232 695,296 230,140 C 329,464 342,374 518,293 C 577,499 496,174 685,417 C 435,278 590,265 117,401 C 613,253 243,334 313,222 C 555,178 498,325 329,355 C 314,462 390,482 400,452 C 188,353 185,430 426,283 C 167,381 319,282 168,183 C 332,197 484,143 423,264 Z"></path>
<path stroke="#2b55f7" stroke-width="2" fill="#f9d84b" opacity="0.9771584699405509" stroke-opacity="0.9524243002563574" transform="rotate(-61.0 400 300)" d="M 678,336  C 438,345 153,115 599,271 C 109,347 465,418 213,119 C 307,459 291,334 132,427 C 604,135 486,417 342,282 C 143,151 375,479 525,409 Z"></path>

  </g>
</svg>
