<svg xmlns="http://www.w3.org/2000/svg" xmlns:xlink="http://www.w3.org/1999/xlink" width="800" height="600" version="1.1" viewBox="0 0 800 600"><g fill="none" fill-rule="evenodd" stroke="none" stroke-width="1"><path fill="#0fa6d8" stroke="#2cd3f3" stroke-opacity=".885" stroke-width="4" d="M 561,225 C 531,218 219,442 567,211 C 671,187 395,377 388,227 C 307,330 346,190 118,147 C 298,448 602,274 232,335 Z" opacity=".001" transform="rotate(33.0 400 300)"/><path fill="#fe9225" stroke="#2cd3f3" stroke-opacity=".345" stroke-width="5" d="M 180,413 C 321,396 398,210 247,236 C 289,362 179,276 641,196 C 245,204 466,367 101,261 C 553,257 381,291 375,187 C 434,428 515,396 200,245 C 471,377 612,283 298,305 C 369,342 366,120 181,471 C 206,219 570,261 426,216 C 276,308 682,413 404,450 Z" opacity=".229" transform="rotate(-138.0 400 300)"/><path fill="#f559a0" stroke="#fe9225" stroke-opacity=".295" stroke-width="2" d="M 183,198 C 481,404 667,471 465,395 C 525,401 397,437 396,168 C 484,111 549,338 401,449 C 471,319 450,174 418,317 C 255,460 685,242 308,113 C 535,299 236,190 453,453 C 364,108 250,195 372,337 C 462,212 675,324 600,308 Z" opacity=".505" transform="rotate(96.0 400 300)"/><path fill="#fe9225" stroke="#2cd3f3" stroke-opacity=".72" stroke-width="5" d="M 548,232 C 184,493 391,467 375,312 C 123,400 516,194 106,200 C 688,308 359,165 518,438 C 220,363 393,103 265,162 C 514,102 500,386 398,400 C 210,193 149,322 277,171 C 386,409 606,484 170,440 C 471,471 110,437 441,478 C 458,487 137,462 582,417 Z" opacity=".551" transform="rotate(-168.0 400 300)"/><path fill="#fe9225" stroke="#f559a0" stroke-opacity=".455" stroke-width="6" d="M 391,389 C 558,302 455,362 133,164 C 679,311 536,427 216,459 C 139,370 481,409 297,453 C 606,175 332,291 493,327 C 648,352 456,269 621,327 C 396,394 111,360 308,262 C 178,140 155,217 578,402 Z" opacity=".168" transform="rotate(-162.0 400 300)"/><path fill="#02eb6b" stroke="#f559a0" stroke-opacity=".779" stroke-width="5" d="M 444,437 C 543,160 291,247 675,449 C 630,289 355,180 194,282 C 533,234 114,335 655,118 C 558,484 552,157 241,116 C 448,184 139,499 470,452 C 134,480 552,443 164,289 C 149,199 358,302 395,350 C 415,109 355,217 369,382 C 301,122 137,342 210,371 C 248,389 691,287 313,224 Z" opacity=".366" transform="rotate(-6.0 400 300)"/><path fill="#02eb6b" stroke="#fe9225" stroke-opacity=".43" stroke-width="1" d="M 646,220 C 478,364 205,409 515,109 C 177,292 357,324 432,468 C 482,255 340,222 152,303 C 280,258 163,429 568,217 C 654,399 531,175 683,161 C 662,269 195,498 138,161 C 134,193 347,386 506,199 C 612,414 284,210 688,151 C 318,218 633,324 232,228 Z" opacity=".664" transform="rotate(45.0 400 300)"/><path fill="#fe9225" stroke="#0fa6d8" stroke-opacity=".897" stroke-width="3" d="M 584,235 C 289,378 260,500 118,187 C 408,202 305,313 166,305 C 499,157 460,263 573,370 C 226,102 481,230 465,168 C 551,486 249,303 535,353 Z" opacity=".582" transform="rotate(-104.0 400 300)"/><path fill="#0fa6d8" stroke="#f559a0" stroke-opacity=".576" stroke-width="5" d="M 113,471 C 679,143 391,209 344,413 C 299,441 683,461 391,232 C 124,257 194,378 468,158 C 260,201 629,495 311,256 C 602,399 401,194 603,346 C 397,345 401,346 147,310 Z" opacity=".468" transform="rotate(-114.0 400 300)"/><path fill="#2cd3f3" stroke="#0fa6d8" stroke-opacity=".348" stroke-width="6" d="M 688,405 C 604,214 431,461 474,151 C 614,169 570,221 317,298 C 483,352 431,205 293,364 C 258,283 520,281 133,125 Z" opacity=".053" transform="rotate(3.0 400 300)"/><path fill="#2cd3f3" stroke="#2cd3f3" stroke-opacity=".409" stroke-width="6" d="M 511,306 C 173,336 315,439 378,130 C 159,223 146,209 281,209 C 439,144 526,439 662,500 C 427,374 196,233 588,167 C 371,275 168,336 344,283 Z" opacity=".812" transform="rotate(72.0 400 300)"/></g></svg>