<svg xmlns="http://www.w3.org/2000/svg" xmlns:xlink="http://www.w3.org/1999/xlink" width="800" height="600" version="1.1" viewBox="0 0 800 600"><g fill="none" fill-rule="evenodd" stroke="none" stroke-width="1"><path fill="#6D7C84" stroke="#73B1DD" stroke-opacity=".134" stroke-width="4" d="M 692,461 C 173,314 456,216 559,255 C 153,291 167,496 173,229 C 175,423 167,413 233,302 C 129,183 224,344 134,183 C 661,437 465,164 329,414 C 428,215 106,454 381,287 C 523,162 582,381 256,320 C 536,135 695,243 627,300 Z" opacity=".547" transform="rotate(-158.0 400 300)"/><rect width="371" height="226" x="668" y="221" fill="#7D4922" stroke="#82D116" stroke-opacity=".146" stroke-width="4" opacity=".317" transform="rotate(24.0 400 300)"/><path fill="#1BC333" stroke="#603AB1" stroke-opacity=".624" stroke-width="3" d="M 111,342 C 573,231 105,438 298,180 C 258,347 668,481 450,319 C 127,148 157,262 688,469 C 467,306 253,448 348,454 Z" opacity=".872" transform="rotate(-7.0 400 300)"/><ellipse cx="786" cy="332" fill="#68C3D0" stroke="#3384B8" stroke-opacity=".956" stroke-width="7" opacity=".617" rx="73" ry="274" transform="rotate(20.0 400 300)"/><path fill="#B09287" stroke="#A96511" stroke-opacity=".748" stroke-width="5" d="M 604,466 C 443,103 477,270 692,296 C 580,165 279,477 209,164 C 192,232 374,420 371,470 C 200,248 402,380 569,283 C 159,323 176,316 392,307 C 199,469 619,324 489,292 C 451,364 477,465 681,488 Z" opacity=".129" transform="rotate(-84.0 400 300)"/><ellipse cx="738" cy="154" fill="#B16A48" stroke="#942505" stroke-opacity=".883" stroke-width="1" opacity=".923" rx="404" ry="214" transform="rotate(39.0 400 300)"/><ellipse cx="43" cy="115" fill="#3B4D73" stroke="#976B8D" stroke-opacity=".751" stroke-width="4" opacity=".927" rx="156" ry="39" transform="rotate(-1.0 400 300)"/><polygon fill="#4CC050" stroke="#C33B97" stroke-opacity=".171" stroke-width="6" points="146 234 299 356 270 451 168 341 621 422 19 329" opacity=".418" transform="rotate(122.0 400 300)"/><path fill="#39A5AA" stroke="#508CA8" stroke-opacity=".564" stroke-width="6" d="M 636,449 C 526,497 265,432 528,458 C 316,127 116,336 162,246 C 547,395 248,117 170,410 C 432,259 371,390 377,187 C 662,237 350,205 204,308 C 571,355 252,288 359,483 C 668,223 220,160 459,453 C 156,460 476,288 381,245 C 570,147 445,280 676,309 Z" opacity=".365" transform="rotate(49.0 400 300)"/><ellipse cx="793" cy="157" fill="#BD0CD8" stroke="#226D94" stroke-opacity=".929" stroke-width="3" opacity=".901" rx="122" ry="180" transform="rotate(-65.0 400 300)"/><ellipse cx="622" cy="141" fill="#73731A" stroke="#7A945D" stroke-opacity=".615" stroke-width="6" opacity=".464" rx="74" ry="141" transform="rotate(-94.0 400 300)"/></g></svg>