<svg xmlns="http://www.w3.org/2000/svg" xmlns:xlink="http://www.w3.org/1999/xlink" width="800" height="600" version="1.1" viewBox="0 0 800 600"><g fill="none" fill-rule="evenodd" stroke="none" stroke-width="1"><path fill="#53C2C7" stroke="#1A649D" stroke-opacity=".818" stroke-width="4" d="M 591,252 C 341,257 216,454 698,405 C 118,367 260,396 545,157 C 179,388 148,294 180,292 C 264,396 528,463 130,102 C 573,314 101,229 474,177 C 386,223 106,220 648,205 Z" opacity=".834" transform="rotate(-12.0 400 300)"/><path fill="#D024B8" stroke="#3D9044" stroke-opacity=".92" stroke-width="6" d="M 534,112 C 278,487 671,166 491,477 C 220,369 547,205 470,201 C 365,478 544,229 535,468 C 571,352 221,258 613,218 C 206,115 323,472 175,338 C 335,117 517,192 208,486 C 242,142 518,415 265,368 C 328,361 195,374 108,433 C 622,347 125,464 272,304 C 193,369 447,398 174,260 C 133,462 110,424 313,112 Z" opacity=".444" transform="rotate(-112.0 400 300)"/><path fill="#D2A3AA" stroke="#D2D39B" stroke-opacity=".042" stroke-width="5" d="M 372,167 C 660,469 412,500 692,428 C 677,307 615,494 120,284 C 679,112 209,219 337,258 C 528,363 531,399 550,450 C 183,150 438,481 577,298 C 438,169 679,103 403,452 Z" opacity=".668" transform="rotate(125.0 400 300)"/><path fill="#213B04" stroke="#00574A" stroke-opacity=".463" stroke-width="4" d="M 367,147 C 323,223 120,113 536,301 C 212,163 338,163 386,387 C 646,334 111,160 258,292 C 555,278 687,358 643,252 Z" opacity=".87" transform="rotate(-72.0 400 300)"/><path fill="#2DA8A9" stroke="#50419C" stroke-opacity=".092" stroke-width="7" d="M 625,188 C 507,479 568,297 414,450 C 615,337 397,428 210,480 C 440,105 277,176 360,155 C 522,420 453,104 254,299 C 221,423 522,106 265,375 C 115,204 249,369 598,158 C 195,383 494,330 306,398 C 501,372 476,278 171,446 Z" opacity=".866" transform="rotate(54.0 400 300)"/><path fill="#A4C955" stroke="#2B7C4D" stroke-opacity=".882" stroke-width="4" d="M 488,333 C 537,353 526,316 618,242 C 637,497 468,269 323,479 C 270,409 497,309 572,468 C 626,411 564,173 457,151 C 681,113 415,260 273,406 C 426,175 570,491 171,300 C 131,500 158,445 553,172 C 548,208 653,353 291,306 C 464,179 104,448 271,109 C 643,408 427,123 507,328 C 679,341 122,198 109,393 Z" opacity=".452" transform="rotate(-43.0 400 300)"/><path fill="#62057C" stroke="#1CC664" stroke-opacity=".873" stroke-width="4" d="M 585,359 C 412,190 274,459 342,337 C 221,329 554,416 365,228 C 517,326 688,298 588,441 C 130,148 122,166 254,360 C 459,125 527,143 501,338 C 367,194 372,303 361,443 C 429,383 638,274 501,220 C 457,390 667,192 278,429 C 490,446 535,167 630,490 C 678,421 683,284 574,414 Z" opacity=".893" transform="rotate(68.0 400 300)"/><path fill="#A58C3C" stroke="#3473A1" stroke-opacity=".354" stroke-width="2" d="M 154,347 C 439,135 291,235 663,385 C 134,285 200,112 251,420 C 590,389 395,240 375,142 C 467,232 467,344 671,401 C 402,390 153,459 681,407 Z" opacity=".585" transform="rotate(-79.0 400 300)"/><path fill="#A28306" stroke="#039DD3" stroke-opacity=".783" stroke-width="7" d="M 218,374 C 138,440 590,291 680,437 C 309,118 371,275 171,242 C 507,380 247,434 651,368 C 101,418 611,121 185,210 C 233,115 611,389 166,301 C 276,391 527,431 167,407 C 398,368 357,478 255,389 C 125,448 364,488 145,376 Z" opacity=".332" transform="rotate(-101.0 400 300)"/><path fill="#424000" stroke="#CD578C" stroke-opacity=".007" stroke-width="4" d="M 621,251 C 199,427 145,159 223,168 C 633,189 605,124 515,384 C 101,459 473,235 131,227 C 578,468 155,158 349,485 C 167,184 488,400 201,243 C 229,245 459,382 654,177 C 494,146 550,433 394,154 Z" opacity=".911" transform="rotate(160.0 400 300)"/></g></svg>