<svg xmlns="http://www.w3.org/2000/svg" xmlns:xlink="http://www.w3.org/1999/xlink" width="800" height="600" version="1.1" viewBox="0 0 800 600"><g fill="none" fill-rule="evenodd" stroke="none" stroke-width="1"><path fill="#05D6C2" stroke="#6CDAC7" stroke-opacity=".709" stroke-width="5" d="M 293,160 C 298,486 345,398 636,389 C 442,417 437,297 688,216 C 673,325 479,445 602,208 C 618,180 367,166 361,172 C 268,443 372,286 554,341 C 583,210 673,239 549,275 Z" opacity=".49" transform="rotate(-20.0 400 300)"/><rect width="366" height="171" x="252" y="214" fill="#486964" stroke="#A23131" stroke-opacity=".262" stroke-width="3" opacity=".468" transform="rotate(-136.0 400 300)"/><ellipse cx="506" cy="424" fill="#6A9367" stroke="#35D002" stroke-opacity=".542" stroke-width="7" opacity=".764" rx="299" ry="140" transform="rotate(134.0 400 300)"/><ellipse cx="63" cy="294" fill="#C9A5C6" stroke="#705A3C" stroke-opacity=".17" stroke-width="6" opacity=".164" rx="307" ry="34" transform="rotate(-164.0 400 300)"/><polygon fill="#8800AB" stroke="#D62634" stroke-opacity=".752" stroke-width="5" points="663 214 487 210 617 139 100 33 94 35 446 38 598 102 663 378" opacity=".932" transform="rotate(42.0 400 300)"/><path fill="#0CB877" stroke="#149D9D" stroke-opacity=".093" stroke-width="7" d="M 605,371 C 518,247 316,455 690,146 C 286,188 282,286 655,494 C 506,298 142,493 118,253 C 653,287 330,323 327,388 C 635,296 242,395 699,171 C 181,425 484,492 557,252 C 698,267 446,409 355,111 C 183,393 686,231 604,337 Z" opacity=".401" transform="rotate(-61.0 400 300)"/><polygon fill="#07C4D2" stroke="#3DD564" stroke-opacity=".515" stroke-width="3" points="42 349 224 148 515 386 103 114 409 547 207 130 142 508" opacity=".888" transform="rotate(-103.0 400 300)"/><path fill="#745040" stroke="#A9C074" stroke-opacity=".967" stroke-width="2" d="M 186,202 C 651,226 316,117 526,326 C 266,322 194,494 189,498 C 176,295 397,120 176,319 C 573,354 419,481 547,236 C 116,416 408,471 527,386 Z" opacity=".84" transform="rotate(-147.0 400 300)"/><ellipse cx="347" cy="548" fill="#02C755" stroke="#8D7446" stroke-opacity=".548" stroke-width="6" opacity=".649" rx="118" ry="198" transform="rotate(51.0 400 300)"/><polygon fill="#83AB37" stroke="#80DC74" stroke-opacity=".663" stroke-width="6" points="336 430 474 573 156 345 372 298 381 224 297 145 172 586" opacity=".103" transform="rotate(-42.0 400 300)"/></g></svg>