<svg xmlns="http://www.w3.org/2000/svg" xmlns:xlink="http://www.w3.org/1999/xlink" width="800" height="600" version="1.1" viewBox="0 0 800 600"><g fill="none" fill-rule="evenodd" stroke="none" stroke-width="1"><rect width="68" height="384" x="291" y="460" fill="#2cd3f3" stroke="#fe9225" stroke-opacity=".69" stroke-width="6" opacity=".415" transform="rotate(43.0 400 300)"/><rect width="22" height="241" x="18" y="118" fill="#2cd3f3" stroke="#f559a0" stroke-opacity=".532" stroke-width="4" opacity=".901" transform="rotate(9.0 400 300)"/><rect width="136" height="177" x="773" y="284" fill="#02eb6b" stroke="#0fa6d8" stroke-opacity=".315" stroke-width="6" opacity=".893" transform="rotate(97.0 400 300)"/><path fill="#0fa6d8" stroke="#2cd3f3" stroke-opacity=".913" stroke-width="4" d="M 215,384 C 149,416 161,444 465,416 C 213,152 370,423 103,197 C 342,251 400,248 412,220 C 309,301 506,206 318,295 C 605,352 529,345 613,324 C 684,446 239,343 697,453 Z" opacity=".535" transform="rotate(-131.0 400 300)"/><polygon fill="#fe9225" stroke="#f559a0" stroke-opacity=".372" stroke-width="7" points="125 525 27 274 719 451 600 185 600 269" opacity=".524" transform="rotate(-42.0 400 300)"/><path fill="#2cd3f3" stroke="#fe9225" stroke-opacity=".525" stroke-width="1" d="M 491,420 C 169,384 335,416 299,428 C 155,281 118,409 133,168 C 489,334 224,498 614,337 C 261,326 223,401 174,386 Z" opacity=".076" transform="rotate(118.0 400 300)"/><ellipse cx="760" cy="192" fill="#0fa6d8" stroke="#0fa6d8" stroke-opacity=".673" stroke-width="1" opacity=".232" rx="315" ry="171" transform="rotate(-136.0 400 300)"/><ellipse cx="791" cy="561" fill="#2cd3f3" stroke="#0fa6d8" stroke-opacity=".107" stroke-width="3" opacity=".856" rx="304" ry="339" transform="rotate(78.0 400 300)"/><rect width="182" height="244" x="90" y="565" fill="#f559a0" stroke="#f559a0" stroke-opacity=".348" stroke-width="6" opacity=".37" transform="rotate(-32.0 400 300)"/><ellipse cx="700" cy="273" fill="#2cd3f3" stroke="#2cd3f3" stroke-opacity=".64" stroke-width="6" opacity=".771" rx="215" ry="342" transform="rotate(34.0 400 300)"/></g></svg>