<svg xmlns="http://www.w3.org/2000/svg" xmlns:xlink="http://www.w3.org/1999/xlink" width="800" height="600" version="1.1" viewBox="0 0 800 600"><g fill="none" fill-rule="evenodd" stroke="none" stroke-width="1"><path fill="#31a06b" stroke="#f27630" stroke-opacity=".358" stroke-width="1" d="M 303,405 C 498,328 591,428 482,459 C 625,110 247,219 111,428 C 118,282 567,113 275,377 C 180,122 101,455 432,232 C 168,338 196,274 254,205 Z" opacity=".194" transform="rotate(119.0 400 300)"/><path fill="#f9d84b" stroke="#31a06b" stroke-opacity=".062" stroke-width="5" d="M 160,497 C 418,156 120,340 103,420 C 534,322 654,120 510,178 C 126,377 657,382 333,284 C 246,445 165,138 185,189 C 350,135 229,174 106,479 C 149,309 415,181 336,190 C 174,364 558,306 402,231 C 132,223 574,324 542,272 C 174,286 493,391 186,178 C 134,126 616,350 209,356 C 427,220 287,490 119,423 Z" opacity=".662" transform="rotate(-133.0 400 300)"/><polygon fill="#ed2b2c" stroke="#31a06b" stroke-opacity=".634" stroke-width="3" points="8 30 726 422 77 198 272 502 2 141 159 98 614 370 134 488" opacity=".4" transform="rotate(-99.0 400 300)"/><rect width="389" height="131" x="433" y="185" fill="#2b55f7" stroke="#2b55f7" stroke-opacity=".706" stroke-width="1" opacity=".28" transform="rotate(-169.0 400 300)"/><polygon fill="#ed2b2c" stroke="#31a06b" stroke-opacity=".048" stroke-width="3" points="38 138 726 181 655 162 742 279 761 291 778 245 129 38 296 429" opacity=".591" transform="rotate(-106.0 400 300)"/><polygon fill="#f9d84b" stroke="#f9d84b" stroke-opacity=".899" stroke-width="5" points="67 303 287 562 507 454 54 532 562 565 111 136" opacity=".09" transform="rotate(38.0 400 300)"/></g></svg>