<svg xmlns="http://www.w3.org/2000/svg" xmlns:xlink="http://www.w3.org/1999/xlink" width="800" height="600" version="1.1" viewBox="0 0 800 600"><g fill="none" fill-rule="evenodd" stroke="none" stroke-width="1"><rect width="188" height="155" x="155" y="60" fill="#31a06b" stroke="#f9d84b" stroke-opacity=".444" stroke-width="6" opacity=".759" transform="rotate(-155.0 400 300)"/><path fill="#f9d84b" stroke="#f27630" stroke-opacity=".818" stroke-width="2" d="M 119,138 C 160,256 579,102 507,419 C 510,286 619,429 268,356 C 542,305 647,256 525,459 C 377,189 469,182 465,167 C 665,217 415,272 156,321 C 461,286 552,337 561,162 Z" opacity=".479" transform="rotate(-41.0 400 300)"/><ellipse cx="738" cy="124" fill="#ed2b2c" stroke="#f9d84b" stroke-opacity=".873" stroke-width="1" opacity=".588" rx="300" ry="54" transform="rotate(-135.0 400 300)"/><ellipse cx="669" cy="465" fill="#2b55f7" stroke="#31a06b" stroke-opacity=".182" stroke-width="4" opacity=".237" rx="420" ry="181" transform="rotate(-175.0 400 300)"/><rect width="194" height="241" x="238" y="242" fill="#f27630" stroke="#2b55f7" stroke-opacity=".817" stroke-width="1" opacity=".041" transform="rotate(66.0 400 300)"/><polygon fill="#f9d84b" stroke="#2b55f7" stroke-opacity=".444" stroke-width="3" points="467 540 589 226 99 552 3 91 69 485" opacity=".716" transform="rotate(-53.0 400 300)"/></g></svg>