<svg xmlns="http://www.w3.org/2000/svg" xmlns:xlink="http://www.w3.org/1999/xlink" width="800" height="600" version="1.1" viewBox="0 0 800 600"><g fill="none" fill-rule="evenodd" stroke="none" stroke-width="1"><path fill="#ed2b2c" stroke="#31a06b" stroke-opacity=".568" stroke-width="3" d="M 504,340 C 236,183 404,135 370,314 C 578,439 412,500 306,172 C 199,130 571,427 303,101 C 657,480 240,290 636,281 Z" opacity=".477" transform="rotate(-18.0 400 300)"/><path fill="#31a06b" stroke="#ed2b2c" stroke-opacity=".335" stroke-width="6" d="M 328,296 C 420,115 662,349 377,238 C 619,250 530,494 673,472 C 263,457 600,365 426,215 C 247,178 622,292 235,168 C 401,405 431,368 485,222 C 329,393 179,493 442,358 C 662,324 234,439 419,333 Z" opacity=".713" transform="rotate(110.0 400 300)"/><path fill="#f9d84b" stroke="#ed2b2c" stroke-opacity=".207" stroke-width="4" d="M 177,144 C 214,461 449,319 684,182 C 694,273 642,107 135,493 C 511,338 680,123 628,178 C 289,251 558,222 446,417 C 316,107 435,201 207,293 C 551,216 361,298 374,298 C 271,309 651,290 248,299 Z" opacity=".105" transform="rotate(4.0 400 300)"/><path fill="#31a06b" stroke="#f9d84b" stroke-opacity=".213" stroke-width="5" d="M 675,225 C 576,102 437,337 186,233 C 430,183 250,450 642,291 C 585,314 621,120 105,424 C 391,250 471,221 108,318 C 202,123 438,440 107,391 C 285,326 230,319 374,421 C 230,289 377,292 439,147 C 610,337 154,148 494,189 C 517,354 355,203 116,488 C 548,198 368,457 365,245 Z" opacity=".077" transform="rotate(-57.0 400 300)"/><path fill="#ed2b2c" stroke="#31a06b" stroke-opacity=".651" stroke-width="2" d="M 357,439 C 145,396 222,367 542,439 C 181,451 149,429 120,120 C 159,203 347,350 536,116 C 602,127 605,443 525,331 C 183,205 568,338 312,382 C 582,205 322,227 615,330 C 633,263 419,158 601,297 C 366,205 144,191 694,435 C 247,321 267,481 520,358 C 302,177 484,111 390,133 Z" opacity=".805" transform="rotate(-134.0 400 300)"/><path fill="#ed2b2c" stroke="#31a06b" stroke-opacity=".401" stroke-width="1" d="M 414,156 C 542,245 264,369 633,250 C 152,216 588,394 172,256 C 406,274 156,230 523,388 C 541,220 628,139 569,451 C 485,390 317,132 415,191 C 188,132 265,261 141,244 C 206,121 399,460 382,157 C 164,260 435,356 305,376 C 577,176 345,232 242,250 Z" opacity=".454" transform="rotate(170.0 400 300)"/><path fill="#f27630" stroke="#f27630" stroke-opacity=".891" stroke-width="3" d="M 580,214 C 683,197 473,339 394,184 C 635,268 441,214 580,391 C 113,355 553,155 119,287 C 205,409 462,423 502,340 C 131,112 672,488 154,476 Z" opacity=".921" transform="rotate(-176.0 400 300)"/><path fill="#2b55f7" stroke="#31a06b" stroke-opacity=".605" stroke-width="7" d="M 530,409 C 635,340 342,486 202,356 C 504,323 588,426 226,235 C 582,500 622,374 494,375 C 550,146 575,142 516,429 C 664,203 240,354 302,487 C 301,473 208,162 520,243 C 324,401 395,206 673,165 Z" opacity=".145" transform="rotate(-149.0 400 300)"/><path fill="#f9d84b" stroke="#2b55f7" stroke-opacity=".938" stroke-width="5" d="M 698,398 C 390,461 460,106 227,427 C 295,363 430,333 583,155 C 414,353 630,361 278,291 C 121,285 338,492 123,271 Z" opacity=".587" transform="rotate(62.0 400 300)"/><path fill="#31a06b" stroke="#f9d84b" stroke-opacity=".509" stroke-width="6" d="M 394,433 C 340,379 671,376 583,182 C 581,277 483,425 308,396 C 526,298 582,213 510,128 C 374,402 324,163 586,361 C 333,154 537,157 581,404 C 625,348 552,401 597,192 C 339,101 119,474 691,187 Z" opacity=".56" transform="rotate(94.0 400 300)"/></g></svg>