<svg xmlns="http://www.w3.org/2000/svg" xmlns:xlink="http://www.w3.org/1999/xlink" width="800" height="600" version="1.1" viewBox="0 0 800 600"><g fill="none" fill-rule="evenodd" stroke="none" stroke-width="1"><rect width="376" height="165" x="132" y="362" fill="#A4D405" stroke="#243A03" stroke-opacity=".554" stroke-width="2" opacity=".297" transform="rotate(-169.0 400 300)"/><ellipse cx="720" cy="573" fill="#45AB4D" stroke="#4AAB9A" stroke-opacity=".973" stroke-width="2" opacity=".173" rx="327" ry="198" transform="rotate(120.0 400 300)"/><polygon fill="#394B36" stroke="#45817A" stroke-opacity=".335" stroke-width="2" points="325 404 3 278 133 12 89 588 736 111 119 458 134 66 64 92" opacity=".665" transform="rotate(10.0 400 300)"/><polygon fill="#93482C" stroke="#30D2D5" stroke-opacity=".679" stroke-width="5" points="800 52 642 470 524 377 159 482 638 459" opacity=".98" transform="rotate(-28.0 400 300)"/><ellipse cx="434" cy="237" fill="#283553" stroke="#591AD8" stroke-opacity=".808" stroke-width="1" opacity=".725" rx="410" ry="174" transform="rotate(-6.0 400 300)"/><path fill="#9D6023" stroke="#778210" stroke-opacity=".973" stroke-width="4" d="M 177,246 C 303,476 557,276 200,405 C 529,349 222,408 315,500 C 325,151 328,385 382,252 C 410,495 205,354 448,448 Z" opacity=".56" transform="rotate(-74.0 400 300)"/><path fill="#1C2B27" stroke="#312124" stroke-opacity=".905" stroke-width="3" d="M 531,224 C 592,292 444,176 437,149 C 449,324 329,139 671,286 C 156,276 537,413 248,252 C 358,147 569,126 200,145 Z" opacity=".359" transform="rotate(15.0 400 300)"/><path fill="#BBAA86" stroke="#DAC09B" stroke-opacity=".652" stroke-width="3" d="M 119,259 C 280,395 227,139 234,389 C 592,191 660,329 596,462 C 400,123 166,160 263,294 C 452,159 144,179 471,138 C 563,290 208,358 530,372 C 465,348 325,448 204,497 Z" opacity=".951" transform="rotate(147.0 400 300)"/></g></svg>