<?xml version="1.0" encoding="UTF-8"?>
<svg width="800px" height="600px" viewBox="0 0 800 600" version="1.1" xmlns="http://www.w3.org/2000/svg" xmlns:xlink="http://www.w3.org/1999/xlink">
  <defs></defs>
  <g stroke="none" stroke-width="1" fill="none" fill-rule="evenodd">
    
    <rect stroke="#243A03" stroke-width="2" fill="#A4D405" opacity="0.2971523563584433" stroke-opacity="0.5543443652029781" transform="rotate(-169.0 400 300)" x="132" y="362" width="376" height="165"></rect>
<ellipse stroke="#4AAB9A" stroke-width="2" fill="#45AB4D" opacity="0.17275671352965552" stroke-opacity="0.9730643848543308" transform="rotate(120.0 400 300)" cx="720" rx="327" cy="573" ry="198"></ellipse>
<polygon stroke="#45817A" stroke-width="2" fill="#394B36" opacity="0.6654691754887138" stroke-opacity="0.33517945477821515" transform="rotate(10.0 400 300)" points="325 404 3 278 133 12 89 588 736 111 119 458 134 66 64 92 "></polygon>
<polygon stroke="#30D2D5" stroke-width="5" fill="#93482C" opacity="0.9800001261045833" stroke-opacity="0.6787043667121443" transform="rotate(-28.0 400 300)" points="800 52 642 470 524 377 159 482 638 459 "></polygon>
<ellipse stroke="#591AD8" stroke-width="1" fill="#283553" opacity="0.7253752168454558" stroke-opacity="0.8083378078030099" transform="rotate(-6.0 400 300)" cx="434" rx="410" cy="237" ry="174"></ellipse>
<path stroke="#778210" stroke-width="4" fill="#9D6023" opacity="0.5596665879471481" stroke-opacity="0.9732904978682207" transform="rotate(-74.0 400 300)" d="M 177,246  C 303,476 557,276 200,405 C 529,349 222,408 315,500 C 325,151 328,385 382,252 C 410,495 205,354 448,448 Z"></path>
<path stroke="#312124" stroke-width="3" fill="#1C2B27" opacity="0.3586627775933052" stroke-opacity="0.9052956747964137" transform="rotate(15.0 400 300)" d="M 531,224  C 592,292 444,176 437,149 C 449,324 329,139 671,286 C 156,276 537,413 248,252 C 358,147 569,126 200,145 Z"></path>
<path stroke="#DAC09B" stroke-width="3" fill="#BBAA86" opacity="0.9505109217716208" stroke-opacity="0.6523991441116193" transform="rotate(147.0 400 300)" d="M 119,259  C 280,395 227,139 234,389 C 592,191 660,329 596,462 C 400,123 166,160 263,294 C 452,159 144,179 471,138 C 563,290 208,358 530,372 C 465,348 325,448 204,497 Z"></path>

  </g>
</svg>
