<svg xmlns="http://www.w3.org/2000/svg" xmlns:xlink="http://www.w3.org/1999/xlink" width="800" height="600" version="1.1" viewBox="0 0 800 600"><g fill="none" fill-rule="evenodd" stroke="none" stroke-width="1"><rect width="97" height="374" x="606" y="151" fill="#D44BDB" stroke="#97B31C" stroke-opacity=".051" stroke-width="6" opacity=".959" transform="rotate(51.0 400 300)"/><path fill="#387772" stroke="#83112A" stroke-opacity=".859" stroke-width="3" d="M 579,333 C 393,329 548,357 593,313 C 306,174 528,388 525,127 C 654,249 497,360 543,214 C 557,465 209,415 590,479 C 184,307 558,366 509,208 Z" opacity=".88" transform="rotate(158.0 400 300)"/><rect width="341" height="152" x="41" y="560" fill="#04D779" stroke="#A5ADA6" stroke-opacity=".156" stroke-width="2" opacity=".872" transform="rotate(-44.0 400 300)"/><ellipse cx="469" cy="262" fill="#CC2B2A" stroke="#28A3C9" stroke-opacity=".46" stroke-width="2" opacity=".418" rx="88" ry="117" transform="rotate(174.0 400 300)"/><path fill="#361D96" stroke="#155315" stroke-opacity=".995" stroke-width="4" d="M 670,234 C 391,432 698,266 164,299 C 289,158 110,334 407,305 C 237,180 241,352 670,361 C 444,389 111,317 469,481 C 323,263 188,276 637,409 C 508,349 679,125 510,114 C 540,328 330,115 350,128 C 346,117 188,345 521,400 Z" opacity=".575" transform="rotate(167.0 400 300)"/><path fill="#A7C989" stroke="#303D5D" stroke-opacity=".541" stroke-width="3" d="M 380,382 C 310,330 427,389 312,271 C 166,474 530,400 467,437 C 177,167 198,131 248,438 C 372,190 634,478 556,491 C 164,345 218,140 500,438 C 481,432 133,283 562,164 C 192,469 562,451 594,107 C 418,194 520,474 200,271 C 667,204 323,401 235,372 Z" opacity=".165" transform="rotate(18.0 400 300)"/><rect width="239" height="271" x="99" y="588" fill="#82C9AC" stroke="#033DAB" stroke-opacity=".82" stroke-width="3" opacity=".45" transform="rotate(-68.0 400 300)"/><path fill="#4D948A" stroke="#818B33" stroke-opacity=".228" stroke-width="1" d="M 209,262 C 199,369 270,461 483,373 C 537,307 221,486 437,322 C 114,106 627,120 561,334 C 364,194 255,188 190,429 C 284,114 501,113 300,420 C 542,264 509,198 473,122 C 334,347 148,244 243,130 C 652,270 228,101 384,303 C 105,108 585,399 308,491 C 404,174 387,108 562,272 C 565,143 437,416 241,238 Z" opacity=".146" transform="rotate(153.0 400 300)"/><rect width="197" height="134" x="344" y="520" fill="#36CC42" stroke="#6A9C92" stroke-opacity=".149" stroke-width="2" opacity=".393" transform="rotate(-156.0 400 300)"/><polygon fill="#0D6170" stroke="#A45CDC" stroke-opacity=".731" stroke-width="5" points="596 498 75 344 527 347 671 246 203 516 689 533" opacity=".673" transform="rotate(121.0 400 300)"/><rect width="85" height="196" x="545" y="314" fill="#ADBD24" stroke="#6423D8" stroke-opacity=".449" stroke-width="4" opacity=".23" transform="rotate(-149.0 400 300)"/></g></svg>