<svg xmlns="http://www.w3.org/2000/svg" xmlns:xlink="http://www.w3.org/1999/xlink" width="800" height="600" version="1.1" viewBox="0 0 800 600"><g fill="none" fill-rule="evenodd" stroke="none" stroke-width="1"><path fill="#f27630" stroke="#31a06b" stroke-opacity=".494" stroke-width="5" d="M 685,120 C 175,179 102,279 332,262 C 172,279 471,157 164,309 C 262,458 556,203 663,491 C 191,442 139,227 687,146 C 642,259 383,119 478,484 C 409,462 186,363 619,489 C 595,147 454,314 385,183 Z" opacity=".634" transform="rotate(-92.0 400 300)"/><path fill="#f27630" stroke="#2b55f7" stroke-opacity=".783" stroke-width="5" d="M 697,210 C 304,202 298,337 147,168 C 436,468 251,364 449,281 C 367,315 363,493 320,226 C 676,496 545,222 598,472 C 108,196 369,303 624,114 C 153,224 526,405 511,210 Z" opacity=".797" transform="rotate(-24.0 400 300)"/><path fill="#2b55f7" stroke="#ed2b2c" stroke-opacity=".131" stroke-width="2" d="M 326,187 C 136,164 540,115 660,471 C 688,340 473,329 421,386 C 312,450 547,483 687,278 C 235,475 631,193 182,323 C 421,210 162,292 311,354 Z" opacity=".905" transform="rotate(172.0 400 300)"/><path fill="#ed2b2c" stroke="#ed2b2c" stroke-opacity=".205" stroke-width="7" d="M 202,148 C 514,107 271,469 470,271 C 448,339 109,413 127,447 C 135,457 199,149 573,138 C 306,128 527,318 424,266 C 106,366 104,279 634,196 C 267,164 574,274 331,322 C 672,315 189,139 601,158 C 286,462 259,489 119,498 C 327,243 497,277 489,486 Z" opacity=".273" transform="rotate(-82.0 400 300)"/><path fill="#2b55f7" stroke="#ed2b2c" stroke-opacity=".312" stroke-width="5" d="M 297,247 C 262,124 400,133 309,340 C 574,313 356,474 222,448 C 322,198 248,179 149,498 C 349,248 629,192 334,150 C 440,132 132,236 300,491 C 395,113 523,474 155,284 C 370,278 198,266 637,378 C 295,382 535,133 103,269 C 398,280 400,460 191,481 C 320,458 582,454 316,293 C 415,337 591,322 261,323 Z" opacity=".719" transform="rotate(-165.0 400 300)"/><path fill="#ed2b2c" stroke="#ed2b2c" stroke-opacity=".05" stroke-width="7" d="M 385,116 C 529,278 366,471 278,464 C 398,488 457,423 114,175 C 459,137 683,136 378,372 C 154,326 470,276 666,120 C 495,494 699,381 387,381 C 300,131 660,240 384,452 C 186,387 417,288 427,353 C 314,173 469,151 120,251 Z" opacity=".191" transform="rotate(-33.0 400 300)"/><path fill="#f27630" stroke="#f27630" stroke-opacity=".549" stroke-width="7" d="M 279,427 C 678,421 257,413 107,349 C 267,419 390,462 594,219 C 620,473 108,383 174,309 C 582,469 385,174 204,438 C 273,232 145,383 289,483 C 697,452 328,319 339,184 C 240,167 269,208 194,323 C 542,193 253,142 163,180 C 132,121 510,386 536,170 Z" opacity=".608" transform="rotate(18.0 400 300)"/><path fill="#ed2b2c" stroke="#31a06b" stroke-opacity=".418" stroke-width="5" d="M 128,495 C 497,269 636,270 521,317 C 465,348 535,258 425,129 C 504,106 228,461 504,432 C 604,407 171,396 496,495 C 227,194 566,215 536,405 C 443,495 234,275 665,144 Z" opacity=".642" transform="rotate(43.0 400 300)"/><path fill="#f27630" stroke="#31a06b" stroke-opacity=".952" stroke-width="3" d="M 596,427 C 378,299 325,474 235,306 C 676,241 281,286 621,304 C 257,364 361,193 193,435 C 450,393 322,376 222,186 C 530,145 455,110 454,364 C 327,397 126,208 680,362 Z" opacity=".556" transform="rotate(-140.0 400 300)"/></g></svg>