<svg xmlns="http://www.w3.org/2000/svg" xmlns:xlink="http://www.w3.org/1999/xlink" width="800" height="600" version="1.1" viewBox="0 0 800 600"><g fill="none" fill-rule="evenodd" stroke="none" stroke-width="1"><path fill="#06C989" stroke="#6B2A4B" stroke-opacity=".268" stroke-width="2" d="M 684,461 C 653,187 359,131 340,445 C 239,162 532,376 358,360 C 663,294 411,107 438,474 C 629,140 287,297 485,279 C 180,225 232,405 386,341 C 453,283 319,121 538,167 C 665,249 613,495 404,260 C 133,334 242,408 381,297 C 636,416 501,182 371,240 Z" opacity=".018" transform="rotate(-67.0 400 300)"/><path fill="#B78851" stroke="#0A70A1" stroke-opacity=".04" stroke-width="6" d="M 127,359 C 267,121 406,146 538,264 C 657,235 695,129 164,164 C 553,200 291,403 632,439 C 125,427 637,397 505,302 C 645,467 222,377 258,244 C 403,465 652,132 551,320 C 210,392 241,196 423,230 C 300,199 356,383 611,273 Z" opacity=".397" transform="rotate(-148.0 400 300)"/><path fill="#132A29" stroke="#8A3843" stroke-opacity=".468" stroke-width="5" d="M 193,218 C 663,159 683,367 307,269 C 199,346 177,354 625,161 C 111,361 210,239 307,272 C 165,447 612,136 278,258 C 696,272 370,451 232,301 C 152,389 664,214 606,165 C 415,353 651,116 549,257 C 324,392 361,429 439,316 C 645,211 687,451 563,444 C 208,214 394,208 514,357 C 653,202 275,321 491,112 Z" opacity=".716" transform="rotate(37.0 400 300)"/><path fill="#D3C843" stroke="#30BD39" stroke-opacity=".132" stroke-width="5" d="M 378,130 C 683,166 658,419 500,342 C 632,181 561,391 603,248 C 134,385 484,449 327,449 C 547,419 498,182 536,399 C 679,356 695,458 200,317 Z" opacity=".201" transform="rotate(3.0 400 300)"/><path fill="#4C8344" stroke="#D0D30A" stroke-opacity=".627" stroke-width="3" d="M 694,221 C 627,150 155,133 346,403 C 348,342 344,426 155,474 C 542,295 551,295 243,165 C 370,457 298,206 483,484 C 233,416 594,373 355,225 Z" opacity=".05" transform="rotate(101.0 400 300)"/><path fill="#4C77CA" stroke="#836179" stroke-opacity=".158" stroke-width="7" d="M 574,404 C 279,169 678,452 231,366 C 327,384 301,430 670,350 C 286,143 510,460 554,500 C 553,480 367,275 528,143 C 700,323 699,495 685,309 C 541,249 226,183 519,268 C 435,180 179,433 340,455 C 396,421 584,476 590,448 C 372,344 182,254 362,485 Z" opacity=".746" transform="rotate(31.0 400 300)"/><path fill="#A27A46" stroke="#B3B1B0" stroke-opacity=".891" stroke-width="2" d="M 348,310 C 647,332 370,422 436,356 C 568,223 267,482 565,197 C 226,344 403,367 606,124 C 114,216 352,419 551,145 C 557,380 156,435 537,213 C 126,120 304,394 505,387 C 651,134 344,330 195,196 C 455,492 574,242 378,429 C 417,369 366,246 588,122 C 502,444 556,206 637,131 Z" opacity=".208" transform="rotate(17.0 400 300)"/></g></svg>