<svg xmlns="http://www.w3.org/2000/svg" xmlns:xlink="http://www.w3.org/1999/xlink" width="800" height="600" version="1.1" viewBox="0 0 800 600"><g fill="none" fill-rule="evenodd" stroke="none" stroke-width="1"><path fill="#8A15DD" stroke="#98D74A" stroke-opacity=".117" stroke-width="6" d="M 184,430 C 202,233 135,269 536,221 C 398,316 463,241 554,283 C 518,469 383,151 115,228 C 239,342 578,318 552,491 C 216,261 245,330 250,433 C 560,153 137,300 396,310 C 494,265 431,402 425,416 C 224,345 587,497 134,240 C 195,205 279,433 588,368 C 636,191 610,451 589,369 Z" opacity=".452" transform="rotate(-50.0 400 300)"/><polygon fill="#680CAC" stroke="#524366" stroke-opacity=".545" stroke-width="6" points="417 383 407 406 399 71 781 245 445 273 378 309 736 15 799 598" opacity=".022" transform="rotate(-22.0 400 300)"/><path fill="#43063C" stroke="#485083" stroke-opacity=".404" stroke-width="3" d="M 347,336 C 572,106 682,464 361,424 C 104,191 266,147 297,361 C 303,396 132,454 420,458 C 671,313 690,451 534,371 C 674,351 680,102 142,276 C 476,350 205,277 357,266 C 239,101 304,298 503,295 Z" opacity=".689" transform="rotate(173.0 400 300)"/><rect width="75" height="273" x="294" y="220" fill="#87C988" stroke="#947B83" stroke-opacity=".511" stroke-width="3" opacity=".007" transform="rotate(43.0 400 300)"/><path fill="#BC7042" stroke="#8A4346" stroke-opacity=".883" stroke-width="7" d="M 230,286 C 446,331 195,490 617,102 C 444,405 296,373 345,430 C 482,202 653,224 660,364 C 188,229 291,307 396,411 C 377,163 245,346 397,467 C 461,394 534,331 421,157 C 320,312 616,439 109,150 Z" opacity=".446" transform="rotate(137.0 400 300)"/><path fill="#544142" stroke="#042580" stroke-opacity=".453" stroke-width="7" d="M 468,187 C 650,300 648,384 508,248 C 269,271 459,427 384,353 C 544,374 544,307 385,266 C 562,303 471,216 241,176 C 203,164 378,262 586,234 C 194,290 386,357 311,296 C 503,198 687,250 344,498 C 110,367 506,141 231,374 C 145,384 337,245 367,183 C 257,197 184,150 104,149 Z" opacity=".193" transform="rotate(-68.0 400 300)"/><ellipse cx="601" cy="317" fill="#C06C01" stroke="#BD5374" stroke-opacity=".022" stroke-width="2" opacity=".896" rx="338" ry="172" transform="rotate(169.0 400 300)"/></g></svg>