<svg xmlns="http://www.w3.org/2000/svg" xmlns:xlink="http://www.w3.org/1999/xlink" width="800" height="600" version="1.1" viewBox="0 0 800 600"><g fill="none" fill-rule="evenodd" stroke="none" stroke-width="1"><path fill="#02eb6b" stroke="#fe9225" stroke-opacity=".038" stroke-width="2" d="M 674,316 C 260,161 349,365 491,365 C 119,313 529,221 428,151 C 403,215 449,216 359,242 C 682,344 359,254 305,404 C 345,277 369,222 592,411 Z" opacity=".107" transform="rotate(117.0 400 300)"/><path fill="#2cd3f3" stroke="#02eb6b" stroke-opacity=".795" stroke-width="7" d="M 582,260 C 315,385 217,300 121,474 C 231,180 624,436 278,421 C 693,153 656,194 259,377 C 361,384 598,367 220,344 C 200,281 527,477 223,314 C 336,473 509,498 249,409 C 277,485 566,294 170,212 Z" opacity=".447" transform="rotate(125.0 400 300)"/><path fill="#2cd3f3" stroke="#02eb6b" stroke-opacity=".93" stroke-width="2" d="M 599,425 C 599,273 410,470 605,307 C 398,180 597,203 197,107 C 350,153 472,178 280,383 C 388,428 436,131 165,484 C 675,213 312,325 181,481 C 603,352 676,493 475,255 C 481,411 120,198 335,247 Z" opacity=".443" transform="rotate(87.0 400 300)"/><path fill="#02eb6b" stroke="#2cd3f3" stroke-opacity=".654" stroke-width="5" d="M 236,469 C 414,129 466,492 604,193 C 644,189 544,313 316,411 C 609,314 588,145 311,166 C 118,328 189,204 512,246 C 304,216 484,161 509,499 C 125,282 191,182 628,363 C 308,496 265,440 658,460 Z" opacity=".27" transform="rotate(-19.0 400 300)"/><path fill="#f559a0" stroke="#02eb6b" stroke-opacity=".741" stroke-width="2" d="M 430,129 C 212,266 424,341 593,465 C 436,126 253,257 273,162 C 672,181 298,363 385,392 C 290,156 503,415 663,337 C 411,214 385,108 563,435 C 421,392 520,332 452,417 C 225,221 130,322 269,347 C 506,226 387,447 681,143 Z" opacity=".687" transform="rotate(125.0 400 300)"/><path fill="#fe9225" stroke="#fe9225" stroke-opacity=".359" stroke-width="1" d="M 248,481 C 647,341 527,330 656,206 C 429,163 440,259 451,215 C 233,296 668,454 602,316 C 251,150 428,236 267,194 Z" opacity=".219" transform="rotate(18.0 400 300)"/><path fill="#2cd3f3" stroke="#2cd3f3" stroke-opacity=".575" stroke-width="2" d="M 606,151 C 375,474 392,434 448,154 C 543,295 267,466 650,184 C 283,488 627,210 390,105 C 449,486 624,172 472,240 C 390,209 442,471 668,456 C 664,161 259,264 381,185 C 510,266 492,265 414,162 Z" opacity=".908" transform="rotate(101.0 400 300)"/><path fill="#02eb6b" stroke="#fe9225" stroke-opacity=".308" stroke-width="2" d="M 398,179 C 560,379 608,351 275,289 C 190,418 541,184 203,428 C 366,353 189,103 216,178 C 411,350 191,217 527,279 C 109,372 478,461 131,266 Z" opacity=".215" transform="rotate(-152.0 400 300)"/><path fill="#2cd3f3" stroke="#0fa6d8" stroke-opacity=".711" stroke-width="3" d="M 391,310 C 192,439 521,360 342,151 C 277,208 594,466 319,328 C 328,498 473,380 488,127 C 329,273 679,273 406,352 C 216,435 569,364 548,458 C 608,225 429,361 108,265 C 515,402 119,336 655,180 C 677,397 177,463 700,331 C 321,208 404,151 573,468 C 466,420 326,247 396,433 Z" opacity=".205" transform="rotate(-88.0 400 300)"/></g></svg>