<?xml version="1.0" encoding="UTF-8"?>
<svg width="800px" height="600px" viewBox="0 0 800 600" version="1.1" xmlns="http://www.w3.org/2000/svg" xmlns:xlink="http://www.w3.org/1999/xlink">
  <defs></defs>
  <g stroke="none" stroke-width="1" fill="none" fill-rule="evenodd">
    
    <path stroke="#2b55f7" stroke-width="1" fill="#ed2b2c" opacity="0.8172345636463546" stroke-opacity="0.8011551357027398" transform="rotate(2.0 400 300)" d="M 276,168  C 611,299 563,172 193,134 C 165,147 314,365 329,348 C 505,333 258,400 560,491 C 378,415 363,206 505,464 C 247,317 590,235 534,352 C 634,460 686,138 135,187 Z"></path>
<path stroke="#f9d84b" stroke-width="7" fill="#f27630" opacity="0.8510076339412275" stroke-opacity="0.8088555310327455" transform="rotate(-130.0 400 300)" d="M 533,225  C 477,245 382,404 126,434 C 634,285 216,326 580,323 C 258,415 404,369 639,393 C 340,145 213,225 644,109 C 111,471 695,200 695,167 C 637,101 105,308 173,496 Z"></path>
<path stroke="#2b55f7" stroke-width="7" fill="#f9d84b" opacity="0.5427240056056272" stroke-opacity="0.4792710861277704" transform="rotate(-122.0 400 300)" d="M 326,223  C 525,318 407,125 241,334 C 176,489 559,183 614,300 C 231,362 194,215 175,372 C 205,162 389,467 450,219 C 212,455 162,462 633,196 Z"></path>
<path stroke="#f9d84b" stroke-width="6" fill="#f9d84b" opacity="0.16073826799004" stroke-opacity="0.9327966366524023" transform="rotate(-16.0 400 300)" d="M 434,325  C 198,397 429,381 507,217 C 232,269 387,310 420,277 C 343,204 124,148 514,233 C 618,321 678,142 126,112 C 492,139 699,305 378,337 Z"></path>
<path stroke="#f27630" stroke-width="6" fill="#f9d84b" opacity="0.33831876685750417" stroke-opacity="0.5745873445919073" transform="rotate(89.0 400 300)" d="M 422,333  C 132,220 107,433 115,330 C 446,295 440,214 292,314 C 533,137 526,391 245,296 C 657,113 305,203 391,484 C 664,269 310,288 148,464 C 261,473 146,159 510,202 C 595,235 112,496 407,143 C 348,204 256,244 635,470 C 560,153 609,401 278,259 Z"></path>
<path stroke="#f27630" stroke-width="4" fill="#2b55f7" opacity="0.18087954032222203" stroke-opacity="0.6501530231374626" transform="rotate(126.0 400 300)" d="M 618,270  C 524,151 439,447 246,247 C 442,194 485,391 557,227 C 191,211 669,478 401,373 C 400,435 278,459 685,391 C 209,435 397,434 664,191 C 475,401 507,309 511,446 Z"></path>
<path stroke="#2b55f7" stroke-width="4" fill="#2b55f7" opacity="0.5202770195181321" stroke-opacity="0.46584461529817184" transform="rotate(-172.0 400 300)" d="M 153,314  C 539,250 108,339 261,332 C 449,286 592,398 424,496 C 493,379 212,146 142,475 C 191,374 625,141 650,497 C 361,110 473,268 540,322 C 506,101 166,465 619,198 Z"></path>
<path stroke="#31a06b" stroke-width="7" fill="#f27630" opacity="0.7969418457078421" stroke-opacity="0.21823566668058425" transform="rotate(171.0 400 300)" d="M 402,130  C 544,103 336,333 446,449 C 210,194 568,173 287,113 C 601,343 244,405 306,271 C 671,257 182,470 614,325 Z"></path>
<path stroke="#2b55f7" stroke-width="2" fill="#31a06b" opacity="0.5667980866365904" stroke-opacity="0.7089787277004158" transform="rotate(48.0 400 300)" d="M 507,144  C 381,183 563,220 205,234 C 134,314 502,413 178,105 C 167,241 348,485 173,240 C 110,306 261,203 313,128 C 318,277 482,159 422,207 C 314,360 697,278 567,434 C 143,433 362,118 333,230 C 193,102 199,418 278,217 C 130,235 528,339 390,426 Z"></path>

  </g>
</svg>
