<?xml version="1.0" encoding="UTF-8"?>
<svg width="800px" height="600px" viewBox="0 0 800 600" version="1.1" xmlns="http://www.w3.org/2000/svg" xmlns:xlink="http://www.w3.org/1999/xlink">
  <defs></defs>
  <g stroke="none" stroke-width="1" fill="none" fill-rule="evenodd">
    
    <path stroke="#3BB9A3" stroke-width="3" fill="#9A2055" opacity="0.9746212906556592" stroke-opacity="0.13174077577916526" transform="rotate(-59.0 400 300)" d="M 592,477  C 198,149 514,264 515,321 C 282,160 615,246 516,369 C 162,310 515,447 201,351 C 255,218 524,213 300,377 C 157,499 639,358 627,256 C 664,434 689,280 307,478 C 117,201 181,471 686,418 C 595,462 250,415 267,175 C 382,116 297,174 285,338 C 344,110 296,154 476,250 C 134,200 469,238 253,248 Z"></path>
<path stroke="#0B63DC" stroke-width="2" fill="#0B9A91" opacity="0.5477462884647449" stroke-opacity="0.6153246943355775" transform="rotate(38.0 400 300)" d="M 688,346  C 349,165 300,210 646,109 C 371,350 502,298 645,138 C 295,297 665,175 583,352 C 288,328 483,147 385,352 C 352,475 192,396 171,495 C 341,273 278,307 605,429 C 137,199 686,427 452,256 C 636,456 668,153 656,270 C 683,209 306,149 447,486 C 586,139 135,299 134,224 C 188,342 189,134 157,142 Z"></path>
<path stroke="#C1B583" stroke-width="6" fill="#229627" opacity="0.9610032085753053" stroke-opacity="0.20022335967036034" transform="rotate(-23.0 400 300)" d="M 466,318  C 497,353 489,257 464,434 C 403,319 621,250 359,450 C 660,109 158,313 164,458 C 266,270 673,489 661,270 C 290,439 349,491 141,140 C 296,482 363,182 157,124 C 108,301 188,179 159,423 C 586,443 686,330 206,406 C 139,201 672,178 653,322 Z"></path>
<path stroke="#919A82" stroke-width="1" fill="#4578BA" opacity="0.5502080483255773" stroke-opacity="0.8718715371670456" transform="rotate(148.0 400 300)" d="M 471,340  C 467,406 230,249 240,167 C 149,459 605,142 162,317 C 374,469 140,478 643,171 C 463,271 415,452 587,389 C 696,265 431,382 275,458 C 615,208 259,191 628,274 C 160,175 239,137 242,471 Z"></path>
<path stroke="#82A496" stroke-width="4" fill="#7A81B5" opacity="0.2121718267576489" stroke-opacity="0.5233488149981563" transform="rotate(-176.0 400 300)" d="M 354,121  C 531,211 338,228 196,428 C 217,449 660,411 525,332 C 180,399 633,398 108,140 C 675,356 122,324 669,392 C 480,288 391,171 691,156 C 413,351 346,397 286,186 C 317,243 554,499 447,317 C 152,207 554,210 381,166 C 377,223 101,389 338,137 Z"></path>
<path stroke="#0C5A61" stroke-width="3" fill="#756087" opacity="0.5304233733281939" stroke-opacity="0.047654120800032194" transform="rotate(-37.0 400 300)" d="M 229,343  C 638,398 357,291 322,400 C 271,372 677,393 565,491 C 687,212 360,112 149,328 C 277,289 549,224 546,342 Z"></path>
<path stroke="#3365B5" stroke-width="4" fill="#DA5652" opacity="0.23630515917817482" stroke-opacity="0.9115531478815836" transform="rotate(40.0 400 300)" d="M 527,292  C 335,263 296,432 314,493 C 681,406 406,135 122,102 C 535,296 424,256 278,312 C 565,208 589,140 381,388 C 166,341 323,487 415,478 C 125,475 455,240 623,352 C 389,493 260,391 436,308 C 689,358 336,182 680,474 C 442,415 336,413 681,158 C 157,394 280,480 581,180 Z"></path>
<path stroke="#1C7C27" stroke-width="7" fill="#45CCCB" opacity="0.731702025953174" stroke-opacity="0.1036934648583505" transform="rotate(48.0 400 300)" d="M 494,302  C 603,284 672,361 127,261 C 464,166 327,166 449,486 C 288,144 197,416 443,387 C 438,325 368,378 158,408 Z"></path>
<path stroke="#643A3B" stroke-width="6" fill="#9D339C" opacity="0.12011342347531458" stroke-opacity="0.5236621296697989" transform="rotate(116.0 400 300)" d="M 542,358  C 582,160 246,383 667,373 C 525,207 558,466 211,252 C 438,285 116,256 699,152 C 152,172 453,498 318,459 Z"></path>

  </g>
</svg>
