<?xml version="1.0" encoding="UTF-8"?>
<svg width="800px" height="600px" viewBox="0 0 800 600" version="1.1" xmlns="http://www.w3.org/2000/svg" xmlns:xlink="http://www.w3.org/1999/xlink">
  <defs></defs>
  <g stroke="none" stroke-width="1" fill="none" fill-rule="evenodd">
    
    <path stroke="#135BC2" stroke-width="1" fill="#4720C5" opacity="0.7787290128889257" stroke-opacity="0.9297889973125921" transform="rotate(-151.0 400 300)" d="M 525,112  C 272,499 583,444 688,334 C 611,155 663,489 379,219 C 197,475 501,275 118,340 C 521,283 343,120 436,146 C 655,234 215,384 500,321 C 365,333 474,153 472,164 C 543,168 131,312 643,157 Z"></path>
<ellipse stroke="#98A8CC" stroke-width="5" fill="#195A40" opacity="0.4830641542815901" stroke-opacity="0.565020034710533" transform="rotate(-76.0 400 300)" cx="302" rx="61" cy="178" ry="213"></ellipse>
<rect stroke="#AC6924" stroke-width="4" fill="#C19A91" opacity="0.051859797665484576" stroke-opacity="0.25950917130468887" transform="rotate(103.0 400 300)" x="737" y="519" width="379" height="342"></rect>
<path stroke="#12B370" stroke-width="2" fill="#64C8B7" opacity="0.9607311499633087" stroke-opacity="0.7627624387502896" transform="rotate(91.0 400 300)" d="M 689,393  C 502,179 682,152 639,129 C 147,130 145,484 523,186 C 667,302 485,382 310,290 C 430,482 663,394 322,152 Z"></path>
<path stroke="#937149" stroke-width="2" fill="#92A936" opacity="0.4341863252599991" stroke-opacity="0.5117201953594208" transform="rotate(176.0 400 300)" d="M 150,327  C 349,453 408,131 480,447 C 441,109 408,353 111,114 C 504,421 694,306 361,122 C 568,334 457,145 392,224 C 415,249 678,496 421,322 C 169,315 169,469 545,454 C 336,400 212,169 564,390 C 418,112 152,292 316,179 C 489,358 391,301 242,329 C 233,246 669,282 570,406 Z"></path>
<rect stroke="#44556D" stroke-width="3" fill="#125101" opacity="0.933747789912188" stroke-opacity="0.7193374469071286" transform="rotate(90.0 400 300)" x="208" y="349" width="140" height="222"></rect>
<path stroke="#BAC226" stroke-width="4" fill="#B42020" opacity="0.5881062930865897" stroke-opacity="0.8868948710082946" transform="rotate(139.0 400 300)" d="M 345,264  C 608,172 391,428 356,251 C 187,343 360,262 153,492 C 454,166 404,392 332,224 C 440,280 576,360 512,311 C 635,266 229,302 456,190 C 413,165 396,298 516,215 C 188,332 315,267 491,375 C 536,136 102,120 354,158 C 695,296 319,129 410,474 C 389,463 138,426 474,420 C 163,145 180,183 254,443 Z"></path>
<polygon stroke="#9680B9" stroke-width="6" fill="#39A8DC" opacity="0.6296520289965953" stroke-opacity="0.20217047893911855" transform="rotate(-90.0 400 300)" points="734 135 663 182 620 376 530 225 356 161 456 78 723 488 "></polygon>
<rect stroke="#DD1127" stroke-width="4" fill="#883A7A" opacity="0.9431767030560015" stroke-opacity="0.6071250362512919" transform="rotate(-102.0 400 300)" x="732" y="90" width="331" height="303"></rect>
<ellipse stroke="#7A07CA" stroke-width="3" fill="#240D0A" opacity="0.512707523855974" stroke-opacity="0.01551012121181567" transform="rotate(-132.0 400 300)" cx="424" rx="60" cy="289" ry="149"></ellipse>
<ellipse stroke="#576151" stroke-width="1" fill="#80131D" opacity="0.83259542239459" stroke-opacity="0.09206166312798648" transform="rotate(60.0 400 300)" cx="705" rx="334" cy="170" ry="138"></ellipse>

  </g>
</svg>
