<svg xmlns="http://www.w3.org/2000/svg" xmlns:xlink="http://www.w3.org/1999/xlink" width="800" height="600" version="1.1" viewBox="0 0 800 600"><g fill="none" fill-rule="evenodd" stroke="none" stroke-width="1"><path fill="#4720C5" stroke="#135BC2" stroke-opacity=".93" stroke-width="1" d="M 525,112 C 272,499 583,444 688,334 C 611,155 663,489 379,219 C 197,475 501,275 118,340 C 521,283 343,120 436,146 C 655,234 215,384 500,321 C 365,333 474,153 472,164 C 543,168 131,312 643,157 Z" opacity=".779" transform="rotate(-151.0 400 300)"/><ellipse cx="302" cy="178" fill="#195A40" stroke="#98A8CC" stroke-opacity=".565" stroke-width="5" opacity=".483" rx="61" ry="213" transform="rotate(-76.0 400 300)"/><rect width="379" height="342" x="737" y="519" fill="#C19A91" stroke="#AC6924" stroke-opacity=".26" stroke-width="4" opacity=".052" transform="rotate(103.0 400 300)"/><path fill="#64C8B7" stroke="#12B370" stroke-opacity=".763" stroke-width="2" d="M 689,393 C 502,179 682,152 639,129 C 147,130 145,484 523,186 C 667,302 485,382 310,290 C 430,482 663,394 322,152 Z" opacity=".961" transform="rotate(91.0 400 300)"/><path fill="#92A936" stroke="#937149" stroke-opacity=".512" stroke-width="2" d="M 150,327 C 349,453 408,131 480,447 C 441,109 408,353 111,114 C 504,421 694,306 361,122 C 568,334 457,145 392,224 C 415,249 678,496 421,322 C 169,315 169,469 545,454 C 336,400 212,169 564,390 C 418,112 152,292 316,179 C 489,358 391,301 242,329 C 233,246 669,282 570,406 Z" opacity=".434" transform="rotate(176.0 400 300)"/><rect width="140" height="222" x="208" y="349" fill="#125101" stroke="#44556D" stroke-opacity=".719" stroke-width="3" opacity=".934" transform="rotate(90.0 400 300)"/><path fill="#B42020" stroke="#BAC226" stroke-opacity=".887" stroke-width="4" d="M 345,264 C 608,172 391,428 356,251 C 187,343 360,262 153,492 C 454,166 404,392 332,224 C 440,280 576,360 512,311 C 635,266 229,302 456,190 C 413,165 396,298 516,215 C 188,332 315,267 491,375 C 536,136 102,120 354,158 C 695,296 319,129 410,474 C 389,463 138,426 474,420 C 163,145 180,183 254,443 Z" opacity=".588" transform="rotate(139.0 400 300)"/><polygon fill="#39A8DC" stroke="#9680B9" stroke-opacity=".202" stroke-width="6" points="734 135 663 182 620 376 530 225 356 161 456 78 723 488" opacity=".63" transform="rotate(-90.0 400 300)"/><rect width="331" height="303" x="732" y="90" fill="#883A7A" stroke="#DD1127" stroke-opacity=".607" stroke-width="4" opacity=".943" transform="rotate(-102.0 400 300)"/><ellipse cx="424" cy="289" fill="#240D0A" stroke="#7A07CA" stroke-opacity=".016" stroke-width="3" opacity=".513" rx="60" ry="149" transform="rotate(-132.0 400 300)"/><ellipse cx="705" cy="170" fill="#80131D" stroke="#576151" stroke-opacity=".092" stroke-width="1" opacity=".833" rx="334" ry="138" transform="rotate(60.0 400 300)"/></g></svg>