<?xml version="1.0" encoding="UTF-8"?>
<svg width="800px" height="600px" viewBox="0 0 800 600" version="1.1" xmlns="http://www.w3.org/2000/svg" xmlns:xlink="http://www.w3.org/1999/xlink">
  <defs></defs>
  <g stroke="none" stroke-width="1" fill="none" fill-rule="evenodd">
    
    <polygon stroke="#C7BB33" stroke-width="7" fill="#556C70" opacity="0.5883469873249979" stroke-opacity="0.8176830490802249" transform="rotate(104.0 400 300)" points="3 398 169 126 203 521 774 224 603 540 "></polygon>
<ellipse stroke="#763604" stroke-width="7" fill="#397180" opacity="0.8470979699785454" stroke-opacity="0.21683116506083958" transform="rotate(161.0 400 300)" cx="290" rx="49" cy="583" ry="334"></ellipse>
<path stroke="#8AD9BD" stroke-width="6" fill="#8516A9" opacity="0.5179550567187329" stroke-opacity="0.14091435781146153" transform="rotate(113.0 400 300)" d="M 644,313  C 251,492 303,349 219,437 C 276,323 588,496 367,174 C 125,126 512,122 141,434 C 557,217 387,265 147,483 C 172,427 294,263 585,378 C 283,500 468,122 631,160 Z"></path>
<polygon stroke="#43BC2B" stroke-width="1" fill="#3302D6" opacity="0.8925993021994882" stroke-opacity="0.9539607111256542" transform="rotate(-169.0 400 300)" points="159 219 300 290 368 24 138 87 783 92 92 38 706 124 "></polygon>
<ellipse stroke="#B2437C" stroke-width="6" fill="#9B20A4" opacity="0.5486986043886655" stroke-opacity="0.8147138234357714" transform="rotate(113.0 400 300)" cx="570" rx="226" cy="426" ry="256"></ellipse>
<rect stroke="#D34987" stroke-width="1" fill="#D1641C" opacity="0.3074541644089833" stroke-opacity="0.8447454040963115" transform="rotate(-43.0 400 300)" x="256" y="336" width="383" height="21"></rect>
<rect stroke="#5139A4" stroke-width="5" fill="#1AB4B5" opacity="0.1347070394096484" stroke-opacity="0.36372201786579234" transform="rotate(-40.0 400 300)" x="84" y="35" width="114" height="351"></rect>
<polygon stroke="#57A238" stroke-width="2" fill="#5A6B63" opacity="0.932541432972724" stroke-opacity="0.7489791497486125" transform="rotate(-3.0 400 300)" points="289 332 271 65 434 50 87 514 160 30 417 447 "></polygon>
<rect stroke="#B922B2" stroke-width="4" fill="#727C35" opacity="0.5584600706386436" stroke-opacity="0.3570353005454222" transform="rotate(13.0 400 300)" x="64" y="365" width="140" height="67"></rect>
<polygon stroke="#B581BC" stroke-width="2" fill="#C01093" opacity="0.19727139532866983" stroke-opacity="0.20004145742184096" transform="rotate(-98.0 400 300)" points="224 237 701 86 13 25 708 147 86 333 481 301 777 271 680 312 "></polygon>

  </g>
</svg>
