<svg xmlns="http://www.w3.org/2000/svg" xmlns:xlink="http://www.w3.org/1999/xlink" width="800" height="600" version="1.1" viewBox="0 0 800 600"><g fill="none" fill-rule="evenodd" stroke="none" stroke-width="1"><polygon fill="#556C70" stroke="#C7BB33" stroke-opacity=".818" stroke-width="7" points="3 398 169 126 203 521 774 224 603 540" opacity=".588" transform="rotate(104.0 400 300)"/><ellipse cx="290" cy="583" fill="#397180" stroke="#763604" stroke-opacity=".217" stroke-width="7" opacity=".847" rx="49" ry="334" transform="rotate(161.0 400 300)"/><path fill="#8516A9" stroke="#8AD9BD" stroke-opacity=".141" stroke-width="6" d="M 644,313 C 251,492 303,349 219,437 C 276,323 588,496 367,174 C 125,126 512,122 141,434 C 557,217 387,265 147,483 C 172,427 294,263 585,378 C 283,500 468,122 631,160 Z" opacity=".518" transform="rotate(113.0 400 300)"/><polygon fill="#3302D6" stroke="#43BC2B" stroke-opacity=".954" stroke-width="1" points="159 219 300 290 368 24 138 87 783 92 92 38 706 124" opacity=".893" transform="rotate(-169.0 400 300)"/><ellipse cx="570" cy="426" fill="#9B20A4" stroke="#B2437C" stroke-opacity=".815" stroke-width="6" opacity=".549" rx="226" ry="256" transform="rotate(113.0 400 300)"/><rect width="383" height="21" x="256" y="336" fill="#D1641C" stroke="#D34987" stroke-opacity=".845" stroke-width="1" opacity=".307" transform="rotate(-43.0 400 300)"/><rect width="114" height="351" x="84" y="35" fill="#1AB4B5" stroke="#5139A4" stroke-opacity=".364" stroke-width="5" opacity=".135" transform="rotate(-40.0 400 300)"/><polygon fill="#5A6B63" stroke="#57A238" stroke-opacity=".749" stroke-width="2" points="289 332 271 65 434 50 87 514 160 30 417 447" opacity=".933" transform="rotate(-3.0 400 300)"/><rect width="140" height="67" x="64" y="365" fill="#727C35" stroke="#B922B2" stroke-opacity=".357" stroke-width="4" opacity=".558" transform="rotate(13.0 400 300)"/><polygon fill="#C01093" stroke="#B581BC" stroke-opacity=".2" stroke-width="2" points="224 237 701 86 13 25 708 147 86 333 481 301 777 271 680 312" opacity=".197" transform="rotate(-98.0 400 300)"/></g></svg>