<?xml version="1.0" encoding="UTF-8"?>
<svg width="800px" height="600px" viewBox="0 0 800 600" version="1.1" xmlns="http://www.w3.org/2000/svg" xmlns:xlink="http://www.w3.org/1999/xlink">
  <defs></defs>
  <g stroke="none" stroke-width="1" fill="none" fill-rule="evenodd">
    
    <path stroke="#f27630" stroke-width="2" fill="#f27630" opacity="0.7743251586599249" stroke-opacity="0.24760871359699343" transform="rotate(-158.0 400 300)" d="M 684,342  C 187,371 143,283 261,436 C 619,159 666,369 468,470 C 158,479 355,470 455,219 C 344,276 255,451 593,391 Z"></path>
<path stroke="#2b55f7" stroke-width="7" fill="#2b55f7" opacity="0.8413856092256912" stroke-opacity="0.5208776279241434" transform="rotate(145.0 400 300)" d="M 510,428  C 237,347 430,222 490,160 C 362,404 694,417 380,443 C 582,188 578,331 678,244 C 321,150 465,349 277,433 C 554,292 348,172 604,500 C 646,202 426,222 237,151 C 496,274 116,303 525,149 C 394,483 509,428 137,116 Z"></path>
<path stroke="#31a06b" stroke-width="4" fill="#31a06b" opacity="0.7008153501928627" stroke-opacity="0.8687812329612263" transform="rotate(26.0 400 300)" d="M 514,479  C 300,146 681,355 129,292 C 602,113 516,298 410,295 C 172,323 629,183 564,363 C 661,390 459,420 533,395 C 244,146 254,353 445,363 C 527,227 581,294 280,278 C 533,437 540,484 325,448 C 593,211 116,429 398,178 C 340,465 577,359 621,333 C 419,415 418,291 260,423 Z"></path>
<path stroke="#ed2b2c" stroke-width="1" fill="#2b55f7" opacity="0.35932720734584017" stroke-opacity="0.8012448047214634" transform="rotate(29.0 400 300)" d="M 575,135  C 542,483 687,258 487,490 C 126,247 515,460 186,400 C 643,283 310,136 443,382 C 297,365 610,233 611,435 C 267,305 365,301 388,127 C 696,327 101,408 486,462 C 546,296 425,484 581,116 C 322,471 324,338 650,492 Z"></path>
<path stroke="#f9d84b" stroke-width="6" fill="#2b55f7" opacity="0.9798284077480044" stroke-opacity="0.6541615218077949" transform="rotate(-103.0 400 300)" d="M 296,368  C 550,495 339,307 608,108 C 602,243 147,408 599,386 C 488,457 154,197 217,233 C 677,333 227,460 513,134 C 233,389 516,418 406,356 Z"></path>
<path stroke="#31a06b" stroke-width="3" fill="#2b55f7" opacity="0.0695584896630075" stroke-opacity="0.4692089393761361" transform="rotate(82.0 400 300)" d="M 313,180  C 602,408 312,353 142,379 C 524,378 170,349 632,310 C 469,225 177,305 465,266 C 429,127 506,154 113,259 C 138,389 604,371 182,483 C 263,416 155,287 567,472 C 160,459 538,484 344,349 C 152,215 411,391 348,214 Z"></path>
<path stroke="#ed2b2c" stroke-width="2" fill="#f27630" opacity="0.5045402991919626" stroke-opacity="0.13534000027645907" transform="rotate(91.0 400 300)" d="M 173,244  C 296,482 364,423 429,176 C 525,251 569,115 443,280 C 505,376 580,328 120,382 C 154,267 673,280 189,242 C 444,490 494,177 528,172 C 354,495 172,236 346,292 C 278,491 502,440 643,354 C 320,135 198,153 447,185 C 529,129 697,338 157,238 C 350,359 239,374 245,109 Z"></path>
<path stroke="#f9d84b" stroke-width="4" fill="#f27630" opacity="0.04465051659268608" stroke-opacity="0.8984678390907227" transform="rotate(-152.0 400 300)" d="M 229,450  C 687,165 562,222 439,500 C 565,267 545,133 507,389 C 255,409 146,426 592,411 C 190,329 510,399 471,253 C 335,152 283,187 618,344 C 699,126 127,305 598,198 C 119,303 486,476 621,251 C 443,167 641,226 518,433 Z"></path>
<path stroke="#31a06b" stroke-width="3" fill="#f9d84b" opacity="0.5831584636398696" stroke-opacity="0.3072736479820403" transform="rotate(-147.0 400 300)" d="M 165,171  C 527,141 330,378 693,126 C 614,271 213,213 220,356 C 291,460 381,203 255,484 C 373,381 302,381 493,197 C 694,479 523,316 136,432 C 680,446 603,220 130,494 Z"></path>
<path stroke="#f9d84b" stroke-width="5" fill="#f27630" opacity="0.5976974396502367" stroke-opacity="0.4446372388618854" transform="rotate(-37.0 400 300)" d="M 241,214  C 108,218 625,464 245,164 C 354,477 574,311 124,201 C 488,229 176,329 505,282 C 288,417 652,462 590,421 C 182,399 274,361 676,399 Z"></path>
<path stroke="#31a06b" stroke-width="3" fill="#2b55f7" opacity="0.034515446651617536" stroke-opacity="0.7787910089787615" transform="rotate(-49.0 400 300)" d="M 407,446  C 660,349 252,141 643,229 C 373,195 595,171 454,383 C 318,437 376,355 387,316 C 376,383 102,412 648,433 C 675,213 537,114 322,233 C 119,148 592,350 379,202 Z"></path>

  </g>
</svg>
