<svg xmlns="http://www.w3.org/2000/svg" xmlns:xlink="http://www.w3.org/1999/xlink" width="800" height="600" version="1.1" viewBox="0 0 800 600"><g fill="none" fill-rule="evenodd" stroke="none" stroke-width="1"><path fill="#31a06b" stroke="#31a06b" stroke-opacity=".242" stroke-width="4" d="M 691,385 C 639,115 115,387 131,500 C 112,344 294,129 353,271 C 510,428 292,366 626,411 C 399,117 120,187 178,485 C 469,371 482,113 487,327 C 340,330 420,442 450,149 C 451,207 327,251 647,387 C 102,352 193,375 531,367 Z" opacity=".22" transform="rotate(-71.0 400 300)"/><path fill="#ed2b2c" stroke="#f9d84b" stroke-opacity=".412" stroke-width="1" d="M 188,424 C 455,110 138,437 692,372 C 400,259 529,475 594,281 C 577,277 680,175 497,260 C 569,148 655,119 545,103 C 267,404 392,393 611,267 C 358,436 193,417 675,380 C 283,242 700,432 335,327 C 323,320 609,111 481,251 C 312,180 294,121 212,290 C 522,472 388,101 458,225 Z" opacity=".396" transform="rotate(84.0 400 300)"/><path fill="#ed2b2c" stroke="#2b55f7" stroke-opacity=".106" stroke-width="5" d="M 138,292 C 641,131 199,155 322,212 C 249,468 593,333 390,265 C 302,457 331,495 633,170 C 145,315 624,434 518,280 C 630,476 218,433 594,413 C 698,403 145,330 428,398 C 657,123 383,415 147,189 C 520,386 612,221 681,402 C 259,294 419,397 270,272 Z" opacity=".81" transform="rotate(75.0 400 300)"/><path fill="#31a06b" stroke="#f27630" stroke-opacity=".913" stroke-width="7" d="M 233,203 C 243,150 695,453 148,124 C 214,325 615,128 691,262 C 625,484 617,324 446,230 C 622,321 364,184 152,264 C 361,487 182,212 409,224 Z" opacity=".329" transform="rotate(-27.0 400 300)"/><path fill="#2b55f7" stroke="#31a06b" stroke-opacity=".978" stroke-width="6" d="M 522,381 C 118,378 214,476 604,389 C 419,179 190,129 529,352 C 228,218 460,352 501,221 C 161,109 586,462 540,128 C 515,181 219,274 133,452 C 395,464 600,306 612,462 Z" opacity=".726" transform="rotate(-152.0 400 300)"/><path fill="#2b55f7" stroke="#ed2b2c" stroke-opacity=".919" stroke-width="1" d="M 488,189 C 264,411 143,347 122,187 C 110,135 674,276 416,397 C 533,285 192,337 204,215 C 513,461 333,281 562,486 C 358,389 490,496 432,260 Z" opacity=".512" transform="rotate(-24.0 400 300)"/></g></svg>