<?xml version="1.0" encoding="UTF-8"?>
<svg width="800px" height="600px" viewBox="0 0 800 600" version="1.1" xmlns="http://www.w3.org/2000/svg" xmlns:xlink="http://www.w3.org/1999/xlink">
  <defs></defs>
  <g stroke="none" stroke-width="1" fill="none" fill-rule="evenodd">
    
    <path stroke="#31a06b" stroke-width="4" fill="#31a06b" opacity="0.21986330853478048" stroke-opacity="0.24152247755284448" transform="rotate(-71.0 400 300)" d="M 691,385  C 639,115 115,387 131,500 C 112,344 294,129 353,271 C 510,428 292,366 626,411 C 399,117 120,187 178,485 C 469,371 482,113 487,327 C 340,330 420,442 450,149 C 451,207 327,251 647,387 C 102,352 193,375 531,367 Z"></path>
<path stroke="#f9d84b" stroke-width="1" fill="#ed2b2c" opacity="0.39621809061272545" stroke-opacity="0.4116741037779137" transform="rotate(84.0 400 300)" d="M 188,424  C 455,110 138,437 692,372 C 400,259 529,475 594,281 C 577,277 680,175 497,260 C 569,148 655,119 545,103 C 267,404 392,393 611,267 C 358,436 193,417 675,380 C 283,242 700,432 335,327 C 323,320 609,111 481,251 C 312,180 294,121 212,290 C 522,472 388,101 458,225 Z"></path>
<path stroke="#2b55f7" stroke-width="5" fill="#ed2b2c" opacity="0.8095845251278692" stroke-opacity="0.10573561028381566" transform="rotate(75.0 400 300)" d="M 138,292  C 641,131 199,155 322,212 C 249,468 593,333 390,265 C 302,457 331,495 633,170 C 145,315 624,434 518,280 C 630,476 218,433 594,413 C 698,403 145,330 428,398 C 657,123 383,415 147,189 C 520,386 612,221 681,402 C 259,294 419,397 270,272 Z"></path>
<path stroke="#f27630" stroke-width="7" fill="#31a06b" opacity="0.328738030221542" stroke-opacity="0.9131782383394912" transform="rotate(-27.0 400 300)" d="M 233,203  C 243,150 695,453 148,124 C 214,325 615,128 691,262 C 625,484 617,324 446,230 C 622,321 364,184 152,264 C 361,487 182,212 409,224 Z"></path>
<path stroke="#31a06b" stroke-width="6" fill="#2b55f7" opacity="0.7257583322240725" stroke-opacity="0.9782396515649493" transform="rotate(-152.0 400 300)" d="M 522,381  C 118,378 214,476 604,389 C 419,179 190,129 529,352 C 228,218 460,352 501,221 C 161,109 586,462 540,128 C 515,181 219,274 133,452 C 395,464 600,306 612,462 Z"></path>
<path stroke="#ed2b2c" stroke-width="1" fill="#2b55f7" opacity="0.5120857014069735" stroke-opacity="0.919478590525204" transform="rotate(-24.0 400 300)" d="M 488,189  C 264,411 143,347 122,187 C 110,135 674,276 416,397 C 533,285 192,337 204,215 C 513,461 333,281 562,486 C 358,389 490,496 432,260 Z"></path>

  </g>
</svg>
