<svg xmlns="http://www.w3.org/2000/svg" xmlns:xlink="http://www.w3.org/1999/xlink" width="800" height="600" version="1.1" viewBox="0 0 800 600"><g fill="none" fill-rule="evenodd" stroke="none" stroke-width="1"><rect width="60" height="150" x="184" y="35" fill="#BB92CB" stroke="#DA7467" stroke-opacity=".267" stroke-width="5" opacity=".109" transform="rotate(11.0 400 300)"/><ellipse cx="149" cy="44" fill="#261B15" stroke="#059355" stroke-opacity=".143" stroke-width="4" opacity=".314" rx="275" ry="218" transform="rotate(56.0 400 300)"/><polygon fill="#524683" stroke="#9435DC" stroke-opacity=".437" stroke-width="6" points="390 550 611 273 161 153 241 579 532 329" opacity=".747" transform="rotate(113.0 400 300)"/><polygon fill="#471616" stroke="#C30D4C" stroke-opacity=".699" stroke-width="7" points="320 435 707 22 371 369 735 159 329 67 71 560 24 111 489 115" opacity=".16" transform="rotate(41.0 400 300)"/><ellipse cx="206" cy="371" fill="#63586D" stroke="#544642" stroke-opacity=".5" stroke-width="6" opacity=".262" rx="422" ry="333" transform="rotate(154.0 400 300)"/><ellipse cx="83" cy="580" fill="#60B808" stroke="#878518" stroke-opacity=".383" stroke-width="3" opacity=".258" rx="378" ry="46" transform="rotate(-144.0 400 300)"/></g></svg>