<svg xmlns="http://www.w3.org/2000/svg" xmlns:xlink="http://www.w3.org/1999/xlink" width="800" height="600" version="1.1" viewBox="0 0 800 600"><g fill="none" fill-rule="evenodd" stroke="none" stroke-width="1"><ellipse cx="338" cy="289" fill="#fe9225" stroke="#f559a0" stroke-opacity=".345" stroke-width="6" opacity=".023" rx="296" ry="106" transform="rotate(-142.0 400 300)"/><polygon fill="#0fa6d8" stroke="#2cd3f3" stroke-opacity=".986" stroke-width="3" points="153 591 527 524 512 235 518 163 173 298 17 573 114 485" opacity=".625" transform="rotate(96.0 400 300)"/><polygon fill="#0fa6d8" stroke="#0fa6d8" stroke-opacity=".509" stroke-width="3" points="387 92 256 10 270 357 59 107 403 356 111 537" opacity=".755" transform="rotate(25.0 400 300)"/><rect width="189" height="250" x="477" y="471" fill="#02eb6b" stroke="#0fa6d8" stroke-opacity=".456" stroke-width="6" opacity=".376" transform="rotate(-124.0 400 300)"/><ellipse cx="555" cy="243" fill="#02eb6b" stroke="#f559a0" stroke-opacity=".47" stroke-width="7" opacity=".349" rx="340" ry="292" transform="rotate(52.0 400 300)"/><path fill="#0fa6d8" stroke="#02eb6b" stroke-opacity=".938" stroke-width="3" d="M 184,253 C 358,373 619,239 442,209 C 133,324 321,383 132,359 C 581,414 370,411 237,355 C 393,388 491,233 541,210 Z" opacity=".815" transform="rotate(-129.0 400 300)"/><ellipse cx="374" cy="582" fill="#02eb6b" stroke="#0fa6d8" stroke-opacity=".14" stroke-width="1" opacity=".263" rx="83" ry="301" transform="rotate(-73.0 400 300)"/><path fill="#fe9225" stroke="#2cd3f3" stroke-opacity=".569" stroke-width="5" d="M 580,382 C 184,489 199,217 664,203 C 165,328 356,339 255,330 C 433,431 553,136 654,189 C 522,453 690,453 356,257 C 201,411 631,486 392,458 C 419,451 599,155 538,175 C 205,474 238,223 114,238 C 580,310 463,275 293,453 C 163,154 110,417 595,473 C 589,428 244,267 329,187 C 449,398 515,180 158,298 Z" opacity=".049" transform="rotate(119.0 400 300)"/><ellipse cx="383" cy="275" fill="#f559a0" stroke="#2cd3f3" stroke-opacity=".04" stroke-width="3" opacity=".487" rx="372" ry="265" transform="rotate(146.0 400 300)"/><polygon fill="#02eb6b" stroke="#0fa6d8" stroke-opacity=".888" stroke-width="4" points="609 189 726 428 117 348 119 569 490 546 706 472" opacity=".628" transform="rotate(-69.0 400 300)"/></g></svg>