<?xml version="1.0" encoding="UTF-8"?>
<svg width="800px" height="600px" viewBox="0 0 800 600" version="1.1" xmlns="http://www.w3.org/2000/svg" xmlns:xlink="http://www.w3.org/1999/xlink">
  <defs></defs>
  <g stroke="none" stroke-width="1" fill="none" fill-rule="evenodd">
    
    <path stroke="#0fa6d8" stroke-width="5" fill="#02eb6b" opacity="0.06486633135370996" stroke-opacity="0.7670689003622899" transform="rotate(159.0 400 300)" d="M 223,305  C 624,497 319,345 149,260 C 432,166 476,337 253,353 C 187,390 426,481 587,232 C 255,384 487,302 625,161 C 560,397 232,322 341,218 C 661,487 457,274 255,148 C 450,442 297,486 292,295 Z"></path>
<path stroke="#0fa6d8" stroke-width="5" fill="#f559a0" opacity="0.05804115615464915" stroke-opacity="0.41614973282276124" transform="rotate(-28.0 400 300)" d="M 671,499  C 328,244 695,191 542,244 C 532,234 589,239 543,285 C 295,420 575,213 427,378 C 234,294 389,274 140,277 C 647,350 164,381 353,200 C 258,463 504,393 232,321 C 200,392 448,393 191,322 Z"></path>
<path stroke="#fe9225" stroke-width="7" fill="#2cd3f3" opacity="0.08392100469432372" stroke-opacity="0.8197330633527762" transform="rotate(90.0 400 300)" d="M 514,342  C 404,122 210,398 511,481 C 696,310 573,491 398,491 C 660,368 438,137 586,490 C 328,300 260,199 586,496 C 172,491 444,363 475,492 Z"></path>
<path stroke="#2cd3f3" stroke-width="4" fill="#02eb6b" opacity="0.9118551399681091" stroke-opacity="0.04885781091377216" transform="rotate(135.0 400 300)" d="M 313,182  C 406,335 651,291 131,131 C 466,475 281,487 165,478 C 472,138 569,313 306,368 C 658,198 538,448 358,477 C 368,172 243,361 423,178 C 109,409 237,119 502,440 Z"></path>
<path stroke="#f559a0" stroke-width="1" fill="#fe9225" opacity="0.604828219349141" stroke-opacity="0.3195551259609286" transform="rotate(-131.0 400 300)" d="M 384,491  C 682,350 273,255 459,457 C 578,472 180,183 169,155 C 302,459 271,117 668,349 C 514,331 376,369 406,156 C 607,200 213,198 472,162 C 502,405 630,376 444,474 C 650,160 579,239 165,274 Z"></path>
<path stroke="#2cd3f3" stroke-width="5" fill="#f559a0" opacity="0.5813473391290513" stroke-opacity="0.19570281878643403" transform="rotate(177.0 400 300)" d="M 559,123  C 332,181 438,193 493,178 C 622,494 265,441 152,144 C 392,101 416,116 120,248 C 386,402 491,417 109,131 C 281,252 298,135 476,180 Z"></path>

  </g>
</svg>
