<?xml version="1.0" encoding="UTF-8"?>
<svg width="800px" height="600px" viewBox="0 0 800 600" version="1.1" xmlns="http://www.w3.org/2000/svg" xmlns:xlink="http://www.w3.org/1999/xlink">
  <defs></defs>
  <g stroke="none" stroke-width="1" fill="none" fill-rule="evenodd">
    
    <polygon stroke="#2b55f7" stroke-width="3" fill="#2b55f7" opacity="0.5014809437059896" stroke-opacity="0.3766800693710349" transform="rotate(86.0 400 300)" points="181 255 573 522 71 16 737 573 175 46 420 509 233 400 102 182 "></polygon>
<ellipse stroke="#f27630" stroke-width="7" fill="#f27630" opacity="0.3708544958221428" stroke-opacity="0.7915713972127227" transform="rotate(-163.0 400 300)" cx="125" rx="268" cy="507" ry="185"></ellipse>
<ellipse stroke="#f9d84b" stroke-width="1" fill="#31a06b" opacity="0.7219865772349292" stroke-opacity="0.6076822100159978" transform="rotate(137.0 400 300)" cx="559" rx="372" cy="355" ry="308"></ellipse>
<ellipse stroke="#2b55f7" stroke-width="2" fill="#31a06b" opacity="0.6181472524329005" stroke-opacity="0.10545642619555827" transform="rotate(-79.0 400 300)" cx="327" rx="327" cy="533" ry="151"></ellipse>
<polygon stroke="#2b55f7" stroke-width="2" fill="#31a06b" opacity="0.012087611986530468" stroke-opacity="0.2425873777788768" transform="rotate(-12.0 400 300)" points="627 33 730 108 362 423 736 117 646 340 615 421 "></polygon>
<path stroke="#2b55f7" stroke-width="6" fill="#2b55f7" opacity="0.42938786490709596" stroke-opacity="0.23167726182935716" transform="rotate(-84.0 400 300)" d="M 540,130  C 458,353 396,370 583,338 C 626,414 638,124 641,315 C 327,128 627,428 572,336 C 590,124 120,224 315,246 Z"></path>
<polygon stroke="#2b55f7" stroke-width="3" fill="#31a06b" opacity="0.6142245602437416" stroke-opacity="0.2636183403181033" transform="rotate(-125.0 400 300)" points="56 31 712 357 29 277 45 479 90 86 767 274 "></polygon>
<ellipse stroke="#ed2b2c" stroke-width="1" fill="#2b55f7" opacity="0.9292361219920878" stroke-opacity="0.5998898164047951" transform="rotate(-76.0 400 300)" cx="313" rx="38" cy="6" ry="233"></ellipse>
<polygon stroke="#f9d84b" stroke-width="7" fill="#31a06b" opacity="0.6624395694682579" stroke-opacity="0.5484635024333671" transform="rotate(24.0 400 300)" points="395 509 202 362 421 192 109 50 221 461 "></polygon>
<rect stroke="#2b55f7" stroke-width="2" fill="#ed2b2c" opacity="0.21912984255444823" stroke-opacity="0.40469997567732013" transform="rotate(-15.0 400 300)" x="85" y="592" width="297" height="308"></rect>

  </g>
</svg>
