<svg xmlns="http://www.w3.org/2000/svg" xmlns:xlink="http://www.w3.org/1999/xlink" width="800" height="600" version="1.1" viewBox="0 0 800 600"><g fill="none" fill-rule="evenodd" stroke="none" stroke-width="1"><polygon fill="#2b55f7" stroke="#2b55f7" stroke-opacity=".377" stroke-width="3" points="181 255 573 522 71 16 737 573 175 46 420 509 233 400 102 182" opacity=".501" transform="rotate(86.0 400 300)"/><ellipse cx="125" cy="507" fill="#f27630" stroke="#f27630" stroke-opacity=".792" stroke-width="7" opacity=".371" rx="268" ry="185" transform="rotate(-163.0 400 300)"/><ellipse cx="559" cy="355" fill="#31a06b" stroke="#f9d84b" stroke-opacity=".608" stroke-width="1" opacity=".722" rx="372" ry="308" transform="rotate(137.0 400 300)"/><ellipse cx="327" cy="533" fill="#31a06b" stroke="#2b55f7" stroke-opacity=".105" stroke-width="2" opacity=".618" rx="327" ry="151" transform="rotate(-79.0 400 300)"/><polygon fill="#31a06b" stroke="#2b55f7" stroke-opacity=".243" stroke-width="2" points="627 33 730 108 362 423 736 117 646 340 615 421" opacity=".012" transform="rotate(-12.0 400 300)"/><path fill="#2b55f7" stroke="#2b55f7" stroke-opacity=".232" stroke-width="6" d="M 540,130 C 458,353 396,370 583,338 C 626,414 638,124 641,315 C 327,128 627,428 572,336 C 590,124 120,224 315,246 Z" opacity=".429" transform="rotate(-84.0 400 300)"/><polygon fill="#31a06b" stroke="#2b55f7" stroke-opacity=".264" stroke-width="3" points="56 31 712 357 29 277 45 479 90 86 767 274" opacity=".614" transform="rotate(-125.0 400 300)"/><ellipse cx="313" cy="6" fill="#2b55f7" stroke="#ed2b2c" stroke-opacity=".6" stroke-width="1" opacity=".929" rx="38" ry="233" transform="rotate(-76.0 400 300)"/><polygon fill="#31a06b" stroke="#f9d84b" stroke-opacity=".548" stroke-width="7" points="395 509 202 362 421 192 109 50 221 461" opacity=".662" transform="rotate(24.0 400 300)"/><rect width="297" height="308" x="85" y="592" fill="#ed2b2c" stroke="#2b55f7" stroke-opacity=".405" stroke-width="2" opacity=".219" transform="rotate(-15.0 400 300)"/></g></svg>