<svg xmlns="http://www.w3.org/2000/svg" xmlns:xlink="http://www.w3.org/1999/xlink" width="800" height="600" version="1.1" viewBox="0 0 800 600"><g fill="none" fill-rule="evenodd" stroke="none" stroke-width="1"><path fill="#ed2b2c" stroke="#f27630" stroke-opacity=".022" stroke-width="2" d="M 321,343 C 693,212 102,254 477,150 C 188,122 545,491 470,310 C 435,395 232,430 344,269 C 410,132 359,144 110,148 Z" opacity=".537" transform="rotate(-151.0 400 300)"/><path fill="#2b55f7" stroke="#f9d84b" stroke-opacity=".897" stroke-width="1" d="M 264,114 C 414,186 698,344 384,151 C 616,263 656,374 146,227 C 320,474 646,394 204,301 C 269,388 403,141 308,499 C 547,196 541,472 328,491 C 569,130 153,212 503,471 C 556,369 337,124 516,241 C 102,406 387,253 336,119 Z" opacity=".869" transform="rotate(-19.0 400 300)"/><path fill="#f9d84b" stroke="#f27630" stroke-opacity=".457" stroke-width="5" d="M 624,266 C 566,433 657,166 180,289 C 195,358 617,469 582,207 C 498,125 243,296 685,367 C 673,497 691,129 160,443 C 483,230 627,174 328,356 Z" opacity=".702" transform="rotate(-25.0 400 300)"/><path fill="#31a06b" stroke="#f27630" stroke-opacity=".055" stroke-width="6" d="M 540,223 C 477,304 117,485 677,245 C 594,271 374,344 300,224 C 254,345 559,197 107,478 C 571,165 356,396 436,247 C 318,250 221,367 340,429 C 315,101 366,481 593,362 C 665,424 295,174 126,160 Z" opacity=".236" transform="rotate(-159.0 400 300)"/><path fill="#2b55f7" stroke="#31a06b" stroke-opacity=".842" stroke-width="3" d="M 328,184 C 629,284 619,212 462,458 C 533,448 337,257 343,107 C 700,489 694,205 361,144 C 571,111 185,305 571,242 C 369,455 396,289 156,194 Z" opacity=".847" transform="rotate(120.0 400 300)"/><path fill="#f9d84b" stroke="#f9d84b" stroke-opacity=".154" stroke-width="6" d="M 332,483 C 590,314 252,361 251,346 C 390,300 169,325 347,108 C 158,143 121,466 318,153 C 212,450 331,357 225,447 C 557,101 270,396 611,402 C 204,418 501,277 411,144 C 453,365 495,358 645,423 C 521,131 258,398 248,365 Z" opacity=".952" transform="rotate(86.0 400 300)"/></g></svg>