<svg xmlns="http://www.w3.org/2000/svg" xmlns:xlink="http://www.w3.org/1999/xlink" width="800" height="600" version="1.1" viewBox="0 0 800 600"><g fill="none" fill-rule="evenodd" stroke="none" stroke-width="1"><path fill="#B54764" stroke="#5C44B6" stroke-opacity=".046" stroke-width="6" d="M 613,142 C 411,107 292,186 610,114 C 529,388 196,196 173,281 C 445,125 351,380 314,493 C 140,415 198,223 305,343 C 575,213 452,381 229,228 C 271,380 205,344 280,199 C 488,493 279,175 397,471 C 344,332 293,347 578,487 C 293,160 208,359 618,222 Z" opacity=".438" transform="rotate(104.0 400 300)"/><path fill="#61C822" stroke="#348A97" stroke-opacity=".209" stroke-width="7" d="M 385,168 C 342,237 132,446 396,241 C 657,111 408,389 672,168 C 604,147 591,439 672,139 C 214,264 304,379 434,174 C 354,478 621,147 665,180 C 277,355 416,439 294,325 C 657,253 306,256 493,164 C 417,353 207,278 330,258 C 209,117 616,342 603,113 C 237,366 161,455 427,103 Z" opacity=".537" transform="rotate(110.0 400 300)"/><path fill="#571069" stroke="#894531" stroke-opacity=".153" stroke-width="3" d="M 416,327 C 528,194 302,495 669,128 C 665,253 121,102 543,487 C 214,408 307,400 284,456 C 211,163 380,387 444,320 C 292,221 489,185 405,327 C 574,404 475,363 213,119 C 528,389 540,168 598,264 Z" opacity=".547" transform="rotate(-23.0 400 300)"/><path fill="#8314C6" stroke="#656185" stroke-opacity=".957" stroke-width="3" d="M 557,308 C 527,488 668,186 132,274 C 590,481 259,351 659,188 C 371,480 611,210 477,346 C 398,220 233,227 598,393 C 293,298 126,250 450,312 C 300,466 435,452 190,480 C 328,412 253,270 258,349 C 241,152 539,351 305,169 Z" opacity=".319" transform="rotate(117.0 400 300)"/><path fill="#9AB828" stroke="#2627DB" stroke-opacity=".02" stroke-width="4" d="M 378,388 C 532,115 236,305 640,204 C 611,261 167,476 581,196 C 418,380 518,203 422,138 C 335,407 488,265 193,301 C 225,384 663,348 493,258 C 215,363 628,379 218,255 C 479,266 316,112 632,193 Z" opacity=".379" transform="rotate(165.0 400 300)"/><path fill="#2DB65C" stroke="#9255B8" stroke-opacity=".206" stroke-width="1" d="M 152,437 C 464,328 545,278 262,309 C 456,247 353,366 393,425 C 131,151 598,426 124,412 C 405,498 580,366 658,303 C 238,265 548,107 413,319 C 511,321 194,404 249,217 C 207,321 262,397 541,141 C 425,354 425,375 518,251 C 573,321 427,398 360,136 Z" opacity=".911" transform="rotate(-176.0 400 300)"/><path fill="#16767D" stroke="#C80D63" stroke-opacity=".534" stroke-width="7" d="M 397,380 C 675,221 344,282 576,193 C 648,384 136,284 168,367 C 677,124 581,305 688,408 C 386,362 106,226 263,126 C 270,326 251,318 548,396 C 371,220 535,453 131,465 C 615,170 464,179 267,157 C 201,283 159,471 199,301 C 111,494 549,438 676,240 Z" opacity=".001" transform="rotate(-93.0 400 300)"/><path fill="#1ADC29" stroke="#228D1B" stroke-opacity=".174" stroke-width="7" d="M 267,398 C 284,362 647,217 520,251 C 521,388 590,365 562,412 C 412,378 460,188 292,225 C 556,476 496,243 286,186 C 305,305 580,265 338,391 C 465,376 313,393 422,375 C 582,377 383,261 566,327 C 694,147 337,153 555,326 C 589,173 410,325 514,149 Z" opacity=".814" transform="rotate(153.0 400 300)"/><path fill="#88303D" stroke="#790481" stroke-opacity=".069" stroke-width="3" d="M 343,478 C 388,454 220,354 587,261 C 296,358 608,110 198,205 C 520,320 503,427 470,375 C 479,317 528,426 529,168 C 648,140 555,496 507,251 Z" opacity=".123" transform="rotate(-149.0 400 300)"/><path fill="#CD2239" stroke="#3307CA" stroke-opacity=".017" stroke-width="2" d="M 403,354 C 355,206 600,321 269,108 C 604,404 527,167 359,318 C 163,448 334,269 697,200 C 616,126 596,453 687,182 C 270,188 347,294 358,476 C 169,473 164,335 672,259 C 487,192 416,221 487,191 C 434,174 183,478 546,290 C 131,452 688,447 519,318 Z" opacity=".864" transform="rotate(-174.0 400 300)"/><path fill="#1A1579" stroke="#8CC2AC" stroke-opacity=".193" stroke-width="4" d="M 161,441 C 324,184 316,196 374,340 C 515,315 343,464 686,480 C 393,312 580,416 255,214 C 208,126 346,337 219,433 C 529,171 680,337 589,363 C 271,243 621,128 348,468 C 200,329 661,362 591,435 Z" opacity=".979" transform="rotate(-141.0 400 300)"/></g></svg>