<svg xmlns="http://www.w3.org/2000/svg" xmlns:xlink="http://www.w3.org/1999/xlink" width="800" height="600" version="1.1" viewBox="0 0 800 600"><g fill="none" fill-rule="evenodd" stroke="none" stroke-width="1"><path fill="#02eb6b" stroke="#0fa6d8" stroke-opacity=".889" stroke-width="7" d="M 536,327 C 348,169 202,211 349,481 C 199,245 485,236 291,316 C 427,462 425,292 132,343 C 216,319 628,184 313,246 C 460,487 111,356 517,481 Z" opacity=".92" transform="rotate(-52.0 400 300)"/><path fill="#fe9225" stroke="#0fa6d8" stroke-opacity=".066" stroke-width="6" d="M 304,426 C 612,106 146,246 662,328 C 140,423 588,378 468,209 C 104,326 668,125 520,215 C 197,420 679,472 344,458 C 292,252 448,319 367,339 C 141,420 182,461 245,469 C 206,492 551,437 374,342 C 227,161 326,344 458,294 C 132,449 630,394 631,386 C 373,432 585,388 555,266 C 672,216 110,135 114,242 Z" opacity=".66" transform="rotate(-163.0 400 300)"/><path fill="#0fa6d8" stroke="#2cd3f3" stroke-opacity=".685" stroke-width="3" d="M 367,407 C 342,287 269,342 524,246 C 110,449 203,237 275,164 C 383,366 463,445 278,136 C 685,358 546,163 588,118 C 199,213 424,136 192,401 C 171,478 186,162 120,309 Z" opacity=".112" transform="rotate(13.0 400 300)"/><path fill="#02eb6b" stroke="#02eb6b" stroke-opacity=".707" stroke-width="4" d="M 276,197 C 563,240 391,375 160,447 C 275,328 400,222 603,265 C 581,290 519,351 605,221 C 203,209 658,340 333,350 C 478,120 266,115 492,117 C 155,323 315,356 286,196 C 169,292 424,490 124,210 Z" opacity=".023" transform="rotate(40.0 400 300)"/><path fill="#fe9225" stroke="#0fa6d8" stroke-opacity=".901" stroke-width="5" d="M 429,244 C 441,132 628,347 182,427 C 570,168 163,455 574,311 C 403,127 250,298 607,476 C 210,313 177,142 317,465 C 630,344 514,326 645,457 C 249,380 506,261 633,211 Z" opacity=".397" transform="rotate(93.0 400 300)"/><path fill="#0fa6d8" stroke="#02eb6b" stroke-opacity=".161" stroke-width="1" d="M 452,109 C 615,214 693,210 244,268 C 287,103 659,416 230,253 C 385,145 223,419 549,318 C 246,237 555,444 476,374 C 179,351 104,104 444,303 C 225,330 161,444 252,126 C 235,406 370,329 687,278 C 323,137 157,270 284,259 C 154,290 467,441 493,386 C 424,253 559,269 660,248 C 103,163 248,481 255,448 Z" opacity=".099" transform="rotate(-53.0 400 300)"/></g></svg>