<svg xmlns="http://www.w3.org/2000/svg" xmlns:xlink="http://www.w3.org/1999/xlink" width="800" height="600" version="1.1" viewBox="0 0 800 600"><g fill="none" fill-rule="evenodd" stroke="none" stroke-width="1"><path fill="#fe9225" stroke="#f559a0" stroke-opacity=".036" stroke-width="4" d="M 658,270 C 509,424 519,370 367,130 C 154,144 444,101 134,321 C 328,214 530,228 624,422 C 319,421 487,249 624,205 Z" opacity=".5" transform="rotate(-161.0 400 300)"/><path fill="#fe9225" stroke="#02eb6b" stroke-opacity=".369" stroke-width="1" d="M 222,344 C 416,464 330,477 138,367 C 321,499 603,186 382,498 C 579,496 386,480 560,216 C 520,197 196,385 236,171 C 526,234 173,110 641,142 C 611,305 271,330 416,173 C 335,490 118,419 469,356 C 269,431 259,158 236,399 C 695,315 155,279 580,249 C 361,381 322,178 656,121 Z" opacity=".825" transform="rotate(-98.0 400 300)"/><polygon fill="#fe9225" stroke="#02eb6b" stroke-opacity=".69" stroke-width="6" points="717 264 353 273 259 118 729 57 639 519 164 582 769 273 214 258" opacity=".214" transform="rotate(-60.0 400 300)"/><rect width="353" height="255" x="494" y="495" fill="#2cd3f3" stroke="#0fa6d8" stroke-opacity=".426" stroke-width="5" opacity=".797" transform="rotate(-126.0 400 300)"/><ellipse cx="482" cy="418" fill="#f559a0" stroke="#2cd3f3" stroke-opacity=".782" stroke-width="2" opacity=".841" rx="82" ry="283" transform="rotate(49.0 400 300)"/><polygon fill="#02eb6b" stroke="#fe9225" stroke-opacity=".43" stroke-width="7" points="601 56 788 538 245 405 124 116 58 289 179 293 645 354 580 56" opacity=".981" transform="rotate(164.0 400 300)"/></g></svg>