<svg xmlns="http://www.w3.org/2000/svg" xmlns:xlink="http://www.w3.org/1999/xlink" width="800" height="600" version="1.1" viewBox="0 0 800 600"><g fill="none" fill-rule="evenodd" stroke="none" stroke-width="1"><path fill="#3B058C" stroke="#6C621D" stroke-opacity=".202" stroke-width="4" d="M 639,265 C 247,301 167,365 165,107 C 453,421 437,230 478,364 C 614,134 310,134 118,102 C 579,460 181,494 579,362 Z" opacity=".328" transform="rotate(-77.0 400 300)"/><ellipse cx="220" cy="68" fill="#599464" stroke="#7BA342" stroke-opacity=".967" stroke-width="5" opacity=".161" rx="65" ry="227" transform="rotate(33.0 400 300)"/><ellipse cx="125" cy="310" fill="#C16ABD" stroke="#85A8C7" stroke-opacity=".165" stroke-width="2" opacity=".281" rx="313" ry="195" transform="rotate(127.0 400 300)"/><ellipse cx="744" cy="185" fill="#D886AC" stroke="#654AB4" stroke-opacity=".526" stroke-width="1" opacity=".571" rx="134" ry="194" transform="rotate(21.0 400 300)"/><polygon fill="#013D93" stroke="#1CA671" stroke-opacity=".382" stroke-width="2" points="562 539 728 422 728 6 337 600 656 41 707 317 779 18" opacity=".768" transform="rotate(14.0 400 300)"/><path fill="#232A59" stroke="#352A13" stroke-opacity=".054" stroke-width="6" d="M 548,187 C 549,288 538,117 402,142 C 143,461 219,377 639,443 C 217,333 105,159 411,190 C 451,277 668,367 307,456 C 474,144 430,264 488,455 C 316,408 281,143 345,205 C 601,200 245,122 368,454 C 166,432 213,373 603,221 Z" opacity=".785" transform="rotate(41.0 400 300)"/><polygon fill="#137891" stroke="#5B5212" stroke-opacity=".845" stroke-width="4" points="406 51 458 98 400 92 611 344 138 327" opacity=".256" transform="rotate(-151.0 400 300)"/></g></svg>