<svg xmlns="http://www.w3.org/2000/svg" xmlns:xlink="http://www.w3.org/1999/xlink" width="800" height="600" version="1.1" viewBox="0 0 800 600"><g fill="none" fill-rule="evenodd" stroke="none" stroke-width="1"><path fill="#2cd3f3" stroke="#02eb6b" stroke-opacity=".925" stroke-width="2" d="M 492,354 C 327,430 484,460 256,238 C 608,279 340,159 343,390 C 223,229 103,366 588,264 C 633,183 698,328 156,170 C 404,252 153,382 528,125 Z" opacity=".134" transform="rotate(104.0 400 300)"/><path fill="#fe9225" stroke="#2cd3f3" stroke-opacity=".752" stroke-width="5" d="M 556,483 C 386,420 554,134 506,364 C 184,142 682,327 315,399 C 585,293 344,440 435,461 C 287,119 276,421 123,261 C 510,497 539,332 581,297 C 374,490 470,402 492,166 C 435,345 565,316 129,317 Z" opacity=".167" transform="rotate(-142.0 400 300)"/><path fill="#fe9225" stroke="#2cd3f3" stroke-opacity=".429" stroke-width="4" d="M 562,409 C 221,267 657,448 436,145 C 276,419 672,451 519,221 C 544,319 535,177 156,215 C 520,368 603,291 628,139 C 491,197 391,114 436,322 C 364,323 619,289 197,318 C 227,468 407,113 309,295 C 343,381 160,330 611,238 Z" opacity=".235" transform="rotate(88.0 400 300)"/><path fill="#0fa6d8" stroke="#2cd3f3" stroke-opacity=".659" stroke-width="1" d="M 456,429 C 203,137 654,399 402,332 C 320,395 524,193 484,351 C 625,493 354,238 260,493 C 614,492 410,147 219,341 C 360,251 528,203 412,337 C 381,412 479,238 467,136 Z" opacity=".728" transform="rotate(71.0 400 300)"/><path fill="#2cd3f3" stroke="#02eb6b" stroke-opacity=".928" stroke-width="5" d="M 433,309 C 412,164 643,352 238,178 C 607,194 274,451 254,281 C 133,284 598,264 351,193 C 593,132 279,106 293,396 C 665,300 358,362 221,234 C 627,274 387,265 501,349 C 644,362 232,278 277,375 C 277,299 588,313 301,335 Z" opacity=".509" transform="rotate(-51.0 400 300)"/><path fill="#f559a0" stroke="#fe9225" stroke-opacity=".643" stroke-width="2" d="M 515,253 C 192,148 595,449 285,491 C 378,319 344,441 557,212 C 311,104 569,335 435,315 C 191,399 221,314 190,383 C 593,373 226,228 616,439 C 657,260 617,257 684,315 C 383,328 613,330 236,192 C 582,221 485,232 117,253 Z" opacity=".36" transform="rotate(-172.0 400 300)"/><path fill="#02eb6b" stroke="#2cd3f3" stroke-opacity=".18" stroke-width="2" d="M 542,166 C 366,134 506,406 403,340 C 182,189 347,425 149,105 C 495,175 671,177 144,277 C 606,444 384,365 253,426 Z" opacity=".81" transform="rotate(134.0 400 300)"/><path fill="#2cd3f3" stroke="#fe9225" stroke-opacity=".175" stroke-width="3" d="M 541,324 C 534,366 494,376 644,132 C 575,109 681,272 135,318 C 617,187 630,467 467,475 C 536,166 217,280 674,468 C 153,317 413,336 411,237 C 692,462 428,274 667,466 C 567,262 184,102 457,166 C 110,365 207,160 141,219 C 161,216 685,299 697,319 C 234,308 536,149 497,255 Z" opacity=".672" transform="rotate(97.0 400 300)"/></g></svg>