<?xml version="1.0" encoding="UTF-8"?>
<svg width="800px" height="600px" viewBox="0 0 800 600" version="1.1" xmlns="http://www.w3.org/2000/svg" xmlns:xlink="http://www.w3.org/1999/xlink">
  <defs></defs>
  <g stroke="none" stroke-width="1" fill="none" fill-rule="evenodd">
    
    <ellipse stroke="#2cd3f3" stroke-width="2" fill="#fe9225" opacity="0.45027423886711126" stroke-opacity="0.8273888860265536" transform="rotate(-46.0 400 300)" cx="432" rx="82" cy="355" ry="188"></ellipse>
<rect stroke="#2cd3f3" stroke-width="5" fill="#2cd3f3" opacity="0.4579002801215104" stroke-opacity="0.7732818007166172" transform="rotate(-106.0 400 300)" x="118" y="597" width="363" height="197"></rect>
<path stroke="#02eb6b" stroke-width="4" fill="#f559a0" opacity="0.7154973249189382" stroke-opacity="0.4987859201457108" transform="rotate(-37.0 400 300)" d="M 304,334  C 524,391 383,266 690,117 C 189,134 332,248 332,120 C 497,422 257,417 557,350 C 303,169 517,438 634,120 C 694,412 237,241 494,469 C 315,336 398,413 474,319 Z"></path>
<path stroke="#0fa6d8" stroke-width="4" fill="#2cd3f3" opacity="0.314138380401642" stroke-opacity="0.2704946386955236" transform="rotate(-74.0 400 300)" d="M 390,445  C 662,282 108,244 131,174 C 134,229 491,291 587,299 C 650,367 644,128 533,167 C 663,426 417,343 354,214 Z"></path>
<path stroke="#2cd3f3" stroke-width="3" fill="#fe9225" opacity="0.26042624452180474" stroke-opacity="0.9703382717293905" transform="rotate(170.0 400 300)" d="M 405,230  C 121,321 284,138 405,457 C 476,118 371,481 585,274 C 568,378 306,173 586,444 C 401,210 615,156 303,465 C 552,360 512,266 281,315 C 292,165 534,268 317,459 C 147,385 341,311 558,140 C 609,324 457,313 437,152 C 125,282 516,408 449,133 Z"></path>
<ellipse stroke="#fe9225" stroke-width="5" fill="#02eb6b" opacity="0.3271109241060632" stroke-opacity="0.7314655155568378" transform="rotate(-155.0 400 300)" cx="526" rx="360" cy="489" ry="262"></ellipse>

  </g>
</svg>
