<svg xmlns="http://www.w3.org/2000/svg" xmlns:xlink="http://www.w3.org/1999/xlink" width="800" height="600" version="1.1" viewBox="0 0 800 600"><g fill="none" fill-rule="evenodd" stroke="none" stroke-width="1"><ellipse cx="432" cy="355" fill="#fe9225" stroke="#2cd3f3" stroke-opacity=".827" stroke-width="2" opacity=".45" rx="82" ry="188" transform="rotate(-46.0 400 300)"/><rect width="363" height="197" x="118" y="597" fill="#2cd3f3" stroke="#2cd3f3" stroke-opacity=".773" stroke-width="5" opacity=".458" transform="rotate(-106.0 400 300)"/><path fill="#f559a0" stroke="#02eb6b" stroke-opacity=".499" stroke-width="4" d="M 304,334 C 524,391 383,266 690,117 C 189,134 332,248 332,120 C 497,422 257,417 557,350 C 303,169 517,438 634,120 C 694,412 237,241 494,469 C 315,336 398,413 474,319 Z" opacity=".715" transform="rotate(-37.0 400 300)"/><path fill="#2cd3f3" stroke="#0fa6d8" stroke-opacity=".27" stroke-width="4" d="M 390,445 C 662,282 108,244 131,174 C 134,229 491,291 587,299 C 650,367 644,128 533,167 C 663,426 417,343 354,214 Z" opacity=".314" transform="rotate(-74.0 400 300)"/><path fill="#fe9225" stroke="#2cd3f3" stroke-opacity=".97" stroke-width="3" d="M 405,230 C 121,321 284,138 405,457 C 476,118 371,481 585,274 C 568,378 306,173 586,444 C 401,210 615,156 303,465 C 552,360 512,266 281,315 C 292,165 534,268 317,459 C 147,385 341,311 558,140 C 609,324 457,313 437,152 C 125,282 516,408 449,133 Z" opacity=".26" transform="rotate(170.0 400 300)"/><ellipse cx="526" cy="489" fill="#02eb6b" stroke="#fe9225" stroke-opacity=".731" stroke-width="5" opacity=".327" rx="360" ry="262" transform="rotate(-155.0 400 300)"/></g></svg>