<svg xmlns="http://www.w3.org/2000/svg" xmlns:xlink="http://www.w3.org/1999/xlink" width="800" height="600" version="1.1" viewBox="0 0 800 600"><g fill="none" fill-rule="evenodd" stroke="none" stroke-width="1"><path fill="#D655D9" stroke="#6712B5" stroke-opacity=".261" stroke-width="4" d="M 630,234 C 178,250 391,340 155,274 C 582,184 122,260 120,188 C 540,396 493,382 450,135 C 318,243 469,167 673,385 C 671,475 589,314 282,167 C 434,323 406,130 488,181 C 688,202 492,130 144,308 C 608,189 284,271 120,429 C 259,358 147,176 382,250 C 287,287 134,362 459,126 C 148,265 382,156 651,297 Z" opacity=".203" transform="rotate(-169.0 400 300)"/><path fill="#58C081" stroke="#0124A9" stroke-opacity=".662" stroke-width="6" d="M 205,450 C 129,423 449,101 293,464 C 231,231 362,405 398,288 C 248,192 210,427 613,356 C 648,165 250,140 122,418 C 466,211 480,400 298,211 C 514,392 591,419 125,120 Z" opacity=".31" transform="rotate(-6.0 400 300)"/><path fill="#13AC00" stroke="#CC5449" stroke-opacity=".327" stroke-width="6" d="M 652,484 C 283,290 495,478 549,421 C 551,461 535,493 223,206 C 365,349 399,374 195,482 C 569,394 345,246 510,381 C 343,485 644,489 468,355 C 276,226 271,408 633,198 C 340,471 105,101 187,190 C 201,312 597,389 335,397 Z" opacity=".56" transform="rotate(-164.0 400 300)"/><path fill="#345BC6" stroke="#1BB659" stroke-opacity=".195" stroke-width="1" d="M 463,495 C 389,208 278,200 339,489 C 246,172 369,366 215,179 C 595,317 408,242 270,227 C 416,494 684,407 150,246 C 398,472 309,443 448,314 C 561,173 282,281 561,192 C 545,356 626,189 189,150 C 124,131 285,313 596,281 C 128,156 604,463 436,436 Z" opacity=".997" transform="rotate(-38.0 400 300)"/><path fill="#9B6A7B" stroke="#B32B28" stroke-opacity=".231" stroke-width="2" d="M 138,189 C 367,266 104,263 542,189 C 547,353 583,490 294,271 C 672,246 427,209 460,310 C 566,261 551,385 369,476 C 437,141 579,262 330,124 C 657,444 320,419 183,301 C 634,122 485,409 298,403 C 603,161 267,247 694,412 Z" opacity=".805" transform="rotate(-38.0 400 300)"/><path fill="#19907B" stroke="#3AD7D5" stroke-opacity=".468" stroke-width="4" d="M 558,212 C 135,231 309,131 631,331 C 231,241 457,289 315,250 C 436,413 569,386 693,245 C 106,493 459,445 548,457 C 340,103 478,202 125,317 C 357,490 651,234 592,202 C 647,421 698,177 642,438 C 461,368 609,205 295,417 C 452,386 182,167 443,337 C 168,375 497,310 369,412 Z" opacity=".455" transform="rotate(161.0 400 300)"/><path fill="#C58375" stroke="#78B740" stroke-opacity=".848" stroke-width="2" d="M 619,179 C 286,218 277,101 586,218 C 378,391 247,418 623,139 C 130,253 658,184 495,488 C 174,164 456,482 413,318 C 445,112 690,383 361,370 C 520,162 547,129 275,476 Z" opacity=".991" transform="rotate(-28.0 400 300)"/></g></svg>