<?xml version="1.0" encoding="UTF-8"?>
<svg width="800px" height="600px" viewBox="0 0 800 600" version="1.1" xmlns="http://www.w3.org/2000/svg" xmlns:xlink="http://www.w3.org/1999/xlink">
  <defs></defs>
  <g stroke="none" stroke-width="1" fill="none" fill-rule="evenodd">
    
    <path stroke="#2cd3f3" stroke-width="5" fill="#fe9225" opacity="0.12171362534081664" stroke-opacity="0.22691462680615165" transform="rotate(-165.0 400 300)" d="M 533,460  C 225,449 451,354 286,469 C 182,298 423,235 581,217 C 518,413 267,145 243,105 C 358,252 644,395 274,407 C 220,327 411,264 148,170 C 468,288 106,161 488,362 C 195,103 226,233 499,208 C 324,339 677,290 144,311 C 247,476 171,300 269,174 C 476,186 644,334 435,486 Z"></path>
<path stroke="#0fa6d8" stroke-width="5" fill="#f559a0" opacity="0.8361925347282319" stroke-opacity="0.8151056974628553" transform="rotate(120.0 400 300)" d="M 502,397  C 441,150 654,142 239,261 C 144,284 599,156 593,458 C 549,435 389,123 465,366 C 550,191 158,375 595,473 C 230,177 463,324 291,305 C 416,467 420,234 554,171 C 463,104 321,364 163,136 C 366,306 416,358 421,483 C 590,405 613,253 394,113 C 313,260 592,397 461,282 Z"></path>
<path stroke="#fe9225" stroke-width="6" fill="#0fa6d8" opacity="0.2538779698808399" stroke-opacity="0.2761861618094139" transform="rotate(-5.0 400 300)" d="M 686,420  C 594,470 186,164 421,305 C 382,209 370,474 634,442 C 544,274 546,115 652,106 C 404,391 502,419 575,173 C 256,112 377,330 434,251 C 664,329 439,123 435,183 C 370,184 637,117 234,211 Z"></path>
<path stroke="#2cd3f3" stroke-width="5" fill="#f559a0" opacity="0.5197266202008572" stroke-opacity="0.8163453965147732" transform="rotate(-77.0 400 300)" d="M 550,265  C 520,479 119,368 240,424 C 273,357 146,306 164,495 C 375,350 616,362 115,213 C 290,389 470,401 557,459 C 113,468 200,349 630,303 C 569,500 107,356 302,310 C 377,282 540,428 174,250 C 173,171 439,409 353,209 C 215,306 682,158 467,298 C 259,293 542,105 217,339 Z"></path>
<path stroke="#0fa6d8" stroke-width="5" fill="#f559a0" opacity="0.13888388655034342" stroke-opacity="0.83610494147222" transform="rotate(-30.0 400 300)" d="M 329,107  C 582,348 483,200 271,126 C 549,479 107,203 298,418 C 447,432 507,421 344,227 C 605,478 651,494 245,209 Z"></path>
<path stroke="#fe9225" stroke-width="3" fill="#fe9225" opacity="0.8001821262296724" stroke-opacity="0.48286130300144675" transform="rotate(-155.0 400 300)" d="M 563,306  C 195,319 319,216 633,429 C 417,431 610,184 667,489 C 214,224 667,360 191,477 C 613,209 556,312 561,287 C 677,227 579,449 333,225 C 494,482 242,454 679,134 C 587,288 246,208 391,349 C 508,303 654,139 443,339 C 394,389 520,301 620,173 C 475,474 330,163 339,137 C 370,460 578,345 418,130 Z"></path>
<path stroke="#f559a0" stroke-width="3" fill="#f559a0" opacity="0.7443485369551379" stroke-opacity="0.9399291265076383" transform="rotate(76.0 400 300)" d="M 295,285  C 154,482 609,259 430,239 C 173,324 528,267 229,280 C 228,134 644,240 373,475 C 110,194 280,129 513,291 C 623,451 317,226 700,239 C 461,208 617,120 117,306 C 261,449 124,120 524,390 C 212,229 378,254 170,460 C 503,397 343,381 330,343 C 302,130 359,158 305,123 Z"></path>
<path stroke="#2cd3f3" stroke-width="2" fill="#02eb6b" opacity="0.14055773286243314" stroke-opacity="0.4312188227310587" transform="rotate(-76.0 400 300)" d="M 643,286  C 182,233 696,242 354,358 C 699,103 359,328 695,274 C 359,483 674,377 479,156 C 374,336 192,371 684,307 C 386,360 102,458 676,255 C 277,357 491,173 560,189 Z"></path>
<path stroke="#0fa6d8" stroke-width="4" fill="#2cd3f3" opacity="0.1121492070197987" stroke-opacity="0.5606454343716426" transform="rotate(131.0 400 300)" d="M 245,402  C 521,138 312,163 372,250 C 117,392 427,329 459,427 C 273,466 190,126 150,407 C 676,279 401,500 338,366 C 189,483 200,288 557,170 C 247,199 627,219 679,346 C 125,159 342,241 671,195 Z"></path>
<path stroke="#f559a0" stroke-width="4" fill="#2cd3f3" opacity="0.19943854452326898" stroke-opacity="0.68814847666918" transform="rotate(-17.0 400 300)" d="M 683,389  C 613,134 546,109 579,171 C 320,272 466,160 379,287 C 481,282 236,224 304,477 C 463,205 542,115 231,168 C 503,242 108,380 676,440 C 276,177 132,331 566,328 C 344,387 566,294 407,466 C 536,388 113,455 444,331 Z"></path>

  </g>
</svg>
