<svg xmlns="http://www.w3.org/2000/svg" xmlns:xlink="http://www.w3.org/1999/xlink" width="800" height="600" version="1.1" viewBox="0 0 800 600"><g fill="none" fill-rule="evenodd" stroke="none" stroke-width="1"><rect width="28" height="229" x="548" y="396" fill="#fe9225" stroke="#fe9225" stroke-opacity=".499" stroke-width="1" opacity=".933" transform="rotate(-40.0 400 300)"/><ellipse cx="737" cy="75" fill="#02eb6b" stroke="#02eb6b" stroke-opacity=".767" stroke-width="7" opacity=".015" rx="69" ry="121" transform="rotate(-169.0 400 300)"/><ellipse cx="29" cy="168" fill="#fe9225" stroke="#02eb6b" stroke-opacity=".106" stroke-width="4" opacity=".227" rx="176" ry="340" transform="rotate(127.0 400 300)"/><rect width="342" height="262" x="214" y="383" fill="#02eb6b" stroke="#0fa6d8" stroke-opacity=".789" stroke-width="1" opacity=".845" transform="rotate(-72.0 400 300)"/><path fill="#2cd3f3" stroke="#fe9225" stroke-opacity=".829" stroke-width="4" d="M 199,442 C 144,357 429,168 508,385 C 680,281 330,117 155,384 C 241,188 462,274 424,273 C 537,111 459,424 292,425 C 549,189 548,440 241,227 C 578,218 627,494 654,365 C 407,110 332,471 298,463 Z" opacity=".189" transform="rotate(5.0 400 300)"/><polygon fill="#f559a0" stroke="#02eb6b" stroke-opacity=".804" stroke-width="4" points="774 64 118 46 198 321 457 194 770 106" opacity=".242" transform="rotate(-119.0 400 300)"/><ellipse cx="391" cy="69" fill="#0fa6d8" stroke="#2cd3f3" stroke-opacity=".773" stroke-width="6" opacity=".458" rx="73" ry="350" transform="rotate(-11.0 400 300)"/><ellipse cx="417" cy="551" fill="#f559a0" stroke="#f559a0" stroke-opacity=".043" stroke-width="2" opacity=".463" rx="53" ry="240" transform="rotate(-80.0 400 300)"/><path fill="#0fa6d8" stroke="#2cd3f3" stroke-opacity=".559" stroke-width="1" d="M 140,485 C 234,373 333,207 617,159 C 348,236 570,261 374,136 C 658,398 427,262 283,292 C 304,217 423,403 550,380 C 520,363 264,131 523,330 C 223,266 564,201 361,467 C 693,448 616,148 557,385 Z" opacity=".28" transform="rotate(152.0 400 300)"/><polygon fill="#02eb6b" stroke="#2cd3f3" stroke-opacity=".014" stroke-width="5" points="654 243 576 361 245 94 513 229 245 200 653 416 367 216" opacity=".359" transform="rotate(-151.0 400 300)"/><polygon fill="#0fa6d8" stroke="#f559a0" stroke-opacity=".781" stroke-width="3" points="650 17 552 476 701 258 276 237 408 535 510 400 714 123" opacity=".522" transform="rotate(71.0 400 300)"/></g></svg>