<svg xmlns="http://www.w3.org/2000/svg" xmlns:xlink="http://www.w3.org/1999/xlink" width="800" height="600" version="1.1" viewBox="0 0 800 600"><g fill="none" fill-rule="evenodd" stroke="none" stroke-width="1"><path fill="#31C776" stroke="#146CA3" stroke-opacity=".669" stroke-width="5" d="M 680,244 C 360,257 184,451 217,232 C 668,101 174,180 163,140 C 508,118 254,305 695,222 C 490,383 345,304 121,334 C 130,369 218,412 607,109 Z" opacity=".175" transform="rotate(63.0 400 300)"/><path fill="#775ACC" stroke="#121808" stroke-opacity=".916" stroke-width="3" d="M 235,179 C 572,172 282,196 114,115 C 226,371 228,347 383,272 C 633,354 668,458 409,447 C 474,424 589,430 238,340 C 486,129 566,210 413,337 C 643,186 160,490 506,375 C 696,269 525,414 676,181 C 153,204 135,373 401,395 Z" opacity=".41" transform="rotate(126.0 400 300)"/><path fill="#9C390C" stroke="#662A88" stroke-opacity=".123" stroke-width="5" d="M 576,151 C 417,284 472,469 545,172 C 699,456 425,346 253,321 C 646,496 500,446 114,316 C 437,396 612,362 472,142 C 492,496 257,311 569,303 C 491,389 110,130 132,494 C 327,222 115,496 327,467 C 230,306 113,413 524,337 C 229,231 496,468 232,132 C 518,263 588,337 136,435 C 207,439 171,273 523,369 Z" opacity=".328" transform="rotate(116.0 400 300)"/><path fill="#1241C8" stroke="#89190D" stroke-opacity=".209" stroke-width="5" d="M 137,202 C 385,103 581,327 425,340 C 670,493 346,131 190,118 C 622,133 700,157 673,144 C 551,123 411,162 402,484 C 383,160 141,246 270,341 C 422,433 158,148 471,169 C 525,341 512,261 114,302 C 378,370 149,161 496,404 C 479,187 150,342 601,307 Z" opacity=".417" transform="rotate(10.0 400 300)"/><path fill="#C40C63" stroke="#D460AB" stroke-opacity=".554" stroke-width="2" d="M 342,189 C 258,483 255,460 413,185 C 101,386 443,162 254,298 C 634,478 238,490 685,189 C 414,242 105,378 461,233 C 467,291 481,193 559,268 C 186,231 680,444 662,263 C 536,446 271,139 355,474 Z" opacity=".203" transform="rotate(-21.0 400 300)"/><path fill="#920602" stroke="#122159" stroke-opacity=".785" stroke-width="7" d="M 566,476 C 198,273 273,220 543,233 C 178,364 152,423 232,261 C 406,234 627,327 170,286 C 647,101 653,348 429,215 C 109,239 329,403 497,470 C 635,198 433,211 427,313 Z" opacity=".28" transform="rotate(82.0 400 300)"/></g></svg>