<svg xmlns="http://www.w3.org/2000/svg" xmlns:xlink="http://www.w3.org/1999/xlink" width="800" height="600" version="1.1" viewBox="0 0 800 600"><g fill="none" fill-rule="evenodd" stroke="none" stroke-width="1"><path fill="#2cd3f3" stroke="#2cd3f3" stroke-opacity=".209" stroke-width="3" d="M 284,277 C 282,207 616,263 429,112 C 441,361 392,402 631,286 C 157,204 698,126 212,287 C 642,104 401,351 679,475 C 305,121 220,290 603,237 C 476,329 127,476 143,359 C 124,101 641,258 526,469 C 560,277 213,424 351,188 C 673,371 683,242 173,193 C 677,207 414,176 510,361 Z" opacity=".724" transform="rotate(23.0 400 300)"/><path fill="#2cd3f3" stroke="#02eb6b" stroke-opacity=".846" stroke-width="1" d="M 690,125 C 433,150 162,317 546,442 C 434,439 425,382 309,300 C 287,333 243,203 670,365 C 142,264 575,125 462,194 C 616,168 271,446 115,367 C 409,257 288,461 166,217 Z" opacity=".08" transform="rotate(172.0 400 300)"/><path fill="#fe9225" stroke="#0fa6d8" stroke-opacity=".891" stroke-width="3" d="M 180,139 C 353,207 143,227 367,154 C 519,320 204,332 620,487 C 328,297 122,413 320,308 C 252,111 157,193 300,197 C 674,364 265,242 226,133 C 282,120 644,371 126,181 C 256,332 325,446 491,288 Z" opacity=".593" transform="rotate(-120.0 400 300)"/><path fill="#0fa6d8" stroke="#fe9225" stroke-opacity=".82" stroke-width="1" d="M 431,187 C 120,391 507,273 626,259 C 672,436 529,279 659,391 C 183,330 531,177 501,400 C 415,421 258,348 125,358 C 297,110 241,486 274,445 C 689,405 259,108 617,345 C 191,129 322,392 479,291 C 574,193 569,198 487,320 Z" opacity=".535" transform="rotate(-129.0 400 300)"/><path fill="#fe9225" stroke="#f559a0" stroke-opacity=".082" stroke-width="3" d="M 292,229 C 352,235 698,460 106,171 C 392,174 442,246 422,365 C 299,254 296,201 141,230 C 410,209 665,365 287,172 C 568,165 234,208 321,291 C 252,392 174,117 525,139 C 393,495 456,442 628,226 C 603,295 185,349 614,255 C 245,159 142,398 424,322 Z" opacity=".342" transform="rotate(-7.0 400 300)"/><path fill="#0fa6d8" stroke="#f559a0" stroke-opacity=".444" stroke-width="3" d="M 605,330 C 644,363 470,320 435,472 C 588,139 661,432 405,385 C 618,415 526,150 113,308 C 289,269 434,242 532,108 C 239,169 342,272 557,337 C 171,128 254,422 151,286 C 546,408 600,431 244,305 C 608,457 315,485 495,461 Z" opacity=".739" transform="rotate(48.0 400 300)"/><path fill="#2cd3f3" stroke="#0fa6d8" stroke-opacity=".918" stroke-width="2" d="M 691,289 C 598,271 209,437 282,360 C 362,326 579,168 516,205 C 357,441 387,332 559,496 C 293,379 493,343 484,380 C 306,188 692,417 197,387 C 652,470 104,418 374,415 C 606,430 455,136 669,162 Z" opacity=".691" transform="rotate(84.0 400 300)"/></g></svg>