<svg xmlns="http://www.w3.org/2000/svg" xmlns:xlink="http://www.w3.org/1999/xlink" width="800" height="600" version="1.1" viewBox="0 0 800 600"><g fill="none" fill-rule="evenodd" stroke="none" stroke-width="1"><path fill="#31a06b" stroke="#f27630" stroke-opacity=".569" stroke-width="1" d="M 577,306 C 558,387 473,335 155,189 C 510,227 648,201 262,325 C 581,139 590,264 268,423 C 193,222 605,216 682,143 C 643,392 626,337 427,284 C 560,486 341,281 256,424 C 492,278 233,255 536,228 C 209,304 487,487 227,418 C 111,315 448,421 519,173 C 321,324 247,399 297,488 C 258,210 367,289 116,289 Z" opacity=".244" transform="rotate(94.0 400 300)"/><rect width="82" height="162" x="117" y="332" fill="#f27630" stroke="#f9d84b" stroke-opacity=".423" stroke-width="4" opacity=".434" transform="rotate(41.0 400 300)"/><polygon fill="#f27630" stroke="#31a06b" stroke-opacity=".3" stroke-width="4" points="629 592 747 380 621 174 258 444 624 37 318 558 392 455 303 152" opacity=".131" transform="rotate(148.0 400 300)"/><ellipse cx="114" cy="400" fill="#31a06b" stroke="#2b55f7" stroke-opacity=".315" stroke-width="6" opacity=".285" rx="53" ry="252" transform="rotate(6.0 400 300)"/><rect width="222" height="202" x="208" y="1" fill="#f27630" stroke="#ed2b2c" stroke-opacity=".341" stroke-width="7" opacity=".963" transform="rotate(20.0 400 300)"/><rect width="135" height="128" x="155" y="56" fill="#f27630" stroke="#f9d84b" stroke-opacity=".247" stroke-width="4" opacity=".093" transform="rotate(-30.0 400 300)"/></g></svg>