<?xml version="1.0" encoding="UTF-8"?>
<svg width="800px" height="600px" viewBox="0 0 800 600" version="1.1" xmlns="http://www.w3.org/2000/svg" xmlns:xlink="http://www.w3.org/1999/xlink">
  <defs></defs>
  <g stroke="none" stroke-width="1" fill="none" fill-rule="evenodd">
    
    <path stroke="#f27630" stroke-width="1" fill="#31a06b" opacity="0.24419638504716476" stroke-opacity="0.5688787062585293" transform="rotate(94.0 400 300)" d="M 577,306  C 558,387 473,335 155,189 C 510,227 648,201 262,325 C 581,139 590,264 268,423 C 193,222 605,216 682,143 C 643,392 626,337 427,284 C 560,486 341,281 256,424 C 492,278 233,255 536,228 C 209,304 487,487 227,418 C 111,315 448,421 519,173 C 321,324 247,399 297,488 C 258,210 367,289 116,289 Z"></path>
<rect stroke="#f9d84b" stroke-width="4" fill="#f27630" opacity="0.4343858265981181" stroke-opacity="0.42332617162398845" transform="rotate(41.0 400 300)" x="117" y="332" width="82" height="162"></rect>
<polygon stroke="#31a06b" stroke-width="4" fill="#f27630" opacity="0.13069599318246106" stroke-opacity="0.30012719316443776" transform="rotate(148.0 400 300)" points="629 592 747 380 621 174 258 444 624 37 318 558 392 455 303 152 "></polygon>
<ellipse stroke="#2b55f7" stroke-width="6" fill="#31a06b" opacity="0.28494925856331266" stroke-opacity="0.3151314096741323" transform="rotate(6.0 400 300)" cx="114" rx="53" cy="400" ry="252"></ellipse>
<rect stroke="#ed2b2c" stroke-width="7" fill="#f27630" opacity="0.963010760257871" stroke-opacity="0.3412115944884193" transform="rotate(20.0 400 300)" x="208" y="1" width="222" height="202"></rect>
<rect stroke="#f9d84b" stroke-width="4" fill="#f27630" opacity="0.09313226541115657" stroke-opacity="0.24662923272574316" transform="rotate(-30.0 400 300)" x="155" y="56" width="135" height="128"></rect>

  </g>
</svg>
