<svg xmlns="http://www.w3.org/2000/svg" xmlns:xlink="http://www.w3.org/1999/xlink" width="800" height="600" version="1.1" viewBox="0 0 800 600"><g fill="none" fill-rule="evenodd" stroke="none" stroke-width="1"><path fill="#f9d84b" stroke="#ed2b2c" stroke-opacity=".564" stroke-width="3" d="M 214,424 C 541,293 546,220 553,189 C 105,393 396,156 262,353 C 204,280 611,134 129,466 C 242,424 184,192 116,219 C 550,460 216,241 561,195 C 523,356 419,115 156,135 C 400,330 400,373 298,114 Z" opacity=".098" transform="rotate(158.0 400 300)"/><path fill="#ed2b2c" stroke="#f9d84b" stroke-opacity=".566" stroke-width="4" d="M 274,264 C 607,392 468,283 552,161 C 547,261 285,270 186,286 C 175,444 457,360 338,389 C 542,225 341,211 121,386 C 644,343 632,362 120,338 C 485,180 378,364 163,213 C 242,269 671,423 490,330 C 248,376 181,159 371,208 C 533,202 463,132 690,421 C 412,142 640,365 347,280 C 638,241 643,297 311,114 Z" opacity=".761" transform="rotate(-162.0 400 300)"/><path fill="#2b55f7" stroke="#f9d84b" stroke-opacity=".585" stroke-width="6" d="M 241,375 C 576,218 391,297 536,356 C 681,164 381,219 420,275 C 541,349 589,206 130,434 C 136,239 467,142 641,458 C 236,345 694,468 440,158 C 444,392 413,284 404,485 C 449,274 605,442 240,415 C 228,461 123,268 481,397 C 398,356 447,155 411,368 C 598,474 479,377 515,180 C 531,232 283,365 281,299 Z" opacity=".142" transform="rotate(16.0 400 300)"/><path fill="#ed2b2c" stroke="#f27630" stroke-opacity=".387" stroke-width="6" d="M 133,383 C 539,328 362,373 690,425 C 138,172 444,335 119,494 C 587,384 308,194 118,215 C 616,282 192,279 277,214 C 268,275 402,357 274,349 C 631,341 232,289 410,214 C 557,236 305,483 112,325 C 468,262 205,339 193,155 C 146,405 228,309 356,299 C 247,496 242,477 537,314 Z" opacity=".241" transform="rotate(-13.0 400 300)"/><path fill="#f27630" stroke="#2b55f7" stroke-opacity=".478" stroke-width="3" d="M 353,342 C 687,148 545,171 293,356 C 414,113 498,372 367,328 C 318,242 355,394 413,297 C 207,196 185,188 609,113 C 323,143 314,404 255,198 C 234,177 238,381 646,458 Z" opacity=".388" transform="rotate(-52.0 400 300)"/><path fill="#f9d84b" stroke="#ed2b2c" stroke-opacity=".585" stroke-width="7" d="M 451,107 C 427,272 363,232 496,366 C 539,410 240,482 587,392 C 299,336 294,329 283,363 C 412,295 504,494 471,123 C 364,213 314,145 698,358 C 688,178 575,498 647,322 C 533,230 178,295 580,400 C 427,341 596,115 518,148 C 427,487 695,252 222,487 C 694,148 611,283 221,439 Z" opacity=".071" transform="rotate(-151.0 400 300)"/><path fill="#31a06b" stroke="#31a06b" stroke-opacity=".988" stroke-width="5" d="M 443,166 C 646,123 216,205 697,323 C 696,254 355,148 698,341 C 265,466 243,337 374,127 C 678,212 230,323 286,380 Z" opacity=".722" transform="rotate(171.0 400 300)"/><path fill="#f9d84b" stroke="#f27630" stroke-opacity=".193" stroke-width="7" d="M 433,334 C 162,315 109,112 575,171 C 466,341 457,197 179,348 C 533,331 527,152 288,229 C 122,358 522,309 376,297 C 123,136 307,264 575,159 Z" opacity=".731" transform="rotate(17.0 400 300)"/></g></svg>