<svg xmlns="http://www.w3.org/2000/svg" xmlns:xlink="http://www.w3.org/1999/xlink" width="800" height="600" version="1.1" viewBox="0 0 800 600"><g fill="none" fill-rule="evenodd" stroke="none" stroke-width="1"><ellipse cx="238" cy="361" fill="#417435" stroke="#9D8648" stroke-opacity=".951" stroke-width="3" opacity=".361" rx="108" ry="166" transform="rotate(-124.0 400 300)"/><polygon fill="#7D0B9A" stroke="#CB3604" stroke-opacity=".106" stroke-width="5" points="691 533 667 430 727 328 411 538 717 587 49 482 693 170 739 315" opacity=".513" transform="rotate(-31.0 400 300)"/><path fill="#458282" stroke="#8D78D6" stroke-opacity=".83" stroke-width="5" d="M 561,415 C 597,458 184,488 478,221 C 125,413 550,277 221,414 C 391,360 108,232 331,311 C 417,442 169,189 160,203 C 540,337 248,469 254,209 C 337,375 401,373 141,259 C 549,143 225,170 591,332 C 170,204 688,166 170,186 C 292,417 286,455 186,436 C 459,361 227,417 275,359 Z" opacity=".33" transform="rotate(-119.0 400 300)"/><rect width="119" height="281" x="643" y="361" fill="#D14CD1" stroke="#5396CA" stroke-opacity=".089" stroke-width="1" opacity=".925" transform="rotate(133.0 400 300)"/><ellipse cx="284" cy="143" fill="#9BA30C" stroke="#D5509B" stroke-opacity=".001" stroke-width="2" opacity=".804" rx="315" ry="310" transform="rotate(-171.0 400 300)"/><polygon fill="#188873" stroke="#084B0B" stroke-opacity=".062" stroke-width="5" points="738 72 73 129 787 131 605 27 653 386" opacity=".048" transform="rotate(-170.0 400 300)"/><polygon fill="#775AC6" stroke="#66D9B8" stroke-opacity=".765" stroke-width="2" points="574 385 106 248 583 167 271 531 466 115" opacity=".819" transform="rotate(-106.0 400 300)"/><polygon fill="#6A09D7" stroke="#A7041C" stroke-opacity=".865" stroke-width="4" points="537 256 590 92 773 41 451 431 434 35" opacity=".855" transform="rotate(-168.0 400 300)"/><ellipse cx="488" cy="206" fill="#9364AB" stroke="#385873" stroke-opacity=".786" stroke-width="3" opacity=".316" rx="221" ry="154" transform="rotate(-154.0 400 300)"/><rect width="65" height="151" x="228" y="100" fill="#615517" stroke="#91BB94" stroke-opacity=".551" stroke-width="7" opacity=".215" transform="rotate(122.0 400 300)"/><rect width="281" height="263" x="302" y="150" fill="#ACB061" stroke="#14BA53" stroke-opacity=".736" stroke-width="3" opacity=".724" transform="rotate(106.0 400 300)"/></g></svg>