<?xml version="1.0" encoding="UTF-8"?>
<svg width="800px" height="600px" viewBox="0 0 800 600" version="1.1" xmlns="http://www.w3.org/2000/svg" xmlns:xlink="http://www.w3.org/1999/xlink">
  <defs></defs>
  <g stroke="none" stroke-width="1" fill="none" fill-rule="evenodd">
    
    <ellipse stroke="#9D8648" stroke-width="3" fill="#417435" opacity="0.3611330984651826" stroke-opacity="0.9510964634485631" transform="rotate(-124.0 400 300)" cx="238" rx="108" cy="361" ry="166"></ellipse>
<polygon stroke="#CB3604" stroke-width="5" fill="#7D0B9A" opacity="0.5133341799160669" stroke-opacity="0.1055975906870159" transform="rotate(-31.0 400 300)" points="691 533 667 430 727 328 411 538 717 587 49 482 693 170 739 315 "></polygon>
<path stroke="#8D78D6" stroke-width="5" fill="#458282" opacity="0.32963804266483127" stroke-opacity="0.8296637918290438" transform="rotate(-119.0 400 300)" d="M 561,415  C 597,458 184,488 478,221 C 125,413 550,277 221,414 C 391,360 108,232 331,311 C 417,442 169,189 160,203 C 540,337 248,469 254,209 C 337,375 401,373 141,259 C 549,143 225,170 591,332 C 170,204 688,166 170,186 C 292,417 286,455 186,436 C 459,361 227,417 275,359 Z"></path>
<rect stroke="#5396CA" stroke-width="1" fill="#D14CD1" opacity="0.92481916577254" stroke-opacity="0.08946728273030019" transform="rotate(133.0 400 300)" x="643" y="361" width="119" height="281"></rect>
<ellipse stroke="#D5509B" stroke-width="2" fill="#9BA30C" opacity="0.8039673085865664" stroke-opacity="0.0007715859372473042" transform="rotate(-171.0 400 300)" cx="284" rx="315" cy="143" ry="310"></ellipse>
<polygon stroke="#084B0B" stroke-width="5" fill="#188873" opacity="0.04837984440771515" stroke-opacity="0.06192527147617784" transform="rotate(-170.0 400 300)" points="738 72 73 129 787 131 605 27 653 386 "></polygon>
<polygon stroke="#66D9B8" stroke-width="2" fill="#775AC6" opacity="0.8192249791340902" stroke-opacity="0.7651611005152832" transform="rotate(-106.0 400 300)" points="574 385 106 248 583 167 271 531 466 115 "></polygon>
<polygon stroke="#A7041C" stroke-width="4" fill="#6A09D7" opacity="0.8549614102652165" stroke-opacity="0.8646434140826815" transform="rotate(-168.0 400 300)" points="537 256 590 92 773 41 451 431 434 35 "></polygon>
<ellipse stroke="#385873" stroke-width="3" fill="#9364AB" opacity="0.3161869589280186" stroke-opacity="0.7862897811583781" transform="rotate(-154.0 400 300)" cx="488" rx="221" cy="206" ry="154"></ellipse>
<rect stroke="#91BB94" stroke-width="7" fill="#615517" opacity="0.2148644394016226" stroke-opacity="0.5510286750128331" transform="rotate(122.0 400 300)" x="228" y="100" width="65" height="151"></rect>
<rect stroke="#14BA53" stroke-width="3" fill="#ACB061" opacity="0.7236052109324062" stroke-opacity="0.7360222869347433" transform="rotate(106.0 400 300)" x="302" y="150" width="281" height="263"></rect>

  </g>
</svg>
