<svg xmlns="http://www.w3.org/2000/svg" xmlns:xlink="http://www.w3.org/1999/xlink" width="800" height="600" version="1.1" viewBox="0 0 800 600"><g fill="none" fill-rule="evenodd" stroke="none" stroke-width="1"><rect width="310" height="223" x="768" y="548" fill="#2b55f7" stroke="#f9d84b" stroke-opacity=".737" stroke-width="4" opacity=".317" transform="rotate(-87.0 400 300)"/><ellipse cx="679" cy="39" fill="#31a06b" stroke="#ed2b2c" stroke-opacity=".506" stroke-width="3" opacity=".332" rx="117" ry="278" transform="rotate(-113.0 400 300)"/><ellipse cx="717" cy="259" fill="#f9d84b" stroke="#2b55f7" stroke-opacity=".396" stroke-width="4" opacity=".723" rx="247" ry="194" transform="rotate(33.0 400 300)"/><rect width="384" height="317" x="494" y="254" fill="#ed2b2c" stroke="#ed2b2c" stroke-opacity=".347" stroke-width="6" opacity=".1" transform="rotate(114.0 400 300)"/><rect width="195" height="237" x="196" y="239" fill="#f9d84b" stroke="#ed2b2c" stroke-opacity=".734" stroke-width="3" opacity=".601" transform="rotate(-12.0 400 300)"/><polygon fill="#f27630" stroke="#31a06b" stroke-opacity=".717" stroke-width="6" points="684 302 784 245 7 358 220 537 34 160 684 362" opacity=".712" transform="rotate(-54.0 400 300)"/><path fill="#31a06b" stroke="#f27630" stroke-opacity=".746" stroke-width="5" d="M 437,448 C 664,289 156,429 658,196 C 620,336 464,297 572,172 C 147,359 457,126 700,248 C 161,401 151,448 339,116 Z" opacity=".18" transform="rotate(88.0 400 300)"/><ellipse cx="77" cy="177" fill="#f27630" stroke="#ed2b2c" stroke-opacity=".458" stroke-width="4" opacity=".487" rx="64" ry="154" transform="rotate(-63.0 400 300)"/><ellipse cx="27" cy="174" fill="#f27630" stroke="#f27630" stroke-opacity=".784" stroke-width="4" opacity=".988" rx="81" ry="120" transform="rotate(178.0 400 300)"/><ellipse cx="348" cy="350" fill="#2b55f7" stroke="#2b55f7" stroke-opacity=".24" stroke-width="4" opacity=".309" rx="137" ry="205" transform="rotate(68.0 400 300)"/></g></svg>