<?xml version="1.0" encoding="UTF-8"?>
<svg width="800px" height="600px" viewBox="0 0 800 600" version="1.1" xmlns="http://www.w3.org/2000/svg" xmlns:xlink="http://www.w3.org/1999/xlink">
  <defs></defs>
  <g stroke="none" stroke-width="1" fill="none" fill-rule="evenodd">
    
    <rect stroke="#f9d84b" stroke-width="4" fill="#2b55f7" opacity="0.3168139708844579" stroke-opacity="0.737324620833714" transform="rotate(-87.0 400 300)" x="768" y="548" width="310" height="223"></rect>
<ellipse stroke="#ed2b2c" stroke-width="3" fill="#31a06b" opacity="0.33225422928421317" stroke-opacity="0.5057456952150957" transform="rotate(-113.0 400 300)" cx="679" rx="117" cy="39" ry="278"></ellipse>
<ellipse stroke="#2b55f7" stroke-width="4" fill="#f9d84b" opacity="0.7225619093468137" stroke-opacity="0.3962818006571804" transform="rotate(33.0 400 300)" cx="717" rx="247" cy="259" ry="194"></ellipse>
<rect stroke="#ed2b2c" stroke-width="6" fill="#ed2b2c" opacity="0.10018689977070337" stroke-opacity="0.34692029649363093" transform="rotate(114.0 400 300)" x="494" y="254" width="384" height="317"></rect>
<rect stroke="#ed2b2c" stroke-width="3" fill="#f9d84b" opacity="0.6009221581014077" stroke-opacity="0.7336383673207163" transform="rotate(-12.0 400 300)" x="196" y="239" width="195" height="237"></rect>
<polygon stroke="#31a06b" stroke-width="6" fill="#f27630" opacity="0.711683083053591" stroke-opacity="0.716500411919347" transform="rotate(-54.0 400 300)" points="684 302 784 245 7 358 220 537 34 160 684 362 "></polygon>
<path stroke="#f27630" stroke-width="5" fill="#31a06b" opacity="0.18006468482531096" stroke-opacity="0.746417463870672" transform="rotate(88.0 400 300)" d="M 437,448  C 664,289 156,429 658,196 C 620,336 464,297 572,172 C 147,359 457,126 700,248 C 161,401 151,448 339,116 Z"></path>
<ellipse stroke="#ed2b2c" stroke-width="4" fill="#f27630" opacity="0.4866813070906736" stroke-opacity="0.45784931204801294" transform="rotate(-63.0 400 300)" cx="77" rx="64" cy="177" ry="154"></ellipse>
<ellipse stroke="#f27630" stroke-width="4" fill="#f27630" opacity="0.9877884308606839" stroke-opacity="0.7840059722491753" transform="rotate(178.0 400 300)" cx="27" rx="81" cy="174" ry="120"></ellipse>
<ellipse stroke="#2b55f7" stroke-width="4" fill="#2b55f7" opacity="0.3088684387654942" stroke-opacity="0.2402334772782891" transform="rotate(68.0 400 300)" cx="348" rx="137" cy="350" ry="205"></ellipse>

  </g>
</svg>
