<?xml version="1.0" encoding="UTF-8"?>
<svg width="800px" height="600px" viewBox="0 0 800 600" version="1.1" xmlns="http://www.w3.org/2000/svg" xmlns:xlink="http://www.w3.org/1999/xlink">
  <defs></defs>
  <g stroke="none" stroke-width="1" fill="none" fill-rule="evenodd">
    
    <path stroke="#309D76" stroke-width="1" fill="#A6058C" opacity="0.9576533491486804" stroke-opacity="0.5393795601905067" transform="rotate(128.0 400 300)" d="M 298,483  C 455,433 666,400 498,473 C 437,406 195,295 323,297 C 668,244 641,341 486,436 C 272,290 560,393 484,435 C 429,410 678,184 380,198 C 526,287 424,379 532,425 Z"></path>
<path stroke="#D4CD4C" stroke-width="1" fill="#9238D3" opacity="0.09917614746033666" stroke-opacity="0.9750748035846727" transform="rotate(-99.0 400 300)" d="M 674,428  C 246,333 538,325 289,272 C 654,290 502,101 223,139 C 139,139 105,260 600,206 C 178,388 242,109 177,430 C 394,165 201,199 654,105 C 498,398 635,351 338,269 C 448,210 413,349 257,271 C 536,199 144,188 361,231 C 614,173 539,158 619,224 C 675,469 150,432 332,346 Z"></path>
<path stroke="#0874CA" stroke-width="4" fill="#290D40" opacity="0.2973993009440446" stroke-opacity="0.9028630789983557" transform="rotate(122.0 400 300)" d="M 394,432  C 187,248 493,471 507,372 C 627,137 266,169 694,333 C 380,142 654,197 618,267 C 601,466 589,110 379,222 C 665,346 243,402 679,119 C 361,295 552,383 503,291 C 471,369 657,304 386,359 C 635,219 161,176 296,335 C 648,361 219,360 663,134 C 491,408 306,138 147,233 Z"></path>
<path stroke="#B14818" stroke-width="5" fill="#41226B" opacity="0.9306189922216644" stroke-opacity="0.9365110487751802" transform="rotate(25.0 400 300)" d="M 125,139  C 469,356 581,121 690,193 C 269,118 470,483 108,117 C 275,481 603,333 695,430 C 599,327 489,336 323,428 C 484,450 291,158 439,382 C 453,259 483,432 191,276 Z"></path>
<path stroke="#4C2132" stroke-width="7" fill="#CB7716" opacity="0.8638443916404865" stroke-opacity="0.4703818950097665" transform="rotate(8.0 400 300)" d="M 238,200  C 661,117 138,316 674,476 C 620,344 294,208 124,400 C 512,387 104,366 500,465 C 147,350 475,377 115,206 C 541,133 439,400 370,390 Z"></path>
<path stroke="#44AA40" stroke-width="2" fill="#AB9CD3" opacity="0.0722202508442598" stroke-opacity="0.5653026610256476" transform="rotate(-115.0 400 300)" d="M 253,308  C 604,221 290,306 142,411 C 432,329 144,270 627,153 C 247,408 141,417 666,424 C 540,218 525,401 683,488 C 269,197 302,478 494,418 C 557,151 434,231 582,441 Z"></path>

  </g>
</svg>
