<?xml version="1.0" encoding="UTF-8"?>
<svg width="800px" height="600px" viewBox="0 0 800 600" version="1.1" xmlns="http://www.w3.org/2000/svg" xmlns:xlink="http://www.w3.org/1999/xlink">
  <defs></defs>
  <g stroke="none" stroke-width="1" fill="none" fill-rule="evenodd">
    
    <path stroke="#7CCB92" stroke-width="5" fill="#84A792" opacity="0.6751326952023881" stroke-opacity="0.46775363585825847" transform="rotate(-55.0 400 300)" d="M 278,316  C 211,127 669,384 555,215 C 199,297 520,480 643,275 C 478,252 516,229 623,170 C 520,298 454,307 157,296 C 424,379 540,486 611,477 C 521,451 332,286 668,410 Z"></path>
<path stroke="#A86D61" stroke-width="1" fill="#232CC7" opacity="0.01811166381607392" stroke-opacity="0.003381263955228554" transform="rotate(-176.0 400 300)" d="M 395,108  C 622,195 604,334 106,305 C 149,394 239,307 635,232 C 278,283 531,355 605,248 C 698,206 327,496 679,230 C 177,226 241,333 270,289 C 534,483 507,456 608,449 C 268,418 220,368 223,493 Z"></path>
<path stroke="#107BAA" stroke-width="2" fill="#0BB076" opacity="0.46295421320816904" stroke-opacity="0.2082901519704855" transform="rotate(-107.0 400 300)" d="M 390,374  C 618,335 671,358 537,253 C 446,166 658,357 468,200 C 626,295 245,213 215,301 C 240,430 183,107 366,169 Z"></path>
<path stroke="#995501" stroke-width="6" fill="#72ADC0" opacity="0.25219848158370856" stroke-opacity="0.03553128388164189" transform="rotate(-62.0 400 300)" d="M 348,435  C 289,283 124,438 479,370 C 678,425 328,343 653,284 C 595,287 277,143 426,191 C 607,155 410,241 384,282 C 268,387 601,123 485,489 C 675,239 679,175 439,269 C 436,159 578,280 306,209 Z"></path>
<path stroke="#9C724C" stroke-width="5" fill="#2BABCD" opacity="0.9560361681784758" stroke-opacity="0.0029255588464210834" transform="rotate(43.0 400 300)" d="M 672,164  C 192,243 462,272 351,369 C 697,305 584,228 240,396 C 315,470 368,489 414,382 C 238,104 428,156 396,283 C 148,190 575,247 157,363 C 579,481 676,468 195,434 Z"></path>
<path stroke="#C6B252" stroke-width="5" fill="#527D00" opacity="0.5852564547882118" stroke-opacity="0.5871716109389267" transform="rotate(4.0 400 300)" d="M 572,152  C 158,326 621,329 474,399 C 578,258 454,497 695,177 C 368,200 416,169 439,110 C 351,374 108,438 108,123 C 533,268 623,290 308,282 C 199,403 152,353 200,136 C 470,109 461,282 184,242 C 486,310 680,500 559,423 C 227,123 148,346 155,322 C 414,110 129,104 389,332 Z"></path>
<path stroke="#16C4C7" stroke-width="4" fill="#25D906" opacity="0.996830804018219" stroke-opacity="0.9951164429835533" transform="rotate(-144.0 400 300)" d="M 610,178  C 610,382 349,398 482,299 C 315,274 461,159 263,405 C 435,367 490,103 555,178 C 669,446 291,219 350,264 C 521,145 315,241 307,346 C 134,178 255,315 481,143 C 126,492 522,408 227,103 C 445,344 144,436 226,364 C 358,156 514,377 120,163 C 468,381 488,297 693,429 C 116,407 481,255 177,218 Z"></path>

  </g>
</svg>
