<svg xmlns="http://www.w3.org/2000/svg" xmlns:xlink="http://www.w3.org/1999/xlink" width="800" height="600" version="1.1" viewBox="0 0 800 600"><g fill="none" fill-rule="evenodd" stroke="none" stroke-width="1"><rect width="364" height="111" x="366" y="108" fill="#02eb6b" stroke="#fe9225" stroke-opacity=".538" stroke-width="2" opacity=".505" transform="rotate(-99.0 400 300)"/><polygon fill="#2cd3f3" stroke="#2cd3f3" stroke-opacity=".664" stroke-width="5" points="413 192 396 511 643 364 363 539 593 256 173 579 142 230" opacity=".612" transform="rotate(-103.0 400 300)"/><polygon fill="#0fa6d8" stroke="#fe9225" stroke-opacity=".344" stroke-width="2" points="11 177 795 277 109 315 147 197 587 585 748 483 783 448" opacity=".436" transform="rotate(133.0 400 300)"/><ellipse cx="364" cy="59" fill="#fe9225" stroke="#f559a0" stroke-opacity=".566" stroke-width="7" opacity=".153" rx="248" ry="97" transform="rotate(55.0 400 300)"/><path fill="#2cd3f3" stroke="#fe9225" stroke-opacity=".999" stroke-width="3" d="M 194,396 C 323,109 113,252 216,327 C 516,243 556,481 696,358 C 159,123 665,440 451,284 C 334,185 471,487 477,454 C 160,453 300,345 440,307 C 223,323 496,424 615,272 Z" opacity=".434" transform="rotate(-177.0 400 300)"/><path fill="#f559a0" stroke="#0fa6d8" stroke-opacity=".967" stroke-width="5" d="M 584,488 C 474,176 389,378 218,457 C 412,332 442,321 670,391 C 509,113 390,381 669,284 C 529,261 141,493 397,110 C 152,236 179,411 592,395 C 563,378 133,316 282,229 Z" opacity=".211" transform="rotate(-27.0 400 300)"/></g></svg>