<?xml version="1.0" encoding="UTF-8"?>
<svg width="800px" height="600px" viewBox="0 0 800 600" version="1.1" xmlns="http://www.w3.org/2000/svg" xmlns:xlink="http://www.w3.org/1999/xlink">
  <defs></defs>
  <g stroke="none" stroke-width="1" fill="none" fill-rule="evenodd">
    
    <rect stroke="#f559a0" stroke-width="1" fill="#f559a0" opacity="0.532571915297147" stroke-opacity="0.06283711838316967" transform="rotate(76.0 400 300)" x="382" y="73" width="140" height="285"></rect>
<path stroke="#02eb6b" stroke-width="4" fill="#f559a0" opacity="0.09290554448064979" stroke-opacity="0.983931681561142" transform="rotate(-141.0 400 300)" d="M 654,230  C 511,400 192,442 531,152 C 515,437 613,140 394,440 C 274,422 500,184 179,160 C 627,215 558,397 202,327 C 317,490 173,401 311,171 C 639,168 608,307 689,456 C 345,431 206,435 421,122 Z"></path>
<path stroke="#f559a0" stroke-width="4" fill="#fe9225" opacity="0.5802311879076766" stroke-opacity="0.29397783495238544" transform="rotate(-107.0 400 300)" d="M 235,268  C 499,125 191,259 288,110 C 153,375 151,117 303,111 C 231,444 544,395 234,402 C 413,366 667,372 566,244 C 396,221 440,488 132,495 C 349,119 398,465 473,449 C 444,397 632,471 508,186 C 394,456 650,315 531,250 Z"></path>
<polygon stroke="#fe9225" stroke-width="5" fill="#0fa6d8" opacity="0.2821519982805089" stroke-opacity="0.6245789402854707" transform="rotate(104.0 400 300)" points="376 190 233 416 257 191 571 437 536 263 671 387 48 137 346 541 "></polygon>
<rect stroke="#fe9225" stroke-width="3" fill="#f559a0" opacity="0.7387790232949033" stroke-opacity="0.9931839420695185" transform="rotate(-175.0 400 300)" x="356" y="397" width="100" height="286"></rect>
<ellipse stroke="#02eb6b" stroke-width="4" fill="#0fa6d8" opacity="0.5839850642547201" stroke-opacity="0.394348524778245" transform="rotate(-103.0 400 300)" cx="651" rx="407" cy="225" ry="116"></ellipse>
<rect stroke="#f559a0" stroke-width="6" fill="#2cd3f3" opacity="0.8747387449082191" stroke-opacity="0.0011569063144256785" transform="rotate(74.0 400 300)" x="619" y="29" width="131" height="369"></rect>
<ellipse stroke="#fe9225" stroke-width="7" fill="#2cd3f3" opacity="0.3968605578031373" stroke-opacity="0.5329047705027533" transform="rotate(-84.0 400 300)" cx="1" rx="289" cy="177" ry="288"></ellipse>

  </g>
</svg>
