<svg xmlns="http://www.w3.org/2000/svg" xmlns:xlink="http://www.w3.org/1999/xlink" width="800" height="600" version="1.1" viewBox="0 0 800 600"><g fill="none" fill-rule="evenodd" stroke="none" stroke-width="1"><rect width="140" height="285" x="382" y="73" fill="#f559a0" stroke="#f559a0" stroke-opacity=".063" stroke-width="1" opacity=".533" transform="rotate(76.0 400 300)"/><path fill="#f559a0" stroke="#02eb6b" stroke-opacity=".984" stroke-width="4" d="M 654,230 C 511,400 192,442 531,152 C 515,437 613,140 394,440 C 274,422 500,184 179,160 C 627,215 558,397 202,327 C 317,490 173,401 311,171 C 639,168 608,307 689,456 C 345,431 206,435 421,122 Z" opacity=".093" transform="rotate(-141.0 400 300)"/><path fill="#fe9225" stroke="#f559a0" stroke-opacity=".294" stroke-width="4" d="M 235,268 C 499,125 191,259 288,110 C 153,375 151,117 303,111 C 231,444 544,395 234,402 C 413,366 667,372 566,244 C 396,221 440,488 132,495 C 349,119 398,465 473,449 C 444,397 632,471 508,186 C 394,456 650,315 531,250 Z" opacity=".58" transform="rotate(-107.0 400 300)"/><polygon fill="#0fa6d8" stroke="#fe9225" stroke-opacity=".625" stroke-width="5" points="376 190 233 416 257 191 571 437 536 263 671 387 48 137 346 541" opacity=".282" transform="rotate(104.0 400 300)"/><rect width="100" height="286" x="356" y="397" fill="#f559a0" stroke="#fe9225" stroke-opacity=".993" stroke-width="3" opacity=".739" transform="rotate(-175.0 400 300)"/><ellipse cx="651" cy="225" fill="#0fa6d8" stroke="#02eb6b" stroke-opacity=".394" stroke-width="4" opacity=".584" rx="407" ry="116" transform="rotate(-103.0 400 300)"/><rect width="131" height="369" x="619" y="29" fill="#2cd3f3" stroke="#f559a0" stroke-opacity=".001" stroke-width="6" opacity=".875" transform="rotate(74.0 400 300)"/><ellipse cx="1" cy="177" fill="#2cd3f3" stroke="#fe9225" stroke-opacity=".533" stroke-width="7" opacity=".397" rx="289" ry="288" transform="rotate(-84.0 400 300)"/></g></svg>