<?xml version="1.0" encoding="UTF-8"?>
<svg width="800px" height="600px" viewBox="0 0 800 600" version="1.1" xmlns="http://www.w3.org/2000/svg" xmlns:xlink="http://www.w3.org/1999/xlink">
  <defs></defs>
  <g stroke="none" stroke-width="1" fill="none" fill-rule="evenodd">
    
    <path stroke="#A2462D" stroke-width="6" fill="#1D5DDA" opacity="0.46425009230899783" stroke-opacity="0.9106950504281902" transform="rotate(-70.0 400 300)" d="M 487,396  C 677,111 584,234 508,320 C 687,194 536,369 381,482 C 493,196 374,293 302,342 C 445,120 601,262 156,316 Z"></path>
<path stroke="#36BBC6" stroke-width="6" fill="#AC981D" opacity="0.9226920538960507" stroke-opacity="0.8036674973316682" transform="rotate(70.0 400 300)" d="M 185,174  C 626,122 514,222 646,491 C 573,313 437,198 641,338 C 293,368 274,310 695,457 C 657,195 196,279 265,151 C 110,331 333,429 104,193 Z"></path>
<path stroke="#400A47" stroke-width="6" fill="#A4046A" opacity="0.6250465373564862" stroke-opacity="0.6871128026530323" transform="rotate(59.0 400 300)" d="M 563,252  C 181,200 377,169 334,336 C 276,151 264,307 207,213 C 185,270 679,350 384,263 C 164,423 220,382 315,416 C 537,292 476,111 214,332 C 502,293 576,353 274,134 C 328,276 643,139 294,469 C 638,442 502,303 338,116 Z"></path>
<path stroke="#B6C23D" stroke-width="6" fill="#497A26" opacity="0.8908560279611516" stroke-opacity="0.6048422806609357" transform="rotate(-38.0 400 300)" d="M 364,149  C 679,492 603,106 498,225 C 549,186 448,305 629,453 C 624,344 407,337 530,131 C 526,111 353,137 163,269 C 612,418 507,325 364,412 C 568,157 165,370 676,486 Z"></path>
<path stroke="#55BB41" stroke-width="7" fill="#B4831D" opacity="0.9392411043613829" stroke-opacity="0.4498266382575319" transform="rotate(-134.0 400 300)" d="M 358,144  C 212,171 578,224 385,164 C 323,382 282,181 476,403 C 123,141 395,298 630,283 C 694,130 309,455 262,429 C 189,175 304,303 553,468 C 439,328 368,402 682,136 C 613,397 673,464 138,139 C 675,327 197,376 410,193 C 395,284 496,301 409,441 Z"></path>
<path stroke="#1D3022" stroke-width="1" fill="#12012A" opacity="0.6470499318402199" stroke-opacity="0.8740916014758429" transform="rotate(-77.0 400 300)" d="M 700,336  C 672,312 193,267 290,401 C 282,125 647,448 533,494 C 480,234 602,287 679,196 C 116,202 515,342 251,116 C 351,209 348,190 286,152 C 265,106 395,162 406,465 C 391,208 472,314 650,186 C 522,178 321,295 627,146 C 487,193 440,322 676,119 Z"></path>
<path stroke="#1D0DC3" stroke-width="6" fill="#AD46D8" opacity="0.8862941665533491" stroke-opacity="0.13736233400353023" transform="rotate(0.0 400 300)" d="M 465,350  C 142,308 435,299 617,435 C 577,260 487,297 352,225 C 477,468 304,271 305,449 C 139,198 575,436 562,306 Z"></path>
<path stroke="#AC4605" stroke-width="4" fill="#C099A8" opacity="0.2123631549649443" stroke-opacity="0.07425271833173366" transform="rotate(-173.0 400 300)" d="M 262,218  C 420,369 275,343 575,424 C 194,115 526,344 178,179 C 482,319 629,376 318,215 C 232,220 697,309 274,446 C 421,142 597,349 679,299 C 211,460 530,477 491,148 C 116,212 378,377 139,493 C 209,402 422,498 341,372 C 221,301 288,120 599,370 C 478,179 221,181 301,180 Z"></path>
<path stroke="#9D91DB" stroke-width="2" fill="#95D317" opacity="0.7264671572388772" stroke-opacity="0.9644546738861164" transform="rotate(-128.0 400 300)" d="M 251,472  C 370,364 333,475 386,173 C 510,447 651,143 127,442 C 351,183 517,207 244,115 C 340,419 582,304 654,424 C 627,208 351,410 607,223 C 411,153 409,494 267,433 Z"></path>
<path stroke="#CADBC1" stroke-width="7" fill="#049535" opacity="0.15229705397244886" stroke-opacity="0.15369577496410383" transform="rotate(-82.0 400 300)" d="M 237,334  C 304,380 677,307 295,133 C 433,329 189,334 698,313 C 288,275 207,129 436,494 C 399,369 232,345 222,381 C 313,312 279,246 418,173 C 588,489 656,452 518,248 C 436,399 466,214 149,451 Z"></path>
<path stroke="#788CA7" stroke-width="3" fill="#C40B52" opacity="0.43732193535194325" stroke-opacity="0.2772074928439265" transform="rotate(-31.0 400 300)" d="M 649,444  C 638,146 474,459 189,111 C 388,236 418,304 233,466 C 524,430 395,360 143,371 C 178,263 453,377 372,230 C 371,475 600,277 442,371 C 151,486 214,212 379,199 C 496,117 515,178 246,192 Z"></path>

  </g>
</svg>
