<?xml version="1.0" encoding="UTF-8"?>
<svg width="800px" height="600px" viewBox="0 0 800 600" version="1.1" xmlns="http://www.w3.org/2000/svg" xmlns:xlink="http://www.w3.org/1999/xlink">
  <defs></defs>
  <g stroke="none" stroke-width="1" fill="none" fill-rule="evenodd">
    
    <path stroke="#2cd3f3" stroke-width="6" fill="#fe9225" opacity="0.62544438820914" stroke-opacity="0.5469348323197355" transform="rotate(57.0 400 300)" d="M 273,142  C 289,374 125,361 302,105 C 182,149 128,283 535,275 C 107,499 281,253 415,436 C 118,356 419,430 605,385 C 502,435 435,207 621,241 C 350,203 375,430 529,204 C 627,216 148,265 253,416 C 624,459 117,391 680,133 C 322,132 648,253 359,237 Z"></path>
<path stroke="#fe9225" stroke-width="3" fill="#fe9225" opacity="0.7242109781507137" stroke-opacity="0.7445004472584433" transform="rotate(146.0 400 300)" d="M 577,332  C 296,462 628,396 371,234 C 466,398 539,487 364,233 C 204,382 622,488 645,259 C 151,311 563,132 426,389 C 282,230 685,193 486,111 Z"></path>
<path stroke="#f559a0" stroke-width="7" fill="#f559a0" opacity="0.8303445444992679" stroke-opacity="0.9667870151136361" transform="rotate(-22.0 400 300)" d="M 651,448  C 486,272 381,456 357,198 C 653,346 537,484 153,275 C 236,148 276,410 345,429 C 282,461 698,498 242,209 C 277,333 359,166 644,139 C 259,495 645,233 342,395 C 214,213 297,479 449,417 Z"></path>
<path stroke="#fe9225" stroke-width="3" fill="#02eb6b" opacity="0.9000157695746993" stroke-opacity="0.5957859928024027" transform="rotate(-37.0 400 300)" d="M 620,202  C 364,463 521,157 204,144 C 221,218 212,119 623,121 C 303,287 163,332 325,153 C 272,337 396,262 400,470 C 663,380 138,109 466,160 C 648,119 600,285 439,343 C 559,429 697,432 531,426 C 213,472 124,202 425,325 C 168,354 115,152 528,270 Z"></path>
<path stroke="#0fa6d8" stroke-width="7" fill="#0fa6d8" opacity="0.5671200377102956" stroke-opacity="0.9638917455361691" transform="rotate(77.0 400 300)" d="M 688,173  C 360,428 613,144 221,154 C 133,399 411,219 666,234 C 665,195 441,344 557,500 C 426,309 388,150 426,327 C 380,223 555,328 163,480 C 633,350 401,387 111,248 Z"></path>
<path stroke="#0fa6d8" stroke-width="6" fill="#0fa6d8" opacity="0.2972867448859" stroke-opacity="0.023464545227628055" transform="rotate(97.0 400 300)" d="M 378,269  C 319,136 287,223 133,423 C 596,179 441,140 307,371 C 173,485 271,148 112,225 C 641,301 353,388 157,255 C 440,113 511,231 475,303 C 446,407 122,220 102,468 C 213,171 247,452 232,132 Z"></path>
<path stroke="#02eb6b" stroke-width="3" fill="#fe9225" opacity="0.7963239602431728" stroke-opacity="0.18105475653617178" transform="rotate(97.0 400 300)" d="M 119,336  C 588,265 639,486 163,249 C 297,335 209,131 153,233 C 367,272 277,227 675,336 C 648,284 505,410 212,451 C 432,229 156,105 409,294 C 569,409 382,198 149,334 C 345,197 207,250 171,397 C 150,315 411,423 144,188 C 311,477 305,475 410,189 C 107,315 497,104 367,293 C 281,321 152,306 408,472 Z"></path>
<path stroke="#02eb6b" stroke-width="1" fill="#0fa6d8" opacity="0.15075360431973472" stroke-opacity="0.1745157749083063" transform="rotate(-91.0 400 300)" d="M 426,307  C 142,125 151,359 585,168 C 424,419 570,488 423,330 C 164,174 152,340 362,113 C 544,361 595,285 667,210 C 141,344 659,280 534,212 C 129,436 697,159 636,302 C 356,493 617,359 475,291 C 399,483 269,499 683,107 Z"></path>
<path stroke="#fe9225" stroke-width="7" fill="#2cd3f3" opacity="0.636155471116284" stroke-opacity="0.5331979464067581" transform="rotate(5.0 400 300)" d="M 294,267  C 377,433 690,143 648,343 C 424,122 471,418 375,136 C 231,495 361,192 133,428 C 416,114 164,474 507,198 C 494,369 124,247 539,171 Z"></path>
<path stroke="#02eb6b" stroke-width="7" fill="#f559a0" opacity="0.15781552539438845" stroke-opacity="0.6834441343997641" transform="rotate(-60.0 400 300)" d="M 144,213  C 356,463 296,390 426,468 C 144,147 631,219 376,208 C 212,451 438,421 315,292 C 257,113 115,172 611,211 C 318,155 595,244 641,490 C 685,220 237,417 494,479 C 635,360 108,244 550,457 Z"></path>
<path stroke="#02eb6b" stroke-width="3" fill="#fe9225" opacity="0.616416654899624" stroke-opacity="0.012097853027727276" transform="rotate(-25.0 400 300)" d="M 309,211  C 509,127 371,461 530,160 C 440,397 236,261 354,484 C 181,245 650,356 234,246 C 124,274 310,163 210,375 C 543,194 659,500 233,198 C 559,417 638,248 314,426 C 612,369 564,119 564,490 C 652,392 698,188 447,259 C 395,337 259,202 408,142 Z"></path>

  </g>
</svg>
