<?xml version="1.0" encoding="UTF-8"?>
<svg width="800px" height="600px" viewBox="0 0 800 600" version="1.1" xmlns="http://www.w3.org/2000/svg" xmlns:xlink="http://www.w3.org/1999/xlink">
  <defs></defs>
  <g stroke="none" stroke-width="1" fill="none" fill-rule="evenodd">
    
    <rect stroke="#31a06b" stroke-width="6" fill="#f27630" opacity="0.3328465218026007" stroke-opacity="0.397921013209213" transform="rotate(-22.0 400 300)" x="373" y="341" width="194" height="278"></rect>
<polygon stroke="#f27630" stroke-width="7" fill="#31a06b" opacity="0.8375927186474753" stroke-opacity="0.12158943995009032" transform="rotate(-58.0 400 300)" points="561 495 605 161 633 262 222 322 771 312 468 407 229 514 "></polygon>
<rect stroke="#ed2b2c" stroke-width="1" fill="#31a06b" opacity="0.04299700659798011" stroke-opacity="0.24471697887340693" transform="rotate(45.0 400 300)" x="800" y="557" width="162" height="85"></rect>
<path stroke="#f9d84b" stroke-width="1" fill="#ed2b2c" opacity="0.539892779147769" stroke-opacity="0.888029742774098" transform="rotate(-130.0 400 300)" d="M 466,291  C 243,117 557,470 282,388 C 408,135 287,159 578,444 C 564,399 321,182 379,335 C 191,268 575,398 295,153 C 510,387 552,460 505,282 C 217,139 503,228 123,149 C 395,245 326,239 215,123 C 155,277 537,264 215,451 C 427,456 432,465 195,274 Z"></path>
<path stroke="#f27630" stroke-width="6" fill="#f27630" opacity="0.6429073507087267" stroke-opacity="0.9061941517247624" transform="rotate(44.0 400 300)" d="M 399,254  C 313,149 339,466 237,248 C 558,426 672,358 609,104 C 207,203 528,311 403,461 C 563,413 331,467 392,403 C 448,163 488,309 325,430 C 400,475 389,339 114,385 C 283,381 650,338 103,213 C 553,350 634,317 637,262 Z"></path>
<polygon stroke="#ed2b2c" stroke-width="1" fill="#f9d84b" opacity="0.5817087750716023" stroke-opacity="0.20587772203228824" transform="rotate(-138.0 400 300)" points="84 398 512 80 731 217 670 459 773 90 124 145 621 86 "></polygon>
<ellipse stroke="#f27630" stroke-width="3" fill="#ed2b2c" opacity="0.8499140602265193" stroke-opacity="0.3012435841172068" transform="rotate(-98.0 400 300)" cx="453" rx="133" cy="54" ry="265"></ellipse>
<rect stroke="#f27630" stroke-width="1" fill="#f27630" opacity="0.43784588628258814" stroke-opacity="0.1707334273650552" transform="rotate(21.0 400 300)" x="67" y="131" width="154" height="248"></rect>
<path stroke="#2b55f7" stroke-width="2" fill="#f27630" opacity="0.30306233000728267" stroke-opacity="0.2429268736906239" transform="rotate(24.0 400 300)" d="M 248,136  C 244,251 525,136 202,234 C 300,282 254,249 365,364 C 503,220 325,429 413,233 C 527,440 476,400 247,277 C 195,297 596,498 520,345 C 618,272 280,161 504,173 C 547,275 303,351 105,131 Z"></path>
<ellipse stroke="#31a06b" stroke-width="4" fill="#31a06b" opacity="0.02463026427292969" stroke-opacity="0.23679062870509665" transform="rotate(-94.0 400 300)" cx="43" rx="186" cy="366" ry="87"></ellipse>

  </g>
</svg>
