<svg xmlns="http://www.w3.org/2000/svg" xmlns:xlink="http://www.w3.org/1999/xlink" width="800" height="600" version="1.1" viewBox="0 0 800 600"><g fill="none" fill-rule="evenodd" stroke="none" stroke-width="1"><rect width="194" height="278" x="373" y="341" fill="#f27630" stroke="#31a06b" stroke-opacity=".398" stroke-width="6" opacity=".333" transform="rotate(-22.0 400 300)"/><polygon fill="#31a06b" stroke="#f27630" stroke-opacity=".122" stroke-width="7" points="561 495 605 161 633 262 222 322 771 312 468 407 229 514" opacity=".838" transform="rotate(-58.0 400 300)"/><rect width="162" height="85" x="800" y="557" fill="#31a06b" stroke="#ed2b2c" stroke-opacity=".245" stroke-width="1" opacity=".043" transform="rotate(45.0 400 300)"/><path fill="#ed2b2c" stroke="#f9d84b" stroke-opacity=".888" stroke-width="1" d="M 466,291 C 243,117 557,470 282,388 C 408,135 287,159 578,444 C 564,399 321,182 379,335 C 191,268 575,398 295,153 C 510,387 552,460 505,282 C 217,139 503,228 123,149 C 395,245 326,239 215,123 C 155,277 537,264 215,451 C 427,456 432,465 195,274 Z" opacity=".54" transform="rotate(-130.0 400 300)"/><path fill="#f27630" stroke="#f27630" stroke-opacity=".906" stroke-width="6" d="M 399,254 C 313,149 339,466 237,248 C 558,426 672,358 609,104 C 207,203 528,311 403,461 C 563,413 331,467 392,403 C 448,163 488,309 325,430 C 400,475 389,339 114,385 C 283,381 650,338 103,213 C 553,350 634,317 637,262 Z" opacity=".643" transform="rotate(44.0 400 300)"/><polygon fill="#f9d84b" stroke="#ed2b2c" stroke-opacity=".206" stroke-width="1" points="84 398 512 80 731 217 670 459 773 90 124 145 621 86" opacity=".582" transform="rotate(-138.0 400 300)"/><ellipse cx="453" cy="54" fill="#ed2b2c" stroke="#f27630" stroke-opacity=".301" stroke-width="3" opacity=".85" rx="133" ry="265" transform="rotate(-98.0 400 300)"/><rect width="154" height="248" x="67" y="131" fill="#f27630" stroke="#f27630" stroke-opacity=".171" stroke-width="1" opacity=".438" transform="rotate(21.0 400 300)"/><path fill="#f27630" stroke="#2b55f7" stroke-opacity=".243" stroke-width="2" d="M 248,136 C 244,251 525,136 202,234 C 300,282 254,249 365,364 C 503,220 325,429 413,233 C 527,440 476,400 247,277 C 195,297 596,498 520,345 C 618,272 280,161 504,173 C 547,275 303,351 105,131 Z" opacity=".303" transform="rotate(24.0 400 300)"/><ellipse cx="43" cy="366" fill="#31a06b" stroke="#31a06b" stroke-opacity=".237" stroke-width="4" opacity=".025" rx="186" ry="87" transform="rotate(-94.0 400 300)"/></g></svg>