<svg xmlns="http://www.w3.org/2000/svg" xmlns:xlink="http://www.w3.org/1999/xlink" width="800" height="600" version="1.1" viewBox="0 0 800 600"><g fill="none" fill-rule="evenodd" stroke="none" stroke-width="1"><path fill="#f27630" stroke="#f27630" stroke-opacity=".126" stroke-width="1" d="M 226,430 C 139,237 577,328 697,130 C 624,417 433,115 351,398 C 408,273 284,235 322,395 C 486,280 310,361 489,255 C 522,323 180,423 113,408 C 553,165 670,422 598,183 C 104,424 360,434 450,411 Z" opacity=".773" transform="rotate(59.0 400 300)"/><path fill="#f9d84b" stroke="#f27630" stroke-opacity=".07" stroke-width="6" d="M 431,455 C 290,263 409,133 610,282 C 694,307 656,363 634,318 C 545,399 294,274 686,294 C 682,124 152,211 603,340 C 671,415 578,338 418,125 C 345,148 175,375 258,303 C 243,168 672,120 555,434 C 363,360 115,344 270,484 C 228,258 420,383 390,170 Z" opacity=".622" transform="rotate(-103.0 400 300)"/><polygon fill="#f27630" stroke="#2b55f7" stroke-opacity=".66" stroke-width="3" points="117 38 174 62 749 253 420 330 770 284 662 148" opacity=".162" transform="rotate(170.0 400 300)"/><polygon fill="#f9d84b" stroke="#31a06b" stroke-opacity=".065" stroke-width="2" points="253 435 36 264 355 82 409 465 719 233 77 69 60 449 536 58" opacity=".9" transform="rotate(143.0 400 300)"/><path fill="#2b55f7" stroke="#ed2b2c" stroke-opacity=".032" stroke-width="3" d="M 370,112 C 322,369 570,400 474,213 C 679,288 112,422 202,314 C 355,337 520,217 176,171 C 155,497 627,264 427,219 C 216,284 551,418 135,214 C 441,146 114,191 400,396 C 159,250 113,191 129,343 C 484,234 244,334 652,260 C 466,191 689,145 129,212 Z" opacity=".074" transform="rotate(-84.0 400 300)"/><rect width="195" height="358" x="516" y="446" fill="#2b55f7" stroke="#f27630" stroke-opacity=".917" stroke-width="1" opacity=".305" transform="rotate(80.0 400 300)"/><ellipse cx="319" cy="478" fill="#f9d84b" stroke="#f27630" stroke-opacity=".72" stroke-width="4" opacity=".646" rx="42" ry="113" transform="rotate(-91.0 400 300)"/><path fill="#f9d84b" stroke="#f27630" stroke-opacity=".623" stroke-width="6" d="M 631,491 C 468,337 451,347 520,340 C 243,176 633,398 326,306 C 657,257 394,286 215,499 C 612,320 123,339 101,369 C 118,185 216,288 436,117 C 256,449 356,377 465,354 C 290,312 193,408 360,415 C 589,324 620,112 312,341 C 690,272 423,278 360,484 C 273,276 343,430 251,159 Z" opacity=".65" transform="rotate(83.0 400 300)"/></g></svg>