<?xml version="1.0" encoding="UTF-8"?>
<svg width="800px" height="600px" viewBox="0 0 800 600" version="1.1" xmlns="http://www.w3.org/2000/svg" xmlns:xlink="http://www.w3.org/1999/xlink">
  <defs></defs>
  <g stroke="none" stroke-width="1" fill="none" fill-rule="evenodd">
    
    <path stroke="#f27630" stroke-width="1" fill="#f27630" opacity="0.7729107498806866" stroke-opacity="0.12587457822036816" transform="rotate(59.0 400 300)" d="M 226,430  C 139,237 577,328 697,130 C 624,417 433,115 351,398 C 408,273 284,235 322,395 C 486,280 310,361 489,255 C 522,323 180,423 113,408 C 553,165 670,422 598,183 C 104,424 360,434 450,411 Z"></path>
<path stroke="#f27630" stroke-width="6" fill="#f9d84b" opacity="0.6222346174569526" stroke-opacity="0.06966541012959594" transform="rotate(-103.0 400 300)" d="M 431,455  C 290,263 409,133 610,282 C 694,307 656,363 634,318 C 545,399 294,274 686,294 C 682,124 152,211 603,340 C 671,415 578,338 418,125 C 345,148 175,375 258,303 C 243,168 672,120 555,434 C 363,360 115,344 270,484 C 228,258 420,383 390,170 Z"></path>
<polygon stroke="#2b55f7" stroke-width="3" fill="#f27630" opacity="0.16156082394984267" stroke-opacity="0.6598139748516761" transform="rotate(170.0 400 300)" points="117 38 174 62 749 253 420 330 770 284 662 148 "></polygon>
<polygon stroke="#31a06b" stroke-width="2" fill="#f9d84b" opacity="0.900451665073181" stroke-opacity="0.06454160316400583" transform="rotate(143.0 400 300)" points="253 435 36 264 355 82 409 465 719 233 77 69 60 449 536 58 "></polygon>
<path stroke="#ed2b2c" stroke-width="3" fill="#2b55f7" opacity="0.07383001685525796" stroke-opacity="0.032292069380112566" transform="rotate(-84.0 400 300)" d="M 370,112  C 322,369 570,400 474,213 C 679,288 112,422 202,314 C 355,337 520,217 176,171 C 155,497 627,264 427,219 C 216,284 551,418 135,214 C 441,146 114,191 400,396 C 159,250 113,191 129,343 C 484,234 244,334 652,260 C 466,191 689,145 129,212 Z"></path>
<rect stroke="#f27630" stroke-width="1" fill="#2b55f7" opacity="0.30470525460187636" stroke-opacity="0.9172094958516419" transform="rotate(80.0 400 300)" x="516" y="446" width="195" height="358"></rect>
<ellipse stroke="#f27630" stroke-width="4" fill="#f9d84b" opacity="0.6455627469830143" stroke-opacity="0.7197927431224773" transform="rotate(-91.0 400 300)" cx="319" rx="42" cy="478" ry="113"></ellipse>
<path stroke="#f27630" stroke-width="6" fill="#f9d84b" opacity="0.6495314232221593" stroke-opacity="0.623033031179152" transform="rotate(83.0 400 300)" d="M 631,491  C 468,337 451,347 520,340 C 243,176 633,398 326,306 C 657,257 394,286 215,499 C 612,320 123,339 101,369 C 118,185 216,288 436,117 C 256,449 356,377 465,354 C 290,312 193,408 360,415 C 589,324 620,112 312,341 C 690,272 423,278 360,484 C 273,276 343,430 251,159 Z"></path>

  </g>
</svg>
