<?xml version="1.0" encoding="UTF-8"?>
<svg width="800px" height="600px" viewBox="0 0 800 600" version="1.1" xmlns="http://www.w3.org/2000/svg" xmlns:xlink="http://www.w3.org/1999/xlink">
  <defs></defs>
  <g stroke="none" stroke-width="1" fill="none" fill-rule="evenodd">
    
    <path stroke="#2cd3f3" stroke-width="4" fill="#2cd3f3" opacity="0.7778056933921841" stroke-opacity="0.514868207111727" transform="rotate(131.0 400 300)" d="M 482,108  C 118,282 699,375 683,234 C 514,301 344,402 142,332 C 621,358 140,282 565,137 C 639,269 461,395 324,113 C 199,377 611,289 230,432 C 105,279 557,435 567,489 C 595,444 160,122 495,276 C 658,288 631,440 563,306 C 352,411 682,139 697,222 Z"></path>
<path stroke="#f559a0" stroke-width="7" fill="#0fa6d8" opacity="0.7597793916255822" stroke-opacity="0.3066513704745401" transform="rotate(-119.0 400 300)" d="M 352,267  C 310,343 627,295 170,251 C 295,451 632,120 289,419 C 315,200 588,362 689,359 C 449,409 407,430 180,243 C 406,232 346,321 143,125 Z"></path>
<path stroke="#f559a0" stroke-width="4" fill="#0fa6d8" opacity="0.7171353486527542" stroke-opacity="0.07994644314566865" transform="rotate(146.0 400 300)" d="M 218,397  C 285,278 168,101 306,202 C 309,459 192,138 183,472 C 238,309 168,137 544,176 C 596,386 633,281 580,175 C 298,102 420,219 508,189 C 616,366 352,128 687,111 Z"></path>
<path stroke="#2cd3f3" stroke-width="3" fill="#fe9225" opacity="0.14643431478749946" stroke-opacity="0.43002786019122635" transform="rotate(164.0 400 300)" d="M 490,153  C 407,147 415,357 169,307 C 685,377 183,404 106,263 C 636,234 527,405 262,275 C 126,311 273,198 369,229 C 297,418 688,233 406,435 C 317,130 289,499 109,318 C 386,141 158,449 145,354 C 389,444 519,175 506,173 C 597,131 222,144 101,127 C 288,323 313,349 571,336 Z"></path>
<path stroke="#02eb6b" stroke-width="1" fill="#0fa6d8" opacity="0.7522038019323023" stroke-opacity="0.1766296776202745" transform="rotate(-38.0 400 300)" d="M 516,372  C 684,195 151,460 618,375 C 144,447 616,280 340,156 C 219,408 686,389 295,326 C 381,447 109,119 669,213 C 552,294 104,394 251,172 C 165,242 134,115 571,488 C 529,278 372,164 156,326 C 648,386 265,288 389,262 C 504,333 435,367 676,333 Z"></path>
<path stroke="#fe9225" stroke-width="2" fill="#0fa6d8" opacity="0.6709075569748014" stroke-opacity="0.40059106416019885" transform="rotate(-99.0 400 300)" d="M 110,474  C 120,293 118,404 205,229 C 409,392 548,487 210,364 C 200,479 602,292 360,105 C 566,497 185,135 277,391 C 567,247 411,119 656,155 C 681,188 158,148 147,402 C 606,209 637,302 613,277 C 398,353 391,441 116,374 C 193,324 497,250 316,185 Z"></path>
<path stroke="#2cd3f3" stroke-width="4" fill="#fe9225" opacity="0.9500682228404567" stroke-opacity="0.31067541162325363" transform="rotate(6.0 400 300)" d="M 507,122  C 109,282 600,386 485,144 C 322,421 619,227 258,469 C 167,409 667,423 438,364 C 365,346 409,124 443,180 C 477,359 459,141 419,329 C 533,151 663,146 333,481 C 487,407 371,497 305,124 C 440,217 686,318 692,131 C 243,192 551,436 668,316 Z"></path>
<path stroke="#fe9225" stroke-width="5" fill="#02eb6b" opacity="0.06221511951499306" stroke-opacity="0.1852752401821566" transform="rotate(-148.0 400 300)" d="M 666,330  C 110,360 501,387 650,115 C 568,149 383,222 611,216 C 163,375 672,200 620,118 C 593,112 224,301 298,276 C 566,367 238,393 391,432 C 595,181 300,320 411,277 C 486,282 193,269 103,422 C 547,409 363,278 322,485 C 495,398 626,354 564,471 Z"></path>
<path stroke="#02eb6b" stroke-width="4" fill="#02eb6b" opacity="0.1527396743918869" stroke-opacity="0.4918119038775945" transform="rotate(-123.0 400 300)" d="M 238,323  C 170,356 487,371 450,103 C 228,336 593,139 121,393 C 333,212 618,393 441,264 C 210,146 336,114 151,229 C 562,198 113,211 294,447 C 227,455 338,209 527,406 Z"></path>
<path stroke="#2cd3f3" stroke-width="1" fill="#fe9225" opacity="0.9318438341026927" stroke-opacity="0.5980458518317963" transform="rotate(-165.0 400 300)" d="M 106,140  C 695,452 611,489 504,436 C 115,492 455,330 682,187 C 696,173 103,358 594,258 C 359,417 533,286 566,137 Z"></path>
<path stroke="#0fa6d8" stroke-width="5" fill="#02eb6b" opacity="0.11954550860755397" stroke-opacity="0.5960326527871649" transform="rotate(69.0 400 300)" d="M 413,207  C 417,149 565,246 166,204 C 453,409 452,313 373,436 C 453,113 162,425 460,111 C 211,253 646,138 119,270 Z"></path>

  </g>
</svg>
