<svg xmlns="http://www.w3.org/2000/svg" xmlns:xlink="http://www.w3.org/1999/xlink" width="800" height="600" version="1.1" viewBox="0 0 800 600"><g fill="none" fill-rule="evenodd" stroke="none" stroke-width="1"><path fill="#2b55f7" stroke="#2b55f7" stroke-opacity=".548" stroke-width="6" d="M 275,158 C 609,305 455,485 617,303 C 153,382 686,323 617,116 C 635,141 383,143 167,373 C 360,265 167,438 423,318 C 616,260 669,346 564,256 C 501,335 162,158 278,236 Z" opacity=".105" transform="rotate(-146.0 400 300)"/><path fill="#f9d84b" stroke="#ed2b2c" stroke-opacity=".029" stroke-width="6" d="M 577,468 C 685,447 375,180 589,282 C 650,491 153,194 460,362 C 456,184 404,245 557,455 C 529,264 557,390 416,364 C 279,335 205,238 598,333 C 477,189 240,273 270,267 C 275,484 499,196 248,165 C 695,167 483,305 628,179 Z" opacity=".832" transform="rotate(-163.0 400 300)"/><path fill="#f27630" stroke="#ed2b2c" stroke-opacity=".219" stroke-width="2" d="M 658,390 C 546,463 604,222 484,388 C 498,243 605,439 526,181 C 471,483 629,491 293,414 C 477,333 586,288 490,105 C 233,407 368,390 531,308 C 431,364 464,431 405,375 C 125,499 452,469 406,336 C 376,459 307,306 422,379 C 450,219 305,237 289,357 C 406,395 533,162 119,231 C 181,347 329,469 332,415 Z" opacity=".122" transform="rotate(-103.0 400 300)"/><path fill="#2b55f7" stroke="#ed2b2c" stroke-opacity=".375" stroke-width="3" d="M 692,431 C 264,404 655,372 488,141 C 533,488 638,287 617,295 C 455,412 458,217 132,146 C 510,271 123,220 682,391 C 594,420 568,275 463,167 Z" opacity=".816" transform="rotate(63.0 400 300)"/><path fill="#f9d84b" stroke="#2b55f7" stroke-opacity=".108" stroke-width="1" d="M 275,302 C 286,406 358,474 527,471 C 671,433 525,404 185,169 C 466,183 197,347 209,121 C 245,396 225,344 643,344 C 319,479 526,138 447,315 C 657,320 360,282 465,296 C 446,201 109,109 676,341 C 266,139 655,275 212,392 C 403,419 298,308 433,128 C 233,241 169,391 688,279 Z" opacity=".594" transform="rotate(84.0 400 300)"/><path fill="#ed2b2c" stroke="#f27630" stroke-opacity=".992" stroke-width="4" d="M 395,404 C 144,239 671,194 379,314 C 491,306 487,371 150,256 C 260,349 288,303 441,145 C 302,419 463,194 265,305 C 498,186 409,244 242,235 C 560,248 287,323 115,406 C 625,312 481,359 331,161 C 138,224 165,107 251,232 C 324,261 430,342 190,140 Z" opacity=".469" transform="rotate(116.0 400 300)"/><path fill="#2b55f7" stroke="#31a06b" stroke-opacity=".523" stroke-width="4" d="M 531,210 C 453,133 409,392 246,308 C 322,379 543,121 610,414 C 127,474 299,378 478,171 C 504,383 557,116 273,368 C 178,454 384,131 326,324 Z" opacity=".37" transform="rotate(95.0 400 300)"/><path fill="#31a06b" stroke="#31a06b" stroke-opacity=".414" stroke-width="6" d="M 190,206 C 661,412 586,172 563,400 C 158,237 418,184 218,290 C 304,373 489,359 681,270 C 580,496 155,490 180,305 C 512,230 387,101 513,151 Z" opacity=".695" transform="rotate(142.0 400 300)"/><path fill="#f27630" stroke="#ed2b2c" stroke-opacity=".494" stroke-width="3" d="M 323,233 C 338,301 569,380 523,197 C 114,393 585,213 677,251 C 515,126 259,405 323,479 C 684,307 623,128 699,343 C 466,103 136,272 551,207 C 203,474 488,313 339,157 Z" opacity=".561" transform="rotate(-88.0 400 300)"/><path fill="#ed2b2c" stroke="#2b55f7" stroke-opacity=".784" stroke-width="6" d="M 633,310 C 143,373 554,321 625,383 C 344,220 145,478 403,325 C 568,438 566,261 195,148 C 563,290 664,402 376,423 C 347,199 609,206 511,281 C 536,369 286,320 657,233 C 595,268 227,380 380,208 Z" opacity=".05" transform="rotate(-87.0 400 300)"/><path fill="#2b55f7" stroke="#ed2b2c" stroke-opacity=".088" stroke-width="5" d="M 247,394 C 176,447 131,373 466,362 C 607,199 277,319 272,472 C 245,141 328,469 242,102 C 479,269 600,195 590,445 C 140,370 129,335 384,476 C 369,320 640,348 394,368 C 613,335 581,408 280,115 C 672,167 151,221 645,265 C 192,357 571,326 421,478 Z" opacity=".398" transform="rotate(151.0 400 300)"/></g></svg>