<?xml version="1.0" encoding="UTF-8"?>
<svg width="800px" height="600px" viewBox="0 0 800 600" version="1.1" xmlns="http://www.w3.org/2000/svg" xmlns:xlink="http://www.w3.org/1999/xlink">
  <defs></defs>
  <g stroke="none" stroke-width="1" fill="none" fill-rule="evenodd">
    
    <path stroke="#31a06b" stroke-width="5" fill="#f9d84b" opacity="0.9618121411315599" stroke-opacity="0.4163602757732701" transform="rotate(-53.0 400 300)" d="M 544,234  C 378,443 233,325 612,107 C 639,165 157,200 165,469 C 303,423 338,388 546,247 C 458,359 547,290 648,497 C 147,148 608,116 356,210 Z"></path>
<path stroke="#2b55f7" stroke-width="6" fill="#f27630" opacity="0.5240587794529094" stroke-opacity="0.30216450983966875" transform="rotate(42.0 400 300)" d="M 120,182  C 447,468 143,156 310,488 C 464,316 468,497 196,318 C 509,127 144,340 645,324 C 486,177 463,155 264,240 C 416,112 398,413 359,117 C 694,262 390,174 310,182 C 119,316 553,429 533,240 C 203,317 241,421 332,204 C 531,237 265,308 400,437 C 538,445 266,283 651,318 C 667,499 562,125 366,221 Z"></path>
<path stroke="#2b55f7" stroke-width="5" fill="#f9d84b" opacity="0.32286022263882086" stroke-opacity="0.4562476637181685" transform="rotate(146.0 400 300)" d="M 335,122  C 468,362 135,490 197,144 C 436,111 552,391 432,434 C 477,472 544,338 414,271 C 420,300 433,377 629,200 C 406,263 294,313 211,239 C 196,336 653,278 227,393 Z"></path>
<path stroke="#ed2b2c" stroke-width="4" fill="#f9d84b" opacity="0.9013244718543965" stroke-opacity="0.5864058452062715" transform="rotate(57.0 400 300)" d="M 496,453  C 426,403 173,104 310,351 C 569,324 394,454 401,159 C 124,309 391,149 483,397 C 490,251 385,123 333,252 C 476,443 444,170 489,146 C 597,228 115,337 658,178 C 193,416 586,395 475,280 C 525,193 651,367 630,472 C 442,282 406,363 270,372 C 442,163 291,439 473,289 Z"></path>
<path stroke="#2b55f7" stroke-width="4" fill="#ed2b2c" opacity="0.8142114093242914" stroke-opacity="0.6422407712715366" transform="rotate(153.0 400 300)" d="M 251,286  C 280,330 517,479 580,199 C 368,399 365,492 105,227 C 168,286 604,430 590,144 C 630,225 338,294 584,353 Z"></path>
<path stroke="#2b55f7" stroke-width="6" fill="#2b55f7" opacity="0.7690767079353505" stroke-opacity="0.40896458183173434" transform="rotate(-69.0 400 300)" d="M 420,112  C 238,366 492,249 191,380 C 196,358 442,179 199,327 C 395,266 459,449 415,355 C 224,146 300,253 250,286 C 230,243 252,371 683,303 C 321,202 491,404 518,419 Z"></path>

  </g>
</svg>
