<?xml version="1.0" encoding="UTF-8"?>
<svg width="800px" height="600px" viewBox="0 0 800 600" version="1.1" xmlns="http://www.w3.org/2000/svg" xmlns:xlink="http://www.w3.org/1999/xlink">
  <defs></defs>
  <g stroke="none" stroke-width="1" fill="none" fill-rule="evenodd">
    
    <ellipse stroke="#0fa6d8" stroke-width="5" fill="#0fa6d8" opacity="0.0480914206889973" stroke-opacity="0.5373790461193333" transform="rotate(-57.0 400 300)" cx="453" rx="278" cy="569" ry="215"></ellipse>
<path stroke="#fe9225" stroke-width="5" fill="#fe9225" opacity="0.784071897300344" stroke-opacity="0.48618883951955566" transform="rotate(18.0 400 300)" d="M 366,214  C 429,345 296,206 693,445 C 628,177 464,255 489,292 C 503,468 333,174 455,365 C 574,482 299,297 397,350 C 667,397 689,233 581,436 C 505,454 391,279 268,116 C 357,200 180,376 551,356 C 427,298 180,224 363,403 C 348,164 634,139 225,453 C 129,485 333,459 105,134 Z"></path>
<polygon stroke="#0fa6d8" stroke-width="2" fill="#2cd3f3" opacity="0.3363145764908738" stroke-opacity="0.9549592262007298" transform="rotate(114.0 400 300)" points="464 427 360 377 626 357 759 121 798 570 147 15 164 218 "></polygon>
<polygon stroke="#0fa6d8" stroke-width="5" fill="#0fa6d8" opacity="0.4429432962755162" stroke-opacity="0.034946459411895156" transform="rotate(-96.0 400 300)" points="93 51 109 378 665 198 489 537 391 177 662 474 66 248 20 110 "></polygon>
<path stroke="#f559a0" stroke-width="2" fill="#02eb6b" opacity="0.3786908510296937" stroke-opacity="0.1598433325953551" transform="rotate(-33.0 400 300)" d="M 521,364  C 394,221 687,377 260,276 C 324,362 527,317 378,221 C 342,320 226,391 255,423 C 677,226 246,208 424,411 C 332,493 247,235 316,220 C 388,312 252,356 417,154 C 399,364 658,315 406,461 C 429,345 526,391 167,298 Z"></path>
<ellipse stroke="#fe9225" stroke-width="2" fill="#f559a0" opacity="0.11177352273705607" stroke-opacity="0.5013261763764827" transform="rotate(91.0 400 300)" cx="541" rx="187" cy="540" ry="139"></ellipse>

  </g>
</svg>
