<svg xmlns="http://www.w3.org/2000/svg" xmlns:xlink="http://www.w3.org/1999/xlink" width="800" height="600" version="1.1" viewBox="0 0 800 600"><g fill="none" fill-rule="evenodd" stroke="none" stroke-width="1"><ellipse cx="453" cy="569" fill="#0fa6d8" stroke="#0fa6d8" stroke-opacity=".537" stroke-width="5" opacity=".048" rx="278" ry="215" transform="rotate(-57.0 400 300)"/><path fill="#fe9225" stroke="#fe9225" stroke-opacity=".486" stroke-width="5" d="M 366,214 C 429,345 296,206 693,445 C 628,177 464,255 489,292 C 503,468 333,174 455,365 C 574,482 299,297 397,350 C 667,397 689,233 581,436 C 505,454 391,279 268,116 C 357,200 180,376 551,356 C 427,298 180,224 363,403 C 348,164 634,139 225,453 C 129,485 333,459 105,134 Z" opacity=".784" transform="rotate(18.0 400 300)"/><polygon fill="#2cd3f3" stroke="#0fa6d8" stroke-opacity=".955" stroke-width="2" points="464 427 360 377 626 357 759 121 798 570 147 15 164 218" opacity=".336" transform="rotate(114.0 400 300)"/><polygon fill="#0fa6d8" stroke="#0fa6d8" stroke-opacity=".035" stroke-width="5" points="93 51 109 378 665 198 489 537 391 177 662 474 66 248 20 110" opacity=".443" transform="rotate(-96.0 400 300)"/><path fill="#02eb6b" stroke="#f559a0" stroke-opacity=".16" stroke-width="2" d="M 521,364 C 394,221 687,377 260,276 C 324,362 527,317 378,221 C 342,320 226,391 255,423 C 677,226 246,208 424,411 C 332,493 247,235 316,220 C 388,312 252,356 417,154 C 399,364 658,315 406,461 C 429,345 526,391 167,298 Z" opacity=".379" transform="rotate(-33.0 400 300)"/><ellipse cx="541" cy="540" fill="#f559a0" stroke="#fe9225" stroke-opacity=".501" stroke-width="2" opacity=".112" rx="187" ry="139" transform="rotate(91.0 400 300)"/></g></svg>