<svg xmlns="http://www.w3.org/2000/svg" xmlns:xlink="http://www.w3.org/1999/xlink" width="800" height="600" version="1.1" viewBox="0 0 800 600"><g fill="none" fill-rule="evenodd" stroke="none" stroke-width="1"><ellipse cx="449" cy="325" fill="#2cd3f3" stroke="#2cd3f3" stroke-opacity=".93" stroke-width="2" opacity=".882" rx="396" ry="280" transform="rotate(-117.0 400 300)"/><polygon fill="#f559a0" stroke="#02eb6b" stroke-opacity=".884" stroke-width="4" points="266 112 137 593 272 59 268 27 32 582 470 134 438 496 277 502" opacity=".495" transform="rotate(-102.0 400 300)"/><polygon fill="#02eb6b" stroke="#fe9225" stroke-opacity=".745" stroke-width="6" points="297 153 652 136 86 229 653 471 452 436 204 367 606 462 618 309" opacity=".959" transform="rotate(-74.0 400 300)"/><path fill="#fe9225" stroke="#2cd3f3" stroke-opacity=".184" stroke-width="5" d="M 458,494 C 134,143 401,482 621,246 C 425,151 608,165 314,411 C 604,290 302,281 550,345 C 258,294 645,198 497,378 Z" opacity=".076" transform="rotate(-47.0 400 300)"/><polygon fill="#fe9225" stroke="#fe9225" stroke-opacity=".344" stroke-width="5" points="28 240 673 266 361 6 101 28 353 444" opacity=".799" transform="rotate(123.0 400 300)"/><ellipse cx="793" cy="171" fill="#02eb6b" stroke="#02eb6b" stroke-opacity=".966" stroke-width="1" opacity=".072" rx="95" ry="323" transform="rotate(-130.0 400 300)"/></g></svg>