<?xml version="1.0" encoding="UTF-8"?>
<svg width="800px" height="600px" viewBox="0 0 800 600" version="1.1" xmlns="http://www.w3.org/2000/svg" xmlns:xlink="http://www.w3.org/1999/xlink">
  <defs></defs>
  <g stroke="none" stroke-width="1" fill="none" fill-rule="evenodd">
    
    <path stroke="#949CBB" stroke-width="2" fill="#38DD49" opacity="0.5937879406128198" stroke-opacity="0.4205772934115413" transform="rotate(-20.0 400 300)" d="M 282,252  C 632,398 414,197 446,362 C 145,380 481,275 137,120 C 357,329 243,331 167,360 C 446,199 658,113 411,155 C 408,202 463,323 223,259 Z"></path>
<path stroke="#B68C55" stroke-width="4" fill="#AAACB7" opacity="0.07197257643019843" stroke-opacity="0.5969318420411972" transform="rotate(19.0 400 300)" d="M 277,230  C 226,183 591,215 396,438 C 513,158 306,350 666,363 C 499,287 665,362 315,120 C 137,262 165,202 661,316 C 536,135 463,404 420,382 Z"></path>
<path stroke="#A8A729" stroke-width="7" fill="#69AC97" opacity="0.3006907976611665" stroke-opacity="0.3054219755080813" transform="rotate(-20.0 400 300)" d="M 499,118  C 176,166 627,452 514,303 C 255,289 179,241 548,500 C 126,241 375,447 234,291 C 261,328 223,236 431,186 C 125,346 402,461 253,124 C 621,118 615,121 284,158 C 473,195 532,258 569,235 C 446,300 627,157 155,281 C 643,108 531,229 132,321 C 666,114 555,101 622,495 Z"></path>
<path stroke="#DBC19C" stroke-width="2" fill="#06C527" opacity="0.2107030327563126" stroke-opacity="0.5358232363230997" transform="rotate(-114.0 400 300)" d="M 526,334  C 272,343 176,307 277,491 C 629,115 159,154 492,489 C 599,105 206,384 353,189 C 655,189 275,252 517,477 Z"></path>
<path stroke="#19C810" stroke-width="3" fill="#84514B" opacity="0.9730657520501178" stroke-opacity="0.239381873408149" transform="rotate(68.0 400 300)" d="M 657,374  C 515,208 344,185 504,289 C 379,124 398,273 602,190 C 199,301 580,271 697,336 C 254,231 149,248 320,298 C 629,322 152,177 657,243 C 546,487 573,381 268,394 C 123,453 482,256 355,476 Z"></path>
<path stroke="#627A47" stroke-width="2" fill="#8A2B90" opacity="0.1834564085847376" stroke-opacity="0.09412470904262882" transform="rotate(167.0 400 300)" d="M 529,232  C 145,196 651,233 477,279 C 431,437 557,304 235,294 C 662,176 179,294 548,225 C 434,348 619,126 286,457 C 278,387 505,246 591,128 C 367,107 287,320 169,188 C 168,244 449,437 355,215 Z"></path>
<path stroke="#27483D" stroke-width="3" fill="#CA72D5" opacity="0.3301867740281138" stroke-opacity="0.6318405879978664" transform="rotate(-101.0 400 300)" d="M 195,297  C 534,132 464,125 361,393 C 328,264 355,396 310,475 C 166,201 410,433 171,479 C 653,350 265,479 113,453 C 315,205 637,136 401,469 C 670,228 273,255 299,310 C 405,275 419,339 557,201 C 670,160 661,302 651,407 C 193,208 337,419 594,216 C 513,284 391,374 182,144 Z"></path>
<path stroke="#4CD6A8" stroke-width="6" fill="#1097C2" opacity="0.8370255889065433" stroke-opacity="0.49509852201206916" transform="rotate(-82.0 400 300)" d="M 682,242  C 255,409 254,269 621,387 C 297,491 673,431 401,454 C 217,347 469,265 340,361 C 136,296 441,195 426,145 C 252,222 396,240 332,259 C 266,132 531,319 449,488 C 429,449 217,227 494,306 C 612,455 278,132 376,432 C 505,426 167,145 586,277 C 535,139 173,407 617,350 Z"></path>
<path stroke="#6697CC" stroke-width="2" fill="#27885C" opacity="0.2952708711578043" stroke-opacity="0.3071209550856165" transform="rotate(-98.0 400 300)" d="M 217,279  C 603,468 436,405 499,255 C 463,170 520,413 554,121 C 192,203 491,489 695,157 C 296,231 563,149 139,292 C 266,449 429,148 444,142 C 654,371 436,384 450,125 C 657,336 479,223 646,324 C 603,276 548,435 601,244 Z"></path>

  </g>
</svg>
