<?xml version="1.0" encoding="UTF-8"?>
<svg width="800px" height="600px" viewBox="0 0 800 600" version="1.1" xmlns="http://www.w3.org/2000/svg" xmlns:xlink="http://www.w3.org/1999/xlink">
  <defs></defs>
  <g stroke="none" stroke-width="1" fill="none" fill-rule="evenodd">
    
    <path stroke="#4B412A" stroke-width="3" fill="#CA2A51" opacity="0.34492475722574056" stroke-opacity="0.23137458951414605" transform="rotate(-94.0 400 300)" d="M 318,462  C 586,268 360,415 405,413 C 250,189 365,397 213,407 C 512,367 692,259 513,101 C 104,336 473,345 639,112 Z"></path>
<path stroke="#DC36B9" stroke-width="4" fill="#058493" opacity="0.6233312938534268" stroke-opacity="0.6789142092506915" transform="rotate(-144.0 400 300)" d="M 464,169  C 140,389 303,213 376,474 C 210,207 576,125 650,327 C 396,402 625,235 644,494 C 110,152 194,473 373,423 C 436,328 260,194 190,335 C 614,478 515,343 175,269 C 391,107 604,133 664,167 C 411,413 472,421 476,175 C 267,320 470,183 667,380 C 217,132 193,349 440,439 C 629,294 242,177 689,422 Z"></path>
<path stroke="#DD378B" stroke-width="3" fill="#126A00" opacity="0.17489337372094657" stroke-opacity="0.7698638166261544" transform="rotate(158.0 400 300)" d="M 512,125  C 698,371 559,152 380,411 C 174,379 298,149 524,114 C 650,172 450,142 275,321 C 129,451 518,412 158,247 C 413,188 598,287 574,123 C 308,494 414,185 526,426 C 259,129 235,378 570,407 C 489,474 302,472 170,272 Z"></path>
<path stroke="#541716" stroke-width="2" fill="#98130B" opacity="0.7498954441025293" stroke-opacity="0.2999824642850294" transform="rotate(-135.0 400 300)" d="M 566,452  C 664,396 278,127 494,466 C 597,224 454,197 492,143 C 403,299 553,164 255,337 C 204,371 238,271 315,415 C 532,469 286,371 280,448 C 583,334 630,286 630,415 C 595,196 601,145 421,418 Z"></path>
<path stroke="#B62B54" stroke-width="6" fill="#743622" opacity="0.022809510661092047" stroke-opacity="0.7583824979257614" transform="rotate(143.0 400 300)" d="M 194,444  C 116,202 262,159 574,320 C 520,290 561,475 349,138 C 690,103 331,453 396,253 C 242,492 657,464 398,167 C 516,105 392,377 648,204 C 485,285 697,352 180,402 C 358,284 465,166 111,304 C 569,465 558,142 438,302 C 454,431 232,431 385,337 Z"></path>
<path stroke="#B55954" stroke-width="7" fill="#B703D1" opacity="0.5410843261646571" stroke-opacity="0.17185506184923222" transform="rotate(40.0 400 300)" d="M 484,321  C 378,287 141,436 549,108 C 535,419 238,396 386,207 C 433,108 447,176 598,233 C 394,175 467,250 668,338 C 311,235 297,412 263,251 C 522,263 149,377 207,472 C 611,491 509,273 492,181 C 617,176 359,466 621,461 C 475,181 570,453 558,236 Z"></path>
<path stroke="#93A201" stroke-width="6" fill="#A63842" opacity="0.8064659936399898" stroke-opacity="0.5900285202142324" transform="rotate(14.0 400 300)" d="M 398,246  C 446,133 698,231 279,409 C 592,164 406,247 245,430 C 324,302 324,343 586,231 C 643,434 615,204 513,472 C 441,421 534,309 315,363 Z"></path>
<path stroke="#96A2B7" stroke-width="1" fill="#2179D1" opacity="0.48821848685874536" stroke-opacity="0.19065952294879948" transform="rotate(-86.0 400 300)" d="M 113,365  C 318,379 531,238 407,290 C 113,171 562,452 448,165 C 410,287 231,263 303,389 C 117,385 656,392 230,409 C 460,444 639,134 454,175 C 276,447 697,114 203,379 C 494,322 229,165 347,453 Z"></path>

  </g>
</svg>
