<svg xmlns="http://www.w3.org/2000/svg" xmlns:xlink="http://www.w3.org/1999/xlink" width="800" height="600" version="1.1" viewBox="0 0 800 600"><g fill="none" fill-rule="evenodd" stroke="none" stroke-width="1"><path fill="#f27630" stroke="#f27630" stroke-opacity=".755" stroke-width="6" d="M 463,492 C 195,195 186,158 104,463 C 621,202 399,257 597,483 C 531,319 192,144 293,469 C 260,450 361,281 672,143 C 148,400 242,330 284,381 C 495,148 141,452 539,259 C 255,138 160,405 283,293 C 448,292 328,360 238,451 C 657,152 617,111 312,450 Z" opacity=".032" transform="rotate(-159.0 400 300)"/><path fill="#f27630" stroke="#ed2b2c" stroke-opacity=".454" stroke-width="6" d="M 676,316 C 115,354 584,310 286,102 C 558,143 219,381 359,216 C 199,117 309,158 502,259 C 355,412 303,255 192,428 C 547,229 505,194 158,306 Z" opacity=".235" transform="rotate(-66.0 400 300)"/><path fill="#ed2b2c" stroke="#ed2b2c" stroke-opacity=".47" stroke-width="6" d="M 539,101 C 665,230 444,315 420,173 C 112,432 533,250 601,104 C 517,486 232,179 607,288 C 365,324 239,322 419,338 Z" opacity=".386" transform="rotate(-130.0 400 300)"/><path fill="#2b55f7" stroke="#ed2b2c" stroke-opacity=".248" stroke-width="6" d="M 162,407 C 382,403 468,310 594,141 C 154,140 408,443 596,240 C 222,197 186,441 125,167 C 329,198 274,347 455,410 C 465,429 300,152 135,457 C 204,425 590,301 584,209 C 547,284 225,414 525,213 C 506,150 363,217 630,248 C 239,325 217,177 334,454 Z" opacity=".002" transform="rotate(98.0 400 300)"/><path fill="#f9d84b" stroke="#31a06b" stroke-opacity=".66" stroke-width="3" d="M 375,255 C 589,488 615,464 316,119 C 458,101 638,486 677,153 C 546,447 186,269 323,215 C 424,174 324,422 213,396 C 189,457 443,145 420,171 C 318,256 636,206 108,446 C 503,182 334,149 319,285 C 228,393 530,466 422,332 C 239,266 501,144 522,449 C 375,274 107,155 102,135 Z" opacity=".807" transform="rotate(-77.0 400 300)"/><path fill="#f27630" stroke="#ed2b2c" stroke-opacity=".199" stroke-width="2" d="M 619,355 C 354,479 180,161 586,395 C 561,435 609,131 185,412 C 399,233 111,224 122,188 C 367,176 471,452 400,221 C 647,380 540,405 144,361 C 602,197 196,419 478,331 Z" opacity=".305" transform="rotate(71.0 400 300)"/><path fill="#31a06b" stroke="#2b55f7" stroke-opacity=".426" stroke-width="3" d="M 582,210 C 441,452 467,149 240,407 C 615,366 505,238 351,211 C 605,289 327,268 406,251 C 221,420 406,227 509,443 C 424,141 199,264 217,458 C 240,362 322,398 219,394 C 675,198 209,245 378,279 C 163,408 259,385 240,489 C 103,328 105,443 515,274 C 119,488 104,268 519,155 C 440,429 111,449 356,458 Z" opacity=".678" transform="rotate(-138.0 400 300)"/></g></svg>