<svg xmlns="http://www.w3.org/2000/svg" xmlns:xlink="http://www.w3.org/1999/xlink" width="800" height="600" version="1.1" viewBox="0 0 800 600"><g fill="none" fill-rule="evenodd" stroke="none" stroke-width="1"><path fill="#fe9225" stroke="#f559a0" stroke-opacity=".405" stroke-width="4" d="M 349,414 C 649,229 196,294 606,157 C 137,395 507,239 565,432 C 267,252 155,118 244,361 C 300,253 598,207 208,287 C 298,276 152,135 325,287 C 597,425 176,204 194,469 C 398,277 328,412 551,355 C 302,421 310,426 403,333 Z" opacity=".322" transform="rotate(-107.0 400 300)"/><path fill="#0fa6d8" stroke="#0fa6d8" stroke-opacity=".124" stroke-width="4" d="M 221,450 C 605,216 538,174 218,413 C 376,261 567,415 523,264 C 173,449 540,152 696,396 C 137,401 659,321 227,288 C 283,362 501,489 259,365 Z" opacity=".913" transform="rotate(63.0 400 300)"/><path fill="#fe9225" stroke="#fe9225" stroke-opacity=".254" stroke-width="4" d="M 319,450 C 148,415 398,346 484,192 C 102,162 612,227 358,481 C 231,349 434,363 341,343 C 537,303 636,451 649,202 Z" opacity=".153" transform="rotate(38.0 400 300)"/><path fill="#02eb6b" stroke="#0fa6d8" stroke-opacity=".94" stroke-width="1" d="M 108,179 C 660,171 664,290 238,458 C 508,186 676,156 107,270 C 205,371 585,181 614,497 C 550,176 147,359 499,106 C 603,291 336,350 641,415 Z" opacity=".89" transform="rotate(92.0 400 300)"/><path fill="#02eb6b" stroke="#f559a0" stroke-opacity=".08" stroke-width="4" d="M 398,160 C 576,159 288,387 317,265 C 299,469 329,426 352,426 C 320,290 411,299 440,317 C 111,165 437,299 670,347 C 305,168 347,324 483,226 C 464,199 582,401 245,139 Z" opacity=".293" transform="rotate(-7.0 400 300)"/><path fill="#02eb6b" stroke="#fe9225" stroke-opacity=".725" stroke-width="6" d="M 200,246 C 646,458 248,102 333,272 C 336,226 134,424 337,292 C 331,168 439,195 567,150 C 691,483 320,444 135,334 C 621,354 586,433 252,345 C 656,458 347,225 213,264 C 443,411 338,176 518,269 C 620,385 307,101 212,210 Z" opacity=".293" transform="rotate(-6.0 400 300)"/><path fill="#fe9225" stroke="#2cd3f3" stroke-opacity=".428" stroke-width="4" d="M 512,396 C 445,224 165,411 658,332 C 242,105 438,175 389,254 C 317,463 103,191 594,104 C 543,329 593,152 407,452 C 110,286 699,442 186,414 C 690,347 256,313 391,434 Z" opacity=".282" transform="rotate(-127.0 400 300)"/><path fill="#fe9225" stroke="#02eb6b" stroke-opacity=".535" stroke-width="6" d="M 179,421 C 156,192 403,219 435,250 C 323,195 219,165 410,396 C 499,328 355,182 287,173 C 577,118 568,346 236,499 C 612,306 207,117 578,157 C 466,214 254,273 553,423 C 459,348 553,134 482,412 C 643,370 164,464 107,420 C 325,379 113,327 209,354 C 445,197 251,128 144,316 C 397,149 197,421 212,399 Z" opacity=".354" transform="rotate(130.0 400 300)"/><path fill="#0fa6d8" stroke="#f559a0" stroke-opacity=".248" stroke-width="4" d="M 501,306 C 473,390 179,141 120,141 C 131,325 409,144 589,390 C 350,265 339,365 606,199 C 425,143 241,116 492,273 C 596,383 604,407 266,240 C 637,448 573,397 166,102 Z" opacity=".113" transform="rotate(-153.0 400 300)"/><path fill="#f559a0" stroke="#fe9225" stroke-opacity=".927" stroke-width="5" d="M 310,196 C 669,352 124,344 680,390 C 598,279 199,468 636,452 C 654,493 305,415 279,271 C 493,292 460,451 110,216 C 355,477 128,301 159,267 Z" opacity=".358" transform="rotate(67.0 400 300)"/></g></svg>