<?xml version="1.0" encoding="UTF-8"?>
<svg width="800px" height="600px" viewBox="0 0 800 600" version="1.1" xmlns="http://www.w3.org/2000/svg" xmlns:xlink="http://www.w3.org/1999/xlink">
  <defs></defs>
  <g stroke="none" stroke-width="1" fill="none" fill-rule="evenodd">
    
    <path stroke="#31a06b" stroke-width="7" fill="#31a06b" opacity="0.44353919905921146" stroke-opacity="0.4058542976383371" transform="rotate(134.0 400 300)" d="M 670,292  C 530,165 538,327 424,222 C 445,233 170,179 552,424 C 428,322 629,493 260,228 C 656,128 364,188 167,322 C 503,292 213,293 495,265 C 616,309 558,164 173,125 Z"></path>
<path stroke="#f9d84b" stroke-width="2" fill="#31a06b" opacity="0.033413057419780574" stroke-opacity="0.5727880096426337" transform="rotate(173.0 400 300)" d="M 622,339  C 183,232 286,431 462,131 C 278,139 662,395 491,176 C 463,372 285,133 217,177 C 258,317 210,414 150,339 C 462,443 552,171 332,327 C 628,435 425,414 395,215 C 367,446 437,172 464,308 Z"></path>
<path stroke="#f27630" stroke-width="7" fill="#ed2b2c" opacity="0.7020608719787215" stroke-opacity="0.38213422932152946" transform="rotate(157.0 400 300)" d="M 408,339  C 388,174 411,101 442,306 C 568,368 143,426 359,254 C 628,282 355,462 514,441 C 343,154 648,207 178,403 C 534,454 598,211 173,390 C 216,107 692,278 487,164 C 250,361 594,157 265,143 Z"></path>
<path stroke="#f27630" stroke-width="5" fill="#31a06b" opacity="0.8997835840209103" stroke-opacity="0.33067240574434287" transform="rotate(144.0 400 300)" d="M 588,422  C 158,239 462,483 671,200 C 568,307 233,195 697,370 C 308,441 688,431 460,210 C 574,322 526,423 398,312 C 342,243 359,244 686,259 Z"></path>
<path stroke="#f9d84b" stroke-width="2" fill="#2b55f7" opacity="0.8490094095913101" stroke-opacity="0.8010368761936977" transform="rotate(107.0 400 300)" d="M 194,141  C 287,433 451,412 466,192 C 329,144 659,286 306,336 C 466,291 696,258 172,140 C 328,123 362,103 426,152 C 127,181 416,427 465,268 Z"></path>
<path stroke="#f27630" stroke-width="3" fill="#f27630" opacity="0.6573637940679226" stroke-opacity="0.4374067519310265" transform="rotate(-55.0 400 300)" d="M 540,432  C 356,152 457,458 419,176 C 158,148 521,326 528,394 C 512,233 262,441 650,154 C 218,429 460,497 157,292 C 649,452 101,499 409,404 Z"></path>

  </g>
</svg>
