<svg xmlns="http://www.w3.org/2000/svg" xmlns:xlink="http://www.w3.org/1999/xlink" width="800" height="600" version="1.1" viewBox="0 0 800 600"><g fill="none" fill-rule="evenodd" stroke="none" stroke-width="1"><path fill="#31a06b" stroke="#31a06b" stroke-opacity=".406" stroke-width="7" d="M 670,292 C 530,165 538,327 424,222 C 445,233 170,179 552,424 C 428,322 629,493 260,228 C 656,128 364,188 167,322 C 503,292 213,293 495,265 C 616,309 558,164 173,125 Z" opacity=".444" transform="rotate(134.0 400 300)"/><path fill="#31a06b" stroke="#f9d84b" stroke-opacity=".573" stroke-width="2" d="M 622,339 C 183,232 286,431 462,131 C 278,139 662,395 491,176 C 463,372 285,133 217,177 C 258,317 210,414 150,339 C 462,443 552,171 332,327 C 628,435 425,414 395,215 C 367,446 437,172 464,308 Z" opacity=".033" transform="rotate(173.0 400 300)"/><path fill="#ed2b2c" stroke="#f27630" stroke-opacity=".382" stroke-width="7" d="M 408,339 C 388,174 411,101 442,306 C 568,368 143,426 359,254 C 628,282 355,462 514,441 C 343,154 648,207 178,403 C 534,454 598,211 173,390 C 216,107 692,278 487,164 C 250,361 594,157 265,143 Z" opacity=".702" transform="rotate(157.0 400 300)"/><path fill="#31a06b" stroke="#f27630" stroke-opacity=".331" stroke-width="5" d="M 588,422 C 158,239 462,483 671,200 C 568,307 233,195 697,370 C 308,441 688,431 460,210 C 574,322 526,423 398,312 C 342,243 359,244 686,259 Z" opacity=".9" transform="rotate(144.0 400 300)"/><path fill="#2b55f7" stroke="#f9d84b" stroke-opacity=".801" stroke-width="2" d="M 194,141 C 287,433 451,412 466,192 C 329,144 659,286 306,336 C 466,291 696,258 172,140 C 328,123 362,103 426,152 C 127,181 416,427 465,268 Z" opacity=".849" transform="rotate(107.0 400 300)"/><path fill="#f27630" stroke="#f27630" stroke-opacity=".437" stroke-width="3" d="M 540,432 C 356,152 457,458 419,176 C 158,148 521,326 528,394 C 512,233 262,441 650,154 C 218,429 460,497 157,292 C 649,452 101,499 409,404 Z" opacity=".657" transform="rotate(-55.0 400 300)"/></g></svg>