<?xml version="1.0" encoding="UTF-8"?>
<svg width="800px" height="600px" viewBox="0 0 800 600" version="1.1" xmlns="http://www.w3.org/2000/svg" xmlns:xlink="http://www.w3.org/1999/xlink">
  <defs></defs>
  <g stroke="none" stroke-width="1" fill="none" fill-rule="evenodd">
    
    <path stroke="#fe9225" stroke-width="4" fill="#2cd3f3" opacity="0.003577283558109581" stroke-opacity="0.0967438947676384" transform="rotate(162.0 400 300)" d="M 535,371  C 412,125 279,197 376,224 C 324,392 371,400 495,140 C 581,126 383,420 523,149 C 352,409 274,353 602,476 C 335,274 194,148 124,420 Z"></path>
<path stroke="#fe9225" stroke-width="1" fill="#0fa6d8" opacity="0.849451829360604" stroke-opacity="0.3910746885220052" transform="rotate(8.0 400 300)" d="M 246,121  C 495,123 323,319 184,181 C 590,183 479,404 213,163 C 698,296 487,261 527,371 C 592,410 432,283 344,180 C 665,442 242,168 264,466 C 333,140 506,107 495,458 C 426,445 218,200 333,419 C 345,467 365,495 687,130 C 234,321 576,461 139,239 Z"></path>
<path stroke="#fe9225" stroke-width="6" fill="#2cd3f3" opacity="0.5594510943535241" stroke-opacity="0.46975726293134906" transform="rotate(-5.0 400 300)" d="M 544,437  C 208,371 426,196 240,382 C 212,289 173,115 112,125 C 647,175 147,369 251,215 C 146,448 587,278 692,279 C 182,392 297,226 196,260 C 547,363 379,275 367,271 Z"></path>
<path stroke="#02eb6b" stroke-width="4" fill="#f559a0" opacity="0.3643054252958218" stroke-opacity="0.06707342591415232" transform="rotate(148.0 400 300)" d="M 646,334  C 332,177 583,218 289,383 C 218,447 584,442 564,477 C 261,247 486,435 113,163 C 458,389 516,198 191,289 Z"></path>
<path stroke="#f559a0" stroke-width="4" fill="#02eb6b" opacity="0.04623515847847397" stroke-opacity="0.07459758802254966" transform="rotate(-151.0 400 300)" d="M 440,155  C 681,207 568,434 514,366 C 614,255 276,349 377,194 C 172,440 613,488 247,188 C 135,122 605,109 691,159 C 374,153 681,299 385,460 C 316,162 205,134 438,409 C 256,372 630,181 364,229 C 604,208 424,202 698,200 Z"></path>
<path stroke="#02eb6b" stroke-width="5" fill="#0fa6d8" opacity="0.8471576586241019" stroke-opacity="0.04171253777468048" transform="rotate(160.0 400 300)" d="M 275,102  C 238,260 372,337 533,287 C 621,334 652,428 191,356 C 275,208 469,283 511,196 C 617,152 447,467 566,350 C 629,350 450,184 190,231 C 269,372 641,360 583,484 C 292,260 510,265 357,249 Z"></path>
<path stroke="#2cd3f3" stroke-width="3" fill="#0fa6d8" opacity="0.8433792151135191" stroke-opacity="0.34521694271305225" transform="rotate(6.0 400 300)" d="M 195,325  C 562,187 468,493 140,451 C 377,275 476,413 588,289 C 393,475 424,293 159,331 C 153,478 185,260 608,409 C 451,110 285,397 579,174 C 351,327 420,180 294,226 C 587,269 515,422 538,303 C 691,234 525,381 643,309 Z"></path>
<path stroke="#fe9225" stroke-width="2" fill="#2cd3f3" opacity="0.13361820372712427" stroke-opacity="0.01177258499372299" transform="rotate(113.0 400 300)" d="M 231,105  C 183,498 275,325 667,306 C 242,207 143,497 596,492 C 133,259 319,291 110,197 C 370,310 119,336 523,163 C 165,172 421,214 226,396 C 295,176 133,298 488,335 C 178,391 309,221 593,380 C 313,280 201,167 106,109 Z"></path>

  </g>
</svg>
