<svg xmlns="http://www.w3.org/2000/svg" xmlns:xlink="http://www.w3.org/1999/xlink" width="800" height="600" version="1.1" viewBox="0 0 800 600"><g fill="none" fill-rule="evenodd" stroke="none" stroke-width="1"><rect width="94" height="295" x="139" y="469" fill="#C24A91" stroke="#297C77" stroke-opacity=".063" stroke-width="4" opacity=".646" transform="rotate(-123.0 400 300)"/><path fill="#A9108B" stroke="#83B545" stroke-opacity=".285" stroke-width="7" d="M 446,239 C 616,419 485,400 684,295 C 619,463 438,125 195,410 C 265,457 639,424 640,295 C 297,322 406,211 486,456 C 507,372 118,261 452,302 C 523,480 584,399 339,277 C 335,124 565,251 107,360 C 454,144 687,314 487,304 C 578,255 483,160 348,315 Z" opacity=".802" transform="rotate(-19.0 400 300)"/><rect width="388" height="171" x="310" y="170" fill="#211470" stroke="#B0B6CC" stroke-opacity=".948" stroke-width="3" opacity=".733" transform="rotate(98.0 400 300)"/><ellipse cx="23" cy="427" fill="#764657" stroke="#DBD6AD" stroke-opacity=".043" stroke-width="4" opacity=".062" rx="421" ry="254" transform="rotate(-64.0 400 300)"/><polygon fill="#A895CC" stroke="#922A11" stroke-opacity=".199" stroke-width="2" points="360 333 110 273 666 325 777 72 323 171 59 428 188 74" opacity=".008" transform="rotate(-166.0 400 300)"/><rect width="177" height="310" x="597" y="518" fill="#08BD38" stroke="#18CDC4" stroke-opacity=".762" stroke-width="6" opacity=".584" transform="rotate(-132.0 400 300)"/><path fill="#AD2302" stroke="#6AA162" stroke-opacity=".369" stroke-width="5" d="M 459,412 C 551,424 142,416 353,348 C 609,340 436,367 392,230 C 457,391 558,365 186,229 C 511,245 565,271 460,461 C 310,372 318,343 515,226 C 432,244 308,319 514,440 Z" opacity=".816" transform="rotate(-58.0 400 300)"/><polygon fill="#D29B31" stroke="#69A406" stroke-opacity=".198" stroke-width="4" points="15 39 287 78 425 114 31 499 386 308" opacity=".491" transform="rotate(-105.0 400 300)"/></g></svg>