<svg xmlns="http://www.w3.org/2000/svg" xmlns:xlink="http://www.w3.org/1999/xlink" width="800" height="600" version="1.1" viewBox="0 0 800 600"><g fill="none" fill-rule="evenodd" stroke="none" stroke-width="1"><path fill="#9D68CA" stroke="#599613" stroke-opacity=".53" stroke-width="5" d="M 334,108 C 216,458 389,397 629,252 C 549,243 350,489 210,432 C 314,169 240,229 572,425 C 169,102 186,467 434,496 C 159,246 462,130 112,281 C 306,465 507,218 153,155 C 639,165 534,247 289,317 C 330,482 690,461 454,399 Z" opacity=".109" transform="rotate(-156.0 400 300)"/><path fill="#8C2B61" stroke="#CAB27A" stroke-opacity=".716" stroke-width="5" d="M 548,246 C 300,294 285,137 354,415 C 569,479 332,429 577,495 C 461,154 488,132 585,343 C 613,456 406,245 414,171 C 168,256 126,148 611,116 C 640,221 674,302 178,162 Z" opacity=".371" transform="rotate(-166.0 400 300)"/><path fill="#CA04BC" stroke="#0709AC" stroke-opacity=".923" stroke-width="6" d="M 659,252 C 267,462 375,499 401,418 C 195,153 275,432 280,380 C 209,356 406,289 231,498 C 676,446 164,279 389,396 C 540,326 685,209 122,269 C 194,357 339,192 286,352 C 334,370 437,109 587,244 C 587,307 464,356 109,106 C 392,344 140,251 590,125 C 637,316 503,267 686,239 C 698,316 418,468 591,448 Z" opacity=".061" transform="rotate(85.0 400 300)"/><path fill="#2A4555" stroke="#C0C75C" stroke-opacity=".435" stroke-width="7" d="M 508,208 C 623,284 619,133 598,183 C 636,343 540,341 396,194 C 548,208 490,204 424,212 C 427,452 633,167 260,480 C 419,211 315,498 494,428 C 372,324 397,220 665,500 C 130,148 336,460 308,425 Z" opacity=".934" transform="rotate(-43.0 400 300)"/><path fill="#5BBB49" stroke="#83517D" stroke-opacity=".076" stroke-width="4" d="M 350,210 C 371,120 476,219 151,470 C 136,281 597,320 245,179 C 346,425 303,231 256,123 C 241,382 449,368 329,234 C 212,174 521,107 678,252 C 194,163 114,217 648,302 C 167,351 410,138 257,256 C 200,146 441,290 574,166 C 128,109 135,345 479,387 C 526,411 655,251 294,224 Z" opacity=".524" transform="rotate(35.0 400 300)"/><path fill="#669B32" stroke="#5921C3" stroke-opacity=".887" stroke-width="4" d="M 314,408 C 319,159 233,185 159,305 C 122,346 597,446 522,314 C 151,442 476,454 300,473 C 505,180 427,494 127,325 C 400,475 652,179 349,124 C 378,379 448,380 636,393 C 170,278 689,215 282,226 C 414,224 542,249 394,256 Z" opacity=".598" transform="rotate(-52.0 400 300)"/><path fill="#0C3122" stroke="#6041A7" stroke-opacity=".819" stroke-width="7" d="M 636,137 C 297,140 400,289 435,428 C 449,187 263,113 186,412 C 467,398 594,246 141,197 C 589,172 296,486 199,101 C 557,217 686,304 145,106 Z" opacity=".569" transform="rotate(100.0 400 300)"/><path fill="#7373B8" stroke="#2DC8AA" stroke-opacity=".251" stroke-width="2" d="M 603,356 C 325,447 186,348 464,495 C 429,102 678,208 145,134 C 489,101 364,381 460,477 C 480,438 613,240 405,279 C 305,385 221,493 113,469 Z" opacity=".313" transform="rotate(-42.0 400 300)"/><path fill="#4DD0A4" stroke="#6136C6" stroke-opacity=".439" stroke-width="7" d="M 598,284 C 580,406 272,401 283,151 C 685,467 423,207 626,423 C 217,166 337,282 187,474 C 122,377 261,251 529,470 C 583,250 506,393 456,154 C 204,268 566,283 485,492 C 167,321 182,235 121,351 C 463,287 629,336 672,318 C 690,290 588,361 672,267 C 557,434 496,211 370,239 C 152,488 338,403 455,367 Z" opacity=".887" transform="rotate(162.0 400 300)"/><path fill="#70860B" stroke="#610797" stroke-opacity=".449" stroke-width="4" d="M 365,106 C 344,358 521,377 520,372 C 439,389 563,287 323,424 C 538,421 134,214 475,456 C 504,311 395,175 679,363 Z" opacity=".487" transform="rotate(-111.0 400 300)"/></g></svg>