<svg xmlns="http://www.w3.org/2000/svg" xmlns:xlink="http://www.w3.org/1999/xlink" width="800" height="600" version="1.1" viewBox="0 0 800 600"><g fill="none" fill-rule="evenodd" stroke="none" stroke-width="1"><polygon fill="#f27630" stroke="#f27630" stroke-opacity=".724" stroke-width="7" points="605 161 95 377 731 59 523 171 667 345 311 185 773 151" opacity=".164" transform="rotate(139.0 400 300)"/><polygon fill="#f27630" stroke="#31a06b" stroke-opacity=".513" stroke-width="4" points="3 221 34 363 510 499 28 146 388 371 62 343" opacity=".889" transform="rotate(78.0 400 300)"/><path fill="#f9d84b" stroke="#f27630" stroke-opacity=".98" stroke-width="4" d="M 543,163 C 461,342 606,323 155,474 C 315,165 174,198 410,338 C 231,418 164,106 210,427 C 581,221 479,276 641,479 C 244,146 121,480 248,485 C 529,118 581,408 365,245 C 206,447 398,384 338,361 C 144,500 466,176 431,411 C 241,452 498,236 477,160 C 341,123 240,176 667,249 Z" opacity=".814" transform="rotate(-169.0 400 300)"/><ellipse cx="492" cy="63" fill="#f9d84b" stroke="#f9d84b" stroke-opacity=".181" stroke-width="6" opacity=".704" rx="410" ry="130" transform="rotate(107.0 400 300)"/><ellipse cx="719" cy="83" fill="#ed2b2c" stroke="#f9d84b" stroke-opacity=".198" stroke-width="5" opacity=".367" rx="207" ry="62" transform="rotate(-102.0 400 300)"/><polygon fill="#31a06b" stroke="#ed2b2c" stroke-opacity=".749" stroke-width="5" points="328 544 45 196 600 223 598 376 343 171" opacity=".555" transform="rotate(-173.0 400 300)"/><ellipse cx="446" cy="509" fill="#2b55f7" stroke="#f27630" stroke-opacity=".078" stroke-width="5" opacity=".265" rx="380" ry="343" transform="rotate(8.0 400 300)"/></g></svg>