<svg xmlns="http://www.w3.org/2000/svg" xmlns:xlink="http://www.w3.org/1999/xlink" width="800" height="600" version="1.1" viewBox="0 0 800 600"><g fill="none" fill-rule="evenodd" stroke="none" stroke-width="1"><path fill="#18566D" stroke="#49D255" stroke-opacity=".452" stroke-width="5" d="M 639,321 C 681,116 609,148 107,390 C 508,162 548,476 191,487 C 190,152 252,357 389,262 C 101,207 389,291 474,449 Z" opacity=".354" transform="rotate(-169.0 400 300)"/><path fill="#6B637B" stroke="#93B06B" stroke-opacity=".223" stroke-width="7" d="M 398,181 C 465,224 637,489 182,333 C 550,171 110,244 237,390 C 625,452 430,434 246,115 C 214,408 181,465 284,264 C 496,150 197,382 287,500 C 639,239 524,314 626,264 Z" opacity=".259" transform="rotate(50.0 400 300)"/><path fill="#2B265B" stroke="#05D334" stroke-opacity=".589" stroke-width="7" d="M 632,457 C 164,149 524,286 546,314 C 460,229 280,139 357,245 C 227,485 541,353 600,206 C 584,324 320,242 427,471 C 137,268 441,311 572,248 C 488,437 280,470 673,275 C 427,451 121,381 513,469 C 289,176 351,402 331,487 Z" opacity=".244" transform="rotate(-126.0 400 300)"/><path fill="#65DD0B" stroke="#8948A1" stroke-opacity=".958" stroke-width="7" d="M 509,427 C 170,269 635,444 609,386 C 346,376 558,323 205,105 C 515,272 497,181 358,349 C 629,296 119,470 699,334 C 262,456 104,315 247,447 C 563,111 531,477 318,169 C 584,288 520,264 386,152 C 417,309 527,217 417,178 Z" opacity=".115" transform="rotate(-67.0 400 300)"/><path fill="#466254" stroke="#A6C87D" stroke-opacity=".076" stroke-width="4" d="M 514,421 C 148,194 556,163 459,153 C 510,378 237,249 458,297 C 229,404 203,375 557,168 C 518,428 426,232 618,114 Z" opacity=".609" transform="rotate(116.0 400 300)"/><path fill="#4C4CA2" stroke="#1BD658" stroke-opacity=".139" stroke-width="4" d="M 132,351 C 279,223 327,103 575,262 C 649,286 451,212 207,366 C 373,351 493,101 443,447 C 595,453 552,336 508,390 C 257,109 199,249 408,305 C 619,340 240,103 275,353 Z" opacity=".239" transform="rotate(86.0 400 300)"/><path fill="#211B13" stroke="#CD5CA8" stroke-opacity=".146" stroke-width="5" d="M 215,384 C 594,179 183,105 255,453 C 253,431 348,358 658,153 C 411,398 678,202 679,313 C 525,483 207,383 279,240 C 284,360 305,352 320,149 C 253,135 307,190 157,477 C 250,456 381,201 463,174 C 345,371 592,327 387,220 Z" opacity=".289" transform="rotate(33.0 400 300)"/><path fill="#B34BB0" stroke="#2BD363" stroke-opacity=".297" stroke-width="2" d="M 416,496 C 275,231 627,439 148,277 C 353,266 310,147 671,452 C 161,424 536,148 216,155 C 411,221 569,435 152,413 C 121,496 224,320 236,102 C 484,113 269,395 169,255 C 344,141 432,108 689,151 C 380,333 542,314 560,385 C 423,196 689,270 176,220 C 691,239 689,299 451,411 C 142,238 349,377 410,396 Z" opacity=".536" transform="rotate(117.0 400 300)"/><path fill="#C5D344" stroke="#C68CDB" stroke-opacity=".138" stroke-width="6" d="M 324,364 C 534,355 475,326 377,448 C 254,404 621,426 443,374 C 464,166 514,290 601,266 C 236,261 193,326 651,315 C 483,241 405,341 637,327 C 655,441 408,220 578,489 C 662,193 227,355 102,108 C 131,442 188,253 279,402 Z" opacity=".38" transform="rotate(121.0 400 300)"/></g></svg>