<?xml version="1.0" encoding="UTF-8"?>
<svg width="800px" height="600px" viewBox="0 0 800 600" version="1.1" xmlns="http://www.w3.org/2000/svg" xmlns:xlink="http://www.w3.org/1999/xlink">
  <defs></defs>
  <g stroke="none" stroke-width="1" fill="none" fill-rule="evenodd">
    
    <path stroke="#fe9225" stroke-width="5" fill="#02eb6b" opacity="0.4928781414183264" stroke-opacity="0.3779282993255725" transform="rotate(113.0 400 300)" d="M 552,177  C 106,309 426,481 609,487 C 539,210 589,376 342,286 C 545,270 360,102 264,184 C 640,235 176,316 683,460 C 471,197 290,203 666,341 C 695,131 518,464 119,345 C 636,495 621,183 201,377 Z"></path>
<path stroke="#02eb6b" stroke-width="6" fill="#f559a0" opacity="0.8336472669946341" stroke-opacity="0.7211457626026905" transform="rotate(94.0 400 300)" d="M 284,220  C 527,241 229,202 513,391 C 225,242 317,403 601,319 C 335,231 272,205 470,221 C 375,442 221,482 123,500 C 253,351 388,245 549,231 C 277,449 107,151 171,431 Z"></path>
<path stroke="#02eb6b" stroke-width="2" fill="#fe9225" opacity="0.5333615260560555" stroke-opacity="0.7977991284169516" transform="rotate(71.0 400 300)" d="M 370,166  C 161,426 623,497 604,119 C 677,140 663,209 594,251 C 597,270 154,166 109,339 C 341,259 474,139 559,171 C 260,355 266,128 194,101 C 133,258 325,287 175,379 C 253,257 419,297 510,294 C 610,483 680,298 544,170 C 226,449 437,374 633,193 C 570,298 563,147 525,313 Z"></path>
<path stroke="#02eb6b" stroke-width="6" fill="#2cd3f3" opacity="0.9061115463921193" stroke-opacity="0.9624759091855143" transform="rotate(-163.0 400 300)" d="M 695,384  C 503,422 285,340 682,439 C 266,297 225,429 559,146 C 463,158 399,151 146,119 C 536,261 185,392 240,267 C 653,399 177,447 669,196 C 183,119 349,376 687,475 C 116,384 278,398 698,378 C 622,184 109,142 294,321 Z"></path>
<polygon stroke="#2cd3f3" stroke-width="7" fill="#02eb6b" opacity="0.9735996523171353" stroke-opacity="0.8234874967670203" transform="rotate(-65.0 400 300)" points="771 567 378 417 583 204 583 493 307 549 491 551 406 411 "></polygon>
<path stroke="#f559a0" stroke-width="4" fill="#f559a0" opacity="0.7375274140393664" stroke-opacity="0.22436430354725626" transform="rotate(54.0 400 300)" d="M 252,464  C 637,462 662,263 121,340 C 502,426 656,271 306,474 C 305,129 460,115 121,351 C 575,406 125,368 104,435 C 104,328 304,388 179,255 Z"></path>

  </g>
</svg>
