<svg xmlns="http://www.w3.org/2000/svg" xmlns:xlink="http://www.w3.org/1999/xlink" width="800" height="600" version="1.1" viewBox="0 0 800 600"><g fill="none" fill-rule="evenodd" stroke="none" stroke-width="1"><path fill="#fe9225" stroke="#f559a0" stroke-opacity=".777" stroke-width="3" d="M 505,194 C 116,408 271,431 479,268 C 572,342 105,169 657,327 C 497,312 610,118 624,371 C 377,379 254,227 571,152 C 491,182 557,101 502,468 C 259,492 377,132 384,355 C 292,448 433,298 296,402 C 145,137 137,398 225,181 C 440,308 223,475 697,261 C 385,387 315,322 642,138 Z" opacity=".22" transform="rotate(-39.0 400 300)"/><ellipse cx="361" cy="183" fill="#fe9225" stroke="#fe9225" stroke-opacity=".151" stroke-width="1" opacity=".498" rx="206" ry="32" transform="rotate(107.0 400 300)"/><rect width="374" height="143" x="120" y="109" fill="#02eb6b" stroke="#02eb6b" stroke-opacity=".403" stroke-width="1" opacity=".393" transform="rotate(-27.0 400 300)"/><polygon fill="#fe9225" stroke="#f559a0" stroke-opacity=".623" stroke-width="2" points="795 228 314 320 214 94 711 139 787 365 648 434 553 504 66 344" opacity=".561" transform="rotate(16.0 400 300)"/><path fill="#fe9225" stroke="#fe9225" stroke-opacity=".115" stroke-width="1" d="M 136,287 C 591,436 402,313 444,200 C 333,384 224,333 233,259 C 266,381 155,332 235,210 C 658,364 369,339 678,397 C 513,197 488,498 435,466 C 399,387 620,172 447,370 Z" opacity=".55" transform="rotate(-148.0 400 300)"/><ellipse cx="439" cy="247" fill="#fe9225" stroke="#02eb6b" stroke-opacity=".099" stroke-width="2" opacity=".446" rx="264" ry="166" transform="rotate(22.0 400 300)"/><polygon fill="#2cd3f3" stroke="#fe9225" stroke-opacity=".544" stroke-width="5" points="438 273 725 362 467 515 749 72 556 177" opacity=".638" transform="rotate(-170.0 400 300)"/><polygon fill="#fe9225" stroke="#f559a0" stroke-opacity=".422" stroke-width="4" points="736 106 361 563 445 370 543 222 370 593 310 195 707 369" opacity=".097" transform="rotate(69.0 400 300)"/></g></svg>