<svg xmlns="http://www.w3.org/2000/svg" xmlns:xlink="http://www.w3.org/1999/xlink" width="800" height="600" version="1.1" viewBox="0 0 800 600"><g fill="none" fill-rule="evenodd" stroke="none" stroke-width="1"><path fill="#31a06b" stroke="#31a06b" stroke-opacity=".376" stroke-width="6" d="M 372,183 C 558,225 190,362 346,218 C 548,486 206,329 162,353 C 292,140 616,242 140,430 C 140,356 116,290 137,454 C 118,375 308,283 393,483 C 667,177 403,314 132,386 Z" opacity=".402" transform="rotate(159.0 400 300)"/><path fill="#ed2b2c" stroke="#f27630" stroke-opacity=".844" stroke-width="2" d="M 392,379 C 157,418 152,291 499,335 C 382,346 694,152 586,110 C 375,407 274,365 516,105 C 199,300 145,325 128,145 C 124,449 629,200 505,281 C 163,216 101,147 177,316 C 586,484 239,109 466,264 C 403,284 409,187 583,176 C 654,492 556,371 506,121 C 527,182 658,345 163,137 Z" opacity=".738" transform="rotate(111.0 400 300)"/><path fill="#2b55f7" stroke="#2b55f7" stroke-opacity=".53" stroke-width="2" d="M 613,233 C 637,392 119,428 681,436 C 659,397 207,466 265,414 C 293,446 696,453 657,431 C 464,305 700,301 125,103 C 404,353 296,477 470,205 C 182,352 437,238 380,347 C 451,464 466,334 207,229 C 663,173 429,278 416,254 C 128,190 103,110 411,128 C 679,131 156,174 450,166 Z" opacity=".684" transform="rotate(-74.0 400 300)"/><path fill="#f27630" stroke="#31a06b" stroke-opacity=".271" stroke-width="6" d="M 623,173 C 400,401 483,439 212,478 C 563,134 230,379 437,446 C 471,290 403,127 370,126 C 331,441 295,447 410,207 C 491,203 357,467 437,113 C 194,341 687,357 548,111 C 447,377 683,256 314,431 Z" opacity=".695" transform="rotate(-11.0 400 300)"/><path fill="#31a06b" stroke="#31a06b" stroke-opacity=".772" stroke-width="7" d="M 475,327 C 107,140 642,219 350,346 C 564,168 114,231 628,324 C 158,438 408,414 642,458 C 171,482 615,388 425,343 C 246,192 693,423 302,302 C 477,477 158,274 329,246 C 192,262 282,173 210,307 C 120,317 582,107 167,407 C 525,186 116,349 319,209 Z" opacity=".667" transform="rotate(73.0 400 300)"/><path fill="#f9d84b" stroke="#f9d84b" stroke-opacity=".208" stroke-width="2" d="M 526,107 C 449,277 698,395 668,289 C 507,110 360,488 344,500 C 379,247 543,446 604,369 C 668,343 288,147 260,411 C 262,480 614,370 265,406 C 190,426 358,148 678,315 C 220,174 444,472 386,112 C 331,136 379,480 319,187 C 394,394 188,146 345,263 C 103,325 396,206 221,469 Z" opacity=".313" transform="rotate(-4.0 400 300)"/><path fill="#ed2b2c" stroke="#f27630" stroke-opacity=".762" stroke-width="1" d="M 637,454 C 590,450 278,484 581,434 C 420,204 108,298 540,493 C 145,104 603,363 425,168 C 548,347 516,365 524,204 Z" opacity=".352" transform="rotate(170.0 400 300)"/><path fill="#31a06b" stroke="#ed2b2c" stroke-opacity=".046" stroke-width="6" d="M 189,119 C 621,207 603,120 625,474 C 539,113 652,277 266,161 C 611,251 657,320 316,253 C 227,170 108,183 430,301 C 585,204 516,440 603,429 C 205,410 569,280 650,208 Z" opacity=".618" transform="rotate(140.0 400 300)"/><path fill="#f27630" stroke="#2b55f7" stroke-opacity=".364" stroke-width="7" d="M 460,437 C 664,209 533,316 156,157 C 689,495 259,223 201,292 C 586,265 561,291 256,187 C 317,169 256,389 197,424 C 104,330 570,340 355,129 Z" opacity=".696" transform="rotate(-88.0 400 300)"/><path fill="#31a06b" stroke="#31a06b" stroke-opacity=".816" stroke-width="6" d="M 367,342 C 578,146 587,297 420,451 C 168,384 151,184 338,487 C 545,274 300,194 167,166 C 167,229 612,203 544,246 C 410,208 233,128 197,288 C 521,101 254,133 225,289 C 664,346 206,238 674,120 C 307,292 624,398 304,460 C 545,125 531,499 604,136 C 626,431 118,251 414,167 C 158,125 204,160 279,406 Z" opacity=".522" transform="rotate(142.0 400 300)"/><path fill="#2b55f7" stroke="#ed2b2c" stroke-opacity=".462" stroke-width="7" d="M 234,243 C 428,376 115,408 482,303 C 284,285 567,324 694,248 C 367,493 145,335 477,239 C 442,398 111,157 293,462 C 498,426 286,163 576,427 C 389,448 403,223 628,147 C 415,173 648,388 496,263 C 177,228 224,176 508,319 C 127,155 384,230 493,163 C 419,223 238,418 379,372 C 698,372 401,258 528,426 Z" opacity=".599" transform="rotate(-97.0 400 300)"/></g></svg>