<?xml version="1.0" encoding="UTF-8"?>
<svg width="800px" height="600px" viewBox="0 0 800 600" version="1.1" xmlns="http://www.w3.org/2000/svg" xmlns:xlink="http://www.w3.org/1999/xlink">
  <defs></defs>
  <g stroke="none" stroke-width="1" fill="none" fill-rule="evenodd">
    
    <path stroke="#2cd3f3" stroke-width="7" fill="#02eb6b" opacity="0.20938898169626965" stroke-opacity="0.7505420618165544" transform="rotate(-147.0 400 300)" d="M 614,451  C 496,389 555,251 631,308 C 523,497 165,367 523,298 C 273,159 619,449 672,413 C 645,173 304,391 574,135 C 290,243 637,464 213,435 Z"></path>
<path stroke="#fe9225" stroke-width="5" fill="#02eb6b" opacity="0.6561485374336546" stroke-opacity="0.636540696512958" transform="rotate(160.0 400 300)" d="M 308,411  C 575,145 525,211 609,324 C 199,109 487,486 632,200 C 602,111 544,206 513,416 C 169,335 456,169 695,330 Z"></path>
<path stroke="#f559a0" stroke-width="2" fill="#2cd3f3" opacity="0.691105535055293" stroke-opacity="0.6055586391372703" transform="rotate(83.0 400 300)" d="M 335,433  C 553,341 189,457 396,202 C 178,233 327,283 240,371 C 168,307 127,341 496,317 C 118,431 608,369 193,315 C 458,198 567,202 588,247 C 395,242 419,290 635,216 C 252,170 242,430 664,424 C 256,289 511,328 260,457 C 580,423 305,170 169,392 C 193,217 649,246 214,367 Z"></path>
<path stroke="#0fa6d8" stroke-width="2" fill="#fe9225" opacity="0.48090536906355946" stroke-opacity="0.02117619412042544" transform="rotate(174.0 400 300)" d="M 208,298  C 347,321 612,217 529,282 C 258,140 656,241 276,359 C 228,297 609,182 345,464 C 251,450 555,119 499,295 C 595,237 466,232 177,418 C 115,208 534,328 216,225 Z"></path>
<path stroke="#0fa6d8" stroke-width="5" fill="#2cd3f3" opacity="0.1477456328781635" stroke-opacity="0.5202610787250717" transform="rotate(-23.0 400 300)" d="M 242,461  C 480,199 457,156 141,144 C 192,406 234,431 480,232 C 533,221 427,500 363,304 C 317,271 421,131 525,293 C 328,122 183,112 554,371 C 234,267 624,438 654,411 C 498,268 618,291 286,466 Z"></path>
<path stroke="#0fa6d8" stroke-width="1" fill="#02eb6b" opacity="0.38921076121558185" stroke-opacity="0.7252805112790327" transform="rotate(12.0 400 300)" d="M 272,447  C 658,273 210,369 385,319 C 250,214 583,218 135,200 C 634,347 325,106 666,433 C 261,387 233,306 501,128 C 286,319 477,213 272,348 C 699,218 567,189 641,329 C 625,310 360,177 212,449 C 247,475 165,183 595,481 C 260,153 327,424 581,348 C 479,451 530,411 158,159 Z"></path>

  </g>
</svg>
