<svg xmlns="http://www.w3.org/2000/svg" xmlns:xlink="http://www.w3.org/1999/xlink" width="800" height="600" version="1.1" viewBox="0 0 800 600"><g fill="none" fill-rule="evenodd" stroke="none" stroke-width="1"><path fill="#09B8DC" stroke="#C39A7C" stroke-opacity=".566" stroke-width="4" d="M 327,112 C 605,123 463,494 474,234 C 586,398 635,185 568,119 C 130,166 110,444 668,193 C 502,248 670,484 660,432 C 372,337 506,321 433,278 C 480,223 588,232 129,160 Z" opacity=".749" transform="rotate(27.0 400 300)"/><path fill="#612AA8" stroke="#2740B0" stroke-opacity=".284" stroke-width="4" d="M 114,424 C 589,482 221,315 216,480 C 623,148 352,229 377,274 C 625,489 625,260 293,265 C 549,246 531,415 435,422 C 335,193 659,350 300,449 Z" opacity=".804" transform="rotate(40.0 400 300)"/><path fill="#755B3B" stroke="#BCD87B" stroke-opacity=".13" stroke-width="1" d="M 356,370 C 132,418 474,423 648,372 C 523,393 523,373 142,265 C 271,310 644,481 397,360 C 314,341 220,195 492,410 C 404,485 566,276 211,281 C 557,435 493,457 612,319 C 464,139 678,218 275,483 C 537,458 355,105 401,164 Z" opacity=".433" transform="rotate(63.0 400 300)"/><path fill="#DCA67D" stroke="#4B9A5D" stroke-opacity=".608" stroke-width="2" d="M 554,283 C 244,209 251,369 380,248 C 402,445 161,102 515,224 C 240,129 600,352 448,178 C 401,134 299,131 418,241 C 279,255 436,148 482,378 C 109,395 370,322 599,318 C 398,269 647,436 281,108 C 166,377 166,324 688,267 C 154,445 275,293 547,374 Z" opacity=".852" transform="rotate(-93.0 400 300)"/><path fill="#5C6214" stroke="#27B05C" stroke-opacity=".868" stroke-width="7" d="M 216,500 C 190,351 318,458 147,283 C 276,462 336,417 462,394 C 551,278 407,326 533,292 C 286,160 698,398 367,352 C 143,351 648,373 609,401 C 482,299 306,230 665,410 Z" opacity=".716" transform="rotate(104.0 400 300)"/><path fill="#417823" stroke="#625044" stroke-opacity=".286" stroke-width="3" d="M 303,473 C 641,176 507,251 441,455 C 369,413 362,404 365,478 C 287,154 430,146 466,225 C 103,235 575,395 627,294 C 693,350 149,390 153,477 C 664,435 553,349 293,300 C 293,206 589,493 317,240 C 479,235 437,436 360,362 Z" opacity=".348" transform="rotate(-6.0 400 300)"/></g></svg>