<svg xmlns="http://www.w3.org/2000/svg" xmlns:xlink="http://www.w3.org/1999/xlink" width="800" height="600" version="1.1" viewBox="0 0 800 600"><g fill="none" fill-rule="evenodd" stroke="none" stroke-width="1"><polygon fill="#0fa6d8" stroke="#02eb6b" stroke-opacity=".808" stroke-width="5" points="238 97 578 411 633 391 493 62 738 249" opacity=".31" transform="rotate(91.0 400 300)"/><path fill="#fe9225" stroke="#fe9225" stroke-opacity=".25" stroke-width="1" d="M 391,472 C 223,216 641,359 274,296 C 577,470 515,472 675,448 C 560,373 295,133 633,119 C 526,442 454,401 282,251 C 402,111 443,400 619,179 Z" opacity=".17" transform="rotate(-46.0 400 300)"/><ellipse cx="59" cy="176" fill="#0fa6d8" stroke="#0fa6d8" stroke-opacity=".706" stroke-width="3" opacity=".755" rx="145" ry="231" transform="rotate(119.0 400 300)"/><ellipse cx="692" cy="388" fill="#f559a0" stroke="#f559a0" stroke-opacity=".701" stroke-width="5" opacity=".055" rx="78" ry="250" transform="rotate(23.0 400 300)"/><rect width="168" height="322" x="470" y="180" fill="#2cd3f3" stroke="#2cd3f3" stroke-opacity=".23" stroke-width="7" opacity=".015" transform="rotate(-71.0 400 300)"/><polygon fill="#f559a0" stroke="#fe9225" stroke-opacity=".409" stroke-width="1" points="514 178 497 88 399 87 401 197 327 302" opacity=".111" transform="rotate(-129.0 400 300)"/></g></svg>