<svg xmlns="http://www.w3.org/2000/svg" xmlns:xlink="http://www.w3.org/1999/xlink" width="800" height="600" version="1.1" viewBox="0 0 800 600"><g fill="none" fill-rule="evenodd" stroke="none" stroke-width="1"><rect width="120" height="111" x="373" y="532" fill="#546851" stroke="#C12785" stroke-opacity=".384" stroke-width="5" opacity=".167" transform="rotate(-29.0 400 300)"/><rect width="215" height="235" x="793" y="57" fill="#77D482" stroke="#1C3B87" stroke-opacity=".4" stroke-width="6" opacity=".317" transform="rotate(88.0 400 300)"/><ellipse cx="58" cy="584" fill="#88320B" stroke="#90C4B0" stroke-opacity=".906" stroke-width="6" opacity=".532" rx="82" ry="77" transform="rotate(123.0 400 300)"/><path fill="#210D10" stroke="#8017A1" stroke-opacity=".658" stroke-width="2" d="M 220,290 C 564,158 658,307 504,189 C 650,271 279,123 551,192 C 594,371 152,278 655,363 C 565,289 115,389 194,372 C 601,275 609,325 669,477 C 435,146 613,415 484,362 C 477,138 169,254 552,386 C 516,304 313,328 337,340 C 288,347 257,230 341,446 C 278,480 497,459 676,458 C 211,471 142,353 655,186 Z" opacity=".49" transform="rotate(119.0 400 300)"/><ellipse cx="203" cy="245" fill="#432327" stroke="#3CBA3C" stroke-opacity=".378" stroke-width="6" opacity=".522" rx="269" ry="280" transform="rotate(-51.0 400 300)"/><ellipse cx="200" cy="560" fill="#B334A4" stroke="#6219BB" stroke-opacity=".1" stroke-width="7" opacity=".708" rx="441" ry="303" transform="rotate(31.0 400 300)"/></g></svg>