<?xml version="1.0" encoding="UTF-8"?>
<svg width="800px" height="600px" viewBox="0 0 800 600" version="1.1" xmlns="http://www.w3.org/2000/svg" xmlns:xlink="http://www.w3.org/1999/xlink">
  <defs></defs>
  <g stroke="none" stroke-width="1" fill="none" fill-rule="evenodd">
    
    <rect stroke="#C12785" stroke-width="5" fill="#546851" opacity="0.1669844755765989" stroke-opacity="0.3840386841185023" transform="rotate(-29.0 400 300)" x="373" y="532" width="120" height="111"></rect>
<rect stroke="#1C3B87" stroke-width="6" fill="#77D482" opacity="0.31704615324340907" stroke-opacity="0.39958889529457714" transform="rotate(88.0 400 300)" x="793" y="57" width="215" height="235"></rect>
<ellipse stroke="#90C4B0" stroke-width="6" fill="#88320B" opacity="0.5322946714935496" stroke-opacity="0.9063005291496848" transform="rotate(123.0 400 300)" cx="58" rx="82" cy="584" ry="77"></ellipse>
<path stroke="#8017A1" stroke-width="2" fill="#210D10" opacity="0.49038518161967887" stroke-opacity="0.657585799250125" transform="rotate(119.0 400 300)" d="M 220,290  C 564,158 658,307 504,189 C 650,271 279,123 551,192 C 594,371 152,278 655,363 C 565,289 115,389 194,372 C 601,275 609,325 669,477 C 435,146 613,415 484,362 C 477,138 169,254 552,386 C 516,304 313,328 337,340 C 288,347 257,230 341,446 C 278,480 497,459 676,458 C 211,471 142,353 655,186 Z"></path>
<ellipse stroke="#3CBA3C" stroke-width="6" fill="#432327" opacity="0.5215938074065427" stroke-opacity="0.3781589372492437" transform="rotate(-51.0 400 300)" cx="203" rx="269" cy="245" ry="280"></ellipse>
<ellipse stroke="#6219BB" stroke-width="7" fill="#B334A4" opacity="0.7084874659912219" stroke-opacity="0.09986131156776264" transform="rotate(31.0 400 300)" cx="200" rx="441" cy="560" ry="303"></ellipse>

  </g>
</svg>
