<?xml version="1.0" encoding="UTF-8"?>
<svg width="800px" height="600px" viewBox="0 0 800 600" version="1.1" xmlns="http://www.w3.org/2000/svg" xmlns:xlink="http://www.w3.org/1999/xlink">
  <defs></defs>
  <g stroke="none" stroke-width="1" fill="none" fill-rule="evenodd">
    
    <path stroke="#2cd3f3" stroke-width="5" fill="#f559a0" opacity="0.6821491010321437" stroke-opacity="0.5051108420118804" transform="rotate(140.0 400 300)" d="M 121,225  C 352,372 573,484 309,479 C 301,151 354,424 392,241 C 516,158 491,119 446,168 C 310,410 597,234 515,498 C 453,140 371,293 264,292 C 345,143 639,331 303,102 C 615,259 505,131 631,202 C 370,468 133,366 466,127 Z"></path>
<path stroke="#f559a0" stroke-width="2" fill="#2cd3f3" opacity="0.6338036142533672" stroke-opacity="0.9942816640977692" transform="rotate(128.0 400 300)" d="M 652,209  C 614,462 624,223 469,185 C 344,467 481,265 188,176 C 413,354 316,154 200,483 C 458,123 400,234 630,194 C 484,202 238,253 386,319 C 120,342 568,170 640,382 C 118,195 468,194 194,482 C 282,491 152,377 302,500 C 455,311 152,297 327,230 C 217,104 170,315 240,467 C 126,323 266,479 449,382 Z"></path>
<path stroke="#fe9225" stroke-width="6" fill="#0fa6d8" opacity="0.6709871550866326" stroke-opacity="0.5947668590834079" transform="rotate(-157.0 400 300)" d="M 583,155  C 208,135 210,420 118,465 C 464,380 454,418 251,216 C 625,288 416,356 580,217 C 527,277 572,145 273,160 C 387,442 483,405 649,290 C 529,171 152,411 169,105 C 449,313 352,230 474,479 C 572,301 575,268 652,435 C 502,320 284,382 623,133 C 670,309 408,453 579,147 Z"></path>
<path stroke="#0fa6d8" stroke-width="4" fill="#fe9225" opacity="0.4855980279524134" stroke-opacity="0.3305055488511426" transform="rotate(-150.0 400 300)" d="M 252,182  C 497,326 523,479 505,292 C 526,141 182,101 690,381 C 223,119 641,304 652,371 C 443,301 173,267 529,322 C 596,437 644,318 233,245 C 417,212 697,498 583,364 C 132,468 539,239 165,358 C 610,292 599,292 666,264 Z"></path>
<path stroke="#02eb6b" stroke-width="6" fill="#fe9225" opacity="0.36269108760071256" stroke-opacity="0.38597460934505473" transform="rotate(-128.0 400 300)" d="M 463,393  C 110,305 414,186 641,469 C 163,394 674,140 461,440 C 548,225 240,366 200,500 C 307,191 453,291 624,432 C 630,156 206,488 639,475 C 395,158 393,364 565,493 C 536,462 271,288 615,297 Z"></path>
<path stroke="#f559a0" stroke-width="4" fill="#f559a0" opacity="0.5396333696339467" stroke-opacity="0.0937388367023956" transform="rotate(167.0 400 300)" d="M 106,418  C 116,165 346,480 654,441 C 591,357 329,173 282,358 C 346,301 297,468 249,287 C 654,283 364,241 443,151 Z"></path>
<path stroke="#0fa6d8" stroke-width="2" fill="#2cd3f3" opacity="0.9714085260392098" stroke-opacity="0.5657210790404038" transform="rotate(73.0 400 300)" d="M 545,392  C 414,234 377,472 643,412 C 282,355 229,167 333,309 C 566,295 331,211 245,157 C 620,370 219,253 557,199 C 238,251 657,403 615,176 C 149,446 436,321 461,500 Z"></path>

  </g>
</svg>
