<svg xmlns="http://www.w3.org/2000/svg" xmlns:xlink="http://www.w3.org/1999/xlink" width="800" height="600" version="1.1" viewBox="0 0 800 600"><g fill="none" fill-rule="evenodd" stroke="none" stroke-width="1"><polygon fill="#f559a0" stroke="#f559a0" stroke-opacity=".848" stroke-width="6" points="351 562 522 476 342 344 387 290 36 314 705 176 246 445" opacity=".941" transform="rotate(47.0 400 300)"/><rect width="113" height="93" x="252" y="533" fill="#f559a0" stroke="#2cd3f3" stroke-opacity=".605" stroke-width="1" opacity=".95" transform="rotate(-74.0 400 300)"/><ellipse cx="228" cy="91" fill="#02eb6b" stroke="#02eb6b" stroke-opacity=".218" stroke-width="2" opacity=".9" rx="206" ry="277" transform="rotate(-78.0 400 300)"/><path fill="#2cd3f3" stroke="#2cd3f3" stroke-opacity=".039" stroke-width="6" d="M 480,167 C 465,386 227,244 291,209 C 565,500 122,237 613,295 C 585,401 421,295 279,343 C 259,254 536,299 195,293 C 228,166 645,418 519,109 C 255,422 233,464 516,307 Z" opacity=".413" transform="rotate(23.0 400 300)"/><polygon fill="#f559a0" stroke="#02eb6b" stroke-opacity=".288" stroke-width="2" points="551 527 697 491 468 137 309 426 703 282 668 79 659 228 438 536" opacity=".315" transform="rotate(-105.0 400 300)"/><polygon fill="#02eb6b" stroke="#2cd3f3" stroke-opacity=".107" stroke-width="3" points="409 112 300 317 26 82 347 217 196 599 387 491 36 553" opacity=".191" transform="rotate(-95.0 400 300)"/><rect width="62" height="385" x="244" y="549" fill="#fe9225" stroke="#f559a0" stroke-opacity=".958" stroke-width="6" opacity=".259" transform="rotate(155.0 400 300)"/><ellipse cx="756" cy="103" fill="#0fa6d8" stroke="#02eb6b" stroke-opacity=".069" stroke-width="4" opacity=".649" rx="104" ry="167" transform="rotate(26.0 400 300)"/></g></svg>