<svg xmlns="http://www.w3.org/2000/svg" xmlns:xlink="http://www.w3.org/1999/xlink" width="800" height="600" version="1.1" viewBox="0 0 800 600"><g fill="none" fill-rule="evenodd" stroke="none" stroke-width="1"><rect width="219" height="39" x="378" y="101" fill="#BD913C" stroke="#833690" stroke-opacity=".831" stroke-width="7" opacity=".643" transform="rotate(-43.0 400 300)"/><rect width="86" height="311" x="744" y="507" fill="#B9153A" stroke="#260070" stroke-opacity=".793" stroke-width="5" opacity=".599" transform="rotate(-40.0 400 300)"/><polygon fill="#A84599" stroke="#8ABB2A" stroke-opacity=".796" stroke-width="7" points="542 570 66 176 15 177 180 20 256 434 87 39" opacity=".895" transform="rotate(120.0 400 300)"/><ellipse cx="265" cy="495" fill="#1DA60D" stroke="#D142DA" stroke-opacity=".881" stroke-width="4" opacity=".305" rx="339" ry="222" transform="rotate(-95.0 400 300)"/><rect width="184" height="143" x="444" y="533" fill="#CA167B" stroke="#D74AC6" stroke-opacity=".944" stroke-width="6" opacity=".443" transform="rotate(130.0 400 300)"/><rect width="231" height="224" x="619" y="32" fill="#322C28" stroke="#D5A8C0" stroke-opacity=".874" stroke-width="5" opacity=".085" transform="rotate(-97.0 400 300)"/><polygon fill="#432148" stroke="#610A48" stroke-opacity=".809" stroke-width="7" points="180 168 357 294 60 325 400 79 784 1" opacity=".446" transform="rotate(-31.0 400 300)"/><ellipse cx="667" cy="331" fill="#A21BDA" stroke="#7B9B5D" stroke-opacity=".629" stroke-width="1" opacity=".784" rx="361" ry="143" transform="rotate(-112.0 400 300)"/><ellipse cx="652" cy="187" fill="#507710" stroke="#228524" stroke-opacity=".911" stroke-width="6" opacity=".211" rx="198" ry="322" transform="rotate(55.0 400 300)"/><path fill="#B6715A" stroke="#C8ADCA" stroke-opacity=".536" stroke-width="7" d="M 453,440 C 568,147 501,437 577,354 C 487,329 195,147 602,469 C 256,166 305,190 563,340 C 553,399 622,269 334,164 Z" opacity=".361" transform="rotate(-163.0 400 300)"/><ellipse cx="188" cy="222" fill="#A3C2D2" stroke="#D9D772" stroke-opacity=".889" stroke-width="5" opacity=".076" rx="285" ry="76" transform="rotate(15.0 400 300)"/></g></svg>