<?xml version="1.0" encoding="UTF-8"?>
<svg width="800px" height="600px" viewBox="0 0 800 600" version="1.1" xmlns="http://www.w3.org/2000/svg" xmlns:xlink="http://www.w3.org/1999/xlink">
  <defs></defs>
  <g stroke="none" stroke-width="1" fill="none" fill-rule="evenodd">
    
    <rect stroke="#833690" stroke-width="7" fill="#BD913C" opacity="0.6429593129470179" stroke-opacity="0.8306405623248571" transform="rotate(-43.0 400 300)" x="378" y="101" width="219" height="39"></rect>
<rect stroke="#260070" stroke-width="5" fill="#B9153A" opacity="0.5986749147424095" stroke-opacity="0.7925692948493117" transform="rotate(-40.0 400 300)" x="744" y="507" width="86" height="311"></rect>
<polygon stroke="#8ABB2A" stroke-width="7" fill="#A84599" opacity="0.8948685933539382" stroke-opacity="0.7955925301815033" transform="rotate(120.0 400 300)" points="542 570 66 176 15 177 180 20 256 434 87 39 "></polygon>
<ellipse stroke="#D142DA" stroke-width="4" fill="#1DA60D" opacity="0.30545336027292913" stroke-opacity="0.880908142618516" transform="rotate(-95.0 400 300)" cx="265" rx="339" cy="495" ry="222"></ellipse>
<rect stroke="#D74AC6" stroke-width="6" fill="#CA167B" opacity="0.44288820404701706" stroke-opacity="0.9437810877457553" transform="rotate(130.0 400 300)" x="444" y="533" width="184" height="143"></rect>
<rect stroke="#D5A8C0" stroke-width="5" fill="#322C28" opacity="0.08488597225078567" stroke-opacity="0.8740989576440858" transform="rotate(-97.0 400 300)" x="619" y="32" width="231" height="224"></rect>
<polygon stroke="#610A48" stroke-width="7" fill="#432148" opacity="0.44583959954409896" stroke-opacity="0.8092657055049974" transform="rotate(-31.0 400 300)" points="180 168 357 294 60 325 400 79 784 1 "></polygon>
<ellipse stroke="#7B9B5D" stroke-width="1" fill="#A21BDA" opacity="0.7841684773198055" stroke-opacity="0.6292859847458042" transform="rotate(-112.0 400 300)" cx="667" rx="361" cy="331" ry="143"></ellipse>
<ellipse stroke="#228524" stroke-width="6" fill="#507710" opacity="0.21050941170006404" stroke-opacity="0.9107049480764823" transform="rotate(55.0 400 300)" cx="652" rx="198" cy="187" ry="322"></ellipse>
<path stroke="#C8ADCA" stroke-width="7" fill="#B6715A" opacity="0.36076461703222873" stroke-opacity="0.5356206144804674" transform="rotate(-163.0 400 300)" d="M 453,440  C 568,147 501,437 577,354 C 487,329 195,147 602,469 C 256,166 305,190 563,340 C 553,399 622,269 334,164 Z"></path>
<ellipse stroke="#D9D772" stroke-width="5" fill="#A3C2D2" opacity="0.07645885722888729" stroke-opacity="0.8894164029476718" transform="rotate(15.0 400 300)" cx="188" rx="285" cy="222" ry="76"></ellipse>

  </g>
</svg>
