<?xml version="1.0" encoding="UTF-8"?>
<svg width="800px" height="600px" viewBox="0 0 800 600" version="1.1" xmlns="http://www.w3.org/2000/svg" xmlns:xlink="http://www.w3.org/1999/xlink">
  <defs></defs>
  <g stroke="none" stroke-width="1" fill="none" fill-rule="evenodd">
    
    <ellipse stroke="#DDA929" stroke-width="7" fill="#A22C6D" opacity="0.9248389593194116" stroke-opacity="0.3543827371000563" transform="rotate(41.0 400 300)" cx="335" rx="146" cy="415" ry="344"></ellipse>
<ellipse stroke="#5A5918" stroke-width="6" fill="#1D2443" opacity="0.7785541386046819" stroke-opacity="0.9858394989137982" transform="rotate(-30.0 400 300)" cx="525" rx="429" cy="47" ry="338"></ellipse>
<ellipse stroke="#2A2A77" stroke-width="3" fill="#31D77D" opacity="0.12539788996141657" stroke-opacity="0.6478497309468849" transform="rotate(-90.0 400 300)" cx="574" rx="285" cy="571" ry="256"></ellipse>
<path stroke="#34BA56" stroke-width="6" fill="#94B7B2" opacity="0.17669026783690636" stroke-opacity="0.38562088831051766" transform="rotate(-159.0 400 300)" d="M 464,186  C 655,319 216,265 562,428 C 355,365 220,397 347,484 C 636,186 477,192 537,243 C 263,323 552,255 205,117 C 146,130 535,447 598,217 Z"></path>
<rect stroke="#C428CA" stroke-width="6" fill="#65A685" opacity="0.2906056210047824" stroke-opacity="0.7832614757934596" transform="rotate(10.0 400 300)" x="689" y="122" width="79" height="77"></rect>
<rect stroke="#3D37DC" stroke-width="7" fill="#194473" opacity="0.5139611656291088" stroke-opacity="0.043922820081500835" transform="rotate(92.0 400 300)" x="144" y="70" width="241" height="106"></rect>
<rect stroke="#2983CA" stroke-width="7" fill="#49B4B3" opacity="0.474850022627028" stroke-opacity="0.011950009593166262" transform="rotate(-60.0 400 300)" x="736" y="381" width="104" height="316"></rect>
<rect stroke="#C62696" stroke-width="6" fill="#1CDDA4" opacity="0.018573017231607387" stroke-opacity="0.7618216085612889" transform="rotate(106.0 400 300)" x="744" y="99" width="28" height="118"></rect>

  </g>
</svg>
