<svg xmlns="http://www.w3.org/2000/svg" xmlns:xlink="http://www.w3.org/1999/xlink" width="800" height="600" version="1.1" viewBox="0 0 800 600"><g fill="none" fill-rule="evenodd" stroke="none" stroke-width="1"><ellipse cx="335" cy="415" fill="#A22C6D" stroke="#DDA929" stroke-opacity=".354" stroke-width="7" opacity=".925" rx="146" ry="344" transform="rotate(41.0 400 300)"/><ellipse cx="525" cy="47" fill="#1D2443" stroke="#5A5918" stroke-opacity=".986" stroke-width="6" opacity=".779" rx="429" ry="338" transform="rotate(-30.0 400 300)"/><ellipse cx="574" cy="571" fill="#31D77D" stroke="#2A2A77" stroke-opacity=".648" stroke-width="3" opacity=".125" rx="285" ry="256" transform="rotate(-90.0 400 300)"/><path fill="#94B7B2" stroke="#34BA56" stroke-opacity=".386" stroke-width="6" d="M 464,186 C 655,319 216,265 562,428 C 355,365 220,397 347,484 C 636,186 477,192 537,243 C 263,323 552,255 205,117 C 146,130 535,447 598,217 Z" opacity=".177" transform="rotate(-159.0 400 300)"/><rect width="79" height="77" x="689" y="122" fill="#65A685" stroke="#C428CA" stroke-opacity=".783" stroke-width="6" opacity=".291" transform="rotate(10.0 400 300)"/><rect width="241" height="106" x="144" y="70" fill="#194473" stroke="#3D37DC" stroke-opacity=".044" stroke-width="7" opacity=".514" transform="rotate(92.0 400 300)"/><rect width="104" height="316" x="736" y="381" fill="#49B4B3" stroke="#2983CA" stroke-opacity=".012" stroke-width="7" opacity=".475" transform="rotate(-60.0 400 300)"/><rect width="28" height="118" x="744" y="99" fill="#1CDDA4" stroke="#C62696" stroke-opacity=".762" stroke-width="6" opacity=".019" transform="rotate(106.0 400 300)"/></g></svg>