<?xml version="1.0" encoding="UTF-8"?>
<svg width="800px" height="600px" viewBox="0 0 800 600" version="1.1" xmlns="http://www.w3.org/2000/svg" xmlns:xlink="http://www.w3.org/1999/xlink">
  <defs></defs>
  <g stroke="none" stroke-width="1" fill="none" fill-rule="evenodd">
    
    <path stroke="#2b55f7" stroke-width="1" fill="#f9d84b" opacity="0.37158254996314555" stroke-opacity="0.650580369729403" transform="rotate(64.0 400 300)" d="M 237,188  C 184,374 197,373 604,462 C 437,408 698,487 255,444 C 690,113 451,329 178,132 C 264,472 534,495 123,411 Z"></path>
<path stroke="#f9d84b" stroke-width="6" fill="#31a06b" opacity="0.8753829609970295" stroke-opacity="0.13934012313678223" transform="rotate(-31.0 400 300)" d="M 432,490  C 104,289 246,446 113,374 C 675,166 625,387 688,208 C 665,279 313,167 125,449 C 467,254 643,110 399,455 C 563,304 625,352 299,221 C 540,404 672,184 282,306 C 653,164 235,429 319,283 C 231,234 649,188 613,101 Z"></path>
<path stroke="#f9d84b" stroke-width="1" fill="#f27630" opacity="0.34896248836584093" stroke-opacity="0.30618994370856334" transform="rotate(57.0 400 300)" d="M 281,445  C 680,195 515,220 126,364 C 584,328 433,208 158,395 C 386,340 540,319 482,471 C 271,324 337,146 543,319 C 205,186 482,401 209,443 C 531,393 586,409 371,203 C 681,410 526,474 357,292 C 494,423 326,128 490,333 Z"></path>
<path stroke="#31a06b" stroke-width="1" fill="#2b55f7" opacity="0.4886642359925865" stroke-opacity="0.9278753227895516" transform="rotate(42.0 400 300)" d="M 370,470  C 160,310 380,129 377,116 C 353,274 497,101 364,348 C 526,486 255,428 389,185 C 663,366 334,406 187,346 C 687,347 589,326 219,414 Z"></path>
<path stroke="#2b55f7" stroke-width="5" fill="#31a06b" opacity="0.3695079615722294" stroke-opacity="0.7134480794552251" transform="rotate(-88.0 400 300)" d="M 641,493  C 332,387 512,132 633,204 C 399,168 306,296 438,415 C 620,326 457,489 130,313 C 401,282 692,414 634,338 C 494,399 416,402 581,209 C 120,171 629,348 539,214 C 692,471 128,269 205,435 C 265,178 134,125 319,491 C 488,206 124,185 453,360 C 148,110 630,498 179,344 C 377,117 502,190 550,249 Z"></path>
<path stroke="#31a06b" stroke-width="7" fill="#2b55f7" opacity="0.007247973157079898" stroke-opacity="0.28961707970949535" transform="rotate(-110.0 400 300)" d="M 254,244  C 599,259 510,296 653,101 C 131,448 240,320 473,261 C 567,481 692,139 176,135 C 310,190 318,312 464,425 C 349,283 619,295 412,372 C 387,497 250,108 526,335 C 493,438 680,299 580,129 C 349,109 174,475 115,288 Z"></path>
<path stroke="#f27630" stroke-width="7" fill="#2b55f7" opacity="0.5404335883368035" stroke-opacity="0.05335595821665205" transform="rotate(-60.0 400 300)" d="M 654,117  C 498,304 150,483 155,216 C 196,488 151,285 209,309 C 285,208 472,314 542,340 C 223,279 480,388 605,137 C 131,456 587,330 688,383 C 224,496 685,461 241,184 C 482,383 386,133 518,467 Z"></path>
<path stroke="#f9d84b" stroke-width="3" fill="#31a06b" opacity="0.3316259224576886" stroke-opacity="0.27503513392517337" transform="rotate(-20.0 400 300)" d="M 603,245  C 328,207 219,107 182,163 C 437,412 131,271 466,196 C 340,256 278,202 646,445 C 614,413 632,299 137,144 C 242,481 254,460 179,339 C 372,314 470,363 289,175 C 624,445 699,105 366,202 Z"></path>
<path stroke="#31a06b" stroke-width="4" fill="#ed2b2c" opacity="0.7291528394701452" stroke-opacity="0.38004261137439915" transform="rotate(79.0 400 300)" d="M 230,160  C 603,220 403,151 343,281 C 625,292 198,364 617,349 C 445,179 462,488 332,256 C 294,298 147,453 606,454 C 632,324 247,289 427,196 C 272,421 698,251 341,197 C 457,305 596,390 136,399 C 280,318 361,161 689,391 C 512,442 466,195 277,266 C 534,455 176,107 446,108 Z"></path>
<path stroke="#31a06b" stroke-width="6" fill="#31a06b" opacity="0.8969966597590102" stroke-opacity="0.4921489516857018" transform="rotate(164.0 400 300)" d="M 443,369  C 573,285 697,443 386,227 C 371,192 645,212 206,480 C 473,124 632,182 464,306 C 671,357 458,170 201,292 C 693,113 267,120 564,358 C 452,154 565,367 257,331 C 209,176 350,494 124,191 C 639,263 272,238 497,372 C 238,111 259,110 533,410 C 203,308 668,237 520,470 Z"></path>
<path stroke="#f27630" stroke-width="5" fill="#f27630" opacity="0.26257071439850244" stroke-opacity="0.9616858599162541" transform="rotate(5.0 400 300)" d="M 595,176  C 216,425 476,107 258,111 C 404,113 206,306 613,122 C 675,489 638,347 687,426 C 544,365 195,247 312,325 C 631,473 193,438 324,391 Z"></path>

  </g>
</svg>
