<?xml version="1.0" encoding="UTF-8"?>
<svg width="800px" height="600px" viewBox="0 0 800 600" version="1.1" xmlns="http://www.w3.org/2000/svg" xmlns:xlink="http://www.w3.org/1999/xlink">
  <defs></defs>
  <g stroke="none" stroke-width="1" fill="none" fill-rule="evenodd">
    
    <path stroke="#0fa6d8" stroke-width="3" fill="#0fa6d8" opacity="0.5971917780453928" stroke-opacity="0.8141784220005377" transform="rotate(-170.0 400 300)" d="M 265,489  C 243,230 320,359 326,316 C 130,445 543,285 153,172 C 623,377 504,227 461,264 C 162,218 639,415 509,429 C 553,215 331,402 192,234 C 287,228 395,432 614,367 C 693,390 295,456 487,396 C 258,195 349,265 312,374 Z"></path>
<path stroke="#f559a0" stroke-width="6" fill="#0fa6d8" opacity="0.5862544677385733" stroke-opacity="0.11320116308108198" transform="rotate(-52.0 400 300)" d="M 309,192  C 569,238 601,413 521,300 C 531,314 593,189 680,369 C 354,289 208,462 238,484 C 501,486 189,148 341,494 C 342,473 599,353 301,319 Z"></path>
<path stroke="#0fa6d8" stroke-width="2" fill="#2cd3f3" opacity="0.15368197840779235" stroke-opacity="0.6443264266661636" transform="rotate(76.0 400 300)" d="M 239,221  C 297,187 509,182 474,217 C 183,122 207,304 402,357 C 622,254 492,408 360,426 C 276,244 227,492 534,325 C 185,219 595,412 342,147 C 547,364 533,499 380,101 C 216,450 151,338 585,224 C 137,160 446,137 249,266 Z"></path>
<path stroke="#f559a0" stroke-width="7" fill="#f559a0" opacity="0.6801787297247471" stroke-opacity="0.8488800346357294" transform="rotate(81.0 400 300)" d="M 359,232  C 377,458 389,162 600,269 C 633,115 428,466 152,367 C 311,172 242,160 281,402 C 192,407 521,101 223,484 C 139,402 534,221 661,112 C 660,498 264,253 176,425 C 419,285 341,151 664,466 C 668,430 417,408 102,141 Z"></path>
<path stroke="#f559a0" stroke-width="5" fill="#fe9225" opacity="0.5584521135872778" stroke-opacity="0.47826756253215646" transform="rotate(-174.0 400 300)" d="M 444,315  C 423,210 352,241 693,132 C 509,143 512,164 538,189 C 101,375 405,252 392,430 C 480,436 617,142 238,197 C 389,474 433,174 464,105 C 137,422 191,117 209,248 C 565,468 332,122 410,435 C 457,192 648,445 541,383 C 226,394 580,450 623,462 Z"></path>
<path stroke="#2cd3f3" stroke-width="5" fill="#f559a0" opacity="0.17084627916266723" stroke-opacity="0.09601938571562783" transform="rotate(-30.0 400 300)" d="M 481,185  C 676,263 412,352 497,425 C 140,261 491,299 700,187 C 488,200 295,174 481,304 C 491,136 365,179 198,253 C 148,451 482,448 162,256 C 645,425 642,238 320,181 C 622,188 441,181 332,408 C 439,459 194,237 249,428 C 448,412 645,334 434,146 C 593,235 325,242 213,317 C 439,367 636,190 137,243 Z"></path>

  </g>
</svg>
