<?xml version="1.0" encoding="UTF-8"?>
<svg width="800px" height="600px" viewBox="0 0 800 600" version="1.1" xmlns="http://www.w3.org/2000/svg" xmlns:xlink="http://www.w3.org/1999/xlink">
  <defs></defs>
  <g stroke="none" stroke-width="1" fill="none" fill-rule="evenodd">
    
    <polygon stroke="#090AD9" stroke-width="4" fill="#25AA75" opacity="0.4526402328942056" stroke-opacity="0.020756983448803782" transform="rotate(141.0 400 300)" points="433 403 721 481 65 455 587 450 368 88 33 11 253 583 "></polygon>
<path stroke="#6DC2A1" stroke-width="6" fill="#769962" opacity="0.6040507762391615" stroke-opacity="0.5132734942138463" transform="rotate(-69.0 400 300)" d="M 538,173  C 380,120 144,259 671,396 C 227,437 242,206 257,236 C 549,279 305,161 409,358 C 653,408 459,230 331,472 C 441,499 349,484 134,498 C 565,132 670,435 151,258 C 567,150 165,321 503,257 C 187,193 383,102 131,406 C 570,122 213,276 392,370 Z"></path>
<path stroke="#B767D3" stroke-width="7" fill="#343516" opacity="0.5990193824952332" stroke-opacity="0.23257163737708447" transform="rotate(-9.0 400 300)" d="M 396,495  C 155,224 116,471 207,192 C 331,487 482,125 415,134 C 315,245 478,165 524,121 C 123,457 486,316 501,205 C 396,239 442,388 304,237 C 603,324 419,150 172,463 Z"></path>
<ellipse stroke="#A809C8" stroke-width="6" fill="#666BC9" opacity="0.24773339474557896" stroke-opacity="0.6690823239232361" transform="rotate(-145.0 400 300)" cx="623" rx="443" cy="522" ry="156"></ellipse>
<polygon stroke="#592391" stroke-width="1" fill="#2965D6" opacity="0.4737805945300208" stroke-opacity="0.6728575198223676" transform="rotate(-4.0 400 300)" points="148 47 718 172 684 97 79 343 557 279 242 351 56 455 "></polygon>
<rect stroke="#B7D47C" stroke-width="4" fill="#931251" opacity="0.619883431765202" stroke-opacity="0.6523246382772963" transform="rotate(-17.0 400 300)" x="746" y="354" width="122" height="81"></rect>
<path stroke="#B0C030" stroke-width="2" fill="#5A1ACB" opacity="0.5904385180531001" stroke-opacity="0.7519951420941552" transform="rotate(140.0 400 300)" d="M 487,437  C 301,498 323,236 620,113 C 285,289 415,363 521,417 C 656,434 282,126 684,395 C 274,360 324,170 624,245 C 694,111 101,266 322,239 Z"></path>
<ellipse stroke="#8BACB6" stroke-width="2" fill="#D90966" opacity="0.3719156048801894" stroke-opacity="0.4431559312448216" transform="rotate(-114.0 400 300)" cx="427" rx="439" cy="539" ry="291"></ellipse>

  </g>
</svg>
