<svg xmlns="http://www.w3.org/2000/svg" xmlns:xlink="http://www.w3.org/1999/xlink" width="800" height="600" version="1.1" viewBox="0 0 800 600"><g fill="none" fill-rule="evenodd" stroke="none" stroke-width="1"><polygon fill="#25AA75" stroke="#090AD9" stroke-opacity=".021" stroke-width="4" points="433 403 721 481 65 455 587 450 368 88 33 11 253 583" opacity=".453" transform="rotate(141.0 400 300)"/><path fill="#769962" stroke="#6DC2A1" stroke-opacity=".513" stroke-width="6" d="M 538,173 C 380,120 144,259 671,396 C 227,437 242,206 257,236 C 549,279 305,161 409,358 C 653,408 459,230 331,472 C 441,499 349,484 134,498 C 565,132 670,435 151,258 C 567,150 165,321 503,257 C 187,193 383,102 131,406 C 570,122 213,276 392,370 Z" opacity=".604" transform="rotate(-69.0 400 300)"/><path fill="#343516" stroke="#B767D3" stroke-opacity=".233" stroke-width="7" d="M 396,495 C 155,224 116,471 207,192 C 331,487 482,125 415,134 C 315,245 478,165 524,121 C 123,457 486,316 501,205 C 396,239 442,388 304,237 C 603,324 419,150 172,463 Z" opacity=".599" transform="rotate(-9.0 400 300)"/><ellipse cx="623" cy="522" fill="#666BC9" stroke="#A809C8" stroke-opacity=".669" stroke-width="6" opacity=".248" rx="443" ry="156" transform="rotate(-145.0 400 300)"/><polygon fill="#2965D6" stroke="#592391" stroke-opacity=".673" stroke-width="1" points="148 47 718 172 684 97 79 343 557 279 242 351 56 455" opacity=".474" transform="rotate(-4.0 400 300)"/><rect width="122" height="81" x="746" y="354" fill="#931251" stroke="#B7D47C" stroke-opacity=".652" stroke-width="4" opacity=".62" transform="rotate(-17.0 400 300)"/><path fill="#5A1ACB" stroke="#B0C030" stroke-opacity=".752" stroke-width="2" d="M 487,437 C 301,498 323,236 620,113 C 285,289 415,363 521,417 C 656,434 282,126 684,395 C 274,360 324,170 624,245 C 694,111 101,266 322,239 Z" opacity=".59" transform="rotate(140.0 400 300)"/><ellipse cx="427" cy="539" fill="#D90966" stroke="#8BACB6" stroke-opacity=".443" stroke-width="2" opacity=".372" rx="439" ry="291" transform="rotate(-114.0 400 300)"/></g></svg>