<svg xmlns="http://www.w3.org/2000/svg" xmlns:xlink="http://www.w3.org/1999/xlink" width="800" height="600" version="1.1" viewBox="0 0 800 600"><g fill="none" fill-rule="evenodd" stroke="none" stroke-width="1"><ellipse cx="575" cy="548" fill="#319338" stroke="#489D04" stroke-opacity=".013" stroke-width="5" opacity=".798" rx="257" ry="208" transform="rotate(30.0 400 300)"/><path fill="#75B904" stroke="#196B2D" stroke-opacity=".195" stroke-width="1" d="M 678,249 C 617,240 588,312 117,498 C 580,115 680,481 421,448 C 522,422 354,112 138,405 C 210,315 579,400 571,122 C 154,372 210,458 118,163 C 449,269 247,327 617,138 C 132,297 668,323 648,121 C 464,495 655,258 217,352 C 516,399 293,204 312,382 C 243,319 630,135 297,277 C 153,432 461,457 257,270 Z" opacity=".216" transform="rotate(-115.0 400 300)"/><polygon fill="#52A0A0" stroke="#D8C5B3" stroke-opacity=".758" stroke-width="4" points="708 90 763 4 114 226 593 7 158 7 454 277 415 477 297 306" opacity=".776" transform="rotate(83.0 400 300)"/><ellipse cx="156" cy="102" fill="#BD1A45" stroke="#D93D08" stroke-opacity=".039" stroke-width="1" opacity=".142" rx="250" ry="75" transform="rotate(120.0 400 300)"/><path fill="#1086AC" stroke="#069664" stroke-opacity=".181" stroke-width="5" d="M 276,324 C 299,124 612,117 255,348 C 541,186 490,460 448,375 C 548,216 638,308 140,447 C 657,433 325,437 610,137 C 274,260 643,416 378,484 C 125,369 157,261 107,399 C 254,127 618,257 687,229 C 381,316 264,122 577,311 C 383,495 504,183 597,491 Z" opacity=".216" transform="rotate(35.0 400 300)"/><rect width="92" height="139" x="745" y="25" fill="#C50817" stroke="#CB9091" stroke-opacity=".696" stroke-width="1" opacity=".542" transform="rotate(130.0 400 300)"/><polygon fill="#88C8CA" stroke="#0A27B4" stroke-opacity=".468" stroke-width="5" points="636 324 338 32 653 385 41 396 37 48 725 437" opacity=".317" transform="rotate(103.0 400 300)"/><ellipse cx="308" cy="372" fill="#B3B1C3" stroke="#90A7D7" stroke-opacity=".172" stroke-width="4" opacity=".423" rx="386" ry="288" transform="rotate(130.0 400 300)"/><path fill="#CD7344" stroke="#36333C" stroke-opacity=".108" stroke-width="5" d="M 319,359 C 629,315 210,421 232,195 C 588,305 105,460 646,466 C 545,109 118,148 181,150 C 686,355 613,346 211,310 C 242,170 694,364 578,490 C 562,455 488,365 273,451 C 329,406 216,171 382,352 Z" opacity=".477" transform="rotate(-68.0 400 300)"/></g></svg>