<?xml version="1.0" encoding="UTF-8"?>
<svg width="800px" height="600px" viewBox="0 0 800 600" version="1.1" xmlns="http://www.w3.org/2000/svg" xmlns:xlink="http://www.w3.org/1999/xlink">
  <defs></defs>
  <g stroke="none" stroke-width="1" fill="none" fill-rule="evenodd">
    
    <ellipse stroke="#489D04" stroke-width="5" fill="#319338" opacity="0.7976736168064115" stroke-opacity="0.0128798036186773" transform="rotate(30.0 400 300)" cx="575" rx="257" cy="548" ry="208"></ellipse>
<path stroke="#196B2D" stroke-width="1" fill="#75B904" opacity="0.21584545273159597" stroke-opacity="0.1953259939989902" transform="rotate(-115.0 400 300)" d="M 678,249  C 617,240 588,312 117,498 C 580,115 680,481 421,448 C 522,422 354,112 138,405 C 210,315 579,400 571,122 C 154,372 210,458 118,163 C 449,269 247,327 617,138 C 132,297 668,323 648,121 C 464,495 655,258 217,352 C 516,399 293,204 312,382 C 243,319 630,135 297,277 C 153,432 461,457 257,270 Z"></path>
<polygon stroke="#D8C5B3" stroke-width="4" fill="#52A0A0" opacity="0.7756108919888639" stroke-opacity="0.7580223254446922" transform="rotate(83.0 400 300)" points="708 90 763 4 114 226 593 7 158 7 454 277 415 477 297 306 "></polygon>
<ellipse stroke="#D93D08" stroke-width="1" fill="#BD1A45" opacity="0.1418849078367173" stroke-opacity="0.039149248024542664" transform="rotate(120.0 400 300)" cx="156" rx="250" cy="102" ry="75"></ellipse>
<path stroke="#069664" stroke-width="5" fill="#1086AC" opacity="0.21563662788095675" stroke-opacity="0.18119392504229942" transform="rotate(35.0 400 300)" d="M 276,324  C 299,124 612,117 255,348 C 541,186 490,460 448,375 C 548,216 638,308 140,447 C 657,433 325,437 610,137 C 274,260 643,416 378,484 C 125,369 157,261 107,399 C 254,127 618,257 687,229 C 381,316 264,122 577,311 C 383,495 504,183 597,491 Z"></path>
<rect stroke="#CB9091" stroke-width="1" fill="#C50817" opacity="0.5418639859716554" stroke-opacity="0.6961538467018749" transform="rotate(130.0 400 300)" x="745" y="25" width="92" height="139"></rect>
<polygon stroke="#0A27B4" stroke-width="5" fill="#88C8CA" opacity="0.3173293580191365" stroke-opacity="0.4676672554491998" transform="rotate(103.0 400 300)" points="636 324 338 32 653 385 41 396 37 48 725 437 "></polygon>
<ellipse stroke="#90A7D7" stroke-width="4" fill="#B3B1C3" opacity="0.4227519202547419" stroke-opacity="0.17209379189711407" transform="rotate(130.0 400 300)" cx="308" rx="386" cy="372" ry="288"></ellipse>
<path stroke="#36333C" stroke-width="5" fill="#CD7344" opacity="0.4773713047375708" stroke-opacity="0.10820616442484986" transform="rotate(-68.0 400 300)" d="M 319,359  C 629,315 210,421 232,195 C 588,305 105,460 646,466 C 545,109 118,148 181,150 C 686,355 613,346 211,310 C 242,170 694,364 578,490 C 562,455 488,365 273,451 C 329,406 216,171 382,352 Z"></path>

  </g>
</svg>
