<svg xmlns="http://www.w3.org/2000/svg" xmlns:xlink="http://www.w3.org/1999/xlink" width="800" height="600" version="1.1" viewBox="0 0 800 600"><g fill="none" fill-rule="evenodd" stroke="none" stroke-width="1"><path fill="#B8653C" stroke="#88030A" stroke-opacity=".47" stroke-width="4" d="M 203,441 C 111,225 146,191 691,314 C 588,473 303,431 330,291 C 558,232 574,445 132,186 C 630,449 441,215 662,218 C 631,164 115,481 487,236 C 487,481 200,108 236,360 C 194,256 177,222 635,266 Z" opacity=".471" transform="rotate(-164.0 400 300)"/><path fill="#AB2507" stroke="#4B0228" stroke-opacity=".521" stroke-width="3" d="M 418,346 C 623,193 410,497 221,400 C 538,315 548,403 416,202 C 114,214 516,177 162,425 C 151,273 457,103 422,321 C 392,183 162,456 194,266 C 464,217 516,283 505,358 C 668,125 175,216 630,325 C 607,190 102,324 400,318 C 588,484 187,103 664,243 C 180,396 132,426 536,133 C 379,473 655,167 699,389 Z" opacity=".029" transform="rotate(96.0 400 300)"/><path fill="#29918D" stroke="#39C356" stroke-opacity=".731" stroke-width="4" d="M 458,463 C 292,210 631,399 663,306 C 569,211 312,233 268,498 C 555,348 450,485 170,356 C 499,479 595,247 510,116 C 335,364 230,414 111,193 Z" opacity=".354" transform="rotate(39.0 400 300)"/><path fill="#2A1522" stroke="#DC3581" stroke-opacity=".74" stroke-width="4" d="M 162,112 C 328,278 190,381 697,363 C 402,454 406,164 116,448 C 265,266 545,440 228,222 C 294,403 464,112 310,251 C 197,113 123,160 338,479 C 130,430 286,266 642,394 C 389,366 110,322 378,137 C 301,289 222,225 426,451 C 341,319 402,442 190,399 Z" opacity=".485" transform="rotate(-36.0 400 300)"/><path fill="#147A50" stroke="#B80C13" stroke-opacity=".124" stroke-width="4" d="M 572,129 C 449,312 292,458 541,229 C 649,120 467,431 348,196 C 576,162 592,309 331,376 C 511,482 407,407 437,115 Z" opacity=".757" transform="rotate(96.0 400 300)"/><path fill="#424C55" stroke="#BD781A" stroke-opacity=".057" stroke-width="7" d="M 263,184 C 359,195 600,280 250,476 C 526,252 377,118 137,223 C 175,374 246,489 151,435 C 298,308 277,293 300,139 C 609,164 309,390 677,242 C 135,421 245,210 504,417 C 672,120 319,454 616,381 C 466,249 162,413 365,447 C 519,305 626,497 286,486 C 398,442 608,157 223,365 C 170,123 616,177 620,439 Z" opacity=".257" transform="rotate(12.0 400 300)"/><path fill="#0B42B5" stroke="#09948C" stroke-opacity=".457" stroke-width="4" d="M 681,190 C 606,419 157,412 492,226 C 491,330 167,159 355,346 C 500,133 695,421 678,275 C 151,293 243,102 559,203 C 187,372 158,438 590,381 C 193,419 200,461 360,241 C 451,255 484,276 427,197 C 320,451 201,449 206,162 Z" opacity=".603" transform="rotate(-78.0 400 300)"/><path fill="#B9C18A" stroke="#B22560" stroke-opacity=".754" stroke-width="4" d="M 170,323 C 380,403 492,420 182,439 C 373,188 441,439 538,300 C 603,165 507,280 295,462 C 311,481 673,430 635,339 Z" opacity=".881" transform="rotate(-14.0 400 300)"/><path fill="#6D96C2" stroke="#3B068A" stroke-opacity=".211" stroke-width="5" d="M 660,127 C 668,245 112,109 671,300 C 381,337 113,253 650,426 C 169,345 178,213 149,128 C 699,384 384,254 461,288 C 535,280 372,259 196,122 C 271,290 666,439 148,160 C 621,238 163,243 395,437 C 630,201 381,197 195,138 Z" opacity=".556" transform="rotate(-59.0 400 300)"/></g></svg>