<?xml version="1.0" encoding="UTF-8"?>
<svg width="800px" height="600px" viewBox="0 0 800 600" version="1.1" xmlns="http://www.w3.org/2000/svg" xmlns:xlink="http://www.w3.org/1999/xlink">
  <defs></defs>
  <g stroke="none" stroke-width="1" fill="none" fill-rule="evenodd">
    
    <ellipse stroke="#1B13AD" stroke-width="7" fill="#869997" opacity="0.4673820181051364" stroke-opacity="0.3055241242434611" transform="rotate(11.0 400 300)" cx="435" rx="377" cy="240" ry="306"></ellipse>
<ellipse stroke="#26AB93" stroke-width="3" fill="#7382A3" opacity="0.8030307294146853" stroke-opacity="0.3251855130632219" transform="rotate(-139.0 400 300)" cx="706" rx="193" cy="480" ry="139"></ellipse>
<ellipse stroke="#90B859" stroke-width="6" fill="#A47920" opacity="0.802204790540662" stroke-opacity="0.9453775103980084" transform="rotate(-84.0 400 300)" cx="250" rx="192" cy="120" ry="31"></ellipse>
<polygon stroke="#716535" stroke-width="4" fill="#9300CD" opacity="0.7218211308392894" stroke-opacity="0.7789370116291039" transform="rotate(81.0 400 300)" points="94 461 147 309 799 122 523 24 379 384 318 339 575 85 309 151 "></polygon>
<rect stroke="#D565D3" stroke-width="3" fill="#90D2C6" opacity="0.23393696548009366" stroke-opacity="0.12237393911999352" transform="rotate(3.0 400 300)" x="5" y="149" width="390" height="197"></rect>
<rect stroke="#D189DB" stroke-width="1" fill="#1B2587" opacity="0.8355207170550254" stroke-opacity="0.6135666341937213" transform="rotate(-73.0 400 300)" x="331" y="573" width="400" height="295"></rect>
<polygon stroke="#BBD1D7" stroke-width="3" fill="#821B11" opacity="0.9135922833793093" stroke-opacity="0.7158503022064738" transform="rotate(-104.0 400 300)" points="441 536 756 130 522 69 22 487 478 88 341 115 390 138 280 500 "></polygon>
<ellipse stroke="#2C3310" stroke-width="2" fill="#D23103" opacity="0.6313758887273626" stroke-opacity="0.2702266904273566" transform="rotate(-121.0 400 300)" cx="201" rx="363" cy="404" ry="308"></ellipse>

  </g>
</svg>
