<svg xmlns="http://www.w3.org/2000/svg" xmlns:xlink="http://www.w3.org/1999/xlink" width="800" height="600" version="1.1" viewBox="0 0 800 600"><g fill="none" fill-rule="evenodd" stroke="none" stroke-width="1"><ellipse cx="435" cy="240" fill="#869997" stroke="#1B13AD" stroke-opacity=".306" stroke-width="7" opacity=".467" rx="377" ry="306" transform="rotate(11.0 400 300)"/><ellipse cx="706" cy="480" fill="#7382A3" stroke="#26AB93" stroke-opacity=".325" stroke-width="3" opacity=".803" rx="193" ry="139" transform="rotate(-139.0 400 300)"/><ellipse cx="250" cy="120" fill="#A47920" stroke="#90B859" stroke-opacity=".945" stroke-width="6" opacity=".802" rx="192" ry="31" transform="rotate(-84.0 400 300)"/><polygon fill="#9300CD" stroke="#716535" stroke-opacity=".779" stroke-width="4" points="94 461 147 309 799 122 523 24 379 384 318 339 575 85 309 151" opacity=".722" transform="rotate(81.0 400 300)"/><rect width="390" height="197" x="5" y="149" fill="#90D2C6" stroke="#D565D3" stroke-opacity=".122" stroke-width="3" opacity=".234" transform="rotate(3.0 400 300)"/><rect width="400" height="295" x="331" y="573" fill="#1B2587" stroke="#D189DB" stroke-opacity=".614" stroke-width="1" opacity=".836" transform="rotate(-73.0 400 300)"/><polygon fill="#821B11" stroke="#BBD1D7" stroke-opacity=".716" stroke-width="3" points="441 536 756 130 522 69 22 487 478 88 341 115 390 138 280 500" opacity=".914" transform="rotate(-104.0 400 300)"/><ellipse cx="201" cy="404" fill="#D23103" stroke="#2C3310" stroke-opacity=".27" stroke-width="2" opacity=".631" rx="363" ry="308" transform="rotate(-121.0 400 300)"/></g></svg>