<?xml version="1.0" encoding="UTF-8"?>
<svg width="800px" height="600px" viewBox="0 0 800 600" version="1.1" xmlns="http://www.w3.org/2000/svg" xmlns:xlink="http://www.w3.org/1999/xlink">
  <defs></defs>
  <g stroke="none" stroke-width="1" fill="none" fill-rule="evenodd">
    
    <path stroke="#ed2b2c" stroke-width="6" fill="#f9d84b" opacity="0.1284959931604746" stroke-opacity="0.7574645129274228" transform="rotate(-163.0 400 300)" d="M 342,274  C 322,267 615,440 444,206 C 205,273 427,415 694,170 C 514,302 497,303 599,484 C 609,301 303,471 594,234 C 377,317 286,121 324,146 C 527,477 311,224 516,472 Z"></path>
<rect stroke="#ed2b2c" stroke-width="1" fill="#f9d84b" opacity="0.18654247991457962" stroke-opacity="0.9888156703313868" transform="rotate(-150.0 400 300)" x="374" y="169" width="219" height="71"></rect>
<path stroke="#31a06b" stroke-width="1" fill="#ed2b2c" opacity="0.5344706178332191" stroke-opacity="0.9779159376399775" transform="rotate(167.0 400 300)" d="M 518,455  C 214,157 275,256 507,213 C 505,300 594,426 358,426 C 330,163 383,448 437,209 C 690,481 294,126 191,471 C 116,296 632,112 304,494 C 482,466 170,497 113,472 C 458,256 615,112 677,483 Z"></path>
<rect stroke="#2b55f7" stroke-width="6" fill="#f9d84b" opacity="0.801201984739872" stroke-opacity="0.4236476553588717" transform="rotate(-68.0 400 300)" x="636" y="51" width="394" height="70"></rect>
<polygon stroke="#31a06b" stroke-width="1" fill="#f9d84b" opacity="0.3041414584697947" stroke-opacity="0.32469402215475923" transform="rotate(15.0 400 300)" points="386 131 102 389 87 466 71 414 475 193 674 94 450 588 307 513 "></polygon>
<ellipse stroke="#f27630" stroke-width="1" fill="#2b55f7" opacity="0.27706297175392786" stroke-opacity="0.8110997540403546" transform="rotate(79.0 400 300)" cx="114" rx="80" cy="104" ry="45"></ellipse>
<rect stroke="#2b55f7" stroke-width="7" fill="#ed2b2c" opacity="0.5932889118779955" stroke-opacity="0.29877885752033656" transform="rotate(5.0 400 300)" x="220" y="297" width="41" height="332"></rect>
<rect stroke="#f27630" stroke-width="4" fill="#2b55f7" opacity="0.7082814133652557" stroke-opacity="0.2678715842078732" transform="rotate(114.0 400 300)" x="594" y="153" width="268" height="180"></rect>
<path stroke="#f9d84b" stroke-width="1" fill="#ed2b2c" opacity="0.1385922976158483" stroke-opacity="0.03107479110186864" transform="rotate(-120.0 400 300)" d="M 338,462  C 278,102 471,445 600,108 C 493,146 460,124 389,476 C 178,165 595,214 596,313 C 308,272 159,268 539,191 C 217,189 206,461 650,366 C 651,290 144,270 246,287 C 442,232 200,333 373,417 C 619,185 457,489 114,101 C 190,111 509,190 157,443 C 490,178 325,173 412,418 C 545,385 567,148 649,245 Z"></path>

  </g>
</svg>
