<svg xmlns="http://www.w3.org/2000/svg" xmlns:xlink="http://www.w3.org/1999/xlink" width="800" height="600" version="1.1" viewBox="0 0 800 600"><g fill="none" fill-rule="evenodd" stroke="none" stroke-width="1"><path fill="#f9d84b" stroke="#ed2b2c" stroke-opacity=".757" stroke-width="6" d="M 342,274 C 322,267 615,440 444,206 C 205,273 427,415 694,170 C 514,302 497,303 599,484 C 609,301 303,471 594,234 C 377,317 286,121 324,146 C 527,477 311,224 516,472 Z" opacity=".128" transform="rotate(-163.0 400 300)"/><rect width="219" height="71" x="374" y="169" fill="#f9d84b" stroke="#ed2b2c" stroke-opacity=".989" stroke-width="1" opacity=".187" transform="rotate(-150.0 400 300)"/><path fill="#ed2b2c" stroke="#31a06b" stroke-opacity=".978" stroke-width="1" d="M 518,455 C 214,157 275,256 507,213 C 505,300 594,426 358,426 C 330,163 383,448 437,209 C 690,481 294,126 191,471 C 116,296 632,112 304,494 C 482,466 170,497 113,472 C 458,256 615,112 677,483 Z" opacity=".534" transform="rotate(167.0 400 300)"/><rect width="394" height="70" x="636" y="51" fill="#f9d84b" stroke="#2b55f7" stroke-opacity=".424" stroke-width="6" opacity=".801" transform="rotate(-68.0 400 300)"/><polygon fill="#f9d84b" stroke="#31a06b" stroke-opacity=".325" stroke-width="1" points="386 131 102 389 87 466 71 414 475 193 674 94 450 588 307 513" opacity=".304" transform="rotate(15.0 400 300)"/><ellipse cx="114" cy="104" fill="#2b55f7" stroke="#f27630" stroke-opacity=".811" stroke-width="1" opacity=".277" rx="80" ry="45" transform="rotate(79.0 400 300)"/><rect width="41" height="332" x="220" y="297" fill="#ed2b2c" stroke="#2b55f7" stroke-opacity=".299" stroke-width="7" opacity=".593" transform="rotate(5.0 400 300)"/><rect width="268" height="180" x="594" y="153" fill="#2b55f7" stroke="#f27630" stroke-opacity=".268" stroke-width="4" opacity=".708" transform="rotate(114.0 400 300)"/><path fill="#ed2b2c" stroke="#f9d84b" stroke-opacity=".031" stroke-width="1" d="M 338,462 C 278,102 471,445 600,108 C 493,146 460,124 389,476 C 178,165 595,214 596,313 C 308,272 159,268 539,191 C 217,189 206,461 650,366 C 651,290 144,270 246,287 C 442,232 200,333 373,417 C 619,185 457,489 114,101 C 190,111 509,190 157,443 C 490,178 325,173 412,418 C 545,385 567,148 649,245 Z" opacity=".139" transform="rotate(-120.0 400 300)"/></g></svg>