<?xml version="1.0" encoding="UTF-8"?>
<svg width="800px" height="600px" viewBox="0 0 800 600" version="1.1" xmlns="http://www.w3.org/2000/svg" xmlns:xlink="http://www.w3.org/1999/xlink">
  <defs></defs>
  <g stroke="none" stroke-width="1" fill="none" fill-rule="evenodd">
    
    <path stroke="#026D84" stroke-width="1" fill="#C9335A" opacity="0.39378325338466424" stroke-opacity="0.2916441604243445" transform="rotate(39.0 400 300)" d="M 406,184  C 116,465 453,336 248,310 C 230,109 337,139 278,328 C 333,454 641,222 530,498 C 372,117 296,293 133,222 Z"></path>
<path stroke="#6D35AB" stroke-width="4" fill="#47B953" opacity="0.5052926324324885" stroke-opacity="0.9249226757972984" transform="rotate(-99.0 400 300)" d="M 403,171  C 532,403 261,481 166,350 C 445,354 297,436 174,343 C 527,372 164,393 161,271 C 295,173 487,355 388,464 C 228,350 519,395 697,152 C 127,264 342,355 456,331 C 177,452 110,307 699,120 Z"></path>
<path stroke="#5183B1" stroke-width="6" fill="#BA873C" opacity="0.2266239358136495" stroke-opacity="0.2877904242359349" transform="rotate(-76.0 400 300)" d="M 542,324  C 426,411 623,448 166,185 C 469,162 527,347 683,125 C 613,457 417,472 144,343 C 337,221 180,490 248,376 C 311,233 629,496 364,174 C 611,267 133,485 468,240 C 174,442 205,188 411,240 C 671,401 296,427 452,142 Z"></path>
<path stroke="#8946C7" stroke-width="2" fill="#9143CA" opacity="0.3378685689031497" stroke-opacity="0.9498135237438371" transform="rotate(-8.0 400 300)" d="M 475,413  C 409,436 395,176 311,311 C 573,119 666,291 552,383 C 201,246 489,138 438,162 C 378,239 198,160 299,374 C 652,102 380,244 584,332 C 152,479 697,332 165,446 Z"></path>
<path stroke="#73735B" stroke-width="3" fill="#B34CC4" opacity="0.08821804065560654" stroke-opacity="0.7555151190622962" transform="rotate(-9.0 400 300)" d="M 230,258  C 135,499 602,419 227,363 C 215,373 187,169 267,296 C 528,236 444,146 383,135 C 484,378 522,330 323,398 Z"></path>
<path stroke="#B7CA80" stroke-width="2" fill="#84962B" opacity="0.7966149695744157" stroke-opacity="0.9334109126478505" transform="rotate(89.0 400 300)" d="M 425,425  C 234,142 545,324 651,300 C 382,434 589,466 365,269 C 408,217 636,224 417,247 C 542,172 355,489 196,375 Z"></path>
<path stroke="#6D9435" stroke-width="3" fill="#23B812" opacity="0.7073129402139487" stroke-opacity="0.6353075098153862" transform="rotate(135.0 400 300)" d="M 473,120  C 270,163 232,211 241,345 C 392,398 301,163 613,368 C 432,238 341,213 681,158 C 305,369 152,406 638,112 C 291,383 676,292 471,339 C 193,112 233,351 258,369 C 395,301 521,298 308,493 Z"></path>
<path stroke="#3A87C2" stroke-width="2" fill="#3BC533" opacity="0.3556134305279483" stroke-opacity="0.6972309027097772" transform="rotate(-124.0 400 300)" d="M 384,252  C 326,142 392,431 293,136 C 596,338 648,381 667,184 C 119,104 465,383 339,248 C 498,366 147,216 677,269 C 325,459 430,155 212,275 C 682,306 346,300 207,499 C 523,161 117,483 668,309 Z"></path>
<path stroke="#8C6223" stroke-width="7" fill="#C79447" opacity="0.15826195565993512" stroke-opacity="0.6725798468290326" transform="rotate(-170.0 400 300)" d="M 507,165  C 230,194 498,324 307,340 C 415,236 132,420 548,199 C 452,106 435,240 122,380 C 122,333 316,494 290,378 C 453,381 137,268 212,147 Z"></path>

  </g>
</svg>
