<?xml version="1.0" encoding="UTF-8"?>
<svg width="800px" height="600px" viewBox="0 0 800 600" version="1.1" xmlns="http://www.w3.org/2000/svg" xmlns:xlink="http://www.w3.org/1999/xlink">
  <defs></defs>
  <g stroke="none" stroke-width="1" fill="none" fill-rule="evenodd">
    
    <rect stroke="#f9d84b" stroke-width="2" fill="#31a06b" opacity="0.18831262604084106" stroke-opacity="0.4212507903269225" transform="rotate(120.0 400 300)" x="761" y="167" width="110" height="83"></rect>
<ellipse stroke="#2b55f7" stroke-width="4" fill="#ed2b2c" opacity="0.3058888474880857" stroke-opacity="0.2705798803864217" transform="rotate(-122.0 400 300)" cx="705" rx="134" cy="496" ry="72"></ellipse>
<ellipse stroke="#2b55f7" stroke-width="7" fill="#31a06b" opacity="0.05709020586281628" stroke-opacity="0.7213990833280973" transform="rotate(-72.0 400 300)" cx="701" rx="104" cy="532" ry="192"></ellipse>
<ellipse stroke="#31a06b" stroke-width="5" fill="#ed2b2c" opacity="0.16986351715785136" stroke-opacity="0.19831116836066398" transform="rotate(-157.0 400 300)" cx="436" rx="180" cy="500" ry="145"></ellipse>
<polygon stroke="#ed2b2c" stroke-width="6" fill="#f27630" opacity="0.239387353044895" stroke-opacity="0.5940920515720829" transform="rotate(-156.0 400 300)" points="302 478 510 139 419 193 28 222 531 147 "></polygon>
<polygon stroke="#2b55f7" stroke-width="4" fill="#f9d84b" opacity="0.19977834228816618" stroke-opacity="0.32208783849948747" transform="rotate(-166.0 400 300)" points="587 199 402 440 144 272 688 79 221 452 "></polygon>
<rect stroke="#f9d84b" stroke-width="4" fill="#31a06b" opacity="0.9064674733580274" stroke-opacity="0.6471022564258139" transform="rotate(50.0 400 300)" x="701" y="406" width="118" height="260"></rect>
<path stroke="#31a06b" stroke-width="3" fill="#ed2b2c" opacity="0.0281751111458814" stroke-opacity="0.3032290384603189" transform="rotate(129.0 400 300)" d="M 102,368  C 367,465 191,448 407,284 C 667,235 647,210 306,125 C 516,398 209,494 486,431 C 541,392 610,379 183,196 C 226,214 508,162 174,163 C 451,441 379,187 630,246 C 449,496 494,494 594,387 C 417,388 346,158 612,310 C 463,202 601,226 407,334 C 250,147 513,222 596,460 Z"></path>

  </g>
</svg>
