<svg xmlns="http://www.w3.org/2000/svg" xmlns:xlink="http://www.w3.org/1999/xlink" width="800" height="600" version="1.1" viewBox="0 0 800 600"><g fill="none" fill-rule="evenodd" stroke="none" stroke-width="1"><rect width="110" height="83" x="761" y="167" fill="#31a06b" stroke="#f9d84b" stroke-opacity=".421" stroke-width="2" opacity=".188" transform="rotate(120.0 400 300)"/><ellipse cx="705" cy="496" fill="#ed2b2c" stroke="#2b55f7" stroke-opacity=".271" stroke-width="4" opacity=".306" rx="134" ry="72" transform="rotate(-122.0 400 300)"/><ellipse cx="701" cy="532" fill="#31a06b" stroke="#2b55f7" stroke-opacity=".721" stroke-width="7" opacity=".057" rx="104" ry="192" transform="rotate(-72.0 400 300)"/><ellipse cx="436" cy="500" fill="#ed2b2c" stroke="#31a06b" stroke-opacity=".198" stroke-width="5" opacity=".17" rx="180" ry="145" transform="rotate(-157.0 400 300)"/><polygon fill="#f27630" stroke="#ed2b2c" stroke-opacity=".594" stroke-width="6" points="302 478 510 139 419 193 28 222 531 147" opacity=".239" transform="rotate(-156.0 400 300)"/><polygon fill="#f9d84b" stroke="#2b55f7" stroke-opacity=".322" stroke-width="4" points="587 199 402 440 144 272 688 79 221 452" opacity=".2" transform="rotate(-166.0 400 300)"/><rect width="118" height="260" x="701" y="406" fill="#31a06b" stroke="#f9d84b" stroke-opacity=".647" stroke-width="4" opacity=".906" transform="rotate(50.0 400 300)"/><path fill="#ed2b2c" stroke="#31a06b" stroke-opacity=".303" stroke-width="3" d="M 102,368 C 367,465 191,448 407,284 C 667,235 647,210 306,125 C 516,398 209,494 486,431 C 541,392 610,379 183,196 C 226,214 508,162 174,163 C 451,441 379,187 630,246 C 449,496 494,494 594,387 C 417,388 346,158 612,310 C 463,202 601,226 407,334 C 250,147 513,222 596,460 Z" opacity=".028" transform="rotate(129.0 400 300)"/></g></svg>