<?xml version="1.0" encoding="UTF-8"?>
<svg width="800px" height="600px" viewBox="0 0 800 600" version="1.1" xmlns="http://www.w3.org/2000/svg" xmlns:xlink="http://www.w3.org/1999/xlink">
  <defs></defs>
  <g stroke="none" stroke-width="1" fill="none" fill-rule="evenodd">
    
    <path stroke="#f27630" stroke-width="5" fill="#f9d84b" opacity="0.9183077571658683" stroke-opacity="0.860367704069023" transform="rotate(49.0 400 300)" d="M 552,226  C 220,338 700,109 113,155 C 622,422 660,494 589,367 C 633,410 643,272 265,167 C 483,290 136,260 204,217 C 116,448 504,337 359,182 C 520,448 667,102 201,216 Z"></path>
<path stroke="#31a06b" stroke-width="2" fill="#f27630" opacity="0.09284708815518461" stroke-opacity="0.3416810853045314" transform="rotate(103.0 400 300)" d="M 216,274  C 268,242 129,236 460,131 C 504,434 332,419 452,410 C 619,338 661,474 117,389 C 363,443 641,478 130,304 C 151,392 380,481 419,110 C 282,119 663,462 558,235 C 677,470 451,249 577,464 C 298,193 323,264 556,296 C 291,220 503,390 124,110 C 320,376 444,341 187,323 Z"></path>
<path stroke="#f27630" stroke-width="3" fill="#ed2b2c" opacity="0.8915546875139131" stroke-opacity="0.6133444603978966" transform="rotate(-18.0 400 300)" d="M 160,391  C 608,405 354,226 340,176 C 623,306 262,415 438,124 C 663,438 143,427 603,410 C 302,263 168,387 206,165 C 348,335 339,331 115,440 C 300,158 440,496 500,489 C 297,355 455,293 625,401 C 429,414 268,249 471,186 C 481,223 658,212 265,483 C 609,228 488,272 250,420 C 230,390 450,162 315,212 Z"></path>
<path stroke="#31a06b" stroke-width="3" fill="#2b55f7" opacity="0.45618690672652124" stroke-opacity="0.06493516253526044" transform="rotate(134.0 400 300)" d="M 207,375  C 327,298 338,123 571,495 C 577,444 372,116 293,144 C 531,427 274,414 543,181 C 255,495 160,316 516,220 C 375,398 470,361 619,472 Z"></path>
<path stroke="#ed2b2c" stroke-width="2" fill="#f9d84b" opacity="0.3781743143870608" stroke-opacity="0.6591618995353057" transform="rotate(-45.0 400 300)" d="M 254,380  C 187,469 137,225 130,490 C 528,371 577,168 311,423 C 146,133 333,304 305,276 C 186,465 554,205 414,366 C 689,278 459,345 110,131 C 559,317 426,121 328,212 C 611,145 125,152 347,182 C 107,301 470,316 265,320 C 119,286 311,370 192,356 Z"></path>
<path stroke="#ed2b2c" stroke-width="6" fill="#31a06b" opacity="0.054507602793284766" stroke-opacity="0.9824750476760293" transform="rotate(-3.0 400 300)" d="M 155,162  C 503,251 470,346 444,117 C 165,189 615,483 164,459 C 569,374 652,158 592,203 C 261,338 629,265 697,203 C 327,335 210,373 498,246 C 323,375 244,119 215,177 C 304,356 435,254 251,264 C 542,432 516,331 381,251 C 216,306 484,339 478,206 Z"></path>

  </g>
</svg>
