<?xml version="1.0" encoding="UTF-8"?>
<svg width="800px" height="600px" viewBox="0 0 800 600" version="1.1" xmlns="http://www.w3.org/2000/svg" xmlns:xlink="http://www.w3.org/1999/xlink">
  <defs></defs>
  <g stroke="none" stroke-width="1" fill="none" fill-rule="evenodd">
    
    <path stroke="#AAA3CC" stroke-width="2" fill="#0BB2A2" opacity="0.4341900216391628" stroke-opacity="0.5171463017285381" transform="rotate(11.0 400 300)" d="M 613,388  C 405,171 620,326 606,199 C 653,276 449,234 374,164 C 174,498 428,245 259,461 C 121,317 397,328 368,197 C 650,352 548,404 254,110 C 312,331 643,117 173,296 Z"></path>
<path stroke="#DB5965" stroke-width="1" fill="#B6C71D" opacity="0.9485730140046572" stroke-opacity="0.6939608503092616" transform="rotate(89.0 400 300)" d="M 248,139  C 513,286 371,181 418,468 C 186,422 325,257 305,340 C 510,255 677,122 650,234 C 259,168 533,181 239,309 C 527,299 203,488 496,498 C 320,211 541,199 367,188 C 214,213 257,380 460,188 Z"></path>
<path stroke="#A3C5C7" stroke-width="1" fill="#D421DC" opacity="0.5567704353324121" stroke-opacity="0.9195063298051104" transform="rotate(-7.0 400 300)" d="M 358,190  C 389,335 459,289 259,255 C 362,499 641,197 490,302 C 407,327 335,340 267,335 C 264,361 466,129 217,331 C 452,451 306,409 689,330 C 348,232 556,239 486,455 Z"></path>
<path stroke="#4C45C4" stroke-width="6" fill="#9440B0" opacity="0.9655045913701067" stroke-opacity="0.40627813188475037" transform="rotate(137.0 400 300)" d="M 418,326  C 111,490 231,378 443,328 C 272,119 282,105 263,477 C 580,345 539,226 647,335 C 445,342 225,162 643,151 C 230,105 478,167 366,231 C 329,122 478,484 535,204 Z"></path>
<path stroke="#B6B72A" stroke-width="7" fill="#6AA552" opacity="0.14092681971242413" stroke-opacity="0.09810222203026868" transform="rotate(-123.0 400 300)" d="M 679,494  C 600,167 401,352 475,274 C 302,224 608,188 393,333 C 592,126 549,264 648,350 C 445,215 627,236 577,139 C 575,139 151,141 306,380 C 311,385 108,373 112,455 C 432,382 346,438 143,226 Z"></path>
<path stroke="#6BBD46" stroke-width="7" fill="#02A7B2" opacity="0.24690893997544627" stroke-opacity="0.1509434550018681" transform="rotate(95.0 400 300)" d="M 547,129  C 167,433 421,241 628,434 C 203,377 615,198 618,128 C 286,123 144,111 587,186 C 298,172 465,400 636,488 C 337,152 347,483 534,312 C 417,459 459,417 148,463 C 698,205 575,433 320,402 C 408,102 440,334 517,360 Z"></path>
<path stroke="#2090AB" stroke-width="2" fill="#AC6905" opacity="0.3437250305594594" stroke-opacity="0.40787694284153553" transform="rotate(-84.0 400 300)" d="M 450,180  C 280,316 416,168 456,424 C 245,384 283,202 342,176 C 570,411 127,181 474,475 C 147,156 384,161 609,300 C 494,340 330,208 114,242 C 505,360 191,191 527,167 C 458,256 162,265 239,106 Z"></path>
<path stroke="#291962" stroke-width="1" fill="#77DB4B" opacity="0.5656245414036496" stroke-opacity="0.8780764144179997" transform="rotate(-20.0 400 300)" d="M 650,295  C 487,378 154,419 478,210 C 110,486 686,438 155,289 C 504,417 416,395 413,411 C 246,344 135,204 185,337 C 639,339 188,395 667,425 Z"></path>
<path stroke="#6D4D91" stroke-width="7" fill="#85C965" opacity="0.2686446735325185" stroke-opacity="0.39272559131577506" transform="rotate(-13.0 400 300)" d="M 306,230  C 253,206 234,403 450,208 C 372,202 684,152 450,250 C 363,190 490,360 286,448 C 599,398 578,288 413,206 C 395,154 119,299 628,244 C 675,207 221,435 106,295 C 352,450 546,394 375,240 Z"></path>
<path stroke="#3D25A0" stroke-width="7" fill="#14D47D" opacity="0.8859342691663002" stroke-opacity="0.9438222026816251" transform="rotate(-18.0 400 300)" d="M 617,147  C 647,224 590,268 318,471 C 372,424 159,303 569,402 C 315,201 305,395 183,223 C 675,425 389,238 299,232 C 540,456 101,442 327,325 C 690,377 201,258 472,446 C 636,445 509,204 525,101 C 114,450 239,358 588,205 C 184,442 164,358 321,275 C 212,432 231,238 659,269 C 529,105 261,400 106,286 Z"></path>
<path stroke="#54C3CA" stroke-width="2" fill="#7A793B" opacity="0.43162852566139376" stroke-opacity="0.16894935817466986" transform="rotate(-40.0 400 300)" d="M 489,333  C 432,166 325,261 147,413 C 110,346 352,266 685,326 C 550,117 450,178 194,211 C 297,380 226,351 447,282 C 277,403 496,122 218,468 C 571,479 309,124 301,347 C 399,290 594,322 644,437 C 560,177 595,200 374,153 Z"></path>

  </g>
</svg>
