<svg xmlns="http://www.w3.org/2000/svg" xmlns:xlink="http://www.w3.org/1999/xlink" width="800" height="600" version="1.1" viewBox="0 0 800 600"><g fill="none" fill-rule="evenodd" stroke="none" stroke-width="1"><path fill="#D5570A" stroke="#B24AD6" stroke-opacity=".487" stroke-width="4" d="M 626,244 C 178,234 641,206 481,128 C 495,117 575,281 578,260 C 223,264 161,367 104,330 C 266,445 394,240 424,270 C 494,180 370,145 158,298 C 265,336 120,429 605,343 Z" opacity=".464" transform="rotate(24.0 400 300)"/><rect width="327" height="243" x="621" y="144" fill="#1DCC0A" stroke="#1B9BA6" stroke-opacity=".013" stroke-width="7" opacity=".03" transform="rotate(36.0 400 300)"/><path fill="#895A13" stroke="#D98053" stroke-opacity=".414" stroke-width="5" d="M 101,160 C 459,413 277,375 115,188 C 249,410 206,323 171,249 C 680,141 189,165 583,338 C 465,288 309,232 537,266 C 236,410 166,232 475,363 C 183,247 376,258 589,442 Z" opacity=".356" transform="rotate(9.0 400 300)"/><polygon fill="#94C231" stroke="#075C83" stroke-opacity=".173" stroke-width="7" points="355 405 799 317 784 524 293 439 623 381" opacity=".432" transform="rotate(-51.0 400 300)"/><ellipse cx="217" cy="392" fill="#8848B3" stroke="#137AC2" stroke-opacity=".968" stroke-width="4" opacity=".815" rx="339" ry="212" transform="rotate(-21.0 400 300)"/><polygon fill="#90C3BA" stroke="#C652D6" stroke-opacity=".681" stroke-width="5" points="329 506 415 434 541 229 354 97 469 325 167 388 636 534 343 137" opacity=".567" transform="rotate(-31.0 400 300)"/><polygon fill="#24407D" stroke="#028064" stroke-opacity=".595" stroke-width="7" points="466 431 242 11 65 336 239 435 328 69" opacity=".196" transform="rotate(-55.0 400 300)"/><path fill="#CA3499" stroke="#DB151B" stroke-opacity=".412" stroke-width="2" d="M 493,235 C 193,251 215,107 660,288 C 309,391 168,357 573,340 C 511,231 421,333 253,239 C 117,344 559,203 169,391 C 212,445 151,415 263,309 C 111,298 340,484 373,191 C 553,446 499,271 481,150 C 128,313 414,451 602,261 Z" opacity=".796" transform="rotate(30.0 400 300)"/><path fill="#35C139" stroke="#62ABB4" stroke-opacity=".304" stroke-width="6" d="M 495,275 C 215,160 690,103 225,223 C 450,389 695,295 512,201 C 690,334 351,273 519,379 C 329,398 310,420 286,374 C 169,178 553,264 412,406 C 261,147 330,121 638,110 C 517,333 391,478 227,466 C 275,110 206,486 670,277 Z" opacity=".897" transform="rotate(108.0 400 300)"/><rect width="276" height="370" x="441" y="205" fill="#83A634" stroke="#8D9540" stroke-opacity=".338" stroke-width="3" opacity=".469" transform="rotate(101.0 400 300)"/><rect width="275" height="230" x="266" y="80" fill="#7ABD77" stroke="#23452A" stroke-opacity=".942" stroke-width="5" opacity=".722" transform="rotate(168.0 400 300)"/></g></svg>