<svg xmlns="http://www.w3.org/2000/svg" xmlns:xlink="http://www.w3.org/1999/xlink" width="800" height="600" version="1.1" viewBox="0 0 800 600"><g fill="none" fill-rule="evenodd" stroke="none" stroke-width="1"><polygon fill="#31a06b" stroke="#2b55f7" stroke-opacity=".39" stroke-width="4" points="480 10 476 301 115 283 363 259 180 304 485 459" opacity=".749" transform="rotate(-169.0 400 300)"/><polygon fill="#31a06b" stroke="#f27630" stroke-opacity=".327" stroke-width="6" points="186 126 328 231 128 88 618 229 403 464" opacity=".922" transform="rotate(-49.0 400 300)"/><rect width="170" height="79" x="628" y="315" fill="#f9d84b" stroke="#31a06b" stroke-opacity=".002" stroke-width="4" opacity=".705" transform="rotate(-116.0 400 300)"/><path fill="#ed2b2c" stroke="#ed2b2c" stroke-opacity=".46" stroke-width="1" d="M 276,342 C 570,451 492,427 212,424 C 600,375 417,372 275,477 C 631,185 215,271 141,133 C 489,411 484,389 499,458 C 608,175 493,209 452,109 C 424,203 455,110 627,299 C 657,410 414,255 137,227 C 511,431 106,241 507,129 Z" opacity=".727" transform="rotate(-134.0 400 300)"/><path fill="#f9d84b" stroke="#31a06b" stroke-opacity=".431" stroke-width="2" d="M 573,334 C 219,355 349,309 626,247 C 495,288 508,298 460,450 C 634,218 444,274 438,184 C 476,155 451,237 404,301 C 621,204 660,464 491,218 C 213,365 580,258 607,423 C 532,245 508,203 244,107 C 456,244 389,265 393,345 Z" opacity=".34" transform="rotate(-6.0 400 300)"/><rect width="293" height="204" x="314" y="152" fill="#31a06b" stroke="#2b55f7" stroke-opacity=".309" stroke-width="5" opacity=".76" transform="rotate(108.0 400 300)"/><path fill="#f27630" stroke="#f9d84b" stroke-opacity=".506" stroke-width="2" d="M 284,414 C 641,182 500,452 578,136 C 525,317 484,420 565,444 C 426,223 597,316 700,476 C 478,496 491,329 215,143 C 460,458 559,356 341,216 C 178,466 333,277 289,173 C 496,388 263,472 292,356 C 260,498 592,464 578,349 C 698,275 159,349 366,215 C 160,109 155,127 165,347 C 475,303 490,369 328,270 Z" opacity=".941" transform="rotate(9.0 400 300)"/><path fill="#31a06b" stroke="#31a06b" stroke-opacity=".492" stroke-width="2" d="M 251,365 C 320,220 628,153 505,331 C 238,160 668,315 137,380 C 463,148 555,170 525,440 C 390,287 632,331 482,411 C 438,476 294,490 488,329 C 192,428 429,494 678,430 C 320,478 390,446 237,496 C 458,291 458,338 579,306 C 663,156 395,375 386,332 C 443,182 186,205 298,109 C 249,235 615,195 409,444 Z" opacity=".949" transform="rotate(-25.0 400 300)"/><path fill="#f27630" stroke="#2b55f7" stroke-opacity=".647" stroke-width="5" d="M 559,171 C 235,179 280,254 661,423 C 479,277 204,137 632,475 C 573,333 328,476 479,496 C 620,147 358,238 514,454 C 106,259 311,424 612,224 Z" opacity=".127" transform="rotate(24.0 400 300)"/></g></svg>