<svg xmlns="http://www.w3.org/2000/svg" xmlns:xlink="http://www.w3.org/1999/xlink" width="800" height="600" version="1.1" viewBox="0 0 800 600"><g fill="none" fill-rule="evenodd" stroke="none" stroke-width="1"><path fill="#2cd3f3" stroke="#0fa6d8" stroke-opacity=".931" stroke-width="2" d="M 240,129 C 124,265 655,429 229,340 C 419,432 264,186 572,207 C 110,357 489,227 621,189 C 511,407 693,102 600,295 C 522,476 458,134 115,382 C 402,463 120,155 151,112 Z" opacity=".775" transform="rotate(166.0 400 300)"/><path fill="#0fa6d8" stroke="#f559a0" stroke-opacity=".233" stroke-width="4" d="M 580,146 C 283,187 109,310 618,250 C 450,430 218,425 603,150 C 411,280 124,430 221,214 C 602,152 418,116 230,136 C 622,232 169,421 153,391 C 414,109 467,275 314,375 C 417,319 540,337 505,283 C 492,132 473,310 531,335 Z" opacity=".045" transform="rotate(68.0 400 300)"/><path fill="#f559a0" stroke="#2cd3f3" stroke-opacity=".674" stroke-width="2" d="M 249,341 C 252,499 324,243 664,132 C 377,228 235,368 482,451 C 302,334 206,420 515,476 C 187,468 342,330 501,252 C 238,341 260,478 212,383 C 340,162 453,324 422,156 C 612,495 522,271 239,500 C 485,339 343,461 312,357 C 526,392 111,275 117,359 C 697,492 470,221 442,208 C 207,419 349,177 201,166 Z" opacity=".093" transform="rotate(152.0 400 300)"/><path fill="#f559a0" stroke="#2cd3f3" stroke-opacity=".264" stroke-width="1" d="M 313,472 C 288,469 602,432 406,453 C 182,295 252,428 172,445 C 328,339 284,320 321,154 C 142,156 304,106 335,292 C 457,448 592,106 606,386 C 674,341 201,276 491,167 C 399,141 403,273 474,489 C 695,199 606,343 276,358 C 583,478 326,109 168,460 Z" opacity=".942" transform="rotate(-70.0 400 300)"/><path fill="#f559a0" stroke="#fe9225" stroke-opacity=".367" stroke-width="4" d="M 206,153 C 456,495 546,156 498,162 C 331,294 123,244 213,386 C 267,372 655,287 486,317 C 275,403 636,391 139,333 C 343,141 509,190 104,487 C 524,495 115,114 487,452 C 494,138 581,275 471,275 C 191,193 190,470 582,153 Z" opacity=".951" transform="rotate(-28.0 400 300)"/><path fill="#0fa6d8" stroke="#2cd3f3" stroke-opacity=".622" stroke-width="3" d="M 342,270 C 289,238 658,367 603,317 C 492,170 631,342 514,285 C 198,456 316,416 327,296 C 434,473 583,380 373,499 C 661,131 546,197 666,348 Z" opacity=".057" transform="rotate(-99.0 400 300)"/><path fill="#2cd3f3" stroke="#02eb6b" stroke-opacity=".433" stroke-width="6" d="M 423,254 C 546,486 224,445 560,167 C 469,425 698,500 211,406 C 289,499 349,278 207,171 C 671,345 352,420 346,183 C 504,227 508,467 321,407 C 663,178 389,344 614,331 C 633,354 461,155 320,368 C 633,187 136,199 220,425 C 393,208 571,104 464,260 Z" opacity=".042" transform="rotate(-73.0 400 300)"/><path fill="#fe9225" stroke="#2cd3f3" stroke-opacity=".139" stroke-width="2" d="M 576,319 C 333,424 566,210 380,278 C 604,444 566,389 481,376 C 268,470 138,284 571,117 C 537,413 411,212 591,419 C 644,432 599,150 465,191 C 315,226 523,480 574,219 C 379,351 369,485 656,257 Z" opacity=".324" transform="rotate(63.0 400 300)"/><path fill="#2cd3f3" stroke="#02eb6b" stroke-opacity=".496" stroke-width="5" d="M 166,492 C 173,247 677,394 367,149 C 395,337 670,304 319,324 C 399,150 235,469 208,427 C 204,500 411,164 398,293 C 262,362 342,347 669,341 C 310,415 434,332 144,262 C 478,357 194,185 395,241 C 543,286 502,497 133,374 C 547,185 528,366 699,307 Z" opacity=".478" transform="rotate(43.0 400 300)"/><path fill="#02eb6b" stroke="#02eb6b" stroke-opacity=".61" stroke-width="1" d="M 363,259 C 229,332 646,375 277,150 C 384,280 153,330 476,128 C 658,337 583,424 185,482 C 159,150 490,293 587,108 C 514,383 528,178 523,203 C 318,304 354,364 390,425 C 650,219 456,317 107,298 C 280,346 453,252 428,104 C 340,107 328,315 321,398 C 443,322 662,231 665,225 Z" opacity=".309" transform="rotate(-61.0 400 300)"/><path fill="#0fa6d8" stroke="#0fa6d8" stroke-opacity=".538" stroke-width="1" d="M 137,346 C 474,245 201,159 389,221 C 230,454 213,215 700,400 C 139,285 316,376 282,415 C 587,335 164,496 286,371 C 673,413 427,197 247,184 C 533,246 284,115 360,260 C 686,242 351,154 584,161 C 528,379 656,293 697,388 Z" opacity=".262" transform="rotate(142.0 400 300)"/></g></svg>