<svg xmlns="http://www.w3.org/2000/svg" xmlns:xlink="http://www.w3.org/1999/xlink" width="800" height="600" version="1.1" viewBox="0 0 800 600"><g fill="none" fill-rule="evenodd" stroke="none" stroke-width="1"><rect width="363" height="45" x="4" y="465" fill="#ed2b2c" stroke="#f9d84b" stroke-opacity=".122" stroke-width="6" opacity=".604" transform="rotate(9.0 400 300)"/><ellipse cx="618" cy="34" fill="#f27630" stroke="#f9d84b" stroke-opacity=".801" stroke-width="7" opacity=".469" rx="230" ry="272" transform="rotate(-84.0 400 300)"/><polygon fill="#f27630" stroke="#f27630" stroke-opacity=".513" stroke-width="4" points="117 585 30 116 609 341 316 408 429 110 435 105 468 175 664 103" opacity=".244" transform="rotate(46.0 400 300)"/><rect width="164" height="34" x="379" y="521" fill="#f27630" stroke="#f27630" stroke-opacity=".621" stroke-width="1" opacity=".818" transform="rotate(179.0 400 300)"/><path fill="#ed2b2c" stroke="#ed2b2c" stroke-opacity=".345" stroke-width="4" d="M 338,171 C 380,342 278,134 248,422 C 218,260 443,497 258,346 C 464,426 441,342 368,453 C 669,166 153,226 633,425 C 442,473 318,328 328,179 Z" opacity=".139" transform="rotate(47.0 400 300)"/><rect width="182" height="101" x="232" y="389" fill="#f9d84b" stroke="#f9d84b" stroke-opacity=".366" stroke-width="1" opacity=".763" transform="rotate(71.0 400 300)"/></g></svg>