<?xml version="1.0" encoding="UTF-8"?>
<svg width="800px" height="600px" viewBox="0 0 800 600" version="1.1" xmlns="http://www.w3.org/2000/svg" xmlns:xlink="http://www.w3.org/1999/xlink">
  <defs></defs>
  <g stroke="none" stroke-width="1" fill="none" fill-rule="evenodd">
    
    <path stroke="#6AA524" stroke-width="4" fill="#D711CC" opacity="0.02493364204649479" stroke-opacity="0.0108194763589029" transform="rotate(59.0 400 300)" d="M 656,159  C 464,317 309,145 133,265 C 505,327 450,498 400,393 C 615,459 630,121 365,252 C 366,254 294,250 340,416 C 400,230 555,386 557,147 C 569,137 623,375 254,264 C 491,267 493,319 541,171 C 289,291 161,145 558,155 Z"></path>
<polygon stroke="#CC90D4" stroke-width="2" fill="#684B1C" opacity="0.10417049875152598" stroke-opacity="0.7003959025489145" transform="rotate(120.0 400 300)" points="442 33 95 24 699 244 482 237 636 33 "></polygon>
<polygon stroke="#5B32A5" stroke-width="7" fill="#9A7AA7" opacity="0.1486824060942466" stroke-opacity="0.5628803033211174" transform="rotate(103.0 400 300)" points="264 360 72 124 325 97 392 78 417 235 673 551 403 271 449 31 "></polygon>
<path stroke="#96DD6B" stroke-width="3" fill="#351386" opacity="0.8158299990200032" stroke-opacity="0.7360100397141919" transform="rotate(173.0 400 300)" d="M 335,177  C 389,371 342,295 232,476 C 205,321 691,437 188,212 C 102,443 148,472 630,390 C 337,444 201,402 542,183 C 220,218 623,194 227,412 Z"></path>
<path stroke="#475635" stroke-width="7" fill="#6B2A80" opacity="0.5536693000661435" stroke-opacity="0.9344613873208854" transform="rotate(14.0 400 300)" d="M 638,261  C 259,218 468,250 470,127 C 184,398 599,179 178,311 C 678,177 349,279 688,182 C 364,498 408,364 511,246 C 301,295 169,127 558,369 C 610,412 281,319 342,500 Z"></path>
<ellipse stroke="#636132" stroke-width="4" fill="#8B7665" opacity="0.1808991999894779" stroke-opacity="0.952124727302397" transform="rotate(-116.0 400 300)" cx="470" rx="284" cy="321" ry="347"></ellipse>

  </g>
</svg>
