<svg xmlns="http://www.w3.org/2000/svg" xmlns:xlink="http://www.w3.org/1999/xlink" width="800" height="600" version="1.1" viewBox="0 0 800 600"><g fill="none" fill-rule="evenodd" stroke="none" stroke-width="1"><path fill="#D711CC" stroke="#6AA524" stroke-opacity=".011" stroke-width="4" d="M 656,159 C 464,317 309,145 133,265 C 505,327 450,498 400,393 C 615,459 630,121 365,252 C 366,254 294,250 340,416 C 400,230 555,386 557,147 C 569,137 623,375 254,264 C 491,267 493,319 541,171 C 289,291 161,145 558,155 Z" opacity=".025" transform="rotate(59.0 400 300)"/><polygon fill="#684B1C" stroke="#CC90D4" stroke-opacity=".7" stroke-width="2" points="442 33 95 24 699 244 482 237 636 33" opacity=".104" transform="rotate(120.0 400 300)"/><polygon fill="#9A7AA7" stroke="#5B32A5" stroke-opacity=".563" stroke-width="7" points="264 360 72 124 325 97 392 78 417 235 673 551 403 271 449 31" opacity=".149" transform="rotate(103.0 400 300)"/><path fill="#351386" stroke="#96DD6B" stroke-opacity=".736" stroke-width="3" d="M 335,177 C 389,371 342,295 232,476 C 205,321 691,437 188,212 C 102,443 148,472 630,390 C 337,444 201,402 542,183 C 220,218 623,194 227,412 Z" opacity=".816" transform="rotate(173.0 400 300)"/><path fill="#6B2A80" stroke="#475635" stroke-opacity=".934" stroke-width="7" d="M 638,261 C 259,218 468,250 470,127 C 184,398 599,179 178,311 C 678,177 349,279 688,182 C 364,498 408,364 511,246 C 301,295 169,127 558,369 C 610,412 281,319 342,500 Z" opacity=".554" transform="rotate(14.0 400 300)"/><ellipse cx="470" cy="321" fill="#8B7665" stroke="#636132" stroke-opacity=".952" stroke-width="4" opacity=".181" rx="284" ry="347" transform="rotate(-116.0 400 300)"/></g></svg>