<svg xmlns="http://www.w3.org/2000/svg" xmlns:xlink="http://www.w3.org/1999/xlink" width="800" height="600" version="1.1" viewBox="0 0 800 600"><g fill="none" fill-rule="evenodd" stroke="none" stroke-width="1"><polygon fill="#fe9225" stroke="#0fa6d8" stroke-opacity=".02" stroke-width="4" points="717 288 721 32 7 333 345 101 99 314 572 403 598 247" opacity=".391" transform="rotate(-40.0 400 300)"/><ellipse cx="344" cy="590" fill="#f559a0" stroke="#02eb6b" stroke-opacity=".112" stroke-width="4" opacity=".627" rx="57" ry="272" transform="rotate(-112.0 400 300)"/><polygon fill="#02eb6b" stroke="#2cd3f3" stroke-opacity=".185" stroke-width="1" points="667 83 482 81 170 301 440 444 745 219 168 341" opacity=".716" transform="rotate(-11.0 400 300)"/><rect width="193" height="256" x="275" y="116" fill="#0fa6d8" stroke="#02eb6b" stroke-opacity=".041" stroke-width="3" opacity=".91" transform="rotate(-100.0 400 300)"/><polygon fill="#0fa6d8" stroke="#0fa6d8" stroke-opacity=".508" stroke-width="4" points="766 456 350 29 642 74 648 1 407 406 202 198 644 13" opacity=".295" transform="rotate(61.0 400 300)"/><rect width="292" height="142" x="340" y="29" fill="#fe9225" stroke="#0fa6d8" stroke-opacity=".03" stroke-width="2" opacity=".382" transform="rotate(-94.0 400 300)"/><path fill="#0fa6d8" stroke="#02eb6b" stroke-opacity=".211" stroke-width="6" d="M 337,340 C 655,264 326,222 199,367 C 583,496 494,134 610,262 C 216,124 277,455 470,217 C 366,136 226,352 476,449 C 333,305 637,229 302,162 Z" opacity=".42" transform="rotate(-154.0 400 300)"/><ellipse cx="140" cy="170" fill="#fe9225" stroke="#02eb6b" stroke-opacity=".023" stroke-width="5" opacity=".805" rx="261" ry="76" transform="rotate(-125.0 400 300)"/><rect width="227" height="192" x="517" y="406" fill="#0fa6d8" stroke="#2cd3f3" stroke-opacity=".637" stroke-width="3" opacity=".126" transform="rotate(16.0 400 300)"/><polygon fill="#f559a0" stroke="#0fa6d8" stroke-opacity=".952" stroke-width="5" points="169 217 775 61 541 70 288 72 671 422 380 260 603 261 32 49" opacity=".046" transform="rotate(176.0 400 300)"/><path fill="#2cd3f3" stroke="#0fa6d8" stroke-opacity=".687" stroke-width="4" d="M 356,125 C 250,232 651,311 604,284 C 104,229 204,465 424,487 C 619,458 545,486 337,175 C 690,216 185,351 482,345 C 232,470 428,396 109,214 C 493,288 157,148 537,315 C 166,497 443,422 590,186 Z" opacity=".891" transform="rotate(-46.0 400 300)"/></g></svg>