<?xml version="1.0" encoding="UTF-8"?>
<svg width="800px" height="600px" viewBox="0 0 800 600" version="1.1" xmlns="http://www.w3.org/2000/svg" xmlns:xlink="http://www.w3.org/1999/xlink">
  <defs></defs>
  <g stroke="none" stroke-width="1" fill="none" fill-rule="evenodd">
    
    <path stroke="#0fa6d8" stroke-width="6" fill="#f559a0" opacity="0.19911664406899635" stroke-opacity="0.6236340072825325" transform="rotate(-134.0 400 300)" d="M 665,328  C 642,245 427,107 694,409 C 438,353 617,139 481,252 C 571,121 451,233 393,426 C 232,239 479,128 449,389 C 261,294 399,470 342,276 C 627,205 335,418 578,464 C 416,137 607,287 380,339 C 416,411 494,383 470,295 C 485,232 653,120 253,301 C 327,167 533,186 239,499 C 391,372 297,331 453,158 Z"></path>
<path stroke="#0fa6d8" stroke-width="3" fill="#0fa6d8" opacity="0.9999968629097605" stroke-opacity="0.9848618900469029" transform="rotate(-147.0 400 300)" d="M 342,432  C 659,317 421,142 630,164 C 661,391 396,405 289,384 C 530,435 117,396 217,337 C 166,268 288,402 684,381 C 655,177 150,400 167,390 C 173,154 190,413 416,316 C 121,209 482,424 657,422 C 361,231 299,364 450,387 C 463,488 380,359 213,147 Z"></path>
<path stroke="#2cd3f3" stroke-width="1" fill="#0fa6d8" opacity="0.6206522748584509" stroke-opacity="0.365390209291698" transform="rotate(-57.0 400 300)" d="M 399,419  C 524,113 132,351 291,271 C 395,330 432,254 139,416 C 178,491 557,345 340,162 C 418,135 620,196 343,367 Z"></path>
<path stroke="#f559a0" stroke-width="5" fill="#f559a0" opacity="0.6494925982827581" stroke-opacity="0.20129679443586698" transform="rotate(7.0 400 300)" d="M 481,165  C 317,132 331,220 322,354 C 365,260 535,214 164,186 C 667,445 438,123 397,472 C 134,381 282,308 289,460 C 549,192 207,374 230,167 Z"></path>
<path stroke="#2cd3f3" stroke-width="3" fill="#fe9225" opacity="0.23064547203979835" stroke-opacity="0.8258551513495984" transform="rotate(-161.0 400 300)" d="M 608,176  C 377,331 103,361 635,467 C 226,269 628,228 523,463 C 222,330 634,437 517,295 C 504,486 286,168 632,107 C 452,368 397,162 169,121 C 632,225 192,335 485,378 C 584,246 237,385 493,445 C 433,138 152,155 295,280 C 264,430 134,121 109,149 C 186,428 364,237 576,374 Z"></path>
<path stroke="#fe9225" stroke-width="5" fill="#2cd3f3" opacity="0.9141318881500006" stroke-opacity="0.8809918732736367" transform="rotate(50.0 400 300)" d="M 621,213  C 613,205 632,426 161,418 C 123,464 500,472 662,341 C 147,379 313,126 250,385 C 633,480 426,152 173,240 C 529,131 577,226 109,283 C 416,116 103,496 316,350 Z"></path>
<path stroke="#f559a0" stroke-width="1" fill="#fe9225" opacity="0.19700922876825763" stroke-opacity="0.9701152718764294" transform="rotate(121.0 400 300)" d="M 368,466  C 634,273 525,460 614,338 C 661,128 229,161 161,177 C 430,305 638,362 445,235 C 554,301 525,254 429,427 C 549,487 135,274 414,360 Z"></path>
<path stroke="#fe9225" stroke-width="2" fill="#0fa6d8" opacity="0.5328056887021878" stroke-opacity="0.6817187194079233" transform="rotate(58.0 400 300)" d="M 664,170  C 197,319 465,306 410,236 C 349,336 571,221 203,261 C 570,229 234,405 201,136 C 685,270 221,401 116,299 C 242,135 116,195 500,318 C 653,285 311,499 401,204 C 262,498 261,101 211,333 C 157,480 435,119 334,336 C 623,289 327,395 126,148 C 307,124 585,435 665,182 C 258,412 696,264 112,144 Z"></path>

  </g>
</svg>
