<svg xmlns="http://www.w3.org/2000/svg" xmlns:xlink="http://www.w3.org/1999/xlink" width="800" height="600" version="1.1" viewBox="0 0 800 600"><g fill="none" fill-rule="evenodd" stroke="none" stroke-width="1"><path fill="#C846C0" stroke="#81034A" stroke-opacity=".687" stroke-width="5" d="M 521,465 C 321,130 567,375 442,486 C 290,350 175,438 550,144 C 620,257 186,228 408,262 C 592,467 696,300 628,124 C 127,330 657,230 172,246 C 379,254 611,445 187,336 C 195,185 342,448 454,172 Z" opacity=".227" transform="rotate(-59.0 400 300)"/><path fill="#03C668" stroke="#BC4748" stroke-opacity=".531" stroke-width="7" d="M 351,439 C 290,443 628,197 596,414 C 427,292 683,273 102,468 C 230,350 573,211 153,332 C 444,314 538,468 145,332 C 606,206 264,237 498,456 C 532,382 371,245 292,227 C 296,152 186,171 588,247 C 249,221 439,307 599,478 C 591,297 289,243 641,235 C 445,375 488,447 135,435 Z" opacity=".863" transform="rotate(14.0 400 300)"/><path fill="#D70D98" stroke="#A892CA" stroke-opacity=".57" stroke-width="2" d="M 267,436 C 455,483 258,497 199,208 C 660,378 521,447 333,199 C 119,286 209,408 137,317 C 467,150 432,227 659,449 C 268,424 467,283 688,205 C 508,499 530,128 174,369 C 695,102 649,204 477,256 Z" opacity=".47" transform="rotate(-85.0 400 300)"/><path fill="#9C1B8A" stroke="#D9BD16" stroke-opacity=".741" stroke-width="5" d="M 598,228 C 176,332 410,176 409,156 C 531,323 190,302 117,176 C 399,239 314,339 587,373 C 368,116 442,155 559,248 Z" opacity=".655" transform="rotate(-9.0 400 300)"/><path fill="#C10A0A" stroke="#981534" stroke-opacity=".764" stroke-width="1" d="M 150,136 C 428,377 663,441 499,367 C 443,423 662,463 514,119 C 351,262 368,201 176,418 C 346,474 192,449 432,172 C 327,199 292,296 384,445 C 403,422 502,147 510,172 C 476,329 115,410 452,380 Z" opacity=".1" transform="rotate(65.0 400 300)"/><path fill="#BB3820" stroke="#53B414" stroke-opacity=".473" stroke-width="6" d="M 288,112 C 306,379 257,422 294,198 C 467,153 109,177 216,306 C 109,229 522,210 255,355 C 555,142 403,218 196,494 C 282,110 409,390 151,222 C 335,459 474,310 389,347 C 203,287 357,120 211,495 C 286,164 391,492 639,478 C 300,264 210,448 602,217 Z" opacity=".68" transform="rotate(-176.0 400 300)"/><path fill="#89AA97" stroke="#5B2C70" stroke-opacity=".663" stroke-width="4" d="M 605,346 C 245,277 465,192 571,431 C 679,387 125,362 559,327 C 131,404 521,274 411,353 C 469,132 562,215 376,334 C 199,361 234,359 211,129 C 527,171 543,466 151,188 Z" opacity=".117" transform="rotate(-163.0 400 300)"/></g></svg>