<svg xmlns="http://www.w3.org/2000/svg" xmlns:xlink="http://www.w3.org/1999/xlink" width="800" height="600" version="1.1" viewBox="0 0 800 600"><g fill="none" fill-rule="evenodd" stroke="none" stroke-width="1"><path fill="#ed2b2c" stroke="#ed2b2c" stroke-opacity=".515" stroke-width="7" d="M 149,459 C 254,215 284,216 135,436 C 650,258 422,378 510,365 C 213,260 152,442 670,307 C 254,320 496,304 232,406 C 664,196 409,240 585,107 C 511,450 558,469 435,101 C 211,309 473,208 421,413 C 559,178 653,183 139,415 C 136,357 572,344 333,162 C 349,168 649,311 657,405 Z" opacity=".574" transform="rotate(22.0 400 300)"/><path fill="#f27630" stroke="#31a06b" stroke-opacity=".482" stroke-width="6" d="M 612,474 C 637,499 657,244 154,317 C 589,188 187,387 236,326 C 589,410 222,495 188,383 C 350,361 122,391 618,446 C 238,313 179,228 618,323 C 255,272 460,375 146,426 Z" opacity=".294" transform="rotate(-82.0 400 300)"/><path fill="#f9d84b" stroke="#f9d84b" stroke-opacity=".89" stroke-width="4" d="M 595,156 C 413,250 381,445 163,327 C 339,121 598,338 483,404 C 410,483 654,213 386,102 C 617,419 122,324 162,169 Z" opacity=".075" transform="rotate(-63.0 400 300)"/><path fill="#f9d84b" stroke="#ed2b2c" stroke-opacity=".91" stroke-width="6" d="M 127,212 C 127,142 536,256 125,340 C 224,447 341,329 204,230 C 356,350 249,317 511,483 C 389,359 234,411 536,346 C 143,177 116,181 462,273 C 451,500 122,354 329,387 C 498,189 521,359 412,469 Z" opacity=".664" transform="rotate(9.0 400 300)"/><path fill="#ed2b2c" stroke="#f9d84b" stroke-opacity=".428" stroke-width="5" d="M 279,204 C 424,122 340,457 422,265 C 286,414 585,228 575,332 C 315,295 537,346 646,323 C 674,202 189,485 337,424 C 347,209 372,162 108,280 C 394,347 459,281 683,225 C 573,374 693,246 653,468 C 511,377 102,483 203,476 C 535,169 615,106 235,127 C 644,176 541,348 245,376 Z" opacity=".223" transform="rotate(-91.0 400 300)"/><path fill="#31a06b" stroke="#31a06b" stroke-opacity=".653" stroke-width="2" d="M 459,301 C 116,316 272,147 112,489 C 344,427 583,244 602,188 C 335,328 181,124 128,329 C 450,176 308,172 433,139 C 663,490 208,334 182,108 C 424,454 511,224 588,231 C 491,117 614,285 175,265 Z" opacity=".455" transform="rotate(-167.0 400 300)"/><path fill="#f9d84b" stroke="#31a06b" stroke-opacity=".102" stroke-width="3" d="M 529,176 C 248,284 584,141 218,432 C 373,436 668,489 261,180 C 367,200 208,367 361,213 C 501,484 203,207 323,320 C 326,202 145,400 582,240 C 318,165 616,319 158,203 C 325,130 665,262 351,433 Z" opacity=".55" transform="rotate(-128.0 400 300)"/><path fill="#ed2b2c" stroke="#f27630" stroke-opacity=".605" stroke-width="6" d="M 125,224 C 222,238 298,444 274,160 C 478,457 319,334 601,323 C 271,330 697,483 680,170 C 320,200 145,496 539,342 C 496,327 573,196 132,111 C 111,389 372,385 303,469 C 676,259 230,148 616,442 C 617,372 305,471 329,290 C 102,398 487,379 509,365 C 142,205 120,306 435,226 C 343,186 409,188 456,326 Z" opacity=".612" transform="rotate(10.0 400 300)"/><path fill="#f9d84b" stroke="#31a06b" stroke-opacity=".555" stroke-width="4" d="M 446,498 C 395,419 657,371 244,408 C 312,265 610,435 491,125 C 675,360 600,446 629,463 C 445,339 565,406 167,109 C 663,307 162,297 396,350 C 634,129 577,448 560,413 C 328,238 193,499 263,470 C 651,181 653,190 243,121 C 265,216 209,160 124,453 C 417,158 256,116 418,470 C 417,184 271,255 579,315 Z" opacity=".65" transform="rotate(-168.0 400 300)"/><path fill="#f9d84b" stroke="#f27630" stroke-opacity=".998" stroke-width="5" d="M 346,390 C 689,360 523,363 432,271 C 190,486 479,197 526,260 C 598,298 172,462 686,409 C 644,361 553,191 417,415 C 536,219 544,435 343,220 C 608,454 294,339 593,226 Z" opacity=".634" transform="rotate(161.0 400 300)"/><path fill="#f27630" stroke="#2b55f7" stroke-opacity=".174" stroke-width="3" d="M 590,205 C 203,475 470,356 534,251 C 466,238 254,376 253,482 C 223,343 365,149 180,425 C 638,323 533,342 388,123 C 699,157 352,455 624,410 C 338,240 230,418 632,273 Z" opacity=".524" transform="rotate(-133.0 400 300)"/></g></svg>