<?xml version="1.0" encoding="UTF-8"?>
<svg width="800px" height="600px" viewBox="0 0 800 600" version="1.1" xmlns="http://www.w3.org/2000/svg" xmlns:xlink="http://www.w3.org/1999/xlink">
  <defs></defs>
  <g stroke="none" stroke-width="1" fill="none" fill-rule="evenodd">
    
    <path stroke="#2b55f7" stroke-width="3" fill="#ed2b2c" opacity="0.69807257923553" stroke-opacity="0.7287629207465974" transform="rotate(29.0 400 300)" d="M 232,267  C 543,439 106,173 407,356 C 177,462 360,344 668,457 C 149,396 117,122 387,412 C 538,370 292,401 546,232 C 686,378 673,346 211,208 C 568,444 374,168 542,449 C 499,255 462,464 434,107 C 195,257 240,257 374,483 C 188,149 392,499 168,186 Z"></path>
<path stroke="#f27630" stroke-width="2" fill="#31a06b" opacity="0.3529798508756654" stroke-opacity="0.3012460583240237" transform="rotate(155.0 400 300)" d="M 280,155  C 519,146 670,446 654,439 C 613,103 464,359 491,239 C 553,135 584,408 580,220 C 194,432 250,430 465,147 C 612,376 377,347 584,321 C 293,253 676,195 217,391 C 506,260 476,390 692,430 C 148,190 397,227 178,259 C 294,336 340,254 502,216 Z"></path>
<path stroke="#f27630" stroke-width="1" fill="#ed2b2c" opacity="0.852810963682956" stroke-opacity="0.44797391852922325" transform="rotate(-29.0 400 300)" d="M 486,190  C 640,330 437,143 404,286 C 508,351 114,277 296,325 C 558,242 169,179 512,339 C 500,217 347,276 197,285 C 585,414 275,196 595,118 Z"></path>
<path stroke="#ed2b2c" stroke-width="6" fill="#2b55f7" opacity="0.43129229781390066" stroke-opacity="0.17466074870652243" transform="rotate(-112.0 400 300)" d="M 254,375  C 678,209 179,169 385,414 C 126,128 373,448 268,139 C 361,402 628,316 528,188 C 688,383 282,426 424,432 Z"></path>
<path stroke="#ed2b2c" stroke-width="5" fill="#2b55f7" opacity="0.8548999587458516" stroke-opacity="0.777619328214893" transform="rotate(-111.0 400 300)" d="M 237,427  C 205,404 478,361 693,193 C 258,456 653,460 282,171 C 347,163 342,231 577,132 C 389,223 298,355 675,193 C 495,158 396,206 197,230 C 499,350 474,147 658,339 C 269,302 581,305 700,221 C 151,126 142,251 237,377 Z"></path>
<path stroke="#31a06b" stroke-width="4" fill="#2b55f7" opacity="0.7418598223809172" stroke-opacity="0.8609274717818788" transform="rotate(-38.0 400 300)" d="M 645,464  C 527,446 489,165 699,335 C 473,316 153,444 270,419 C 272,302 216,420 385,258 C 436,250 131,422 318,390 C 612,185 375,240 466,139 C 602,185 153,473 297,146 Z"></path>
<path stroke="#2b55f7" stroke-width="7" fill="#f27630" opacity="0.15328275989332218" stroke-opacity="0.47795241764514934" transform="rotate(96.0 400 300)" d="M 193,114  C 230,273 233,355 606,434 C 155,480 609,293 270,117 C 311,357 276,297 201,389 C 269,294 230,293 305,268 C 124,120 606,291 554,375 C 140,420 568,472 428,183 C 578,253 267,224 489,433 Z"></path>
<path stroke="#f9d84b" stroke-width="7" fill="#2b55f7" opacity="0.02550575620747608" stroke-opacity="0.6118219174669455" transform="rotate(89.0 400 300)" d="M 452,370  C 209,206 171,248 310,195 C 699,220 601,494 357,136 C 417,388 471,125 503,331 C 198,380 605,137 135,239 C 425,215 534,327 303,362 C 129,219 323,217 172,230 C 268,440 448,398 291,283 C 598,440 679,381 385,434 Z"></path>
<path stroke="#ed2b2c" stroke-width="3" fill="#f27630" opacity="0.8004206864074997" stroke-opacity="0.6720293359354242" transform="rotate(-119.0 400 300)" d="M 333,470  C 563,365 234,452 325,101 C 233,363 270,257 520,281 C 500,188 363,111 399,136 C 287,258 453,145 305,329 C 466,312 175,323 459,218 C 613,448 257,171 692,160 Z"></path>

  </g>
</svg>
