<svg xmlns="http://www.w3.org/2000/svg" xmlns:xlink="http://www.w3.org/1999/xlink" width="800" height="600" version="1.1" viewBox="0 0 800 600"><g fill="none" fill-rule="evenodd" stroke="none" stroke-width="1"><path fill="#2cd3f3" stroke="#fe9225" stroke-opacity=".425" stroke-width="6" d="M 489,258 C 365,468 223,345 580,414 C 566,206 241,116 139,490 C 320,395 545,479 487,112 C 496,239 396,283 259,425 Z" opacity=".165" transform="rotate(49.0 400 300)"/><path fill="#0fa6d8" stroke="#2cd3f3" stroke-opacity=".133" stroke-width="2" d="M 531,333 C 153,491 593,134 177,494 C 546,424 426,324 322,455 C 402,163 357,384 384,389 C 210,114 144,213 620,482 C 380,330 476,243 649,303 C 157,448 487,450 424,426 C 252,117 373,362 413,286 C 495,141 251,338 555,103 C 655,399 273,296 506,404 C 554,436 440,456 625,122 Z" opacity=".726" transform="rotate(7.0 400 300)"/><path fill="#0fa6d8" stroke="#f559a0" stroke-opacity=".592" stroke-width="2" d="M 577,187 C 119,153 413,448 571,407 C 629,410 643,213 210,372 C 416,372 624,218 254,284 C 121,286 242,383 631,220 C 287,467 283,280 173,467 C 429,315 696,231 476,444 Z" opacity=".632" transform="rotate(80.0 400 300)"/><path fill="#2cd3f3" stroke="#0fa6d8" stroke-opacity=".022" stroke-width="6" d="M 682,174 C 540,302 634,380 578,127 C 206,288 107,452 343,387 C 441,206 648,172 233,253 C 572,401 165,158 579,185 C 675,469 416,415 185,354 C 286,144 616,279 162,138 C 134,220 700,240 208,270 C 380,329 501,441 369,225 Z" opacity=".19" transform="rotate(6.0 400 300)"/><path fill="#2cd3f3" stroke="#2cd3f3" stroke-opacity=".339" stroke-width="7" d="M 116,473 C 135,333 534,497 696,493 C 334,118 438,146 259,489 C 378,453 435,257 199,287 C 175,114 143,279 647,218 C 632,494 133,357 319,335 C 200,108 532,337 680,376 C 310,325 491,208 397,428 Z" opacity=".551" transform="rotate(117.0 400 300)"/><path fill="#0fa6d8" stroke="#f559a0" stroke-opacity=".978" stroke-width="4" d="M 275,280 C 287,124 245,211 370,361 C 587,107 192,215 631,454 C 405,379 163,336 196,338 C 513,151 522,420 370,266 C 400,181 162,244 335,125 C 592,442 668,161 451,260 Z" opacity=".812" transform="rotate(22.0 400 300)"/><path fill="#2cd3f3" stroke="#2cd3f3" stroke-opacity=".933" stroke-width="2" d="M 528,285 C 449,181 349,245 694,170 C 617,195 294,201 387,411 C 464,432 230,398 233,374 C 474,171 691,472 112,166 C 641,377 334,178 193,297 C 326,378 229,481 169,370 C 114,457 602,231 463,456 C 287,440 109,148 349,448 C 260,448 491,220 470,169 C 366,349 593,259 425,207 Z" opacity=".36" transform="rotate(15.0 400 300)"/><path fill="#2cd3f3" stroke="#2cd3f3" stroke-opacity=".635" stroke-width="6" d="M 539,106 C 388,373 497,317 174,288 C 365,153 507,329 174,160 C 309,253 628,293 249,398 C 150,110 117,395 493,210 C 631,158 417,495 198,270 C 171,388 650,414 433,412 C 525,162 372,333 433,210 C 106,477 648,471 256,423 C 466,127 303,110 589,437 C 497,428 109,191 397,393 C 239,267 227,323 154,275 Z" opacity=".471" transform="rotate(-80.0 400 300)"/><path fill="#fe9225" stroke="#f559a0" stroke-opacity=".767" stroke-width="1" d="M 548,265 C 377,167 273,264 508,134 C 427,157 221,348 337,328 C 207,109 279,335 656,105 C 510,256 317,153 444,342 C 397,264 400,110 351,237 C 285,452 147,329 314,382 C 436,256 374,413 193,169 C 463,303 645,156 460,219 C 647,174 212,483 669,179 C 334,429 102,327 350,384 Z" opacity=".822" transform="rotate(-102.0 400 300)"/><path fill="#fe9225" stroke="#2cd3f3" stroke-opacity=".243" stroke-width="3" d="M 543,358 C 291,193 360,403 179,124 C 336,139 391,417 277,163 C 145,438 423,456 448,461 C 168,455 434,476 657,350 Z" opacity=".649" transform="rotate(94.0 400 300)"/><path fill="#2cd3f3" stroke="#02eb6b" stroke-opacity=".077" stroke-width="6" d="M 664,292 C 699,186 356,311 102,248 C 526,288 492,253 429,423 C 468,223 653,278 215,427 C 579,394 376,189 573,158 C 337,347 681,481 401,300 C 109,113 477,271 625,471 C 309,451 559,400 145,377 Z" opacity=".74" transform="rotate(53.0 400 300)"/></g></svg>