<svg xmlns="http://www.w3.org/2000/svg" xmlns:xlink="http://www.w3.org/1999/xlink" width="800" height="600" version="1.1" viewBox="0 0 800 600"><g fill="none" fill-rule="evenodd" stroke="none" stroke-width="1"><rect width="100" height="138" x="752" y="111" fill="#31a06b" stroke="#31a06b" stroke-opacity=".575" stroke-width="1" opacity=".157" transform="rotate(64.0 400 300)"/><rect width="389" height="398" x="279" y="454" fill="#ed2b2c" stroke="#f9d84b" stroke-opacity=".49" stroke-width="7" opacity=".414" transform="rotate(131.0 400 300)"/><path fill="#2b55f7" stroke="#2b55f7" stroke-opacity=".881" stroke-width="1" d="M 455,409 C 585,108 358,386 437,218 C 406,179 362,191 531,354 C 649,197 426,319 589,395 C 186,237 247,352 374,461 C 583,376 205,213 700,381 C 520,186 209,237 529,364 C 618,295 268,467 601,361 C 355,271 344,367 101,169 C 356,483 522,224 221,407 Z" opacity=".223" transform="rotate(29.0 400 300)"/><ellipse cx="318" cy="592" fill="#2b55f7" stroke="#2b55f7" stroke-opacity=".181" stroke-width="1" opacity=".784" rx="397" ry="206" transform="rotate(-165.0 400 300)"/><ellipse cx="696" cy="377" fill="#ed2b2c" stroke="#f27630" stroke-opacity=".342" stroke-width="1" opacity=".454" rx="398" ry="181" transform="rotate(-127.0 400 300)"/><ellipse cx="242" cy="485" fill="#2b55f7" stroke="#f27630" stroke-opacity=".437" stroke-width="2" opacity=".44" rx="232" ry="271" transform="rotate(29.0 400 300)"/><polygon fill="#ed2b2c" stroke="#f9d84b" stroke-opacity=".793" stroke-width="6" points="474 447 149 428 787 507 799 195 416 449 90 24" opacity=".766" transform="rotate(80.0 400 300)"/></g></svg>