<svg xmlns="http://www.w3.org/2000/svg" xmlns:xlink="http://www.w3.org/1999/xlink" width="800" height="600" version="1.1" viewBox="0 0 800 600"><g fill="none" fill-rule="evenodd" stroke="none" stroke-width="1"><ellipse cx="702" cy="447" fill="#2b55f7" stroke="#f27630" stroke-opacity=".63" stroke-width="5" opacity=".371" rx="204" ry="137" transform="rotate(-114.0 400 300)"/><path fill="#f9d84b" stroke="#f27630" stroke-opacity=".556" stroke-width="1" d="M 327,392 C 696,400 516,206 244,196 C 348,307 380,487 136,309 C 657,298 421,216 590,217 C 333,302 402,173 155,168 C 232,150 543,420 209,261 C 486,305 352,128 584,273 C 632,430 172,157 512,426 C 386,274 611,272 209,370 C 683,404 288,303 183,473 C 669,135 141,330 465,186 Z" opacity=".352" transform="rotate(128.0 400 300)"/><polygon fill="#ed2b2c" stroke="#f27630" stroke-opacity=".348" stroke-width="4" points="646 599 292 317 799 361 429 556 21 324 726 567 147 133 697 406" opacity=".983" transform="rotate(-15.0 400 300)"/><rect width="105" height="49" x="134" y="541" fill="#ed2b2c" stroke="#f9d84b" stroke-opacity=".679" stroke-width="6" opacity=".14" transform="rotate(58.0 400 300)"/><ellipse cx="791" cy="279" fill="#f27630" stroke="#31a06b" stroke-opacity=".263" stroke-width="5" opacity=".323" rx="445" ry="158" transform="rotate(-58.0 400 300)"/><ellipse cx="732" cy="125" fill="#f9d84b" stroke="#f27630" stroke-opacity=".528" stroke-width="5" opacity=".528" rx="426" ry="139" transform="rotate(112.0 400 300)"/><ellipse cx="396" cy="534" fill="#f9d84b" stroke="#ed2b2c" stroke-opacity=".556" stroke-width="4" opacity=".169" rx="264" ry="41" transform="rotate(33.0 400 300)"/></g></svg>