<svg xmlns="http://www.w3.org/2000/svg" xmlns:xlink="http://www.w3.org/1999/xlink" width="800" height="600" version="1.1" viewBox="0 0 800 600"><g fill="none" fill-rule="evenodd" stroke="none" stroke-width="1"><rect width="320" height="74" x="276" y="261" fill="#6B39A1" stroke="#416B21" stroke-opacity=".909" stroke-width="2" opacity=".851" transform="rotate(36.0 400 300)"/><rect width="131" height="310" x="686" y="435" fill="#A8C302" stroke="#93C2D7" stroke-opacity=".939" stroke-width="2" opacity=".014" transform="rotate(-151.0 400 300)"/><path fill="#491AB1" stroke="#A78966" stroke-opacity=".178" stroke-width="2" d="M 621,488 C 670,313 446,131 556,240 C 687,475 286,112 475,360 C 619,398 360,156 534,449 C 581,431 176,121 664,197 Z" opacity=".495" transform="rotate(17.0 400 300)"/><rect width="372" height="60" x="768" y="419" fill="#3D5DDD" stroke="#3A2A6C" stroke-opacity=".422" stroke-width="5" opacity=".845" transform="rotate(-137.0 400 300)"/><path fill="#B59989" stroke="#C94445" stroke-opacity=".718" stroke-width="6" d="M 514,165 C 692,174 241,282 553,328 C 548,415 509,199 118,469 C 640,389 364,239 353,213 C 428,472 148,427 291,275 C 413,321 243,187 102,124 Z" opacity=".867" transform="rotate(-8.0 400 300)"/><ellipse cx="510" cy="455" fill="#61B027" stroke="#1CCAC4" stroke-opacity=".905" stroke-width="6" opacity=".604" rx="271" ry="233" transform="rotate(-163.0 400 300)"/><ellipse cx="544" cy="6" fill="#6ADA59" stroke="#0D277B" stroke-opacity=".814" stroke-width="1" opacity=".538" rx="202" ry="235" transform="rotate(-112.0 400 300)"/><path fill="#C64A85" stroke="#5C1C80" stroke-opacity=".759" stroke-width="1" d="M 519,237 C 269,236 187,119 621,255 C 425,297 383,189 349,298 C 676,145 141,441 691,198 C 639,390 141,246 564,307 Z" opacity=".242" transform="rotate(152.0 400 300)"/><ellipse cx="259" cy="385" fill="#95019D" stroke="#32D7C1" stroke-opacity=".557" stroke-width="1" opacity=".154" rx="278" ry="252" transform="rotate(93.0 400 300)"/><rect width="388" height="70" x="234" y="120" fill="#63D164" stroke="#D50630" stroke-opacity=".481" stroke-width="2" opacity=".515" transform="rotate(-56.0 400 300)"/></g></svg>