<?xml version="1.0" encoding="UTF-8"?>
<svg width="800px" height="600px" viewBox="0 0 800 600" version="1.1" xmlns="http://www.w3.org/2000/svg" xmlns:xlink="http://www.w3.org/1999/xlink">
  <defs></defs>
  <g stroke="none" stroke-width="1" fill="none" fill-rule="evenodd">
    
    <rect stroke="#416B21" stroke-width="2" fill="#6B39A1" opacity="0.8507829023337402" stroke-opacity="0.9091863186626628" transform="rotate(36.0 400 300)" x="276" y="261" width="320" height="74"></rect>
<rect stroke="#93C2D7" stroke-width="2" fill="#A8C302" opacity="0.013662096116790498" stroke-opacity="0.9394168913054113" transform="rotate(-151.0 400 300)" x="686" y="435" width="131" height="310"></rect>
<path stroke="#A78966" stroke-width="2" fill="#491AB1" opacity="0.4946564355054853" stroke-opacity="0.17848959040270618" transform="rotate(17.0 400 300)" d="M 621,488  C 670,313 446,131 556,240 C 687,475 286,112 475,360 C 619,398 360,156 534,449 C 581,431 176,121 664,197 Z"></path>
<rect stroke="#3A2A6C" stroke-width="5" fill="#3D5DDD" opacity="0.8453727170934652" stroke-opacity="0.4219527736661494" transform="rotate(-137.0 400 300)" x="768" y="419" width="372" height="60"></rect>
<path stroke="#C94445" stroke-width="6" fill="#B59989" opacity="0.86699690816422" stroke-opacity="0.7183930107269407" transform="rotate(-8.0 400 300)" d="M 514,165  C 692,174 241,282 553,328 C 548,415 509,199 118,469 C 640,389 364,239 353,213 C 428,472 148,427 291,275 C 413,321 243,187 102,124 Z"></path>
<ellipse stroke="#1CCAC4" stroke-width="6" fill="#61B027" opacity="0.6038674508892068" stroke-opacity="0.904778007040091" transform="rotate(-163.0 400 300)" cx="510" rx="271" cy="455" ry="233"></ellipse>
<ellipse stroke="#0D277B" stroke-width="1" fill="#6ADA59" opacity="0.5378477764309922" stroke-opacity="0.8140204265203406" transform="rotate(-112.0 400 300)" cx="544" rx="202" cy="6" ry="235"></ellipse>
<path stroke="#5C1C80" stroke-width="1" fill="#C64A85" opacity="0.24246031261709436" stroke-opacity="0.7590408112036859" transform="rotate(152.0 400 300)" d="M 519,237  C 269,236 187,119 621,255 C 425,297 383,189 349,298 C 676,145 141,441 691,198 C 639,390 141,246 564,307 Z"></path>
<ellipse stroke="#32D7C1" stroke-width="1" fill="#95019D" opacity="0.15413174953347197" stroke-opacity="0.5572966768529548" transform="rotate(93.0 400 300)" cx="259" rx="278" cy="385" ry="252"></ellipse>
<rect stroke="#D50630" stroke-width="2" fill="#63D164" opacity="0.5152116175009228" stroke-opacity="0.48132710332381695" transform="rotate(-56.0 400 300)" x="234" y="120" width="388" height="70"></rect>

  </g>
</svg>
