<svg xmlns="http://www.w3.org/2000/svg" xmlns:xlink="http://www.w3.org/1999/xlink" width="800" height="600" version="1.1" viewBox="0 0 800 600"><g fill="none" fill-rule="evenodd" stroke="none" stroke-width="1"><path fill="#ed2b2c" stroke="#f27630" stroke-opacity=".207" stroke-width="7" d="M 561,486 C 632,484 113,298 119,161 C 164,498 112,303 462,125 C 164,359 189,159 496,431 C 163,218 672,500 113,152 C 595,179 290,318 414,236 C 151,326 323,443 477,291 C 295,439 268,352 156,355 C 474,490 364,126 423,134 C 298,198 287,152 482,360 C 348,107 592,135 318,419 Z" opacity=".613" transform="rotate(166.0 400 300)"/><path fill="#31a06b" stroke="#2b55f7" stroke-opacity=".293" stroke-width="3" d="M 400,184 C 399,186 350,108 187,126 C 568,409 404,408 391,178 C 427,430 225,347 132,303 C 555,223 293,196 139,442 C 120,188 217,242 567,418 Z" opacity=".361" transform="rotate(-161.0 400 300)"/><path fill="#f9d84b" stroke="#f27630" stroke-opacity=".635" stroke-width="5" d="M 302,180 C 444,193 239,277 329,283 C 430,229 187,401 156,226 C 659,243 313,193 401,107 C 140,225 661,430 327,334 C 289,204 363,214 410,378 C 488,129 697,413 167,315 C 243,138 442,240 569,132 C 481,478 491,314 661,345 C 266,150 295,223 157,159 C 459,150 286,294 494,131 C 370,275 198,360 350,197 Z" opacity=".564" transform="rotate(-148.0 400 300)"/><path fill="#f9d84b" stroke="#f27630" stroke-opacity=".468" stroke-width="1" d="M 402,227 C 675,226 485,402 432,461 C 231,457 567,474 339,238 C 326,199 673,149 691,350 C 343,306 410,422 375,467 C 447,440 636,330 632,475 C 530,132 334,437 543,258 C 576,230 693,472 120,283 Z" opacity=".324" transform="rotate(-114.0 400 300)"/><path fill="#f9d84b" stroke="#f27630" stroke-opacity=".658" stroke-width="1" d="M 570,357 C 594,400 649,424 329,167 C 219,445 504,427 665,466 C 178,430 473,143 544,483 C 340,472 276,476 210,302 C 141,410 299,441 111,489 Z" opacity=".266" transform="rotate(-159.0 400 300)"/><path fill="#f27630" stroke="#2b55f7" stroke-opacity=".815" stroke-width="4" d="M 386,174 C 312,179 334,292 283,468 C 452,338 302,343 316,365 C 527,427 109,175 235,267 C 153,387 382,186 649,307 Z" opacity=".901" transform="rotate(-99.0 400 300)"/><path fill="#2b55f7" stroke="#ed2b2c" stroke-opacity=".769" stroke-width="4" d="M 534,359 C 410,243 392,305 170,425 C 206,145 168,329 616,350 C 274,405 515,278 302,199 C 304,148 527,439 300,429 C 185,492 205,285 276,433 C 454,463 514,137 150,263 C 380,253 471,106 563,263 Z" opacity=".41" transform="rotate(130.0 400 300)"/><path fill="#ed2b2c" stroke="#2b55f7" stroke-opacity=".291" stroke-width="5" d="M 562,216 C 611,475 423,294 445,162 C 295,194 107,449 278,405 C 318,220 511,479 444,444 C 125,180 527,308 553,393 C 139,464 675,233 486,397 C 366,174 622,151 186,337 Z" opacity=".483" transform="rotate(-173.0 400 300)"/><path fill="#f9d84b" stroke="#f9d84b" stroke-opacity=".057" stroke-width="5" d="M 555,160 C 497,283 466,341 519,357 C 342,240 233,451 346,223 C 634,481 581,410 654,210 C 219,497 180,326 363,326 C 679,108 323,277 650,226 C 554,396 127,195 173,257 C 691,232 126,222 403,103 Z" opacity=".569" transform="rotate(-131.0 400 300)"/><path fill="#2b55f7" stroke="#31a06b" stroke-opacity=".957" stroke-width="3" d="M 240,148 C 332,400 603,126 267,417 C 540,446 479,473 532,213 C 660,441 261,243 260,124 C 510,198 595,190 604,463 Z" opacity=".661" transform="rotate(-14.0 400 300)"/></g></svg>