<?xml version="1.0" encoding="UTF-8"?>
<svg width="800px" height="600px" viewBox="0 0 800 600" version="1.1" xmlns="http://www.w3.org/2000/svg" xmlns:xlink="http://www.w3.org/1999/xlink">
  <defs></defs>
  <g stroke="none" stroke-width="1" fill="none" fill-rule="evenodd">
    
    <path stroke="#153525" stroke-width="1" fill="#973D61" opacity="0.6957955654904576" stroke-opacity="0.05081189794601829" transform="rotate(-93.0 400 300)" d="M 653,222  C 179,500 287,271 397,317 C 232,425 451,339 353,214 C 361,473 252,314 528,439 C 194,395 168,329 268,127 C 499,224 248,497 664,321 C 492,208 212,408 599,183 Z"></path>
<path stroke="#B48527" stroke-width="4" fill="#6652D7" opacity="0.46504264954081526" stroke-opacity="0.2690574068257721" transform="rotate(154.0 400 300)" d="M 192,347  C 147,192 479,395 483,472 C 225,416 537,238 208,108 C 147,384 384,369 394,189 C 585,145 695,331 287,108 C 145,182 118,316 301,127 C 497,366 481,182 495,203 C 212,499 482,489 686,198 C 222,211 653,222 314,446 C 342,286 547,145 159,166 Z"></path>
<path stroke="#1B4035" stroke-width="6" fill="#910393" opacity="0.9095146553135659" stroke-opacity="0.6059113882982802" transform="rotate(-70.0 400 300)" d="M 332,130  C 515,432 178,201 587,397 C 144,189 185,361 571,171 C 436,338 633,278 308,252 C 383,271 416,213 424,477 C 118,213 351,384 401,173 C 675,380 216,154 345,339 C 536,246 654,455 507,455 C 203,108 408,354 606,111 Z"></path>
<path stroke="#997659" stroke-width="1" fill="#D33834" opacity="0.33105812698308557" stroke-opacity="0.17588158994351547" transform="rotate(-75.0 400 300)" d="M 643,350  C 142,267 584,350 620,351 C 687,205 149,253 412,394 C 301,125 276,330 148,199 C 301,270 196,373 267,134 C 530,355 467,274 469,294 C 491,135 209,445 381,465 C 555,221 303,456 154,339 C 614,389 264,489 106,224 C 659,498 327,181 615,196 C 457,221 220,287 233,185 Z"></path>
<path stroke="#A16057" stroke-width="3" fill="#48326A" opacity="0.5289236712376756" stroke-opacity="0.9409682321610118" transform="rotate(28.0 400 300)" d="M 467,254  C 688,447 418,140 514,324 C 656,121 339,132 310,248 C 510,260 432,140 348,207 C 604,211 503,489 298,395 Z"></path>
<path stroke="#01ADD5" stroke-width="5" fill="#209371" opacity="0.00010804000742645648" stroke-opacity="0.5453591246358317" transform="rotate(79.0 400 300)" d="M 693,415  C 532,206 545,422 144,205 C 240,380 492,392 620,461 C 409,184 213,321 452,218 C 675,157 379,105 428,341 C 199,421 554,119 643,431 C 540,381 256,331 578,365 C 259,352 202,182 638,116 C 117,383 436,235 540,182 C 597,318 305,132 288,169 C 134,401 596,406 245,274 Z"></path>
<path stroke="#72079C" stroke-width="7" fill="#58520C" opacity="0.5005347418867581" stroke-opacity="0.8599652666079409" transform="rotate(52.0 400 300)" d="M 476,206  C 601,216 509,155 349,177 C 252,204 379,486 509,225 C 181,160 423,168 612,388 C 356,425 197,132 612,444 C 276,126 217,449 545,243 C 683,243 551,359 392,244 C 354,444 183,270 122,290 Z"></path>

  </g>
</svg>
