<svg xmlns="http://www.w3.org/2000/svg" xmlns:xlink="http://www.w3.org/1999/xlink" width="800" height="600" version="1.1" viewBox="0 0 800 600"><g fill="none" fill-rule="evenodd" stroke="none" stroke-width="1"><path fill="#973D61" stroke="#153525" stroke-opacity=".051" stroke-width="1" d="M 653,222 C 179,500 287,271 397,317 C 232,425 451,339 353,214 C 361,473 252,314 528,439 C 194,395 168,329 268,127 C 499,224 248,497 664,321 C 492,208 212,408 599,183 Z" opacity=".696" transform="rotate(-93.0 400 300)"/><path fill="#6652D7" stroke="#B48527" stroke-opacity=".269" stroke-width="4" d="M 192,347 C 147,192 479,395 483,472 C 225,416 537,238 208,108 C 147,384 384,369 394,189 C 585,145 695,331 287,108 C 145,182 118,316 301,127 C 497,366 481,182 495,203 C 212,499 482,489 686,198 C 222,211 653,222 314,446 C 342,286 547,145 159,166 Z" opacity=".465" transform="rotate(154.0 400 300)"/><path fill="#910393" stroke="#1B4035" stroke-opacity=".606" stroke-width="6" d="M 332,130 C 515,432 178,201 587,397 C 144,189 185,361 571,171 C 436,338 633,278 308,252 C 383,271 416,213 424,477 C 118,213 351,384 401,173 C 675,380 216,154 345,339 C 536,246 654,455 507,455 C 203,108 408,354 606,111 Z" opacity=".91" transform="rotate(-70.0 400 300)"/><path fill="#D33834" stroke="#997659" stroke-opacity=".176" stroke-width="1" d="M 643,350 C 142,267 584,350 620,351 C 687,205 149,253 412,394 C 301,125 276,330 148,199 C 301,270 196,373 267,134 C 530,355 467,274 469,294 C 491,135 209,445 381,465 C 555,221 303,456 154,339 C 614,389 264,489 106,224 C 659,498 327,181 615,196 C 457,221 220,287 233,185 Z" opacity=".331" transform="rotate(-75.0 400 300)"/><path fill="#48326A" stroke="#A16057" stroke-opacity=".941" stroke-width="3" d="M 467,254 C 688,447 418,140 514,324 C 656,121 339,132 310,248 C 510,260 432,140 348,207 C 604,211 503,489 298,395 Z" opacity=".529" transform="rotate(28.0 400 300)"/><path fill="#209371" stroke="#01ADD5" stroke-opacity=".545" stroke-width="5" d="M 693,415 C 532,206 545,422 144,205 C 240,380 492,392 620,461 C 409,184 213,321 452,218 C 675,157 379,105 428,341 C 199,421 554,119 643,431 C 540,381 256,331 578,365 C 259,352 202,182 638,116 C 117,383 436,235 540,182 C 597,318 305,132 288,169 C 134,401 596,406 245,274 Z" opacity="0" transform="rotate(79.0 400 300)"/><path fill="#58520C" stroke="#72079C" stroke-opacity=".86" stroke-width="7" d="M 476,206 C 601,216 509,155 349,177 C 252,204 379,486 509,225 C 181,160 423,168 612,388 C 356,425 197,132 612,444 C 276,126 217,449 545,243 C 683,243 551,359 392,244 C 354,444 183,270 122,290 Z" opacity=".501" transform="rotate(52.0 400 300)"/></g></svg>