<svg xmlns="http://www.w3.org/2000/svg" xmlns:xlink="http://www.w3.org/1999/xlink" width="800" height="600" version="1.1" viewBox="0 0 800 600"><g fill="none" fill-rule="evenodd" stroke="none" stroke-width="1"><path fill="#31a06b" stroke="#31a06b" stroke-opacity=".777" stroke-width="5" d="M 352,285 C 378,367 424,485 543,104 C 250,135 337,218 361,181 C 148,438 666,468 618,466 C 220,443 172,299 665,497 C 362,301 160,459 242,296 C 602,110 308,378 252,475 C 123,471 460,170 630,312 C 334,178 285,500 294,363 C 232,244 164,170 382,488 C 442,164 213,116 530,252 C 541,375 508,306 566,159 Z" opacity=".65" transform="rotate(74.0 400 300)"/><path fill="#2b55f7" stroke="#f9d84b" stroke-opacity=".751" stroke-width="1" d="M 359,450 C 680,315 600,496 469,429 C 401,152 655,336 174,128 C 642,341 489,350 174,242 C 615,349 189,244 335,497 C 187,181 331,388 313,164 C 411,282 617,299 142,248 C 320,434 251,178 547,360 C 396,443 327,137 456,472 C 277,176 206,116 194,325 C 158,249 576,413 466,277 C 608,205 432,202 645,234 Z" opacity=".893" transform="rotate(169.0 400 300)"/><path fill="#f9d84b" stroke="#31a06b" stroke-opacity=".857" stroke-width="6" d="M 566,387 C 570,453 677,142 201,339 C 406,459 697,387 157,122 C 543,495 448,498 472,122 C 142,107 591,304 153,403 C 287,134 122,390 686,417 C 551,340 426,156 614,353 C 105,156 104,393 415,168 C 654,158 156,177 513,103 C 293,389 102,334 173,114 C 346,324 177,233 364,445 Z" opacity=".251" transform="rotate(-149.0 400 300)"/><path fill="#f27630" stroke="#31a06b" stroke-opacity=".153" stroke-width="5" d="M 348,264 C 420,218 337,252 600,267 C 368,209 115,294 196,444 C 246,388 304,453 184,418 C 378,269 699,417 438,428 C 221,279 231,359 305,173 C 283,466 147,251 177,358 C 605,141 364,500 255,238 C 443,115 544,382 545,104 Z" opacity=".662" transform="rotate(-3.0 400 300)"/><path fill="#ed2b2c" stroke="#2b55f7" stroke-opacity=".78" stroke-width="6" d="M 527,296 C 218,449 318,322 451,393 C 362,228 517,424 466,342 C 259,176 421,146 402,222 C 549,319 337,345 273,332 C 203,145 280,358 233,264 Z" opacity=".915" transform="rotate(171.0 400 300)"/><path fill="#f9d84b" stroke="#2b55f7" stroke-opacity=".738" stroke-width="1" d="M 433,195 C 230,217 599,457 349,345 C 644,447 610,279 508,209 C 295,380 664,400 235,455 C 393,455 620,233 444,147 Z" opacity=".692" transform="rotate(142.0 400 300)"/><path fill="#f27630" stroke="#f9d84b" stroke-opacity=".405" stroke-width="1" d="M 590,196 C 196,169 658,333 260,328 C 101,201 335,486 610,418 C 685,418 110,392 400,270 C 508,484 234,405 636,152 C 534,128 691,485 430,202 Z" opacity=".052" transform="rotate(134.0 400 300)"/><path fill="#ed2b2c" stroke="#f27630" stroke-opacity=".505" stroke-width="6" d="M 575,170 C 352,425 639,140 496,301 C 392,414 167,355 354,207 C 194,346 617,282 105,246 C 585,276 277,106 152,423 C 251,399 435,325 341,263 Z" opacity=".394" transform="rotate(-126.0 400 300)"/></g></svg>