<?xml version="1.0" encoding="UTF-8"?>
<svg width="800px" height="600px" viewBox="0 0 800 600" version="1.1" xmlns="http://www.w3.org/2000/svg" xmlns:xlink="http://www.w3.org/1999/xlink">
  <defs></defs>
  <g stroke="none" stroke-width="1" fill="none" fill-rule="evenodd">
    
    <path stroke="#f27630" stroke-width="5" fill="#ed2b2c" opacity="0.999615395751846" stroke-opacity="0.27925726361101716" transform="rotate(20.0 400 300)" d="M 561,260  C 124,242 449,298 283,431 C 184,476 638,293 313,430 C 494,415 224,225 506,198 C 569,445 103,439 347,336 C 397,228 137,490 256,199 C 657,303 667,195 443,422 C 599,479 162,129 215,260 C 573,356 329,106 525,230 C 163,247 383,191 503,294 C 662,245 612,327 322,153 Z"></path>
<path stroke="#2b55f7" stroke-width="6" fill="#31a06b" opacity="0.026891212870736925" stroke-opacity="0.14039204881201622" transform="rotate(-77.0 400 300)" d="M 610,266  C 145,243 604,423 495,452 C 661,138 577,129 314,172 C 245,367 401,312 432,187 C 338,498 537,191 106,206 C 419,113 681,153 404,312 C 274,203 412,221 386,481 Z"></path>
<path stroke="#ed2b2c" stroke-width="6" fill="#f9d84b" opacity="0.3119270889373662" stroke-opacity="0.4738230885848751" transform="rotate(117.0 400 300)" d="M 124,321  C 453,470 582,110 240,187 C 168,107 428,188 114,500 C 332,193 241,320 184,191 C 480,106 503,178 590,402 C 493,327 631,207 433,105 Z"></path>
<path stroke="#f9d84b" stroke-width="1" fill="#ed2b2c" opacity="0.4107826549188081" stroke-opacity="0.306445415572333" transform="rotate(107.0 400 300)" d="M 444,343  C 345,406 607,142 455,315 C 103,451 152,469 114,121 C 590,422 332,295 424,235 C 237,349 490,313 639,199 C 135,391 246,385 151,377 C 647,131 469,172 332,191 C 220,358 296,297 574,452 C 440,380 118,482 539,109 C 278,420 245,231 622,454 Z"></path>
<path stroke="#31a06b" stroke-width="2" fill="#f27630" opacity="0.84011953219142" stroke-opacity="0.994958063070184" transform="rotate(-45.0 400 300)" d="M 354,232  C 318,476 557,137 692,478 C 184,435 695,296 612,300 C 451,398 198,210 347,490 C 332,309 410,101 243,281 C 680,446 197,380 275,168 C 139,394 477,225 162,341 C 224,225 558,215 206,101 Z"></path>
<path stroke="#f27630" stroke-width="7" fill="#f27630" opacity="0.8018420083575325" stroke-opacity="0.28056084534503073" transform="rotate(120.0 400 300)" d="M 598,227  C 577,234 480,418 123,233 C 531,360 533,119 615,115 C 293,359 201,454 396,241 C 447,431 596,179 494,410 Z"></path>

  </g>
</svg>
