<svg xmlns="http://www.w3.org/2000/svg" xmlns:xlink="http://www.w3.org/1999/xlink" width="800" height="600" version="1.1" viewBox="0 0 800 600"><g fill="none" fill-rule="evenodd" stroke="none" stroke-width="1"><path fill="#6C9927" stroke="#D96D59" stroke-opacity=".362" stroke-width="4" d="M 231,307 C 604,257 406,402 146,129 C 448,230 627,268 221,297 C 282,223 290,444 120,301 C 555,228 210,396 556,178 C 679,258 170,429 487,376 C 187,264 123,305 237,471 C 366,228 428,366 122,426 C 369,136 204,359 532,270 C 122,338 383,225 698,453 C 512,438 555,285 254,265 C 154,122 300,214 649,154 Z" opacity=".642" transform="rotate(167.0 400 300)"/><path fill="#09953B" stroke="#B71A23" stroke-opacity=".168" stroke-width="5" d="M 455,202 C 149,115 558,485 582,329 C 586,309 211,377 404,403 C 403,156 556,101 281,263 C 551,155 572,248 692,308 C 464,185 480,183 114,319 C 165,310 602,455 611,108 C 195,427 374,478 140,268 Z" opacity=".641" transform="rotate(105.0 400 300)"/><path fill="#285703" stroke="#BD8881" stroke-opacity=".208" stroke-width="5" d="M 681,229 C 408,391 498,338 623,220 C 641,227 179,266 614,166 C 159,282 449,484 617,139 C 532,229 103,391 279,432 C 441,265 231,178 326,223 Z" opacity=".628" transform="rotate(-56.0 400 300)"/><path fill="#CB6720" stroke="#56DB3A" stroke-opacity=".916" stroke-width="6" d="M 462,310 C 568,420 375,246 528,215 C 389,430 194,433 626,158 C 243,335 267,131 322,174 C 283,293 252,268 121,460 C 220,234 234,483 452,348 Z" opacity=".119" transform="rotate(-98.0 400 300)"/><path fill="#5AC872" stroke="#039809" stroke-opacity=".969" stroke-width="5" d="M 282,246 C 271,431 583,164 215,235 C 206,245 376,463 539,422 C 621,294 474,137 190,202 C 204,114 423,138 675,187 C 245,351 186,386 168,306 C 551,274 492,395 311,481 C 450,225 128,183 576,465 C 569,443 520,493 524,267 C 579,181 561,186 627,412 Z" opacity=".761" transform="rotate(95.0 400 300)"/><path fill="#B6865C" stroke="#581C38" stroke-opacity=".797" stroke-width="4" d="M 108,424 C 517,124 407,303 683,186 C 325,443 407,239 260,475 C 307,359 118,289 206,217 C 107,234 378,352 409,478 C 612,330 362,158 178,114 C 340,260 696,429 428,368 C 271,156 333,495 472,469 C 407,377 327,478 156,196 C 198,218 527,358 569,165 Z" opacity=".576" transform="rotate(-97.0 400 300)"/><path fill="#9B6B9C" stroke="#07089B" stroke-opacity=".612" stroke-width="3" d="M 664,110 C 568,415 624,262 425,377 C 207,120 309,263 587,403 C 438,227 432,241 295,413 C 194,419 412,348 332,137 C 498,157 175,402 331,110 C 536,448 150,461 512,179 C 200,128 357,467 540,455 Z" opacity=".751" transform="rotate(-79.0 400 300)"/><path fill="#B8B1DA" stroke="#CD1AD0" stroke-opacity=".098" stroke-width="2" d="M 169,350 C 562,260 262,129 198,472 C 555,331 659,483 457,389 C 538,378 361,343 543,359 C 172,315 188,443 208,129 Z" opacity=".233" transform="rotate(-74.0 400 300)"/><path fill="#042638" stroke="#4D5703" stroke-opacity=".128" stroke-width="3" d="M 161,273 C 304,492 219,447 538,195 C 408,139 623,156 371,478 C 221,367 446,287 287,254 C 595,392 118,253 143,456 C 312,455 381,456 430,118 C 132,136 368,312 665,252 Z" opacity=".838" transform="rotate(-23.0 400 300)"/><path fill="#11DD13" stroke="#A88293" stroke-opacity=".408" stroke-width="6" d="M 277,199 C 461,232 107,193 441,452 C 531,204 537,344 339,174 C 676,428 354,448 583,400 C 137,280 201,427 611,180 C 604,218 369,387 403,164 C 313,244 163,155 373,135 C 617,450 578,471 495,133 C 279,355 290,255 283,319 C 499,341 317,238 596,142 Z" opacity=".793" transform="rotate(-177.0 400 300)"/></g></svg>