<?xml version="1.0" encoding="UTF-8"?>
<svg width="800px" height="600px" viewBox="0 0 800 600" version="1.1" xmlns="http://www.w3.org/2000/svg" xmlns:xlink="http://www.w3.org/1999/xlink">
  <defs></defs>
  <g stroke="none" stroke-width="1" fill="none" fill-rule="evenodd">
    
    <path stroke="#D96D59" stroke-width="4" fill="#6C9927" opacity="0.6415535033076842" stroke-opacity="0.3618961233241142" transform="rotate(167.0 400 300)" d="M 231,307  C 604,257 406,402 146,129 C 448,230 627,268 221,297 C 282,223 290,444 120,301 C 555,228 210,396 556,178 C 679,258 170,429 487,376 C 187,264 123,305 237,471 C 366,228 428,366 122,426 C 369,136 204,359 532,270 C 122,338 383,225 698,453 C 512,438 555,285 254,265 C 154,122 300,214 649,154 Z"></path>
<path stroke="#B71A23" stroke-width="5" fill="#09953B" opacity="0.6414266190628682" stroke-opacity="0.16770315534476152" transform="rotate(105.0 400 300)" d="M 455,202  C 149,115 558,485 582,329 C 586,309 211,377 404,403 C 403,156 556,101 281,263 C 551,155 572,248 692,308 C 464,185 480,183 114,319 C 165,310 602,455 611,108 C 195,427 374,478 140,268 Z"></path>
<path stroke="#BD8881" stroke-width="5" fill="#285703" opacity="0.6280148735480099" stroke-opacity="0.20837425011603783" transform="rotate(-56.0 400 300)" d="M 681,229  C 408,391 498,338 623,220 C 641,227 179,266 614,166 C 159,282 449,484 617,139 C 532,229 103,391 279,432 C 441,265 231,178 326,223 Z"></path>
<path stroke="#56DB3A" stroke-width="6" fill="#CB6720" opacity="0.11943768388884604" stroke-opacity="0.9163894482221452" transform="rotate(-98.0 400 300)" d="M 462,310  C 568,420 375,246 528,215 C 389,430 194,433 626,158 C 243,335 267,131 322,174 C 283,293 252,268 121,460 C 220,234 234,483 452,348 Z"></path>
<path stroke="#039809" stroke-width="5" fill="#5AC872" opacity="0.7610817492882435" stroke-opacity="0.9685683720808863" transform="rotate(95.0 400 300)" d="M 282,246  C 271,431 583,164 215,235 C 206,245 376,463 539,422 C 621,294 474,137 190,202 C 204,114 423,138 675,187 C 245,351 186,386 168,306 C 551,274 492,395 311,481 C 450,225 128,183 576,465 C 569,443 520,493 524,267 C 579,181 561,186 627,412 Z"></path>
<path stroke="#581C38" stroke-width="4" fill="#B6865C" opacity="0.5756035001701861" stroke-opacity="0.7972773440358375" transform="rotate(-97.0 400 300)" d="M 108,424  C 517,124 407,303 683,186 C 325,443 407,239 260,475 C 307,359 118,289 206,217 C 107,234 378,352 409,478 C 612,330 362,158 178,114 C 340,260 696,429 428,368 C 271,156 333,495 472,469 C 407,377 327,478 156,196 C 198,218 527,358 569,165 Z"></path>
<path stroke="#07089B" stroke-width="3" fill="#9B6B9C" opacity="0.7510299634056463" stroke-opacity="0.6122235338605153" transform="rotate(-79.0 400 300)" d="M 664,110  C 568,415 624,262 425,377 C 207,120 309,263 587,403 C 438,227 432,241 295,413 C 194,419 412,348 332,137 C 498,157 175,402 331,110 C 536,448 150,461 512,179 C 200,128 357,467 540,455 Z"></path>
<path stroke="#CD1AD0" stroke-width="2" fill="#B8B1DA" opacity="0.23345843148326348" stroke-opacity="0.0979587131281385" transform="rotate(-74.0 400 300)" d="M 169,350  C 562,260 262,129 198,472 C 555,331 659,483 457,389 C 538,378 361,343 543,359 C 172,315 188,443 208,129 Z"></path>
<path stroke="#4D5703" stroke-width="3" fill="#042638" opacity="0.8378933983974052" stroke-opacity="0.1276206022989329" transform="rotate(-23.0 400 300)" d="M 161,273  C 304,492 219,447 538,195 C 408,139 623,156 371,478 C 221,367 446,287 287,254 C 595,392 118,253 143,456 C 312,455 381,456 430,118 C 132,136 368,312 665,252 Z"></path>
<path stroke="#A88293" stroke-width="6" fill="#11DD13" opacity="0.7926140473198683" stroke-opacity="0.40836290705478734" transform="rotate(-177.0 400 300)" d="M 277,199  C 461,232 107,193 441,452 C 531,204 537,344 339,174 C 676,428 354,448 583,400 C 137,280 201,427 611,180 C 604,218 369,387 403,164 C 313,244 163,155 373,135 C 617,450 578,471 495,133 C 279,355 290,255 283,319 C 499,341 317,238 596,142 Z"></path>

  </g>
</svg>
