<svg xmlns="http://www.w3.org/2000/svg" xmlns:xlink="http://www.w3.org/1999/xlink" width="800" height="600" version="1.1" viewBox="0 0 800 600"><g fill="none" fill-rule="evenodd" stroke="none" stroke-width="1"><rect width="321" height="286" x="629" y="266" fill="#f27630" stroke="#f9d84b" stroke-opacity=".136" stroke-width="2" opacity=".438" transform="rotate(47.0 400 300)"/><rect width="268" height="89" x="669" y="218" fill="#2b55f7" stroke="#f27630" stroke-opacity=".322" stroke-width="5" opacity=".671" transform="rotate(-71.0 400 300)"/><ellipse cx="504" cy="224" fill="#31a06b" stroke="#2b55f7" stroke-opacity=".021" stroke-width="6" opacity=".564" rx="126" ry="235" transform="rotate(129.0 400 300)"/><rect width="377" height="70" x="796" y="315" fill="#ed2b2c" stroke="#31a06b" stroke-opacity=".024" stroke-width="7" opacity=".923" transform="rotate(-157.0 400 300)"/><path fill="#ed2b2c" stroke="#f9d84b" stroke-opacity=".461" stroke-width="4" d="M 425,328 C 172,129 576,413 527,171 C 109,464 426,370 519,429 C 579,276 557,136 136,316 C 660,443 113,433 329,349 Z" opacity=".274" transform="rotate(-154.0 400 300)"/><rect width="326" height="362" x="185" y="171" fill="#f27630" stroke="#f9d84b" stroke-opacity=".239" stroke-width="5" opacity=".087" transform="rotate(23.0 400 300)"/><ellipse cx="47" cy="242" fill="#ed2b2c" stroke="#2b55f7" stroke-opacity=".143" stroke-width="6" opacity=".162" rx="134" ry="301" transform="rotate(-104.0 400 300)"/><polygon fill="#f27630" stroke="#f27630" stroke-opacity=".746" stroke-width="6" points="646 16 66 205 64 214 777 132 468 499 14 43 566 420 97 521" opacity=".898" transform="rotate(-143.0 400 300)"/><polygon fill="#2b55f7" stroke="#2b55f7" stroke-opacity=".101" stroke-width="2" points="51 42 744 386 784 338 457 189 401 481 653 462" opacity=".024" transform="rotate(-173.0 400 300)"/><path fill="#f27630" stroke="#ed2b2c" stroke-opacity=".014" stroke-width="7" d="M 342,364 C 145,389 697,354 254,480 C 510,461 532,282 593,136 C 596,405 624,168 217,443 C 321,363 652,334 496,180 Z" opacity=".567" transform="rotate(21.0 400 300)"/><path fill="#f9d84b" stroke="#f9d84b" stroke-opacity=".609" stroke-width="1" d="M 190,299 C 663,314 277,463 572,212 C 196,356 403,255 480,350 C 304,411 658,466 603,367 C 626,373 468,272 547,321 C 227,131 697,441 222,447 C 450,476 641,126 627,153 C 616,465 292,360 335,413 C 327,381 598,453 362,144 C 209,280 353,499 307,217 C 655,406 422,262 495,250 C 181,130 612,466 464,358 Z" opacity=".018" transform="rotate(-144.0 400 300)"/></g></svg>