<svg xmlns="http://www.w3.org/2000/svg" xmlns:xlink="http://www.w3.org/1999/xlink" width="800" height="600" version="1.1" viewBox="0 0 800 600"><g fill="none" fill-rule="evenodd" stroke="none" stroke-width="1"><polygon fill="#f9d84b" stroke="#ed2b2c" stroke-opacity=".629" stroke-width="7" points="744 429 680 334 289 558 508 582 673 144" opacity=".428" transform="rotate(26.0 400 300)"/><path fill="#f27630" stroke="#ed2b2c" stroke-opacity=".366" stroke-width="2" d="M 643,367 C 344,263 420,310 205,303 C 145,265 291,357 371,480 C 649,346 696,150 592,128 C 335,249 524,381 156,149 C 246,338 380,474 264,476 C 137,183 419,200 623,444 C 253,103 444,175 273,251 C 466,122 241,464 442,485 C 595,296 191,479 222,434 Z" opacity=".067" transform="rotate(-45.0 400 300)"/><path fill="#f9d84b" stroke="#ed2b2c" stroke-opacity=".599" stroke-width="5" d="M 592,370 C 552,177 642,177 139,440 C 103,309 265,262 675,312 C 473,274 290,173 677,380 C 196,342 137,422 174,342 C 572,310 108,278 662,310 C 144,229 357,229 590,257 C 657,302 292,376 692,195 C 631,425 497,385 343,364 Z" opacity=".975" transform="rotate(-117.0 400 300)"/><polygon fill="#2b55f7" stroke="#2b55f7" stroke-opacity=".389" stroke-width="7" points="680 503 711 85 207 546 583 538 664 213 735 502 503 297 530 265" opacity=".512" transform="rotate(-29.0 400 300)"/><ellipse cx="599" cy="521" fill="#ed2b2c" stroke="#ed2b2c" stroke-opacity=".804" stroke-width="2" opacity=".53" rx="159" ry="246" transform="rotate(-22.0 400 300)"/><rect width="249" height="146" x="601" y="584" fill="#ed2b2c" stroke="#f9d84b" stroke-opacity=".128" stroke-width="2" opacity=".568" transform="rotate(120.0 400 300)"/><ellipse cx="570" cy="147" fill="#31a06b" stroke="#2b55f7" stroke-opacity=".313" stroke-width="1" opacity=".245" rx="328" ry="291" transform="rotate(61.0 400 300)"/><path fill="#ed2b2c" stroke="#2b55f7" stroke-opacity=".514" stroke-width="3" d="M 399,287 C 580,406 624,312 622,408 C 688,365 543,394 206,140 C 387,200 413,105 604,136 C 348,362 553,298 411,256 C 638,202 697,305 313,482 C 644,425 334,108 211,464 C 276,358 107,396 313,162 C 339,115 573,155 319,455 C 159,376 406,253 320,443 C 386,442 261,174 388,446 Z" opacity=".909" transform="rotate(64.0 400 300)"/><ellipse cx="320" cy="440" fill="#31a06b" stroke="#2b55f7" stroke-opacity=".421" stroke-width="1" opacity=".861" rx="193" ry="202" transform="rotate(-11.0 400 300)"/><ellipse cx="532" cy="434" fill="#ed2b2c" stroke="#31a06b" stroke-opacity=".114" stroke-width="5" opacity=".461" rx="301" ry="85" transform="rotate(-103.0 400 300)"/></g></svg>