<?xml version="1.0" encoding="UTF-8"?>
<svg width="800px" height="600px" viewBox="0 0 800 600" version="1.1" xmlns="http://www.w3.org/2000/svg" xmlns:xlink="http://www.w3.org/1999/xlink">
  <defs></defs>
  <g stroke="none" stroke-width="1" fill="none" fill-rule="evenodd">
    
    <path stroke="#02eb6b" stroke-width="1" fill="#fe9225" opacity="0.25750623133055817" stroke-opacity="0.40586082635300313" transform="rotate(-112.0 400 300)" d="M 551,488  C 278,380 364,293 106,493 C 177,374 118,168 658,161 C 347,451 503,416 595,223 C 293,244 347,132 670,205 C 601,325 693,103 478,128 C 679,378 225,438 614,422 C 128,152 486,438 307,437 Z"></path>
<path stroke="#2cd3f3" stroke-width="2" fill="#0fa6d8" opacity="0.43030301327905934" stroke-opacity="0.9807616440656979" transform="rotate(-70.0 400 300)" d="M 350,468  C 597,263 254,325 188,441 C 267,159 455,168 206,272 C 473,214 295,238 609,127 C 500,215 538,398 618,171 C 311,483 531,287 285,138 C 188,146 646,461 587,177 C 368,339 194,260 297,151 Z"></path>
<path stroke="#f559a0" stroke-width="7" fill="#fe9225" opacity="0.7208715372406115" stroke-opacity="0.9957566398028576" transform="rotate(-94.0 400 300)" d="M 667,239  C 541,361 614,464 634,388 C 419,489 656,262 467,312 C 382,212 386,165 196,262 C 202,247 308,169 172,218 Z"></path>
<path stroke="#02eb6b" stroke-width="1" fill="#02eb6b" opacity="0.3332568515316483" stroke-opacity="0.2377804465418378" transform="rotate(150.0 400 300)" d="M 188,305  C 530,131 168,143 466,494 C 576,415 676,331 344,313 C 326,232 483,153 478,429 C 158,191 673,248 373,151 C 537,135 132,474 645,419 C 165,488 392,109 404,264 Z"></path>
<path stroke="#0fa6d8" stroke-width="3" fill="#0fa6d8" opacity="0.834875983487357" stroke-opacity="0.05378935313685211" transform="rotate(-127.0 400 300)" d="M 226,151  C 266,166 250,391 600,193 C 142,494 389,387 612,411 C 331,138 303,261 610,468 C 470,330 329,237 110,131 Z"></path>
<path stroke="#02eb6b" stroke-width="5" fill="#02eb6b" opacity="0.49630827296435376" stroke-opacity="0.05805404222146526" transform="rotate(121.0 400 300)" d="M 587,407  C 597,203 244,296 272,317 C 287,246 159,244 304,269 C 558,232 604,237 423,112 C 271,399 215,287 634,329 C 433,160 463,421 214,137 C 236,404 260,440 407,370 C 651,232 401,276 322,496 C 194,417 269,358 566,170 C 161,330 456,122 558,262 C 486,175 154,473 506,115 C 295,293 647,387 628,155 Z"></path>
<path stroke="#0fa6d8" stroke-width="2" fill="#f559a0" opacity="0.6207070059019397" stroke-opacity="0.39524609471819255" transform="rotate(49.0 400 300)" d="M 549,106  C 612,247 448,420 379,350 C 102,389 193,460 130,309 C 610,366 166,460 675,205 C 155,322 245,233 330,258 C 132,282 591,197 419,123 Z"></path>
<path stroke="#fe9225" stroke-width="3" fill="#2cd3f3" opacity="0.5387096624626047" stroke-opacity="0.7057017477051968" transform="rotate(-25.0 400 300)" d="M 261,284  C 222,352 313,272 333,109 C 310,430 595,430 280,140 C 443,104 587,470 174,430 C 473,195 573,115 353,484 C 498,449 126,421 506,328 C 239,259 588,272 650,330 C 689,110 639,282 287,434 C 591,348 103,306 350,419 C 608,267 434,293 140,143 Z"></path>
<path stroke="#02eb6b" stroke-width="6" fill="#0fa6d8" opacity="0.5006545834148957" stroke-opacity="0.4531311011798838" transform="rotate(-3.0 400 300)" d="M 522,369  C 429,499 515,453 430,489 C 604,338 327,236 648,339 C 573,356 641,415 171,286 C 152,343 215,159 212,105 C 693,168 200,345 239,244 C 349,354 641,136 601,290 C 105,245 546,421 657,302 C 386,178 196,138 165,369 C 163,366 263,475 413,198 Z"></path>
<path stroke="#2cd3f3" stroke-width="2" fill="#2cd3f3" opacity="0.5449783245385313" stroke-opacity="0.41334366724198623" transform="rotate(-88.0 400 300)" d="M 603,119  C 378,458 204,160 351,372 C 469,490 293,399 181,252 C 592,443 325,419 102,362 C 648,458 700,461 653,354 C 670,323 191,317 422,158 Z"></path>

  </g>
</svg>
