<svg xmlns="http://www.w3.org/2000/svg" xmlns:xlink="http://www.w3.org/1999/xlink" width="800" height="600" version="1.1" viewBox="0 0 800 600"><g fill="none" fill-rule="evenodd" stroke="none" stroke-width="1"><path fill="#C7C765" stroke="#457955" stroke-opacity=".18" stroke-width="4" d="M 638,261 C 171,277 528,310 528,315 C 598,323 378,294 678,486 C 435,258 472,366 358,461 C 634,328 401,208 515,456 C 594,408 345,425 526,263 C 151,488 666,434 247,258 C 430,381 153,326 302,482 Z" opacity=".682" transform="rotate(0.0 400 300)"/><rect width="270" height="261" x="665" y="235" fill="#048AB5" stroke="#CA5841" stroke-opacity=".603" stroke-width="3" opacity=".361" transform="rotate(-175.0 400 300)"/><path fill="#905636" stroke="#A38951" stroke-opacity=".244" stroke-width="2" d="M 251,498 C 437,430 380,187 627,108 C 583,484 562,386 116,415 C 179,242 110,270 236,145 C 128,232 136,425 217,112 C 476,345 596,226 697,196 C 272,199 337,357 594,455 C 114,365 567,449 432,353 C 436,131 260,159 663,371 C 422,143 527,184 139,350 Z" opacity=".108" transform="rotate(-104.0 400 300)"/><rect width="181" height="77" x="542" y="382" fill="#B73579" stroke="#C0A766" stroke-opacity=".946" stroke-width="2" opacity=".209" transform="rotate(168.0 400 300)"/><rect width="97" height="154" x="192" y="309" fill="#992089" stroke="#1076CC" stroke-opacity=".695" stroke-width="7" opacity=".427" transform="rotate(41.0 400 300)"/><ellipse cx="605" cy="440" fill="#72C9B0" stroke="#7B32A6" stroke-opacity=".562" stroke-width="7" opacity=".741" rx="309" ry="348" transform="rotate(102.0 400 300)"/><ellipse cx="246" cy="234" fill="#13A236" stroke="#C7D582" stroke-opacity=".351" stroke-width="7" opacity=".86" rx="250" ry="187" transform="rotate(-87.0 400 300)"/><path fill="#C195CA" stroke="#CA6401" stroke-opacity=".543" stroke-width="6" d="M 699,349 C 430,497 157,160 243,417 C 335,308 514,463 305,160 C 310,361 250,353 396,244 C 441,188 644,140 201,184 C 125,278 415,492 458,427 C 285,388 565,301 466,303 Z" opacity=".674" transform="rotate(159.0 400 300)"/></g></svg>