<svg xmlns="http://www.w3.org/2000/svg" xmlns:xlink="http://www.w3.org/1999/xlink" width="800" height="600" version="1.1" viewBox="0 0 800 600"><g fill="none" fill-rule="evenodd" stroke="none" stroke-width="1"><path fill="#2cd3f3" stroke="#f559a0" stroke-opacity=".909" stroke-width="2" d="M 290,178 C 636,491 637,127 554,139 C 500,469 663,180 283,476 C 152,115 527,242 103,128 C 690,252 237,438 567,362 Z" opacity=".414" transform="rotate(20.0 400 300)"/><path fill="#fe9225" stroke="#0fa6d8" stroke-opacity=".219" stroke-width="6" d="M 627,237 C 122,308 521,338 287,372 C 488,223 643,356 130,252 C 689,117 472,453 644,415 C 506,205 473,238 535,335 C 604,174 215,176 461,408 C 290,485 325,188 290,275 Z" opacity=".742" transform="rotate(113.0 400 300)"/><path fill="#02eb6b" stroke="#2cd3f3" stroke-opacity=".114" stroke-width="7" d="M 678,325 C 347,183 659,492 317,192 C 156,404 305,418 602,430 C 278,319 669,467 535,269 C 467,481 264,309 674,232 C 322,124 649,303 235,161 C 387,480 613,138 306,152 C 295,314 464,110 514,372 C 403,266 498,374 507,124 Z" opacity=".332" transform="rotate(142.0 400 300)"/><path fill="#0fa6d8" stroke="#f559a0" stroke-opacity=".382" stroke-width="6" d="M 594,383 C 403,380 317,290 274,130 C 450,428 381,136 577,287 C 478,130 191,188 282,218 C 471,154 523,424 302,160 C 165,446 144,145 151,291 C 644,483 274,120 669,382 C 372,205 280,137 186,219 C 638,500 591,184 430,196 C 375,400 190,417 270,289 C 167,367 529,267 430,191 Z" opacity=".622" transform="rotate(136.0 400 300)"/><path fill="#f559a0" stroke="#2cd3f3" stroke-opacity=".154" stroke-width="7" d="M 206,467 C 547,117 587,157 161,106 C 197,246 451,445 629,407 C 234,205 625,264 336,150 C 518,143 442,220 535,301 C 223,104 145,371 341,165 C 414,320 153,127 679,496 C 240,286 213,494 661,266 C 676,159 333,200 373,163 C 357,167 631,221 613,483 Z" opacity=".026" transform="rotate(174.0 400 300)"/><path fill="#fe9225" stroke="#2cd3f3" stroke-opacity=".418" stroke-width="2" d="M 506,488 C 159,410 415,207 321,479 C 236,206 665,269 149,230 C 651,457 322,419 120,273 C 317,310 260,310 168,358 C 521,215 493,224 359,153 C 442,171 399,112 159,312 C 622,265 590,183 147,355 C 502,488 555,435 161,460 Z" opacity=".795" transform="rotate(-165.0 400 300)"/><path fill="#f559a0" stroke="#f559a0" stroke-opacity=".802" stroke-width="7" d="M 606,138 C 447,332 286,429 367,418 C 450,186 534,488 446,352 C 689,130 507,267 368,478 C 423,190 153,168 381,135 C 286,236 626,297 365,300 C 634,465 508,394 585,140 Z" opacity=".791" transform="rotate(26.0 400 300)"/></g></svg>