<svg xmlns="http://www.w3.org/2000/svg" xmlns:xlink="http://www.w3.org/1999/xlink" width="800" height="600" version="1.1" viewBox="0 0 800 600"><g fill="none" fill-rule="evenodd" stroke="none" stroke-width="1"><path fill="#02eb6b" stroke="#f559a0" stroke-opacity=".217" stroke-width="5" d="M 312,351 C 440,161 135,190 679,409 C 244,367 241,266 168,155 C 458,313 532,300 666,291 C 181,183 378,272 653,493 C 316,332 372,284 664,427 C 111,404 270,257 295,444 C 406,346 172,331 212,344 C 130,340 242,334 581,339 Z" opacity=".063" transform="rotate(-128.0 400 300)"/><polygon fill="#02eb6b" stroke="#fe9225" stroke-opacity=".134" stroke-width="7" points="49 68 646 120 762 485 615 138 121 455 259 259 778 229 709 350" opacity=".659" transform="rotate(11.0 400 300)"/><ellipse cx="472" cy="21" fill="#fe9225" stroke="#fe9225" stroke-opacity=".048" stroke-width="6" opacity=".213" rx="66" ry="335" transform="rotate(-17.0 400 300)"/><ellipse cx="63" cy="529" fill="#2cd3f3" stroke="#0fa6d8" stroke-opacity=".176" stroke-width="3" opacity=".01" rx="174" ry="330" transform="rotate(-88.0 400 300)"/><path fill="#2cd3f3" stroke="#fe9225" stroke-opacity=".744" stroke-width="1" d="M 441,489 C 352,401 186,314 604,284 C 246,220 188,317 207,197 C 174,130 677,254 291,201 C 198,433 142,335 145,135 C 389,210 594,418 385,132 C 388,460 562,416 697,451 C 661,114 528,364 645,217 C 410,437 296,380 620,117 C 392,172 554,306 426,283 C 348,428 687,314 387,242 Z" opacity=".275" transform="rotate(10.0 400 300)"/><rect width="239" height="131" x="398" y="244" fill="#0fa6d8" stroke="#02eb6b" stroke-opacity=".393" stroke-width="1" opacity=".414" transform="rotate(145.0 400 300)"/><path fill="#fe9225" stroke="#fe9225" stroke-opacity=".499" stroke-width="2" d="M 678,271 C 115,361 353,379 293,192 C 640,184 593,220 660,168 C 401,207 280,153 434,289 C 195,235 111,216 615,253 C 184,443 573,337 361,265 C 643,167 102,482 650,291 Z" opacity=".725" transform="rotate(52.0 400 300)"/><polygon fill="#fe9225" stroke="#f559a0" stroke-opacity=".644" stroke-width="3" points="788 175 499 84 133 224 20 109 180 586 223 257 338 335 308 526" opacity=".064" transform="rotate(53.0 400 300)"/><rect width="131" height="311" x="193" y="49" fill="#02eb6b" stroke="#2cd3f3" stroke-opacity=".591" stroke-width="5" opacity=".14" transform="rotate(-10.0 400 300)"/><polygon fill="#2cd3f3" stroke="#fe9225" stroke-opacity=".116" stroke-width="2" points="472 53 192 439 57 182 284 243 116 506" opacity=".458" transform="rotate(71.0 400 300)"/><ellipse cx="250" cy="585" fill="#02eb6b" stroke="#fe9225" stroke-opacity=".36" stroke-width="3" opacity=".266" rx="185" ry="306" transform="rotate(-129.0 400 300)"/></g></svg>