<?xml version="1.0" encoding="UTF-8"?>
<svg width="800px" height="600px" viewBox="0 0 800 600" version="1.1" xmlns="http://www.w3.org/2000/svg" xmlns:xlink="http://www.w3.org/1999/xlink">
  <defs></defs>
  <g stroke="none" stroke-width="1" fill="none" fill-rule="evenodd">
    
    <path stroke="#f559a0" stroke-width="5" fill="#02eb6b" opacity="0.0630765596595965" stroke-opacity="0.21656242441257362" transform="rotate(-128.0 400 300)" d="M 312,351  C 440,161 135,190 679,409 C 244,367 241,266 168,155 C 458,313 532,300 666,291 C 181,183 378,272 653,493 C 316,332 372,284 664,427 C 111,404 270,257 295,444 C 406,346 172,331 212,344 C 130,340 242,334 581,339 Z"></path>
<polygon stroke="#fe9225" stroke-width="7" fill="#02eb6b" opacity="0.6586516757606509" stroke-opacity="0.13376354307803942" transform="rotate(11.0 400 300)" points="49 68 646 120 762 485 615 138 121 455 259 259 778 229 709 350 "></polygon>
<ellipse stroke="#fe9225" stroke-width="6" fill="#fe9225" opacity="0.21264956852885192" stroke-opacity="0.04788255990540166" transform="rotate(-17.0 400 300)" cx="472" rx="66" cy="21" ry="335"></ellipse>
<ellipse stroke="#0fa6d8" stroke-width="3" fill="#2cd3f3" opacity="0.009546863677846943" stroke-opacity="0.1755563550851354" transform="rotate(-88.0 400 300)" cx="63" rx="174" cy="529" ry="330"></ellipse>
<path stroke="#fe9225" stroke-width="1" fill="#2cd3f3" opacity="0.2752560347005347" stroke-opacity="0.7442162445350097" transform="rotate(10.0 400 300)" d="M 441,489  C 352,401 186,314 604,284 C 246,220 188,317 207,197 C 174,130 677,254 291,201 C 198,433 142,335 145,135 C 389,210 594,418 385,132 C 388,460 562,416 697,451 C 661,114 528,364 645,217 C 410,437 296,380 620,117 C 392,172 554,306 426,283 C 348,428 687,314 387,242 Z"></path>
<rect stroke="#02eb6b" stroke-width="1" fill="#0fa6d8" opacity="0.4141101932629496" stroke-opacity="0.39263736742816013" transform="rotate(145.0 400 300)" x="398" y="244" width="239" height="131"></rect>
<path stroke="#fe9225" stroke-width="2" fill="#fe9225" opacity="0.7249503961723177" stroke-opacity="0.49910517406857124" transform="rotate(52.0 400 300)" d="M 678,271  C 115,361 353,379 293,192 C 640,184 593,220 660,168 C 401,207 280,153 434,289 C 195,235 111,216 615,253 C 184,443 573,337 361,265 C 643,167 102,482 650,291 Z"></path>
<polygon stroke="#f559a0" stroke-width="3" fill="#fe9225" opacity="0.06361473997650381" stroke-opacity="0.6444076477476701" transform="rotate(53.0 400 300)" points="788 175 499 84 133 224 20 109 180 586 223 257 338 335 308 526 "></polygon>
<rect stroke="#2cd3f3" stroke-width="5" fill="#02eb6b" opacity="0.140194645101722" stroke-opacity="0.5906715502266358" transform="rotate(-10.0 400 300)" x="193" y="49" width="131" height="311"></rect>
<polygon stroke="#fe9225" stroke-width="2" fill="#2cd3f3" opacity="0.4575699235443242" stroke-opacity="0.11577804375724696" transform="rotate(71.0 400 300)" points="472 53 192 439 57 182 284 243 116 506 "></polygon>
<ellipse stroke="#fe9225" stroke-width="3" fill="#02eb6b" opacity="0.2664801366122907" stroke-opacity="0.36041499543782257" transform="rotate(-129.0 400 300)" cx="250" rx="185" cy="585" ry="306"></ellipse>

  </g>
</svg>
