<svg xmlns="http://www.w3.org/2000/svg" xmlns:xlink="http://www.w3.org/1999/xlink" width="800" height="600" version="1.1" viewBox="0 0 800 600"><g fill="none" fill-rule="evenodd" stroke="none" stroke-width="1"><rect width="68" height="391" x="415" y="522" fill="#1551D7" stroke="#573558" stroke-opacity=".903" stroke-width="1" opacity=".085" transform="rotate(-151.0 400 300)"/><ellipse cx="27" cy="438" fill="#A86753" stroke="#2CD004" stroke-opacity=".354" stroke-width="3" opacity=".509" rx="103" ry="93" transform="rotate(176.0 400 300)"/><polygon fill="#6389AA" stroke="#C90880" stroke-opacity=".313" stroke-width="4" points="16 29 13 285 569 465 591 167 142 23 599 114 730 528 658 533" opacity=".734" transform="rotate(20.0 400 300)"/><path fill="#ACB9D2" stroke="#9014AC" stroke-opacity=".949" stroke-width="6" d="M 700,397 C 614,145 190,201 527,275 C 448,500 184,118 260,113 C 470,480 191,286 126,164 C 597,477 587,266 446,312 C 141,221 228,452 622,362 C 274,242 300,106 602,227 C 441,139 193,398 379,155 Z" opacity=".802" transform="rotate(173.0 400 300)"/><path fill="#33D9C3" stroke="#8A7661" stroke-opacity=".697" stroke-width="3" d="M 425,220 C 688,296 274,395 642,242 C 148,335 542,131 351,381 C 597,329 229,332 403,276 C 473,378 138,144 146,417 C 504,241 594,313 557,373 C 662,406 356,229 407,168 C 447,291 598,190 516,183 C 533,262 547,413 321,369 C 312,366 114,369 349,451 Z" opacity=".202" transform="rotate(-133.0 400 300)"/><ellipse cx="727" cy="457" fill="#791099" stroke="#33A7AD" stroke-opacity=".058" stroke-width="4" opacity=".781" rx="167" ry="69" transform="rotate(121.0 400 300)"/><ellipse cx="51" cy="463" fill="#D40A54" stroke="#550D2D" stroke-opacity=".887" stroke-width="5" opacity=".599" rx="66" ry="121" transform="rotate(-165.0 400 300)"/><rect width="48" height="220" x="282" y="307" fill="#0B0A2D" stroke="#1ADB63" stroke-opacity=".215" stroke-width="2" opacity=".718" transform="rotate(-11.0 400 300)"/><path fill="#6C94C4" stroke="#6D52B6" stroke-opacity=".783" stroke-width="1" d="M 418,361 C 605,245 662,149 123,156 C 154,236 131,442 194,265 C 320,497 592,418 114,485 C 285,450 184,312 683,481 C 518,423 502,457 108,445 C 165,304 379,231 680,176 C 683,445 171,263 199,112 C 427,467 480,473 632,161 C 305,175 507,353 503,367 C 566,130 557,345 200,110 Z" opacity=".994" transform="rotate(-43.0 400 300)"/><ellipse cx="55" cy="415" fill="#2B55C2" stroke="#D6C496" stroke-opacity=".897" stroke-width="5" opacity=".174" rx="360" ry="342" transform="rotate(-50.0 400 300)"/><rect width="243" height="184" x="56" y="279" fill="#2C1DDC" stroke="#212CDC" stroke-opacity=".574" stroke-width="7" opacity=".765" transform="rotate(-112.0 400 300)"/></g></svg>