<svg xmlns="http://www.w3.org/2000/svg" xmlns:xlink="http://www.w3.org/1999/xlink" width="800" height="600" version="1.1" viewBox="0 0 800 600"><g fill="none" fill-rule="evenodd" stroke="none" stroke-width="1"><path fill="#8831C9" stroke="#57278A" stroke-opacity=".216" stroke-width="6" d="M 185,340 C 451,183 596,257 327,481 C 565,228 599,458 129,196 C 373,181 303,263 420,276 C 675,182 446,227 227,315 C 465,375 202,323 345,155 C 447,206 540,274 136,263 C 305,205 687,428 422,362 Z" opacity=".705" transform="rotate(87.0 400 300)"/><path fill="#836548" stroke="#0A7897" stroke-opacity=".664" stroke-width="2" d="M 687,494 C 204,177 164,245 635,146 C 685,261 246,285 455,101 C 199,104 544,491 666,357 C 261,288 237,167 139,270 C 170,136 599,386 581,130 C 224,284 138,168 305,415 C 700,410 200,436 194,129 Z" opacity=".791" transform="rotate(157.0 400 300)"/><path fill="#65A825" stroke="#6A97D4" stroke-opacity=".827" stroke-width="5" d="M 520,293 C 295,152 318,150 640,398 C 543,195 227,353 493,153 C 520,488 321,468 350,419 C 458,286 293,392 617,176 C 236,179 643,106 302,485 C 216,408 453,495 191,372 C 120,214 270,292 398,405 C 249,452 635,424 616,318 C 233,269 506,500 225,287 Z" opacity=".667" transform="rotate(-26.0 400 300)"/><path fill="#075679" stroke="#58B82B" stroke-opacity=".69" stroke-width="3" d="M 353,449 C 443,174 687,162 485,300 C 115,181 417,112 676,239 C 222,378 399,162 204,424 C 332,478 374,214 569,173 C 220,358 132,224 529,454 C 668,500 609,421 517,136 Z" opacity=".676" transform="rotate(-27.0 400 300)"/><path fill="#346B52" stroke="#805146" stroke-opacity=".835" stroke-width="1" d="M 284,203 C 194,194 577,479 105,266 C 531,287 591,271 507,341 C 257,169 181,192 394,337 C 217,287 687,469 568,224 C 495,453 337,138 450,394 C 684,485 123,435 431,232 C 292,243 213,239 654,147 C 501,109 322,206 102,338 C 450,421 388,191 646,376 Z" opacity=".161" transform="rotate(52.0 400 300)"/><path fill="#0A6240" stroke="#4BCD39" stroke-opacity=".046" stroke-width="2" d="M 513,190 C 135,157 327,340 126,204 C 202,427 151,265 388,343 C 215,489 420,217 235,176 C 187,462 267,386 557,214 C 348,275 204,398 478,263 C 380,425 565,367 270,439 C 658,192 424,183 466,493 C 630,268 513,414 199,417 Z" opacity=".231" transform="rotate(-4.0 400 300)"/><path fill="#573AD7" stroke="#674194" stroke-opacity=".901" stroke-width="7" d="M 566,289 C 448,112 302,439 679,265 C 486,438 532,155 610,478 C 667,380 499,490 334,173 C 420,372 267,350 325,417 C 266,121 274,465 433,240 C 390,452 277,203 487,102 C 386,419 361,378 630,148 C 682,364 239,411 426,223 Z" opacity=".361" transform="rotate(-91.0 400 300)"/></g></svg>