<svg xmlns="http://www.w3.org/2000/svg" xmlns:xlink="http://www.w3.org/1999/xlink" width="800" height="600" version="1.1" viewBox="0 0 800 600"><g fill="none" fill-rule="evenodd" stroke="none" stroke-width="1"><path fill="#3D3D7D" stroke="#8BDC5B" stroke-opacity=".03" stroke-width="4" d="M 482,201 C 409,336 646,289 353,323 C 284,385 264,375 253,275 C 317,448 568,156 567,108 C 697,308 677,473 477,366 C 147,231 583,260 161,472 C 499,459 630,111 475,280 C 348,500 433,453 261,197 Z" opacity=".035" transform="rotate(-123.0 400 300)"/><ellipse cx="297" cy="240" fill="#C58286" stroke="#099381" stroke-opacity=".071" stroke-width="4" opacity=".253" rx="446" ry="266" transform="rotate(150.0 400 300)"/><ellipse cx="790" cy="214" fill="#2AB28C" stroke="#BAA925" stroke-opacity=".583" stroke-width="2" opacity=".999" rx="380" ry="215" transform="rotate(160.0 400 300)"/><ellipse cx="681" cy="77" fill="#A6DABA" stroke="#054999" stroke-opacity=".789" stroke-width="6" opacity=".051" rx="174" ry="203" transform="rotate(-159.0 400 300)"/><ellipse cx="576" cy="171" fill="#8A482C" stroke="#0517BA" stroke-opacity=".351" stroke-width="7" opacity=".354" rx="52" ry="137" transform="rotate(82.0 400 300)"/><rect width="332" height="353" x="173" y="90" fill="#5D283D" stroke="#6667A6" stroke-opacity=".189" stroke-width="6" opacity=".854" transform="rotate(-74.0 400 300)"/></g></svg>