<?xml version="1.0" encoding="UTF-8"?>
<svg width="800px" height="600px" viewBox="0 0 800 600" version="1.1" xmlns="http://www.w3.org/2000/svg" xmlns:xlink="http://www.w3.org/1999/xlink">
  <defs></defs>
  <g stroke="none" stroke-width="1" fill="none" fill-rule="evenodd">
    
    <path stroke="#f27630" stroke-width="4" fill="#31a06b" opacity="0.7113204523458992" stroke-opacity="0.5759857926512896" transform="rotate(66.0 400 300)" d="M 656,318  C 700,433 195,366 316,298 C 217,137 454,233 256,306 C 264,109 539,255 566,303 C 274,333 151,329 672,475 C 217,382 196,282 450,200 C 659,282 502,225 594,103 C 586,223 301,361 367,426 C 361,282 394,342 416,120 Z"></path>
<path stroke="#31a06b" stroke-width="6" fill="#31a06b" opacity="0.5764091015869411" stroke-opacity="0.41848037678110195" transform="rotate(15.0 400 300)" d="M 523,271  C 552,485 621,449 146,356 C 418,438 431,105 520,164 C 588,172 693,252 462,188 C 159,497 215,373 318,203 C 314,136 127,462 302,204 C 131,409 583,457 235,459 C 593,341 404,211 425,456 C 526,127 350,141 276,148 C 420,390 413,481 320,457 Z"></path>
<path stroke="#31a06b" stroke-width="5" fill="#2b55f7" opacity="0.3987604601371684" stroke-opacity="0.5854094490729721" transform="rotate(-14.0 400 300)" d="M 608,452  C 348,450 336,431 629,447 C 472,275 693,444 605,367 C 532,361 221,396 176,313 C 279,462 325,336 541,216 C 643,119 525,290 419,102 C 325,385 610,274 611,118 Z"></path>
<path stroke="#ed2b2c" stroke-width="1" fill="#31a06b" opacity="0.4211291151316272" stroke-opacity="0.11651211700235813" transform="rotate(38.0 400 300)" d="M 214,285  C 394,348 388,332 409,342 C 129,382 376,390 253,242 C 419,490 613,158 275,319 C 405,152 292,270 283,207 C 571,420 171,439 582,148 C 120,202 595,407 329,390 C 418,376 134,152 683,430 Z"></path>
<path stroke="#31a06b" stroke-width="2" fill="#ed2b2c" opacity="0.6277090724568443" stroke-opacity="0.8640427525963603" transform="rotate(116.0 400 300)" d="M 335,104  C 498,466 564,492 423,365 C 143,158 190,116 112,193 C 656,205 121,442 199,126 C 431,342 427,225 698,485 Z"></path>
<path stroke="#31a06b" stroke-width="5" fill="#31a06b" opacity="0.3196443613328185" stroke-opacity="0.25015199938273164" transform="rotate(-117.0 400 300)" d="M 479,460  C 594,173 519,208 210,204 C 662,122 473,479 232,455 C 653,423 319,263 485,418 C 377,305 265,358 433,426 Z"></path>
<path stroke="#f27630" stroke-width="3" fill="#f9d84b" opacity="0.9523273896674981" stroke-opacity="0.8714345909243777" transform="rotate(-131.0 400 300)" d="M 458,240  C 651,218 330,398 491,416 C 532,431 304,498 395,156 C 542,240 576,237 442,240 C 160,327 220,159 196,387 C 568,125 574,420 172,305 C 493,158 235,154 140,164 C 149,186 322,331 452,470 C 476,414 449,208 484,444 C 604,135 154,192 301,138 Z"></path>
<path stroke="#31a06b" stroke-width="6" fill="#2b55f7" opacity="0.70086932126209" stroke-opacity="0.6851521815610403" transform="rotate(-39.0 400 300)" d="M 315,212  C 630,207 699,158 129,388 C 382,415 677,344 496,112 C 179,194 132,378 108,388 C 249,428 193,295 136,113 C 234,325 155,392 241,498 C 426,291 361,135 579,377 C 628,113 392,199 140,463 Z"></path>

  </g>
</svg>
