<svg xmlns="http://www.w3.org/2000/svg" xmlns:xlink="http://www.w3.org/1999/xlink" width="800" height="600" version="1.1" viewBox="0 0 800 600"><g fill="none" fill-rule="evenodd" stroke="none" stroke-width="1"><ellipse cx="790" cy="421" fill="#CA1CB8" stroke="#D48701" stroke-opacity=".9" stroke-width="7" opacity=".057" rx="181" ry="307" transform="rotate(-130.0 400 300)"/><path fill="#085BB0" stroke="#182AB8" stroke-opacity=".201" stroke-width="7" d="M 675,367 C 588,308 596,338 365,472 C 217,245 589,203 247,460 C 115,231 412,327 186,240 C 599,415 483,328 340,231 C 476,488 292,146 258,482 C 216,105 107,281 317,295 C 477,208 459,256 584,407 C 494,235 595,106 218,172 C 423,305 621,158 221,484 Z" opacity=".29" transform="rotate(-136.0 400 300)"/><ellipse cx="36" cy="187" fill="#1DA0A8" stroke="#867675" stroke-opacity=".155" stroke-width="1" opacity=".164" rx="218" ry="319" transform="rotate(161.0 400 300)"/><polygon fill="#1BAD15" stroke="#66CDD4" stroke-opacity=".685" stroke-width="5" points="724 487 663 294 89 195 61 442 7 513 406 559 200 233" opacity=".166" transform="rotate(-3.0 400 300)"/><path fill="#86D72D" stroke="#0D3964" stroke-opacity=".716" stroke-width="2" d="M 647,432 C 428,437 385,288 612,128 C 309,417 248,150 133,496 C 198,123 136,325 674,237 C 328,486 326,327 263,381 C 488,263 576,186 595,270 C 124,498 329,279 243,461 C 119,490 367,425 273,458 Z" opacity=".533" transform="rotate(-114.0 400 300)"/><polygon fill="#1C5055" stroke="#ACCC4A" stroke-opacity=".428" stroke-width="5" points="657 531 763 528 556 439 239 132 596 327 112 281 740 283" opacity=".664" transform="rotate(-16.0 400 300)"/><rect width="127" height="188" x="466" y="239" fill="#DDB30B" stroke="#2351CC" stroke-opacity=".187" stroke-width="6" opacity=".748" transform="rotate(-5.0 400 300)"/></g></svg>