<?xml version="1.0" encoding="UTF-8"?>
<svg width="800px" height="600px" viewBox="0 0 800 600" version="1.1" xmlns="http://www.w3.org/2000/svg" xmlns:xlink="http://www.w3.org/1999/xlink">
  <defs></defs>
  <g stroke="none" stroke-width="1" fill="none" fill-rule="evenodd">
    
    <ellipse stroke="#D48701" stroke-width="7" fill="#CA1CB8" opacity="0.05730769046380128" stroke-opacity="0.900367002743572" transform="rotate(-130.0 400 300)" cx="790" rx="181" cy="421" ry="307"></ellipse>
<path stroke="#182AB8" stroke-width="7" fill="#085BB0" opacity="0.2899937518886593" stroke-opacity="0.20114870824427833" transform="rotate(-136.0 400 300)" d="M 675,367  C 588,308 596,338 365,472 C 217,245 589,203 247,460 C 115,231 412,327 186,240 C 599,415 483,328 340,231 C 476,488 292,146 258,482 C 216,105 107,281 317,295 C 477,208 459,256 584,407 C 494,235 595,106 218,172 C 423,305 621,158 221,484 Z"></path>
<ellipse stroke="#867675" stroke-width="1" fill="#1DA0A8" opacity="0.16396833150604254" stroke-opacity="0.155272846385296" transform="rotate(161.0 400 300)" cx="36" rx="218" cy="187" ry="319"></ellipse>
<polygon stroke="#66CDD4" stroke-width="5" fill="#1BAD15" opacity="0.16557701409071005" stroke-opacity="0.685197045715265" transform="rotate(-3.0 400 300)" points="724 487 663 294 89 195 61 442 7 513 406 559 200 233 "></polygon>
<path stroke="#0D3964" stroke-width="2" fill="#86D72D" opacity="0.5330865319195381" stroke-opacity="0.7161851220697352" transform="rotate(-114.0 400 300)" d="M 647,432  C 428,437 385,288 612,128 C 309,417 248,150 133,496 C 198,123 136,325 674,237 C 328,486 326,327 263,381 C 488,263 576,186 595,270 C 124,498 329,279 243,461 C 119,490 367,425 273,458 Z"></path>
<polygon stroke="#ACCC4A" stroke-width="5" fill="#1C5055" opacity="0.6635892864460866" stroke-opacity="0.4279754194549184" transform="rotate(-16.0 400 300)" points="657 531 763 528 556 439 239 132 596 327 112 281 740 283 "></polygon>
<rect stroke="#2351CC" stroke-width="6" fill="#DDB30B" opacity="0.7477402294588736" stroke-opacity="0.18650128207456862" transform="rotate(-5.0 400 300)" x="466" y="239" width="127" height="188"></rect>

  </g>
</svg>
