<?xml version="1.0" encoding="UTF-8"?>
<svg width="800px" height="600px" viewBox="0 0 800 600" version="1.1" xmlns="http://www.w3.org/2000/svg" xmlns:xlink="http://www.w3.org/1999/xlink">
  <defs></defs>
  <g stroke="none" stroke-width="1" fill="none" fill-rule="evenodd">
    
    <path stroke="#02eb6b" stroke-width="7" fill="#fe9225" opacity="0.07459232863812101" stroke-opacity="0.9965499007009259" transform="rotate(-82.0 400 300)" d="M 513,471  C 387,259 635,366 491,153 C 119,170 485,340 683,490 C 576,226 112,273 365,368 C 312,471 319,465 453,441 C 451,223 573,248 274,490 C 317,499 298,252 238,139 Z"></path>
<path stroke="#0fa6d8" stroke-width="5" fill="#f559a0" opacity="0.7921307539545388" stroke-opacity="0.3881769001053363" transform="rotate(-135.0 400 300)" d="M 481,408  C 495,156 387,116 304,214 C 353,426 151,429 109,375 C 455,239 277,253 132,334 C 571,448 476,229 668,253 C 359,363 599,492 438,291 C 210,125 477,456 469,417 C 336,262 531,207 353,415 C 294,176 443,138 541,334 Z"></path>
<path stroke="#2cd3f3" stroke-width="4" fill="#fe9225" opacity="0.02070122477615577" stroke-opacity="0.05100283062163465" transform="rotate(-148.0 400 300)" d="M 539,162  C 191,114 405,451 105,289 C 291,128 622,351 512,148 C 539,140 636,179 550,415 C 287,254 346,421 109,260 C 565,499 262,470 202,263 C 671,420 454,154 514,112 Z"></path>
<path stroke="#f559a0" stroke-width="6" fill="#f559a0" opacity="0.6802717221918354" stroke-opacity="0.8528178062175277" transform="rotate(25.0 400 300)" d="M 177,360  C 580,318 366,229 251,375 C 372,453 355,482 563,436 C 313,425 700,369 554,192 C 251,265 180,150 413,125 C 178,164 107,129 179,210 C 127,241 119,308 645,217 C 141,483 160,146 337,393 C 264,419 408,456 631,331 C 215,332 147,341 225,235 Z"></path>
<path stroke="#f559a0" stroke-width="2" fill="#0fa6d8" opacity="0.8077152447517413" stroke-opacity="0.696358707096306" transform="rotate(-21.0 400 300)" d="M 649,194  C 398,360 326,396 311,152 C 517,277 340,498 123,222 C 495,279 419,275 392,190 C 185,266 177,426 480,213 C 220,445 345,249 541,172 C 431,150 338,425 555,396 C 368,452 522,129 404,260 C 555,459 335,479 514,240 C 511,255 676,343 656,325 Z"></path>
<path stroke="#f559a0" stroke-width="4" fill="#fe9225" opacity="0.44033672659078016" stroke-opacity="0.9269806571011218" transform="rotate(137.0 400 300)" d="M 352,297  C 267,231 679,141 366,105 C 323,249 610,125 695,322 C 441,319 215,438 202,306 C 110,202 307,324 251,352 Z"></path>
<path stroke="#fe9225" stroke-width="1" fill="#f559a0" opacity="0.04410770940624822" stroke-opacity="0.6186704206944806" transform="rotate(-115.0 400 300)" d="M 438,347  C 414,456 145,420 322,460 C 505,173 149,481 627,485 C 325,238 351,191 196,355 C 628,435 278,258 448,397 C 280,176 441,480 273,192 C 350,284 164,201 491,245 Z"></path>
<path stroke="#0fa6d8" stroke-width="7" fill="#f559a0" opacity="0.2734447827986585" stroke-opacity="0.34426612157954434" transform="rotate(97.0 400 300)" d="M 119,184  C 170,360 352,187 266,201 C 334,214 454,209 588,159 C 149,153 300,256 674,460 C 581,178 613,104 467,444 C 441,250 212,235 248,264 C 267,363 253,110 111,147 C 144,249 248,172 343,383 C 484,403 593,127 506,429 C 162,348 330,235 337,337 Z"></path>
<path stroke="#fe9225" stroke-width="7" fill="#f559a0" opacity="0.5928557170314953" stroke-opacity="0.03890298815182794" transform="rotate(84.0 400 300)" d="M 460,293  C 168,418 412,133 314,316 C 237,253 320,188 146,179 C 666,146 565,310 636,279 C 639,103 335,165 280,267 C 154,246 602,176 157,208 C 510,253 107,239 689,445 C 320,168 347,151 386,146 C 367,279 206,358 312,154 C 511,328 214,431 314,258 C 366,372 532,411 668,308 C 568,455 340,471 543,472 Z"></path>
<path stroke="#2cd3f3" stroke-width="6" fill="#02eb6b" opacity="0.5876815118863643" stroke-opacity="0.8725984142165265" transform="rotate(9.0 400 300)" d="M 332,476  C 308,399 338,381 335,109 C 262,487 136,279 147,367 C 449,194 220,254 473,235 C 593,452 457,450 167,288 C 304,332 567,183 235,143 C 400,176 511,137 494,210 C 258,364 598,185 690,425 C 698,390 127,471 320,300 Z"></path>
<path stroke="#02eb6b" stroke-width="1" fill="#f559a0" opacity="0.2854810793581545" stroke-opacity="0.2581520369480577" transform="rotate(-25.0 400 300)" d="M 356,209  C 318,363 266,386 322,436 C 683,500 408,122 483,105 C 691,400 621,421 610,266 C 307,498 490,385 401,319 C 671,325 197,458 224,154 C 236,435 275,189 537,173 C 502,419 266,382 677,182 Z"></path>

  </g>
</svg>
