<svg xmlns="http://www.w3.org/2000/svg" xmlns:xlink="http://www.w3.org/1999/xlink" width="800" height="600" version="1.1" viewBox="0 0 800 600"><g fill="none" fill-rule="evenodd" stroke="none" stroke-width="1"><polygon fill="#ed2b2c" stroke="#2b55f7" stroke-opacity=".462" stroke-width="6" points="250 307 264 311 78 489 295 199 330 3 699 426 243 521 626 212" opacity=".381" transform="rotate(97.0 400 300)"/><rect width="344" height="64" x="124" y="129" fill="#ed2b2c" stroke="#31a06b" stroke-opacity=".429" stroke-width="6" opacity=".79" transform="rotate(14.0 400 300)"/><rect width="209" height="131" x="459" y="252" fill="#31a06b" stroke="#2b55f7" stroke-opacity=".498" stroke-width="1" opacity=".67" transform="rotate(77.0 400 300)"/><ellipse cx="181" cy="156" fill="#f27630" stroke="#f27630" stroke-opacity=".776" stroke-width="7" opacity=".735" rx="340" ry="94" transform="rotate(-148.0 400 300)"/><ellipse cx="731" cy="309" fill="#31a06b" stroke="#f9d84b" stroke-opacity=".686" stroke-width="2" opacity=".529" rx="365" ry="160" transform="rotate(-144.0 400 300)"/><ellipse cx="382" cy="486" fill="#2b55f7" stroke="#31a06b" stroke-opacity=".322" stroke-width="4" opacity=".81" rx="222" ry="70" transform="rotate(135.0 400 300)"/><path fill="#ed2b2c" stroke="#31a06b" stroke-opacity=".968" stroke-width="3" d="M 279,440 C 564,414 394,293 252,165 C 610,180 439,411 209,137 C 281,465 243,404 113,125 C 392,257 116,256 227,459 C 669,148 149,402 530,268 Z" opacity=".585" transform="rotate(88.0 400 300)"/><path fill="#f27630" stroke="#31a06b" stroke-opacity=".822" stroke-width="1" d="M 397,261 C 473,265 390,453 194,259 C 491,357 126,242 202,345 C 613,291 406,184 190,387 C 627,377 642,496 407,170 Z" opacity=".496" transform="rotate(-169.0 400 300)"/><rect width="163" height="283" x="573" y="53" fill="#f27630" stroke="#f9d84b" stroke-opacity=".169" stroke-width="4" opacity=".394" transform="rotate(-6.0 400 300)"/><ellipse cx="434" cy="504" fill="#f9d84b" stroke="#f27630" stroke-opacity=".724" stroke-width="4" opacity=".169" rx="313" ry="345" transform="rotate(-12.0 400 300)"/><polygon fill="#f27630" stroke="#31a06b" stroke-opacity=".352" stroke-width="5" points="641 10 478 287 248 178 177 404 644 240" opacity=".706" transform="rotate(36.0 400 300)"/></g></svg>