<svg xmlns="http://www.w3.org/2000/svg" xmlns:xlink="http://www.w3.org/1999/xlink" width="800" height="600" version="1.1" viewBox="0 0 800 600"><g fill="none" fill-rule="evenodd" stroke="none" stroke-width="1"><path fill="#B85B09" stroke="#1C0DCC" stroke-opacity=".536" stroke-width="2" d="M 499,140 C 452,247 542,497 617,247 C 676,281 229,434 348,198 C 433,467 372,242 465,448 C 104,359 196,261 385,197 C 479,457 577,298 556,232 Z" opacity=".436" transform="rotate(-109.0 400 300)"/><path fill="#CA0892" stroke="#5CA491" stroke-opacity=".309" stroke-width="5" d="M 541,407 C 566,124 408,276 167,369 C 365,247 610,155 674,209 C 527,386 309,253 603,266 C 581,286 326,114 497,435 C 305,467 262,175 366,282 C 267,217 437,423 481,342 C 487,108 355,150 254,264 C 111,366 477,303 672,115 C 328,183 625,449 658,401 Z" opacity=".484" transform="rotate(85.0 400 300)"/><path fill="#7D6593" stroke="#1B41B5" stroke-opacity=".617" stroke-width="4" d="M 554,306 C 135,395 295,201 577,336 C 612,135 451,371 265,121 C 440,440 629,399 600,450 C 415,347 670,148 227,308 C 609,442 258,114 470,411 Z" opacity=".706" transform="rotate(-15.0 400 300)"/><path fill="#72A7B9" stroke="#916232" stroke-opacity=".163" stroke-width="2" d="M 162,460 C 259,328 532,154 159,471 C 549,394 559,451 655,261 C 685,464 426,191 276,363 C 536,144 303,303 390,277 C 316,190 210,163 664,499 C 478,241 155,198 388,494 C 579,115 160,166 164,164 C 502,193 697,241 552,207 C 567,489 248,338 696,109 C 318,148 525,289 318,284 Z" opacity=".488" transform="rotate(49.0 400 300)"/><path fill="#6A6176" stroke="#5A2402" stroke-opacity=".581" stroke-width="5" d="M 525,443 C 518,499 514,397 294,243 C 249,465 516,203 564,423 C 370,137 543,171 408,208 C 261,392 517,423 101,271 C 621,232 680,168 278,124 Z" opacity=".759" transform="rotate(-8.0 400 300)"/><path fill="#28CCC9" stroke="#1339AB" stroke-opacity=".019" stroke-width="6" d="M 468,218 C 365,456 430,175 263,369 C 241,320 468,376 673,300 C 151,193 399,366 389,143 C 209,188 587,153 546,463 C 458,247 133,313 572,379 Z" opacity=".717" transform="rotate(28.0 400 300)"/></g></svg>