<?xml version="1.0" encoding="UTF-8"?>
<svg width="800px" height="600px" viewBox="0 0 800 600" version="1.1" xmlns="http://www.w3.org/2000/svg" xmlns:xlink="http://www.w3.org/1999/xlink">
  <defs></defs>
  <g stroke="none" stroke-width="1" fill="none" fill-rule="evenodd">
    
    <path stroke="#1C0DCC" stroke-width="2" fill="#B85B09" opacity="0.4357214636076353" stroke-opacity="0.535634966369841" transform="rotate(-109.0 400 300)" d="M 499,140  C 452,247 542,497 617,247 C 676,281 229,434 348,198 C 433,467 372,242 465,448 C 104,359 196,261 385,197 C 479,457 577,298 556,232 Z"></path>
<path stroke="#5CA491" stroke-width="5" fill="#CA0892" opacity="0.4839197927223064" stroke-opacity="0.30870370367706146" transform="rotate(85.0 400 300)" d="M 541,407  C 566,124 408,276 167,369 C 365,247 610,155 674,209 C 527,386 309,253 603,266 C 581,286 326,114 497,435 C 305,467 262,175 366,282 C 267,217 437,423 481,342 C 487,108 355,150 254,264 C 111,366 477,303 672,115 C 328,183 625,449 658,401 Z"></path>
<path stroke="#1B41B5" stroke-width="4" fill="#7D6593" opacity="0.7060726621968852" stroke-opacity="0.6168705127883839" transform="rotate(-15.0 400 300)" d="M 554,306  C 135,395 295,201 577,336 C 612,135 451,371 265,121 C 440,440 629,399 600,450 C 415,347 670,148 227,308 C 609,442 258,114 470,411 Z"></path>
<path stroke="#916232" stroke-width="2" fill="#72A7B9" opacity="0.4883232785344369" stroke-opacity="0.163004096385395" transform="rotate(49.0 400 300)" d="M 162,460  C 259,328 532,154 159,471 C 549,394 559,451 655,261 C 685,464 426,191 276,363 C 536,144 303,303 390,277 C 316,190 210,163 664,499 C 478,241 155,198 388,494 C 579,115 160,166 164,164 C 502,193 697,241 552,207 C 567,489 248,338 696,109 C 318,148 525,289 318,284 Z"></path>
<path stroke="#5A2402" stroke-width="5" fill="#6A6176" opacity="0.7587344271702529" stroke-opacity="0.5805194499848277" transform="rotate(-8.0 400 300)" d="M 525,443  C 518,499 514,397 294,243 C 249,465 516,203 564,423 C 370,137 543,171 408,208 C 261,392 517,423 101,271 C 621,232 680,168 278,124 Z"></path>
<path stroke="#1339AB" stroke-width="6" fill="#28CCC9" opacity="0.7166796777869174" stroke-opacity="0.0191032801306391" transform="rotate(28.0 400 300)" d="M 468,218  C 365,456 430,175 263,369 C 241,320 468,376 673,300 C 151,193 399,366 389,143 C 209,188 587,153 546,463 C 458,247 133,313 572,379 Z"></path>

  </g>
</svg>
