<svg xmlns="http://www.w3.org/2000/svg" xmlns:xlink="http://www.w3.org/1999/xlink" width="800" height="600" version="1.1" viewBox="0 0 800 600"><g fill="none" fill-rule="evenodd" stroke="none" stroke-width="1"><polygon fill="#f27630" stroke="#f27630" stroke-opacity=".623" stroke-width="6" points="410 112 708 440 725 34 313 487 736 562 263 512 533 177" opacity=".022" transform="rotate(4.0 400 300)"/><path fill="#f27630" stroke="#f27630" stroke-opacity=".854" stroke-width="7" d="M 215,249 C 182,417 486,453 628,452 C 199,307 505,247 485,380 C 629,445 248,413 661,140 C 679,218 135,221 636,435 C 127,436 614,314 182,489 C 399,171 396,494 660,466 C 113,153 239,166 495,448 Z" opacity=".743" transform="rotate(16.0 400 300)"/><rect width="157" height="158" x="185" y="59" fill="#ed2b2c" stroke="#f9d84b" stroke-opacity=".099" stroke-width="2" opacity=".167" transform="rotate(-130.0 400 300)"/><polygon fill="#f9d84b" stroke="#31a06b" stroke-opacity=".411" stroke-width="1" points="355 252 46 77 3 364 59 407 15 108 158 187 334 254 478 177" opacity=".069" transform="rotate(126.0 400 300)"/><path fill="#2b55f7" stroke="#31a06b" stroke-opacity=".367" stroke-width="1" d="M 131,305 C 596,258 139,211 670,201 C 554,122 367,363 690,138 C 288,177 156,393 639,388 C 617,480 191,425 353,140 Z" opacity=".768" transform="rotate(-164.0 400 300)"/><ellipse cx="779" cy="490" fill="#f27630" stroke="#f27630" stroke-opacity=".757" stroke-width="7" opacity=".165" rx="129" ry="41" transform="rotate(-139.0 400 300)"/><polygon fill="#f27630" stroke="#f9d84b" stroke-opacity=".32" stroke-width="4" points="780 61 147 8 223 224 42 383 580 29 102 378" opacity=".98" transform="rotate(49.0 400 300)"/><polygon fill="#31a06b" stroke="#f9d84b" stroke-opacity=".988" stroke-width="6" points="507 378 278 439 476 116 79 245 589 1" opacity=".472" transform="rotate(-62.0 400 300)"/><polygon fill="#2b55f7" stroke="#31a06b" stroke-opacity=".94" stroke-width="5" points="287 133 426 221 256 348 590 346 627 90" opacity=".185" transform="rotate(-167.0 400 300)"/><polygon fill="#ed2b2c" stroke="#2b55f7" stroke-opacity=".314" stroke-width="1" points="322 118 182 510 508 148 176 411 523 164 214 94" opacity=".816" transform="rotate(-46.0 400 300)"/><path fill="#31a06b" stroke="#f9d84b" stroke-opacity=".919" stroke-width="1" d="M 437,497 C 259,355 311,222 331,372 C 674,105 501,223 473,324 C 596,350 215,488 447,481 C 289,148 272,140 262,494 C 672,108 185,500 555,349 C 204,260 104,143 167,101 C 418,228 122,326 650,241 C 254,351 226,458 385,225 Z" opacity=".762" transform="rotate(-116.0 400 300)"/></g></svg>