<?xml version="1.0" encoding="UTF-8"?>
<svg width="800px" height="600px" viewBox="0 0 800 600" version="1.1" xmlns="http://www.w3.org/2000/svg" xmlns:xlink="http://www.w3.org/1999/xlink">
  <defs></defs>
  <g stroke="none" stroke-width="1" fill="none" fill-rule="evenodd">
    
    <polygon stroke="#f27630" stroke-width="6" fill="#f27630" opacity="0.02201765749588482" stroke-opacity="0.6231517747011538" transform="rotate(4.0 400 300)" points="410 112 708 440 725 34 313 487 736 562 263 512 533 177 "></polygon>
<path stroke="#f27630" stroke-width="7" fill="#f27630" opacity="0.7429698247376177" stroke-opacity="0.853910504810992" transform="rotate(16.0 400 300)" d="M 215,249  C 182,417 486,453 628,452 C 199,307 505,247 485,380 C 629,445 248,413 661,140 C 679,218 135,221 636,435 C 127,436 614,314 182,489 C 399,171 396,494 660,466 C 113,153 239,166 495,448 Z"></path>
<rect stroke="#f9d84b" stroke-width="2" fill="#ed2b2c" opacity="0.16745045263195443" stroke-opacity="0.09932387971093058" transform="rotate(-130.0 400 300)" x="185" y="59" width="157" height="158"></rect>
<polygon stroke="#31a06b" stroke-width="1" fill="#f9d84b" opacity="0.06932419619237816" stroke-opacity="0.4110613891158414" transform="rotate(126.0 400 300)" points="355 252 46 77 3 364 59 407 15 108 158 187 334 254 478 177 "></polygon>
<path stroke="#31a06b" stroke-width="1" fill="#2b55f7" opacity="0.7684487817626854" stroke-opacity="0.3667335528508111" transform="rotate(-164.0 400 300)" d="M 131,305  C 596,258 139,211 670,201 C 554,122 367,363 690,138 C 288,177 156,393 639,388 C 617,480 191,425 353,140 Z"></path>
<ellipse stroke="#f27630" stroke-width="7" fill="#f27630" opacity="0.1648827028049215" stroke-opacity="0.7569686594593361" transform="rotate(-139.0 400 300)" cx="779" rx="129" cy="490" ry="41"></ellipse>
<polygon stroke="#f9d84b" stroke-width="4" fill="#f27630" opacity="0.9799925160536626" stroke-opacity="0.31995516401545" transform="rotate(49.0 400 300)" points="780 61 147 8 223 224 42 383 580 29 102 378 "></polygon>
<polygon stroke="#f9d84b" stroke-width="6" fill="#31a06b" opacity="0.47178217286485463" stroke-opacity="0.987794931011456" transform="rotate(-62.0 400 300)" points="507 378 278 439 476 116 79 245 589 1 "></polygon>
<polygon stroke="#31a06b" stroke-width="5" fill="#2b55f7" opacity="0.18477582289260916" stroke-opacity="0.9404980170837044" transform="rotate(-167.0 400 300)" points="287 133 426 221 256 348 590 346 627 90 "></polygon>
<polygon stroke="#2b55f7" stroke-width="1" fill="#ed2b2c" opacity="0.8157086059155356" stroke-opacity="0.3144099127887744" transform="rotate(-46.0 400 300)" points="322 118 182 510 508 148 176 411 523 164 214 94 "></polygon>
<path stroke="#f9d84b" stroke-width="1" fill="#31a06b" opacity="0.7617358857568032" stroke-opacity="0.9194251619869778" transform="rotate(-116.0 400 300)" d="M 437,497  C 259,355 311,222 331,372 C 674,105 501,223 473,324 C 596,350 215,488 447,481 C 289,148 272,140 262,494 C 672,108 185,500 555,349 C 204,260 104,143 167,101 C 418,228 122,326 650,241 C 254,351 226,458 385,225 Z"></path>

  </g>
</svg>
