<?xml version="1.0" encoding="UTF-8"?>
<svg width="800px" height="600px" viewBox="0 0 800 600" version="1.1" xmlns="http://www.w3.org/2000/svg" xmlns:xlink="http://www.w3.org/1999/xlink">
  <defs></defs>
  <g stroke="none" stroke-width="1" fill="none" fill-rule="evenodd">
    
    <path stroke="#31a06b" stroke-width="6" fill="#31a06b" opacity="0.7802139413206656" stroke-opacity="0.6889819131291387" transform="rotate(32.0 400 300)" d="M 265,383  C 500,397 113,405 126,372 C 430,375 126,202 128,240 C 625,486 165,305 256,170 C 201,463 352,160 453,469 C 655,496 139,195 163,337 Z"></path>
<path stroke="#f9d84b" stroke-width="5" fill="#f9d84b" opacity="0.42260495652596414" stroke-opacity="0.6110943880072466" transform="rotate(80.0 400 300)" d="M 386,312  C 274,133 220,458 464,271 C 107,216 690,331 454,210 C 289,452 316,109 119,189 C 276,183 516,373 687,474 C 170,274 144,456 349,391 Z"></path>
<path stroke="#2b55f7" stroke-width="1" fill="#f9d84b" opacity="0.757434907465623" stroke-opacity="0.6005503497186523" transform="rotate(139.0 400 300)" d="M 134,182  C 549,131 511,161 363,287 C 160,339 295,360 325,147 C 244,274 152,164 283,418 C 281,494 453,110 300,454 C 402,270 666,171 390,405 Z"></path>
<path stroke="#ed2b2c" stroke-width="2" fill="#2b55f7" opacity="0.6684065602564541" stroke-opacity="0.5983812344049015" transform="rotate(94.0 400 300)" d="M 191,168  C 190,493 147,114 539,490 C 465,141 471,397 409,254 C 378,247 332,405 203,465 C 206,337 116,173 168,248 C 262,194 198,371 125,302 C 223,189 448,233 152,135 C 440,274 447,254 501,188 Z"></path>
<path stroke="#f9d84b" stroke-width="7" fill="#f27630" opacity="0.9256704898345592" stroke-opacity="0.5726500061758251" transform="rotate(38.0 400 300)" d="M 309,104  C 618,366 601,360 125,315 C 107,444 192,430 339,126 C 107,148 487,267 289,188 C 218,252 247,412 541,492 C 114,258 449,181 477,170 C 443,257 158,287 333,139 C 336,260 688,320 180,262 C 204,386 244,359 185,288 C 412,452 262,262 167,374 C 346,192 247,421 283,315 Z"></path>
<path stroke="#f27630" stroke-width="5" fill="#ed2b2c" opacity="0.7536018022362332" stroke-opacity="0.8536406150199929" transform="rotate(-24.0 400 300)" d="M 125,254  C 422,482 531,402 408,476 C 314,171 216,234 225,265 C 443,166 476,127 700,310 C 242,399 567,397 619,423 C 558,192 124,179 197,250 C 318,116 575,286 492,491 C 128,475 516,426 687,455 C 261,434 645,134 389,448 Z"></path>

  </g>
</svg>
