<?xml version="1.0" encoding="UTF-8"?>
<svg width="800px" height="600px" viewBox="0 0 800 600" version="1.1" xmlns="http://www.w3.org/2000/svg" xmlns:xlink="http://www.w3.org/1999/xlink">
  <defs></defs>
  <g stroke="none" stroke-width="1" fill="none" fill-rule="evenodd">
    
    <path stroke="#7D38AC" stroke-width="3" fill="#2D995A" opacity="0.6307687092833283" stroke-opacity="0.1809975301553167" transform="rotate(-23.0 400 300)" d="M 632,369  C 591,314 230,121 634,196 C 585,211 332,435 604,106 C 256,299 201,224 250,202 C 222,164 121,373 542,407 Z"></path>
<path stroke="#B46671" stroke-width="5" fill="#74B535" opacity="0.9996215250911882" stroke-opacity="0.7175943469892659" transform="rotate(-53.0 400 300)" d="M 339,272  C 688,151 262,395 347,450 C 119,463 395,453 197,146 C 184,220 123,182 689,478 C 618,108 186,432 128,445 C 150,292 422,257 124,258 C 154,265 255,206 362,460 C 653,492 453,271 396,379 C 595,245 259,182 190,265 Z"></path>
<path stroke="#A5A023" stroke-width="2" fill="#34822B" opacity="0.3513460713361458" stroke-opacity="0.6089394124207409" transform="rotate(-33.0 400 300)" d="M 683,244  C 112,388 279,183 527,444 C 660,445 535,298 614,496 C 524,131 467,224 676,141 C 643,262 151,360 430,190 C 468,436 621,121 303,238 C 524,257 182,132 110,456 C 415,252 171,340 374,447 C 577,161 537,311 264,363 Z"></path>
<path stroke="#4B3269" stroke-width="1" fill="#4534A4" opacity="0.8514374449872553" stroke-opacity="0.8636936599294921" transform="rotate(66.0 400 300)" d="M 579,421  C 195,460 273,395 475,280 C 236,244 507,354 132,446 C 220,234 375,272 366,237 C 384,188 150,124 192,412 C 692,222 513,442 353,224 C 399,345 294,309 631,391 C 313,144 396,103 270,324 Z"></path>
<path stroke="#302DA0" stroke-width="4" fill="#148B36" opacity="0.9957470863392214" stroke-opacity="0.1354258143066391" transform="rotate(-31.0 400 300)" d="M 603,233  C 163,308 282,268 653,374 C 131,134 316,119 697,341 C 517,257 698,294 698,391 C 209,462 251,377 634,458 C 449,207 436,311 271,103 C 631,193 319,272 488,387 C 166,201 606,204 455,497 C 549,165 386,232 332,466 Z"></path>
<path stroke="#7C46DC" stroke-width="6" fill="#46B250" opacity="0.06386251765521386" stroke-opacity="0.7197828657283137" transform="rotate(92.0 400 300)" d="M 180,181  C 252,211 150,306 477,484 C 516,451 303,226 321,117 C 441,116 168,462 179,164 C 555,258 248,201 138,361 C 171,464 559,339 519,258 C 351,476 342,313 499,155 C 345,148 479,369 437,205 C 222,193 180,181 536,498 C 234,250 596,268 244,331 Z"></path>
<path stroke="#5D0DA6" stroke-width="1" fill="#CCA378" opacity="0.7729212165687858" stroke-opacity="0.8893257408600133" transform="rotate(117.0 400 300)" d="M 104,197  C 587,285 192,138 140,432 C 524,391 476,462 277,359 C 697,331 540,222 321,310 C 372,402 604,121 187,342 C 264,405 529,170 477,416 C 239,112 417,327 520,283 Z"></path>
<path stroke="#D431B1" stroke-width="1" fill="#B60512" opacity="0.8048333551147085" stroke-opacity="0.44780321590883765" transform="rotate(66.0 400 300)" d="M 427,498  C 484,450 204,192 327,370 C 695,359 276,426 484,355 C 670,120 563,443 443,237 C 633,312 681,232 149,352 C 189,317 489,472 299,488 C 283,156 137,222 150,166 C 370,134 428,268 222,214 C 386,483 459,287 438,439 Z"></path>
<path stroke="#BD3DAC" stroke-width="4" fill="#678490" opacity="0.41852321139969473" stroke-opacity="0.2958034148188518" transform="rotate(139.0 400 300)" d="M 161,412  C 201,371 522,230 601,213 C 422,193 423,117 348,284 C 243,448 596,426 389,274 C 366,473 308,464 610,380 C 595,228 144,160 259,112 Z"></path>
<path stroke="#A12B86" stroke-width="6" fill="#BD8D98" opacity="0.6566522187717804" stroke-opacity="0.9188409042507552" transform="rotate(164.0 400 300)" d="M 595,102  C 302,227 392,230 488,353 C 607,141 346,396 400,305 C 649,285 390,244 617,102 C 111,447 271,367 269,334 C 446,213 449,415 298,489 C 595,289 513,453 509,137 C 613,247 213,213 613,382 Z"></path>

  </g>
</svg>
