<svg xmlns="http://www.w3.org/2000/svg" xmlns:xlink="http://www.w3.org/1999/xlink" width="800" height="600" version="1.1" viewBox="0 0 800 600"><g fill="none" fill-rule="evenodd" stroke="none" stroke-width="1"><path fill="#f559a0" stroke="#f559a0" stroke-opacity=".203" stroke-width="2" d="M 258,356 C 519,305 612,480 610,407 C 383,430 652,373 261,308 C 506,353 595,132 133,199 C 208,268 340,132 158,420 C 226,243 463,293 355,128 C 673,211 648,114 426,327 C 690,250 483,447 289,331 C 516,160 515,236 191,254 C 307,429 260,144 591,113 C 498,304 688,429 168,253 C 443,312 144,287 142,399 Z" opacity=".947" transform="rotate(-135.0 400 300)"/><rect width="61" height="39" x="344" y="518" fill="#02eb6b" stroke="#fe9225" stroke-opacity=".74" stroke-width="5" opacity=".357" transform="rotate(-48.0 400 300)"/><rect width="165" height="249" x="281" y="3" fill="#0fa6d8" stroke="#f559a0" stroke-opacity=".764" stroke-width="5" opacity=".927" transform="rotate(-6.0 400 300)"/><polygon fill="#fe9225" stroke="#02eb6b" stroke-opacity=".47" stroke-width="1" points="765 324 124 330 299 423 456 71 488 577 273 127" opacity=".802" transform="rotate(-176.0 400 300)"/><ellipse cx="530" cy="172" fill="#fe9225" stroke="#f559a0" stroke-opacity=".388" stroke-width="4" opacity=".662" rx="354" ry="130" transform="rotate(21.0 400 300)"/><rect width="165" height="62" x="114" y="420" fill="#02eb6b" stroke="#02eb6b" stroke-opacity=".36" stroke-width="7" opacity=".314" transform="rotate(-72.0 400 300)"/><polygon fill="#fe9225" stroke="#0fa6d8" stroke-opacity=".335" stroke-width="6" points="73 167 237 20 609 372 164 64 314 176" opacity=".841" transform="rotate(-66.0 400 300)"/><ellipse cx="795" cy="26" fill="#2cd3f3" stroke="#2cd3f3" stroke-opacity=".593" stroke-width="7" opacity=".023" rx="252" ry="90" transform="rotate(77.0 400 300)"/></g></svg>