<svg xmlns="http://www.w3.org/2000/svg" xmlns:xlink="http://www.w3.org/1999/xlink" width="800" height="600" version="1.1" viewBox="0 0 800 600"><g fill="none" fill-rule="evenodd" stroke="none" stroke-width="1"><polygon fill="#832597" stroke="#C0CC15" stroke-opacity=".325" stroke-width="2" points="786 572 96 165 41 95 435 74 282 175 7 339 294 590 64 28" opacity=".617" transform="rotate(-147.0 400 300)"/><path fill="#21A44C" stroke="#808235" stroke-opacity=".02" stroke-width="1" d="M 417,420 C 530,114 673,211 385,301 C 626,322 210,309 330,365 C 431,427 454,151 495,299 C 147,439 207,194 542,295 C 449,145 330,482 184,426 C 186,394 632,244 328,494 C 111,434 243,324 461,402 C 232,411 660,263 163,146 Z" opacity=".225" transform="rotate(73.0 400 300)"/><polygon fill="#74B6B3" stroke="#620A0B" stroke-opacity=".723" stroke-width="5" points="276 129 12 408 157 13 800 124 589 262 472 508 670 363 249 519" opacity=".001" transform="rotate(-93.0 400 300)"/><path fill="#5ABD86" stroke="#06992B" stroke-opacity=".353" stroke-width="2" d="M 202,480 C 243,252 634,138 450,349 C 535,230 667,145 662,194 C 323,334 564,285 396,259 C 632,301 382,318 502,462 Z" opacity=".296" transform="rotate(-39.0 400 300)"/><polygon fill="#37DDBB" stroke="#940782" stroke-opacity=".098" stroke-width="7" points="606 187 542 104 727 165 543 251 668 286" opacity=".032" transform="rotate(87.0 400 300)"/><path fill="#DBDD72" stroke="#962728" stroke-opacity=".798" stroke-width="5" d="M 245,132 C 120,327 291,383 345,314 C 398,402 403,114 478,161 C 253,266 385,480 135,300 C 451,421 491,159 400,278 C 668,316 113,134 529,352 C 124,427 508,450 219,174 C 239,444 596,107 394,168 C 567,112 255,468 316,486 C 386,285 350,246 107,469 C 156,461 109,252 533,444 Z" opacity=".22" transform="rotate(179.0 400 300)"/><path fill="#D860A1" stroke="#89BAA4" stroke-opacity=".64" stroke-width="3" d="M 664,396 C 458,367 214,405 525,115 C 546,404 647,256 225,330 C 690,430 594,412 442,250 C 103,335 607,137 477,447 C 417,380 210,351 120,178 C 687,488 143,186 340,462 C 564,498 283,316 700,148 C 581,491 202,446 385,121 C 546,277 572,409 401,457 C 406,268 582,304 592,414 Z" opacity=".6" transform="rotate(-168.0 400 300)"/><polygon fill="#99B757" stroke="#85B459" stroke-opacity=".827" stroke-width="2" points="152 549 257 569 76 190 568 438 450 369 694 216" opacity=".68" transform="rotate(129.0 400 300)"/><path fill="#395AB3" stroke="#D13467" stroke-opacity=".509" stroke-width="1" d="M 679,373 C 163,265 348,305 621,389 C 114,119 469,284 118,201 C 188,447 211,348 255,254 C 117,300 285,257 523,214 C 581,264 135,448 160,114 C 521,484 197,259 667,499 Z" opacity=".382" transform="rotate(-90.0 400 300)"/></g></svg>