<?xml version="1.0" encoding="UTF-8"?>
<svg width="800px" height="600px" viewBox="0 0 800 600" version="1.1" xmlns="http://www.w3.org/2000/svg" xmlns:xlink="http://www.w3.org/1999/xlink">
  <defs></defs>
  <g stroke="none" stroke-width="1" fill="none" fill-rule="evenodd">
    
    <path stroke="#0fa6d8" stroke-width="6" fill="#02eb6b" opacity="0.6415239378432295" stroke-opacity="0.3856400968812503" transform="rotate(151.0 400 300)" d="M 186,316  C 233,161 267,474 379,116 C 194,414 576,168 391,419 C 261,113 602,191 630,473 C 308,145 193,207 583,413 C 665,326 121,315 602,292 C 616,320 406,246 408,463 C 164,418 544,354 141,468 C 261,200 175,337 112,201 Z"></path>
<path stroke="#02eb6b" stroke-width="1" fill="#f559a0" opacity="0.7063234371294481" stroke-opacity="0.5140082141198214" transform="rotate(166.0 400 300)" d="M 517,309  C 348,406 349,314 210,198 C 652,238 468,471 208,164 C 113,445 460,219 187,372 C 651,438 619,287 278,263 C 462,357 500,248 397,277 C 675,321 611,263 185,154 C 394,373 103,123 587,123 C 412,162 169,472 388,360 C 188,294 521,335 613,434 C 368,323 497,342 617,158 Z"></path>
<path stroke="#f559a0" stroke-width="1" fill="#fe9225" opacity="0.9745635331114852" stroke-opacity="0.9863802886343328" transform="rotate(174.0 400 300)" d="M 138,147  C 417,430 652,432 214,230 C 429,172 467,395 608,497 C 528,113 145,423 393,373 C 120,268 125,457 228,250 C 576,260 361,389 410,127 Z"></path>
<path stroke="#2cd3f3" stroke-width="2" fill="#f559a0" opacity="0.21704029979321138" stroke-opacity="0.7651177002332866" transform="rotate(-63.0 400 300)" d="M 290,347  C 188,138 653,342 402,493 C 680,369 230,216 215,368 C 291,492 137,144 192,322 C 506,454 378,201 340,311 C 334,461 417,176 615,340 C 369,121 269,271 384,227 Z"></path>
<path stroke="#fe9225" stroke-width="2" fill="#02eb6b" opacity="0.32149784275439985" stroke-opacity="0.5386528292616064" transform="rotate(-36.0 400 300)" d="M 263,128  C 179,223 489,442 532,343 C 331,442 567,241 319,464 C 318,353 482,166 467,206 C 503,237 312,294 156,125 C 447,365 452,318 229,323 C 301,485 140,294 489,428 Z"></path>
<path stroke="#02eb6b" stroke-width="5" fill="#f559a0" opacity="0.5662738783714355" stroke-opacity="0.7435821920237395" transform="rotate(135.0 400 300)" d="M 184,238  C 154,447 535,142 677,401 C 547,249 700,333 108,480 C 199,374 305,101 227,437 C 293,419 526,278 694,164 C 538,419 258,220 447,438 C 605,300 567,310 586,248 C 508,423 172,466 601,337 C 409,454 505,118 608,242 C 439,253 615,140 332,447 C 301,249 312,322 499,431 Z"></path>
<path stroke="#fe9225" stroke-width="6" fill="#fe9225" opacity="0.6973884318018839" stroke-opacity="0.66203333637694" transform="rotate(150.0 400 300)" d="M 444,479  C 522,345 342,372 267,108 C 513,340 231,288 437,264 C 176,383 479,133 242,220 C 496,244 201,305 676,395 Z"></path>
<path stroke="#0fa6d8" stroke-width="7" fill="#02eb6b" opacity="0.964833206823181" stroke-opacity="0.39636764813653075" transform="rotate(-105.0 400 300)" d="M 297,197  C 306,464 461,348 276,198 C 224,376 512,118 661,212 C 391,217 523,288 271,256 C 468,434 356,127 472,251 C 141,172 539,368 157,398 Z"></path>

  </g>
</svg>
