<svg xmlns="http://www.w3.org/2000/svg" xmlns:xlink="http://www.w3.org/1999/xlink" width="800" height="600" version="1.1" viewBox="0 0 800 600"><g fill="none" fill-rule="evenodd" stroke="none" stroke-width="1"><path fill="#2cd3f3" stroke="#2cd3f3" stroke-opacity=".611" stroke-width="2" d="M 397,245 C 520,157 426,174 399,179 C 230,290 551,300 158,446 C 338,449 187,466 159,315 C 567,399 536,355 361,492 C 697,188 246,490 575,297 C 205,127 369,272 223,388 C 120,217 308,134 449,203 C 101,363 406,166 557,157 C 165,127 310,328 442,422 C 130,260 679,288 458,487 Z" opacity=".86" transform="rotate(23.0 400 300)"/><path fill="#fe9225" stroke="#2cd3f3" stroke-opacity=".766" stroke-width="1" d="M 219,285 C 688,192 281,117 481,368 C 652,380 635,168 212,172 C 651,180 398,280 575,333 C 400,457 543,421 109,259 C 545,132 691,342 684,297 Z" opacity=".134" transform="rotate(82.0 400 300)"/><path fill="#f559a0" stroke="#02eb6b" stroke-opacity=".699" stroke-width="3" d="M 152,401 C 203,218 326,362 273,128 C 330,464 639,322 404,285 C 159,403 580,406 590,349 C 203,386 342,418 541,142 C 518,356 572,121 125,296 C 289,455 605,468 271,469 C 460,190 603,451 494,464 C 189,386 590,280 349,204 C 541,258 514,119 212,331 C 382,500 467,383 165,224 C 549,366 527,411 199,337 Z" opacity=".253" transform="rotate(-71.0 400 300)"/><path fill="#f559a0" stroke="#f559a0" stroke-opacity=".432" stroke-width="5" d="M 151,182 C 260,184 402,230 126,300 C 193,245 454,243 274,446 C 518,239 525,393 427,105 C 554,236 172,186 632,109 C 662,454 515,289 247,347 C 691,406 254,412 601,440 C 646,306 236,101 488,175 C 213,314 272,341 680,340 C 356,417 235,460 365,185 C 253,176 631,427 568,402 Z" opacity=".996" transform="rotate(-108.0 400 300)"/><path fill="#2cd3f3" stroke="#2cd3f3" stroke-opacity=".819" stroke-width="1" d="M 582,152 C 377,228 624,335 372,219 C 590,183 696,128 536,203 C 505,500 320,281 368,437 C 636,135 570,211 603,402 C 482,276 610,153 299,489 C 136,499 619,390 309,138 C 515,131 626,323 512,398 C 313,432 294,104 171,314 Z" opacity=".164" transform="rotate(21.0 400 300)"/><path fill="#2cd3f3" stroke="#fe9225" stroke-opacity=".04" stroke-width="6" d="M 358,452 C 227,328 611,252 332,491 C 641,364 571,117 188,392 C 513,384 211,354 455,245 C 458,402 623,305 229,293 C 413,406 116,421 445,291 C 395,326 433,355 458,129 C 260,153 430,301 287,314 C 518,327 117,391 238,459 C 686,299 495,308 153,297 Z" opacity=".124" transform="rotate(59.0 400 300)"/><path fill="#fe9225" stroke="#2cd3f3" stroke-opacity=".725" stroke-width="2" d="M 231,150 C 494,364 149,357 649,113 C 606,292 687,452 622,480 C 449,241 379,187 142,426 C 696,226 309,295 472,477 C 520,150 521,428 464,484 C 572,276 473,271 403,383 C 604,383 646,272 631,148 C 537,469 244,439 342,269 C 691,165 447,112 252,281 C 313,115 295,349 112,336 Z" opacity=".34" transform="rotate(-131.0 400 300)"/><path fill="#f559a0" stroke="#fe9225" stroke-opacity=".922" stroke-width="5" d="M 576,431 C 154,446 678,280 345,288 C 598,182 284,149 256,403 C 649,370 471,198 198,362 C 452,160 641,494 331,244 C 584,364 384,455 597,347 C 563,389 469,182 148,366 C 395,361 374,130 171,156 Z" opacity=".397" transform="rotate(153.0 400 300)"/><path fill="#2cd3f3" stroke="#fe9225" stroke-opacity=".076" stroke-width="1" d="M 407,372 C 587,450 433,146 448,458 C 355,343 531,199 651,111 C 533,107 568,345 318,231 C 599,324 442,314 697,411 C 297,225 158,212 603,232 C 184,448 138,218 668,476 C 541,358 351,387 156,390 C 686,303 271,231 380,482 C 213,325 490,107 199,253 C 298,208 113,177 114,335 Z" opacity=".271" transform="rotate(-32.0 400 300)"/><path fill="#2cd3f3" stroke="#2cd3f3" stroke-opacity=".763" stroke-width="7" d="M 464,291 C 549,219 453,200 536,413 C 474,449 440,212 326,316 C 493,149 565,189 187,350 C 681,483 111,353 467,145 C 440,280 257,152 357,456 C 439,383 252,389 686,433 C 104,211 626,140 288,301 C 412,465 461,166 560,181 C 689,226 111,442 314,137 C 510,265 616,141 681,297 Z" opacity=".525" transform="rotate(-136.0 400 300)"/><path fill="#fe9225" stroke="#0fa6d8" stroke-opacity=".298" stroke-width="7" d="M 256,359 C 173,447 686,196 631,114 C 605,484 521,103 556,496 C 296,382 505,383 441,449 C 115,171 380,140 169,372 C 308,430 210,467 117,230 C 522,142 509,432 177,344 C 363,358 502,238 413,444 Z" opacity=".269" transform="rotate(66.0 400 300)"/></g></svg>