<svg xmlns="http://www.w3.org/2000/svg" xmlns:xlink="http://www.w3.org/1999/xlink" width="800" height="600" version="1.1" viewBox="0 0 800 600"><g fill="none" fill-rule="evenodd" stroke="none" stroke-width="1"><path fill="#31a06b" stroke="#f27630" stroke-opacity=".52" stroke-width="1" d="M 285,152 C 429,133 125,442 624,372 C 564,451 144,161 654,366 C 398,293 370,264 699,368 C 244,395 347,486 187,412 Z" opacity=".781" transform="rotate(-164.0 400 300)"/><path fill="#ed2b2c" stroke="#ed2b2c" stroke-opacity=".099" stroke-width="2" d="M 345,336 C 175,175 423,457 629,103 C 557,202 426,360 137,199 C 589,478 446,459 191,109 C 336,369 459,152 443,295 C 664,286 168,343 162,431 C 161,329 667,144 359,399 C 673,449 500,284 628,320 C 168,407 252,176 121,160 Z" opacity=".282" transform="rotate(-153.0 400 300)"/><path fill="#2b55f7" stroke="#2b55f7" stroke-opacity=".616" stroke-width="4" d="M 376,422 C 301,449 330,472 235,401 C 144,190 496,463 294,127 C 121,394 627,271 550,436 C 416,185 591,195 361,358 C 429,193 650,456 186,229 Z" opacity=".198" transform="rotate(-4.0 400 300)"/><rect width="55" height="371" x="260" y="336" fill="#f9d84b" stroke="#ed2b2c" stroke-opacity=".783" stroke-width="1" opacity=".99" transform="rotate(104.0 400 300)"/><ellipse cx="270" cy="364" fill="#f27630" stroke="#f27630" stroke-opacity=".849" stroke-width="2" opacity=".91" rx="133" ry="279" transform="rotate(-128.0 400 300)"/><rect width="98" height="236" x="304" y="125" fill="#ed2b2c" stroke="#2b55f7" stroke-opacity=".45" stroke-width="7" opacity=".26" transform="rotate(-94.0 400 300)"/><polygon fill="#ed2b2c" stroke="#2b55f7" stroke-opacity=".058" stroke-width="3" points="367 8 91 585 487 379 725 474 535 5 632 266 454 389" opacity=".928" transform="rotate(140.0 400 300)"/><rect width="68" height="354" x="289" y="309" fill="#ed2b2c" stroke="#f9d84b" stroke-opacity=".386" stroke-width="5" opacity=".519" transform="rotate(-149.0 400 300)"/><rect width="237" height="117" x="658" y="68" fill="#f27630" stroke="#f27630" stroke-opacity=".688" stroke-width="2" opacity=".396" transform="rotate(16.0 400 300)"/></g></svg>