<svg xmlns="http://www.w3.org/2000/svg" xmlns:xlink="http://www.w3.org/1999/xlink" width="800" height="600" version="1.1" viewBox="0 0 800 600"><g fill="none" fill-rule="evenodd" stroke="none" stroke-width="1"><ellipse cx="99" cy="557" fill="#f559a0" stroke="#2cd3f3" stroke-opacity=".329" stroke-width="3" opacity=".361" rx="222" ry="117" transform="rotate(9.0 400 300)"/><path fill="#0fa6d8" stroke="#fe9225" stroke-opacity=".746" stroke-width="7" d="M 116,246 C 449,133 280,164 419,147 C 517,231 148,254 275,294 C 212,381 500,187 179,259 C 592,446 515,231 279,319 C 578,204 659,187 479,348 C 538,177 608,221 358,141 C 644,135 245,273 354,389 C 385,492 459,287 276,397 C 332,455 311,345 470,191 Z" opacity=".848" transform="rotate(-145.0 400 300)"/><polygon fill="#0fa6d8" stroke="#02eb6b" stroke-opacity=".244" stroke-width="3" points="369 43 794 512 97 211 299 31 435 410" opacity=".104" transform="rotate(-59.0 400 300)"/><polygon fill="#fe9225" stroke="#fe9225" stroke-opacity=".519" stroke-width="5" points="565 567 54 175 149 193 766 57 25 111 654 266 662 600 198 444" opacity=".845" transform="rotate(-133.0 400 300)"/><polygon fill="#02eb6b" stroke="#f559a0" stroke-opacity=".59" stroke-width="6" points="220 346 456 419 557 567 556 383 518 322" opacity=".436" transform="rotate(132.0 400 300)"/><rect width="229" height="73" x="300" y="558" fill="#0fa6d8" stroke="#02eb6b" stroke-opacity=".026" stroke-width="2" opacity=".683" transform="rotate(-6.0 400 300)"/></g></svg>