<svg xmlns="http://www.w3.org/2000/svg" xmlns:xlink="http://www.w3.org/1999/xlink" width="800" height="600" version="1.1" viewBox="0 0 800 600"><g fill="none" fill-rule="evenodd" stroke="none" stroke-width="1"><path fill="#f559a0" stroke="#02eb6b" stroke-opacity=".541" stroke-width="3" d="M 690,296 C 523,348 390,323 152,350 C 319,240 139,449 573,142 C 403,191 183,363 159,387 C 473,309 122,407 276,324 C 626,324 277,447 410,448 C 527,406 633,326 413,233 C 525,165 579,406 536,252 C 396,136 178,268 198,433 C 357,485 264,282 540,456 C 648,299 222,394 426,229 Z" opacity=".35" transform="rotate(-26.0 400 300)"/><path fill="#0fa6d8" stroke="#02eb6b" stroke-opacity=".506" stroke-width="3" d="M 371,396 C 596,114 517,222 472,425 C 270,366 404,213 400,363 C 673,184 107,287 659,495 C 487,178 342,416 137,420 Z" opacity=".507" transform="rotate(-15.0 400 300)"/><path fill="#02eb6b" stroke="#2cd3f3" stroke-opacity=".456" stroke-width="6" d="M 313,376 C 337,137 123,335 595,220 C 649,151 337,206 693,477 C 292,301 318,167 610,336 C 361,259 686,120 505,312 C 480,146 463,381 685,381 C 204,113 329,295 308,322 C 300,224 678,350 279,379 C 195,230 201,412 671,151 C 520,344 558,114 559,118 C 684,151 351,303 130,237 C 554,189 421,325 368,185 Z" opacity=".593" transform="rotate(90.0 400 300)"/><path fill="#02eb6b" stroke="#fe9225" stroke-opacity=".961" stroke-width="5" d="M 440,162 C 201,401 496,202 169,455 C 486,360 343,320 266,296 C 508,328 428,410 257,404 C 494,339 648,409 427,243 C 645,222 239,328 433,461 C 467,344 414,272 171,448 C 209,114 631,297 381,146 C 494,410 497,275 596,275 C 551,263 698,453 603,488 C 110,498 413,333 413,404 Z" opacity=".033" transform="rotate(37.0 400 300)"/><path fill="#fe9225" stroke="#0fa6d8" stroke-opacity=".927" stroke-width="4" d="M 184,279 C 628,396 622,314 356,228 C 164,180 307,105 265,211 C 636,484 494,221 519,463 C 241,452 683,298 593,433 C 487,452 262,171 639,112 C 611,335 580,326 208,330 C 519,352 439,118 367,410 C 555,212 658,459 525,322 C 523,473 470,441 186,441 C 193,434 250,383 260,345 Z" opacity=".09" transform="rotate(-19.0 400 300)"/><path fill="#fe9225" stroke="#f559a0" stroke-opacity=".806" stroke-width="4" d="M 633,196 C 113,243 106,319 316,346 C 532,341 164,499 533,466 C 205,366 215,307 411,458 C 398,198 573,228 455,395 C 505,321 580,413 118,387 C 445,123 681,369 270,364 C 189,118 563,107 435,488 C 170,180 142,145 459,191 C 685,398 136,154 221,208 Z" opacity=".519" transform="rotate(96.0 400 300)"/><path fill="#0fa6d8" stroke="#0fa6d8" stroke-opacity=".497" stroke-width="4" d="M 399,332 C 189,205 395,246 328,287 C 119,119 536,275 107,346 C 485,362 336,497 421,167 C 259,158 334,256 211,265 C 475,138 688,442 505,328 C 498,326 660,401 248,388 C 608,108 560,352 630,500 C 401,483 181,206 295,491 C 647,169 192,116 340,277 Z" opacity=".175" transform="rotate(34.0 400 300)"/><path fill="#fe9225" stroke="#f559a0" stroke-opacity=".105" stroke-width="5" d="M 270,347 C 609,496 415,273 586,296 C 473,187 296,286 275,120 C 565,189 649,398 347,478 C 529,159 384,480 409,498 C 595,353 431,368 500,260 Z" opacity=".724" transform="rotate(61.0 400 300)"/><path fill="#2cd3f3" stroke="#2cd3f3" stroke-opacity=".186" stroke-width="3" d="M 320,314 C 346,394 598,482 612,323 C 378,348 122,229 611,296 C 251,102 352,295 157,318 C 577,192 458,304 312,325 C 468,110 470,240 472,422 C 690,318 130,385 552,420 C 672,168 162,431 372,445 C 443,182 372,236 378,149 C 490,133 323,312 299,194 C 130,314 299,219 550,222 Z" opacity=".56" transform="rotate(150.0 400 300)"/><path fill="#0fa6d8" stroke="#0fa6d8" stroke-opacity=".4" stroke-width="2" d="M 576,327 C 676,235 404,108 236,382 C 448,485 424,334 182,190 C 480,247 571,494 218,255 C 459,146 342,477 497,302 C 262,325 603,345 187,127 C 585,145 267,355 240,104 C 419,322 136,299 673,132 C 508,228 570,216 526,102 Z" opacity=".727" transform="rotate(16.0 400 300)"/></g></svg>