<svg xmlns="http://www.w3.org/2000/svg" xmlns:xlink="http://www.w3.org/1999/xlink" width="800" height="600" version="1.1" viewBox="0 0 800 600"><g fill="none" fill-rule="evenodd" stroke="none" stroke-width="1"><rect width="397" height="349" x="494" y="570" fill="#fe9225" stroke="#0fa6d8" stroke-opacity=".926" stroke-width="6" opacity=".631" transform="rotate(3.0 400 300)"/><rect width="218" height="329" x="361" y="500" fill="#fe9225" stroke="#fe9225" stroke-opacity=".218" stroke-width="6" opacity=".782" transform="rotate(-61.0 400 300)"/><rect width="172" height="250" x="429" y="595" fill="#fe9225" stroke="#fe9225" stroke-opacity=".946" stroke-width="6" opacity=".322" transform="rotate(166.0 400 300)"/><rect width="84" height="218" x="670" y="39" fill="#fe9225" stroke="#0fa6d8" stroke-opacity=".694" stroke-width="4" opacity=".914" transform="rotate(128.0 400 300)"/><path fill="#0fa6d8" stroke="#f559a0" stroke-opacity=".811" stroke-width="5" d="M 428,414 C 176,221 107,395 413,444 C 374,129 612,432 211,213 C 131,144 142,372 622,493 C 437,159 285,122 124,103 C 228,204 249,416 198,369 C 337,208 406,114 588,136 C 111,398 263,267 374,364 C 554,197 520,416 637,465 C 479,493 432,346 679,293 Z" opacity=".396" transform="rotate(47.0 400 300)"/><ellipse cx="391" cy="198" fill="#f559a0" stroke="#2cd3f3" stroke-opacity=".308" stroke-width="2" opacity=".284" rx="182" ry="212" transform="rotate(-47.0 400 300)"/><ellipse cx="692" cy="333" fill="#fe9225" stroke="#0fa6d8" stroke-opacity=".793" stroke-width="5" opacity=".618" rx="235" ry="169" transform="rotate(172.0 400 300)"/><ellipse cx="680" cy="366" fill="#02eb6b" stroke="#fe9225" stroke-opacity=".158" stroke-width="4" opacity=".198" rx="401" ry="238" transform="rotate(177.0 400 300)"/><polygon fill="#fe9225" stroke="#0fa6d8" stroke-opacity=".454" stroke-width="2" points="359 354 431 323 137 386 787 462 678 456 352 538" opacity=".029" transform="rotate(75.0 400 300)"/><polygon fill="#fe9225" stroke="#0fa6d8" stroke-opacity=".35" stroke-width="1" points="174 91 102 251 217 21 438 299 455 525 51 304 776 43 388 457" opacity=".733" transform="rotate(43.0 400 300)"/></g></svg>