<svg xmlns="http://www.w3.org/2000/svg" xmlns:xlink="http://www.w3.org/1999/xlink" width="800" height="600" version="1.1" viewBox="0 0 800 600"><g fill="none" fill-rule="evenodd" stroke="none" stroke-width="1"><ellipse cx="210" cy="202" fill="#2cd3f3" stroke="#f559a0" stroke-opacity=".569" stroke-width="3" opacity=".352" rx="423" ry="60" transform="rotate(-116.0 400 300)"/><path fill="#2cd3f3" stroke="#02eb6b" stroke-opacity=".835" stroke-width="5" d="M 384,342 C 536,372 180,239 237,315 C 542,146 350,241 521,319 C 484,344 272,149 693,498 C 423,271 689,139 255,286 C 409,448 413,437 523,138 C 319,432 320,367 145,173 Z" opacity=".359" transform="rotate(-114.0 400 300)"/><path fill="#f559a0" stroke="#2cd3f3" stroke-opacity=".226" stroke-width="1" d="M 220,427 C 319,253 689,250 521,489 C 485,158 240,128 335,326 C 180,335 595,462 158,389 C 667,124 618,376 157,210 C 410,236 436,286 311,444 C 476,345 310,228 695,282 C 238,449 187,152 166,232 C 453,255 273,135 534,416 C 698,385 510,319 215,324 Z" opacity=".342" transform="rotate(159.0 400 300)"/><ellipse cx="720" cy="572" fill="#f559a0" stroke="#fe9225" stroke-opacity=".621" stroke-width="3" opacity=".915" rx="432" ry="41" transform="rotate(15.0 400 300)"/><ellipse cx="494" cy="411" fill="#fe9225" stroke="#fe9225" stroke-opacity=".228" stroke-width="2" opacity=".378" rx="239" ry="196" transform="rotate(-107.0 400 300)"/><polygon fill="#2cd3f3" stroke="#fe9225" stroke-opacity=".929" stroke-width="4" points="697 522 2 84 115 125 297 561 364 565 14 442" opacity=".446" transform="rotate(-25.0 400 300)"/><rect width="319" height="160" x="242" y="439" fill="#02eb6b" stroke="#02eb6b" stroke-opacity=".595" stroke-width="3" opacity=".711" transform="rotate(-85.0 400 300)"/><rect width="364" height="127" x="92" y="256" fill="#02eb6b" stroke="#02eb6b" stroke-opacity=".208" stroke-width="4" opacity=".592" transform="rotate(-41.0 400 300)"/><rect width="95" height="178" x="140" y="385" fill="#02eb6b" stroke="#02eb6b" stroke-opacity=".4" stroke-width="3" opacity=".199" transform="rotate(59.0 400 300)"/></g></svg>