<svg xmlns="http://www.w3.org/2000/svg" xmlns:xlink="http://www.w3.org/1999/xlink" width="800" height="600" version="1.1" viewBox="0 0 800 600"><g fill="none" fill-rule="evenodd" stroke="none" stroke-width="1"><path fill="#f559a0" stroke="#fe9225" stroke-opacity=".761" stroke-width="6" d="M 185,118 C 454,472 599,283 521,181 C 304,285 628,170 386,156 C 666,239 634,278 511,164 C 443,410 682,153 358,476 C 391,439 175,130 459,340 C 189,362 117,132 604,167 C 481,270 498,166 582,309 C 476,328 411,471 443,436 C 634,225 363,490 113,214 C 300,206 597,106 144,215 C 566,385 671,382 377,252 Z" opacity=".142" transform="rotate(45.0 400 300)"/><path fill="#02eb6b" stroke="#f559a0" stroke-opacity=".314" stroke-width="1" d="M 500,358 C 683,227 600,496 672,144 C 583,340 576,151 462,324 C 449,272 670,460 549,224 C 604,470 172,421 356,393 C 159,421 364,184 195,484 Z" opacity=".925" transform="rotate(172.0 400 300)"/><path fill="#0fa6d8" stroke="#0fa6d8" stroke-opacity=".865" stroke-width="4" d="M 216,487 C 605,480 260,385 359,292 C 520,199 145,165 221,194 C 162,448 230,360 653,466 C 132,425 219,135 657,332 Z" opacity=".017" transform="rotate(155.0 400 300)"/><path fill="#0fa6d8" stroke="#f559a0" stroke-opacity=".475" stroke-width="6" d="M 280,429 C 671,212 516,403 585,135 C 275,455 291,487 190,270 C 638,344 420,368 619,128 C 153,354 236,286 644,465 C 441,482 252,468 125,351 C 168,283 380,452 657,289 C 674,466 667,392 245,498 C 230,404 164,376 282,128 C 382,109 679,304 578,166 C 566,130 526,302 204,292 Z" opacity=".176" transform="rotate(-40.0 400 300)"/><path fill="#02eb6b" stroke="#02eb6b" stroke-opacity=".734" stroke-width="6" d="M 326,160 C 187,210 515,245 582,379 C 325,376 409,170 288,170 C 161,359 419,289 599,477 C 357,177 322,306 656,355 C 533,151 236,356 259,274 C 126,251 316,361 153,495 Z" opacity=".901" transform="rotate(-53.0 400 300)"/><path fill="#0fa6d8" stroke="#f559a0" stroke-opacity=".976" stroke-width="5" d="M 385,369 C 377,282 682,265 222,177 C 623,423 681,197 111,185 C 156,187 250,130 306,421 C 637,119 320,462 610,352 C 201,355 602,293 347,154 C 413,214 469,209 618,392 Z" opacity=".675" transform="rotate(98.0 400 300)"/><path fill="#0fa6d8" stroke="#0fa6d8" stroke-opacity=".231" stroke-width="3" d="M 116,229 C 573,422 227,311 412,318 C 391,401 233,415 264,344 C 298,277 419,270 488,193 C 632,114 418,481 427,426 C 697,439 399,391 478,106 C 323,177 404,247 499,264 C 553,171 560,437 510,126 C 582,216 603,439 297,258 C 556,117 571,315 163,119 C 633,176 306,208 479,472 Z" opacity=".069" transform="rotate(-114.0 400 300)"/><path fill="#0fa6d8" stroke="#fe9225" stroke-opacity=".563" stroke-width="5" d="M 302,287 C 482,209 522,185 308,360 C 479,471 429,364 656,229 C 582,430 489,282 662,429 C 646,185 311,170 385,453 C 621,393 623,406 539,330 C 268,267 493,479 585,499 C 179,414 107,424 508,208 C 540,446 197,322 152,269 Z" opacity=".814" transform="rotate(125.0 400 300)"/><path fill="#0fa6d8" stroke="#02eb6b" stroke-opacity=".673" stroke-width="2" d="M 427,265 C 590,464 483,471 198,259 C 459,209 119,449 234,407 C 118,106 202,431 243,163 C 548,276 363,375 314,485 C 133,165 667,134 642,321 C 690,162 428,397 620,487 C 481,330 508,134 500,119 Z" opacity=".217" transform="rotate(-165.0 400 300)"/></g></svg>