<?xml version="1.0" encoding="UTF-8"?>
<svg width="800px" height="600px" viewBox="0 0 800 600" version="1.1" xmlns="http://www.w3.org/2000/svg" xmlns:xlink="http://www.w3.org/1999/xlink">
  <defs></defs>
  <g stroke="none" stroke-width="1" fill="none" fill-rule="evenodd">
    
    <polygon stroke="#0fa6d8" stroke-width="6" fill="#2cd3f3" opacity="0.6770921309145926" stroke-opacity="0.593998927174601" transform="rotate(33.0 400 300)" points="220 146 540 121 9 69 325 441 5 395 "></polygon>
<ellipse stroke="#2cd3f3" stroke-width="6" fill="#f559a0" opacity="0.7662482542958364" stroke-opacity="0.7990460278729419" transform="rotate(-167.0 400 300)" cx="146" rx="38" cy="351" ry="88"></ellipse>
<path stroke="#02eb6b" stroke-width="2" fill="#0fa6d8" opacity="0.7957250222526152" stroke-opacity="0.067085482865669" transform="rotate(-16.0 400 300)" d="M 524,288  C 498,195 446,356 103,273 C 656,373 678,421 539,304 C 341,212 589,394 433,131 C 174,155 251,188 315,105 C 244,335 446,237 209,158 C 285,481 597,452 447,190 C 609,425 592,206 650,284 C 514,431 558,345 438,366 Z"></path>
<rect stroke="#f559a0" stroke-width="3" fill="#02eb6b" opacity="0.844124262477535" stroke-opacity="0.02552927233216584" transform="rotate(132.0 400 300)" x="683" y="403" width="331" height="67"></rect>
<path stroke="#2cd3f3" stroke-width="7" fill="#0fa6d8" opacity="0.06016725973360795" stroke-opacity="0.6699948326061844" transform="rotate(-85.0 400 300)" d="M 602,335  C 662,391 694,148 661,290 C 142,216 293,127 648,152 C 364,201 165,286 440,269 C 382,143 259,375 438,167 C 541,483 343,186 689,147 C 258,214 204,267 561,361 C 321,302 632,133 345,490 C 398,141 531,211 190,453 C 294,390 622,346 258,305 C 376,373 566,464 689,209 Z"></path>
<rect stroke="#0fa6d8" stroke-width="4" fill="#2cd3f3" opacity="0.7625046722419049" stroke-opacity="0.43024453019649894" transform="rotate(-167.0 400 300)" x="152" y="127" width="150" height="291"></rect>
<rect stroke="#f559a0" stroke-width="5" fill="#fe9225" opacity="0.32121390636179076" stroke-opacity="0.7125348259599038" transform="rotate(-85.0 400 300)" x="782" y="498" width="358" height="280"></rect>
<path stroke="#fe9225" stroke-width="1" fill="#0fa6d8" opacity="0.8495057134899241" stroke-opacity="0.42749242854902725" transform="rotate(-155.0 400 300)" d="M 521,219  C 552,497 105,413 252,479 C 601,487 641,449 614,467 C 411,114 601,184 636,487 C 409,340 428,114 646,208 C 209,499 111,187 161,466 C 138,207 307,431 514,397 Z"></path>
<ellipse stroke="#02eb6b" stroke-width="3" fill="#fe9225" opacity="0.5559210643924888" stroke-opacity="0.20897786968135001" transform="rotate(46.0 400 300)" cx="478" rx="383" cy="429" ry="211"></ellipse>

  </g>
</svg>
