<svg xmlns="http://www.w3.org/2000/svg" xmlns:xlink="http://www.w3.org/1999/xlink" width="800" height="600" version="1.1" viewBox="0 0 800 600"><g fill="none" fill-rule="evenodd" stroke="none" stroke-width="1"><polygon fill="#2cd3f3" stroke="#0fa6d8" stroke-opacity=".594" stroke-width="6" points="220 146 540 121 9 69 325 441 5 395" opacity=".677" transform="rotate(33.0 400 300)"/><ellipse cx="146" cy="351" fill="#f559a0" stroke="#2cd3f3" stroke-opacity=".799" stroke-width="6" opacity=".766" rx="38" ry="88" transform="rotate(-167.0 400 300)"/><path fill="#0fa6d8" stroke="#02eb6b" stroke-opacity=".067" stroke-width="2" d="M 524,288 C 498,195 446,356 103,273 C 656,373 678,421 539,304 C 341,212 589,394 433,131 C 174,155 251,188 315,105 C 244,335 446,237 209,158 C 285,481 597,452 447,190 C 609,425 592,206 650,284 C 514,431 558,345 438,366 Z" opacity=".796" transform="rotate(-16.0 400 300)"/><rect width="331" height="67" x="683" y="403" fill="#02eb6b" stroke="#f559a0" stroke-opacity=".026" stroke-width="3" opacity=".844" transform="rotate(132.0 400 300)"/><path fill="#0fa6d8" stroke="#2cd3f3" stroke-opacity=".67" stroke-width="7" d="M 602,335 C 662,391 694,148 661,290 C 142,216 293,127 648,152 C 364,201 165,286 440,269 C 382,143 259,375 438,167 C 541,483 343,186 689,147 C 258,214 204,267 561,361 C 321,302 632,133 345,490 C 398,141 531,211 190,453 C 294,390 622,346 258,305 C 376,373 566,464 689,209 Z" opacity=".06" transform="rotate(-85.0 400 300)"/><rect width="150" height="291" x="152" y="127" fill="#2cd3f3" stroke="#0fa6d8" stroke-opacity=".43" stroke-width="4" opacity=".763" transform="rotate(-167.0 400 300)"/><rect width="358" height="280" x="782" y="498" fill="#fe9225" stroke="#f559a0" stroke-opacity=".713" stroke-width="5" opacity=".321" transform="rotate(-85.0 400 300)"/><path fill="#0fa6d8" stroke="#fe9225" stroke-opacity=".427" stroke-width="1" d="M 521,219 C 552,497 105,413 252,479 C 601,487 641,449 614,467 C 411,114 601,184 636,487 C 409,340 428,114 646,208 C 209,499 111,187 161,466 C 138,207 307,431 514,397 Z" opacity=".85" transform="rotate(-155.0 400 300)"/><ellipse cx="478" cy="429" fill="#fe9225" stroke="#02eb6b" stroke-opacity=".209" stroke-width="3" opacity=".556" rx="383" ry="211" transform="rotate(46.0 400 300)"/></g></svg>