<svg xmlns="http://www.w3.org/2000/svg" xmlns:xlink="http://www.w3.org/1999/xlink" width="800" height="600" version="1.1" viewBox="0 0 800 600"><g fill="none" fill-rule="evenodd" stroke="none" stroke-width="1"><rect width="302" height="341" x="500" y="511" fill="#2b55f7" stroke="#2b55f7" stroke-opacity=".156" stroke-width="6" opacity=".832" transform="rotate(100.0 400 300)"/><path fill="#2b55f7" stroke="#2b55f7" stroke-opacity=".119" stroke-width="4" d="M 181,118 C 573,495 293,115 657,236 C 415,183 451,209 126,135 C 648,259 284,122 294,331 C 688,450 111,418 134,162 C 473,411 458,181 519,168 C 449,441 416,320 582,358 C 570,192 583,295 690,208 C 397,109 168,103 154,298 Z" opacity=".9" transform="rotate(-54.0 400 300)"/><path fill="#31a06b" stroke="#2b55f7" stroke-opacity=".57" stroke-width="2" d="M 394,447 C 263,394 408,277 676,464 C 602,147 203,234 692,473 C 368,477 461,127 299,262 C 476,272 477,124 459,381 C 551,413 389,219 425,184 C 350,200 488,109 521,272 C 113,342 615,483 640,370 C 275,239 349,150 347,206 C 211,392 685,123 247,158 C 563,239 250,374 418,454 C 634,383 328,263 545,321 Z" opacity=".92" transform="rotate(34.0 400 300)"/><rect width="245" height="154" x="783" y="464" fill="#f27630" stroke="#f9d84b" stroke-opacity=".218" stroke-width="6" opacity=".158" transform="rotate(170.0 400 300)"/><path fill="#2b55f7" stroke="#ed2b2c" stroke-opacity=".08" stroke-width="5" d="M 571,108 C 432,179 457,197 379,112 C 523,176 626,223 364,301 C 624,402 149,416 352,374 C 313,190 141,250 309,399 C 693,468 642,443 670,109 Z" opacity=".444" transform="rotate(-140.0 400 300)"/><rect width="128" height="341" x="203" y="79" fill="#ed2b2c" stroke="#ed2b2c" stroke-opacity=".059" stroke-width="4" opacity=".457" transform="rotate(112.0 400 300)"/><path fill="#2b55f7" stroke="#f9d84b" stroke-opacity="1" stroke-width="3" d="M 589,145 C 405,383 205,228 614,200 C 606,203 344,355 411,408 C 389,323 645,392 582,316 C 124,295 575,395 140,150 C 601,295 670,313 367,360 Z" opacity=".738" transform="rotate(-2.0 400 300)"/></g></svg>