<svg xmlns="http://www.w3.org/2000/svg" xmlns:xlink="http://www.w3.org/1999/xlink" width="800" height="600" version="1.1" viewBox="0 0 800 600"><g fill="none" fill-rule="evenodd" stroke="none" stroke-width="1"><path fill="#0fa6d8" stroke="#2cd3f3" stroke-opacity=".53" stroke-width="4" d="M 511,114 C 125,377 377,160 142,488 C 614,485 309,188 494,167 C 285,292 299,470 494,146 C 279,206 648,487 489,309 C 311,131 313,282 131,112 C 494,240 165,372 566,403 C 397,467 335,367 385,141 C 366,446 185,166 552,236 C 634,282 224,150 492,340 C 695,325 192,438 147,411 C 491,439 117,107 261,308 Z" opacity=".663" transform="rotate(178.0 400 300)"/><path fill="#0fa6d8" stroke="#02eb6b" stroke-opacity=".937" stroke-width="2" d="M 379,365 C 360,176 362,364 649,321 C 677,262 122,238 276,289 C 286,288 258,335 440,199 C 691,427 433,287 397,484 C 498,265 566,200 358,335 C 264,146 462,288 276,211 C 619,122 300,111 642,377 Z" opacity=".082" transform="rotate(-158.0 400 300)"/><path fill="#fe9225" stroke="#02eb6b" stroke-opacity=".719" stroke-width="1" d="M 303,399 C 668,467 126,371 527,371 C 401,310 223,339 439,134 C 381,313 382,432 258,497 C 665,349 642,258 416,181 C 196,300 475,336 590,474 C 423,353 690,462 213,275 C 372,338 437,148 470,305 Z" opacity=".627" transform="rotate(21.0 400 300)"/><path fill="#fe9225" stroke="#0fa6d8" stroke-opacity=".606" stroke-width="7" d="M 663,351 C 421,273 483,497 438,255 C 639,443 514,114 445,482 C 182,442 363,312 516,136 C 452,473 522,244 565,180 Z" opacity=".683" transform="rotate(-178.0 400 300)"/><path fill="#02eb6b" stroke="#fe9225" stroke-opacity=".434" stroke-width="3" d="M 495,152 C 425,423 256,286 279,204 C 370,251 295,490 321,310 C 177,234 530,278 222,364 C 159,167 284,165 425,429 C 404,142 570,451 358,156 C 142,370 438,388 383,449 C 164,200 239,415 650,315 C 155,330 297,322 424,438 Z" opacity=".285" transform="rotate(154.0 400 300)"/><path fill="#0fa6d8" stroke="#0fa6d8" stroke-opacity=".478" stroke-width="7" d="M 449,104 C 462,143 442,150 474,138 C 658,227 287,236 432,158 C 622,315 476,201 110,428 C 419,451 585,321 461,114 Z" opacity=".402" transform="rotate(-70.0 400 300)"/></g></svg>