<svg xmlns="http://www.w3.org/2000/svg" xmlns:xlink="http://www.w3.org/1999/xlink" width="800" height="600" version="1.1" viewBox="0 0 800 600"><g fill="none" fill-rule="evenodd" stroke="none" stroke-width="1"><path fill="#f9d84b" stroke="#ed2b2c" stroke-opacity=".398" stroke-width="6" d="M 673,367 C 551,119 606,396 551,485 C 187,323 341,286 199,412 C 668,170 513,275 391,203 C 410,141 686,419 525,122 C 684,408 698,443 595,412 C 156,349 580,254 519,370 Z" opacity=".795" transform="rotate(-14.0 400 300)"/><path fill="#f27630" stroke="#ed2b2c" stroke-opacity=".9" stroke-width="1" d="M 385,188 C 326,335 334,106 156,317 C 435,251 451,444 369,328 C 669,150 468,493 342,433 C 475,394 638,210 672,151 C 120,187 506,153 128,160 C 277,458 186,405 313,263 Z" opacity=".313" transform="rotate(124.0 400 300)"/><path fill="#ed2b2c" stroke="#f27630" stroke-opacity=".938" stroke-width="5" d="M 630,196 C 237,103 336,217 274,329 C 278,156 107,166 364,376 C 504,249 279,470 464,140 C 205,131 465,109 540,183 C 396,262 479,289 145,189 C 697,356 169,144 101,310 C 521,168 262,359 689,498 C 186,406 700,331 455,356 C 539,148 267,206 277,158 C 193,316 311,367 557,279 Z" opacity=".397" transform="rotate(150.0 400 300)"/><path fill="#f27630" stroke="#f9d84b" stroke-opacity=".95" stroke-width="4" d="M 283,444 C 562,355 429,105 203,389 C 641,318 288,129 580,317 C 327,339 638,186 361,164 C 309,329 449,141 124,344 C 614,350 411,286 470,301 C 662,302 357,153 184,387 C 642,417 533,405 456,389 Z" opacity=".158" transform="rotate(166.0 400 300)"/><path fill="#2b55f7" stroke="#f9d84b" stroke-opacity=".754" stroke-width="2" d="M 610,331 C 131,265 527,378 258,103 C 518,497 239,294 112,360 C 404,414 179,265 676,126 C 228,131 114,412 224,261 C 118,200 517,241 511,453 C 509,334 394,191 274,123 C 321,207 421,282 176,301 C 394,404 183,246 226,342 Z" opacity=".47" transform="rotate(158.0 400 300)"/><path fill="#f9d84b" stroke="#f27630" stroke-opacity=".489" stroke-width="7" d="M 327,497 C 260,318 289,198 283,419 C 588,491 348,432 682,444 C 449,305 366,136 254,280 C 276,358 533,237 344,377 C 117,214 298,351 247,110 C 614,113 492,122 369,190 C 398,126 588,195 504,416 C 400,455 377,190 105,103 C 563,267 286,269 575,187 Z" opacity=".485" transform="rotate(122.0 400 300)"/><path fill="#f9d84b" stroke="#31a06b" stroke-opacity=".537" stroke-width="2" d="M 518,187 C 215,288 517,145 106,277 C 615,245 647,237 458,170 C 562,300 545,235 363,183 C 293,474 103,168 187,237 Z" opacity=".683" transform="rotate(45.0 400 300)"/></g></svg>