<svg xmlns="http://www.w3.org/2000/svg" xmlns:xlink="http://www.w3.org/1999/xlink" width="800" height="600" version="1.1" viewBox="0 0 800 600"><g fill="none" fill-rule="evenodd" stroke="none" stroke-width="1"><path fill="#f9d84b" stroke="#2b55f7" stroke-opacity=".536" stroke-width="7" d="M 575,431 C 624,313 398,136 289,390 C 533,186 664,466 567,151 C 446,162 420,286 583,391 C 436,488 432,484 551,240 C 171,450 656,160 576,161 C 357,323 611,379 554,483 C 479,488 114,380 595,125 C 165,363 551,268 631,255 C 573,182 137,316 671,140 C 635,415 540,163 175,282 Z" opacity=".371" transform="rotate(-103.0 400 300)"/><path fill="#31a06b" stroke="#f27630" stroke-opacity=".134" stroke-width="6" d="M 257,182 C 548,144 434,149 156,356 C 420,359 341,166 226,288 C 446,465 204,279 359,283 C 483,282 231,215 165,376 Z" opacity=".435" transform="rotate(93.0 400 300)"/><path fill="#f9d84b" stroke="#31a06b" stroke-opacity=".169" stroke-width="2" d="M 189,405 C 438,260 178,371 351,356 C 491,157 650,213 667,435 C 317,151 566,472 226,148 C 427,307 304,448 315,337 C 131,473 354,453 248,109 Z" opacity=".499" transform="rotate(-44.0 400 300)"/><path fill="#f27630" stroke="#2b55f7" stroke-opacity=".206" stroke-width="6" d="M 410,290 C 181,312 689,445 328,102 C 349,404 502,125 651,450 C 334,122 252,273 668,447 C 189,264 208,488 385,419 C 555,281 122,107 647,188 C 635,367 574,283 587,320 C 582,273 302,226 689,157 C 105,192 564,405 491,272 C 249,453 411,258 579,416 Z" opacity=".849" transform="rotate(14.0 400 300)"/><path fill="#f9d84b" stroke="#f9d84b" stroke-opacity=".082" stroke-width="1" d="M 117,422 C 222,312 550,188 538,345 C 560,286 541,312 599,472 C 637,250 137,315 155,114 C 698,127 286,102 190,464 C 411,389 577,107 649,342 C 276,459 257,182 417,375 C 479,232 605,361 430,111 Z" opacity=".353" transform="rotate(96.0 400 300)"/><path fill="#f27630" stroke="#2b55f7" stroke-opacity=".077" stroke-width="5" d="M 578,171 C 437,132 542,323 489,255 C 244,223 632,346 151,215 C 689,429 627,399 215,164 C 436,192 295,425 274,493 C 599,330 698,123 351,155 Z" opacity=".728" transform="rotate(6.0 400 300)"/><path fill="#f27630" stroke="#f9d84b" stroke-opacity=".046" stroke-width="4" d="M 126,218 C 368,273 179,302 232,141 C 503,128 266,158 131,247 C 359,243 454,126 581,372 C 498,101 693,481 562,243 C 632,143 271,152 205,194 C 150,292 231,282 367,489 C 227,342 230,464 662,256 C 243,105 664,326 601,250 C 548,243 196,229 418,256 C 269,473 415,500 455,413 C 111,365 572,115 667,313 Z" opacity=".031" transform="rotate(70.0 400 300)"/><path fill="#f9d84b" stroke="#ed2b2c" stroke-opacity=".419" stroke-width="5" d="M 515,410 C 555,343 236,191 525,263 C 130,101 551,297 459,421 C 562,300 399,260 603,368 C 330,116 163,269 123,209 C 168,406 321,476 590,223 C 589,345 204,475 633,360 Z" opacity=".026" transform="rotate(-120.0 400 300)"/><path fill="#2b55f7" stroke="#ed2b2c" stroke-opacity=".113" stroke-width="7" d="M 182,253 C 117,443 543,443 148,300 C 362,262 492,231 629,242 C 175,459 228,330 423,277 C 456,190 126,429 504,299 C 238,345 553,215 576,197 C 469,244 117,387 615,126 Z" opacity=".067" transform="rotate(-175.0 400 300)"/><path fill="#f9d84b" stroke="#ed2b2c" stroke-opacity=".33" stroke-width="6" d="M 507,208 C 313,346 104,243 381,382 C 305,464 397,282 577,278 C 119,123 258,137 387,211 C 476,252 590,146 508,145 C 509,336 334,273 319,301 C 214,406 281,366 689,339 C 428,469 282,115 388,448 C 260,117 559,134 401,137 C 411,405 424,301 190,136 Z" opacity=".665" transform="rotate(140.0 400 300)"/><path fill="#f9d84b" stroke="#f9d84b" stroke-opacity=".945" stroke-width="1" d="M 240,212 C 293,189 124,431 528,421 C 663,449 418,178 377,500 C 410,116 266,301 287,276 C 196,481 485,344 571,152 C 601,200 265,426 575,484 C 364,323 380,238 306,469 C 399,297 236,167 226,175 C 629,119 429,173 363,417 C 598,455 357,238 261,315 Z" opacity=".776" transform="rotate(82.0 400 300)"/></g></svg>