<?xml version="1.0" encoding="UTF-8"?>
<svg width="800px" height="600px" viewBox="0 0 800 600" version="1.1" xmlns="http://www.w3.org/2000/svg" xmlns:xlink="http://www.w3.org/1999/xlink">
  <defs></defs>
  <g stroke="none" stroke-width="1" fill="none" fill-rule="evenodd">
    
    <polygon stroke="#fe9225" stroke-width="6" fill="#2cd3f3" opacity="0.2891016561408832" stroke-opacity="0.4823895150617735" transform="rotate(-115.0 400 300)" points="754 248 349 39 299 121 613 514 667 339 "></polygon>
<path stroke="#f559a0" stroke-width="1" fill="#02eb6b" opacity="0.4015172748206916" stroke-opacity="0.8029254811192125" transform="rotate(167.0 400 300)" d="M 347,209  C 119,491 621,169 148,207 C 132,276 321,185 244,103 C 254,331 201,320 253,455 C 687,286 477,205 410,144 C 217,379 689,287 342,404 C 595,242 472,450 692,489 C 272,298 243,406 354,239 C 216,413 689,439 126,191 Z"></path>
<ellipse stroke="#0fa6d8" stroke-width="6" fill="#2cd3f3" opacity="0.5412084631838802" stroke-opacity="0.6960517941766284" transform="rotate(36.0 400 300)" cx="161" rx="379" cy="328" ry="191"></ellipse>
<polygon stroke="#02eb6b" stroke-width="7" fill="#02eb6b" opacity="0.4299543636983027" stroke-opacity="0.4446079829200272" transform="rotate(105.0 400 300)" points="420 509 170 479 532 416 780 231 561 333 147 12 367 598 763 227 "></polygon>
<ellipse stroke="#02eb6b" stroke-width="3" fill="#fe9225" opacity="0.5884608235321767" stroke-opacity="0.4001062252035736" transform="rotate(29.0 400 300)" cx="88" rx="264" cy="180" ry="103"></ellipse>
<ellipse stroke="#f559a0" stroke-width="2" fill="#2cd3f3" opacity="0.49453552902302994" stroke-opacity="0.0802521029571616" transform="rotate(-42.0 400 300)" cx="61" rx="301" cy="535" ry="339"></ellipse>

  </g>
</svg>
