<svg xmlns="http://www.w3.org/2000/svg" xmlns:xlink="http://www.w3.org/1999/xlink" width="800" height="600" version="1.1" viewBox="0 0 800 600"><g fill="none" fill-rule="evenodd" stroke="none" stroke-width="1"><polygon fill="#2cd3f3" stroke="#fe9225" stroke-opacity=".482" stroke-width="6" points="754 248 349 39 299 121 613 514 667 339" opacity=".289" transform="rotate(-115.0 400 300)"/><path fill="#02eb6b" stroke="#f559a0" stroke-opacity=".803" stroke-width="1" d="M 347,209 C 119,491 621,169 148,207 C 132,276 321,185 244,103 C 254,331 201,320 253,455 C 687,286 477,205 410,144 C 217,379 689,287 342,404 C 595,242 472,450 692,489 C 272,298 243,406 354,239 C 216,413 689,439 126,191 Z" opacity=".402" transform="rotate(167.0 400 300)"/><ellipse cx="161" cy="328" fill="#2cd3f3" stroke="#0fa6d8" stroke-opacity=".696" stroke-width="6" opacity=".541" rx="379" ry="191" transform="rotate(36.0 400 300)"/><polygon fill="#02eb6b" stroke="#02eb6b" stroke-opacity=".445" stroke-width="7" points="420 509 170 479 532 416 780 231 561 333 147 12 367 598 763 227" opacity=".43" transform="rotate(105.0 400 300)"/><ellipse cx="88" cy="180" fill="#fe9225" stroke="#02eb6b" stroke-opacity=".4" stroke-width="3" opacity=".588" rx="264" ry="103" transform="rotate(29.0 400 300)"/><ellipse cx="61" cy="535" fill="#2cd3f3" stroke="#f559a0" stroke-opacity=".08" stroke-width="2" opacity=".495" rx="301" ry="339" transform="rotate(-42.0 400 300)"/></g></svg>