<?xml version="1.0" encoding="UTF-8"?>
<svg width="800px" height="600px" viewBox="0 0 800 600" version="1.1" xmlns="http://www.w3.org/2000/svg" xmlns:xlink="http://www.w3.org/1999/xlink">
  <defs></defs>
  <g stroke="none" stroke-width="1" fill="none" fill-rule="evenodd">
    
    <path stroke="#0fa6d8" stroke-width="5" fill="#0fa6d8" opacity="0.5941094800608712" stroke-opacity="0.13825318057229713" transform="rotate(-80.0 400 300)" d="M 144,453  C 583,187 193,339 589,237 C 381,411 669,135 144,105 C 520,110 167,119 327,315 C 531,389 519,257 221,386 C 207,271 341,319 541,121 C 438,161 245,330 680,263 Z"></path>
<path stroke="#02eb6b" stroke-width="2" fill="#fe9225" opacity="0.43565983043273016" stroke-opacity="0.5939597404825161" transform="rotate(42.0 400 300)" d="M 629,347  C 566,379 369,216 649,384 C 391,274 530,500 245,137 C 410,437 410,332 458,225 C 320,151 430,148 345,368 C 101,374 646,185 589,272 C 462,122 361,239 649,246 Z"></path>
<path stroke="#02eb6b" stroke-width="5" fill="#f559a0" opacity="0.7960996425077944" stroke-opacity="0.5931849605288487" transform="rotate(-148.0 400 300)" d="M 311,196  C 455,108 353,348 173,263 C 125,118 127,326 530,337 C 608,329 592,451 164,102 C 280,363 294,373 240,416 C 526,196 614,239 214,106 C 288,346 405,273 684,233 C 362,106 171,216 378,356 C 616,237 403,151 641,143 C 353,216 295,317 371,455 C 650,378 456,492 308,413 C 410,298 191,189 106,362 Z"></path>
<path stroke="#f559a0" stroke-width="7" fill="#0fa6d8" opacity="0.19015159675555696" stroke-opacity="0.07425681750772099" transform="rotate(24.0 400 300)" d="M 625,232  C 442,334 348,366 368,367 C 495,189 681,171 352,267 C 632,124 672,102 543,407 C 332,327 187,234 339,205 C 521,456 139,480 263,151 C 381,169 563,255 223,338 C 675,371 662,478 168,121 Z"></path>
<path stroke="#fe9225" stroke-width="2" fill="#02eb6b" opacity="0.7169600012237748" stroke-opacity="0.9084143464479366" transform="rotate(140.0 400 300)" d="M 339,125  C 570,305 428,373 480,313 C 438,350 182,414 159,174 C 403,220 614,264 349,292 C 332,483 577,415 512,115 C 209,383 565,116 145,260 C 129,321 125,463 237,144 C 376,117 560,382 428,400 C 624,263 661,334 642,176 Z"></path>
<path stroke="#0fa6d8" stroke-width="1" fill="#0fa6d8" opacity="0.37018338681887336" stroke-opacity="0.9074899612002937" transform="rotate(6.0 400 300)" d="M 244,168  C 614,475 522,493 638,140 C 448,159 329,168 604,258 C 442,213 404,412 270,371 C 212,452 350,427 380,378 C 204,157 643,216 121,436 C 298,495 333,162 166,250 C 672,479 391,296 237,462 Z"></path>
<path stroke="#2cd3f3" stroke-width="3" fill="#02eb6b" opacity="0.022482263445002062" stroke-opacity="0.5776127036599071" transform="rotate(10.0 400 300)" d="M 102,353  C 113,348 323,147 556,447 C 600,347 419,230 522,223 C 589,108 677,299 486,209 C 609,385 269,225 550,138 C 536,244 315,302 675,151 C 247,284 462,233 671,192 Z"></path>
<path stroke="#f559a0" stroke-width="4" fill="#fe9225" opacity="0.6886451479897373" stroke-opacity="0.7335711350734602" transform="rotate(29.0 400 300)" d="M 186,241  C 467,215 339,154 408,310 C 154,483 103,259 328,374 C 620,284 490,401 632,461 C 628,117 656,289 657,322 Z"></path>
<path stroke="#fe9225" stroke-width="1" fill="#2cd3f3" opacity="0.9674882257101548" stroke-opacity="0.25327734948858893" transform="rotate(-48.0 400 300)" d="M 479,371  C 651,452 526,108 375,256 C 455,248 640,418 578,423 C 519,343 381,272 574,290 C 554,407 489,292 593,323 C 240,483 106,360 240,342 C 451,327 532,160 577,332 C 596,263 148,289 243,385 C 484,357 682,316 189,171 Z"></path>
<path stroke="#02eb6b" stroke-width="1" fill="#02eb6b" opacity="0.2103804171559924" stroke-opacity="0.8980832359268209" transform="rotate(-102.0 400 300)" d="M 323,169  C 691,113 169,462 372,307 C 324,281 663,416 334,114 C 106,345 588,465 233,316 C 551,102 628,329 354,174 C 239,243 212,388 270,106 C 256,465 175,127 181,226 C 464,257 571,108 610,309 C 293,310 420,249 577,364 C 436,443 592,289 533,245 Z"></path>

  </g>
</svg>
