<svg xmlns="http://www.w3.org/2000/svg" xmlns:xlink="http://www.w3.org/1999/xlink" width="800" height="600" version="1.1" viewBox="0 0 800 600"><g fill="none" fill-rule="evenodd" stroke="none" stroke-width="1"><path fill="#ed2b2c" stroke="#f9d84b" stroke-opacity=".531" stroke-width="1" d="M 286,464 C 372,417 400,205 272,385 C 667,141 606,338 238,359 C 294,441 411,274 121,329 C 405,376 344,278 594,222 C 593,104 680,282 657,393 C 636,226 173,500 660,317 C 378,306 177,188 201,388 C 506,447 189,266 626,441 C 231,336 378,243 478,302 C 325,433 226,199 485,244 C 244,340 678,442 270,175 Z" opacity=".66" transform="rotate(-87.0 400 300)"/><path fill="#ed2b2c" stroke="#ed2b2c" stroke-opacity=".987" stroke-width="5" d="M 111,410 C 139,218 265,411 343,161 C 498,201 359,212 224,384 C 178,313 533,108 288,248 C 337,421 610,320 202,367 C 534,213 330,159 466,244 Z" opacity=".916" transform="rotate(-68.0 400 300)"/><path fill="#31a06b" stroke="#f27630" stroke-opacity=".324" stroke-width="2" d="M 127,166 C 279,373 195,234 287,270 C 413,200 144,302 505,338 C 252,145 563,146 548,466 C 672,472 346,370 530,430 C 468,205 325,240 399,322 Z" opacity=".155" transform="rotate(13.0 400 300)"/><path fill="#31a06b" stroke="#ed2b2c" stroke-opacity=".861" stroke-width="6" d="M 309,349 C 110,389 562,428 280,211 C 622,364 698,172 183,125 C 527,143 136,405 121,222 C 113,208 684,467 504,452 Z" opacity=".351" transform="rotate(-110.0 400 300)"/><path fill="#f27630" stroke="#ed2b2c" stroke-opacity=".237" stroke-width="5" d="M 649,246 C 276,225 194,371 342,469 C 686,393 520,198 442,364 C 228,286 243,163 199,259 C 698,176 204,195 131,356 C 315,291 379,132 423,186 Z" opacity=".57" transform="rotate(38.0 400 300)"/><path fill="#2b55f7" stroke="#31a06b" stroke-opacity=".073" stroke-width="1" d="M 492,114 C 101,181 550,246 434,177 C 116,194 475,449 197,243 C 208,172 577,157 117,237 C 156,323 577,210 228,178 C 179,337 687,314 154,423 C 340,174 637,385 168,285 C 665,134 385,434 547,158 C 480,419 202,249 121,116 C 697,337 497,241 211,312 C 124,438 669,464 398,285 C 204,483 633,235 608,295 Z" opacity=".172" transform="rotate(69.0 400 300)"/><path fill="#f27630" stroke="#ed2b2c" stroke-opacity=".448" stroke-width="4" d="M 269,170 C 256,472 165,111 512,329 C 256,111 496,336 502,434 C 309,267 545,442 214,189 C 268,424 472,327 329,414 C 121,406 567,133 651,127 C 667,478 209,443 625,494 C 315,145 387,135 599,176 C 249,141 497,490 335,268 C 136,150 216,216 266,487 C 613,375 360,304 110,415 Z" opacity=".54" transform="rotate(98.0 400 300)"/></g></svg>