<?xml version="1.0" encoding="UTF-8"?>
<svg width="800px" height="600px" viewBox="0 0 800 600" version="1.1" xmlns="http://www.w3.org/2000/svg" xmlns:xlink="http://www.w3.org/1999/xlink">
  <defs></defs>
  <g stroke="none" stroke-width="1" fill="none" fill-rule="evenodd">
    
    <path stroke="#f27630" stroke-width="4" fill="#f27630" opacity="0.45648341836224493" stroke-opacity="0.821206907297986" transform="rotate(-103.0 400 300)" d="M 378,252  C 547,387 480,431 556,494 C 440,327 454,172 625,485 C 268,327 491,268 595,117 C 697,139 303,411 303,308 C 572,149 462,262 389,229 C 309,498 599,176 242,221 C 467,356 585,317 322,328 C 307,355 645,247 134,199 Z"></path>
<path stroke="#ed2b2c" stroke-width="1" fill="#2b55f7" opacity="0.136414514032287" stroke-opacity="0.7245054180207715" transform="rotate(-133.0 400 300)" d="M 433,134  C 444,357 540,395 116,237 C 181,212 268,447 290,278 C 663,483 310,195 625,230 C 182,120 158,332 442,271 C 595,347 247,395 216,108 C 263,397 255,319 161,200 Z"></path>
<path stroke="#f27630" stroke-width="2" fill="#f9d84b" opacity="0.7071711804506563" stroke-opacity="0.5833301632447461" transform="rotate(-74.0 400 300)" d="M 379,500  C 544,188 696,221 436,221 C 235,321 613,362 684,302 C 554,263 207,270 439,498 C 451,269 298,231 520,433 C 435,225 546,337 691,126 C 209,123 254,209 279,195 C 481,409 679,179 672,495 C 123,142 286,367 114,319 C 478,478 206,283 640,344 C 646,180 412,437 312,103 C 400,319 367,342 182,378 Z"></path>
<path stroke="#ed2b2c" stroke-width="5" fill="#ed2b2c" opacity="0.4275061253634831" stroke-opacity="0.27133261284934296" transform="rotate(68.0 400 300)" d="M 317,157  C 372,103 646,102 260,175 C 180,110 250,140 319,252 C 222,376 188,184 348,366 C 402,231 101,454 418,189 C 149,159 501,113 687,292 C 361,263 176,450 640,110 C 664,385 506,140 635,493 C 259,322 103,351 137,223 C 288,314 150,474 282,396 C 324,150 494,328 627,474 C 617,458 144,274 518,164 Z"></path>
<path stroke="#31a06b" stroke-width="7" fill="#31a06b" opacity="0.7783896447876151" stroke-opacity="0.438630677152919" transform="rotate(-159.0 400 300)" d="M 300,475  C 438,159 277,297 681,257 C 448,377 177,248 519,316 C 450,126 691,129 466,290 C 342,194 298,497 216,235 Z"></path>
<path stroke="#f27630" stroke-width="2" fill="#f9d84b" opacity="0.6518675590742491" stroke-opacity="0.12946415140168413" transform="rotate(-163.0 400 300)" d="M 650,398  C 202,310 302,169 476,400 C 323,146 499,289 490,399 C 693,174 193,145 530,141 C 658,337 538,214 464,382 Z"></path>

  </g>
</svg>
